<?xml version="1.0" encoding="utf-8" standalone="no"?>
<!DOCTYPE svg PUBLIC "-//W3C//DTD SVG 1.1//EN"
  "http://www.w3.org/Graphics/SVG/1.1/DTD/svg11.dtd">
<!-- Created with matplotlib (https://matplotlib.org/) -->
<svg height="345.6pt" version="1.1" viewBox="0 0 460.8 345.6" width="460.8pt" xmlns="http://www.w3.org/2000/svg" xmlns:xlink="http://www.w3.org/1999/xlink">
 <defs>
  <style type="text/css">
*{stroke-linecap:butt;stroke-linejoin:round;}
  </style>
 </defs>
 <g id="figure_1">
  <g id="patch_1">
   <path d="M 0 345.6 
L 460.8 345.6 
L 460.8 0 
L 0 0 
z
" style="fill:#ffffff;"/>
  </g>
  <g id="axes_1">
   <g id="patch_2">
    <path d="M 57.6 307.584 
L 414.72 307.584 
L 414.72 41.472 
L 57.6 41.472 
z
" style="fill:#ffffff;"/>
   </g>
   <g id="PolyCollection_1">
    <defs>
     <path d="M 73.832727 -164.840552 
L 73.832727 -177.303448 
L 76.773589 -178.363862 
L 79.714451 -179.559239 
L 82.655313 -180.898266 
L 85.596175 -182.388741 
L 88.537037 -184.037306 
L 91.477899 -185.849188 
L 94.418761 -187.827944 
L 97.359623 -189.975229 
L 100.300485 -192.290593 
L 103.241347 -194.771318 
L 106.182209 -197.412305 
L 109.123071 -200.206021 
L 112.063933 -203.142505 
L 115.004795 -206.209451 
L 117.945658 -209.392355 
L 120.88652 -212.67474 
L 123.827382 -216.038442 
L 126.768244 -219.463961 
L 129.709106 -222.930863 
L 132.649968 -226.418221 
L 135.59083 -229.90508 
L 138.531692 -233.370936 
L 141.472554 -236.796201 
L 144.413416 -240.162645 
L 147.354278 -243.453795 
L 150.29514 -246.655278 
L 153.236002 -249.755079 
L 156.176864 -252.74373 
L 159.117726 -255.614389 
L 162.058588 -258.362828 
L 164.99945 -260.987324 
L 167.940312 -263.488442 
L 170.881174 -265.868739 
L 173.822036 -268.132385 
L 176.762898 -270.284727 
L 179.70376 -272.331799 
L 182.644622 -274.279822 
L 185.585484 -276.134688 
L 188.526346 -277.901479 
L 191.467208 -279.584017 
L 194.40807 -281.184486 
L 197.348932 -282.703129 
L 200.289794 -284.138041 
L 203.230656 -285.48507 
L 206.171518 -286.737816 
L 209.11238 -287.887752 
L 212.053242 -288.924438 
L 214.994104 -289.835826 
L 217.934966 -290.608652 
L 220.875828 -291.228873 
L 223.81669 -291.682149 
L 226.757552 -291.954343 
L 229.698414 -292.032 
L 232.639276 -291.902815 
L 235.580138 -291.556035 
L 238.521 -290.982815 
L 241.461862 -290.17648 
L 244.402724 -289.132726 
L 247.343586 -287.849717 
L 250.284448 -286.328117 
L 253.22531 -284.571034 
L 256.166172 -282.583913 
L 259.107034 -280.374367 
L 262.047896 -277.951974 
L 264.988758 -275.328053 
L 267.92962 -272.515432 
L 270.870482 -269.528215 
L 273.811344 -266.381569 
L 276.752206 -263.091524 
L 279.693068 -259.674807 
L 282.63393 -256.148689 
L 285.574792 -252.530869 
L 288.515654 -248.83936 
L 291.456516 -245.092403 
L 294.397378 -241.308376 
L 297.33824 -237.505704 
L 300.279102 -233.702761 
L 303.219964 -229.917756 
L 306.160826 -226.168608 
L 309.101688 -222.472793 
L 312.042551 -218.847185 
L 314.983413 -215.307879 
L 317.924275 -211.87 
L 320.865137 -208.547523 
L 323.805999 -205.353085 
L 326.746861 -202.297826 
L 329.687723 -199.39124 
L 332.628585 -196.641059 
L 335.569447 -194.053178 
L 338.510309 -191.63161 
L 341.451171 -189.378485 
L 344.392033 -187.294096 
L 347.332895 -185.37698 
L 350.273757 -183.624034 
L 353.214619 -182.030667 
L 356.155481 -180.590976 
L 359.096343 -179.29794 
L 362.037205 -178.143627 
L 364.978067 -177.119405 
L 364.978067 -165.024595 
L 364.978067 -165.024595 
L 362.037205 -164.000373 
L 359.096343 -162.84606 
L 356.155481 -161.553024 
L 353.214619 -160.113333 
L 350.273757 -158.519966 
L 347.332895 -156.76702 
L 344.392033 -154.849904 
L 341.451171 -152.765515 
L 338.510309 -150.51239 
L 335.569447 -148.090822 
L 332.628585 -145.502941 
L 329.687723 -142.75276 
L 326.746861 -139.846174 
L 323.805999 -136.790915 
L 320.865137 -133.596477 
L 317.924275 -130.274 
L 314.983413 -126.836121 
L 312.042551 -123.296815 
L 309.101688 -119.671207 
L 306.160826 -115.975392 
L 303.219964 -112.226244 
L 300.279102 -108.441239 
L 297.33824 -104.638296 
L 294.397378 -100.835624 
L 291.456516 -97.051597 
L 288.515654 -93.30464 
L 285.574792 -89.613131 
L 282.63393 -85.995311 
L 279.693068 -82.469193 
L 276.752206 -79.052476 
L 273.811344 -75.762431 
L 270.870482 -72.615785 
L 267.92962 -69.628568 
L 264.988758 -66.815947 
L 262.047896 -64.192026 
L 259.107034 -61.769633 
L 256.166172 -59.560087 
L 253.22531 -57.572966 
L 250.284448 -55.815883 
L 247.343586 -54.294283 
L 244.402724 -53.011274 
L 241.461862 -51.96752 
L 238.521 -51.161185 
L 235.580138 -50.587965 
L 232.639276 -50.241185 
L 229.698414 -50.112 
L 226.757552 -50.189657 
L 223.81669 -50.461851 
L 220.875828 -50.915127 
L 217.934966 -51.535348 
L 214.994104 -52.308174 
L 212.053242 -53.219562 
L 209.11238 -54.256248 
L 206.171518 -55.406184 
L 203.230656 -56.65893 
L 200.289794 -58.005959 
L 197.348932 -59.440871 
L 194.40807 -60.959514 
L 191.467208 -62.559983 
L 188.526346 -64.242521 
L 185.585484 -66.009312 
L 182.644622 -67.864178 
L 179.70376 -69.812201 
L 176.762898 -71.859273 
L 173.822036 -74.011615 
L 170.881174 -76.275261 
L 167.940312 -78.655558 
L 164.99945 -81.156676 
L 162.058588 -83.781172 
L 159.117726 -86.529611 
L 156.176864 -89.40027 
L 153.236002 -92.388921 
L 150.29514 -95.488722 
L 147.354278 -98.690205 
L 144.413416 -101.981355 
L 141.472554 -105.347799 
L 138.531692 -108.773064 
L 135.59083 -112.23892 
L 132.649968 -115.725779 
L 129.709106 -119.213137 
L 126.768244 -122.680039 
L 123.827382 -126.105558 
L 120.88652 -129.46926 
L 117.945658 -132.751645 
L 115.004795 -135.934549 
L 112.063933 -139.001495 
L 109.123071 -141.937979 
L 106.182209 -144.731695 
L 103.241347 -147.372682 
L 100.300485 -149.853407 
L 97.359623 -152.168771 
L 94.418761 -154.316056 
L 91.477899 -156.294812 
L 88.537037 -158.106694 
L 85.596175 -159.755259 
L 82.655313 -161.245734 
L 79.714451 -162.584761 
L 76.773589 -163.780138 
L 73.832727 -164.840552 
z
" id="m46e548df97" style="stroke:#4c4c4c;stroke-opacity:0.5;stroke-width:1.5;"/>
    </defs>
    <g clip-path="url(#pdc4d7acca6)">
     <use style="fill:#df9c20;fill-opacity:0.5;stroke:#4c4c4c;stroke-opacity:0.5;stroke-width:1.5;" x="0" xlink:href="#m46e548df97" y="345.6"/>
    </g>
   </g>
   <g id="PolyCollection_2">
    <defs>
     <path d="M 110.389559 -164.82751 
L 110.389559 -177.31649 
L 113.299637 -179.741053 
L 116.209715 -182.866289 
L 119.119792 -186.799343 
L 122.02987 -191.630197 
L 124.939948 -197.418831 
L 127.850026 -204.181945 
L 130.760104 -211.880817 
L 133.670182 -220.412095 
L 136.58026 -229.603276 
L 139.490338 -239.2143 
L 142.400416 -248.946059 
L 145.310494 -258.45578 
L 148.220572 -267.378282 
L 151.13065 -275.351228 
L 154.040727 -282.041812 
L 156.950805 -287.171986 
L 159.860883 -290.539435 
L 162.770961 -292.032 
L 165.681039 -291.63408 
L 168.591117 -289.424566 
L 171.501195 -285.566915 
L 174.411273 -280.29284 
L 177.321351 -273.881774 
L 180.231429 -266.638505 
L 183.141507 -258.871365 
L 186.051585 -250.872968 
L 188.961663 -242.904947 
L 191.87174 -235.187473 
L 194.781818 -227.893669 
L 197.691896 -221.148496 
L 200.601974 -215.031282 
L 203.512052 -209.580846 
L 206.42213 -204.802155 
L 209.332208 -200.673544 
L 212.242286 -197.153747 
L 215.152364 -194.188247 
L 218.062442 -191.71469 
L 220.97252 -189.667297 
L 223.882598 -187.980372 
L 226.792675 -186.591026 
L 229.702753 -185.441265 
L 232.612831 -184.479544 
L 235.522909 -183.661821 
L 238.432987 -182.952147 
L 241.343065 -182.322748 
L 244.253143 -181.753622 
L 247.163221 -181.231676 
L 250.073299 -180.749491 
L 252.983377 -180.303833 
L 255.893455 -179.894086 
L 258.803533 -179.520765 
L 261.71361 -179.184255 
L 264.623688 -178.883891 
L 267.533766 -178.617431 
L 270.443844 -178.380909 
L 273.353922 -178.168832 
L 276.264 -177.974614 
L 279.174078 -177.791184 
L 282.084156 -177.611643 
L 284.994234 -177.429927 
L 287.904312 -177.241407 
L 290.81439 -177.043411 
L 293.724468 -176.835647 
L 296.634546 -176.620521 
L 299.544623 -176.403339 
L 302.454701 -176.192357 
L 305.364779 -175.998662 
L 308.274857 -175.835808 
L 311.184935 -175.719202 
L 314.095013 -175.665176 
L 317.005091 -175.68976 
L 319.915169 -175.807186 
L 322.825247 -176.028213 
L 325.735325 -176.358405 
L 328.645403 -176.796545 
L 331.555481 -177.333403 
L 334.465558 -177.951075 
L 337.375636 -178.623084 
L 340.285714 -179.31538 
L 343.195792 -179.988262 
L 346.10587 -180.599141 
L 349.015948 -181.105909 
L 351.926026 -181.470587 
L 354.836104 -181.662823 
L 357.746182 -181.662806 
L 360.65626 -181.463211 
L 363.566338 -181.069895 
L 366.476416 -180.501248 
L 369.386494 -179.786279 
L 372.296571 -178.961692 
L 375.206649 -178.068366 
L 378.116727 -177.147674 
L 381.026805 -176.238113 
L 383.936883 -175.372592 
L 386.846961 -174.576634 
L 389.757039 -173.867558 
L 392.667117 -173.254589 
L 395.577195 -172.739723 
L 398.487273 -172.319091 
L 398.487273 -169.824909 
L 398.487273 -169.824909 
L 395.577195 -169.404277 
L 392.667117 -168.889411 
L 389.757039 -168.276442 
L 386.846961 -167.567366 
L 383.936883 -166.771408 
L 381.026805 -165.905887 
L 378.116727 -164.996326 
L 375.206649 -164.075634 
L 372.296571 -163.182308 
L 369.386494 -162.357721 
L 366.476416 -161.642752 
L 363.566338 -161.074105 
L 360.65626 -160.680789 
L 357.746182 -160.481194 
L 354.836104 -160.481177 
L 351.926026 -160.673413 
L 349.015948 -161.038091 
L 346.10587 -161.544859 
L 343.195792 -162.155738 
L 340.285714 -162.82862 
L 337.375636 -163.520916 
L 334.465558 -164.192925 
L 331.555481 -164.810597 
L 328.645403 -165.347455 
L 325.735325 -165.785595 
L 322.825247 -166.115787 
L 319.915169 -166.336814 
L 317.005091 -166.45424 
L 314.095013 -166.478824 
L 311.184935 -166.424798 
L 308.274857 -166.308192 
L 305.364779 -166.145338 
L 302.454701 -165.951643 
L 299.544623 -165.740661 
L 296.634546 -165.523479 
L 293.724468 -165.308353 
L 290.81439 -165.100589 
L 287.904312 -164.902593 
L 284.994234 -164.714073 
L 282.084156 -164.532357 
L 279.174078 -164.352816 
L 276.264 -164.169386 
L 273.353922 -163.975168 
L 270.443844 -163.763091 
L 267.533766 -163.526569 
L 264.623688 -163.260109 
L 261.71361 -162.959745 
L 258.803533 -162.623235 
L 255.893455 -162.249914 
L 252.983377 -161.840167 
L 250.073299 -161.394509 
L 247.163221 -160.912324 
L 244.253143 -160.390378 
L 241.343065 -159.821252 
L 238.432987 -159.191853 
L 235.522909 -158.482179 
L 232.612831 -157.664456 
L 229.702753 -156.702735 
L 226.792675 -155.552974 
L 223.882598 -154.163628 
L 220.97252 -152.476703 
L 218.062442 -150.42931 
L 215.152364 -147.955753 
L 212.242286 -144.990253 
L 209.332208 -141.470456 
L 206.42213 -137.341845 
L 203.512052 -132.563154 
L 200.601974 -127.112718 
L 197.691896 -120.995504 
L 194.781818 -114.250331 
L 191.87174 -106.956527 
L 188.961663 -99.239053 
L 186.051585 -91.271032 
L 183.141507 -83.272635 
L 180.231429 -75.505495 
L 177.321351 -68.262226 
L 174.411273 -61.85116 
L 171.501195 -56.577085 
L 168.591117 -52.719434 
L 165.681039 -50.50992 
L 162.770961 -50.112 
L 159.860883 -51.604565 
L 156.950805 -54.972014 
L 154.040727 -60.102188 
L 151.13065 -66.792772 
L 148.220572 -74.765718 
L 145.310494 -83.68822 
L 142.400416 -93.197941 
L 139.490338 -102.9297 
L 136.58026 -112.540724 
L 133.670182 -121.731905 
L 130.760104 -130.263183 
L 127.850026 -137.962055 
L 124.939948 -144.725169 
L 122.02987 -150.513803 
L 119.119792 -155.344657 
L 116.209715 -159.277711 
L 113.299637 -162.402947 
L 110.389559 -164.82751 
z
" id="m9c7c69c19a" style="stroke:#262626;stroke-opacity:0.5;stroke-width:1.5;"/>
    </defs>
    <g clip-path="url(#pdc4d7acca6)">
     <use style="fill:#107010;fill-opacity:0.5;stroke:#262626;stroke-opacity:0.5;stroke-width:1.5;" x="0" xlink:href="#m9c7c69c19a" y="345.6"/>
    </g>
   </g>
   <g id="matplotlib.axis_1">
    <g id="xtick_1">
     <g id="line2d_1">
      <defs>
       <path d="M 0 0 
L 0 3.5 
" id="m3a92c24b4b" style="stroke:#000000;stroke-width:0.8;"/>
      </defs>
      <g>
       <use style="stroke:#000000;stroke-width:0.8;" x="93.520438" xlink:href="#m3a92c24b4b" y="307.584"/>
      </g>
     </g>
     <g id="text_1">
      <!-- −5 -->
      <defs>
       <path d="M 10.59375 35.5 
L 73.1875 35.5 
L 73.1875 27.203125 
L 10.59375 27.203125 
z
" id="DejaVuSans-8722"/>
       <path d="M 10.796875 72.90625 
L 49.515625 72.90625 
L 49.515625 64.59375 
L 19.828125 64.59375 
L 19.828125 46.734375 
Q 21.96875 47.46875 24.109375 47.828125 
Q 26.265625 48.1875 28.421875 48.1875 
Q 40.625 48.1875 47.75 41.5 
Q 54.890625 34.8125 54.890625 23.390625 
Q 54.890625 11.625 47.5625 5.09375 
Q 40.234375 -1.421875 26.90625 -1.421875 
Q 22.3125 -1.421875 17.546875 -0.640625 
Q 12.796875 0.140625 7.71875 1.703125 
L 7.71875 11.625 
Q 12.109375 9.234375 16.796875 8.0625 
Q 21.484375 6.890625 26.703125 6.890625 
Q 35.15625 6.890625 40.078125 11.328125 
Q 45.015625 15.765625 45.015625 23.390625 
Q 45.015625 31 40.078125 35.4375 
Q 35.15625 39.890625 26.703125 39.890625 
Q 22.75 39.890625 18.8125 39.015625 
Q 14.890625 38.140625 10.796875 36.28125 
z
" id="DejaVuSans-53"/>
      </defs>
      <g transform="translate(86.149344 322.182437)scale(0.1 -0.1)">
       <use xlink:href="#DejaVuSans-8722"/>
       <use x="83.789062" xlink:href="#DejaVuSans-53"/>
      </g>
     </g>
    </g>
    <g id="xtick_2">
     <g id="line2d_2">
      <g>
       <use style="stroke:#000000;stroke-width:0.8;" x="146.681316" xlink:href="#m3a92c24b4b" y="307.584"/>
      </g>
     </g>
     <g id="text_2">
      <!-- 0 -->
      <defs>
       <path d="M 31.78125 66.40625 
Q 24.171875 66.40625 20.328125 58.90625 
Q 16.5 51.421875 16.5 36.375 
Q 16.5 21.390625 20.328125 13.890625 
Q 24.171875 6.390625 31.78125 6.390625 
Q 39.453125 6.390625 43.28125 13.890625 
Q 47.125 21.390625 47.125 36.375 
Q 47.125 51.421875 43.28125 58.90625 
Q 39.453125 66.40625 31.78125 66.40625 
z
M 31.78125 74.21875 
Q 44.046875 74.21875 50.515625 64.515625 
Q 56.984375 54.828125 56.984375 36.375 
Q 56.984375 17.96875 50.515625 8.265625 
Q 44.046875 -1.421875 31.78125 -1.421875 
Q 19.53125 -1.421875 13.0625 8.265625 
Q 6.59375 17.96875 6.59375 36.375 
Q 6.59375 54.828125 13.0625 64.515625 
Q 19.53125 74.21875 31.78125 74.21875 
z
" id="DejaVuSans-48"/>
      </defs>
      <g transform="translate(143.500066 322.182437)scale(0.1 -0.1)">
       <use xlink:href="#DejaVuSans-48"/>
      </g>
     </g>
    </g>
    <g id="xtick_3">
     <g id="line2d_3">
      <g>
       <use style="stroke:#000000;stroke-width:0.8;" x="199.842194" xlink:href="#m3a92c24b4b" y="307.584"/>
      </g>
     </g>
     <g id="text_3">
      <!-- 5 -->
      <g transform="translate(196.660944 322.182437)scale(0.1 -0.1)">
       <use xlink:href="#DejaVuSans-53"/>
      </g>
     </g>
    </g>
    <g id="xtick_4">
     <g id="line2d_4">
      <g>
       <use style="stroke:#000000;stroke-width:0.8;" x="253.003072" xlink:href="#m3a92c24b4b" y="307.584"/>
      </g>
     </g>
     <g id="text_4">
      <!-- 10 -->
      <defs>
       <path d="M 12.40625 8.296875 
L 28.515625 8.296875 
L 28.515625 63.921875 
L 10.984375 60.40625 
L 10.984375 69.390625 
L 28.421875 72.90625 
L 38.28125 72.90625 
L 38.28125 8.296875 
L 54.390625 8.296875 
L 54.390625 0 
L 12.40625 0 
z
" id="DejaVuSans-49"/>
      </defs>
      <g transform="translate(246.640572 322.182437)scale(0.1 -0.1)">
       <use xlink:href="#DejaVuSans-49"/>
       <use x="63.623047" xlink:href="#DejaVuSans-48"/>
      </g>
     </g>
    </g>
    <g id="xtick_5">
     <g id="line2d_5">
      <g>
       <use style="stroke:#000000;stroke-width:0.8;" x="306.16395" xlink:href="#m3a92c24b4b" y="307.584"/>
      </g>
     </g>
     <g id="text_5">
      <!-- 15 -->
      <g transform="translate(299.80145 322.182437)scale(0.1 -0.1)">
       <use xlink:href="#DejaVuSans-49"/>
       <use x="63.623047" xlink:href="#DejaVuSans-53"/>
      </g>
     </g>
    </g>
    <g id="xtick_6">
     <g id="line2d_6">
      <g>
       <use style="stroke:#000000;stroke-width:0.8;" x="359.324828" xlink:href="#m3a92c24b4b" y="307.584"/>
      </g>
     </g>
     <g id="text_6">
      <!-- 20 -->
      <defs>
       <path d="M 19.1875 8.296875 
L 53.609375 8.296875 
L 53.609375 0 
L 7.328125 0 
L 7.328125 8.296875 
Q 12.9375 14.109375 22.625 23.890625 
Q 32.328125 33.6875 34.8125 36.53125 
Q 39.546875 41.84375 41.421875 45.53125 
Q 43.3125 49.21875 43.3125 52.78125 
Q 43.3125 58.59375 39.234375 62.25 
Q 35.15625 65.921875 28.609375 65.921875 
Q 23.96875 65.921875 18.8125 64.3125 
Q 13.671875 62.703125 7.8125 59.421875 
L 7.8125 69.390625 
Q 13.765625 71.78125 18.9375 73 
Q 24.125 74.21875 28.421875 74.21875 
Q 39.75 74.21875 46.484375 68.546875 
Q 53.21875 62.890625 53.21875 53.421875 
Q 53.21875 48.921875 51.53125 44.890625 
Q 49.859375 40.875 45.40625 35.40625 
Q 44.1875 33.984375 37.640625 27.21875 
Q 31.109375 20.453125 19.1875 8.296875 
z
" id="DejaVuSans-50"/>
      </defs>
      <g transform="translate(352.962328 322.182437)scale(0.1 -0.1)">
       <use xlink:href="#DejaVuSans-50"/>
       <use x="63.623047" xlink:href="#DejaVuSans-48"/>
      </g>
     </g>
    </g>
    <g id="xtick_7">
     <g id="line2d_7">
      <g>
       <use style="stroke:#000000;stroke-width:0.8;" x="412.485706" xlink:href="#m3a92c24b4b" y="307.584"/>
      </g>
     </g>
     <g id="text_7">
      <!-- 25 -->
      <g transform="translate(406.123206 322.182437)scale(0.1 -0.1)">
       <use xlink:href="#DejaVuSans-50"/>
       <use x="63.623047" xlink:href="#DejaVuSans-53"/>
      </g>
     </g>
    </g>
    <g id="text_8">
     <!-- ddimeradmac -->
     <defs>
      <path d="M 45.40625 46.390625 
L 45.40625 75.984375 
L 54.390625 75.984375 
L 54.390625 0 
L 45.40625 0 
L 45.40625 8.203125 
Q 42.578125 3.328125 38.25 0.953125 
Q 33.9375 -1.421875 27.875 -1.421875 
Q 17.96875 -1.421875 11.734375 6.484375 
Q 5.515625 14.40625 5.515625 27.296875 
Q 5.515625 40.1875 11.734375 48.09375 
Q 17.96875 56 27.875 56 
Q 33.9375 56 38.25 53.625 
Q 42.578125 51.265625 45.40625 46.390625 
z
M 14.796875 27.296875 
Q 14.796875 17.390625 18.875 11.75 
Q 22.953125 6.109375 30.078125 6.109375 
Q 37.203125 6.109375 41.296875 11.75 
Q 45.40625 17.390625 45.40625 27.296875 
Q 45.40625 37.203125 41.296875 42.84375 
Q 37.203125 48.484375 30.078125 48.484375 
Q 22.953125 48.484375 18.875 42.84375 
Q 14.796875 37.203125 14.796875 27.296875 
z
" id="DejaVuSans-100"/>
      <path d="M 9.421875 54.6875 
L 18.40625 54.6875 
L 18.40625 0 
L 9.421875 0 
z
M 9.421875 75.984375 
L 18.40625 75.984375 
L 18.40625 64.59375 
L 9.421875 64.59375 
z
" id="DejaVuSans-105"/>
      <path d="M 52 44.1875 
Q 55.375 50.25 60.0625 53.125 
Q 64.75 56 71.09375 56 
Q 79.640625 56 84.28125 50.015625 
Q 88.921875 44.046875 88.921875 33.015625 
L 88.921875 0 
L 79.890625 0 
L 79.890625 32.71875 
Q 79.890625 40.578125 77.09375 44.375 
Q 74.3125 48.1875 68.609375 48.1875 
Q 61.625 48.1875 57.5625 43.546875 
Q 53.515625 38.921875 53.515625 30.90625 
L 53.515625 0 
L 44.484375 0 
L 44.484375 32.71875 
Q 44.484375 40.625 41.703125 44.40625 
Q 38.921875 48.1875 33.109375 48.1875 
Q 26.21875 48.1875 22.15625 43.53125 
Q 18.109375 38.875 18.109375 30.90625 
L 18.109375 0 
L 9.078125 0 
L 9.078125 54.6875 
L 18.109375 54.6875 
L 18.109375 46.1875 
Q 21.1875 51.21875 25.484375 53.609375 
Q 29.78125 56 35.6875 56 
Q 41.65625 56 45.828125 52.96875 
Q 50 49.953125 52 44.1875 
z
" id="DejaVuSans-109"/>
      <path d="M 56.203125 29.59375 
L 56.203125 25.203125 
L 14.890625 25.203125 
Q 15.484375 15.921875 20.484375 11.0625 
Q 25.484375 6.203125 34.421875 6.203125 
Q 39.59375 6.203125 44.453125 7.46875 
Q 49.3125 8.734375 54.109375 11.28125 
L 54.109375 2.78125 
Q 49.265625 0.734375 44.1875 -0.34375 
Q 39.109375 -1.421875 33.890625 -1.421875 
Q 20.796875 -1.421875 13.15625 6.1875 
Q 5.515625 13.8125 5.515625 26.8125 
Q 5.515625 40.234375 12.765625 48.109375 
Q 20.015625 56 32.328125 56 
Q 43.359375 56 49.78125 48.890625 
Q 56.203125 41.796875 56.203125 29.59375 
z
M 47.21875 32.234375 
Q 47.125 39.59375 43.09375 43.984375 
Q 39.0625 48.390625 32.421875 48.390625 
Q 24.90625 48.390625 20.390625 44.140625 
Q 15.875 39.890625 15.1875 32.171875 
z
" id="DejaVuSans-101"/>
      <path d="M 41.109375 46.296875 
Q 39.59375 47.171875 37.8125 47.578125 
Q 36.03125 48 33.890625 48 
Q 26.265625 48 22.1875 43.046875 
Q 18.109375 38.09375 18.109375 28.8125 
L 18.109375 0 
L 9.078125 0 
L 9.078125 54.6875 
L 18.109375 54.6875 
L 18.109375 46.1875 
Q 20.953125 51.171875 25.484375 53.578125 
Q 30.03125 56 36.53125 56 
Q 37.453125 56 38.578125 55.875 
Q 39.703125 55.765625 41.0625 55.515625 
z
" id="DejaVuSans-114"/>
      <path d="M 34.28125 27.484375 
Q 23.390625 27.484375 19.1875 25 
Q 14.984375 22.515625 14.984375 16.5 
Q 14.984375 11.71875 18.140625 8.90625 
Q 21.296875 6.109375 26.703125 6.109375 
Q 34.1875 6.109375 38.703125 11.40625 
Q 43.21875 16.703125 43.21875 25.484375 
L 43.21875 27.484375 
z
M 52.203125 31.203125 
L 52.203125 0 
L 43.21875 0 
L 43.21875 8.296875 
Q 40.140625 3.328125 35.546875 0.953125 
Q 30.953125 -1.421875 24.3125 -1.421875 
Q 15.921875 -1.421875 10.953125 3.296875 
Q 6 8.015625 6 15.921875 
Q 6 25.140625 12.171875 29.828125 
Q 18.359375 34.515625 30.609375 34.515625 
L 43.21875 34.515625 
L 43.21875 35.40625 
Q 43.21875 41.609375 39.140625 45 
Q 35.0625 48.390625 27.6875 48.390625 
Q 23 48.390625 18.546875 47.265625 
Q 14.109375 46.140625 10.015625 43.890625 
L 10.015625 52.203125 
Q 14.9375 54.109375 19.578125 55.046875 
Q 24.21875 56 28.609375 56 
Q 40.484375 56 46.34375 49.84375 
Q 52.203125 43.703125 52.203125 31.203125 
z
" id="DejaVuSans-97"/>
      <path d="M 48.78125 52.59375 
L 48.78125 44.1875 
Q 44.96875 46.296875 41.140625 47.34375 
Q 37.3125 48.390625 33.40625 48.390625 
Q 24.65625 48.390625 19.8125 42.84375 
Q 14.984375 37.3125 14.984375 27.296875 
Q 14.984375 17.28125 19.8125 11.734375 
Q 24.65625 6.203125 33.40625 6.203125 
Q 37.3125 6.203125 41.140625 7.25 
Q 44.96875 8.296875 48.78125 10.40625 
L 48.78125 2.09375 
Q 45.015625 0.34375 40.984375 -0.53125 
Q 36.96875 -1.421875 32.421875 -1.421875 
Q 20.0625 -1.421875 12.78125 6.34375 
Q 5.515625 14.109375 5.515625 27.296875 
Q 5.515625 40.671875 12.859375 48.328125 
Q 20.21875 56 33.015625 56 
Q 37.15625 56 41.109375 55.140625 
Q 45.0625 54.296875 48.78125 52.59375 
z
" id="DejaVuSans-99"/>
     </defs>
     <g transform="translate(201.498281 335.860562)scale(0.1 -0.1)">
      <use xlink:href="#DejaVuSans-100"/>
      <use x="63.476562" xlink:href="#DejaVuSans-100"/>
      <use x="126.953125" xlink:href="#DejaVuSans-105"/>
      <use x="154.736328" xlink:href="#DejaVuSans-109"/>
      <use x="252.148438" xlink:href="#DejaVuSans-101"/>
      <use x="313.671875" xlink:href="#DejaVuSans-114"/>
      <use x="354.785156" xlink:href="#DejaVuSans-97"/>
      <use x="416.064453" xlink:href="#DejaVuSans-100"/>
      <use x="479.541016" xlink:href="#DejaVuSans-109"/>
      <use x="576.953125" xlink:href="#DejaVuSans-97"/>
      <use x="638.232422" xlink:href="#DejaVuSans-99"/>
     </g>
    </g>
   </g>
   <g id="matplotlib.axis_2">
    <g id="ytick_1">
     <g id="line2d_8">
      <defs>
       <path d="M 0 0 
L -3.5 0 
" id="m216977d7ae" style="stroke:#000000;stroke-width:0.8;"/>
      </defs>
      <g>
       <use style="stroke:#000000;stroke-width:0.8;" x="57.6" xlink:href="#m216977d7ae" y="174.528"/>
      </g>
     </g>
    </g>
   </g>
   <g id="line2d_9">
    <path clip-path="url(#pdc4d7acca6)" d="M 150.721543 174.528 
L 288.089252 174.528 
" style="fill:none;stroke:#ffa500;stroke-linecap:square;stroke-width:1.5;"/>
   </g>
   <g id="line2d_10">
    <path clip-path="url(#pdc4d7acca6)" d="M 186.551974 174.528 
L 244.603653 174.528 
" style="fill:none;stroke:#4c4c4c;stroke-linecap:square;stroke-width:4.5;"/>
   </g>
   <g id="line2d_11">
    <path clip-path="url(#pdc4d7acca6)" d="M 149.551897 174.528 
L 230.569181 174.528 
" style="fill:none;stroke:#008000;stroke-linecap:square;stroke-width:1.5;"/>
   </g>
   <g id="line2d_12">
    <path clip-path="url(#pdc4d7acca6)" d="M 156.03763 174.528 
L 186.392492 174.528 
" style="fill:none;stroke:#262626;stroke-linecap:square;stroke-width:4.5;"/>
   </g>
   <g id="patch_3">
    <path d="M 57.6 307.584 
L 57.6 41.472 
" style="fill:none;stroke:#000000;stroke-linecap:square;stroke-linejoin:miter;stroke-width:0.8;"/>
   </g>
   <g id="patch_4">
    <path d="M 414.72 307.584 
L 414.72 41.472 
" style="fill:none;stroke:#000000;stroke-linecap:square;stroke-linejoin:miter;stroke-width:0.8;"/>
   </g>
   <g id="patch_5">
    <path d="M 57.6 307.584 
L 414.72 307.584 
" style="fill:none;stroke:#000000;stroke-linecap:square;stroke-linejoin:miter;stroke-width:0.8;"/>
   </g>
   <g id="patch_6">
    <path d="M 57.6 41.472 
L 414.72 41.472 
" style="fill:none;stroke:#000000;stroke-linecap:square;stroke-linejoin:miter;stroke-width:0.8;"/>
   </g>
   <g id="PathCollection_1">
    <defs>
     <path d="M 0 1.5 
C 0.397805 1.5 0.77937 1.341951 1.06066 1.06066 
C 1.341951 0.77937 1.5 0.397805 1.5 0 
C 1.5 -0.397805 1.341951 -0.77937 1.06066 -1.06066 
C 0.77937 -1.341951 0.397805 -1.5 0 -1.5 
C -0.397805 -1.5 -0.77937 -1.341951 -1.06066 -1.06066 
C -1.341951 -0.77937 -1.5 -0.397805 -1.5 0 
C -1.5 0.397805 -1.341951 0.77937 -1.06066 1.06066 
C -0.77937 1.341951 -0.397805 1.5 0 1.5 
z
" id="me56ef06420" style="stroke:#4c4c4c;stroke-opacity:0.5;"/>
    </defs>
    <g clip-path="url(#pdc4d7acca6)">
     <use style="fill:#ffffff;fill-opacity:0.5;stroke:#4c4c4c;stroke-opacity:0.5;" x="229.718607" xlink:href="#me56ef06420" y="174.528"/>
    </g>
   </g>
   <g id="PathCollection_2">
    <defs>
     <path d="M 0 1.5 
C 0.397805 1.5 0.77937 1.341951 1.06066 1.06066 
C 1.341951 0.77937 1.5 0.397805 1.5 0 
C 1.5 -0.397805 1.341951 -0.77937 1.06066 -1.06066 
C 0.77937 -1.341951 0.397805 -1.5 0 -1.5 
C -0.397805 -1.5 -0.77937 -1.341951 -1.06066 -1.06066 
C -1.341951 -0.77937 -1.5 -0.397805 -1.5 0 
C -1.5 0.397805 -1.341951 0.77937 -1.06066 1.06066 
C -0.77937 1.341951 -0.397805 1.5 0 1.5 
z
" id="m688c4cb2f1" style="stroke:#262626;stroke-opacity:0.5;"/>
    </defs>
    <g clip-path="url(#pdc4d7acca6)">
     <use style="fill:#ffffff;fill-opacity:0.5;stroke:#262626;stroke-opacity:0.5;" x="166.457162" xlink:href="#m688c4cb2f1" y="174.528"/>
    </g>
   </g>
   <g id="text_9">
    <!-- Association of ddimeradmac vs. cardiogenic_shock -->
    <defs>
     <path d="M 34.1875 63.1875 
L 20.796875 26.90625 
L 47.609375 26.90625 
z
M 28.609375 72.90625 
L 39.796875 72.90625 
L 67.578125 0 
L 57.328125 0 
L 50.6875 18.703125 
L 17.828125 18.703125 
L 11.1875 0 
L 0.78125 0 
z
" id="DejaVuSans-65"/>
     <path d="M 44.28125 53.078125 
L 44.28125 44.578125 
Q 40.484375 46.53125 36.375 47.5 
Q 32.28125 48.484375 27.875 48.484375 
Q 21.1875 48.484375 17.84375 46.4375 
Q 14.5 44.390625 14.5 40.28125 
Q 14.5 37.15625 16.890625 35.375 
Q 19.28125 33.59375 26.515625 31.984375 
L 29.59375 31.296875 
Q 39.15625 29.25 43.1875 25.515625 
Q 47.21875 21.78125 47.21875 15.09375 
Q 47.21875 7.46875 41.1875 3.015625 
Q 35.15625 -1.421875 24.609375 -1.421875 
Q 20.21875 -1.421875 15.453125 -0.5625 
Q 10.6875 0.296875 5.421875 2 
L 5.421875 11.28125 
Q 10.40625 8.6875 15.234375 7.390625 
Q 20.0625 6.109375 24.8125 6.109375 
Q 31.15625 6.109375 34.5625 8.28125 
Q 37.984375 10.453125 37.984375 14.40625 
Q 37.984375 18.0625 35.515625 20.015625 
Q 33.0625 21.96875 24.703125 23.78125 
L 21.578125 24.515625 
Q 13.234375 26.265625 9.515625 29.90625 
Q 5.8125 33.546875 5.8125 39.890625 
Q 5.8125 47.609375 11.28125 51.796875 
Q 16.75 56 26.8125 56 
Q 31.78125 56 36.171875 55.265625 
Q 40.578125 54.546875 44.28125 53.078125 
z
" id="DejaVuSans-115"/>
     <path d="M 30.609375 48.390625 
Q 23.390625 48.390625 19.1875 42.75 
Q 14.984375 37.109375 14.984375 27.296875 
Q 14.984375 17.484375 19.15625 11.84375 
Q 23.34375 6.203125 30.609375 6.203125 
Q 37.796875 6.203125 41.984375 11.859375 
Q 46.1875 17.53125 46.1875 27.296875 
Q 46.1875 37.015625 41.984375 42.703125 
Q 37.796875 48.390625 30.609375 48.390625 
z
M 30.609375 56 
Q 42.328125 56 49.015625 48.375 
Q 55.71875 40.765625 55.71875 27.296875 
Q 55.71875 13.875 49.015625 6.21875 
Q 42.328125 -1.421875 30.609375 -1.421875 
Q 18.84375 -1.421875 12.171875 6.21875 
Q 5.515625 13.875 5.515625 27.296875 
Q 5.515625 40.765625 12.171875 48.375 
Q 18.84375 56 30.609375 56 
z
" id="DejaVuSans-111"/>
     <path d="M 18.3125 70.21875 
L 18.3125 54.6875 
L 36.8125 54.6875 
L 36.8125 47.703125 
L 18.3125 47.703125 
L 18.3125 18.015625 
Q 18.3125 11.328125 20.140625 9.421875 
Q 21.96875 7.515625 27.59375 7.515625 
L 36.8125 7.515625 
L 36.8125 0 
L 27.59375 0 
Q 17.1875 0 13.234375 3.875 
Q 9.28125 7.765625 9.28125 18.015625 
L 9.28125 47.703125 
L 2.6875 47.703125 
L 2.6875 54.6875 
L 9.28125 54.6875 
L 9.28125 70.21875 
z
" id="DejaVuSans-116"/>
     <path d="M 54.890625 33.015625 
L 54.890625 0 
L 45.90625 0 
L 45.90625 32.71875 
Q 45.90625 40.484375 42.875 44.328125 
Q 39.84375 48.1875 33.796875 48.1875 
Q 26.515625 48.1875 22.3125 43.546875 
Q 18.109375 38.921875 18.109375 30.90625 
L 18.109375 0 
L 9.078125 0 
L 9.078125 54.6875 
L 18.109375 54.6875 
L 18.109375 46.1875 
Q 21.34375 51.125 25.703125 53.5625 
Q 30.078125 56 35.796875 56 
Q 45.21875 56 50.046875 50.171875 
Q 54.890625 44.34375 54.890625 33.015625 
z
" id="DejaVuSans-110"/>
     <path id="DejaVuSans-32"/>
     <path d="M 37.109375 75.984375 
L 37.109375 68.5 
L 28.515625 68.5 
Q 23.6875 68.5 21.796875 66.546875 
Q 19.921875 64.59375 19.921875 59.515625 
L 19.921875 54.6875 
L 34.71875 54.6875 
L 34.71875 47.703125 
L 19.921875 47.703125 
L 19.921875 0 
L 10.890625 0 
L 10.890625 47.703125 
L 2.296875 47.703125 
L 2.296875 54.6875 
L 10.890625 54.6875 
L 10.890625 58.5 
Q 10.890625 67.625 15.140625 71.796875 
Q 19.390625 75.984375 28.609375 75.984375 
z
" id="DejaVuSans-102"/>
     <path d="M 2.984375 54.6875 
L 12.5 54.6875 
L 29.59375 8.796875 
L 46.6875 54.6875 
L 56.203125 54.6875 
L 35.6875 0 
L 23.484375 0 
z
" id="DejaVuSans-118"/>
     <path d="M 10.6875 12.40625 
L 21 12.40625 
L 21 0 
L 10.6875 0 
z
" id="DejaVuSans-46"/>
     <path d="M 45.40625 27.984375 
Q 45.40625 37.75 41.375 43.109375 
Q 37.359375 48.484375 30.078125 48.484375 
Q 22.859375 48.484375 18.828125 43.109375 
Q 14.796875 37.75 14.796875 27.984375 
Q 14.796875 18.265625 18.828125 12.890625 
Q 22.859375 7.515625 30.078125 7.515625 
Q 37.359375 7.515625 41.375 12.890625 
Q 45.40625 18.265625 45.40625 27.984375 
z
M 54.390625 6.78125 
Q 54.390625 -7.171875 48.1875 -13.984375 
Q 42 -20.796875 29.203125 -20.796875 
Q 24.46875 -20.796875 20.265625 -20.09375 
Q 16.0625 -19.390625 12.109375 -17.921875 
L 12.109375 -9.1875 
Q 16.0625 -11.328125 19.921875 -12.34375 
Q 23.78125 -13.375 27.78125 -13.375 
Q 36.625 -13.375 41.015625 -8.765625 
Q 45.40625 -4.15625 45.40625 5.171875 
L 45.40625 9.625 
Q 42.625 4.78125 38.28125 2.390625 
Q 33.9375 0 27.875 0 
Q 17.828125 0 11.671875 7.65625 
Q 5.515625 15.328125 5.515625 27.984375 
Q 5.515625 40.671875 11.671875 48.328125 
Q 17.828125 56 27.875 56 
Q 33.9375 56 38.28125 53.609375 
Q 42.625 51.21875 45.40625 46.390625 
L 45.40625 54.6875 
L 54.390625 54.6875 
z
" id="DejaVuSans-103"/>
     <path d="M 50.984375 -16.609375 
L 50.984375 -23.578125 
L -0.984375 -23.578125 
L -0.984375 -16.609375 
z
" id="DejaVuSans-95"/>
     <path d="M 54.890625 33.015625 
L 54.890625 0 
L 45.90625 0 
L 45.90625 32.71875 
Q 45.90625 40.484375 42.875 44.328125 
Q 39.84375 48.1875 33.796875 48.1875 
Q 26.515625 48.1875 22.3125 43.546875 
Q 18.109375 38.921875 18.109375 30.90625 
L 18.109375 0 
L 9.078125 0 
L 9.078125 75.984375 
L 18.109375 75.984375 
L 18.109375 46.1875 
Q 21.34375 51.125 25.703125 53.5625 
Q 30.078125 56 35.796875 56 
Q 45.21875 56 50.046875 50.171875 
Q 54.890625 44.34375 54.890625 33.015625 
z
" id="DejaVuSans-104"/>
     <path d="M 9.078125 75.984375 
L 18.109375 75.984375 
L 18.109375 31.109375 
L 44.921875 54.6875 
L 56.390625 54.6875 
L 27.390625 29.109375 
L 57.625 0 
L 45.90625 0 
L 18.109375 26.703125 
L 18.109375 0 
L 9.078125 0 
z
" id="DejaVuSans-107"/>
    </defs>
    <g transform="translate(83.281875 35.472)scale(0.12 -0.12)">
     <use xlink:href="#DejaVuSans-65"/>
     <use x="68.408203" xlink:href="#DejaVuSans-115"/>
     <use x="120.507812" xlink:href="#DejaVuSans-115"/>
     <use x="172.607422" xlink:href="#DejaVuSans-111"/>
     <use x="233.789062" xlink:href="#DejaVuSans-99"/>
     <use x="288.769531" xlink:href="#DejaVuSans-105"/>
     <use x="316.552734" xlink:href="#DejaVuSans-97"/>
     <use x="377.832031" xlink:href="#DejaVuSans-116"/>
     <use x="417.041016" xlink:href="#DejaVuSans-105"/>
     <use x="444.824219" xlink:href="#DejaVuSans-111"/>
     <use x="506.005859" xlink:href="#DejaVuSans-110"/>
     <use x="569.384766" xlink:href="#DejaVuSans-32"/>
     <use x="601.171875" xlink:href="#DejaVuSans-111"/>
     <use x="662.353516" xlink:href="#DejaVuSans-102"/>
     <use x="697.558594" xlink:href="#DejaVuSans-32"/>
     <use x="729.345703" xlink:href="#DejaVuSans-100"/>
     <use x="792.822266" xlink:href="#DejaVuSans-100"/>
     <use x="856.298828" xlink:href="#DejaVuSans-105"/>
     <use x="884.082031" xlink:href="#DejaVuSans-109"/>
     <use x="981.494141" xlink:href="#DejaVuSans-101"/>
     <use x="1043.017578" xlink:href="#DejaVuSans-114"/>
     <use x="1084.130859" xlink:href="#DejaVuSans-97"/>
     <use x="1145.410156" xlink:href="#DejaVuSans-100"/>
     <use x="1208.886719" xlink:href="#DejaVuSans-109"/>
     <use x="1306.298828" xlink:href="#DejaVuSans-97"/>
     <use x="1367.578125" xlink:href="#DejaVuSans-99"/>
     <use x="1422.558594" xlink:href="#DejaVuSans-32"/>
     <use x="1454.345703" xlink:href="#DejaVuSans-118"/>
     <use x="1513.525391" xlink:href="#DejaVuSans-115"/>
     <use x="1565.625" xlink:href="#DejaVuSans-46"/>
     <use x="1597.412109" xlink:href="#DejaVuSans-32"/>
     <use x="1629.199219" xlink:href="#DejaVuSans-99"/>
     <use x="1684.179688" xlink:href="#DejaVuSans-97"/>
     <use x="1745.458984" xlink:href="#DejaVuSans-114"/>
     <use x="1784.822266" xlink:href="#DejaVuSans-100"/>
     <use x="1848.298828" xlink:href="#DejaVuSans-105"/>
     <use x="1876.082031" xlink:href="#DejaVuSans-111"/>
     <use x="1937.263672" xlink:href="#DejaVuSans-103"/>
     <use x="2000.740234" xlink:href="#DejaVuSans-101"/>
     <use x="2062.263672" xlink:href="#DejaVuSans-110"/>
     <use x="2125.642578" xlink:href="#DejaVuSans-105"/>
     <use x="2153.425781" xlink:href="#DejaVuSans-99"/>
     <use x="2208.40625" xlink:href="#DejaVuSans-95"/>
     <use x="2258.40625" xlink:href="#DejaVuSans-115"/>
     <use x="2310.505859" xlink:href="#DejaVuSans-104"/>
     <use x="2373.884766" xlink:href="#DejaVuSans-111"/>
     <use x="2435.066406" xlink:href="#DejaVuSans-99"/>
     <use x="2490.046875" xlink:href="#DejaVuSans-107"/>
    </g>
   </g>
   <g id="legend_1">
    <g id="patch_7">
     <path d="M 233.074687 79.3845 
L 407.72 79.3845 
Q 409.72 79.3845 409.72 77.3845 
L 409.72 48.472 
Q 409.72 46.472 407.72 46.472 
L 233.074687 46.472 
Q 231.074687 46.472 231.074687 48.472 
L 231.074687 77.3845 
Q 231.074687 79.3845 233.074687 79.3845 
z
" style="fill:#ffffff;opacity:0.8;stroke:#cccccc;stroke-linejoin:miter;"/>
    </g>
    <g id="line2d_13">
     <path d="M 235.074687 54.570438 
L 255.074687 54.570438 
" style="fill:none;stroke:#ffa500;stroke-linecap:square;stroke-width:1.5;"/>
    </g>
    <g id="line2d_14"/>
    <g id="text_10">
     <!-- cardiogenic_shock (5) -->
     <defs>
      <path d="M 31 75.875 
Q 24.46875 64.65625 21.28125 53.65625 
Q 18.109375 42.671875 18.109375 31.390625 
Q 18.109375 20.125 21.3125 9.0625 
Q 24.515625 -2 31 -13.1875 
L 23.1875 -13.1875 
Q 15.875 -1.703125 12.234375 9.375 
Q 8.59375 20.453125 8.59375 31.390625 
Q 8.59375 42.28125 12.203125 53.3125 
Q 15.828125 64.359375 23.1875 75.875 
z
" id="DejaVuSans-40"/>
      <path d="M 8.015625 75.875 
L 15.828125 75.875 
Q 23.140625 64.359375 26.78125 53.3125 
Q 30.421875 42.28125 30.421875 31.390625 
Q 30.421875 20.453125 26.78125 9.375 
Q 23.140625 -1.703125 15.828125 -13.1875 
L 8.015625 -13.1875 
Q 14.5 -2 17.703125 9.0625 
Q 20.90625 20.125 20.90625 31.390625 
Q 20.90625 42.671875 17.703125 53.65625 
Q 14.5 64.65625 8.015625 75.875 
z
" id="DejaVuSans-41"/>
     </defs>
     <g transform="translate(263.074687 58.070438)scale(0.1 -0.1)">
      <use xlink:href="#DejaVuSans-99"/>
      <use x="54.980469" xlink:href="#DejaVuSans-97"/>
      <use x="116.259766" xlink:href="#DejaVuSans-114"/>
      <use x="155.623047" xlink:href="#DejaVuSans-100"/>
      <use x="219.099609" xlink:href="#DejaVuSans-105"/>
      <use x="246.882812" xlink:href="#DejaVuSans-111"/>
      <use x="308.064453" xlink:href="#DejaVuSans-103"/>
      <use x="371.541016" xlink:href="#DejaVuSans-101"/>
      <use x="433.064453" xlink:href="#DejaVuSans-110"/>
      <use x="496.443359" xlink:href="#DejaVuSans-105"/>
      <use x="524.226562" xlink:href="#DejaVuSans-99"/>
      <use x="579.207031" xlink:href="#DejaVuSans-95"/>
      <use x="629.207031" xlink:href="#DejaVuSans-115"/>
      <use x="681.306641" xlink:href="#DejaVuSans-104"/>
      <use x="744.685547" xlink:href="#DejaVuSans-111"/>
      <use x="805.867188" xlink:href="#DejaVuSans-99"/>
      <use x="860.847656" xlink:href="#DejaVuSans-107"/>
      <use x="918.757812" xlink:href="#DejaVuSans-32"/>
      <use x="950.544922" xlink:href="#DejaVuSans-40"/>
      <use x="989.558594" xlink:href="#DejaVuSans-53"/>
      <use x="1053.181641" xlink:href="#DejaVuSans-41"/>
     </g>
    </g>
    <g id="line2d_15">
     <path d="M 235.074687 69.526688 
L 255.074687 69.526688 
" style="fill:none;stroke:#008000;stroke-linecap:square;stroke-width:1.5;"/>
    </g>
    <g id="line2d_16"/>
    <g id="text_11">
     <!-- Not cardiogenic_shock (159) -->
     <defs>
      <path d="M 9.8125 72.90625 
L 23.09375 72.90625 
L 55.421875 11.921875 
L 55.421875 72.90625 
L 64.984375 72.90625 
L 64.984375 0 
L 51.703125 0 
L 19.390625 60.984375 
L 19.390625 0 
L 9.8125 0 
z
" id="DejaVuSans-78"/>
      <path d="M 10.984375 1.515625 
L 10.984375 10.5 
Q 14.703125 8.734375 18.5 7.8125 
Q 22.3125 6.890625 25.984375 6.890625 
Q 35.75 6.890625 40.890625 13.453125 
Q 46.046875 20.015625 46.78125 33.40625 
Q 43.953125 29.203125 39.59375 26.953125 
Q 35.25 24.703125 29.984375 24.703125 
Q 19.046875 24.703125 12.671875 31.3125 
Q 6.296875 37.9375 6.296875 49.421875 
Q 6.296875 60.640625 12.9375 67.421875 
Q 19.578125 74.21875 30.609375 74.21875 
Q 43.265625 74.21875 49.921875 64.515625 
Q 56.59375 54.828125 56.59375 36.375 
Q 56.59375 19.140625 48.40625 8.859375 
Q 40.234375 -1.421875 26.421875 -1.421875 
Q 22.703125 -1.421875 18.890625 -0.6875 
Q 15.09375 0.046875 10.984375 1.515625 
z
M 30.609375 32.421875 
Q 37.25 32.421875 41.125 36.953125 
Q 45.015625 41.5 45.015625 49.421875 
Q 45.015625 57.28125 41.125 61.84375 
Q 37.25 66.40625 30.609375 66.40625 
Q 23.96875 66.40625 20.09375 61.84375 
Q 16.21875 57.28125 16.21875 49.421875 
Q 16.21875 41.5 20.09375 36.953125 
Q 23.96875 32.421875 30.609375 32.421875 
z
" id="DejaVuSans-57"/>
     </defs>
     <g transform="translate(263.074687 73.026688)scale(0.1 -0.1)">
      <use xlink:href="#DejaVuSans-78"/>
      <use x="74.804688" xlink:href="#DejaVuSans-111"/>
      <use x="135.986328" xlink:href="#DejaVuSans-116"/>
      <use x="175.195312" xlink:href="#DejaVuSans-32"/>
      <use x="206.982422" xlink:href="#DejaVuSans-99"/>
      <use x="261.962891" xlink:href="#DejaVuSans-97"/>
      <use x="323.242188" xlink:href="#DejaVuSans-114"/>
      <use x="362.605469" xlink:href="#DejaVuSans-100"/>
      <use x="426.082031" xlink:href="#DejaVuSans-105"/>
      <use x="453.865234" xlink:href="#DejaVuSans-111"/>
      <use x="515.046875" xlink:href="#DejaVuSans-103"/>
      <use x="578.523438" xlink:href="#DejaVuSans-101"/>
      <use x="640.046875" xlink:href="#DejaVuSans-110"/>
      <use x="703.425781" xlink:href="#DejaVuSans-105"/>
      <use x="731.208984" xlink:href="#DejaVuSans-99"/>
      <use x="786.189453" xlink:href="#DejaVuSans-95"/>
      <use x="836.189453" xlink:href="#DejaVuSans-115"/>
      <use x="888.289062" xlink:href="#DejaVuSans-104"/>
      <use x="951.667969" xlink:href="#DejaVuSans-111"/>
      <use x="1012.849609" xlink:href="#DejaVuSans-99"/>
      <use x="1067.830078" xlink:href="#DejaVuSans-107"/>
      <use x="1125.740234" xlink:href="#DejaVuSans-32"/>
      <use x="1157.527344" xlink:href="#DejaVuSans-40"/>
      <use x="1196.541016" xlink:href="#DejaVuSans-49"/>
      <use x="1260.164062" xlink:href="#DejaVuSans-53"/>
      <use x="1323.787109" xlink:href="#DejaVuSans-57"/>
      <use x="1387.410156" xlink:href="#DejaVuSans-41"/>
     </g>
    </g>
   </g>
  </g>
 </g>
 <defs>
  <clipPath id="pdc4d7acca6">
   <rect height="266.112" width="357.12" x="57.6" y="41.472"/>
  </clipPath>
 </defs>
</svg>
