<?xml version="1.0" encoding="utf-8" standalone="no"?>
<!DOCTYPE svg PUBLIC "-//W3C//DTD SVG 1.1//EN"
  "http://www.w3.org/Graphics/SVG/1.1/DTD/svg11.dtd">
<!-- Created with matplotlib (https://matplotlib.org/) -->
<svg height="345.6pt" version="1.1" viewBox="0 0 460.8 345.6" width="460.8pt" xmlns="http://www.w3.org/2000/svg" xmlns:xlink="http://www.w3.org/1999/xlink">
 <defs>
  <style type="text/css">
*{stroke-linecap:butt;stroke-linejoin:round;}
  </style>
 </defs>
 <g id="figure_1">
  <g id="patch_1">
   <path d="M 0 345.6 
L 460.8 345.6 
L 460.8 0 
L 0 0 
z
" style="fill:#ffffff;"/>
  </g>
  <g id="axes_1">
   <g id="patch_2">
    <path d="M 57.6 307.584 
L 414.72 307.584 
L 414.72 41.472 
L 57.6 41.472 
z
" style="fill:#ffffff;"/>
   </g>
   <g id="PolyCollection_1">
    <defs>
     <path d="M 73.832727 -164.481569 
L 73.832727 -177.662431 
L 77.112066 -179.691856 
L 80.391405 -182.19517 
L 83.670744 -185.233855 
L 86.950083 -188.862859 
L 90.229421 -193.125777 
L 93.50876 -198.049663 
L 96.788099 -203.639865 
L 100.067438 -209.875303 
L 103.346777 -216.704709 
L 106.626116 -224.04431 
L 109.905455 -231.777405 
L 113.184793 -239.756148 
L 116.464132 -247.805716 
L 119.743471 -255.73078 
L 123.02281 -263.324036 
L 126.302149 -270.376267 
L 129.581488 -276.687271 
L 132.860826 -282.076821 
L 136.140165 -286.394819 
L 139.419504 -289.529793 
L 142.698843 -291.415051 
L 145.978182 -292.032 
L 149.257521 -291.410353 
L 152.53686 -289.625279 
L 155.816198 -286.79177 
L 159.095537 -283.056749 
L 162.374876 -278.589606 
L 165.654215 -273.571961 
L 168.933554 -268.187425 
L 172.212893 -262.612114 
L 175.492231 -257.006533 
L 178.77157 -251.509251 
L 182.050909 -246.232652 
L 185.330248 -241.260821 
L 188.609587 -236.649447 
L 191.888926 -232.427518 
L 195.168264 -228.600434 
L 198.447603 -225.154144 
L 201.726942 -222.059855 
L 205.006281 -219.278906 
L 208.28562 -216.767425 
L 211.564959 -214.480476 
L 214.844298 -212.375451 
L 218.123636 -210.414601 
L 221.402975 -208.566636 
L 224.682314 -206.807439 
L 227.961653 -205.119998 
L 231.240992 -203.493707 
L 234.520331 -201.923228 
L 237.799669 -200.407104 
L 241.079008 -198.946339 
L 244.358347 -197.543089 
L 247.637686 -196.199618 
L 250.917025 -194.917591 
L 254.196364 -193.697746 
L 257.475702 -192.539934 
L 260.755041 -191.443462 
L 264.03438 -190.40766 
L 267.313719 -189.432556 
L 270.593058 -188.519546 
L 273.872397 -187.671937 
L 277.151736 -186.895283 
L 280.431074 -186.197419 
L 283.710413 -185.588167 
L 286.989752 -185.078702 
L 290.269091 -184.680602 
L 293.54843 -184.404643 
L 296.827769 -184.259441 
L 300.107107 -184.250038 
L 303.386446 -184.376593 
L 306.665785 -184.633277 
L 309.945124 -185.007546 
L 313.224463 -185.479869 
L 316.503802 -186.024003 
L 319.78314 -186.607853 
L 323.062479 -187.194874 
L 326.341818 -187.745973 
L 329.621157 -188.221739 
L 332.900496 -188.584864 
L 336.179835 -188.802528 
L 339.459174 -188.848549 
L 342.738512 -188.705102 
L 346.017851 -188.363856 
L 349.29719 -187.826412 
L 352.576529 -187.104026 
L 355.855868 -186.216645 
L 359.135207 -185.191357 
L 362.414545 -184.060412 
L 365.693884 -182.859005 
L 368.973223 -181.62302 
L 372.252562 -180.386916 
L 375.531901 -179.181923 
L 378.81124 -178.034666 
L 382.090579 -176.966258 
L 385.369917 -175.991897 
L 388.649256 -175.120914 
L 391.928595 -174.357202 
L 395.207934 -173.699933 
L 398.487273 -173.144454 
L 398.487273 -168.999546 
L 398.487273 -168.999546 
L 395.207934 -168.444067 
L 391.928595 -167.786798 
L 388.649256 -167.023086 
L 385.369917 -166.152103 
L 382.090579 -165.177742 
L 378.81124 -164.109334 
L 375.531901 -162.962077 
L 372.252562 -161.757084 
L 368.973223 -160.52098 
L 365.693884 -159.284995 
L 362.414545 -158.083588 
L 359.135207 -156.952643 
L 355.855868 -155.927355 
L 352.576529 -155.039974 
L 349.29719 -154.317588 
L 346.017851 -153.780144 
L 342.738512 -153.438898 
L 339.459174 -153.295451 
L 336.179835 -153.341472 
L 332.900496 -153.559136 
L 329.621157 -153.922261 
L 326.341818 -154.398027 
L 323.062479 -154.949126 
L 319.78314 -155.536147 
L 316.503802 -156.119997 
L 313.224463 -156.664131 
L 309.945124 -157.136454 
L 306.665785 -157.510723 
L 303.386446 -157.767407 
L 300.107107 -157.893962 
L 296.827769 -157.884559 
L 293.54843 -157.739357 
L 290.269091 -157.463398 
L 286.989752 -157.065298 
L 283.710413 -156.555833 
L 280.431074 -155.946581 
L 277.151736 -155.248717 
L 273.872397 -154.472063 
L 270.593058 -153.624454 
L 267.313719 -152.711444 
L 264.03438 -151.73634 
L 260.755041 -150.700538 
L 257.475702 -149.604066 
L 254.196364 -148.446254 
L 250.917025 -147.226409 
L 247.637686 -145.944382 
L 244.358347 -144.600911 
L 241.079008 -143.197661 
L 237.799669 -141.736896 
L 234.520331 -140.220772 
L 231.240992 -138.650293 
L 227.961653 -137.024002 
L 224.682314 -135.336561 
L 221.402975 -133.577364 
L 218.123636 -131.729399 
L 214.844298 -129.768549 
L 211.564959 -127.663524 
L 208.28562 -125.376575 
L 205.006281 -122.865094 
L 201.726942 -120.084145 
L 198.447603 -116.989856 
L 195.168264 -113.543566 
L 191.888926 -109.716482 
L 188.609587 -105.494553 
L 185.330248 -100.883179 
L 182.050909 -95.911348 
L 178.77157 -90.634749 
L 175.492231 -85.137467 
L 172.212893 -79.531886 
L 168.933554 -73.956575 
L 165.654215 -68.572039 
L 162.374876 -63.554394 
L 159.095537 -59.087251 
L 155.816198 -55.35223 
L 152.53686 -52.518721 
L 149.257521 -50.733647 
L 145.978182 -50.112 
L 142.698843 -50.728949 
L 139.419504 -52.614207 
L 136.140165 -55.749181 
L 132.860826 -60.067179 
L 129.581488 -65.456729 
L 126.302149 -71.767733 
L 123.02281 -78.819964 
L 119.743471 -86.41322 
L 116.464132 -94.338284 
L 113.184793 -102.387852 
L 109.905455 -110.366595 
L 106.626116 -118.09969 
L 103.346777 -125.439291 
L 100.067438 -132.268697 
L 96.788099 -138.504135 
L 93.50876 -144.094337 
L 90.229421 -149.018223 
L 86.950083 -153.281141 
L 83.670744 -156.910145 
L 80.391405 -159.94883 
L 77.112066 -162.452144 
L 73.832727 -164.481569 
z
" id="m8f3c7ca41b" style="stroke:#4c4c4c;stroke-opacity:0.5;stroke-width:1.5;"/>
    </defs>
    <g clip-path="url(#pfb6aa4d541)">
     <use style="fill:#df9c20;fill-opacity:0.5;stroke:#4c4c4c;stroke-opacity:0.5;stroke-width:1.5;" x="0" xlink:href="#m8f3c7ca41b" y="345.6"/>
    </g>
   </g>
   <g id="PolyCollection_2">
    <defs>
     <path d="M 88.372441 -164.21374 
L 88.372441 -177.93026 
L 91.351403 -180.595996 
L 94.330365 -184.021401 
L 97.309326 -188.313545 
L 100.288288 -193.556156 
L 103.26725 -199.795429 
L 106.246212 -207.02613 
L 109.225174 -215.179881 
L 112.204136 -224.11765 
L 115.183098 -233.628194 
L 118.162059 -243.433666 
L 121.141021 -253.202663 
L 124.119983 -262.570027 
L 127.098945 -271.161606 
L 130.077907 -278.62145 
L 133.056869 -284.638415 
L 136.03583 -288.969185 
L 139.014792 -291.45523 
L 141.993754 -292.032 
L 144.972716 -290.729775 
L 147.951678 -287.666602 
L 150.93064 -283.034682 
L 153.909601 -277.082189 
L 156.888563 -270.092754 
L 159.867525 -262.364811 
L 162.846487 -254.192681 
L 165.825449 -245.850757 
L 168.804411 -237.581635 
L 171.783373 -229.588471 
L 174.762334 -222.031406 
L 177.741296 -215.027527 
L 180.720258 -208.653647 
L 183.69922 -202.951031 
L 186.678182 -197.931215 
L 189.657144 -193.582157 
L 192.636105 -189.874094 
L 195.615067 -186.764679 
L 198.594029 -184.203187 
L 201.572991 -182.133758 
L 204.551953 -180.497806 
L 207.530915 -179.235814 
L 210.509876 -178.288753 
L 213.488838 -177.599348 
L 216.4678 -177.113316 
L 219.446762 -176.780619 
L 222.425724 -176.556691 
L 225.404686 -176.403509 
L 228.383648 -176.29038 
L 231.362609 -176.194298 
L 234.341571 -176.099809 
L 237.320533 -175.998356 
L 240.299495 -175.88717 
L 243.278457 -175.767824 
L 246.257419 -175.644624 
L 249.23638 -175.523 
L 252.215342 -175.408078 
L 255.194304 -175.303575 
L 258.173266 -175.21109 
L 261.152228 -175.129857 
L 264.13119 -175.056941 
L 267.110151 -174.987801 
L 270.089113 -174.917156 
L 273.068075 -174.839993 
L 276.047037 -174.752603 
L 279.025999 -174.653503 
L 282.004961 -174.544114 
L 284.983923 -174.42912 
L 287.962884 -174.316449 
L 290.941846 -174.216858 
L 293.920808 -174.143173 
L 296.89977 -174.109222 
L 299.878732 -174.128582 
L 302.857694 -174.213214 
L 305.836655 -174.372116 
L 308.815617 -174.610094 
L 311.794579 -174.926743 
L 314.773541 -175.315755 
L 317.752503 -175.764611 
L 320.731465 -176.254773 
L 323.710426 -176.762394 
L 326.689388 -177.2596 
L 329.66835 -177.71629 
L 332.647312 -178.102357 
L 335.626274 -178.390145 
L 338.605236 -178.556907 
L 341.584198 -178.586956 
L 344.563159 -178.473241 
L 347.542121 -178.218109 
L 350.521083 -177.833116 
L 353.500045 -177.337897 
L 356.479007 -176.758227 
L 359.457969 -176.123525 
L 362.43693 -175.464147 
L 365.415892 -174.808806 
L 368.394854 -174.182415 
L 371.373816 -173.604594 
L 374.352778 -173.088908 
L 377.33174 -172.642839 
L 380.310701 -172.268355 
L 383.289663 -171.962913 
L 383.289663 -170.181087 
L 383.289663 -170.181087 
L 380.310701 -169.875645 
L 377.33174 -169.501161 
L 374.352778 -169.055092 
L 371.373816 -168.539406 
L 368.394854 -167.961585 
L 365.415892 -167.335194 
L 362.43693 -166.679853 
L 359.457969 -166.020475 
L 356.479007 -165.385773 
L 353.500045 -164.806103 
L 350.521083 -164.310884 
L 347.542121 -163.925891 
L 344.563159 -163.670759 
L 341.584198 -163.557044 
L 338.605236 -163.587093 
L 335.626274 -163.753855 
L 332.647312 -164.041643 
L 329.66835 -164.42771 
L 326.689388 -164.8844 
L 323.710426 -165.381606 
L 320.731465 -165.889227 
L 317.752503 -166.379389 
L 314.773541 -166.828245 
L 311.794579 -167.217257 
L 308.815617 -167.533906 
L 305.836655 -167.771884 
L 302.857694 -167.930786 
L 299.878732 -168.015418 
L 296.89977 -168.034778 
L 293.920808 -168.000827 
L 290.941846 -167.927142 
L 287.962884 -167.827551 
L 284.983923 -167.71488 
L 282.004961 -167.599886 
L 279.025999 -167.490497 
L 276.047037 -167.391397 
L 273.068075 -167.304007 
L 270.089113 -167.226844 
L 267.110151 -167.156199 
L 264.13119 -167.087059 
L 261.152228 -167.014143 
L 258.173266 -166.93291 
L 255.194304 -166.840425 
L 252.215342 -166.735922 
L 249.23638 -166.621 
L 246.257419 -166.499376 
L 243.278457 -166.376176 
L 240.299495 -166.25683 
L 237.320533 -166.145644 
L 234.341571 -166.044191 
L 231.362609 -165.949702 
L 228.383648 -165.85362 
L 225.404686 -165.740491 
L 222.425724 -165.587309 
L 219.446762 -165.363381 
L 216.4678 -165.030684 
L 213.488838 -164.544652 
L 210.509876 -163.855247 
L 207.530915 -162.908186 
L 204.551953 -161.646194 
L 201.572991 -160.010242 
L 198.594029 -157.940813 
L 195.615067 -155.379321 
L 192.636105 -152.269906 
L 189.657144 -148.561843 
L 186.678182 -144.212785 
L 183.69922 -139.192969 
L 180.720258 -133.490353 
L 177.741296 -127.116473 
L 174.762334 -120.112594 
L 171.783373 -112.555529 
L 168.804411 -104.562365 
L 165.825449 -96.293243 
L 162.846487 -87.951319 
L 159.867525 -79.779189 
L 156.888563 -72.051246 
L 153.909601 -65.061811 
L 150.93064 -59.109318 
L 147.951678 -54.477398 
L 144.972716 -51.414225 
L 141.993754 -50.112 
L 139.014792 -50.68877 
L 136.03583 -53.174815 
L 133.056869 -57.505585 
L 130.077907 -63.52255 
L 127.098945 -70.982394 
L 124.119983 -79.573973 
L 121.141021 -88.941337 
L 118.162059 -98.710334 
L 115.183098 -108.515806 
L 112.204136 -118.02635 
L 109.225174 -126.964119 
L 106.246212 -135.11787 
L 103.26725 -142.348571 
L 100.288288 -148.587844 
L 97.309326 -153.830455 
L 94.330365 -158.122599 
L 91.351403 -161.548004 
L 88.372441 -164.21374 
z
" id="m6d6be753c3" style="stroke:#262626;stroke-opacity:0.5;stroke-width:1.5;"/>
    </defs>
    <g clip-path="url(#pfb6aa4d541)">
     <use style="fill:#107010;fill-opacity:0.5;stroke:#262626;stroke-opacity:0.5;stroke-width:1.5;" x="0" xlink:href="#m6d6be753c3" y="345.6"/>
    </g>
   </g>
   <g id="matplotlib.axis_1">
    <g id="xtick_1">
     <g id="line2d_1">
      <defs>
       <path d="M 0 0 
L 0 3.5 
" id="mfe9b677942" style="stroke:#000000;stroke-width:0.8;"/>
      </defs>
      <g>
       <use style="stroke:#000000;stroke-width:0.8;" x="69.904507" xlink:href="#mfe9b677942" y="307.584"/>
      </g>
     </g>
     <g id="text_1">
      <!-- −5 -->
      <defs>
       <path d="M 10.59375 35.5 
L 73.1875 35.5 
L 73.1875 27.203125 
L 10.59375 27.203125 
z
" id="DejaVuSans-8722"/>
       <path d="M 10.796875 72.90625 
L 49.515625 72.90625 
L 49.515625 64.59375 
L 19.828125 64.59375 
L 19.828125 46.734375 
Q 21.96875 47.46875 24.109375 47.828125 
Q 26.265625 48.1875 28.421875 48.1875 
Q 40.625 48.1875 47.75 41.5 
Q 54.890625 34.8125 54.890625 23.390625 
Q 54.890625 11.625 47.5625 5.09375 
Q 40.234375 -1.421875 26.90625 -1.421875 
Q 22.3125 -1.421875 17.546875 -0.640625 
Q 12.796875 0.140625 7.71875 1.703125 
L 7.71875 11.625 
Q 12.109375 9.234375 16.796875 8.0625 
Q 21.484375 6.890625 26.703125 6.890625 
Q 35.15625 6.890625 40.078125 11.328125 
Q 45.015625 15.765625 45.015625 23.390625 
Q 45.015625 31 40.078125 35.4375 
Q 35.15625 39.890625 26.703125 39.890625 
Q 22.75 39.890625 18.8125 39.015625 
Q 14.890625 38.140625 10.796875 36.28125 
z
" id="DejaVuSans-53"/>
      </defs>
      <g transform="translate(62.533414 322.182437)scale(0.1 -0.1)">
       <use xlink:href="#DejaVuSans-8722"/>
       <use x="83.789062" xlink:href="#DejaVuSans-53"/>
      </g>
     </g>
    </g>
    <g id="xtick_2">
     <g id="line2d_2">
      <g>
       <use style="stroke:#000000;stroke-width:0.8;" x="124.720016" xlink:href="#mfe9b677942" y="307.584"/>
      </g>
     </g>
     <g id="text_2">
      <!-- 0 -->
      <defs>
       <path d="M 31.78125 66.40625 
Q 24.171875 66.40625 20.328125 58.90625 
Q 16.5 51.421875 16.5 36.375 
Q 16.5 21.390625 20.328125 13.890625 
Q 24.171875 6.390625 31.78125 6.390625 
Q 39.453125 6.390625 43.28125 13.890625 
Q 47.125 21.390625 47.125 36.375 
Q 47.125 51.421875 43.28125 58.90625 
Q 39.453125 66.40625 31.78125 66.40625 
z
M 31.78125 74.21875 
Q 44.046875 74.21875 50.515625 64.515625 
Q 56.984375 54.828125 56.984375 36.375 
Q 56.984375 17.96875 50.515625 8.265625 
Q 44.046875 -1.421875 31.78125 -1.421875 
Q 19.53125 -1.421875 13.0625 8.265625 
Q 6.59375 17.96875 6.59375 36.375 
Q 6.59375 54.828125 13.0625 64.515625 
Q 19.53125 74.21875 31.78125 74.21875 
z
" id="DejaVuSans-48"/>
      </defs>
      <g transform="translate(121.538766 322.182437)scale(0.1 -0.1)">
       <use xlink:href="#DejaVuSans-48"/>
      </g>
     </g>
    </g>
    <g id="xtick_3">
     <g id="line2d_3">
      <g>
       <use style="stroke:#000000;stroke-width:0.8;" x="179.535525" xlink:href="#mfe9b677942" y="307.584"/>
      </g>
     </g>
     <g id="text_3">
      <!-- 5 -->
      <g transform="translate(176.354275 322.182437)scale(0.1 -0.1)">
       <use xlink:href="#DejaVuSans-53"/>
      </g>
     </g>
    </g>
    <g id="xtick_4">
     <g id="line2d_4">
      <g>
       <use style="stroke:#000000;stroke-width:0.8;" x="234.351033" xlink:href="#mfe9b677942" y="307.584"/>
      </g>
     </g>
     <g id="text_4">
      <!-- 10 -->
      <defs>
       <path d="M 12.40625 8.296875 
L 28.515625 8.296875 
L 28.515625 63.921875 
L 10.984375 60.40625 
L 10.984375 69.390625 
L 28.421875 72.90625 
L 38.28125 72.90625 
L 38.28125 8.296875 
L 54.390625 8.296875 
L 54.390625 0 
L 12.40625 0 
z
" id="DejaVuSans-49"/>
      </defs>
      <g transform="translate(227.988533 322.182437)scale(0.1 -0.1)">
       <use xlink:href="#DejaVuSans-49"/>
       <use x="63.623047" xlink:href="#DejaVuSans-48"/>
      </g>
     </g>
    </g>
    <g id="xtick_5">
     <g id="line2d_5">
      <g>
       <use style="stroke:#000000;stroke-width:0.8;" x="289.166542" xlink:href="#mfe9b677942" y="307.584"/>
      </g>
     </g>
     <g id="text_5">
      <!-- 15 -->
      <g transform="translate(282.804042 322.182437)scale(0.1 -0.1)">
       <use xlink:href="#DejaVuSans-49"/>
       <use x="63.623047" xlink:href="#DejaVuSans-53"/>
      </g>
     </g>
    </g>
    <g id="xtick_6">
     <g id="line2d_6">
      <g>
       <use style="stroke:#000000;stroke-width:0.8;" x="343.982051" xlink:href="#mfe9b677942" y="307.584"/>
      </g>
     </g>
     <g id="text_6">
      <!-- 20 -->
      <defs>
       <path d="M 19.1875 8.296875 
L 53.609375 8.296875 
L 53.609375 0 
L 7.328125 0 
L 7.328125 8.296875 
Q 12.9375 14.109375 22.625 23.890625 
Q 32.328125 33.6875 34.8125 36.53125 
Q 39.546875 41.84375 41.421875 45.53125 
Q 43.3125 49.21875 43.3125 52.78125 
Q 43.3125 58.59375 39.234375 62.25 
Q 35.15625 65.921875 28.609375 65.921875 
Q 23.96875 65.921875 18.8125 64.3125 
Q 13.671875 62.703125 7.8125 59.421875 
L 7.8125 69.390625 
Q 13.765625 71.78125 18.9375 73 
Q 24.125 74.21875 28.421875 74.21875 
Q 39.75 74.21875 46.484375 68.546875 
Q 53.21875 62.890625 53.21875 53.421875 
Q 53.21875 48.921875 51.53125 44.890625 
Q 49.859375 40.875 45.40625 35.40625 
Q 44.1875 33.984375 37.640625 27.21875 
Q 31.109375 20.453125 19.1875 8.296875 
z
" id="DejaVuSans-50"/>
      </defs>
      <g transform="translate(337.619551 322.182437)scale(0.1 -0.1)">
       <use xlink:href="#DejaVuSans-50"/>
       <use x="63.623047" xlink:href="#DejaVuSans-48"/>
      </g>
     </g>
    </g>
    <g id="xtick_7">
     <g id="line2d_7">
      <g>
       <use style="stroke:#000000;stroke-width:0.8;" x="398.79756" xlink:href="#mfe9b677942" y="307.584"/>
      </g>
     </g>
     <g id="text_7">
      <!-- 25 -->
      <g transform="translate(392.43506 322.182437)scale(0.1 -0.1)">
       <use xlink:href="#DejaVuSans-50"/>
       <use x="63.623047" xlink:href="#DejaVuSans-53"/>
      </g>
     </g>
    </g>
    <g id="text_8">
     <!-- ddimeradmac -->
     <defs>
      <path d="M 45.40625 46.390625 
L 45.40625 75.984375 
L 54.390625 75.984375 
L 54.390625 0 
L 45.40625 0 
L 45.40625 8.203125 
Q 42.578125 3.328125 38.25 0.953125 
Q 33.9375 -1.421875 27.875 -1.421875 
Q 17.96875 -1.421875 11.734375 6.484375 
Q 5.515625 14.40625 5.515625 27.296875 
Q 5.515625 40.1875 11.734375 48.09375 
Q 17.96875 56 27.875 56 
Q 33.9375 56 38.25 53.625 
Q 42.578125 51.265625 45.40625 46.390625 
z
M 14.796875 27.296875 
Q 14.796875 17.390625 18.875 11.75 
Q 22.953125 6.109375 30.078125 6.109375 
Q 37.203125 6.109375 41.296875 11.75 
Q 45.40625 17.390625 45.40625 27.296875 
Q 45.40625 37.203125 41.296875 42.84375 
Q 37.203125 48.484375 30.078125 48.484375 
Q 22.953125 48.484375 18.875 42.84375 
Q 14.796875 37.203125 14.796875 27.296875 
z
" id="DejaVuSans-100"/>
      <path d="M 9.421875 54.6875 
L 18.40625 54.6875 
L 18.40625 0 
L 9.421875 0 
z
M 9.421875 75.984375 
L 18.40625 75.984375 
L 18.40625 64.59375 
L 9.421875 64.59375 
z
" id="DejaVuSans-105"/>
      <path d="M 52 44.1875 
Q 55.375 50.25 60.0625 53.125 
Q 64.75 56 71.09375 56 
Q 79.640625 56 84.28125 50.015625 
Q 88.921875 44.046875 88.921875 33.015625 
L 88.921875 0 
L 79.890625 0 
L 79.890625 32.71875 
Q 79.890625 40.578125 77.09375 44.375 
Q 74.3125 48.1875 68.609375 48.1875 
Q 61.625 48.1875 57.5625 43.546875 
Q 53.515625 38.921875 53.515625 30.90625 
L 53.515625 0 
L 44.484375 0 
L 44.484375 32.71875 
Q 44.484375 40.625 41.703125 44.40625 
Q 38.921875 48.1875 33.109375 48.1875 
Q 26.21875 48.1875 22.15625 43.53125 
Q 18.109375 38.875 18.109375 30.90625 
L 18.109375 0 
L 9.078125 0 
L 9.078125 54.6875 
L 18.109375 54.6875 
L 18.109375 46.1875 
Q 21.1875 51.21875 25.484375 53.609375 
Q 29.78125 56 35.6875 56 
Q 41.65625 56 45.828125 52.96875 
Q 50 49.953125 52 44.1875 
z
" id="DejaVuSans-109"/>
      <path d="M 56.203125 29.59375 
L 56.203125 25.203125 
L 14.890625 25.203125 
Q 15.484375 15.921875 20.484375 11.0625 
Q 25.484375 6.203125 34.421875 6.203125 
Q 39.59375 6.203125 44.453125 7.46875 
Q 49.3125 8.734375 54.109375 11.28125 
L 54.109375 2.78125 
Q 49.265625 0.734375 44.1875 -0.34375 
Q 39.109375 -1.421875 33.890625 -1.421875 
Q 20.796875 -1.421875 13.15625 6.1875 
Q 5.515625 13.8125 5.515625 26.8125 
Q 5.515625 40.234375 12.765625 48.109375 
Q 20.015625 56 32.328125 56 
Q 43.359375 56 49.78125 48.890625 
Q 56.203125 41.796875 56.203125 29.59375 
z
M 47.21875 32.234375 
Q 47.125 39.59375 43.09375 43.984375 
Q 39.0625 48.390625 32.421875 48.390625 
Q 24.90625 48.390625 20.390625 44.140625 
Q 15.875 39.890625 15.1875 32.171875 
z
" id="DejaVuSans-101"/>
      <path d="M 41.109375 46.296875 
Q 39.59375 47.171875 37.8125 47.578125 
Q 36.03125 48 33.890625 48 
Q 26.265625 48 22.1875 43.046875 
Q 18.109375 38.09375 18.109375 28.8125 
L 18.109375 0 
L 9.078125 0 
L 9.078125 54.6875 
L 18.109375 54.6875 
L 18.109375 46.1875 
Q 20.953125 51.171875 25.484375 53.578125 
Q 30.03125 56 36.53125 56 
Q 37.453125 56 38.578125 55.875 
Q 39.703125 55.765625 41.0625 55.515625 
z
" id="DejaVuSans-114"/>
      <path d="M 34.28125 27.484375 
Q 23.390625 27.484375 19.1875 25 
Q 14.984375 22.515625 14.984375 16.5 
Q 14.984375 11.71875 18.140625 8.90625 
Q 21.296875 6.109375 26.703125 6.109375 
Q 34.1875 6.109375 38.703125 11.40625 
Q 43.21875 16.703125 43.21875 25.484375 
L 43.21875 27.484375 
z
M 52.203125 31.203125 
L 52.203125 0 
L 43.21875 0 
L 43.21875 8.296875 
Q 40.140625 3.328125 35.546875 0.953125 
Q 30.953125 -1.421875 24.3125 -1.421875 
Q 15.921875 -1.421875 10.953125 3.296875 
Q 6 8.015625 6 15.921875 
Q 6 25.140625 12.171875 29.828125 
Q 18.359375 34.515625 30.609375 34.515625 
L 43.21875 34.515625 
L 43.21875 35.40625 
Q 43.21875 41.609375 39.140625 45 
Q 35.0625 48.390625 27.6875 48.390625 
Q 23 48.390625 18.546875 47.265625 
Q 14.109375 46.140625 10.015625 43.890625 
L 10.015625 52.203125 
Q 14.9375 54.109375 19.578125 55.046875 
Q 24.21875 56 28.609375 56 
Q 40.484375 56 46.34375 49.84375 
Q 52.203125 43.703125 52.203125 31.203125 
z
" id="DejaVuSans-97"/>
      <path d="M 48.78125 52.59375 
L 48.78125 44.1875 
Q 44.96875 46.296875 41.140625 47.34375 
Q 37.3125 48.390625 33.40625 48.390625 
Q 24.65625 48.390625 19.8125 42.84375 
Q 14.984375 37.3125 14.984375 27.296875 
Q 14.984375 17.28125 19.8125 11.734375 
Q 24.65625 6.203125 33.40625 6.203125 
Q 37.3125 6.203125 41.140625 7.25 
Q 44.96875 8.296875 48.78125 10.40625 
L 48.78125 2.09375 
Q 45.015625 0.34375 40.984375 -0.53125 
Q 36.96875 -1.421875 32.421875 -1.421875 
Q 20.0625 -1.421875 12.78125 6.34375 
Q 5.515625 14.109375 5.515625 27.296875 
Q 5.515625 40.671875 12.859375 48.328125 
Q 20.21875 56 33.015625 56 
Q 37.15625 56 41.109375 55.140625 
Q 45.0625 54.296875 48.78125 52.59375 
z
" id="DejaVuSans-99"/>
     </defs>
     <g transform="translate(201.498281 335.860562)scale(0.1 -0.1)">
      <use xlink:href="#DejaVuSans-100"/>
      <use x="63.476562" xlink:href="#DejaVuSans-100"/>
      <use x="126.953125" xlink:href="#DejaVuSans-105"/>
      <use x="154.736328" xlink:href="#DejaVuSans-109"/>
      <use x="252.148438" xlink:href="#DejaVuSans-101"/>
      <use x="313.671875" xlink:href="#DejaVuSans-114"/>
      <use x="354.785156" xlink:href="#DejaVuSans-97"/>
      <use x="416.064453" xlink:href="#DejaVuSans-100"/>
      <use x="479.541016" xlink:href="#DejaVuSans-109"/>
      <use x="576.953125" xlink:href="#DejaVuSans-97"/>
      <use x="638.232422" xlink:href="#DejaVuSans-99"/>
     </g>
    </g>
   </g>
   <g id="matplotlib.axis_2">
    <g id="ytick_1">
     <g id="line2d_8">
      <defs>
       <path d="M 0 0 
L -3.5 0 
" id="m6d4e323c7f" style="stroke:#000000;stroke-width:0.8;"/>
      </defs>
      <g>
       <use style="stroke:#000000;stroke-width:0.8;" x="57.6" xlink:href="#m6d4e323c7f" y="174.528"/>
      </g>
     </g>
    </g>
   </g>
   <g id="line2d_9">
    <path clip-path="url(#pfb6aa4d541)" d="M 128.33784 174.528 
L 294.428831 174.528 
" style="fill:none;stroke:#ffa500;stroke-linecap:square;stroke-width:1.5;"/>
   </g>
   <g id="line2d_10">
    <path clip-path="url(#pfb6aa4d541)" d="M 138.862417 174.528 
L 210.341841 174.528 
" style="fill:none;stroke:#4c4c4c;stroke-linecap:square;stroke-width:4.5;"/>
   </g>
   <g id="line2d_11">
    <path clip-path="url(#pfb6aa4d541)" d="M 127.679944 174.528 
L 192.033461 174.528 
" style="fill:none;stroke:#008000;stroke-linecap:square;stroke-width:1.5;"/>
   </g>
   <g id="line2d_12">
    <path clip-path="url(#pfb6aa4d541)" d="M 132.586041 174.528 
L 157.664137 174.528 
" style="fill:none;stroke:#262626;stroke-linecap:square;stroke-width:4.5;"/>
   </g>
   <g id="patch_3">
    <path d="M 57.6 307.584 
L 57.6 41.472 
" style="fill:none;stroke:#000000;stroke-linecap:square;stroke-linejoin:miter;stroke-width:0.8;"/>
   </g>
   <g id="patch_4">
    <path d="M 414.72 307.584 
L 414.72 41.472 
" style="fill:none;stroke:#000000;stroke-linecap:square;stroke-linejoin:miter;stroke-width:0.8;"/>
   </g>
   <g id="patch_5">
    <path d="M 57.6 307.584 
L 414.72 307.584 
" style="fill:none;stroke:#000000;stroke-linecap:square;stroke-linejoin:miter;stroke-width:0.8;"/>
   </g>
   <g id="patch_6">
    <path d="M 57.6 41.472 
L 414.72 41.472 
" style="fill:none;stroke:#000000;stroke-linecap:square;stroke-linejoin:miter;stroke-width:0.8;"/>
   </g>
   <g id="PathCollection_1">
    <defs>
     <path d="M 0 1.5 
C 0.397805 1.5 0.77937 1.341951 1.06066 1.06066 
C 1.341951 0.77937 1.5 0.397805 1.5 0 
C 1.5 -0.397805 1.341951 -0.77937 1.06066 -1.06066 
C 0.77937 -1.341951 0.397805 -1.5 0 -1.5 
C -0.397805 -1.5 -0.77937 -1.341951 -1.06066 -1.06066 
C -1.341951 -0.77937 -1.5 -0.397805 -1.5 0 
C -1.5 0.397805 -1.341951 0.77937 -1.06066 1.06066 
C -0.77937 1.341951 -0.397805 1.5 0 1.5 
z
" id="m6d5ddd52a9" style="stroke:#4c4c4c;stroke-opacity:0.5;"/>
    </defs>
    <g clip-path="url(#pfb6aa4d541)">
     <use style="fill:#ffffff;fill-opacity:0.5;stroke:#4c4c4c;stroke-opacity:0.5;" x="153.333712" xlink:href="#m6d5ddd52a9" y="174.528"/>
    </g>
   </g>
   <g id="PathCollection_2">
    <defs>
     <path d="M 0 1.5 
C 0.397805 1.5 0.77937 1.341951 1.06066 1.06066 
C 1.341951 0.77937 1.5 0.397805 1.5 0 
C 1.5 -0.397805 1.341951 -0.77937 1.06066 -1.06066 
C 0.77937 -1.341951 0.397805 -1.5 0 -1.5 
C -0.397805 -1.5 -0.77937 -1.341951 -1.06066 -1.06066 
C -1.341951 -0.77937 -1.5 -0.397805 -1.5 0 
C -1.5 0.397805 -1.341951 0.77937 -1.06066 1.06066 
C -0.77937 1.341951 -0.397805 1.5 0 1.5 
z
" id="mbb0b4fd9e4" style="stroke:#262626;stroke-opacity:0.5;"/>
    </defs>
    <g clip-path="url(#pfb6aa4d541)">
     <use style="fill:#ffffff;fill-opacity:0.5;stroke:#262626;stroke-opacity:0.5;" x="144.398784" xlink:href="#mbb0b4fd9e4" y="174.528"/>
    </g>
   </g>
   <g id="text_9">
    <!-- Association of ddimeradmac vs. sepsis -->
    <defs>
     <path d="M 34.1875 63.1875 
L 20.796875 26.90625 
L 47.609375 26.90625 
z
M 28.609375 72.90625 
L 39.796875 72.90625 
L 67.578125 0 
L 57.328125 0 
L 50.6875 18.703125 
L 17.828125 18.703125 
L 11.1875 0 
L 0.78125 0 
z
" id="DejaVuSans-65"/>
     <path d="M 44.28125 53.078125 
L 44.28125 44.578125 
Q 40.484375 46.53125 36.375 47.5 
Q 32.28125 48.484375 27.875 48.484375 
Q 21.1875 48.484375 17.84375 46.4375 
Q 14.5 44.390625 14.5 40.28125 
Q 14.5 37.15625 16.890625 35.375 
Q 19.28125 33.59375 26.515625 31.984375 
L 29.59375 31.296875 
Q 39.15625 29.25 43.1875 25.515625 
Q 47.21875 21.78125 47.21875 15.09375 
Q 47.21875 7.46875 41.1875 3.015625 
Q 35.15625 -1.421875 24.609375 -1.421875 
Q 20.21875 -1.421875 15.453125 -0.5625 
Q 10.6875 0.296875 5.421875 2 
L 5.421875 11.28125 
Q 10.40625 8.6875 15.234375 7.390625 
Q 20.0625 6.109375 24.8125 6.109375 
Q 31.15625 6.109375 34.5625 8.28125 
Q 37.984375 10.453125 37.984375 14.40625 
Q 37.984375 18.0625 35.515625 20.015625 
Q 33.0625 21.96875 24.703125 23.78125 
L 21.578125 24.515625 
Q 13.234375 26.265625 9.515625 29.90625 
Q 5.8125 33.546875 5.8125 39.890625 
Q 5.8125 47.609375 11.28125 51.796875 
Q 16.75 56 26.8125 56 
Q 31.78125 56 36.171875 55.265625 
Q 40.578125 54.546875 44.28125 53.078125 
z
" id="DejaVuSans-115"/>
     <path d="M 30.609375 48.390625 
Q 23.390625 48.390625 19.1875 42.75 
Q 14.984375 37.109375 14.984375 27.296875 
Q 14.984375 17.484375 19.15625 11.84375 
Q 23.34375 6.203125 30.609375 6.203125 
Q 37.796875 6.203125 41.984375 11.859375 
Q 46.1875 17.53125 46.1875 27.296875 
Q 46.1875 37.015625 41.984375 42.703125 
Q 37.796875 48.390625 30.609375 48.390625 
z
M 30.609375 56 
Q 42.328125 56 49.015625 48.375 
Q 55.71875 40.765625 55.71875 27.296875 
Q 55.71875 13.875 49.015625 6.21875 
Q 42.328125 -1.421875 30.609375 -1.421875 
Q 18.84375 -1.421875 12.171875 6.21875 
Q 5.515625 13.875 5.515625 27.296875 
Q 5.515625 40.765625 12.171875 48.375 
Q 18.84375 56 30.609375 56 
z
" id="DejaVuSans-111"/>
     <path d="M 18.3125 70.21875 
L 18.3125 54.6875 
L 36.8125 54.6875 
L 36.8125 47.703125 
L 18.3125 47.703125 
L 18.3125 18.015625 
Q 18.3125 11.328125 20.140625 9.421875 
Q 21.96875 7.515625 27.59375 7.515625 
L 36.8125 7.515625 
L 36.8125 0 
L 27.59375 0 
Q 17.1875 0 13.234375 3.875 
Q 9.28125 7.765625 9.28125 18.015625 
L 9.28125 47.703125 
L 2.6875 47.703125 
L 2.6875 54.6875 
L 9.28125 54.6875 
L 9.28125 70.21875 
z
" id="DejaVuSans-116"/>
     <path d="M 54.890625 33.015625 
L 54.890625 0 
L 45.90625 0 
L 45.90625 32.71875 
Q 45.90625 40.484375 42.875 44.328125 
Q 39.84375 48.1875 33.796875 48.1875 
Q 26.515625 48.1875 22.3125 43.546875 
Q 18.109375 38.921875 18.109375 30.90625 
L 18.109375 0 
L 9.078125 0 
L 9.078125 54.6875 
L 18.109375 54.6875 
L 18.109375 46.1875 
Q 21.34375 51.125 25.703125 53.5625 
Q 30.078125 56 35.796875 56 
Q 45.21875 56 50.046875 50.171875 
Q 54.890625 44.34375 54.890625 33.015625 
z
" id="DejaVuSans-110"/>
     <path id="DejaVuSans-32"/>
     <path d="M 37.109375 75.984375 
L 37.109375 68.5 
L 28.515625 68.5 
Q 23.6875 68.5 21.796875 66.546875 
Q 19.921875 64.59375 19.921875 59.515625 
L 19.921875 54.6875 
L 34.71875 54.6875 
L 34.71875 47.703125 
L 19.921875 47.703125 
L 19.921875 0 
L 10.890625 0 
L 10.890625 47.703125 
L 2.296875 47.703125 
L 2.296875 54.6875 
L 10.890625 54.6875 
L 10.890625 58.5 
Q 10.890625 67.625 15.140625 71.796875 
Q 19.390625 75.984375 28.609375 75.984375 
z
" id="DejaVuSans-102"/>
     <path d="M 2.984375 54.6875 
L 12.5 54.6875 
L 29.59375 8.796875 
L 46.6875 54.6875 
L 56.203125 54.6875 
L 35.6875 0 
L 23.484375 0 
z
" id="DejaVuSans-118"/>
     <path d="M 10.6875 12.40625 
L 21 12.40625 
L 21 0 
L 10.6875 0 
z
" id="DejaVuSans-46"/>
     <path d="M 18.109375 8.203125 
L 18.109375 -20.796875 
L 9.078125 -20.796875 
L 9.078125 54.6875 
L 18.109375 54.6875 
L 18.109375 46.390625 
Q 20.953125 51.265625 25.265625 53.625 
Q 29.59375 56 35.59375 56 
Q 45.5625 56 51.78125 48.09375 
Q 58.015625 40.1875 58.015625 27.296875 
Q 58.015625 14.40625 51.78125 6.484375 
Q 45.5625 -1.421875 35.59375 -1.421875 
Q 29.59375 -1.421875 25.265625 0.953125 
Q 20.953125 3.328125 18.109375 8.203125 
z
M 48.6875 27.296875 
Q 48.6875 37.203125 44.609375 42.84375 
Q 40.53125 48.484375 33.40625 48.484375 
Q 26.265625 48.484375 22.1875 42.84375 
Q 18.109375 37.203125 18.109375 27.296875 
Q 18.109375 17.390625 22.1875 11.75 
Q 26.265625 6.109375 33.40625 6.109375 
Q 40.53125 6.109375 44.609375 11.75 
Q 48.6875 17.390625 48.6875 27.296875 
z
" id="DejaVuSans-112"/>
    </defs>
    <g transform="translate(119.864063 35.472)scale(0.12 -0.12)">
     <use xlink:href="#DejaVuSans-65"/>
     <use x="68.408203" xlink:href="#DejaVuSans-115"/>
     <use x="120.507812" xlink:href="#DejaVuSans-115"/>
     <use x="172.607422" xlink:href="#DejaVuSans-111"/>
     <use x="233.789062" xlink:href="#DejaVuSans-99"/>
     <use x="288.769531" xlink:href="#DejaVuSans-105"/>
     <use x="316.552734" xlink:href="#DejaVuSans-97"/>
     <use x="377.832031" xlink:href="#DejaVuSans-116"/>
     <use x="417.041016" xlink:href="#DejaVuSans-105"/>
     <use x="444.824219" xlink:href="#DejaVuSans-111"/>
     <use x="506.005859" xlink:href="#DejaVuSans-110"/>
     <use x="569.384766" xlink:href="#DejaVuSans-32"/>
     <use x="601.171875" xlink:href="#DejaVuSans-111"/>
     <use x="662.353516" xlink:href="#DejaVuSans-102"/>
     <use x="697.558594" xlink:href="#DejaVuSans-32"/>
     <use x="729.345703" xlink:href="#DejaVuSans-100"/>
     <use x="792.822266" xlink:href="#DejaVuSans-100"/>
     <use x="856.298828" xlink:href="#DejaVuSans-105"/>
     <use x="884.082031" xlink:href="#DejaVuSans-109"/>
     <use x="981.494141" xlink:href="#DejaVuSans-101"/>
     <use x="1043.017578" xlink:href="#DejaVuSans-114"/>
     <use x="1084.130859" xlink:href="#DejaVuSans-97"/>
     <use x="1145.410156" xlink:href="#DejaVuSans-100"/>
     <use x="1208.886719" xlink:href="#DejaVuSans-109"/>
     <use x="1306.298828" xlink:href="#DejaVuSans-97"/>
     <use x="1367.578125" xlink:href="#DejaVuSans-99"/>
     <use x="1422.558594" xlink:href="#DejaVuSans-32"/>
     <use x="1454.345703" xlink:href="#DejaVuSans-118"/>
     <use x="1513.525391" xlink:href="#DejaVuSans-115"/>
     <use x="1565.625" xlink:href="#DejaVuSans-46"/>
     <use x="1597.412109" xlink:href="#DejaVuSans-32"/>
     <use x="1629.199219" xlink:href="#DejaVuSans-115"/>
     <use x="1681.298828" xlink:href="#DejaVuSans-101"/>
     <use x="1742.822266" xlink:href="#DejaVuSans-112"/>
     <use x="1806.298828" xlink:href="#DejaVuSans-115"/>
     <use x="1858.398438" xlink:href="#DejaVuSans-105"/>
     <use x="1886.181641" xlink:href="#DejaVuSans-115"/>
    </g>
   </g>
   <g id="legend_1">
    <g id="patch_7">
     <path d="M 294.045 78.82825 
L 407.72 78.82825 
Q 409.72 78.82825 409.72 76.82825 
L 409.72 48.472 
Q 409.72 46.472 407.72 46.472 
L 294.045 46.472 
Q 292.045 46.472 292.045 48.472 
L 292.045 76.82825 
Q 292.045 78.82825 294.045 78.82825 
z
" style="fill:#ffffff;opacity:0.8;stroke:#cccccc;stroke-linejoin:miter;"/>
    </g>
    <g id="line2d_13">
     <path d="M 296.045 54.570437 
L 316.045 54.570437 
" style="fill:none;stroke:#ffa500;stroke-linecap:square;stroke-width:1.5;"/>
    </g>
    <g id="line2d_14"/>
    <g id="text_10">
     <!-- sepsis (69) -->
     <defs>
      <path d="M 31 75.875 
Q 24.46875 64.65625 21.28125 53.65625 
Q 18.109375 42.671875 18.109375 31.390625 
Q 18.109375 20.125 21.3125 9.0625 
Q 24.515625 -2 31 -13.1875 
L 23.1875 -13.1875 
Q 15.875 -1.703125 12.234375 9.375 
Q 8.59375 20.453125 8.59375 31.390625 
Q 8.59375 42.28125 12.203125 53.3125 
Q 15.828125 64.359375 23.1875 75.875 
z
" id="DejaVuSans-40"/>
      <path d="M 33.015625 40.375 
Q 26.375 40.375 22.484375 35.828125 
Q 18.609375 31.296875 18.609375 23.390625 
Q 18.609375 15.53125 22.484375 10.953125 
Q 26.375 6.390625 33.015625 6.390625 
Q 39.65625 6.390625 43.53125 10.953125 
Q 47.40625 15.53125 47.40625 23.390625 
Q 47.40625 31.296875 43.53125 35.828125 
Q 39.65625 40.375 33.015625 40.375 
z
M 52.59375 71.296875 
L 52.59375 62.3125 
Q 48.875 64.0625 45.09375 64.984375 
Q 41.3125 65.921875 37.59375 65.921875 
Q 27.828125 65.921875 22.671875 59.328125 
Q 17.53125 52.734375 16.796875 39.40625 
Q 19.671875 43.65625 24.015625 45.921875 
Q 28.375 48.1875 33.59375 48.1875 
Q 44.578125 48.1875 50.953125 41.515625 
Q 57.328125 34.859375 57.328125 23.390625 
Q 57.328125 12.15625 50.6875 5.359375 
Q 44.046875 -1.421875 33.015625 -1.421875 
Q 20.359375 -1.421875 13.671875 8.265625 
Q 6.984375 17.96875 6.984375 36.375 
Q 6.984375 53.65625 15.1875 63.9375 
Q 23.390625 74.21875 37.203125 74.21875 
Q 40.921875 74.21875 44.703125 73.484375 
Q 48.484375 72.75 52.59375 71.296875 
z
" id="DejaVuSans-54"/>
      <path d="M 10.984375 1.515625 
L 10.984375 10.5 
Q 14.703125 8.734375 18.5 7.8125 
Q 22.3125 6.890625 25.984375 6.890625 
Q 35.75 6.890625 40.890625 13.453125 
Q 46.046875 20.015625 46.78125 33.40625 
Q 43.953125 29.203125 39.59375 26.953125 
Q 35.25 24.703125 29.984375 24.703125 
Q 19.046875 24.703125 12.671875 31.3125 
Q 6.296875 37.9375 6.296875 49.421875 
Q 6.296875 60.640625 12.9375 67.421875 
Q 19.578125 74.21875 30.609375 74.21875 
Q 43.265625 74.21875 49.921875 64.515625 
Q 56.59375 54.828125 56.59375 36.375 
Q 56.59375 19.140625 48.40625 8.859375 
Q 40.234375 -1.421875 26.421875 -1.421875 
Q 22.703125 -1.421875 18.890625 -0.6875 
Q 15.09375 0.046875 10.984375 1.515625 
z
M 30.609375 32.421875 
Q 37.25 32.421875 41.125 36.953125 
Q 45.015625 41.5 45.015625 49.421875 
Q 45.015625 57.28125 41.125 61.84375 
Q 37.25 66.40625 30.609375 66.40625 
Q 23.96875 66.40625 20.09375 61.84375 
Q 16.21875 57.28125 16.21875 49.421875 
Q 16.21875 41.5 20.09375 36.953125 
Q 23.96875 32.421875 30.609375 32.421875 
z
" id="DejaVuSans-57"/>
      <path d="M 8.015625 75.875 
L 15.828125 75.875 
Q 23.140625 64.359375 26.78125 53.3125 
Q 30.421875 42.28125 30.421875 31.390625 
Q 30.421875 20.453125 26.78125 9.375 
Q 23.140625 -1.703125 15.828125 -13.1875 
L 8.015625 -13.1875 
Q 14.5 -2 17.703125 9.0625 
Q 20.90625 20.125 20.90625 31.390625 
Q 20.90625 42.671875 17.703125 53.65625 
Q 14.5 64.65625 8.015625 75.875 
z
" id="DejaVuSans-41"/>
     </defs>
     <g transform="translate(324.045 58.070437)scale(0.1 -0.1)">
      <use xlink:href="#DejaVuSans-115"/>
      <use x="52.099609" xlink:href="#DejaVuSans-101"/>
      <use x="113.623047" xlink:href="#DejaVuSans-112"/>
      <use x="177.099609" xlink:href="#DejaVuSans-115"/>
      <use x="229.199219" xlink:href="#DejaVuSans-105"/>
      <use x="256.982422" xlink:href="#DejaVuSans-115"/>
      <use x="309.082031" xlink:href="#DejaVuSans-32"/>
      <use x="340.869141" xlink:href="#DejaVuSans-40"/>
      <use x="379.882812" xlink:href="#DejaVuSans-54"/>
      <use x="443.505859" xlink:href="#DejaVuSans-57"/>
      <use x="507.128906" xlink:href="#DejaVuSans-41"/>
     </g>
    </g>
    <g id="line2d_15">
     <path d="M 296.045 69.248562 
L 316.045 69.248562 
" style="fill:none;stroke:#008000;stroke-linecap:square;stroke-width:1.5;"/>
    </g>
    <g id="line2d_16"/>
    <g id="text_11">
     <!-- Not sepsis (102) -->
     <defs>
      <path d="M 9.8125 72.90625 
L 23.09375 72.90625 
L 55.421875 11.921875 
L 55.421875 72.90625 
L 64.984375 72.90625 
L 64.984375 0 
L 51.703125 0 
L 19.390625 60.984375 
L 19.390625 0 
L 9.8125 0 
z
" id="DejaVuSans-78"/>
     </defs>
     <g transform="translate(324.045 72.748562)scale(0.1 -0.1)">
      <use xlink:href="#DejaVuSans-78"/>
      <use x="74.804688" xlink:href="#DejaVuSans-111"/>
      <use x="135.986328" xlink:href="#DejaVuSans-116"/>
      <use x="175.195312" xlink:href="#DejaVuSans-32"/>
      <use x="206.982422" xlink:href="#DejaVuSans-115"/>
      <use x="259.082031" xlink:href="#DejaVuSans-101"/>
      <use x="320.605469" xlink:href="#DejaVuSans-112"/>
      <use x="384.082031" xlink:href="#DejaVuSans-115"/>
      <use x="436.181641" xlink:href="#DejaVuSans-105"/>
      <use x="463.964844" xlink:href="#DejaVuSans-115"/>
      <use x="516.064453" xlink:href="#DejaVuSans-32"/>
      <use x="547.851562" xlink:href="#DejaVuSans-40"/>
      <use x="586.865234" xlink:href="#DejaVuSans-49"/>
      <use x="650.488281" xlink:href="#DejaVuSans-48"/>
      <use x="714.111328" xlink:href="#DejaVuSans-50"/>
      <use x="777.734375" xlink:href="#DejaVuSans-41"/>
     </g>
    </g>
   </g>
  </g>
 </g>
 <defs>
  <clipPath id="pfb6aa4d541">
   <rect height="266.112" width="357.12" x="57.6" y="41.472"/>
  </clipPath>
 </defs>
</svg>
