<?xml version="1.0" encoding="utf-8" standalone="no"?>
<!DOCTYPE svg PUBLIC "-//W3C//DTD SVG 1.1//EN"
  "http://www.w3.org/Graphics/SVG/1.1/DTD/svg11.dtd">
<!-- Created with matplotlib (https://matplotlib.org/) -->
<svg height="345.6pt" version="1.1" viewBox="0 0 460.8 345.6" width="460.8pt" xmlns="http://www.w3.org/2000/svg" xmlns:xlink="http://www.w3.org/1999/xlink">
 <defs>
  <style type="text/css">
*{stroke-linecap:butt;stroke-linejoin:round;}
  </style>
 </defs>
 <g id="figure_1">
  <g id="patch_1">
   <path d="M 0 345.6 
L 460.8 345.6 
L 460.8 0 
L 0 0 
z
" style="fill:#ffffff;"/>
  </g>
  <g id="axes_1">
   <g id="patch_2">
    <path d="M 57.6 307.584 
L 414.72 307.584 
L 414.72 41.472 
L 57.6 41.472 
z
" style="fill:#ffffff;"/>
   </g>
   <g id="PolyCollection_1">
    <defs>
     <path d="M 79.864069 -170.235082 
L 79.864069 -171.908918 
L 81.869697 -172.352151 
L 83.875325 -172.98246 
L 85.880952 -173.857499 
L 87.88658 -175.045009 
L 89.892208 -176.622017 
L 91.897835 -178.672649 
L 93.903463 -181.28397 
L 95.909091 -184.539326 
L 97.914718 -188.509033 
L 99.920346 -193.238927 
L 101.925974 -198.73818 
L 103.931601 -204.968675 
L 105.937229 -211.838727 
L 107.942856 -219.203764 
L 109.948484 -226.875514 
L 111.954112 -234.639453 
L 113.959739 -242.2781 
L 115.965367 -249.595896 
L 117.970995 -256.440392 
L 119.976622 -262.714872 
L 121.98225 -268.379194 
L 123.987878 -273.438438 
L 125.993505 -277.921899 
L 127.999133 -281.85758 
L 130.004761 -285.248569 
L 132.010388 -288.057449 
L 134.016016 -290.202957 
L 136.021644 -291.570154 
L 138.027271 -292.032 
L 140.032899 -291.477437 
L 142.038527 -289.839514 
L 144.044154 -287.117158 
L 146.049782 -283.385769 
L 148.05541 -278.794501 
L 150.061037 -273.550999 
L 152.066665 -267.896922 
L 154.072293 -262.079104 
L 156.07792 -256.321624 
L 158.083548 -250.803314 
L 160.089175 -245.643822 
L 162.094803 -240.899528 
L 164.100431 -236.568831 
L 166.106058 -232.604865 
L 168.111686 -228.932709 
L 170.117314 -225.467856 
L 172.122941 -222.132888 
L 174.128569 -218.87013 
L 176.134197 -215.649014 
L 178.139824 -212.467999 
L 180.145452 -209.351677 
L 182.15108 -206.344191 
L 184.156707 -203.500239 
L 186.162335 -200.874922 
L 188.167963 -198.513618 
L 190.17359 -196.443146 
L 192.179218 -194.665495 
L 194.184846 -193.155346 
L 196.190473 -191.862245 
L 198.196101 -190.717507 
L 200.201729 -189.644973 
L 202.207356 -188.573716 
L 204.212984 -187.450151 
L 206.218611 -186.246963 
L 208.224239 -184.966875 
L 210.229867 -183.640439 
L 212.235494 -182.318425 
L 214.241122 -181.060554 
L 216.24675 -179.923117 
L 218.252377 -178.94809 
L 220.258005 -178.155895 
L 222.263633 -177.542998 
L 224.26926 -177.084426 
L 226.274888 -176.74026 
L 228.280516 -176.464413 
L 230.286143 -176.213713 
L 232.291771 -175.955417 
L 234.297399 -175.671797 
L 236.303026 -175.36116 
L 238.308654 -175.035443 
L 240.314282 -174.715213 
L 242.319909 -174.423366 
L 244.325537 -174.178953 
L 246.331165 -173.992448 
L 248.336792 -173.863325 
L 250.34242 -173.780291 
L 252.348048 -173.723912 
L 254.353675 -173.670858 
L 256.359303 -173.59872 
L 258.36493 -173.490302 
L 260.370558 -173.336489 
L 262.376186 -173.137224 
L 264.381813 -172.900602 
L 266.387441 -172.640503 
L 268.393069 -172.373479 
L 270.398696 -172.115663 
L 272.404324 -171.880321 
L 274.409952 -171.676408 
L 276.415579 -171.508199 
L 278.421207 -171.375789 
L 278.421207 -170.768211 
L 278.421207 -170.768211 
L 276.415579 -170.635801 
L 274.409952 -170.467592 
L 272.404324 -170.263679 
L 270.398696 -170.028337 
L 268.393069 -169.770521 
L 266.387441 -169.503497 
L 264.381813 -169.243398 
L 262.376186 -169.006776 
L 260.370558 -168.807511 
L 258.36493 -168.653698 
L 256.359303 -168.54528 
L 254.353675 -168.473142 
L 252.348048 -168.420088 
L 250.34242 -168.363709 
L 248.336792 -168.280675 
L 246.331165 -168.151552 
L 244.325537 -167.965047 
L 242.319909 -167.720634 
L 240.314282 -167.428787 
L 238.308654 -167.108557 
L 236.303026 -166.78284 
L 234.297399 -166.472203 
L 232.291771 -166.188583 
L 230.286143 -165.930287 
L 228.280516 -165.679587 
L 226.274888 -165.40374 
L 224.26926 -165.059574 
L 222.263633 -164.601002 
L 220.258005 -163.988105 
L 218.252377 -163.19591 
L 216.24675 -162.220883 
L 214.241122 -161.083446 
L 212.235494 -159.825575 
L 210.229867 -158.503561 
L 208.224239 -157.177125 
L 206.218611 -155.897037 
L 204.212984 -154.693849 
L 202.207356 -153.570284 
L 200.201729 -152.499027 
L 198.196101 -151.426493 
L 196.190473 -150.281755 
L 194.184846 -148.988654 
L 192.179218 -147.478505 
L 190.17359 -145.700854 
L 188.167963 -143.630382 
L 186.162335 -141.269078 
L 184.156707 -138.643761 
L 182.15108 -135.799809 
L 180.145452 -132.792323 
L 178.139824 -129.676001 
L 176.134197 -126.494986 
L 174.128569 -123.27387 
L 172.122941 -120.011112 
L 170.117314 -116.676144 
L 168.111686 -113.211291 
L 166.106058 -109.539135 
L 164.100431 -105.575169 
L 162.094803 -101.244472 
L 160.089175 -96.500178 
L 158.083548 -91.340686 
L 156.07792 -85.822376 
L 154.072293 -80.064896 
L 152.066665 -74.247078 
L 150.061037 -68.593001 
L 148.05541 -63.349499 
L 146.049782 -58.758231 
L 144.044154 -55.026842 
L 142.038527 -52.304486 
L 140.032899 -50.666563 
L 138.027271 -50.112 
L 136.021644 -50.573846 
L 134.016016 -51.941043 
L 132.010388 -54.086551 
L 130.004761 -56.895431 
L 127.999133 -60.28642 
L 125.993505 -64.222101 
L 123.987878 -68.705562 
L 121.98225 -73.764806 
L 119.976622 -79.429128 
L 117.970995 -85.703608 
L 115.965367 -92.548104 
L 113.959739 -99.8659 
L 111.954112 -107.504547 
L 109.948484 -115.268486 
L 107.942856 -122.940236 
L 105.937229 -130.305273 
L 103.931601 -137.175325 
L 101.925974 -143.40582 
L 99.920346 -148.905073 
L 97.914718 -153.634967 
L 95.909091 -157.604674 
L 93.903463 -160.86003 
L 91.897835 -163.471351 
L 89.892208 -165.521983 
L 87.88658 -167.098991 
L 85.880952 -168.286501 
L 83.875325 -169.16154 
L 81.869697 -169.791849 
L 79.864069 -170.235082 
z
" id="m23a3313534" style="stroke:#4c4c4c;stroke-opacity:0.5;stroke-width:1.5;"/>
    </defs>
    <g clip-path="url(#p8b76e73788)">
     <use style="fill:#df9c20;fill-opacity:0.5;stroke:#4c4c4c;stroke-opacity:0.5;stroke-width:1.5;" x="0" xlink:href="#m23a3313534" y="345.6"/>
    </g>
   </g>
   <g id="PolyCollection_2">
    <defs>
     <path d="M 73.832727 -170.822105 
L 73.832727 -171.321895 
L 77.112066 -171.66995 
L 80.391405 -172.383473 
L 83.670744 -173.72402 
L 86.950083 -176.047932 
L 90.229421 -179.792216 
L 93.50876 -185.435191 
L 96.788099 -193.418337 
L 100.067438 -204.008713 
L 103.346777 -217.105759 
L 106.626116 -232.067962 
L 109.905455 -247.698948 
L 113.184793 -262.48777 
L 116.464132 -275.024454 
L 119.743471 -284.3515 
L 123.02281 -290.044239 
L 126.302149 -292.032 
L 129.581488 -290.367943 
L 132.860826 -285.15089 
L 136.140165 -276.639621 
L 139.419504 -265.444909 
L 142.698843 -252.630018 
L 145.978182 -239.590473 
L 149.257521 -227.703628 
L 152.53686 -217.904527 
L 155.816198 -210.439605 
L 159.095537 -204.953544 
L 162.374876 -200.827858 
L 165.654215 -197.525707 
L 168.933554 -194.748077 
L 172.212893 -192.388211 
L 175.492231 -190.40035 
L 178.77157 -188.700779 
L 182.050909 -187.151348 
L 185.330248 -185.609382 
L 188.609587 -183.99003 
L 191.888926 -182.288947 
L 195.168264 -180.555094 
L 198.447603 -178.850266 
L 201.726942 -177.236179 
L 205.006281 -175.789916 
L 208.28562 -174.612279 
L 211.564959 -173.800803 
L 214.844298 -173.397909 
L 218.123636 -173.353004 
L 221.402975 -173.530131 
L 224.682314 -173.760045 
L 227.961653 -173.905006 
L 231.240992 -173.898489 
L 234.520331 -173.743281 
L 237.799669 -173.482088 
L 241.079008 -173.168431 
L 244.358347 -172.852617 
L 247.637686 -172.576091 
L 250.917025 -172.362407 
L 254.196364 -172.206977 
L 257.475702 -172.07911 
L 260.755041 -171.94178 
L 264.03438 -171.776205 
L 267.313719 -171.592018 
L 270.593058 -171.417041 
L 273.872397 -171.278238 
L 277.151736 -171.189769 
L 280.431074 -171.154022 
L 283.710413 -171.169655 
L 286.989752 -171.236774 
L 290.269091 -171.353598 
L 293.54843 -171.506877 
L 296.827769 -171.664918 
L 300.107107 -171.782708 
L 303.386446 -171.820402 
L 306.665785 -171.764258 
L 309.945124 -171.634447 
L 313.224463 -171.473397 
L 316.503802 -171.32362 
L 319.78314 -171.210546 
L 323.062479 -171.139007 
L 326.341818 -171.100466 
L 329.621157 -171.082622 
L 332.900496 -171.075483 
L 336.179835 -171.073008 
L 339.459174 -171.072286 
L 342.738512 -171.072209 
L 346.017851 -171.072644 
L 349.29719 -171.074301 
L 352.576529 -171.079336 
L 355.855868 -171.092558 
L 359.135207 -171.122607 
L 362.414545 -171.181424 
L 365.693884 -171.279824 
L 368.973223 -171.418703 
L 372.252562 -171.580039 
L 375.531901 -171.725906 
L 378.81124 -171.811285 
L 382.090579 -171.806152 
L 385.369917 -171.712382 
L 388.649256 -171.562648 
L 391.928595 -171.402201 
L 395.207934 -171.267194 
L 398.487273 -171.173352 
L 398.487273 -170.970648 
L 398.487273 -170.970648 
L 395.207934 -170.876806 
L 391.928595 -170.741799 
L 388.649256 -170.581352 
L 385.369917 -170.431618 
L 382.090579 -170.337848 
L 378.81124 -170.332715 
L 375.531901 -170.418094 
L 372.252562 -170.563961 
L 368.973223 -170.725297 
L 365.693884 -170.864176 
L 362.414545 -170.962576 
L 359.135207 -171.021393 
L 355.855868 -171.051442 
L 352.576529 -171.064664 
L 349.29719 -171.069699 
L 346.017851 -171.071356 
L 342.738512 -171.071791 
L 339.459174 -171.071714 
L 336.179835 -171.070992 
L 332.900496 -171.068517 
L 329.621157 -171.061378 
L 326.341818 -171.043534 
L 323.062479 -171.004993 
L 319.78314 -170.933454 
L 316.503802 -170.82038 
L 313.224463 -170.670603 
L 309.945124 -170.509553 
L 306.665785 -170.379742 
L 303.386446 -170.323598 
L 300.107107 -170.361292 
L 296.827769 -170.479082 
L 293.54843 -170.637123 
L 290.269091 -170.790402 
L 286.989752 -170.907226 
L 283.710413 -170.974345 
L 280.431074 -170.989978 
L 277.151736 -170.954231 
L 273.872397 -170.865762 
L 270.593058 -170.726959 
L 267.313719 -170.551982 
L 264.03438 -170.367795 
L 260.755041 -170.20222 
L 257.475702 -170.06489 
L 254.196364 -169.937023 
L 250.917025 -169.781593 
L 247.637686 -169.567909 
L 244.358347 -169.291383 
L 241.079008 -168.975569 
L 237.799669 -168.661912 
L 234.520331 -168.400719 
L 231.240992 -168.245511 
L 227.961653 -168.238994 
L 224.682314 -168.383955 
L 221.402975 -168.613869 
L 218.123636 -168.790996 
L 214.844298 -168.746091 
L 211.564959 -168.343197 
L 208.28562 -167.531721 
L 205.006281 -166.354084 
L 201.726942 -164.907821 
L 198.447603 -163.293734 
L 195.168264 -161.588906 
L 191.888926 -159.855053 
L 188.609587 -158.15397 
L 185.330248 -156.534618 
L 182.050909 -154.992652 
L 178.77157 -153.443221 
L 175.492231 -151.74365 
L 172.212893 -149.755789 
L 168.933554 -147.395923 
L 165.654215 -144.618293 
L 162.374876 -141.316142 
L 159.095537 -137.190456 
L 155.816198 -131.704395 
L 152.53686 -124.239473 
L 149.257521 -114.440372 
L 145.978182 -102.553527 
L 142.698843 -89.513982 
L 139.419504 -76.699091 
L 136.140165 -65.504379 
L 132.860826 -56.99311 
L 129.581488 -51.776057 
L 126.302149 -50.112 
L 123.02281 -52.099761 
L 119.743471 -57.7925 
L 116.464132 -67.119546 
L 113.184793 -79.65623 
L 109.905455 -94.445052 
L 106.626116 -110.076038 
L 103.346777 -125.038241 
L 100.067438 -138.135287 
L 96.788099 -148.725663 
L 93.50876 -156.708809 
L 90.229421 -162.351784 
L 86.950083 -166.096068 
L 83.670744 -168.41998 
L 80.391405 -169.760527 
L 77.112066 -170.47405 
L 73.832727 -170.822105 
z
" id="mf7d2bcceef" style="stroke:#262626;stroke-opacity:0.5;stroke-width:1.5;"/>
    </defs>
    <g clip-path="url(#p8b76e73788)">
     <use style="fill:#107010;fill-opacity:0.5;stroke:#262626;stroke-opacity:0.5;stroke-width:1.5;" x="0" xlink:href="#mf7d2bcceef" y="345.6"/>
    </g>
   </g>
   <g id="matplotlib.axis_1">
    <g id="xtick_1">
     <g id="line2d_1">
      <defs>
       <path d="M 0 0 
L 0 3.5 
" id="mb545fde7d3" style="stroke:#000000;stroke-width:0.8;"/>
      </defs>
      <g>
       <use style="stroke:#000000;stroke-width:0.8;" x="92.045251" xlink:href="#mb545fde7d3" y="307.584"/>
      </g>
     </g>
     <g id="text_1">
      <!-- 0 -->
      <defs>
       <path d="M 31.78125 66.40625 
Q 24.171875 66.40625 20.328125 58.90625 
Q 16.5 51.421875 16.5 36.375 
Q 16.5 21.390625 20.328125 13.890625 
Q 24.171875 6.390625 31.78125 6.390625 
Q 39.453125 6.390625 43.28125 13.890625 
Q 47.125 21.390625 47.125 36.375 
Q 47.125 51.421875 43.28125 58.90625 
Q 39.453125 66.40625 31.78125 66.40625 
z
M 31.78125 74.21875 
Q 44.046875 74.21875 50.515625 64.515625 
Q 56.984375 54.828125 56.984375 36.375 
Q 56.984375 17.96875 50.515625 8.265625 
Q 44.046875 -1.421875 31.78125 -1.421875 
Q 19.53125 -1.421875 13.0625 8.265625 
Q 6.59375 17.96875 6.59375 36.375 
Q 6.59375 54.828125 13.0625 64.515625 
Q 19.53125 74.21875 31.78125 74.21875 
z
" id="DejaVuSans-48"/>
      </defs>
      <g transform="translate(88.864001 322.182437)scale(0.1 -0.1)">
       <use xlink:href="#DejaVuSans-48"/>
      </g>
     </g>
    </g>
    <g id="xtick_2">
     <g id="line2d_2">
      <g>
       <use style="stroke:#000000;stroke-width:0.8;" x="136.940811" xlink:href="#mb545fde7d3" y="307.584"/>
      </g>
     </g>
     <g id="text_2">
      <!-- 5 -->
      <defs>
       <path d="M 10.796875 72.90625 
L 49.515625 72.90625 
L 49.515625 64.59375 
L 19.828125 64.59375 
L 19.828125 46.734375 
Q 21.96875 47.46875 24.109375 47.828125 
Q 26.265625 48.1875 28.421875 48.1875 
Q 40.625 48.1875 47.75 41.5 
Q 54.890625 34.8125 54.890625 23.390625 
Q 54.890625 11.625 47.5625 5.09375 
Q 40.234375 -1.421875 26.90625 -1.421875 
Q 22.3125 -1.421875 17.546875 -0.640625 
Q 12.796875 0.140625 7.71875 1.703125 
L 7.71875 11.625 
Q 12.109375 9.234375 16.796875 8.0625 
Q 21.484375 6.890625 26.703125 6.890625 
Q 35.15625 6.890625 40.078125 11.328125 
Q 45.015625 15.765625 45.015625 23.390625 
Q 45.015625 31 40.078125 35.4375 
Q 35.15625 39.890625 26.703125 39.890625 
Q 22.75 39.890625 18.8125 39.015625 
Q 14.890625 38.140625 10.796875 36.28125 
z
" id="DejaVuSans-53"/>
      </defs>
      <g transform="translate(133.759561 322.182437)scale(0.1 -0.1)">
       <use xlink:href="#DejaVuSans-53"/>
      </g>
     </g>
    </g>
    <g id="xtick_3">
     <g id="line2d_3">
      <g>
       <use style="stroke:#000000;stroke-width:0.8;" x="181.836372" xlink:href="#mb545fde7d3" y="307.584"/>
      </g>
     </g>
     <g id="text_3">
      <!-- 10 -->
      <defs>
       <path d="M 12.40625 8.296875 
L 28.515625 8.296875 
L 28.515625 63.921875 
L 10.984375 60.40625 
L 10.984375 69.390625 
L 28.421875 72.90625 
L 38.28125 72.90625 
L 38.28125 8.296875 
L 54.390625 8.296875 
L 54.390625 0 
L 12.40625 0 
z
" id="DejaVuSans-49"/>
      </defs>
      <g transform="translate(175.473872 322.182437)scale(0.1 -0.1)">
       <use xlink:href="#DejaVuSans-49"/>
       <use x="63.623047" xlink:href="#DejaVuSans-48"/>
      </g>
     </g>
    </g>
    <g id="xtick_4">
     <g id="line2d_4">
      <g>
       <use style="stroke:#000000;stroke-width:0.8;" x="226.731932" xlink:href="#mb545fde7d3" y="307.584"/>
      </g>
     </g>
     <g id="text_4">
      <!-- 15 -->
      <g transform="translate(220.369432 322.182437)scale(0.1 -0.1)">
       <use xlink:href="#DejaVuSans-49"/>
       <use x="63.623047" xlink:href="#DejaVuSans-53"/>
      </g>
     </g>
    </g>
    <g id="xtick_5">
     <g id="line2d_5">
      <g>
       <use style="stroke:#000000;stroke-width:0.8;" x="271.627493" xlink:href="#mb545fde7d3" y="307.584"/>
      </g>
     </g>
     <g id="text_5">
      <!-- 20 -->
      <defs>
       <path d="M 19.1875 8.296875 
L 53.609375 8.296875 
L 53.609375 0 
L 7.328125 0 
L 7.328125 8.296875 
Q 12.9375 14.109375 22.625 23.890625 
Q 32.328125 33.6875 34.8125 36.53125 
Q 39.546875 41.84375 41.421875 45.53125 
Q 43.3125 49.21875 43.3125 52.78125 
Q 43.3125 58.59375 39.234375 62.25 
Q 35.15625 65.921875 28.609375 65.921875 
Q 23.96875 65.921875 18.8125 64.3125 
Q 13.671875 62.703125 7.8125 59.421875 
L 7.8125 69.390625 
Q 13.765625 71.78125 18.9375 73 
Q 24.125 74.21875 28.421875 74.21875 
Q 39.75 74.21875 46.484375 68.546875 
Q 53.21875 62.890625 53.21875 53.421875 
Q 53.21875 48.921875 51.53125 44.890625 
Q 49.859375 40.875 45.40625 35.40625 
Q 44.1875 33.984375 37.640625 27.21875 
Q 31.109375 20.453125 19.1875 8.296875 
z
" id="DejaVuSans-50"/>
      </defs>
      <g transform="translate(265.264993 322.182437)scale(0.1 -0.1)">
       <use xlink:href="#DejaVuSans-50"/>
       <use x="63.623047" xlink:href="#DejaVuSans-48"/>
      </g>
     </g>
    </g>
    <g id="xtick_6">
     <g id="line2d_6">
      <g>
       <use style="stroke:#000000;stroke-width:0.8;" x="316.523053" xlink:href="#mb545fde7d3" y="307.584"/>
      </g>
     </g>
     <g id="text_6">
      <!-- 25 -->
      <g transform="translate(310.160553 322.182437)scale(0.1 -0.1)">
       <use xlink:href="#DejaVuSans-50"/>
       <use x="63.623047" xlink:href="#DejaVuSans-53"/>
      </g>
     </g>
    </g>
    <g id="xtick_7">
     <g id="line2d_7">
      <g>
       <use style="stroke:#000000;stroke-width:0.8;" x="361.418614" xlink:href="#mb545fde7d3" y="307.584"/>
      </g>
     </g>
     <g id="text_7">
      <!-- 30 -->
      <defs>
       <path d="M 40.578125 39.3125 
Q 47.65625 37.796875 51.625 33 
Q 55.609375 28.21875 55.609375 21.1875 
Q 55.609375 10.40625 48.1875 4.484375 
Q 40.765625 -1.421875 27.09375 -1.421875 
Q 22.515625 -1.421875 17.65625 -0.515625 
Q 12.796875 0.390625 7.625 2.203125 
L 7.625 11.71875 
Q 11.71875 9.328125 16.59375 8.109375 
Q 21.484375 6.890625 26.8125 6.890625 
Q 36.078125 6.890625 40.9375 10.546875 
Q 45.796875 14.203125 45.796875 21.1875 
Q 45.796875 27.640625 41.28125 31.265625 
Q 36.765625 34.90625 28.71875 34.90625 
L 20.21875 34.90625 
L 20.21875 43.015625 
L 29.109375 43.015625 
Q 36.375 43.015625 40.234375 45.921875 
Q 44.09375 48.828125 44.09375 54.296875 
Q 44.09375 59.90625 40.109375 62.90625 
Q 36.140625 65.921875 28.71875 65.921875 
Q 24.65625 65.921875 20.015625 65.03125 
Q 15.375 64.15625 9.8125 62.3125 
L 9.8125 71.09375 
Q 15.4375 72.65625 20.34375 73.4375 
Q 25.25 74.21875 29.59375 74.21875 
Q 40.828125 74.21875 47.359375 69.109375 
Q 53.90625 64.015625 53.90625 55.328125 
Q 53.90625 49.265625 50.4375 45.09375 
Q 46.96875 40.921875 40.578125 39.3125 
z
" id="DejaVuSans-51"/>
      </defs>
      <g transform="translate(355.056114 322.182437)scale(0.1 -0.1)">
       <use xlink:href="#DejaVuSans-51"/>
       <use x="63.623047" xlink:href="#DejaVuSans-48"/>
      </g>
     </g>
    </g>
    <g id="xtick_8">
     <g id="line2d_8">
      <g>
       <use style="stroke:#000000;stroke-width:0.8;" x="406.314174" xlink:href="#mb545fde7d3" y="307.584"/>
      </g>
     </g>
     <g id="text_8">
      <!-- 35 -->
      <g transform="translate(399.951674 322.182437)scale(0.1 -0.1)">
       <use xlink:href="#DejaVuSans-51"/>
       <use x="63.623047" xlink:href="#DejaVuSans-53"/>
      </g>
     </g>
    </g>
    <g id="text_9">
     <!-- neutadmac -->
     <defs>
      <path d="M 54.890625 33.015625 
L 54.890625 0 
L 45.90625 0 
L 45.90625 32.71875 
Q 45.90625 40.484375 42.875 44.328125 
Q 39.84375 48.1875 33.796875 48.1875 
Q 26.515625 48.1875 22.3125 43.546875 
Q 18.109375 38.921875 18.109375 30.90625 
L 18.109375 0 
L 9.078125 0 
L 9.078125 54.6875 
L 18.109375 54.6875 
L 18.109375 46.1875 
Q 21.34375 51.125 25.703125 53.5625 
Q 30.078125 56 35.796875 56 
Q 45.21875 56 50.046875 50.171875 
Q 54.890625 44.34375 54.890625 33.015625 
z
" id="DejaVuSans-110"/>
      <path d="M 56.203125 29.59375 
L 56.203125 25.203125 
L 14.890625 25.203125 
Q 15.484375 15.921875 20.484375 11.0625 
Q 25.484375 6.203125 34.421875 6.203125 
Q 39.59375 6.203125 44.453125 7.46875 
Q 49.3125 8.734375 54.109375 11.28125 
L 54.109375 2.78125 
Q 49.265625 0.734375 44.1875 -0.34375 
Q 39.109375 -1.421875 33.890625 -1.421875 
Q 20.796875 -1.421875 13.15625 6.1875 
Q 5.515625 13.8125 5.515625 26.8125 
Q 5.515625 40.234375 12.765625 48.109375 
Q 20.015625 56 32.328125 56 
Q 43.359375 56 49.78125 48.890625 
Q 56.203125 41.796875 56.203125 29.59375 
z
M 47.21875 32.234375 
Q 47.125 39.59375 43.09375 43.984375 
Q 39.0625 48.390625 32.421875 48.390625 
Q 24.90625 48.390625 20.390625 44.140625 
Q 15.875 39.890625 15.1875 32.171875 
z
" id="DejaVuSans-101"/>
      <path d="M 8.5 21.578125 
L 8.5 54.6875 
L 17.484375 54.6875 
L 17.484375 21.921875 
Q 17.484375 14.15625 20.5 10.265625 
Q 23.53125 6.390625 29.59375 6.390625 
Q 36.859375 6.390625 41.078125 11.03125 
Q 45.3125 15.671875 45.3125 23.6875 
L 45.3125 54.6875 
L 54.296875 54.6875 
L 54.296875 0 
L 45.3125 0 
L 45.3125 8.40625 
Q 42.046875 3.421875 37.71875 1 
Q 33.40625 -1.421875 27.6875 -1.421875 
Q 18.265625 -1.421875 13.375 4.4375 
Q 8.5 10.296875 8.5 21.578125 
z
M 31.109375 56 
z
" id="DejaVuSans-117"/>
      <path d="M 18.3125 70.21875 
L 18.3125 54.6875 
L 36.8125 54.6875 
L 36.8125 47.703125 
L 18.3125 47.703125 
L 18.3125 18.015625 
Q 18.3125 11.328125 20.140625 9.421875 
Q 21.96875 7.515625 27.59375 7.515625 
L 36.8125 7.515625 
L 36.8125 0 
L 27.59375 0 
Q 17.1875 0 13.234375 3.875 
Q 9.28125 7.765625 9.28125 18.015625 
L 9.28125 47.703125 
L 2.6875 47.703125 
L 2.6875 54.6875 
L 9.28125 54.6875 
L 9.28125 70.21875 
z
" id="DejaVuSans-116"/>
      <path d="M 34.28125 27.484375 
Q 23.390625 27.484375 19.1875 25 
Q 14.984375 22.515625 14.984375 16.5 
Q 14.984375 11.71875 18.140625 8.90625 
Q 21.296875 6.109375 26.703125 6.109375 
Q 34.1875 6.109375 38.703125 11.40625 
Q 43.21875 16.703125 43.21875 25.484375 
L 43.21875 27.484375 
z
M 52.203125 31.203125 
L 52.203125 0 
L 43.21875 0 
L 43.21875 8.296875 
Q 40.140625 3.328125 35.546875 0.953125 
Q 30.953125 -1.421875 24.3125 -1.421875 
Q 15.921875 -1.421875 10.953125 3.296875 
Q 6 8.015625 6 15.921875 
Q 6 25.140625 12.171875 29.828125 
Q 18.359375 34.515625 30.609375 34.515625 
L 43.21875 34.515625 
L 43.21875 35.40625 
Q 43.21875 41.609375 39.140625 45 
Q 35.0625 48.390625 27.6875 48.390625 
Q 23 48.390625 18.546875 47.265625 
Q 14.109375 46.140625 10.015625 43.890625 
L 10.015625 52.203125 
Q 14.9375 54.109375 19.578125 55.046875 
Q 24.21875 56 28.609375 56 
Q 40.484375 56 46.34375 49.84375 
Q 52.203125 43.703125 52.203125 31.203125 
z
" id="DejaVuSans-97"/>
      <path d="M 45.40625 46.390625 
L 45.40625 75.984375 
L 54.390625 75.984375 
L 54.390625 0 
L 45.40625 0 
L 45.40625 8.203125 
Q 42.578125 3.328125 38.25 0.953125 
Q 33.9375 -1.421875 27.875 -1.421875 
Q 17.96875 -1.421875 11.734375 6.484375 
Q 5.515625 14.40625 5.515625 27.296875 
Q 5.515625 40.1875 11.734375 48.09375 
Q 17.96875 56 27.875 56 
Q 33.9375 56 38.25 53.625 
Q 42.578125 51.265625 45.40625 46.390625 
z
M 14.796875 27.296875 
Q 14.796875 17.390625 18.875 11.75 
Q 22.953125 6.109375 30.078125 6.109375 
Q 37.203125 6.109375 41.296875 11.75 
Q 45.40625 17.390625 45.40625 27.296875 
Q 45.40625 37.203125 41.296875 42.84375 
Q 37.203125 48.484375 30.078125 48.484375 
Q 22.953125 48.484375 18.875 42.84375 
Q 14.796875 37.203125 14.796875 27.296875 
z
" id="DejaVuSans-100"/>
      <path d="M 52 44.1875 
Q 55.375 50.25 60.0625 53.125 
Q 64.75 56 71.09375 56 
Q 79.640625 56 84.28125 50.015625 
Q 88.921875 44.046875 88.921875 33.015625 
L 88.921875 0 
L 79.890625 0 
L 79.890625 32.71875 
Q 79.890625 40.578125 77.09375 44.375 
Q 74.3125 48.1875 68.609375 48.1875 
Q 61.625 48.1875 57.5625 43.546875 
Q 53.515625 38.921875 53.515625 30.90625 
L 53.515625 0 
L 44.484375 0 
L 44.484375 32.71875 
Q 44.484375 40.625 41.703125 44.40625 
Q 38.921875 48.1875 33.109375 48.1875 
Q 26.21875 48.1875 22.15625 43.53125 
Q 18.109375 38.875 18.109375 30.90625 
L 18.109375 0 
L 9.078125 0 
L 9.078125 54.6875 
L 18.109375 54.6875 
L 18.109375 46.1875 
Q 21.1875 51.21875 25.484375 53.609375 
Q 29.78125 56 35.6875 56 
Q 41.65625 56 45.828125 52.96875 
Q 50 49.953125 52 44.1875 
z
" id="DejaVuSans-109"/>
      <path d="M 48.78125 52.59375 
L 48.78125 44.1875 
Q 44.96875 46.296875 41.140625 47.34375 
Q 37.3125 48.390625 33.40625 48.390625 
Q 24.65625 48.390625 19.8125 42.84375 
Q 14.984375 37.3125 14.984375 27.296875 
Q 14.984375 17.28125 19.8125 11.734375 
Q 24.65625 6.203125 33.40625 6.203125 
Q 37.3125 6.203125 41.140625 7.25 
Q 44.96875 8.296875 48.78125 10.40625 
L 48.78125 2.09375 
Q 45.015625 0.34375 40.984375 -0.53125 
Q 36.96875 -1.421875 32.421875 -1.421875 
Q 20.0625 -1.421875 12.78125 6.34375 
Q 5.515625 14.109375 5.515625 27.296875 
Q 5.515625 40.671875 12.859375 48.328125 
Q 20.21875 56 33.015625 56 
Q 37.15625 56 41.109375 55.140625 
Q 45.0625 54.296875 48.78125 52.59375 
z
" id="DejaVuSans-99"/>
     </defs>
     <g transform="translate(207.863906 335.860562)scale(0.1 -0.1)">
      <use xlink:href="#DejaVuSans-110"/>
      <use x="63.378906" xlink:href="#DejaVuSans-101"/>
      <use x="124.902344" xlink:href="#DejaVuSans-117"/>
      <use x="188.28125" xlink:href="#DejaVuSans-116"/>
      <use x="227.490234" xlink:href="#DejaVuSans-97"/>
      <use x="288.769531" xlink:href="#DejaVuSans-100"/>
      <use x="352.246094" xlink:href="#DejaVuSans-109"/>
      <use x="449.658203" xlink:href="#DejaVuSans-97"/>
      <use x="510.9375" xlink:href="#DejaVuSans-99"/>
     </g>
    </g>
   </g>
   <g id="matplotlib.axis_2">
    <g id="ytick_1">
     <g id="line2d_9">
      <defs>
       <path d="M 0 0 
L -3.5 0 
" id="m3bb6087fb1" style="stroke:#000000;stroke-width:0.8;"/>
      </defs>
      <g>
       <use style="stroke:#000000;stroke-width:0.8;" x="57.6" xlink:href="#m3bb6087fb1" y="174.528"/>
      </g>
     </g>
    </g>
   </g>
   <g id="line2d_10">
    <path clip-path="url(#p8b76e73788)" d="M 101.024363 174.528 
L 206.977886 174.528 
" style="fill:none;stroke:#ffa500;stroke-linecap:square;stroke-width:1.5;"/>
   </g>
   <g id="line2d_11">
    <path clip-path="url(#p8b76e73788)" d="M 127.737221 174.528 
L 160.286503 174.528 
" style="fill:none;stroke:#4c4c4c;stroke-linecap:square;stroke-width:4.5;"/>
   </g>
   <g id="line2d_12">
    <path clip-path="url(#p8b76e73788)" d="M 92.045251 174.528 
L 181.836372 174.528 
" style="fill:none;stroke:#008000;stroke-linecap:square;stroke-width:1.5;"/>
   </g>
   <g id="line2d_13">
    <path clip-path="url(#p8b76e73788)" d="M 118.533631 174.528 
L 144.124101 174.528 
" style="fill:none;stroke:#262626;stroke-linecap:square;stroke-width:4.5;"/>
   </g>
   <g id="patch_3">
    <path d="M 57.6 307.584 
L 57.6 41.472 
" style="fill:none;stroke:#000000;stroke-linecap:square;stroke-linejoin:miter;stroke-width:0.8;"/>
   </g>
   <g id="patch_4">
    <path d="M 414.72 307.584 
L 414.72 41.472 
" style="fill:none;stroke:#000000;stroke-linecap:square;stroke-linejoin:miter;stroke-width:0.8;"/>
   </g>
   <g id="patch_5">
    <path d="M 57.6 307.584 
L 414.72 307.584 
" style="fill:none;stroke:#000000;stroke-linecap:square;stroke-linejoin:miter;stroke-width:0.8;"/>
   </g>
   <g id="patch_6">
    <path d="M 57.6 41.472 
L 414.72 41.472 
" style="fill:none;stroke:#000000;stroke-linecap:square;stroke-linejoin:miter;stroke-width:0.8;"/>
   </g>
   <g id="PathCollection_1">
    <defs>
     <path d="M 0 1.5 
C 0.397805 1.5 0.77937 1.341951 1.06066 1.06066 
C 1.341951 0.77937 1.5 0.397805 1.5 0 
C 1.5 -0.397805 1.341951 -0.77937 1.06066 -1.06066 
C 0.77937 -1.341951 0.397805 -1.5 0 -1.5 
C -0.397805 -1.5 -0.77937 -1.341951 -1.06066 -1.06066 
C -1.341951 -0.77937 -1.5 -0.397805 -1.5 0 
C -1.5 0.397805 -1.341951 0.77937 -1.06066 1.06066 
C -0.77937 1.341951 -0.397805 1.5 0 1.5 
z
" id="m14c2753a4c" style="stroke:#4c4c4c;stroke-opacity:0.5;"/>
    </defs>
    <g clip-path="url(#p8b76e73788)">
     <use style="fill:#ffffff;fill-opacity:0.5;stroke:#4c4c4c;stroke-opacity:0.5;" x="140.981412" xlink:href="#m14c2753a4c" y="174.528"/>
    </g>
   </g>
   <g id="PathCollection_2">
    <defs>
     <path d="M 0 1.5 
C 0.397805 1.5 0.77937 1.341951 1.06066 1.06066 
C 1.341951 0.77937 1.5 0.397805 1.5 0 
C 1.5 -0.397805 1.341951 -0.77937 1.06066 -1.06066 
C 0.77937 -1.341951 0.397805 -1.5 0 -1.5 
C -0.397805 -1.5 -0.77937 -1.341951 -1.06066 -1.06066 
C -1.341951 -0.77937 -1.5 -0.397805 -1.5 0 
C -1.5 0.397805 -1.341951 0.77937 -1.06066 1.06066 
C -0.77937 1.341951 -0.397805 1.5 0 1.5 
z
" id="m55f95c16c4" style="stroke:#262626;stroke-opacity:0.5;"/>
    </defs>
    <g clip-path="url(#p8b76e73788)">
     <use style="fill:#ffffff;fill-opacity:0.5;stroke:#262626;stroke-opacity:0.5;" x="129.757522" xlink:href="#m55f95c16c4" y="174.528"/>
    </g>
   </g>
   <g id="text_10">
    <!-- Association of neutadmac vs. ards -->
    <defs>
     <path d="M 34.1875 63.1875 
L 20.796875 26.90625 
L 47.609375 26.90625 
z
M 28.609375 72.90625 
L 39.796875 72.90625 
L 67.578125 0 
L 57.328125 0 
L 50.6875 18.703125 
L 17.828125 18.703125 
L 11.1875 0 
L 0.78125 0 
z
" id="DejaVuSans-65"/>
     <path d="M 44.28125 53.078125 
L 44.28125 44.578125 
Q 40.484375 46.53125 36.375 47.5 
Q 32.28125 48.484375 27.875 48.484375 
Q 21.1875 48.484375 17.84375 46.4375 
Q 14.5 44.390625 14.5 40.28125 
Q 14.5 37.15625 16.890625 35.375 
Q 19.28125 33.59375 26.515625 31.984375 
L 29.59375 31.296875 
Q 39.15625 29.25 43.1875 25.515625 
Q 47.21875 21.78125 47.21875 15.09375 
Q 47.21875 7.46875 41.1875 3.015625 
Q 35.15625 -1.421875 24.609375 -1.421875 
Q 20.21875 -1.421875 15.453125 -0.5625 
Q 10.6875 0.296875 5.421875 2 
L 5.421875 11.28125 
Q 10.40625 8.6875 15.234375 7.390625 
Q 20.0625 6.109375 24.8125 6.109375 
Q 31.15625 6.109375 34.5625 8.28125 
Q 37.984375 10.453125 37.984375 14.40625 
Q 37.984375 18.0625 35.515625 20.015625 
Q 33.0625 21.96875 24.703125 23.78125 
L 21.578125 24.515625 
Q 13.234375 26.265625 9.515625 29.90625 
Q 5.8125 33.546875 5.8125 39.890625 
Q 5.8125 47.609375 11.28125 51.796875 
Q 16.75 56 26.8125 56 
Q 31.78125 56 36.171875 55.265625 
Q 40.578125 54.546875 44.28125 53.078125 
z
" id="DejaVuSans-115"/>
     <path d="M 30.609375 48.390625 
Q 23.390625 48.390625 19.1875 42.75 
Q 14.984375 37.109375 14.984375 27.296875 
Q 14.984375 17.484375 19.15625 11.84375 
Q 23.34375 6.203125 30.609375 6.203125 
Q 37.796875 6.203125 41.984375 11.859375 
Q 46.1875 17.53125 46.1875 27.296875 
Q 46.1875 37.015625 41.984375 42.703125 
Q 37.796875 48.390625 30.609375 48.390625 
z
M 30.609375 56 
Q 42.328125 56 49.015625 48.375 
Q 55.71875 40.765625 55.71875 27.296875 
Q 55.71875 13.875 49.015625 6.21875 
Q 42.328125 -1.421875 30.609375 -1.421875 
Q 18.84375 -1.421875 12.171875 6.21875 
Q 5.515625 13.875 5.515625 27.296875 
Q 5.515625 40.765625 12.171875 48.375 
Q 18.84375 56 30.609375 56 
z
" id="DejaVuSans-111"/>
     <path d="M 9.421875 54.6875 
L 18.40625 54.6875 
L 18.40625 0 
L 9.421875 0 
z
M 9.421875 75.984375 
L 18.40625 75.984375 
L 18.40625 64.59375 
L 9.421875 64.59375 
z
" id="DejaVuSans-105"/>
     <path id="DejaVuSans-32"/>
     <path d="M 37.109375 75.984375 
L 37.109375 68.5 
L 28.515625 68.5 
Q 23.6875 68.5 21.796875 66.546875 
Q 19.921875 64.59375 19.921875 59.515625 
L 19.921875 54.6875 
L 34.71875 54.6875 
L 34.71875 47.703125 
L 19.921875 47.703125 
L 19.921875 0 
L 10.890625 0 
L 10.890625 47.703125 
L 2.296875 47.703125 
L 2.296875 54.6875 
L 10.890625 54.6875 
L 10.890625 58.5 
Q 10.890625 67.625 15.140625 71.796875 
Q 19.390625 75.984375 28.609375 75.984375 
z
" id="DejaVuSans-102"/>
     <path d="M 2.984375 54.6875 
L 12.5 54.6875 
L 29.59375 8.796875 
L 46.6875 54.6875 
L 56.203125 54.6875 
L 35.6875 0 
L 23.484375 0 
z
" id="DejaVuSans-118"/>
     <path d="M 10.6875 12.40625 
L 21 12.40625 
L 21 0 
L 10.6875 0 
z
" id="DejaVuSans-46"/>
     <path d="M 41.109375 46.296875 
Q 39.59375 47.171875 37.8125 47.578125 
Q 36.03125 48 33.890625 48 
Q 26.265625 48 22.1875 43.046875 
Q 18.109375 38.09375 18.109375 28.8125 
L 18.109375 0 
L 9.078125 0 
L 9.078125 54.6875 
L 18.109375 54.6875 
L 18.109375 46.1875 
Q 20.953125 51.171875 25.484375 53.578125 
Q 30.03125 56 36.53125 56 
Q 37.453125 56 38.578125 55.875 
Q 39.703125 55.765625 41.0625 55.515625 
z
" id="DejaVuSans-114"/>
    </defs>
    <g transform="translate(133.074375 35.472)scale(0.12 -0.12)">
     <use xlink:href="#DejaVuSans-65"/>
     <use x="68.408203" xlink:href="#DejaVuSans-115"/>
     <use x="120.507812" xlink:href="#DejaVuSans-115"/>
     <use x="172.607422" xlink:href="#DejaVuSans-111"/>
     <use x="233.789062" xlink:href="#DejaVuSans-99"/>
     <use x="288.769531" xlink:href="#DejaVuSans-105"/>
     <use x="316.552734" xlink:href="#DejaVuSans-97"/>
     <use x="377.832031" xlink:href="#DejaVuSans-116"/>
     <use x="417.041016" xlink:href="#DejaVuSans-105"/>
     <use x="444.824219" xlink:href="#DejaVuSans-111"/>
     <use x="506.005859" xlink:href="#DejaVuSans-110"/>
     <use x="569.384766" xlink:href="#DejaVuSans-32"/>
     <use x="601.171875" xlink:href="#DejaVuSans-111"/>
     <use x="662.353516" xlink:href="#DejaVuSans-102"/>
     <use x="697.558594" xlink:href="#DejaVuSans-32"/>
     <use x="729.345703" xlink:href="#DejaVuSans-110"/>
     <use x="792.724609" xlink:href="#DejaVuSans-101"/>
     <use x="854.248047" xlink:href="#DejaVuSans-117"/>
     <use x="917.626953" xlink:href="#DejaVuSans-116"/>
     <use x="956.835938" xlink:href="#DejaVuSans-97"/>
     <use x="1018.115234" xlink:href="#DejaVuSans-100"/>
     <use x="1081.591797" xlink:href="#DejaVuSans-109"/>
     <use x="1179.003906" xlink:href="#DejaVuSans-97"/>
     <use x="1240.283203" xlink:href="#DejaVuSans-99"/>
     <use x="1295.263672" xlink:href="#DejaVuSans-32"/>
     <use x="1327.050781" xlink:href="#DejaVuSans-118"/>
     <use x="1386.230469" xlink:href="#DejaVuSans-115"/>
     <use x="1438.330078" xlink:href="#DejaVuSans-46"/>
     <use x="1470.117188" xlink:href="#DejaVuSans-32"/>
     <use x="1501.904297" xlink:href="#DejaVuSans-97"/>
     <use x="1563.183594" xlink:href="#DejaVuSans-114"/>
     <use x="1602.546875" xlink:href="#DejaVuSans-100"/>
     <use x="1666.023438" xlink:href="#DejaVuSans-115"/>
    </g>
   </g>
   <g id="legend_1">
    <g id="patch_7">
     <path d="M 303.330938 78.82825 
L 407.72 78.82825 
Q 409.72 78.82825 409.72 76.82825 
L 409.72 48.472 
Q 409.72 46.472 407.72 46.472 
L 303.330938 46.472 
Q 301.330938 46.472 301.330938 48.472 
L 301.330938 76.82825 
Q 301.330938 78.82825 303.330938 78.82825 
z
" style="fill:#ffffff;opacity:0.8;stroke:#cccccc;stroke-linejoin:miter;"/>
    </g>
    <g id="line2d_14">
     <path d="M 305.330938 54.570437 
L 325.330938 54.570437 
" style="fill:none;stroke:#ffa500;stroke-linecap:square;stroke-width:1.5;"/>
    </g>
    <g id="line2d_15"/>
    <g id="text_11">
     <!-- ards (128) -->
     <defs>
      <path d="M 31 75.875 
Q 24.46875 64.65625 21.28125 53.65625 
Q 18.109375 42.671875 18.109375 31.390625 
Q 18.109375 20.125 21.3125 9.0625 
Q 24.515625 -2 31 -13.1875 
L 23.1875 -13.1875 
Q 15.875 -1.703125 12.234375 9.375 
Q 8.59375 20.453125 8.59375 31.390625 
Q 8.59375 42.28125 12.203125 53.3125 
Q 15.828125 64.359375 23.1875 75.875 
z
" id="DejaVuSans-40"/>
      <path d="M 31.78125 34.625 
Q 24.75 34.625 20.71875 30.859375 
Q 16.703125 27.09375 16.703125 20.515625 
Q 16.703125 13.921875 20.71875 10.15625 
Q 24.75 6.390625 31.78125 6.390625 
Q 38.8125 6.390625 42.859375 10.171875 
Q 46.921875 13.96875 46.921875 20.515625 
Q 46.921875 27.09375 42.890625 30.859375 
Q 38.875 34.625 31.78125 34.625 
z
M 21.921875 38.8125 
Q 15.578125 40.375 12.03125 44.71875 
Q 8.5 49.078125 8.5 55.328125 
Q 8.5 64.0625 14.71875 69.140625 
Q 20.953125 74.21875 31.78125 74.21875 
Q 42.671875 74.21875 48.875 69.140625 
Q 55.078125 64.0625 55.078125 55.328125 
Q 55.078125 49.078125 51.53125 44.71875 
Q 48 40.375 41.703125 38.8125 
Q 48.828125 37.15625 52.796875 32.3125 
Q 56.78125 27.484375 56.78125 20.515625 
Q 56.78125 9.90625 50.3125 4.234375 
Q 43.84375 -1.421875 31.78125 -1.421875 
Q 19.734375 -1.421875 13.25 4.234375 
Q 6.78125 9.90625 6.78125 20.515625 
Q 6.78125 27.484375 10.78125 32.3125 
Q 14.796875 37.15625 21.921875 38.8125 
z
M 18.3125 54.390625 
Q 18.3125 48.734375 21.84375 45.5625 
Q 25.390625 42.390625 31.78125 42.390625 
Q 38.140625 42.390625 41.71875 45.5625 
Q 45.3125 48.734375 45.3125 54.390625 
Q 45.3125 60.0625 41.71875 63.234375 
Q 38.140625 66.40625 31.78125 66.40625 
Q 25.390625 66.40625 21.84375 63.234375 
Q 18.3125 60.0625 18.3125 54.390625 
z
" id="DejaVuSans-56"/>
      <path d="M 8.015625 75.875 
L 15.828125 75.875 
Q 23.140625 64.359375 26.78125 53.3125 
Q 30.421875 42.28125 30.421875 31.390625 
Q 30.421875 20.453125 26.78125 9.375 
Q 23.140625 -1.703125 15.828125 -13.1875 
L 8.015625 -13.1875 
Q 14.5 -2 17.703125 9.0625 
Q 20.90625 20.125 20.90625 31.390625 
Q 20.90625 42.671875 17.703125 53.65625 
Q 14.5 64.65625 8.015625 75.875 
z
" id="DejaVuSans-41"/>
     </defs>
     <g transform="translate(333.330938 58.070437)scale(0.1 -0.1)">
      <use xlink:href="#DejaVuSans-97"/>
      <use x="61.279297" xlink:href="#DejaVuSans-114"/>
      <use x="100.642578" xlink:href="#DejaVuSans-100"/>
      <use x="164.119141" xlink:href="#DejaVuSans-115"/>
      <use x="216.21875" xlink:href="#DejaVuSans-32"/>
      <use x="248.005859" xlink:href="#DejaVuSans-40"/>
      <use x="287.019531" xlink:href="#DejaVuSans-49"/>
      <use x="350.642578" xlink:href="#DejaVuSans-50"/>
      <use x="414.265625" xlink:href="#DejaVuSans-56"/>
      <use x="477.888672" xlink:href="#DejaVuSans-41"/>
     </g>
    </g>
    <g id="line2d_16">
     <path d="M 305.330938 69.248562 
L 325.330938 69.248562 
" style="fill:none;stroke:#008000;stroke-linecap:square;stroke-width:1.5;"/>
    </g>
    <g id="line2d_17"/>
    <g id="text_12">
     <!-- Not ards (355) -->
     <defs>
      <path d="M 9.8125 72.90625 
L 23.09375 72.90625 
L 55.421875 11.921875 
L 55.421875 72.90625 
L 64.984375 72.90625 
L 64.984375 0 
L 51.703125 0 
L 19.390625 60.984375 
L 19.390625 0 
L 9.8125 0 
z
" id="DejaVuSans-78"/>
     </defs>
     <g transform="translate(333.330938 72.748562)scale(0.1 -0.1)">
      <use xlink:href="#DejaVuSans-78"/>
      <use x="74.804688" xlink:href="#DejaVuSans-111"/>
      <use x="135.986328" xlink:href="#DejaVuSans-116"/>
      <use x="175.195312" xlink:href="#DejaVuSans-32"/>
      <use x="206.982422" xlink:href="#DejaVuSans-97"/>
      <use x="268.261719" xlink:href="#DejaVuSans-114"/>
      <use x="307.625" xlink:href="#DejaVuSans-100"/>
      <use x="371.101562" xlink:href="#DejaVuSans-115"/>
      <use x="423.201172" xlink:href="#DejaVuSans-32"/>
      <use x="454.988281" xlink:href="#DejaVuSans-40"/>
      <use x="494.001953" xlink:href="#DejaVuSans-51"/>
      <use x="557.625" xlink:href="#DejaVuSans-53"/>
      <use x="621.248047" xlink:href="#DejaVuSans-53"/>
      <use x="684.871094" xlink:href="#DejaVuSans-41"/>
     </g>
    </g>
   </g>
  </g>
 </g>
 <defs>
  <clipPath id="p8b76e73788">
   <rect height="266.112" width="357.12" x="57.6" y="41.472"/>
  </clipPath>
 </defs>
</svg>
