<?xml version="1.0" encoding="utf-8" standalone="no"?>
<!DOCTYPE svg PUBLIC "-//W3C//DTD SVG 1.1//EN"
  "http://www.w3.org/Graphics/SVG/1.1/DTD/svg11.dtd">
<!-- Created with matplotlib (https://matplotlib.org/) -->
<svg height="345.6pt" version="1.1" viewBox="0 0 460.8 345.6" width="460.8pt" xmlns="http://www.w3.org/2000/svg" xmlns:xlink="http://www.w3.org/1999/xlink">
 <defs>
  <style type="text/css">
*{stroke-linecap:butt;stroke-linejoin:round;}
  </style>
 </defs>
 <g id="figure_1">
  <g id="patch_1">
   <path d="M 0 345.6 
L 460.8 345.6 
L 460.8 0 
L 0 0 
z
" style="fill:#ffffff;"/>
  </g>
  <g id="axes_1">
   <g id="patch_2">
    <path d="M 57.6 307.584 
L 414.72 307.584 
L 414.72 41.472 
L 57.6 41.472 
z
" style="fill:#ffffff;"/>
   </g>
   <g id="PolyCollection_1">
    <defs>
     <path d="M 73.832727 -166.121293 
L 73.832727 -176.022707 
L 77.112066 -180.126429 
L 80.391405 -186.60784 
L 83.670744 -196.085177 
L 86.950083 -208.868903 
L 90.229421 -224.689353 
L 93.50876 -242.496181 
L 96.788099 -260.450227 
L 100.067438 -276.184972 
L 103.346777 -287.312742 
L 106.626116 -292.032 
L 109.905455 -289.621013 
L 113.184793 -280.628492 
L 116.464132 -266.689939 
L 119.743471 -250.051002 
L 123.02281 -232.987231 
L 126.302149 -217.323102 
L 129.581488 -204.17839 
L 132.860826 -193.958673 
L 136.140165 -186.518303 
L 139.419504 -181.390972 
L 142.698843 -178.000713 
L 145.978182 -175.807846 
L 149.257521 -174.383231 
L 152.53686 -173.426529 
L 155.816198 -172.750594 
L 159.095537 -172.251204 
L 162.374876 -171.87548 
L 165.654215 -171.596551 
L 168.933554 -171.39729 
L 172.212893 -171.262504 
L 175.492231 -171.176964 
L 178.77157 -171.126276 
L 182.050909 -171.098297 
L 185.330248 -171.083926 
L 188.609587 -171.077059 
L 191.888926 -171.074007 
L 195.168264 -171.072744 
L 198.447603 -171.072258 
L 201.726942 -171.072083 
L 205.006281 -171.072025 
L 208.28562 -171.072007 
L 211.564959 -171.072002 
L 214.844298 -171.072 
L 218.123636 -171.072 
L 221.402975 -171.072 
L 224.682314 -171.072 
L 227.961653 -171.072 
L 231.240992 -171.072 
L 234.520331 -171.072 
L 237.799669 -171.072 
L 241.079008 -171.072 
L 244.358347 -171.072 
L 247.637686 -171.072 
L 250.917025 -171.072 
L 254.196364 -171.072 
L 257.475702 -171.072 
L 260.755041 -171.072 
L 264.03438 -171.072 
L 267.313719 -171.072 
L 270.593058 -171.072 
L 273.872397 -171.072 
L 277.151736 -171.072 
L 280.431074 -171.072 
L 283.710413 -171.072 
L 286.989752 -171.072 
L 290.269091 -171.072 
L 293.54843 -171.072 
L 296.827769 -171.072 
L 300.107107 -171.072 
L 303.386446 -171.072 
L 306.665785 -171.072001 
L 309.945124 -171.072005 
L 313.224463 -171.072017 
L 316.503802 -171.072059 
L 319.78314 -171.072185 
L 323.062479 -171.072544 
L 326.341818 -171.073496 
L 329.621157 -171.075841 
L 332.900496 -171.081216 
L 336.179835 -171.092652 
L 339.459174 -171.115233 
L 342.738512 -171.156538 
L 346.017851 -171.226416 
L 349.29719 -171.33547 
L 352.576529 -171.491925 
L 355.855868 -171.697189 
L 359.135207 -171.941463 
L 362.414545 -172.201512 
L 365.693884 -172.442662 
L 368.973223 -172.62571 
L 372.252562 -172.717165 
L 375.531901 -172.69923 
L 378.81124 -172.575448 
L 382.090579 -172.36956 
L 385.369917 -172.118085 
L 388.649256 -171.859782 
L 391.928595 -171.626173 
L 395.207934 -171.436153 
L 398.487273 -171.295523 
L 398.487273 -170.848477 
L 398.487273 -170.848477 
L 395.207934 -170.707847 
L 391.928595 -170.517827 
L 388.649256 -170.284218 
L 385.369917 -170.025915 
L 382.090579 -169.77444 
L 378.81124 -169.568552 
L 375.531901 -169.44477 
L 372.252562 -169.426835 
L 368.973223 -169.51829 
L 365.693884 -169.701338 
L 362.414545 -169.942488 
L 359.135207 -170.202537 
L 355.855868 -170.446811 
L 352.576529 -170.652075 
L 349.29719 -170.80853 
L 346.017851 -170.917584 
L 342.738512 -170.987462 
L 339.459174 -171.028767 
L 336.179835 -171.051348 
L 332.900496 -171.062784 
L 329.621157 -171.068159 
L 326.341818 -171.070504 
L 323.062479 -171.071456 
L 319.78314 -171.071815 
L 316.503802 -171.071941 
L 313.224463 -171.071983 
L 309.945124 -171.071995 
L 306.665785 -171.071999 
L 303.386446 -171.072 
L 300.107107 -171.072 
L 296.827769 -171.072 
L 293.54843 -171.072 
L 290.269091 -171.072 
L 286.989752 -171.072 
L 283.710413 -171.072 
L 280.431074 -171.072 
L 277.151736 -171.072 
L 273.872397 -171.072 
L 270.593058 -171.072 
L 267.313719 -171.072 
L 264.03438 -171.072 
L 260.755041 -171.072 
L 257.475702 -171.072 
L 254.196364 -171.072 
L 250.917025 -171.072 
L 247.637686 -171.072 
L 244.358347 -171.072 
L 241.079008 -171.072 
L 237.799669 -171.072 
L 234.520331 -171.072 
L 231.240992 -171.072 
L 227.961653 -171.072 
L 224.682314 -171.072 
L 221.402975 -171.072 
L 218.123636 -171.072 
L 214.844298 -171.072 
L 211.564959 -171.071998 
L 208.28562 -171.071993 
L 205.006281 -171.071975 
L 201.726942 -171.071917 
L 198.447603 -171.071742 
L 195.168264 -171.071256 
L 191.888926 -171.069993 
L 188.609587 -171.066941 
L 185.330248 -171.060074 
L 182.050909 -171.045703 
L 178.77157 -171.017724 
L 175.492231 -170.967036 
L 172.212893 -170.881496 
L 168.933554 -170.74671 
L 165.654215 -170.547449 
L 162.374876 -170.26852 
L 159.095537 -169.892796 
L 155.816198 -169.393406 
L 152.53686 -168.717471 
L 149.257521 -167.760769 
L 145.978182 -166.336154 
L 142.698843 -164.143287 
L 139.419504 -160.753028 
L 136.140165 -155.625697 
L 132.860826 -148.185327 
L 129.581488 -137.96561 
L 126.302149 -124.820898 
L 123.02281 -109.156769 
L 119.743471 -92.092998 
L 116.464132 -75.454061 
L 113.184793 -61.515508 
L 109.905455 -52.522987 
L 106.626116 -50.112 
L 103.346777 -54.831258 
L 100.067438 -65.959028 
L 96.788099 -81.693773 
L 93.50876 -99.647819 
L 90.229421 -117.454647 
L 86.950083 -133.275097 
L 83.670744 -146.058823 
L 80.391405 -155.53616 
L 77.112066 -162.017571 
L 73.832727 -166.121293 
z
" id="mbf771553e9" style="stroke:#4c4c4c;stroke-opacity:0.5;stroke-width:1.5;"/>
    </defs>
    <g clip-path="url(#pb2707991ca)">
     <use style="fill:#df9c20;fill-opacity:0.5;stroke:#4c4c4c;stroke-opacity:0.5;stroke-width:1.5;" x="0" xlink:href="#mbf771553e9" y="345.6"/>
    </g>
   </g>
   <g id="PolyCollection_2">
    <defs>
     <path d="M 89.099519 -167.385192 
L 89.099519 -174.758808 
L 91.042341 -180.782741 
L 92.985163 -192.793074 
L 94.927985 -212.474898 
L 96.870807 -238.59675 
L 98.813629 -265.746892 
L 100.756451 -285.813685 
L 102.699273 -292.032 
L 104.642095 -282.784651 
L 106.584917 -262.204429 
L 108.527739 -237.372032 
L 110.47056 -214.57384 
L 112.413382 -197.15048 
L 114.356204 -185.566341 
L 116.299026 -178.684543 
L 118.241848 -174.989536 
L 120.18467 -173.201361 
L 122.127492 -172.408969 
L 124.070314 -172.035426 
L 126.013136 -171.786923 
L 127.955958 -171.582243 
L 129.89878 -171.451303 
L 131.841602 -171.437659 
L 133.784423 -171.540123 
L 135.727245 -171.698846 
L 137.670067 -171.819863 
L 139.612889 -171.827104 
L 141.555711 -171.708953 
L 143.498533 -171.519512 
L 145.441355 -171.333693 
L 147.384177 -171.199351 
L 149.326999 -171.123572 
L 151.269821 -171.089379 
L 153.212643 -171.076873 
L 155.155464 -171.073137 
L 157.098286 -171.072221 
L 159.041108 -171.072036 
L 160.98393 -171.072005 
L 162.926752 -171.072001 
L 164.869574 -171.072 
L 166.812396 -171.072 
L 168.755218 -171.072 
L 170.69804 -171.072 
L 172.640862 -171.072 
L 174.583684 -171.072 
L 176.526505 -171.072 
L 178.469327 -171.072 
L 180.412149 -171.072 
L 182.354971 -171.072 
L 184.297793 -171.072 
L 186.240615 -171.072 
L 188.183437 -171.072 
L 190.126259 -171.072 
L 192.069081 -171.072 
L 194.011903 -171.072 
L 195.954725 -171.072 
L 197.897546 -171.072 
L 199.840368 -171.072 
L 201.78319 -171.072 
L 203.726012 -171.072 
L 205.668834 -171.072 
L 207.611656 -171.072 
L 209.554478 -171.072 
L 211.4973 -171.072 
L 213.440122 -171.072 
L 215.382944 -171.072 
L 217.325766 -171.072 
L 219.268587 -171.072 
L 221.211409 -171.072 
L 223.154231 -171.072 
L 225.097053 -171.072 
L 227.039875 -171.072 
L 228.982697 -171.072 
L 230.925519 -171.072 
L 232.868341 -171.072 
L 234.811163 -171.072 
L 236.753985 -171.072 
L 238.696807 -171.072 
L 240.639628 -171.072 
L 242.58245 -171.072 
L 244.525272 -171.072 
L 246.468094 -171.072 
L 248.410916 -171.072001 
L 250.353738 -171.072006 
L 252.29656 -171.072042 
L 254.239382 -171.072256 
L 256.182204 -171.073297 
L 258.125026 -171.077471 
L 260.067848 -171.091206 
L 262.010669 -171.128106 
L 263.953491 -171.208392 
L 265.896313 -171.347911 
L 267.839135 -171.536458 
L 269.781957 -171.722615 
L 271.724779 -171.830404 
L 273.667601 -171.807659 
L 275.610423 -171.665815 
L 277.553245 -171.470864 
L 279.496067 -171.294945 
L 281.438889 -171.175698 
L 281.438889 -170.968302 
L 281.438889 -170.968302 
L 279.496067 -170.849055 
L 277.553245 -170.673136 
L 275.610423 -170.478185 
L 273.667601 -170.336341 
L 271.724779 -170.313596 
L 269.781957 -170.421385 
L 267.839135 -170.607542 
L 265.896313 -170.796089 
L 263.953491 -170.935608 
L 262.010669 -171.015894 
L 260.067848 -171.052794 
L 258.125026 -171.066529 
L 256.182204 -171.070703 
L 254.239382 -171.071744 
L 252.29656 -171.071958 
L 250.353738 -171.071994 
L 248.410916 -171.071999 
L 246.468094 -171.072 
L 244.525272 -171.072 
L 242.58245 -171.072 
L 240.639628 -171.072 
L 238.696807 -171.072 
L 236.753985 -171.072 
L 234.811163 -171.072 
L 232.868341 -171.072 
L 230.925519 -171.072 
L 228.982697 -171.072 
L 227.039875 -171.072 
L 225.097053 -171.072 
L 223.154231 -171.072 
L 221.211409 -171.072 
L 219.268587 -171.072 
L 217.325766 -171.072 
L 215.382944 -171.072 
L 213.440122 -171.072 
L 211.4973 -171.072 
L 209.554478 -171.072 
L 207.611656 -171.072 
L 205.668834 -171.072 
L 203.726012 -171.072 
L 201.78319 -171.072 
L 199.840368 -171.072 
L 197.897546 -171.072 
L 195.954725 -171.072 
L 194.011903 -171.072 
L 192.069081 -171.072 
L 190.126259 -171.072 
L 188.183437 -171.072 
L 186.240615 -171.072 
L 184.297793 -171.072 
L 182.354971 -171.072 
L 180.412149 -171.072 
L 178.469327 -171.072 
L 176.526505 -171.072 
L 174.583684 -171.072 
L 172.640862 -171.072 
L 170.69804 -171.072 
L 168.755218 -171.072 
L 166.812396 -171.072 
L 164.869574 -171.072 
L 162.926752 -171.071999 
L 160.98393 -171.071995 
L 159.041108 -171.071964 
L 157.098286 -171.071779 
L 155.155464 -171.070863 
L 153.212643 -171.067127 
L 151.269821 -171.054621 
L 149.326999 -171.020428 
L 147.384177 -170.944649 
L 145.441355 -170.810307 
L 143.498533 -170.624488 
L 141.555711 -170.435047 
L 139.612889 -170.316896 
L 137.670067 -170.324137 
L 135.727245 -170.445154 
L 133.784423 -170.603877 
L 131.841602 -170.706341 
L 129.89878 -170.692697 
L 127.955958 -170.561757 
L 126.013136 -170.357077 
L 124.070314 -170.108574 
L 122.127492 -169.735031 
L 120.18467 -168.942639 
L 118.241848 -167.154464 
L 116.299026 -163.459457 
L 114.356204 -156.577659 
L 112.413382 -144.99352 
L 110.47056 -127.57016 
L 108.527739 -104.771968 
L 106.584917 -79.939571 
L 104.642095 -59.359349 
L 102.699273 -50.112 
L 100.756451 -56.330315 
L 98.813629 -76.397108 
L 96.870807 -103.54725 
L 94.927985 -129.669102 
L 92.985163 -149.350926 
L 91.042341 -161.361259 
L 89.099519 -167.385192 
z
" id="mf1c5ef6897" style="stroke:#262626;stroke-opacity:0.5;stroke-width:1.5;"/>
    </defs>
    <g clip-path="url(#pb2707991ca)">
     <use style="fill:#107010;fill-opacity:0.5;stroke:#262626;stroke-opacity:0.5;stroke-width:1.5;" x="0" xlink:href="#mf1c5ef6897" y="345.6"/>
    </g>
   </g>
   <g id="matplotlib.axis_1">
    <g id="xtick_1">
     <g id="line2d_1">
      <defs>
       <path d="M 0 0 
L 0 3.5 
" id="m6c5a26c33d" style="stroke:#000000;stroke-width:0.8;"/>
      </defs>
      <g>
       <use style="stroke:#000000;stroke-width:0.8;" x="95.808361" xlink:href="#m6c5a26c33d" y="307.584"/>
      </g>
     </g>
     <g id="text_1">
      <!-- 0 -->
      <defs>
       <path d="M 31.78125 66.40625 
Q 24.171875 66.40625 20.328125 58.90625 
Q 16.5 51.421875 16.5 36.375 
Q 16.5 21.390625 20.328125 13.890625 
Q 24.171875 6.390625 31.78125 6.390625 
Q 39.453125 6.390625 43.28125 13.890625 
Q 47.125 21.390625 47.125 36.375 
Q 47.125 51.421875 43.28125 58.90625 
Q 39.453125 66.40625 31.78125 66.40625 
z
M 31.78125 74.21875 
Q 44.046875 74.21875 50.515625 64.515625 
Q 56.984375 54.828125 56.984375 36.375 
Q 56.984375 17.96875 50.515625 8.265625 
Q 44.046875 -1.421875 31.78125 -1.421875 
Q 19.53125 -1.421875 13.0625 8.265625 
Q 6.59375 17.96875 6.59375 36.375 
Q 6.59375 54.828125 13.0625 64.515625 
Q 19.53125 74.21875 31.78125 74.21875 
z
" id="DejaVuSans-48"/>
      </defs>
      <g transform="translate(92.627111 322.182437)scale(0.1 -0.1)">
       <use xlink:href="#DejaVuSans-48"/>
      </g>
     </g>
    </g>
    <g id="xtick_2">
     <g id="line2d_2">
      <g>
       <use style="stroke:#000000;stroke-width:0.8;" x="138.797714" xlink:href="#m6c5a26c33d" y="307.584"/>
      </g>
     </g>
     <g id="text_2">
      <!-- 2500 -->
      <defs>
       <path d="M 19.1875 8.296875 
L 53.609375 8.296875 
L 53.609375 0 
L 7.328125 0 
L 7.328125 8.296875 
Q 12.9375 14.109375 22.625 23.890625 
Q 32.328125 33.6875 34.8125 36.53125 
Q 39.546875 41.84375 41.421875 45.53125 
Q 43.3125 49.21875 43.3125 52.78125 
Q 43.3125 58.59375 39.234375 62.25 
Q 35.15625 65.921875 28.609375 65.921875 
Q 23.96875 65.921875 18.8125 64.3125 
Q 13.671875 62.703125 7.8125 59.421875 
L 7.8125 69.390625 
Q 13.765625 71.78125 18.9375 73 
Q 24.125 74.21875 28.421875 74.21875 
Q 39.75 74.21875 46.484375 68.546875 
Q 53.21875 62.890625 53.21875 53.421875 
Q 53.21875 48.921875 51.53125 44.890625 
Q 49.859375 40.875 45.40625 35.40625 
Q 44.1875 33.984375 37.640625 27.21875 
Q 31.109375 20.453125 19.1875 8.296875 
z
" id="DejaVuSans-50"/>
       <path d="M 10.796875 72.90625 
L 49.515625 72.90625 
L 49.515625 64.59375 
L 19.828125 64.59375 
L 19.828125 46.734375 
Q 21.96875 47.46875 24.109375 47.828125 
Q 26.265625 48.1875 28.421875 48.1875 
Q 40.625 48.1875 47.75 41.5 
Q 54.890625 34.8125 54.890625 23.390625 
Q 54.890625 11.625 47.5625 5.09375 
Q 40.234375 -1.421875 26.90625 -1.421875 
Q 22.3125 -1.421875 17.546875 -0.640625 
Q 12.796875 0.140625 7.71875 1.703125 
L 7.71875 11.625 
Q 12.109375 9.234375 16.796875 8.0625 
Q 21.484375 6.890625 26.703125 6.890625 
Q 35.15625 6.890625 40.078125 11.328125 
Q 45.015625 15.765625 45.015625 23.390625 
Q 45.015625 31 40.078125 35.4375 
Q 35.15625 39.890625 26.703125 39.890625 
Q 22.75 39.890625 18.8125 39.015625 
Q 14.890625 38.140625 10.796875 36.28125 
z
" id="DejaVuSans-53"/>
      </defs>
      <g transform="translate(126.072714 322.182437)scale(0.1 -0.1)">
       <use xlink:href="#DejaVuSans-50"/>
       <use x="63.623047" xlink:href="#DejaVuSans-53"/>
       <use x="127.246094" xlink:href="#DejaVuSans-48"/>
       <use x="190.869141" xlink:href="#DejaVuSans-48"/>
      </g>
     </g>
    </g>
    <g id="xtick_3">
     <g id="line2d_3">
      <g>
       <use style="stroke:#000000;stroke-width:0.8;" x="181.787066" xlink:href="#m6c5a26c33d" y="307.584"/>
      </g>
     </g>
     <g id="text_3">
      <!-- 5000 -->
      <g transform="translate(169.062066 322.182437)scale(0.1 -0.1)">
       <use xlink:href="#DejaVuSans-53"/>
       <use x="63.623047" xlink:href="#DejaVuSans-48"/>
       <use x="127.246094" xlink:href="#DejaVuSans-48"/>
       <use x="190.869141" xlink:href="#DejaVuSans-48"/>
      </g>
     </g>
    </g>
    <g id="xtick_4">
     <g id="line2d_4">
      <g>
       <use style="stroke:#000000;stroke-width:0.8;" x="224.776419" xlink:href="#m6c5a26c33d" y="307.584"/>
      </g>
     </g>
     <g id="text_4">
      <!-- 7500 -->
      <defs>
       <path d="M 8.203125 72.90625 
L 55.078125 72.90625 
L 55.078125 68.703125 
L 28.609375 0 
L 18.3125 0 
L 43.21875 64.59375 
L 8.203125 64.59375 
z
" id="DejaVuSans-55"/>
      </defs>
      <g transform="translate(212.051419 322.182437)scale(0.1 -0.1)">
       <use xlink:href="#DejaVuSans-55"/>
       <use x="63.623047" xlink:href="#DejaVuSans-53"/>
       <use x="127.246094" xlink:href="#DejaVuSans-48"/>
       <use x="190.869141" xlink:href="#DejaVuSans-48"/>
      </g>
     </g>
    </g>
    <g id="xtick_5">
     <g id="line2d_5">
      <g>
       <use style="stroke:#000000;stroke-width:0.8;" x="267.765772" xlink:href="#m6c5a26c33d" y="307.584"/>
      </g>
     </g>
     <g id="text_5">
      <!-- 10000 -->
      <defs>
       <path d="M 12.40625 8.296875 
L 28.515625 8.296875 
L 28.515625 63.921875 
L 10.984375 60.40625 
L 10.984375 69.390625 
L 28.421875 72.90625 
L 38.28125 72.90625 
L 38.28125 8.296875 
L 54.390625 8.296875 
L 54.390625 0 
L 12.40625 0 
z
" id="DejaVuSans-49"/>
      </defs>
      <g transform="translate(251.859522 322.182437)scale(0.1 -0.1)">
       <use xlink:href="#DejaVuSans-49"/>
       <use x="63.623047" xlink:href="#DejaVuSans-48"/>
       <use x="127.246094" xlink:href="#DejaVuSans-48"/>
       <use x="190.869141" xlink:href="#DejaVuSans-48"/>
       <use x="254.492188" xlink:href="#DejaVuSans-48"/>
      </g>
     </g>
    </g>
    <g id="xtick_6">
     <g id="line2d_6">
      <g>
       <use style="stroke:#000000;stroke-width:0.8;" x="310.755125" xlink:href="#m6c5a26c33d" y="307.584"/>
      </g>
     </g>
     <g id="text_6">
      <!-- 12500 -->
      <g transform="translate(294.848875 322.182437)scale(0.1 -0.1)">
       <use xlink:href="#DejaVuSans-49"/>
       <use x="63.623047" xlink:href="#DejaVuSans-50"/>
       <use x="127.246094" xlink:href="#DejaVuSans-53"/>
       <use x="190.869141" xlink:href="#DejaVuSans-48"/>
       <use x="254.492188" xlink:href="#DejaVuSans-48"/>
      </g>
     </g>
    </g>
    <g id="xtick_7">
     <g id="line2d_7">
      <g>
       <use style="stroke:#000000;stroke-width:0.8;" x="353.744478" xlink:href="#m6c5a26c33d" y="307.584"/>
      </g>
     </g>
     <g id="text_7">
      <!-- 15000 -->
      <g transform="translate(337.838228 322.182437)scale(0.1 -0.1)">
       <use xlink:href="#DejaVuSans-49"/>
       <use x="63.623047" xlink:href="#DejaVuSans-53"/>
       <use x="127.246094" xlink:href="#DejaVuSans-48"/>
       <use x="190.869141" xlink:href="#DejaVuSans-48"/>
       <use x="254.492188" xlink:href="#DejaVuSans-48"/>
      </g>
     </g>
    </g>
    <g id="xtick_8">
     <g id="line2d_8">
      <g>
       <use style="stroke:#000000;stroke-width:0.8;" x="396.733831" xlink:href="#m6c5a26c33d" y="307.584"/>
      </g>
     </g>
     <g id="text_8">
      <!-- 17500 -->
      <g transform="translate(380.827581 322.182437)scale(0.1 -0.1)">
       <use xlink:href="#DejaVuSans-49"/>
       <use x="63.623047" xlink:href="#DejaVuSans-55"/>
       <use x="127.246094" xlink:href="#DejaVuSans-53"/>
       <use x="190.869141" xlink:href="#DejaVuSans-48"/>
       <use x="254.492188" xlink:href="#DejaVuSans-48"/>
      </g>
     </g>
    </g>
    <g id="text_9">
     <!-- ldhpeakac -->
     <defs>
      <path d="M 9.421875 75.984375 
L 18.40625 75.984375 
L 18.40625 0 
L 9.421875 0 
z
" id="DejaVuSans-108"/>
      <path d="M 45.40625 46.390625 
L 45.40625 75.984375 
L 54.390625 75.984375 
L 54.390625 0 
L 45.40625 0 
L 45.40625 8.203125 
Q 42.578125 3.328125 38.25 0.953125 
Q 33.9375 -1.421875 27.875 -1.421875 
Q 17.96875 -1.421875 11.734375 6.484375 
Q 5.515625 14.40625 5.515625 27.296875 
Q 5.515625 40.1875 11.734375 48.09375 
Q 17.96875 56 27.875 56 
Q 33.9375 56 38.25 53.625 
Q 42.578125 51.265625 45.40625 46.390625 
z
M 14.796875 27.296875 
Q 14.796875 17.390625 18.875 11.75 
Q 22.953125 6.109375 30.078125 6.109375 
Q 37.203125 6.109375 41.296875 11.75 
Q 45.40625 17.390625 45.40625 27.296875 
Q 45.40625 37.203125 41.296875 42.84375 
Q 37.203125 48.484375 30.078125 48.484375 
Q 22.953125 48.484375 18.875 42.84375 
Q 14.796875 37.203125 14.796875 27.296875 
z
" id="DejaVuSans-100"/>
      <path d="M 54.890625 33.015625 
L 54.890625 0 
L 45.90625 0 
L 45.90625 32.71875 
Q 45.90625 40.484375 42.875 44.328125 
Q 39.84375 48.1875 33.796875 48.1875 
Q 26.515625 48.1875 22.3125 43.546875 
Q 18.109375 38.921875 18.109375 30.90625 
L 18.109375 0 
L 9.078125 0 
L 9.078125 75.984375 
L 18.109375 75.984375 
L 18.109375 46.1875 
Q 21.34375 51.125 25.703125 53.5625 
Q 30.078125 56 35.796875 56 
Q 45.21875 56 50.046875 50.171875 
Q 54.890625 44.34375 54.890625 33.015625 
z
" id="DejaVuSans-104"/>
      <path d="M 18.109375 8.203125 
L 18.109375 -20.796875 
L 9.078125 -20.796875 
L 9.078125 54.6875 
L 18.109375 54.6875 
L 18.109375 46.390625 
Q 20.953125 51.265625 25.265625 53.625 
Q 29.59375 56 35.59375 56 
Q 45.5625 56 51.78125 48.09375 
Q 58.015625 40.1875 58.015625 27.296875 
Q 58.015625 14.40625 51.78125 6.484375 
Q 45.5625 -1.421875 35.59375 -1.421875 
Q 29.59375 -1.421875 25.265625 0.953125 
Q 20.953125 3.328125 18.109375 8.203125 
z
M 48.6875 27.296875 
Q 48.6875 37.203125 44.609375 42.84375 
Q 40.53125 48.484375 33.40625 48.484375 
Q 26.265625 48.484375 22.1875 42.84375 
Q 18.109375 37.203125 18.109375 27.296875 
Q 18.109375 17.390625 22.1875 11.75 
Q 26.265625 6.109375 33.40625 6.109375 
Q 40.53125 6.109375 44.609375 11.75 
Q 48.6875 17.390625 48.6875 27.296875 
z
" id="DejaVuSans-112"/>
      <path d="M 56.203125 29.59375 
L 56.203125 25.203125 
L 14.890625 25.203125 
Q 15.484375 15.921875 20.484375 11.0625 
Q 25.484375 6.203125 34.421875 6.203125 
Q 39.59375 6.203125 44.453125 7.46875 
Q 49.3125 8.734375 54.109375 11.28125 
L 54.109375 2.78125 
Q 49.265625 0.734375 44.1875 -0.34375 
Q 39.109375 -1.421875 33.890625 -1.421875 
Q 20.796875 -1.421875 13.15625 6.1875 
Q 5.515625 13.8125 5.515625 26.8125 
Q 5.515625 40.234375 12.765625 48.109375 
Q 20.015625 56 32.328125 56 
Q 43.359375 56 49.78125 48.890625 
Q 56.203125 41.796875 56.203125 29.59375 
z
M 47.21875 32.234375 
Q 47.125 39.59375 43.09375 43.984375 
Q 39.0625 48.390625 32.421875 48.390625 
Q 24.90625 48.390625 20.390625 44.140625 
Q 15.875 39.890625 15.1875 32.171875 
z
" id="DejaVuSans-101"/>
      <path d="M 34.28125 27.484375 
Q 23.390625 27.484375 19.1875 25 
Q 14.984375 22.515625 14.984375 16.5 
Q 14.984375 11.71875 18.140625 8.90625 
Q 21.296875 6.109375 26.703125 6.109375 
Q 34.1875 6.109375 38.703125 11.40625 
Q 43.21875 16.703125 43.21875 25.484375 
L 43.21875 27.484375 
z
M 52.203125 31.203125 
L 52.203125 0 
L 43.21875 0 
L 43.21875 8.296875 
Q 40.140625 3.328125 35.546875 0.953125 
Q 30.953125 -1.421875 24.3125 -1.421875 
Q 15.921875 -1.421875 10.953125 3.296875 
Q 6 8.015625 6 15.921875 
Q 6 25.140625 12.171875 29.828125 
Q 18.359375 34.515625 30.609375 34.515625 
L 43.21875 34.515625 
L 43.21875 35.40625 
Q 43.21875 41.609375 39.140625 45 
Q 35.0625 48.390625 27.6875 48.390625 
Q 23 48.390625 18.546875 47.265625 
Q 14.109375 46.140625 10.015625 43.890625 
L 10.015625 52.203125 
Q 14.9375 54.109375 19.578125 55.046875 
Q 24.21875 56 28.609375 56 
Q 40.484375 56 46.34375 49.84375 
Q 52.203125 43.703125 52.203125 31.203125 
z
" id="DejaVuSans-97"/>
      <path d="M 9.078125 75.984375 
L 18.109375 75.984375 
L 18.109375 31.109375 
L 44.921875 54.6875 
L 56.390625 54.6875 
L 27.390625 29.109375 
L 57.625 0 
L 45.90625 0 
L 18.109375 26.703125 
L 18.109375 0 
L 9.078125 0 
z
" id="DejaVuSans-107"/>
      <path d="M 48.78125 52.59375 
L 48.78125 44.1875 
Q 44.96875 46.296875 41.140625 47.34375 
Q 37.3125 48.390625 33.40625 48.390625 
Q 24.65625 48.390625 19.8125 42.84375 
Q 14.984375 37.3125 14.984375 27.296875 
Q 14.984375 17.28125 19.8125 11.734375 
Q 24.65625 6.203125 33.40625 6.203125 
Q 37.3125 6.203125 41.140625 7.25 
Q 44.96875 8.296875 48.78125 10.40625 
L 48.78125 2.09375 
Q 45.015625 0.34375 40.984375 -0.53125 
Q 36.96875 -1.421875 32.421875 -1.421875 
Q 20.0625 -1.421875 12.78125 6.34375 
Q 5.515625 14.109375 5.515625 27.296875 
Q 5.515625 40.671875 12.859375 48.328125 
Q 20.21875 56 33.015625 56 
Q 37.15625 56 41.109375 55.140625 
Q 45.0625 54.296875 48.78125 52.59375 
z
" id="DejaVuSans-99"/>
     </defs>
     <g transform="translate(210.492031 335.860562)scale(0.1 -0.1)">
      <use xlink:href="#DejaVuSans-108"/>
      <use x="27.783203" xlink:href="#DejaVuSans-100"/>
      <use x="91.259766" xlink:href="#DejaVuSans-104"/>
      <use x="154.638672" xlink:href="#DejaVuSans-112"/>
      <use x="218.115234" xlink:href="#DejaVuSans-101"/>
      <use x="279.638672" xlink:href="#DejaVuSans-97"/>
      <use x="340.917969" xlink:href="#DejaVuSans-107"/>
      <use x="397.078125" xlink:href="#DejaVuSans-97"/>
      <use x="458.357422" xlink:href="#DejaVuSans-99"/>
     </g>
    </g>
   </g>
   <g id="matplotlib.axis_2">
    <g id="ytick_1">
     <g id="line2d_9">
      <defs>
       <path d="M 0 0 
L -3.5 0 
" id="m35ffb70f04" style="stroke:#000000;stroke-width:0.8;"/>
      </defs>
      <g>
       <use style="stroke:#000000;stroke-width:0.8;" x="57.6" xlink:href="#m35ffb70f04" y="174.528"/>
      </g>
     </g>
    </g>
   </g>
   <g id="line2d_10">
    <path clip-path="url(#pb2707991ca)" d="M 98.955181 174.528 
L 117.25145 174.528 
" style="fill:none;stroke:#ffa500;stroke-linecap:square;stroke-width:1.5;"/>
   </g>
   <g id="line2d_11">
    <path clip-path="url(#pb2707991ca)" d="M 104.406231 174.528 
L 110.321566 174.528 
" style="fill:none;stroke:#4c4c4c;stroke-linecap:square;stroke-width:4.5;"/>
   </g>
   <g id="line2d_12">
    <path clip-path="url(#pb2707991ca)" d="M 98.164177 174.528 
L 110.166805 174.528 
" style="fill:none;stroke:#008000;stroke-linecap:square;stroke-width:1.5;"/>
   </g>
   <g id="line2d_13">
    <path clip-path="url(#pb2707991ca)" d="M 100.571581 174.528 
L 104.569591 174.528 
" style="fill:none;stroke:#262626;stroke-linecap:square;stroke-width:4.5;"/>
   </g>
   <g id="patch_3">
    <path d="M 57.6 307.584 
L 57.6 41.472 
" style="fill:none;stroke:#000000;stroke-linecap:square;stroke-linejoin:miter;stroke-width:0.8;"/>
   </g>
   <g id="patch_4">
    <path d="M 414.72 307.584 
L 414.72 41.472 
" style="fill:none;stroke:#000000;stroke-linecap:square;stroke-linejoin:miter;stroke-width:0.8;"/>
   </g>
   <g id="patch_5">
    <path d="M 57.6 307.584 
L 414.72 307.584 
" style="fill:none;stroke:#000000;stroke-linecap:square;stroke-linejoin:miter;stroke-width:0.8;"/>
   </g>
   <g id="patch_6">
    <path d="M 57.6 41.472 
L 414.72 41.472 
" style="fill:none;stroke:#000000;stroke-linecap:square;stroke-linejoin:miter;stroke-width:0.8;"/>
   </g>
   <g id="PathCollection_1">
    <defs>
     <path d="M 0 1.5 
C 0.397805 1.5 0.77937 1.341951 1.06066 1.06066 
C 1.341951 0.77937 1.5 0.397805 1.5 0 
C 1.5 -0.397805 1.341951 -0.77937 1.06066 -1.06066 
C 0.77937 -1.341951 0.397805 -1.5 0 -1.5 
C -0.397805 -1.5 -0.77937 -1.341951 -1.06066 -1.06066 
C -1.341951 -0.77937 -1.5 -0.397805 -1.5 0 
C -1.5 0.397805 -1.341951 0.77937 -1.06066 1.06066 
C -0.77937 1.341951 -0.397805 1.5 0 1.5 
z
" id="m445be07182" style="stroke:#4c4c4c;stroke-opacity:0.5;"/>
    </defs>
    <g clip-path="url(#pb2707991ca)">
     <use style="fill:#ffffff;fill-opacity:0.5;stroke:#4c4c4c;stroke-opacity:0.5;" x="106.916809" xlink:href="#m445be07182" y="174.528"/>
    </g>
   </g>
   <g id="PathCollection_2">
    <defs>
     <path d="M 0 1.5 
C 0.397805 1.5 0.77937 1.341951 1.06066 1.06066 
C 1.341951 0.77937 1.5 0.397805 1.5 0 
C 1.5 -0.397805 1.341951 -0.77937 1.06066 -1.06066 
C 0.77937 -1.341951 0.397805 -1.5 0 -1.5 
C -0.397805 -1.5 -0.77937 -1.341951 -1.06066 -1.06066 
C -1.341951 -0.77937 -1.5 -0.397805 -1.5 0 
C -1.5 0.397805 -1.341951 0.77937 -1.06066 1.06066 
C -0.77937 1.341951 -0.397805 1.5 0 1.5 
z
" id="mb3e7d31f09" style="stroke:#262626;stroke-opacity:0.5;"/>
    </defs>
    <g clip-path="url(#pb2707991ca)">
     <use style="fill:#ffffff;fill-opacity:0.5;stroke:#262626;stroke-opacity:0.5;" x="102.600678" xlink:href="#mb3e7d31f09" y="174.528"/>
    </g>
   </g>
   <g id="text_10">
    <!-- Association of ldhpeakac vs. intubation -->
    <defs>
     <path d="M 34.1875 63.1875 
L 20.796875 26.90625 
L 47.609375 26.90625 
z
M 28.609375 72.90625 
L 39.796875 72.90625 
L 67.578125 0 
L 57.328125 0 
L 50.6875 18.703125 
L 17.828125 18.703125 
L 11.1875 0 
L 0.78125 0 
z
" id="DejaVuSans-65"/>
     <path d="M 44.28125 53.078125 
L 44.28125 44.578125 
Q 40.484375 46.53125 36.375 47.5 
Q 32.28125 48.484375 27.875 48.484375 
Q 21.1875 48.484375 17.84375 46.4375 
Q 14.5 44.390625 14.5 40.28125 
Q 14.5 37.15625 16.890625 35.375 
Q 19.28125 33.59375 26.515625 31.984375 
L 29.59375 31.296875 
Q 39.15625 29.25 43.1875 25.515625 
Q 47.21875 21.78125 47.21875 15.09375 
Q 47.21875 7.46875 41.1875 3.015625 
Q 35.15625 -1.421875 24.609375 -1.421875 
Q 20.21875 -1.421875 15.453125 -0.5625 
Q 10.6875 0.296875 5.421875 2 
L 5.421875 11.28125 
Q 10.40625 8.6875 15.234375 7.390625 
Q 20.0625 6.109375 24.8125 6.109375 
Q 31.15625 6.109375 34.5625 8.28125 
Q 37.984375 10.453125 37.984375 14.40625 
Q 37.984375 18.0625 35.515625 20.015625 
Q 33.0625 21.96875 24.703125 23.78125 
L 21.578125 24.515625 
Q 13.234375 26.265625 9.515625 29.90625 
Q 5.8125 33.546875 5.8125 39.890625 
Q 5.8125 47.609375 11.28125 51.796875 
Q 16.75 56 26.8125 56 
Q 31.78125 56 36.171875 55.265625 
Q 40.578125 54.546875 44.28125 53.078125 
z
" id="DejaVuSans-115"/>
     <path d="M 30.609375 48.390625 
Q 23.390625 48.390625 19.1875 42.75 
Q 14.984375 37.109375 14.984375 27.296875 
Q 14.984375 17.484375 19.15625 11.84375 
Q 23.34375 6.203125 30.609375 6.203125 
Q 37.796875 6.203125 41.984375 11.859375 
Q 46.1875 17.53125 46.1875 27.296875 
Q 46.1875 37.015625 41.984375 42.703125 
Q 37.796875 48.390625 30.609375 48.390625 
z
M 30.609375 56 
Q 42.328125 56 49.015625 48.375 
Q 55.71875 40.765625 55.71875 27.296875 
Q 55.71875 13.875 49.015625 6.21875 
Q 42.328125 -1.421875 30.609375 -1.421875 
Q 18.84375 -1.421875 12.171875 6.21875 
Q 5.515625 13.875 5.515625 27.296875 
Q 5.515625 40.765625 12.171875 48.375 
Q 18.84375 56 30.609375 56 
z
" id="DejaVuSans-111"/>
     <path d="M 9.421875 54.6875 
L 18.40625 54.6875 
L 18.40625 0 
L 9.421875 0 
z
M 9.421875 75.984375 
L 18.40625 75.984375 
L 18.40625 64.59375 
L 9.421875 64.59375 
z
" id="DejaVuSans-105"/>
     <path d="M 18.3125 70.21875 
L 18.3125 54.6875 
L 36.8125 54.6875 
L 36.8125 47.703125 
L 18.3125 47.703125 
L 18.3125 18.015625 
Q 18.3125 11.328125 20.140625 9.421875 
Q 21.96875 7.515625 27.59375 7.515625 
L 36.8125 7.515625 
L 36.8125 0 
L 27.59375 0 
Q 17.1875 0 13.234375 3.875 
Q 9.28125 7.765625 9.28125 18.015625 
L 9.28125 47.703125 
L 2.6875 47.703125 
L 2.6875 54.6875 
L 9.28125 54.6875 
L 9.28125 70.21875 
z
" id="DejaVuSans-116"/>
     <path d="M 54.890625 33.015625 
L 54.890625 0 
L 45.90625 0 
L 45.90625 32.71875 
Q 45.90625 40.484375 42.875 44.328125 
Q 39.84375 48.1875 33.796875 48.1875 
Q 26.515625 48.1875 22.3125 43.546875 
Q 18.109375 38.921875 18.109375 30.90625 
L 18.109375 0 
L 9.078125 0 
L 9.078125 54.6875 
L 18.109375 54.6875 
L 18.109375 46.1875 
Q 21.34375 51.125 25.703125 53.5625 
Q 30.078125 56 35.796875 56 
Q 45.21875 56 50.046875 50.171875 
Q 54.890625 44.34375 54.890625 33.015625 
z
" id="DejaVuSans-110"/>
     <path id="DejaVuSans-32"/>
     <path d="M 37.109375 75.984375 
L 37.109375 68.5 
L 28.515625 68.5 
Q 23.6875 68.5 21.796875 66.546875 
Q 19.921875 64.59375 19.921875 59.515625 
L 19.921875 54.6875 
L 34.71875 54.6875 
L 34.71875 47.703125 
L 19.921875 47.703125 
L 19.921875 0 
L 10.890625 0 
L 10.890625 47.703125 
L 2.296875 47.703125 
L 2.296875 54.6875 
L 10.890625 54.6875 
L 10.890625 58.5 
Q 10.890625 67.625 15.140625 71.796875 
Q 19.390625 75.984375 28.609375 75.984375 
z
" id="DejaVuSans-102"/>
     <path d="M 2.984375 54.6875 
L 12.5 54.6875 
L 29.59375 8.796875 
L 46.6875 54.6875 
L 56.203125 54.6875 
L 35.6875 0 
L 23.484375 0 
z
" id="DejaVuSans-118"/>
     <path d="M 10.6875 12.40625 
L 21 12.40625 
L 21 0 
L 10.6875 0 
z
" id="DejaVuSans-46"/>
     <path d="M 8.5 21.578125 
L 8.5 54.6875 
L 17.484375 54.6875 
L 17.484375 21.921875 
Q 17.484375 14.15625 20.5 10.265625 
Q 23.53125 6.390625 29.59375 6.390625 
Q 36.859375 6.390625 41.078125 11.03125 
Q 45.3125 15.671875 45.3125 23.6875 
L 45.3125 54.6875 
L 54.296875 54.6875 
L 54.296875 0 
L 45.3125 0 
L 45.3125 8.40625 
Q 42.046875 3.421875 37.71875 1 
Q 33.40625 -1.421875 27.6875 -1.421875 
Q 18.265625 -1.421875 13.375 4.4375 
Q 8.5 10.296875 8.5 21.578125 
z
M 31.109375 56 
z
" id="DejaVuSans-117"/>
     <path d="M 48.6875 27.296875 
Q 48.6875 37.203125 44.609375 42.84375 
Q 40.53125 48.484375 33.40625 48.484375 
Q 26.265625 48.484375 22.1875 42.84375 
Q 18.109375 37.203125 18.109375 27.296875 
Q 18.109375 17.390625 22.1875 11.75 
Q 26.265625 6.109375 33.40625 6.109375 
Q 40.53125 6.109375 44.609375 11.75 
Q 48.6875 17.390625 48.6875 27.296875 
z
M 18.109375 46.390625 
Q 20.953125 51.265625 25.265625 53.625 
Q 29.59375 56 35.59375 56 
Q 45.5625 56 51.78125 48.09375 
Q 58.015625 40.1875 58.015625 27.296875 
Q 58.015625 14.40625 51.78125 6.484375 
Q 45.5625 -1.421875 35.59375 -1.421875 
Q 29.59375 -1.421875 25.265625 0.953125 
Q 20.953125 3.328125 18.109375 8.203125 
L 18.109375 0 
L 9.078125 0 
L 9.078125 75.984375 
L 18.109375 75.984375 
z
" id="DejaVuSans-98"/>
    </defs>
    <g transform="translate(118.598438 35.472)scale(0.12 -0.12)">
     <use xlink:href="#DejaVuSans-65"/>
     <use x="68.408203" xlink:href="#DejaVuSans-115"/>
     <use x="120.507812" xlink:href="#DejaVuSans-115"/>
     <use x="172.607422" xlink:href="#DejaVuSans-111"/>
     <use x="233.789062" xlink:href="#DejaVuSans-99"/>
     <use x="288.769531" xlink:href="#DejaVuSans-105"/>
     <use x="316.552734" xlink:href="#DejaVuSans-97"/>
     <use x="377.832031" xlink:href="#DejaVuSans-116"/>
     <use x="417.041016" xlink:href="#DejaVuSans-105"/>
     <use x="444.824219" xlink:href="#DejaVuSans-111"/>
     <use x="506.005859" xlink:href="#DejaVuSans-110"/>
     <use x="569.384766" xlink:href="#DejaVuSans-32"/>
     <use x="601.171875" xlink:href="#DejaVuSans-111"/>
     <use x="662.353516" xlink:href="#DejaVuSans-102"/>
     <use x="697.558594" xlink:href="#DejaVuSans-32"/>
     <use x="729.345703" xlink:href="#DejaVuSans-108"/>
     <use x="757.128906" xlink:href="#DejaVuSans-100"/>
     <use x="820.605469" xlink:href="#DejaVuSans-104"/>
     <use x="883.984375" xlink:href="#DejaVuSans-112"/>
     <use x="947.460938" xlink:href="#DejaVuSans-101"/>
     <use x="1008.984375" xlink:href="#DejaVuSans-97"/>
     <use x="1070.263672" xlink:href="#DejaVuSans-107"/>
     <use x="1126.423828" xlink:href="#DejaVuSans-97"/>
     <use x="1187.703125" xlink:href="#DejaVuSans-99"/>
     <use x="1242.683594" xlink:href="#DejaVuSans-32"/>
     <use x="1274.470703" xlink:href="#DejaVuSans-118"/>
     <use x="1333.650391" xlink:href="#DejaVuSans-115"/>
     <use x="1385.75" xlink:href="#DejaVuSans-46"/>
     <use x="1417.537109" xlink:href="#DejaVuSans-32"/>
     <use x="1449.324219" xlink:href="#DejaVuSans-105"/>
     <use x="1477.107422" xlink:href="#DejaVuSans-110"/>
     <use x="1540.486328" xlink:href="#DejaVuSans-116"/>
     <use x="1579.695312" xlink:href="#DejaVuSans-117"/>
     <use x="1643.074219" xlink:href="#DejaVuSans-98"/>
     <use x="1706.550781" xlink:href="#DejaVuSans-97"/>
     <use x="1767.830078" xlink:href="#DejaVuSans-116"/>
     <use x="1807.039062" xlink:href="#DejaVuSans-105"/>
     <use x="1834.822266" xlink:href="#DejaVuSans-111"/>
     <use x="1896.003906" xlink:href="#DejaVuSans-110"/>
    </g>
   </g>
   <g id="legend_1">
    <g id="patch_7">
     <path d="M 273.948125 78.82825 
L 407.72 78.82825 
Q 409.72 78.82825 409.72 76.82825 
L 409.72 48.472 
Q 409.72 46.472 407.72 46.472 
L 273.948125 46.472 
Q 271.948125 46.472 271.948125 48.472 
L 271.948125 76.82825 
Q 271.948125 78.82825 273.948125 78.82825 
z
" style="fill:#ffffff;opacity:0.8;stroke:#cccccc;stroke-linejoin:miter;"/>
    </g>
    <g id="line2d_14">
     <path d="M 275.948125 54.570437 
L 295.948125 54.570437 
" style="fill:none;stroke:#ffa500;stroke-linecap:square;stroke-width:1.5;"/>
    </g>
    <g id="line2d_15"/>
    <g id="text_11">
     <!-- intubation (81) -->
     <defs>
      <path d="M 31 75.875 
Q 24.46875 64.65625 21.28125 53.65625 
Q 18.109375 42.671875 18.109375 31.390625 
Q 18.109375 20.125 21.3125 9.0625 
Q 24.515625 -2 31 -13.1875 
L 23.1875 -13.1875 
Q 15.875 -1.703125 12.234375 9.375 
Q 8.59375 20.453125 8.59375 31.390625 
Q 8.59375 42.28125 12.203125 53.3125 
Q 15.828125 64.359375 23.1875 75.875 
z
" id="DejaVuSans-40"/>
      <path d="M 31.78125 34.625 
Q 24.75 34.625 20.71875 30.859375 
Q 16.703125 27.09375 16.703125 20.515625 
Q 16.703125 13.921875 20.71875 10.15625 
Q 24.75 6.390625 31.78125 6.390625 
Q 38.8125 6.390625 42.859375 10.171875 
Q 46.921875 13.96875 46.921875 20.515625 
Q 46.921875 27.09375 42.890625 30.859375 
Q 38.875 34.625 31.78125 34.625 
z
M 21.921875 38.8125 
Q 15.578125 40.375 12.03125 44.71875 
Q 8.5 49.078125 8.5 55.328125 
Q 8.5 64.0625 14.71875 69.140625 
Q 20.953125 74.21875 31.78125 74.21875 
Q 42.671875 74.21875 48.875 69.140625 
Q 55.078125 64.0625 55.078125 55.328125 
Q 55.078125 49.078125 51.53125 44.71875 
Q 48 40.375 41.703125 38.8125 
Q 48.828125 37.15625 52.796875 32.3125 
Q 56.78125 27.484375 56.78125 20.515625 
Q 56.78125 9.90625 50.3125 4.234375 
Q 43.84375 -1.421875 31.78125 -1.421875 
Q 19.734375 -1.421875 13.25 4.234375 
Q 6.78125 9.90625 6.78125 20.515625 
Q 6.78125 27.484375 10.78125 32.3125 
Q 14.796875 37.15625 21.921875 38.8125 
z
M 18.3125 54.390625 
Q 18.3125 48.734375 21.84375 45.5625 
Q 25.390625 42.390625 31.78125 42.390625 
Q 38.140625 42.390625 41.71875 45.5625 
Q 45.3125 48.734375 45.3125 54.390625 
Q 45.3125 60.0625 41.71875 63.234375 
Q 38.140625 66.40625 31.78125 66.40625 
Q 25.390625 66.40625 21.84375 63.234375 
Q 18.3125 60.0625 18.3125 54.390625 
z
" id="DejaVuSans-56"/>
      <path d="M 8.015625 75.875 
L 15.828125 75.875 
Q 23.140625 64.359375 26.78125 53.3125 
Q 30.421875 42.28125 30.421875 31.390625 
Q 30.421875 20.453125 26.78125 9.375 
Q 23.140625 -1.703125 15.828125 -13.1875 
L 8.015625 -13.1875 
Q 14.5 -2 17.703125 9.0625 
Q 20.90625 20.125 20.90625 31.390625 
Q 20.90625 42.671875 17.703125 53.65625 
Q 14.5 64.65625 8.015625 75.875 
z
" id="DejaVuSans-41"/>
     </defs>
     <g transform="translate(303.948125 58.070437)scale(0.1 -0.1)">
      <use xlink:href="#DejaVuSans-105"/>
      <use x="27.783203" xlink:href="#DejaVuSans-110"/>
      <use x="91.162109" xlink:href="#DejaVuSans-116"/>
      <use x="130.371094" xlink:href="#DejaVuSans-117"/>
      <use x="193.75" xlink:href="#DejaVuSans-98"/>
      <use x="257.226562" xlink:href="#DejaVuSans-97"/>
      <use x="318.505859" xlink:href="#DejaVuSans-116"/>
      <use x="357.714844" xlink:href="#DejaVuSans-105"/>
      <use x="385.498047" xlink:href="#DejaVuSans-111"/>
      <use x="446.679688" xlink:href="#DejaVuSans-110"/>
      <use x="510.058594" xlink:href="#DejaVuSans-32"/>
      <use x="541.845703" xlink:href="#DejaVuSans-40"/>
      <use x="580.859375" xlink:href="#DejaVuSans-56"/>
      <use x="644.482422" xlink:href="#DejaVuSans-49"/>
      <use x="708.105469" xlink:href="#DejaVuSans-41"/>
     </g>
    </g>
    <g id="line2d_16">
     <path d="M 275.948125 69.248562 
L 295.948125 69.248562 
" style="fill:none;stroke:#008000;stroke-linecap:square;stroke-width:1.5;"/>
    </g>
    <g id="line2d_17"/>
    <g id="text_12">
     <!-- Not intubation (191) -->
     <defs>
      <path d="M 9.8125 72.90625 
L 23.09375 72.90625 
L 55.421875 11.921875 
L 55.421875 72.90625 
L 64.984375 72.90625 
L 64.984375 0 
L 51.703125 0 
L 19.390625 60.984375 
L 19.390625 0 
L 9.8125 0 
z
" id="DejaVuSans-78"/>
      <path d="M 10.984375 1.515625 
L 10.984375 10.5 
Q 14.703125 8.734375 18.5 7.8125 
Q 22.3125 6.890625 25.984375 6.890625 
Q 35.75 6.890625 40.890625 13.453125 
Q 46.046875 20.015625 46.78125 33.40625 
Q 43.953125 29.203125 39.59375 26.953125 
Q 35.25 24.703125 29.984375 24.703125 
Q 19.046875 24.703125 12.671875 31.3125 
Q 6.296875 37.9375 6.296875 49.421875 
Q 6.296875 60.640625 12.9375 67.421875 
Q 19.578125 74.21875 30.609375 74.21875 
Q 43.265625 74.21875 49.921875 64.515625 
Q 56.59375 54.828125 56.59375 36.375 
Q 56.59375 19.140625 48.40625 8.859375 
Q 40.234375 -1.421875 26.421875 -1.421875 
Q 22.703125 -1.421875 18.890625 -0.6875 
Q 15.09375 0.046875 10.984375 1.515625 
z
M 30.609375 32.421875 
Q 37.25 32.421875 41.125 36.953125 
Q 45.015625 41.5 45.015625 49.421875 
Q 45.015625 57.28125 41.125 61.84375 
Q 37.25 66.40625 30.609375 66.40625 
Q 23.96875 66.40625 20.09375 61.84375 
Q 16.21875 57.28125 16.21875 49.421875 
Q 16.21875 41.5 20.09375 36.953125 
Q 23.96875 32.421875 30.609375 32.421875 
z
" id="DejaVuSans-57"/>
     </defs>
     <g transform="translate(303.948125 72.748562)scale(0.1 -0.1)">
      <use xlink:href="#DejaVuSans-78"/>
      <use x="74.804688" xlink:href="#DejaVuSans-111"/>
      <use x="135.986328" xlink:href="#DejaVuSans-116"/>
      <use x="175.195312" xlink:href="#DejaVuSans-32"/>
      <use x="206.982422" xlink:href="#DejaVuSans-105"/>
      <use x="234.765625" xlink:href="#DejaVuSans-110"/>
      <use x="298.144531" xlink:href="#DejaVuSans-116"/>
      <use x="337.353516" xlink:href="#DejaVuSans-117"/>
      <use x="400.732422" xlink:href="#DejaVuSans-98"/>
      <use x="464.208984" xlink:href="#DejaVuSans-97"/>
      <use x="525.488281" xlink:href="#DejaVuSans-116"/>
      <use x="564.697266" xlink:href="#DejaVuSans-105"/>
      <use x="592.480469" xlink:href="#DejaVuSans-111"/>
      <use x="653.662109" xlink:href="#DejaVuSans-110"/>
      <use x="717.041016" xlink:href="#DejaVuSans-32"/>
      <use x="748.828125" xlink:href="#DejaVuSans-40"/>
      <use x="787.841797" xlink:href="#DejaVuSans-49"/>
      <use x="851.464844" xlink:href="#DejaVuSans-57"/>
      <use x="915.087891" xlink:href="#DejaVuSans-49"/>
      <use x="978.710938" xlink:href="#DejaVuSans-41"/>
     </g>
    </g>
   </g>
  </g>
 </g>
 <defs>
  <clipPath id="pb2707991ca">
   <rect height="266.112" width="357.12" x="57.6" y="41.472"/>
  </clipPath>
 </defs>
</svg>
