<?xml version="1.0" encoding="utf-8" standalone="no"?>
<!DOCTYPE svg PUBLIC "-//W3C//DTD SVG 1.1//EN"
  "http://www.w3.org/Graphics/SVG/1.1/DTD/svg11.dtd">
<!-- Created with matplotlib (https://matplotlib.org/) -->
<svg height="345.6pt" version="1.1" viewBox="0 0 460.8 345.6" width="460.8pt" xmlns="http://www.w3.org/2000/svg" xmlns:xlink="http://www.w3.org/1999/xlink">
 <defs>
  <style type="text/css">
*{stroke-linecap:butt;stroke-linejoin:round;}
  </style>
 </defs>
 <g id="figure_1">
  <g id="patch_1">
   <path d="M 0 345.6 
L 460.8 345.6 
L 460.8 0 
L 0 0 
z
" style="fill:#ffffff;"/>
  </g>
  <g id="axes_1">
   <g id="patch_2">
    <path d="M 57.6 307.584 
L 414.72 307.584 
L 414.72 41.472 
L 57.6 41.472 
z
" style="fill:#ffffff;"/>
   </g>
   <g id="PolyCollection_1">
    <defs>
     <path d="M 88.45219 -164.516717 
L 88.45219 -177.627283 
L 91.583857 -178.626469 
L 94.715525 -179.73585 
L 97.847192 -180.960335 
L 100.97886 -182.303891 
L 104.110527 -183.76936 
L 107.242195 -185.358301 
L 110.373862 -187.07084 
L 113.50553 -188.905554 
L 116.637197 -190.859381 
L 119.768865 -192.927577 
L 122.900532 -195.103708 
L 126.0322 -197.379698 
L 129.163867 -199.745929 
L 132.295535 -202.191386 
L 135.427202 -204.703862 
L 138.55887 -207.270202 
L 141.690537 -209.876597 
L 144.822205 -212.508905 
L 147.953872 -215.152998 
L 151.08554 -217.795123 
L 154.217207 -220.422261 
L 157.348875 -223.022472 
L 160.480542 -225.585213 
L 163.61221 -228.101616 
L 166.743877 -230.564714 
L 169.875545 -232.969603 
L 173.007212 -235.313532 
L 176.13888 -237.595921 
L 179.270547 -239.8183 
L 182.402215 -241.984162 
L 185.533882 -244.098754 
L 188.66555 -246.168791 
L 191.797217 -248.202119 
L 194.928885 -250.207326 
L 198.060552 -252.193323 
L 201.19222 -254.168908 
L 204.323888 -256.142328 
L 207.455555 -258.120851 
L 210.587223 -260.110362 
L 213.71889 -262.115009 
L 216.850558 -264.136886 
L 219.982225 -266.175787 
L 223.113893 -268.22902 
L 226.24556 -270.291297 
L 229.377228 -272.35469 
L 232.508895 -274.408665 
L 235.640563 -276.440184 
L 238.77223 -278.433872 
L 241.903898 -280.372246 
L 245.035565 -282.235993 
L 248.167233 -284.004298 
L 251.2989 -285.655212 
L 254.430568 -287.166041 
L 257.562235 -288.51377 
L 260.693903 -289.675484 
L 263.82557 -290.628815 
L 266.957238 -291.35237 
L 270.088905 -291.826158 
L 273.220573 -292.032 
L 276.35224 -291.953917 
L 279.483908 -291.57848 
L 282.615575 -290.895133 
L 285.747243 -289.896463 
L 288.87891 -288.578424 
L 292.010578 -286.940504 
L 295.142245 -284.985831 
L 298.273913 -282.721214 
L 301.40558 -280.157113 
L 304.537248 -277.307544 
L 307.668915 -274.18991 
L 310.800583 -270.82477 
L 313.93225 -267.235538 
L 317.063918 -263.448127 
L 320.195585 -259.490544 
L 323.327253 -255.392439 
L 326.45892 -251.184628 
L 329.590588 -246.898591 
L 332.722255 -242.565966 
L 335.853923 -238.218049 
L 338.98559 -233.885307 
L 342.117258 -229.596924 
L 345.248925 -225.380387 
L 348.380593 -221.261114 
L 351.51226 -217.262151 
L 354.643928 -213.40392 
L 357.775595 -209.704038 
L 360.907263 -206.177202 
L 364.03893 -202.835143 
L 367.170598 -199.686637 
L 370.302265 -196.737586 
L 373.433933 -193.991142 
L 376.5656 -191.447885 
L 379.697268 -189.106035 
L 382.828935 -186.961697 
L 385.960603 -185.009121 
L 389.09227 -183.240987 
L 392.223938 -181.648677 
L 395.355605 -180.222558 
L 398.487273 -178.952251 
L 398.487273 -163.191749 
L 398.487273 -163.191749 
L 395.355605 -161.921442 
L 392.223938 -160.495323 
L 389.09227 -158.903013 
L 385.960603 -157.134879 
L 382.828935 -155.182303 
L 379.697268 -153.037965 
L 376.5656 -150.696115 
L 373.433933 -148.152858 
L 370.302265 -145.406414 
L 367.170598 -142.457363 
L 364.03893 -139.308857 
L 360.907263 -135.966798 
L 357.775595 -132.439962 
L 354.643928 -128.74008 
L 351.51226 -124.881849 
L 348.380593 -120.882886 
L 345.248925 -116.763613 
L 342.117258 -112.547076 
L 338.98559 -108.258693 
L 335.853923 -103.925951 
L 332.722255 -99.578034 
L 329.590588 -95.245409 
L 326.45892 -90.959372 
L 323.327253 -86.751561 
L 320.195585 -82.653456 
L 317.063918 -78.695873 
L 313.93225 -74.908462 
L 310.800583 -71.31923 
L 307.668915 -67.95409 
L 304.537248 -64.836456 
L 301.40558 -61.986887 
L 298.273913 -59.422786 
L 295.142245 -57.158169 
L 292.010578 -55.203496 
L 288.87891 -53.565576 
L 285.747243 -52.247537 
L 282.615575 -51.248867 
L 279.483908 -50.56552 
L 276.35224 -50.190083 
L 273.220573 -50.112 
L 270.088905 -50.317842 
L 266.957238 -50.79163 
L 263.82557 -51.515185 
L 260.693903 -52.468516 
L 257.562235 -53.63023 
L 254.430568 -54.977959 
L 251.2989 -56.488788 
L 248.167233 -58.139702 
L 245.035565 -59.908007 
L 241.903898 -61.771754 
L 238.77223 -63.710128 
L 235.640563 -65.703816 
L 232.508895 -67.735335 
L 229.377228 -69.78931 
L 226.24556 -71.852703 
L 223.113893 -73.91498 
L 219.982225 -75.968213 
L 216.850558 -78.007114 
L 213.71889 -80.028991 
L 210.587223 -82.033638 
L 207.455555 -84.023149 
L 204.323888 -86.001672 
L 201.19222 -87.975092 
L 198.060552 -89.950677 
L 194.928885 -91.936674 
L 191.797217 -93.941881 
L 188.66555 -95.975209 
L 185.533882 -98.045246 
L 182.402215 -100.159838 
L 179.270547 -102.3257 
L 176.13888 -104.548079 
L 173.007212 -106.830468 
L 169.875545 -109.174397 
L 166.743877 -111.579286 
L 163.61221 -114.042384 
L 160.480542 -116.558787 
L 157.348875 -119.121528 
L 154.217207 -121.721739 
L 151.08554 -124.348877 
L 147.953872 -126.991002 
L 144.822205 -129.635095 
L 141.690537 -132.267403 
L 138.55887 -134.873798 
L 135.427202 -137.440138 
L 132.295535 -139.952614 
L 129.163867 -142.398071 
L 126.0322 -144.764302 
L 122.900532 -147.040292 
L 119.768865 -149.216423 
L 116.637197 -151.284619 
L 113.50553 -153.238446 
L 110.373862 -155.07316 
L 107.242195 -156.785699 
L 104.110527 -158.37464 
L 100.97886 -159.840109 
L 97.847192 -161.183665 
L 94.715525 -162.40815 
L 91.583857 -163.517531 
L 88.45219 -164.516717 
z
" id="m32a8e53659" style="stroke:#4c4c4c;stroke-opacity:0.5;stroke-width:1.5;"/>
    </defs>
    <g clip-path="url(#p9ec5fc219e)">
     <use style="fill:#df9c20;fill-opacity:0.5;stroke:#4c4c4c;stroke-opacity:0.5;stroke-width:1.5;" x="0" xlink:href="#m32a8e53659" y="345.6"/>
    </g>
   </g>
   <g id="PolyCollection_2">
    <defs>
     <path d="M 73.832727 -165.133427 
L 73.832727 -177.010573 
L 75.386072 -177.902609 
L 76.939416 -178.889839 
L 78.492761 -179.975681 
L 80.046105 -181.162542 
L 81.599449 -182.451647 
L 83.152794 -183.842885 
L 84.706138 -185.334675 
L 86.259483 -186.923856 
L 87.812827 -188.605613 
L 89.366171 -190.373452 
L 90.919516 -192.219214 
L 92.47286 -194.133147 
L 94.026205 -196.104037 
L 95.579549 -198.119389 
L 97.132894 -200.16568 
L 98.686238 -202.228652 
L 100.239582 -204.293662 
L 101.792927 -206.346074 
L 103.346271 -208.37168 
L 104.899616 -210.357143 
L 106.45296 -212.290434 
L 108.006304 -214.161276 
L 109.559649 -215.961539 
L 111.112993 -217.685611 
L 112.666338 -219.330693 
L 114.219682 -220.897027 
L 115.773027 -222.388029 
L 117.326371 -223.810336 
L 118.879715 -225.173728 
L 120.43306 -226.490959 
L 121.986404 -227.777463 
L 123.539749 -229.050965 
L 125.093093 -230.330989 
L 126.646437 -231.63828 
L 128.199782 -232.994161 
L 129.753126 -234.419834 
L 131.306471 -235.935652 
L 132.859815 -237.560384 
L 134.41316 -239.310492 
L 135.966504 -241.199451 
L 137.519848 -243.237132 
L 139.073193 -245.429259 
L 140.626537 -247.776973 
L 142.179882 -250.276516 
L 143.733226 -252.91903 
L 145.286571 -255.690508 
L 146.839915 -258.571871 
L 148.393259 -261.539191 
L 149.946604 -264.564048 
L 151.499948 -267.614008 
L 153.053293 -270.653219 
L 154.606637 -273.643101 
L 156.159981 -276.543114 
L 157.713326 -279.311589 
L 159.26667 -281.906593 
L 160.820015 -284.286806 
L 162.373359 -286.412395 
L 163.926704 -288.245855 
L 165.480048 -289.752799 
L 167.033392 -290.902683 
L 168.586737 -291.669437 
L 170.140081 -292.032 
L 171.693426 -291.974744 
L 173.24677 -291.487773 
L 174.800114 -290.567099 
L 176.353459 -289.214691 
L 177.906803 -287.438396 
L 179.460148 -285.251742 
L 181.013492 -282.67362 
L 182.566837 -279.727871 
L 184.120181 -276.442776 
L 185.673525 -272.850468 
L 187.22687 -268.986287 
L 188.780214 -264.888089 
L 190.333559 -260.595526 
L 191.886903 -256.14932 
L 193.440247 -251.590545 
L 194.993592 -246.95993 
L 196.546936 -242.297209 
L 198.100281 -237.640513 
L 199.653625 -233.025835 
L 201.20697 -228.486568 
L 202.760314 -224.053117 
L 204.313658 -219.752598 
L 205.867003 -215.608629 
L 207.420347 -211.641197 
L 208.973692 -207.866614 
L 210.527036 -204.297545 
L 212.080381 -200.943112 
L 213.633725 -197.809057 
L 215.187069 -194.897961 
L 216.740414 -192.209502 
L 218.293758 -189.740751 
L 219.847103 -187.486488 
L 221.400447 -185.439532 
L 222.953791 -183.591073 
L 224.507136 -181.931002 
L 226.06048 -180.448228 
L 227.613825 -179.130976 
L 227.613825 -163.013024 
L 227.613825 -163.013024 
L 226.06048 -161.695772 
L 224.507136 -160.212998 
L 222.953791 -158.552927 
L 221.400447 -156.704468 
L 219.847103 -154.657512 
L 218.293758 -152.403249 
L 216.740414 -149.934498 
L 215.187069 -147.246039 
L 213.633725 -144.334943 
L 212.080381 -141.200888 
L 210.527036 -137.846455 
L 208.973692 -134.277386 
L 207.420347 -130.502803 
L 205.867003 -126.535371 
L 204.313658 -122.391402 
L 202.760314 -118.090883 
L 201.20697 -113.657432 
L 199.653625 -109.118165 
L 198.100281 -104.503487 
L 196.546936 -99.846791 
L 194.993592 -95.18407 
L 193.440247 -90.553455 
L 191.886903 -85.99468 
L 190.333559 -81.548474 
L 188.780214 -77.255911 
L 187.22687 -73.157713 
L 185.673525 -69.293532 
L 184.120181 -65.701224 
L 182.566837 -62.416129 
L 181.013492 -59.47038 
L 179.460148 -56.892258 
L 177.906803 -54.705604 
L 176.353459 -52.929309 
L 174.800114 -51.576901 
L 173.24677 -50.656227 
L 171.693426 -50.169256 
L 170.140081 -50.112 
L 168.586737 -50.474563 
L 167.033392 -51.241317 
L 165.480048 -52.391201 
L 163.926704 -53.898145 
L 162.373359 -55.731605 
L 160.820015 -57.857194 
L 159.26667 -60.237407 
L 157.713326 -62.832411 
L 156.159981 -65.600886 
L 154.606637 -68.500899 
L 153.053293 -71.490781 
L 151.499948 -74.529992 
L 149.946604 -77.579952 
L 148.393259 -80.604809 
L 146.839915 -83.572129 
L 145.286571 -86.453492 
L 143.733226 -89.22497 
L 142.179882 -91.867484 
L 140.626537 -94.367027 
L 139.073193 -96.714741 
L 137.519848 -98.906868 
L 135.966504 -100.944549 
L 134.41316 -102.833508 
L 132.859815 -104.583616 
L 131.306471 -106.208348 
L 129.753126 -107.724166 
L 128.199782 -109.149839 
L 126.646437 -110.50572 
L 125.093093 -111.813011 
L 123.539749 -113.093035 
L 121.986404 -114.366537 
L 120.43306 -115.653041 
L 118.879715 -116.970272 
L 117.326371 -118.333664 
L 115.773027 -119.755971 
L 114.219682 -121.246973 
L 112.666338 -122.813307 
L 111.112993 -124.458389 
L 109.559649 -126.182461 
L 108.006304 -127.982724 
L 106.45296 -129.853566 
L 104.899616 -131.786857 
L 103.346271 -133.77232 
L 101.792927 -135.797926 
L 100.239582 -137.850338 
L 98.686238 -139.915348 
L 97.132894 -141.97832 
L 95.579549 -144.024611 
L 94.026205 -146.039963 
L 92.47286 -148.010853 
L 90.919516 -149.924786 
L 89.366171 -151.770548 
L 87.812827 -153.538387 
L 86.259483 -155.220144 
L 84.706138 -156.809325 
L 83.152794 -158.301115 
L 81.599449 -159.692353 
L 80.046105 -160.981458 
L 78.492761 -162.168319 
L 76.939416 -163.254161 
L 75.386072 -164.241391 
L 73.832727 -165.133427 
z
" id="mcfa08d4887" style="stroke:#262626;stroke-opacity:0.5;stroke-width:1.5;"/>
    </defs>
    <g clip-path="url(#p9ec5fc219e)">
     <use style="fill:#107010;fill-opacity:0.5;stroke:#262626;stroke-opacity:0.5;stroke-width:1.5;" x="0" xlink:href="#mcfa08d4887" y="345.6"/>
    </g>
   </g>
   <g id="matplotlib.axis_1">
    <g id="xtick_1">
     <g id="line2d_1">
      <defs>
       <path d="M 0 0 
L 0 3.5 
" id="mfad5aad7ff" style="stroke:#000000;stroke-width:0.8;"/>
      </defs>
      <g>
       <use style="stroke:#000000;stroke-width:0.8;" x="108.914552" xlink:href="#mfad5aad7ff" y="307.584"/>
      </g>
     </g>
     <g id="text_1">
      <!-- 0 -->
      <defs>
       <path d="M 31.78125 66.40625 
Q 24.171875 66.40625 20.328125 58.90625 
Q 16.5 51.421875 16.5 36.375 
Q 16.5 21.390625 20.328125 13.890625 
Q 24.171875 6.390625 31.78125 6.390625 
Q 39.453125 6.390625 43.28125 13.890625 
Q 47.125 21.390625 47.125 36.375 
Q 47.125 51.421875 43.28125 58.90625 
Q 39.453125 66.40625 31.78125 66.40625 
z
M 31.78125 74.21875 
Q 44.046875 74.21875 50.515625 64.515625 
Q 56.984375 54.828125 56.984375 36.375 
Q 56.984375 17.96875 50.515625 8.265625 
Q 44.046875 -1.421875 31.78125 -1.421875 
Q 19.53125 -1.421875 13.0625 8.265625 
Q 6.59375 17.96875 6.59375 36.375 
Q 6.59375 54.828125 13.0625 64.515625 
Q 19.53125 74.21875 31.78125 74.21875 
z
" id="DejaVuSans-48"/>
      </defs>
      <g transform="translate(105.733302 322.182437)scale(0.1 -0.1)">
       <use xlink:href="#DejaVuSans-48"/>
      </g>
     </g>
    </g>
    <g id="xtick_2">
     <g id="line2d_2">
      <g>
       <use style="stroke:#000000;stroke-width:0.8;" x="179.957413" xlink:href="#mfad5aad7ff" y="307.584"/>
      </g>
     </g>
     <g id="text_2">
      <!-- 20 -->
      <defs>
       <path d="M 19.1875 8.296875 
L 53.609375 8.296875 
L 53.609375 0 
L 7.328125 0 
L 7.328125 8.296875 
Q 12.9375 14.109375 22.625 23.890625 
Q 32.328125 33.6875 34.8125 36.53125 
Q 39.546875 41.84375 41.421875 45.53125 
Q 43.3125 49.21875 43.3125 52.78125 
Q 43.3125 58.59375 39.234375 62.25 
Q 35.15625 65.921875 28.609375 65.921875 
Q 23.96875 65.921875 18.8125 64.3125 
Q 13.671875 62.703125 7.8125 59.421875 
L 7.8125 69.390625 
Q 13.765625 71.78125 18.9375 73 
Q 24.125 74.21875 28.421875 74.21875 
Q 39.75 74.21875 46.484375 68.546875 
Q 53.21875 62.890625 53.21875 53.421875 
Q 53.21875 48.921875 51.53125 44.890625 
Q 49.859375 40.875 45.40625 35.40625 
Q 44.1875 33.984375 37.640625 27.21875 
Q 31.109375 20.453125 19.1875 8.296875 
z
" id="DejaVuSans-50"/>
      </defs>
      <g transform="translate(173.594913 322.182437)scale(0.1 -0.1)">
       <use xlink:href="#DejaVuSans-50"/>
       <use x="63.623047" xlink:href="#DejaVuSans-48"/>
      </g>
     </g>
    </g>
    <g id="xtick_3">
     <g id="line2d_3">
      <g>
       <use style="stroke:#000000;stroke-width:0.8;" x="251.000275" xlink:href="#mfad5aad7ff" y="307.584"/>
      </g>
     </g>
     <g id="text_3">
      <!-- 40 -->
      <defs>
       <path d="M 37.796875 64.3125 
L 12.890625 25.390625 
L 37.796875 25.390625 
z
M 35.203125 72.90625 
L 47.609375 72.90625 
L 47.609375 25.390625 
L 58.015625 25.390625 
L 58.015625 17.1875 
L 47.609375 17.1875 
L 47.609375 0 
L 37.796875 0 
L 37.796875 17.1875 
L 4.890625 17.1875 
L 4.890625 26.703125 
z
" id="DejaVuSans-52"/>
      </defs>
      <g transform="translate(244.637775 322.182437)scale(0.1 -0.1)">
       <use xlink:href="#DejaVuSans-52"/>
       <use x="63.623047" xlink:href="#DejaVuSans-48"/>
      </g>
     </g>
    </g>
    <g id="xtick_4">
     <g id="line2d_4">
      <g>
       <use style="stroke:#000000;stroke-width:0.8;" x="322.043136" xlink:href="#mfad5aad7ff" y="307.584"/>
      </g>
     </g>
     <g id="text_4">
      <!-- 60 -->
      <defs>
       <path d="M 33.015625 40.375 
Q 26.375 40.375 22.484375 35.828125 
Q 18.609375 31.296875 18.609375 23.390625 
Q 18.609375 15.53125 22.484375 10.953125 
Q 26.375 6.390625 33.015625 6.390625 
Q 39.65625 6.390625 43.53125 10.953125 
Q 47.40625 15.53125 47.40625 23.390625 
Q 47.40625 31.296875 43.53125 35.828125 
Q 39.65625 40.375 33.015625 40.375 
z
M 52.59375 71.296875 
L 52.59375 62.3125 
Q 48.875 64.0625 45.09375 64.984375 
Q 41.3125 65.921875 37.59375 65.921875 
Q 27.828125 65.921875 22.671875 59.328125 
Q 17.53125 52.734375 16.796875 39.40625 
Q 19.671875 43.65625 24.015625 45.921875 
Q 28.375 48.1875 33.59375 48.1875 
Q 44.578125 48.1875 50.953125 41.515625 
Q 57.328125 34.859375 57.328125 23.390625 
Q 57.328125 12.15625 50.6875 5.359375 
Q 44.046875 -1.421875 33.015625 -1.421875 
Q 20.359375 -1.421875 13.671875 8.265625 
Q 6.984375 17.96875 6.984375 36.375 
Q 6.984375 53.65625 15.1875 63.9375 
Q 23.390625 74.21875 37.203125 74.21875 
Q 40.921875 74.21875 44.703125 73.484375 
Q 48.484375 72.75 52.59375 71.296875 
z
" id="DejaVuSans-54"/>
      </defs>
      <g transform="translate(315.680636 322.182437)scale(0.1 -0.1)">
       <use xlink:href="#DejaVuSans-54"/>
       <use x="63.623047" xlink:href="#DejaVuSans-48"/>
      </g>
     </g>
    </g>
    <g id="xtick_5">
     <g id="line2d_5">
      <g>
       <use style="stroke:#000000;stroke-width:0.8;" x="393.085997" xlink:href="#mfad5aad7ff" y="307.584"/>
      </g>
     </g>
     <g id="text_5">
      <!-- 80 -->
      <defs>
       <path d="M 31.78125 34.625 
Q 24.75 34.625 20.71875 30.859375 
Q 16.703125 27.09375 16.703125 20.515625 
Q 16.703125 13.921875 20.71875 10.15625 
Q 24.75 6.390625 31.78125 6.390625 
Q 38.8125 6.390625 42.859375 10.171875 
Q 46.921875 13.96875 46.921875 20.515625 
Q 46.921875 27.09375 42.890625 30.859375 
Q 38.875 34.625 31.78125 34.625 
z
M 21.921875 38.8125 
Q 15.578125 40.375 12.03125 44.71875 
Q 8.5 49.078125 8.5 55.328125 
Q 8.5 64.0625 14.71875 69.140625 
Q 20.953125 74.21875 31.78125 74.21875 
Q 42.671875 74.21875 48.875 69.140625 
Q 55.078125 64.0625 55.078125 55.328125 
Q 55.078125 49.078125 51.53125 44.71875 
Q 48 40.375 41.703125 38.8125 
Q 48.828125 37.15625 52.796875 32.3125 
Q 56.78125 27.484375 56.78125 20.515625 
Q 56.78125 9.90625 50.3125 4.234375 
Q 43.84375 -1.421875 31.78125 -1.421875 
Q 19.734375 -1.421875 13.25 4.234375 
Q 6.78125 9.90625 6.78125 20.515625 
Q 6.78125 27.484375 10.78125 32.3125 
Q 14.796875 37.15625 21.921875 38.8125 
z
M 18.3125 54.390625 
Q 18.3125 48.734375 21.84375 45.5625 
Q 25.390625 42.390625 31.78125 42.390625 
Q 38.140625 42.390625 41.71875 45.5625 
Q 45.3125 48.734375 45.3125 54.390625 
Q 45.3125 60.0625 41.71875 63.234375 
Q 38.140625 66.40625 31.78125 66.40625 
Q 25.390625 66.40625 21.84375 63.234375 
Q 18.3125 60.0625 18.3125 54.390625 
z
" id="DejaVuSans-56"/>
      </defs>
      <g transform="translate(386.723497 322.182437)scale(0.1 -0.1)">
       <use xlink:href="#DejaVuSans-56"/>
       <use x="63.623047" xlink:href="#DejaVuSans-48"/>
      </g>
     </g>
    </g>
    <g id="text_6">
     <!-- cd4_percent_most_recent -->
     <defs>
      <path d="M 48.78125 52.59375 
L 48.78125 44.1875 
Q 44.96875 46.296875 41.140625 47.34375 
Q 37.3125 48.390625 33.40625 48.390625 
Q 24.65625 48.390625 19.8125 42.84375 
Q 14.984375 37.3125 14.984375 27.296875 
Q 14.984375 17.28125 19.8125 11.734375 
Q 24.65625 6.203125 33.40625 6.203125 
Q 37.3125 6.203125 41.140625 7.25 
Q 44.96875 8.296875 48.78125 10.40625 
L 48.78125 2.09375 
Q 45.015625 0.34375 40.984375 -0.53125 
Q 36.96875 -1.421875 32.421875 -1.421875 
Q 20.0625 -1.421875 12.78125 6.34375 
Q 5.515625 14.109375 5.515625 27.296875 
Q 5.515625 40.671875 12.859375 48.328125 
Q 20.21875 56 33.015625 56 
Q 37.15625 56 41.109375 55.140625 
Q 45.0625 54.296875 48.78125 52.59375 
z
" id="DejaVuSans-99"/>
      <path d="M 45.40625 46.390625 
L 45.40625 75.984375 
L 54.390625 75.984375 
L 54.390625 0 
L 45.40625 0 
L 45.40625 8.203125 
Q 42.578125 3.328125 38.25 0.953125 
Q 33.9375 -1.421875 27.875 -1.421875 
Q 17.96875 -1.421875 11.734375 6.484375 
Q 5.515625 14.40625 5.515625 27.296875 
Q 5.515625 40.1875 11.734375 48.09375 
Q 17.96875 56 27.875 56 
Q 33.9375 56 38.25 53.625 
Q 42.578125 51.265625 45.40625 46.390625 
z
M 14.796875 27.296875 
Q 14.796875 17.390625 18.875 11.75 
Q 22.953125 6.109375 30.078125 6.109375 
Q 37.203125 6.109375 41.296875 11.75 
Q 45.40625 17.390625 45.40625 27.296875 
Q 45.40625 37.203125 41.296875 42.84375 
Q 37.203125 48.484375 30.078125 48.484375 
Q 22.953125 48.484375 18.875 42.84375 
Q 14.796875 37.203125 14.796875 27.296875 
z
" id="DejaVuSans-100"/>
      <path d="M 50.984375 -16.609375 
L 50.984375 -23.578125 
L -0.984375 -23.578125 
L -0.984375 -16.609375 
z
" id="DejaVuSans-95"/>
      <path d="M 18.109375 8.203125 
L 18.109375 -20.796875 
L 9.078125 -20.796875 
L 9.078125 54.6875 
L 18.109375 54.6875 
L 18.109375 46.390625 
Q 20.953125 51.265625 25.265625 53.625 
Q 29.59375 56 35.59375 56 
Q 45.5625 56 51.78125 48.09375 
Q 58.015625 40.1875 58.015625 27.296875 
Q 58.015625 14.40625 51.78125 6.484375 
Q 45.5625 -1.421875 35.59375 -1.421875 
Q 29.59375 -1.421875 25.265625 0.953125 
Q 20.953125 3.328125 18.109375 8.203125 
z
M 48.6875 27.296875 
Q 48.6875 37.203125 44.609375 42.84375 
Q 40.53125 48.484375 33.40625 48.484375 
Q 26.265625 48.484375 22.1875 42.84375 
Q 18.109375 37.203125 18.109375 27.296875 
Q 18.109375 17.390625 22.1875 11.75 
Q 26.265625 6.109375 33.40625 6.109375 
Q 40.53125 6.109375 44.609375 11.75 
Q 48.6875 17.390625 48.6875 27.296875 
z
" id="DejaVuSans-112"/>
      <path d="M 56.203125 29.59375 
L 56.203125 25.203125 
L 14.890625 25.203125 
Q 15.484375 15.921875 20.484375 11.0625 
Q 25.484375 6.203125 34.421875 6.203125 
Q 39.59375 6.203125 44.453125 7.46875 
Q 49.3125 8.734375 54.109375 11.28125 
L 54.109375 2.78125 
Q 49.265625 0.734375 44.1875 -0.34375 
Q 39.109375 -1.421875 33.890625 -1.421875 
Q 20.796875 -1.421875 13.15625 6.1875 
Q 5.515625 13.8125 5.515625 26.8125 
Q 5.515625 40.234375 12.765625 48.109375 
Q 20.015625 56 32.328125 56 
Q 43.359375 56 49.78125 48.890625 
Q 56.203125 41.796875 56.203125 29.59375 
z
M 47.21875 32.234375 
Q 47.125 39.59375 43.09375 43.984375 
Q 39.0625 48.390625 32.421875 48.390625 
Q 24.90625 48.390625 20.390625 44.140625 
Q 15.875 39.890625 15.1875 32.171875 
z
" id="DejaVuSans-101"/>
      <path d="M 41.109375 46.296875 
Q 39.59375 47.171875 37.8125 47.578125 
Q 36.03125 48 33.890625 48 
Q 26.265625 48 22.1875 43.046875 
Q 18.109375 38.09375 18.109375 28.8125 
L 18.109375 0 
L 9.078125 0 
L 9.078125 54.6875 
L 18.109375 54.6875 
L 18.109375 46.1875 
Q 20.953125 51.171875 25.484375 53.578125 
Q 30.03125 56 36.53125 56 
Q 37.453125 56 38.578125 55.875 
Q 39.703125 55.765625 41.0625 55.515625 
z
" id="DejaVuSans-114"/>
      <path d="M 54.890625 33.015625 
L 54.890625 0 
L 45.90625 0 
L 45.90625 32.71875 
Q 45.90625 40.484375 42.875 44.328125 
Q 39.84375 48.1875 33.796875 48.1875 
Q 26.515625 48.1875 22.3125 43.546875 
Q 18.109375 38.921875 18.109375 30.90625 
L 18.109375 0 
L 9.078125 0 
L 9.078125 54.6875 
L 18.109375 54.6875 
L 18.109375 46.1875 
Q 21.34375 51.125 25.703125 53.5625 
Q 30.078125 56 35.796875 56 
Q 45.21875 56 50.046875 50.171875 
Q 54.890625 44.34375 54.890625 33.015625 
z
" id="DejaVuSans-110"/>
      <path d="M 18.3125 70.21875 
L 18.3125 54.6875 
L 36.8125 54.6875 
L 36.8125 47.703125 
L 18.3125 47.703125 
L 18.3125 18.015625 
Q 18.3125 11.328125 20.140625 9.421875 
Q 21.96875 7.515625 27.59375 7.515625 
L 36.8125 7.515625 
L 36.8125 0 
L 27.59375 0 
Q 17.1875 0 13.234375 3.875 
Q 9.28125 7.765625 9.28125 18.015625 
L 9.28125 47.703125 
L 2.6875 47.703125 
L 2.6875 54.6875 
L 9.28125 54.6875 
L 9.28125 70.21875 
z
" id="DejaVuSans-116"/>
      <path d="M 52 44.1875 
Q 55.375 50.25 60.0625 53.125 
Q 64.75 56 71.09375 56 
Q 79.640625 56 84.28125 50.015625 
Q 88.921875 44.046875 88.921875 33.015625 
L 88.921875 0 
L 79.890625 0 
L 79.890625 32.71875 
Q 79.890625 40.578125 77.09375 44.375 
Q 74.3125 48.1875 68.609375 48.1875 
Q 61.625 48.1875 57.5625 43.546875 
Q 53.515625 38.921875 53.515625 30.90625 
L 53.515625 0 
L 44.484375 0 
L 44.484375 32.71875 
Q 44.484375 40.625 41.703125 44.40625 
Q 38.921875 48.1875 33.109375 48.1875 
Q 26.21875 48.1875 22.15625 43.53125 
Q 18.109375 38.875 18.109375 30.90625 
L 18.109375 0 
L 9.078125 0 
L 9.078125 54.6875 
L 18.109375 54.6875 
L 18.109375 46.1875 
Q 21.1875 51.21875 25.484375 53.609375 
Q 29.78125 56 35.6875 56 
Q 41.65625 56 45.828125 52.96875 
Q 50 49.953125 52 44.1875 
z
" id="DejaVuSans-109"/>
      <path d="M 30.609375 48.390625 
Q 23.390625 48.390625 19.1875 42.75 
Q 14.984375 37.109375 14.984375 27.296875 
Q 14.984375 17.484375 19.15625 11.84375 
Q 23.34375 6.203125 30.609375 6.203125 
Q 37.796875 6.203125 41.984375 11.859375 
Q 46.1875 17.53125 46.1875 27.296875 
Q 46.1875 37.015625 41.984375 42.703125 
Q 37.796875 48.390625 30.609375 48.390625 
z
M 30.609375 56 
Q 42.328125 56 49.015625 48.375 
Q 55.71875 40.765625 55.71875 27.296875 
Q 55.71875 13.875 49.015625 6.21875 
Q 42.328125 -1.421875 30.609375 -1.421875 
Q 18.84375 -1.421875 12.171875 6.21875 
Q 5.515625 13.875 5.515625 27.296875 
Q 5.515625 40.765625 12.171875 48.375 
Q 18.84375 56 30.609375 56 
z
" id="DejaVuSans-111"/>
      <path d="M 44.28125 53.078125 
L 44.28125 44.578125 
Q 40.484375 46.53125 36.375 47.5 
Q 32.28125 48.484375 27.875 48.484375 
Q 21.1875 48.484375 17.84375 46.4375 
Q 14.5 44.390625 14.5 40.28125 
Q 14.5 37.15625 16.890625 35.375 
Q 19.28125 33.59375 26.515625 31.984375 
L 29.59375 31.296875 
Q 39.15625 29.25 43.1875 25.515625 
Q 47.21875 21.78125 47.21875 15.09375 
Q 47.21875 7.46875 41.1875 3.015625 
Q 35.15625 -1.421875 24.609375 -1.421875 
Q 20.21875 -1.421875 15.453125 -0.5625 
Q 10.6875 0.296875 5.421875 2 
L 5.421875 11.28125 
Q 10.40625 8.6875 15.234375 7.390625 
Q 20.0625 6.109375 24.8125 6.109375 
Q 31.15625 6.109375 34.5625 8.28125 
Q 37.984375 10.453125 37.984375 14.40625 
Q 37.984375 18.0625 35.515625 20.015625 
Q 33.0625 21.96875 24.703125 23.78125 
L 21.578125 24.515625 
Q 13.234375 26.265625 9.515625 29.90625 
Q 5.8125 33.546875 5.8125 39.890625 
Q 5.8125 47.609375 11.28125 51.796875 
Q 16.75 56 26.8125 56 
Q 31.78125 56 36.171875 55.265625 
Q 40.578125 54.546875 44.28125 53.078125 
z
" id="DejaVuSans-115"/>
     </defs>
     <g transform="translate(171.938125 335.860562)scale(0.1 -0.1)">
      <use xlink:href="#DejaVuSans-99"/>
      <use x="54.980469" xlink:href="#DejaVuSans-100"/>
      <use x="118.457031" xlink:href="#DejaVuSans-52"/>
      <use x="182.080078" xlink:href="#DejaVuSans-95"/>
      <use x="232.080078" xlink:href="#DejaVuSans-112"/>
      <use x="295.556641" xlink:href="#DejaVuSans-101"/>
      <use x="357.080078" xlink:href="#DejaVuSans-114"/>
      <use x="395.943359" xlink:href="#DejaVuSans-99"/>
      <use x="450.923828" xlink:href="#DejaVuSans-101"/>
      <use x="512.447266" xlink:href="#DejaVuSans-110"/>
      <use x="575.826172" xlink:href="#DejaVuSans-116"/>
      <use x="615.035156" xlink:href="#DejaVuSans-95"/>
      <use x="665.035156" xlink:href="#DejaVuSans-109"/>
      <use x="762.447266" xlink:href="#DejaVuSans-111"/>
      <use x="823.628906" xlink:href="#DejaVuSans-115"/>
      <use x="875.728516" xlink:href="#DejaVuSans-116"/>
      <use x="914.9375" xlink:href="#DejaVuSans-95"/>
      <use x="964.9375" xlink:href="#DejaVuSans-114"/>
      <use x="1003.800781" xlink:href="#DejaVuSans-101"/>
      <use x="1065.324219" xlink:href="#DejaVuSans-99"/>
      <use x="1120.304688" xlink:href="#DejaVuSans-101"/>
      <use x="1181.828125" xlink:href="#DejaVuSans-110"/>
      <use x="1245.207031" xlink:href="#DejaVuSans-116"/>
     </g>
    </g>
   </g>
   <g id="matplotlib.axis_2">
    <g id="ytick_1">
     <g id="line2d_6">
      <defs>
       <path d="M 0 0 
L -3.5 0 
" id="mce8fe80b3e" style="stroke:#000000;stroke-width:0.8;"/>
      </defs>
      <g>
       <use style="stroke:#000000;stroke-width:0.8;" x="57.6" xlink:href="#mce8fe80b3e" y="174.528"/>
      </g>
     </g>
    </g>
   </g>
   <g id="line2d_7">
    <path clip-path="url(#p9ec5fc219e)" d="M 176.40527 174.528 
L 310.534192 174.528 
" style="fill:none;stroke:#ffa500;stroke-linecap:square;stroke-width:1.5;"/>
   </g>
   <g id="line2d_8">
    <path clip-path="url(#p9ec5fc219e)" d="M 225.264998 174.528 
L 288.528666 174.528 
" style="fill:none;stroke:#4c4c4c;stroke-linecap:square;stroke-width:4.5;"/>
   </g>
   <g id="line2d_9">
    <path clip-path="url(#p9ec5fc219e)" d="M 117.617303 174.528 
L 183.829249 174.528 
" style="fill:none;stroke:#008000;stroke-linecap:square;stroke-width:1.5;"/>
   </g>
   <g id="line2d_10">
    <path clip-path="url(#p9ec5fc219e)" d="M 149.186974 174.528 
L 175.14426 174.528 
" style="fill:none;stroke:#262626;stroke-linecap:square;stroke-width:4.5;"/>
   </g>
   <g id="patch_3">
    <path d="M 57.6 307.584 
L 57.6 41.472 
" style="fill:none;stroke:#000000;stroke-linecap:square;stroke-linejoin:miter;stroke-width:0.8;"/>
   </g>
   <g id="patch_4">
    <path d="M 414.72 307.584 
L 414.72 41.472 
" style="fill:none;stroke:#000000;stroke-linecap:square;stroke-linejoin:miter;stroke-width:0.8;"/>
   </g>
   <g id="patch_5">
    <path d="M 57.6 307.584 
L 414.72 307.584 
" style="fill:none;stroke:#000000;stroke-linecap:square;stroke-linejoin:miter;stroke-width:0.8;"/>
   </g>
   <g id="patch_6">
    <path d="M 57.6 41.472 
L 414.72 41.472 
" style="fill:none;stroke:#000000;stroke-linecap:square;stroke-linejoin:miter;stroke-width:0.8;"/>
   </g>
   <g id="PathCollection_1">
    <defs>
     <path d="M 0 1.5 
C 0.397805 1.5 0.77937 1.341951 1.06066 1.06066 
C 1.341951 0.77937 1.5 0.397805 1.5 0 
C 1.5 -0.397805 1.341951 -0.77937 1.06066 -1.06066 
C 0.77937 -1.341951 0.397805 -1.5 0 -1.5 
C -0.397805 -1.5 -0.77937 -1.341951 -1.06066 -1.06066 
C -1.341951 -0.77937 -1.5 -0.397805 -1.5 0 
C -1.5 0.397805 -1.341951 0.77937 -1.06066 1.06066 
C -0.77937 1.341951 -0.397805 1.5 0 1.5 
z
" id="mf2d5cea8b7" style="stroke:#4c4c4c;stroke-opacity:0.5;"/>
    </defs>
    <g clip-path="url(#p9ec5fc219e)">
     <use style="fill:#ffffff;fill-opacity:0.5;stroke:#4c4c4c;stroke-opacity:0.5;" x="261.372532" xlink:href="#mf2d5cea8b7" y="174.528"/>
    </g>
   </g>
   <g id="PathCollection_2">
    <defs>
     <path d="M 0 1.5 
C 0.397805 1.5 0.77937 1.341951 1.06066 1.06066 
C 1.341951 0.77937 1.5 0.397805 1.5 0 
C 1.5 -0.397805 1.341951 -0.77937 1.06066 -1.06066 
C 0.77937 -1.341951 0.397805 -1.5 0 -1.5 
C -0.397805 -1.5 -0.77937 -1.341951 -1.06066 -1.06066 
C -1.341951 -0.77937 -1.5 -0.397805 -1.5 0 
C -1.5 0.397805 -1.341951 0.77937 -1.06066 1.06066 
C -0.77937 1.341951 -0.397805 1.5 0 1.5 
z
" id="mca2ed87098" style="stroke:#262626;stroke-opacity:0.5;"/>
    </defs>
    <g clip-path="url(#p9ec5fc219e)">
     <use style="fill:#ffffff;fill-opacity:0.5;stroke:#262626;stroke-opacity:0.5;" x="165.97973" xlink:href="#mca2ed87098" y="174.528"/>
    </g>
   </g>
   <g id="text_7">
    <!-- Association of cd4_percent_most_recent vs. intubation -->
    <defs>
     <path d="M 34.1875 63.1875 
L 20.796875 26.90625 
L 47.609375 26.90625 
z
M 28.609375 72.90625 
L 39.796875 72.90625 
L 67.578125 0 
L 57.328125 0 
L 50.6875 18.703125 
L 17.828125 18.703125 
L 11.1875 0 
L 0.78125 0 
z
" id="DejaVuSans-65"/>
     <path d="M 9.421875 54.6875 
L 18.40625 54.6875 
L 18.40625 0 
L 9.421875 0 
z
M 9.421875 75.984375 
L 18.40625 75.984375 
L 18.40625 64.59375 
L 9.421875 64.59375 
z
" id="DejaVuSans-105"/>
     <path d="M 34.28125 27.484375 
Q 23.390625 27.484375 19.1875 25 
Q 14.984375 22.515625 14.984375 16.5 
Q 14.984375 11.71875 18.140625 8.90625 
Q 21.296875 6.109375 26.703125 6.109375 
Q 34.1875 6.109375 38.703125 11.40625 
Q 43.21875 16.703125 43.21875 25.484375 
L 43.21875 27.484375 
z
M 52.203125 31.203125 
L 52.203125 0 
L 43.21875 0 
L 43.21875 8.296875 
Q 40.140625 3.328125 35.546875 0.953125 
Q 30.953125 -1.421875 24.3125 -1.421875 
Q 15.921875 -1.421875 10.953125 3.296875 
Q 6 8.015625 6 15.921875 
Q 6 25.140625 12.171875 29.828125 
Q 18.359375 34.515625 30.609375 34.515625 
L 43.21875 34.515625 
L 43.21875 35.40625 
Q 43.21875 41.609375 39.140625 45 
Q 35.0625 48.390625 27.6875 48.390625 
Q 23 48.390625 18.546875 47.265625 
Q 14.109375 46.140625 10.015625 43.890625 
L 10.015625 52.203125 
Q 14.9375 54.109375 19.578125 55.046875 
Q 24.21875 56 28.609375 56 
Q 40.484375 56 46.34375 49.84375 
Q 52.203125 43.703125 52.203125 31.203125 
z
" id="DejaVuSans-97"/>
     <path id="DejaVuSans-32"/>
     <path d="M 37.109375 75.984375 
L 37.109375 68.5 
L 28.515625 68.5 
Q 23.6875 68.5 21.796875 66.546875 
Q 19.921875 64.59375 19.921875 59.515625 
L 19.921875 54.6875 
L 34.71875 54.6875 
L 34.71875 47.703125 
L 19.921875 47.703125 
L 19.921875 0 
L 10.890625 0 
L 10.890625 47.703125 
L 2.296875 47.703125 
L 2.296875 54.6875 
L 10.890625 54.6875 
L 10.890625 58.5 
Q 10.890625 67.625 15.140625 71.796875 
Q 19.390625 75.984375 28.609375 75.984375 
z
" id="DejaVuSans-102"/>
     <path d="M 2.984375 54.6875 
L 12.5 54.6875 
L 29.59375 8.796875 
L 46.6875 54.6875 
L 56.203125 54.6875 
L 35.6875 0 
L 23.484375 0 
z
" id="DejaVuSans-118"/>
     <path d="M 10.6875 12.40625 
L 21 12.40625 
L 21 0 
L 10.6875 0 
z
" id="DejaVuSans-46"/>
     <path d="M 8.5 21.578125 
L 8.5 54.6875 
L 17.484375 54.6875 
L 17.484375 21.921875 
Q 17.484375 14.15625 20.5 10.265625 
Q 23.53125 6.390625 29.59375 6.390625 
Q 36.859375 6.390625 41.078125 11.03125 
Q 45.3125 15.671875 45.3125 23.6875 
L 45.3125 54.6875 
L 54.296875 54.6875 
L 54.296875 0 
L 45.3125 0 
L 45.3125 8.40625 
Q 42.046875 3.421875 37.71875 1 
Q 33.40625 -1.421875 27.6875 -1.421875 
Q 18.265625 -1.421875 13.375 4.4375 
Q 8.5 10.296875 8.5 21.578125 
z
M 31.109375 56 
z
" id="DejaVuSans-117"/>
     <path d="M 48.6875 27.296875 
Q 48.6875 37.203125 44.609375 42.84375 
Q 40.53125 48.484375 33.40625 48.484375 
Q 26.265625 48.484375 22.1875 42.84375 
Q 18.109375 37.203125 18.109375 27.296875 
Q 18.109375 17.390625 22.1875 11.75 
Q 26.265625 6.109375 33.40625 6.109375 
Q 40.53125 6.109375 44.609375 11.75 
Q 48.6875 17.390625 48.6875 27.296875 
z
M 18.109375 46.390625 
Q 20.953125 51.265625 25.265625 53.625 
Q 29.59375 56 35.59375 56 
Q 45.5625 56 51.78125 48.09375 
Q 58.015625 40.1875 58.015625 27.296875 
Q 58.015625 14.40625 51.78125 6.484375 
Q 45.5625 -1.421875 35.59375 -1.421875 
Q 29.59375 -1.421875 25.265625 0.953125 
Q 20.953125 3.328125 18.109375 8.203125 
L 18.109375 0 
L 9.078125 0 
L 9.078125 75.984375 
L 18.109375 75.984375 
z
" id="DejaVuSans-98"/>
    </defs>
    <g transform="translate(72.33375 35.472)scale(0.12 -0.12)">
     <use xlink:href="#DejaVuSans-65"/>
     <use x="68.408203" xlink:href="#DejaVuSans-115"/>
     <use x="120.507812" xlink:href="#DejaVuSans-115"/>
     <use x="172.607422" xlink:href="#DejaVuSans-111"/>
     <use x="233.789062" xlink:href="#DejaVuSans-99"/>
     <use x="288.769531" xlink:href="#DejaVuSans-105"/>
     <use x="316.552734" xlink:href="#DejaVuSans-97"/>
     <use x="377.832031" xlink:href="#DejaVuSans-116"/>
     <use x="417.041016" xlink:href="#DejaVuSans-105"/>
     <use x="444.824219" xlink:href="#DejaVuSans-111"/>
     <use x="506.005859" xlink:href="#DejaVuSans-110"/>
     <use x="569.384766" xlink:href="#DejaVuSans-32"/>
     <use x="601.171875" xlink:href="#DejaVuSans-111"/>
     <use x="662.353516" xlink:href="#DejaVuSans-102"/>
     <use x="697.558594" xlink:href="#DejaVuSans-32"/>
     <use x="729.345703" xlink:href="#DejaVuSans-99"/>
     <use x="784.326172" xlink:href="#DejaVuSans-100"/>
     <use x="847.802734" xlink:href="#DejaVuSans-52"/>
     <use x="911.425781" xlink:href="#DejaVuSans-95"/>
     <use x="961.425781" xlink:href="#DejaVuSans-112"/>
     <use x="1024.902344" xlink:href="#DejaVuSans-101"/>
     <use x="1086.425781" xlink:href="#DejaVuSans-114"/>
     <use x="1125.289062" xlink:href="#DejaVuSans-99"/>
     <use x="1180.269531" xlink:href="#DejaVuSans-101"/>
     <use x="1241.792969" xlink:href="#DejaVuSans-110"/>
     <use x="1305.171875" xlink:href="#DejaVuSans-116"/>
     <use x="1344.380859" xlink:href="#DejaVuSans-95"/>
     <use x="1394.380859" xlink:href="#DejaVuSans-109"/>
     <use x="1491.792969" xlink:href="#DejaVuSans-111"/>
     <use x="1552.974609" xlink:href="#DejaVuSans-115"/>
     <use x="1605.074219" xlink:href="#DejaVuSans-116"/>
     <use x="1644.283203" xlink:href="#DejaVuSans-95"/>
     <use x="1694.283203" xlink:href="#DejaVuSans-114"/>
     <use x="1733.146484" xlink:href="#DejaVuSans-101"/>
     <use x="1794.669922" xlink:href="#DejaVuSans-99"/>
     <use x="1849.650391" xlink:href="#DejaVuSans-101"/>
     <use x="1911.173828" xlink:href="#DejaVuSans-110"/>
     <use x="1974.552734" xlink:href="#DejaVuSans-116"/>
     <use x="2013.761719" xlink:href="#DejaVuSans-32"/>
     <use x="2045.548828" xlink:href="#DejaVuSans-118"/>
     <use x="2104.728516" xlink:href="#DejaVuSans-115"/>
     <use x="2156.828125" xlink:href="#DejaVuSans-46"/>
     <use x="2188.615234" xlink:href="#DejaVuSans-32"/>
     <use x="2220.402344" xlink:href="#DejaVuSans-105"/>
     <use x="2248.185547" xlink:href="#DejaVuSans-110"/>
     <use x="2311.564453" xlink:href="#DejaVuSans-116"/>
     <use x="2350.773438" xlink:href="#DejaVuSans-117"/>
     <use x="2414.152344" xlink:href="#DejaVuSans-98"/>
     <use x="2477.628906" xlink:href="#DejaVuSans-97"/>
     <use x="2538.908203" xlink:href="#DejaVuSans-116"/>
     <use x="2578.117188" xlink:href="#DejaVuSans-105"/>
     <use x="2605.900391" xlink:href="#DejaVuSans-111"/>
     <use x="2667.082031" xlink:href="#DejaVuSans-110"/>
    </g>
   </g>
   <g id="legend_1">
    <g id="patch_7">
     <path d="M 286.673125 78.82825 
L 407.72 78.82825 
Q 409.72 78.82825 409.72 76.82825 
L 409.72 48.472 
Q 409.72 46.472 407.72 46.472 
L 286.673125 46.472 
Q 284.673125 46.472 284.673125 48.472 
L 284.673125 76.82825 
Q 284.673125 78.82825 286.673125 78.82825 
z
" style="fill:#ffffff;opacity:0.8;stroke:#cccccc;stroke-linejoin:miter;"/>
    </g>
    <g id="line2d_11">
     <path d="M 288.673125 54.570437 
L 308.673125 54.570437 
" style="fill:none;stroke:#ffa500;stroke-linecap:square;stroke-width:1.5;"/>
    </g>
    <g id="line2d_12"/>
    <g id="text_8">
     <!-- intubation (4) -->
     <defs>
      <path d="M 31 75.875 
Q 24.46875 64.65625 21.28125 53.65625 
Q 18.109375 42.671875 18.109375 31.390625 
Q 18.109375 20.125 21.3125 9.0625 
Q 24.515625 -2 31 -13.1875 
L 23.1875 -13.1875 
Q 15.875 -1.703125 12.234375 9.375 
Q 8.59375 20.453125 8.59375 31.390625 
Q 8.59375 42.28125 12.203125 53.3125 
Q 15.828125 64.359375 23.1875 75.875 
z
" id="DejaVuSans-40"/>
      <path d="M 8.015625 75.875 
L 15.828125 75.875 
Q 23.140625 64.359375 26.78125 53.3125 
Q 30.421875 42.28125 30.421875 31.390625 
Q 30.421875 20.453125 26.78125 9.375 
Q 23.140625 -1.703125 15.828125 -13.1875 
L 8.015625 -13.1875 
Q 14.5 -2 17.703125 9.0625 
Q 20.90625 20.125 20.90625 31.390625 
Q 20.90625 42.671875 17.703125 53.65625 
Q 14.5 64.65625 8.015625 75.875 
z
" id="DejaVuSans-41"/>
     </defs>
     <g transform="translate(316.673125 58.070437)scale(0.1 -0.1)">
      <use xlink:href="#DejaVuSans-105"/>
      <use x="27.783203" xlink:href="#DejaVuSans-110"/>
      <use x="91.162109" xlink:href="#DejaVuSans-116"/>
      <use x="130.371094" xlink:href="#DejaVuSans-117"/>
      <use x="193.75" xlink:href="#DejaVuSans-98"/>
      <use x="257.226562" xlink:href="#DejaVuSans-97"/>
      <use x="318.505859" xlink:href="#DejaVuSans-116"/>
      <use x="357.714844" xlink:href="#DejaVuSans-105"/>
      <use x="385.498047" xlink:href="#DejaVuSans-111"/>
      <use x="446.679688" xlink:href="#DejaVuSans-110"/>
      <use x="510.058594" xlink:href="#DejaVuSans-32"/>
      <use x="541.845703" xlink:href="#DejaVuSans-40"/>
      <use x="580.859375" xlink:href="#DejaVuSans-52"/>
      <use x="644.482422" xlink:href="#DejaVuSans-41"/>
     </g>
    </g>
    <g id="line2d_13">
     <path d="M 288.673125 69.248562 
L 308.673125 69.248562 
" style="fill:none;stroke:#008000;stroke-linecap:square;stroke-width:1.5;"/>
    </g>
    <g id="line2d_14"/>
    <g id="text_9">
     <!-- Not intubation (4) -->
     <defs>
      <path d="M 9.8125 72.90625 
L 23.09375 72.90625 
L 55.421875 11.921875 
L 55.421875 72.90625 
L 64.984375 72.90625 
L 64.984375 0 
L 51.703125 0 
L 19.390625 60.984375 
L 19.390625 0 
L 9.8125 0 
z
" id="DejaVuSans-78"/>
     </defs>
     <g transform="translate(316.673125 72.748562)scale(0.1 -0.1)">
      <use xlink:href="#DejaVuSans-78"/>
      <use x="74.804688" xlink:href="#DejaVuSans-111"/>
      <use x="135.986328" xlink:href="#DejaVuSans-116"/>
      <use x="175.195312" xlink:href="#DejaVuSans-32"/>
      <use x="206.982422" xlink:href="#DejaVuSans-105"/>
      <use x="234.765625" xlink:href="#DejaVuSans-110"/>
      <use x="298.144531" xlink:href="#DejaVuSans-116"/>
      <use x="337.353516" xlink:href="#DejaVuSans-117"/>
      <use x="400.732422" xlink:href="#DejaVuSans-98"/>
      <use x="464.208984" xlink:href="#DejaVuSans-97"/>
      <use x="525.488281" xlink:href="#DejaVuSans-116"/>
      <use x="564.697266" xlink:href="#DejaVuSans-105"/>
      <use x="592.480469" xlink:href="#DejaVuSans-111"/>
      <use x="653.662109" xlink:href="#DejaVuSans-110"/>
      <use x="717.041016" xlink:href="#DejaVuSans-32"/>
      <use x="748.828125" xlink:href="#DejaVuSans-40"/>
      <use x="787.841797" xlink:href="#DejaVuSans-52"/>
      <use x="851.464844" xlink:href="#DejaVuSans-41"/>
     </g>
    </g>
   </g>
  </g>
 </g>
 <defs>
  <clipPath id="p9ec5fc219e">
   <rect height="266.112" width="357.12" x="57.6" y="41.472"/>
  </clipPath>
 </defs>
</svg>
