<?xml version="1.0" encoding="utf-8" standalone="no"?>
<!DOCTYPE svg PUBLIC "-//W3C//DTD SVG 1.1//EN"
  "http://www.w3.org/Graphics/SVG/1.1/DTD/svg11.dtd">
<!-- Created with matplotlib (https://matplotlib.org/) -->
<svg height="345.6pt" version="1.1" viewBox="0 0 460.8 345.6" width="460.8pt" xmlns="http://www.w3.org/2000/svg" xmlns:xlink="http://www.w3.org/1999/xlink">
 <defs>
  <style type="text/css">
*{stroke-linecap:butt;stroke-linejoin:round;}
  </style>
 </defs>
 <g id="figure_1">
  <g id="patch_1">
   <path d="M 0 345.6 
L 460.8 345.6 
L 460.8 0 
L 0 0 
z
" style="fill:#ffffff;"/>
  </g>
  <g id="axes_1">
   <g id="patch_2">
    <path d="M 57.6 307.584 
L 414.72 307.584 
L 414.72 41.472 
L 57.6 41.472 
z
" style="fill:#ffffff;"/>
   </g>
   <g id="PolyCollection_1">
    <defs>
     <path d="M 133.489284 -164.717577 
L 133.489284 -177.426423 
L 135.955327 -178.70331 
L 138.42137 -180.178369 
L 140.887412 -181.86943 
L 143.353455 -183.79327 
L 145.819498 -185.964992 
L 148.285541 -188.397333 
L 150.751583 -191.09996 
L 153.217626 -194.078746 
L 155.683669 -197.335083 
L 158.149712 -200.865237 
L 160.615754 -204.659809 
L 163.081797 -208.703312 
L 165.54784 -212.973921 
L 168.013883 -217.443404 
L 170.479925 -222.077287 
L 172.945968 -226.835247 
L 175.412011 -231.671757 
L 177.878054 -236.536978 
L 180.344096 -241.377884 
L 182.810139 -246.139587 
L 185.276182 -250.766837 
L 187.742225 -255.205636 
L 190.208267 -259.404906 
L 192.67431 -263.318151 
L 195.140353 -266.905032 
L 197.606396 -270.132787 
L 200.072438 -272.977431 
L 202.538481 -275.424663 
L 205.004524 -277.470434 
L 207.470567 -279.121144 
L 209.936609 -280.39343 
L 212.402652 -281.313568 
L 214.868695 -281.916475 
L 217.334738 -282.244383 
L 219.80078 -282.345205 
L 222.266823 -282.270687 
L 224.732866 -282.074417 
L 227.198909 -281.80978 
L 229.664951 -281.527954 
L 232.130994 -281.276038 
L 234.597037 -281.095388 
L 237.06308 -281.020238 
L 239.529122 -281.076659 
L 241.995165 -281.281897 
L 244.461208 -281.644094 
L 246.92725 -282.162408 
L 249.393293 -282.82749 
L 251.859336 -283.622281 
L 254.325379 -284.523079 
L 256.791421 -285.500795 
L 259.257464 -286.522333 
L 261.723507 -287.552016 
L 264.18955 -288.552972 
L 266.655592 -289.488442 
L 269.121635 -290.322916 
L 271.587678 -291.023096 
L 274.053721 -291.558635 
L 276.519763 -291.902645 
L 278.985806 -292.032 
L 281.451849 -291.927428 
L 283.917892 -291.573448 
L 286.383934 -290.958173 
L 288.849977 -290.073037 
L 291.31602 -288.91248 
L 293.782063 -287.473642 
L 296.248105 -285.756088 
L 298.714148 -283.761602 
L 301.180191 -281.494063 
L 303.646234 -278.959394 
L 306.112276 -276.165598 
L 308.578319 -273.122851 
L 311.044362 -269.843635 
L 313.510405 -266.342876 
L 315.976447 -262.638069 
L 318.44249 -258.749342 
L 320.908533 -254.699455 
L 323.374576 -250.513693 
L 325.840618 -246.219652 
L 328.306661 -241.846913 
L 330.772704 -237.426604 
L 333.238747 -232.990864 
L 335.704789 -228.572233 
L 338.170832 -224.202987 
L 340.636875 -219.914461 
L 343.102918 -215.736372 
L 345.56896 -211.696192 
L 348.035003 -207.818583 
L 350.501046 -204.124934 
L 352.967089 -200.633 
L 355.433131 -197.356675 
L 357.899174 -194.305881 
L 360.365217 -191.486592 
L 362.83126 -188.900971 
L 365.297302 -186.547615 
L 367.763345 -184.421881 
L 370.229388 -182.516288 
L 372.695431 -180.820959 
L 375.161473 -179.32409 
L 377.627516 -178.01242 
L 377.627516 -164.13158 
L 377.627516 -164.13158 
L 375.161473 -162.81991 
L 372.695431 -161.323041 
L 370.229388 -159.627712 
L 367.763345 -157.722119 
L 365.297302 -155.596385 
L 362.83126 -153.243029 
L 360.365217 -150.657408 
L 357.899174 -147.838119 
L 355.433131 -144.787325 
L 352.967089 -141.511 
L 350.501046 -138.019066 
L 348.035003 -134.325417 
L 345.56896 -130.447808 
L 343.102918 -126.407628 
L 340.636875 -122.229539 
L 338.170832 -117.941013 
L 335.704789 -113.571767 
L 333.238747 -109.153136 
L 330.772704 -104.717396 
L 328.306661 -100.297087 
L 325.840618 -95.924348 
L 323.374576 -91.630307 
L 320.908533 -87.444545 
L 318.44249 -83.394658 
L 315.976447 -79.505931 
L 313.510405 -75.801124 
L 311.044362 -72.300365 
L 308.578319 -69.021149 
L 306.112276 -65.978402 
L 303.646234 -63.184606 
L 301.180191 -60.649937 
L 298.714148 -58.382398 
L 296.248105 -56.387912 
L 293.782063 -54.670358 
L 291.31602 -53.23152 
L 288.849977 -52.070963 
L 286.383934 -51.185827 
L 283.917892 -50.570552 
L 281.451849 -50.216572 
L 278.985806 -50.112 
L 276.519763 -50.241355 
L 274.053721 -50.585365 
L 271.587678 -51.120904 
L 269.121635 -51.821084 
L 266.655592 -52.655558 
L 264.18955 -53.591028 
L 261.723507 -54.591984 
L 259.257464 -55.621667 
L 256.791421 -56.643205 
L 254.325379 -57.620921 
L 251.859336 -58.521719 
L 249.393293 -59.31651 
L 246.92725 -59.981592 
L 244.461208 -60.499906 
L 241.995165 -60.862103 
L 239.529122 -61.067341 
L 237.06308 -61.123762 
L 234.597037 -61.048612 
L 232.130994 -60.867962 
L 229.664951 -60.616046 
L 227.198909 -60.33422 
L 224.732866 -60.069583 
L 222.266823 -59.873313 
L 219.80078 -59.798795 
L 217.334738 -59.899617 
L 214.868695 -60.227525 
L 212.402652 -60.830432 
L 209.936609 -61.75057 
L 207.470567 -63.022856 
L 205.004524 -64.673566 
L 202.538481 -66.719337 
L 200.072438 -69.166569 
L 197.606396 -72.011213 
L 195.140353 -75.238968 
L 192.67431 -78.825849 
L 190.208267 -82.739094 
L 187.742225 -86.938364 
L 185.276182 -91.377163 
L 182.810139 -96.004413 
L 180.344096 -100.766116 
L 177.878054 -105.607022 
L 175.412011 -110.472243 
L 172.945968 -115.308753 
L 170.479925 -120.066713 
L 168.013883 -124.700596 
L 165.54784 -129.170079 
L 163.081797 -133.440688 
L 160.615754 -137.484191 
L 158.149712 -141.278763 
L 155.683669 -144.808917 
L 153.217626 -148.065254 
L 150.751583 -151.04404 
L 148.285541 -153.746667 
L 145.819498 -156.179008 
L 143.353455 -158.35073 
L 140.887412 -160.27457 
L 138.42137 -161.965631 
L 135.955327 -163.44069 
L 133.489284 -164.717577 
z
" id="mab56be6bb8" style="stroke:#4c4c4c;stroke-opacity:0.5;stroke-width:1.5;"/>
    </defs>
    <g clip-path="url(#p4977cf5152)">
     <use style="fill:#df9c20;fill-opacity:0.5;stroke:#4c4c4c;stroke-opacity:0.5;stroke-width:1.5;" x="0" xlink:href="#mab56be6bb8" y="345.6"/>
    </g>
   </g>
   <g id="PolyCollection_2">
    <defs>
     <path d="M 73.832727 -165.855173 
L 73.832727 -176.288827 
L 77.112066 -177.223618 
L 80.391405 -178.288389 
L 83.670744 -179.494256 
L 86.950083 -180.852172 
L 90.229421 -182.372741 
L 93.50876 -184.066019 
L 96.788099 -185.941312 
L 100.067438 -188.006963 
L 103.346777 -190.270144 
L 106.626116 -192.736643 
L 109.905455 -195.410653 
L 113.184793 -198.294566 
L 116.464132 -201.388769 
L 119.743471 -204.691446 
L 123.02281 -208.198379 
L 126.302149 -211.902758 
L 129.581488 -215.794999 
L 132.860826 -219.862563 
L 136.140165 -224.089794 
L 139.419504 -228.457771 
L 142.698843 -232.944193 
L 145.978182 -237.523295 
L 149.257521 -242.165816 
L 152.53686 -246.839033 
L 155.816198 -251.506872 
L 159.095537 -256.130115 
L 162.374876 -260.666713 
L 165.654215 -265.072218 
L 168.933554 -269.30035 
L 172.212893 -273.303678 
L 175.492231 -277.034445 
L 178.77157 -280.445494 
L 182.050909 -283.491298 
L 185.330248 -286.129059 
L 188.609587 -288.319844 
L 191.888926 -290.029725 
L 195.168264 -291.230869 
L 198.447603 -291.902547 
L 201.726942 -292.032 
L 205.006281 -291.615133 
L 208.28562 -290.656989 
L 211.564959 -289.171974 
L 214.844298 -287.183813 
L 218.123636 -284.725216 
L 221.402975 -281.837274 
L 224.682314 -278.568565 
L 227.961653 -274.974029 
L 231.240992 -271.113623 
L 234.520331 -267.050809 
L 237.799669 -262.850927 
L 241.079008 -258.579513 
L 244.358347 -254.300612 
L 247.637686 -250.075159 
L 250.917025 -245.959476 
L 254.196364 -242.003939 
L 257.475702 -238.251852 
L 260.755041 -234.738582 
L 264.03438 -231.490953 
L 267.313719 -228.52693 
L 270.593058 -225.855599 
L 273.872397 -223.477407 
L 277.151736 -221.384685 
L 280.431074 -219.562378 
L 283.710413 -217.988994 
L 286.989752 -216.637694 
L 290.269091 -215.477496 
L 293.54843 -214.474546 
L 296.827769 -213.593403 
L 300.107107 -212.798299 
L 303.386446 -212.054324 
L 306.665785 -211.328505 
L 309.945124 -210.590756 
L 313.224463 -209.814649 
L 316.503802 -208.978022 
L 319.78314 -208.063387 
L 323.062479 -207.058156 
L 326.341818 -205.954673 
L 329.621157 -204.750083 
L 332.900496 -203.446039 
L 336.179835 -202.048285 
L 339.459174 -200.566119 
L 342.738512 -199.011796 
L 346.017851 -197.399865 
L 349.29719 -195.746496 
L 352.576529 -194.068811 
L 355.855868 -192.384242 
L 359.135207 -190.709942 
L 362.414545 -189.062268 
L 365.693884 -187.45634 
L 368.973223 -185.905687 
L 372.252562 -184.421991 
L 375.531901 -183.014917 
L 378.81124 -181.692033 
L 382.090579 -180.458802 
L 385.369917 -179.318659 
L 388.649256 -178.273127 
L 391.928595 -177.321994 
L 395.207934 -176.463518 
L 398.487273 -175.694654 
L 398.487273 -166.449346 
L 398.487273 -166.449346 
L 395.207934 -165.680482 
L 391.928595 -164.822006 
L 388.649256 -163.870873 
L 385.369917 -162.825341 
L 382.090579 -161.685198 
L 378.81124 -160.451967 
L 375.531901 -159.129083 
L 372.252562 -157.722009 
L 368.973223 -156.238313 
L 365.693884 -154.68766 
L 362.414545 -153.081732 
L 359.135207 -151.434058 
L 355.855868 -149.759758 
L 352.576529 -148.075189 
L 349.29719 -146.397504 
L 346.017851 -144.744135 
L 342.738512 -143.132204 
L 339.459174 -141.577881 
L 336.179835 -140.095715 
L 332.900496 -138.697961 
L 329.621157 -137.393917 
L 326.341818 -136.189327 
L 323.062479 -135.085844 
L 319.78314 -134.080613 
L 316.503802 -133.165978 
L 313.224463 -132.329351 
L 309.945124 -131.553244 
L 306.665785 -130.815495 
L 303.386446 -130.089676 
L 300.107107 -129.345701 
L 296.827769 -128.550597 
L 293.54843 -127.669454 
L 290.269091 -126.666504 
L 286.989752 -125.506306 
L 283.710413 -124.155006 
L 280.431074 -122.581622 
L 277.151736 -120.759315 
L 273.872397 -118.666593 
L 270.593058 -116.288401 
L 267.313719 -113.61707 
L 264.03438 -110.653047 
L 260.755041 -107.405418 
L 257.475702 -103.892148 
L 254.196364 -100.140061 
L 250.917025 -96.184524 
L 247.637686 -92.068841 
L 244.358347 -87.843388 
L 241.079008 -83.564487 
L 237.799669 -79.293073 
L 234.520331 -75.093191 
L 231.240992 -71.030377 
L 227.961653 -67.169971 
L 224.682314 -63.575435 
L 221.402975 -60.306726 
L 218.123636 -57.418784 
L 214.844298 -54.960187 
L 211.564959 -52.972026 
L 208.28562 -51.487011 
L 205.006281 -50.528867 
L 201.726942 -50.112 
L 198.447603 -50.241453 
L 195.168264 -50.913131 
L 191.888926 -52.114275 
L 188.609587 -53.824156 
L 185.330248 -56.014941 
L 182.050909 -58.652702 
L 178.77157 -61.698506 
L 175.492231 -65.109555 
L 172.212893 -68.840322 
L 168.933554 -72.84365 
L 165.654215 -77.071782 
L 162.374876 -81.477287 
L 159.095537 -86.013885 
L 155.816198 -90.637128 
L 152.53686 -95.304967 
L 149.257521 -99.978184 
L 145.978182 -104.620705 
L 142.698843 -109.199807 
L 139.419504 -113.686229 
L 136.140165 -118.054206 
L 132.860826 -122.281437 
L 129.581488 -126.349001 
L 126.302149 -130.241242 
L 123.02281 -133.945621 
L 119.743471 -137.452554 
L 116.464132 -140.755231 
L 113.184793 -143.849434 
L 109.905455 -146.733347 
L 106.626116 -149.407357 
L 103.346777 -151.873856 
L 100.067438 -154.137037 
L 96.788099 -156.202688 
L 93.50876 -158.077981 
L 90.229421 -159.771259 
L 86.950083 -161.291828 
L 83.670744 -162.649744 
L 80.391405 -163.855611 
L 77.112066 -164.920382 
L 73.832727 -165.855173 
z
" id="m1449d632c5" style="stroke:#262626;stroke-opacity:0.5;stroke-width:1.5;"/>
    </defs>
    <g clip-path="url(#p4977cf5152)">
     <use style="fill:#107010;fill-opacity:0.5;stroke:#262626;stroke-opacity:0.5;stroke-width:1.5;" x="0" xlink:href="#m1449d632c5" y="345.6"/>
    </g>
   </g>
   <g id="matplotlib.axis_1">
    <g id="xtick_1">
     <g id="line2d_1">
      <defs>
       <path d="M 0 0 
L 0 3.5 
" id="m5c4bde1214" style="stroke:#000000;stroke-width:0.8;"/>
      </defs>
      <g>
       <use style="stroke:#000000;stroke-width:0.8;" x="90.975794" xlink:href="#m5c4bde1214" y="307.584"/>
      </g>
     </g>
     <g id="text_1">
      <!-- −20 -->
      <defs>
       <path d="M 10.59375 35.5 
L 73.1875 35.5 
L 73.1875 27.203125 
L 10.59375 27.203125 
z
" id="DejaVuSans-8722"/>
       <path d="M 19.1875 8.296875 
L 53.609375 8.296875 
L 53.609375 0 
L 7.328125 0 
L 7.328125 8.296875 
Q 12.9375 14.109375 22.625 23.890625 
Q 32.328125 33.6875 34.8125 36.53125 
Q 39.546875 41.84375 41.421875 45.53125 
Q 43.3125 49.21875 43.3125 52.78125 
Q 43.3125 58.59375 39.234375 62.25 
Q 35.15625 65.921875 28.609375 65.921875 
Q 23.96875 65.921875 18.8125 64.3125 
Q 13.671875 62.703125 7.8125 59.421875 
L 7.8125 69.390625 
Q 13.765625 71.78125 18.9375 73 
Q 24.125 74.21875 28.421875 74.21875 
Q 39.75 74.21875 46.484375 68.546875 
Q 53.21875 62.890625 53.21875 53.421875 
Q 53.21875 48.921875 51.53125 44.890625 
Q 49.859375 40.875 45.40625 35.40625 
Q 44.1875 33.984375 37.640625 27.21875 
Q 31.109375 20.453125 19.1875 8.296875 
z
" id="DejaVuSans-50"/>
       <path d="M 31.78125 66.40625 
Q 24.171875 66.40625 20.328125 58.90625 
Q 16.5 51.421875 16.5 36.375 
Q 16.5 21.390625 20.328125 13.890625 
Q 24.171875 6.390625 31.78125 6.390625 
Q 39.453125 6.390625 43.28125 13.890625 
Q 47.125 21.390625 47.125 36.375 
Q 47.125 51.421875 43.28125 58.90625 
Q 39.453125 66.40625 31.78125 66.40625 
z
M 31.78125 74.21875 
Q 44.046875 74.21875 50.515625 64.515625 
Q 56.984375 54.828125 56.984375 36.375 
Q 56.984375 17.96875 50.515625 8.265625 
Q 44.046875 -1.421875 31.78125 -1.421875 
Q 19.53125 -1.421875 13.0625 8.265625 
Q 6.59375 17.96875 6.59375 36.375 
Q 6.59375 54.828125 13.0625 64.515625 
Q 19.53125 74.21875 31.78125 74.21875 
z
" id="DejaVuSans-48"/>
      </defs>
      <g transform="translate(80.42345 322.182437)scale(0.1 -0.1)">
       <use xlink:href="#DejaVuSans-8722"/>
       <use x="83.789062" xlink:href="#DejaVuSans-50"/>
       <use x="147.412109" xlink:href="#DejaVuSans-48"/>
      </g>
     </g>
    </g>
    <g id="xtick_2">
     <g id="line2d_2">
      <g>
       <use style="stroke:#000000;stroke-width:0.8;" x="150.252799" xlink:href="#m5c4bde1214" y="307.584"/>
      </g>
     </g>
     <g id="text_2">
      <!-- 0 -->
      <g transform="translate(147.071549 322.182437)scale(0.1 -0.1)">
       <use xlink:href="#DejaVuSans-48"/>
      </g>
     </g>
    </g>
    <g id="xtick_3">
     <g id="line2d_3">
      <g>
       <use style="stroke:#000000;stroke-width:0.8;" x="209.529805" xlink:href="#m5c4bde1214" y="307.584"/>
      </g>
     </g>
     <g id="text_3">
      <!-- 20 -->
      <g transform="translate(203.167305 322.182437)scale(0.1 -0.1)">
       <use xlink:href="#DejaVuSans-50"/>
       <use x="63.623047" xlink:href="#DejaVuSans-48"/>
      </g>
     </g>
    </g>
    <g id="xtick_4">
     <g id="line2d_4">
      <g>
       <use style="stroke:#000000;stroke-width:0.8;" x="268.806811" xlink:href="#m5c4bde1214" y="307.584"/>
      </g>
     </g>
     <g id="text_4">
      <!-- 40 -->
      <defs>
       <path d="M 37.796875 64.3125 
L 12.890625 25.390625 
L 37.796875 25.390625 
z
M 35.203125 72.90625 
L 47.609375 72.90625 
L 47.609375 25.390625 
L 58.015625 25.390625 
L 58.015625 17.1875 
L 47.609375 17.1875 
L 47.609375 0 
L 37.796875 0 
L 37.796875 17.1875 
L 4.890625 17.1875 
L 4.890625 26.703125 
z
" id="DejaVuSans-52"/>
      </defs>
      <g transform="translate(262.444311 322.182437)scale(0.1 -0.1)">
       <use xlink:href="#DejaVuSans-52"/>
       <use x="63.623047" xlink:href="#DejaVuSans-48"/>
      </g>
     </g>
    </g>
    <g id="xtick_5">
     <g id="line2d_5">
      <g>
       <use style="stroke:#000000;stroke-width:0.8;" x="328.083817" xlink:href="#m5c4bde1214" y="307.584"/>
      </g>
     </g>
     <g id="text_5">
      <!-- 60 -->
      <defs>
       <path d="M 33.015625 40.375 
Q 26.375 40.375 22.484375 35.828125 
Q 18.609375 31.296875 18.609375 23.390625 
Q 18.609375 15.53125 22.484375 10.953125 
Q 26.375 6.390625 33.015625 6.390625 
Q 39.65625 6.390625 43.53125 10.953125 
Q 47.40625 15.53125 47.40625 23.390625 
Q 47.40625 31.296875 43.53125 35.828125 
Q 39.65625 40.375 33.015625 40.375 
z
M 52.59375 71.296875 
L 52.59375 62.3125 
Q 48.875 64.0625 45.09375 64.984375 
Q 41.3125 65.921875 37.59375 65.921875 
Q 27.828125 65.921875 22.671875 59.328125 
Q 17.53125 52.734375 16.796875 39.40625 
Q 19.671875 43.65625 24.015625 45.921875 
Q 28.375 48.1875 33.59375 48.1875 
Q 44.578125 48.1875 50.953125 41.515625 
Q 57.328125 34.859375 57.328125 23.390625 
Q 57.328125 12.15625 50.6875 5.359375 
Q 44.046875 -1.421875 33.015625 -1.421875 
Q 20.359375 -1.421875 13.671875 8.265625 
Q 6.984375 17.96875 6.984375 36.375 
Q 6.984375 53.65625 15.1875 63.9375 
Q 23.390625 74.21875 37.203125 74.21875 
Q 40.921875 74.21875 44.703125 73.484375 
Q 48.484375 72.75 52.59375 71.296875 
z
" id="DejaVuSans-54"/>
      </defs>
      <g transform="translate(321.721317 322.182437)scale(0.1 -0.1)">
       <use xlink:href="#DejaVuSans-54"/>
       <use x="63.623047" xlink:href="#DejaVuSans-48"/>
      </g>
     </g>
    </g>
    <g id="xtick_6">
     <g id="line2d_6">
      <g>
       <use style="stroke:#000000;stroke-width:0.8;" x="387.360822" xlink:href="#m5c4bde1214" y="307.584"/>
      </g>
     </g>
     <g id="text_6">
      <!-- 80 -->
      <defs>
       <path d="M 31.78125 34.625 
Q 24.75 34.625 20.71875 30.859375 
Q 16.703125 27.09375 16.703125 20.515625 
Q 16.703125 13.921875 20.71875 10.15625 
Q 24.75 6.390625 31.78125 6.390625 
Q 38.8125 6.390625 42.859375 10.171875 
Q 46.921875 13.96875 46.921875 20.515625 
Q 46.921875 27.09375 42.890625 30.859375 
Q 38.875 34.625 31.78125 34.625 
z
M 21.921875 38.8125 
Q 15.578125 40.375 12.03125 44.71875 
Q 8.5 49.078125 8.5 55.328125 
Q 8.5 64.0625 14.71875 69.140625 
Q 20.953125 74.21875 31.78125 74.21875 
Q 42.671875 74.21875 48.875 69.140625 
Q 55.078125 64.0625 55.078125 55.328125 
Q 55.078125 49.078125 51.53125 44.71875 
Q 48 40.375 41.703125 38.8125 
Q 48.828125 37.15625 52.796875 32.3125 
Q 56.78125 27.484375 56.78125 20.515625 
Q 56.78125 9.90625 50.3125 4.234375 
Q 43.84375 -1.421875 31.78125 -1.421875 
Q 19.734375 -1.421875 13.25 4.234375 
Q 6.78125 9.90625 6.78125 20.515625 
Q 6.78125 27.484375 10.78125 32.3125 
Q 14.796875 37.15625 21.921875 38.8125 
z
M 18.3125 54.390625 
Q 18.3125 48.734375 21.84375 45.5625 
Q 25.390625 42.390625 31.78125 42.390625 
Q 38.140625 42.390625 41.71875 45.5625 
Q 45.3125 48.734375 45.3125 54.390625 
Q 45.3125 60.0625 41.71875 63.234375 
Q 38.140625 66.40625 31.78125 66.40625 
Q 25.390625 66.40625 21.84375 63.234375 
Q 18.3125 60.0625 18.3125 54.390625 
z
" id="DejaVuSans-56"/>
      </defs>
      <g transform="translate(380.998322 322.182437)scale(0.1 -0.1)">
       <use xlink:href="#DejaVuSans-56"/>
       <use x="63.623047" xlink:href="#DejaVuSans-48"/>
      </g>
     </g>
    </g>
    <g id="text_7">
     <!-- cd4_percent_most_recent -->
     <defs>
      <path d="M 48.78125 52.59375 
L 48.78125 44.1875 
Q 44.96875 46.296875 41.140625 47.34375 
Q 37.3125 48.390625 33.40625 48.390625 
Q 24.65625 48.390625 19.8125 42.84375 
Q 14.984375 37.3125 14.984375 27.296875 
Q 14.984375 17.28125 19.8125 11.734375 
Q 24.65625 6.203125 33.40625 6.203125 
Q 37.3125 6.203125 41.140625 7.25 
Q 44.96875 8.296875 48.78125 10.40625 
L 48.78125 2.09375 
Q 45.015625 0.34375 40.984375 -0.53125 
Q 36.96875 -1.421875 32.421875 -1.421875 
Q 20.0625 -1.421875 12.78125 6.34375 
Q 5.515625 14.109375 5.515625 27.296875 
Q 5.515625 40.671875 12.859375 48.328125 
Q 20.21875 56 33.015625 56 
Q 37.15625 56 41.109375 55.140625 
Q 45.0625 54.296875 48.78125 52.59375 
z
" id="DejaVuSans-99"/>
      <path d="M 45.40625 46.390625 
L 45.40625 75.984375 
L 54.390625 75.984375 
L 54.390625 0 
L 45.40625 0 
L 45.40625 8.203125 
Q 42.578125 3.328125 38.25 0.953125 
Q 33.9375 -1.421875 27.875 -1.421875 
Q 17.96875 -1.421875 11.734375 6.484375 
Q 5.515625 14.40625 5.515625 27.296875 
Q 5.515625 40.1875 11.734375 48.09375 
Q 17.96875 56 27.875 56 
Q 33.9375 56 38.25 53.625 
Q 42.578125 51.265625 45.40625 46.390625 
z
M 14.796875 27.296875 
Q 14.796875 17.390625 18.875 11.75 
Q 22.953125 6.109375 30.078125 6.109375 
Q 37.203125 6.109375 41.296875 11.75 
Q 45.40625 17.390625 45.40625 27.296875 
Q 45.40625 37.203125 41.296875 42.84375 
Q 37.203125 48.484375 30.078125 48.484375 
Q 22.953125 48.484375 18.875 42.84375 
Q 14.796875 37.203125 14.796875 27.296875 
z
" id="DejaVuSans-100"/>
      <path d="M 50.984375 -16.609375 
L 50.984375 -23.578125 
L -0.984375 -23.578125 
L -0.984375 -16.609375 
z
" id="DejaVuSans-95"/>
      <path d="M 18.109375 8.203125 
L 18.109375 -20.796875 
L 9.078125 -20.796875 
L 9.078125 54.6875 
L 18.109375 54.6875 
L 18.109375 46.390625 
Q 20.953125 51.265625 25.265625 53.625 
Q 29.59375 56 35.59375 56 
Q 45.5625 56 51.78125 48.09375 
Q 58.015625 40.1875 58.015625 27.296875 
Q 58.015625 14.40625 51.78125 6.484375 
Q 45.5625 -1.421875 35.59375 -1.421875 
Q 29.59375 -1.421875 25.265625 0.953125 
Q 20.953125 3.328125 18.109375 8.203125 
z
M 48.6875 27.296875 
Q 48.6875 37.203125 44.609375 42.84375 
Q 40.53125 48.484375 33.40625 48.484375 
Q 26.265625 48.484375 22.1875 42.84375 
Q 18.109375 37.203125 18.109375 27.296875 
Q 18.109375 17.390625 22.1875 11.75 
Q 26.265625 6.109375 33.40625 6.109375 
Q 40.53125 6.109375 44.609375 11.75 
Q 48.6875 17.390625 48.6875 27.296875 
z
" id="DejaVuSans-112"/>
      <path d="M 56.203125 29.59375 
L 56.203125 25.203125 
L 14.890625 25.203125 
Q 15.484375 15.921875 20.484375 11.0625 
Q 25.484375 6.203125 34.421875 6.203125 
Q 39.59375 6.203125 44.453125 7.46875 
Q 49.3125 8.734375 54.109375 11.28125 
L 54.109375 2.78125 
Q 49.265625 0.734375 44.1875 -0.34375 
Q 39.109375 -1.421875 33.890625 -1.421875 
Q 20.796875 -1.421875 13.15625 6.1875 
Q 5.515625 13.8125 5.515625 26.8125 
Q 5.515625 40.234375 12.765625 48.109375 
Q 20.015625 56 32.328125 56 
Q 43.359375 56 49.78125 48.890625 
Q 56.203125 41.796875 56.203125 29.59375 
z
M 47.21875 32.234375 
Q 47.125 39.59375 43.09375 43.984375 
Q 39.0625 48.390625 32.421875 48.390625 
Q 24.90625 48.390625 20.390625 44.140625 
Q 15.875 39.890625 15.1875 32.171875 
z
" id="DejaVuSans-101"/>
      <path d="M 41.109375 46.296875 
Q 39.59375 47.171875 37.8125 47.578125 
Q 36.03125 48 33.890625 48 
Q 26.265625 48 22.1875 43.046875 
Q 18.109375 38.09375 18.109375 28.8125 
L 18.109375 0 
L 9.078125 0 
L 9.078125 54.6875 
L 18.109375 54.6875 
L 18.109375 46.1875 
Q 20.953125 51.171875 25.484375 53.578125 
Q 30.03125 56 36.53125 56 
Q 37.453125 56 38.578125 55.875 
Q 39.703125 55.765625 41.0625 55.515625 
z
" id="DejaVuSans-114"/>
      <path d="M 54.890625 33.015625 
L 54.890625 0 
L 45.90625 0 
L 45.90625 32.71875 
Q 45.90625 40.484375 42.875 44.328125 
Q 39.84375 48.1875 33.796875 48.1875 
Q 26.515625 48.1875 22.3125 43.546875 
Q 18.109375 38.921875 18.109375 30.90625 
L 18.109375 0 
L 9.078125 0 
L 9.078125 54.6875 
L 18.109375 54.6875 
L 18.109375 46.1875 
Q 21.34375 51.125 25.703125 53.5625 
Q 30.078125 56 35.796875 56 
Q 45.21875 56 50.046875 50.171875 
Q 54.890625 44.34375 54.890625 33.015625 
z
" id="DejaVuSans-110"/>
      <path d="M 18.3125 70.21875 
L 18.3125 54.6875 
L 36.8125 54.6875 
L 36.8125 47.703125 
L 18.3125 47.703125 
L 18.3125 18.015625 
Q 18.3125 11.328125 20.140625 9.421875 
Q 21.96875 7.515625 27.59375 7.515625 
L 36.8125 7.515625 
L 36.8125 0 
L 27.59375 0 
Q 17.1875 0 13.234375 3.875 
Q 9.28125 7.765625 9.28125 18.015625 
L 9.28125 47.703125 
L 2.6875 47.703125 
L 2.6875 54.6875 
L 9.28125 54.6875 
L 9.28125 70.21875 
z
" id="DejaVuSans-116"/>
      <path d="M 52 44.1875 
Q 55.375 50.25 60.0625 53.125 
Q 64.75 56 71.09375 56 
Q 79.640625 56 84.28125 50.015625 
Q 88.921875 44.046875 88.921875 33.015625 
L 88.921875 0 
L 79.890625 0 
L 79.890625 32.71875 
Q 79.890625 40.578125 77.09375 44.375 
Q 74.3125 48.1875 68.609375 48.1875 
Q 61.625 48.1875 57.5625 43.546875 
Q 53.515625 38.921875 53.515625 30.90625 
L 53.515625 0 
L 44.484375 0 
L 44.484375 32.71875 
Q 44.484375 40.625 41.703125 44.40625 
Q 38.921875 48.1875 33.109375 48.1875 
Q 26.21875 48.1875 22.15625 43.53125 
Q 18.109375 38.875 18.109375 30.90625 
L 18.109375 0 
L 9.078125 0 
L 9.078125 54.6875 
L 18.109375 54.6875 
L 18.109375 46.1875 
Q 21.1875 51.21875 25.484375 53.609375 
Q 29.78125 56 35.6875 56 
Q 41.65625 56 45.828125 52.96875 
Q 50 49.953125 52 44.1875 
z
" id="DejaVuSans-109"/>
      <path d="M 30.609375 48.390625 
Q 23.390625 48.390625 19.1875 42.75 
Q 14.984375 37.109375 14.984375 27.296875 
Q 14.984375 17.484375 19.15625 11.84375 
Q 23.34375 6.203125 30.609375 6.203125 
Q 37.796875 6.203125 41.984375 11.859375 
Q 46.1875 17.53125 46.1875 27.296875 
Q 46.1875 37.015625 41.984375 42.703125 
Q 37.796875 48.390625 30.609375 48.390625 
z
M 30.609375 56 
Q 42.328125 56 49.015625 48.375 
Q 55.71875 40.765625 55.71875 27.296875 
Q 55.71875 13.875 49.015625 6.21875 
Q 42.328125 -1.421875 30.609375 -1.421875 
Q 18.84375 -1.421875 12.171875 6.21875 
Q 5.515625 13.875 5.515625 27.296875 
Q 5.515625 40.765625 12.171875 48.375 
Q 18.84375 56 30.609375 56 
z
" id="DejaVuSans-111"/>
      <path d="M 44.28125 53.078125 
L 44.28125 44.578125 
Q 40.484375 46.53125 36.375 47.5 
Q 32.28125 48.484375 27.875 48.484375 
Q 21.1875 48.484375 17.84375 46.4375 
Q 14.5 44.390625 14.5 40.28125 
Q 14.5 37.15625 16.890625 35.375 
Q 19.28125 33.59375 26.515625 31.984375 
L 29.59375 31.296875 
Q 39.15625 29.25 43.1875 25.515625 
Q 47.21875 21.78125 47.21875 15.09375 
Q 47.21875 7.46875 41.1875 3.015625 
Q 35.15625 -1.421875 24.609375 -1.421875 
Q 20.21875 -1.421875 15.453125 -0.5625 
Q 10.6875 0.296875 5.421875 2 
L 5.421875 11.28125 
Q 10.40625 8.6875 15.234375 7.390625 
Q 20.0625 6.109375 24.8125 6.109375 
Q 31.15625 6.109375 34.5625 8.28125 
Q 37.984375 10.453125 37.984375 14.40625 
Q 37.984375 18.0625 35.515625 20.015625 
Q 33.0625 21.96875 24.703125 23.78125 
L 21.578125 24.515625 
Q 13.234375 26.265625 9.515625 29.90625 
Q 5.8125 33.546875 5.8125 39.890625 
Q 5.8125 47.609375 11.28125 51.796875 
Q 16.75 56 26.8125 56 
Q 31.78125 56 36.171875 55.265625 
Q 40.578125 54.546875 44.28125 53.078125 
z
" id="DejaVuSans-115"/>
     </defs>
     <g transform="translate(171.938125 335.860562)scale(0.1 -0.1)">
      <use xlink:href="#DejaVuSans-99"/>
      <use x="54.980469" xlink:href="#DejaVuSans-100"/>
      <use x="118.457031" xlink:href="#DejaVuSans-52"/>
      <use x="182.080078" xlink:href="#DejaVuSans-95"/>
      <use x="232.080078" xlink:href="#DejaVuSans-112"/>
      <use x="295.556641" xlink:href="#DejaVuSans-101"/>
      <use x="357.080078" xlink:href="#DejaVuSans-114"/>
      <use x="395.943359" xlink:href="#DejaVuSans-99"/>
      <use x="450.923828" xlink:href="#DejaVuSans-101"/>
      <use x="512.447266" xlink:href="#DejaVuSans-110"/>
      <use x="575.826172" xlink:href="#DejaVuSans-116"/>
      <use x="615.035156" xlink:href="#DejaVuSans-95"/>
      <use x="665.035156" xlink:href="#DejaVuSans-109"/>
      <use x="762.447266" xlink:href="#DejaVuSans-111"/>
      <use x="823.628906" xlink:href="#DejaVuSans-115"/>
      <use x="875.728516" xlink:href="#DejaVuSans-116"/>
      <use x="914.9375" xlink:href="#DejaVuSans-95"/>
      <use x="964.9375" xlink:href="#DejaVuSans-114"/>
      <use x="1003.800781" xlink:href="#DejaVuSans-101"/>
      <use x="1065.324219" xlink:href="#DejaVuSans-99"/>
      <use x="1120.304688" xlink:href="#DejaVuSans-101"/>
      <use x="1181.828125" xlink:href="#DejaVuSans-110"/>
      <use x="1245.207031" xlink:href="#DejaVuSans-116"/>
     </g>
    </g>
   </g>
   <g id="matplotlib.axis_2">
    <g id="ytick_1">
     <g id="line2d_7">
      <defs>
       <path d="M 0 0 
L -3.5 0 
" id="m6d80b78761" style="stroke:#000000;stroke-width:0.8;"/>
      </defs>
      <g>
       <use style="stroke:#000000;stroke-width:0.8;" x="57.6" xlink:href="#m6d80b78761" y="174.528"/>
      </g>
     </g>
    </g>
   </g>
   <g id="line2d_8">
    <path clip-path="url(#p4977cf5152)" d="M 192.635859 174.528 
L 318.480942 174.528 
" style="fill:none;stroke:#ffa500;stroke-linecap:square;stroke-width:1.5;"/>
   </g>
   <g id="line2d_9">
    <path clip-path="url(#p4977cf5152)" d="M 209.8336 174.528 
L 289.427799 174.528 
" style="fill:none;stroke:#4c4c4c;stroke-linecap:square;stroke-width:4.5;"/>
   </g>
   <g id="line2d_10">
    <path clip-path="url(#p4977cf5152)" d="M 203.09825 174.528 
L 212.760402 174.528 
" style="fill:none;stroke:#008000;stroke-linecap:square;stroke-width:1.5;"/>
   </g>
   <g id="line2d_11">
    <path clip-path="url(#p4977cf5152)" d="M 203.09825 174.528 
L 212.760402 174.528 
" style="fill:none;stroke:#262626;stroke-linecap:square;stroke-width:4.5;"/>
   </g>
   <g id="patch_3">
    <path d="M 57.6 307.584 
L 57.6 41.472 
" style="fill:none;stroke:#000000;stroke-linecap:square;stroke-linejoin:miter;stroke-width:0.8;"/>
   </g>
   <g id="patch_4">
    <path d="M 414.72 307.584 
L 414.72 41.472 
" style="fill:none;stroke:#000000;stroke-linecap:square;stroke-linejoin:miter;stroke-width:0.8;"/>
   </g>
   <g id="patch_5">
    <path d="M 57.6 307.584 
L 414.72 307.584 
" style="fill:none;stroke:#000000;stroke-linecap:square;stroke-linejoin:miter;stroke-width:0.8;"/>
   </g>
   <g id="patch_6">
    <path d="M 57.6 41.472 
L 414.72 41.472 
" style="fill:none;stroke:#000000;stroke-linecap:square;stroke-linejoin:miter;stroke-width:0.8;"/>
   </g>
   <g id="PathCollection_1">
    <defs>
     <path d="M 0 1.5 
C 0.397805 1.5 0.77937 1.341951 1.06066 1.06066 
C 1.341951 0.77937 1.5 0.397805 1.5 0 
C 1.5 -0.397805 1.341951 -0.77937 1.06066 -1.06066 
C 0.77937 -1.341951 0.397805 -1.5 0 -1.5 
C -0.397805 -1.5 -0.77937 -1.341951 -1.06066 -1.06066 
C -1.341951 -0.77937 -1.5 -0.397805 -1.5 0 
C -1.5 0.397805 -1.341951 0.77937 -1.06066 1.06066 
C -0.77937 1.341951 -0.397805 1.5 0 1.5 
z
" id="m330044234a" style="stroke:#4c4c4c;stroke-opacity:0.5;"/>
    </defs>
    <g clip-path="url(#p4977cf5152)">
     <use style="fill:#ffffff;fill-opacity:0.5;stroke:#4c4c4c;stroke-opacity:0.5;" x="263.501519" xlink:href="#m330044234a" y="174.528"/>
    </g>
   </g>
   <g id="PathCollection_2">
    <defs>
     <path d="M 0 1.5 
C 0.397805 1.5 0.77937 1.341951 1.06066 1.06066 
C 1.341951 0.77937 1.5 0.397805 1.5 0 
C 1.5 -0.397805 1.341951 -0.77937 1.06066 -1.06066 
C 0.77937 -1.341951 0.397805 -1.5 0 -1.5 
C -0.397805 -1.5 -0.77937 -1.341951 -1.06066 -1.06066 
C -1.341951 -0.77937 -1.5 -0.397805 -1.5 0 
C -1.5 0.397805 -1.341951 0.77937 -1.06066 1.06066 
C -0.77937 1.341951 -0.397805 1.5 0 1.5 
z
" id="mbb89a652f1" style="stroke:#262626;stroke-opacity:0.5;"/>
    </defs>
    <g clip-path="url(#p4977cf5152)">
     <use style="fill:#ffffff;fill-opacity:0.5;stroke:#262626;stroke-opacity:0.5;" x="209.974383" xlink:href="#mbb89a652f1" y="174.528"/>
    </g>
   </g>
   <g id="text_8">
    <!-- Association of cd4_percent_most_recent vs. nasal_cannula -->
    <defs>
     <path d="M 34.1875 63.1875 
L 20.796875 26.90625 
L 47.609375 26.90625 
z
M 28.609375 72.90625 
L 39.796875 72.90625 
L 67.578125 0 
L 57.328125 0 
L 50.6875 18.703125 
L 17.828125 18.703125 
L 11.1875 0 
L 0.78125 0 
z
" id="DejaVuSans-65"/>
     <path d="M 9.421875 54.6875 
L 18.40625 54.6875 
L 18.40625 0 
L 9.421875 0 
z
M 9.421875 75.984375 
L 18.40625 75.984375 
L 18.40625 64.59375 
L 9.421875 64.59375 
z
" id="DejaVuSans-105"/>
     <path d="M 34.28125 27.484375 
Q 23.390625 27.484375 19.1875 25 
Q 14.984375 22.515625 14.984375 16.5 
Q 14.984375 11.71875 18.140625 8.90625 
Q 21.296875 6.109375 26.703125 6.109375 
Q 34.1875 6.109375 38.703125 11.40625 
Q 43.21875 16.703125 43.21875 25.484375 
L 43.21875 27.484375 
z
M 52.203125 31.203125 
L 52.203125 0 
L 43.21875 0 
L 43.21875 8.296875 
Q 40.140625 3.328125 35.546875 0.953125 
Q 30.953125 -1.421875 24.3125 -1.421875 
Q 15.921875 -1.421875 10.953125 3.296875 
Q 6 8.015625 6 15.921875 
Q 6 25.140625 12.171875 29.828125 
Q 18.359375 34.515625 30.609375 34.515625 
L 43.21875 34.515625 
L 43.21875 35.40625 
Q 43.21875 41.609375 39.140625 45 
Q 35.0625 48.390625 27.6875 48.390625 
Q 23 48.390625 18.546875 47.265625 
Q 14.109375 46.140625 10.015625 43.890625 
L 10.015625 52.203125 
Q 14.9375 54.109375 19.578125 55.046875 
Q 24.21875 56 28.609375 56 
Q 40.484375 56 46.34375 49.84375 
Q 52.203125 43.703125 52.203125 31.203125 
z
" id="DejaVuSans-97"/>
     <path id="DejaVuSans-32"/>
     <path d="M 37.109375 75.984375 
L 37.109375 68.5 
L 28.515625 68.5 
Q 23.6875 68.5 21.796875 66.546875 
Q 19.921875 64.59375 19.921875 59.515625 
L 19.921875 54.6875 
L 34.71875 54.6875 
L 34.71875 47.703125 
L 19.921875 47.703125 
L 19.921875 0 
L 10.890625 0 
L 10.890625 47.703125 
L 2.296875 47.703125 
L 2.296875 54.6875 
L 10.890625 54.6875 
L 10.890625 58.5 
Q 10.890625 67.625 15.140625 71.796875 
Q 19.390625 75.984375 28.609375 75.984375 
z
" id="DejaVuSans-102"/>
     <path d="M 2.984375 54.6875 
L 12.5 54.6875 
L 29.59375 8.796875 
L 46.6875 54.6875 
L 56.203125 54.6875 
L 35.6875 0 
L 23.484375 0 
z
" id="DejaVuSans-118"/>
     <path d="M 10.6875 12.40625 
L 21 12.40625 
L 21 0 
L 10.6875 0 
z
" id="DejaVuSans-46"/>
     <path d="M 9.421875 75.984375 
L 18.40625 75.984375 
L 18.40625 0 
L 9.421875 0 
z
" id="DejaVuSans-108"/>
     <path d="M 8.5 21.578125 
L 8.5 54.6875 
L 17.484375 54.6875 
L 17.484375 21.921875 
Q 17.484375 14.15625 20.5 10.265625 
Q 23.53125 6.390625 29.59375 6.390625 
Q 36.859375 6.390625 41.078125 11.03125 
Q 45.3125 15.671875 45.3125 23.6875 
L 45.3125 54.6875 
L 54.296875 54.6875 
L 54.296875 0 
L 45.3125 0 
L 45.3125 8.40625 
Q 42.046875 3.421875 37.71875 1 
Q 33.40625 -1.421875 27.6875 -1.421875 
Q 18.265625 -1.421875 13.375 4.4375 
Q 8.5 10.296875 8.5 21.578125 
z
M 31.109375 56 
z
" id="DejaVuSans-117"/>
    </defs>
    <g transform="translate(60.260625 35.472)scale(0.12 -0.12)">
     <use xlink:href="#DejaVuSans-65"/>
     <use x="68.408203" xlink:href="#DejaVuSans-115"/>
     <use x="120.507812" xlink:href="#DejaVuSans-115"/>
     <use x="172.607422" xlink:href="#DejaVuSans-111"/>
     <use x="233.789062" xlink:href="#DejaVuSans-99"/>
     <use x="288.769531" xlink:href="#DejaVuSans-105"/>
     <use x="316.552734" xlink:href="#DejaVuSans-97"/>
     <use x="377.832031" xlink:href="#DejaVuSans-116"/>
     <use x="417.041016" xlink:href="#DejaVuSans-105"/>
     <use x="444.824219" xlink:href="#DejaVuSans-111"/>
     <use x="506.005859" xlink:href="#DejaVuSans-110"/>
     <use x="569.384766" xlink:href="#DejaVuSans-32"/>
     <use x="601.171875" xlink:href="#DejaVuSans-111"/>
     <use x="662.353516" xlink:href="#DejaVuSans-102"/>
     <use x="697.558594" xlink:href="#DejaVuSans-32"/>
     <use x="729.345703" xlink:href="#DejaVuSans-99"/>
     <use x="784.326172" xlink:href="#DejaVuSans-100"/>
     <use x="847.802734" xlink:href="#DejaVuSans-52"/>
     <use x="911.425781" xlink:href="#DejaVuSans-95"/>
     <use x="961.425781" xlink:href="#DejaVuSans-112"/>
     <use x="1024.902344" xlink:href="#DejaVuSans-101"/>
     <use x="1086.425781" xlink:href="#DejaVuSans-114"/>
     <use x="1125.289062" xlink:href="#DejaVuSans-99"/>
     <use x="1180.269531" xlink:href="#DejaVuSans-101"/>
     <use x="1241.792969" xlink:href="#DejaVuSans-110"/>
     <use x="1305.171875" xlink:href="#DejaVuSans-116"/>
     <use x="1344.380859" xlink:href="#DejaVuSans-95"/>
     <use x="1394.380859" xlink:href="#DejaVuSans-109"/>
     <use x="1491.792969" xlink:href="#DejaVuSans-111"/>
     <use x="1552.974609" xlink:href="#DejaVuSans-115"/>
     <use x="1605.074219" xlink:href="#DejaVuSans-116"/>
     <use x="1644.283203" xlink:href="#DejaVuSans-95"/>
     <use x="1694.283203" xlink:href="#DejaVuSans-114"/>
     <use x="1733.146484" xlink:href="#DejaVuSans-101"/>
     <use x="1794.669922" xlink:href="#DejaVuSans-99"/>
     <use x="1849.650391" xlink:href="#DejaVuSans-101"/>
     <use x="1911.173828" xlink:href="#DejaVuSans-110"/>
     <use x="1974.552734" xlink:href="#DejaVuSans-116"/>
     <use x="2013.761719" xlink:href="#DejaVuSans-32"/>
     <use x="2045.548828" xlink:href="#DejaVuSans-118"/>
     <use x="2104.728516" xlink:href="#DejaVuSans-115"/>
     <use x="2156.828125" xlink:href="#DejaVuSans-46"/>
     <use x="2188.615234" xlink:href="#DejaVuSans-32"/>
     <use x="2220.402344" xlink:href="#DejaVuSans-110"/>
     <use x="2283.78125" xlink:href="#DejaVuSans-97"/>
     <use x="2345.060547" xlink:href="#DejaVuSans-115"/>
     <use x="2397.160156" xlink:href="#DejaVuSans-97"/>
     <use x="2458.439453" xlink:href="#DejaVuSans-108"/>
     <use x="2486.222656" xlink:href="#DejaVuSans-95"/>
     <use x="2536.222656" xlink:href="#DejaVuSans-99"/>
     <use x="2591.203125" xlink:href="#DejaVuSans-97"/>
     <use x="2652.482422" xlink:href="#DejaVuSans-110"/>
     <use x="2715.861328" xlink:href="#DejaVuSans-110"/>
     <use x="2779.240234" xlink:href="#DejaVuSans-117"/>
     <use x="2842.619141" xlink:href="#DejaVuSans-108"/>
     <use x="2870.402344" xlink:href="#DejaVuSans-97"/>
    </g>
   </g>
   <g id="legend_1">
    <g id="patch_7">
     <path d="M 266.55125 79.3845 
L 407.72 79.3845 
Q 409.72 79.3845 409.72 77.3845 
L 409.72 48.472 
Q 409.72 46.472 407.72 46.472 
L 266.55125 46.472 
Q 264.55125 46.472 264.55125 48.472 
L 264.55125 77.3845 
Q 264.55125 79.3845 266.55125 79.3845 
z
" style="fill:#ffffff;opacity:0.8;stroke:#cccccc;stroke-linejoin:miter;"/>
    </g>
    <g id="line2d_12">
     <path d="M 268.55125 54.570438 
L 288.55125 54.570438 
" style="fill:none;stroke:#ffa500;stroke-linecap:square;stroke-width:1.5;"/>
    </g>
    <g id="line2d_13"/>
    <g id="text_9">
     <!-- nasal_cannula (10) -->
     <defs>
      <path d="M 31 75.875 
Q 24.46875 64.65625 21.28125 53.65625 
Q 18.109375 42.671875 18.109375 31.390625 
Q 18.109375 20.125 21.3125 9.0625 
Q 24.515625 -2 31 -13.1875 
L 23.1875 -13.1875 
Q 15.875 -1.703125 12.234375 9.375 
Q 8.59375 20.453125 8.59375 31.390625 
Q 8.59375 42.28125 12.203125 53.3125 
Q 15.828125 64.359375 23.1875 75.875 
z
" id="DejaVuSans-40"/>
      <path d="M 12.40625 8.296875 
L 28.515625 8.296875 
L 28.515625 63.921875 
L 10.984375 60.40625 
L 10.984375 69.390625 
L 28.421875 72.90625 
L 38.28125 72.90625 
L 38.28125 8.296875 
L 54.390625 8.296875 
L 54.390625 0 
L 12.40625 0 
z
" id="DejaVuSans-49"/>
      <path d="M 8.015625 75.875 
L 15.828125 75.875 
Q 23.140625 64.359375 26.78125 53.3125 
Q 30.421875 42.28125 30.421875 31.390625 
Q 30.421875 20.453125 26.78125 9.375 
Q 23.140625 -1.703125 15.828125 -13.1875 
L 8.015625 -13.1875 
Q 14.5 -2 17.703125 9.0625 
Q 20.90625 20.125 20.90625 31.390625 
Q 20.90625 42.671875 17.703125 53.65625 
Q 14.5 64.65625 8.015625 75.875 
z
" id="DejaVuSans-41"/>
     </defs>
     <g transform="translate(296.55125 58.070438)scale(0.1 -0.1)">
      <use xlink:href="#DejaVuSans-110"/>
      <use x="63.378906" xlink:href="#DejaVuSans-97"/>
      <use x="124.658203" xlink:href="#DejaVuSans-115"/>
      <use x="176.757812" xlink:href="#DejaVuSans-97"/>
      <use x="238.037109" xlink:href="#DejaVuSans-108"/>
      <use x="265.820312" xlink:href="#DejaVuSans-95"/>
      <use x="315.820312" xlink:href="#DejaVuSans-99"/>
      <use x="370.800781" xlink:href="#DejaVuSans-97"/>
      <use x="432.080078" xlink:href="#DejaVuSans-110"/>
      <use x="495.458984" xlink:href="#DejaVuSans-110"/>
      <use x="558.837891" xlink:href="#DejaVuSans-117"/>
      <use x="622.216797" xlink:href="#DejaVuSans-108"/>
      <use x="650" xlink:href="#DejaVuSans-97"/>
      <use x="711.279297" xlink:href="#DejaVuSans-32"/>
      <use x="743.066406" xlink:href="#DejaVuSans-40"/>
      <use x="782.080078" xlink:href="#DejaVuSans-49"/>
      <use x="845.703125" xlink:href="#DejaVuSans-48"/>
      <use x="909.326172" xlink:href="#DejaVuSans-41"/>
     </g>
    </g>
    <g id="line2d_14">
     <path d="M 268.55125 69.526688 
L 288.55125 69.526688 
" style="fill:none;stroke:#008000;stroke-linecap:square;stroke-width:1.5;"/>
    </g>
    <g id="line2d_15"/>
    <g id="text_10">
     <!-- Not nasal_cannula (5) -->
     <defs>
      <path d="M 9.8125 72.90625 
L 23.09375 72.90625 
L 55.421875 11.921875 
L 55.421875 72.90625 
L 64.984375 72.90625 
L 64.984375 0 
L 51.703125 0 
L 19.390625 60.984375 
L 19.390625 0 
L 9.8125 0 
z
" id="DejaVuSans-78"/>
      <path d="M 10.796875 72.90625 
L 49.515625 72.90625 
L 49.515625 64.59375 
L 19.828125 64.59375 
L 19.828125 46.734375 
Q 21.96875 47.46875 24.109375 47.828125 
Q 26.265625 48.1875 28.421875 48.1875 
Q 40.625 48.1875 47.75 41.5 
Q 54.890625 34.8125 54.890625 23.390625 
Q 54.890625 11.625 47.5625 5.09375 
Q 40.234375 -1.421875 26.90625 -1.421875 
Q 22.3125 -1.421875 17.546875 -0.640625 
Q 12.796875 0.140625 7.71875 1.703125 
L 7.71875 11.625 
Q 12.109375 9.234375 16.796875 8.0625 
Q 21.484375 6.890625 26.703125 6.890625 
Q 35.15625 6.890625 40.078125 11.328125 
Q 45.015625 15.765625 45.015625 23.390625 
Q 45.015625 31 40.078125 35.4375 
Q 35.15625 39.890625 26.703125 39.890625 
Q 22.75 39.890625 18.8125 39.015625 
Q 14.890625 38.140625 10.796875 36.28125 
z
" id="DejaVuSans-53"/>
     </defs>
     <g transform="translate(296.55125 73.026688)scale(0.1 -0.1)">
      <use xlink:href="#DejaVuSans-78"/>
      <use x="74.804688" xlink:href="#DejaVuSans-111"/>
      <use x="135.986328" xlink:href="#DejaVuSans-116"/>
      <use x="175.195312" xlink:href="#DejaVuSans-32"/>
      <use x="206.982422" xlink:href="#DejaVuSans-110"/>
      <use x="270.361328" xlink:href="#DejaVuSans-97"/>
      <use x="331.640625" xlink:href="#DejaVuSans-115"/>
      <use x="383.740234" xlink:href="#DejaVuSans-97"/>
      <use x="445.019531" xlink:href="#DejaVuSans-108"/>
      <use x="472.802734" xlink:href="#DejaVuSans-95"/>
      <use x="522.802734" xlink:href="#DejaVuSans-99"/>
      <use x="577.783203" xlink:href="#DejaVuSans-97"/>
      <use x="639.0625" xlink:href="#DejaVuSans-110"/>
      <use x="702.441406" xlink:href="#DejaVuSans-110"/>
      <use x="765.820312" xlink:href="#DejaVuSans-117"/>
      <use x="829.199219" xlink:href="#DejaVuSans-108"/>
      <use x="856.982422" xlink:href="#DejaVuSans-97"/>
      <use x="918.261719" xlink:href="#DejaVuSans-32"/>
      <use x="950.048828" xlink:href="#DejaVuSans-40"/>
      <use x="989.0625" xlink:href="#DejaVuSans-53"/>
      <use x="1052.685547" xlink:href="#DejaVuSans-41"/>
     </g>
    </g>
   </g>
  </g>
 </g>
 <defs>
  <clipPath id="p4977cf5152">
   <rect height="266.112" width="357.12" x="57.6" y="41.472"/>
  </clipPath>
 </defs>
</svg>
