<?xml version="1.0" encoding="utf-8" standalone="no"?>
<!DOCTYPE svg PUBLIC "-//W3C//DTD SVG 1.1//EN"
  "http://www.w3.org/Graphics/SVG/1.1/DTD/svg11.dtd">
<!-- Created with matplotlib (https://matplotlib.org/) -->
<svg height="1080pt" version="1.1" viewBox="0 0 1080 1080" width="1080pt" xmlns="http://www.w3.org/2000/svg" xmlns:xlink="http://www.w3.org/1999/xlink">
 <defs>
  <style type="text/css">
*{stroke-linecap:butt;stroke-linejoin:round;}
  </style>
 </defs>
 <g id="figure_1">
  <g id="patch_1">
   <path d="M 0 1080 
L 1080 1080 
L 1080 0 
L 0 0 
z
" style="fill:#ffffff;"/>
  </g>
  <g id="axes_1">
   <g id="patch_2">
    <path d="M 135 961.2 
L 972 961.2 
L 972 129.6 
L 135 129.6 
z
" style="fill:#ffffff;"/>
   </g>
   <g id="matplotlib.axis_1">
    <g id="xtick_1">
     <g id="line2d_1">
      <defs>
       <path d="M 0 0 
L 0 3.5 
" id="m93f1ddb20d" style="stroke:#000000;stroke-width:0.8;"/>
      </defs>
      <g>
       <use style="stroke:#000000;stroke-width:0.8;" x="173.045455" xlink:href="#m93f1ddb20d" y="961.2"/>
      </g>
     </g>
     <g id="text_1">
      <!-- 0.0 -->
      <defs>
       <path d="M 31.78125 66.40625 
Q 24.171875 66.40625 20.328125 58.90625 
Q 16.5 51.421875 16.5 36.375 
Q 16.5 21.390625 20.328125 13.890625 
Q 24.171875 6.390625 31.78125 6.390625 
Q 39.453125 6.390625 43.28125 13.890625 
Q 47.125 21.390625 47.125 36.375 
Q 47.125 51.421875 43.28125 58.90625 
Q 39.453125 66.40625 31.78125 66.40625 
z
M 31.78125 74.21875 
Q 44.046875 74.21875 50.515625 64.515625 
Q 56.984375 54.828125 56.984375 36.375 
Q 56.984375 17.96875 50.515625 8.265625 
Q 44.046875 -1.421875 31.78125 -1.421875 
Q 19.53125 -1.421875 13.0625 8.265625 
Q 6.59375 17.96875 6.59375 36.375 
Q 6.59375 54.828125 13.0625 64.515625 
Q 19.53125 74.21875 31.78125 74.21875 
z
" id="DejaVuSans-48"/>
       <path d="M 10.6875 12.40625 
L 21 12.40625 
L 21 0 
L 10.6875 0 
z
" id="DejaVuSans-46"/>
      </defs>
      <g transform="translate(165.093892 975.798437)scale(0.1 -0.1)">
       <use xlink:href="#DejaVuSans-48"/>
       <use x="63.623047" xlink:href="#DejaVuSans-46"/>
       <use x="95.410156" xlink:href="#DejaVuSans-48"/>
      </g>
     </g>
    </g>
    <g id="xtick_2">
     <g id="line2d_2">
      <g>
       <use style="stroke:#000000;stroke-width:0.8;" x="325.227273" xlink:href="#m93f1ddb20d" y="961.2"/>
      </g>
     </g>
     <g id="text_2">
      <!-- 0.2 -->
      <defs>
       <path d="M 19.1875 8.296875 
L 53.609375 8.296875 
L 53.609375 0 
L 7.328125 0 
L 7.328125 8.296875 
Q 12.9375 14.109375 22.625 23.890625 
Q 32.328125 33.6875 34.8125 36.53125 
Q 39.546875 41.84375 41.421875 45.53125 
Q 43.3125 49.21875 43.3125 52.78125 
Q 43.3125 58.59375 39.234375 62.25 
Q 35.15625 65.921875 28.609375 65.921875 
Q 23.96875 65.921875 18.8125 64.3125 
Q 13.671875 62.703125 7.8125 59.421875 
L 7.8125 69.390625 
Q 13.765625 71.78125 18.9375 73 
Q 24.125 74.21875 28.421875 74.21875 
Q 39.75 74.21875 46.484375 68.546875 
Q 53.21875 62.890625 53.21875 53.421875 
Q 53.21875 48.921875 51.53125 44.890625 
Q 49.859375 40.875 45.40625 35.40625 
Q 44.1875 33.984375 37.640625 27.21875 
Q 31.109375 20.453125 19.1875 8.296875 
z
" id="DejaVuSans-50"/>
      </defs>
      <g transform="translate(317.27571 975.798437)scale(0.1 -0.1)">
       <use xlink:href="#DejaVuSans-48"/>
       <use x="63.623047" xlink:href="#DejaVuSans-46"/>
       <use x="95.410156" xlink:href="#DejaVuSans-50"/>
      </g>
     </g>
    </g>
    <g id="xtick_3">
     <g id="line2d_3">
      <g>
       <use style="stroke:#000000;stroke-width:0.8;" x="477.409091" xlink:href="#m93f1ddb20d" y="961.2"/>
      </g>
     </g>
     <g id="text_3">
      <!-- 0.4 -->
      <defs>
       <path d="M 37.796875 64.3125 
L 12.890625 25.390625 
L 37.796875 25.390625 
z
M 35.203125 72.90625 
L 47.609375 72.90625 
L 47.609375 25.390625 
L 58.015625 25.390625 
L 58.015625 17.1875 
L 47.609375 17.1875 
L 47.609375 0 
L 37.796875 0 
L 37.796875 17.1875 
L 4.890625 17.1875 
L 4.890625 26.703125 
z
" id="DejaVuSans-52"/>
      </defs>
      <g transform="translate(469.457528 975.798437)scale(0.1 -0.1)">
       <use xlink:href="#DejaVuSans-48"/>
       <use x="63.623047" xlink:href="#DejaVuSans-46"/>
       <use x="95.410156" xlink:href="#DejaVuSans-52"/>
      </g>
     </g>
    </g>
    <g id="xtick_4">
     <g id="line2d_4">
      <g>
       <use style="stroke:#000000;stroke-width:0.8;" x="629.590909" xlink:href="#m93f1ddb20d" y="961.2"/>
      </g>
     </g>
     <g id="text_4">
      <!-- 0.6 -->
      <defs>
       <path d="M 33.015625 40.375 
Q 26.375 40.375 22.484375 35.828125 
Q 18.609375 31.296875 18.609375 23.390625 
Q 18.609375 15.53125 22.484375 10.953125 
Q 26.375 6.390625 33.015625 6.390625 
Q 39.65625 6.390625 43.53125 10.953125 
Q 47.40625 15.53125 47.40625 23.390625 
Q 47.40625 31.296875 43.53125 35.828125 
Q 39.65625 40.375 33.015625 40.375 
z
M 52.59375 71.296875 
L 52.59375 62.3125 
Q 48.875 64.0625 45.09375 64.984375 
Q 41.3125 65.921875 37.59375 65.921875 
Q 27.828125 65.921875 22.671875 59.328125 
Q 17.53125 52.734375 16.796875 39.40625 
Q 19.671875 43.65625 24.015625 45.921875 
Q 28.375 48.1875 33.59375 48.1875 
Q 44.578125 48.1875 50.953125 41.515625 
Q 57.328125 34.859375 57.328125 23.390625 
Q 57.328125 12.15625 50.6875 5.359375 
Q 44.046875 -1.421875 33.015625 -1.421875 
Q 20.359375 -1.421875 13.671875 8.265625 
Q 6.984375 17.96875 6.984375 36.375 
Q 6.984375 53.65625 15.1875 63.9375 
Q 23.390625 74.21875 37.203125 74.21875 
Q 40.921875 74.21875 44.703125 73.484375 
Q 48.484375 72.75 52.59375 71.296875 
z
" id="DejaVuSans-54"/>
      </defs>
      <g transform="translate(621.639347 975.798437)scale(0.1 -0.1)">
       <use xlink:href="#DejaVuSans-48"/>
       <use x="63.623047" xlink:href="#DejaVuSans-46"/>
       <use x="95.410156" xlink:href="#DejaVuSans-54"/>
      </g>
     </g>
    </g>
    <g id="xtick_5">
     <g id="line2d_5">
      <g>
       <use style="stroke:#000000;stroke-width:0.8;" x="781.772727" xlink:href="#m93f1ddb20d" y="961.2"/>
      </g>
     </g>
     <g id="text_5">
      <!-- 0.8 -->
      <defs>
       <path d="M 31.78125 34.625 
Q 24.75 34.625 20.71875 30.859375 
Q 16.703125 27.09375 16.703125 20.515625 
Q 16.703125 13.921875 20.71875 10.15625 
Q 24.75 6.390625 31.78125 6.390625 
Q 38.8125 6.390625 42.859375 10.171875 
Q 46.921875 13.96875 46.921875 20.515625 
Q 46.921875 27.09375 42.890625 30.859375 
Q 38.875 34.625 31.78125 34.625 
z
M 21.921875 38.8125 
Q 15.578125 40.375 12.03125 44.71875 
Q 8.5 49.078125 8.5 55.328125 
Q 8.5 64.0625 14.71875 69.140625 
Q 20.953125 74.21875 31.78125 74.21875 
Q 42.671875 74.21875 48.875 69.140625 
Q 55.078125 64.0625 55.078125 55.328125 
Q 55.078125 49.078125 51.53125 44.71875 
Q 48 40.375 41.703125 38.8125 
Q 48.828125 37.15625 52.796875 32.3125 
Q 56.78125 27.484375 56.78125 20.515625 
Q 56.78125 9.90625 50.3125 4.234375 
Q 43.84375 -1.421875 31.78125 -1.421875 
Q 19.734375 -1.421875 13.25 4.234375 
Q 6.78125 9.90625 6.78125 20.515625 
Q 6.78125 27.484375 10.78125 32.3125 
Q 14.796875 37.15625 21.921875 38.8125 
z
M 18.3125 54.390625 
Q 18.3125 48.734375 21.84375 45.5625 
Q 25.390625 42.390625 31.78125 42.390625 
Q 38.140625 42.390625 41.71875 45.5625 
Q 45.3125 48.734375 45.3125 54.390625 
Q 45.3125 60.0625 41.71875 63.234375 
Q 38.140625 66.40625 31.78125 66.40625 
Q 25.390625 66.40625 21.84375 63.234375 
Q 18.3125 60.0625 18.3125 54.390625 
z
" id="DejaVuSans-56"/>
      </defs>
      <g transform="translate(773.821165 975.798437)scale(0.1 -0.1)">
       <use xlink:href="#DejaVuSans-48"/>
       <use x="63.623047" xlink:href="#DejaVuSans-46"/>
       <use x="95.410156" xlink:href="#DejaVuSans-56"/>
      </g>
     </g>
    </g>
    <g id="xtick_6">
     <g id="line2d_6">
      <g>
       <use style="stroke:#000000;stroke-width:0.8;" x="933.954545" xlink:href="#m93f1ddb20d" y="961.2"/>
      </g>
     </g>
     <g id="text_6">
      <!-- 1.0 -->
      <defs>
       <path d="M 12.40625 8.296875 
L 28.515625 8.296875 
L 28.515625 63.921875 
L 10.984375 60.40625 
L 10.984375 69.390625 
L 28.421875 72.90625 
L 38.28125 72.90625 
L 38.28125 8.296875 
L 54.390625 8.296875 
L 54.390625 0 
L 12.40625 0 
z
" id="DejaVuSans-49"/>
      </defs>
      <g transform="translate(926.002983 975.798437)scale(0.1 -0.1)">
       <use xlink:href="#DejaVuSans-49"/>
       <use x="63.623047" xlink:href="#DejaVuSans-46"/>
       <use x="95.410156" xlink:href="#DejaVuSans-48"/>
      </g>
     </g>
    </g>
    <g id="text_7">
     <!-- Recall -->
     <defs>
      <path d="M 44.390625 34.1875 
Q 47.5625 33.109375 50.5625 29.59375 
Q 53.5625 26.078125 56.59375 19.921875 
L 66.609375 0 
L 56 0 
L 46.6875 18.703125 
Q 43.0625 26.03125 39.671875 28.421875 
Q 36.28125 30.8125 30.421875 30.8125 
L 19.671875 30.8125 
L 19.671875 0 
L 9.8125 0 
L 9.8125 72.90625 
L 32.078125 72.90625 
Q 44.578125 72.90625 50.734375 67.671875 
Q 56.890625 62.453125 56.890625 51.90625 
Q 56.890625 45.015625 53.6875 40.46875 
Q 50.484375 35.9375 44.390625 34.1875 
z
M 19.671875 64.796875 
L 19.671875 38.921875 
L 32.078125 38.921875 
Q 39.203125 38.921875 42.84375 42.21875 
Q 46.484375 45.515625 46.484375 51.90625 
Q 46.484375 58.296875 42.84375 61.546875 
Q 39.203125 64.796875 32.078125 64.796875 
z
" id="DejaVuSans-82"/>
      <path d="M 56.203125 29.59375 
L 56.203125 25.203125 
L 14.890625 25.203125 
Q 15.484375 15.921875 20.484375 11.0625 
Q 25.484375 6.203125 34.421875 6.203125 
Q 39.59375 6.203125 44.453125 7.46875 
Q 49.3125 8.734375 54.109375 11.28125 
L 54.109375 2.78125 
Q 49.265625 0.734375 44.1875 -0.34375 
Q 39.109375 -1.421875 33.890625 -1.421875 
Q 20.796875 -1.421875 13.15625 6.1875 
Q 5.515625 13.8125 5.515625 26.8125 
Q 5.515625 40.234375 12.765625 48.109375 
Q 20.015625 56 32.328125 56 
Q 43.359375 56 49.78125 48.890625 
Q 56.203125 41.796875 56.203125 29.59375 
z
M 47.21875 32.234375 
Q 47.125 39.59375 43.09375 43.984375 
Q 39.0625 48.390625 32.421875 48.390625 
Q 24.90625 48.390625 20.390625 44.140625 
Q 15.875 39.890625 15.1875 32.171875 
z
" id="DejaVuSans-101"/>
      <path d="M 48.78125 52.59375 
L 48.78125 44.1875 
Q 44.96875 46.296875 41.140625 47.34375 
Q 37.3125 48.390625 33.40625 48.390625 
Q 24.65625 48.390625 19.8125 42.84375 
Q 14.984375 37.3125 14.984375 27.296875 
Q 14.984375 17.28125 19.8125 11.734375 
Q 24.65625 6.203125 33.40625 6.203125 
Q 37.3125 6.203125 41.140625 7.25 
Q 44.96875 8.296875 48.78125 10.40625 
L 48.78125 2.09375 
Q 45.015625 0.34375 40.984375 -0.53125 
Q 36.96875 -1.421875 32.421875 -1.421875 
Q 20.0625 -1.421875 12.78125 6.34375 
Q 5.515625 14.109375 5.515625 27.296875 
Q 5.515625 40.671875 12.859375 48.328125 
Q 20.21875 56 33.015625 56 
Q 37.15625 56 41.109375 55.140625 
Q 45.0625 54.296875 48.78125 52.59375 
z
" id="DejaVuSans-99"/>
      <path d="M 34.28125 27.484375 
Q 23.390625 27.484375 19.1875 25 
Q 14.984375 22.515625 14.984375 16.5 
Q 14.984375 11.71875 18.140625 8.90625 
Q 21.296875 6.109375 26.703125 6.109375 
Q 34.1875 6.109375 38.703125 11.40625 
Q 43.21875 16.703125 43.21875 25.484375 
L 43.21875 27.484375 
z
M 52.203125 31.203125 
L 52.203125 0 
L 43.21875 0 
L 43.21875 8.296875 
Q 40.140625 3.328125 35.546875 0.953125 
Q 30.953125 -1.421875 24.3125 -1.421875 
Q 15.921875 -1.421875 10.953125 3.296875 
Q 6 8.015625 6 15.921875 
Q 6 25.140625 12.171875 29.828125 
Q 18.359375 34.515625 30.609375 34.515625 
L 43.21875 34.515625 
L 43.21875 35.40625 
Q 43.21875 41.609375 39.140625 45 
Q 35.0625 48.390625 27.6875 48.390625 
Q 23 48.390625 18.546875 47.265625 
Q 14.109375 46.140625 10.015625 43.890625 
L 10.015625 52.203125 
Q 14.9375 54.109375 19.578125 55.046875 
Q 24.21875 56 28.609375 56 
Q 40.484375 56 46.34375 49.84375 
Q 52.203125 43.703125 52.203125 31.203125 
z
" id="DejaVuSans-97"/>
      <path d="M 9.421875 75.984375 
L 18.40625 75.984375 
L 18.40625 0 
L 9.421875 0 
z
" id="DejaVuSans-108"/>
     </defs>
     <g transform="translate(538.582813 989.476562)scale(0.1 -0.1)">
      <use xlink:href="#DejaVuSans-82"/>
      <use x="64.982422" xlink:href="#DejaVuSans-101"/>
      <use x="126.505859" xlink:href="#DejaVuSans-99"/>
      <use x="181.486328" xlink:href="#DejaVuSans-97"/>
      <use x="242.765625" xlink:href="#DejaVuSans-108"/>
      <use x="270.548828" xlink:href="#DejaVuSans-108"/>
     </g>
    </g>
   </g>
   <g id="matplotlib.axis_2">
    <g id="ytick_1">
     <g id="line2d_7">
      <defs>
       <path d="M 0 0 
L -3.5 0 
" id="m15119badbb" style="stroke:#000000;stroke-width:0.8;"/>
      </defs>
      <g>
       <use style="stroke:#000000;stroke-width:0.8;" x="135" xlink:href="#m15119badbb" y="923.4"/>
      </g>
     </g>
     <g id="text_8">
      <!-- 0.0 -->
      <g transform="translate(112.096875 927.199219)scale(0.1 -0.1)">
       <use xlink:href="#DejaVuSans-48"/>
       <use x="63.623047" xlink:href="#DejaVuSans-46"/>
       <use x="95.410156" xlink:href="#DejaVuSans-48"/>
      </g>
     </g>
    </g>
    <g id="ytick_2">
     <g id="line2d_8">
      <g>
       <use style="stroke:#000000;stroke-width:0.8;" x="135" xlink:href="#m15119badbb" y="772.2"/>
      </g>
     </g>
     <g id="text_9">
      <!-- 0.2 -->
      <g transform="translate(112.096875 775.999219)scale(0.1 -0.1)">
       <use xlink:href="#DejaVuSans-48"/>
       <use x="63.623047" xlink:href="#DejaVuSans-46"/>
       <use x="95.410156" xlink:href="#DejaVuSans-50"/>
      </g>
     </g>
    </g>
    <g id="ytick_3">
     <g id="line2d_9">
      <g>
       <use style="stroke:#000000;stroke-width:0.8;" x="135" xlink:href="#m15119badbb" y="621"/>
      </g>
     </g>
     <g id="text_10">
      <!-- 0.4 -->
      <g transform="translate(112.096875 624.799219)scale(0.1 -0.1)">
       <use xlink:href="#DejaVuSans-48"/>
       <use x="63.623047" xlink:href="#DejaVuSans-46"/>
       <use x="95.410156" xlink:href="#DejaVuSans-52"/>
      </g>
     </g>
    </g>
    <g id="ytick_4">
     <g id="line2d_10">
      <g>
       <use style="stroke:#000000;stroke-width:0.8;" x="135" xlink:href="#m15119badbb" y="469.8"/>
      </g>
     </g>
     <g id="text_11">
      <!-- 0.6 -->
      <g transform="translate(112.096875 473.599219)scale(0.1 -0.1)">
       <use xlink:href="#DejaVuSans-48"/>
       <use x="63.623047" xlink:href="#DejaVuSans-46"/>
       <use x="95.410156" xlink:href="#DejaVuSans-54"/>
      </g>
     </g>
    </g>
    <g id="ytick_5">
     <g id="line2d_11">
      <g>
       <use style="stroke:#000000;stroke-width:0.8;" x="135" xlink:href="#m15119badbb" y="318.6"/>
      </g>
     </g>
     <g id="text_12">
      <!-- 0.8 -->
      <g transform="translate(112.096875 322.399219)scale(0.1 -0.1)">
       <use xlink:href="#DejaVuSans-48"/>
       <use x="63.623047" xlink:href="#DejaVuSans-46"/>
       <use x="95.410156" xlink:href="#DejaVuSans-56"/>
      </g>
     </g>
    </g>
    <g id="ytick_6">
     <g id="line2d_12">
      <g>
       <use style="stroke:#000000;stroke-width:0.8;" x="135" xlink:href="#m15119badbb" y="167.4"/>
      </g>
     </g>
     <g id="text_13">
      <!-- 1.0 -->
      <g transform="translate(112.096875 171.199219)scale(0.1 -0.1)">
       <use xlink:href="#DejaVuSans-49"/>
       <use x="63.623047" xlink:href="#DejaVuSans-46"/>
       <use x="95.410156" xlink:href="#DejaVuSans-48"/>
      </g>
     </g>
    </g>
    <g id="text_14">
     <!-- Precision -->
     <defs>
      <path d="M 19.671875 64.796875 
L 19.671875 37.40625 
L 32.078125 37.40625 
Q 38.96875 37.40625 42.71875 40.96875 
Q 46.484375 44.53125 46.484375 51.125 
Q 46.484375 57.671875 42.71875 61.234375 
Q 38.96875 64.796875 32.078125 64.796875 
z
M 9.8125 72.90625 
L 32.078125 72.90625 
Q 44.34375 72.90625 50.609375 67.359375 
Q 56.890625 61.8125 56.890625 51.125 
Q 56.890625 40.328125 50.609375 34.8125 
Q 44.34375 29.296875 32.078125 29.296875 
L 19.671875 29.296875 
L 19.671875 0 
L 9.8125 0 
z
" id="DejaVuSans-80"/>
      <path d="M 41.109375 46.296875 
Q 39.59375 47.171875 37.8125 47.578125 
Q 36.03125 48 33.890625 48 
Q 26.265625 48 22.1875 43.046875 
Q 18.109375 38.09375 18.109375 28.8125 
L 18.109375 0 
L 9.078125 0 
L 9.078125 54.6875 
L 18.109375 54.6875 
L 18.109375 46.1875 
Q 20.953125 51.171875 25.484375 53.578125 
Q 30.03125 56 36.53125 56 
Q 37.453125 56 38.578125 55.875 
Q 39.703125 55.765625 41.0625 55.515625 
z
" id="DejaVuSans-114"/>
      <path d="M 9.421875 54.6875 
L 18.40625 54.6875 
L 18.40625 0 
L 9.421875 0 
z
M 9.421875 75.984375 
L 18.40625 75.984375 
L 18.40625 64.59375 
L 9.421875 64.59375 
z
" id="DejaVuSans-105"/>
      <path d="M 44.28125 53.078125 
L 44.28125 44.578125 
Q 40.484375 46.53125 36.375 47.5 
Q 32.28125 48.484375 27.875 48.484375 
Q 21.1875 48.484375 17.84375 46.4375 
Q 14.5 44.390625 14.5 40.28125 
Q 14.5 37.15625 16.890625 35.375 
Q 19.28125 33.59375 26.515625 31.984375 
L 29.59375 31.296875 
Q 39.15625 29.25 43.1875 25.515625 
Q 47.21875 21.78125 47.21875 15.09375 
Q 47.21875 7.46875 41.1875 3.015625 
Q 35.15625 -1.421875 24.609375 -1.421875 
Q 20.21875 -1.421875 15.453125 -0.5625 
Q 10.6875 0.296875 5.421875 2 
L 5.421875 11.28125 
Q 10.40625 8.6875 15.234375 7.390625 
Q 20.0625 6.109375 24.8125 6.109375 
Q 31.15625 6.109375 34.5625 8.28125 
Q 37.984375 10.453125 37.984375 14.40625 
Q 37.984375 18.0625 35.515625 20.015625 
Q 33.0625 21.96875 24.703125 23.78125 
L 21.578125 24.515625 
Q 13.234375 26.265625 9.515625 29.90625 
Q 5.8125 33.546875 5.8125 39.890625 
Q 5.8125 47.609375 11.28125 51.796875 
Q 16.75 56 26.8125 56 
Q 31.78125 56 36.171875 55.265625 
Q 40.578125 54.546875 44.28125 53.078125 
z
" id="DejaVuSans-115"/>
      <path d="M 30.609375 48.390625 
Q 23.390625 48.390625 19.1875 42.75 
Q 14.984375 37.109375 14.984375 27.296875 
Q 14.984375 17.484375 19.15625 11.84375 
Q 23.34375 6.203125 30.609375 6.203125 
Q 37.796875 6.203125 41.984375 11.859375 
Q 46.1875 17.53125 46.1875 27.296875 
Q 46.1875 37.015625 41.984375 42.703125 
Q 37.796875 48.390625 30.609375 48.390625 
z
M 30.609375 56 
Q 42.328125 56 49.015625 48.375 
Q 55.71875 40.765625 55.71875 27.296875 
Q 55.71875 13.875 49.015625 6.21875 
Q 42.328125 -1.421875 30.609375 -1.421875 
Q 18.84375 -1.421875 12.171875 6.21875 
Q 5.515625 13.875 5.515625 27.296875 
Q 5.515625 40.765625 12.171875 48.375 
Q 18.84375 56 30.609375 56 
z
" id="DejaVuSans-111"/>
      <path d="M 54.890625 33.015625 
L 54.890625 0 
L 45.90625 0 
L 45.90625 32.71875 
Q 45.90625 40.484375 42.875 44.328125 
Q 39.84375 48.1875 33.796875 48.1875 
Q 26.515625 48.1875 22.3125 43.546875 
Q 18.109375 38.921875 18.109375 30.90625 
L 18.109375 0 
L 9.078125 0 
L 9.078125 54.6875 
L 18.109375 54.6875 
L 18.109375 46.1875 
Q 21.34375 51.125 25.703125 53.5625 
Q 30.078125 56 35.796875 56 
Q 45.21875 56 50.046875 50.171875 
Q 54.890625 44.34375 54.890625 33.015625 
z
" id="DejaVuSans-110"/>
     </defs>
     <g transform="translate(106.017187 567.707031)rotate(-90)scale(0.1 -0.1)">
      <use xlink:href="#DejaVuSans-80"/>
      <use x="58.552734" xlink:href="#DejaVuSans-114"/>
      <use x="97.416016" xlink:href="#DejaVuSans-101"/>
      <use x="158.939453" xlink:href="#DejaVuSans-99"/>
      <use x="213.919922" xlink:href="#DejaVuSans-105"/>
      <use x="241.703125" xlink:href="#DejaVuSans-115"/>
      <use x="293.802734" xlink:href="#DejaVuSans-105"/>
      <use x="321.585938" xlink:href="#DejaVuSans-111"/>
      <use x="382.767578" xlink:href="#DejaVuSans-110"/>
     </g>
    </g>
   </g>
   <g id="line2d_13">
    <path clip-path="url(#pfc445a37cf)" d="M 933.954545 710.169231 
L 887.838843 710.169231 
L 887.838843 712.264865 
L 887.838843 712.264865 
L 887.838843 708.390826 
L 887.838843 708.390826 
L 887.838843 702.30566 
L 887.838843 702.30566 
L 887.838843 700.2 
L 887.838843 700.2 
L 887.838843 689.04 
L 887.838843 689.04 
L 887.838843 676.705263 
L 887.838843 676.705263 
L 887.838843 671.4 
L 887.838843 671.4 
L 887.838843 665.861538 
L 864.780992 665.861538 
L 864.780992 656.576471 
L 864.780992 656.576471 
L 864.780992 646.814634 
L 864.780992 646.814634 
L 864.780992 643.4 
L 864.780992 643.4 
L 864.780992 639.9 
L 864.780992 639.9 
L 864.780992 628.854545 
L 818.665289 628.854545 
L 818.665289 633.427397 
L 795.607438 633.427397 
L 795.607438 627.573913 
L 749.491736 627.573913 
L 749.491736 637.036364 
L 680.318182 637.036364 
L 680.318182 650.744262 
L 634.202479 650.744262 
L 634.202479 667.128814 
L 611.144628 667.128814 
L 611.144628 675.744828 
L 565.028926 675.744828 
L 565.028926 693.9 
L 565.028926 693.9 
L 565.028926 680.909434 
L 565.028926 680.909434 
L 565.028926 671.4 
L 541.971074 671.4 
L 541.971074 671.4 
L 541.971074 671.4 
L 541.971074 666.038298 
L 518.913223 666.038298 
L 518.913223 659.67907 
L 495.855372 659.67907 
L 495.855372 671.4 
L 472.797521 671.4 
L 472.797521 677.7 
L 472.797521 677.7 
L 472.797521 664.768421 
L 472.797521 664.768421 
L 472.797521 657.778378 
L 449.739669 657.778378 
L 449.739669 664.2 
L 449.739669 664.2 
L 449.739669 656.576471 
L 426.681818 656.576471 
L 426.681818 671.4 
L 403.623967 671.4 
L 403.623967 687.15 
L 403.623967 687.15 
L 403.623967 653.4 
L 380.566116 653.4 
L 380.566116 671.4 
L 357.508264 671.4 
L 357.508264 690.784615 
L 357.508264 690.784615 
L 357.508264 681.48 
L 334.450413 681.48 
L 334.450413 702.9 
L 334.450413 702.9 
L 334.450413 693.313043 
L 334.450413 693.313043 
L 334.450413 682.854545 
L 311.392562 682.854545 
L 311.392562 684.663158 
L 311.392562 684.663158 
L 311.392562 671.4 
L 311.392562 671.4 
L 311.392562 656.576471 
L 311.392562 656.576471 
L 311.392562 639.9 
L 311.392562 639.9 
L 311.392562 621 
L 311.392562 621 
L 311.392562 599.4 
L 288.334711 599.4 
L 288.334711 608.4 
L 265.27686 608.4 
L 265.27686 648.490909 
L 242.219008 648.490909 
L 242.219008 671.4 
L 242.219008 671.4 
L 242.219008 639.9 
L 219.161157 639.9 
L 219.161157 707.4 
L 219.161157 707.4 
L 219.161157 671.4 
L 219.161157 671.4 
L 219.161157 621 
L 219.161157 621 
L 219.161157 545.4 
L 196.103306 545.4 
L 196.103306 671.4 
L 196.103306 671.4 
L 196.103306 545.4 
L 173.045455 545.4 
L 173.045455 167.4 
" style="fill:none;stroke:#1f77b4;stroke-linecap:square;stroke-width:1.5;"/>
   </g>
   <g id="line2d_14">
    <path clip-path="url(#pfc445a37cf)" d="M 933.954545 735.821053 
L 910.896694 735.821053 
L 910.896694 737.307692 
L 910.896694 737.307692 
L 910.896694 734.4 
L 864.780992 734.4 
L 864.780992 734.4 
L 864.780992 734.4 
L 864.780992 724.452632 
L 841.72314 724.452632 
L 841.72314 727.65 
L 818.665289 727.65 
L 818.665289 727.4 
L 818.665289 727.4 
L 818.665289 721.8 
L 818.665289 721.8 
L 818.665289 717.885437 
L 795.607438 717.885437 
L 795.607438 721.30099 
L 795.607438 721.30099 
L 795.607438 708.536842 
L 795.607438 708.536842 
L 795.607438 696.6 
L 772.549587 696.6 
L 772.549587 697.468966 
L 772.549587 697.468966 
L 772.549587 694.84186 
L 749.491736 694.84186 
L 749.491736 695.689157 
L 749.491736 695.689157 
L 749.491736 690.066667 
L 749.491736 690.066667 
L 749.491736 681.092308 
L 726.433884 681.092308 
L 726.433884 678.210811 
L 726.433884 678.210811 
L 726.433884 671.4 
L 726.433884 671.4 
L 726.433884 664.2 
L 703.376033 664.2 
L 703.376033 651.7125 
L 680.318182 651.7125 
L 680.318182 655.141935 
L 657.260331 655.141935 
L 657.260331 654.315254 
L 634.202479 654.315254 
L 634.202479 648.490909 
L 588.086777 648.490909 
L 588.086777 661.707692 
L 565.028926 661.707692 
L 565.028926 671.4 
L 565.028926 671.4 
L 565.028926 666.36 
L 565.028926 666.36 
L 565.028926 655.65 
L 541.971074 655.65 
L 541.971074 642.097674 
L 518.913223 642.097674 
L 518.913223 646.814634 
L 495.855372 646.814634 
L 495.855372 644.873684 
L 495.855372 644.873684 
L 495.855372 637.345946 
L 426.681818 637.345946 
L 426.681818 663.525 
L 403.623967 663.525 
L 403.623967 662.710345 
L 403.623967 662.710345 
L 403.623967 643.4 
L 380.566116 643.4 
L 380.566116 651.24 
L 380.566116 651.24 
L 380.566116 639.9 
L 357.508264 639.9 
L 357.508264 648.490909 
L 357.508264 648.490909 
L 357.508264 635.4 
L 357.508264 635.4 
L 357.508264 605.084211 
L 357.508264 605.084211 
L 357.508264 567.635294 
L 357.508264 567.635294 
L 357.508264 520.2 
L 334.450413 520.2 
L 334.450413 516.323077 
L 311.392562 516.323077 
L 311.392562 545.4 
L 265.27686 545.4 
L 265.27686 621 
L 265.27686 621 
L 265.27686 587.4 
L 265.27686 587.4 
L 265.27686 545.4 
L 265.27686 545.4 
L 265.27686 491.4 
L 265.27686 491.4 
L 265.27686 419.4 
L 219.161157 419.4 
L 219.161157 419.4 
L 196.103306 419.4 
L 196.103306 545.4 
L 196.103306 545.4 
L 196.103306 167.4 
L 173.045455 167.4 
L 173.045455 167.4 
" style="fill:none;stroke:#ff7f0e;stroke-linecap:square;stroke-width:1.5;"/>
   </g>
   <g id="line2d_15">
    <path clip-path="url(#pfc445a37cf)" d="M 933.954545 799.2 
L 900.871542 799.2 
L 900.871542 793.4625 
L 867.788538 793.4625 
L 867.788538 794.326829 
L 834.705534 794.326829 
L 834.705534 765.9 
L 801.62253 765.9 
L 801.62253 770.591489 
L 801.62253 752.4 
L 768.539526 752.4 
L 768.539526 755.4 
L 768.539526 748.938462 
L 702.373518 748.938462 
L 702.373518 764.242105 
L 702.373518 762.12 
L 669.290514 762.12 
L 669.290514 768.057534 
L 669.290514 754.146269 
L 636.20751 754.146269 
L 636.20751 747 
L 603.124506 747 
L 603.124506 750.978947 
L 603.124506 747.9 
L 570.041502 747.9 
L 570.041502 755.4 
L 536.958498 755.4 
L 536.958498 766.49434 
L 503.875494 766.49434 
L 503.875494 772.2 
L 503.875494 739.009756 
L 470.79249 739.009756 
L 470.79249 753.3 
L 470.79249 744.347368 
L 437.709486 744.347368 
L 437.709486 714.848276 
L 404.626482 714.848276 
L 404.626482 734.4 
L 371.543478 734.4 
L 371.543478 748.938462 
L 371.543478 726.182609 
L 338.460474 726.182609 
L 338.460474 751.581818 
L 338.460474 743.4 
L 305.37747 743.4 
L 305.37747 772.2 
L 272.294466 772.2 
L 272.294466 789.988235 
L 272.294466 781.65 
L 239.211462 781.65 
L 239.211462 822.6 
L 239.211462 755.4 
L 206.128458 755.4 
L 206.128458 828.9 
L 206.128458 772.2 
L 173.045455 772.2 
L 173.045455 923.4 
L 173.045455 167.4 
L 173.045455 167.4 
" style="fill:none;stroke:#2ca02c;stroke-linecap:square;stroke-width:1.5;"/>
   </g>
   <g id="line2d_16">
    <path clip-path="url(#pfc445a37cf)" d="M 933.954545 788.4 
L 903.518182 788.4 
L 903.518182 783.830769 
L 842.645455 783.830769 
L 842.645455 790.344 
L 812.209091 790.344 
L 812.209091 792.193388 
L 812.209091 773.626415 
L 781.772727 773.626415 
L 781.772727 776.603883 
L 781.772727 762.548936 
L 751.336364 762.548936 
L 751.336364 763.8 
L 751.336364 750.339759 
L 690.463636 750.339759 
L 690.463636 760.716456 
L 690.463636 758.630769 
L 660.027273 758.630769 
L 660.027273 762.12 
L 660.027273 745.517647 
L 629.590909 745.517647 
L 629.590909 746.2125 
L 629.590909 740.496774 
L 599.154545 740.496774 
L 599.154545 744.010169 
L 599.154545 715.870588 
L 568.718182 715.870588 
L 568.718182 722.828571 
L 568.718182 714.293617 
L 538.281818 714.293617 
L 538.281818 726.182609 
L 538.281818 721.8 
L 507.845455 721.8 
L 507.845455 710.169231 
L 477.409091 710.169231 
L 477.409091 724.452632 
L 477.409091 707.4 
L 446.972727 707.4 
L 446.972727 723.282353 
L 416.536364 723.282353 
L 416.536364 734.4 
L 355.663636 734.4 
L 355.663636 766.986207 
L 325.227273 766.986207 
L 325.227273 783.4 
L 325.227273 671.4 
L 294.790909 671.4 
L 294.790909 707.4 
L 294.790909 690.784615 
L 264.354545 690.784615 
L 264.354545 717.218182 
L 264.354545 599.4 
L 233.918182 599.4 
L 233.918182 671.4 
L 233.918182 545.4 
L 203.481818 545.4 
L 203.481818 671.4 
L 203.481818 167.4 
L 173.045455 167.4 
L 173.045455 167.4 
" style="fill:none;stroke:#d62728;stroke-linecap:square;stroke-width:1.5;"/>
   </g>
   <g id="line2d_17">
    <path clip-path="url(#pfc445a37cf)" d="M 933.954545 760.234532 
L 908.590909 760.234532 
L 908.590909 759.78806 
L 908.590909 759.78806 
L 908.590909 756.041221 
L 908.590909 756.041221 
L 908.590909 746.593548 
L 908.590909 746.593548 
L 908.590909 740.7 
L 908.590909 740.7 
L 908.590909 734.4 
L 908.590909 734.4 
L 908.590909 725.886486 
L 908.590909 725.886486 
L 908.590909 714.6 
L 908.590909 714.6 
L 908.590909 712.592308 
L 908.590909 712.592308 
L 908.590909 701.945455 
L 883.227273 701.945455 
L 883.227273 702.9 
L 883.227273 702.9 
L 883.227273 700.578947 
L 883.227273 700.578947 
L 883.227273 695.787097 
L 883.227273 695.787097 
L 883.227273 688.2 
L 857.863636 688.2 
L 857.863636 688.77931 
L 857.863636 688.77931 
L 857.863636 680.4 
L 857.863636 680.4 
L 857.863636 677.472289 
L 857.863636 677.472289 
L 857.863636 665.020253 
L 857.863636 665.020253 
L 857.863636 661.707692 
L 857.863636 661.707692 
L 857.863636 647.562162 
L 857.863636 647.562162 
L 857.863636 643.783562 
L 857.863636 643.783562 
L 857.863636 639.9 
L 832.5 639.9 
L 832.5 638.530435 
L 807.136364 638.530435 
L 807.136364 637.036364 
L 807.136364 637.036364 
L 807.136364 632.630769 
L 781.772727 632.630769 
L 781.772727 635.4 
L 781.772727 635.4 
L 781.772727 621 
L 781.772727 621 
L 781.772727 615.874576 
L 781.772727 615.874576 
L 781.772727 599.4 
L 756.409091 599.4 
L 756.409091 595.324528 
L 756.409091 595.324528 
L 756.409091 589.015385 
L 731.045455 589.015385 
L 731.045455 583.971429 
L 705.681818 583.971429 
L 705.681818 592.65 
L 705.681818 592.65 
L 705.681818 585.612766 
L 654.954545 585.612766 
L 654.954545 581.4 
L 604.227273 581.4 
L 604.227273 585.189474 
L 553.5 585.189474 
L 553.5 608.4 
L 502.772727 608.4 
L 502.772727 616.275 
L 502.772727 616.275 
L 502.772727 606.367742 
L 502.772727 606.367742 
L 502.772727 595.8 
L 502.772727 595.8 
L 502.772727 584.503448 
L 452.045455 584.503448 
L 452.045455 590.76 
L 452.045455 590.76 
L 452.045455 561.834783 
L 452.045455 561.834783 
L 452.045455 545.4 
L 452.045455 545.4 
L 452.045455 507.6 
L 426.681818 507.6 
L 426.681818 525.505263 
L 375.954545 525.505263 
L 375.954545 567.635294 
L 375.954545 567.635294 
L 375.954545 520.2 
L 350.590909 520.2 
L 350.590909 545.4 
L 325.227273 545.4 
L 325.227273 574.476923 
L 325.227273 574.476923 
L 325.227273 545.4 
L 299.863636 545.4 
L 299.863636 545.4 
L 274.5 545.4 
L 274.5 587.4 
L 274.5 587.4 
L 274.5 545.4 
L 249.136364 545.4 
L 249.136364 599.4 
L 249.136364 599.4 
L 249.136364 545.4 
L 249.136364 545.4 
L 249.136364 469.8 
L 223.772727 469.8 
L 223.772727 545.4 
L 198.409091 545.4 
L 198.409091 671.4 
L 198.409091 671.4 
L 198.409091 545.4 
L 198.409091 545.4 
L 198.409091 167.4 
L 173.045455 167.4 
L 173.045455 167.4 
" style="fill:none;stroke:#9467bd;stroke-linecap:square;stroke-width:1.5;"/>
   </g>
   <g id="line2d_18">
    <path clip-path="url(#pfc445a37cf)" d="M 933.954545 748.326316 
L 899.367769 748.326316 
L 899.367769 747 
L 864.780992 747 
L 864.780992 749.606897 
L 864.780992 749.606897 
L 864.780992 747.586047 
L 761.020661 747.586047 
L 761.020661 764.733333 
L 761.020661 764.733333 
L 761.020661 762.75 
L 761.020661 762.75 
L 761.020661 760.716456 
L 761.020661 760.716456 
L 761.020661 758.630769 
L 691.847107 758.630769 
L 691.847107 765.9 
L 691.847107 765.9 
L 691.847107 763.68169 
L 691.847107 763.68169 
L 691.847107 761.4 
L 691.847107 761.4 
L 691.847107 751.581818 
L 691.847107 751.581818 
L 691.847107 746.2125 
L 691.847107 746.2125 
L 691.847107 743.4 
L 691.847107 743.4 
L 691.847107 737.498361 
L 657.260331 737.498361 
L 657.260331 747 
L 657.260331 747 
L 657.260331 737.715789 
L 657.260331 737.715789 
L 657.260331 734.4 
L 657.260331 734.4 
L 657.260331 719.861538 
L 657.260331 719.861538 
L 657.260331 707.4 
L 622.673554 707.4 
L 622.673554 709.747826 
L 622.673554 709.747826 
L 622.673554 694.84186 
L 588.086777 694.84186 
L 588.086777 696.6 
L 553.5 696.6 
L 553.5 692.4 
L 553.5 692.4 
L 553.5 685.8 
L 553.5 685.8 
L 553.5 671.4 
L 518.913223 671.4 
L 518.913223 687.15 
L 518.913223 687.15 
L 518.913223 679.529032 
L 518.913223 679.529032 
L 518.913223 671.4 
L 518.913223 671.4 
L 518.913223 653.4 
L 518.913223 653.4 
L 518.913223 632.630769 
L 518.913223 632.630769 
L 518.913223 621 
L 518.913223 621 
L 518.913223 608.4 
L 484.326446 608.4 
L 484.326446 627.573913 
L 484.326446 627.573913 
L 484.326446 614.127273 
L 484.326446 614.127273 
L 484.326446 599.4 
L 449.739669 599.4 
L 449.739669 621 
L 449.739669 621 
L 449.739669 587.4 
L 415.152893 587.4 
L 415.152893 612.105882 
L 380.566116 612.105882 
L 380.566116 639.9 
L 380.566116 639.9 
L 380.566116 599.4 
L 345.979339 599.4 
L 345.979339 608.4 
L 311.392562 608.4 
L 311.392562 621 
L 311.392562 621 
L 311.392562 545.4 
L 276.805785 545.4 
L 276.805785 599.4 
L 276.805785 599.4 
L 276.805785 545.4 
L 276.805785 545.4 
L 276.805785 469.8 
L 242.219008 469.8 
L 242.219008 545.4 
L 242.219008 545.4 
L 242.219008 419.4 
L 242.219008 419.4 
L 242.219008 167.4 
L 207.632231 167.4 
L 207.632231 167.4 
L 173.045455 167.4 
L 173.045455 167.4 
" style="fill:none;stroke:#8c564b;stroke-linecap:square;stroke-width:1.5;"/>
   </g>
   <g id="line2d_19">
    <path clip-path="url(#pfc445a37cf)" d="M 933.954545 758.223529 
L 904.688811 758.223529 
L 904.688811 763.230508 
L 904.688811 754.65 
L 846.157343 754.65 
L 846.157343 759.362264 
L 846.157343 754.584466 
L 816.891608 754.584466 
L 816.891608 723.014458 
L 787.625874 723.014458 
L 787.625874 727.4 
L 787.625874 724.95 
L 758.36014 724.95 
L 758.36014 727.036364 
L 758.36014 716.276712 
L 699.828671 716.276712 
L 699.828671 726.182609 
L 670.562937 726.182609 
L 670.562937 722.5875 
L 641.297203 722.5875 
L 641.297203 725.104918 
L 641.297203 699.4 
L 582.765734 699.4 
L 582.765734 711.72 
L 553.5 711.72 
L 553.5 718.65 
L 524.234266 718.65 
L 524.234266 721.8 
L 524.234266 712.423256 
L 494.968531 712.423256 
L 494.968531 663.525 
L 465.702797 663.525 
L 465.702797 671.4 
L 436.437063 671.4 
L 436.437063 688.77931 
L 436.437063 680.4 
L 407.171329 680.4 
L 407.171329 699.4 
L 377.905594 699.4 
L 377.905594 702.9 
L 377.905594 658.8 
L 348.63986 658.8 
L 348.63986 684.663158 
L 348.63986 621 
L 319.374126 621 
L 319.374126 653.4 
L 319.374126 608.4 
L 290.108392 608.4 
L 290.108392 648.490909 
L 290.108392 621 
L 260.842657 621 
L 260.842657 671.4 
L 231.576923 671.4 
L 231.576923 734.4 
L 231.576923 167.4 
L 173.045455 167.4 
L 173.045455 167.4 
" style="fill:none;stroke:#e377c2;stroke-linecap:square;stroke-width:1.5;"/>
   </g>
   <g id="line2d_20">
    <path clip-path="url(#pfc445a37cf)" d="M 933.954545 779.697521 
L 900.871542 779.697521 
L 900.871542 781.246154 
L 900.871542 755.4 
L 867.788538 755.4 
L 867.788538 736.623529 
L 834.705534 736.623529 
L 834.705534 743.4 
L 834.705534 724.452632 
L 801.62253 724.452632 
L 801.62253 715.226087 
L 768.539526 715.226087 
L 768.539526 723.282353 
L 768.539526 700.318033 
L 735.456522 700.318033 
L 735.456522 709.2 
L 702.373518 709.2 
L 702.373518 707.4 
L 636.20751 707.4 
L 636.20751 723.701887 
L 636.20751 698.208511 
L 603.124506 698.208511 
L 603.124506 671.4 
L 570.041502 671.4 
L 570.041502 678.210811 
L 570.041502 630.754839 
L 536.958498 630.754839 
L 536.958498 636.641379 
L 503.875494 636.641379 
L 503.875494 643.4 
L 503.875494 632.630769 
L 470.79249 632.630769 
L 470.79249 639.9 
L 437.709486 639.9 
L 437.709486 660.443478 
L 437.709486 635.4 
L 404.626482 635.4 
L 404.626482 658.8 
L 404.626482 629.4 
L 371.543478 629.4 
L 371.543478 656.576471 
L 338.460474 656.576471 
L 338.460474 671.4 
L 338.460474 545.4 
L 305.37747 545.4 
L 305.37747 587.4 
L 272.294466 587.4 
L 272.294466 639.9 
L 239.211462 639.9 
L 239.211462 707.4 
L 206.128458 707.4 
L 206.128458 797.4 
L 173.045455 797.4 
L 173.045455 923.4 
L 173.045455 167.4 
L 173.045455 167.4 
" style="fill:none;stroke:#7f7f7f;stroke-linecap:square;stroke-width:1.5;"/>
   </g>
   <g id="line2d_21">
    <path clip-path="url(#pfc445a37cf)" d="M 933.954545 776.4 
L 906.779221 776.4 
L 906.779221 771.071642 
L 906.779221 771.071642 
L 906.779221 769.926316 
L 906.779221 769.926316 
L 906.779221 761.4 
L 879.603896 761.4 
L 879.603896 759.6 
L 879.603896 759.6 
L 879.603896 752.478261 
L 879.603896 752.478261 
L 879.603896 749.453097 
L 879.603896 749.453097 
L 879.603896 746.318919 
L 825.253247 746.318919 
L 825.253247 747.24466 
L 798.077922 747.24466 
L 798.077922 749.52 
L 770.902597 749.52 
L 770.902597 753.685714 
L 770.902597 753.685714 
L 770.902597 746.46383 
L 770.902597 746.46383 
L 770.902597 742.617391 
L 716.551948 742.617391 
L 716.551948 747.586047 
L 716.551948 747.586047 
L 716.551948 743.4 
L 716.551948 743.4 
L 716.551948 741.231325 
L 689.376623 741.231325 
L 689.376623 743.85 
L 635.025974 743.85 
L 635.025974 754.294737 
L 635.025974 754.294737 
L 635.025974 744.9 
L 607.850649 744.9 
L 607.850649 740.127273 
L 580.675325 740.127273 
L 580.675325 748.938462 
L 580.675325 748.938462 
L 580.675325 746.2125 
L 580.675325 746.2125 
L 580.675325 734.4 
L 580.675325 734.4 
L 580.675325 727.882759 
L 553.5 727.882759 
L 553.5 734.4 
L 526.324675 734.4 
L 526.324675 741.4 
L 526.324675 741.4 
L 526.324675 734.4 
L 526.324675 734.4 
L 526.324675 730.694118 
L 526.324675 730.694118 
L 526.324675 726.84 
L 471.974026 726.84 
L 471.974026 742.617391 
L 471.974026 742.617391 
L 471.974026 738.6 
L 471.974026 738.6 
L 471.974026 734.4 
L 444.798701 734.4 
L 444.798701 729.553846 
L 444.798701 729.553846 
L 444.798701 724.452632 
L 444.798701 724.452632 
L 444.798701 694.309091 
L 444.798701 694.309091 
L 444.798701 679.529032 
L 444.798701 679.529032 
L 444.798701 671.4 
L 417.623377 671.4 
L 417.623377 680.4 
L 417.623377 680.4 
L 417.623377 671.4 
L 390.448052 671.4 
L 390.448052 690.784615 
L 390.448052 690.784615 
L 390.448052 681.48 
L 363.272727 681.48 
L 363.272727 693.313043 
L 336.097403 693.313043 
L 336.097403 696.6 
L 336.097403 696.6 
L 336.097403 684.663158 
L 336.097403 684.663158 
L 336.097403 671.4 
L 336.097403 671.4 
L 336.097403 621 
L 308.922078 621 
L 308.922078 653.4 
L 308.922078 653.4 
L 308.922078 632.630769 
L 281.746753 632.630769 
L 281.746753 671.4 
L 254.571429 671.4 
L 254.571429 696.6 
L 254.571429 696.6 
L 254.571429 671.4 
L 227.396104 671.4 
L 227.396104 734.4 
L 227.396104 734.4 
L 227.396104 707.4 
L 200.220779 707.4 
L 200.220779 772.2 
L 200.220779 772.2 
L 200.220779 734.4 
L 200.220779 734.4 
L 200.220779 671.4 
L 200.220779 671.4 
L 200.220779 545.4 
L 173.045455 545.4 
L 173.045455 923.4 
L 173.045455 923.4 
L 173.045455 167.4 
" style="fill:none;stroke:#bcbd22;stroke-linecap:square;stroke-width:1.5;"/>
   </g>
   <g id="line2d_22">
    <path clip-path="url(#pfc445a37cf)" d="M 933.954545 801.805594 
L 900.871542 801.805594 
L 900.871542 801.99854 
L 900.871542 801.99854 
L 900.871542 799.280597 
L 900.871542 799.280597 
L 900.871542 793.4625 
L 900.871542 793.4625 
L 900.871542 789.270968 
L 900.871542 789.270968 
L 900.871542 785.945455 
L 900.871542 785.945455 
L 900.871542 782.450847 
L 900.871542 782.450847 
L 900.871542 780.02069 
L 900.871542 780.02069 
L 900.871542 778.773913 
L 900.871542 778.773913 
L 900.871542 772.2 
L 900.871542 772.2 
L 900.871542 769.4 
L 900.871542 769.4 
L 900.871542 766.49434 
L 867.788538 766.49434 
L 867.788538 767.752941 
L 834.705534 767.752941 
L 834.705534 764.242105 
L 834.705534 764.242105 
L 834.705534 755.4 
L 834.705534 755.4 
L 834.705534 753.51236 
L 834.705534 753.51236 
L 834.705534 745.517647 
L 834.705534 745.517647 
L 834.705534 736.733333 
L 801.62253 736.733333 
L 801.62253 734.4 
L 768.539526 734.4 
L 768.539526 736.989041 
L 768.539526 736.989041 
L 768.539526 726.182609 
L 768.539526 726.182609 
L 768.539526 723.282353 
L 768.539526 723.282353 
L 768.539526 717.218182 
L 768.539526 717.218182 
L 768.539526 714.046154 
L 735.456522 714.046154 
L 735.456522 716.109677 
L 735.456522 716.109677 
L 735.456522 712.711475 
L 735.456522 712.711475 
L 735.456522 709.2 
L 735.456522 709.2 
L 735.456522 705.569492 
L 735.456522 705.569492 
L 735.456522 689.727273 
L 735.456522 689.727273 
L 735.456522 680.909434 
L 636.20751 680.909434 
L 636.20751 693.313043 
L 603.124506 693.313043 
L 603.124506 705 
L 570.041502 705 
L 570.041502 702.131707 
L 570.041502 702.131707 
L 570.041502 696.6 
L 570.041502 696.6 
L 570.041502 678.210811 
L 570.041502 678.210811 
L 570.041502 671.4 
L 570.041502 671.4 
L 570.041502 656.576471 
L 536.958498 656.576471 
L 536.958498 655.141935 
L 503.875494 655.141935 
L 503.875494 671.4 
L 470.79249 671.4 
L 470.79249 688.77931 
L 470.79249 688.77931 
L 470.79249 680.4 
L 437.709486 680.4 
L 437.709486 681.48 
L 404.626482 681.48 
L 404.626482 702.9 
L 404.626482 702.9 
L 404.626482 693.313043 
L 404.626482 693.313043 
L 404.626482 682.854545 
L 404.626482 682.854545 
L 404.626482 671.4 
L 404.626482 671.4 
L 404.626482 658.8 
L 404.626482 658.8 
L 404.626482 629.4 
L 371.543478 629.4 
L 371.543478 656.576471 
L 371.543478 656.576471 
L 371.543478 621 
L 371.543478 621 
L 371.543478 599.4 
L 371.543478 599.4 
L 371.543478 574.476923 
L 338.460474 574.476923 
L 338.460474 608.4 
L 305.37747 608.4 
L 305.37747 648.490909 
L 305.37747 648.490909 
L 305.37747 621 
L 272.294466 621 
L 272.294466 639.9 
L 272.294466 639.9 
L 272.294466 599.4 
L 272.294466 599.4 
L 272.294466 545.4 
L 173.045455 545.4 
L 173.045455 923.4 
L 173.045455 923.4 
L 173.045455 923.4 
L 173.045455 923.4 
L 173.045455 167.4 
" style="fill:none;stroke:#17becf;stroke-linecap:square;stroke-width:1.5;"/>
   </g>
   <g id="patch_3">
    <path d="M 135 961.2 
L 135 129.6 
" style="fill:none;stroke:#000000;stroke-linecap:square;stroke-linejoin:miter;stroke-width:0.8;"/>
   </g>
   <g id="patch_4">
    <path d="M 972 961.2 
L 972 129.6 
" style="fill:none;stroke:#000000;stroke-linecap:square;stroke-linejoin:miter;stroke-width:0.8;"/>
   </g>
   <g id="patch_5">
    <path d="M 135 961.2 
L 972 961.2 
" style="fill:none;stroke:#000000;stroke-linecap:square;stroke-linejoin:miter;stroke-width:0.8;"/>
   </g>
   <g id="patch_6">
    <path d="M 135 129.6 
L 972 129.6 
" style="fill:none;stroke:#000000;stroke-linecap:square;stroke-linejoin:miter;stroke-width:0.8;"/>
   </g>
   <g id="text_15">
    <!-- Precision-Recall for Missing Data vs. death -->
    <defs>
     <path d="M 4.890625 31.390625 
L 31.203125 31.390625 
L 31.203125 23.390625 
L 4.890625 23.390625 
z
" id="DejaVuSans-45"/>
     <path id="DejaVuSans-32"/>
     <path d="M 37.109375 75.984375 
L 37.109375 68.5 
L 28.515625 68.5 
Q 23.6875 68.5 21.796875 66.546875 
Q 19.921875 64.59375 19.921875 59.515625 
L 19.921875 54.6875 
L 34.71875 54.6875 
L 34.71875 47.703125 
L 19.921875 47.703125 
L 19.921875 0 
L 10.890625 0 
L 10.890625 47.703125 
L 2.296875 47.703125 
L 2.296875 54.6875 
L 10.890625 54.6875 
L 10.890625 58.5 
Q 10.890625 67.625 15.140625 71.796875 
Q 19.390625 75.984375 28.609375 75.984375 
z
" id="DejaVuSans-102"/>
     <path d="M 9.8125 72.90625 
L 24.515625 72.90625 
L 43.109375 23.296875 
L 61.8125 72.90625 
L 76.515625 72.90625 
L 76.515625 0 
L 66.890625 0 
L 66.890625 64.015625 
L 48.09375 14.015625 
L 38.1875 14.015625 
L 19.390625 64.015625 
L 19.390625 0 
L 9.8125 0 
z
" id="DejaVuSans-77"/>
     <path d="M 45.40625 27.984375 
Q 45.40625 37.75 41.375 43.109375 
Q 37.359375 48.484375 30.078125 48.484375 
Q 22.859375 48.484375 18.828125 43.109375 
Q 14.796875 37.75 14.796875 27.984375 
Q 14.796875 18.265625 18.828125 12.890625 
Q 22.859375 7.515625 30.078125 7.515625 
Q 37.359375 7.515625 41.375 12.890625 
Q 45.40625 18.265625 45.40625 27.984375 
z
M 54.390625 6.78125 
Q 54.390625 -7.171875 48.1875 -13.984375 
Q 42 -20.796875 29.203125 -20.796875 
Q 24.46875 -20.796875 20.265625 -20.09375 
Q 16.0625 -19.390625 12.109375 -17.921875 
L 12.109375 -9.1875 
Q 16.0625 -11.328125 19.921875 -12.34375 
Q 23.78125 -13.375 27.78125 -13.375 
Q 36.625 -13.375 41.015625 -8.765625 
Q 45.40625 -4.15625 45.40625 5.171875 
L 45.40625 9.625 
Q 42.625 4.78125 38.28125 2.390625 
Q 33.9375 0 27.875 0 
Q 17.828125 0 11.671875 7.65625 
Q 5.515625 15.328125 5.515625 27.984375 
Q 5.515625 40.671875 11.671875 48.328125 
Q 17.828125 56 27.875 56 
Q 33.9375 56 38.28125 53.609375 
Q 42.625 51.21875 45.40625 46.390625 
L 45.40625 54.6875 
L 54.390625 54.6875 
z
" id="DejaVuSans-103"/>
     <path d="M 19.671875 64.796875 
L 19.671875 8.109375 
L 31.59375 8.109375 
Q 46.6875 8.109375 53.6875 14.9375 
Q 60.6875 21.78125 60.6875 36.53125 
Q 60.6875 51.171875 53.6875 57.984375 
Q 46.6875 64.796875 31.59375 64.796875 
z
M 9.8125 72.90625 
L 30.078125 72.90625 
Q 51.265625 72.90625 61.171875 64.09375 
Q 71.09375 55.28125 71.09375 36.53125 
Q 71.09375 17.671875 61.125 8.828125 
Q 51.171875 0 30.078125 0 
L 9.8125 0 
z
" id="DejaVuSans-68"/>
     <path d="M 18.3125 70.21875 
L 18.3125 54.6875 
L 36.8125 54.6875 
L 36.8125 47.703125 
L 18.3125 47.703125 
L 18.3125 18.015625 
Q 18.3125 11.328125 20.140625 9.421875 
Q 21.96875 7.515625 27.59375 7.515625 
L 36.8125 7.515625 
L 36.8125 0 
L 27.59375 0 
Q 17.1875 0 13.234375 3.875 
Q 9.28125 7.765625 9.28125 18.015625 
L 9.28125 47.703125 
L 2.6875 47.703125 
L 2.6875 54.6875 
L 9.28125 54.6875 
L 9.28125 70.21875 
z
" id="DejaVuSans-116"/>
     <path d="M 2.984375 54.6875 
L 12.5 54.6875 
L 29.59375 8.796875 
L 46.6875 54.6875 
L 56.203125 54.6875 
L 35.6875 0 
L 23.484375 0 
z
" id="DejaVuSans-118"/>
     <path d="M 45.40625 46.390625 
L 45.40625 75.984375 
L 54.390625 75.984375 
L 54.390625 0 
L 45.40625 0 
L 45.40625 8.203125 
Q 42.578125 3.328125 38.25 0.953125 
Q 33.9375 -1.421875 27.875 -1.421875 
Q 17.96875 -1.421875 11.734375 6.484375 
Q 5.515625 14.40625 5.515625 27.296875 
Q 5.515625 40.1875 11.734375 48.09375 
Q 17.96875 56 27.875 56 
Q 33.9375 56 38.25 53.625 
Q 42.578125 51.265625 45.40625 46.390625 
z
M 14.796875 27.296875 
Q 14.796875 17.390625 18.875 11.75 
Q 22.953125 6.109375 30.078125 6.109375 
Q 37.203125 6.109375 41.296875 11.75 
Q 45.40625 17.390625 45.40625 27.296875 
Q 45.40625 37.203125 41.296875 42.84375 
Q 37.203125 48.484375 30.078125 48.484375 
Q 22.953125 48.484375 18.875 42.84375 
Q 14.796875 37.203125 14.796875 27.296875 
z
" id="DejaVuSans-100"/>
     <path d="M 54.890625 33.015625 
L 54.890625 0 
L 45.90625 0 
L 45.90625 32.71875 
Q 45.90625 40.484375 42.875 44.328125 
Q 39.84375 48.1875 33.796875 48.1875 
Q 26.515625 48.1875 22.3125 43.546875 
Q 18.109375 38.921875 18.109375 30.90625 
L 18.109375 0 
L 9.078125 0 
L 9.078125 75.984375 
L 18.109375 75.984375 
L 18.109375 46.1875 
Q 21.34375 51.125 25.703125 53.5625 
Q 30.078125 56 35.796875 56 
Q 45.21875 56 50.046875 50.171875 
Q 54.890625 44.34375 54.890625 33.015625 
z
" id="DejaVuSans-104"/>
    </defs>
    <g transform="translate(426.26625 123.6)scale(0.12 -0.12)">
     <use xlink:href="#DejaVuSans-80"/>
     <use x="58.552734" xlink:href="#DejaVuSans-114"/>
     <use x="97.416016" xlink:href="#DejaVuSans-101"/>
     <use x="158.939453" xlink:href="#DejaVuSans-99"/>
     <use x="213.919922" xlink:href="#DejaVuSans-105"/>
     <use x="241.703125" xlink:href="#DejaVuSans-115"/>
     <use x="293.802734" xlink:href="#DejaVuSans-105"/>
     <use x="321.585938" xlink:href="#DejaVuSans-111"/>
     <use x="382.767578" xlink:href="#DejaVuSans-110"/>
     <use x="446.146484" xlink:href="#DejaVuSans-45"/>
     <use x="482.230469" xlink:href="#DejaVuSans-82"/>
     <use x="547.212891" xlink:href="#DejaVuSans-101"/>
     <use x="608.736328" xlink:href="#DejaVuSans-99"/>
     <use x="663.716797" xlink:href="#DejaVuSans-97"/>
     <use x="724.996094" xlink:href="#DejaVuSans-108"/>
     <use x="752.779297" xlink:href="#DejaVuSans-108"/>
     <use x="780.5625" xlink:href="#DejaVuSans-32"/>
     <use x="812.349609" xlink:href="#DejaVuSans-102"/>
     <use x="847.554688" xlink:href="#DejaVuSans-111"/>
     <use x="908.736328" xlink:href="#DejaVuSans-114"/>
     <use x="949.849609" xlink:href="#DejaVuSans-32"/>
     <use x="981.636719" xlink:href="#DejaVuSans-77"/>
     <use x="1067.916016" xlink:href="#DejaVuSans-105"/>
     <use x="1095.699219" xlink:href="#DejaVuSans-115"/>
     <use x="1147.798828" xlink:href="#DejaVuSans-115"/>
     <use x="1199.898438" xlink:href="#DejaVuSans-105"/>
     <use x="1227.681641" xlink:href="#DejaVuSans-110"/>
     <use x="1291.060547" xlink:href="#DejaVuSans-103"/>
     <use x="1354.537109" xlink:href="#DejaVuSans-32"/>
     <use x="1386.324219" xlink:href="#DejaVuSans-68"/>
     <use x="1463.326172" xlink:href="#DejaVuSans-97"/>
     <use x="1524.605469" xlink:href="#DejaVuSans-116"/>
     <use x="1563.814453" xlink:href="#DejaVuSans-97"/>
     <use x="1625.09375" xlink:href="#DejaVuSans-32"/>
     <use x="1656.880859" xlink:href="#DejaVuSans-118"/>
     <use x="1716.060547" xlink:href="#DejaVuSans-115"/>
     <use x="1768.160156" xlink:href="#DejaVuSans-46"/>
     <use x="1799.947266" xlink:href="#DejaVuSans-32"/>
     <use x="1831.734375" xlink:href="#DejaVuSans-100"/>
     <use x="1895.210938" xlink:href="#DejaVuSans-101"/>
     <use x="1956.734375" xlink:href="#DejaVuSans-97"/>
     <use x="2018.013672" xlink:href="#DejaVuSans-116"/>
     <use x="2057.222656" xlink:href="#DejaVuSans-104"/>
    </g>
   </g>
   <g id="legend_1">
    <g id="patch_7">
     <path d="M 889.484375 284.38125 
L 965 284.38125 
Q 967 284.38125 967 282.38125 
L 967 136.6 
Q 967 134.6 965 134.6 
L 889.484375 134.6 
Q 887.484375 134.6 887.484375 136.6 
L 887.484375 282.38125 
Q 887.484375 284.38125 889.484375 284.38125 
z
" style="fill:#ffffff;opacity:0.8;stroke:#cccccc;stroke-linejoin:miter;"/>
    </g>
    <g id="line2d_23">
     <path d="M 891.484375 142.698438 
L 911.484375 142.698438 
" style="fill:none;stroke:#1f77b4;stroke-linecap:square;stroke-width:1.5;"/>
    </g>
    <g id="line2d_24"/>
    <g id="text_16">
     <!-- AP=0.21 -->
     <defs>
      <path d="M 34.1875 63.1875 
L 20.796875 26.90625 
L 47.609375 26.90625 
z
M 28.609375 72.90625 
L 39.796875 72.90625 
L 67.578125 0 
L 57.328125 0 
L 50.6875 18.703125 
L 17.828125 18.703125 
L 11.1875 0 
L 0.78125 0 
z
" id="DejaVuSans-65"/>
      <path d="M 10.59375 45.40625 
L 73.1875 45.40625 
L 73.1875 37.203125 
L 10.59375 37.203125 
z
M 10.59375 25.484375 
L 73.1875 25.484375 
L 73.1875 17.1875 
L 10.59375 17.1875 
z
" id="DejaVuSans-61"/>
     </defs>
     <g transform="translate(919.484375 146.198438)scale(0.1 -0.1)">
      <use xlink:href="#DejaVuSans-65"/>
      <use x="68.408203" xlink:href="#DejaVuSans-80"/>
      <use x="128.710938" xlink:href="#DejaVuSans-61"/>
      <use x="212.5" xlink:href="#DejaVuSans-48"/>
      <use x="276.123047" xlink:href="#DejaVuSans-46"/>
      <use x="307.910156" xlink:href="#DejaVuSans-50"/>
      <use x="371.533203" xlink:href="#DejaVuSans-49"/>
     </g>
    </g>
    <g id="line2d_25">
     <path d="M 891.484375 157.376563 
L 911.484375 157.376563 
" style="fill:none;stroke:#ff7f0e;stroke-linecap:square;stroke-width:1.5;"/>
    </g>
    <g id="line2d_26"/>
    <g id="text_17">
     <!-- AP=0.25 -->
     <defs>
      <path d="M 10.796875 72.90625 
L 49.515625 72.90625 
L 49.515625 64.59375 
L 19.828125 64.59375 
L 19.828125 46.734375 
Q 21.96875 47.46875 24.109375 47.828125 
Q 26.265625 48.1875 28.421875 48.1875 
Q 40.625 48.1875 47.75 41.5 
Q 54.890625 34.8125 54.890625 23.390625 
Q 54.890625 11.625 47.5625 5.09375 
Q 40.234375 -1.421875 26.90625 -1.421875 
Q 22.3125 -1.421875 17.546875 -0.640625 
Q 12.796875 0.140625 7.71875 1.703125 
L 7.71875 11.625 
Q 12.109375 9.234375 16.796875 8.0625 
Q 21.484375 6.890625 26.703125 6.890625 
Q 35.15625 6.890625 40.078125 11.328125 
Q 45.015625 15.765625 45.015625 23.390625 
Q 45.015625 31 40.078125 35.4375 
Q 35.15625 39.890625 26.703125 39.890625 
Q 22.75 39.890625 18.8125 39.015625 
Q 14.890625 38.140625 10.796875 36.28125 
z
" id="DejaVuSans-53"/>
     </defs>
     <g transform="translate(919.484375 160.876563)scale(0.1 -0.1)">
      <use xlink:href="#DejaVuSans-65"/>
      <use x="68.408203" xlink:href="#DejaVuSans-80"/>
      <use x="128.710938" xlink:href="#DejaVuSans-61"/>
      <use x="212.5" xlink:href="#DejaVuSans-48"/>
      <use x="276.123047" xlink:href="#DejaVuSans-46"/>
      <use x="307.910156" xlink:href="#DejaVuSans-50"/>
      <use x="371.533203" xlink:href="#DejaVuSans-53"/>
     </g>
    </g>
    <g id="line2d_27">
     <path d="M 891.484375 172.054688 
L 911.484375 172.054688 
" style="fill:none;stroke:#2ca02c;stroke-linecap:square;stroke-width:1.5;"/>
    </g>
    <g id="line2d_28"/>
    <g id="text_18">
     <!-- AP=0.13 -->
     <defs>
      <path d="M 40.578125 39.3125 
Q 47.65625 37.796875 51.625 33 
Q 55.609375 28.21875 55.609375 21.1875 
Q 55.609375 10.40625 48.1875 4.484375 
Q 40.765625 -1.421875 27.09375 -1.421875 
Q 22.515625 -1.421875 17.65625 -0.515625 
Q 12.796875 0.390625 7.625 2.203125 
L 7.625 11.71875 
Q 11.71875 9.328125 16.59375 8.109375 
Q 21.484375 6.890625 26.8125 6.890625 
Q 36.078125 6.890625 40.9375 10.546875 
Q 45.796875 14.203125 45.796875 21.1875 
Q 45.796875 27.640625 41.28125 31.265625 
Q 36.765625 34.90625 28.71875 34.90625 
L 20.21875 34.90625 
L 20.21875 43.015625 
L 29.109375 43.015625 
Q 36.375 43.015625 40.234375 45.921875 
Q 44.09375 48.828125 44.09375 54.296875 
Q 44.09375 59.90625 40.109375 62.90625 
Q 36.140625 65.921875 28.71875 65.921875 
Q 24.65625 65.921875 20.015625 65.03125 
Q 15.375 64.15625 9.8125 62.3125 
L 9.8125 71.09375 
Q 15.4375 72.65625 20.34375 73.4375 
Q 25.25 74.21875 29.59375 74.21875 
Q 40.828125 74.21875 47.359375 69.109375 
Q 53.90625 64.015625 53.90625 55.328125 
Q 53.90625 49.265625 50.4375 45.09375 
Q 46.96875 40.921875 40.578125 39.3125 
z
" id="DejaVuSans-51"/>
     </defs>
     <g transform="translate(919.484375 175.554688)scale(0.1 -0.1)">
      <use xlink:href="#DejaVuSans-65"/>
      <use x="68.408203" xlink:href="#DejaVuSans-80"/>
      <use x="128.710938" xlink:href="#DejaVuSans-61"/>
      <use x="212.5" xlink:href="#DejaVuSans-48"/>
      <use x="276.123047" xlink:href="#DejaVuSans-46"/>
      <use x="307.910156" xlink:href="#DejaVuSans-49"/>
      <use x="371.533203" xlink:href="#DejaVuSans-51"/>
     </g>
    </g>
    <g id="line2d_29">
     <path d="M 891.484375 186.732813 
L 911.484375 186.732813 
" style="fill:none;stroke:#d62728;stroke-linecap:square;stroke-width:1.5;"/>
    </g>
    <g id="line2d_30"/>
    <g id="text_19">
     <!-- AP=0.15 -->
     <g transform="translate(919.484375 190.232813)scale(0.1 -0.1)">
      <use xlink:href="#DejaVuSans-65"/>
      <use x="68.408203" xlink:href="#DejaVuSans-80"/>
      <use x="128.710938" xlink:href="#DejaVuSans-61"/>
      <use x="212.5" xlink:href="#DejaVuSans-48"/>
      <use x="276.123047" xlink:href="#DejaVuSans-46"/>
      <use x="307.910156" xlink:href="#DejaVuSans-49"/>
      <use x="371.533203" xlink:href="#DejaVuSans-53"/>
     </g>
    </g>
    <g id="line2d_31">
     <path d="M 891.484375 201.410938 
L 911.484375 201.410938 
" style="fill:none;stroke:#9467bd;stroke-linecap:square;stroke-width:1.5;"/>
    </g>
    <g id="line2d_32"/>
    <g id="text_20">
     <!-- AP=0.19 -->
     <defs>
      <path d="M 10.984375 1.515625 
L 10.984375 10.5 
Q 14.703125 8.734375 18.5 7.8125 
Q 22.3125 6.890625 25.984375 6.890625 
Q 35.75 6.890625 40.890625 13.453125 
Q 46.046875 20.015625 46.78125 33.40625 
Q 43.953125 29.203125 39.59375 26.953125 
Q 35.25 24.703125 29.984375 24.703125 
Q 19.046875 24.703125 12.671875 31.3125 
Q 6.296875 37.9375 6.296875 49.421875 
Q 6.296875 60.640625 12.9375 67.421875 
Q 19.578125 74.21875 30.609375 74.21875 
Q 43.265625 74.21875 49.921875 64.515625 
Q 56.59375 54.828125 56.59375 36.375 
Q 56.59375 19.140625 48.40625 8.859375 
Q 40.234375 -1.421875 26.421875 -1.421875 
Q 22.703125 -1.421875 18.890625 -0.6875 
Q 15.09375 0.046875 10.984375 1.515625 
z
M 30.609375 32.421875 
Q 37.25 32.421875 41.125 36.953125 
Q 45.015625 41.5 45.015625 49.421875 
Q 45.015625 57.28125 41.125 61.84375 
Q 37.25 66.40625 30.609375 66.40625 
Q 23.96875 66.40625 20.09375 61.84375 
Q 16.21875 57.28125 16.21875 49.421875 
Q 16.21875 41.5 20.09375 36.953125 
Q 23.96875 32.421875 30.609375 32.421875 
z
" id="DejaVuSans-57"/>
     </defs>
     <g transform="translate(919.484375 204.910938)scale(0.1 -0.1)">
      <use xlink:href="#DejaVuSans-65"/>
      <use x="68.408203" xlink:href="#DejaVuSans-80"/>
      <use x="128.710938" xlink:href="#DejaVuSans-61"/>
      <use x="212.5" xlink:href="#DejaVuSans-48"/>
      <use x="276.123047" xlink:href="#DejaVuSans-46"/>
      <use x="307.910156" xlink:href="#DejaVuSans-49"/>
      <use x="371.533203" xlink:href="#DejaVuSans-57"/>
     </g>
    </g>
    <g id="line2d_33">
     <path d="M 891.484375 216.089063 
L 911.484375 216.089063 
" style="fill:none;stroke:#8c564b;stroke-linecap:square;stroke-width:1.5;"/>
    </g>
    <g id="line2d_34"/>
    <g id="text_21">
     <!-- AP=0.24 -->
     <g transform="translate(919.484375 219.589063)scale(0.1 -0.1)">
      <use xlink:href="#DejaVuSans-65"/>
      <use x="68.408203" xlink:href="#DejaVuSans-80"/>
      <use x="128.710938" xlink:href="#DejaVuSans-61"/>
      <use x="212.5" xlink:href="#DejaVuSans-48"/>
      <use x="276.123047" xlink:href="#DejaVuSans-46"/>
      <use x="307.910156" xlink:href="#DejaVuSans-50"/>
      <use x="371.533203" xlink:href="#DejaVuSans-52"/>
     </g>
    </g>
    <g id="line2d_35">
     <path d="M 891.484375 230.767188 
L 911.484375 230.767188 
" style="fill:none;stroke:#e377c2;stroke-linecap:square;stroke-width:1.5;"/>
    </g>
    <g id="line2d_36"/>
    <g id="text_22">
     <!-- AP=0.19 -->
     <g transform="translate(919.484375 234.267188)scale(0.1 -0.1)">
      <use xlink:href="#DejaVuSans-65"/>
      <use x="68.408203" xlink:href="#DejaVuSans-80"/>
      <use x="128.710938" xlink:href="#DejaVuSans-61"/>
      <use x="212.5" xlink:href="#DejaVuSans-48"/>
      <use x="276.123047" xlink:href="#DejaVuSans-46"/>
      <use x="307.910156" xlink:href="#DejaVuSans-49"/>
      <use x="371.533203" xlink:href="#DejaVuSans-57"/>
     </g>
    </g>
    <g id="line2d_37">
     <path d="M 891.484375 245.445313 
L 911.484375 245.445313 
" style="fill:none;stroke:#7f7f7f;stroke-linecap:square;stroke-width:1.5;"/>
    </g>
    <g id="line2d_38"/>
    <g id="text_23">
     <!-- AP=0.18 -->
     <g transform="translate(919.484375 248.945313)scale(0.1 -0.1)">
      <use xlink:href="#DejaVuSans-65"/>
      <use x="68.408203" xlink:href="#DejaVuSans-80"/>
      <use x="128.710938" xlink:href="#DejaVuSans-61"/>
      <use x="212.5" xlink:href="#DejaVuSans-48"/>
      <use x="276.123047" xlink:href="#DejaVuSans-46"/>
      <use x="307.910156" xlink:href="#DejaVuSans-49"/>
      <use x="371.533203" xlink:href="#DejaVuSans-56"/>
     </g>
    </g>
    <g id="line2d_39">
     <path d="M 891.484375 260.123438 
L 911.484375 260.123438 
" style="fill:none;stroke:#bcbd22;stroke-linecap:square;stroke-width:1.5;"/>
    </g>
    <g id="line2d_40"/>
    <g id="text_24">
     <!-- AP=0.18 -->
     <g transform="translate(919.484375 263.623438)scale(0.1 -0.1)">
      <use xlink:href="#DejaVuSans-65"/>
      <use x="68.408203" xlink:href="#DejaVuSans-80"/>
      <use x="128.710938" xlink:href="#DejaVuSans-61"/>
      <use x="212.5" xlink:href="#DejaVuSans-48"/>
      <use x="276.123047" xlink:href="#DejaVuSans-46"/>
      <use x="307.910156" xlink:href="#DejaVuSans-49"/>
      <use x="371.533203" xlink:href="#DejaVuSans-56"/>
     </g>
    </g>
    <g id="line2d_41">
     <path d="M 891.484375 274.801563 
L 911.484375 274.801563 
" style="fill:none;stroke:#17becf;stroke-linecap:square;stroke-width:1.5;"/>
    </g>
    <g id="line2d_42"/>
    <g id="text_25">
     <!-- AP=0.18 -->
     <g transform="translate(919.484375 278.301563)scale(0.1 -0.1)">
      <use xlink:href="#DejaVuSans-65"/>
      <use x="68.408203" xlink:href="#DejaVuSans-80"/>
      <use x="128.710938" xlink:href="#DejaVuSans-61"/>
      <use x="212.5" xlink:href="#DejaVuSans-48"/>
      <use x="276.123047" xlink:href="#DejaVuSans-46"/>
      <use x="307.910156" xlink:href="#DejaVuSans-49"/>
      <use x="371.533203" xlink:href="#DejaVuSans-56"/>
     </g>
    </g>
   </g>
  </g>
 </g>
 <defs>
  <clipPath id="pfc445a37cf">
   <rect height="831.6" width="837" x="135" y="129.6"/>
  </clipPath>
 </defs>
</svg>
