<?xml version="1.0" encoding="utf-8" standalone="no"?>
<!DOCTYPE svg PUBLIC "-//W3C//DTD SVG 1.1//EN"
  "http://www.w3.org/Graphics/SVG/1.1/DTD/svg11.dtd">
<!-- Created with matplotlib (https://matplotlib.org/) -->
<svg height="345.6pt" version="1.1" viewBox="0 0 460.8 345.6" width="460.8pt" xmlns="http://www.w3.org/2000/svg" xmlns:xlink="http://www.w3.org/1999/xlink">
 <defs>
  <style type="text/css">
*{stroke-linecap:butt;stroke-linejoin:round;}
  </style>
 </defs>
 <g id="figure_1">
  <g id="patch_1">
   <path d="M 0 345.6 
L 460.8 345.6 
L 460.8 0 
L 0 0 
z
" style="fill:#ffffff;"/>
  </g>
  <g id="axes_1">
   <g id="patch_2">
    <path d="M 57.6 307.584 
L 414.72 307.584 
L 414.72 41.472 
L 57.6 41.472 
z
" style="fill:#ffffff;"/>
   </g>
   <g id="PolyCollection_1">
    <defs>
     <path d="M 182.117276 -170.81366 
L 182.117276 -171.33034 
L 184.302832 -171.46736 
L 186.488387 -171.651068 
L 188.673943 -171.884439 
L 190.859498 -172.165047 
L 193.045054 -172.483929 
L 195.230609 -172.825566 
L 197.416165 -173.169157 
L 199.601721 -173.490967 
L 201.787276 -173.767217 
L 203.972832 -173.976877 
L 206.158387 -174.103869 
L 208.343943 -174.138477 
L 210.529498 -174.078064 
L 212.715054 -173.927238 
L 214.900609 -173.697549 
L 217.086165 -173.406603 
L 219.27172 -173.07643 
L 221.457276 -172.73109 
L 223.642831 -172.393791 
L 225.828387 -172.084088 
L 228.013942 -171.815781 
L 230.199498 -171.595993 
L 232.385053 -171.425521 
L 234.570609 -171.300217 
L 236.756164 -171.212869 
L 238.94172 -171.155095 
L 241.127275 -171.11882 
L 243.312831 -171.09719 
L 245.498386 -171.084938 
L 247.683942 -171.078345 
L 249.869497 -171.074978 
L 252.055053 -171.073361 
L 254.240608 -171.072668 
L 256.426164 -171.072505 
L 258.61172 -171.072785 
L 260.797275 -171.073708 
L 262.982831 -171.075863 
L 265.168386 -171.080469 
L 267.353942 -171.089786 
L 269.539497 -171.107735 
L 271.725053 -171.140688 
L 273.910608 -171.198364 
L 276.096164 -171.294595 
L 278.281719 -171.447655 
L 280.467275 -171.679718 
L 282.65283 -172.01507 
L 284.838386 -172.476878 
L 287.023941 -173.08272 
L 289.209497 -173.839569 
L 291.395052 -174.739411 
L 293.580608 -175.756914 
L 295.766163 -176.85042 
L 297.951719 -177.966881 
L 300.137274 -179.050383 
L 302.32283 -180.05275 
L 304.508385 -180.943861 
L 306.693941 -181.719091 
L 308.879496 -182.401823 
L 311.065052 -183.040353 
L 313.250607 -183.700191 
L 315.436163 -184.454267 
L 317.621719 -185.374287 
L 319.807274 -186.526077 
L 321.99283 -187.970328 
L 324.178385 -189.768107 
L 326.363941 -191.988453 
L 328.549496 -194.714087 
L 330.735052 -198.041103 
L 332.920607 -202.069872 
L 335.106163 -206.886991 
L 337.291718 -212.541456 
L 339.477274 -219.021123 
L 341.662829 -226.236796 
L 343.848385 -234.020022 
L 346.03394 -242.136956 
L 348.219496 -250.315711 
L 350.405051 -258.280125 
L 352.590607 -265.780712 
L 354.776162 -272.614231 
L 356.961718 -278.626647 
L 359.147273 -283.698929 
L 361.332829 -287.720226 
L 363.518384 -290.557313 
L 365.70394 -292.032 
L 367.889495 -291.918298 
L 370.075051 -289.967346 
L 372.260607 -285.9603 
L 374.446162 -279.778994 
L 376.631718 -271.474978 
L 378.817273 -261.313673 
L 381.002829 -249.774893 
L 383.188384 -237.503299 
L 385.37394 -225.218218 
L 387.559495 -213.60551 
L 389.745051 -203.21945 
L 391.930606 -194.418098 
L 394.116162 -187.343762 
L 396.301717 -181.946055 
L 398.487273 -178.034084 
L 398.487273 -164.109916 
L 398.487273 -164.109916 
L 396.301717 -160.197945 
L 394.116162 -154.800238 
L 391.930606 -147.725902 
L 389.745051 -138.92455 
L 387.559495 -128.53849 
L 385.37394 -116.925782 
L 383.188384 -104.640701 
L 381.002829 -92.369107 
L 378.817273 -80.830327 
L 376.631718 -70.669022 
L 374.446162 -62.365006 
L 372.260607 -56.1837 
L 370.075051 -52.176654 
L 367.889495 -50.225702 
L 365.70394 -50.112 
L 363.518384 -51.586687 
L 361.332829 -54.423774 
L 359.147273 -58.445071 
L 356.961718 -63.517353 
L 354.776162 -69.529769 
L 352.590607 -76.363288 
L 350.405051 -83.863875 
L 348.219496 -91.828289 
L 346.03394 -100.007044 
L 343.848385 -108.123978 
L 341.662829 -115.907204 
L 339.477274 -123.122877 
L 337.291718 -129.602544 
L 335.106163 -135.257009 
L 332.920607 -140.074128 
L 330.735052 -144.102897 
L 328.549496 -147.429913 
L 326.363941 -150.155547 
L 324.178385 -152.375893 
L 321.99283 -154.173672 
L 319.807274 -155.617923 
L 317.621719 -156.769713 
L 315.436163 -157.689733 
L 313.250607 -158.443809 
L 311.065052 -159.103647 
L 308.879496 -159.742177 
L 306.693941 -160.424909 
L 304.508385 -161.200139 
L 302.32283 -162.09125 
L 300.137274 -163.093617 
L 297.951719 -164.177119 
L 295.766163 -165.29358 
L 293.580608 -166.387086 
L 291.395052 -167.404589 
L 289.209497 -168.304431 
L 287.023941 -169.06128 
L 284.838386 -169.667122 
L 282.65283 -170.12893 
L 280.467275 -170.464282 
L 278.281719 -170.696345 
L 276.096164 -170.849405 
L 273.910608 -170.945636 
L 271.725053 -171.003312 
L 269.539497 -171.036265 
L 267.353942 -171.054214 
L 265.168386 -171.063531 
L 262.982831 -171.068137 
L 260.797275 -171.070292 
L 258.61172 -171.071215 
L 256.426164 -171.071495 
L 254.240608 -171.071332 
L 252.055053 -171.070639 
L 249.869497 -171.069022 
L 247.683942 -171.065655 
L 245.498386 -171.059062 
L 243.312831 -171.04681 
L 241.127275 -171.02518 
L 238.94172 -170.988905 
L 236.756164 -170.931131 
L 234.570609 -170.843783 
L 232.385053 -170.718479 
L 230.199498 -170.548007 
L 228.013942 -170.328219 
L 225.828387 -170.059912 
L 223.642831 -169.750209 
L 221.457276 -169.41291 
L 219.27172 -169.06757 
L 217.086165 -168.737397 
L 214.900609 -168.446451 
L 212.715054 -168.216762 
L 210.529498 -168.065936 
L 208.343943 -168.005523 
L 206.158387 -168.040131 
L 203.972832 -168.167123 
L 201.787276 -168.376783 
L 199.601721 -168.653033 
L 197.416165 -168.974843 
L 195.230609 -169.318434 
L 193.045054 -169.660071 
L 190.859498 -169.978953 
L 188.673943 -170.259561 
L 186.488387 -170.492932 
L 184.302832 -170.67664 
L 182.117276 -170.81366 
z
" id="m3a94fc1f12" style="stroke:#4c4c4c;stroke-opacity:0.5;stroke-width:1.5;"/>
    </defs>
    <g clip-path="url(#p2e19f8ecd6)">
     <use style="fill:#df9c20;fill-opacity:0.5;stroke:#4c4c4c;stroke-opacity:0.5;stroke-width:1.5;" x="0" xlink:href="#m3a94fc1f12" y="345.6"/>
    </g>
   </g>
   <g id="PolyCollection_2">
    <defs>
     <path d="M 73.832727 -170.987933 
L 73.832727 -171.156067 
L 77.018882 -171.301406 
L 80.205036 -171.514749 
L 83.391191 -171.676341 
L 86.577345 -171.655416 
L 89.7635 -171.470332 
L 92.949654 -171.264347 
L 96.135809 -171.137689 
L 99.321963 -171.087866 
L 102.508118 -171.07471 
L 105.694272 -171.072327 
L 108.880426 -171.072028 
L 112.066581 -171.072002 
L 115.252735 -171.072 
L 118.43889 -171.072 
L 121.625044 -171.072 
L 124.811199 -171.072 
L 127.997353 -171.072 
L 131.183508 -171.072 
L 134.369662 -171.072 
L 137.555817 -171.072 
L 140.741971 -171.072 
L 143.928126 -171.072 
L 147.11428 -171.072 
L 150.300435 -171.072 
L 153.486589 -171.072 
L 156.672744 -171.072 
L 159.858898 -171.072 
L 163.045052 -171.072 
L 166.231207 -171.072 
L 169.417361 -171.072 
L 172.603516 -171.072 
L 175.78967 -171.072 
L 178.975825 -171.072 
L 182.161979 -171.072 
L 185.348134 -171.072 
L 188.534288 -171.072 
L 191.720443 -171.072 
L 194.906597 -171.072 
L 198.092752 -171.072 
L 201.278906 -171.072 
L 204.465061 -171.072 
L 207.651215 -171.072 
L 210.837369 -171.072 
L 214.023524 -171.072 
L 217.209678 -171.072 
L 220.395833 -171.072 
L 223.581987 -171.072 
L 226.768142 -171.072 
L 229.954296 -171.072 
L 233.140451 -171.072 
L 236.326605 -171.072 
L 239.51276 -171.072 
L 242.698914 -171.072 
L 245.885069 -171.072 
L 249.071223 -171.072 
L 252.257378 -171.072 
L 255.443532 -171.072 
L 258.629687 -171.072 
L 261.815841 -171.072 
L 265.001995 -171.072 
L 268.18815 -171.072 
L 271.374304 -171.072 
L 274.560459 -171.072 
L 277.746613 -171.072 
L 280.932768 -171.072 
L 284.118922 -171.072 
L 287.305077 -171.072 
L 290.491231 -171.072 
L 293.677386 -171.072 
L 296.86354 -171.072 
L 300.049695 -171.072 
L 303.235849 -171.072001 
L 306.422004 -171.072015 
L 309.608158 -171.072189 
L 312.794313 -171.073751 
L 315.980467 -171.083702 
L 319.166621 -171.129507 
L 322.352776 -171.28522 
L 325.53893 -171.688356 
L 328.725085 -172.504593 
L 331.911239 -173.800432 
L 335.097394 -175.378946 
L 338.283548 -176.861174 
L 341.469703 -178.178786 
L 344.655857 -180.050864 
L 347.842012 -184.079575 
L 351.028166 -192.438434 
L 354.214321 -206.671592 
L 357.400475 -225.933824 
L 360.58663 -247.012939 
L 363.772784 -266.667793 
L 366.958939 -282.664196 
L 370.145093 -292.032 
L 373.331247 -290.320252 
L 376.517402 -274.231211 
L 379.703556 -245.924013 
L 382.889711 -214.532114 
L 386.075865 -190.462363 
L 389.26202 -177.525272 
L 389.26202 -164.618728 
L 389.26202 -164.618728 
L 386.075865 -151.681637 
L 382.889711 -127.611886 
L 379.703556 -96.219987 
L 376.517402 -67.912789 
L 373.331247 -51.823748 
L 370.145093 -50.112 
L 366.958939 -59.479804 
L 363.772784 -75.476207 
L 360.58663 -95.131061 
L 357.400475 -116.210176 
L 354.214321 -135.472408 
L 351.028166 -149.705566 
L 347.842012 -158.064425 
L 344.655857 -162.093136 
L 341.469703 -163.965214 
L 338.283548 -165.282826 
L 335.097394 -166.765054 
L 331.911239 -168.343568 
L 328.725085 -169.639407 
L 325.53893 -170.455644 
L 322.352776 -170.85878 
L 319.166621 -171.014493 
L 315.980467 -171.060298 
L 312.794313 -171.070249 
L 309.608158 -171.071811 
L 306.422004 -171.071985 
L 303.235849 -171.071999 
L 300.049695 -171.072 
L 296.86354 -171.072 
L 293.677386 -171.072 
L 290.491231 -171.072 
L 287.305077 -171.072 
L 284.118922 -171.072 
L 280.932768 -171.072 
L 277.746613 -171.072 
L 274.560459 -171.072 
L 271.374304 -171.072 
L 268.18815 -171.072 
L 265.001995 -171.072 
L 261.815841 -171.072 
L 258.629687 -171.072 
L 255.443532 -171.072 
L 252.257378 -171.072 
L 249.071223 -171.072 
L 245.885069 -171.072 
L 242.698914 -171.072 
L 239.51276 -171.072 
L 236.326605 -171.072 
L 233.140451 -171.072 
L 229.954296 -171.072 
L 226.768142 -171.072 
L 223.581987 -171.072 
L 220.395833 -171.072 
L 217.209678 -171.072 
L 214.023524 -171.072 
L 210.837369 -171.072 
L 207.651215 -171.072 
L 204.465061 -171.072 
L 201.278906 -171.072 
L 198.092752 -171.072 
L 194.906597 -171.072 
L 191.720443 -171.072 
L 188.534288 -171.072 
L 185.348134 -171.072 
L 182.161979 -171.072 
L 178.975825 -171.072 
L 175.78967 -171.072 
L 172.603516 -171.072 
L 169.417361 -171.072 
L 166.231207 -171.072 
L 163.045052 -171.072 
L 159.858898 -171.072 
L 156.672744 -171.072 
L 153.486589 -171.072 
L 150.300435 -171.072 
L 147.11428 -171.072 
L 143.928126 -171.072 
L 140.741971 -171.072 
L 137.555817 -171.072 
L 134.369662 -171.072 
L 131.183508 -171.072 
L 127.997353 -171.072 
L 124.811199 -171.072 
L 121.625044 -171.072 
L 118.43889 -171.072 
L 115.252735 -171.072 
L 112.066581 -171.071998 
L 108.880426 -171.071972 
L 105.694272 -171.071673 
L 102.508118 -171.06929 
L 99.321963 -171.056134 
L 96.135809 -171.006311 
L 92.949654 -170.879653 
L 89.7635 -170.673668 
L 86.577345 -170.488584 
L 83.391191 -170.467659 
L 80.205036 -170.629251 
L 77.018882 -170.842594 
L 73.832727 -170.987933 
z
" id="ma82535ada7" style="stroke:#262626;stroke-opacity:0.5;stroke-width:1.5;"/>
    </defs>
    <g clip-path="url(#p2e19f8ecd6)">
     <use style="fill:#107010;fill-opacity:0.5;stroke:#262626;stroke-opacity:0.5;stroke-width:1.5;" x="0" xlink:href="#ma82535ada7" y="345.6"/>
    </g>
   </g>
   <g id="matplotlib.axis_1">
    <g id="xtick_1">
     <g id="line2d_1">
      <defs>
       <path d="M 0 0 
L 0 3.5 
" id="m817dcb4d46" style="stroke:#000000;stroke-width:0.8;"/>
      </defs>
      <g>
       <use style="stroke:#000000;stroke-width:0.8;" x="84.660121" xlink:href="#m817dcb4d46" y="307.584"/>
      </g>
     </g>
     <g id="text_1">
      <!-- 0 -->
      <defs>
       <path d="M 31.78125 66.40625 
Q 24.171875 66.40625 20.328125 58.90625 
Q 16.5 51.421875 16.5 36.375 
Q 16.5 21.390625 20.328125 13.890625 
Q 24.171875 6.390625 31.78125 6.390625 
Q 39.453125 6.390625 43.28125 13.890625 
Q 47.125 21.390625 47.125 36.375 
Q 47.125 51.421875 43.28125 58.90625 
Q 39.453125 66.40625 31.78125 66.40625 
z
M 31.78125 74.21875 
Q 44.046875 74.21875 50.515625 64.515625 
Q 56.984375 54.828125 56.984375 36.375 
Q 56.984375 17.96875 50.515625 8.265625 
Q 44.046875 -1.421875 31.78125 -1.421875 
Q 19.53125 -1.421875 13.0625 8.265625 
Q 6.59375 17.96875 6.59375 36.375 
Q 6.59375 54.828125 13.0625 64.515625 
Q 19.53125 74.21875 31.78125 74.21875 
z
" id="DejaVuSans-48"/>
      </defs>
      <g transform="translate(81.478871 322.182437)scale(0.1 -0.1)">
       <use xlink:href="#DejaVuSans-48"/>
      </g>
     </g>
    </g>
    <g id="xtick_2">
     <g id="line2d_2">
      <g>
       <use style="stroke:#000000;stroke-width:0.8;" x="143.415022" xlink:href="#m817dcb4d46" y="307.584"/>
      </g>
     </g>
     <g id="text_2">
      <!-- 20 -->
      <defs>
       <path d="M 19.1875 8.296875 
L 53.609375 8.296875 
L 53.609375 0 
L 7.328125 0 
L 7.328125 8.296875 
Q 12.9375 14.109375 22.625 23.890625 
Q 32.328125 33.6875 34.8125 36.53125 
Q 39.546875 41.84375 41.421875 45.53125 
Q 43.3125 49.21875 43.3125 52.78125 
Q 43.3125 58.59375 39.234375 62.25 
Q 35.15625 65.921875 28.609375 65.921875 
Q 23.96875 65.921875 18.8125 64.3125 
Q 13.671875 62.703125 7.8125 59.421875 
L 7.8125 69.390625 
Q 13.765625 71.78125 18.9375 73 
Q 24.125 74.21875 28.421875 74.21875 
Q 39.75 74.21875 46.484375 68.546875 
Q 53.21875 62.890625 53.21875 53.421875 
Q 53.21875 48.921875 51.53125 44.890625 
Q 49.859375 40.875 45.40625 35.40625 
Q 44.1875 33.984375 37.640625 27.21875 
Q 31.109375 20.453125 19.1875 8.296875 
z
" id="DejaVuSans-50"/>
      </defs>
      <g transform="translate(137.052522 322.182437)scale(0.1 -0.1)">
       <use xlink:href="#DejaVuSans-50"/>
       <use x="63.623047" xlink:href="#DejaVuSans-48"/>
      </g>
     </g>
    </g>
    <g id="xtick_3">
     <g id="line2d_3">
      <g>
       <use style="stroke:#000000;stroke-width:0.8;" x="202.169923" xlink:href="#m817dcb4d46" y="307.584"/>
      </g>
     </g>
     <g id="text_3">
      <!-- 40 -->
      <defs>
       <path d="M 37.796875 64.3125 
L 12.890625 25.390625 
L 37.796875 25.390625 
z
M 35.203125 72.90625 
L 47.609375 72.90625 
L 47.609375 25.390625 
L 58.015625 25.390625 
L 58.015625 17.1875 
L 47.609375 17.1875 
L 47.609375 0 
L 37.796875 0 
L 37.796875 17.1875 
L 4.890625 17.1875 
L 4.890625 26.703125 
z
" id="DejaVuSans-52"/>
      </defs>
      <g transform="translate(195.807423 322.182437)scale(0.1 -0.1)">
       <use xlink:href="#DejaVuSans-52"/>
       <use x="63.623047" xlink:href="#DejaVuSans-48"/>
      </g>
     </g>
    </g>
    <g id="xtick_4">
     <g id="line2d_4">
      <g>
       <use style="stroke:#000000;stroke-width:0.8;" x="260.924824" xlink:href="#m817dcb4d46" y="307.584"/>
      </g>
     </g>
     <g id="text_4">
      <!-- 60 -->
      <defs>
       <path d="M 33.015625 40.375 
Q 26.375 40.375 22.484375 35.828125 
Q 18.609375 31.296875 18.609375 23.390625 
Q 18.609375 15.53125 22.484375 10.953125 
Q 26.375 6.390625 33.015625 6.390625 
Q 39.65625 6.390625 43.53125 10.953125 
Q 47.40625 15.53125 47.40625 23.390625 
Q 47.40625 31.296875 43.53125 35.828125 
Q 39.65625 40.375 33.015625 40.375 
z
M 52.59375 71.296875 
L 52.59375 62.3125 
Q 48.875 64.0625 45.09375 64.984375 
Q 41.3125 65.921875 37.59375 65.921875 
Q 27.828125 65.921875 22.671875 59.328125 
Q 17.53125 52.734375 16.796875 39.40625 
Q 19.671875 43.65625 24.015625 45.921875 
Q 28.375 48.1875 33.59375 48.1875 
Q 44.578125 48.1875 50.953125 41.515625 
Q 57.328125 34.859375 57.328125 23.390625 
Q 57.328125 12.15625 50.6875 5.359375 
Q 44.046875 -1.421875 33.015625 -1.421875 
Q 20.359375 -1.421875 13.671875 8.265625 
Q 6.984375 17.96875 6.984375 36.375 
Q 6.984375 53.65625 15.1875 63.9375 
Q 23.390625 74.21875 37.203125 74.21875 
Q 40.921875 74.21875 44.703125 73.484375 
Q 48.484375 72.75 52.59375 71.296875 
z
" id="DejaVuSans-54"/>
      </defs>
      <g transform="translate(254.562324 322.182437)scale(0.1 -0.1)">
       <use xlink:href="#DejaVuSans-54"/>
       <use x="63.623047" xlink:href="#DejaVuSans-48"/>
      </g>
     </g>
    </g>
    <g id="xtick_5">
     <g id="line2d_5">
      <g>
       <use style="stroke:#000000;stroke-width:0.8;" x="319.679725" xlink:href="#m817dcb4d46" y="307.584"/>
      </g>
     </g>
     <g id="text_5">
      <!-- 80 -->
      <defs>
       <path d="M 31.78125 34.625 
Q 24.75 34.625 20.71875 30.859375 
Q 16.703125 27.09375 16.703125 20.515625 
Q 16.703125 13.921875 20.71875 10.15625 
Q 24.75 6.390625 31.78125 6.390625 
Q 38.8125 6.390625 42.859375 10.171875 
Q 46.921875 13.96875 46.921875 20.515625 
Q 46.921875 27.09375 42.890625 30.859375 
Q 38.875 34.625 31.78125 34.625 
z
M 21.921875 38.8125 
Q 15.578125 40.375 12.03125 44.71875 
Q 8.5 49.078125 8.5 55.328125 
Q 8.5 64.0625 14.71875 69.140625 
Q 20.953125 74.21875 31.78125 74.21875 
Q 42.671875 74.21875 48.875 69.140625 
Q 55.078125 64.0625 55.078125 55.328125 
Q 55.078125 49.078125 51.53125 44.71875 
Q 48 40.375 41.703125 38.8125 
Q 48.828125 37.15625 52.796875 32.3125 
Q 56.78125 27.484375 56.78125 20.515625 
Q 56.78125 9.90625 50.3125 4.234375 
Q 43.84375 -1.421875 31.78125 -1.421875 
Q 19.734375 -1.421875 13.25 4.234375 
Q 6.78125 9.90625 6.78125 20.515625 
Q 6.78125 27.484375 10.78125 32.3125 
Q 14.796875 37.15625 21.921875 38.8125 
z
M 18.3125 54.390625 
Q 18.3125 48.734375 21.84375 45.5625 
Q 25.390625 42.390625 31.78125 42.390625 
Q 38.140625 42.390625 41.71875 45.5625 
Q 45.3125 48.734375 45.3125 54.390625 
Q 45.3125 60.0625 41.71875 63.234375 
Q 38.140625 66.40625 31.78125 66.40625 
Q 25.390625 66.40625 21.84375 63.234375 
Q 18.3125 60.0625 18.3125 54.390625 
z
" id="DejaVuSans-56"/>
      </defs>
      <g transform="translate(313.317225 322.182437)scale(0.1 -0.1)">
       <use xlink:href="#DejaVuSans-56"/>
       <use x="63.623047" xlink:href="#DejaVuSans-48"/>
      </g>
     </g>
    </g>
    <g id="xtick_6">
     <g id="line2d_6">
      <g>
       <use style="stroke:#000000;stroke-width:0.8;" x="378.434626" xlink:href="#m817dcb4d46" y="307.584"/>
      </g>
     </g>
     <g id="text_6">
      <!-- 100 -->
      <defs>
       <path d="M 12.40625 8.296875 
L 28.515625 8.296875 
L 28.515625 63.921875 
L 10.984375 60.40625 
L 10.984375 69.390625 
L 28.421875 72.90625 
L 38.28125 72.90625 
L 38.28125 8.296875 
L 54.390625 8.296875 
L 54.390625 0 
L 12.40625 0 
z
" id="DejaVuSans-49"/>
      </defs>
      <g transform="translate(368.890876 322.182437)scale(0.1 -0.1)">
       <use xlink:href="#DejaVuSans-49"/>
       <use x="63.623047" xlink:href="#DejaVuSans-48"/>
       <use x="127.246094" xlink:href="#DejaVuSans-48"/>
      </g>
     </g>
    </g>
    <g id="text_7">
     <!-- pulseoxinitac -->
     <defs>
      <path d="M 18.109375 8.203125 
L 18.109375 -20.796875 
L 9.078125 -20.796875 
L 9.078125 54.6875 
L 18.109375 54.6875 
L 18.109375 46.390625 
Q 20.953125 51.265625 25.265625 53.625 
Q 29.59375 56 35.59375 56 
Q 45.5625 56 51.78125 48.09375 
Q 58.015625 40.1875 58.015625 27.296875 
Q 58.015625 14.40625 51.78125 6.484375 
Q 45.5625 -1.421875 35.59375 -1.421875 
Q 29.59375 -1.421875 25.265625 0.953125 
Q 20.953125 3.328125 18.109375 8.203125 
z
M 48.6875 27.296875 
Q 48.6875 37.203125 44.609375 42.84375 
Q 40.53125 48.484375 33.40625 48.484375 
Q 26.265625 48.484375 22.1875 42.84375 
Q 18.109375 37.203125 18.109375 27.296875 
Q 18.109375 17.390625 22.1875 11.75 
Q 26.265625 6.109375 33.40625 6.109375 
Q 40.53125 6.109375 44.609375 11.75 
Q 48.6875 17.390625 48.6875 27.296875 
z
" id="DejaVuSans-112"/>
      <path d="M 8.5 21.578125 
L 8.5 54.6875 
L 17.484375 54.6875 
L 17.484375 21.921875 
Q 17.484375 14.15625 20.5 10.265625 
Q 23.53125 6.390625 29.59375 6.390625 
Q 36.859375 6.390625 41.078125 11.03125 
Q 45.3125 15.671875 45.3125 23.6875 
L 45.3125 54.6875 
L 54.296875 54.6875 
L 54.296875 0 
L 45.3125 0 
L 45.3125 8.40625 
Q 42.046875 3.421875 37.71875 1 
Q 33.40625 -1.421875 27.6875 -1.421875 
Q 18.265625 -1.421875 13.375 4.4375 
Q 8.5 10.296875 8.5 21.578125 
z
M 31.109375 56 
z
" id="DejaVuSans-117"/>
      <path d="M 9.421875 75.984375 
L 18.40625 75.984375 
L 18.40625 0 
L 9.421875 0 
z
" id="DejaVuSans-108"/>
      <path d="M 44.28125 53.078125 
L 44.28125 44.578125 
Q 40.484375 46.53125 36.375 47.5 
Q 32.28125 48.484375 27.875 48.484375 
Q 21.1875 48.484375 17.84375 46.4375 
Q 14.5 44.390625 14.5 40.28125 
Q 14.5 37.15625 16.890625 35.375 
Q 19.28125 33.59375 26.515625 31.984375 
L 29.59375 31.296875 
Q 39.15625 29.25 43.1875 25.515625 
Q 47.21875 21.78125 47.21875 15.09375 
Q 47.21875 7.46875 41.1875 3.015625 
Q 35.15625 -1.421875 24.609375 -1.421875 
Q 20.21875 -1.421875 15.453125 -0.5625 
Q 10.6875 0.296875 5.421875 2 
L 5.421875 11.28125 
Q 10.40625 8.6875 15.234375 7.390625 
Q 20.0625 6.109375 24.8125 6.109375 
Q 31.15625 6.109375 34.5625 8.28125 
Q 37.984375 10.453125 37.984375 14.40625 
Q 37.984375 18.0625 35.515625 20.015625 
Q 33.0625 21.96875 24.703125 23.78125 
L 21.578125 24.515625 
Q 13.234375 26.265625 9.515625 29.90625 
Q 5.8125 33.546875 5.8125 39.890625 
Q 5.8125 47.609375 11.28125 51.796875 
Q 16.75 56 26.8125 56 
Q 31.78125 56 36.171875 55.265625 
Q 40.578125 54.546875 44.28125 53.078125 
z
" id="DejaVuSans-115"/>
      <path d="M 56.203125 29.59375 
L 56.203125 25.203125 
L 14.890625 25.203125 
Q 15.484375 15.921875 20.484375 11.0625 
Q 25.484375 6.203125 34.421875 6.203125 
Q 39.59375 6.203125 44.453125 7.46875 
Q 49.3125 8.734375 54.109375 11.28125 
L 54.109375 2.78125 
Q 49.265625 0.734375 44.1875 -0.34375 
Q 39.109375 -1.421875 33.890625 -1.421875 
Q 20.796875 -1.421875 13.15625 6.1875 
Q 5.515625 13.8125 5.515625 26.8125 
Q 5.515625 40.234375 12.765625 48.109375 
Q 20.015625 56 32.328125 56 
Q 43.359375 56 49.78125 48.890625 
Q 56.203125 41.796875 56.203125 29.59375 
z
M 47.21875 32.234375 
Q 47.125 39.59375 43.09375 43.984375 
Q 39.0625 48.390625 32.421875 48.390625 
Q 24.90625 48.390625 20.390625 44.140625 
Q 15.875 39.890625 15.1875 32.171875 
z
" id="DejaVuSans-101"/>
      <path d="M 30.609375 48.390625 
Q 23.390625 48.390625 19.1875 42.75 
Q 14.984375 37.109375 14.984375 27.296875 
Q 14.984375 17.484375 19.15625 11.84375 
Q 23.34375 6.203125 30.609375 6.203125 
Q 37.796875 6.203125 41.984375 11.859375 
Q 46.1875 17.53125 46.1875 27.296875 
Q 46.1875 37.015625 41.984375 42.703125 
Q 37.796875 48.390625 30.609375 48.390625 
z
M 30.609375 56 
Q 42.328125 56 49.015625 48.375 
Q 55.71875 40.765625 55.71875 27.296875 
Q 55.71875 13.875 49.015625 6.21875 
Q 42.328125 -1.421875 30.609375 -1.421875 
Q 18.84375 -1.421875 12.171875 6.21875 
Q 5.515625 13.875 5.515625 27.296875 
Q 5.515625 40.765625 12.171875 48.375 
Q 18.84375 56 30.609375 56 
z
" id="DejaVuSans-111"/>
      <path d="M 54.890625 54.6875 
L 35.109375 28.078125 
L 55.90625 0 
L 45.3125 0 
L 29.390625 21.484375 
L 13.484375 0 
L 2.875 0 
L 24.125 28.609375 
L 4.6875 54.6875 
L 15.28125 54.6875 
L 29.78125 35.203125 
L 44.28125 54.6875 
z
" id="DejaVuSans-120"/>
      <path d="M 9.421875 54.6875 
L 18.40625 54.6875 
L 18.40625 0 
L 9.421875 0 
z
M 9.421875 75.984375 
L 18.40625 75.984375 
L 18.40625 64.59375 
L 9.421875 64.59375 
z
" id="DejaVuSans-105"/>
      <path d="M 54.890625 33.015625 
L 54.890625 0 
L 45.90625 0 
L 45.90625 32.71875 
Q 45.90625 40.484375 42.875 44.328125 
Q 39.84375 48.1875 33.796875 48.1875 
Q 26.515625 48.1875 22.3125 43.546875 
Q 18.109375 38.921875 18.109375 30.90625 
L 18.109375 0 
L 9.078125 0 
L 9.078125 54.6875 
L 18.109375 54.6875 
L 18.109375 46.1875 
Q 21.34375 51.125 25.703125 53.5625 
Q 30.078125 56 35.796875 56 
Q 45.21875 56 50.046875 50.171875 
Q 54.890625 44.34375 54.890625 33.015625 
z
" id="DejaVuSans-110"/>
      <path d="M 18.3125 70.21875 
L 18.3125 54.6875 
L 36.8125 54.6875 
L 36.8125 47.703125 
L 18.3125 47.703125 
L 18.3125 18.015625 
Q 18.3125 11.328125 20.140625 9.421875 
Q 21.96875 7.515625 27.59375 7.515625 
L 36.8125 7.515625 
L 36.8125 0 
L 27.59375 0 
Q 17.1875 0 13.234375 3.875 
Q 9.28125 7.765625 9.28125 18.015625 
L 9.28125 47.703125 
L 2.6875 47.703125 
L 2.6875 54.6875 
L 9.28125 54.6875 
L 9.28125 70.21875 
z
" id="DejaVuSans-116"/>
      <path d="M 34.28125 27.484375 
Q 23.390625 27.484375 19.1875 25 
Q 14.984375 22.515625 14.984375 16.5 
Q 14.984375 11.71875 18.140625 8.90625 
Q 21.296875 6.109375 26.703125 6.109375 
Q 34.1875 6.109375 38.703125 11.40625 
Q 43.21875 16.703125 43.21875 25.484375 
L 43.21875 27.484375 
z
M 52.203125 31.203125 
L 52.203125 0 
L 43.21875 0 
L 43.21875 8.296875 
Q 40.140625 3.328125 35.546875 0.953125 
Q 30.953125 -1.421875 24.3125 -1.421875 
Q 15.921875 -1.421875 10.953125 3.296875 
Q 6 8.015625 6 15.921875 
Q 6 25.140625 12.171875 29.828125 
Q 18.359375 34.515625 30.609375 34.515625 
L 43.21875 34.515625 
L 43.21875 35.40625 
Q 43.21875 41.609375 39.140625 45 
Q 35.0625 48.390625 27.6875 48.390625 
Q 23 48.390625 18.546875 47.265625 
Q 14.109375 46.140625 10.015625 43.890625 
L 10.015625 52.203125 
Q 14.9375 54.109375 19.578125 55.046875 
Q 24.21875 56 28.609375 56 
Q 40.484375 56 46.34375 49.84375 
Q 52.203125 43.703125 52.203125 31.203125 
z
" id="DejaVuSans-97"/>
      <path d="M 48.78125 52.59375 
L 48.78125 44.1875 
Q 44.96875 46.296875 41.140625 47.34375 
Q 37.3125 48.390625 33.40625 48.390625 
Q 24.65625 48.390625 19.8125 42.84375 
Q 14.984375 37.3125 14.984375 27.296875 
Q 14.984375 17.28125 19.8125 11.734375 
Q 24.65625 6.203125 33.40625 6.203125 
Q 37.3125 6.203125 41.140625 7.25 
Q 44.96875 8.296875 48.78125 10.40625 
L 48.78125 2.09375 
Q 45.015625 0.34375 40.984375 -0.53125 
Q 36.96875 -1.421875 32.421875 -1.421875 
Q 20.0625 -1.421875 12.78125 6.34375 
Q 5.515625 14.109375 5.515625 27.296875 
Q 5.515625 40.671875 12.859375 48.328125 
Q 20.21875 56 33.015625 56 
Q 37.15625 56 41.109375 55.140625 
Q 45.0625 54.296875 48.78125 52.59375 
z
" id="DejaVuSans-99"/>
     </defs>
     <g transform="translate(203.163906 335.860562)scale(0.1 -0.1)">
      <use xlink:href="#DejaVuSans-112"/>
      <use x="63.476562" xlink:href="#DejaVuSans-117"/>
      <use x="126.855469" xlink:href="#DejaVuSans-108"/>
      <use x="154.638672" xlink:href="#DejaVuSans-115"/>
      <use x="206.738281" xlink:href="#DejaVuSans-101"/>
      <use x="268.261719" xlink:href="#DejaVuSans-111"/>
      <use x="326.318359" xlink:href="#DejaVuSans-120"/>
      <use x="385.498047" xlink:href="#DejaVuSans-105"/>
      <use x="413.28125" xlink:href="#DejaVuSans-110"/>
      <use x="476.660156" xlink:href="#DejaVuSans-105"/>
      <use x="504.443359" xlink:href="#DejaVuSans-116"/>
      <use x="543.652344" xlink:href="#DejaVuSans-97"/>
      <use x="604.931641" xlink:href="#DejaVuSans-99"/>
     </g>
    </g>
   </g>
   <g id="matplotlib.axis_2">
    <g id="ytick_1">
     <g id="line2d_7">
      <defs>
       <path d="M 0 0 
L -3.5 0 
" id="m15f2eb99ba" style="stroke:#000000;stroke-width:0.8;"/>
      </defs>
      <g>
       <use style="stroke:#000000;stroke-width:0.8;" x="57.6" xlink:href="#m15f2eb99ba" y="174.528"/>
      </g>
     </g>
    </g>
   </g>
   <g id="line2d_8">
    <path clip-path="url(#p2e19f8ecd6)" d="M 319.679725 174.528 
L 378.434626 174.528 
" style="fill:none;stroke:#ffa500;stroke-linecap:square;stroke-width:1.5;"/>
   </g>
   <g id="line2d_9">
    <path clip-path="url(#p2e19f8ecd6)" d="M 349.057176 174.528 
L 372.559136 174.528 
" style="fill:none;stroke:#4c4c4c;stroke-linecap:square;stroke-width:4.5;"/>
   </g>
   <g id="line2d_10">
    <path clip-path="url(#p2e19f8ecd6)" d="M 346.11943 174.528 
L 378.434626 174.528 
" style="fill:none;stroke:#008000;stroke-linecap:square;stroke-width:1.5;"/>
   </g>
   <g id="line2d_11">
    <path clip-path="url(#p2e19f8ecd6)" d="M 363.745901 174.528 
L 375.496881 174.528 
" style="fill:none;stroke:#262626;stroke-linecap:square;stroke-width:4.5;"/>
   </g>
   <g id="patch_3">
    <path d="M 57.6 307.584 
L 57.6 41.472 
" style="fill:none;stroke:#000000;stroke-linecap:square;stroke-linejoin:miter;stroke-width:0.8;"/>
   </g>
   <g id="patch_4">
    <path d="M 414.72 307.584 
L 414.72 41.472 
" style="fill:none;stroke:#000000;stroke-linecap:square;stroke-linejoin:miter;stroke-width:0.8;"/>
   </g>
   <g id="patch_5">
    <path d="M 57.6 307.584 
L 414.72 307.584 
" style="fill:none;stroke:#000000;stroke-linecap:square;stroke-linejoin:miter;stroke-width:0.8;"/>
   </g>
   <g id="patch_6">
    <path d="M 57.6 41.472 
L 414.72 41.472 
" style="fill:none;stroke:#000000;stroke-linecap:square;stroke-linejoin:miter;stroke-width:0.8;"/>
   </g>
   <g id="PathCollection_1">
    <defs>
     <path d="M 0 1.5 
C 0.397805 1.5 0.77937 1.341951 1.06066 1.06066 
C 1.341951 0.77937 1.5 0.397805 1.5 0 
C 1.5 -0.397805 1.341951 -0.77937 1.06066 -1.06066 
C 0.77937 -1.341951 0.397805 -1.5 0 -1.5 
C -0.397805 -1.5 -0.77937 -1.341951 -1.06066 -1.06066 
C -1.341951 -0.77937 -1.5 -0.397805 -1.5 0 
C -1.5 0.397805 -1.341951 0.77937 -1.06066 1.06066 
C -0.77937 1.341951 -0.397805 1.5 0 1.5 
z
" id="m3fa15557d8" style="stroke:#4c4c4c;stroke-opacity:0.5;"/>
    </defs>
    <g clip-path="url(#p2e19f8ecd6)">
     <use style="fill:#ffffff;fill-opacity:0.5;stroke:#4c4c4c;stroke-opacity:0.5;" x="360.808156" xlink:href="#m3fa15557d8" y="174.528"/>
    </g>
   </g>
   <g id="PathCollection_2">
    <defs>
     <path d="M 0 1.5 
C 0.397805 1.5 0.77937 1.341951 1.06066 1.06066 
C 1.341951 0.77937 1.5 0.397805 1.5 0 
C 1.5 -0.397805 1.341951 -0.77937 1.06066 -1.06066 
C 0.77937 -1.341951 0.397805 -1.5 0 -1.5 
C -0.397805 -1.5 -0.77937 -1.341951 -1.06066 -1.06066 
C -1.341951 -0.77937 -1.5 -0.397805 -1.5 0 
C -1.5 0.397805 -1.341951 0.77937 -1.06066 1.06066 
C -0.77937 1.341951 -0.397805 1.5 0 1.5 
z
" id="m72a205c9d0" style="stroke:#262626;stroke-opacity:0.5;"/>
    </defs>
    <g clip-path="url(#p2e19f8ecd6)">
     <use style="fill:#ffffff;fill-opacity:0.5;stroke:#262626;stroke-opacity:0.5;" x="369.621391" xlink:href="#m72a205c9d0" y="174.528"/>
    </g>
   </g>
   <g id="text_8">
    <!-- Association of pulseoxinitac vs. ards -->
    <defs>
     <path d="M 34.1875 63.1875 
L 20.796875 26.90625 
L 47.609375 26.90625 
z
M 28.609375 72.90625 
L 39.796875 72.90625 
L 67.578125 0 
L 57.328125 0 
L 50.6875 18.703125 
L 17.828125 18.703125 
L 11.1875 0 
L 0.78125 0 
z
" id="DejaVuSans-65"/>
     <path id="DejaVuSans-32"/>
     <path d="M 37.109375 75.984375 
L 37.109375 68.5 
L 28.515625 68.5 
Q 23.6875 68.5 21.796875 66.546875 
Q 19.921875 64.59375 19.921875 59.515625 
L 19.921875 54.6875 
L 34.71875 54.6875 
L 34.71875 47.703125 
L 19.921875 47.703125 
L 19.921875 0 
L 10.890625 0 
L 10.890625 47.703125 
L 2.296875 47.703125 
L 2.296875 54.6875 
L 10.890625 54.6875 
L 10.890625 58.5 
Q 10.890625 67.625 15.140625 71.796875 
Q 19.390625 75.984375 28.609375 75.984375 
z
" id="DejaVuSans-102"/>
     <path d="M 2.984375 54.6875 
L 12.5 54.6875 
L 29.59375 8.796875 
L 46.6875 54.6875 
L 56.203125 54.6875 
L 35.6875 0 
L 23.484375 0 
z
" id="DejaVuSans-118"/>
     <path d="M 10.6875 12.40625 
L 21 12.40625 
L 21 0 
L 10.6875 0 
z
" id="DejaVuSans-46"/>
     <path d="M 41.109375 46.296875 
Q 39.59375 47.171875 37.8125 47.578125 
Q 36.03125 48 33.890625 48 
Q 26.265625 48 22.1875 43.046875 
Q 18.109375 38.09375 18.109375 28.8125 
L 18.109375 0 
L 9.078125 0 
L 9.078125 54.6875 
L 18.109375 54.6875 
L 18.109375 46.1875 
Q 20.953125 51.171875 25.484375 53.578125 
Q 30.03125 56 36.53125 56 
Q 37.453125 56 38.578125 55.875 
Q 39.703125 55.765625 41.0625 55.515625 
z
" id="DejaVuSans-114"/>
     <path d="M 45.40625 46.390625 
L 45.40625 75.984375 
L 54.390625 75.984375 
L 54.390625 0 
L 45.40625 0 
L 45.40625 8.203125 
Q 42.578125 3.328125 38.25 0.953125 
Q 33.9375 -1.421875 27.875 -1.421875 
Q 17.96875 -1.421875 11.734375 6.484375 
Q 5.515625 14.40625 5.515625 27.296875 
Q 5.515625 40.1875 11.734375 48.09375 
Q 17.96875 56 27.875 56 
Q 33.9375 56 38.25 53.625 
Q 42.578125 51.265625 45.40625 46.390625 
z
M 14.796875 27.296875 
Q 14.796875 17.390625 18.875 11.75 
Q 22.953125 6.109375 30.078125 6.109375 
Q 37.203125 6.109375 41.296875 11.75 
Q 45.40625 17.390625 45.40625 27.296875 
Q 45.40625 37.203125 41.296875 42.84375 
Q 37.203125 48.484375 30.078125 48.484375 
Q 22.953125 48.484375 18.875 42.84375 
Q 14.796875 37.203125 14.796875 27.296875 
z
" id="DejaVuSans-100"/>
    </defs>
    <g transform="translate(127.434375 35.472)scale(0.12 -0.12)">
     <use xlink:href="#DejaVuSans-65"/>
     <use x="68.408203" xlink:href="#DejaVuSans-115"/>
     <use x="120.507812" xlink:href="#DejaVuSans-115"/>
     <use x="172.607422" xlink:href="#DejaVuSans-111"/>
     <use x="233.789062" xlink:href="#DejaVuSans-99"/>
     <use x="288.769531" xlink:href="#DejaVuSans-105"/>
     <use x="316.552734" xlink:href="#DejaVuSans-97"/>
     <use x="377.832031" xlink:href="#DejaVuSans-116"/>
     <use x="417.041016" xlink:href="#DejaVuSans-105"/>
     <use x="444.824219" xlink:href="#DejaVuSans-111"/>
     <use x="506.005859" xlink:href="#DejaVuSans-110"/>
     <use x="569.384766" xlink:href="#DejaVuSans-32"/>
     <use x="601.171875" xlink:href="#DejaVuSans-111"/>
     <use x="662.353516" xlink:href="#DejaVuSans-102"/>
     <use x="697.558594" xlink:href="#DejaVuSans-32"/>
     <use x="729.345703" xlink:href="#DejaVuSans-112"/>
     <use x="792.822266" xlink:href="#DejaVuSans-117"/>
     <use x="856.201172" xlink:href="#DejaVuSans-108"/>
     <use x="883.984375" xlink:href="#DejaVuSans-115"/>
     <use x="936.083984" xlink:href="#DejaVuSans-101"/>
     <use x="997.607422" xlink:href="#DejaVuSans-111"/>
     <use x="1055.664062" xlink:href="#DejaVuSans-120"/>
     <use x="1114.84375" xlink:href="#DejaVuSans-105"/>
     <use x="1142.626953" xlink:href="#DejaVuSans-110"/>
     <use x="1206.005859" xlink:href="#DejaVuSans-105"/>
     <use x="1233.789062" xlink:href="#DejaVuSans-116"/>
     <use x="1272.998047" xlink:href="#DejaVuSans-97"/>
     <use x="1334.277344" xlink:href="#DejaVuSans-99"/>
     <use x="1389.257812" xlink:href="#DejaVuSans-32"/>
     <use x="1421.044922" xlink:href="#DejaVuSans-118"/>
     <use x="1480.224609" xlink:href="#DejaVuSans-115"/>
     <use x="1532.324219" xlink:href="#DejaVuSans-46"/>
     <use x="1564.111328" xlink:href="#DejaVuSans-32"/>
     <use x="1595.898438" xlink:href="#DejaVuSans-97"/>
     <use x="1657.177734" xlink:href="#DejaVuSans-114"/>
     <use x="1696.541016" xlink:href="#DejaVuSans-100"/>
     <use x="1760.017578" xlink:href="#DejaVuSans-115"/>
    </g>
   </g>
   <g id="legend_1">
    <g id="patch_7">
     <path d="M 303.330938 78.82825 
L 407.72 78.82825 
Q 409.72 78.82825 409.72 76.82825 
L 409.72 48.472 
Q 409.72 46.472 407.72 46.472 
L 303.330938 46.472 
Q 301.330938 46.472 301.330938 48.472 
L 301.330938 76.82825 
Q 301.330938 78.82825 303.330938 78.82825 
z
" style="fill:#ffffff;opacity:0.8;stroke:#cccccc;stroke-linejoin:miter;"/>
    </g>
    <g id="line2d_12">
     <path d="M 305.330938 54.570437 
L 325.330938 54.570437 
" style="fill:none;stroke:#ffa500;stroke-linecap:square;stroke-width:1.5;"/>
    </g>
    <g id="line2d_13"/>
    <g id="text_9">
     <!-- ards (123) -->
     <defs>
      <path d="M 31 75.875 
Q 24.46875 64.65625 21.28125 53.65625 
Q 18.109375 42.671875 18.109375 31.390625 
Q 18.109375 20.125 21.3125 9.0625 
Q 24.515625 -2 31 -13.1875 
L 23.1875 -13.1875 
Q 15.875 -1.703125 12.234375 9.375 
Q 8.59375 20.453125 8.59375 31.390625 
Q 8.59375 42.28125 12.203125 53.3125 
Q 15.828125 64.359375 23.1875 75.875 
z
" id="DejaVuSans-40"/>
      <path d="M 40.578125 39.3125 
Q 47.65625 37.796875 51.625 33 
Q 55.609375 28.21875 55.609375 21.1875 
Q 55.609375 10.40625 48.1875 4.484375 
Q 40.765625 -1.421875 27.09375 -1.421875 
Q 22.515625 -1.421875 17.65625 -0.515625 
Q 12.796875 0.390625 7.625 2.203125 
L 7.625 11.71875 
Q 11.71875 9.328125 16.59375 8.109375 
Q 21.484375 6.890625 26.8125 6.890625 
Q 36.078125 6.890625 40.9375 10.546875 
Q 45.796875 14.203125 45.796875 21.1875 
Q 45.796875 27.640625 41.28125 31.265625 
Q 36.765625 34.90625 28.71875 34.90625 
L 20.21875 34.90625 
L 20.21875 43.015625 
L 29.109375 43.015625 
Q 36.375 43.015625 40.234375 45.921875 
Q 44.09375 48.828125 44.09375 54.296875 
Q 44.09375 59.90625 40.109375 62.90625 
Q 36.140625 65.921875 28.71875 65.921875 
Q 24.65625 65.921875 20.015625 65.03125 
Q 15.375 64.15625 9.8125 62.3125 
L 9.8125 71.09375 
Q 15.4375 72.65625 20.34375 73.4375 
Q 25.25 74.21875 29.59375 74.21875 
Q 40.828125 74.21875 47.359375 69.109375 
Q 53.90625 64.015625 53.90625 55.328125 
Q 53.90625 49.265625 50.4375 45.09375 
Q 46.96875 40.921875 40.578125 39.3125 
z
" id="DejaVuSans-51"/>
      <path d="M 8.015625 75.875 
L 15.828125 75.875 
Q 23.140625 64.359375 26.78125 53.3125 
Q 30.421875 42.28125 30.421875 31.390625 
Q 30.421875 20.453125 26.78125 9.375 
Q 23.140625 -1.703125 15.828125 -13.1875 
L 8.015625 -13.1875 
Q 14.5 -2 17.703125 9.0625 
Q 20.90625 20.125 20.90625 31.390625 
Q 20.90625 42.671875 17.703125 53.65625 
Q 14.5 64.65625 8.015625 75.875 
z
" id="DejaVuSans-41"/>
     </defs>
     <g transform="translate(333.330938 58.070437)scale(0.1 -0.1)">
      <use xlink:href="#DejaVuSans-97"/>
      <use x="61.279297" xlink:href="#DejaVuSans-114"/>
      <use x="100.642578" xlink:href="#DejaVuSans-100"/>
      <use x="164.119141" xlink:href="#DejaVuSans-115"/>
      <use x="216.21875" xlink:href="#DejaVuSans-32"/>
      <use x="248.005859" xlink:href="#DejaVuSans-40"/>
      <use x="287.019531" xlink:href="#DejaVuSans-49"/>
      <use x="350.642578" xlink:href="#DejaVuSans-50"/>
      <use x="414.265625" xlink:href="#DejaVuSans-51"/>
      <use x="477.888672" xlink:href="#DejaVuSans-41"/>
     </g>
    </g>
    <g id="line2d_14">
     <path d="M 305.330938 69.248562 
L 325.330938 69.248562 
" style="fill:none;stroke:#008000;stroke-linecap:square;stroke-width:1.5;"/>
    </g>
    <g id="line2d_15"/>
    <g id="text_10">
     <!-- Not ards (352) -->
     <defs>
      <path d="M 9.8125 72.90625 
L 23.09375 72.90625 
L 55.421875 11.921875 
L 55.421875 72.90625 
L 64.984375 72.90625 
L 64.984375 0 
L 51.703125 0 
L 19.390625 60.984375 
L 19.390625 0 
L 9.8125 0 
z
" id="DejaVuSans-78"/>
      <path d="M 10.796875 72.90625 
L 49.515625 72.90625 
L 49.515625 64.59375 
L 19.828125 64.59375 
L 19.828125 46.734375 
Q 21.96875 47.46875 24.109375 47.828125 
Q 26.265625 48.1875 28.421875 48.1875 
Q 40.625 48.1875 47.75 41.5 
Q 54.890625 34.8125 54.890625 23.390625 
Q 54.890625 11.625 47.5625 5.09375 
Q 40.234375 -1.421875 26.90625 -1.421875 
Q 22.3125 -1.421875 17.546875 -0.640625 
Q 12.796875 0.140625 7.71875 1.703125 
L 7.71875 11.625 
Q 12.109375 9.234375 16.796875 8.0625 
Q 21.484375 6.890625 26.703125 6.890625 
Q 35.15625 6.890625 40.078125 11.328125 
Q 45.015625 15.765625 45.015625 23.390625 
Q 45.015625 31 40.078125 35.4375 
Q 35.15625 39.890625 26.703125 39.890625 
Q 22.75 39.890625 18.8125 39.015625 
Q 14.890625 38.140625 10.796875 36.28125 
z
" id="DejaVuSans-53"/>
     </defs>
     <g transform="translate(333.330938 72.748562)scale(0.1 -0.1)">
      <use xlink:href="#DejaVuSans-78"/>
      <use x="74.804688" xlink:href="#DejaVuSans-111"/>
      <use x="135.986328" xlink:href="#DejaVuSans-116"/>
      <use x="175.195312" xlink:href="#DejaVuSans-32"/>
      <use x="206.982422" xlink:href="#DejaVuSans-97"/>
      <use x="268.261719" xlink:href="#DejaVuSans-114"/>
      <use x="307.625" xlink:href="#DejaVuSans-100"/>
      <use x="371.101562" xlink:href="#DejaVuSans-115"/>
      <use x="423.201172" xlink:href="#DejaVuSans-32"/>
      <use x="454.988281" xlink:href="#DejaVuSans-40"/>
      <use x="494.001953" xlink:href="#DejaVuSans-51"/>
      <use x="557.625" xlink:href="#DejaVuSans-53"/>
      <use x="621.248047" xlink:href="#DejaVuSans-50"/>
      <use x="684.871094" xlink:href="#DejaVuSans-41"/>
     </g>
    </g>
   </g>
  </g>
 </g>
 <defs>
  <clipPath id="p2e19f8ecd6">
   <rect height="266.112" width="357.12" x="57.6" y="41.472"/>
  </clipPath>
 </defs>
</svg>
