<?xml version="1.0" encoding="utf-8" standalone="no"?>
<!DOCTYPE svg PUBLIC "-//W3C//DTD SVG 1.1//EN"
  "http://www.w3.org/Graphics/SVG/1.1/DTD/svg11.dtd">
<!-- Created with matplotlib (https://matplotlib.org/) -->
<svg height="345.6pt" version="1.1" viewBox="0 0 460.8 345.6" width="460.8pt" xmlns="http://www.w3.org/2000/svg" xmlns:xlink="http://www.w3.org/1999/xlink">
 <defs>
  <style type="text/css">
*{stroke-linecap:butt;stroke-linejoin:round;}
  </style>
 </defs>
 <g id="figure_1">
  <g id="patch_1">
   <path d="M 0 345.6 
L 460.8 345.6 
L 460.8 0 
L 0 0 
z
" style="fill:#ffffff;"/>
  </g>
  <g id="axes_1">
   <g id="patch_2">
    <path d="M 57.6 307.584 
L 414.72 307.584 
L 414.72 41.472 
L 57.6 41.472 
z
" style="fill:#ffffff;"/>
   </g>
   <g id="PolyCollection_1">
    <defs>
     <path d="M 77.589144 -159.568551 
L 77.589144 -182.575449 
L 78.913541 -183.951689 
L 80.237939 -185.44747 
L 81.562336 -187.066917 
L 82.886734 -188.813464 
L 84.211131 -190.689742 
L 85.535529 -192.697481 
L 86.859927 -194.837404 
L 88.184324 -197.10914 
L 89.508722 -199.511145 
L 90.833119 -202.040635 
L 92.157517 -204.693539 
L 93.481915 -207.464467 
L 94.806312 -210.346698 
L 96.13071 -213.332199 
L 97.455107 -216.411656 
L 98.779505 -219.574538 
L 100.103902 -222.809178 
L 101.4283 -226.102886 
L 102.752698 -229.442076 
L 104.077095 -232.812422 
L 105.401493 -236.199026 
L 106.72589 -239.586602 
L 108.050288 -242.959671 
L 109.374686 -246.302769 
L 110.699083 -249.600646 
L 112.023481 -252.838471 
L 113.347878 -256.002029 
L 114.672276 -259.077898 
L 115.996673 -262.05362 
L 117.321071 -264.917841 
L 118.645469 -267.660428 
L 119.969866 -270.272563 
L 121.294264 -272.746792 
L 122.618661 -275.077059 
L 123.943059 -277.258689 
L 125.267457 -279.288352 
L 126.591854 -281.163984 
L 127.916252 -282.884688 
L 129.240649 -284.450602 
L 130.565047 -285.862745 
L 131.889444 -287.122855 
L 133.213842 -288.233203 
L 134.53824 -289.19641 
L 135.862637 -290.015262 
L 137.187035 -290.69253 
L 138.511432 -291.230808 
L 139.83583 -291.632361 
L 141.160227 -291.899004 
L 142.484625 -292.032 
L 143.809023 -292.032 
L 145.13342 -291.899004 
L 146.457818 -291.632361 
L 147.782215 -291.230808 
L 149.106613 -290.69253 
L 150.431011 -290.015262 
L 151.755408 -289.19641 
L 153.079806 -288.233203 
L 154.404203 -287.122855 
L 155.728601 -285.862745 
L 157.052998 -284.450602 
L 158.377396 -282.884688 
L 159.701794 -281.163984 
L 161.026191 -279.288352 
L 162.350589 -277.258689 
L 163.674986 -275.077059 
L 164.999384 -272.746792 
L 166.323782 -270.272563 
L 167.648179 -267.660428 
L 168.972577 -264.917841 
L 170.296974 -262.05362 
L 171.621372 -259.077898 
L 172.945769 -256.002029 
L 174.270167 -252.838471 
L 175.594565 -249.600646 
L 176.918962 -246.302769 
L 178.24336 -242.959671 
L 179.567757 -239.586602 
L 180.892155 -236.199026 
L 182.216553 -232.812422 
L 183.54095 -229.442076 
L 184.865348 -226.102886 
L 186.189745 -222.809178 
L 187.514143 -219.574538 
L 188.83854 -216.411656 
L 190.162938 -213.332199 
L 191.487336 -210.346698 
L 192.811733 -207.464467 
L 194.136131 -204.693539 
L 195.460528 -202.040635 
L 196.784926 -199.511145 
L 198.109324 -197.10914 
L 199.433721 -194.837404 
L 200.758119 -192.697481 
L 202.082516 -190.689742 
L 203.406914 -188.813464 
L 204.731311 -187.066917 
L 206.055709 -185.44747 
L 207.380107 -183.951689 
L 208.704504 -182.575449 
L 208.704504 -159.568551 
L 208.704504 -159.568551 
L 207.380107 -158.192311 
L 206.055709 -156.69653 
L 204.731311 -155.077083 
L 203.406914 -153.330536 
L 202.082516 -151.454258 
L 200.758119 -149.446519 
L 199.433721 -147.306596 
L 198.109324 -145.03486 
L 196.784926 -142.632855 
L 195.460528 -140.103365 
L 194.136131 -137.450461 
L 192.811733 -134.679533 
L 191.487336 -131.797302 
L 190.162938 -128.811801 
L 188.83854 -125.732344 
L 187.514143 -122.569462 
L 186.189745 -119.334822 
L 184.865348 -116.041114 
L 183.54095 -112.701924 
L 182.216553 -109.331578 
L 180.892155 -105.944974 
L 179.567757 -102.557398 
L 178.24336 -99.184329 
L 176.918962 -95.841231 
L 175.594565 -92.543354 
L 174.270167 -89.305529 
L 172.945769 -86.141971 
L 171.621372 -83.066102 
L 170.296974 -80.09038 
L 168.972577 -77.226159 
L 167.648179 -74.483572 
L 166.323782 -71.871437 
L 164.999384 -69.397208 
L 163.674986 -67.066941 
L 162.350589 -64.885311 
L 161.026191 -62.855648 
L 159.701794 -60.980016 
L 158.377396 -59.259312 
L 157.052998 -57.693398 
L 155.728601 -56.281255 
L 154.404203 -55.021145 
L 153.079806 -53.910797 
L 151.755408 -52.94759 
L 150.431011 -52.128738 
L 149.106613 -51.45147 
L 147.782215 -50.913192 
L 146.457818 -50.511639 
L 145.13342 -50.244996 
L 143.809023 -50.112 
L 142.484625 -50.112 
L 141.160227 -50.244996 
L 139.83583 -50.511639 
L 138.511432 -50.913192 
L 137.187035 -51.45147 
L 135.862637 -52.128738 
L 134.53824 -52.94759 
L 133.213842 -53.910797 
L 131.889444 -55.021145 
L 130.565047 -56.281255 
L 129.240649 -57.693398 
L 127.916252 -59.259312 
L 126.591854 -60.980016 
L 125.267457 -62.855648 
L 123.943059 -64.885311 
L 122.618661 -67.066941 
L 121.294264 -69.397208 
L 119.969866 -71.871437 
L 118.645469 -74.483572 
L 117.321071 -77.226159 
L 115.996673 -80.09038 
L 114.672276 -83.066102 
L 113.347878 -86.141971 
L 112.023481 -89.305529 
L 110.699083 -92.543354 
L 109.374686 -95.841231 
L 108.050288 -99.184329 
L 106.72589 -102.557398 
L 105.401493 -105.944974 
L 104.077095 -109.331578 
L 102.752698 -112.701924 
L 101.4283 -116.041114 
L 100.103902 -119.334822 
L 98.779505 -122.569462 
L 97.455107 -125.732344 
L 96.13071 -128.811801 
L 94.806312 -131.797302 
L 93.481915 -134.679533 
L 92.157517 -137.450461 
L 90.833119 -140.103365 
L 89.508722 -142.632855 
L 88.184324 -145.03486 
L 86.859927 -147.306596 
L 85.535529 -149.446519 
L 84.211131 -151.454258 
L 82.886734 -153.330536 
L 81.562336 -155.077083 
L 80.237939 -156.69653 
L 78.913541 -158.192311 
L 77.589144 -159.568551 
z
" id="md5c11cc378" style="stroke:#4c4c4c;stroke-opacity:0.5;stroke-width:1.5;"/>
    </defs>
    <g clip-path="url(#p8cd02e43e6)">
     <use style="fill:#df9c20;fill-opacity:0.5;stroke:#4c4c4c;stroke-opacity:0.5;stroke-width:1.5;" x="0" xlink:href="#md5c11cc378" y="345.6"/>
    </g>
   </g>
   <g id="PolyCollection_2">
    <defs>
     <path d="M 73.832727 -159.24409 
L 73.832727 -182.89991 
L 77.112066 -187.770506 
L 80.391405 -193.996558 
L 83.670744 -201.677725 
L 86.950083 -210.810387 
L 90.229421 -221.254772 
L 93.50876 -232.713184 
L 96.788099 -244.726482 
L 100.067438 -256.693987 
L 103.346777 -267.918249 
L 106.626116 -277.671334 
L 109.905455 -285.274343 
L 113.184793 -290.178162 
L 116.464132 -292.032 
L 119.743471 -290.727667 
L 123.02281 -286.411693 
L 126.302149 -279.463314 
L 129.581488 -270.442708 
L 132.860826 -260.019126 
L 136.140165 -248.891516 
L 139.419504 -237.714453 
L 142.698843 -227.039729 
L 145.978182 -217.279869 
L 149.257521 -208.695072 
L 152.53686 -201.400901 
L 155.816198 -195.391209 
L 159.095537 -190.569577 
L 162.374876 -186.782856 
L 165.654215 -183.851804 
L 168.933554 -181.595681 
L 172.212893 -179.849521 
L 175.492231 -178.47425 
L 178.77157 -177.360784 
L 182.050909 -176.429636 
L 185.330248 -175.627599 
L 188.609587 -174.922888 
L 191.888926 -174.299778 
L 195.168264 -173.753486 
L 198.447603 -173.285746 
L 201.726942 -172.90128 
L 205.006281 -172.605206 
L 208.28562 -172.401245 
L 211.564959 -172.290568 
L 214.844298 -172.271061 
L 218.123636 -172.336848 
L 221.402975 -172.478006 
L 224.682314 -172.68047 
L 227.961653 -172.926256 
L 231.240992 -173.194097 
L 234.520331 -173.46061 
L 237.799669 -173.701982 
L 241.079008 -173.896034 
L 244.358347 -174.024395 
L 247.637686 -174.074444 
L 250.917025 -174.040658 
L 254.196364 -173.925099 
L 257.475702 -173.736917 
L 260.755041 -173.490958 
L 264.03438 -173.205702 
L 267.313719 -172.900911 
L 270.593058 -172.595367 
L 273.872397 -172.305051 
L 277.151736 -172.041965 
L 280.431074 -171.813696 
L 283.710413 -171.623625 
L 286.989752 -171.471654 
L 290.269091 -171.355213 
L 293.54843 -171.27036 
L 296.827769 -171.212815 
L 300.107107 -171.178807 
L 303.386446 -171.165705 
L 306.665785 -171.172405 
L 309.945124 -171.199477 
L 313.224463 -171.249095 
L 316.503802 -171.324717 
L 319.78314 -171.430545 
L 323.062479 -171.570733 
L 326.341818 -171.748411 
L 329.621157 -171.964591 
L 332.900496 -172.217101 
L 336.179835 -172.499756 
L 339.459174 -172.801949 
L 342.738512 -173.108868 
L 346.017851 -173.402429 
L 349.29719 -173.662894 
L 352.576529 -173.871002 
L 355.855868 -174.0103 
L 359.135207 -174.069287 
L 362.414545 -174.04298 
L 365.693884 -173.933609 
L 368.973223 -173.750305 
L 372.252562 -173.507842 
L 375.531901 -173.224669 
L 378.81124 -172.920606 
L 382.090579 -172.614591 
L 385.369917 -172.322825 
L 388.649256 -172.057556 
L 391.928595 -171.82658 
L 395.207934 -171.633395 
L 398.487273 -171.477855 
L 398.487273 -170.666145 
L 398.487273 -170.666145 
L 395.207934 -170.510605 
L 391.928595 -170.31742 
L 388.649256 -170.086444 
L 385.369917 -169.821175 
L 382.090579 -169.529409 
L 378.81124 -169.223394 
L 375.531901 -168.919331 
L 372.252562 -168.636158 
L 368.973223 -168.393695 
L 365.693884 -168.210391 
L 362.414545 -168.10102 
L 359.135207 -168.074713 
L 355.855868 -168.1337 
L 352.576529 -168.272998 
L 349.29719 -168.481106 
L 346.017851 -168.741571 
L 342.738512 -169.035132 
L 339.459174 -169.342051 
L 336.179835 -169.644244 
L 332.900496 -169.926899 
L 329.621157 -170.179409 
L 326.341818 -170.395589 
L 323.062479 -170.573267 
L 319.78314 -170.713455 
L 316.503802 -170.819283 
L 313.224463 -170.894905 
L 309.945124 -170.944523 
L 306.665785 -170.971595 
L 303.386446 -170.978295 
L 300.107107 -170.965193 
L 296.827769 -170.931185 
L 293.54843 -170.87364 
L 290.269091 -170.788787 
L 286.989752 -170.672346 
L 283.710413 -170.520375 
L 280.431074 -170.330304 
L 277.151736 -170.102035 
L 273.872397 -169.838949 
L 270.593058 -169.548633 
L 267.313719 -169.243089 
L 264.03438 -168.938298 
L 260.755041 -168.653042 
L 257.475702 -168.407083 
L 254.196364 -168.218901 
L 250.917025 -168.103342 
L 247.637686 -168.069556 
L 244.358347 -168.119605 
L 241.079008 -168.247966 
L 237.799669 -168.442018 
L 234.520331 -168.68339 
L 231.240992 -168.949903 
L 227.961653 -169.217744 
L 224.682314 -169.46353 
L 221.402975 -169.665994 
L 218.123636 -169.807152 
L 214.844298 -169.872939 
L 211.564959 -169.853432 
L 208.28562 -169.742755 
L 205.006281 -169.538794 
L 201.726942 -169.24272 
L 198.447603 -168.858254 
L 195.168264 -168.390514 
L 191.888926 -167.844222 
L 188.609587 -167.221112 
L 185.330248 -166.516401 
L 182.050909 -165.714364 
L 178.77157 -164.783216 
L 175.492231 -163.66975 
L 172.212893 -162.294479 
L 168.933554 -160.548319 
L 165.654215 -158.292196 
L 162.374876 -155.361144 
L 159.095537 -151.574423 
L 155.816198 -146.752791 
L 152.53686 -140.743099 
L 149.257521 -133.448928 
L 145.978182 -124.864131 
L 142.698843 -115.104271 
L 139.419504 -104.429547 
L 136.140165 -93.252484 
L 132.860826 -82.124874 
L 129.581488 -71.701292 
L 126.302149 -62.680686 
L 123.02281 -55.732307 
L 119.743471 -51.416333 
L 116.464132 -50.112 
L 113.184793 -51.965838 
L 109.905455 -56.869657 
L 106.626116 -64.472666 
L 103.346777 -74.225751 
L 100.067438 -85.450013 
L 96.788099 -97.417518 
L 93.50876 -109.430816 
L 90.229421 -120.889228 
L 86.950083 -131.333613 
L 83.670744 -140.466275 
L 80.391405 -148.147442 
L 77.112066 -154.373494 
L 73.832727 -159.24409 
z
" id="me9fc2e86d8" style="stroke:#262626;stroke-opacity:0.5;stroke-width:1.5;"/>
    </defs>
    <g clip-path="url(#p8cd02e43e6)">
     <use style="fill:#107010;fill-opacity:0.5;stroke:#262626;stroke-opacity:0.5;stroke-width:1.5;" x="0" xlink:href="#me9fc2e86d8" y="345.6"/>
    </g>
   </g>
   <g id="matplotlib.axis_1">
    <g id="xtick_1">
     <g id="line2d_1">
      <defs>
       <path d="M 0 0 
L 0 3.5 
" id="m5121ded6a9" style="stroke:#000000;stroke-width:0.8;"/>
      </defs>
      <g>
       <use style="stroke:#000000;stroke-width:0.8;" x="112.552695" xlink:href="#m5121ded6a9" y="307.584"/>
      </g>
     </g>
     <g id="text_1">
      <!-- 0 -->
      <defs>
       <path d="M 31.78125 66.40625 
Q 24.171875 66.40625 20.328125 58.90625 
Q 16.5 51.421875 16.5 36.375 
Q 16.5 21.390625 20.328125 13.890625 
Q 24.171875 6.390625 31.78125 6.390625 
Q 39.453125 6.390625 43.28125 13.890625 
Q 47.125 21.390625 47.125 36.375 
Q 47.125 51.421875 43.28125 58.90625 
Q 39.453125 66.40625 31.78125 66.40625 
z
M 31.78125 74.21875 
Q 44.046875 74.21875 50.515625 64.515625 
Q 56.984375 54.828125 56.984375 36.375 
Q 56.984375 17.96875 50.515625 8.265625 
Q 44.046875 -1.421875 31.78125 -1.421875 
Q 19.53125 -1.421875 13.0625 8.265625 
Q 6.59375 17.96875 6.59375 36.375 
Q 6.59375 54.828125 13.0625 64.515625 
Q 19.53125 74.21875 31.78125 74.21875 
z
" id="DejaVuSans-48"/>
      </defs>
      <g transform="translate(109.371445 322.182437)scale(0.1 -0.1)">
       <use xlink:href="#DejaVuSans-48"/>
      </g>
     </g>
    </g>
    <g id="xtick_2">
     <g id="line2d_2">
      <g>
       <use style="stroke:#000000;stroke-width:0.8;" x="185.423619" xlink:href="#m5121ded6a9" y="307.584"/>
      </g>
     </g>
     <g id="text_2">
      <!-- 1000 -->
      <defs>
       <path d="M 12.40625 8.296875 
L 28.515625 8.296875 
L 28.515625 63.921875 
L 10.984375 60.40625 
L 10.984375 69.390625 
L 28.421875 72.90625 
L 38.28125 72.90625 
L 38.28125 8.296875 
L 54.390625 8.296875 
L 54.390625 0 
L 12.40625 0 
z
" id="DejaVuSans-49"/>
      </defs>
      <g transform="translate(172.698619 322.182437)scale(0.1 -0.1)">
       <use xlink:href="#DejaVuSans-49"/>
       <use x="63.623047" xlink:href="#DejaVuSans-48"/>
       <use x="127.246094" xlink:href="#DejaVuSans-48"/>
       <use x="190.869141" xlink:href="#DejaVuSans-48"/>
      </g>
     </g>
    </g>
    <g id="xtick_3">
     <g id="line2d_3">
      <g>
       <use style="stroke:#000000;stroke-width:0.8;" x="258.294543" xlink:href="#m5121ded6a9" y="307.584"/>
      </g>
     </g>
     <g id="text_3">
      <!-- 2000 -->
      <defs>
       <path d="M 19.1875 8.296875 
L 53.609375 8.296875 
L 53.609375 0 
L 7.328125 0 
L 7.328125 8.296875 
Q 12.9375 14.109375 22.625 23.890625 
Q 32.328125 33.6875 34.8125 36.53125 
Q 39.546875 41.84375 41.421875 45.53125 
Q 43.3125 49.21875 43.3125 52.78125 
Q 43.3125 58.59375 39.234375 62.25 
Q 35.15625 65.921875 28.609375 65.921875 
Q 23.96875 65.921875 18.8125 64.3125 
Q 13.671875 62.703125 7.8125 59.421875 
L 7.8125 69.390625 
Q 13.765625 71.78125 18.9375 73 
Q 24.125 74.21875 28.421875 74.21875 
Q 39.75 74.21875 46.484375 68.546875 
Q 53.21875 62.890625 53.21875 53.421875 
Q 53.21875 48.921875 51.53125 44.890625 
Q 49.859375 40.875 45.40625 35.40625 
Q 44.1875 33.984375 37.640625 27.21875 
Q 31.109375 20.453125 19.1875 8.296875 
z
" id="DejaVuSans-50"/>
      </defs>
      <g transform="translate(245.569543 322.182437)scale(0.1 -0.1)">
       <use xlink:href="#DejaVuSans-50"/>
       <use x="63.623047" xlink:href="#DejaVuSans-48"/>
       <use x="127.246094" xlink:href="#DejaVuSans-48"/>
       <use x="190.869141" xlink:href="#DejaVuSans-48"/>
      </g>
     </g>
    </g>
    <g id="xtick_4">
     <g id="line2d_4">
      <g>
       <use style="stroke:#000000;stroke-width:0.8;" x="331.165467" xlink:href="#m5121ded6a9" y="307.584"/>
      </g>
     </g>
     <g id="text_4">
      <!-- 3000 -->
      <defs>
       <path d="M 40.578125 39.3125 
Q 47.65625 37.796875 51.625 33 
Q 55.609375 28.21875 55.609375 21.1875 
Q 55.609375 10.40625 48.1875 4.484375 
Q 40.765625 -1.421875 27.09375 -1.421875 
Q 22.515625 -1.421875 17.65625 -0.515625 
Q 12.796875 0.390625 7.625 2.203125 
L 7.625 11.71875 
Q 11.71875 9.328125 16.59375 8.109375 
Q 21.484375 6.890625 26.8125 6.890625 
Q 36.078125 6.890625 40.9375 10.546875 
Q 45.796875 14.203125 45.796875 21.1875 
Q 45.796875 27.640625 41.28125 31.265625 
Q 36.765625 34.90625 28.71875 34.90625 
L 20.21875 34.90625 
L 20.21875 43.015625 
L 29.109375 43.015625 
Q 36.375 43.015625 40.234375 45.921875 
Q 44.09375 48.828125 44.09375 54.296875 
Q 44.09375 59.90625 40.109375 62.90625 
Q 36.140625 65.921875 28.71875 65.921875 
Q 24.65625 65.921875 20.015625 65.03125 
Q 15.375 64.15625 9.8125 62.3125 
L 9.8125 71.09375 
Q 15.4375 72.65625 20.34375 73.4375 
Q 25.25 74.21875 29.59375 74.21875 
Q 40.828125 74.21875 47.359375 69.109375 
Q 53.90625 64.015625 53.90625 55.328125 
Q 53.90625 49.265625 50.4375 45.09375 
Q 46.96875 40.921875 40.578125 39.3125 
z
" id="DejaVuSans-51"/>
      </defs>
      <g transform="translate(318.440467 322.182437)scale(0.1 -0.1)">
       <use xlink:href="#DejaVuSans-51"/>
       <use x="63.623047" xlink:href="#DejaVuSans-48"/>
       <use x="127.246094" xlink:href="#DejaVuSans-48"/>
       <use x="190.869141" xlink:href="#DejaVuSans-48"/>
      </g>
     </g>
    </g>
    <g id="xtick_5">
     <g id="line2d_5">
      <g>
       <use style="stroke:#000000;stroke-width:0.8;" x="404.036391" xlink:href="#m5121ded6a9" y="307.584"/>
      </g>
     </g>
     <g id="text_5">
      <!-- 4000 -->
      <defs>
       <path d="M 37.796875 64.3125 
L 12.890625 25.390625 
L 37.796875 25.390625 
z
M 35.203125 72.90625 
L 47.609375 72.90625 
L 47.609375 25.390625 
L 58.015625 25.390625 
L 58.015625 17.1875 
L 47.609375 17.1875 
L 47.609375 0 
L 37.796875 0 
L 37.796875 17.1875 
L 4.890625 17.1875 
L 4.890625 26.703125 
z
" id="DejaVuSans-52"/>
      </defs>
      <g transform="translate(391.311391 322.182437)scale(0.1 -0.1)">
       <use xlink:href="#DejaVuSans-52"/>
       <use x="63.623047" xlink:href="#DejaVuSans-48"/>
       <use x="127.246094" xlink:href="#DejaVuSans-48"/>
       <use x="190.869141" xlink:href="#DejaVuSans-48"/>
      </g>
     </g>
    </g>
    <g id="text_6">
     <!-- il6peakac -->
     <defs>
      <path d="M 9.421875 54.6875 
L 18.40625 54.6875 
L 18.40625 0 
L 9.421875 0 
z
M 9.421875 75.984375 
L 18.40625 75.984375 
L 18.40625 64.59375 
L 9.421875 64.59375 
z
" id="DejaVuSans-105"/>
      <path d="M 9.421875 75.984375 
L 18.40625 75.984375 
L 18.40625 0 
L 9.421875 0 
z
" id="DejaVuSans-108"/>
      <path d="M 33.015625 40.375 
Q 26.375 40.375 22.484375 35.828125 
Q 18.609375 31.296875 18.609375 23.390625 
Q 18.609375 15.53125 22.484375 10.953125 
Q 26.375 6.390625 33.015625 6.390625 
Q 39.65625 6.390625 43.53125 10.953125 
Q 47.40625 15.53125 47.40625 23.390625 
Q 47.40625 31.296875 43.53125 35.828125 
Q 39.65625 40.375 33.015625 40.375 
z
M 52.59375 71.296875 
L 52.59375 62.3125 
Q 48.875 64.0625 45.09375 64.984375 
Q 41.3125 65.921875 37.59375 65.921875 
Q 27.828125 65.921875 22.671875 59.328125 
Q 17.53125 52.734375 16.796875 39.40625 
Q 19.671875 43.65625 24.015625 45.921875 
Q 28.375 48.1875 33.59375 48.1875 
Q 44.578125 48.1875 50.953125 41.515625 
Q 57.328125 34.859375 57.328125 23.390625 
Q 57.328125 12.15625 50.6875 5.359375 
Q 44.046875 -1.421875 33.015625 -1.421875 
Q 20.359375 -1.421875 13.671875 8.265625 
Q 6.984375 17.96875 6.984375 36.375 
Q 6.984375 53.65625 15.1875 63.9375 
Q 23.390625 74.21875 37.203125 74.21875 
Q 40.921875 74.21875 44.703125 73.484375 
Q 48.484375 72.75 52.59375 71.296875 
z
" id="DejaVuSans-54"/>
      <path d="M 18.109375 8.203125 
L 18.109375 -20.796875 
L 9.078125 -20.796875 
L 9.078125 54.6875 
L 18.109375 54.6875 
L 18.109375 46.390625 
Q 20.953125 51.265625 25.265625 53.625 
Q 29.59375 56 35.59375 56 
Q 45.5625 56 51.78125 48.09375 
Q 58.015625 40.1875 58.015625 27.296875 
Q 58.015625 14.40625 51.78125 6.484375 
Q 45.5625 -1.421875 35.59375 -1.421875 
Q 29.59375 -1.421875 25.265625 0.953125 
Q 20.953125 3.328125 18.109375 8.203125 
z
M 48.6875 27.296875 
Q 48.6875 37.203125 44.609375 42.84375 
Q 40.53125 48.484375 33.40625 48.484375 
Q 26.265625 48.484375 22.1875 42.84375 
Q 18.109375 37.203125 18.109375 27.296875 
Q 18.109375 17.390625 22.1875 11.75 
Q 26.265625 6.109375 33.40625 6.109375 
Q 40.53125 6.109375 44.609375 11.75 
Q 48.6875 17.390625 48.6875 27.296875 
z
" id="DejaVuSans-112"/>
      <path d="M 56.203125 29.59375 
L 56.203125 25.203125 
L 14.890625 25.203125 
Q 15.484375 15.921875 20.484375 11.0625 
Q 25.484375 6.203125 34.421875 6.203125 
Q 39.59375 6.203125 44.453125 7.46875 
Q 49.3125 8.734375 54.109375 11.28125 
L 54.109375 2.78125 
Q 49.265625 0.734375 44.1875 -0.34375 
Q 39.109375 -1.421875 33.890625 -1.421875 
Q 20.796875 -1.421875 13.15625 6.1875 
Q 5.515625 13.8125 5.515625 26.8125 
Q 5.515625 40.234375 12.765625 48.109375 
Q 20.015625 56 32.328125 56 
Q 43.359375 56 49.78125 48.890625 
Q 56.203125 41.796875 56.203125 29.59375 
z
M 47.21875 32.234375 
Q 47.125 39.59375 43.09375 43.984375 
Q 39.0625 48.390625 32.421875 48.390625 
Q 24.90625 48.390625 20.390625 44.140625 
Q 15.875 39.890625 15.1875 32.171875 
z
" id="DejaVuSans-101"/>
      <path d="M 34.28125 27.484375 
Q 23.390625 27.484375 19.1875 25 
Q 14.984375 22.515625 14.984375 16.5 
Q 14.984375 11.71875 18.140625 8.90625 
Q 21.296875 6.109375 26.703125 6.109375 
Q 34.1875 6.109375 38.703125 11.40625 
Q 43.21875 16.703125 43.21875 25.484375 
L 43.21875 27.484375 
z
M 52.203125 31.203125 
L 52.203125 0 
L 43.21875 0 
L 43.21875 8.296875 
Q 40.140625 3.328125 35.546875 0.953125 
Q 30.953125 -1.421875 24.3125 -1.421875 
Q 15.921875 -1.421875 10.953125 3.296875 
Q 6 8.015625 6 15.921875 
Q 6 25.140625 12.171875 29.828125 
Q 18.359375 34.515625 30.609375 34.515625 
L 43.21875 34.515625 
L 43.21875 35.40625 
Q 43.21875 41.609375 39.140625 45 
Q 35.0625 48.390625 27.6875 48.390625 
Q 23 48.390625 18.546875 47.265625 
Q 14.109375 46.140625 10.015625 43.890625 
L 10.015625 52.203125 
Q 14.9375 54.109375 19.578125 55.046875 
Q 24.21875 56 28.609375 56 
Q 40.484375 56 46.34375 49.84375 
Q 52.203125 43.703125 52.203125 31.203125 
z
" id="DejaVuSans-97"/>
      <path d="M 9.078125 75.984375 
L 18.109375 75.984375 
L 18.109375 31.109375 
L 44.921875 54.6875 
L 56.390625 54.6875 
L 27.390625 29.109375 
L 57.625 0 
L 45.90625 0 
L 18.109375 26.703125 
L 18.109375 0 
L 9.078125 0 
z
" id="DejaVuSans-107"/>
      <path d="M 48.78125 52.59375 
L 48.78125 44.1875 
Q 44.96875 46.296875 41.140625 47.34375 
Q 37.3125 48.390625 33.40625 48.390625 
Q 24.65625 48.390625 19.8125 42.84375 
Q 14.984375 37.3125 14.984375 27.296875 
Q 14.984375 17.28125 19.8125 11.734375 
Q 24.65625 6.203125 33.40625 6.203125 
Q 37.3125 6.203125 41.140625 7.25 
Q 44.96875 8.296875 48.78125 10.40625 
L 48.78125 2.09375 
Q 45.015625 0.34375 40.984375 -0.53125 
Q 36.96875 -1.421875 32.421875 -1.421875 
Q 20.0625 -1.421875 12.78125 6.34375 
Q 5.515625 14.109375 5.515625 27.296875 
Q 5.515625 40.671875 12.859375 48.328125 
Q 20.21875 56 33.015625 56 
Q 37.15625 56 41.109375 55.140625 
Q 45.0625 54.296875 48.78125 52.59375 
z
" id="DejaVuSans-99"/>
     </defs>
     <g transform="translate(212.264687 335.860562)scale(0.1 -0.1)">
      <use xlink:href="#DejaVuSans-105"/>
      <use x="27.783203" xlink:href="#DejaVuSans-108"/>
      <use x="55.566406" xlink:href="#DejaVuSans-54"/>
      <use x="119.189453" xlink:href="#DejaVuSans-112"/>
      <use x="182.666016" xlink:href="#DejaVuSans-101"/>
      <use x="244.189453" xlink:href="#DejaVuSans-97"/>
      <use x="305.46875" xlink:href="#DejaVuSans-107"/>
      <use x="361.628906" xlink:href="#DejaVuSans-97"/>
      <use x="422.908203" xlink:href="#DejaVuSans-99"/>
     </g>
    </g>
   </g>
   <g id="matplotlib.axis_2">
    <g id="ytick_1">
     <g id="line2d_6">
      <defs>
       <path d="M 0 0 
L -3.5 0 
" id="m33a012bebc" style="stroke:#000000;stroke-width:0.8;"/>
      </defs>
      <g>
       <use style="stroke:#000000;stroke-width:0.8;" x="57.6" xlink:href="#m33a012bebc" y="174.528"/>
      </g>
     </g>
    </g>
   </g>
   <g id="line2d_7">
    <path clip-path="url(#p8cd02e43e6)" d="M 124.212043 174.528 
L 162.081605 174.528 
" style="fill:none;stroke:#ffa500;stroke-linecap:square;stroke-width:1.5;"/>
   </g>
   <g id="line2d_8">
    <path clip-path="url(#p8cd02e43e6)" d="M 133.679433 174.528 
L 152.614214 174.528 
" style="fill:none;stroke:#4c4c4c;stroke-linecap:square;stroke-width:4.5;"/>
   </g>
   <g id="line2d_9">
    <path clip-path="url(#p8cd02e43e6)" d="M 112.552695 174.528 
L 131.659451 174.528 
" style="fill:none;stroke:#008000;stroke-linecap:square;stroke-width:1.5;"/>
   </g>
   <g id="line2d_10">
    <path clip-path="url(#p8cd02e43e6)" d="M 113.512952 174.528 
L 121.488674 174.528 
" style="fill:none;stroke:#262626;stroke-linecap:square;stroke-width:4.5;"/>
   </g>
   <g id="patch_3">
    <path d="M 57.6 307.584 
L 57.6 41.472 
" style="fill:none;stroke:#000000;stroke-linecap:square;stroke-linejoin:miter;stroke-width:0.8;"/>
   </g>
   <g id="patch_4">
    <path d="M 414.72 307.584 
L 414.72 41.472 
" style="fill:none;stroke:#000000;stroke-linecap:square;stroke-linejoin:miter;stroke-width:0.8;"/>
   </g>
   <g id="patch_5">
    <path d="M 57.6 307.584 
L 414.72 307.584 
" style="fill:none;stroke:#000000;stroke-linecap:square;stroke-linejoin:miter;stroke-width:0.8;"/>
   </g>
   <g id="patch_6">
    <path d="M 57.6 41.472 
L 414.72 41.472 
" style="fill:none;stroke:#000000;stroke-linecap:square;stroke-linejoin:miter;stroke-width:0.8;"/>
   </g>
   <g id="PathCollection_1">
    <defs>
     <path d="M 0 1.5 
C 0.397805 1.5 0.77937 1.341951 1.06066 1.06066 
C 1.341951 0.77937 1.5 0.397805 1.5 0 
C 1.5 -0.397805 1.341951 -0.77937 1.06066 -1.06066 
C 0.77937 -1.341951 0.397805 -1.5 0 -1.5 
C -0.397805 -1.5 -0.77937 -1.341951 -1.06066 -1.06066 
C -1.341951 -0.77937 -1.5 -0.397805 -1.5 0 
C -1.5 0.397805 -1.341951 0.77937 -1.06066 1.06066 
C -0.77937 1.341951 -0.397805 1.5 0 1.5 
z
" id="m6db730d77a" style="stroke:#4c4c4c;stroke-opacity:0.5;"/>
    </defs>
    <g clip-path="url(#p8cd02e43e6)">
     <use style="fill:#ffffff;fill-opacity:0.5;stroke:#4c4c4c;stroke-opacity:0.5;" x="143.146824" xlink:href="#m6db730d77a" y="174.528"/>
    </g>
   </g>
   <g id="PathCollection_2">
    <defs>
     <path d="M 0 1.5 
C 0.397805 1.5 0.77937 1.341951 1.06066 1.06066 
C 1.341951 0.77937 1.5 0.397805 1.5 0 
C 1.5 -0.397805 1.341951 -0.77937 1.06066 -1.06066 
C 0.77937 -1.341951 0.397805 -1.5 0 -1.5 
C -0.397805 -1.5 -0.77937 -1.341951 -1.06066 -1.06066 
C -1.341951 -0.77937 -1.5 -0.397805 -1.5 0 
C -1.5 0.397805 -1.341951 0.77937 -1.06066 1.06066 
C -0.77937 1.341951 -0.397805 1.5 0 1.5 
z
" id="m09e2b649ff" style="stroke:#262626;stroke-opacity:0.5;"/>
    </defs>
    <g clip-path="url(#p8cd02e43e6)">
     <use style="fill:#ffffff;fill-opacity:0.5;stroke:#262626;stroke-opacity:0.5;" x="115.357133" xlink:href="#m09e2b649ff" y="174.528"/>
    </g>
   </g>
   <g id="text_7">
    <!-- Association of il6peakac vs. cardiogenic_shock -->
    <defs>
     <path d="M 34.1875 63.1875 
L 20.796875 26.90625 
L 47.609375 26.90625 
z
M 28.609375 72.90625 
L 39.796875 72.90625 
L 67.578125 0 
L 57.328125 0 
L 50.6875 18.703125 
L 17.828125 18.703125 
L 11.1875 0 
L 0.78125 0 
z
" id="DejaVuSans-65"/>
     <path d="M 44.28125 53.078125 
L 44.28125 44.578125 
Q 40.484375 46.53125 36.375 47.5 
Q 32.28125 48.484375 27.875 48.484375 
Q 21.1875 48.484375 17.84375 46.4375 
Q 14.5 44.390625 14.5 40.28125 
Q 14.5 37.15625 16.890625 35.375 
Q 19.28125 33.59375 26.515625 31.984375 
L 29.59375 31.296875 
Q 39.15625 29.25 43.1875 25.515625 
Q 47.21875 21.78125 47.21875 15.09375 
Q 47.21875 7.46875 41.1875 3.015625 
Q 35.15625 -1.421875 24.609375 -1.421875 
Q 20.21875 -1.421875 15.453125 -0.5625 
Q 10.6875 0.296875 5.421875 2 
L 5.421875 11.28125 
Q 10.40625 8.6875 15.234375 7.390625 
Q 20.0625 6.109375 24.8125 6.109375 
Q 31.15625 6.109375 34.5625 8.28125 
Q 37.984375 10.453125 37.984375 14.40625 
Q 37.984375 18.0625 35.515625 20.015625 
Q 33.0625 21.96875 24.703125 23.78125 
L 21.578125 24.515625 
Q 13.234375 26.265625 9.515625 29.90625 
Q 5.8125 33.546875 5.8125 39.890625 
Q 5.8125 47.609375 11.28125 51.796875 
Q 16.75 56 26.8125 56 
Q 31.78125 56 36.171875 55.265625 
Q 40.578125 54.546875 44.28125 53.078125 
z
" id="DejaVuSans-115"/>
     <path d="M 30.609375 48.390625 
Q 23.390625 48.390625 19.1875 42.75 
Q 14.984375 37.109375 14.984375 27.296875 
Q 14.984375 17.484375 19.15625 11.84375 
Q 23.34375 6.203125 30.609375 6.203125 
Q 37.796875 6.203125 41.984375 11.859375 
Q 46.1875 17.53125 46.1875 27.296875 
Q 46.1875 37.015625 41.984375 42.703125 
Q 37.796875 48.390625 30.609375 48.390625 
z
M 30.609375 56 
Q 42.328125 56 49.015625 48.375 
Q 55.71875 40.765625 55.71875 27.296875 
Q 55.71875 13.875 49.015625 6.21875 
Q 42.328125 -1.421875 30.609375 -1.421875 
Q 18.84375 -1.421875 12.171875 6.21875 
Q 5.515625 13.875 5.515625 27.296875 
Q 5.515625 40.765625 12.171875 48.375 
Q 18.84375 56 30.609375 56 
z
" id="DejaVuSans-111"/>
     <path d="M 18.3125 70.21875 
L 18.3125 54.6875 
L 36.8125 54.6875 
L 36.8125 47.703125 
L 18.3125 47.703125 
L 18.3125 18.015625 
Q 18.3125 11.328125 20.140625 9.421875 
Q 21.96875 7.515625 27.59375 7.515625 
L 36.8125 7.515625 
L 36.8125 0 
L 27.59375 0 
Q 17.1875 0 13.234375 3.875 
Q 9.28125 7.765625 9.28125 18.015625 
L 9.28125 47.703125 
L 2.6875 47.703125 
L 2.6875 54.6875 
L 9.28125 54.6875 
L 9.28125 70.21875 
z
" id="DejaVuSans-116"/>
     <path d="M 54.890625 33.015625 
L 54.890625 0 
L 45.90625 0 
L 45.90625 32.71875 
Q 45.90625 40.484375 42.875 44.328125 
Q 39.84375 48.1875 33.796875 48.1875 
Q 26.515625 48.1875 22.3125 43.546875 
Q 18.109375 38.921875 18.109375 30.90625 
L 18.109375 0 
L 9.078125 0 
L 9.078125 54.6875 
L 18.109375 54.6875 
L 18.109375 46.1875 
Q 21.34375 51.125 25.703125 53.5625 
Q 30.078125 56 35.796875 56 
Q 45.21875 56 50.046875 50.171875 
Q 54.890625 44.34375 54.890625 33.015625 
z
" id="DejaVuSans-110"/>
     <path id="DejaVuSans-32"/>
     <path d="M 37.109375 75.984375 
L 37.109375 68.5 
L 28.515625 68.5 
Q 23.6875 68.5 21.796875 66.546875 
Q 19.921875 64.59375 19.921875 59.515625 
L 19.921875 54.6875 
L 34.71875 54.6875 
L 34.71875 47.703125 
L 19.921875 47.703125 
L 19.921875 0 
L 10.890625 0 
L 10.890625 47.703125 
L 2.296875 47.703125 
L 2.296875 54.6875 
L 10.890625 54.6875 
L 10.890625 58.5 
Q 10.890625 67.625 15.140625 71.796875 
Q 19.390625 75.984375 28.609375 75.984375 
z
" id="DejaVuSans-102"/>
     <path d="M 2.984375 54.6875 
L 12.5 54.6875 
L 29.59375 8.796875 
L 46.6875 54.6875 
L 56.203125 54.6875 
L 35.6875 0 
L 23.484375 0 
z
" id="DejaVuSans-118"/>
     <path d="M 10.6875 12.40625 
L 21 12.40625 
L 21 0 
L 10.6875 0 
z
" id="DejaVuSans-46"/>
     <path d="M 41.109375 46.296875 
Q 39.59375 47.171875 37.8125 47.578125 
Q 36.03125 48 33.890625 48 
Q 26.265625 48 22.1875 43.046875 
Q 18.109375 38.09375 18.109375 28.8125 
L 18.109375 0 
L 9.078125 0 
L 9.078125 54.6875 
L 18.109375 54.6875 
L 18.109375 46.1875 
Q 20.953125 51.171875 25.484375 53.578125 
Q 30.03125 56 36.53125 56 
Q 37.453125 56 38.578125 55.875 
Q 39.703125 55.765625 41.0625 55.515625 
z
" id="DejaVuSans-114"/>
     <path d="M 45.40625 46.390625 
L 45.40625 75.984375 
L 54.390625 75.984375 
L 54.390625 0 
L 45.40625 0 
L 45.40625 8.203125 
Q 42.578125 3.328125 38.25 0.953125 
Q 33.9375 -1.421875 27.875 -1.421875 
Q 17.96875 -1.421875 11.734375 6.484375 
Q 5.515625 14.40625 5.515625 27.296875 
Q 5.515625 40.1875 11.734375 48.09375 
Q 17.96875 56 27.875 56 
Q 33.9375 56 38.25 53.625 
Q 42.578125 51.265625 45.40625 46.390625 
z
M 14.796875 27.296875 
Q 14.796875 17.390625 18.875 11.75 
Q 22.953125 6.109375 30.078125 6.109375 
Q 37.203125 6.109375 41.296875 11.75 
Q 45.40625 17.390625 45.40625 27.296875 
Q 45.40625 37.203125 41.296875 42.84375 
Q 37.203125 48.484375 30.078125 48.484375 
Q 22.953125 48.484375 18.875 42.84375 
Q 14.796875 37.203125 14.796875 27.296875 
z
" id="DejaVuSans-100"/>
     <path d="M 45.40625 27.984375 
Q 45.40625 37.75 41.375 43.109375 
Q 37.359375 48.484375 30.078125 48.484375 
Q 22.859375 48.484375 18.828125 43.109375 
Q 14.796875 37.75 14.796875 27.984375 
Q 14.796875 18.265625 18.828125 12.890625 
Q 22.859375 7.515625 30.078125 7.515625 
Q 37.359375 7.515625 41.375 12.890625 
Q 45.40625 18.265625 45.40625 27.984375 
z
M 54.390625 6.78125 
Q 54.390625 -7.171875 48.1875 -13.984375 
Q 42 -20.796875 29.203125 -20.796875 
Q 24.46875 -20.796875 20.265625 -20.09375 
Q 16.0625 -19.390625 12.109375 -17.921875 
L 12.109375 -9.1875 
Q 16.0625 -11.328125 19.921875 -12.34375 
Q 23.78125 -13.375 27.78125 -13.375 
Q 36.625 -13.375 41.015625 -8.765625 
Q 45.40625 -4.15625 45.40625 5.171875 
L 45.40625 9.625 
Q 42.625 4.78125 38.28125 2.390625 
Q 33.9375 0 27.875 0 
Q 17.828125 0 11.671875 7.65625 
Q 5.515625 15.328125 5.515625 27.984375 
Q 5.515625 40.671875 11.671875 48.328125 
Q 17.828125 56 27.875 56 
Q 33.9375 56 38.28125 53.609375 
Q 42.625 51.21875 45.40625 46.390625 
L 45.40625 54.6875 
L 54.390625 54.6875 
z
" id="DejaVuSans-103"/>
     <path d="M 50.984375 -16.609375 
L 50.984375 -23.578125 
L -0.984375 -23.578125 
L -0.984375 -16.609375 
z
" id="DejaVuSans-95"/>
     <path d="M 54.890625 33.015625 
L 54.890625 0 
L 45.90625 0 
L 45.90625 32.71875 
Q 45.90625 40.484375 42.875 44.328125 
Q 39.84375 48.1875 33.796875 48.1875 
Q 26.515625 48.1875 22.3125 43.546875 
Q 18.109375 38.921875 18.109375 30.90625 
L 18.109375 0 
L 9.078125 0 
L 9.078125 75.984375 
L 18.109375 75.984375 
L 18.109375 46.1875 
Q 21.34375 51.125 25.703125 53.5625 
Q 30.078125 56 35.796875 56 
Q 45.21875 56 50.046875 50.171875 
Q 54.890625 44.34375 54.890625 33.015625 
z
" id="DejaVuSans-104"/>
    </defs>
    <g transform="translate(96.201562 35.472)scale(0.12 -0.12)">
     <use xlink:href="#DejaVuSans-65"/>
     <use x="68.408203" xlink:href="#DejaVuSans-115"/>
     <use x="120.507812" xlink:href="#DejaVuSans-115"/>
     <use x="172.607422" xlink:href="#DejaVuSans-111"/>
     <use x="233.789062" xlink:href="#DejaVuSans-99"/>
     <use x="288.769531" xlink:href="#DejaVuSans-105"/>
     <use x="316.552734" xlink:href="#DejaVuSans-97"/>
     <use x="377.832031" xlink:href="#DejaVuSans-116"/>
     <use x="417.041016" xlink:href="#DejaVuSans-105"/>
     <use x="444.824219" xlink:href="#DejaVuSans-111"/>
     <use x="506.005859" xlink:href="#DejaVuSans-110"/>
     <use x="569.384766" xlink:href="#DejaVuSans-32"/>
     <use x="601.171875" xlink:href="#DejaVuSans-111"/>
     <use x="662.353516" xlink:href="#DejaVuSans-102"/>
     <use x="697.558594" xlink:href="#DejaVuSans-32"/>
     <use x="729.345703" xlink:href="#DejaVuSans-105"/>
     <use x="757.128906" xlink:href="#DejaVuSans-108"/>
     <use x="784.912109" xlink:href="#DejaVuSans-54"/>
     <use x="848.535156" xlink:href="#DejaVuSans-112"/>
     <use x="912.011719" xlink:href="#DejaVuSans-101"/>
     <use x="973.535156" xlink:href="#DejaVuSans-97"/>
     <use x="1034.814453" xlink:href="#DejaVuSans-107"/>
     <use x="1090.974609" xlink:href="#DejaVuSans-97"/>
     <use x="1152.253906" xlink:href="#DejaVuSans-99"/>
     <use x="1207.234375" xlink:href="#DejaVuSans-32"/>
     <use x="1239.021484" xlink:href="#DejaVuSans-118"/>
     <use x="1298.201172" xlink:href="#DejaVuSans-115"/>
     <use x="1350.300781" xlink:href="#DejaVuSans-46"/>
     <use x="1382.087891" xlink:href="#DejaVuSans-32"/>
     <use x="1413.875" xlink:href="#DejaVuSans-99"/>
     <use x="1468.855469" xlink:href="#DejaVuSans-97"/>
     <use x="1530.134766" xlink:href="#DejaVuSans-114"/>
     <use x="1569.498047" xlink:href="#DejaVuSans-100"/>
     <use x="1632.974609" xlink:href="#DejaVuSans-105"/>
     <use x="1660.757812" xlink:href="#DejaVuSans-111"/>
     <use x="1721.939453" xlink:href="#DejaVuSans-103"/>
     <use x="1785.416016" xlink:href="#DejaVuSans-101"/>
     <use x="1846.939453" xlink:href="#DejaVuSans-110"/>
     <use x="1910.318359" xlink:href="#DejaVuSans-105"/>
     <use x="1938.101562" xlink:href="#DejaVuSans-99"/>
     <use x="1993.082031" xlink:href="#DejaVuSans-95"/>
     <use x="2043.082031" xlink:href="#DejaVuSans-115"/>
     <use x="2095.181641" xlink:href="#DejaVuSans-104"/>
     <use x="2158.560547" xlink:href="#DejaVuSans-111"/>
     <use x="2219.742188" xlink:href="#DejaVuSans-99"/>
     <use x="2274.722656" xlink:href="#DejaVuSans-107"/>
    </g>
   </g>
   <g id="legend_1">
    <g id="patch_7">
     <path d="M 239.437187 79.3845 
L 407.72 79.3845 
Q 409.72 79.3845 409.72 77.3845 
L 409.72 48.472 
Q 409.72 46.472 407.72 46.472 
L 239.437187 46.472 
Q 237.437187 46.472 237.437187 48.472 
L 237.437187 77.3845 
Q 237.437187 79.3845 239.437187 79.3845 
z
" style="fill:#ffffff;opacity:0.8;stroke:#cccccc;stroke-linejoin:miter;"/>
    </g>
    <g id="line2d_11">
     <path d="M 241.437187 54.570438 
L 261.437187 54.570438 
" style="fill:none;stroke:#ffa500;stroke-linecap:square;stroke-width:1.5;"/>
    </g>
    <g id="line2d_12"/>
    <g id="text_8">
     <!-- cardiogenic_shock (2) -->
     <defs>
      <path d="M 31 75.875 
Q 24.46875 64.65625 21.28125 53.65625 
Q 18.109375 42.671875 18.109375 31.390625 
Q 18.109375 20.125 21.3125 9.0625 
Q 24.515625 -2 31 -13.1875 
L 23.1875 -13.1875 
Q 15.875 -1.703125 12.234375 9.375 
Q 8.59375 20.453125 8.59375 31.390625 
Q 8.59375 42.28125 12.203125 53.3125 
Q 15.828125 64.359375 23.1875 75.875 
z
" id="DejaVuSans-40"/>
      <path d="M 8.015625 75.875 
L 15.828125 75.875 
Q 23.140625 64.359375 26.78125 53.3125 
Q 30.421875 42.28125 30.421875 31.390625 
Q 30.421875 20.453125 26.78125 9.375 
Q 23.140625 -1.703125 15.828125 -13.1875 
L 8.015625 -13.1875 
Q 14.5 -2 17.703125 9.0625 
Q 20.90625 20.125 20.90625 31.390625 
Q 20.90625 42.671875 17.703125 53.65625 
Q 14.5 64.65625 8.015625 75.875 
z
" id="DejaVuSans-41"/>
     </defs>
     <g transform="translate(269.437187 58.070438)scale(0.1 -0.1)">
      <use xlink:href="#DejaVuSans-99"/>
      <use x="54.980469" xlink:href="#DejaVuSans-97"/>
      <use x="116.259766" xlink:href="#DejaVuSans-114"/>
      <use x="155.623047" xlink:href="#DejaVuSans-100"/>
      <use x="219.099609" xlink:href="#DejaVuSans-105"/>
      <use x="246.882812" xlink:href="#DejaVuSans-111"/>
      <use x="308.064453" xlink:href="#DejaVuSans-103"/>
      <use x="371.541016" xlink:href="#DejaVuSans-101"/>
      <use x="433.064453" xlink:href="#DejaVuSans-110"/>
      <use x="496.443359" xlink:href="#DejaVuSans-105"/>
      <use x="524.226562" xlink:href="#DejaVuSans-99"/>
      <use x="579.207031" xlink:href="#DejaVuSans-95"/>
      <use x="629.207031" xlink:href="#DejaVuSans-115"/>
      <use x="681.306641" xlink:href="#DejaVuSans-104"/>
      <use x="744.685547" xlink:href="#DejaVuSans-111"/>
      <use x="805.867188" xlink:href="#DejaVuSans-99"/>
      <use x="860.847656" xlink:href="#DejaVuSans-107"/>
      <use x="918.757812" xlink:href="#DejaVuSans-32"/>
      <use x="950.544922" xlink:href="#DejaVuSans-40"/>
      <use x="989.558594" xlink:href="#DejaVuSans-50"/>
      <use x="1053.181641" xlink:href="#DejaVuSans-41"/>
     </g>
    </g>
    <g id="line2d_13">
     <path d="M 241.437187 69.526688 
L 261.437187 69.526688 
" style="fill:none;stroke:#008000;stroke-linecap:square;stroke-width:1.5;"/>
    </g>
    <g id="line2d_14"/>
    <g id="text_9">
     <!-- Not cardiogenic_shock (46) -->
     <defs>
      <path d="M 9.8125 72.90625 
L 23.09375 72.90625 
L 55.421875 11.921875 
L 55.421875 72.90625 
L 64.984375 72.90625 
L 64.984375 0 
L 51.703125 0 
L 19.390625 60.984375 
L 19.390625 0 
L 9.8125 0 
z
" id="DejaVuSans-78"/>
     </defs>
     <g transform="translate(269.437187 73.026688)scale(0.1 -0.1)">
      <use xlink:href="#DejaVuSans-78"/>
      <use x="74.804688" xlink:href="#DejaVuSans-111"/>
      <use x="135.986328" xlink:href="#DejaVuSans-116"/>
      <use x="175.195312" xlink:href="#DejaVuSans-32"/>
      <use x="206.982422" xlink:href="#DejaVuSans-99"/>
      <use x="261.962891" xlink:href="#DejaVuSans-97"/>
      <use x="323.242188" xlink:href="#DejaVuSans-114"/>
      <use x="362.605469" xlink:href="#DejaVuSans-100"/>
      <use x="426.082031" xlink:href="#DejaVuSans-105"/>
      <use x="453.865234" xlink:href="#DejaVuSans-111"/>
      <use x="515.046875" xlink:href="#DejaVuSans-103"/>
      <use x="578.523438" xlink:href="#DejaVuSans-101"/>
      <use x="640.046875" xlink:href="#DejaVuSans-110"/>
      <use x="703.425781" xlink:href="#DejaVuSans-105"/>
      <use x="731.208984" xlink:href="#DejaVuSans-99"/>
      <use x="786.189453" xlink:href="#DejaVuSans-95"/>
      <use x="836.189453" xlink:href="#DejaVuSans-115"/>
      <use x="888.289062" xlink:href="#DejaVuSans-104"/>
      <use x="951.667969" xlink:href="#DejaVuSans-111"/>
      <use x="1012.849609" xlink:href="#DejaVuSans-99"/>
      <use x="1067.830078" xlink:href="#DejaVuSans-107"/>
      <use x="1125.740234" xlink:href="#DejaVuSans-32"/>
      <use x="1157.527344" xlink:href="#DejaVuSans-40"/>
      <use x="1196.541016" xlink:href="#DejaVuSans-52"/>
      <use x="1260.164062" xlink:href="#DejaVuSans-54"/>
      <use x="1323.787109" xlink:href="#DejaVuSans-41"/>
     </g>
    </g>
   </g>
  </g>
 </g>
 <defs>
  <clipPath id="p8cd02e43e6">
   <rect height="266.112" width="357.12" x="57.6" y="41.472"/>
  </clipPath>
 </defs>
</svg>
