<?xml version="1.0" encoding="utf-8" standalone="no"?>
<!DOCTYPE svg PUBLIC "-//W3C//DTD SVG 1.1//EN"
  "http://www.w3.org/Graphics/SVG/1.1/DTD/svg11.dtd">
<!-- Created with matplotlib (https://matplotlib.org/) -->
<svg height="345.6pt" version="1.1" viewBox="0 0 460.8 345.6" width="460.8pt" xmlns="http://www.w3.org/2000/svg" xmlns:xlink="http://www.w3.org/1999/xlink">
 <defs>
  <style type="text/css">
*{stroke-linecap:butt;stroke-linejoin:round;}
  </style>
 </defs>
 <g id="figure_1">
  <g id="patch_1">
   <path d="M 0 345.6 
L 460.8 345.6 
L 460.8 0 
L 0 0 
z
" style="fill:#ffffff;"/>
  </g>
  <g id="axes_1">
   <g id="patch_2">
    <path d="M 57.6 307.584 
L 414.72 307.584 
L 414.72 41.472 
L 57.6 41.472 
z
" style="fill:#ffffff;"/>
   </g>
   <g id="PolyCollection_1">
    <defs>
     <path d="M 168.018572 -170.839642 
L 168.018572 -171.304358 
L 170.346539 -171.431255 
L 172.674506 -171.602202 
L 175.002472 -171.819667 
L 177.330439 -172.080622 
L 179.658406 -172.375543 
L 181.986372 -172.688645 
L 184.314339 -172.999465 
L 186.642306 -173.285452 
L 188.970272 -173.524889 
L 191.298239 -173.699442 
L 193.626206 -173.795903 
L 195.954173 -173.80709 
L 198.282139 -173.732176 
L 200.610106 -173.576721 
L 202.938073 -173.352438 
L 205.266039 -173.07647 
L 207.594006 -172.769877 
L 209.921973 -172.455272 
L 212.249939 -172.153929 
L 214.577906 -171.88304 
L 216.905873 -171.653823 
L 219.233839 -171.470928 
L 221.561806 -171.333153 
L 223.889773 -171.235088 
L 226.217739 -171.169091 
L 228.545706 -171.127072 
L 230.873673 -171.10175 
L 233.201639 -171.087301 
L 235.529606 -171.079491 
L 237.857573 -171.075491 
L 240.185539 -171.073552 
L 242.513506 -171.072669 
L 244.841473 -171.072312 
L 247.169439 -171.072239 
L 249.497406 -171.072405 
L 251.825373 -171.072941 
L 254.153339 -171.074229 
L 256.481306 -171.07708 
L 258.809273 -171.083045 
L 261.137239 -171.094879 
L 263.465206 -171.117166 
L 265.793173 -171.156998 
L 268.121139 -171.224551 
L 270.449106 -171.333251 
L 272.777073 -171.499201 
L 275.105039 -171.739572 
L 277.433006 -172.069952 
L 279.760973 -172.500998 
L 282.088939 -173.035197 
L 284.416906 -173.664789 
L 286.744873 -174.371803 
L 289.072839 -175.130637 
L 291.400806 -175.912803 
L 293.728773 -176.692672 
L 296.056739 -177.452684 
L 298.384706 -178.186714 
L 300.712673 -178.900968 
L 303.040639 -179.612694 
L 305.368606 -180.347597 
L 307.696573 -181.137006 
L 310.024539 -182.015468 
L 312.352506 -183.018892 
L 314.680473 -184.183075 
L 317.008439 -185.542488 
L 319.336406 -187.129754 
L 321.664373 -188.976705 
L 323.992339 -191.117844 
L 326.320306 -193.596169 
L 328.648273 -196.469692 
L 330.976239 -199.815648 
L 333.304206 -203.72895 
L 335.632173 -208.312686 
L 337.960139 -213.66089 
L 340.288106 -219.836409 
L 342.616073 -226.848256 
L 344.944039 -234.632837 
L 347.272006 -243.042108 
L 349.599973 -251.840197 
L 351.927939 -260.708791 
L 354.255906 -269.260949 
L 356.583873 -277.062417 
L 358.911839 -283.658811 
L 361.239806 -288.60651 
L 363.567773 -291.505317 
L 365.895739 -292.032 
L 368.223706 -289.974736 
L 370.551673 -285.267648 
L 372.879639 -278.021456 
L 375.207606 -268.541891 
L 377.535573 -257.325016 
L 379.863539 -245.02092 
L 382.191506 -232.365114 
L 384.519473 -220.087878 
L 386.847439 -208.820807 
L 389.175406 -199.022543 
L 391.503373 -190.940387 
L 393.831339 -184.613529 
L 396.159306 -179.911529 
L 398.487273 -176.593265 
L 398.487273 -165.550735 
L 398.487273 -165.550735 
L 396.159306 -162.232471 
L 393.831339 -157.530471 
L 391.503373 -151.203613 
L 389.175406 -143.121457 
L 386.847439 -133.323193 
L 384.519473 -122.056122 
L 382.191506 -109.778886 
L 379.863539 -97.12308 
L 377.535573 -84.818984 
L 375.207606 -73.602109 
L 372.879639 -64.122544 
L 370.551673 -56.876352 
L 368.223706 -52.169264 
L 365.895739 -50.112 
L 363.567773 -50.638683 
L 361.239806 -53.53749 
L 358.911839 -58.485189 
L 356.583873 -65.081583 
L 354.255906 -72.883051 
L 351.927939 -81.435209 
L 349.599973 -90.303803 
L 347.272006 -99.101892 
L 344.944039 -107.511163 
L 342.616073 -115.295744 
L 340.288106 -122.307591 
L 337.960139 -128.48311 
L 335.632173 -133.831314 
L 333.304206 -138.41505 
L 330.976239 -142.328352 
L 328.648273 -145.674308 
L 326.320306 -148.547831 
L 323.992339 -151.026156 
L 321.664373 -153.167295 
L 319.336406 -155.014246 
L 317.008439 -156.601512 
L 314.680473 -157.960925 
L 312.352506 -159.125108 
L 310.024539 -160.128532 
L 307.696573 -161.006994 
L 305.368606 -161.796403 
L 303.040639 -162.531306 
L 300.712673 -163.243032 
L 298.384706 -163.957286 
L 296.056739 -164.691316 
L 293.728773 -165.451328 
L 291.400806 -166.231197 
L 289.072839 -167.013363 
L 286.744873 -167.772197 
L 284.416906 -168.479211 
L 282.088939 -169.108803 
L 279.760973 -169.643002 
L 277.433006 -170.074048 
L 275.105039 -170.404428 
L 272.777073 -170.644799 
L 270.449106 -170.810749 
L 268.121139 -170.919449 
L 265.793173 -170.987002 
L 263.465206 -171.026834 
L 261.137239 -171.049121 
L 258.809273 -171.060955 
L 256.481306 -171.06692 
L 254.153339 -171.069771 
L 251.825373 -171.071059 
L 249.497406 -171.071595 
L 247.169439 -171.071761 
L 244.841473 -171.071688 
L 242.513506 -171.071331 
L 240.185539 -171.070448 
L 237.857573 -171.068509 
L 235.529606 -171.064509 
L 233.201639 -171.056699 
L 230.873673 -171.04225 
L 228.545706 -171.016928 
L 226.217739 -170.974909 
L 223.889773 -170.908912 
L 221.561806 -170.810847 
L 219.233839 -170.673072 
L 216.905873 -170.490177 
L 214.577906 -170.26096 
L 212.249939 -169.990071 
L 209.921973 -169.688728 
L 207.594006 -169.374123 
L 205.266039 -169.06753 
L 202.938073 -168.791562 
L 200.610106 -168.567279 
L 198.282139 -168.411824 
L 195.954173 -168.33691 
L 193.626206 -168.348097 
L 191.298239 -168.444558 
L 188.970272 -168.619111 
L 186.642306 -168.858548 
L 184.314339 -169.144535 
L 181.986372 -169.455355 
L 179.658406 -169.768457 
L 177.330439 -170.063378 
L 175.002472 -170.324333 
L 172.674506 -170.541798 
L 170.346539 -170.712745 
L 168.018572 -170.839642 
z
" id="m55b51480c3" style="stroke:#4c4c4c;stroke-opacity:0.5;stroke-width:1.5;"/>
    </defs>
    <g clip-path="url(#p4b5f25ae56)">
     <use style="fill:#df9c20;fill-opacity:0.5;stroke:#4c4c4c;stroke-opacity:0.5;stroke-width:1.5;" x="0" xlink:href="#m55b51480c3" y="345.6"/>
    </g>
   </g>
   <g id="PolyCollection_2">
    <defs>
     <path d="M 73.832727 -170.984882 
L 73.832727 -171.159118 
L 77.013883 -171.305397 
L 80.195038 -171.520971 
L 83.376193 -171.692116 
L 86.557348 -171.686978 
L 89.738504 -171.509904 
L 92.919659 -171.295888 
L 96.100814 -171.154189 
L 99.281969 -171.093664 
L 102.463125 -171.0761 
L 105.64428 -171.072557 
L 108.825435 -171.072054 
L 112.00659 -171.072004 
L 115.187746 -171.072 
L 118.368901 -171.072 
L 121.550056 -171.072 
L 124.731211 -171.072 
L 127.912367 -171.072 
L 131.093522 -171.072 
L 134.274677 -171.072 
L 137.455832 -171.072 
L 140.636988 -171.072 
L 143.818143 -171.072 
L 146.999298 -171.072 
L 150.180453 -171.072 
L 153.361609 -171.072 
L 156.542764 -171.072 
L 159.723919 -171.072 
L 162.905074 -171.072 
L 166.08623 -171.072 
L 169.267385 -171.072 
L 172.44854 -171.072 
L 175.629695 -171.072 
L 178.810851 -171.072 
L 181.992006 -171.072 
L 185.173161 -171.072 
L 188.354316 -171.072 
L 191.535472 -171.072 
L 194.716627 -171.072 
L 197.897782 -171.072 
L 201.078937 -171.072 
L 204.260093 -171.072 
L 207.441248 -171.072 
L 210.622403 -171.072 
L 213.803559 -171.072 
L 216.984714 -171.072 
L 220.165869 -171.072 
L 223.347024 -171.072 
L 226.52818 -171.072 
L 229.709335 -171.072 
L 232.89049 -171.072 
L 236.071645 -171.072 
L 239.252801 -171.072 
L 242.433956 -171.072 
L 245.615111 -171.072 
L 248.796266 -171.072 
L 251.977422 -171.072 
L 255.158577 -171.072 
L 258.339732 -171.072 
L 261.520887 -171.072 
L 264.702043 -171.072 
L 267.883198 -171.072 
L 271.064353 -171.072 
L 274.245508 -171.072 
L 277.426664 -171.072 
L 280.607819 -171.072 
L 283.788974 -171.072 
L 286.970129 -171.072002 
L 290.151285 -171.072033 
L 293.33244 -171.072358 
L 296.513595 -171.074838 
L 299.69475 -171.088248 
L 302.875906 -171.139596 
L 306.057061 -171.278757 
L 309.238216 -171.546932 
L 312.419371 -171.920485 
L 315.600527 -172.308606 
L 318.781682 -172.621763 
L 321.962837 -172.857978 
L 325.143992 -173.208174 
L 328.325148 -174.015184 
L 331.506303 -175.374395 
L 334.687458 -176.876971 
L 337.868613 -178.17717 
L 341.049769 -179.840096 
L 344.230924 -183.445142 
L 347.412079 -190.959077 
L 350.593234 -203.833272 
L 353.77439 -222.056323 
L 356.955545 -243.586625 
L 360.1367 -264.736704 
L 363.317856 -281.606422 
L 366.499011 -291.338361 
L 369.680166 -292.032 
L 372.861321 -282.362774 
L 376.042477 -262.319054 
L 379.223632 -235.071234 
L 382.404787 -207.70223 
L 385.585942 -187.473392 
L 388.767098 -176.640199 
L 388.767098 -165.503801 
L 388.767098 -165.503801 
L 385.585942 -154.670608 
L 382.404787 -134.44177 
L 379.223632 -107.072766 
L 376.042477 -79.824946 
L 372.861321 -59.781226 
L 369.680166 -50.112 
L 366.499011 -50.805639 
L 363.317856 -60.537578 
L 360.1367 -77.407296 
L 356.955545 -98.557375 
L 353.77439 -120.087677 
L 350.593234 -138.310728 
L 347.412079 -151.184923 
L 344.230924 -158.698858 
L 341.049769 -162.303904 
L 337.868613 -163.96683 
L 334.687458 -165.267029 
L 331.506303 -166.769605 
L 328.325148 -168.128816 
L 325.143992 -168.935826 
L 321.962837 -169.286022 
L 318.781682 -169.522237 
L 315.600527 -169.835394 
L 312.419371 -170.223515 
L 309.238216 -170.597068 
L 306.057061 -170.865243 
L 302.875906 -171.004404 
L 299.69475 -171.055752 
L 296.513595 -171.069162 
L 293.33244 -171.071642 
L 290.151285 -171.071967 
L 286.970129 -171.071998 
L 283.788974 -171.072 
L 280.607819 -171.072 
L 277.426664 -171.072 
L 274.245508 -171.072 
L 271.064353 -171.072 
L 267.883198 -171.072 
L 264.702043 -171.072 
L 261.520887 -171.072 
L 258.339732 -171.072 
L 255.158577 -171.072 
L 251.977422 -171.072 
L 248.796266 -171.072 
L 245.615111 -171.072 
L 242.433956 -171.072 
L 239.252801 -171.072 
L 236.071645 -171.072 
L 232.89049 -171.072 
L 229.709335 -171.072 
L 226.52818 -171.072 
L 223.347024 -171.072 
L 220.165869 -171.072 
L 216.984714 -171.072 
L 213.803559 -171.072 
L 210.622403 -171.072 
L 207.441248 -171.072 
L 204.260093 -171.072 
L 201.078937 -171.072 
L 197.897782 -171.072 
L 194.716627 -171.072 
L 191.535472 -171.072 
L 188.354316 -171.072 
L 185.173161 -171.072 
L 181.992006 -171.072 
L 178.810851 -171.072 
L 175.629695 -171.072 
L 172.44854 -171.072 
L 169.267385 -171.072 
L 166.08623 -171.072 
L 162.905074 -171.072 
L 159.723919 -171.072 
L 156.542764 -171.072 
L 153.361609 -171.072 
L 150.180453 -171.072 
L 146.999298 -171.072 
L 143.818143 -171.072 
L 140.636988 -171.072 
L 137.455832 -171.072 
L 134.274677 -171.072 
L 131.093522 -171.072 
L 127.912367 -171.072 
L 124.731211 -171.072 
L 121.550056 -171.072 
L 118.368901 -171.072 
L 115.187746 -171.072 
L 112.00659 -171.071996 
L 108.825435 -171.071946 
L 105.64428 -171.071443 
L 102.463125 -171.0679 
L 99.281969 -171.050336 
L 96.100814 -170.989811 
L 92.919659 -170.848112 
L 89.738504 -170.634096 
L 86.557348 -170.457022 
L 83.376193 -170.451884 
L 80.195038 -170.623029 
L 77.013883 -170.838603 
L 73.832727 -170.984882 
z
" id="mb4a1ae313e" style="stroke:#262626;stroke-opacity:0.5;stroke-width:1.5;"/>
    </defs>
    <g clip-path="url(#p4b5f25ae56)">
     <use style="fill:#107010;fill-opacity:0.5;stroke:#262626;stroke-opacity:0.5;stroke-width:1.5;" x="0" xlink:href="#mb4a1ae313e" y="345.6"/>
    </g>
   </g>
   <g id="matplotlib.axis_1">
    <g id="xtick_1">
     <g id="line2d_1">
      <defs>
       <path d="M 0 0 
L 0 3.5 
" id="m1de29d508e" style="stroke:#000000;stroke-width:0.8;"/>
      </defs>
      <g>
       <use style="stroke:#000000;stroke-width:0.8;" x="62.846213" xlink:href="#m1de29d508e" y="307.584"/>
      </g>
     </g>
     <g id="text_1">
      <!-- 0 -->
      <defs>
       <path d="M 31.78125 66.40625 
Q 24.171875 66.40625 20.328125 58.90625 
Q 16.5 51.421875 16.5 36.375 
Q 16.5 21.390625 20.328125 13.890625 
Q 24.171875 6.390625 31.78125 6.390625 
Q 39.453125 6.390625 43.28125 13.890625 
Q 47.125 21.390625 47.125 36.375 
Q 47.125 51.421875 43.28125 58.90625 
Q 39.453125 66.40625 31.78125 66.40625 
z
M 31.78125 74.21875 
Q 44.046875 74.21875 50.515625 64.515625 
Q 56.984375 54.828125 56.984375 36.375 
Q 56.984375 17.96875 50.515625 8.265625 
Q 44.046875 -1.421875 31.78125 -1.421875 
Q 19.53125 -1.421875 13.0625 8.265625 
Q 6.59375 17.96875 6.59375 36.375 
Q 6.59375 54.828125 13.0625 64.515625 
Q 19.53125 74.21875 31.78125 74.21875 
z
" id="DejaVuSans-48"/>
      </defs>
      <g transform="translate(59.664963 322.182437)scale(0.1 -0.1)">
       <use xlink:href="#DejaVuSans-48"/>
      </g>
     </g>
    </g>
    <g id="xtick_2">
     <g id="line2d_2">
      <g>
       <use style="stroke:#000000;stroke-width:0.8;" x="125.819558" xlink:href="#m1de29d508e" y="307.584"/>
      </g>
     </g>
     <g id="text_2">
      <!-- 20 -->
      <defs>
       <path d="M 19.1875 8.296875 
L 53.609375 8.296875 
L 53.609375 0 
L 7.328125 0 
L 7.328125 8.296875 
Q 12.9375 14.109375 22.625 23.890625 
Q 32.328125 33.6875 34.8125 36.53125 
Q 39.546875 41.84375 41.421875 45.53125 
Q 43.3125 49.21875 43.3125 52.78125 
Q 43.3125 58.59375 39.234375 62.25 
Q 35.15625 65.921875 28.609375 65.921875 
Q 23.96875 65.921875 18.8125 64.3125 
Q 13.671875 62.703125 7.8125 59.421875 
L 7.8125 69.390625 
Q 13.765625 71.78125 18.9375 73 
Q 24.125 74.21875 28.421875 74.21875 
Q 39.75 74.21875 46.484375 68.546875 
Q 53.21875 62.890625 53.21875 53.421875 
Q 53.21875 48.921875 51.53125 44.890625 
Q 49.859375 40.875 45.40625 35.40625 
Q 44.1875 33.984375 37.640625 27.21875 
Q 31.109375 20.453125 19.1875 8.296875 
z
" id="DejaVuSans-50"/>
      </defs>
      <g transform="translate(119.457058 322.182437)scale(0.1 -0.1)">
       <use xlink:href="#DejaVuSans-50"/>
       <use x="63.623047" xlink:href="#DejaVuSans-48"/>
      </g>
     </g>
    </g>
    <g id="xtick_3">
     <g id="line2d_3">
      <g>
       <use style="stroke:#000000;stroke-width:0.8;" x="188.792904" xlink:href="#m1de29d508e" y="307.584"/>
      </g>
     </g>
     <g id="text_3">
      <!-- 40 -->
      <defs>
       <path d="M 37.796875 64.3125 
L 12.890625 25.390625 
L 37.796875 25.390625 
z
M 35.203125 72.90625 
L 47.609375 72.90625 
L 47.609375 25.390625 
L 58.015625 25.390625 
L 58.015625 17.1875 
L 47.609375 17.1875 
L 47.609375 0 
L 37.796875 0 
L 37.796875 17.1875 
L 4.890625 17.1875 
L 4.890625 26.703125 
z
" id="DejaVuSans-52"/>
      </defs>
      <g transform="translate(182.430404 322.182437)scale(0.1 -0.1)">
       <use xlink:href="#DejaVuSans-52"/>
       <use x="63.623047" xlink:href="#DejaVuSans-48"/>
      </g>
     </g>
    </g>
    <g id="xtick_4">
     <g id="line2d_4">
      <g>
       <use style="stroke:#000000;stroke-width:0.8;" x="251.76625" xlink:href="#m1de29d508e" y="307.584"/>
      </g>
     </g>
     <g id="text_4">
      <!-- 60 -->
      <defs>
       <path d="M 33.015625 40.375 
Q 26.375 40.375 22.484375 35.828125 
Q 18.609375 31.296875 18.609375 23.390625 
Q 18.609375 15.53125 22.484375 10.953125 
Q 26.375 6.390625 33.015625 6.390625 
Q 39.65625 6.390625 43.53125 10.953125 
Q 47.40625 15.53125 47.40625 23.390625 
Q 47.40625 31.296875 43.53125 35.828125 
Q 39.65625 40.375 33.015625 40.375 
z
M 52.59375 71.296875 
L 52.59375 62.3125 
Q 48.875 64.0625 45.09375 64.984375 
Q 41.3125 65.921875 37.59375 65.921875 
Q 27.828125 65.921875 22.671875 59.328125 
Q 17.53125 52.734375 16.796875 39.40625 
Q 19.671875 43.65625 24.015625 45.921875 
Q 28.375 48.1875 33.59375 48.1875 
Q 44.578125 48.1875 50.953125 41.515625 
Q 57.328125 34.859375 57.328125 23.390625 
Q 57.328125 12.15625 50.6875 5.359375 
Q 44.046875 -1.421875 33.015625 -1.421875 
Q 20.359375 -1.421875 13.671875 8.265625 
Q 6.984375 17.96875 6.984375 36.375 
Q 6.984375 53.65625 15.1875 63.9375 
Q 23.390625 74.21875 37.203125 74.21875 
Q 40.921875 74.21875 44.703125 73.484375 
Q 48.484375 72.75 52.59375 71.296875 
z
" id="DejaVuSans-54"/>
      </defs>
      <g transform="translate(245.40375 322.182437)scale(0.1 -0.1)">
       <use xlink:href="#DejaVuSans-54"/>
       <use x="63.623047" xlink:href="#DejaVuSans-48"/>
      </g>
     </g>
    </g>
    <g id="xtick_5">
     <g id="line2d_5">
      <g>
       <use style="stroke:#000000;stroke-width:0.8;" x="314.739595" xlink:href="#m1de29d508e" y="307.584"/>
      </g>
     </g>
     <g id="text_5">
      <!-- 80 -->
      <defs>
       <path d="M 31.78125 34.625 
Q 24.75 34.625 20.71875 30.859375 
Q 16.703125 27.09375 16.703125 20.515625 
Q 16.703125 13.921875 20.71875 10.15625 
Q 24.75 6.390625 31.78125 6.390625 
Q 38.8125 6.390625 42.859375 10.171875 
Q 46.921875 13.96875 46.921875 20.515625 
Q 46.921875 27.09375 42.890625 30.859375 
Q 38.875 34.625 31.78125 34.625 
z
M 21.921875 38.8125 
Q 15.578125 40.375 12.03125 44.71875 
Q 8.5 49.078125 8.5 55.328125 
Q 8.5 64.0625 14.71875 69.140625 
Q 20.953125 74.21875 31.78125 74.21875 
Q 42.671875 74.21875 48.875 69.140625 
Q 55.078125 64.0625 55.078125 55.328125 
Q 55.078125 49.078125 51.53125 44.71875 
Q 48 40.375 41.703125 38.8125 
Q 48.828125 37.15625 52.796875 32.3125 
Q 56.78125 27.484375 56.78125 20.515625 
Q 56.78125 9.90625 50.3125 4.234375 
Q 43.84375 -1.421875 31.78125 -1.421875 
Q 19.734375 -1.421875 13.25 4.234375 
Q 6.78125 9.90625 6.78125 20.515625 
Q 6.78125 27.484375 10.78125 32.3125 
Q 14.796875 37.15625 21.921875 38.8125 
z
M 18.3125 54.390625 
Q 18.3125 48.734375 21.84375 45.5625 
Q 25.390625 42.390625 31.78125 42.390625 
Q 38.140625 42.390625 41.71875 45.5625 
Q 45.3125 48.734375 45.3125 54.390625 
Q 45.3125 60.0625 41.71875 63.234375 
Q 38.140625 66.40625 31.78125 66.40625 
Q 25.390625 66.40625 21.84375 63.234375 
Q 18.3125 60.0625 18.3125 54.390625 
z
" id="DejaVuSans-56"/>
      </defs>
      <g transform="translate(308.377095 322.182437)scale(0.1 -0.1)">
       <use xlink:href="#DejaVuSans-56"/>
       <use x="63.623047" xlink:href="#DejaVuSans-48"/>
      </g>
     </g>
    </g>
    <g id="xtick_6">
     <g id="line2d_6">
      <g>
       <use style="stroke:#000000;stroke-width:0.8;" x="377.712941" xlink:href="#m1de29d508e" y="307.584"/>
      </g>
     </g>
     <g id="text_6">
      <!-- 100 -->
      <defs>
       <path d="M 12.40625 8.296875 
L 28.515625 8.296875 
L 28.515625 63.921875 
L 10.984375 60.40625 
L 10.984375 69.390625 
L 28.421875 72.90625 
L 38.28125 72.90625 
L 38.28125 8.296875 
L 54.390625 8.296875 
L 54.390625 0 
L 12.40625 0 
z
" id="DejaVuSans-49"/>
      </defs>
      <g transform="translate(368.169191 322.182437)scale(0.1 -0.1)">
       <use xlink:href="#DejaVuSans-49"/>
       <use x="63.623047" xlink:href="#DejaVuSans-48"/>
       <use x="127.246094" xlink:href="#DejaVuSans-48"/>
      </g>
     </g>
    </g>
    <g id="text_7">
     <!-- o2_saturation -->
     <defs>
      <path d="M 30.609375 48.390625 
Q 23.390625 48.390625 19.1875 42.75 
Q 14.984375 37.109375 14.984375 27.296875 
Q 14.984375 17.484375 19.15625 11.84375 
Q 23.34375 6.203125 30.609375 6.203125 
Q 37.796875 6.203125 41.984375 11.859375 
Q 46.1875 17.53125 46.1875 27.296875 
Q 46.1875 37.015625 41.984375 42.703125 
Q 37.796875 48.390625 30.609375 48.390625 
z
M 30.609375 56 
Q 42.328125 56 49.015625 48.375 
Q 55.71875 40.765625 55.71875 27.296875 
Q 55.71875 13.875 49.015625 6.21875 
Q 42.328125 -1.421875 30.609375 -1.421875 
Q 18.84375 -1.421875 12.171875 6.21875 
Q 5.515625 13.875 5.515625 27.296875 
Q 5.515625 40.765625 12.171875 48.375 
Q 18.84375 56 30.609375 56 
z
" id="DejaVuSans-111"/>
      <path d="M 50.984375 -16.609375 
L 50.984375 -23.578125 
L -0.984375 -23.578125 
L -0.984375 -16.609375 
z
" id="DejaVuSans-95"/>
      <path d="M 44.28125 53.078125 
L 44.28125 44.578125 
Q 40.484375 46.53125 36.375 47.5 
Q 32.28125 48.484375 27.875 48.484375 
Q 21.1875 48.484375 17.84375 46.4375 
Q 14.5 44.390625 14.5 40.28125 
Q 14.5 37.15625 16.890625 35.375 
Q 19.28125 33.59375 26.515625 31.984375 
L 29.59375 31.296875 
Q 39.15625 29.25 43.1875 25.515625 
Q 47.21875 21.78125 47.21875 15.09375 
Q 47.21875 7.46875 41.1875 3.015625 
Q 35.15625 -1.421875 24.609375 -1.421875 
Q 20.21875 -1.421875 15.453125 -0.5625 
Q 10.6875 0.296875 5.421875 2 
L 5.421875 11.28125 
Q 10.40625 8.6875 15.234375 7.390625 
Q 20.0625 6.109375 24.8125 6.109375 
Q 31.15625 6.109375 34.5625 8.28125 
Q 37.984375 10.453125 37.984375 14.40625 
Q 37.984375 18.0625 35.515625 20.015625 
Q 33.0625 21.96875 24.703125 23.78125 
L 21.578125 24.515625 
Q 13.234375 26.265625 9.515625 29.90625 
Q 5.8125 33.546875 5.8125 39.890625 
Q 5.8125 47.609375 11.28125 51.796875 
Q 16.75 56 26.8125 56 
Q 31.78125 56 36.171875 55.265625 
Q 40.578125 54.546875 44.28125 53.078125 
z
" id="DejaVuSans-115"/>
      <path d="M 34.28125 27.484375 
Q 23.390625 27.484375 19.1875 25 
Q 14.984375 22.515625 14.984375 16.5 
Q 14.984375 11.71875 18.140625 8.90625 
Q 21.296875 6.109375 26.703125 6.109375 
Q 34.1875 6.109375 38.703125 11.40625 
Q 43.21875 16.703125 43.21875 25.484375 
L 43.21875 27.484375 
z
M 52.203125 31.203125 
L 52.203125 0 
L 43.21875 0 
L 43.21875 8.296875 
Q 40.140625 3.328125 35.546875 0.953125 
Q 30.953125 -1.421875 24.3125 -1.421875 
Q 15.921875 -1.421875 10.953125 3.296875 
Q 6 8.015625 6 15.921875 
Q 6 25.140625 12.171875 29.828125 
Q 18.359375 34.515625 30.609375 34.515625 
L 43.21875 34.515625 
L 43.21875 35.40625 
Q 43.21875 41.609375 39.140625 45 
Q 35.0625 48.390625 27.6875 48.390625 
Q 23 48.390625 18.546875 47.265625 
Q 14.109375 46.140625 10.015625 43.890625 
L 10.015625 52.203125 
Q 14.9375 54.109375 19.578125 55.046875 
Q 24.21875 56 28.609375 56 
Q 40.484375 56 46.34375 49.84375 
Q 52.203125 43.703125 52.203125 31.203125 
z
" id="DejaVuSans-97"/>
      <path d="M 18.3125 70.21875 
L 18.3125 54.6875 
L 36.8125 54.6875 
L 36.8125 47.703125 
L 18.3125 47.703125 
L 18.3125 18.015625 
Q 18.3125 11.328125 20.140625 9.421875 
Q 21.96875 7.515625 27.59375 7.515625 
L 36.8125 7.515625 
L 36.8125 0 
L 27.59375 0 
Q 17.1875 0 13.234375 3.875 
Q 9.28125 7.765625 9.28125 18.015625 
L 9.28125 47.703125 
L 2.6875 47.703125 
L 2.6875 54.6875 
L 9.28125 54.6875 
L 9.28125 70.21875 
z
" id="DejaVuSans-116"/>
      <path d="M 8.5 21.578125 
L 8.5 54.6875 
L 17.484375 54.6875 
L 17.484375 21.921875 
Q 17.484375 14.15625 20.5 10.265625 
Q 23.53125 6.390625 29.59375 6.390625 
Q 36.859375 6.390625 41.078125 11.03125 
Q 45.3125 15.671875 45.3125 23.6875 
L 45.3125 54.6875 
L 54.296875 54.6875 
L 54.296875 0 
L 45.3125 0 
L 45.3125 8.40625 
Q 42.046875 3.421875 37.71875 1 
Q 33.40625 -1.421875 27.6875 -1.421875 
Q 18.265625 -1.421875 13.375 4.4375 
Q 8.5 10.296875 8.5 21.578125 
z
M 31.109375 56 
z
" id="DejaVuSans-117"/>
      <path d="M 41.109375 46.296875 
Q 39.59375 47.171875 37.8125 47.578125 
Q 36.03125 48 33.890625 48 
Q 26.265625 48 22.1875 43.046875 
Q 18.109375 38.09375 18.109375 28.8125 
L 18.109375 0 
L 9.078125 0 
L 9.078125 54.6875 
L 18.109375 54.6875 
L 18.109375 46.1875 
Q 20.953125 51.171875 25.484375 53.578125 
Q 30.03125 56 36.53125 56 
Q 37.453125 56 38.578125 55.875 
Q 39.703125 55.765625 41.0625 55.515625 
z
" id="DejaVuSans-114"/>
      <path d="M 9.421875 54.6875 
L 18.40625 54.6875 
L 18.40625 0 
L 9.421875 0 
z
M 9.421875 75.984375 
L 18.40625 75.984375 
L 18.40625 64.59375 
L 9.421875 64.59375 
z
" id="DejaVuSans-105"/>
      <path d="M 54.890625 33.015625 
L 54.890625 0 
L 45.90625 0 
L 45.90625 32.71875 
Q 45.90625 40.484375 42.875 44.328125 
Q 39.84375 48.1875 33.796875 48.1875 
Q 26.515625 48.1875 22.3125 43.546875 
Q 18.109375 38.921875 18.109375 30.90625 
L 18.109375 0 
L 9.078125 0 
L 9.078125 54.6875 
L 18.109375 54.6875 
L 18.109375 46.1875 
Q 21.34375 51.125 25.703125 53.5625 
Q 30.078125 56 35.796875 56 
Q 45.21875 56 50.046875 50.171875 
Q 54.890625 44.34375 54.890625 33.015625 
z
" id="DejaVuSans-110"/>
     </defs>
     <g transform="translate(201.924844 335.860562)scale(0.1 -0.1)">
      <use xlink:href="#DejaVuSans-111"/>
      <use x="61.181641" xlink:href="#DejaVuSans-50"/>
      <use x="124.804688" xlink:href="#DejaVuSans-95"/>
      <use x="174.804688" xlink:href="#DejaVuSans-115"/>
      <use x="226.904297" xlink:href="#DejaVuSans-97"/>
      <use x="288.183594" xlink:href="#DejaVuSans-116"/>
      <use x="327.392578" xlink:href="#DejaVuSans-117"/>
      <use x="390.771484" xlink:href="#DejaVuSans-114"/>
      <use x="431.884766" xlink:href="#DejaVuSans-97"/>
      <use x="493.164062" xlink:href="#DejaVuSans-116"/>
      <use x="532.373047" xlink:href="#DejaVuSans-105"/>
      <use x="560.15625" xlink:href="#DejaVuSans-111"/>
      <use x="621.337891" xlink:href="#DejaVuSans-110"/>
     </g>
    </g>
   </g>
   <g id="matplotlib.axis_2">
    <g id="ytick_1">
     <g id="line2d_7">
      <defs>
       <path d="M 0 0 
L -3.5 0 
" id="mc1c6ea2a65" style="stroke:#000000;stroke-width:0.8;"/>
      </defs>
      <g>
       <use style="stroke:#000000;stroke-width:0.8;" x="57.6" xlink:href="#mc1c6ea2a65" y="174.528"/>
      </g>
     </g>
    </g>
   </g>
   <g id="line2d_8">
    <path clip-path="url(#p4b5f25ae56)" d="M 317.888263 174.528 
L 377.712941 174.528 
" style="fill:none;stroke:#ffa500;stroke-linecap:square;stroke-width:1.5;"/>
   </g>
   <g id="line2d_9">
    <path clip-path="url(#p4b5f25ae56)" d="M 349.374936 174.528 
L 371.415607 174.528 
" style="fill:none;stroke:#4c4c4c;stroke-linecap:square;stroke-width:4.5;"/>
   </g>
   <g id="line2d_10">
    <path clip-path="url(#p4b5f25ae56)" d="M 349.374936 174.528 
L 377.712941 174.528 
" style="fill:none;stroke:#008000;stroke-linecap:square;stroke-width:1.5;"/>
   </g>
   <g id="line2d_11">
    <path clip-path="url(#p4b5f25ae56)" d="M 361.969605 174.528 
L 371.415607 174.528 
" style="fill:none;stroke:#262626;stroke-linecap:square;stroke-width:4.5;"/>
   </g>
   <g id="patch_3">
    <path d="M 57.6 307.584 
L 57.6 41.472 
" style="fill:none;stroke:#000000;stroke-linecap:square;stroke-linejoin:miter;stroke-width:0.8;"/>
   </g>
   <g id="patch_4">
    <path d="M 414.72 307.584 
L 414.72 41.472 
" style="fill:none;stroke:#000000;stroke-linecap:square;stroke-linejoin:miter;stroke-width:0.8;"/>
   </g>
   <g id="patch_5">
    <path d="M 57.6 307.584 
L 414.72 307.584 
" style="fill:none;stroke:#000000;stroke-linecap:square;stroke-linejoin:miter;stroke-width:0.8;"/>
   </g>
   <g id="patch_6">
    <path d="M 57.6 41.472 
L 414.72 41.472 
" style="fill:none;stroke:#000000;stroke-linecap:square;stroke-linejoin:miter;stroke-width:0.8;"/>
   </g>
   <g id="PathCollection_1">
    <defs>
     <path d="M 0 1.5 
C 0.397805 1.5 0.77937 1.341951 1.06066 1.06066 
C 1.341951 0.77937 1.5 0.397805 1.5 0 
C 1.5 -0.397805 1.341951 -0.77937 1.06066 -1.06066 
C 0.77937 -1.341951 0.397805 -1.5 0 -1.5 
C -0.397805 -1.5 -0.77937 -1.341951 -1.06066 -1.06066 
C -1.341951 -0.77937 -1.5 -0.397805 -1.5 0 
C -1.5 0.397805 -1.341951 0.77937 -1.06066 1.06066 
C -0.77937 1.341951 -0.397805 1.5 0 1.5 
z
" id="mb9547f95f4" style="stroke:#4c4c4c;stroke-opacity:0.5;"/>
    </defs>
    <g clip-path="url(#p4b5f25ae56)">
     <use style="fill:#ffffff;fill-opacity:0.5;stroke:#4c4c4c;stroke-opacity:0.5;" x="361.969605" xlink:href="#mb9547f95f4" y="174.528"/>
    </g>
   </g>
   <g id="PathCollection_2">
    <defs>
     <path d="M 0 1.5 
C 0.397805 1.5 0.77937 1.341951 1.06066 1.06066 
C 1.341951 0.77937 1.5 0.397805 1.5 0 
C 1.5 -0.397805 1.341951 -0.77937 1.06066 -1.06066 
C 0.77937 -1.341951 0.397805 -1.5 0 -1.5 
C -0.397805 -1.5 -0.77937 -1.341951 -1.06066 -1.06066 
C -1.341951 -0.77937 -1.5 -0.397805 -1.5 0 
C -1.5 0.397805 -1.341951 0.77937 -1.06066 1.06066 
C -0.77937 1.341951 -0.397805 1.5 0 1.5 
z
" id="mc862b40b58" style="stroke:#262626;stroke-opacity:0.5;"/>
    </defs>
    <g clip-path="url(#p4b5f25ae56)">
     <use style="fill:#ffffff;fill-opacity:0.5;stroke:#262626;stroke-opacity:0.5;" x="368.266939" xlink:href="#mc862b40b58" y="174.528"/>
    </g>
   </g>
   <g id="text_8">
    <!-- Association of o2_saturation vs. ards -->
    <defs>
     <path d="M 34.1875 63.1875 
L 20.796875 26.90625 
L 47.609375 26.90625 
z
M 28.609375 72.90625 
L 39.796875 72.90625 
L 67.578125 0 
L 57.328125 0 
L 50.6875 18.703125 
L 17.828125 18.703125 
L 11.1875 0 
L 0.78125 0 
z
" id="DejaVuSans-65"/>
     <path d="M 48.78125 52.59375 
L 48.78125 44.1875 
Q 44.96875 46.296875 41.140625 47.34375 
Q 37.3125 48.390625 33.40625 48.390625 
Q 24.65625 48.390625 19.8125 42.84375 
Q 14.984375 37.3125 14.984375 27.296875 
Q 14.984375 17.28125 19.8125 11.734375 
Q 24.65625 6.203125 33.40625 6.203125 
Q 37.3125 6.203125 41.140625 7.25 
Q 44.96875 8.296875 48.78125 10.40625 
L 48.78125 2.09375 
Q 45.015625 0.34375 40.984375 -0.53125 
Q 36.96875 -1.421875 32.421875 -1.421875 
Q 20.0625 -1.421875 12.78125 6.34375 
Q 5.515625 14.109375 5.515625 27.296875 
Q 5.515625 40.671875 12.859375 48.328125 
Q 20.21875 56 33.015625 56 
Q 37.15625 56 41.109375 55.140625 
Q 45.0625 54.296875 48.78125 52.59375 
z
" id="DejaVuSans-99"/>
     <path id="DejaVuSans-32"/>
     <path d="M 37.109375 75.984375 
L 37.109375 68.5 
L 28.515625 68.5 
Q 23.6875 68.5 21.796875 66.546875 
Q 19.921875 64.59375 19.921875 59.515625 
L 19.921875 54.6875 
L 34.71875 54.6875 
L 34.71875 47.703125 
L 19.921875 47.703125 
L 19.921875 0 
L 10.890625 0 
L 10.890625 47.703125 
L 2.296875 47.703125 
L 2.296875 54.6875 
L 10.890625 54.6875 
L 10.890625 58.5 
Q 10.890625 67.625 15.140625 71.796875 
Q 19.390625 75.984375 28.609375 75.984375 
z
" id="DejaVuSans-102"/>
     <path d="M 2.984375 54.6875 
L 12.5 54.6875 
L 29.59375 8.796875 
L 46.6875 54.6875 
L 56.203125 54.6875 
L 35.6875 0 
L 23.484375 0 
z
" id="DejaVuSans-118"/>
     <path d="M 10.6875 12.40625 
L 21 12.40625 
L 21 0 
L 10.6875 0 
z
" id="DejaVuSans-46"/>
     <path d="M 45.40625 46.390625 
L 45.40625 75.984375 
L 54.390625 75.984375 
L 54.390625 0 
L 45.40625 0 
L 45.40625 8.203125 
Q 42.578125 3.328125 38.25 0.953125 
Q 33.9375 -1.421875 27.875 -1.421875 
Q 17.96875 -1.421875 11.734375 6.484375 
Q 5.515625 14.40625 5.515625 27.296875 
Q 5.515625 40.1875 11.734375 48.09375 
Q 17.96875 56 27.875 56 
Q 33.9375 56 38.25 53.625 
Q 42.578125 51.265625 45.40625 46.390625 
z
M 14.796875 27.296875 
Q 14.796875 17.390625 18.875 11.75 
Q 22.953125 6.109375 30.078125 6.109375 
Q 37.203125 6.109375 41.296875 11.75 
Q 45.40625 17.390625 45.40625 27.296875 
Q 45.40625 37.203125 41.296875 42.84375 
Q 37.203125 48.484375 30.078125 48.484375 
Q 22.953125 48.484375 18.875 42.84375 
Q 14.796875 37.203125 14.796875 27.296875 
z
" id="DejaVuSans-100"/>
    </defs>
    <g transform="translate(125.9475 35.472)scale(0.12 -0.12)">
     <use xlink:href="#DejaVuSans-65"/>
     <use x="68.408203" xlink:href="#DejaVuSans-115"/>
     <use x="120.507812" xlink:href="#DejaVuSans-115"/>
     <use x="172.607422" xlink:href="#DejaVuSans-111"/>
     <use x="233.789062" xlink:href="#DejaVuSans-99"/>
     <use x="288.769531" xlink:href="#DejaVuSans-105"/>
     <use x="316.552734" xlink:href="#DejaVuSans-97"/>
     <use x="377.832031" xlink:href="#DejaVuSans-116"/>
     <use x="417.041016" xlink:href="#DejaVuSans-105"/>
     <use x="444.824219" xlink:href="#DejaVuSans-111"/>
     <use x="506.005859" xlink:href="#DejaVuSans-110"/>
     <use x="569.384766" xlink:href="#DejaVuSans-32"/>
     <use x="601.171875" xlink:href="#DejaVuSans-111"/>
     <use x="662.353516" xlink:href="#DejaVuSans-102"/>
     <use x="697.558594" xlink:href="#DejaVuSans-32"/>
     <use x="729.345703" xlink:href="#DejaVuSans-111"/>
     <use x="790.527344" xlink:href="#DejaVuSans-50"/>
     <use x="854.150391" xlink:href="#DejaVuSans-95"/>
     <use x="904.150391" xlink:href="#DejaVuSans-115"/>
     <use x="956.25" xlink:href="#DejaVuSans-97"/>
     <use x="1017.529297" xlink:href="#DejaVuSans-116"/>
     <use x="1056.738281" xlink:href="#DejaVuSans-117"/>
     <use x="1120.117188" xlink:href="#DejaVuSans-114"/>
     <use x="1161.230469" xlink:href="#DejaVuSans-97"/>
     <use x="1222.509766" xlink:href="#DejaVuSans-116"/>
     <use x="1261.71875" xlink:href="#DejaVuSans-105"/>
     <use x="1289.501953" xlink:href="#DejaVuSans-111"/>
     <use x="1350.683594" xlink:href="#DejaVuSans-110"/>
     <use x="1414.0625" xlink:href="#DejaVuSans-32"/>
     <use x="1445.849609" xlink:href="#DejaVuSans-118"/>
     <use x="1505.029297" xlink:href="#DejaVuSans-115"/>
     <use x="1557.128906" xlink:href="#DejaVuSans-46"/>
     <use x="1588.916016" xlink:href="#DejaVuSans-32"/>
     <use x="1620.703125" xlink:href="#DejaVuSans-97"/>
     <use x="1681.982422" xlink:href="#DejaVuSans-114"/>
     <use x="1721.345703" xlink:href="#DejaVuSans-100"/>
     <use x="1784.822266" xlink:href="#DejaVuSans-115"/>
    </g>
   </g>
   <g id="legend_1">
    <g id="patch_7">
     <path d="M 303.330938 78.82825 
L 407.72 78.82825 
Q 409.72 78.82825 409.72 76.82825 
L 409.72 48.472 
Q 409.72 46.472 407.72 46.472 
L 303.330938 46.472 
Q 301.330938 46.472 301.330938 48.472 
L 301.330938 76.82825 
Q 301.330938 78.82825 303.330938 78.82825 
z
" style="fill:#ffffff;opacity:0.8;stroke:#cccccc;stroke-linejoin:miter;"/>
    </g>
    <g id="line2d_12">
     <path d="M 305.330938 54.570437 
L 325.330938 54.570437 
" style="fill:none;stroke:#ffa500;stroke-linecap:square;stroke-width:1.5;"/>
    </g>
    <g id="line2d_13"/>
    <g id="text_9">
     <!-- ards (126) -->
     <defs>
      <path d="M 31 75.875 
Q 24.46875 64.65625 21.28125 53.65625 
Q 18.109375 42.671875 18.109375 31.390625 
Q 18.109375 20.125 21.3125 9.0625 
Q 24.515625 -2 31 -13.1875 
L 23.1875 -13.1875 
Q 15.875 -1.703125 12.234375 9.375 
Q 8.59375 20.453125 8.59375 31.390625 
Q 8.59375 42.28125 12.203125 53.3125 
Q 15.828125 64.359375 23.1875 75.875 
z
" id="DejaVuSans-40"/>
      <path d="M 8.015625 75.875 
L 15.828125 75.875 
Q 23.140625 64.359375 26.78125 53.3125 
Q 30.421875 42.28125 30.421875 31.390625 
Q 30.421875 20.453125 26.78125 9.375 
Q 23.140625 -1.703125 15.828125 -13.1875 
L 8.015625 -13.1875 
Q 14.5 -2 17.703125 9.0625 
Q 20.90625 20.125 20.90625 31.390625 
Q 20.90625 42.671875 17.703125 53.65625 
Q 14.5 64.65625 8.015625 75.875 
z
" id="DejaVuSans-41"/>
     </defs>
     <g transform="translate(333.330938 58.070437)scale(0.1 -0.1)">
      <use xlink:href="#DejaVuSans-97"/>
      <use x="61.279297" xlink:href="#DejaVuSans-114"/>
      <use x="100.642578" xlink:href="#DejaVuSans-100"/>
      <use x="164.119141" xlink:href="#DejaVuSans-115"/>
      <use x="216.21875" xlink:href="#DejaVuSans-32"/>
      <use x="248.005859" xlink:href="#DejaVuSans-40"/>
      <use x="287.019531" xlink:href="#DejaVuSans-49"/>
      <use x="350.642578" xlink:href="#DejaVuSans-50"/>
      <use x="414.265625" xlink:href="#DejaVuSans-54"/>
      <use x="477.888672" xlink:href="#DejaVuSans-41"/>
     </g>
    </g>
    <g id="line2d_14">
     <path d="M 305.330938 69.248562 
L 325.330938 69.248562 
" style="fill:none;stroke:#008000;stroke-linecap:square;stroke-width:1.5;"/>
    </g>
    <g id="line2d_15"/>
    <g id="text_10">
     <!-- Not ards (357) -->
     <defs>
      <path d="M 9.8125 72.90625 
L 23.09375 72.90625 
L 55.421875 11.921875 
L 55.421875 72.90625 
L 64.984375 72.90625 
L 64.984375 0 
L 51.703125 0 
L 19.390625 60.984375 
L 19.390625 0 
L 9.8125 0 
z
" id="DejaVuSans-78"/>
      <path d="M 40.578125 39.3125 
Q 47.65625 37.796875 51.625 33 
Q 55.609375 28.21875 55.609375 21.1875 
Q 55.609375 10.40625 48.1875 4.484375 
Q 40.765625 -1.421875 27.09375 -1.421875 
Q 22.515625 -1.421875 17.65625 -0.515625 
Q 12.796875 0.390625 7.625 2.203125 
L 7.625 11.71875 
Q 11.71875 9.328125 16.59375 8.109375 
Q 21.484375 6.890625 26.8125 6.890625 
Q 36.078125 6.890625 40.9375 10.546875 
Q 45.796875 14.203125 45.796875 21.1875 
Q 45.796875 27.640625 41.28125 31.265625 
Q 36.765625 34.90625 28.71875 34.90625 
L 20.21875 34.90625 
L 20.21875 43.015625 
L 29.109375 43.015625 
Q 36.375 43.015625 40.234375 45.921875 
Q 44.09375 48.828125 44.09375 54.296875 
Q 44.09375 59.90625 40.109375 62.90625 
Q 36.140625 65.921875 28.71875 65.921875 
Q 24.65625 65.921875 20.015625 65.03125 
Q 15.375 64.15625 9.8125 62.3125 
L 9.8125 71.09375 
Q 15.4375 72.65625 20.34375 73.4375 
Q 25.25 74.21875 29.59375 74.21875 
Q 40.828125 74.21875 47.359375 69.109375 
Q 53.90625 64.015625 53.90625 55.328125 
Q 53.90625 49.265625 50.4375 45.09375 
Q 46.96875 40.921875 40.578125 39.3125 
z
" id="DejaVuSans-51"/>
      <path d="M 10.796875 72.90625 
L 49.515625 72.90625 
L 49.515625 64.59375 
L 19.828125 64.59375 
L 19.828125 46.734375 
Q 21.96875 47.46875 24.109375 47.828125 
Q 26.265625 48.1875 28.421875 48.1875 
Q 40.625 48.1875 47.75 41.5 
Q 54.890625 34.8125 54.890625 23.390625 
Q 54.890625 11.625 47.5625 5.09375 
Q 40.234375 -1.421875 26.90625 -1.421875 
Q 22.3125 -1.421875 17.546875 -0.640625 
Q 12.796875 0.140625 7.71875 1.703125 
L 7.71875 11.625 
Q 12.109375 9.234375 16.796875 8.0625 
Q 21.484375 6.890625 26.703125 6.890625 
Q 35.15625 6.890625 40.078125 11.328125 
Q 45.015625 15.765625 45.015625 23.390625 
Q 45.015625 31 40.078125 35.4375 
Q 35.15625 39.890625 26.703125 39.890625 
Q 22.75 39.890625 18.8125 39.015625 
Q 14.890625 38.140625 10.796875 36.28125 
z
" id="DejaVuSans-53"/>
      <path d="M 8.203125 72.90625 
L 55.078125 72.90625 
L 55.078125 68.703125 
L 28.609375 0 
L 18.3125 0 
L 43.21875 64.59375 
L 8.203125 64.59375 
z
" id="DejaVuSans-55"/>
     </defs>
     <g transform="translate(333.330938 72.748562)scale(0.1 -0.1)">
      <use xlink:href="#DejaVuSans-78"/>
      <use x="74.804688" xlink:href="#DejaVuSans-111"/>
      <use x="135.986328" xlink:href="#DejaVuSans-116"/>
      <use x="175.195312" xlink:href="#DejaVuSans-32"/>
      <use x="206.982422" xlink:href="#DejaVuSans-97"/>
      <use x="268.261719" xlink:href="#DejaVuSans-114"/>
      <use x="307.625" xlink:href="#DejaVuSans-100"/>
      <use x="371.101562" xlink:href="#DejaVuSans-115"/>
      <use x="423.201172" xlink:href="#DejaVuSans-32"/>
      <use x="454.988281" xlink:href="#DejaVuSans-40"/>
      <use x="494.001953" xlink:href="#DejaVuSans-51"/>
      <use x="557.625" xlink:href="#DejaVuSans-53"/>
      <use x="621.248047" xlink:href="#DejaVuSans-55"/>
      <use x="684.871094" xlink:href="#DejaVuSans-41"/>
     </g>
    </g>
   </g>
  </g>
 </g>
 <defs>
  <clipPath id="p4b5f25ae56">
   <rect height="266.112" width="357.12" x="57.6" y="41.472"/>
  </clipPath>
 </defs>
</svg>
