<?xml version="1.0" encoding="utf-8" standalone="no"?>
<!DOCTYPE svg PUBLIC "-//W3C//DTD SVG 1.1//EN"
  "http://www.w3.org/Graphics/SVG/1.1/DTD/svg11.dtd">
<!-- Created with matplotlib (https://matplotlib.org/) -->
<svg height="345.6pt" version="1.1" viewBox="0 0 460.8 345.6" width="460.8pt" xmlns="http://www.w3.org/2000/svg" xmlns:xlink="http://www.w3.org/1999/xlink">
 <defs>
  <style type="text/css">
*{stroke-linecap:butt;stroke-linejoin:round;}
  </style>
 </defs>
 <g id="figure_1">
  <g id="patch_1">
   <path d="M 0 345.6 
L 460.8 345.6 
L 460.8 0 
L 0 0 
z
" style="fill:#ffffff;"/>
  </g>
  <g id="axes_1">
   <g id="patch_2">
    <path d="M 57.6 307.584 
L 414.72 307.584 
L 414.72 41.472 
L 57.6 41.472 
z
" style="fill:#ffffff;"/>
   </g>
   <g id="PolyCollection_1">
    <defs>
     <path d="M 73.832727 -162.926015 
L 73.832727 -179.217985 
L 76.254726 -181.348525 
L 78.676725 -183.898919 
L 81.098723 -186.912919 
L 83.520722 -190.428608 
L 85.942721 -194.475372 
L 88.364719 -199.070703 
L 90.786718 -204.217014 
L 93.208716 -209.898697 
L 95.630715 -216.079665 
L 98.052714 -222.701612 
L 100.474712 -229.683254 
L 102.896711 -236.920716 
L 105.31871 -244.289224 
L 107.740708 -251.646144 
L 110.162707 -258.835323 
L 112.584706 -265.6926 
L 115.006704 -272.052234 
L 117.428703 -277.753913 
L 119.850702 -282.649952 
L 122.2727 -286.612237 
L 124.694699 -289.53847 
L 127.116698 -291.357299 
L 129.538696 -292.032 
L 131.960695 -291.562438 
L 134.382694 -289.985187 
L 136.804692 -287.371788 
L 139.226691 -283.825271 
L 141.648689 -279.475166 
L 144.070688 -274.471331 
L 146.492687 -268.976998 
L 148.914685 -263.161459 
L 151.336684 -257.192823 
L 153.758683 -251.231251 
L 156.180681 -245.423006 
L 158.60268 -239.895582 
L 161.024679 -234.7541 
L 163.446677 -230.079045 
L 165.868676 -225.925343 
L 168.290675 -222.322688 
L 170.712673 -219.276978 
L 173.134672 -216.772662 
L 175.556671 -214.775768 
L 177.978669 -213.237398 
L 180.400668 -212.097447 
L 182.822667 -211.288367 
L 185.244665 -210.738778 
L 187.666664 -210.376817 
L 190.088662 -210.133099 
L 192.510661 -209.943239 
L 194.93266 -209.749891 
L 197.354658 -209.504292 
L 199.776657 -209.167329 
L 202.198656 -208.710122 
L 204.620654 -208.114186 
L 207.042653 -207.37117 
L 209.464652 -206.482245 
L 211.88665 -205.457149 
L 214.308649 -204.312964 
L 216.730648 -203.072659 
L 219.152646 -201.763462 
L 221.574645 -200.415134 
L 223.996644 -199.058204 
L 226.418642 -197.72226 
L 228.840641 -196.434362 
L 231.26264 -195.217655 
L 233.684638 -194.090256 
L 236.106637 -193.064469 
L 238.528635 -192.146359 
L 240.950634 -191.335713 
L 243.372633 -190.626368 
L 245.794631 -190.006892 
L 248.21663 -189.461546 
L 250.638629 -188.971472 
L 253.060627 -188.516022 
L 255.482626 -188.074122 
L 257.904625 -187.625597 
L 260.326623 -187.152367 
L 262.748622 -186.639439 
L 265.170621 -186.075639 
L 267.592619 -185.454069 
L 270.014618 -184.772251 
L 272.436617 -184.031995 
L 274.858615 -183.239006 
L 277.280614 -182.402283 
L 279.702613 -181.533374 
L 282.124611 -180.645532 
L 284.54661 -179.752863 
L 286.968608 -178.869492 
L 289.390607 -178.008832 
L 291.812606 -177.182965 
L 294.234604 -176.402175 
L 296.656603 -175.674638 
L 299.078602 -175.006277 
L 301.5006 -174.400751 
L 303.922599 -173.859576 
L 306.344598 -173.382343 
L 308.766596 -172.966999 
L 311.188595 -172.610175 
L 313.610594 -172.307521 
L 313.610594 -169.836479 
L 313.610594 -169.836479 
L 311.188595 -169.533825 
L 308.766596 -169.177001 
L 306.344598 -168.761657 
L 303.922599 -168.284424 
L 301.5006 -167.743249 
L 299.078602 -167.137723 
L 296.656603 -166.469362 
L 294.234604 -165.741825 
L 291.812606 -164.961035 
L 289.390607 -164.135168 
L 286.968608 -163.274508 
L 284.54661 -162.391137 
L 282.124611 -161.498468 
L 279.702613 -160.610626 
L 277.280614 -159.741717 
L 274.858615 -158.904994 
L 272.436617 -158.112005 
L 270.014618 -157.371749 
L 267.592619 -156.689931 
L 265.170621 -156.068361 
L 262.748622 -155.504561 
L 260.326623 -154.991633 
L 257.904625 -154.518403 
L 255.482626 -154.069878 
L 253.060627 -153.627978 
L 250.638629 -153.172528 
L 248.21663 -152.682454 
L 245.794631 -152.137108 
L 243.372633 -151.517632 
L 240.950634 -150.808287 
L 238.528635 -149.997641 
L 236.106637 -149.079531 
L 233.684638 -148.053744 
L 231.26264 -146.926345 
L 228.840641 -145.709638 
L 226.418642 -144.42174 
L 223.996644 -143.085796 
L 221.574645 -141.728866 
L 219.152646 -140.380538 
L 216.730648 -139.071341 
L 214.308649 -137.831036 
L 211.88665 -136.686851 
L 209.464652 -135.661755 
L 207.042653 -134.77283 
L 204.620654 -134.029814 
L 202.198656 -133.433878 
L 199.776657 -132.976671 
L 197.354658 -132.639708 
L 194.93266 -132.394109 
L 192.510661 -132.200761 
L 190.088662 -132.010901 
L 187.666664 -131.767183 
L 185.244665 -131.405222 
L 182.822667 -130.855633 
L 180.400668 -130.046553 
L 177.978669 -128.906602 
L 175.556671 -127.368232 
L 173.134672 -125.371338 
L 170.712673 -122.867022 
L 168.290675 -119.821312 
L 165.868676 -116.218657 
L 163.446677 -112.064955 
L 161.024679 -107.3899 
L 158.60268 -102.248418 
L 156.180681 -96.720994 
L 153.758683 -90.912749 
L 151.336684 -84.951177 
L 148.914685 -78.982541 
L 146.492687 -73.167002 
L 144.070688 -67.672669 
L 141.648689 -62.668834 
L 139.226691 -58.318729 
L 136.804692 -54.772212 
L 134.382694 -52.158813 
L 131.960695 -50.581562 
L 129.538696 -50.112 
L 127.116698 -50.786701 
L 124.694699 -52.60553 
L 122.2727 -55.531763 
L 119.850702 -59.494048 
L 117.428703 -64.390087 
L 115.006704 -70.091766 
L 112.584706 -76.4514 
L 110.162707 -83.308677 
L 107.740708 -90.497856 
L 105.31871 -97.854776 
L 102.896711 -105.223284 
L 100.474712 -112.460746 
L 98.052714 -119.442388 
L 95.630715 -126.064335 
L 93.208716 -132.245303 
L 90.786718 -137.926986 
L 88.364719 -143.073297 
L 85.942721 -147.668628 
L 83.520722 -151.715392 
L 81.098723 -155.231081 
L 78.676725 -158.245081 
L 76.254726 -160.795475 
L 73.832727 -162.926015 
z
" id="me421b4a044" style="stroke:#4c4c4c;stroke-opacity:0.5;stroke-width:1.5;"/>
    </defs>
    <g clip-path="url(#p9e0d03bbc3)">
     <use style="fill:#df9c20;fill-opacity:0.5;stroke:#4c4c4c;stroke-opacity:0.5;stroke-width:1.5;" x="0" xlink:href="#me421b4a044" y="345.6"/>
    </g>
   </g>
   <g id="PolyCollection_2">
    <defs>
     <path d="M 89.30218 -166.663174 
L 89.30218 -175.480826 
L 92.425261 -178.726872 
L 95.548343 -183.696232 
L 98.671425 -190.852018 
L 101.794507 -200.524701 
L 104.917588 -212.763435 
L 108.04067 -227.198634 
L 111.163752 -242.968483 
L 114.286834 -258.757645 
L 117.409915 -272.968979 
L 120.532997 -284.004528 
L 123.656079 -290.587389 
L 126.779161 -292.032 
L 129.902242 -288.380639 
L 133.025324 -280.366589 
L 136.148406 -269.222074 
L 139.271488 -256.397132 
L 142.394569 -243.275338 
L 145.517651 -230.95937 
L 148.640733 -220.164219 
L 151.763815 -211.216178 
L 154.886896 -204.127136 
L 158.009978 -198.703026 
L 161.13306 -194.650498 
L 164.256142 -191.659655 
L 167.379223 -189.45531 
L 170.502305 -187.819859 
L 173.625387 -186.595901 
L 176.748469 -185.677297 
L 179.87155 -184.995397 
L 182.994632 -184.504634 
L 186.117714 -184.169827 
L 189.240796 -183.956582 
L 192.363877 -183.825883 
L 195.486959 -183.733487 
L 198.610041 -183.633929 
L 201.733123 -183.487616 
L 204.856204 -183.268426 
L 207.979286 -182.968797 
L 211.102368 -182.600017 
L 214.22545 -182.187108 
L 217.348531 -181.759746 
L 220.471613 -181.34234 
L 223.594695 -180.946918 
L 226.717777 -180.571455 
L 229.840858 -180.20412 
L 232.96394 -179.831455 
L 236.087022 -179.446839 
L 239.210104 -179.055511 
L 242.333185 -178.674026 
L 245.456267 -178.324422 
L 248.579349 -178.02563 
L 251.702431 -177.785694 
L 254.825512 -177.597803 
L 257.948594 -177.441511 
L 261.071676 -177.288376 
L 264.194758 -177.109727 
L 267.317839 -176.883773 
L 270.440921 -176.5999 
L 273.564003 -176.25942 
L 276.687085 -175.873437 
L 279.810166 -175.459389 
L 282.933248 -175.037801 
L 286.05633 -174.630049 
L 289.179412 -174.256913 
L 292.302493 -173.937092 
L 295.425575 -173.684933 
L 298.548657 -173.507354 
L 301.671739 -173.400947 
L 304.79482 -173.350779 
L 307.917902 -173.332162 
L 311.040984 -173.315626 
L 314.164066 -173.273934 
L 317.287147 -173.188963 
L 320.410229 -173.056083 
L 323.533311 -172.88451 
L 326.656393 -172.693602 
L 329.779474 -172.50648 
L 332.902556 -172.343262 
L 336.025638 -172.216089 
L 339.14872 -172.127256 
L 342.271801 -172.070544 
L 345.394883 -172.034749 
L 348.517965 -172.007833 
L 351.641047 -171.980236 
L 354.764128 -171.946451 
L 357.88721 -171.904795 
L 361.010292 -171.855975 
L 364.133374 -171.801373 
L 367.256455 -171.741879 
L 370.379537 -171.677642 
L 373.502619 -171.608614 
L 376.6257 -171.535387 
L 379.748782 -171.459777 
L 382.871864 -171.384818 
L 385.994946 -171.31418 
L 389.118027 -171.251299 
L 392.241109 -171.1986 
L 395.364191 -171.15708 
L 398.487273 -171.126341 
L 398.487273 -171.017659 
L 398.487273 -171.017659 
L 395.364191 -170.98692 
L 392.241109 -170.9454 
L 389.118027 -170.892701 
L 385.994946 -170.82982 
L 382.871864 -170.759182 
L 379.748782 -170.684223 
L 376.6257 -170.608613 
L 373.502619 -170.535386 
L 370.379537 -170.466358 
L 367.256455 -170.402121 
L 364.133374 -170.342627 
L 361.010292 -170.288025 
L 357.88721 -170.239205 
L 354.764128 -170.197549 
L 351.641047 -170.163764 
L 348.517965 -170.136167 
L 345.394883 -170.109251 
L 342.271801 -170.073456 
L 339.14872 -170.016744 
L 336.025638 -169.927911 
L 332.902556 -169.800738 
L 329.779474 -169.63752 
L 326.656393 -169.450398 
L 323.533311 -169.25949 
L 320.410229 -169.087917 
L 317.287147 -168.955037 
L 314.164066 -168.870066 
L 311.040984 -168.828374 
L 307.917902 -168.811838 
L 304.79482 -168.793221 
L 301.671739 -168.743053 
L 298.548657 -168.636646 
L 295.425575 -168.459067 
L 292.302493 -168.206908 
L 289.179412 -167.887087 
L 286.05633 -167.513951 
L 282.933248 -167.106199 
L 279.810166 -166.684611 
L 276.687085 -166.270563 
L 273.564003 -165.88458 
L 270.440921 -165.5441 
L 267.317839 -165.260227 
L 264.194758 -165.034273 
L 261.071676 -164.855624 
L 257.948594 -164.702489 
L 254.825512 -164.546197 
L 251.702431 -164.358306 
L 248.579349 -164.11837 
L 245.456267 -163.819578 
L 242.333185 -163.469974 
L 239.210104 -163.088489 
L 236.087022 -162.697161 
L 232.96394 -162.312545 
L 229.840858 -161.93988 
L 226.717777 -161.572545 
L 223.594695 -161.197082 
L 220.471613 -160.80166 
L 217.348531 -160.384254 
L 214.22545 -159.956892 
L 211.102368 -159.543983 
L 207.979286 -159.175203 
L 204.856204 -158.875574 
L 201.733123 -158.656384 
L 198.610041 -158.510071 
L 195.486959 -158.410513 
L 192.363877 -158.318117 
L 189.240796 -158.187418 
L 186.117714 -157.974173 
L 182.994632 -157.639366 
L 179.87155 -157.148603 
L 176.748469 -156.466703 
L 173.625387 -155.548099 
L 170.502305 -154.324141 
L 167.379223 -152.68869 
L 164.256142 -150.484345 
L 161.13306 -147.493502 
L 158.009978 -143.440974 
L 154.886896 -138.016864 
L 151.763815 -130.927822 
L 148.640733 -121.979781 
L 145.517651 -111.18463 
L 142.394569 -98.868662 
L 139.271488 -85.746868 
L 136.148406 -72.921926 
L 133.025324 -61.777411 
L 129.902242 -53.763361 
L 126.779161 -50.112 
L 123.656079 -51.556611 
L 120.532997 -58.139472 
L 117.409915 -69.175021 
L 114.286834 -83.386355 
L 111.163752 -99.175517 
L 108.04067 -114.945366 
L 104.917588 -129.380565 
L 101.794507 -141.619299 
L 98.671425 -151.291982 
L 95.548343 -158.447768 
L 92.425261 -163.417128 
L 89.30218 -166.663174 
z
" id="md2c0fb61b8" style="stroke:#262626;stroke-opacity:0.5;stroke-width:1.5;"/>
    </defs>
    <g clip-path="url(#p9e0d03bbc3)">
     <use style="fill:#107010;fill-opacity:0.5;stroke:#262626;stroke-opacity:0.5;stroke-width:1.5;" x="0" xlink:href="#md2c0fb61b8" y="345.6"/>
    </g>
   </g>
   <g id="matplotlib.axis_1">
    <g id="xtick_1">
     <g id="line2d_1">
      <defs>
       <path d="M 0 0 
L 0 3.5 
" id="m347ce9413f" style="stroke:#000000;stroke-width:0.8;"/>
      </defs>
      <g>
       <use style="stroke:#000000;stroke-width:0.8;" x="111.005611" xlink:href="#m347ce9413f" y="307.584"/>
      </g>
     </g>
     <g id="text_1">
      <!-- 0 -->
      <defs>
       <path d="M 31.78125 66.40625 
Q 24.171875 66.40625 20.328125 58.90625 
Q 16.5 51.421875 16.5 36.375 
Q 16.5 21.390625 20.328125 13.890625 
Q 24.171875 6.390625 31.78125 6.390625 
Q 39.453125 6.390625 43.28125 13.890625 
Q 47.125 21.390625 47.125 36.375 
Q 47.125 51.421875 43.28125 58.90625 
Q 39.453125 66.40625 31.78125 66.40625 
z
M 31.78125 74.21875 
Q 44.046875 74.21875 50.515625 64.515625 
Q 56.984375 54.828125 56.984375 36.375 
Q 56.984375 17.96875 50.515625 8.265625 
Q 44.046875 -1.421875 31.78125 -1.421875 
Q 19.53125 -1.421875 13.0625 8.265625 
Q 6.59375 17.96875 6.59375 36.375 
Q 6.59375 54.828125 13.0625 64.515625 
Q 19.53125 74.21875 31.78125 74.21875 
z
" id="DejaVuSans-48"/>
      </defs>
      <g transform="translate(107.824361 322.182437)scale(0.1 -0.1)">
       <use xlink:href="#DejaVuSans-48"/>
      </g>
     </g>
    </g>
    <g id="xtick_2">
     <g id="line2d_2">
      <g>
       <use style="stroke:#000000;stroke-width:0.8;" x="174.19587" xlink:href="#m347ce9413f" y="307.584"/>
      </g>
     </g>
     <g id="text_2">
      <!-- 5 -->
      <defs>
       <path d="M 10.796875 72.90625 
L 49.515625 72.90625 
L 49.515625 64.59375 
L 19.828125 64.59375 
L 19.828125 46.734375 
Q 21.96875 47.46875 24.109375 47.828125 
Q 26.265625 48.1875 28.421875 48.1875 
Q 40.625 48.1875 47.75 41.5 
Q 54.890625 34.8125 54.890625 23.390625 
Q 54.890625 11.625 47.5625 5.09375 
Q 40.234375 -1.421875 26.90625 -1.421875 
Q 22.3125 -1.421875 17.546875 -0.640625 
Q 12.796875 0.140625 7.71875 1.703125 
L 7.71875 11.625 
Q 12.109375 9.234375 16.796875 8.0625 
Q 21.484375 6.890625 26.703125 6.890625 
Q 35.15625 6.890625 40.078125 11.328125 
Q 45.015625 15.765625 45.015625 23.390625 
Q 45.015625 31 40.078125 35.4375 
Q 35.15625 39.890625 26.703125 39.890625 
Q 22.75 39.890625 18.8125 39.015625 
Q 14.890625 38.140625 10.796875 36.28125 
z
" id="DejaVuSans-53"/>
      </defs>
      <g transform="translate(171.01462 322.182437)scale(0.1 -0.1)">
       <use xlink:href="#DejaVuSans-53"/>
      </g>
     </g>
    </g>
    <g id="xtick_3">
     <g id="line2d_3">
      <g>
       <use style="stroke:#000000;stroke-width:0.8;" x="237.38613" xlink:href="#m347ce9413f" y="307.584"/>
      </g>
     </g>
     <g id="text_3">
      <!-- 10 -->
      <defs>
       <path d="M 12.40625 8.296875 
L 28.515625 8.296875 
L 28.515625 63.921875 
L 10.984375 60.40625 
L 10.984375 69.390625 
L 28.421875 72.90625 
L 38.28125 72.90625 
L 38.28125 8.296875 
L 54.390625 8.296875 
L 54.390625 0 
L 12.40625 0 
z
" id="DejaVuSans-49"/>
      </defs>
      <g transform="translate(231.02363 322.182437)scale(0.1 -0.1)">
       <use xlink:href="#DejaVuSans-49"/>
       <use x="63.623047" xlink:href="#DejaVuSans-48"/>
      </g>
     </g>
    </g>
    <g id="xtick_4">
     <g id="line2d_4">
      <g>
       <use style="stroke:#000000;stroke-width:0.8;" x="300.576389" xlink:href="#m347ce9413f" y="307.584"/>
      </g>
     </g>
     <g id="text_4">
      <!-- 15 -->
      <g transform="translate(294.213889 322.182437)scale(0.1 -0.1)">
       <use xlink:href="#DejaVuSans-49"/>
       <use x="63.623047" xlink:href="#DejaVuSans-53"/>
      </g>
     </g>
    </g>
    <g id="xtick_5">
     <g id="line2d_5">
      <g>
       <use style="stroke:#000000;stroke-width:0.8;" x="363.766648" xlink:href="#m347ce9413f" y="307.584"/>
      </g>
     </g>
     <g id="text_5">
      <!-- 20 -->
      <defs>
       <path d="M 19.1875 8.296875 
L 53.609375 8.296875 
L 53.609375 0 
L 7.328125 0 
L 7.328125 8.296875 
Q 12.9375 14.109375 22.625 23.890625 
Q 32.328125 33.6875 34.8125 36.53125 
Q 39.546875 41.84375 41.421875 45.53125 
Q 43.3125 49.21875 43.3125 52.78125 
Q 43.3125 58.59375 39.234375 62.25 
Q 35.15625 65.921875 28.609375 65.921875 
Q 23.96875 65.921875 18.8125 64.3125 
Q 13.671875 62.703125 7.8125 59.421875 
L 7.8125 69.390625 
Q 13.765625 71.78125 18.9375 73 
Q 24.125 74.21875 28.421875 74.21875 
Q 39.75 74.21875 46.484375 68.546875 
Q 53.21875 62.890625 53.21875 53.421875 
Q 53.21875 48.921875 51.53125 44.890625 
Q 49.859375 40.875 45.40625 35.40625 
Q 44.1875 33.984375 37.640625 27.21875 
Q 31.109375 20.453125 19.1875 8.296875 
z
" id="DejaVuSans-50"/>
      </defs>
      <g transform="translate(357.404148 322.182437)scale(0.1 -0.1)">
       <use xlink:href="#DejaVuSans-50"/>
       <use x="63.623047" xlink:href="#DejaVuSans-48"/>
      </g>
     </g>
    </g>
    <g id="text_6">
     <!-- crpeakac -->
     <defs>
      <path d="M 48.78125 52.59375 
L 48.78125 44.1875 
Q 44.96875 46.296875 41.140625 47.34375 
Q 37.3125 48.390625 33.40625 48.390625 
Q 24.65625 48.390625 19.8125 42.84375 
Q 14.984375 37.3125 14.984375 27.296875 
Q 14.984375 17.28125 19.8125 11.734375 
Q 24.65625 6.203125 33.40625 6.203125 
Q 37.3125 6.203125 41.140625 7.25 
Q 44.96875 8.296875 48.78125 10.40625 
L 48.78125 2.09375 
Q 45.015625 0.34375 40.984375 -0.53125 
Q 36.96875 -1.421875 32.421875 -1.421875 
Q 20.0625 -1.421875 12.78125 6.34375 
Q 5.515625 14.109375 5.515625 27.296875 
Q 5.515625 40.671875 12.859375 48.328125 
Q 20.21875 56 33.015625 56 
Q 37.15625 56 41.109375 55.140625 
Q 45.0625 54.296875 48.78125 52.59375 
z
" id="DejaVuSans-99"/>
      <path d="M 41.109375 46.296875 
Q 39.59375 47.171875 37.8125 47.578125 
Q 36.03125 48 33.890625 48 
Q 26.265625 48 22.1875 43.046875 
Q 18.109375 38.09375 18.109375 28.8125 
L 18.109375 0 
L 9.078125 0 
L 9.078125 54.6875 
L 18.109375 54.6875 
L 18.109375 46.1875 
Q 20.953125 51.171875 25.484375 53.578125 
Q 30.03125 56 36.53125 56 
Q 37.453125 56 38.578125 55.875 
Q 39.703125 55.765625 41.0625 55.515625 
z
" id="DejaVuSans-114"/>
      <path d="M 18.109375 8.203125 
L 18.109375 -20.796875 
L 9.078125 -20.796875 
L 9.078125 54.6875 
L 18.109375 54.6875 
L 18.109375 46.390625 
Q 20.953125 51.265625 25.265625 53.625 
Q 29.59375 56 35.59375 56 
Q 45.5625 56 51.78125 48.09375 
Q 58.015625 40.1875 58.015625 27.296875 
Q 58.015625 14.40625 51.78125 6.484375 
Q 45.5625 -1.421875 35.59375 -1.421875 
Q 29.59375 -1.421875 25.265625 0.953125 
Q 20.953125 3.328125 18.109375 8.203125 
z
M 48.6875 27.296875 
Q 48.6875 37.203125 44.609375 42.84375 
Q 40.53125 48.484375 33.40625 48.484375 
Q 26.265625 48.484375 22.1875 42.84375 
Q 18.109375 37.203125 18.109375 27.296875 
Q 18.109375 17.390625 22.1875 11.75 
Q 26.265625 6.109375 33.40625 6.109375 
Q 40.53125 6.109375 44.609375 11.75 
Q 48.6875 17.390625 48.6875 27.296875 
z
" id="DejaVuSans-112"/>
      <path d="M 56.203125 29.59375 
L 56.203125 25.203125 
L 14.890625 25.203125 
Q 15.484375 15.921875 20.484375 11.0625 
Q 25.484375 6.203125 34.421875 6.203125 
Q 39.59375 6.203125 44.453125 7.46875 
Q 49.3125 8.734375 54.109375 11.28125 
L 54.109375 2.78125 
Q 49.265625 0.734375 44.1875 -0.34375 
Q 39.109375 -1.421875 33.890625 -1.421875 
Q 20.796875 -1.421875 13.15625 6.1875 
Q 5.515625 13.8125 5.515625 26.8125 
Q 5.515625 40.234375 12.765625 48.109375 
Q 20.015625 56 32.328125 56 
Q 43.359375 56 49.78125 48.890625 
Q 56.203125 41.796875 56.203125 29.59375 
z
M 47.21875 32.234375 
Q 47.125 39.59375 43.09375 43.984375 
Q 39.0625 48.390625 32.421875 48.390625 
Q 24.90625 48.390625 20.390625 44.140625 
Q 15.875 39.890625 15.1875 32.171875 
z
" id="DejaVuSans-101"/>
      <path d="M 34.28125 27.484375 
Q 23.390625 27.484375 19.1875 25 
Q 14.984375 22.515625 14.984375 16.5 
Q 14.984375 11.71875 18.140625 8.90625 
Q 21.296875 6.109375 26.703125 6.109375 
Q 34.1875 6.109375 38.703125 11.40625 
Q 43.21875 16.703125 43.21875 25.484375 
L 43.21875 27.484375 
z
M 52.203125 31.203125 
L 52.203125 0 
L 43.21875 0 
L 43.21875 8.296875 
Q 40.140625 3.328125 35.546875 0.953125 
Q 30.953125 -1.421875 24.3125 -1.421875 
Q 15.921875 -1.421875 10.953125 3.296875 
Q 6 8.015625 6 15.921875 
Q 6 25.140625 12.171875 29.828125 
Q 18.359375 34.515625 30.609375 34.515625 
L 43.21875 34.515625 
L 43.21875 35.40625 
Q 43.21875 41.609375 39.140625 45 
Q 35.0625 48.390625 27.6875 48.390625 
Q 23 48.390625 18.546875 47.265625 
Q 14.109375 46.140625 10.015625 43.890625 
L 10.015625 52.203125 
Q 14.9375 54.109375 19.578125 55.046875 
Q 24.21875 56 28.609375 56 
Q 40.484375 56 46.34375 49.84375 
Q 52.203125 43.703125 52.203125 31.203125 
z
" id="DejaVuSans-97"/>
      <path d="M 9.078125 75.984375 
L 18.109375 75.984375 
L 18.109375 31.109375 
L 44.921875 54.6875 
L 56.390625 54.6875 
L 27.390625 29.109375 
L 57.625 0 
L 45.90625 0 
L 18.109375 26.703125 
L 18.109375 0 
L 9.078125 0 
z
" id="DejaVuSans-107"/>
     </defs>
     <g transform="translate(213.419375 335.860562)scale(0.1 -0.1)">
      <use xlink:href="#DejaVuSans-99"/>
      <use x="54.980469" xlink:href="#DejaVuSans-114"/>
      <use x="96.09375" xlink:href="#DejaVuSans-112"/>
      <use x="159.570312" xlink:href="#DejaVuSans-101"/>
      <use x="221.09375" xlink:href="#DejaVuSans-97"/>
      <use x="282.373047" xlink:href="#DejaVuSans-107"/>
      <use x="338.533203" xlink:href="#DejaVuSans-97"/>
      <use x="399.8125" xlink:href="#DejaVuSans-99"/>
     </g>
    </g>
   </g>
   <g id="matplotlib.axis_2">
    <g id="ytick_1">
     <g id="line2d_6">
      <defs>
       <path d="M 0 0 
L -3.5 0 
" id="m02411c7ad0" style="stroke:#000000;stroke-width:0.8;"/>
      </defs>
      <g>
       <use style="stroke:#000000;stroke-width:0.8;" x="57.6" xlink:href="#m02411c7ad0" y="174.528"/>
      </g>
     </g>
    </g>
   </g>
   <g id="line2d_7">
    <path clip-path="url(#p9e0d03bbc3)" d="M 119.725867 174.528 
L 267.717454 174.528 
" style="fill:none;stroke:#ffa500;stroke-linecap:square;stroke-width:1.5;"/>
   </g>
   <g id="line2d_8">
    <path clip-path="url(#p9e0d03bbc3)" d="M 125.191824 174.528 
L 184.401097 174.528 
" style="fill:none;stroke:#4c4c4c;stroke-linecap:square;stroke-width:4.5;"/>
   </g>
   <g id="line2d_9">
    <path clip-path="url(#p9e0d03bbc3)" d="M 116.060832 174.528 
L 197.070744 174.528 
" style="fill:none;stroke:#008000;stroke-linecap:square;stroke-width:1.5;"/>
   </g>
   <g id="line2d_10">
    <path clip-path="url(#p9e0d03bbc3)" d="M 123.138141 174.528 
L 152.711182 174.528 
" style="fill:none;stroke:#262626;stroke-linecap:square;stroke-width:4.5;"/>
   </g>
   <g id="patch_3">
    <path d="M 57.6 307.584 
L 57.6 41.472 
" style="fill:none;stroke:#000000;stroke-linecap:square;stroke-linejoin:miter;stroke-width:0.8;"/>
   </g>
   <g id="patch_4">
    <path d="M 414.72 307.584 
L 414.72 41.472 
" style="fill:none;stroke:#000000;stroke-linecap:square;stroke-linejoin:miter;stroke-width:0.8;"/>
   </g>
   <g id="patch_5">
    <path d="M 57.6 307.584 
L 414.72 307.584 
" style="fill:none;stroke:#000000;stroke-linecap:square;stroke-linejoin:miter;stroke-width:0.8;"/>
   </g>
   <g id="patch_6">
    <path d="M 57.6 41.472 
L 414.72 41.472 
" style="fill:none;stroke:#000000;stroke-linecap:square;stroke-linejoin:miter;stroke-width:0.8;"/>
   </g>
   <g id="PathCollection_1">
    <defs>
     <path d="M 0 1.5 
C 0.397805 1.5 0.77937 1.341951 1.06066 1.06066 
C 1.341951 0.77937 1.5 0.397805 1.5 0 
C 1.5 -0.397805 1.341951 -0.77937 1.06066 -1.06066 
C 0.77937 -1.341951 0.397805 -1.5 0 -1.5 
C -0.397805 -1.5 -0.77937 -1.341951 -1.06066 -1.06066 
C -1.341951 -0.77937 -1.5 -0.397805 -1.5 0 
C -1.5 0.397805 -1.341951 0.77937 -1.06066 1.06066 
C -0.77937 1.341951 -0.397805 1.5 0 1.5 
z
" id="mbb093207f4" style="stroke:#4c4c4c;stroke-opacity:0.5;"/>
    </defs>
    <g clip-path="url(#p9e0d03bbc3)">
     <use style="fill:#ffffff;fill-opacity:0.5;stroke:#4c4c4c;stroke-opacity:0.5;" x="133.374963" xlink:href="#mbb093207f4" y="174.528"/>
    </g>
   </g>
   <g id="PathCollection_2">
    <defs>
     <path d="M 0 1.5 
C 0.397805 1.5 0.77937 1.341951 1.06066 1.06066 
C 1.341951 0.77937 1.5 0.397805 1.5 0 
C 1.5 -0.397805 1.341951 -0.77937 1.06066 -1.06066 
C 0.77937 -1.341951 0.397805 -1.5 0 -1.5 
C -0.397805 -1.5 -0.77937 -1.341951 -1.06066 -1.06066 
C -1.341951 -0.77937 -1.5 -0.397805 -1.5 0 
C -1.5 0.397805 -1.341951 0.77937 -1.06066 1.06066 
C -0.77937 1.341951 -0.397805 1.5 0 1.5 
z
" id="m0fb10e8aeb" style="stroke:#262626;stroke-opacity:0.5;"/>
    </defs>
    <g clip-path="url(#p9e0d03bbc3)">
     <use style="fill:#ffffff;fill-opacity:0.5;stroke:#262626;stroke-opacity:0.5;" x="127.435079" xlink:href="#m0fb10e8aeb" y="174.528"/>
    </g>
   </g>
   <g id="text_7">
    <!-- Association of crpeakac vs. cpap_bpap -->
    <defs>
     <path d="M 34.1875 63.1875 
L 20.796875 26.90625 
L 47.609375 26.90625 
z
M 28.609375 72.90625 
L 39.796875 72.90625 
L 67.578125 0 
L 57.328125 0 
L 50.6875 18.703125 
L 17.828125 18.703125 
L 11.1875 0 
L 0.78125 0 
z
" id="DejaVuSans-65"/>
     <path d="M 44.28125 53.078125 
L 44.28125 44.578125 
Q 40.484375 46.53125 36.375 47.5 
Q 32.28125 48.484375 27.875 48.484375 
Q 21.1875 48.484375 17.84375 46.4375 
Q 14.5 44.390625 14.5 40.28125 
Q 14.5 37.15625 16.890625 35.375 
Q 19.28125 33.59375 26.515625 31.984375 
L 29.59375 31.296875 
Q 39.15625 29.25 43.1875 25.515625 
Q 47.21875 21.78125 47.21875 15.09375 
Q 47.21875 7.46875 41.1875 3.015625 
Q 35.15625 -1.421875 24.609375 -1.421875 
Q 20.21875 -1.421875 15.453125 -0.5625 
Q 10.6875 0.296875 5.421875 2 
L 5.421875 11.28125 
Q 10.40625 8.6875 15.234375 7.390625 
Q 20.0625 6.109375 24.8125 6.109375 
Q 31.15625 6.109375 34.5625 8.28125 
Q 37.984375 10.453125 37.984375 14.40625 
Q 37.984375 18.0625 35.515625 20.015625 
Q 33.0625 21.96875 24.703125 23.78125 
L 21.578125 24.515625 
Q 13.234375 26.265625 9.515625 29.90625 
Q 5.8125 33.546875 5.8125 39.890625 
Q 5.8125 47.609375 11.28125 51.796875 
Q 16.75 56 26.8125 56 
Q 31.78125 56 36.171875 55.265625 
Q 40.578125 54.546875 44.28125 53.078125 
z
" id="DejaVuSans-115"/>
     <path d="M 30.609375 48.390625 
Q 23.390625 48.390625 19.1875 42.75 
Q 14.984375 37.109375 14.984375 27.296875 
Q 14.984375 17.484375 19.15625 11.84375 
Q 23.34375 6.203125 30.609375 6.203125 
Q 37.796875 6.203125 41.984375 11.859375 
Q 46.1875 17.53125 46.1875 27.296875 
Q 46.1875 37.015625 41.984375 42.703125 
Q 37.796875 48.390625 30.609375 48.390625 
z
M 30.609375 56 
Q 42.328125 56 49.015625 48.375 
Q 55.71875 40.765625 55.71875 27.296875 
Q 55.71875 13.875 49.015625 6.21875 
Q 42.328125 -1.421875 30.609375 -1.421875 
Q 18.84375 -1.421875 12.171875 6.21875 
Q 5.515625 13.875 5.515625 27.296875 
Q 5.515625 40.765625 12.171875 48.375 
Q 18.84375 56 30.609375 56 
z
" id="DejaVuSans-111"/>
     <path d="M 9.421875 54.6875 
L 18.40625 54.6875 
L 18.40625 0 
L 9.421875 0 
z
M 9.421875 75.984375 
L 18.40625 75.984375 
L 18.40625 64.59375 
L 9.421875 64.59375 
z
" id="DejaVuSans-105"/>
     <path d="M 18.3125 70.21875 
L 18.3125 54.6875 
L 36.8125 54.6875 
L 36.8125 47.703125 
L 18.3125 47.703125 
L 18.3125 18.015625 
Q 18.3125 11.328125 20.140625 9.421875 
Q 21.96875 7.515625 27.59375 7.515625 
L 36.8125 7.515625 
L 36.8125 0 
L 27.59375 0 
Q 17.1875 0 13.234375 3.875 
Q 9.28125 7.765625 9.28125 18.015625 
L 9.28125 47.703125 
L 2.6875 47.703125 
L 2.6875 54.6875 
L 9.28125 54.6875 
L 9.28125 70.21875 
z
" id="DejaVuSans-116"/>
     <path d="M 54.890625 33.015625 
L 54.890625 0 
L 45.90625 0 
L 45.90625 32.71875 
Q 45.90625 40.484375 42.875 44.328125 
Q 39.84375 48.1875 33.796875 48.1875 
Q 26.515625 48.1875 22.3125 43.546875 
Q 18.109375 38.921875 18.109375 30.90625 
L 18.109375 0 
L 9.078125 0 
L 9.078125 54.6875 
L 18.109375 54.6875 
L 18.109375 46.1875 
Q 21.34375 51.125 25.703125 53.5625 
Q 30.078125 56 35.796875 56 
Q 45.21875 56 50.046875 50.171875 
Q 54.890625 44.34375 54.890625 33.015625 
z
" id="DejaVuSans-110"/>
     <path id="DejaVuSans-32"/>
     <path d="M 37.109375 75.984375 
L 37.109375 68.5 
L 28.515625 68.5 
Q 23.6875 68.5 21.796875 66.546875 
Q 19.921875 64.59375 19.921875 59.515625 
L 19.921875 54.6875 
L 34.71875 54.6875 
L 34.71875 47.703125 
L 19.921875 47.703125 
L 19.921875 0 
L 10.890625 0 
L 10.890625 47.703125 
L 2.296875 47.703125 
L 2.296875 54.6875 
L 10.890625 54.6875 
L 10.890625 58.5 
Q 10.890625 67.625 15.140625 71.796875 
Q 19.390625 75.984375 28.609375 75.984375 
z
" id="DejaVuSans-102"/>
     <path d="M 2.984375 54.6875 
L 12.5 54.6875 
L 29.59375 8.796875 
L 46.6875 54.6875 
L 56.203125 54.6875 
L 35.6875 0 
L 23.484375 0 
z
" id="DejaVuSans-118"/>
     <path d="M 10.6875 12.40625 
L 21 12.40625 
L 21 0 
L 10.6875 0 
z
" id="DejaVuSans-46"/>
     <path d="M 50.984375 -16.609375 
L 50.984375 -23.578125 
L -0.984375 -23.578125 
L -0.984375 -16.609375 
z
" id="DejaVuSans-95"/>
     <path d="M 48.6875 27.296875 
Q 48.6875 37.203125 44.609375 42.84375 
Q 40.53125 48.484375 33.40625 48.484375 
Q 26.265625 48.484375 22.1875 42.84375 
Q 18.109375 37.203125 18.109375 27.296875 
Q 18.109375 17.390625 22.1875 11.75 
Q 26.265625 6.109375 33.40625 6.109375 
Q 40.53125 6.109375 44.609375 11.75 
Q 48.6875 17.390625 48.6875 27.296875 
z
M 18.109375 46.390625 
Q 20.953125 51.265625 25.265625 53.625 
Q 29.59375 56 35.59375 56 
Q 45.5625 56 51.78125 48.09375 
Q 58.015625 40.1875 58.015625 27.296875 
Q 58.015625 14.40625 51.78125 6.484375 
Q 45.5625 -1.421875 35.59375 -1.421875 
Q 29.59375 -1.421875 25.265625 0.953125 
Q 20.953125 3.328125 18.109375 8.203125 
L 18.109375 0 
L 9.078125 0 
L 9.078125 75.984375 
L 18.109375 75.984375 
z
" id="DejaVuSans-98"/>
    </defs>
    <g transform="translate(120.015938 35.472)scale(0.12 -0.12)">
     <use xlink:href="#DejaVuSans-65"/>
     <use x="68.408203" xlink:href="#DejaVuSans-115"/>
     <use x="120.507812" xlink:href="#DejaVuSans-115"/>
     <use x="172.607422" xlink:href="#DejaVuSans-111"/>
     <use x="233.789062" xlink:href="#DejaVuSans-99"/>
     <use x="288.769531" xlink:href="#DejaVuSans-105"/>
     <use x="316.552734" xlink:href="#DejaVuSans-97"/>
     <use x="377.832031" xlink:href="#DejaVuSans-116"/>
     <use x="417.041016" xlink:href="#DejaVuSans-105"/>
     <use x="444.824219" xlink:href="#DejaVuSans-111"/>
     <use x="506.005859" xlink:href="#DejaVuSans-110"/>
     <use x="569.384766" xlink:href="#DejaVuSans-32"/>
     <use x="601.171875" xlink:href="#DejaVuSans-111"/>
     <use x="662.353516" xlink:href="#DejaVuSans-102"/>
     <use x="697.558594" xlink:href="#DejaVuSans-32"/>
     <use x="729.345703" xlink:href="#DejaVuSans-99"/>
     <use x="784.326172" xlink:href="#DejaVuSans-114"/>
     <use x="825.439453" xlink:href="#DejaVuSans-112"/>
     <use x="888.916016" xlink:href="#DejaVuSans-101"/>
     <use x="950.439453" xlink:href="#DejaVuSans-97"/>
     <use x="1011.71875" xlink:href="#DejaVuSans-107"/>
     <use x="1067.878906" xlink:href="#DejaVuSans-97"/>
     <use x="1129.158203" xlink:href="#DejaVuSans-99"/>
     <use x="1184.138672" xlink:href="#DejaVuSans-32"/>
     <use x="1215.925781" xlink:href="#DejaVuSans-118"/>
     <use x="1275.105469" xlink:href="#DejaVuSans-115"/>
     <use x="1327.205078" xlink:href="#DejaVuSans-46"/>
     <use x="1358.992188" xlink:href="#DejaVuSans-32"/>
     <use x="1390.779297" xlink:href="#DejaVuSans-99"/>
     <use x="1445.759766" xlink:href="#DejaVuSans-112"/>
     <use x="1509.236328" xlink:href="#DejaVuSans-97"/>
     <use x="1570.515625" xlink:href="#DejaVuSans-112"/>
     <use x="1633.992188" xlink:href="#DejaVuSans-95"/>
     <use x="1683.992188" xlink:href="#DejaVuSans-98"/>
     <use x="1747.46875" xlink:href="#DejaVuSans-112"/>
     <use x="1810.945312" xlink:href="#DejaVuSans-97"/>
     <use x="1872.224609" xlink:href="#DejaVuSans-112"/>
    </g>
   </g>
   <g id="legend_1">
    <g id="patch_7">
     <path d="M 270.455938 79.3845 
L 407.72 79.3845 
Q 409.72 79.3845 409.72 77.3845 
L 409.72 48.472 
Q 409.72 46.472 407.72 46.472 
L 270.455938 46.472 
Q 268.455938 46.472 268.455938 48.472 
L 268.455938 77.3845 
Q 268.455938 79.3845 270.455938 79.3845 
z
" style="fill:#ffffff;opacity:0.8;stroke:#cccccc;stroke-linejoin:miter;"/>
    </g>
    <g id="line2d_11">
     <path d="M 272.455938 54.570438 
L 292.455938 54.570438 
" style="fill:none;stroke:#ffa500;stroke-linecap:square;stroke-width:1.5;"/>
    </g>
    <g id="line2d_12"/>
    <g id="text_8">
     <!-- cpap_bpap (26) -->
     <defs>
      <path d="M 31 75.875 
Q 24.46875 64.65625 21.28125 53.65625 
Q 18.109375 42.671875 18.109375 31.390625 
Q 18.109375 20.125 21.3125 9.0625 
Q 24.515625 -2 31 -13.1875 
L 23.1875 -13.1875 
Q 15.875 -1.703125 12.234375 9.375 
Q 8.59375 20.453125 8.59375 31.390625 
Q 8.59375 42.28125 12.203125 53.3125 
Q 15.828125 64.359375 23.1875 75.875 
z
" id="DejaVuSans-40"/>
      <path d="M 33.015625 40.375 
Q 26.375 40.375 22.484375 35.828125 
Q 18.609375 31.296875 18.609375 23.390625 
Q 18.609375 15.53125 22.484375 10.953125 
Q 26.375 6.390625 33.015625 6.390625 
Q 39.65625 6.390625 43.53125 10.953125 
Q 47.40625 15.53125 47.40625 23.390625 
Q 47.40625 31.296875 43.53125 35.828125 
Q 39.65625 40.375 33.015625 40.375 
z
M 52.59375 71.296875 
L 52.59375 62.3125 
Q 48.875 64.0625 45.09375 64.984375 
Q 41.3125 65.921875 37.59375 65.921875 
Q 27.828125 65.921875 22.671875 59.328125 
Q 17.53125 52.734375 16.796875 39.40625 
Q 19.671875 43.65625 24.015625 45.921875 
Q 28.375 48.1875 33.59375 48.1875 
Q 44.578125 48.1875 50.953125 41.515625 
Q 57.328125 34.859375 57.328125 23.390625 
Q 57.328125 12.15625 50.6875 5.359375 
Q 44.046875 -1.421875 33.015625 -1.421875 
Q 20.359375 -1.421875 13.671875 8.265625 
Q 6.984375 17.96875 6.984375 36.375 
Q 6.984375 53.65625 15.1875 63.9375 
Q 23.390625 74.21875 37.203125 74.21875 
Q 40.921875 74.21875 44.703125 73.484375 
Q 48.484375 72.75 52.59375 71.296875 
z
" id="DejaVuSans-54"/>
      <path d="M 8.015625 75.875 
L 15.828125 75.875 
Q 23.140625 64.359375 26.78125 53.3125 
Q 30.421875 42.28125 30.421875 31.390625 
Q 30.421875 20.453125 26.78125 9.375 
Q 23.140625 -1.703125 15.828125 -13.1875 
L 8.015625 -13.1875 
Q 14.5 -2 17.703125 9.0625 
Q 20.90625 20.125 20.90625 31.390625 
Q 20.90625 42.671875 17.703125 53.65625 
Q 14.5 64.65625 8.015625 75.875 
z
" id="DejaVuSans-41"/>
     </defs>
     <g transform="translate(300.455938 58.070438)scale(0.1 -0.1)">
      <use xlink:href="#DejaVuSans-99"/>
      <use x="54.980469" xlink:href="#DejaVuSans-112"/>
      <use x="118.457031" xlink:href="#DejaVuSans-97"/>
      <use x="179.736328" xlink:href="#DejaVuSans-112"/>
      <use x="243.212891" xlink:href="#DejaVuSans-95"/>
      <use x="293.212891" xlink:href="#DejaVuSans-98"/>
      <use x="356.689453" xlink:href="#DejaVuSans-112"/>
      <use x="420.166016" xlink:href="#DejaVuSans-97"/>
      <use x="481.445312" xlink:href="#DejaVuSans-112"/>
      <use x="544.921875" xlink:href="#DejaVuSans-32"/>
      <use x="576.708984" xlink:href="#DejaVuSans-40"/>
      <use x="615.722656" xlink:href="#DejaVuSans-50"/>
      <use x="679.345703" xlink:href="#DejaVuSans-54"/>
      <use x="742.96875" xlink:href="#DejaVuSans-41"/>
     </g>
    </g>
    <g id="line2d_13">
     <path d="M 272.455938 69.526688 
L 292.455938 69.526688 
" style="fill:none;stroke:#008000;stroke-linecap:square;stroke-width:1.5;"/>
    </g>
    <g id="line2d_14"/>
    <g id="text_9">
     <!-- Not cpap_bpap (462) -->
     <defs>
      <path d="M 9.8125 72.90625 
L 23.09375 72.90625 
L 55.421875 11.921875 
L 55.421875 72.90625 
L 64.984375 72.90625 
L 64.984375 0 
L 51.703125 0 
L 19.390625 60.984375 
L 19.390625 0 
L 9.8125 0 
z
" id="DejaVuSans-78"/>
      <path d="M 37.796875 64.3125 
L 12.890625 25.390625 
L 37.796875 25.390625 
z
M 35.203125 72.90625 
L 47.609375 72.90625 
L 47.609375 25.390625 
L 58.015625 25.390625 
L 58.015625 17.1875 
L 47.609375 17.1875 
L 47.609375 0 
L 37.796875 0 
L 37.796875 17.1875 
L 4.890625 17.1875 
L 4.890625 26.703125 
z
" id="DejaVuSans-52"/>
     </defs>
     <g transform="translate(300.455938 73.026688)scale(0.1 -0.1)">
      <use xlink:href="#DejaVuSans-78"/>
      <use x="74.804688" xlink:href="#DejaVuSans-111"/>
      <use x="135.986328" xlink:href="#DejaVuSans-116"/>
      <use x="175.195312" xlink:href="#DejaVuSans-32"/>
      <use x="206.982422" xlink:href="#DejaVuSans-99"/>
      <use x="261.962891" xlink:href="#DejaVuSans-112"/>
      <use x="325.439453" xlink:href="#DejaVuSans-97"/>
      <use x="386.71875" xlink:href="#DejaVuSans-112"/>
      <use x="450.195312" xlink:href="#DejaVuSans-95"/>
      <use x="500.195312" xlink:href="#DejaVuSans-98"/>
      <use x="563.671875" xlink:href="#DejaVuSans-112"/>
      <use x="627.148438" xlink:href="#DejaVuSans-97"/>
      <use x="688.427734" xlink:href="#DejaVuSans-112"/>
      <use x="751.904297" xlink:href="#DejaVuSans-32"/>
      <use x="783.691406" xlink:href="#DejaVuSans-40"/>
      <use x="822.705078" xlink:href="#DejaVuSans-52"/>
      <use x="886.328125" xlink:href="#DejaVuSans-54"/>
      <use x="949.951172" xlink:href="#DejaVuSans-50"/>
      <use x="1013.574219" xlink:href="#DejaVuSans-41"/>
     </g>
    </g>
   </g>
  </g>
 </g>
 <defs>
  <clipPath id="p9e0d03bbc3">
   <rect height="266.112" width="357.12" x="57.6" y="41.472"/>
  </clipPath>
 </defs>
</svg>
