<?xml version="1.0" encoding="utf-8" standalone="no"?>
<!DOCTYPE svg PUBLIC "-//W3C//DTD SVG 1.1//EN"
  "http://www.w3.org/Graphics/SVG/1.1/DTD/svg11.dtd">
<!-- Created with matplotlib (https://matplotlib.org/) -->
<svg height="345.6pt" version="1.1" viewBox="0 0 460.8 345.6" width="460.8pt" xmlns="http://www.w3.org/2000/svg" xmlns:xlink="http://www.w3.org/1999/xlink">
 <defs>
  <style type="text/css">
*{stroke-linecap:butt;stroke-linejoin:round;}
  </style>
 </defs>
 <g id="figure_1">
  <g id="patch_1">
   <path d="M 0 345.6 
L 460.8 345.6 
L 460.8 0 
L 0 0 
z
" style="fill:#ffffff;"/>
  </g>
  <g id="axes_1">
   <g id="patch_2">
    <path d="M 57.6 307.584 
L 414.72 307.584 
L 414.72 41.472 
L 57.6 41.472 
z
" style="fill:#ffffff;"/>
   </g>
   <g id="PolyCollection_1">
    <defs>
     <path d="M 73.832727 -165.408411 
L 73.832727 -176.735589 
L 76.688854 -179.39089 
L 79.544981 -182.959379 
L 82.401109 -187.60123 
L 85.257236 -193.442513 
L 88.113363 -200.548866 
L 90.96949 -208.899757 
L 93.825617 -218.368084 
L 96.681744 -228.710094 
L 99.537871 -239.569695 
L 102.393998 -250.499221 
L 105.250125 -260.995844 
L 108.106252 -270.549691 
L 110.96238 -278.697096 
L 113.818507 -285.070912 
L 116.674634 -289.439929 
L 119.530761 -291.731195 
L 122.386888 -292.032 
L 125.243015 -290.571875 
L 128.099142 -287.68823 
L 130.955269 -283.781665 
L 133.811396 -279.268038 
L 136.667523 -274.534102 
L 139.523651 -269.902108 
L 142.379778 -265.606755 
L 145.235905 -261.785633 
L 148.092032 -258.482346 
L 150.948159 -255.659975 
L 153.804286 -253.221619 
L 156.660413 -251.034418 
L 159.51654 -248.953579 
L 162.372667 -246.843547 
L 165.228794 -244.594252 
L 168.084921 -242.131378 
L 170.941049 -239.420492 
L 173.797176 -236.46571 
L 176.653303 -233.304037 
L 179.50943 -229.996858 
L 182.365557 -226.620003 
L 185.221684 -223.253756 
L 188.077811 -219.973907 
L 190.933938 -216.844679 
L 193.790065 -213.914052 
L 196.646192 -211.211644 
L 199.50232 -208.748924 
L 202.358447 -206.521251 
L 205.214574 -204.511001 
L 208.070701 -202.691093 
L 210.926828 -201.028357 
L 213.782955 -199.486522 
L 216.639082 -198.028891 
L 219.495209 -196.620919 
L 222.351336 -195.23289 
L 225.207463 -193.842659 
L 228.063591 -192.438117 
L 230.919718 -191.018805 
L 233.775845 -189.596049 
L 236.631972 -188.191213 
L 239.488099 -186.83206 
L 242.344226 -185.547735 
L 245.200353 -184.3633 
L 248.05648 -183.294925 
L 250.912607 -182.346767 
L 253.768734 -181.5102 
L 256.624861 -180.76551 
L 259.480989 -180.08565 
L 262.337116 -179.44121 
L 265.193243 -178.805565 
L 268.04937 -178.159212 
L 270.905497 -177.492548 
L 273.761624 -176.806763 
L 276.617751 -176.112893 
L 279.473878 -175.429439 
L 282.330005 -174.779129 
L 285.186132 -174.185487 
L 288.04226 -173.669713 
L 290.898387 -173.248263 
L 293.754514 -172.931265 
L 296.610641 -172.721753 
L 299.466768 -172.615609 
L 302.322895 -172.602057 
L 305.179022 -172.664584 
L 308.035149 -172.782233 
L 310.891276 -172.931222 
L 313.747403 -173.08684 
L 316.603531 -173.225525 
L 319.459658 -173.326943 
L 322.315785 -173.37582 
L 325.171912 -173.363253 
L 328.028039 -173.287281 
L 330.884166 -173.152592 
L 333.740293 -172.969413 
L 336.59642 -172.751766 
L 339.452547 -172.515407 
L 342.308674 -172.275784 
L 345.164801 -172.046338 
L 348.020929 -171.837352 
L 350.877056 -171.655441 
L 353.733183 -171.503633 
L 356.58931 -171.381892 
L 356.58931 -170.762108 
L 356.58931 -170.762108 
L 353.733183 -170.640367 
L 350.877056 -170.488559 
L 348.020929 -170.306648 
L 345.164801 -170.097662 
L 342.308674 -169.868216 
L 339.452547 -169.628593 
L 336.59642 -169.392234 
L 333.740293 -169.174587 
L 330.884166 -168.991408 
L 328.028039 -168.856719 
L 325.171912 -168.780747 
L 322.315785 -168.76818 
L 319.459658 -168.817057 
L 316.603531 -168.918475 
L 313.747403 -169.05716 
L 310.891276 -169.212778 
L 308.035149 -169.361767 
L 305.179022 -169.479416 
L 302.322895 -169.541943 
L 299.466768 -169.528391 
L 296.610641 -169.422247 
L 293.754514 -169.212735 
L 290.898387 -168.895737 
L 288.04226 -168.474287 
L 285.186132 -167.958513 
L 282.330005 -167.364871 
L 279.473878 -166.714561 
L 276.617751 -166.031107 
L 273.761624 -165.337237 
L 270.905497 -164.651452 
L 268.04937 -163.984788 
L 265.193243 -163.338435 
L 262.337116 -162.70279 
L 259.480989 -162.05835 
L 256.624861 -161.37849 
L 253.768734 -160.6338 
L 250.912607 -159.797233 
L 248.05648 -158.849075 
L 245.200353 -157.7807 
L 242.344226 -156.596265 
L 239.488099 -155.31194 
L 236.631972 -153.952787 
L 233.775845 -152.547951 
L 230.919718 -151.125195 
L 228.063591 -149.705883 
L 225.207463 -148.301341 
L 222.351336 -146.91111 
L 219.495209 -145.523081 
L 216.639082 -144.115109 
L 213.782955 -142.657478 
L 210.926828 -141.115643 
L 208.070701 -139.452907 
L 205.214574 -137.632999 
L 202.358447 -135.622749 
L 199.50232 -133.395076 
L 196.646192 -130.932356 
L 193.790065 -128.229948 
L 190.933938 -125.299321 
L 188.077811 -122.170093 
L 185.221684 -118.890244 
L 182.365557 -115.523997 
L 179.50943 -112.147142 
L 176.653303 -108.839963 
L 173.797176 -105.67829 
L 170.941049 -102.723508 
L 168.084921 -100.012622 
L 165.228794 -97.549748 
L 162.372667 -95.300453 
L 159.51654 -93.190421 
L 156.660413 -91.109582 
L 153.804286 -88.922381 
L 150.948159 -86.484025 
L 148.092032 -83.661654 
L 145.235905 -80.358367 
L 142.379778 -76.537245 
L 139.523651 -72.241892 
L 136.667523 -67.609898 
L 133.811396 -62.875962 
L 130.955269 -58.362335 
L 128.099142 -54.45577 
L 125.243015 -51.572125 
L 122.386888 -50.112 
L 119.530761 -50.412805 
L 116.674634 -52.704071 
L 113.818507 -57.073088 
L 110.96238 -63.446904 
L 108.106252 -71.594309 
L 105.250125 -81.148156 
L 102.393998 -91.644779 
L 99.537871 -102.574305 
L 96.681744 -113.433906 
L 93.825617 -123.775916 
L 90.96949 -133.244243 
L 88.113363 -141.595134 
L 85.257236 -148.701487 
L 82.401109 -154.54277 
L 79.544981 -159.184621 
L 76.688854 -162.75311 
L 73.832727 -165.408411 
z
" id="m61ab65edb9" style="stroke:#4c4c4c;stroke-opacity:0.5;stroke-width:1.5;"/>
    </defs>
    <g clip-path="url(#pc4da0e8d6c)">
     <use style="fill:#df9c20;fill-opacity:0.5;stroke:#4c4c4c;stroke-opacity:0.5;stroke-width:1.5;" x="0" xlink:href="#m61ab65edb9" y="345.6"/>
    </g>
   </g>
   <g id="PolyCollection_2">
    <defs>
     <path d="M 78.957161 -164.257798 
L 78.957161 -177.886202 
L 82.184738 -183.0143 
L 85.412315 -190.74705 
L 88.639892 -201.552026 
L 91.867468 -215.486473 
L 95.095045 -231.970776 
L 98.322622 -249.680171 
L 101.550199 -266.647819 
L 104.777776 -280.608051 
L 108.005353 -289.508602 
L 111.23293 -292.032 
L 114.460507 -287.940082 
L 117.688084 -278.114246 
L 120.91566 -264.282964 
L 124.143237 -248.548233 
L 127.370814 -232.885711 
L 130.598391 -218.77594 
L 133.825968 -207.046928 
L 137.053545 -197.917731 
L 140.281122 -191.170415 
L 143.508699 -186.360873 
L 146.736276 -182.998812 
L 149.963852 -180.662642 
L 153.191429 -179.046831 
L 156.419006 -177.958422 
L 159.646583 -177.285611 
L 162.87416 -176.958947 
L 166.101737 -176.919442 
L 169.329314 -177.10069 
L 172.556891 -177.425659 
L 175.784468 -177.814131 
L 179.012044 -178.194372 
L 182.239621 -178.512936 
L 185.467198 -178.738743 
L 188.694775 -178.860799 
L 191.922352 -178.881605 
L 195.149929 -178.8096 
L 198.377506 -178.653691 
L 201.605083 -178.421446 
L 204.83266 -178.120686 
L 208.060236 -177.76266 
L 211.287813 -177.364409 
L 214.51539 -176.948408 
L 217.742967 -176.538947 
L 220.970544 -176.156457 
L 224.198121 -175.81211 
L 227.425698 -175.505156 
L 230.653275 -175.224297 
L 233.880851 -174.952654 
L 237.108428 -174.674345 
L 240.336005 -174.380267 
L 243.563582 -174.071331 
L 246.791159 -173.758649 
L 250.018736 -173.461126 
L 253.246313 -173.201251 
L 256.47389 -172.999767 
L 259.701467 -172.869962 
L 262.929043 -172.812826 
L 266.15662 -172.814803 
L 269.384197 -172.849706 
L 272.611774 -172.88507 
L 275.839351 -172.891186 
L 279.066928 -172.849535 
L 282.294505 -172.757235 
L 285.522082 -172.625864 
L 288.749659 -172.47557 
L 291.977235 -172.327416 
L 295.204812 -172.197216 
L 298.432389 -172.092802 
L 301.659966 -172.01459 
L 304.887543 -171.957921 
L 308.11512 -171.915449 
L 311.342697 -171.878779 
L 314.570274 -171.83953 
L 317.797851 -171.790461 
L 321.025427 -171.726887 
L 324.253004 -171.647991 
L 327.480581 -171.557302 
L 330.708158 -171.461919 
L 333.935735 -171.37069 
L 337.163312 -171.292135 
L 340.390889 -171.232922 
L 343.618466 -171.197299 
L 346.846043 -171.187302 
L 350.073619 -171.203158 
L 353.301196 -171.24334 
L 356.528773 -171.304088 
L 359.75635 -171.378736 
L 362.983927 -171.45751 
L 366.211504 -171.528405 
L 369.439081 -171.579303 
L 372.666658 -171.600797 
L 375.894235 -171.588708 
L 379.121811 -171.545235 
L 382.349388 -171.478224 
L 385.576965 -171.398817 
L 388.804542 -171.318428 
L 392.032119 -171.24615 
L 395.259696 -171.187346 
L 398.487273 -171.143602 
L 398.487273 -171.000398 
L 398.487273 -171.000398 
L 395.259696 -170.956654 
L 392.032119 -170.89785 
L 388.804542 -170.825572 
L 385.576965 -170.745183 
L 382.349388 -170.665776 
L 379.121811 -170.598765 
L 375.894235 -170.555292 
L 372.666658 -170.543203 
L 369.439081 -170.564697 
L 366.211504 -170.615595 
L 362.983927 -170.68649 
L 359.75635 -170.765264 
L 356.528773 -170.839912 
L 353.301196 -170.90066 
L 350.073619 -170.940842 
L 346.846043 -170.956698 
L 343.618466 -170.946701 
L 340.390889 -170.911078 
L 337.163312 -170.851865 
L 333.935735 -170.77331 
L 330.708158 -170.682081 
L 327.480581 -170.586698 
L 324.253004 -170.496009 
L 321.025427 -170.417113 
L 317.797851 -170.353539 
L 314.570274 -170.30447 
L 311.342697 -170.265221 
L 308.11512 -170.228551 
L 304.887543 -170.186079 
L 301.659966 -170.12941 
L 298.432389 -170.051198 
L 295.204812 -169.946784 
L 291.977235 -169.816584 
L 288.749659 -169.66843 
L 285.522082 -169.518136 
L 282.294505 -169.386765 
L 279.066928 -169.294465 
L 275.839351 -169.252814 
L 272.611774 -169.25893 
L 269.384197 -169.294294 
L 266.15662 -169.329197 
L 262.929043 -169.331174 
L 259.701467 -169.274038 
L 256.47389 -169.144233 
L 253.246313 -168.942749 
L 250.018736 -168.682874 
L 246.791159 -168.385351 
L 243.563582 -168.072669 
L 240.336005 -167.763733 
L 237.108428 -167.469655 
L 233.880851 -167.191346 
L 230.653275 -166.919703 
L 227.425698 -166.638844 
L 224.198121 -166.33189 
L 220.970544 -165.987543 
L 217.742967 -165.605053 
L 214.51539 -165.195592 
L 211.287813 -164.779591 
L 208.060236 -164.38134 
L 204.83266 -164.023314 
L 201.605083 -163.722554 
L 198.377506 -163.490309 
L 195.149929 -163.3344 
L 191.922352 -163.262395 
L 188.694775 -163.283201 
L 185.467198 -163.405257 
L 182.239621 -163.631064 
L 179.012044 -163.949628 
L 175.784468 -164.329869 
L 172.556891 -164.718341 
L 169.329314 -165.04331 
L 166.101737 -165.224558 
L 162.87416 -165.185053 
L 159.646583 -164.858389 
L 156.419006 -164.185578 
L 153.191429 -163.097169 
L 149.963852 -161.481358 
L 146.736276 -159.145188 
L 143.508699 -155.783127 
L 140.281122 -150.973585 
L 137.053545 -144.226269 
L 133.825968 -135.097072 
L 130.598391 -123.36806 
L 127.370814 -109.258289 
L 124.143237 -93.595767 
L 120.91566 -77.861036 
L 117.688084 -64.029754 
L 114.460507 -54.203918 
L 111.23293 -50.112 
L 108.005353 -52.635398 
L 104.777776 -61.535949 
L 101.550199 -75.496181 
L 98.322622 -92.463829 
L 95.095045 -110.173224 
L 91.867468 -126.657527 
L 88.639892 -140.591974 
L 85.412315 -151.39695 
L 82.184738 -159.1297 
L 78.957161 -164.257798 
z
" id="m43c20811b4" style="stroke:#262626;stroke-opacity:0.5;stroke-width:1.5;"/>
    </defs>
    <g clip-path="url(#pc4da0e8d6c)">
     <use style="fill:#107010;fill-opacity:0.5;stroke:#262626;stroke-opacity:0.5;stroke-width:1.5;" x="0" xlink:href="#m43c20811b4" y="345.6"/>
    </g>
   </g>
   <g id="matplotlib.axis_1">
    <g id="xtick_1">
     <g id="line2d_1">
      <defs>
       <path d="M 0 0 
L 0 3.5 
" id="m8ab5165483" style="stroke:#000000;stroke-width:0.8;"/>
      </defs>
      <g>
       <use style="stroke:#000000;stroke-width:0.8;" x="98.527833" xlink:href="#m8ab5165483" y="307.584"/>
      </g>
     </g>
     <g id="text_1">
      <!-- 0 -->
      <defs>
       <path d="M 31.78125 66.40625 
Q 24.171875 66.40625 20.328125 58.90625 
Q 16.5 51.421875 16.5 36.375 
Q 16.5 21.390625 20.328125 13.890625 
Q 24.171875 6.390625 31.78125 6.390625 
Q 39.453125 6.390625 43.28125 13.890625 
Q 47.125 21.390625 47.125 36.375 
Q 47.125 51.421875 43.28125 58.90625 
Q 39.453125 66.40625 31.78125 66.40625 
z
M 31.78125 74.21875 
Q 44.046875 74.21875 50.515625 64.515625 
Q 56.984375 54.828125 56.984375 36.375 
Q 56.984375 17.96875 50.515625 8.265625 
Q 44.046875 -1.421875 31.78125 -1.421875 
Q 19.53125 -1.421875 13.0625 8.265625 
Q 6.59375 17.96875 6.59375 36.375 
Q 6.59375 54.828125 13.0625 64.515625 
Q 19.53125 74.21875 31.78125 74.21875 
z
" id="DejaVuSans-48"/>
      </defs>
      <g transform="translate(95.346583 322.182437)scale(0.1 -0.1)">
       <use xlink:href="#DejaVuSans-48"/>
      </g>
     </g>
    </g>
    <g id="xtick_2">
     <g id="line2d_2">
      <g>
       <use style="stroke:#000000;stroke-width:0.8;" x="153.078177" xlink:href="#m8ab5165483" y="307.584"/>
      </g>
     </g>
     <g id="text_2">
      <!-- 5 -->
      <defs>
       <path d="M 10.796875 72.90625 
L 49.515625 72.90625 
L 49.515625 64.59375 
L 19.828125 64.59375 
L 19.828125 46.734375 
Q 21.96875 47.46875 24.109375 47.828125 
Q 26.265625 48.1875 28.421875 48.1875 
Q 40.625 48.1875 47.75 41.5 
Q 54.890625 34.8125 54.890625 23.390625 
Q 54.890625 11.625 47.5625 5.09375 
Q 40.234375 -1.421875 26.90625 -1.421875 
Q 22.3125 -1.421875 17.546875 -0.640625 
Q 12.796875 0.140625 7.71875 1.703125 
L 7.71875 11.625 
Q 12.109375 9.234375 16.796875 8.0625 
Q 21.484375 6.890625 26.703125 6.890625 
Q 35.15625 6.890625 40.078125 11.328125 
Q 45.015625 15.765625 45.015625 23.390625 
Q 45.015625 31 40.078125 35.4375 
Q 35.15625 39.890625 26.703125 39.890625 
Q 22.75 39.890625 18.8125 39.015625 
Q 14.890625 38.140625 10.796875 36.28125 
z
" id="DejaVuSans-53"/>
      </defs>
      <g transform="translate(149.896927 322.182437)scale(0.1 -0.1)">
       <use xlink:href="#DejaVuSans-53"/>
      </g>
     </g>
    </g>
    <g id="xtick_3">
     <g id="line2d_3">
      <g>
       <use style="stroke:#000000;stroke-width:0.8;" x="207.628521" xlink:href="#m8ab5165483" y="307.584"/>
      </g>
     </g>
     <g id="text_3">
      <!-- 10 -->
      <defs>
       <path d="M 12.40625 8.296875 
L 28.515625 8.296875 
L 28.515625 63.921875 
L 10.984375 60.40625 
L 10.984375 69.390625 
L 28.421875 72.90625 
L 38.28125 72.90625 
L 38.28125 8.296875 
L 54.390625 8.296875 
L 54.390625 0 
L 12.40625 0 
z
" id="DejaVuSans-49"/>
      </defs>
      <g transform="translate(201.266021 322.182437)scale(0.1 -0.1)">
       <use xlink:href="#DejaVuSans-49"/>
       <use x="63.623047" xlink:href="#DejaVuSans-48"/>
      </g>
     </g>
    </g>
    <g id="xtick_4">
     <g id="line2d_4">
      <g>
       <use style="stroke:#000000;stroke-width:0.8;" x="262.178865" xlink:href="#m8ab5165483" y="307.584"/>
      </g>
     </g>
     <g id="text_4">
      <!-- 15 -->
      <g transform="translate(255.816365 322.182437)scale(0.1 -0.1)">
       <use xlink:href="#DejaVuSans-49"/>
       <use x="63.623047" xlink:href="#DejaVuSans-53"/>
      </g>
     </g>
    </g>
    <g id="xtick_5">
     <g id="line2d_5">
      <g>
       <use style="stroke:#000000;stroke-width:0.8;" x="316.729209" xlink:href="#m8ab5165483" y="307.584"/>
      </g>
     </g>
     <g id="text_5">
      <!-- 20 -->
      <defs>
       <path d="M 19.1875 8.296875 
L 53.609375 8.296875 
L 53.609375 0 
L 7.328125 0 
L 7.328125 8.296875 
Q 12.9375 14.109375 22.625 23.890625 
Q 32.328125 33.6875 34.8125 36.53125 
Q 39.546875 41.84375 41.421875 45.53125 
Q 43.3125 49.21875 43.3125 52.78125 
Q 43.3125 58.59375 39.234375 62.25 
Q 35.15625 65.921875 28.609375 65.921875 
Q 23.96875 65.921875 18.8125 64.3125 
Q 13.671875 62.703125 7.8125 59.421875 
L 7.8125 69.390625 
Q 13.765625 71.78125 18.9375 73 
Q 24.125 74.21875 28.421875 74.21875 
Q 39.75 74.21875 46.484375 68.546875 
Q 53.21875 62.890625 53.21875 53.421875 
Q 53.21875 48.921875 51.53125 44.890625 
Q 49.859375 40.875 45.40625 35.40625 
Q 44.1875 33.984375 37.640625 27.21875 
Q 31.109375 20.453125 19.1875 8.296875 
z
" id="DejaVuSans-50"/>
      </defs>
      <g transform="translate(310.366709 322.182437)scale(0.1 -0.1)">
       <use xlink:href="#DejaVuSans-50"/>
       <use x="63.623047" xlink:href="#DejaVuSans-48"/>
      </g>
     </g>
    </g>
    <g id="xtick_6">
     <g id="line2d_6">
      <g>
       <use style="stroke:#000000;stroke-width:0.8;" x="371.279553" xlink:href="#m8ab5165483" y="307.584"/>
      </g>
     </g>
     <g id="text_6">
      <!-- 25 -->
      <g transform="translate(364.917053 322.182437)scale(0.1 -0.1)">
       <use xlink:href="#DejaVuSans-50"/>
       <use x="63.623047" xlink:href="#DejaVuSans-53"/>
      </g>
     </g>
    </g>
    <g id="text_7">
     <!-- crpeakac -->
     <defs>
      <path d="M 48.78125 52.59375 
L 48.78125 44.1875 
Q 44.96875 46.296875 41.140625 47.34375 
Q 37.3125 48.390625 33.40625 48.390625 
Q 24.65625 48.390625 19.8125 42.84375 
Q 14.984375 37.3125 14.984375 27.296875 
Q 14.984375 17.28125 19.8125 11.734375 
Q 24.65625 6.203125 33.40625 6.203125 
Q 37.3125 6.203125 41.140625 7.25 
Q 44.96875 8.296875 48.78125 10.40625 
L 48.78125 2.09375 
Q 45.015625 0.34375 40.984375 -0.53125 
Q 36.96875 -1.421875 32.421875 -1.421875 
Q 20.0625 -1.421875 12.78125 6.34375 
Q 5.515625 14.109375 5.515625 27.296875 
Q 5.515625 40.671875 12.859375 48.328125 
Q 20.21875 56 33.015625 56 
Q 37.15625 56 41.109375 55.140625 
Q 45.0625 54.296875 48.78125 52.59375 
z
" id="DejaVuSans-99"/>
      <path d="M 41.109375 46.296875 
Q 39.59375 47.171875 37.8125 47.578125 
Q 36.03125 48 33.890625 48 
Q 26.265625 48 22.1875 43.046875 
Q 18.109375 38.09375 18.109375 28.8125 
L 18.109375 0 
L 9.078125 0 
L 9.078125 54.6875 
L 18.109375 54.6875 
L 18.109375 46.1875 
Q 20.953125 51.171875 25.484375 53.578125 
Q 30.03125 56 36.53125 56 
Q 37.453125 56 38.578125 55.875 
Q 39.703125 55.765625 41.0625 55.515625 
z
" id="DejaVuSans-114"/>
      <path d="M 18.109375 8.203125 
L 18.109375 -20.796875 
L 9.078125 -20.796875 
L 9.078125 54.6875 
L 18.109375 54.6875 
L 18.109375 46.390625 
Q 20.953125 51.265625 25.265625 53.625 
Q 29.59375 56 35.59375 56 
Q 45.5625 56 51.78125 48.09375 
Q 58.015625 40.1875 58.015625 27.296875 
Q 58.015625 14.40625 51.78125 6.484375 
Q 45.5625 -1.421875 35.59375 -1.421875 
Q 29.59375 -1.421875 25.265625 0.953125 
Q 20.953125 3.328125 18.109375 8.203125 
z
M 48.6875 27.296875 
Q 48.6875 37.203125 44.609375 42.84375 
Q 40.53125 48.484375 33.40625 48.484375 
Q 26.265625 48.484375 22.1875 42.84375 
Q 18.109375 37.203125 18.109375 27.296875 
Q 18.109375 17.390625 22.1875 11.75 
Q 26.265625 6.109375 33.40625 6.109375 
Q 40.53125 6.109375 44.609375 11.75 
Q 48.6875 17.390625 48.6875 27.296875 
z
" id="DejaVuSans-112"/>
      <path d="M 56.203125 29.59375 
L 56.203125 25.203125 
L 14.890625 25.203125 
Q 15.484375 15.921875 20.484375 11.0625 
Q 25.484375 6.203125 34.421875 6.203125 
Q 39.59375 6.203125 44.453125 7.46875 
Q 49.3125 8.734375 54.109375 11.28125 
L 54.109375 2.78125 
Q 49.265625 0.734375 44.1875 -0.34375 
Q 39.109375 -1.421875 33.890625 -1.421875 
Q 20.796875 -1.421875 13.15625 6.1875 
Q 5.515625 13.8125 5.515625 26.8125 
Q 5.515625 40.234375 12.765625 48.109375 
Q 20.015625 56 32.328125 56 
Q 43.359375 56 49.78125 48.890625 
Q 56.203125 41.796875 56.203125 29.59375 
z
M 47.21875 32.234375 
Q 47.125 39.59375 43.09375 43.984375 
Q 39.0625 48.390625 32.421875 48.390625 
Q 24.90625 48.390625 20.390625 44.140625 
Q 15.875 39.890625 15.1875 32.171875 
z
" id="DejaVuSans-101"/>
      <path d="M 34.28125 27.484375 
Q 23.390625 27.484375 19.1875 25 
Q 14.984375 22.515625 14.984375 16.5 
Q 14.984375 11.71875 18.140625 8.90625 
Q 21.296875 6.109375 26.703125 6.109375 
Q 34.1875 6.109375 38.703125 11.40625 
Q 43.21875 16.703125 43.21875 25.484375 
L 43.21875 27.484375 
z
M 52.203125 31.203125 
L 52.203125 0 
L 43.21875 0 
L 43.21875 8.296875 
Q 40.140625 3.328125 35.546875 0.953125 
Q 30.953125 -1.421875 24.3125 -1.421875 
Q 15.921875 -1.421875 10.953125 3.296875 
Q 6 8.015625 6 15.921875 
Q 6 25.140625 12.171875 29.828125 
Q 18.359375 34.515625 30.609375 34.515625 
L 43.21875 34.515625 
L 43.21875 35.40625 
Q 43.21875 41.609375 39.140625 45 
Q 35.0625 48.390625 27.6875 48.390625 
Q 23 48.390625 18.546875 47.265625 
Q 14.109375 46.140625 10.015625 43.890625 
L 10.015625 52.203125 
Q 14.9375 54.109375 19.578125 55.046875 
Q 24.21875 56 28.609375 56 
Q 40.484375 56 46.34375 49.84375 
Q 52.203125 43.703125 52.203125 31.203125 
z
" id="DejaVuSans-97"/>
      <path d="M 9.078125 75.984375 
L 18.109375 75.984375 
L 18.109375 31.109375 
L 44.921875 54.6875 
L 56.390625 54.6875 
L 27.390625 29.109375 
L 57.625 0 
L 45.90625 0 
L 18.109375 26.703125 
L 18.109375 0 
L 9.078125 0 
z
" id="DejaVuSans-107"/>
     </defs>
     <g transform="translate(213.419375 335.860562)scale(0.1 -0.1)">
      <use xlink:href="#DejaVuSans-99"/>
      <use x="54.980469" xlink:href="#DejaVuSans-114"/>
      <use x="96.09375" xlink:href="#DejaVuSans-112"/>
      <use x="159.570312" xlink:href="#DejaVuSans-101"/>
      <use x="221.09375" xlink:href="#DejaVuSans-97"/>
      <use x="282.373047" xlink:href="#DejaVuSans-107"/>
      <use x="338.533203" xlink:href="#DejaVuSans-97"/>
      <use x="399.8125" xlink:href="#DejaVuSans-99"/>
     </g>
    </g>
   </g>
   <g id="matplotlib.axis_2">
    <g id="ytick_1">
     <g id="line2d_7">
      <defs>
       <path d="M 0 0 
L -3.5 0 
" id="m03469abeae" style="stroke:#000000;stroke-width:0.8;"/>
      </defs>
      <g>
       <use style="stroke:#000000;stroke-width:0.8;" x="57.6" xlink:href="#m03469abeae" y="174.528"/>
      </g>
     </g>
    </g>
   </g>
   <g id="line2d_8">
    <path clip-path="url(#pc4da0e8d6c)" d="M 106.819485 174.528 
L 254.541817 174.528 
" style="fill:none;stroke:#ffa500;stroke-linecap:square;stroke-width:1.5;"/>
   </g>
   <g id="line2d_9">
    <path clip-path="url(#pc4da0e8d6c)" d="M 118.165957 174.528 
L 172.825401 174.528 
" style="fill:none;stroke:#4c4c4c;stroke-linecap:square;stroke-width:4.5;"/>
   </g>
   <g id="line2d_10">
    <path clip-path="url(#pc4da0e8d6c)" d="M 104.310169 174.528 
L 134.53106 174.528 
" style="fill:none;stroke:#008000;stroke-linecap:square;stroke-width:1.5;"/>
   </g>
   <g id="line2d_11">
    <path clip-path="url(#pc4da0e8d6c)" d="M 108.346895 174.528 
L 118.929662 174.528 
" style="fill:none;stroke:#262626;stroke-linecap:square;stroke-width:4.5;"/>
   </g>
   <g id="patch_3">
    <path d="M 57.6 307.584 
L 57.6 41.472 
" style="fill:none;stroke:#000000;stroke-linecap:square;stroke-linejoin:miter;stroke-width:0.8;"/>
   </g>
   <g id="patch_4">
    <path d="M 414.72 307.584 
L 414.72 41.472 
" style="fill:none;stroke:#000000;stroke-linecap:square;stroke-linejoin:miter;stroke-width:0.8;"/>
   </g>
   <g id="patch_5">
    <path d="M 57.6 307.584 
L 414.72 307.584 
" style="fill:none;stroke:#000000;stroke-linecap:square;stroke-linejoin:miter;stroke-width:0.8;"/>
   </g>
   <g id="patch_6">
    <path d="M 57.6 41.472 
L 414.72 41.472 
" style="fill:none;stroke:#000000;stroke-linecap:square;stroke-linejoin:miter;stroke-width:0.8;"/>
   </g>
   <g id="PathCollection_1">
    <defs>
     <path d="M 0 1.5 
C 0.397805 1.5 0.77937 1.341951 1.06066 1.06066 
C 1.341951 0.77937 1.5 0.397805 1.5 0 
C 1.5 -0.397805 1.341951 -0.77937 1.06066 -1.06066 
C 0.77937 -1.341951 0.397805 -1.5 0 -1.5 
C -0.397805 -1.5 -0.77937 -1.341951 -1.06066 -1.06066 
C -1.341951 -0.77937 -1.5 -0.397805 -1.5 0 
C -1.5 0.397805 -1.341951 0.77937 -1.06066 1.06066 
C -0.77937 1.341951 -0.397805 1.5 0 1.5 
z
" id="m05e1ae2729" style="stroke:#4c4c4c;stroke-opacity:0.5;"/>
    </defs>
    <g clip-path="url(#pc4da0e8d6c)">
     <use style="fill:#ffffff;fill-opacity:0.5;stroke:#4c4c4c;stroke-opacity:0.5;" x="141.077101" xlink:href="#m05e1ae2729" y="174.528"/>
    </g>
   </g>
   <g id="PathCollection_2">
    <defs>
     <path d="M 0 1.5 
C 0.397805 1.5 0.77937 1.341951 1.06066 1.06066 
C 1.341951 0.77937 1.5 0.397805 1.5 0 
C 1.5 -0.397805 1.341951 -0.77937 1.06066 -1.06066 
C 0.77937 -1.341951 0.397805 -1.5 0 -1.5 
C -0.397805 -1.5 -0.77937 -1.341951 -1.06066 -1.06066 
C -1.341951 -0.77937 -1.5 -0.397805 -1.5 0 
C -1.5 0.397805 -1.341951 0.77937 -1.06066 1.06066 
C -0.77937 1.341951 -0.397805 1.5 0 1.5 
z
" id="m72063ed9bf" style="stroke:#262626;stroke-opacity:0.5;"/>
    </defs>
    <g clip-path="url(#pc4da0e8d6c)">
     <use style="fill:#ffffff;fill-opacity:0.5;stroke:#262626;stroke-opacity:0.5;" x="110.638009" xlink:href="#m72063ed9bf" y="174.528"/>
    </g>
   </g>
   <g id="text_8">
    <!-- Association of crpeakac vs. death -->
    <defs>
     <path d="M 34.1875 63.1875 
L 20.796875 26.90625 
L 47.609375 26.90625 
z
M 28.609375 72.90625 
L 39.796875 72.90625 
L 67.578125 0 
L 57.328125 0 
L 50.6875 18.703125 
L 17.828125 18.703125 
L 11.1875 0 
L 0.78125 0 
z
" id="DejaVuSans-65"/>
     <path d="M 44.28125 53.078125 
L 44.28125 44.578125 
Q 40.484375 46.53125 36.375 47.5 
Q 32.28125 48.484375 27.875 48.484375 
Q 21.1875 48.484375 17.84375 46.4375 
Q 14.5 44.390625 14.5 40.28125 
Q 14.5 37.15625 16.890625 35.375 
Q 19.28125 33.59375 26.515625 31.984375 
L 29.59375 31.296875 
Q 39.15625 29.25 43.1875 25.515625 
Q 47.21875 21.78125 47.21875 15.09375 
Q 47.21875 7.46875 41.1875 3.015625 
Q 35.15625 -1.421875 24.609375 -1.421875 
Q 20.21875 -1.421875 15.453125 -0.5625 
Q 10.6875 0.296875 5.421875 2 
L 5.421875 11.28125 
Q 10.40625 8.6875 15.234375 7.390625 
Q 20.0625 6.109375 24.8125 6.109375 
Q 31.15625 6.109375 34.5625 8.28125 
Q 37.984375 10.453125 37.984375 14.40625 
Q 37.984375 18.0625 35.515625 20.015625 
Q 33.0625 21.96875 24.703125 23.78125 
L 21.578125 24.515625 
Q 13.234375 26.265625 9.515625 29.90625 
Q 5.8125 33.546875 5.8125 39.890625 
Q 5.8125 47.609375 11.28125 51.796875 
Q 16.75 56 26.8125 56 
Q 31.78125 56 36.171875 55.265625 
Q 40.578125 54.546875 44.28125 53.078125 
z
" id="DejaVuSans-115"/>
     <path d="M 30.609375 48.390625 
Q 23.390625 48.390625 19.1875 42.75 
Q 14.984375 37.109375 14.984375 27.296875 
Q 14.984375 17.484375 19.15625 11.84375 
Q 23.34375 6.203125 30.609375 6.203125 
Q 37.796875 6.203125 41.984375 11.859375 
Q 46.1875 17.53125 46.1875 27.296875 
Q 46.1875 37.015625 41.984375 42.703125 
Q 37.796875 48.390625 30.609375 48.390625 
z
M 30.609375 56 
Q 42.328125 56 49.015625 48.375 
Q 55.71875 40.765625 55.71875 27.296875 
Q 55.71875 13.875 49.015625 6.21875 
Q 42.328125 -1.421875 30.609375 -1.421875 
Q 18.84375 -1.421875 12.171875 6.21875 
Q 5.515625 13.875 5.515625 27.296875 
Q 5.515625 40.765625 12.171875 48.375 
Q 18.84375 56 30.609375 56 
z
" id="DejaVuSans-111"/>
     <path d="M 9.421875 54.6875 
L 18.40625 54.6875 
L 18.40625 0 
L 9.421875 0 
z
M 9.421875 75.984375 
L 18.40625 75.984375 
L 18.40625 64.59375 
L 9.421875 64.59375 
z
" id="DejaVuSans-105"/>
     <path d="M 18.3125 70.21875 
L 18.3125 54.6875 
L 36.8125 54.6875 
L 36.8125 47.703125 
L 18.3125 47.703125 
L 18.3125 18.015625 
Q 18.3125 11.328125 20.140625 9.421875 
Q 21.96875 7.515625 27.59375 7.515625 
L 36.8125 7.515625 
L 36.8125 0 
L 27.59375 0 
Q 17.1875 0 13.234375 3.875 
Q 9.28125 7.765625 9.28125 18.015625 
L 9.28125 47.703125 
L 2.6875 47.703125 
L 2.6875 54.6875 
L 9.28125 54.6875 
L 9.28125 70.21875 
z
" id="DejaVuSans-116"/>
     <path d="M 54.890625 33.015625 
L 54.890625 0 
L 45.90625 0 
L 45.90625 32.71875 
Q 45.90625 40.484375 42.875 44.328125 
Q 39.84375 48.1875 33.796875 48.1875 
Q 26.515625 48.1875 22.3125 43.546875 
Q 18.109375 38.921875 18.109375 30.90625 
L 18.109375 0 
L 9.078125 0 
L 9.078125 54.6875 
L 18.109375 54.6875 
L 18.109375 46.1875 
Q 21.34375 51.125 25.703125 53.5625 
Q 30.078125 56 35.796875 56 
Q 45.21875 56 50.046875 50.171875 
Q 54.890625 44.34375 54.890625 33.015625 
z
" id="DejaVuSans-110"/>
     <path id="DejaVuSans-32"/>
     <path d="M 37.109375 75.984375 
L 37.109375 68.5 
L 28.515625 68.5 
Q 23.6875 68.5 21.796875 66.546875 
Q 19.921875 64.59375 19.921875 59.515625 
L 19.921875 54.6875 
L 34.71875 54.6875 
L 34.71875 47.703125 
L 19.921875 47.703125 
L 19.921875 0 
L 10.890625 0 
L 10.890625 47.703125 
L 2.296875 47.703125 
L 2.296875 54.6875 
L 10.890625 54.6875 
L 10.890625 58.5 
Q 10.890625 67.625 15.140625 71.796875 
Q 19.390625 75.984375 28.609375 75.984375 
z
" id="DejaVuSans-102"/>
     <path d="M 2.984375 54.6875 
L 12.5 54.6875 
L 29.59375 8.796875 
L 46.6875 54.6875 
L 56.203125 54.6875 
L 35.6875 0 
L 23.484375 0 
z
" id="DejaVuSans-118"/>
     <path d="M 10.6875 12.40625 
L 21 12.40625 
L 21 0 
L 10.6875 0 
z
" id="DejaVuSans-46"/>
     <path d="M 45.40625 46.390625 
L 45.40625 75.984375 
L 54.390625 75.984375 
L 54.390625 0 
L 45.40625 0 
L 45.40625 8.203125 
Q 42.578125 3.328125 38.25 0.953125 
Q 33.9375 -1.421875 27.875 -1.421875 
Q 17.96875 -1.421875 11.734375 6.484375 
Q 5.515625 14.40625 5.515625 27.296875 
Q 5.515625 40.1875 11.734375 48.09375 
Q 17.96875 56 27.875 56 
Q 33.9375 56 38.25 53.625 
Q 42.578125 51.265625 45.40625 46.390625 
z
M 14.796875 27.296875 
Q 14.796875 17.390625 18.875 11.75 
Q 22.953125 6.109375 30.078125 6.109375 
Q 37.203125 6.109375 41.296875 11.75 
Q 45.40625 17.390625 45.40625 27.296875 
Q 45.40625 37.203125 41.296875 42.84375 
Q 37.203125 48.484375 30.078125 48.484375 
Q 22.953125 48.484375 18.875 42.84375 
Q 14.796875 37.203125 14.796875 27.296875 
z
" id="DejaVuSans-100"/>
     <path d="M 54.890625 33.015625 
L 54.890625 0 
L 45.90625 0 
L 45.90625 32.71875 
Q 45.90625 40.484375 42.875 44.328125 
Q 39.84375 48.1875 33.796875 48.1875 
Q 26.515625 48.1875 22.3125 43.546875 
Q 18.109375 38.921875 18.109375 30.90625 
L 18.109375 0 
L 9.078125 0 
L 9.078125 75.984375 
L 18.109375 75.984375 
L 18.109375 46.1875 
Q 21.34375 51.125 25.703125 53.5625 
Q 30.078125 56 35.796875 56 
Q 45.21875 56 50.046875 50.171875 
Q 54.890625 44.34375 54.890625 33.015625 
z
" id="DejaVuSans-104"/>
    </defs>
    <g transform="translate(135.381563 35.472)scale(0.12 -0.12)">
     <use xlink:href="#DejaVuSans-65"/>
     <use x="68.408203" xlink:href="#DejaVuSans-115"/>
     <use x="120.507812" xlink:href="#DejaVuSans-115"/>
     <use x="172.607422" xlink:href="#DejaVuSans-111"/>
     <use x="233.789062" xlink:href="#DejaVuSans-99"/>
     <use x="288.769531" xlink:href="#DejaVuSans-105"/>
     <use x="316.552734" xlink:href="#DejaVuSans-97"/>
     <use x="377.832031" xlink:href="#DejaVuSans-116"/>
     <use x="417.041016" xlink:href="#DejaVuSans-105"/>
     <use x="444.824219" xlink:href="#DejaVuSans-111"/>
     <use x="506.005859" xlink:href="#DejaVuSans-110"/>
     <use x="569.384766" xlink:href="#DejaVuSans-32"/>
     <use x="601.171875" xlink:href="#DejaVuSans-111"/>
     <use x="662.353516" xlink:href="#DejaVuSans-102"/>
     <use x="697.558594" xlink:href="#DejaVuSans-32"/>
     <use x="729.345703" xlink:href="#DejaVuSans-99"/>
     <use x="784.326172" xlink:href="#DejaVuSans-114"/>
     <use x="825.439453" xlink:href="#DejaVuSans-112"/>
     <use x="888.916016" xlink:href="#DejaVuSans-101"/>
     <use x="950.439453" xlink:href="#DejaVuSans-97"/>
     <use x="1011.71875" xlink:href="#DejaVuSans-107"/>
     <use x="1067.878906" xlink:href="#DejaVuSans-97"/>
     <use x="1129.158203" xlink:href="#DejaVuSans-99"/>
     <use x="1184.138672" xlink:href="#DejaVuSans-32"/>
     <use x="1215.925781" xlink:href="#DejaVuSans-118"/>
     <use x="1275.105469" xlink:href="#DejaVuSans-115"/>
     <use x="1327.205078" xlink:href="#DejaVuSans-46"/>
     <use x="1358.992188" xlink:href="#DejaVuSans-32"/>
     <use x="1390.779297" xlink:href="#DejaVuSans-100"/>
     <use x="1454.255859" xlink:href="#DejaVuSans-101"/>
     <use x="1515.779297" xlink:href="#DejaVuSans-97"/>
     <use x="1577.058594" xlink:href="#DejaVuSans-116"/>
     <use x="1616.267578" xlink:href="#DejaVuSans-104"/>
    </g>
   </g>
   <g id="legend_1">
    <g id="patch_7">
     <path d="M 296.065313 78.82825 
L 407.72 78.82825 
Q 409.72 78.82825 409.72 76.82825 
L 409.72 48.472 
Q 409.72 46.472 407.72 46.472 
L 296.065313 46.472 
Q 294.065313 46.472 294.065313 48.472 
L 294.065313 76.82825 
Q 294.065313 78.82825 296.065313 78.82825 
z
" style="fill:#ffffff;opacity:0.8;stroke:#cccccc;stroke-linejoin:miter;"/>
    </g>
    <g id="line2d_12">
     <path d="M 298.065313 54.570437 
L 318.065313 54.570437 
" style="fill:none;stroke:#ffa500;stroke-linecap:square;stroke-width:1.5;"/>
    </g>
    <g id="line2d_13"/>
    <g id="text_9">
     <!-- death (113) -->
     <defs>
      <path d="M 31 75.875 
Q 24.46875 64.65625 21.28125 53.65625 
Q 18.109375 42.671875 18.109375 31.390625 
Q 18.109375 20.125 21.3125 9.0625 
Q 24.515625 -2 31 -13.1875 
L 23.1875 -13.1875 
Q 15.875 -1.703125 12.234375 9.375 
Q 8.59375 20.453125 8.59375 31.390625 
Q 8.59375 42.28125 12.203125 53.3125 
Q 15.828125 64.359375 23.1875 75.875 
z
" id="DejaVuSans-40"/>
      <path d="M 40.578125 39.3125 
Q 47.65625 37.796875 51.625 33 
Q 55.609375 28.21875 55.609375 21.1875 
Q 55.609375 10.40625 48.1875 4.484375 
Q 40.765625 -1.421875 27.09375 -1.421875 
Q 22.515625 -1.421875 17.65625 -0.515625 
Q 12.796875 0.390625 7.625 2.203125 
L 7.625 11.71875 
Q 11.71875 9.328125 16.59375 8.109375 
Q 21.484375 6.890625 26.8125 6.890625 
Q 36.078125 6.890625 40.9375 10.546875 
Q 45.796875 14.203125 45.796875 21.1875 
Q 45.796875 27.640625 41.28125 31.265625 
Q 36.765625 34.90625 28.71875 34.90625 
L 20.21875 34.90625 
L 20.21875 43.015625 
L 29.109375 43.015625 
Q 36.375 43.015625 40.234375 45.921875 
Q 44.09375 48.828125 44.09375 54.296875 
Q 44.09375 59.90625 40.109375 62.90625 
Q 36.140625 65.921875 28.71875 65.921875 
Q 24.65625 65.921875 20.015625 65.03125 
Q 15.375 64.15625 9.8125 62.3125 
L 9.8125 71.09375 
Q 15.4375 72.65625 20.34375 73.4375 
Q 25.25 74.21875 29.59375 74.21875 
Q 40.828125 74.21875 47.359375 69.109375 
Q 53.90625 64.015625 53.90625 55.328125 
Q 53.90625 49.265625 50.4375 45.09375 
Q 46.96875 40.921875 40.578125 39.3125 
z
" id="DejaVuSans-51"/>
      <path d="M 8.015625 75.875 
L 15.828125 75.875 
Q 23.140625 64.359375 26.78125 53.3125 
Q 30.421875 42.28125 30.421875 31.390625 
Q 30.421875 20.453125 26.78125 9.375 
Q 23.140625 -1.703125 15.828125 -13.1875 
L 8.015625 -13.1875 
Q 14.5 -2 17.703125 9.0625 
Q 20.90625 20.125 20.90625 31.390625 
Q 20.90625 42.671875 17.703125 53.65625 
Q 14.5 64.65625 8.015625 75.875 
z
" id="DejaVuSans-41"/>
     </defs>
     <g transform="translate(326.065313 58.070437)scale(0.1 -0.1)">
      <use xlink:href="#DejaVuSans-100"/>
      <use x="63.476562" xlink:href="#DejaVuSans-101"/>
      <use x="125" xlink:href="#DejaVuSans-97"/>
      <use x="186.279297" xlink:href="#DejaVuSans-116"/>
      <use x="225.488281" xlink:href="#DejaVuSans-104"/>
      <use x="288.867188" xlink:href="#DejaVuSans-32"/>
      <use x="320.654297" xlink:href="#DejaVuSans-40"/>
      <use x="359.667969" xlink:href="#DejaVuSans-49"/>
      <use x="423.291016" xlink:href="#DejaVuSans-49"/>
      <use x="486.914062" xlink:href="#DejaVuSans-51"/>
      <use x="550.537109" xlink:href="#DejaVuSans-41"/>
     </g>
    </g>
    <g id="line2d_14">
     <path d="M 298.065313 69.248562 
L 318.065313 69.248562 
" style="fill:none;stroke:#008000;stroke-linecap:square;stroke-width:1.5;"/>
    </g>
    <g id="line2d_15"/>
    <g id="text_10">
     <!-- Not death (297) -->
     <defs>
      <path d="M 9.8125 72.90625 
L 23.09375 72.90625 
L 55.421875 11.921875 
L 55.421875 72.90625 
L 64.984375 72.90625 
L 64.984375 0 
L 51.703125 0 
L 19.390625 60.984375 
L 19.390625 0 
L 9.8125 0 
z
" id="DejaVuSans-78"/>
      <path d="M 10.984375 1.515625 
L 10.984375 10.5 
Q 14.703125 8.734375 18.5 7.8125 
Q 22.3125 6.890625 25.984375 6.890625 
Q 35.75 6.890625 40.890625 13.453125 
Q 46.046875 20.015625 46.78125 33.40625 
Q 43.953125 29.203125 39.59375 26.953125 
Q 35.25 24.703125 29.984375 24.703125 
Q 19.046875 24.703125 12.671875 31.3125 
Q 6.296875 37.9375 6.296875 49.421875 
Q 6.296875 60.640625 12.9375 67.421875 
Q 19.578125 74.21875 30.609375 74.21875 
Q 43.265625 74.21875 49.921875 64.515625 
Q 56.59375 54.828125 56.59375 36.375 
Q 56.59375 19.140625 48.40625 8.859375 
Q 40.234375 -1.421875 26.421875 -1.421875 
Q 22.703125 -1.421875 18.890625 -0.6875 
Q 15.09375 0.046875 10.984375 1.515625 
z
M 30.609375 32.421875 
Q 37.25 32.421875 41.125 36.953125 
Q 45.015625 41.5 45.015625 49.421875 
Q 45.015625 57.28125 41.125 61.84375 
Q 37.25 66.40625 30.609375 66.40625 
Q 23.96875 66.40625 20.09375 61.84375 
Q 16.21875 57.28125 16.21875 49.421875 
Q 16.21875 41.5 20.09375 36.953125 
Q 23.96875 32.421875 30.609375 32.421875 
z
" id="DejaVuSans-57"/>
      <path d="M 8.203125 72.90625 
L 55.078125 72.90625 
L 55.078125 68.703125 
L 28.609375 0 
L 18.3125 0 
L 43.21875 64.59375 
L 8.203125 64.59375 
z
" id="DejaVuSans-55"/>
     </defs>
     <g transform="translate(326.065313 72.748562)scale(0.1 -0.1)">
      <use xlink:href="#DejaVuSans-78"/>
      <use x="74.804688" xlink:href="#DejaVuSans-111"/>
      <use x="135.986328" xlink:href="#DejaVuSans-116"/>
      <use x="175.195312" xlink:href="#DejaVuSans-32"/>
      <use x="206.982422" xlink:href="#DejaVuSans-100"/>
      <use x="270.458984" xlink:href="#DejaVuSans-101"/>
      <use x="331.982422" xlink:href="#DejaVuSans-97"/>
      <use x="393.261719" xlink:href="#DejaVuSans-116"/>
      <use x="432.470703" xlink:href="#DejaVuSans-104"/>
      <use x="495.849609" xlink:href="#DejaVuSans-32"/>
      <use x="527.636719" xlink:href="#DejaVuSans-40"/>
      <use x="566.650391" xlink:href="#DejaVuSans-50"/>
      <use x="630.273438" xlink:href="#DejaVuSans-57"/>
      <use x="693.896484" xlink:href="#DejaVuSans-55"/>
      <use x="757.519531" xlink:href="#DejaVuSans-41"/>
     </g>
    </g>
   </g>
  </g>
 </g>
 <defs>
  <clipPath id="pc4da0e8d6c">
   <rect height="266.112" width="357.12" x="57.6" y="41.472"/>
  </clipPath>
 </defs>
</svg>
