<?xml version="1.0" encoding="utf-8" standalone="no"?>
<!DOCTYPE svg PUBLIC "-//W3C//DTD SVG 1.1//EN"
  "http://www.w3.org/Graphics/SVG/1.1/DTD/svg11.dtd">
<!-- Created with matplotlib (https://matplotlib.org/) -->
<svg height="345.6pt" version="1.1" viewBox="0 0 460.8 345.6" width="460.8pt" xmlns="http://www.w3.org/2000/svg" xmlns:xlink="http://www.w3.org/1999/xlink">
 <defs>
  <style type="text/css">
*{stroke-linecap:butt;stroke-linejoin:round;}
  </style>
 </defs>
 <g id="figure_1">
  <g id="patch_1">
   <path d="M 0 345.6 
L 460.8 345.6 
L 460.8 0 
L 0 0 
z
" style="fill:#ffffff;"/>
  </g>
  <g id="axes_1">
   <g id="patch_2">
    <path d="M 57.6 307.584 
L 414.72 307.584 
L 414.72 41.472 
L 57.6 41.472 
z
" style="fill:#ffffff;"/>
   </g>
   <g id="PolyCollection_1">
    <defs>
     <path d="M 73.832727 -164.409713 
L 73.832727 -177.734287 
L 77.112066 -180.445343 
L 80.391405 -183.963832 
L 83.670744 -188.407844 
L 86.950083 -193.867824 
L 90.229421 -200.389382 
L 93.50876 -207.956687 
L 96.788099 -216.479058 
L 100.067438 -225.783537 
L 103.346777 -235.615798 
L 106.626116 -245.650845 
L 109.905455 -255.513576 
L 113.184793 -264.807655 
L 116.464132 -273.149622 
L 119.743471 -280.20402 
L 123.02281 -285.71487 
L 126.302149 -289.529163 
L 129.581488 -291.609165 
L 132.860826 -292.032 
L 136.140165 -290.97691 
L 139.419504 -288.702352 
L 142.698843 -285.516405 
L 145.978182 -281.744635 
L 149.257521 -277.699466 
L 152.53686 -273.654462 
L 155.816198 -269.825818 
L 159.095537 -266.362126 
L 162.374876 -263.342294 
L 165.654215 -260.78056 
L 168.933554 -258.636935 
L 172.212893 -256.831103 
L 175.492231 -255.257812 
L 178.77157 -253.801995 
L 182.050909 -252.352202 
L 185.330248 -250.811324 
L 188.609587 -249.104013 
L 191.888926 -247.180626 
L 195.168264 -245.017874 
L 198.447603 -242.616668 
L 201.726942 -239.997875 
L 205.006281 -237.19682 
L 208.28562 -234.257381 
L 211.564959 -231.226421 
L 214.844298 -228.149151 
L 218.123636 -225.06575 
L 221.402975 -222.009374 
L 224.682314 -219.005435 
L 227.961653 -216.071926 
L 231.240992 -213.220463 
L 234.520331 -210.457731 
L 237.799669 -207.787049 
L 241.079008 -205.209862 
L 244.358347 -202.727004 
L 247.637686 -200.339659 
L 250.917025 -198.049989 
L 254.196364 -195.86141 
L 257.475702 -193.778556 
L 260.755041 -191.806968 
L 264.03438 -189.952594 
L 267.313719 -188.22119 
L 270.593058 -186.617716 
L 273.872397 -185.145806 
L 277.151736 -183.807389 
L 280.431074 -182.602466 
L 283.710413 -181.529074 
L 286.989752 -180.583411 
L 290.269091 -179.760099 
L 293.54843 -179.052554 
L 296.827769 -178.453421 
L 300.107107 -177.955009 
L 303.386446 -177.549655 
L 306.665785 -177.229949 
L 309.945124 -176.988744 
L 313.224463 -176.818942 
L 316.503802 -176.713057 
L 319.78314 -176.662661 
L 323.062479 -176.657824 
L 326.341818 -176.686712 
L 329.621157 -176.73549 
L 332.900496 -176.788612 
L 336.179835 -176.829536 
L 339.459174 -176.841801 
L 342.738512 -176.810325 
L 346.017851 -176.72275 
L 349.29719 -176.570626 
L 352.576529 -176.350265 
L 355.855868 -176.063114 
L 359.135207 -175.715617 
L 362.414545 -175.318551 
L 365.693884 -174.885952 
L 368.973223 -174.433753 
L 372.252562 -173.978331 
L 375.531901 -173.535114 
L 378.81124 -173.117424 
L 382.090579 -172.735655 
L 385.369917 -172.396844 
L 388.649256 -172.104629 
L 391.928595 -171.859539 
L 395.207934 -171.65953 
L 398.487273 -171.500658 
L 398.487273 -170.643342 
L 398.487273 -170.643342 
L 395.207934 -170.48447 
L 391.928595 -170.284461 
L 388.649256 -170.039371 
L 385.369917 -169.747156 
L 382.090579 -169.408345 
L 378.81124 -169.026576 
L 375.531901 -168.608886 
L 372.252562 -168.165669 
L 368.973223 -167.710247 
L 365.693884 -167.258048 
L 362.414545 -166.825449 
L 359.135207 -166.428383 
L 355.855868 -166.080886 
L 352.576529 -165.793735 
L 349.29719 -165.573374 
L 346.017851 -165.42125 
L 342.738512 -165.333675 
L 339.459174 -165.302199 
L 336.179835 -165.314464 
L 332.900496 -165.355388 
L 329.621157 -165.40851 
L 326.341818 -165.457288 
L 323.062479 -165.486176 
L 319.78314 -165.481339 
L 316.503802 -165.430943 
L 313.224463 -165.325058 
L 309.945124 -165.155256 
L 306.665785 -164.914051 
L 303.386446 -164.594345 
L 300.107107 -164.188991 
L 296.827769 -163.690579 
L 293.54843 -163.091446 
L 290.269091 -162.383901 
L 286.989752 -161.560589 
L 283.710413 -160.614926 
L 280.431074 -159.541534 
L 277.151736 -158.336611 
L 273.872397 -156.998194 
L 270.593058 -155.526284 
L 267.313719 -153.92281 
L 264.03438 -152.191406 
L 260.755041 -150.337032 
L 257.475702 -148.365444 
L 254.196364 -146.28259 
L 250.917025 -144.094011 
L 247.637686 -141.804341 
L 244.358347 -139.416996 
L 241.079008 -136.934138 
L 237.799669 -134.356951 
L 234.520331 -131.686269 
L 231.240992 -128.923537 
L 227.961653 -126.072074 
L 224.682314 -123.138565 
L 221.402975 -120.134626 
L 218.123636 -117.07825 
L 214.844298 -113.994849 
L 211.564959 -110.917579 
L 208.28562 -107.886619 
L 205.006281 -104.94718 
L 201.726942 -102.146125 
L 198.447603 -99.527332 
L 195.168264 -97.126126 
L 191.888926 -94.963374 
L 188.609587 -93.039987 
L 185.330248 -91.332676 
L 182.050909 -89.791798 
L 178.77157 -88.342005 
L 175.492231 -86.886188 
L 172.212893 -85.312897 
L 168.933554 -83.507065 
L 165.654215 -81.36344 
L 162.374876 -78.801706 
L 159.095537 -75.781874 
L 155.816198 -72.318182 
L 152.53686 -68.489538 
L 149.257521 -64.444534 
L 145.978182 -60.399365 
L 142.698843 -56.627595 
L 139.419504 -53.441648 
L 136.140165 -51.16709 
L 132.860826 -50.112 
L 129.581488 -50.534835 
L 126.302149 -52.614837 
L 123.02281 -56.42913 
L 119.743471 -61.93998 
L 116.464132 -68.994378 
L 113.184793 -77.336345 
L 109.905455 -86.630424 
L 106.626116 -96.493155 
L 103.346777 -106.528202 
L 100.067438 -116.360463 
L 96.788099 -125.664942 
L 93.50876 -134.187313 
L 90.229421 -141.754618 
L 86.950083 -148.276176 
L 83.670744 -153.736156 
L 80.391405 -158.180168 
L 77.112066 -161.698657 
L 73.832727 -164.409713 
z
" id="m1ffb239099" style="stroke:#4c4c4c;stroke-opacity:0.5;stroke-width:1.5;"/>
    </defs>
    <g clip-path="url(#p7f13c0db3e)">
     <use style="fill:#df9c20;fill-opacity:0.5;stroke:#4c4c4c;stroke-opacity:0.5;stroke-width:1.5;" x="0" xlink:href="#m1ffb239099" y="345.6"/>
    </g>
   </g>
   <g id="PolyCollection_2">
    <defs>
     <path d="M 87.090635 -166.404395 
L 87.090635 -175.739605 
L 89.793373 -178.855028 
L 92.496111 -183.485642 
L 95.19885 -190.0134 
L 97.901588 -198.726415 
L 100.604326 -209.712949 
L 103.307065 -222.757706 
L 106.009803 -237.272619 
L 108.712541 -252.294878 
L 111.41528 -266.572992 
L 114.118018 -278.738354 
L 116.820756 -287.531731 
L 119.523495 -292.032 
L 122.226233 -291.827895 
L 124.928971 -287.086956 
L 127.63171 -278.505134 
L 130.334448 -267.155018 
L 133.037186 -254.277486 
L 135.739925 -241.071814 
L 138.442663 -228.53119 
L 141.145402 -217.349881 
L 143.84814 -207.904333 
L 146.550878 -200.291975 
L 149.253617 -194.40282 
L 151.956355 -189.999854 
L 154.659093 -186.790995 
L 157.361832 -184.483821 
L 160.06457 -182.821017 
L 162.767308 -181.598568 
L 165.470047 -180.6703 
L 168.172785 -179.942647 
L 170.875523 -179.363244 
L 173.578262 -178.906694 
L 176.281 -178.560527 
L 178.983738 -178.313867 
L 181.686477 -178.150489 
L 184.389215 -178.046787 
L 187.091954 -177.973997 
L 189.794692 -177.902978 
L 192.49743 -177.809426 
L 195.200169 -177.677599 
L 197.902907 -177.50143 
L 200.605645 -177.28303 
L 203.308384 -177.029512 
L 206.011122 -176.749553 
L 208.71386 -176.450975 
L 211.416599 -176.140015 
L 214.119337 -175.822192 
L 216.822075 -175.504057 
L 219.524814 -175.194876 
L 222.227552 -174.90738 
L 224.93029 -174.657073 
L 227.633029 -174.460078 
L 230.335767 -174.329945 
L 233.038506 -174.274175 
L 235.741244 -174.291425 
L 238.443982 -174.370246 
L 241.146721 -174.489912 
L 243.849459 -174.623356 
L 246.552197 -174.741643 
L 249.254936 -174.818937 
L 251.957674 -174.836782 
L 254.660412 -174.786665 
L 257.363151 -174.670365 
L 260.065889 -174.498227 
L 262.768627 -174.286049 
L 265.471366 -174.051633 
L 268.174104 -173.811959 
L 270.876842 -173.581609 
L 273.579581 -173.372459 
L 276.282319 -173.194136 
L 278.985057 -173.054453 
L 281.687796 -172.959141 
L 284.390534 -172.910673 
L 287.093273 -172.906578 
L 289.796011 -172.938089 
L 292.498749 -172.990093 
L 295.201488 -173.042933 
L 297.904226 -173.075937 
L 300.606964 -173.07182 
L 303.309703 -173.02064 
L 306.012441 -172.922026 
L 308.715179 -172.784924 
L 311.417918 -172.624912 
L 314.120656 -172.459925 
L 316.823394 -172.305726 
L 319.526133 -172.172441 
L 322.228871 -172.063057 
L 324.931609 -171.974083 
L 327.634348 -171.897884 
L 330.337086 -171.825756 
L 333.039825 -171.750717 
L 335.742563 -171.669264 
L 338.445301 -171.581758 
L 341.14804 -171.491638 
L 343.850778 -171.403922 
L 346.553516 -171.323621 
L 349.256255 -171.25451 
L 351.958993 -171.198531 
L 354.661731 -171.155789 
L 354.661731 -170.988211 
L 354.661731 -170.988211 
L 351.958993 -170.945469 
L 349.256255 -170.88949 
L 346.553516 -170.820379 
L 343.850778 -170.740078 
L 341.14804 -170.652362 
L 338.445301 -170.562242 
L 335.742563 -170.474736 
L 333.039825 -170.393283 
L 330.337086 -170.318244 
L 327.634348 -170.246116 
L 324.931609 -170.169917 
L 322.228871 -170.080943 
L 319.526133 -169.971559 
L 316.823394 -169.838274 
L 314.120656 -169.684075 
L 311.417918 -169.519088 
L 308.715179 -169.359076 
L 306.012441 -169.221974 
L 303.309703 -169.12336 
L 300.606964 -169.07218 
L 297.904226 -169.068063 
L 295.201488 -169.101067 
L 292.498749 -169.153907 
L 289.796011 -169.205911 
L 287.093273 -169.237422 
L 284.390534 -169.233327 
L 281.687796 -169.184859 
L 278.985057 -169.089547 
L 276.282319 -168.949864 
L 273.579581 -168.771541 
L 270.876842 -168.562391 
L 268.174104 -168.332041 
L 265.471366 -168.092367 
L 262.768627 -167.857951 
L 260.065889 -167.645773 
L 257.363151 -167.473635 
L 254.660412 -167.357335 
L 251.957674 -167.307218 
L 249.254936 -167.325063 
L 246.552197 -167.402357 
L 243.849459 -167.520644 
L 241.146721 -167.654088 
L 238.443982 -167.773754 
L 235.741244 -167.852575 
L 233.038506 -167.869825 
L 230.335767 -167.814055 
L 227.633029 -167.683922 
L 224.93029 -167.486927 
L 222.227552 -167.23662 
L 219.524814 -166.949124 
L 216.822075 -166.639943 
L 214.119337 -166.321808 
L 211.416599 -166.003985 
L 208.71386 -165.693025 
L 206.011122 -165.394447 
L 203.308384 -165.114488 
L 200.605645 -164.86097 
L 197.902907 -164.64257 
L 195.200169 -164.466401 
L 192.49743 -164.334574 
L 189.794692 -164.241022 
L 187.091954 -164.170003 
L 184.389215 -164.097213 
L 181.686477 -163.993511 
L 178.983738 -163.830133 
L 176.281 -163.583473 
L 173.578262 -163.237306 
L 170.875523 -162.780756 
L 168.172785 -162.201353 
L 165.470047 -161.4737 
L 162.767308 -160.545432 
L 160.06457 -159.322983 
L 157.361832 -157.660179 
L 154.659093 -155.353005 
L 151.956355 -152.144146 
L 149.253617 -147.74118 
L 146.550878 -141.852025 
L 143.84814 -134.239667 
L 141.145402 -124.794119 
L 138.442663 -113.61281 
L 135.739925 -101.072186 
L 133.037186 -87.866514 
L 130.334448 -74.988982 
L 127.63171 -63.638866 
L 124.928971 -55.057044 
L 122.226233 -50.316105 
L 119.523495 -50.112 
L 116.820756 -54.612269 
L 114.118018 -63.405646 
L 111.41528 -75.571008 
L 108.712541 -89.849122 
L 106.009803 -104.871381 
L 103.307065 -119.386294 
L 100.604326 -132.431051 
L 97.901588 -143.417585 
L 95.19885 -152.1306 
L 92.496111 -158.658358 
L 89.793373 -163.288972 
L 87.090635 -166.404395 
z
" id="md0f206567f" style="stroke:#262626;stroke-opacity:0.5;stroke-width:1.5;"/>
    </defs>
    <g clip-path="url(#p7f13c0db3e)">
     <use style="fill:#107010;fill-opacity:0.5;stroke:#262626;stroke-opacity:0.5;stroke-width:1.5;" x="0" xlink:href="#md0f206567f" y="345.6"/>
    </g>
   </g>
   <g id="matplotlib.axis_1">
    <g id="xtick_1">
     <g id="line2d_1">
      <defs>
       <path d="M 0 0 
L 0 3.5 
" id="me45d39b255" style="stroke:#000000;stroke-width:0.8;"/>
      </defs>
      <g>
       <use style="stroke:#000000;stroke-width:0.8;" x="107.183915" xlink:href="#me45d39b255" y="307.584"/>
      </g>
     </g>
     <g id="text_1">
      <!-- 0 -->
      <defs>
       <path d="M 31.78125 66.40625 
Q 24.171875 66.40625 20.328125 58.90625 
Q 16.5 51.421875 16.5 36.375 
Q 16.5 21.390625 20.328125 13.890625 
Q 24.171875 6.390625 31.78125 6.390625 
Q 39.453125 6.390625 43.28125 13.890625 
Q 47.125 21.390625 47.125 36.375 
Q 47.125 51.421875 43.28125 58.90625 
Q 39.453125 66.40625 31.78125 66.40625 
z
M 31.78125 74.21875 
Q 44.046875 74.21875 50.515625 64.515625 
Q 56.984375 54.828125 56.984375 36.375 
Q 56.984375 17.96875 50.515625 8.265625 
Q 44.046875 -1.421875 31.78125 -1.421875 
Q 19.53125 -1.421875 13.0625 8.265625 
Q 6.59375 17.96875 6.59375 36.375 
Q 6.59375 54.828125 13.0625 64.515625 
Q 19.53125 74.21875 31.78125 74.21875 
z
" id="DejaVuSans-48"/>
      </defs>
      <g transform="translate(104.002665 322.182437)scale(0.1 -0.1)">
       <use xlink:href="#DejaVuSans-48"/>
      </g>
     </g>
    </g>
    <g id="xtick_2">
     <g id="line2d_2">
      <g>
       <use style="stroke:#000000;stroke-width:0.8;" x="167.594259" xlink:href="#me45d39b255" y="307.584"/>
      </g>
     </g>
     <g id="text_2">
      <!-- 5 -->
      <defs>
       <path d="M 10.796875 72.90625 
L 49.515625 72.90625 
L 49.515625 64.59375 
L 19.828125 64.59375 
L 19.828125 46.734375 
Q 21.96875 47.46875 24.109375 47.828125 
Q 26.265625 48.1875 28.421875 48.1875 
Q 40.625 48.1875 47.75 41.5 
Q 54.890625 34.8125 54.890625 23.390625 
Q 54.890625 11.625 47.5625 5.09375 
Q 40.234375 -1.421875 26.90625 -1.421875 
Q 22.3125 -1.421875 17.546875 -0.640625 
Q 12.796875 0.140625 7.71875 1.703125 
L 7.71875 11.625 
Q 12.109375 9.234375 16.796875 8.0625 
Q 21.484375 6.890625 26.703125 6.890625 
Q 35.15625 6.890625 40.078125 11.328125 
Q 45.015625 15.765625 45.015625 23.390625 
Q 45.015625 31 40.078125 35.4375 
Q 35.15625 39.890625 26.703125 39.890625 
Q 22.75 39.890625 18.8125 39.015625 
Q 14.890625 38.140625 10.796875 36.28125 
z
" id="DejaVuSans-53"/>
      </defs>
      <g transform="translate(164.413009 322.182437)scale(0.1 -0.1)">
       <use xlink:href="#DejaVuSans-53"/>
      </g>
     </g>
    </g>
    <g id="xtick_3">
     <g id="line2d_3">
      <g>
       <use style="stroke:#000000;stroke-width:0.8;" x="228.004604" xlink:href="#me45d39b255" y="307.584"/>
      </g>
     </g>
     <g id="text_3">
      <!-- 10 -->
      <defs>
       <path d="M 12.40625 8.296875 
L 28.515625 8.296875 
L 28.515625 63.921875 
L 10.984375 60.40625 
L 10.984375 69.390625 
L 28.421875 72.90625 
L 38.28125 72.90625 
L 38.28125 8.296875 
L 54.390625 8.296875 
L 54.390625 0 
L 12.40625 0 
z
" id="DejaVuSans-49"/>
      </defs>
      <g transform="translate(221.642104 322.182437)scale(0.1 -0.1)">
       <use xlink:href="#DejaVuSans-49"/>
       <use x="63.623047" xlink:href="#DejaVuSans-48"/>
      </g>
     </g>
    </g>
    <g id="xtick_4">
     <g id="line2d_4">
      <g>
       <use style="stroke:#000000;stroke-width:0.8;" x="288.414948" xlink:href="#me45d39b255" y="307.584"/>
      </g>
     </g>
     <g id="text_4">
      <!-- 15 -->
      <g transform="translate(282.052448 322.182437)scale(0.1 -0.1)">
       <use xlink:href="#DejaVuSans-49"/>
       <use x="63.623047" xlink:href="#DejaVuSans-53"/>
      </g>
     </g>
    </g>
    <g id="xtick_5">
     <g id="line2d_5">
      <g>
       <use style="stroke:#000000;stroke-width:0.8;" x="348.825292" xlink:href="#me45d39b255" y="307.584"/>
      </g>
     </g>
     <g id="text_5">
      <!-- 20 -->
      <defs>
       <path d="M 19.1875 8.296875 
L 53.609375 8.296875 
L 53.609375 0 
L 7.328125 0 
L 7.328125 8.296875 
Q 12.9375 14.109375 22.625 23.890625 
Q 32.328125 33.6875 34.8125 36.53125 
Q 39.546875 41.84375 41.421875 45.53125 
Q 43.3125 49.21875 43.3125 52.78125 
Q 43.3125 58.59375 39.234375 62.25 
Q 35.15625 65.921875 28.609375 65.921875 
Q 23.96875 65.921875 18.8125 64.3125 
Q 13.671875 62.703125 7.8125 59.421875 
L 7.8125 69.390625 
Q 13.765625 71.78125 18.9375 73 
Q 24.125 74.21875 28.421875 74.21875 
Q 39.75 74.21875 46.484375 68.546875 
Q 53.21875 62.890625 53.21875 53.421875 
Q 53.21875 48.921875 51.53125 44.890625 
Q 49.859375 40.875 45.40625 35.40625 
Q 44.1875 33.984375 37.640625 27.21875 
Q 31.109375 20.453125 19.1875 8.296875 
z
" id="DejaVuSans-50"/>
      </defs>
      <g transform="translate(342.462792 322.182437)scale(0.1 -0.1)">
       <use xlink:href="#DejaVuSans-50"/>
       <use x="63.623047" xlink:href="#DejaVuSans-48"/>
      </g>
     </g>
    </g>
    <g id="xtick_6">
     <g id="line2d_6">
      <g>
       <use style="stroke:#000000;stroke-width:0.8;" x="409.235636" xlink:href="#me45d39b255" y="307.584"/>
      </g>
     </g>
     <g id="text_6">
      <!-- 25 -->
      <g transform="translate(402.873136 322.182437)scale(0.1 -0.1)">
       <use xlink:href="#DejaVuSans-50"/>
       <use x="63.623047" xlink:href="#DejaVuSans-53"/>
      </g>
     </g>
    </g>
    <g id="text_7">
     <!-- crpeakac -->
     <defs>
      <path d="M 48.78125 52.59375 
L 48.78125 44.1875 
Q 44.96875 46.296875 41.140625 47.34375 
Q 37.3125 48.390625 33.40625 48.390625 
Q 24.65625 48.390625 19.8125 42.84375 
Q 14.984375 37.3125 14.984375 27.296875 
Q 14.984375 17.28125 19.8125 11.734375 
Q 24.65625 6.203125 33.40625 6.203125 
Q 37.3125 6.203125 41.140625 7.25 
Q 44.96875 8.296875 48.78125 10.40625 
L 48.78125 2.09375 
Q 45.015625 0.34375 40.984375 -0.53125 
Q 36.96875 -1.421875 32.421875 -1.421875 
Q 20.0625 -1.421875 12.78125 6.34375 
Q 5.515625 14.109375 5.515625 27.296875 
Q 5.515625 40.671875 12.859375 48.328125 
Q 20.21875 56 33.015625 56 
Q 37.15625 56 41.109375 55.140625 
Q 45.0625 54.296875 48.78125 52.59375 
z
" id="DejaVuSans-99"/>
      <path d="M 41.109375 46.296875 
Q 39.59375 47.171875 37.8125 47.578125 
Q 36.03125 48 33.890625 48 
Q 26.265625 48 22.1875 43.046875 
Q 18.109375 38.09375 18.109375 28.8125 
L 18.109375 0 
L 9.078125 0 
L 9.078125 54.6875 
L 18.109375 54.6875 
L 18.109375 46.1875 
Q 20.953125 51.171875 25.484375 53.578125 
Q 30.03125 56 36.53125 56 
Q 37.453125 56 38.578125 55.875 
Q 39.703125 55.765625 41.0625 55.515625 
z
" id="DejaVuSans-114"/>
      <path d="M 18.109375 8.203125 
L 18.109375 -20.796875 
L 9.078125 -20.796875 
L 9.078125 54.6875 
L 18.109375 54.6875 
L 18.109375 46.390625 
Q 20.953125 51.265625 25.265625 53.625 
Q 29.59375 56 35.59375 56 
Q 45.5625 56 51.78125 48.09375 
Q 58.015625 40.1875 58.015625 27.296875 
Q 58.015625 14.40625 51.78125 6.484375 
Q 45.5625 -1.421875 35.59375 -1.421875 
Q 29.59375 -1.421875 25.265625 0.953125 
Q 20.953125 3.328125 18.109375 8.203125 
z
M 48.6875 27.296875 
Q 48.6875 37.203125 44.609375 42.84375 
Q 40.53125 48.484375 33.40625 48.484375 
Q 26.265625 48.484375 22.1875 42.84375 
Q 18.109375 37.203125 18.109375 27.296875 
Q 18.109375 17.390625 22.1875 11.75 
Q 26.265625 6.109375 33.40625 6.109375 
Q 40.53125 6.109375 44.609375 11.75 
Q 48.6875 17.390625 48.6875 27.296875 
z
" id="DejaVuSans-112"/>
      <path d="M 56.203125 29.59375 
L 56.203125 25.203125 
L 14.890625 25.203125 
Q 15.484375 15.921875 20.484375 11.0625 
Q 25.484375 6.203125 34.421875 6.203125 
Q 39.59375 6.203125 44.453125 7.46875 
Q 49.3125 8.734375 54.109375 11.28125 
L 54.109375 2.78125 
Q 49.265625 0.734375 44.1875 -0.34375 
Q 39.109375 -1.421875 33.890625 -1.421875 
Q 20.796875 -1.421875 13.15625 6.1875 
Q 5.515625 13.8125 5.515625 26.8125 
Q 5.515625 40.234375 12.765625 48.109375 
Q 20.015625 56 32.328125 56 
Q 43.359375 56 49.78125 48.890625 
Q 56.203125 41.796875 56.203125 29.59375 
z
M 47.21875 32.234375 
Q 47.125 39.59375 43.09375 43.984375 
Q 39.0625 48.390625 32.421875 48.390625 
Q 24.90625 48.390625 20.390625 44.140625 
Q 15.875 39.890625 15.1875 32.171875 
z
" id="DejaVuSans-101"/>
      <path d="M 34.28125 27.484375 
Q 23.390625 27.484375 19.1875 25 
Q 14.984375 22.515625 14.984375 16.5 
Q 14.984375 11.71875 18.140625 8.90625 
Q 21.296875 6.109375 26.703125 6.109375 
Q 34.1875 6.109375 38.703125 11.40625 
Q 43.21875 16.703125 43.21875 25.484375 
L 43.21875 27.484375 
z
M 52.203125 31.203125 
L 52.203125 0 
L 43.21875 0 
L 43.21875 8.296875 
Q 40.140625 3.328125 35.546875 0.953125 
Q 30.953125 -1.421875 24.3125 -1.421875 
Q 15.921875 -1.421875 10.953125 3.296875 
Q 6 8.015625 6 15.921875 
Q 6 25.140625 12.171875 29.828125 
Q 18.359375 34.515625 30.609375 34.515625 
L 43.21875 34.515625 
L 43.21875 35.40625 
Q 43.21875 41.609375 39.140625 45 
Q 35.0625 48.390625 27.6875 48.390625 
Q 23 48.390625 18.546875 47.265625 
Q 14.109375 46.140625 10.015625 43.890625 
L 10.015625 52.203125 
Q 14.9375 54.109375 19.578125 55.046875 
Q 24.21875 56 28.609375 56 
Q 40.484375 56 46.34375 49.84375 
Q 52.203125 43.703125 52.203125 31.203125 
z
" id="DejaVuSans-97"/>
      <path d="M 9.078125 75.984375 
L 18.109375 75.984375 
L 18.109375 31.109375 
L 44.921875 54.6875 
L 56.390625 54.6875 
L 27.390625 29.109375 
L 57.625 0 
L 45.90625 0 
L 18.109375 26.703125 
L 18.109375 0 
L 9.078125 0 
z
" id="DejaVuSans-107"/>
     </defs>
     <g transform="translate(213.419375 335.860562)scale(0.1 -0.1)">
      <use xlink:href="#DejaVuSans-99"/>
      <use x="54.980469" xlink:href="#DejaVuSans-114"/>
      <use x="96.09375" xlink:href="#DejaVuSans-112"/>
      <use x="159.570312" xlink:href="#DejaVuSans-101"/>
      <use x="221.09375" xlink:href="#DejaVuSans-97"/>
      <use x="282.373047" xlink:href="#DejaVuSans-107"/>
      <use x="338.533203" xlink:href="#DejaVuSans-97"/>
      <use x="399.8125" xlink:href="#DejaVuSans-99"/>
     </g>
    </g>
   </g>
   <g id="matplotlib.axis_2">
    <g id="ytick_1">
     <g id="line2d_7">
      <defs>
       <path d="M 0 0 
L -3.5 0 
" id="m52d274d6b6" style="stroke:#000000;stroke-width:0.8;"/>
      </defs>
      <g>
       <use style="stroke:#000000;stroke-width:0.8;" x="57.6" xlink:href="#m52d274d6b6" y="174.528"/>
      </g>
     </g>
    </g>
   </g>
   <g id="line2d_8">
    <path clip-path="url(#p7f13c0db3e)" d="M 115.883005 174.528 
L 306.538051 174.528 
" style="fill:none;stroke:#ffa500;stroke-linecap:square;stroke-width:1.5;"/>
   </g>
   <g id="line2d_9">
    <path clip-path="url(#p7f13c0db3e)" d="M 125.035172 174.528 
L 199.339895 174.528 
" style="fill:none;stroke:#4c4c4c;stroke-linecap:square;stroke-width:4.5;"/>
   </g>
   <g id="line2d_10">
    <path clip-path="url(#p7f13c0db3e)" d="M 112.016743 174.528 
L 147.054742 174.528 
" style="fill:none;stroke:#008000;stroke-linecap:square;stroke-width:1.5;"/>
   </g>
   <g id="line2d_11">
    <path clip-path="url(#p7f13c0db3e)" d="M 118.057777 174.528 
L 130.139846 174.528 
" style="fill:none;stroke:#262626;stroke-linecap:square;stroke-width:4.5;"/>
   </g>
   <g id="patch_3">
    <path d="M 57.6 307.584 
L 57.6 41.472 
" style="fill:none;stroke:#000000;stroke-linecap:square;stroke-linejoin:miter;stroke-width:0.8;"/>
   </g>
   <g id="patch_4">
    <path d="M 414.72 307.584 
L 414.72 41.472 
" style="fill:none;stroke:#000000;stroke-linecap:square;stroke-linejoin:miter;stroke-width:0.8;"/>
   </g>
   <g id="patch_5">
    <path d="M 57.6 307.584 
L 414.72 307.584 
" style="fill:none;stroke:#000000;stroke-linecap:square;stroke-linejoin:miter;stroke-width:0.8;"/>
   </g>
   <g id="patch_6">
    <path d="M 57.6 41.472 
L 414.72 41.472 
" style="fill:none;stroke:#000000;stroke-linecap:square;stroke-linejoin:miter;stroke-width:0.8;"/>
   </g>
   <g id="PathCollection_1">
    <defs>
     <path d="M 0 1.5 
C 0.397805 1.5 0.77937 1.341951 1.06066 1.06066 
C 1.341951 0.77937 1.5 0.397805 1.5 0 
C 1.5 -0.397805 1.341951 -0.77937 1.06066 -1.06066 
C 0.77937 -1.341951 0.397805 -1.5 0 -1.5 
C -0.397805 -1.5 -0.77937 -1.341951 -1.06066 -1.06066 
C -1.341951 -0.77937 -1.5 -0.397805 -1.5 0 
C -1.5 0.397805 -1.341951 0.77937 -1.06066 1.06066 
C -0.77937 1.341951 -0.397805 1.5 0 1.5 
z
" id="m1314b6415f" style="stroke:#4c4c4c;stroke-opacity:0.5;"/>
    </defs>
    <g clip-path="url(#p7f13c0db3e)">
     <use style="fill:#ffffff;fill-opacity:0.5;stroke:#4c4c4c;stroke-opacity:0.5;" x="156.539166" xlink:href="#m1314b6415f" y="174.528"/>
    </g>
   </g>
   <g id="PathCollection_2">
    <defs>
     <path d="M 0 1.5 
C 0.397805 1.5 0.77937 1.341951 1.06066 1.06066 
C 1.341951 0.77937 1.5 0.397805 1.5 0 
C 1.5 -0.397805 1.341951 -0.77937 1.06066 -1.06066 
C 0.77937 -1.341951 0.397805 -1.5 0 -1.5 
C -0.397805 -1.5 -0.77937 -1.341951 -1.06066 -1.06066 
C -1.341951 -0.77937 -1.5 -0.397805 -1.5 0 
C -1.5 0.397805 -1.341951 0.77937 -1.06066 1.06066 
C -0.77937 1.341951 -0.397805 1.5 0 1.5 
z
" id="m9b45f1d262" style="stroke:#262626;stroke-opacity:0.5;"/>
    </defs>
    <g clip-path="url(#p7f13c0db3e)">
     <use style="fill:#ffffff;fill-opacity:0.5;stroke:#262626;stroke-opacity:0.5;" x="120.474191" xlink:href="#m9b45f1d262" y="174.528"/>
    </g>
   </g>
   <g id="text_8">
    <!-- Association of crpeakac vs. intubation -->
    <defs>
     <path d="M 34.1875 63.1875 
L 20.796875 26.90625 
L 47.609375 26.90625 
z
M 28.609375 72.90625 
L 39.796875 72.90625 
L 67.578125 0 
L 57.328125 0 
L 50.6875 18.703125 
L 17.828125 18.703125 
L 11.1875 0 
L 0.78125 0 
z
" id="DejaVuSans-65"/>
     <path d="M 44.28125 53.078125 
L 44.28125 44.578125 
Q 40.484375 46.53125 36.375 47.5 
Q 32.28125 48.484375 27.875 48.484375 
Q 21.1875 48.484375 17.84375 46.4375 
Q 14.5 44.390625 14.5 40.28125 
Q 14.5 37.15625 16.890625 35.375 
Q 19.28125 33.59375 26.515625 31.984375 
L 29.59375 31.296875 
Q 39.15625 29.25 43.1875 25.515625 
Q 47.21875 21.78125 47.21875 15.09375 
Q 47.21875 7.46875 41.1875 3.015625 
Q 35.15625 -1.421875 24.609375 -1.421875 
Q 20.21875 -1.421875 15.453125 -0.5625 
Q 10.6875 0.296875 5.421875 2 
L 5.421875 11.28125 
Q 10.40625 8.6875 15.234375 7.390625 
Q 20.0625 6.109375 24.8125 6.109375 
Q 31.15625 6.109375 34.5625 8.28125 
Q 37.984375 10.453125 37.984375 14.40625 
Q 37.984375 18.0625 35.515625 20.015625 
Q 33.0625 21.96875 24.703125 23.78125 
L 21.578125 24.515625 
Q 13.234375 26.265625 9.515625 29.90625 
Q 5.8125 33.546875 5.8125 39.890625 
Q 5.8125 47.609375 11.28125 51.796875 
Q 16.75 56 26.8125 56 
Q 31.78125 56 36.171875 55.265625 
Q 40.578125 54.546875 44.28125 53.078125 
z
" id="DejaVuSans-115"/>
     <path d="M 30.609375 48.390625 
Q 23.390625 48.390625 19.1875 42.75 
Q 14.984375 37.109375 14.984375 27.296875 
Q 14.984375 17.484375 19.15625 11.84375 
Q 23.34375 6.203125 30.609375 6.203125 
Q 37.796875 6.203125 41.984375 11.859375 
Q 46.1875 17.53125 46.1875 27.296875 
Q 46.1875 37.015625 41.984375 42.703125 
Q 37.796875 48.390625 30.609375 48.390625 
z
M 30.609375 56 
Q 42.328125 56 49.015625 48.375 
Q 55.71875 40.765625 55.71875 27.296875 
Q 55.71875 13.875 49.015625 6.21875 
Q 42.328125 -1.421875 30.609375 -1.421875 
Q 18.84375 -1.421875 12.171875 6.21875 
Q 5.515625 13.875 5.515625 27.296875 
Q 5.515625 40.765625 12.171875 48.375 
Q 18.84375 56 30.609375 56 
z
" id="DejaVuSans-111"/>
     <path d="M 9.421875 54.6875 
L 18.40625 54.6875 
L 18.40625 0 
L 9.421875 0 
z
M 9.421875 75.984375 
L 18.40625 75.984375 
L 18.40625 64.59375 
L 9.421875 64.59375 
z
" id="DejaVuSans-105"/>
     <path d="M 18.3125 70.21875 
L 18.3125 54.6875 
L 36.8125 54.6875 
L 36.8125 47.703125 
L 18.3125 47.703125 
L 18.3125 18.015625 
Q 18.3125 11.328125 20.140625 9.421875 
Q 21.96875 7.515625 27.59375 7.515625 
L 36.8125 7.515625 
L 36.8125 0 
L 27.59375 0 
Q 17.1875 0 13.234375 3.875 
Q 9.28125 7.765625 9.28125 18.015625 
L 9.28125 47.703125 
L 2.6875 47.703125 
L 2.6875 54.6875 
L 9.28125 54.6875 
L 9.28125 70.21875 
z
" id="DejaVuSans-116"/>
     <path d="M 54.890625 33.015625 
L 54.890625 0 
L 45.90625 0 
L 45.90625 32.71875 
Q 45.90625 40.484375 42.875 44.328125 
Q 39.84375 48.1875 33.796875 48.1875 
Q 26.515625 48.1875 22.3125 43.546875 
Q 18.109375 38.921875 18.109375 30.90625 
L 18.109375 0 
L 9.078125 0 
L 9.078125 54.6875 
L 18.109375 54.6875 
L 18.109375 46.1875 
Q 21.34375 51.125 25.703125 53.5625 
Q 30.078125 56 35.796875 56 
Q 45.21875 56 50.046875 50.171875 
Q 54.890625 44.34375 54.890625 33.015625 
z
" id="DejaVuSans-110"/>
     <path id="DejaVuSans-32"/>
     <path d="M 37.109375 75.984375 
L 37.109375 68.5 
L 28.515625 68.5 
Q 23.6875 68.5 21.796875 66.546875 
Q 19.921875 64.59375 19.921875 59.515625 
L 19.921875 54.6875 
L 34.71875 54.6875 
L 34.71875 47.703125 
L 19.921875 47.703125 
L 19.921875 0 
L 10.890625 0 
L 10.890625 47.703125 
L 2.296875 47.703125 
L 2.296875 54.6875 
L 10.890625 54.6875 
L 10.890625 58.5 
Q 10.890625 67.625 15.140625 71.796875 
Q 19.390625 75.984375 28.609375 75.984375 
z
" id="DejaVuSans-102"/>
     <path d="M 2.984375 54.6875 
L 12.5 54.6875 
L 29.59375 8.796875 
L 46.6875 54.6875 
L 56.203125 54.6875 
L 35.6875 0 
L 23.484375 0 
z
" id="DejaVuSans-118"/>
     <path d="M 10.6875 12.40625 
L 21 12.40625 
L 21 0 
L 10.6875 0 
z
" id="DejaVuSans-46"/>
     <path d="M 8.5 21.578125 
L 8.5 54.6875 
L 17.484375 54.6875 
L 17.484375 21.921875 
Q 17.484375 14.15625 20.5 10.265625 
Q 23.53125 6.390625 29.59375 6.390625 
Q 36.859375 6.390625 41.078125 11.03125 
Q 45.3125 15.671875 45.3125 23.6875 
L 45.3125 54.6875 
L 54.296875 54.6875 
L 54.296875 0 
L 45.3125 0 
L 45.3125 8.40625 
Q 42.046875 3.421875 37.71875 1 
Q 33.40625 -1.421875 27.6875 -1.421875 
Q 18.265625 -1.421875 13.375 4.4375 
Q 8.5 10.296875 8.5 21.578125 
z
M 31.109375 56 
z
" id="DejaVuSans-117"/>
     <path d="M 48.6875 27.296875 
Q 48.6875 37.203125 44.609375 42.84375 
Q 40.53125 48.484375 33.40625 48.484375 
Q 26.265625 48.484375 22.1875 42.84375 
Q 18.109375 37.203125 18.109375 27.296875 
Q 18.109375 17.390625 22.1875 11.75 
Q 26.265625 6.109375 33.40625 6.109375 
Q 40.53125 6.109375 44.609375 11.75 
Q 48.6875 17.390625 48.6875 27.296875 
z
M 18.109375 46.390625 
Q 20.953125 51.265625 25.265625 53.625 
Q 29.59375 56 35.59375 56 
Q 45.5625 56 51.78125 48.09375 
Q 58.015625 40.1875 58.015625 27.296875 
Q 58.015625 14.40625 51.78125 6.484375 
Q 45.5625 -1.421875 35.59375 -1.421875 
Q 29.59375 -1.421875 25.265625 0.953125 
Q 20.953125 3.328125 18.109375 8.203125 
L 18.109375 0 
L 9.078125 0 
L 9.078125 75.984375 
L 18.109375 75.984375 
z
" id="DejaVuSans-98"/>
    </defs>
    <g transform="translate(122.11125 35.472)scale(0.12 -0.12)">
     <use xlink:href="#DejaVuSans-65"/>
     <use x="68.408203" xlink:href="#DejaVuSans-115"/>
     <use x="120.507812" xlink:href="#DejaVuSans-115"/>
     <use x="172.607422" xlink:href="#DejaVuSans-111"/>
     <use x="233.789062" xlink:href="#DejaVuSans-99"/>
     <use x="288.769531" xlink:href="#DejaVuSans-105"/>
     <use x="316.552734" xlink:href="#DejaVuSans-97"/>
     <use x="377.832031" xlink:href="#DejaVuSans-116"/>
     <use x="417.041016" xlink:href="#DejaVuSans-105"/>
     <use x="444.824219" xlink:href="#DejaVuSans-111"/>
     <use x="506.005859" xlink:href="#DejaVuSans-110"/>
     <use x="569.384766" xlink:href="#DejaVuSans-32"/>
     <use x="601.171875" xlink:href="#DejaVuSans-111"/>
     <use x="662.353516" xlink:href="#DejaVuSans-102"/>
     <use x="697.558594" xlink:href="#DejaVuSans-32"/>
     <use x="729.345703" xlink:href="#DejaVuSans-99"/>
     <use x="784.326172" xlink:href="#DejaVuSans-114"/>
     <use x="825.439453" xlink:href="#DejaVuSans-112"/>
     <use x="888.916016" xlink:href="#DejaVuSans-101"/>
     <use x="950.439453" xlink:href="#DejaVuSans-97"/>
     <use x="1011.71875" xlink:href="#DejaVuSans-107"/>
     <use x="1067.878906" xlink:href="#DejaVuSans-97"/>
     <use x="1129.158203" xlink:href="#DejaVuSans-99"/>
     <use x="1184.138672" xlink:href="#DejaVuSans-32"/>
     <use x="1215.925781" xlink:href="#DejaVuSans-118"/>
     <use x="1275.105469" xlink:href="#DejaVuSans-115"/>
     <use x="1327.205078" xlink:href="#DejaVuSans-46"/>
     <use x="1358.992188" xlink:href="#DejaVuSans-32"/>
     <use x="1390.779297" xlink:href="#DejaVuSans-105"/>
     <use x="1418.5625" xlink:href="#DejaVuSans-110"/>
     <use x="1481.941406" xlink:href="#DejaVuSans-116"/>
     <use x="1521.150391" xlink:href="#DejaVuSans-117"/>
     <use x="1584.529297" xlink:href="#DejaVuSans-98"/>
     <use x="1648.005859" xlink:href="#DejaVuSans-97"/>
     <use x="1709.285156" xlink:href="#DejaVuSans-116"/>
     <use x="1748.494141" xlink:href="#DejaVuSans-105"/>
     <use x="1776.277344" xlink:href="#DejaVuSans-111"/>
     <use x="1837.458984" xlink:href="#DejaVuSans-110"/>
    </g>
   </g>
   <g id="legend_1">
    <g id="patch_7">
     <path d="M 273.948125 78.82825 
L 407.72 78.82825 
Q 409.72 78.82825 409.72 76.82825 
L 409.72 48.472 
Q 409.72 46.472 407.72 46.472 
L 273.948125 46.472 
Q 271.948125 46.472 271.948125 48.472 
L 271.948125 76.82825 
Q 271.948125 78.82825 273.948125 78.82825 
z
" style="fill:#ffffff;opacity:0.8;stroke:#cccccc;stroke-linejoin:miter;"/>
    </g>
    <g id="line2d_12">
     <path d="M 275.948125 54.570437 
L 295.948125 54.570437 
" style="fill:none;stroke:#ffa500;stroke-linecap:square;stroke-width:1.5;"/>
    </g>
    <g id="line2d_13"/>
    <g id="text_9">
     <!-- intubation (92) -->
     <defs>
      <path d="M 31 75.875 
Q 24.46875 64.65625 21.28125 53.65625 
Q 18.109375 42.671875 18.109375 31.390625 
Q 18.109375 20.125 21.3125 9.0625 
Q 24.515625 -2 31 -13.1875 
L 23.1875 -13.1875 
Q 15.875 -1.703125 12.234375 9.375 
Q 8.59375 20.453125 8.59375 31.390625 
Q 8.59375 42.28125 12.203125 53.3125 
Q 15.828125 64.359375 23.1875 75.875 
z
" id="DejaVuSans-40"/>
      <path d="M 10.984375 1.515625 
L 10.984375 10.5 
Q 14.703125 8.734375 18.5 7.8125 
Q 22.3125 6.890625 25.984375 6.890625 
Q 35.75 6.890625 40.890625 13.453125 
Q 46.046875 20.015625 46.78125 33.40625 
Q 43.953125 29.203125 39.59375 26.953125 
Q 35.25 24.703125 29.984375 24.703125 
Q 19.046875 24.703125 12.671875 31.3125 
Q 6.296875 37.9375 6.296875 49.421875 
Q 6.296875 60.640625 12.9375 67.421875 
Q 19.578125 74.21875 30.609375 74.21875 
Q 43.265625 74.21875 49.921875 64.515625 
Q 56.59375 54.828125 56.59375 36.375 
Q 56.59375 19.140625 48.40625 8.859375 
Q 40.234375 -1.421875 26.421875 -1.421875 
Q 22.703125 -1.421875 18.890625 -0.6875 
Q 15.09375 0.046875 10.984375 1.515625 
z
M 30.609375 32.421875 
Q 37.25 32.421875 41.125 36.953125 
Q 45.015625 41.5 45.015625 49.421875 
Q 45.015625 57.28125 41.125 61.84375 
Q 37.25 66.40625 30.609375 66.40625 
Q 23.96875 66.40625 20.09375 61.84375 
Q 16.21875 57.28125 16.21875 49.421875 
Q 16.21875 41.5 20.09375 36.953125 
Q 23.96875 32.421875 30.609375 32.421875 
z
" id="DejaVuSans-57"/>
      <path d="M 8.015625 75.875 
L 15.828125 75.875 
Q 23.140625 64.359375 26.78125 53.3125 
Q 30.421875 42.28125 30.421875 31.390625 
Q 30.421875 20.453125 26.78125 9.375 
Q 23.140625 -1.703125 15.828125 -13.1875 
L 8.015625 -13.1875 
Q 14.5 -2 17.703125 9.0625 
Q 20.90625 20.125 20.90625 31.390625 
Q 20.90625 42.671875 17.703125 53.65625 
Q 14.5 64.65625 8.015625 75.875 
z
" id="DejaVuSans-41"/>
     </defs>
     <g transform="translate(303.948125 58.070437)scale(0.1 -0.1)">
      <use xlink:href="#DejaVuSans-105"/>
      <use x="27.783203" xlink:href="#DejaVuSans-110"/>
      <use x="91.162109" xlink:href="#DejaVuSans-116"/>
      <use x="130.371094" xlink:href="#DejaVuSans-117"/>
      <use x="193.75" xlink:href="#DejaVuSans-98"/>
      <use x="257.226562" xlink:href="#DejaVuSans-97"/>
      <use x="318.505859" xlink:href="#DejaVuSans-116"/>
      <use x="357.714844" xlink:href="#DejaVuSans-105"/>
      <use x="385.498047" xlink:href="#DejaVuSans-111"/>
      <use x="446.679688" xlink:href="#DejaVuSans-110"/>
      <use x="510.058594" xlink:href="#DejaVuSans-32"/>
      <use x="541.845703" xlink:href="#DejaVuSans-40"/>
      <use x="580.859375" xlink:href="#DejaVuSans-57"/>
      <use x="644.482422" xlink:href="#DejaVuSans-50"/>
      <use x="708.105469" xlink:href="#DejaVuSans-41"/>
     </g>
    </g>
    <g id="line2d_14">
     <path d="M 275.948125 69.248562 
L 295.948125 69.248562 
" style="fill:none;stroke:#008000;stroke-linecap:square;stroke-width:1.5;"/>
    </g>
    <g id="line2d_15"/>
    <g id="text_10">
     <!-- Not intubation (260) -->
     <defs>
      <path d="M 9.8125 72.90625 
L 23.09375 72.90625 
L 55.421875 11.921875 
L 55.421875 72.90625 
L 64.984375 72.90625 
L 64.984375 0 
L 51.703125 0 
L 19.390625 60.984375 
L 19.390625 0 
L 9.8125 0 
z
" id="DejaVuSans-78"/>
      <path d="M 33.015625 40.375 
Q 26.375 40.375 22.484375 35.828125 
Q 18.609375 31.296875 18.609375 23.390625 
Q 18.609375 15.53125 22.484375 10.953125 
Q 26.375 6.390625 33.015625 6.390625 
Q 39.65625 6.390625 43.53125 10.953125 
Q 47.40625 15.53125 47.40625 23.390625 
Q 47.40625 31.296875 43.53125 35.828125 
Q 39.65625 40.375 33.015625 40.375 
z
M 52.59375 71.296875 
L 52.59375 62.3125 
Q 48.875 64.0625 45.09375 64.984375 
Q 41.3125 65.921875 37.59375 65.921875 
Q 27.828125 65.921875 22.671875 59.328125 
Q 17.53125 52.734375 16.796875 39.40625 
Q 19.671875 43.65625 24.015625 45.921875 
Q 28.375 48.1875 33.59375 48.1875 
Q 44.578125 48.1875 50.953125 41.515625 
Q 57.328125 34.859375 57.328125 23.390625 
Q 57.328125 12.15625 50.6875 5.359375 
Q 44.046875 -1.421875 33.015625 -1.421875 
Q 20.359375 -1.421875 13.671875 8.265625 
Q 6.984375 17.96875 6.984375 36.375 
Q 6.984375 53.65625 15.1875 63.9375 
Q 23.390625 74.21875 37.203125 74.21875 
Q 40.921875 74.21875 44.703125 73.484375 
Q 48.484375 72.75 52.59375 71.296875 
z
" id="DejaVuSans-54"/>
     </defs>
     <g transform="translate(303.948125 72.748562)scale(0.1 -0.1)">
      <use xlink:href="#DejaVuSans-78"/>
      <use x="74.804688" xlink:href="#DejaVuSans-111"/>
      <use x="135.986328" xlink:href="#DejaVuSans-116"/>
      <use x="175.195312" xlink:href="#DejaVuSans-32"/>
      <use x="206.982422" xlink:href="#DejaVuSans-105"/>
      <use x="234.765625" xlink:href="#DejaVuSans-110"/>
      <use x="298.144531" xlink:href="#DejaVuSans-116"/>
      <use x="337.353516" xlink:href="#DejaVuSans-117"/>
      <use x="400.732422" xlink:href="#DejaVuSans-98"/>
      <use x="464.208984" xlink:href="#DejaVuSans-97"/>
      <use x="525.488281" xlink:href="#DejaVuSans-116"/>
      <use x="564.697266" xlink:href="#DejaVuSans-105"/>
      <use x="592.480469" xlink:href="#DejaVuSans-111"/>
      <use x="653.662109" xlink:href="#DejaVuSans-110"/>
      <use x="717.041016" xlink:href="#DejaVuSans-32"/>
      <use x="748.828125" xlink:href="#DejaVuSans-40"/>
      <use x="787.841797" xlink:href="#DejaVuSans-50"/>
      <use x="851.464844" xlink:href="#DejaVuSans-54"/>
      <use x="915.087891" xlink:href="#DejaVuSans-48"/>
      <use x="978.710938" xlink:href="#DejaVuSans-41"/>
     </g>
    </g>
   </g>
  </g>
 </g>
 <defs>
  <clipPath id="p7f13c0db3e">
   <rect height="266.112" width="357.12" x="57.6" y="41.472"/>
  </clipPath>
 </defs>
</svg>
