<?xml version="1.0" encoding="utf-8" standalone="no"?>
<!DOCTYPE svg PUBLIC "-//W3C//DTD SVG 1.1//EN"
  "http://www.w3.org/Graphics/SVG/1.1/DTD/svg11.dtd">
<!-- Created with matplotlib (https://matplotlib.org/) -->
<svg height="345.6pt" version="1.1" viewBox="0 0 460.8 345.6" width="460.8pt" xmlns="http://www.w3.org/2000/svg" xmlns:xlink="http://www.w3.org/1999/xlink">
 <defs>
  <style type="text/css">
*{stroke-linecap:butt;stroke-linejoin:round;}
  </style>
 </defs>
 <g id="figure_1">
  <g id="patch_1">
   <path d="M 0 345.6 
L 460.8 345.6 
L 460.8 0 
L 0 0 
z
" style="fill:#ffffff;"/>
  </g>
  <g id="axes_1">
   <g id="patch_2">
    <path d="M 57.6 307.584 
L 414.72 307.584 
L 414.72 41.472 
L 57.6 41.472 
z
" style="fill:#ffffff;"/>
   </g>
   <g id="PolyCollection_1">
    <defs>
     <path d="M 73.832727 -154.737079 
L 73.832727 -187.406921 
L 77.112066 -189.872436 
L 80.391405 -192.599547 
L 83.670744 -195.596316 
L 86.950083 -198.867534 
L 90.229421 -202.414164 
L 93.50876 -206.232805 
L 96.788099 -210.315217 
L 100.067438 -214.647905 
L 103.346777 -219.211812 
L 106.626116 -223.982108 
L 109.905455 -228.928128 
L 113.184793 -234.013452 
L 116.464132 -239.196149 
L 119.743471 -244.429191 
L 123.02281 -249.66104 
L 126.302149 -254.836399 
L 129.581488 -259.897124 
L 132.860826 -264.78327 
L 136.140165 -269.434257 
L 139.419504 -273.790118 
L 142.698843 -277.792805 
L 145.978182 -281.387502 
L 149.257521 -284.523917 
L 152.53686 -287.157503 
L 155.816198 -289.250578 
L 159.095537 -290.773294 
L 162.374876 -291.704435 
L 165.654215 -292.032 
L 168.933554 -291.753574 
L 172.212893 -290.876447 
L 175.492231 -289.417495 
L 178.77157 -287.40282 
L 182.050909 -284.86716 
L 185.330248 -281.853092 
L 188.609587 -278.410051 
L 191.888926 -274.593194 
L 195.168264 -270.462157 
L 198.447603 -266.079729 
L 201.726942 -261.510493 
L 205.006281 -256.819472 
L 208.28562 -252.070805 
L 211.564959 -247.326512 
L 214.844298 -242.645352 
L 218.123636 -238.081814 
L 221.402975 -233.685255 
L 224.682314 -229.499199 
L 227.961653 -225.560804 
L 231.240992 -221.900499 
L 234.520331 -218.541789 
L 237.799669 -215.501216 
L 241.079008 -212.788477 
L 244.358347 -210.406663 
L 247.637686 -208.352629 
L 250.917025 -206.617462 
L 254.196364 -205.187027 
L 257.475702 -204.042587 
L 260.755041 -203.161466 
L 264.03438 -202.517752 
L 267.313719 -202.083005 
L 270.593058 -201.826978 
L 273.872397 -201.718324 
L 277.151736 -201.725278 
L 280.431074 -201.816311 
L 283.710413 -201.960734 
L 286.989752 -202.129258 
L 290.269091 -202.294491 
L 293.54843 -202.43137 
L 296.827769 -202.517523 
L 300.107107 -202.533557 
L 303.386446 -202.463269 
L 306.665785 -202.293778 
L 309.945124 -202.01558 
L 313.224463 -201.62253 
L 316.503802 -201.111744 
L 319.78314 -200.48344 
L 323.062479 -199.740722 
L 326.341818 -198.889301 
L 329.621157 -197.937181 
L 332.900496 -196.89431 
L 336.179835 -195.77221 
L 339.459174 -194.583588 
L 342.738512 -193.341955 
L 346.017851 -192.061251 
L 349.29719 -190.755487 
L 352.576529 -189.438414 
L 355.855868 -188.123231 
L 359.135207 -186.822324 
L 362.414545 -185.54706 
L 365.693884 -184.307614 
L 368.973223 -183.112853 
L 372.252562 -181.970259 
L 375.531901 -180.885897 
L 378.81124 -179.864423 
L 382.090579 -178.909129 
L 385.369917 -178.022013 
L 388.649256 -177.203878 
L 391.928595 -176.454449 
L 395.207934 -175.772503 
L 398.487273 -175.156005 
L 398.487273 -166.987995 
L 398.487273 -166.987995 
L 395.207934 -166.371497 
L 391.928595 -165.689551 
L 388.649256 -164.940122 
L 385.369917 -164.121987 
L 382.090579 -163.234871 
L 378.81124 -162.279577 
L 375.531901 -161.258103 
L 372.252562 -160.173741 
L 368.973223 -159.031147 
L 365.693884 -157.836386 
L 362.414545 -156.59694 
L 359.135207 -155.321676 
L 355.855868 -154.020769 
L 352.576529 -152.705586 
L 349.29719 -151.388513 
L 346.017851 -150.082749 
L 342.738512 -148.802045 
L 339.459174 -147.560412 
L 336.179835 -146.37179 
L 332.900496 -145.24969 
L 329.621157 -144.206819 
L 326.341818 -143.254699 
L 323.062479 -142.403278 
L 319.78314 -141.66056 
L 316.503802 -141.032256 
L 313.224463 -140.52147 
L 309.945124 -140.12842 
L 306.665785 -139.850222 
L 303.386446 -139.680731 
L 300.107107 -139.610443 
L 296.827769 -139.626477 
L 293.54843 -139.71263 
L 290.269091 -139.849509 
L 286.989752 -140.014742 
L 283.710413 -140.183266 
L 280.431074 -140.327689 
L 277.151736 -140.418722 
L 273.872397 -140.425676 
L 270.593058 -140.317022 
L 267.313719 -140.060995 
L 264.03438 -139.626248 
L 260.755041 -138.982534 
L 257.475702 -138.101413 
L 254.196364 -136.956973 
L 250.917025 -135.526538 
L 247.637686 -133.791371 
L 244.358347 -131.737337 
L 241.079008 -129.355523 
L 237.799669 -126.642784 
L 234.520331 -123.602211 
L 231.240992 -120.243501 
L 227.961653 -116.583196 
L 224.682314 -112.644801 
L 221.402975 -108.458745 
L 218.123636 -104.062186 
L 214.844298 -99.498648 
L 211.564959 -94.817488 
L 208.28562 -90.073195 
L 205.006281 -85.324528 
L 201.726942 -80.633507 
L 198.447603 -76.064271 
L 195.168264 -71.681843 
L 191.888926 -67.550806 
L 188.609587 -63.733949 
L 185.330248 -60.290908 
L 182.050909 -57.27684 
L 178.77157 -54.74118 
L 175.492231 -52.726505 
L 172.212893 -51.267553 
L 168.933554 -50.390426 
L 165.654215 -50.112 
L 162.374876 -50.439565 
L 159.095537 -51.370706 
L 155.816198 -52.893422 
L 152.53686 -54.986497 
L 149.257521 -57.620083 
L 145.978182 -60.756498 
L 142.698843 -64.351195 
L 139.419504 -68.353882 
L 136.140165 -72.709743 
L 132.860826 -77.36073 
L 129.581488 -82.246876 
L 126.302149 -87.307601 
L 123.02281 -92.48296 
L 119.743471 -97.714809 
L 116.464132 -102.947851 
L 113.184793 -108.130548 
L 109.905455 -113.215872 
L 106.626116 -118.161892 
L 103.346777 -122.932188 
L 100.067438 -127.496095 
L 96.788099 -131.828783 
L 93.50876 -135.911195 
L 90.229421 -139.729836 
L 86.950083 -143.276466 
L 83.670744 -146.547684 
L 80.391405 -149.544453 
L 77.112066 -152.271564 
L 73.832727 -154.737079 
z
" id="m09651a5073" style="stroke:#4c4c4c;stroke-opacity:0.5;stroke-width:1.5;"/>
    </defs>
    <g clip-path="url(#p5fc889a122)">
     <use style="fill:#df9c20;fill-opacity:0.5;stroke:#4c4c4c;stroke-opacity:0.5;stroke-width:1.5;" x="0" xlink:href="#m09651a5073" y="345.6"/>
    </g>
   </g>
   <g id="PolyCollection_2">
    <defs>
     <path d="M 151.111423 -154.929866 
L 151.111423 -187.214134 
L 153.165566 -198.541244 
L 155.219709 -214.154875 
L 157.273852 -233.355964 
L 159.327995 -254.080568 
L 161.382138 -273.08088 
L 163.436281 -286.700954 
L 165.490423 -292.032 
L 167.544566 -287.954894 
L 169.598709 -275.559251 
L 171.652852 -257.724129 
L 173.706995 -238.079451 
L 175.761138 -219.857592 
L 177.815281 -205.121158 
L 179.869424 -194.576262 
L 181.923567 -187.864671 
L 183.97771 -184.060646 
L 186.031852 -182.121092 
L 188.085995 -181.165927 
L 190.140138 -180.587792 
L 192.194281 -180.048334 
L 194.248424 -179.419216 
L 196.302567 -178.705112 
L 198.35671 -177.969442 
L 200.410853 -177.276588 
L 202.464996 -176.659871 
L 204.519139 -176.117263 
L 206.573281 -175.627615 
L 208.627424 -175.173853 
L 210.681567 -174.759503 
L 212.73571 -174.410908 
L 214.789853 -174.166031 
L 216.843996 -174.057228 
L 218.898139 -174.096758 
L 220.952282 -174.270408 
L 223.006425 -174.539519 
L 225.060567 -174.848525 
L 227.11471 -175.134989 
L 229.168853 -175.340645 
L 231.222996 -175.422462 
L 233.277139 -175.361589 
L 235.331282 -175.16678 
L 237.385425 -174.869892 
L 239.439568 -174.51453 
L 241.493711 -174.142477 
L 243.547854 -173.783572 
L 245.601996 -173.452452 
L 247.656139 -173.151844 
L 249.710282 -172.879251 
L 251.764425 -172.633119 
L 253.818568 -172.415898 
L 255.872711 -172.233479 
L 257.926854 -172.092296 
L 259.980997 -171.996022 
L 262.03514 -171.943249 
L 264.089283 -171.926673 
L 266.143425 -171.93369 
L 268.197568 -171.94834 
L 270.251711 -171.954646 
L 272.305854 -171.941019 
L 274.359997 -171.904508 
L 276.41414 -171.852849 
L 278.468283 -171.802637 
L 280.522426 -171.773559 
L 282.576569 -171.780816 
L 284.630712 -171.829081 
L 286.684854 -171.910705 
L 288.738997 -172.008697 
L 290.79314 -172.102654 
L 292.847283 -172.174774 
L 294.901426 -172.21373 
L 296.955569 -172.21581 
L 299.009712 -172.183969 
L 301.063855 -172.125821 
L 303.117998 -172.051193 
L 305.172141 -171.969586 
L 307.226283 -171.887939 
L 309.280426 -171.809292 
L 311.334569 -171.732909 
L 313.388712 -171.655896 
L 315.442855 -171.575663 
L 317.496998 -171.492161 
L 319.551141 -171.408908 
L 321.605284 -171.332422 
L 323.659427 -171.270445 
L 325.71357 -171.229761 
L 327.767712 -171.214346 
L 329.821855 -171.224177 
L 331.875998 -171.254741 
L 333.930141 -171.297351 
L 335.984284 -171.340504 
L 338.038427 -171.372346 
L 340.09257 -171.383765 
L 342.146713 -171.370983 
L 344.200856 -171.336461 
L 346.254999 -171.28763 
L 348.309141 -171.234029 
L 350.363284 -171.184195 
L 352.417427 -171.143588 
L 354.47157 -171.11409 
L 354.47157 -171.02991 
L 354.47157 -171.02991 
L 352.417427 -171.000412 
L 350.363284 -170.959805 
L 348.309141 -170.909971 
L 346.254999 -170.85637 
L 344.200856 -170.807539 
L 342.146713 -170.773017 
L 340.09257 -170.760235 
L 338.038427 -170.771654 
L 335.984284 -170.803496 
L 333.930141 -170.846649 
L 331.875998 -170.889259 
L 329.821855 -170.919823 
L 327.767712 -170.929654 
L 325.71357 -170.914239 
L 323.659427 -170.873555 
L 321.605284 -170.811578 
L 319.551141 -170.735092 
L 317.496998 -170.651839 
L 315.442855 -170.568337 
L 313.388712 -170.488104 
L 311.334569 -170.411091 
L 309.280426 -170.334708 
L 307.226283 -170.256061 
L 305.172141 -170.174414 
L 303.117998 -170.092807 
L 301.063855 -170.018179 
L 299.009712 -169.960031 
L 296.955569 -169.92819 
L 294.901426 -169.93027 
L 292.847283 -169.969226 
L 290.79314 -170.041346 
L 288.738997 -170.135303 
L 286.684854 -170.233295 
L 284.630712 -170.314919 
L 282.576569 -170.363184 
L 280.522426 -170.370441 
L 278.468283 -170.341363 
L 276.41414 -170.291151 
L 274.359997 -170.239492 
L 272.305854 -170.202981 
L 270.251711 -170.189354 
L 268.197568 -170.19566 
L 266.143425 -170.21031 
L 264.089283 -170.217327 
L 262.03514 -170.200751 
L 259.980997 -170.147978 
L 257.926854 -170.051704 
L 255.872711 -169.910521 
L 253.818568 -169.728102 
L 251.764425 -169.510881 
L 249.710282 -169.264749 
L 247.656139 -168.992156 
L 245.601996 -168.691548 
L 243.547854 -168.360428 
L 241.493711 -168.001523 
L 239.439568 -167.62947 
L 237.385425 -167.274108 
L 235.331282 -166.97722 
L 233.277139 -166.782411 
L 231.222996 -166.721538 
L 229.168853 -166.803355 
L 227.11471 -167.009011 
L 225.060567 -167.295475 
L 223.006425 -167.604481 
L 220.952282 -167.873592 
L 218.898139 -168.047242 
L 216.843996 -168.086772 
L 214.789853 -167.977969 
L 212.73571 -167.733092 
L 210.681567 -167.384497 
L 208.627424 -166.970147 
L 206.573281 -166.516385 
L 204.519139 -166.026737 
L 202.464996 -165.484129 
L 200.410853 -164.867412 
L 198.35671 -164.174558 
L 196.302567 -163.438888 
L 194.248424 -162.724784 
L 192.194281 -162.095666 
L 190.140138 -161.556208 
L 188.085995 -160.978073 
L 186.031852 -160.022908 
L 183.97771 -158.083354 
L 181.923567 -154.279329 
L 179.869424 -147.567738 
L 177.815281 -137.022842 
L 175.761138 -122.286408 
L 173.706995 -104.064549 
L 171.652852 -84.419871 
L 169.598709 -66.584749 
L 167.544566 -54.189106 
L 165.490423 -50.112 
L 163.436281 -55.443046 
L 161.382138 -69.06312 
L 159.327995 -88.063432 
L 157.273852 -108.788036 
L 155.219709 -127.989125 
L 153.165566 -143.602756 
L 151.111423 -154.929866 
z
" id="m727c249746" style="stroke:#262626;stroke-opacity:0.5;stroke-width:1.5;"/>
    </defs>
    <g clip-path="url(#p5fc889a122)">
     <use style="fill:#107010;fill-opacity:0.5;stroke:#262626;stroke-opacity:0.5;stroke-width:1.5;" x="0" xlink:href="#m727c249746" y="345.6"/>
    </g>
   </g>
   <g id="matplotlib.axis_1">
    <g id="xtick_1">
     <g id="line2d_1">
      <defs>
       <path d="M 0 0 
L 0 3.5 
" id="m7366742294" style="stroke:#000000;stroke-width:0.8;"/>
      </defs>
      <g>
       <use style="stroke:#000000;stroke-width:0.8;" x="82.318656" xlink:href="#m7366742294" y="307.584"/>
      </g>
     </g>
     <g id="text_1">
      <!-- −10 -->
      <defs>
       <path d="M 10.59375 35.5 
L 73.1875 35.5 
L 73.1875 27.203125 
L 10.59375 27.203125 
z
" id="DejaVuSans-8722"/>
       <path d="M 12.40625 8.296875 
L 28.515625 8.296875 
L 28.515625 63.921875 
L 10.984375 60.40625 
L 10.984375 69.390625 
L 28.421875 72.90625 
L 38.28125 72.90625 
L 38.28125 8.296875 
L 54.390625 8.296875 
L 54.390625 0 
L 12.40625 0 
z
" id="DejaVuSans-49"/>
       <path d="M 31.78125 66.40625 
Q 24.171875 66.40625 20.328125 58.90625 
Q 16.5 51.421875 16.5 36.375 
Q 16.5 21.390625 20.328125 13.890625 
Q 24.171875 6.390625 31.78125 6.390625 
Q 39.453125 6.390625 43.28125 13.890625 
Q 47.125 21.390625 47.125 36.375 
Q 47.125 51.421875 43.28125 58.90625 
Q 39.453125 66.40625 31.78125 66.40625 
z
M 31.78125 74.21875 
Q 44.046875 74.21875 50.515625 64.515625 
Q 56.984375 54.828125 56.984375 36.375 
Q 56.984375 17.96875 50.515625 8.265625 
Q 44.046875 -1.421875 31.78125 -1.421875 
Q 19.53125 -1.421875 13.0625 8.265625 
Q 6.59375 17.96875 6.59375 36.375 
Q 6.59375 54.828125 13.0625 64.515625 
Q 19.53125 74.21875 31.78125 74.21875 
z
" id="DejaVuSans-48"/>
      </defs>
      <g transform="translate(71.766312 322.182437)scale(0.1 -0.1)">
       <use xlink:href="#DejaVuSans-8722"/>
       <use x="83.789062" xlink:href="#DejaVuSans-49"/>
       <use x="147.412109" xlink:href="#DejaVuSans-48"/>
      </g>
     </g>
    </g>
    <g id="xtick_2">
     <g id="line2d_2">
      <g>
       <use style="stroke:#000000;stroke-width:0.8;" x="123.897398" xlink:href="#m7366742294" y="307.584"/>
      </g>
     </g>
     <g id="text_2">
      <!-- −5 -->
      <defs>
       <path d="M 10.796875 72.90625 
L 49.515625 72.90625 
L 49.515625 64.59375 
L 19.828125 64.59375 
L 19.828125 46.734375 
Q 21.96875 47.46875 24.109375 47.828125 
Q 26.265625 48.1875 28.421875 48.1875 
Q 40.625 48.1875 47.75 41.5 
Q 54.890625 34.8125 54.890625 23.390625 
Q 54.890625 11.625 47.5625 5.09375 
Q 40.234375 -1.421875 26.90625 -1.421875 
Q 22.3125 -1.421875 17.546875 -0.640625 
Q 12.796875 0.140625 7.71875 1.703125 
L 7.71875 11.625 
Q 12.109375 9.234375 16.796875 8.0625 
Q 21.484375 6.890625 26.703125 6.890625 
Q 35.15625 6.890625 40.078125 11.328125 
Q 45.015625 15.765625 45.015625 23.390625 
Q 45.015625 31 40.078125 35.4375 
Q 35.15625 39.890625 26.703125 39.890625 
Q 22.75 39.890625 18.8125 39.015625 
Q 14.890625 38.140625 10.796875 36.28125 
z
" id="DejaVuSans-53"/>
      </defs>
      <g transform="translate(116.526304 322.182437)scale(0.1 -0.1)">
       <use xlink:href="#DejaVuSans-8722"/>
       <use x="83.789062" xlink:href="#DejaVuSans-53"/>
      </g>
     </g>
    </g>
    <g id="xtick_3">
     <g id="line2d_3">
      <g>
       <use style="stroke:#000000;stroke-width:0.8;" x="165.476139" xlink:href="#m7366742294" y="307.584"/>
      </g>
     </g>
     <g id="text_3">
      <!-- 0 -->
      <g transform="translate(162.294889 322.182437)scale(0.1 -0.1)">
       <use xlink:href="#DejaVuSans-48"/>
      </g>
     </g>
    </g>
    <g id="xtick_4">
     <g id="line2d_4">
      <g>
       <use style="stroke:#000000;stroke-width:0.8;" x="207.054881" xlink:href="#m7366742294" y="307.584"/>
      </g>
     </g>
     <g id="text_4">
      <!-- 5 -->
      <g transform="translate(203.873631 322.182437)scale(0.1 -0.1)">
       <use xlink:href="#DejaVuSans-53"/>
      </g>
     </g>
    </g>
    <g id="xtick_5">
     <g id="line2d_5">
      <g>
       <use style="stroke:#000000;stroke-width:0.8;" x="248.633622" xlink:href="#m7366742294" y="307.584"/>
      </g>
     </g>
     <g id="text_5">
      <!-- 10 -->
      <g transform="translate(242.271122 322.182437)scale(0.1 -0.1)">
       <use xlink:href="#DejaVuSans-49"/>
       <use x="63.623047" xlink:href="#DejaVuSans-48"/>
      </g>
     </g>
    </g>
    <g id="xtick_6">
     <g id="line2d_6">
      <g>
       <use style="stroke:#000000;stroke-width:0.8;" x="290.212364" xlink:href="#m7366742294" y="307.584"/>
      </g>
     </g>
     <g id="text_6">
      <!-- 15 -->
      <g transform="translate(283.849864 322.182437)scale(0.1 -0.1)">
       <use xlink:href="#DejaVuSans-49"/>
       <use x="63.623047" xlink:href="#DejaVuSans-53"/>
      </g>
     </g>
    </g>
    <g id="xtick_7">
     <g id="line2d_7">
      <g>
       <use style="stroke:#000000;stroke-width:0.8;" x="331.791106" xlink:href="#m7366742294" y="307.584"/>
      </g>
     </g>
     <g id="text_7">
      <!-- 20 -->
      <defs>
       <path d="M 19.1875 8.296875 
L 53.609375 8.296875 
L 53.609375 0 
L 7.328125 0 
L 7.328125 8.296875 
Q 12.9375 14.109375 22.625 23.890625 
Q 32.328125 33.6875 34.8125 36.53125 
Q 39.546875 41.84375 41.421875 45.53125 
Q 43.3125 49.21875 43.3125 52.78125 
Q 43.3125 58.59375 39.234375 62.25 
Q 35.15625 65.921875 28.609375 65.921875 
Q 23.96875 65.921875 18.8125 64.3125 
Q 13.671875 62.703125 7.8125 59.421875 
L 7.8125 69.390625 
Q 13.765625 71.78125 18.9375 73 
Q 24.125 74.21875 28.421875 74.21875 
Q 39.75 74.21875 46.484375 68.546875 
Q 53.21875 62.890625 53.21875 53.421875 
Q 53.21875 48.921875 51.53125 44.890625 
Q 49.859375 40.875 45.40625 35.40625 
Q 44.1875 33.984375 37.640625 27.21875 
Q 31.109375 20.453125 19.1875 8.296875 
z
" id="DejaVuSans-50"/>
      </defs>
      <g transform="translate(325.428606 322.182437)scale(0.1 -0.1)">
       <use xlink:href="#DejaVuSans-50"/>
       <use x="63.623047" xlink:href="#DejaVuSans-48"/>
      </g>
     </g>
    </g>
    <g id="xtick_8">
     <g id="line2d_8">
      <g>
       <use style="stroke:#000000;stroke-width:0.8;" x="373.369847" xlink:href="#m7366742294" y="307.584"/>
      </g>
     </g>
     <g id="text_8">
      <!-- 25 -->
      <g transform="translate(367.007347 322.182437)scale(0.1 -0.1)">
       <use xlink:href="#DejaVuSans-50"/>
       <use x="63.623047" xlink:href="#DejaVuSans-53"/>
      </g>
     </g>
    </g>
    <g id="text_9">
     <!-- pressors_days -->
     <defs>
      <path d="M 18.109375 8.203125 
L 18.109375 -20.796875 
L 9.078125 -20.796875 
L 9.078125 54.6875 
L 18.109375 54.6875 
L 18.109375 46.390625 
Q 20.953125 51.265625 25.265625 53.625 
Q 29.59375 56 35.59375 56 
Q 45.5625 56 51.78125 48.09375 
Q 58.015625 40.1875 58.015625 27.296875 
Q 58.015625 14.40625 51.78125 6.484375 
Q 45.5625 -1.421875 35.59375 -1.421875 
Q 29.59375 -1.421875 25.265625 0.953125 
Q 20.953125 3.328125 18.109375 8.203125 
z
M 48.6875 27.296875 
Q 48.6875 37.203125 44.609375 42.84375 
Q 40.53125 48.484375 33.40625 48.484375 
Q 26.265625 48.484375 22.1875 42.84375 
Q 18.109375 37.203125 18.109375 27.296875 
Q 18.109375 17.390625 22.1875 11.75 
Q 26.265625 6.109375 33.40625 6.109375 
Q 40.53125 6.109375 44.609375 11.75 
Q 48.6875 17.390625 48.6875 27.296875 
z
" id="DejaVuSans-112"/>
      <path d="M 41.109375 46.296875 
Q 39.59375 47.171875 37.8125 47.578125 
Q 36.03125 48 33.890625 48 
Q 26.265625 48 22.1875 43.046875 
Q 18.109375 38.09375 18.109375 28.8125 
L 18.109375 0 
L 9.078125 0 
L 9.078125 54.6875 
L 18.109375 54.6875 
L 18.109375 46.1875 
Q 20.953125 51.171875 25.484375 53.578125 
Q 30.03125 56 36.53125 56 
Q 37.453125 56 38.578125 55.875 
Q 39.703125 55.765625 41.0625 55.515625 
z
" id="DejaVuSans-114"/>
      <path d="M 56.203125 29.59375 
L 56.203125 25.203125 
L 14.890625 25.203125 
Q 15.484375 15.921875 20.484375 11.0625 
Q 25.484375 6.203125 34.421875 6.203125 
Q 39.59375 6.203125 44.453125 7.46875 
Q 49.3125 8.734375 54.109375 11.28125 
L 54.109375 2.78125 
Q 49.265625 0.734375 44.1875 -0.34375 
Q 39.109375 -1.421875 33.890625 -1.421875 
Q 20.796875 -1.421875 13.15625 6.1875 
Q 5.515625 13.8125 5.515625 26.8125 
Q 5.515625 40.234375 12.765625 48.109375 
Q 20.015625 56 32.328125 56 
Q 43.359375 56 49.78125 48.890625 
Q 56.203125 41.796875 56.203125 29.59375 
z
M 47.21875 32.234375 
Q 47.125 39.59375 43.09375 43.984375 
Q 39.0625 48.390625 32.421875 48.390625 
Q 24.90625 48.390625 20.390625 44.140625 
Q 15.875 39.890625 15.1875 32.171875 
z
" id="DejaVuSans-101"/>
      <path d="M 44.28125 53.078125 
L 44.28125 44.578125 
Q 40.484375 46.53125 36.375 47.5 
Q 32.28125 48.484375 27.875 48.484375 
Q 21.1875 48.484375 17.84375 46.4375 
Q 14.5 44.390625 14.5 40.28125 
Q 14.5 37.15625 16.890625 35.375 
Q 19.28125 33.59375 26.515625 31.984375 
L 29.59375 31.296875 
Q 39.15625 29.25 43.1875 25.515625 
Q 47.21875 21.78125 47.21875 15.09375 
Q 47.21875 7.46875 41.1875 3.015625 
Q 35.15625 -1.421875 24.609375 -1.421875 
Q 20.21875 -1.421875 15.453125 -0.5625 
Q 10.6875 0.296875 5.421875 2 
L 5.421875 11.28125 
Q 10.40625 8.6875 15.234375 7.390625 
Q 20.0625 6.109375 24.8125 6.109375 
Q 31.15625 6.109375 34.5625 8.28125 
Q 37.984375 10.453125 37.984375 14.40625 
Q 37.984375 18.0625 35.515625 20.015625 
Q 33.0625 21.96875 24.703125 23.78125 
L 21.578125 24.515625 
Q 13.234375 26.265625 9.515625 29.90625 
Q 5.8125 33.546875 5.8125 39.890625 
Q 5.8125 47.609375 11.28125 51.796875 
Q 16.75 56 26.8125 56 
Q 31.78125 56 36.171875 55.265625 
Q 40.578125 54.546875 44.28125 53.078125 
z
" id="DejaVuSans-115"/>
      <path d="M 30.609375 48.390625 
Q 23.390625 48.390625 19.1875 42.75 
Q 14.984375 37.109375 14.984375 27.296875 
Q 14.984375 17.484375 19.15625 11.84375 
Q 23.34375 6.203125 30.609375 6.203125 
Q 37.796875 6.203125 41.984375 11.859375 
Q 46.1875 17.53125 46.1875 27.296875 
Q 46.1875 37.015625 41.984375 42.703125 
Q 37.796875 48.390625 30.609375 48.390625 
z
M 30.609375 56 
Q 42.328125 56 49.015625 48.375 
Q 55.71875 40.765625 55.71875 27.296875 
Q 55.71875 13.875 49.015625 6.21875 
Q 42.328125 -1.421875 30.609375 -1.421875 
Q 18.84375 -1.421875 12.171875 6.21875 
Q 5.515625 13.875 5.515625 27.296875 
Q 5.515625 40.765625 12.171875 48.375 
Q 18.84375 56 30.609375 56 
z
" id="DejaVuSans-111"/>
      <path d="M 50.984375 -16.609375 
L 50.984375 -23.578125 
L -0.984375 -23.578125 
L -0.984375 -16.609375 
z
" id="DejaVuSans-95"/>
      <path d="M 45.40625 46.390625 
L 45.40625 75.984375 
L 54.390625 75.984375 
L 54.390625 0 
L 45.40625 0 
L 45.40625 8.203125 
Q 42.578125 3.328125 38.25 0.953125 
Q 33.9375 -1.421875 27.875 -1.421875 
Q 17.96875 -1.421875 11.734375 6.484375 
Q 5.515625 14.40625 5.515625 27.296875 
Q 5.515625 40.1875 11.734375 48.09375 
Q 17.96875 56 27.875 56 
Q 33.9375 56 38.25 53.625 
Q 42.578125 51.265625 45.40625 46.390625 
z
M 14.796875 27.296875 
Q 14.796875 17.390625 18.875 11.75 
Q 22.953125 6.109375 30.078125 6.109375 
Q 37.203125 6.109375 41.296875 11.75 
Q 45.40625 17.390625 45.40625 27.296875 
Q 45.40625 37.203125 41.296875 42.84375 
Q 37.203125 48.484375 30.078125 48.484375 
Q 22.953125 48.484375 18.875 42.84375 
Q 14.796875 37.203125 14.796875 27.296875 
z
" id="DejaVuSans-100"/>
      <path d="M 34.28125 27.484375 
Q 23.390625 27.484375 19.1875 25 
Q 14.984375 22.515625 14.984375 16.5 
Q 14.984375 11.71875 18.140625 8.90625 
Q 21.296875 6.109375 26.703125 6.109375 
Q 34.1875 6.109375 38.703125 11.40625 
Q 43.21875 16.703125 43.21875 25.484375 
L 43.21875 27.484375 
z
M 52.203125 31.203125 
L 52.203125 0 
L 43.21875 0 
L 43.21875 8.296875 
Q 40.140625 3.328125 35.546875 0.953125 
Q 30.953125 -1.421875 24.3125 -1.421875 
Q 15.921875 -1.421875 10.953125 3.296875 
Q 6 8.015625 6 15.921875 
Q 6 25.140625 12.171875 29.828125 
Q 18.359375 34.515625 30.609375 34.515625 
L 43.21875 34.515625 
L 43.21875 35.40625 
Q 43.21875 41.609375 39.140625 45 
Q 35.0625 48.390625 27.6875 48.390625 
Q 23 48.390625 18.546875 47.265625 
Q 14.109375 46.140625 10.015625 43.890625 
L 10.015625 52.203125 
Q 14.9375 54.109375 19.578125 55.046875 
Q 24.21875 56 28.609375 56 
Q 40.484375 56 46.34375 49.84375 
Q 52.203125 43.703125 52.203125 31.203125 
z
" id="DejaVuSans-97"/>
      <path d="M 32.171875 -5.078125 
Q 28.375 -14.84375 24.75 -17.8125 
Q 21.140625 -20.796875 15.09375 -20.796875 
L 7.90625 -20.796875 
L 7.90625 -13.28125 
L 13.1875 -13.28125 
Q 16.890625 -13.28125 18.9375 -11.515625 
Q 21 -9.765625 23.484375 -3.21875 
L 25.09375 0.875 
L 2.984375 54.6875 
L 12.5 54.6875 
L 29.59375 11.921875 
L 46.6875 54.6875 
L 56.203125 54.6875 
z
" id="DejaVuSans-121"/>
     </defs>
     <g transform="translate(200.735 335.860562)scale(0.1 -0.1)">
      <use xlink:href="#DejaVuSans-112"/>
      <use x="63.476562" xlink:href="#DejaVuSans-114"/>
      <use x="102.339844" xlink:href="#DejaVuSans-101"/>
      <use x="163.863281" xlink:href="#DejaVuSans-115"/>
      <use x="215.962891" xlink:href="#DejaVuSans-115"/>
      <use x="268.0625" xlink:href="#DejaVuSans-111"/>
      <use x="329.244141" xlink:href="#DejaVuSans-114"/>
      <use x="370.357422" xlink:href="#DejaVuSans-115"/>
      <use x="422.457031" xlink:href="#DejaVuSans-95"/>
      <use x="472.457031" xlink:href="#DejaVuSans-100"/>
      <use x="535.933594" xlink:href="#DejaVuSans-97"/>
      <use x="597.212891" xlink:href="#DejaVuSans-121"/>
      <use x="656.392578" xlink:href="#DejaVuSans-115"/>
     </g>
    </g>
   </g>
   <g id="matplotlib.axis_2">
    <g id="ytick_1">
     <g id="line2d_9">
      <defs>
       <path d="M 0 0 
L -3.5 0 
" id="m4f65ac7a78" style="stroke:#000000;stroke-width:0.8;"/>
      </defs>
      <g>
       <use style="stroke:#000000;stroke-width:0.8;" x="57.6" xlink:href="#m4f65ac7a78" y="174.528"/>
      </g>
     </g>
    </g>
   </g>
   <g id="line2d_10">
    <path clip-path="url(#p5fc889a122)" d="M 165.476139 174.528 
L 165.476139 174.528 
" style="fill:none;stroke:#ffa500;stroke-linecap:square;stroke-width:1.5;"/>
   </g>
   <g id="line2d_11">
    <path clip-path="url(#p5fc889a122)" d="M 165.476139 174.528 
L 165.476139 174.528 
" style="fill:none;stroke:#4c4c4c;stroke-linecap:square;stroke-width:4.5;"/>
   </g>
   <g id="line2d_12">
    <path clip-path="url(#p5fc889a122)" d="M 165.476139 174.528 
L 165.476139 174.528 
" style="fill:none;stroke:#008000;stroke-linecap:square;stroke-width:1.5;"/>
   </g>
   <g id="line2d_13">
    <path clip-path="url(#p5fc889a122)" d="M 165.476139 174.528 
L 165.476139 174.528 
" style="fill:none;stroke:#262626;stroke-linecap:square;stroke-width:4.5;"/>
   </g>
   <g id="patch_3">
    <path d="M 57.6 307.584 
L 57.6 41.472 
" style="fill:none;stroke:#000000;stroke-linecap:square;stroke-linejoin:miter;stroke-width:0.8;"/>
   </g>
   <g id="patch_4">
    <path d="M 414.72 307.584 
L 414.72 41.472 
" style="fill:none;stroke:#000000;stroke-linecap:square;stroke-linejoin:miter;stroke-width:0.8;"/>
   </g>
   <g id="patch_5">
    <path d="M 57.6 307.584 
L 414.72 307.584 
" style="fill:none;stroke:#000000;stroke-linecap:square;stroke-linejoin:miter;stroke-width:0.8;"/>
   </g>
   <g id="patch_6">
    <path d="M 57.6 41.472 
L 414.72 41.472 
" style="fill:none;stroke:#000000;stroke-linecap:square;stroke-linejoin:miter;stroke-width:0.8;"/>
   </g>
   <g id="PathCollection_1">
    <defs>
     <path d="M 0 1.5 
C 0.397805 1.5 0.77937 1.341951 1.06066 1.06066 
C 1.341951 0.77937 1.5 0.397805 1.5 0 
C 1.5 -0.397805 1.341951 -0.77937 1.06066 -1.06066 
C 0.77937 -1.341951 0.397805 -1.5 0 -1.5 
C -0.397805 -1.5 -0.77937 -1.341951 -1.06066 -1.06066 
C -1.341951 -0.77937 -1.5 -0.397805 -1.5 0 
C -1.5 0.397805 -1.341951 0.77937 -1.06066 1.06066 
C -0.77937 1.341951 -0.397805 1.5 0 1.5 
z
" id="m2705eb3373" style="stroke:#4c4c4c;stroke-opacity:0.5;"/>
    </defs>
    <g clip-path="url(#p5fc889a122)">
     <use style="fill:#ffffff;fill-opacity:0.5;stroke:#4c4c4c;stroke-opacity:0.5;" x="165.476139" xlink:href="#m2705eb3373" y="174.528"/>
    </g>
   </g>
   <g id="PathCollection_2">
    <defs>
     <path d="M 0 1.5 
C 0.397805 1.5 0.77937 1.341951 1.06066 1.06066 
C 1.341951 0.77937 1.5 0.397805 1.5 0 
C 1.5 -0.397805 1.341951 -0.77937 1.06066 -1.06066 
C 0.77937 -1.341951 0.397805 -1.5 0 -1.5 
C -0.397805 -1.5 -0.77937 -1.341951 -1.06066 -1.06066 
C -1.341951 -0.77937 -1.5 -0.397805 -1.5 0 
C -1.5 0.397805 -1.341951 0.77937 -1.06066 1.06066 
C -0.77937 1.341951 -0.397805 1.5 0 1.5 
z
" id="m3a86ed5762" style="stroke:#262626;stroke-opacity:0.5;"/>
    </defs>
    <g clip-path="url(#p5fc889a122)">
     <use style="fill:#ffffff;fill-opacity:0.5;stroke:#262626;stroke-opacity:0.5;" x="165.476139" xlink:href="#m3a86ed5762" y="174.528"/>
    </g>
   </g>
   <g id="text_10">
    <!-- Association of pressors_days vs. myocarditis -->
    <defs>
     <path d="M 34.1875 63.1875 
L 20.796875 26.90625 
L 47.609375 26.90625 
z
M 28.609375 72.90625 
L 39.796875 72.90625 
L 67.578125 0 
L 57.328125 0 
L 50.6875 18.703125 
L 17.828125 18.703125 
L 11.1875 0 
L 0.78125 0 
z
" id="DejaVuSans-65"/>
     <path d="M 48.78125 52.59375 
L 48.78125 44.1875 
Q 44.96875 46.296875 41.140625 47.34375 
Q 37.3125 48.390625 33.40625 48.390625 
Q 24.65625 48.390625 19.8125 42.84375 
Q 14.984375 37.3125 14.984375 27.296875 
Q 14.984375 17.28125 19.8125 11.734375 
Q 24.65625 6.203125 33.40625 6.203125 
Q 37.3125 6.203125 41.140625 7.25 
Q 44.96875 8.296875 48.78125 10.40625 
L 48.78125 2.09375 
Q 45.015625 0.34375 40.984375 -0.53125 
Q 36.96875 -1.421875 32.421875 -1.421875 
Q 20.0625 -1.421875 12.78125 6.34375 
Q 5.515625 14.109375 5.515625 27.296875 
Q 5.515625 40.671875 12.859375 48.328125 
Q 20.21875 56 33.015625 56 
Q 37.15625 56 41.109375 55.140625 
Q 45.0625 54.296875 48.78125 52.59375 
z
" id="DejaVuSans-99"/>
     <path d="M 9.421875 54.6875 
L 18.40625 54.6875 
L 18.40625 0 
L 9.421875 0 
z
M 9.421875 75.984375 
L 18.40625 75.984375 
L 18.40625 64.59375 
L 9.421875 64.59375 
z
" id="DejaVuSans-105"/>
     <path d="M 18.3125 70.21875 
L 18.3125 54.6875 
L 36.8125 54.6875 
L 36.8125 47.703125 
L 18.3125 47.703125 
L 18.3125 18.015625 
Q 18.3125 11.328125 20.140625 9.421875 
Q 21.96875 7.515625 27.59375 7.515625 
L 36.8125 7.515625 
L 36.8125 0 
L 27.59375 0 
Q 17.1875 0 13.234375 3.875 
Q 9.28125 7.765625 9.28125 18.015625 
L 9.28125 47.703125 
L 2.6875 47.703125 
L 2.6875 54.6875 
L 9.28125 54.6875 
L 9.28125 70.21875 
z
" id="DejaVuSans-116"/>
     <path d="M 54.890625 33.015625 
L 54.890625 0 
L 45.90625 0 
L 45.90625 32.71875 
Q 45.90625 40.484375 42.875 44.328125 
Q 39.84375 48.1875 33.796875 48.1875 
Q 26.515625 48.1875 22.3125 43.546875 
Q 18.109375 38.921875 18.109375 30.90625 
L 18.109375 0 
L 9.078125 0 
L 9.078125 54.6875 
L 18.109375 54.6875 
L 18.109375 46.1875 
Q 21.34375 51.125 25.703125 53.5625 
Q 30.078125 56 35.796875 56 
Q 45.21875 56 50.046875 50.171875 
Q 54.890625 44.34375 54.890625 33.015625 
z
" id="DejaVuSans-110"/>
     <path id="DejaVuSans-32"/>
     <path d="M 37.109375 75.984375 
L 37.109375 68.5 
L 28.515625 68.5 
Q 23.6875 68.5 21.796875 66.546875 
Q 19.921875 64.59375 19.921875 59.515625 
L 19.921875 54.6875 
L 34.71875 54.6875 
L 34.71875 47.703125 
L 19.921875 47.703125 
L 19.921875 0 
L 10.890625 0 
L 10.890625 47.703125 
L 2.296875 47.703125 
L 2.296875 54.6875 
L 10.890625 54.6875 
L 10.890625 58.5 
Q 10.890625 67.625 15.140625 71.796875 
Q 19.390625 75.984375 28.609375 75.984375 
z
" id="DejaVuSans-102"/>
     <path d="M 2.984375 54.6875 
L 12.5 54.6875 
L 29.59375 8.796875 
L 46.6875 54.6875 
L 56.203125 54.6875 
L 35.6875 0 
L 23.484375 0 
z
" id="DejaVuSans-118"/>
     <path d="M 10.6875 12.40625 
L 21 12.40625 
L 21 0 
L 10.6875 0 
z
" id="DejaVuSans-46"/>
     <path d="M 52 44.1875 
Q 55.375 50.25 60.0625 53.125 
Q 64.75 56 71.09375 56 
Q 79.640625 56 84.28125 50.015625 
Q 88.921875 44.046875 88.921875 33.015625 
L 88.921875 0 
L 79.890625 0 
L 79.890625 32.71875 
Q 79.890625 40.578125 77.09375 44.375 
Q 74.3125 48.1875 68.609375 48.1875 
Q 61.625 48.1875 57.5625 43.546875 
Q 53.515625 38.921875 53.515625 30.90625 
L 53.515625 0 
L 44.484375 0 
L 44.484375 32.71875 
Q 44.484375 40.625 41.703125 44.40625 
Q 38.921875 48.1875 33.109375 48.1875 
Q 26.21875 48.1875 22.15625 43.53125 
Q 18.109375 38.875 18.109375 30.90625 
L 18.109375 0 
L 9.078125 0 
L 9.078125 54.6875 
L 18.109375 54.6875 
L 18.109375 46.1875 
Q 21.1875 51.21875 25.484375 53.609375 
Q 29.78125 56 35.6875 56 
Q 41.65625 56 45.828125 52.96875 
Q 50 49.953125 52 44.1875 
z
" id="DejaVuSans-109"/>
    </defs>
    <g transform="translate(102.467813 35.472)scale(0.12 -0.12)">
     <use xlink:href="#DejaVuSans-65"/>
     <use x="68.408203" xlink:href="#DejaVuSans-115"/>
     <use x="120.507812" xlink:href="#DejaVuSans-115"/>
     <use x="172.607422" xlink:href="#DejaVuSans-111"/>
     <use x="233.789062" xlink:href="#DejaVuSans-99"/>
     <use x="288.769531" xlink:href="#DejaVuSans-105"/>
     <use x="316.552734" xlink:href="#DejaVuSans-97"/>
     <use x="377.832031" xlink:href="#DejaVuSans-116"/>
     <use x="417.041016" xlink:href="#DejaVuSans-105"/>
     <use x="444.824219" xlink:href="#DejaVuSans-111"/>
     <use x="506.005859" xlink:href="#DejaVuSans-110"/>
     <use x="569.384766" xlink:href="#DejaVuSans-32"/>
     <use x="601.171875" xlink:href="#DejaVuSans-111"/>
     <use x="662.353516" xlink:href="#DejaVuSans-102"/>
     <use x="697.558594" xlink:href="#DejaVuSans-32"/>
     <use x="729.345703" xlink:href="#DejaVuSans-112"/>
     <use x="792.822266" xlink:href="#DejaVuSans-114"/>
     <use x="831.685547" xlink:href="#DejaVuSans-101"/>
     <use x="893.208984" xlink:href="#DejaVuSans-115"/>
     <use x="945.308594" xlink:href="#DejaVuSans-115"/>
     <use x="997.408203" xlink:href="#DejaVuSans-111"/>
     <use x="1058.589844" xlink:href="#DejaVuSans-114"/>
     <use x="1099.703125" xlink:href="#DejaVuSans-115"/>
     <use x="1151.802734" xlink:href="#DejaVuSans-95"/>
     <use x="1201.802734" xlink:href="#DejaVuSans-100"/>
     <use x="1265.279297" xlink:href="#DejaVuSans-97"/>
     <use x="1326.558594" xlink:href="#DejaVuSans-121"/>
     <use x="1385.738281" xlink:href="#DejaVuSans-115"/>
     <use x="1437.837891" xlink:href="#DejaVuSans-32"/>
     <use x="1469.625" xlink:href="#DejaVuSans-118"/>
     <use x="1528.804688" xlink:href="#DejaVuSans-115"/>
     <use x="1580.904297" xlink:href="#DejaVuSans-46"/>
     <use x="1612.691406" xlink:href="#DejaVuSans-32"/>
     <use x="1644.478516" xlink:href="#DejaVuSans-109"/>
     <use x="1741.890625" xlink:href="#DejaVuSans-121"/>
     <use x="1801.070312" xlink:href="#DejaVuSans-111"/>
     <use x="1862.251953" xlink:href="#DejaVuSans-99"/>
     <use x="1917.232422" xlink:href="#DejaVuSans-97"/>
     <use x="1978.511719" xlink:href="#DejaVuSans-114"/>
     <use x="2017.875" xlink:href="#DejaVuSans-100"/>
     <use x="2081.351562" xlink:href="#DejaVuSans-105"/>
     <use x="2109.134766" xlink:href="#DejaVuSans-116"/>
     <use x="2148.34375" xlink:href="#DejaVuSans-105"/>
     <use x="2176.126953" xlink:href="#DejaVuSans-115"/>
    </g>
   </g>
   <g id="legend_1">
    <g id="patch_7">
     <path d="M 266.577812 78.82825 
L 407.72 78.82825 
Q 409.72 78.82825 409.72 76.82825 
L 409.72 48.472 
Q 409.72 46.472 407.72 46.472 
L 266.577812 46.472 
Q 264.577812 46.472 264.577812 48.472 
L 264.577812 76.82825 
Q 264.577812 78.82825 266.577812 78.82825 
z
" style="fill:#ffffff;opacity:0.8;stroke:#cccccc;stroke-linejoin:miter;"/>
    </g>
    <g id="line2d_14">
     <path d="M 268.577812 54.570437 
L 288.577812 54.570437 
" style="fill:none;stroke:#ffa500;stroke-linecap:square;stroke-width:1.5;"/>
    </g>
    <g id="line2d_15"/>
    <g id="text_11">
     <!-- myocarditis (5) -->
     <defs>
      <path d="M 31 75.875 
Q 24.46875 64.65625 21.28125 53.65625 
Q 18.109375 42.671875 18.109375 31.390625 
Q 18.109375 20.125 21.3125 9.0625 
Q 24.515625 -2 31 -13.1875 
L 23.1875 -13.1875 
Q 15.875 -1.703125 12.234375 9.375 
Q 8.59375 20.453125 8.59375 31.390625 
Q 8.59375 42.28125 12.203125 53.3125 
Q 15.828125 64.359375 23.1875 75.875 
z
" id="DejaVuSans-40"/>
      <path d="M 8.015625 75.875 
L 15.828125 75.875 
Q 23.140625 64.359375 26.78125 53.3125 
Q 30.421875 42.28125 30.421875 31.390625 
Q 30.421875 20.453125 26.78125 9.375 
Q 23.140625 -1.703125 15.828125 -13.1875 
L 8.015625 -13.1875 
Q 14.5 -2 17.703125 9.0625 
Q 20.90625 20.125 20.90625 31.390625 
Q 20.90625 42.671875 17.703125 53.65625 
Q 14.5 64.65625 8.015625 75.875 
z
" id="DejaVuSans-41"/>
     </defs>
     <g transform="translate(296.577812 58.070437)scale(0.1 -0.1)">
      <use xlink:href="#DejaVuSans-109"/>
      <use x="97.412109" xlink:href="#DejaVuSans-121"/>
      <use x="156.591797" xlink:href="#DejaVuSans-111"/>
      <use x="217.773438" xlink:href="#DejaVuSans-99"/>
      <use x="272.753906" xlink:href="#DejaVuSans-97"/>
      <use x="334.033203" xlink:href="#DejaVuSans-114"/>
      <use x="373.396484" xlink:href="#DejaVuSans-100"/>
      <use x="436.873047" xlink:href="#DejaVuSans-105"/>
      <use x="464.65625" xlink:href="#DejaVuSans-116"/>
      <use x="503.865234" xlink:href="#DejaVuSans-105"/>
      <use x="531.648438" xlink:href="#DejaVuSans-115"/>
      <use x="583.748047" xlink:href="#DejaVuSans-32"/>
      <use x="615.535156" xlink:href="#DejaVuSans-40"/>
      <use x="654.548828" xlink:href="#DejaVuSans-53"/>
      <use x="718.171875" xlink:href="#DejaVuSans-41"/>
     </g>
    </g>
    <g id="line2d_16">
     <path d="M 268.577812 69.248562 
L 288.577812 69.248562 
" style="fill:none;stroke:#008000;stroke-linecap:square;stroke-width:1.5;"/>
    </g>
    <g id="line2d_17"/>
    <g id="text_12">
     <!-- Not myocarditis (472) -->
     <defs>
      <path d="M 9.8125 72.90625 
L 23.09375 72.90625 
L 55.421875 11.921875 
L 55.421875 72.90625 
L 64.984375 72.90625 
L 64.984375 0 
L 51.703125 0 
L 19.390625 60.984375 
L 19.390625 0 
L 9.8125 0 
z
" id="DejaVuSans-78"/>
      <path d="M 37.796875 64.3125 
L 12.890625 25.390625 
L 37.796875 25.390625 
z
M 35.203125 72.90625 
L 47.609375 72.90625 
L 47.609375 25.390625 
L 58.015625 25.390625 
L 58.015625 17.1875 
L 47.609375 17.1875 
L 47.609375 0 
L 37.796875 0 
L 37.796875 17.1875 
L 4.890625 17.1875 
L 4.890625 26.703125 
z
" id="DejaVuSans-52"/>
      <path d="M 8.203125 72.90625 
L 55.078125 72.90625 
L 55.078125 68.703125 
L 28.609375 0 
L 18.3125 0 
L 43.21875 64.59375 
L 8.203125 64.59375 
z
" id="DejaVuSans-55"/>
     </defs>
     <g transform="translate(296.577812 72.748562)scale(0.1 -0.1)">
      <use xlink:href="#DejaVuSans-78"/>
      <use x="74.804688" xlink:href="#DejaVuSans-111"/>
      <use x="135.986328" xlink:href="#DejaVuSans-116"/>
      <use x="175.195312" xlink:href="#DejaVuSans-32"/>
      <use x="206.982422" xlink:href="#DejaVuSans-109"/>
      <use x="304.394531" xlink:href="#DejaVuSans-121"/>
      <use x="363.574219" xlink:href="#DejaVuSans-111"/>
      <use x="424.755859" xlink:href="#DejaVuSans-99"/>
      <use x="479.736328" xlink:href="#DejaVuSans-97"/>
      <use x="541.015625" xlink:href="#DejaVuSans-114"/>
      <use x="580.378906" xlink:href="#DejaVuSans-100"/>
      <use x="643.855469" xlink:href="#DejaVuSans-105"/>
      <use x="671.638672" xlink:href="#DejaVuSans-116"/>
      <use x="710.847656" xlink:href="#DejaVuSans-105"/>
      <use x="738.630859" xlink:href="#DejaVuSans-115"/>
      <use x="790.730469" xlink:href="#DejaVuSans-32"/>
      <use x="822.517578" xlink:href="#DejaVuSans-40"/>
      <use x="861.53125" xlink:href="#DejaVuSans-52"/>
      <use x="925.154297" xlink:href="#DejaVuSans-55"/>
      <use x="988.777344" xlink:href="#DejaVuSans-50"/>
      <use x="1052.400391" xlink:href="#DejaVuSans-41"/>
     </g>
    </g>
   </g>
  </g>
 </g>
 <defs>
  <clipPath id="p5fc889a122">
   <rect height="266.112" width="357.12" x="57.6" y="41.472"/>
  </clipPath>
 </defs>
</svg>
