<?xml version="1.0" encoding="utf-8" standalone="no"?>
<!DOCTYPE svg PUBLIC "-//W3C//DTD SVG 1.1//EN"
  "http://www.w3.org/Graphics/SVG/1.1/DTD/svg11.dtd">
<!-- Created with matplotlib (https://matplotlib.org/) -->
<svg height="345.6pt" version="1.1" viewBox="0 0 460.8 345.6" width="460.8pt" xmlns="http://www.w3.org/2000/svg" xmlns:xlink="http://www.w3.org/1999/xlink">
 <defs>
  <style type="text/css">
*{stroke-linecap:butt;stroke-linejoin:round;}
  </style>
 </defs>
 <g id="figure_1">
  <g id="patch_1">
   <path d="M 0 345.6 
L 460.8 345.6 
L 460.8 0 
L 0 0 
z
" style="fill:#ffffff;"/>
  </g>
  <g id="axes_1">
   <g id="patch_2">
    <path d="M 57.6 307.584 
L 414.72 307.584 
L 414.72 41.472 
L 57.6 41.472 
z
" style="fill:#ffffff;"/>
   </g>
   <g id="PolyCollection_1">
    <defs>
     <path d="M 81.659077 -155.078933 
L 81.659077 -187.065067 
L 84.528007 -196.45326 
L 87.396937 -209.006378 
L 90.265867 -224.470826 
L 93.134797 -241.877149 
L 96.003727 -259.524263 
L 98.872657 -275.200995 
L 101.741587 -286.631921 
L 104.610518 -292.032 
L 107.479448 -290.585147 
L 110.348378 -282.66986 
L 113.217308 -269.74561 
L 116.086238 -253.946079 
L 118.955168 -237.533927 
L 121.824098 -222.405914 
L 124.693028 -209.789064 
L 127.561958 -200.173459 
L 130.430889 -193.436993 
L 133.299819 -189.069281 
L 136.168749 -186.403013 
L 139.037679 -184.793368 
L 141.906609 -183.724565 
L 144.775539 -182.850014 
L 147.644469 -181.984609 
L 150.513399 -181.069116 
L 153.38233 -180.123501 
L 156.25126 -179.202177 
L 159.12019 -178.360009 
L 161.98912 -177.633321 
L 164.85805 -177.035305 
L 167.72698 -176.561396 
L 170.59591 -176.19848 
L 173.46484 -175.932554 
L 176.333771 -175.751974 
L 179.202701 -175.646332 
L 182.071631 -175.60308 
L 184.940561 -175.604648 
L 187.809491 -175.627953 
L 190.678421 -175.646738 
L 193.547351 -175.635722 
L 196.416281 -175.574887 
L 199.285212 -175.452464 
L 202.154142 -175.265918 
L 205.023072 -175.021105 
L 207.892002 -174.730222 
L 210.760932 -174.409272 
L 213.629862 -174.075555 
L 216.498792 -173.745487 
L 219.367722 -173.432913 
L 222.236653 -173.14797 
L 225.105583 -172.896545 
L 227.974513 -172.680318 
L 230.843443 -172.497399 
L 233.712373 -172.343544 
L 236.581303 -172.213858 
L 239.450233 -172.104665 
L 242.319163 -172.015001 
L 245.188094 -171.947078 
L 248.057024 -171.905249 
L 250.925954 -171.893545 
L 253.794884 -171.912547 
L 256.663814 -171.956912 
L 259.532744 -172.014871 
L 262.401674 -172.070374 
L 265.270604 -172.107415 
L 268.139534 -172.11501 
L 271.008465 -172.090828 
L 273.877395 -172.041938 
L 276.746325 -171.982327 
L 279.615255 -171.928203 
L 282.484185 -171.892963 
L 285.353115 -171.883679 
L 288.222045 -171.900128 
L 291.090975 -171.936261 
L 293.959906 -171.983099 
L 296.828836 -172.031741 
L 299.697766 -172.075491 
L 302.566696 -172.110685 
L 305.435626 -172.136418 
L 308.304556 -172.153644 
L 311.173486 -172.164149 
L 314.042416 -172.169731 
L 316.911347 -172.17167 
L 319.780277 -172.170448 
L 322.649207 -172.165628 
L 325.518137 -172.155806 
L 328.387067 -172.138669 
L 331.255997 -172.111205 
L 334.124927 -172.070169 
L 336.993857 -172.012817 
L 339.862788 -171.937804 
L 342.731718 -171.845989 
L 345.600648 -171.74084 
L 348.469578 -171.628193 
L 351.338508 -171.515308 
L 354.207438 -171.409494 
L 357.076368 -171.316708 
L 359.945298 -171.240582 
L 362.814229 -171.182132 
L 365.683159 -171.140121 
L 365.683159 -171.003879 
L 365.683159 -171.003879 
L 362.814229 -170.961868 
L 359.945298 -170.903418 
L 357.076368 -170.827292 
L 354.207438 -170.734506 
L 351.338508 -170.628692 
L 348.469578 -170.515807 
L 345.600648 -170.40316 
L 342.731718 -170.298011 
L 339.862788 -170.206196 
L 336.993857 -170.131183 
L 334.124927 -170.073831 
L 331.255997 -170.032795 
L 328.387067 -170.005331 
L 325.518137 -169.988194 
L 322.649207 -169.978372 
L 319.780277 -169.973552 
L 316.911347 -169.97233 
L 314.042416 -169.974269 
L 311.173486 -169.979851 
L 308.304556 -169.990356 
L 305.435626 -170.007582 
L 302.566696 -170.033315 
L 299.697766 -170.068509 
L 296.828836 -170.112259 
L 293.959906 -170.160901 
L 291.090975 -170.207739 
L 288.222045 -170.243872 
L 285.353115 -170.260321 
L 282.484185 -170.251037 
L 279.615255 -170.215797 
L 276.746325 -170.161673 
L 273.877395 -170.102062 
L 271.008465 -170.053172 
L 268.139534 -170.02899 
L 265.270604 -170.036585 
L 262.401674 -170.073626 
L 259.532744 -170.129129 
L 256.663814 -170.187088 
L 253.794884 -170.231453 
L 250.925954 -170.250455 
L 248.057024 -170.238751 
L 245.188094 -170.196922 
L 242.319163 -170.128999 
L 239.450233 -170.039335 
L 236.581303 -169.930142 
L 233.712373 -169.800456 
L 230.843443 -169.646601 
L 227.974513 -169.463682 
L 225.105583 -169.247455 
L 222.236653 -168.99603 
L 219.367722 -168.711087 
L 216.498792 -168.398513 
L 213.629862 -168.068445 
L 210.760932 -167.734728 
L 207.892002 -167.413778 
L 205.023072 -167.122895 
L 202.154142 -166.878082 
L 199.285212 -166.691536 
L 196.416281 -166.569113 
L 193.547351 -166.508278 
L 190.678421 -166.497262 
L 187.809491 -166.516047 
L 184.940561 -166.539352 
L 182.071631 -166.54092 
L 179.202701 -166.497668 
L 176.333771 -166.392026 
L 173.46484 -166.211446 
L 170.59591 -165.94552 
L 167.72698 -165.582604 
L 164.85805 -165.108695 
L 161.98912 -164.510679 
L 159.12019 -163.783991 
L 156.25126 -162.941823 
L 153.38233 -162.020499 
L 150.513399 -161.074884 
L 147.644469 -160.159391 
L 144.775539 -159.293986 
L 141.906609 -158.419435 
L 139.037679 -157.350632 
L 136.168749 -155.740987 
L 133.299819 -153.074719 
L 130.430889 -148.707007 
L 127.561958 -141.970541 
L 124.693028 -132.354936 
L 121.824098 -119.738086 
L 118.955168 -104.610073 
L 116.086238 -88.197921 
L 113.217308 -72.39839 
L 110.348378 -59.47414 
L 107.479448 -51.558853 
L 104.610518 -50.112 
L 101.741587 -55.512079 
L 98.872657 -66.943005 
L 96.003727 -82.619737 
L 93.134797 -100.266851 
L 90.265867 -117.673174 
L 87.396937 -133.137622 
L 84.528007 -145.69074 
L 81.659077 -155.078933 
z
" id="mbd25c99414" style="stroke:#4c4c4c;stroke-opacity:0.5;stroke-width:1.5;"/>
    </defs>
    <g clip-path="url(#pd663edb5d8)">
     <use style="fill:#df9c20;fill-opacity:0.5;stroke:#4c4c4c;stroke-opacity:0.5;stroke-width:1.5;" x="0" xlink:href="#mbd25c99414" y="345.6"/>
    </g>
   </g>
   <g id="PolyCollection_2">
    <defs>
     <path d="M 73.832727 -154.755676 
L 73.832727 -187.388324 
L 77.112066 -195.376858 
L 80.391405 -205.712492 
L 83.670744 -218.311285 
L 86.950083 -232.711996 
L 90.229421 -248.034461 
L 93.50876 -263.02739 
L 96.788099 -276.218263 
L 100.067438 -286.147517 
L 103.346777 -291.638072 
L 106.626116 -292.032 
L 109.905455 -287.328555 
L 113.184793 -278.183275 
L 116.464132 -265.768324 
L 119.743471 -251.534625 
L 123.02281 -236.941873 
L 126.302149 -223.224782 
L 129.581488 -211.244521 
L 132.860826 -201.44284 
L 136.140165 -193.88579 
L 139.419504 -188.3641 
L 142.698843 -184.512103 
L 145.978182 -181.914339 
L 149.257521 -180.182354 
L 152.53686 -178.99779 
L 155.816198 -178.127191 
L 159.095537 -177.418087 
L 162.374876 -176.785608 
L 165.654215 -176.196296 
L 168.933554 -175.652684 
L 172.212893 -175.179778 
L 175.492231 -174.813295 
L 178.77157 -174.589224 
L 182.050909 -174.534621 
L 185.330248 -174.660137 
L 188.609587 -174.955242 
L 191.888926 -175.387113 
L 195.168264 -175.903735 
L 198.447603 -176.440902 
L 201.726942 -176.931802 
L 205.006281 -177.317139 
L 208.28562 -177.553544 
L 211.564959 -177.618492 
L 214.844298 -177.510994 
L 218.123636 -177.248514 
L 221.402975 -176.861435 
L 224.682314 -176.386772 
L 227.961653 -175.862534 
L 231.240992 -175.323505 
L 234.520331 -174.798565 
L 237.799669 -174.309293 
L 241.079008 -173.86952 
L 244.358347 -173.485664 
L 247.637686 -173.157856 
L 250.917025 -172.881821 
L 254.196364 -172.651319 
L 257.475702 -172.460654 
L 260.755041 -172.306653 
L 264.03438 -172.189555 
L 267.313719 -172.112573 
L 270.593058 -172.080287 
L 273.872397 -172.096408 
L 277.151736 -172.161579 
L 280.431074 -172.271863 
L 283.710413 -172.418288 
L 286.989752 -172.587505 
L 290.269091 -172.7633 
L 293.54843 -172.928552 
L 296.827769 -173.067173 
L 300.107107 -173.165717 
L 303.386446 -173.214488 
L 306.665785 -173.20815 
L 309.945124 -173.145949 
L 313.224463 -173.031628 
L 316.503802 -172.873086 
L 319.78314 -172.68177 
L 323.062479 -172.471754 
L 326.341818 -172.258524 
L 329.621157 -172.057552 
L 332.900496 -171.882822 
L 336.179835 -171.745479 
L 339.459174 -171.652753 
L 342.738512 -171.607261 
L 346.017851 -171.606713 
L 349.29719 -171.64408 
L 352.576529 -171.708257 
L 355.855868 -171.785268 
L 359.135207 -171.859974 
L 362.414545 -171.918126 
L 365.693884 -171.948428 
L 368.973223 -171.944198 
L 372.252562 -171.904216 
L 375.531901 -171.832545 
L 378.81124 -171.737351 
L 382.090579 -171.629053 
L 385.369917 -171.518277 
L 388.649256 -171.414093 
L 391.928595 -171.3229 
L 395.207934 -171.248062 
L 398.487273 -171.190205 
L 398.487273 -170.953795 
L 398.487273 -170.953795 
L 395.207934 -170.895938 
L 391.928595 -170.8211 
L 388.649256 -170.729907 
L 385.369917 -170.625723 
L 382.090579 -170.514947 
L 378.81124 -170.406649 
L 375.531901 -170.311455 
L 372.252562 -170.239784 
L 368.973223 -170.199802 
L 365.693884 -170.195572 
L 362.414545 -170.225874 
L 359.135207 -170.284026 
L 355.855868 -170.358732 
L 352.576529 -170.435743 
L 349.29719 -170.49992 
L 346.017851 -170.537287 
L 342.738512 -170.536739 
L 339.459174 -170.491247 
L 336.179835 -170.398521 
L 332.900496 -170.261178 
L 329.621157 -170.086448 
L 326.341818 -169.885476 
L 323.062479 -169.672246 
L 319.78314 -169.46223 
L 316.503802 -169.270914 
L 313.224463 -169.112372 
L 309.945124 -168.998051 
L 306.665785 -168.93585 
L 303.386446 -168.929512 
L 300.107107 -168.978283 
L 296.827769 -169.076827 
L 293.54843 -169.215448 
L 290.269091 -169.3807 
L 286.989752 -169.556495 
L 283.710413 -169.725712 
L 280.431074 -169.872137 
L 277.151736 -169.982421 
L 273.872397 -170.047592 
L 270.593058 -170.063713 
L 267.313719 -170.031427 
L 264.03438 -169.954445 
L 260.755041 -169.837347 
L 257.475702 -169.683346 
L 254.196364 -169.492681 
L 250.917025 -169.262179 
L 247.637686 -168.986144 
L 244.358347 -168.658336 
L 241.079008 -168.27448 
L 237.799669 -167.834707 
L 234.520331 -167.345435 
L 231.240992 -166.820495 
L 227.961653 -166.281466 
L 224.682314 -165.757228 
L 221.402975 -165.282565 
L 218.123636 -164.895486 
L 214.844298 -164.633006 
L 211.564959 -164.525508 
L 208.28562 -164.590456 
L 205.006281 -164.826861 
L 201.726942 -165.212198 
L 198.447603 -165.703098 
L 195.168264 -166.240265 
L 191.888926 -166.756887 
L 188.609587 -167.188758 
L 185.330248 -167.483863 
L 182.050909 -167.609379 
L 178.77157 -167.554776 
L 175.492231 -167.330705 
L 172.212893 -166.964222 
L 168.933554 -166.491316 
L 165.654215 -165.947704 
L 162.374876 -165.358392 
L 159.095537 -164.725913 
L 155.816198 -164.016809 
L 152.53686 -163.14621 
L 149.257521 -161.961646 
L 145.978182 -160.229661 
L 142.698843 -157.631897 
L 139.419504 -153.7799 
L 136.140165 -148.25821 
L 132.860826 -140.70116 
L 129.581488 -130.899479 
L 126.302149 -118.919218 
L 123.02281 -105.202127 
L 119.743471 -90.609375 
L 116.464132 -76.375676 
L 113.184793 -63.960725 
L 109.905455 -54.815445 
L 106.626116 -50.112 
L 103.346777 -50.505928 
L 100.067438 -55.996483 
L 96.788099 -65.925737 
L 93.50876 -79.11661 
L 90.229421 -94.109539 
L 86.950083 -109.432004 
L 83.670744 -123.832715 
L 80.391405 -136.431508 
L 77.112066 -146.767142 
L 73.832727 -154.755676 
z
" id="m1bb200a9f1" style="stroke:#262626;stroke-opacity:0.5;stroke-width:1.5;"/>
    </defs>
    <g clip-path="url(#pd663edb5d8)">
     <use style="fill:#107010;fill-opacity:0.5;stroke:#262626;stroke-opacity:0.5;stroke-width:1.5;" x="0" xlink:href="#m1bb200a9f1" y="345.6"/>
    </g>
   </g>
   <g id="matplotlib.axis_1">
    <g id="xtick_1">
     <g id="line2d_1">
      <defs>
       <path d="M 0 0 
L 0 3.5 
" id="m50ff55498a" style="stroke:#000000;stroke-width:0.8;"/>
      </defs>
      <g>
       <use style="stroke:#000000;stroke-width:0.8;" x="105.026735" xlink:href="#m50ff55498a" y="307.584"/>
      </g>
     </g>
     <g id="text_1">
      <!-- 0 -->
      <defs>
       <path d="M 31.78125 66.40625 
Q 24.171875 66.40625 20.328125 58.90625 
Q 16.5 51.421875 16.5 36.375 
Q 16.5 21.390625 20.328125 13.890625 
Q 24.171875 6.390625 31.78125 6.390625 
Q 39.453125 6.390625 43.28125 13.890625 
Q 47.125 21.390625 47.125 36.375 
Q 47.125 51.421875 43.28125 58.90625 
Q 39.453125 66.40625 31.78125 66.40625 
z
M 31.78125 74.21875 
Q 44.046875 74.21875 50.515625 64.515625 
Q 56.984375 54.828125 56.984375 36.375 
Q 56.984375 17.96875 50.515625 8.265625 
Q 44.046875 -1.421875 31.78125 -1.421875 
Q 19.53125 -1.421875 13.0625 8.265625 
Q 6.59375 17.96875 6.59375 36.375 
Q 6.59375 54.828125 13.0625 64.515625 
Q 19.53125 74.21875 31.78125 74.21875 
z
" id="DejaVuSans-48"/>
      </defs>
      <g transform="translate(101.845485 322.182437)scale(0.1 -0.1)">
       <use xlink:href="#DejaVuSans-48"/>
      </g>
     </g>
    </g>
    <g id="xtick_2">
     <g id="line2d_2">
      <g>
       <use style="stroke:#000000;stroke-width:0.8;" x="167.471147" xlink:href="#m50ff55498a" y="307.584"/>
      </g>
     </g>
     <g id="text_2">
      <!-- 5 -->
      <defs>
       <path d="M 10.796875 72.90625 
L 49.515625 72.90625 
L 49.515625 64.59375 
L 19.828125 64.59375 
L 19.828125 46.734375 
Q 21.96875 47.46875 24.109375 47.828125 
Q 26.265625 48.1875 28.421875 48.1875 
Q 40.625 48.1875 47.75 41.5 
Q 54.890625 34.8125 54.890625 23.390625 
Q 54.890625 11.625 47.5625 5.09375 
Q 40.234375 -1.421875 26.90625 -1.421875 
Q 22.3125 -1.421875 17.546875 -0.640625 
Q 12.796875 0.140625 7.71875 1.703125 
L 7.71875 11.625 
Q 12.109375 9.234375 16.796875 8.0625 
Q 21.484375 6.890625 26.703125 6.890625 
Q 35.15625 6.890625 40.078125 11.328125 
Q 45.015625 15.765625 45.015625 23.390625 
Q 45.015625 31 40.078125 35.4375 
Q 35.15625 39.890625 26.703125 39.890625 
Q 22.75 39.890625 18.8125 39.015625 
Q 14.890625 38.140625 10.796875 36.28125 
z
" id="DejaVuSans-53"/>
      </defs>
      <g transform="translate(164.289897 322.182437)scale(0.1 -0.1)">
       <use xlink:href="#DejaVuSans-53"/>
      </g>
     </g>
    </g>
    <g id="xtick_3">
     <g id="line2d_3">
      <g>
       <use style="stroke:#000000;stroke-width:0.8;" x="229.915559" xlink:href="#m50ff55498a" y="307.584"/>
      </g>
     </g>
     <g id="text_3">
      <!-- 10 -->
      <defs>
       <path d="M 12.40625 8.296875 
L 28.515625 8.296875 
L 28.515625 63.921875 
L 10.984375 60.40625 
L 10.984375 69.390625 
L 28.421875 72.90625 
L 38.28125 72.90625 
L 38.28125 8.296875 
L 54.390625 8.296875 
L 54.390625 0 
L 12.40625 0 
z
" id="DejaVuSans-49"/>
      </defs>
      <g transform="translate(223.553059 322.182437)scale(0.1 -0.1)">
       <use xlink:href="#DejaVuSans-49"/>
       <use x="63.623047" xlink:href="#DejaVuSans-48"/>
      </g>
     </g>
    </g>
    <g id="xtick_4">
     <g id="line2d_4">
      <g>
       <use style="stroke:#000000;stroke-width:0.8;" x="292.359971" xlink:href="#m50ff55498a" y="307.584"/>
      </g>
     </g>
     <g id="text_4">
      <!-- 15 -->
      <g transform="translate(285.997471 322.182437)scale(0.1 -0.1)">
       <use xlink:href="#DejaVuSans-49"/>
       <use x="63.623047" xlink:href="#DejaVuSans-53"/>
      </g>
     </g>
    </g>
    <g id="xtick_5">
     <g id="line2d_5">
      <g>
       <use style="stroke:#000000;stroke-width:0.8;" x="354.804383" xlink:href="#m50ff55498a" y="307.584"/>
      </g>
     </g>
     <g id="text_5">
      <!-- 20 -->
      <defs>
       <path d="M 19.1875 8.296875 
L 53.609375 8.296875 
L 53.609375 0 
L 7.328125 0 
L 7.328125 8.296875 
Q 12.9375 14.109375 22.625 23.890625 
Q 32.328125 33.6875 34.8125 36.53125 
Q 39.546875 41.84375 41.421875 45.53125 
Q 43.3125 49.21875 43.3125 52.78125 
Q 43.3125 58.59375 39.234375 62.25 
Q 35.15625 65.921875 28.609375 65.921875 
Q 23.96875 65.921875 18.8125 64.3125 
Q 13.671875 62.703125 7.8125 59.421875 
L 7.8125 69.390625 
Q 13.765625 71.78125 18.9375 73 
Q 24.125 74.21875 28.421875 74.21875 
Q 39.75 74.21875 46.484375 68.546875 
Q 53.21875 62.890625 53.21875 53.421875 
Q 53.21875 48.921875 51.53125 44.890625 
Q 49.859375 40.875 45.40625 35.40625 
Q 44.1875 33.984375 37.640625 27.21875 
Q 31.109375 20.453125 19.1875 8.296875 
z
" id="DejaVuSans-50"/>
      </defs>
      <g transform="translate(348.441883 322.182437)scale(0.1 -0.1)">
       <use xlink:href="#DejaVuSans-50"/>
       <use x="63.623047" xlink:href="#DejaVuSans-48"/>
      </g>
     </g>
    </g>
    <g id="text_6">
     <!-- pressors_days -->
     <defs>
      <path d="M 18.109375 8.203125 
L 18.109375 -20.796875 
L 9.078125 -20.796875 
L 9.078125 54.6875 
L 18.109375 54.6875 
L 18.109375 46.390625 
Q 20.953125 51.265625 25.265625 53.625 
Q 29.59375 56 35.59375 56 
Q 45.5625 56 51.78125 48.09375 
Q 58.015625 40.1875 58.015625 27.296875 
Q 58.015625 14.40625 51.78125 6.484375 
Q 45.5625 -1.421875 35.59375 -1.421875 
Q 29.59375 -1.421875 25.265625 0.953125 
Q 20.953125 3.328125 18.109375 8.203125 
z
M 48.6875 27.296875 
Q 48.6875 37.203125 44.609375 42.84375 
Q 40.53125 48.484375 33.40625 48.484375 
Q 26.265625 48.484375 22.1875 42.84375 
Q 18.109375 37.203125 18.109375 27.296875 
Q 18.109375 17.390625 22.1875 11.75 
Q 26.265625 6.109375 33.40625 6.109375 
Q 40.53125 6.109375 44.609375 11.75 
Q 48.6875 17.390625 48.6875 27.296875 
z
" id="DejaVuSans-112"/>
      <path d="M 41.109375 46.296875 
Q 39.59375 47.171875 37.8125 47.578125 
Q 36.03125 48 33.890625 48 
Q 26.265625 48 22.1875 43.046875 
Q 18.109375 38.09375 18.109375 28.8125 
L 18.109375 0 
L 9.078125 0 
L 9.078125 54.6875 
L 18.109375 54.6875 
L 18.109375 46.1875 
Q 20.953125 51.171875 25.484375 53.578125 
Q 30.03125 56 36.53125 56 
Q 37.453125 56 38.578125 55.875 
Q 39.703125 55.765625 41.0625 55.515625 
z
" id="DejaVuSans-114"/>
      <path d="M 56.203125 29.59375 
L 56.203125 25.203125 
L 14.890625 25.203125 
Q 15.484375 15.921875 20.484375 11.0625 
Q 25.484375 6.203125 34.421875 6.203125 
Q 39.59375 6.203125 44.453125 7.46875 
Q 49.3125 8.734375 54.109375 11.28125 
L 54.109375 2.78125 
Q 49.265625 0.734375 44.1875 -0.34375 
Q 39.109375 -1.421875 33.890625 -1.421875 
Q 20.796875 -1.421875 13.15625 6.1875 
Q 5.515625 13.8125 5.515625 26.8125 
Q 5.515625 40.234375 12.765625 48.109375 
Q 20.015625 56 32.328125 56 
Q 43.359375 56 49.78125 48.890625 
Q 56.203125 41.796875 56.203125 29.59375 
z
M 47.21875 32.234375 
Q 47.125 39.59375 43.09375 43.984375 
Q 39.0625 48.390625 32.421875 48.390625 
Q 24.90625 48.390625 20.390625 44.140625 
Q 15.875 39.890625 15.1875 32.171875 
z
" id="DejaVuSans-101"/>
      <path d="M 44.28125 53.078125 
L 44.28125 44.578125 
Q 40.484375 46.53125 36.375 47.5 
Q 32.28125 48.484375 27.875 48.484375 
Q 21.1875 48.484375 17.84375 46.4375 
Q 14.5 44.390625 14.5 40.28125 
Q 14.5 37.15625 16.890625 35.375 
Q 19.28125 33.59375 26.515625 31.984375 
L 29.59375 31.296875 
Q 39.15625 29.25 43.1875 25.515625 
Q 47.21875 21.78125 47.21875 15.09375 
Q 47.21875 7.46875 41.1875 3.015625 
Q 35.15625 -1.421875 24.609375 -1.421875 
Q 20.21875 -1.421875 15.453125 -0.5625 
Q 10.6875 0.296875 5.421875 2 
L 5.421875 11.28125 
Q 10.40625 8.6875 15.234375 7.390625 
Q 20.0625 6.109375 24.8125 6.109375 
Q 31.15625 6.109375 34.5625 8.28125 
Q 37.984375 10.453125 37.984375 14.40625 
Q 37.984375 18.0625 35.515625 20.015625 
Q 33.0625 21.96875 24.703125 23.78125 
L 21.578125 24.515625 
Q 13.234375 26.265625 9.515625 29.90625 
Q 5.8125 33.546875 5.8125 39.890625 
Q 5.8125 47.609375 11.28125 51.796875 
Q 16.75 56 26.8125 56 
Q 31.78125 56 36.171875 55.265625 
Q 40.578125 54.546875 44.28125 53.078125 
z
" id="DejaVuSans-115"/>
      <path d="M 30.609375 48.390625 
Q 23.390625 48.390625 19.1875 42.75 
Q 14.984375 37.109375 14.984375 27.296875 
Q 14.984375 17.484375 19.15625 11.84375 
Q 23.34375 6.203125 30.609375 6.203125 
Q 37.796875 6.203125 41.984375 11.859375 
Q 46.1875 17.53125 46.1875 27.296875 
Q 46.1875 37.015625 41.984375 42.703125 
Q 37.796875 48.390625 30.609375 48.390625 
z
M 30.609375 56 
Q 42.328125 56 49.015625 48.375 
Q 55.71875 40.765625 55.71875 27.296875 
Q 55.71875 13.875 49.015625 6.21875 
Q 42.328125 -1.421875 30.609375 -1.421875 
Q 18.84375 -1.421875 12.171875 6.21875 
Q 5.515625 13.875 5.515625 27.296875 
Q 5.515625 40.765625 12.171875 48.375 
Q 18.84375 56 30.609375 56 
z
" id="DejaVuSans-111"/>
      <path d="M 50.984375 -16.609375 
L 50.984375 -23.578125 
L -0.984375 -23.578125 
L -0.984375 -16.609375 
z
" id="DejaVuSans-95"/>
      <path d="M 45.40625 46.390625 
L 45.40625 75.984375 
L 54.390625 75.984375 
L 54.390625 0 
L 45.40625 0 
L 45.40625 8.203125 
Q 42.578125 3.328125 38.25 0.953125 
Q 33.9375 -1.421875 27.875 -1.421875 
Q 17.96875 -1.421875 11.734375 6.484375 
Q 5.515625 14.40625 5.515625 27.296875 
Q 5.515625 40.1875 11.734375 48.09375 
Q 17.96875 56 27.875 56 
Q 33.9375 56 38.25 53.625 
Q 42.578125 51.265625 45.40625 46.390625 
z
M 14.796875 27.296875 
Q 14.796875 17.390625 18.875 11.75 
Q 22.953125 6.109375 30.078125 6.109375 
Q 37.203125 6.109375 41.296875 11.75 
Q 45.40625 17.390625 45.40625 27.296875 
Q 45.40625 37.203125 41.296875 42.84375 
Q 37.203125 48.484375 30.078125 48.484375 
Q 22.953125 48.484375 18.875 42.84375 
Q 14.796875 37.203125 14.796875 27.296875 
z
" id="DejaVuSans-100"/>
      <path d="M 34.28125 27.484375 
Q 23.390625 27.484375 19.1875 25 
Q 14.984375 22.515625 14.984375 16.5 
Q 14.984375 11.71875 18.140625 8.90625 
Q 21.296875 6.109375 26.703125 6.109375 
Q 34.1875 6.109375 38.703125 11.40625 
Q 43.21875 16.703125 43.21875 25.484375 
L 43.21875 27.484375 
z
M 52.203125 31.203125 
L 52.203125 0 
L 43.21875 0 
L 43.21875 8.296875 
Q 40.140625 3.328125 35.546875 0.953125 
Q 30.953125 -1.421875 24.3125 -1.421875 
Q 15.921875 -1.421875 10.953125 3.296875 
Q 6 8.015625 6 15.921875 
Q 6 25.140625 12.171875 29.828125 
Q 18.359375 34.515625 30.609375 34.515625 
L 43.21875 34.515625 
L 43.21875 35.40625 
Q 43.21875 41.609375 39.140625 45 
Q 35.0625 48.390625 27.6875 48.390625 
Q 23 48.390625 18.546875 47.265625 
Q 14.109375 46.140625 10.015625 43.890625 
L 10.015625 52.203125 
Q 14.9375 54.109375 19.578125 55.046875 
Q 24.21875 56 28.609375 56 
Q 40.484375 56 46.34375 49.84375 
Q 52.203125 43.703125 52.203125 31.203125 
z
" id="DejaVuSans-97"/>
      <path d="M 32.171875 -5.078125 
Q 28.375 -14.84375 24.75 -17.8125 
Q 21.140625 -20.796875 15.09375 -20.796875 
L 7.90625 -20.796875 
L 7.90625 -13.28125 
L 13.1875 -13.28125 
Q 16.890625 -13.28125 18.9375 -11.515625 
Q 21 -9.765625 23.484375 -3.21875 
L 25.09375 0.875 
L 2.984375 54.6875 
L 12.5 54.6875 
L 29.59375 11.921875 
L 46.6875 54.6875 
L 56.203125 54.6875 
z
" id="DejaVuSans-121"/>
     </defs>
     <g transform="translate(200.735 335.860562)scale(0.1 -0.1)">
      <use xlink:href="#DejaVuSans-112"/>
      <use x="63.476562" xlink:href="#DejaVuSans-114"/>
      <use x="102.339844" xlink:href="#DejaVuSans-101"/>
      <use x="163.863281" xlink:href="#DejaVuSans-115"/>
      <use x="215.962891" xlink:href="#DejaVuSans-115"/>
      <use x="268.0625" xlink:href="#DejaVuSans-111"/>
      <use x="329.244141" xlink:href="#DejaVuSans-114"/>
      <use x="370.357422" xlink:href="#DejaVuSans-115"/>
      <use x="422.457031" xlink:href="#DejaVuSans-95"/>
      <use x="472.457031" xlink:href="#DejaVuSans-100"/>
      <use x="535.933594" xlink:href="#DejaVuSans-97"/>
      <use x="597.212891" xlink:href="#DejaVuSans-121"/>
      <use x="656.392578" xlink:href="#DejaVuSans-115"/>
     </g>
    </g>
   </g>
   <g id="matplotlib.axis_2">
    <g id="ytick_1">
     <g id="line2d_6">
      <defs>
       <path d="M 0 0 
L -3.5 0 
" id="mea5d366d91" style="stroke:#000000;stroke-width:0.8;"/>
      </defs>
      <g>
       <use style="stroke:#000000;stroke-width:0.8;" x="57.6" xlink:href="#mea5d366d91" y="174.528"/>
      </g>
     </g>
    </g>
   </g>
   <g id="line2d_7">
    <path clip-path="url(#pd663edb5d8)" d="M 105.026735 174.528 
L 105.026735 174.528 
" style="fill:none;stroke:#ffa500;stroke-linecap:square;stroke-width:1.5;"/>
   </g>
   <g id="line2d_8">
    <path clip-path="url(#pd663edb5d8)" d="M 105.026735 174.528 
L 105.026735 174.528 
" style="fill:none;stroke:#4c4c4c;stroke-linecap:square;stroke-width:4.5;"/>
   </g>
   <g id="line2d_9">
    <path clip-path="url(#pd663edb5d8)" d="M 105.026735 174.528 
L 105.026735 174.528 
" style="fill:none;stroke:#008000;stroke-linecap:square;stroke-width:1.5;"/>
   </g>
   <g id="line2d_10">
    <path clip-path="url(#pd663edb5d8)" d="M 105.026735 174.528 
L 105.026735 174.528 
" style="fill:none;stroke:#262626;stroke-linecap:square;stroke-width:4.5;"/>
   </g>
   <g id="patch_3">
    <path d="M 57.6 307.584 
L 57.6 41.472 
" style="fill:none;stroke:#000000;stroke-linecap:square;stroke-linejoin:miter;stroke-width:0.8;"/>
   </g>
   <g id="patch_4">
    <path d="M 414.72 307.584 
L 414.72 41.472 
" style="fill:none;stroke:#000000;stroke-linecap:square;stroke-linejoin:miter;stroke-width:0.8;"/>
   </g>
   <g id="patch_5">
    <path d="M 57.6 307.584 
L 414.72 307.584 
" style="fill:none;stroke:#000000;stroke-linecap:square;stroke-linejoin:miter;stroke-width:0.8;"/>
   </g>
   <g id="patch_6">
    <path d="M 57.6 41.472 
L 414.72 41.472 
" style="fill:none;stroke:#000000;stroke-linecap:square;stroke-linejoin:miter;stroke-width:0.8;"/>
   </g>
   <g id="PathCollection_1">
    <defs>
     <path d="M 0 1.5 
C 0.397805 1.5 0.77937 1.341951 1.06066 1.06066 
C 1.341951 0.77937 1.5 0.397805 1.5 0 
C 1.5 -0.397805 1.341951 -0.77937 1.06066 -1.06066 
C 0.77937 -1.341951 0.397805 -1.5 0 -1.5 
C -0.397805 -1.5 -0.77937 -1.341951 -1.06066 -1.06066 
C -1.341951 -0.77937 -1.5 -0.397805 -1.5 0 
C -1.5 0.397805 -1.341951 0.77937 -1.06066 1.06066 
C -0.77937 1.341951 -0.397805 1.5 0 1.5 
z
" id="md6701f1bb5" style="stroke:#4c4c4c;stroke-opacity:0.5;"/>
    </defs>
    <g clip-path="url(#pd663edb5d8)">
     <use style="fill:#ffffff;fill-opacity:0.5;stroke:#4c4c4c;stroke-opacity:0.5;" x="105.026735" xlink:href="#md6701f1bb5" y="174.528"/>
    </g>
   </g>
   <g id="PathCollection_2">
    <defs>
     <path d="M 0 1.5 
C 0.397805 1.5 0.77937 1.341951 1.06066 1.06066 
C 1.341951 0.77937 1.5 0.397805 1.5 0 
C 1.5 -0.397805 1.341951 -0.77937 1.06066 -1.06066 
C 0.77937 -1.341951 0.397805 -1.5 0 -1.5 
C -0.397805 -1.5 -0.77937 -1.341951 -1.06066 -1.06066 
C -1.341951 -0.77937 -1.5 -0.397805 -1.5 0 
C -1.5 0.397805 -1.341951 0.77937 -1.06066 1.06066 
C -0.77937 1.341951 -0.397805 1.5 0 1.5 
z
" id="m6d8d800079" style="stroke:#262626;stroke-opacity:0.5;"/>
    </defs>
    <g clip-path="url(#pd663edb5d8)">
     <use style="fill:#ffffff;fill-opacity:0.5;stroke:#262626;stroke-opacity:0.5;" x="105.026735" xlink:href="#m6d8d800079" y="174.528"/>
    </g>
   </g>
   <g id="text_7">
    <!-- Association of pressors_days vs. nasal_cannula -->
    <defs>
     <path d="M 34.1875 63.1875 
L 20.796875 26.90625 
L 47.609375 26.90625 
z
M 28.609375 72.90625 
L 39.796875 72.90625 
L 67.578125 0 
L 57.328125 0 
L 50.6875 18.703125 
L 17.828125 18.703125 
L 11.1875 0 
L 0.78125 0 
z
" id="DejaVuSans-65"/>
     <path d="M 48.78125 52.59375 
L 48.78125 44.1875 
Q 44.96875 46.296875 41.140625 47.34375 
Q 37.3125 48.390625 33.40625 48.390625 
Q 24.65625 48.390625 19.8125 42.84375 
Q 14.984375 37.3125 14.984375 27.296875 
Q 14.984375 17.28125 19.8125 11.734375 
Q 24.65625 6.203125 33.40625 6.203125 
Q 37.3125 6.203125 41.140625 7.25 
Q 44.96875 8.296875 48.78125 10.40625 
L 48.78125 2.09375 
Q 45.015625 0.34375 40.984375 -0.53125 
Q 36.96875 -1.421875 32.421875 -1.421875 
Q 20.0625 -1.421875 12.78125 6.34375 
Q 5.515625 14.109375 5.515625 27.296875 
Q 5.515625 40.671875 12.859375 48.328125 
Q 20.21875 56 33.015625 56 
Q 37.15625 56 41.109375 55.140625 
Q 45.0625 54.296875 48.78125 52.59375 
z
" id="DejaVuSans-99"/>
     <path d="M 9.421875 54.6875 
L 18.40625 54.6875 
L 18.40625 0 
L 9.421875 0 
z
M 9.421875 75.984375 
L 18.40625 75.984375 
L 18.40625 64.59375 
L 9.421875 64.59375 
z
" id="DejaVuSans-105"/>
     <path d="M 18.3125 70.21875 
L 18.3125 54.6875 
L 36.8125 54.6875 
L 36.8125 47.703125 
L 18.3125 47.703125 
L 18.3125 18.015625 
Q 18.3125 11.328125 20.140625 9.421875 
Q 21.96875 7.515625 27.59375 7.515625 
L 36.8125 7.515625 
L 36.8125 0 
L 27.59375 0 
Q 17.1875 0 13.234375 3.875 
Q 9.28125 7.765625 9.28125 18.015625 
L 9.28125 47.703125 
L 2.6875 47.703125 
L 2.6875 54.6875 
L 9.28125 54.6875 
L 9.28125 70.21875 
z
" id="DejaVuSans-116"/>
     <path d="M 54.890625 33.015625 
L 54.890625 0 
L 45.90625 0 
L 45.90625 32.71875 
Q 45.90625 40.484375 42.875 44.328125 
Q 39.84375 48.1875 33.796875 48.1875 
Q 26.515625 48.1875 22.3125 43.546875 
Q 18.109375 38.921875 18.109375 30.90625 
L 18.109375 0 
L 9.078125 0 
L 9.078125 54.6875 
L 18.109375 54.6875 
L 18.109375 46.1875 
Q 21.34375 51.125 25.703125 53.5625 
Q 30.078125 56 35.796875 56 
Q 45.21875 56 50.046875 50.171875 
Q 54.890625 44.34375 54.890625 33.015625 
z
" id="DejaVuSans-110"/>
     <path id="DejaVuSans-32"/>
     <path d="M 37.109375 75.984375 
L 37.109375 68.5 
L 28.515625 68.5 
Q 23.6875 68.5 21.796875 66.546875 
Q 19.921875 64.59375 19.921875 59.515625 
L 19.921875 54.6875 
L 34.71875 54.6875 
L 34.71875 47.703125 
L 19.921875 47.703125 
L 19.921875 0 
L 10.890625 0 
L 10.890625 47.703125 
L 2.296875 47.703125 
L 2.296875 54.6875 
L 10.890625 54.6875 
L 10.890625 58.5 
Q 10.890625 67.625 15.140625 71.796875 
Q 19.390625 75.984375 28.609375 75.984375 
z
" id="DejaVuSans-102"/>
     <path d="M 2.984375 54.6875 
L 12.5 54.6875 
L 29.59375 8.796875 
L 46.6875 54.6875 
L 56.203125 54.6875 
L 35.6875 0 
L 23.484375 0 
z
" id="DejaVuSans-118"/>
     <path d="M 10.6875 12.40625 
L 21 12.40625 
L 21 0 
L 10.6875 0 
z
" id="DejaVuSans-46"/>
     <path d="M 9.421875 75.984375 
L 18.40625 75.984375 
L 18.40625 0 
L 9.421875 0 
z
" id="DejaVuSans-108"/>
     <path d="M 8.5 21.578125 
L 8.5 54.6875 
L 17.484375 54.6875 
L 17.484375 21.921875 
Q 17.484375 14.15625 20.5 10.265625 
Q 23.53125 6.390625 29.59375 6.390625 
Q 36.859375 6.390625 41.078125 11.03125 
Q 45.3125 15.671875 45.3125 23.6875 
L 45.3125 54.6875 
L 54.296875 54.6875 
L 54.296875 0 
L 45.3125 0 
L 45.3125 8.40625 
Q 42.046875 3.421875 37.71875 1 
Q 33.40625 -1.421875 27.6875 -1.421875 
Q 18.265625 -1.421875 13.375 4.4375 
Q 8.5 10.296875 8.5 21.578125 
z
M 31.109375 56 
z
" id="DejaVuSans-117"/>
    </defs>
    <g transform="translate(94.816875 35.472)scale(0.12 -0.12)">
     <use xlink:href="#DejaVuSans-65"/>
     <use x="68.408203" xlink:href="#DejaVuSans-115"/>
     <use x="120.507812" xlink:href="#DejaVuSans-115"/>
     <use x="172.607422" xlink:href="#DejaVuSans-111"/>
     <use x="233.789062" xlink:href="#DejaVuSans-99"/>
     <use x="288.769531" xlink:href="#DejaVuSans-105"/>
     <use x="316.552734" xlink:href="#DejaVuSans-97"/>
     <use x="377.832031" xlink:href="#DejaVuSans-116"/>
     <use x="417.041016" xlink:href="#DejaVuSans-105"/>
     <use x="444.824219" xlink:href="#DejaVuSans-111"/>
     <use x="506.005859" xlink:href="#DejaVuSans-110"/>
     <use x="569.384766" xlink:href="#DejaVuSans-32"/>
     <use x="601.171875" xlink:href="#DejaVuSans-111"/>
     <use x="662.353516" xlink:href="#DejaVuSans-102"/>
     <use x="697.558594" xlink:href="#DejaVuSans-32"/>
     <use x="729.345703" xlink:href="#DejaVuSans-112"/>
     <use x="792.822266" xlink:href="#DejaVuSans-114"/>
     <use x="831.685547" xlink:href="#DejaVuSans-101"/>
     <use x="893.208984" xlink:href="#DejaVuSans-115"/>
     <use x="945.308594" xlink:href="#DejaVuSans-115"/>
     <use x="997.408203" xlink:href="#DejaVuSans-111"/>
     <use x="1058.589844" xlink:href="#DejaVuSans-114"/>
     <use x="1099.703125" xlink:href="#DejaVuSans-115"/>
     <use x="1151.802734" xlink:href="#DejaVuSans-95"/>
     <use x="1201.802734" xlink:href="#DejaVuSans-100"/>
     <use x="1265.279297" xlink:href="#DejaVuSans-97"/>
     <use x="1326.558594" xlink:href="#DejaVuSans-121"/>
     <use x="1385.738281" xlink:href="#DejaVuSans-115"/>
     <use x="1437.837891" xlink:href="#DejaVuSans-32"/>
     <use x="1469.625" xlink:href="#DejaVuSans-118"/>
     <use x="1528.804688" xlink:href="#DejaVuSans-115"/>
     <use x="1580.904297" xlink:href="#DejaVuSans-46"/>
     <use x="1612.691406" xlink:href="#DejaVuSans-32"/>
     <use x="1644.478516" xlink:href="#DejaVuSans-110"/>
     <use x="1707.857422" xlink:href="#DejaVuSans-97"/>
     <use x="1769.136719" xlink:href="#DejaVuSans-115"/>
     <use x="1821.236328" xlink:href="#DejaVuSans-97"/>
     <use x="1882.515625" xlink:href="#DejaVuSans-108"/>
     <use x="1910.298828" xlink:href="#DejaVuSans-95"/>
     <use x="1960.298828" xlink:href="#DejaVuSans-99"/>
     <use x="2015.279297" xlink:href="#DejaVuSans-97"/>
     <use x="2076.558594" xlink:href="#DejaVuSans-110"/>
     <use x="2139.9375" xlink:href="#DejaVuSans-110"/>
     <use x="2203.316406" xlink:href="#DejaVuSans-117"/>
     <use x="2266.695312" xlink:href="#DejaVuSans-108"/>
     <use x="2294.478516" xlink:href="#DejaVuSans-97"/>
    </g>
   </g>
   <g id="legend_1">
    <g id="patch_7">
     <path d="M 253.82625 79.3845 
L 407.72 79.3845 
Q 409.72 79.3845 409.72 77.3845 
L 409.72 48.472 
Q 409.72 46.472 407.72 46.472 
L 253.82625 46.472 
Q 251.82625 46.472 251.82625 48.472 
L 251.82625 77.3845 
Q 251.82625 79.3845 253.82625 79.3845 
z
" style="fill:#ffffff;opacity:0.8;stroke:#cccccc;stroke-linejoin:miter;"/>
    </g>
    <g id="line2d_11">
     <path d="M 255.82625 54.570438 
L 275.82625 54.570438 
" style="fill:none;stroke:#ffa500;stroke-linecap:square;stroke-width:1.5;"/>
    </g>
    <g id="line2d_12"/>
    <g id="text_8">
     <!-- nasal_cannula (318) -->
     <defs>
      <path d="M 31 75.875 
Q 24.46875 64.65625 21.28125 53.65625 
Q 18.109375 42.671875 18.109375 31.390625 
Q 18.109375 20.125 21.3125 9.0625 
Q 24.515625 -2 31 -13.1875 
L 23.1875 -13.1875 
Q 15.875 -1.703125 12.234375 9.375 
Q 8.59375 20.453125 8.59375 31.390625 
Q 8.59375 42.28125 12.203125 53.3125 
Q 15.828125 64.359375 23.1875 75.875 
z
" id="DejaVuSans-40"/>
      <path d="M 40.578125 39.3125 
Q 47.65625 37.796875 51.625 33 
Q 55.609375 28.21875 55.609375 21.1875 
Q 55.609375 10.40625 48.1875 4.484375 
Q 40.765625 -1.421875 27.09375 -1.421875 
Q 22.515625 -1.421875 17.65625 -0.515625 
Q 12.796875 0.390625 7.625 2.203125 
L 7.625 11.71875 
Q 11.71875 9.328125 16.59375 8.109375 
Q 21.484375 6.890625 26.8125 6.890625 
Q 36.078125 6.890625 40.9375 10.546875 
Q 45.796875 14.203125 45.796875 21.1875 
Q 45.796875 27.640625 41.28125 31.265625 
Q 36.765625 34.90625 28.71875 34.90625 
L 20.21875 34.90625 
L 20.21875 43.015625 
L 29.109375 43.015625 
Q 36.375 43.015625 40.234375 45.921875 
Q 44.09375 48.828125 44.09375 54.296875 
Q 44.09375 59.90625 40.109375 62.90625 
Q 36.140625 65.921875 28.71875 65.921875 
Q 24.65625 65.921875 20.015625 65.03125 
Q 15.375 64.15625 9.8125 62.3125 
L 9.8125 71.09375 
Q 15.4375 72.65625 20.34375 73.4375 
Q 25.25 74.21875 29.59375 74.21875 
Q 40.828125 74.21875 47.359375 69.109375 
Q 53.90625 64.015625 53.90625 55.328125 
Q 53.90625 49.265625 50.4375 45.09375 
Q 46.96875 40.921875 40.578125 39.3125 
z
" id="DejaVuSans-51"/>
      <path d="M 31.78125 34.625 
Q 24.75 34.625 20.71875 30.859375 
Q 16.703125 27.09375 16.703125 20.515625 
Q 16.703125 13.921875 20.71875 10.15625 
Q 24.75 6.390625 31.78125 6.390625 
Q 38.8125 6.390625 42.859375 10.171875 
Q 46.921875 13.96875 46.921875 20.515625 
Q 46.921875 27.09375 42.890625 30.859375 
Q 38.875 34.625 31.78125 34.625 
z
M 21.921875 38.8125 
Q 15.578125 40.375 12.03125 44.71875 
Q 8.5 49.078125 8.5 55.328125 
Q 8.5 64.0625 14.71875 69.140625 
Q 20.953125 74.21875 31.78125 74.21875 
Q 42.671875 74.21875 48.875 69.140625 
Q 55.078125 64.0625 55.078125 55.328125 
Q 55.078125 49.078125 51.53125 44.71875 
Q 48 40.375 41.703125 38.8125 
Q 48.828125 37.15625 52.796875 32.3125 
Q 56.78125 27.484375 56.78125 20.515625 
Q 56.78125 9.90625 50.3125 4.234375 
Q 43.84375 -1.421875 31.78125 -1.421875 
Q 19.734375 -1.421875 13.25 4.234375 
Q 6.78125 9.90625 6.78125 20.515625 
Q 6.78125 27.484375 10.78125 32.3125 
Q 14.796875 37.15625 21.921875 38.8125 
z
M 18.3125 54.390625 
Q 18.3125 48.734375 21.84375 45.5625 
Q 25.390625 42.390625 31.78125 42.390625 
Q 38.140625 42.390625 41.71875 45.5625 
Q 45.3125 48.734375 45.3125 54.390625 
Q 45.3125 60.0625 41.71875 63.234375 
Q 38.140625 66.40625 31.78125 66.40625 
Q 25.390625 66.40625 21.84375 63.234375 
Q 18.3125 60.0625 18.3125 54.390625 
z
" id="DejaVuSans-56"/>
      <path d="M 8.015625 75.875 
L 15.828125 75.875 
Q 23.140625 64.359375 26.78125 53.3125 
Q 30.421875 42.28125 30.421875 31.390625 
Q 30.421875 20.453125 26.78125 9.375 
Q 23.140625 -1.703125 15.828125 -13.1875 
L 8.015625 -13.1875 
Q 14.5 -2 17.703125 9.0625 
Q 20.90625 20.125 20.90625 31.390625 
Q 20.90625 42.671875 17.703125 53.65625 
Q 14.5 64.65625 8.015625 75.875 
z
" id="DejaVuSans-41"/>
     </defs>
     <g transform="translate(283.82625 58.070438)scale(0.1 -0.1)">
      <use xlink:href="#DejaVuSans-110"/>
      <use x="63.378906" xlink:href="#DejaVuSans-97"/>
      <use x="124.658203" xlink:href="#DejaVuSans-115"/>
      <use x="176.757812" xlink:href="#DejaVuSans-97"/>
      <use x="238.037109" xlink:href="#DejaVuSans-108"/>
      <use x="265.820312" xlink:href="#DejaVuSans-95"/>
      <use x="315.820312" xlink:href="#DejaVuSans-99"/>
      <use x="370.800781" xlink:href="#DejaVuSans-97"/>
      <use x="432.080078" xlink:href="#DejaVuSans-110"/>
      <use x="495.458984" xlink:href="#DejaVuSans-110"/>
      <use x="558.837891" xlink:href="#DejaVuSans-117"/>
      <use x="622.216797" xlink:href="#DejaVuSans-108"/>
      <use x="650" xlink:href="#DejaVuSans-97"/>
      <use x="711.279297" xlink:href="#DejaVuSans-32"/>
      <use x="743.066406" xlink:href="#DejaVuSans-40"/>
      <use x="782.080078" xlink:href="#DejaVuSans-51"/>
      <use x="845.703125" xlink:href="#DejaVuSans-49"/>
      <use x="909.326172" xlink:href="#DejaVuSans-56"/>
      <use x="972.949219" xlink:href="#DejaVuSans-41"/>
     </g>
    </g>
    <g id="line2d_13">
     <path d="M 255.82625 69.526688 
L 275.82625 69.526688 
" style="fill:none;stroke:#008000;stroke-linecap:square;stroke-width:1.5;"/>
    </g>
    <g id="line2d_14"/>
    <g id="text_9">
     <!-- Not nasal_cannula (163) -->
     <defs>
      <path d="M 9.8125 72.90625 
L 23.09375 72.90625 
L 55.421875 11.921875 
L 55.421875 72.90625 
L 64.984375 72.90625 
L 64.984375 0 
L 51.703125 0 
L 19.390625 60.984375 
L 19.390625 0 
L 9.8125 0 
z
" id="DejaVuSans-78"/>
      <path d="M 33.015625 40.375 
Q 26.375 40.375 22.484375 35.828125 
Q 18.609375 31.296875 18.609375 23.390625 
Q 18.609375 15.53125 22.484375 10.953125 
Q 26.375 6.390625 33.015625 6.390625 
Q 39.65625 6.390625 43.53125 10.953125 
Q 47.40625 15.53125 47.40625 23.390625 
Q 47.40625 31.296875 43.53125 35.828125 
Q 39.65625 40.375 33.015625 40.375 
z
M 52.59375 71.296875 
L 52.59375 62.3125 
Q 48.875 64.0625 45.09375 64.984375 
Q 41.3125 65.921875 37.59375 65.921875 
Q 27.828125 65.921875 22.671875 59.328125 
Q 17.53125 52.734375 16.796875 39.40625 
Q 19.671875 43.65625 24.015625 45.921875 
Q 28.375 48.1875 33.59375 48.1875 
Q 44.578125 48.1875 50.953125 41.515625 
Q 57.328125 34.859375 57.328125 23.390625 
Q 57.328125 12.15625 50.6875 5.359375 
Q 44.046875 -1.421875 33.015625 -1.421875 
Q 20.359375 -1.421875 13.671875 8.265625 
Q 6.984375 17.96875 6.984375 36.375 
Q 6.984375 53.65625 15.1875 63.9375 
Q 23.390625 74.21875 37.203125 74.21875 
Q 40.921875 74.21875 44.703125 73.484375 
Q 48.484375 72.75 52.59375 71.296875 
z
" id="DejaVuSans-54"/>
     </defs>
     <g transform="translate(283.82625 73.026688)scale(0.1 -0.1)">
      <use xlink:href="#DejaVuSans-78"/>
      <use x="74.804688" xlink:href="#DejaVuSans-111"/>
      <use x="135.986328" xlink:href="#DejaVuSans-116"/>
      <use x="175.195312" xlink:href="#DejaVuSans-32"/>
      <use x="206.982422" xlink:href="#DejaVuSans-110"/>
      <use x="270.361328" xlink:href="#DejaVuSans-97"/>
      <use x="331.640625" xlink:href="#DejaVuSans-115"/>
      <use x="383.740234" xlink:href="#DejaVuSans-97"/>
      <use x="445.019531" xlink:href="#DejaVuSans-108"/>
      <use x="472.802734" xlink:href="#DejaVuSans-95"/>
      <use x="522.802734" xlink:href="#DejaVuSans-99"/>
      <use x="577.783203" xlink:href="#DejaVuSans-97"/>
      <use x="639.0625" xlink:href="#DejaVuSans-110"/>
      <use x="702.441406" xlink:href="#DejaVuSans-110"/>
      <use x="765.820312" xlink:href="#DejaVuSans-117"/>
      <use x="829.199219" xlink:href="#DejaVuSans-108"/>
      <use x="856.982422" xlink:href="#DejaVuSans-97"/>
      <use x="918.261719" xlink:href="#DejaVuSans-32"/>
      <use x="950.048828" xlink:href="#DejaVuSans-40"/>
      <use x="989.0625" xlink:href="#DejaVuSans-49"/>
      <use x="1052.685547" xlink:href="#DejaVuSans-54"/>
      <use x="1116.308594" xlink:href="#DejaVuSans-51"/>
      <use x="1179.931641" xlink:href="#DejaVuSans-41"/>
     </g>
    </g>
   </g>
  </g>
 </g>
 <defs>
  <clipPath id="pd663edb5d8">
   <rect height="266.112" width="357.12" x="57.6" y="41.472"/>
  </clipPath>
 </defs>
</svg>
