<?xml version="1.0" encoding="utf-8" standalone="no"?>
<!DOCTYPE svg PUBLIC "-//W3C//DTD SVG 1.1//EN"
  "http://www.w3.org/Graphics/SVG/1.1/DTD/svg11.dtd">
<!-- Created with matplotlib (https://matplotlib.org/) -->
<svg height="345.6pt" version="1.1" viewBox="0 0 460.8 345.6" width="460.8pt" xmlns="http://www.w3.org/2000/svg" xmlns:xlink="http://www.w3.org/1999/xlink">
 <defs>
  <style type="text/css">
*{stroke-linecap:butt;stroke-linejoin:round;}
  </style>
 </defs>
 <g id="figure_1">
  <g id="patch_1">
   <path d="M 0 345.6 
L 460.8 345.6 
L 460.8 0 
L 0 0 
z
" style="fill:#ffffff;"/>
  </g>
  <g id="axes_1">
   <g id="patch_2">
    <path d="M 57.6 307.584 
L 414.72 307.584 
L 414.72 41.472 
L 57.6 41.472 
z
" style="fill:#ffffff;"/>
   </g>
   <g id="PolyCollection_1">
    <defs>
     <path d="M 77.258968 -166.67706 
L 77.258968 -175.46694 
L 79.788154 -176.589479 
L 82.317339 -177.936421 
L 84.846525 -179.53593 
L 87.37571 -181.415729 
L 89.904895 -183.602077 
L 92.434081 -186.118624 
L 94.963266 -188.985199 
L 97.492452 -192.216572 
L 100.021637 -195.821254 
L 102.550823 -199.800402 
L 105.080008 -204.146894 
L 107.609193 -208.844638 
L 110.138379 -213.868154 
L 112.667564 -219.182473 
L 115.19675 -224.743368 
L 117.725935 -230.497918 
L 120.255121 -236.385368 
L 122.784306 -242.338265 
L 125.313492 -248.283807 
L 127.842677 -254.145344 
L 130.371862 -259.843973 
L 132.901048 -265.300168 
L 135.430233 -270.435396 
L 137.959419 -275.173678 
L 140.488604 -279.443082 
L 143.01779 -283.177132 
L 145.546975 -286.316125 
L 148.076161 -288.808378 
L 150.605346 -290.611389 
L 153.134531 -291.692924 
L 155.663717 -292.032 
L 158.192902 -291.619749 
L 160.722088 -290.460108 
L 163.251273 -288.570286 
L 165.780459 -285.980945 
L 168.309644 -282.736024 
L 170.83883 -278.892166 
L 173.368015 -274.517692 
L 175.8972 -269.691132 
L 178.426386 -264.499296 
L 180.955571 -259.034973 
L 183.484757 -253.394299 
L 186.013942 -247.673934 
L 188.543128 -241.96816 
L 191.072313 -236.36605 
L 193.601499 -230.948846 
L 196.130684 -225.787697 
L 198.659869 -220.941855 
L 201.189055 -216.457432 
L 203.71824 -212.366766 
L 206.247426 -208.688416 
L 208.776611 -205.427761 
L 211.305797 -202.578144 
L 213.834982 -200.122473 
L 216.364167 -198.035158 
L 218.893353 -196.284257 
L 221.422538 -194.833693 
L 223.951724 -193.6454 
L 226.480909 -192.681284 
L 229.010095 -191.904895 
L 231.53928 -191.282722 
L 234.068466 -190.785093 
L 236.597651 -190.386637 
L 239.126836 -190.066355 
L 241.656022 -189.807328 
L 244.185207 -189.596147 
L 246.714393 -189.422153 
L 249.243578 -189.276576 
L 251.772764 -189.151677 
L 254.301949 -189.039979 
L 256.831135 -188.93366 
L 259.36032 -188.824163 
L 261.889505 -188.702044 
L 264.418691 -188.557062 
L 266.947876 -188.378492 
L 269.477062 -188.155616 
L 272.006247 -187.878323 
L 274.535433 -187.537767 
L 277.064618 -187.127 
L 279.593804 -186.641518 
L 282.122989 -186.079672 
L 284.652174 -185.442891 
L 287.18136 -184.735718 
L 289.710545 -183.965633 
L 292.239731 -183.142702 
L 294.768916 -182.279063 
L 297.298102 -181.388315 
L 299.827287 -180.48483 
L 302.356472 -179.583071 
L 304.885658 -178.696936 
L 307.414843 -177.839187 
L 309.944029 -177.020981 
L 312.473214 -176.251538 
L 315.0024 -175.537941 
L 317.531585 -174.885067 
L 320.060771 -174.295641 
L 322.589956 -173.770399 
L 325.119141 -173.308314 
L 327.648327 -172.906891 
L 327.648327 -169.237109 
L 327.648327 -169.237109 
L 325.119141 -168.835686 
L 322.589956 -168.373601 
L 320.060771 -167.848359 
L 317.531585 -167.258933 
L 315.0024 -166.606059 
L 312.473214 -165.892462 
L 309.944029 -165.123019 
L 307.414843 -164.304813 
L 304.885658 -163.447064 
L 302.356472 -162.560929 
L 299.827287 -161.65917 
L 297.298102 -160.755685 
L 294.768916 -159.864937 
L 292.239731 -159.001298 
L 289.710545 -158.178367 
L 287.18136 -157.408282 
L 284.652174 -156.701109 
L 282.122989 -156.064328 
L 279.593804 -155.502482 
L 277.064618 -155.017 
L 274.535433 -154.606233 
L 272.006247 -154.265677 
L 269.477062 -153.988384 
L 266.947876 -153.765508 
L 264.418691 -153.586938 
L 261.889505 -153.441956 
L 259.36032 -153.319837 
L 256.831135 -153.21034 
L 254.301949 -153.104021 
L 251.772764 -152.992323 
L 249.243578 -152.867424 
L 246.714393 -152.721847 
L 244.185207 -152.547853 
L 241.656022 -152.336672 
L 239.126836 -152.077645 
L 236.597651 -151.757363 
L 234.068466 -151.358907 
L 231.53928 -150.861278 
L 229.010095 -150.239105 
L 226.480909 -149.462716 
L 223.951724 -148.4986 
L 221.422538 -147.310307 
L 218.893353 -145.859743 
L 216.364167 -144.108842 
L 213.834982 -142.021527 
L 211.305797 -139.565856 
L 208.776611 -136.716239 
L 206.247426 -133.455584 
L 203.71824 -129.777234 
L 201.189055 -125.686568 
L 198.659869 -121.202145 
L 196.130684 -116.356303 
L 193.601499 -111.195154 
L 191.072313 -105.77795 
L 188.543128 -100.17584 
L 186.013942 -94.470066 
L 183.484757 -88.749701 
L 180.955571 -83.109027 
L 178.426386 -77.644704 
L 175.8972 -72.452868 
L 173.368015 -67.626308 
L 170.83883 -63.251834 
L 168.309644 -59.407976 
L 165.780459 -56.163055 
L 163.251273 -53.573714 
L 160.722088 -51.683892 
L 158.192902 -50.524251 
L 155.663717 -50.112 
L 153.134531 -50.451076 
L 150.605346 -51.532611 
L 148.076161 -53.335622 
L 145.546975 -55.827875 
L 143.01779 -58.966868 
L 140.488604 -62.700918 
L 137.959419 -66.970322 
L 135.430233 -71.708604 
L 132.901048 -76.843832 
L 130.371862 -82.300027 
L 127.842677 -87.998656 
L 125.313492 -93.860193 
L 122.784306 -99.805735 
L 120.255121 -105.758632 
L 117.725935 -111.646082 
L 115.19675 -117.400632 
L 112.667564 -122.961527 
L 110.138379 -128.275846 
L 107.609193 -133.299362 
L 105.080008 -137.997106 
L 102.550823 -142.343598 
L 100.021637 -146.322746 
L 97.492452 -149.927428 
L 94.963266 -153.158801 
L 92.434081 -156.025376 
L 89.904895 -158.541923 
L 87.37571 -160.728271 
L 84.846525 -162.60807 
L 82.317339 -164.207579 
L 79.788154 -165.554521 
L 77.258968 -166.67706 
z
" id="mb046896759" style="stroke:#4c4c4c;stroke-opacity:0.5;stroke-width:1.5;"/>
    </defs>
    <g clip-path="url(#p1ae5ab86e7)">
     <use style="fill:#df9c20;fill-opacity:0.5;stroke:#4c4c4c;stroke-opacity:0.5;stroke-width:1.5;" x="0" xlink:href="#mb046896759" y="345.6"/>
    </g>
   </g>
   <g id="PolyCollection_2">
    <defs>
     <path d="M 73.832727 -170.678366 
L 73.832727 -171.465634 
L 77.112066 -171.80849 
L 80.391405 -172.376238 
L 83.670744 -173.272124 
L 86.950083 -174.629232 
L 90.229421 -176.612828 
L 93.50876 -179.415455 
L 96.788099 -183.238578 
L 100.067438 -188.258925 
L 103.346777 -194.586568 
L 106.626116 -202.229466 
L 109.905455 -211.078531 
L 113.184793 -220.916524 
L 116.464132 -231.440677 
L 119.743471 -242.284018 
L 123.02281 -253.028599 
L 126.302149 -263.21803 
L 129.581488 -272.383608 
L 132.860826 -280.091392 
L 136.140165 -286.002941 
L 139.419504 -289.932057 
L 142.698843 -291.879387 
L 145.978182 -292.032 
L 149.257521 -290.720882 
L 152.53686 -288.337385 
L 155.816198 -285.225327 
L 159.095537 -281.585704 
L 162.374876 -277.44046 
L 165.654215 -272.684449 
L 168.933554 -267.211146 
L 172.212893 -261.051205 
L 175.492231 -254.445811 
L 178.77157 -247.806066 
L 182.050909 -241.572011 
L 185.330248 -236.043026 
L 188.609587 -231.269048 
L 191.888926 -227.058461 
L 195.168264 -223.095298 
L 198.447603 -219.103065 
L 201.726942 -214.974333 
L 205.006281 -210.809034 
L 208.28562 -206.852646 
L 211.564959 -203.37206 
L 214.844298 -200.530979 
L 218.123636 -198.320445 
L 221.402975 -196.569512 
L 224.682314 -195.022334 
L 227.961653 -193.440174 
L 231.240992 -191.682245 
L 234.520331 -189.737085 
L 237.799669 -187.703178 
L 241.079008 -185.737942 
L 244.358347 -183.999574 
L 247.637686 -182.599715 
L 250.917025 -181.575169 
L 254.196364 -180.880756 
L 257.475702 -180.402701 
L 260.755041 -179.989631 
L 264.03438 -179.493928 
L 267.313719 -178.811802 
L 270.593058 -177.909311 
L 273.872397 -176.825836 
L 277.151736 -175.654898 
L 280.431074 -174.51088 
L 283.710413 -173.494815 
L 286.989752 -172.671033 
L 290.269091 -172.060265 
L 293.54843 -171.647505 
L 296.827769 -171.397983 
L 300.107107 -171.273681 
L 303.386446 -171.245024 
L 306.665785 -171.295565 
L 309.945124 -171.420032 
L 313.224463 -171.617542 
L 316.503802 -171.882624 
L 319.78314 -172.197258 
L 323.062479 -172.527281 
L 326.341818 -172.825479 
L 329.621157 -173.04136 
L 332.900496 -173.134649 
L 336.179835 -173.08747 
L 339.459174 -172.910341 
L 342.738512 -172.639555 
L 346.017851 -172.327129 
L 349.29719 -172.027377 
L 352.576529 -171.784813 
L 355.855868 -171.626533 
L 359.135207 -171.559694 
L 362.414545 -171.572906 
L 365.693884 -171.640217 
L 368.973223 -171.727091 
L 372.252562 -171.798175 
L 375.531901 -171.825798 
L 378.81124 -171.796759 
L 382.090579 -171.714684 
L 385.369917 -171.596746 
L 388.649256 -171.466253 
L 391.928595 -171.344501 
L 395.207934 -171.245257 
L 398.487273 -171.173327 
L 398.487273 -170.970673 
L 398.487273 -170.970673 
L 395.207934 -170.898743 
L 391.928595 -170.799499 
L 388.649256 -170.677747 
L 385.369917 -170.547254 
L 382.090579 -170.429316 
L 378.81124 -170.347241 
L 375.531901 -170.318202 
L 372.252562 -170.345825 
L 368.973223 -170.416909 
L 365.693884 -170.503783 
L 362.414545 -170.571094 
L 359.135207 -170.584306 
L 355.855868 -170.517467 
L 352.576529 -170.359187 
L 349.29719 -170.116623 
L 346.017851 -169.816871 
L 342.738512 -169.504445 
L 339.459174 -169.233659 
L 336.179835 -169.05653 
L 332.900496 -169.009351 
L 329.621157 -169.10264 
L 326.341818 -169.318521 
L 323.062479 -169.616719 
L 319.78314 -169.946742 
L 316.503802 -170.261376 
L 313.224463 -170.526458 
L 309.945124 -170.723968 
L 306.665785 -170.848435 
L 303.386446 -170.898976 
L 300.107107 -170.870319 
L 296.827769 -170.746017 
L 293.54843 -170.496495 
L 290.269091 -170.083735 
L 286.989752 -169.472967 
L 283.710413 -168.649185 
L 280.431074 -167.63312 
L 277.151736 -166.489102 
L 273.872397 -165.318164 
L 270.593058 -164.234689 
L 267.313719 -163.332198 
L 264.03438 -162.650072 
L 260.755041 -162.154369 
L 257.475702 -161.741299 
L 254.196364 -161.263244 
L 250.917025 -160.568831 
L 247.637686 -159.544285 
L 244.358347 -158.144426 
L 241.079008 -156.406058 
L 237.799669 -154.440822 
L 234.520331 -152.406915 
L 231.240992 -150.461755 
L 227.961653 -148.703826 
L 224.682314 -147.121666 
L 221.402975 -145.574488 
L 218.123636 -143.823555 
L 214.844298 -141.613021 
L 211.564959 -138.77194 
L 208.28562 -135.291354 
L 205.006281 -131.334966 
L 201.726942 -127.169667 
L 198.447603 -123.040935 
L 195.168264 -119.048702 
L 191.888926 -115.085539 
L 188.609587 -110.874952 
L 185.330248 -106.100974 
L 182.050909 -100.571989 
L 178.77157 -94.337934 
L 175.492231 -87.698189 
L 172.212893 -81.092795 
L 168.933554 -74.932854 
L 165.654215 -69.459551 
L 162.374876 -64.70354 
L 159.095537 -60.558296 
L 155.816198 -56.918673 
L 152.53686 -53.806615 
L 149.257521 -51.423118 
L 145.978182 -50.112 
L 142.698843 -50.264613 
L 139.419504 -52.211943 
L 136.140165 -56.141059 
L 132.860826 -62.052608 
L 129.581488 -69.760392 
L 126.302149 -78.92597 
L 123.02281 -89.115401 
L 119.743471 -99.859982 
L 116.464132 -110.703323 
L 113.184793 -121.227476 
L 109.905455 -131.065469 
L 106.626116 -139.914534 
L 103.346777 -147.557432 
L 100.067438 -153.885075 
L 96.788099 -158.905422 
L 93.50876 -162.728545 
L 90.229421 -165.531172 
L 86.950083 -167.514768 
L 83.670744 -168.871876 
L 80.391405 -169.767762 
L 77.112066 -170.33551 
L 73.832727 -170.678366 
z
" id="m6dc1dbf04c" style="stroke:#262626;stroke-opacity:0.5;stroke-width:1.5;"/>
    </defs>
    <g clip-path="url(#p1ae5ab86e7)">
     <use style="fill:#107010;fill-opacity:0.5;stroke:#262626;stroke-opacity:0.5;stroke-width:1.5;" x="0" xlink:href="#m6dc1dbf04c" y="345.6"/>
    </g>
   </g>
   <g id="matplotlib.axis_1">
    <g id="xtick_1">
     <g id="line2d_1">
      <defs>
       <path d="M 0 0 
L 0 3.5 
" id="mdef5b3bbc4" style="stroke:#000000;stroke-width:0.8;"/>
      </defs>
      <g>
       <use style="stroke:#000000;stroke-width:0.8;" x="96.519397" xlink:href="#mdef5b3bbc4" y="307.584"/>
      </g>
     </g>
     <g id="text_1">
      <!-- 0.0 -->
      <defs>
       <path d="M 31.78125 66.40625 
Q 24.171875 66.40625 20.328125 58.90625 
Q 16.5 51.421875 16.5 36.375 
Q 16.5 21.390625 20.328125 13.890625 
Q 24.171875 6.390625 31.78125 6.390625 
Q 39.453125 6.390625 43.28125 13.890625 
Q 47.125 21.390625 47.125 36.375 
Q 47.125 51.421875 43.28125 58.90625 
Q 39.453125 66.40625 31.78125 66.40625 
z
M 31.78125 74.21875 
Q 44.046875 74.21875 50.515625 64.515625 
Q 56.984375 54.828125 56.984375 36.375 
Q 56.984375 17.96875 50.515625 8.265625 
Q 44.046875 -1.421875 31.78125 -1.421875 
Q 19.53125 -1.421875 13.0625 8.265625 
Q 6.59375 17.96875 6.59375 36.375 
Q 6.59375 54.828125 13.0625 64.515625 
Q 19.53125 74.21875 31.78125 74.21875 
z
" id="DejaVuSans-48"/>
       <path d="M 10.6875 12.40625 
L 21 12.40625 
L 21 0 
L 10.6875 0 
z
" id="DejaVuSans-46"/>
      </defs>
      <g transform="translate(88.567835 322.182437)scale(0.1 -0.1)">
       <use xlink:href="#DejaVuSans-48"/>
       <use x="63.623047" xlink:href="#DejaVuSans-46"/>
       <use x="95.410156" xlink:href="#DejaVuSans-48"/>
      </g>
     </g>
    </g>
    <g id="xtick_2">
     <g id="line2d_2">
      <g>
       <use style="stroke:#000000;stroke-width:0.8;" x="144.671329" xlink:href="#mdef5b3bbc4" y="307.584"/>
      </g>
     </g>
     <g id="text_2">
      <!-- 2.5 -->
      <defs>
       <path d="M 19.1875 8.296875 
L 53.609375 8.296875 
L 53.609375 0 
L 7.328125 0 
L 7.328125 8.296875 
Q 12.9375 14.109375 22.625 23.890625 
Q 32.328125 33.6875 34.8125 36.53125 
Q 39.546875 41.84375 41.421875 45.53125 
Q 43.3125 49.21875 43.3125 52.78125 
Q 43.3125 58.59375 39.234375 62.25 
Q 35.15625 65.921875 28.609375 65.921875 
Q 23.96875 65.921875 18.8125 64.3125 
Q 13.671875 62.703125 7.8125 59.421875 
L 7.8125 69.390625 
Q 13.765625 71.78125 18.9375 73 
Q 24.125 74.21875 28.421875 74.21875 
Q 39.75 74.21875 46.484375 68.546875 
Q 53.21875 62.890625 53.21875 53.421875 
Q 53.21875 48.921875 51.53125 44.890625 
Q 49.859375 40.875 45.40625 35.40625 
Q 44.1875 33.984375 37.640625 27.21875 
Q 31.109375 20.453125 19.1875 8.296875 
z
" id="DejaVuSans-50"/>
       <path d="M 10.796875 72.90625 
L 49.515625 72.90625 
L 49.515625 64.59375 
L 19.828125 64.59375 
L 19.828125 46.734375 
Q 21.96875 47.46875 24.109375 47.828125 
Q 26.265625 48.1875 28.421875 48.1875 
Q 40.625 48.1875 47.75 41.5 
Q 54.890625 34.8125 54.890625 23.390625 
Q 54.890625 11.625 47.5625 5.09375 
Q 40.234375 -1.421875 26.90625 -1.421875 
Q 22.3125 -1.421875 17.546875 -0.640625 
Q 12.796875 0.140625 7.71875 1.703125 
L 7.71875 11.625 
Q 12.109375 9.234375 16.796875 8.0625 
Q 21.484375 6.890625 26.703125 6.890625 
Q 35.15625 6.890625 40.078125 11.328125 
Q 45.015625 15.765625 45.015625 23.390625 
Q 45.015625 31 40.078125 35.4375 
Q 35.15625 39.890625 26.703125 39.890625 
Q 22.75 39.890625 18.8125 39.015625 
Q 14.890625 38.140625 10.796875 36.28125 
z
" id="DejaVuSans-53"/>
      </defs>
      <g transform="translate(136.719767 322.182437)scale(0.1 -0.1)">
       <use xlink:href="#DejaVuSans-50"/>
       <use x="63.623047" xlink:href="#DejaVuSans-46"/>
       <use x="95.410156" xlink:href="#DejaVuSans-53"/>
      </g>
     </g>
    </g>
    <g id="xtick_3">
     <g id="line2d_3">
      <g>
       <use style="stroke:#000000;stroke-width:0.8;" x="192.823261" xlink:href="#mdef5b3bbc4" y="307.584"/>
      </g>
     </g>
     <g id="text_3">
      <!-- 5.0 -->
      <g transform="translate(184.871699 322.182437)scale(0.1 -0.1)">
       <use xlink:href="#DejaVuSans-53"/>
       <use x="63.623047" xlink:href="#DejaVuSans-46"/>
       <use x="95.410156" xlink:href="#DejaVuSans-48"/>
      </g>
     </g>
    </g>
    <g id="xtick_4">
     <g id="line2d_4">
      <g>
       <use style="stroke:#000000;stroke-width:0.8;" x="240.975193" xlink:href="#mdef5b3bbc4" y="307.584"/>
      </g>
     </g>
     <g id="text_4">
      <!-- 7.5 -->
      <defs>
       <path d="M 8.203125 72.90625 
L 55.078125 72.90625 
L 55.078125 68.703125 
L 28.609375 0 
L 18.3125 0 
L 43.21875 64.59375 
L 8.203125 64.59375 
z
" id="DejaVuSans-55"/>
      </defs>
      <g transform="translate(233.023631 322.182437)scale(0.1 -0.1)">
       <use xlink:href="#DejaVuSans-55"/>
       <use x="63.623047" xlink:href="#DejaVuSans-46"/>
       <use x="95.410156" xlink:href="#DejaVuSans-53"/>
      </g>
     </g>
    </g>
    <g id="xtick_5">
     <g id="line2d_5">
      <g>
       <use style="stroke:#000000;stroke-width:0.8;" x="289.127125" xlink:href="#mdef5b3bbc4" y="307.584"/>
      </g>
     </g>
     <g id="text_5">
      <!-- 10.0 -->
      <defs>
       <path d="M 12.40625 8.296875 
L 28.515625 8.296875 
L 28.515625 63.921875 
L 10.984375 60.40625 
L 10.984375 69.390625 
L 28.421875 72.90625 
L 38.28125 72.90625 
L 38.28125 8.296875 
L 54.390625 8.296875 
L 54.390625 0 
L 12.40625 0 
z
" id="DejaVuSans-49"/>
      </defs>
      <g transform="translate(277.994313 322.182437)scale(0.1 -0.1)">
       <use xlink:href="#DejaVuSans-49"/>
       <use x="63.623047" xlink:href="#DejaVuSans-48"/>
       <use x="127.246094" xlink:href="#DejaVuSans-46"/>
       <use x="159.033203" xlink:href="#DejaVuSans-48"/>
      </g>
     </g>
    </g>
    <g id="xtick_6">
     <g id="line2d_6">
      <g>
       <use style="stroke:#000000;stroke-width:0.8;" x="337.279057" xlink:href="#mdef5b3bbc4" y="307.584"/>
      </g>
     </g>
     <g id="text_6">
      <!-- 12.5 -->
      <g transform="translate(326.146245 322.182437)scale(0.1 -0.1)">
       <use xlink:href="#DejaVuSans-49"/>
       <use x="63.623047" xlink:href="#DejaVuSans-50"/>
       <use x="127.246094" xlink:href="#DejaVuSans-46"/>
       <use x="159.033203" xlink:href="#DejaVuSans-53"/>
      </g>
     </g>
    </g>
    <g id="xtick_7">
     <g id="line2d_7">
      <g>
       <use style="stroke:#000000;stroke-width:0.8;" x="385.430989" xlink:href="#mdef5b3bbc4" y="307.584"/>
      </g>
     </g>
     <g id="text_7">
      <!-- 15.0 -->
      <g transform="translate(374.298177 322.182437)scale(0.1 -0.1)">
       <use xlink:href="#DejaVuSans-49"/>
       <use x="63.623047" xlink:href="#DejaVuSans-53"/>
       <use x="127.246094" xlink:href="#DejaVuSans-46"/>
       <use x="159.033203" xlink:href="#DejaVuSans-48"/>
      </g>
     </g>
    </g>
    <g id="text_8">
     <!-- neutnadirac -->
     <defs>
      <path d="M 54.890625 33.015625 
L 54.890625 0 
L 45.90625 0 
L 45.90625 32.71875 
Q 45.90625 40.484375 42.875 44.328125 
Q 39.84375 48.1875 33.796875 48.1875 
Q 26.515625 48.1875 22.3125 43.546875 
Q 18.109375 38.921875 18.109375 30.90625 
L 18.109375 0 
L 9.078125 0 
L 9.078125 54.6875 
L 18.109375 54.6875 
L 18.109375 46.1875 
Q 21.34375 51.125 25.703125 53.5625 
Q 30.078125 56 35.796875 56 
Q 45.21875 56 50.046875 50.171875 
Q 54.890625 44.34375 54.890625 33.015625 
z
" id="DejaVuSans-110"/>
      <path d="M 56.203125 29.59375 
L 56.203125 25.203125 
L 14.890625 25.203125 
Q 15.484375 15.921875 20.484375 11.0625 
Q 25.484375 6.203125 34.421875 6.203125 
Q 39.59375 6.203125 44.453125 7.46875 
Q 49.3125 8.734375 54.109375 11.28125 
L 54.109375 2.78125 
Q 49.265625 0.734375 44.1875 -0.34375 
Q 39.109375 -1.421875 33.890625 -1.421875 
Q 20.796875 -1.421875 13.15625 6.1875 
Q 5.515625 13.8125 5.515625 26.8125 
Q 5.515625 40.234375 12.765625 48.109375 
Q 20.015625 56 32.328125 56 
Q 43.359375 56 49.78125 48.890625 
Q 56.203125 41.796875 56.203125 29.59375 
z
M 47.21875 32.234375 
Q 47.125 39.59375 43.09375 43.984375 
Q 39.0625 48.390625 32.421875 48.390625 
Q 24.90625 48.390625 20.390625 44.140625 
Q 15.875 39.890625 15.1875 32.171875 
z
" id="DejaVuSans-101"/>
      <path d="M 8.5 21.578125 
L 8.5 54.6875 
L 17.484375 54.6875 
L 17.484375 21.921875 
Q 17.484375 14.15625 20.5 10.265625 
Q 23.53125 6.390625 29.59375 6.390625 
Q 36.859375 6.390625 41.078125 11.03125 
Q 45.3125 15.671875 45.3125 23.6875 
L 45.3125 54.6875 
L 54.296875 54.6875 
L 54.296875 0 
L 45.3125 0 
L 45.3125 8.40625 
Q 42.046875 3.421875 37.71875 1 
Q 33.40625 -1.421875 27.6875 -1.421875 
Q 18.265625 -1.421875 13.375 4.4375 
Q 8.5 10.296875 8.5 21.578125 
z
M 31.109375 56 
z
" id="DejaVuSans-117"/>
      <path d="M 18.3125 70.21875 
L 18.3125 54.6875 
L 36.8125 54.6875 
L 36.8125 47.703125 
L 18.3125 47.703125 
L 18.3125 18.015625 
Q 18.3125 11.328125 20.140625 9.421875 
Q 21.96875 7.515625 27.59375 7.515625 
L 36.8125 7.515625 
L 36.8125 0 
L 27.59375 0 
Q 17.1875 0 13.234375 3.875 
Q 9.28125 7.765625 9.28125 18.015625 
L 9.28125 47.703125 
L 2.6875 47.703125 
L 2.6875 54.6875 
L 9.28125 54.6875 
L 9.28125 70.21875 
z
" id="DejaVuSans-116"/>
      <path d="M 34.28125 27.484375 
Q 23.390625 27.484375 19.1875 25 
Q 14.984375 22.515625 14.984375 16.5 
Q 14.984375 11.71875 18.140625 8.90625 
Q 21.296875 6.109375 26.703125 6.109375 
Q 34.1875 6.109375 38.703125 11.40625 
Q 43.21875 16.703125 43.21875 25.484375 
L 43.21875 27.484375 
z
M 52.203125 31.203125 
L 52.203125 0 
L 43.21875 0 
L 43.21875 8.296875 
Q 40.140625 3.328125 35.546875 0.953125 
Q 30.953125 -1.421875 24.3125 -1.421875 
Q 15.921875 -1.421875 10.953125 3.296875 
Q 6 8.015625 6 15.921875 
Q 6 25.140625 12.171875 29.828125 
Q 18.359375 34.515625 30.609375 34.515625 
L 43.21875 34.515625 
L 43.21875 35.40625 
Q 43.21875 41.609375 39.140625 45 
Q 35.0625 48.390625 27.6875 48.390625 
Q 23 48.390625 18.546875 47.265625 
Q 14.109375 46.140625 10.015625 43.890625 
L 10.015625 52.203125 
Q 14.9375 54.109375 19.578125 55.046875 
Q 24.21875 56 28.609375 56 
Q 40.484375 56 46.34375 49.84375 
Q 52.203125 43.703125 52.203125 31.203125 
z
" id="DejaVuSans-97"/>
      <path d="M 45.40625 46.390625 
L 45.40625 75.984375 
L 54.390625 75.984375 
L 54.390625 0 
L 45.40625 0 
L 45.40625 8.203125 
Q 42.578125 3.328125 38.25 0.953125 
Q 33.9375 -1.421875 27.875 -1.421875 
Q 17.96875 -1.421875 11.734375 6.484375 
Q 5.515625 14.40625 5.515625 27.296875 
Q 5.515625 40.1875 11.734375 48.09375 
Q 17.96875 56 27.875 56 
Q 33.9375 56 38.25 53.625 
Q 42.578125 51.265625 45.40625 46.390625 
z
M 14.796875 27.296875 
Q 14.796875 17.390625 18.875 11.75 
Q 22.953125 6.109375 30.078125 6.109375 
Q 37.203125 6.109375 41.296875 11.75 
Q 45.40625 17.390625 45.40625 27.296875 
Q 45.40625 37.203125 41.296875 42.84375 
Q 37.203125 48.484375 30.078125 48.484375 
Q 22.953125 48.484375 18.875 42.84375 
Q 14.796875 37.203125 14.796875 27.296875 
z
" id="DejaVuSans-100"/>
      <path d="M 9.421875 54.6875 
L 18.40625 54.6875 
L 18.40625 0 
L 9.421875 0 
z
M 9.421875 75.984375 
L 18.40625 75.984375 
L 18.40625 64.59375 
L 9.421875 64.59375 
z
" id="DejaVuSans-105"/>
      <path d="M 41.109375 46.296875 
Q 39.59375 47.171875 37.8125 47.578125 
Q 36.03125 48 33.890625 48 
Q 26.265625 48 22.1875 43.046875 
Q 18.109375 38.09375 18.109375 28.8125 
L 18.109375 0 
L 9.078125 0 
L 9.078125 54.6875 
L 18.109375 54.6875 
L 18.109375 46.1875 
Q 20.953125 51.171875 25.484375 53.578125 
Q 30.03125 56 36.53125 56 
Q 37.453125 56 38.578125 55.875 
Q 39.703125 55.765625 41.0625 55.515625 
z
" id="DejaVuSans-114"/>
      <path d="M 48.78125 52.59375 
L 48.78125 44.1875 
Q 44.96875 46.296875 41.140625 47.34375 
Q 37.3125 48.390625 33.40625 48.390625 
Q 24.65625 48.390625 19.8125 42.84375 
Q 14.984375 37.3125 14.984375 27.296875 
Q 14.984375 17.28125 19.8125 11.734375 
Q 24.65625 6.203125 33.40625 6.203125 
Q 37.3125 6.203125 41.140625 7.25 
Q 44.96875 8.296875 48.78125 10.40625 
L 48.78125 2.09375 
Q 45.015625 0.34375 40.984375 -0.53125 
Q 36.96875 -1.421875 32.421875 -1.421875 
Q 20.0625 -1.421875 12.78125 6.34375 
Q 5.515625 14.109375 5.515625 27.296875 
Q 5.515625 40.671875 12.859375 48.328125 
Q 20.21875 56 33.015625 56 
Q 37.15625 56 41.109375 55.140625 
Q 45.0625 54.296875 48.78125 52.59375 
z
" id="DejaVuSans-99"/>
     </defs>
     <g transform="translate(206.120937 335.860562)scale(0.1 -0.1)">
      <use xlink:href="#DejaVuSans-110"/>
      <use x="63.378906" xlink:href="#DejaVuSans-101"/>
      <use x="124.902344" xlink:href="#DejaVuSans-117"/>
      <use x="188.28125" xlink:href="#DejaVuSans-116"/>
      <use x="227.490234" xlink:href="#DejaVuSans-110"/>
      <use x="290.869141" xlink:href="#DejaVuSans-97"/>
      <use x="352.148438" xlink:href="#DejaVuSans-100"/>
      <use x="415.625" xlink:href="#DejaVuSans-105"/>
      <use x="443.408203" xlink:href="#DejaVuSans-114"/>
      <use x="484.521484" xlink:href="#DejaVuSans-97"/>
      <use x="545.800781" xlink:href="#DejaVuSans-99"/>
     </g>
    </g>
   </g>
   <g id="matplotlib.axis_2">
    <g id="ytick_1">
     <g id="line2d_8">
      <defs>
       <path d="M 0 0 
L -3.5 0 
" id="m80816b8d12" style="stroke:#000000;stroke-width:0.8;"/>
      </defs>
      <g>
       <use style="stroke:#000000;stroke-width:0.8;" x="57.6" xlink:href="#m80816b8d12" y="174.528"/>
      </g>
     </g>
    </g>
   </g>
   <g id="line2d_9">
    <path clip-path="url(#p1ae5ab86e7)" d="M 127.336634 174.528 
L 179.34072 174.528 
" style="fill:none;stroke:#ffa500;stroke-linecap:square;stroke-width:1.5;"/>
   </g>
   <g id="line2d_10">
    <path clip-path="url(#p1ae5ab86e7)" d="M 138.893097 174.528 
L 175.488566 174.528 
" style="fill:none;stroke:#4c4c4c;stroke-linecap:square;stroke-width:4.5;"/>
   </g>
   <g id="line2d_11">
    <path clip-path="url(#p1ae5ab86e7)" d="M 96.519397 174.528 
L 246.753425 174.528 
" style="fill:none;stroke:#008000;stroke-linecap:square;stroke-width:1.5;"/>
   </g>
   <g id="line2d_12">
    <path clip-path="url(#p1ae5ab86e7)" d="M 136.96702 174.528 
L 181.266797 174.528 
" style="fill:none;stroke:#262626;stroke-linecap:square;stroke-width:4.5;"/>
   </g>
   <g id="patch_3">
    <path d="M 57.6 307.584 
L 57.6 41.472 
" style="fill:none;stroke:#000000;stroke-linecap:square;stroke-linejoin:miter;stroke-width:0.8;"/>
   </g>
   <g id="patch_4">
    <path d="M 414.72 307.584 
L 414.72 41.472 
" style="fill:none;stroke:#000000;stroke-linecap:square;stroke-linejoin:miter;stroke-width:0.8;"/>
   </g>
   <g id="patch_5">
    <path d="M 57.6 307.584 
L 414.72 307.584 
" style="fill:none;stroke:#000000;stroke-linecap:square;stroke-linejoin:miter;stroke-width:0.8;"/>
   </g>
   <g id="patch_6">
    <path d="M 57.6 41.472 
L 414.72 41.472 
" style="fill:none;stroke:#000000;stroke-linecap:square;stroke-linejoin:miter;stroke-width:0.8;"/>
   </g>
   <g id="PathCollection_1">
    <defs>
     <path d="M 0 1.5 
C 0.397805 1.5 0.77937 1.341951 1.06066 1.06066 
C 1.341951 0.77937 1.5 0.397805 1.5 0 
C 1.5 -0.397805 1.341951 -0.77937 1.06066 -1.06066 
C 0.77937 -1.341951 0.397805 -1.5 0 -1.5 
C -0.397805 -1.5 -0.77937 -1.341951 -1.06066 -1.06066 
C -1.341951 -0.77937 -1.5 -0.397805 -1.5 0 
C -1.5 0.397805 -1.341951 0.77937 -1.06066 1.06066 
C -0.77937 1.341951 -0.397805 1.5 0 1.5 
z
" id="m3b41b82d38" style="stroke:#4c4c4c;stroke-opacity:0.5;"/>
    </defs>
    <g clip-path="url(#p1ae5ab86e7)">
     <use style="fill:#ffffff;fill-opacity:0.5;stroke:#4c4c4c;stroke-opacity:0.5;" x="162.006025" xlink:href="#m3b41b82d38" y="174.528"/>
    </g>
   </g>
   <g id="PathCollection_2">
    <defs>
     <path d="M 0 1.5 
C 0.397805 1.5 0.77937 1.341951 1.06066 1.06066 
C 1.341951 0.77937 1.5 0.397805 1.5 0 
C 1.5 -0.397805 1.341951 -0.77937 1.06066 -1.06066 
C 0.77937 -1.341951 0.397805 -1.5 0 -1.5 
C -0.397805 -1.5 -0.77937 -1.341951 -1.06066 -1.06066 
C -1.341951 -0.77937 -1.5 -0.397805 -1.5 0 
C -1.5 0.397805 -1.341951 0.77937 -1.06066 1.06066 
C -0.77937 1.341951 -0.397805 1.5 0 1.5 
z
" id="mf3c7e2d37b" style="stroke:#262626;stroke-opacity:0.5;"/>
    </defs>
    <g clip-path="url(#p1ae5ab86e7)">
     <use style="fill:#ffffff;fill-opacity:0.5;stroke:#262626;stroke-opacity:0.5;" x="156.227793" xlink:href="#mf3c7e2d37b" y="174.528"/>
    </g>
   </g>
   <g id="text_9">
    <!-- Association of neutnadirac vs. cardiogenic_shock -->
    <defs>
     <path d="M 34.1875 63.1875 
L 20.796875 26.90625 
L 47.609375 26.90625 
z
M 28.609375 72.90625 
L 39.796875 72.90625 
L 67.578125 0 
L 57.328125 0 
L 50.6875 18.703125 
L 17.828125 18.703125 
L 11.1875 0 
L 0.78125 0 
z
" id="DejaVuSans-65"/>
     <path d="M 44.28125 53.078125 
L 44.28125 44.578125 
Q 40.484375 46.53125 36.375 47.5 
Q 32.28125 48.484375 27.875 48.484375 
Q 21.1875 48.484375 17.84375 46.4375 
Q 14.5 44.390625 14.5 40.28125 
Q 14.5 37.15625 16.890625 35.375 
Q 19.28125 33.59375 26.515625 31.984375 
L 29.59375 31.296875 
Q 39.15625 29.25 43.1875 25.515625 
Q 47.21875 21.78125 47.21875 15.09375 
Q 47.21875 7.46875 41.1875 3.015625 
Q 35.15625 -1.421875 24.609375 -1.421875 
Q 20.21875 -1.421875 15.453125 -0.5625 
Q 10.6875 0.296875 5.421875 2 
L 5.421875 11.28125 
Q 10.40625 8.6875 15.234375 7.390625 
Q 20.0625 6.109375 24.8125 6.109375 
Q 31.15625 6.109375 34.5625 8.28125 
Q 37.984375 10.453125 37.984375 14.40625 
Q 37.984375 18.0625 35.515625 20.015625 
Q 33.0625 21.96875 24.703125 23.78125 
L 21.578125 24.515625 
Q 13.234375 26.265625 9.515625 29.90625 
Q 5.8125 33.546875 5.8125 39.890625 
Q 5.8125 47.609375 11.28125 51.796875 
Q 16.75 56 26.8125 56 
Q 31.78125 56 36.171875 55.265625 
Q 40.578125 54.546875 44.28125 53.078125 
z
" id="DejaVuSans-115"/>
     <path d="M 30.609375 48.390625 
Q 23.390625 48.390625 19.1875 42.75 
Q 14.984375 37.109375 14.984375 27.296875 
Q 14.984375 17.484375 19.15625 11.84375 
Q 23.34375 6.203125 30.609375 6.203125 
Q 37.796875 6.203125 41.984375 11.859375 
Q 46.1875 17.53125 46.1875 27.296875 
Q 46.1875 37.015625 41.984375 42.703125 
Q 37.796875 48.390625 30.609375 48.390625 
z
M 30.609375 56 
Q 42.328125 56 49.015625 48.375 
Q 55.71875 40.765625 55.71875 27.296875 
Q 55.71875 13.875 49.015625 6.21875 
Q 42.328125 -1.421875 30.609375 -1.421875 
Q 18.84375 -1.421875 12.171875 6.21875 
Q 5.515625 13.875 5.515625 27.296875 
Q 5.515625 40.765625 12.171875 48.375 
Q 18.84375 56 30.609375 56 
z
" id="DejaVuSans-111"/>
     <path id="DejaVuSans-32"/>
     <path d="M 37.109375 75.984375 
L 37.109375 68.5 
L 28.515625 68.5 
Q 23.6875 68.5 21.796875 66.546875 
Q 19.921875 64.59375 19.921875 59.515625 
L 19.921875 54.6875 
L 34.71875 54.6875 
L 34.71875 47.703125 
L 19.921875 47.703125 
L 19.921875 0 
L 10.890625 0 
L 10.890625 47.703125 
L 2.296875 47.703125 
L 2.296875 54.6875 
L 10.890625 54.6875 
L 10.890625 58.5 
Q 10.890625 67.625 15.140625 71.796875 
Q 19.390625 75.984375 28.609375 75.984375 
z
" id="DejaVuSans-102"/>
     <path d="M 2.984375 54.6875 
L 12.5 54.6875 
L 29.59375 8.796875 
L 46.6875 54.6875 
L 56.203125 54.6875 
L 35.6875 0 
L 23.484375 0 
z
" id="DejaVuSans-118"/>
     <path d="M 45.40625 27.984375 
Q 45.40625 37.75 41.375 43.109375 
Q 37.359375 48.484375 30.078125 48.484375 
Q 22.859375 48.484375 18.828125 43.109375 
Q 14.796875 37.75 14.796875 27.984375 
Q 14.796875 18.265625 18.828125 12.890625 
Q 22.859375 7.515625 30.078125 7.515625 
Q 37.359375 7.515625 41.375 12.890625 
Q 45.40625 18.265625 45.40625 27.984375 
z
M 54.390625 6.78125 
Q 54.390625 -7.171875 48.1875 -13.984375 
Q 42 -20.796875 29.203125 -20.796875 
Q 24.46875 -20.796875 20.265625 -20.09375 
Q 16.0625 -19.390625 12.109375 -17.921875 
L 12.109375 -9.1875 
Q 16.0625 -11.328125 19.921875 -12.34375 
Q 23.78125 -13.375 27.78125 -13.375 
Q 36.625 -13.375 41.015625 -8.765625 
Q 45.40625 -4.15625 45.40625 5.171875 
L 45.40625 9.625 
Q 42.625 4.78125 38.28125 2.390625 
Q 33.9375 0 27.875 0 
Q 17.828125 0 11.671875 7.65625 
Q 5.515625 15.328125 5.515625 27.984375 
Q 5.515625 40.671875 11.671875 48.328125 
Q 17.828125 56 27.875 56 
Q 33.9375 56 38.28125 53.609375 
Q 42.625 51.21875 45.40625 46.390625 
L 45.40625 54.6875 
L 54.390625 54.6875 
z
" id="DejaVuSans-103"/>
     <path d="M 50.984375 -16.609375 
L 50.984375 -23.578125 
L -0.984375 -23.578125 
L -0.984375 -16.609375 
z
" id="DejaVuSans-95"/>
     <path d="M 54.890625 33.015625 
L 54.890625 0 
L 45.90625 0 
L 45.90625 32.71875 
Q 45.90625 40.484375 42.875 44.328125 
Q 39.84375 48.1875 33.796875 48.1875 
Q 26.515625 48.1875 22.3125 43.546875 
Q 18.109375 38.921875 18.109375 30.90625 
L 18.109375 0 
L 9.078125 0 
L 9.078125 75.984375 
L 18.109375 75.984375 
L 18.109375 46.1875 
Q 21.34375 51.125 25.703125 53.5625 
Q 30.078125 56 35.796875 56 
Q 45.21875 56 50.046875 50.171875 
Q 54.890625 44.34375 54.890625 33.015625 
z
" id="DejaVuSans-104"/>
     <path d="M 9.078125 75.984375 
L 18.109375 75.984375 
L 18.109375 31.109375 
L 44.921875 54.6875 
L 56.390625 54.6875 
L 27.390625 29.109375 
L 57.625 0 
L 45.90625 0 
L 18.109375 26.703125 
L 18.109375 0 
L 9.078125 0 
z
" id="DejaVuSans-107"/>
    </defs>
    <g transform="translate(88.829062 35.472)scale(0.12 -0.12)">
     <use xlink:href="#DejaVuSans-65"/>
     <use x="68.408203" xlink:href="#DejaVuSans-115"/>
     <use x="120.507812" xlink:href="#DejaVuSans-115"/>
     <use x="172.607422" xlink:href="#DejaVuSans-111"/>
     <use x="233.789062" xlink:href="#DejaVuSans-99"/>
     <use x="288.769531" xlink:href="#DejaVuSans-105"/>
     <use x="316.552734" xlink:href="#DejaVuSans-97"/>
     <use x="377.832031" xlink:href="#DejaVuSans-116"/>
     <use x="417.041016" xlink:href="#DejaVuSans-105"/>
     <use x="444.824219" xlink:href="#DejaVuSans-111"/>
     <use x="506.005859" xlink:href="#DejaVuSans-110"/>
     <use x="569.384766" xlink:href="#DejaVuSans-32"/>
     <use x="601.171875" xlink:href="#DejaVuSans-111"/>
     <use x="662.353516" xlink:href="#DejaVuSans-102"/>
     <use x="697.558594" xlink:href="#DejaVuSans-32"/>
     <use x="729.345703" xlink:href="#DejaVuSans-110"/>
     <use x="792.724609" xlink:href="#DejaVuSans-101"/>
     <use x="854.248047" xlink:href="#DejaVuSans-117"/>
     <use x="917.626953" xlink:href="#DejaVuSans-116"/>
     <use x="956.835938" xlink:href="#DejaVuSans-110"/>
     <use x="1020.214844" xlink:href="#DejaVuSans-97"/>
     <use x="1081.494141" xlink:href="#DejaVuSans-100"/>
     <use x="1144.970703" xlink:href="#DejaVuSans-105"/>
     <use x="1172.753906" xlink:href="#DejaVuSans-114"/>
     <use x="1213.867188" xlink:href="#DejaVuSans-97"/>
     <use x="1275.146484" xlink:href="#DejaVuSans-99"/>
     <use x="1330.126953" xlink:href="#DejaVuSans-32"/>
     <use x="1361.914062" xlink:href="#DejaVuSans-118"/>
     <use x="1421.09375" xlink:href="#DejaVuSans-115"/>
     <use x="1473.193359" xlink:href="#DejaVuSans-46"/>
     <use x="1504.980469" xlink:href="#DejaVuSans-32"/>
     <use x="1536.767578" xlink:href="#DejaVuSans-99"/>
     <use x="1591.748047" xlink:href="#DejaVuSans-97"/>
     <use x="1653.027344" xlink:href="#DejaVuSans-114"/>
     <use x="1692.390625" xlink:href="#DejaVuSans-100"/>
     <use x="1755.867188" xlink:href="#DejaVuSans-105"/>
     <use x="1783.650391" xlink:href="#DejaVuSans-111"/>
     <use x="1844.832031" xlink:href="#DejaVuSans-103"/>
     <use x="1908.308594" xlink:href="#DejaVuSans-101"/>
     <use x="1969.832031" xlink:href="#DejaVuSans-110"/>
     <use x="2033.210938" xlink:href="#DejaVuSans-105"/>
     <use x="2060.994141" xlink:href="#DejaVuSans-99"/>
     <use x="2115.974609" xlink:href="#DejaVuSans-95"/>
     <use x="2165.974609" xlink:href="#DejaVuSans-115"/>
     <use x="2218.074219" xlink:href="#DejaVuSans-104"/>
     <use x="2281.453125" xlink:href="#DejaVuSans-111"/>
     <use x="2342.634766" xlink:href="#DejaVuSans-99"/>
     <use x="2397.615234" xlink:href="#DejaVuSans-107"/>
    </g>
   </g>
   <g id="legend_1">
    <g id="patch_7">
     <path d="M 233.074687 79.3845 
L 407.72 79.3845 
Q 409.72 79.3845 409.72 77.3845 
L 409.72 48.472 
Q 409.72 46.472 407.72 46.472 
L 233.074687 46.472 
Q 231.074687 46.472 231.074687 48.472 
L 231.074687 77.3845 
Q 231.074687 79.3845 233.074687 79.3845 
z
" style="fill:#ffffff;opacity:0.8;stroke:#cccccc;stroke-linejoin:miter;"/>
    </g>
    <g id="line2d_13">
     <path d="M 235.074687 54.570438 
L 255.074687 54.570438 
" style="fill:none;stroke:#ffa500;stroke-linecap:square;stroke-width:1.5;"/>
    </g>
    <g id="line2d_14"/>
    <g id="text_10">
     <!-- cardiogenic_shock (13) -->
     <defs>
      <path d="M 31 75.875 
Q 24.46875 64.65625 21.28125 53.65625 
Q 18.109375 42.671875 18.109375 31.390625 
Q 18.109375 20.125 21.3125 9.0625 
Q 24.515625 -2 31 -13.1875 
L 23.1875 -13.1875 
Q 15.875 -1.703125 12.234375 9.375 
Q 8.59375 20.453125 8.59375 31.390625 
Q 8.59375 42.28125 12.203125 53.3125 
Q 15.828125 64.359375 23.1875 75.875 
z
" id="DejaVuSans-40"/>
      <path d="M 40.578125 39.3125 
Q 47.65625 37.796875 51.625 33 
Q 55.609375 28.21875 55.609375 21.1875 
Q 55.609375 10.40625 48.1875 4.484375 
Q 40.765625 -1.421875 27.09375 -1.421875 
Q 22.515625 -1.421875 17.65625 -0.515625 
Q 12.796875 0.390625 7.625 2.203125 
L 7.625 11.71875 
Q 11.71875 9.328125 16.59375 8.109375 
Q 21.484375 6.890625 26.8125 6.890625 
Q 36.078125 6.890625 40.9375 10.546875 
Q 45.796875 14.203125 45.796875 21.1875 
Q 45.796875 27.640625 41.28125 31.265625 
Q 36.765625 34.90625 28.71875 34.90625 
L 20.21875 34.90625 
L 20.21875 43.015625 
L 29.109375 43.015625 
Q 36.375 43.015625 40.234375 45.921875 
Q 44.09375 48.828125 44.09375 54.296875 
Q 44.09375 59.90625 40.109375 62.90625 
Q 36.140625 65.921875 28.71875 65.921875 
Q 24.65625 65.921875 20.015625 65.03125 
Q 15.375 64.15625 9.8125 62.3125 
L 9.8125 71.09375 
Q 15.4375 72.65625 20.34375 73.4375 
Q 25.25 74.21875 29.59375 74.21875 
Q 40.828125 74.21875 47.359375 69.109375 
Q 53.90625 64.015625 53.90625 55.328125 
Q 53.90625 49.265625 50.4375 45.09375 
Q 46.96875 40.921875 40.578125 39.3125 
z
" id="DejaVuSans-51"/>
      <path d="M 8.015625 75.875 
L 15.828125 75.875 
Q 23.140625 64.359375 26.78125 53.3125 
Q 30.421875 42.28125 30.421875 31.390625 
Q 30.421875 20.453125 26.78125 9.375 
Q 23.140625 -1.703125 15.828125 -13.1875 
L 8.015625 -13.1875 
Q 14.5 -2 17.703125 9.0625 
Q 20.90625 20.125 20.90625 31.390625 
Q 20.90625 42.671875 17.703125 53.65625 
Q 14.5 64.65625 8.015625 75.875 
z
" id="DejaVuSans-41"/>
     </defs>
     <g transform="translate(263.074687 58.070438)scale(0.1 -0.1)">
      <use xlink:href="#DejaVuSans-99"/>
      <use x="54.980469" xlink:href="#DejaVuSans-97"/>
      <use x="116.259766" xlink:href="#DejaVuSans-114"/>
      <use x="155.623047" xlink:href="#DejaVuSans-100"/>
      <use x="219.099609" xlink:href="#DejaVuSans-105"/>
      <use x="246.882812" xlink:href="#DejaVuSans-111"/>
      <use x="308.064453" xlink:href="#DejaVuSans-103"/>
      <use x="371.541016" xlink:href="#DejaVuSans-101"/>
      <use x="433.064453" xlink:href="#DejaVuSans-110"/>
      <use x="496.443359" xlink:href="#DejaVuSans-105"/>
      <use x="524.226562" xlink:href="#DejaVuSans-99"/>
      <use x="579.207031" xlink:href="#DejaVuSans-95"/>
      <use x="629.207031" xlink:href="#DejaVuSans-115"/>
      <use x="681.306641" xlink:href="#DejaVuSans-104"/>
      <use x="744.685547" xlink:href="#DejaVuSans-111"/>
      <use x="805.867188" xlink:href="#DejaVuSans-99"/>
      <use x="860.847656" xlink:href="#DejaVuSans-107"/>
      <use x="918.757812" xlink:href="#DejaVuSans-32"/>
      <use x="950.544922" xlink:href="#DejaVuSans-40"/>
      <use x="989.558594" xlink:href="#DejaVuSans-49"/>
      <use x="1053.181641" xlink:href="#DejaVuSans-51"/>
      <use x="1116.804688" xlink:href="#DejaVuSans-41"/>
     </g>
    </g>
    <g id="line2d_15">
     <path d="M 235.074687 69.526688 
L 255.074687 69.526688 
" style="fill:none;stroke:#008000;stroke-linecap:square;stroke-width:1.5;"/>
    </g>
    <g id="line2d_16"/>
    <g id="text_11">
     <!-- Not cardiogenic_shock (468) -->
     <defs>
      <path d="M 9.8125 72.90625 
L 23.09375 72.90625 
L 55.421875 11.921875 
L 55.421875 72.90625 
L 64.984375 72.90625 
L 64.984375 0 
L 51.703125 0 
L 19.390625 60.984375 
L 19.390625 0 
L 9.8125 0 
z
" id="DejaVuSans-78"/>
      <path d="M 37.796875 64.3125 
L 12.890625 25.390625 
L 37.796875 25.390625 
z
M 35.203125 72.90625 
L 47.609375 72.90625 
L 47.609375 25.390625 
L 58.015625 25.390625 
L 58.015625 17.1875 
L 47.609375 17.1875 
L 47.609375 0 
L 37.796875 0 
L 37.796875 17.1875 
L 4.890625 17.1875 
L 4.890625 26.703125 
z
" id="DejaVuSans-52"/>
      <path d="M 33.015625 40.375 
Q 26.375 40.375 22.484375 35.828125 
Q 18.609375 31.296875 18.609375 23.390625 
Q 18.609375 15.53125 22.484375 10.953125 
Q 26.375 6.390625 33.015625 6.390625 
Q 39.65625 6.390625 43.53125 10.953125 
Q 47.40625 15.53125 47.40625 23.390625 
Q 47.40625 31.296875 43.53125 35.828125 
Q 39.65625 40.375 33.015625 40.375 
z
M 52.59375 71.296875 
L 52.59375 62.3125 
Q 48.875 64.0625 45.09375 64.984375 
Q 41.3125 65.921875 37.59375 65.921875 
Q 27.828125 65.921875 22.671875 59.328125 
Q 17.53125 52.734375 16.796875 39.40625 
Q 19.671875 43.65625 24.015625 45.921875 
Q 28.375 48.1875 33.59375 48.1875 
Q 44.578125 48.1875 50.953125 41.515625 
Q 57.328125 34.859375 57.328125 23.390625 
Q 57.328125 12.15625 50.6875 5.359375 
Q 44.046875 -1.421875 33.015625 -1.421875 
Q 20.359375 -1.421875 13.671875 8.265625 
Q 6.984375 17.96875 6.984375 36.375 
Q 6.984375 53.65625 15.1875 63.9375 
Q 23.390625 74.21875 37.203125 74.21875 
Q 40.921875 74.21875 44.703125 73.484375 
Q 48.484375 72.75 52.59375 71.296875 
z
" id="DejaVuSans-54"/>
      <path d="M 31.78125 34.625 
Q 24.75 34.625 20.71875 30.859375 
Q 16.703125 27.09375 16.703125 20.515625 
Q 16.703125 13.921875 20.71875 10.15625 
Q 24.75 6.390625 31.78125 6.390625 
Q 38.8125 6.390625 42.859375 10.171875 
Q 46.921875 13.96875 46.921875 20.515625 
Q 46.921875 27.09375 42.890625 30.859375 
Q 38.875 34.625 31.78125 34.625 
z
M 21.921875 38.8125 
Q 15.578125 40.375 12.03125 44.71875 
Q 8.5 49.078125 8.5 55.328125 
Q 8.5 64.0625 14.71875 69.140625 
Q 20.953125 74.21875 31.78125 74.21875 
Q 42.671875 74.21875 48.875 69.140625 
Q 55.078125 64.0625 55.078125 55.328125 
Q 55.078125 49.078125 51.53125 44.71875 
Q 48 40.375 41.703125 38.8125 
Q 48.828125 37.15625 52.796875 32.3125 
Q 56.78125 27.484375 56.78125 20.515625 
Q 56.78125 9.90625 50.3125 4.234375 
Q 43.84375 -1.421875 31.78125 -1.421875 
Q 19.734375 -1.421875 13.25 4.234375 
Q 6.78125 9.90625 6.78125 20.515625 
Q 6.78125 27.484375 10.78125 32.3125 
Q 14.796875 37.15625 21.921875 38.8125 
z
M 18.3125 54.390625 
Q 18.3125 48.734375 21.84375 45.5625 
Q 25.390625 42.390625 31.78125 42.390625 
Q 38.140625 42.390625 41.71875 45.5625 
Q 45.3125 48.734375 45.3125 54.390625 
Q 45.3125 60.0625 41.71875 63.234375 
Q 38.140625 66.40625 31.78125 66.40625 
Q 25.390625 66.40625 21.84375 63.234375 
Q 18.3125 60.0625 18.3125 54.390625 
z
" id="DejaVuSans-56"/>
     </defs>
     <g transform="translate(263.074687 73.026688)scale(0.1 -0.1)">
      <use xlink:href="#DejaVuSans-78"/>
      <use x="74.804688" xlink:href="#DejaVuSans-111"/>
      <use x="135.986328" xlink:href="#DejaVuSans-116"/>
      <use x="175.195312" xlink:href="#DejaVuSans-32"/>
      <use x="206.982422" xlink:href="#DejaVuSans-99"/>
      <use x="261.962891" xlink:href="#DejaVuSans-97"/>
      <use x="323.242188" xlink:href="#DejaVuSans-114"/>
      <use x="362.605469" xlink:href="#DejaVuSans-100"/>
      <use x="426.082031" xlink:href="#DejaVuSans-105"/>
      <use x="453.865234" xlink:href="#DejaVuSans-111"/>
      <use x="515.046875" xlink:href="#DejaVuSans-103"/>
      <use x="578.523438" xlink:href="#DejaVuSans-101"/>
      <use x="640.046875" xlink:href="#DejaVuSans-110"/>
      <use x="703.425781" xlink:href="#DejaVuSans-105"/>
      <use x="731.208984" xlink:href="#DejaVuSans-99"/>
      <use x="786.189453" xlink:href="#DejaVuSans-95"/>
      <use x="836.189453" xlink:href="#DejaVuSans-115"/>
      <use x="888.289062" xlink:href="#DejaVuSans-104"/>
      <use x="951.667969" xlink:href="#DejaVuSans-111"/>
      <use x="1012.849609" xlink:href="#DejaVuSans-99"/>
      <use x="1067.830078" xlink:href="#DejaVuSans-107"/>
      <use x="1125.740234" xlink:href="#DejaVuSans-32"/>
      <use x="1157.527344" xlink:href="#DejaVuSans-40"/>
      <use x="1196.541016" xlink:href="#DejaVuSans-52"/>
      <use x="1260.164062" xlink:href="#DejaVuSans-54"/>
      <use x="1323.787109" xlink:href="#DejaVuSans-56"/>
      <use x="1387.410156" xlink:href="#DejaVuSans-41"/>
     </g>
    </g>
   </g>
  </g>
 </g>
 <defs>
  <clipPath id="p1ae5ab86e7">
   <rect height="266.112" width="357.12" x="57.6" y="41.472"/>
  </clipPath>
 </defs>
</svg>
