<?xml version="1.0" encoding="utf-8" standalone="no"?>
<!DOCTYPE svg PUBLIC "-//W3C//DTD SVG 1.1//EN"
  "http://www.w3.org/Graphics/SVG/1.1/DTD/svg11.dtd">
<!-- Created with matplotlib (https://matplotlib.org/) -->
<svg height="345.6pt" version="1.1" viewBox="0 0 460.8 345.6" width="460.8pt" xmlns="http://www.w3.org/2000/svg" xmlns:xlink="http://www.w3.org/1999/xlink">
 <defs>
  <style type="text/css">
*{stroke-linecap:butt;stroke-linejoin:round;}
  </style>
 </defs>
 <g id="figure_1">
  <g id="patch_1">
   <path d="M 0 345.6 
L 460.8 345.6 
L 460.8 0 
L 0 0 
z
" style="fill:#ffffff;"/>
  </g>
  <g id="axes_1">
   <g id="patch_2">
    <path d="M 57.6 307.584 
L 414.72 307.584 
L 414.72 41.472 
L 57.6 41.472 
z
" style="fill:#ffffff;"/>
   </g>
   <g id="PolyCollection_1">
    <defs>
     <path d="M 73.832727 -169.794944 
L 73.832727 -172.349056 
L 77.112066 -173.235296 
L 80.391405 -174.611885 
L 83.670744 -176.672322 
L 86.950083 -179.64395 
L 90.229421 -183.771502 
L 93.50876 -189.287721 
L 96.788099 -196.37115 
L 100.067438 -205.095298 
L 103.346777 -215.378355 
L 106.626116 -226.946488 
L 109.905455 -239.324482 
L 113.184793 -251.863291 
L 116.464132 -263.805253 
L 119.743471 -274.376753 
L 123.02281 -282.889012 
L 126.302149 -288.824453 
L 129.581488 -291.89038 
L 132.860826 -292.032 
L 136.140165 -289.408932 
L 139.419504 -284.348291 
L 142.698843 -277.29014 
L 145.978182 -268.737539 
L 149.257521 -259.216443 
L 152.53686 -249.24422 
L 155.816198 -239.302637 
L 159.095537 -229.812194 
L 162.374876 -221.108166 
L 165.654215 -213.421974 
L 168.933554 -206.87247 
L 172.212893 -201.470114 
L 175.492231 -197.133709 
L 178.77157 -193.716214 
L 182.050909 -191.034379 
L 185.330248 -188.897088 
L 188.609587 -187.128639 
L 191.888926 -185.585088 
L 195.168264 -184.163235 
L 198.447603 -182.802798 
L 201.726942 -181.482719 
L 205.006281 -180.212864 
L 208.28562 -179.022672 
L 211.564959 -177.948718 
L 214.844298 -177.02335 
L 218.123636 -176.266396 
L 221.402975 -175.681287 
L 224.682314 -175.255871 
L 227.961653 -174.96711 
L 231.240992 -174.78796 
L 234.520331 -174.694396 
L 237.799669 -174.670663 
L 241.079008 -174.711324 
L 244.358347 -174.819408 
L 247.637686 -175.000883 
L 250.917025 -175.256702 
L 254.196364 -175.574721 
L 257.475702 -175.924365 
L 260.755041 -176.256679 
L 264.03438 -176.510935 
L 267.313719 -176.626767 
L 270.593058 -176.558494 
L 273.872397 -176.287094 
L 277.151736 -175.825795 
L 280.431074 -175.217396 
L 283.710413 -174.524303 
L 286.989752 -173.814661 
L 290.269091 -173.14892 
L 293.54843 -172.570389 
L 296.827769 -172.101523 
L 300.107107 -171.745533 
L 303.386446 -171.491531 
L 306.665785 -171.320875 
L 309.945124 -171.212853 
L 313.224463 -171.148655 
L 316.503802 -171.113472 
L 319.78314 -171.097119 
L 323.062479 -171.093779 
L 326.341818 -171.101421 
L 329.621157 -171.12119 
L 332.900496 -171.156824 
L 336.179835 -171.213971 
L 339.459174 -171.299158 
L 342.738512 -171.418248 
L 346.017851 -171.57438 
L 349.29719 -171.76572 
L 352.576529 -171.983646 
L 355.855868 -172.21213 
L 359.135207 -172.42896 
L 362.414545 -172.608967 
L 365.693884 -172.728711 
L 368.973223 -172.77147 
L 372.252562 -172.731072 
L 375.531901 -172.613351 
L 378.81124 -172.43477 
L 382.090579 -172.218643 
L 385.369917 -171.99016 
L 388.649256 -171.77167 
L 391.928595 -171.579403 
L 395.207934 -171.422185 
L 398.487273 -171.301999 
L 398.487273 -170.842001 
L 398.487273 -170.842001 
L 395.207934 -170.721815 
L 391.928595 -170.564597 
L 388.649256 -170.37233 
L 385.369917 -170.15384 
L 382.090579 -169.925357 
L 378.81124 -169.70923 
L 375.531901 -169.530649 
L 372.252562 -169.412928 
L 368.973223 -169.37253 
L 365.693884 -169.415289 
L 362.414545 -169.535033 
L 359.135207 -169.71504 
L 355.855868 -169.93187 
L 352.576529 -170.160354 
L 349.29719 -170.37828 
L 346.017851 -170.56962 
L 342.738512 -170.725752 
L 339.459174 -170.844842 
L 336.179835 -170.930029 
L 332.900496 -170.987176 
L 329.621157 -171.02281 
L 326.341818 -171.042579 
L 323.062479 -171.050221 
L 319.78314 -171.046881 
L 316.503802 -171.030528 
L 313.224463 -170.995345 
L 309.945124 -170.931147 
L 306.665785 -170.823125 
L 303.386446 -170.652469 
L 300.107107 -170.398467 
L 296.827769 -170.042477 
L 293.54843 -169.573611 
L 290.269091 -168.99508 
L 286.989752 -168.329339 
L 283.710413 -167.619697 
L 280.431074 -166.926604 
L 277.151736 -166.318205 
L 273.872397 -165.856906 
L 270.593058 -165.585506 
L 267.313719 -165.517233 
L 264.03438 -165.633065 
L 260.755041 -165.887321 
L 257.475702 -166.219635 
L 254.196364 -166.569279 
L 250.917025 -166.887298 
L 247.637686 -167.143117 
L 244.358347 -167.324592 
L 241.079008 -167.432676 
L 237.799669 -167.473337 
L 234.520331 -167.449604 
L 231.240992 -167.35604 
L 227.961653 -167.17689 
L 224.682314 -166.888129 
L 221.402975 -166.462713 
L 218.123636 -165.877604 
L 214.844298 -165.12065 
L 211.564959 -164.195282 
L 208.28562 -163.121328 
L 205.006281 -161.931136 
L 201.726942 -160.661281 
L 198.447603 -159.341202 
L 195.168264 -157.980765 
L 191.888926 -156.558912 
L 188.609587 -155.015361 
L 185.330248 -153.246912 
L 182.050909 -151.109621 
L 178.77157 -148.427786 
L 175.492231 -145.010291 
L 172.212893 -140.673886 
L 168.933554 -135.27153 
L 165.654215 -128.722026 
L 162.374876 -121.035834 
L 159.095537 -112.331806 
L 155.816198 -102.841363 
L 152.53686 -92.89978 
L 149.257521 -82.927557 
L 145.978182 -73.406461 
L 142.698843 -64.85386 
L 139.419504 -57.795709 
L 136.140165 -52.735068 
L 132.860826 -50.112 
L 129.581488 -50.25362 
L 126.302149 -53.319547 
L 123.02281 -59.254988 
L 119.743471 -67.767247 
L 116.464132 -78.338747 
L 113.184793 -90.280709 
L 109.905455 -102.819518 
L 106.626116 -115.197512 
L 103.346777 -126.765645 
L 100.067438 -137.048702 
L 96.788099 -145.77285 
L 93.50876 -152.856279 
L 90.229421 -158.372498 
L 86.950083 -162.50005 
L 83.670744 -165.471678 
L 80.391405 -167.532115 
L 77.112066 -168.908704 
L 73.832727 -169.794944 
z
" id="m54ce763e51" style="stroke:#4c4c4c;stroke-opacity:0.5;stroke-width:1.5;"/>
    </defs>
    <g clip-path="url(#p306d88b4a6)">
     <use style="fill:#df9c20;fill-opacity:0.5;stroke:#4c4c4c;stroke-opacity:0.5;stroke-width:1.5;" x="0" xlink:href="#m54ce763e51" y="345.6"/>
    </g>
   </g>
   <g id="PolyCollection_2">
    <defs>
     <path d="M 87.360391 -170.274323 
L 87.360391 -171.869677 
L 89.41404 -172.496482 
L 91.467689 -173.487536 
L 93.521337 -174.970593 
L 95.574986 -177.076898 
L 97.628635 -179.925764 
L 99.682283 -183.610209 
L 101.735932 -188.187447 
L 103.789581 -193.675672 
L 105.843229 -200.055278 
L 107.896878 -207.270549 
L 109.950527 -215.228712 
L 112.004176 -223.796624 
L 114.057824 -232.798809 
L 116.111473 -242.020898 
L 118.165122 -251.219081 
L 120.21877 -260.131355 
L 122.272419 -268.48482 
L 124.326068 -275.997165 
L 126.379716 -282.377728 
L 128.433365 -287.338033 
L 130.487014 -290.618941 
L 132.540662 -292.032 
L 134.594311 -291.502434 
L 136.64796 -289.097376 
L 138.701609 -285.027829 
L 140.755257 -279.622972 
L 142.808906 -273.284413 
L 144.862555 -266.431805 
L 146.916203 -259.450259 
L 148.969852 -252.647384 
L 151.023501 -246.226103 
L 153.077149 -240.278268 
L 155.130798 -234.80158 
L 157.184447 -229.736927 
L 159.238095 -225.016096 
L 161.291744 -220.604214 
L 163.345393 -216.52101 
L 165.399042 -212.831901 
L 167.45269 -209.612162 
L 169.506339 -206.899967 
L 171.559988 -204.660459 
L 173.613636 -202.77897 
L 175.667285 -201.088297 
L 177.720934 -199.418707 
L 179.774582 -197.648585 
L 181.828231 -195.734001 
L 183.88188 -193.706379 
L 185.935528 -191.642882 
L 187.989177 -189.625891 
L 190.042826 -187.710616 
L 192.096475 -185.913192 
L 194.150123 -184.220013 
L 196.203772 -182.608933 
L 198.257421 -181.069063 
L 200.311069 -179.609286 
L 202.364718 -178.253425 
L 204.418367 -177.027439 
L 206.472015 -175.94716 
L 208.525664 -175.013013 
L 210.579313 -174.212993 
L 212.632961 -173.530467 
L 214.68661 -172.951684 
L 216.740259 -172.469403 
L 218.793908 -172.082124 
L 220.847556 -171.790789 
L 222.901205 -171.595416 
L 224.954854 -171.493131 
L 227.008502 -171.477618 
L 229.062151 -171.539266 
L 231.1158 -171.665441 
L 233.169448 -171.841017 
L 235.223097 -172.049641 
L 237.276746 -172.27585 
L 239.330394 -172.507181 
L 241.384043 -172.73479 
L 243.437692 -172.9515 
L 245.491341 -173.147862 
L 247.544989 -173.308646 
L 249.598638 -173.412813 
L 251.652287 -173.438545 
L 253.705935 -173.371983 
L 255.759584 -173.215635 
L 257.813233 -172.991888 
L 259.866881 -172.739068 
L 261.92053 -172.501056 
L 263.974179 -172.314417 
L 266.027827 -172.198001 
L 268.081476 -172.148723 
L 270.135125 -172.144585 
L 272.188774 -172.153359 
L 274.242422 -172.14351 
L 276.296071 -172.093554 
L 278.34972 -171.996991 
L 280.403368 -171.861789 
L 282.457017 -171.705494 
L 284.510666 -171.548422 
L 286.564314 -171.407609 
L 288.617963 -171.293336 
L 290.671612 -171.208629 
L 290.671612 -170.935371 
L 290.671612 -170.935371 
L 288.617963 -170.850664 
L 286.564314 -170.736391 
L 284.510666 -170.595578 
L 282.457017 -170.438506 
L 280.403368 -170.282211 
L 278.34972 -170.147009 
L 276.296071 -170.050446 
L 274.242422 -170.00049 
L 272.188774 -169.990641 
L 270.135125 -169.999415 
L 268.081476 -169.995277 
L 266.027827 -169.945999 
L 263.974179 -169.829583 
L 261.92053 -169.642944 
L 259.866881 -169.404932 
L 257.813233 -169.152112 
L 255.759584 -168.928365 
L 253.705935 -168.772017 
L 251.652287 -168.705455 
L 249.598638 -168.731187 
L 247.544989 -168.835354 
L 245.491341 -168.996138 
L 243.437692 -169.1925 
L 241.384043 -169.40921 
L 239.330394 -169.636819 
L 237.276746 -169.86815 
L 235.223097 -170.094359 
L 233.169448 -170.302983 
L 231.1158 -170.478559 
L 229.062151 -170.604734 
L 227.008502 -170.666382 
L 224.954854 -170.650869 
L 222.901205 -170.548584 
L 220.847556 -170.353211 
L 218.793908 -170.061876 
L 216.740259 -169.674597 
L 214.68661 -169.192316 
L 212.632961 -168.613533 
L 210.579313 -167.931007 
L 208.525664 -167.130987 
L 206.472015 -166.19684 
L 204.418367 -165.116561 
L 202.364718 -163.890575 
L 200.311069 -162.534714 
L 198.257421 -161.074937 
L 196.203772 -159.535067 
L 194.150123 -157.923987 
L 192.096475 -156.230808 
L 190.042826 -154.433384 
L 187.989177 -152.518109 
L 185.935528 -150.501118 
L 183.88188 -148.437621 
L 181.828231 -146.409999 
L 179.774582 -144.495415 
L 177.720934 -142.725293 
L 175.667285 -141.055703 
L 173.613636 -139.36503 
L 171.559988 -137.483541 
L 169.506339 -135.244033 
L 167.45269 -132.531838 
L 165.399042 -129.312099 
L 163.345393 -125.62299 
L 161.291744 -121.539786 
L 159.238095 -117.127904 
L 157.184447 -112.407073 
L 155.130798 -107.34242 
L 153.077149 -101.865732 
L 151.023501 -95.917897 
L 148.969852 -89.496616 
L 146.916203 -82.693741 
L 144.862555 -75.712195 
L 142.808906 -68.859587 
L 140.755257 -62.521028 
L 138.701609 -57.116171 
L 136.64796 -53.046624 
L 134.594311 -50.641566 
L 132.540662 -50.112 
L 130.487014 -51.525059 
L 128.433365 -54.805967 
L 126.379716 -59.766272 
L 124.326068 -66.146835 
L 122.272419 -73.65918 
L 120.21877 -82.012645 
L 118.165122 -90.924919 
L 116.111473 -100.123102 
L 114.057824 -109.345191 
L 112.004176 -118.347376 
L 109.950527 -126.915288 
L 107.896878 -134.873451 
L 105.843229 -142.088722 
L 103.789581 -148.468328 
L 101.735932 -153.956553 
L 99.682283 -158.533791 
L 97.628635 -162.218236 
L 95.574986 -165.067102 
L 93.521337 -167.173407 
L 91.467689 -168.656464 
L 89.41404 -169.647518 
L 87.360391 -170.274323 
z
" id="m8357ac97ae" style="stroke:#262626;stroke-opacity:0.5;stroke-width:1.5;"/>
    </defs>
    <g clip-path="url(#p306d88b4a6)">
     <use style="fill:#107010;fill-opacity:0.5;stroke:#262626;stroke-opacity:0.5;stroke-width:1.5;" x="0" xlink:href="#m8357ac97ae" y="345.6"/>
    </g>
   </g>
   <g id="matplotlib.axis_1">
    <g id="xtick_1">
     <g id="line2d_1">
      <defs>
       <path d="M 0 0 
L 0 3.5 
" id="mfcb6cf76ba" style="stroke:#000000;stroke-width:0.8;"/>
      </defs>
      <g>
       <use style="stroke:#000000;stroke-width:0.8;" x="94.728005" xlink:href="#mfcb6cf76ba" y="307.584"/>
      </g>
     </g>
     <g id="text_1">
      <!-- 0 -->
      <defs>
       <path d="M 31.78125 66.40625 
Q 24.171875 66.40625 20.328125 58.90625 
Q 16.5 51.421875 16.5 36.375 
Q 16.5 21.390625 20.328125 13.890625 
Q 24.171875 6.390625 31.78125 6.390625 
Q 39.453125 6.390625 43.28125 13.890625 
Q 47.125 21.390625 47.125 36.375 
Q 47.125 51.421875 43.28125 58.90625 
Q 39.453125 66.40625 31.78125 66.40625 
z
M 31.78125 74.21875 
Q 44.046875 74.21875 50.515625 64.515625 
Q 56.984375 54.828125 56.984375 36.375 
Q 56.984375 17.96875 50.515625 8.265625 
Q 44.046875 -1.421875 31.78125 -1.421875 
Q 19.53125 -1.421875 13.0625 8.265625 
Q 6.59375 17.96875 6.59375 36.375 
Q 6.59375 54.828125 13.0625 64.515625 
Q 19.53125 74.21875 31.78125 74.21875 
z
" id="DejaVuSans-48"/>
      </defs>
      <g transform="translate(91.546755 322.182437)scale(0.1 -0.1)">
       <use xlink:href="#DejaVuSans-48"/>
      </g>
     </g>
    </g>
    <g id="xtick_2">
     <g id="line2d_2">
      <g>
       <use style="stroke:#000000;stroke-width:0.8;" x="137.586185" xlink:href="#mfcb6cf76ba" y="307.584"/>
      </g>
     </g>
     <g id="text_2">
      <!-- 1 -->
      <defs>
       <path d="M 12.40625 8.296875 
L 28.515625 8.296875 
L 28.515625 63.921875 
L 10.984375 60.40625 
L 10.984375 69.390625 
L 28.421875 72.90625 
L 38.28125 72.90625 
L 38.28125 8.296875 
L 54.390625 8.296875 
L 54.390625 0 
L 12.40625 0 
z
" id="DejaVuSans-49"/>
      </defs>
      <g transform="translate(134.404935 322.182437)scale(0.1 -0.1)">
       <use xlink:href="#DejaVuSans-49"/>
      </g>
     </g>
    </g>
    <g id="xtick_3">
     <g id="line2d_3">
      <g>
       <use style="stroke:#000000;stroke-width:0.8;" x="180.444365" xlink:href="#mfcb6cf76ba" y="307.584"/>
      </g>
     </g>
     <g id="text_3">
      <!-- 2 -->
      <defs>
       <path d="M 19.1875 8.296875 
L 53.609375 8.296875 
L 53.609375 0 
L 7.328125 0 
L 7.328125 8.296875 
Q 12.9375 14.109375 22.625 23.890625 
Q 32.328125 33.6875 34.8125 36.53125 
Q 39.546875 41.84375 41.421875 45.53125 
Q 43.3125 49.21875 43.3125 52.78125 
Q 43.3125 58.59375 39.234375 62.25 
Q 35.15625 65.921875 28.609375 65.921875 
Q 23.96875 65.921875 18.8125 64.3125 
Q 13.671875 62.703125 7.8125 59.421875 
L 7.8125 69.390625 
Q 13.765625 71.78125 18.9375 73 
Q 24.125 74.21875 28.421875 74.21875 
Q 39.75 74.21875 46.484375 68.546875 
Q 53.21875 62.890625 53.21875 53.421875 
Q 53.21875 48.921875 51.53125 44.890625 
Q 49.859375 40.875 45.40625 35.40625 
Q 44.1875 33.984375 37.640625 27.21875 
Q 31.109375 20.453125 19.1875 8.296875 
z
" id="DejaVuSans-50"/>
      </defs>
      <g transform="translate(177.263115 322.182437)scale(0.1 -0.1)">
       <use xlink:href="#DejaVuSans-50"/>
      </g>
     </g>
    </g>
    <g id="xtick_4">
     <g id="line2d_4">
      <g>
       <use style="stroke:#000000;stroke-width:0.8;" x="223.302546" xlink:href="#mfcb6cf76ba" y="307.584"/>
      </g>
     </g>
     <g id="text_4">
      <!-- 3 -->
      <defs>
       <path d="M 40.578125 39.3125 
Q 47.65625 37.796875 51.625 33 
Q 55.609375 28.21875 55.609375 21.1875 
Q 55.609375 10.40625 48.1875 4.484375 
Q 40.765625 -1.421875 27.09375 -1.421875 
Q 22.515625 -1.421875 17.65625 -0.515625 
Q 12.796875 0.390625 7.625 2.203125 
L 7.625 11.71875 
Q 11.71875 9.328125 16.59375 8.109375 
Q 21.484375 6.890625 26.8125 6.890625 
Q 36.078125 6.890625 40.9375 10.546875 
Q 45.796875 14.203125 45.796875 21.1875 
Q 45.796875 27.640625 41.28125 31.265625 
Q 36.765625 34.90625 28.71875 34.90625 
L 20.21875 34.90625 
L 20.21875 43.015625 
L 29.109375 43.015625 
Q 36.375 43.015625 40.234375 45.921875 
Q 44.09375 48.828125 44.09375 54.296875 
Q 44.09375 59.90625 40.109375 62.90625 
Q 36.140625 65.921875 28.71875 65.921875 
Q 24.65625 65.921875 20.015625 65.03125 
Q 15.375 64.15625 9.8125 62.3125 
L 9.8125 71.09375 
Q 15.4375 72.65625 20.34375 73.4375 
Q 25.25 74.21875 29.59375 74.21875 
Q 40.828125 74.21875 47.359375 69.109375 
Q 53.90625 64.015625 53.90625 55.328125 
Q 53.90625 49.265625 50.4375 45.09375 
Q 46.96875 40.921875 40.578125 39.3125 
z
" id="DejaVuSans-51"/>
      </defs>
      <g transform="translate(220.121296 322.182437)scale(0.1 -0.1)">
       <use xlink:href="#DejaVuSans-51"/>
      </g>
     </g>
    </g>
    <g id="xtick_5">
     <g id="line2d_5">
      <g>
       <use style="stroke:#000000;stroke-width:0.8;" x="266.160726" xlink:href="#mfcb6cf76ba" y="307.584"/>
      </g>
     </g>
     <g id="text_5">
      <!-- 4 -->
      <defs>
       <path d="M 37.796875 64.3125 
L 12.890625 25.390625 
L 37.796875 25.390625 
z
M 35.203125 72.90625 
L 47.609375 72.90625 
L 47.609375 25.390625 
L 58.015625 25.390625 
L 58.015625 17.1875 
L 47.609375 17.1875 
L 47.609375 0 
L 37.796875 0 
L 37.796875 17.1875 
L 4.890625 17.1875 
L 4.890625 26.703125 
z
" id="DejaVuSans-52"/>
      </defs>
      <g transform="translate(262.979476 322.182437)scale(0.1 -0.1)">
       <use xlink:href="#DejaVuSans-52"/>
      </g>
     </g>
    </g>
    <g id="xtick_6">
     <g id="line2d_6">
      <g>
       <use style="stroke:#000000;stroke-width:0.8;" x="309.018907" xlink:href="#mfcb6cf76ba" y="307.584"/>
      </g>
     </g>
     <g id="text_6">
      <!-- 5 -->
      <defs>
       <path d="M 10.796875 72.90625 
L 49.515625 72.90625 
L 49.515625 64.59375 
L 19.828125 64.59375 
L 19.828125 46.734375 
Q 21.96875 47.46875 24.109375 47.828125 
Q 26.265625 48.1875 28.421875 48.1875 
Q 40.625 48.1875 47.75 41.5 
Q 54.890625 34.8125 54.890625 23.390625 
Q 54.890625 11.625 47.5625 5.09375 
Q 40.234375 -1.421875 26.90625 -1.421875 
Q 22.3125 -1.421875 17.546875 -0.640625 
Q 12.796875 0.140625 7.71875 1.703125 
L 7.71875 11.625 
Q 12.109375 9.234375 16.796875 8.0625 
Q 21.484375 6.890625 26.703125 6.890625 
Q 35.15625 6.890625 40.078125 11.328125 
Q 45.015625 15.765625 45.015625 23.390625 
Q 45.015625 31 40.078125 35.4375 
Q 35.15625 39.890625 26.703125 39.890625 
Q 22.75 39.890625 18.8125 39.015625 
Q 14.890625 38.140625 10.796875 36.28125 
z
" id="DejaVuSans-53"/>
      </defs>
      <g transform="translate(305.837657 322.182437)scale(0.1 -0.1)">
       <use xlink:href="#DejaVuSans-53"/>
      </g>
     </g>
    </g>
    <g id="xtick_7">
     <g id="line2d_7">
      <g>
       <use style="stroke:#000000;stroke-width:0.8;" x="351.877087" xlink:href="#mfcb6cf76ba" y="307.584"/>
      </g>
     </g>
     <g id="text_7">
      <!-- 6 -->
      <defs>
       <path d="M 33.015625 40.375 
Q 26.375 40.375 22.484375 35.828125 
Q 18.609375 31.296875 18.609375 23.390625 
Q 18.609375 15.53125 22.484375 10.953125 
Q 26.375 6.390625 33.015625 6.390625 
Q 39.65625 6.390625 43.53125 10.953125 
Q 47.40625 15.53125 47.40625 23.390625 
Q 47.40625 31.296875 43.53125 35.828125 
Q 39.65625 40.375 33.015625 40.375 
z
M 52.59375 71.296875 
L 52.59375 62.3125 
Q 48.875 64.0625 45.09375 64.984375 
Q 41.3125 65.921875 37.59375 65.921875 
Q 27.828125 65.921875 22.671875 59.328125 
Q 17.53125 52.734375 16.796875 39.40625 
Q 19.671875 43.65625 24.015625 45.921875 
Q 28.375 48.1875 33.59375 48.1875 
Q 44.578125 48.1875 50.953125 41.515625 
Q 57.328125 34.859375 57.328125 23.390625 
Q 57.328125 12.15625 50.6875 5.359375 
Q 44.046875 -1.421875 33.015625 -1.421875 
Q 20.359375 -1.421875 13.671875 8.265625 
Q 6.984375 17.96875 6.984375 36.375 
Q 6.984375 53.65625 15.1875 63.9375 
Q 23.390625 74.21875 37.203125 74.21875 
Q 40.921875 74.21875 44.703125 73.484375 
Q 48.484375 72.75 52.59375 71.296875 
z
" id="DejaVuSans-54"/>
      </defs>
      <g transform="translate(348.695837 322.182437)scale(0.1 -0.1)">
       <use xlink:href="#DejaVuSans-54"/>
      </g>
     </g>
    </g>
    <g id="xtick_8">
     <g id="line2d_8">
      <g>
       <use style="stroke:#000000;stroke-width:0.8;" x="394.735268" xlink:href="#mfcb6cf76ba" y="307.584"/>
      </g>
     </g>
     <g id="text_8">
      <!-- 7 -->
      <defs>
       <path d="M 8.203125 72.90625 
L 55.078125 72.90625 
L 55.078125 68.703125 
L 28.609375 0 
L 18.3125 0 
L 43.21875 64.59375 
L 8.203125 64.59375 
z
" id="DejaVuSans-55"/>
      </defs>
      <g transform="translate(391.554018 322.182437)scale(0.1 -0.1)">
       <use xlink:href="#DejaVuSans-55"/>
      </g>
     </g>
    </g>
    <g id="text_9">
     <!-- lymphadmac -->
     <defs>
      <path d="M 9.421875 75.984375 
L 18.40625 75.984375 
L 18.40625 0 
L 9.421875 0 
z
" id="DejaVuSans-108"/>
      <path d="M 32.171875 -5.078125 
Q 28.375 -14.84375 24.75 -17.8125 
Q 21.140625 -20.796875 15.09375 -20.796875 
L 7.90625 -20.796875 
L 7.90625 -13.28125 
L 13.1875 -13.28125 
Q 16.890625 -13.28125 18.9375 -11.515625 
Q 21 -9.765625 23.484375 -3.21875 
L 25.09375 0.875 
L 2.984375 54.6875 
L 12.5 54.6875 
L 29.59375 11.921875 
L 46.6875 54.6875 
L 56.203125 54.6875 
z
" id="DejaVuSans-121"/>
      <path d="M 52 44.1875 
Q 55.375 50.25 60.0625 53.125 
Q 64.75 56 71.09375 56 
Q 79.640625 56 84.28125 50.015625 
Q 88.921875 44.046875 88.921875 33.015625 
L 88.921875 0 
L 79.890625 0 
L 79.890625 32.71875 
Q 79.890625 40.578125 77.09375 44.375 
Q 74.3125 48.1875 68.609375 48.1875 
Q 61.625 48.1875 57.5625 43.546875 
Q 53.515625 38.921875 53.515625 30.90625 
L 53.515625 0 
L 44.484375 0 
L 44.484375 32.71875 
Q 44.484375 40.625 41.703125 44.40625 
Q 38.921875 48.1875 33.109375 48.1875 
Q 26.21875 48.1875 22.15625 43.53125 
Q 18.109375 38.875 18.109375 30.90625 
L 18.109375 0 
L 9.078125 0 
L 9.078125 54.6875 
L 18.109375 54.6875 
L 18.109375 46.1875 
Q 21.1875 51.21875 25.484375 53.609375 
Q 29.78125 56 35.6875 56 
Q 41.65625 56 45.828125 52.96875 
Q 50 49.953125 52 44.1875 
z
" id="DejaVuSans-109"/>
      <path d="M 18.109375 8.203125 
L 18.109375 -20.796875 
L 9.078125 -20.796875 
L 9.078125 54.6875 
L 18.109375 54.6875 
L 18.109375 46.390625 
Q 20.953125 51.265625 25.265625 53.625 
Q 29.59375 56 35.59375 56 
Q 45.5625 56 51.78125 48.09375 
Q 58.015625 40.1875 58.015625 27.296875 
Q 58.015625 14.40625 51.78125 6.484375 
Q 45.5625 -1.421875 35.59375 -1.421875 
Q 29.59375 -1.421875 25.265625 0.953125 
Q 20.953125 3.328125 18.109375 8.203125 
z
M 48.6875 27.296875 
Q 48.6875 37.203125 44.609375 42.84375 
Q 40.53125 48.484375 33.40625 48.484375 
Q 26.265625 48.484375 22.1875 42.84375 
Q 18.109375 37.203125 18.109375 27.296875 
Q 18.109375 17.390625 22.1875 11.75 
Q 26.265625 6.109375 33.40625 6.109375 
Q 40.53125 6.109375 44.609375 11.75 
Q 48.6875 17.390625 48.6875 27.296875 
z
" id="DejaVuSans-112"/>
      <path d="M 54.890625 33.015625 
L 54.890625 0 
L 45.90625 0 
L 45.90625 32.71875 
Q 45.90625 40.484375 42.875 44.328125 
Q 39.84375 48.1875 33.796875 48.1875 
Q 26.515625 48.1875 22.3125 43.546875 
Q 18.109375 38.921875 18.109375 30.90625 
L 18.109375 0 
L 9.078125 0 
L 9.078125 75.984375 
L 18.109375 75.984375 
L 18.109375 46.1875 
Q 21.34375 51.125 25.703125 53.5625 
Q 30.078125 56 35.796875 56 
Q 45.21875 56 50.046875 50.171875 
Q 54.890625 44.34375 54.890625 33.015625 
z
" id="DejaVuSans-104"/>
      <path d="M 34.28125 27.484375 
Q 23.390625 27.484375 19.1875 25 
Q 14.984375 22.515625 14.984375 16.5 
Q 14.984375 11.71875 18.140625 8.90625 
Q 21.296875 6.109375 26.703125 6.109375 
Q 34.1875 6.109375 38.703125 11.40625 
Q 43.21875 16.703125 43.21875 25.484375 
L 43.21875 27.484375 
z
M 52.203125 31.203125 
L 52.203125 0 
L 43.21875 0 
L 43.21875 8.296875 
Q 40.140625 3.328125 35.546875 0.953125 
Q 30.953125 -1.421875 24.3125 -1.421875 
Q 15.921875 -1.421875 10.953125 3.296875 
Q 6 8.015625 6 15.921875 
Q 6 25.140625 12.171875 29.828125 
Q 18.359375 34.515625 30.609375 34.515625 
L 43.21875 34.515625 
L 43.21875 35.40625 
Q 43.21875 41.609375 39.140625 45 
Q 35.0625 48.390625 27.6875 48.390625 
Q 23 48.390625 18.546875 47.265625 
Q 14.109375 46.140625 10.015625 43.890625 
L 10.015625 52.203125 
Q 14.9375 54.109375 19.578125 55.046875 
Q 24.21875 56 28.609375 56 
Q 40.484375 56 46.34375 49.84375 
Q 52.203125 43.703125 52.203125 31.203125 
z
" id="DejaVuSans-97"/>
      <path d="M 45.40625 46.390625 
L 45.40625 75.984375 
L 54.390625 75.984375 
L 54.390625 0 
L 45.40625 0 
L 45.40625 8.203125 
Q 42.578125 3.328125 38.25 0.953125 
Q 33.9375 -1.421875 27.875 -1.421875 
Q 17.96875 -1.421875 11.734375 6.484375 
Q 5.515625 14.40625 5.515625 27.296875 
Q 5.515625 40.1875 11.734375 48.09375 
Q 17.96875 56 27.875 56 
Q 33.9375 56 38.25 53.625 
Q 42.578125 51.265625 45.40625 46.390625 
z
M 14.796875 27.296875 
Q 14.796875 17.390625 18.875 11.75 
Q 22.953125 6.109375 30.078125 6.109375 
Q 37.203125 6.109375 41.296875 11.75 
Q 45.40625 17.390625 45.40625 27.296875 
Q 45.40625 37.203125 41.296875 42.84375 
Q 37.203125 48.484375 30.078125 48.484375 
Q 22.953125 48.484375 18.875 42.84375 
Q 14.796875 37.203125 14.796875 27.296875 
z
" id="DejaVuSans-100"/>
      <path d="M 48.78125 52.59375 
L 48.78125 44.1875 
Q 44.96875 46.296875 41.140625 47.34375 
Q 37.3125 48.390625 33.40625 48.390625 
Q 24.65625 48.390625 19.8125 42.84375 
Q 14.984375 37.3125 14.984375 27.296875 
Q 14.984375 17.28125 19.8125 11.734375 
Q 24.65625 6.203125 33.40625 6.203125 
Q 37.3125 6.203125 41.140625 7.25 
Q 44.96875 8.296875 48.78125 10.40625 
L 48.78125 2.09375 
Q 45.015625 0.34375 40.984375 -0.53125 
Q 36.96875 -1.421875 32.421875 -1.421875 
Q 20.0625 -1.421875 12.78125 6.34375 
Q 5.515625 14.109375 5.515625 27.296875 
Q 5.515625 40.671875 12.859375 48.328125 
Q 20.21875 56 33.015625 56 
Q 37.15625 56 41.109375 55.140625 
Q 45.0625 54.296875 48.78125 52.59375 
z
" id="DejaVuSans-99"/>
     </defs>
     <g transform="translate(203.676406 335.860562)scale(0.1 -0.1)">
      <use xlink:href="#DejaVuSans-108"/>
      <use x="27.783203" xlink:href="#DejaVuSans-121"/>
      <use x="86.962891" xlink:href="#DejaVuSans-109"/>
      <use x="184.375" xlink:href="#DejaVuSans-112"/>
      <use x="247.851562" xlink:href="#DejaVuSans-104"/>
      <use x="311.230469" xlink:href="#DejaVuSans-97"/>
      <use x="372.509766" xlink:href="#DejaVuSans-100"/>
      <use x="435.986328" xlink:href="#DejaVuSans-109"/>
      <use x="533.398438" xlink:href="#DejaVuSans-97"/>
      <use x="594.677734" xlink:href="#DejaVuSans-99"/>
     </g>
    </g>
   </g>
   <g id="matplotlib.axis_2">
    <g id="ytick_1">
     <g id="line2d_9">
      <defs>
       <path d="M 0 0 
L -3.5 0 
" id="m2595e00cfd" style="stroke:#000000;stroke-width:0.8;"/>
      </defs>
      <g>
       <use style="stroke:#000000;stroke-width:0.8;" x="57.6" xlink:href="#m2595e00cfd" y="174.528"/>
      </g>
     </g>
    </g>
   </g>
   <g id="line2d_10">
    <path clip-path="url(#p306d88b4a6)" d="M 103.299641 174.528 
L 189.016002 174.528 
" style="fill:none;stroke:#ffa500;stroke-linecap:square;stroke-width:1.5;"/>
   </g>
   <g id="line2d_11">
    <path clip-path="url(#p306d88b4a6)" d="M 124.728731 174.528 
L 150.443639 174.528 
" style="fill:none;stroke:#4c4c4c;stroke-linecap:square;stroke-width:4.5;"/>
   </g>
   <g id="line2d_12">
    <path clip-path="url(#p306d88b4a6)" d="M 103.299641 174.528 
L 197.587638 174.528 
" style="fill:none;stroke:#008000;stroke-linecap:square;stroke-width:1.5;"/>
   </g>
   <g id="line2d_13">
    <path clip-path="url(#p306d88b4a6)" d="M 124.728731 174.528 
L 154.729457 174.528 
" style="fill:none;stroke:#262626;stroke-linecap:square;stroke-width:4.5;"/>
   </g>
   <g id="patch_3">
    <path d="M 57.6 307.584 
L 57.6 41.472 
" style="fill:none;stroke:#000000;stroke-linecap:square;stroke-linejoin:miter;stroke-width:0.8;"/>
   </g>
   <g id="patch_4">
    <path d="M 414.72 307.584 
L 414.72 41.472 
" style="fill:none;stroke:#000000;stroke-linecap:square;stroke-linejoin:miter;stroke-width:0.8;"/>
   </g>
   <g id="patch_5">
    <path d="M 57.6 307.584 
L 414.72 307.584 
" style="fill:none;stroke:#000000;stroke-linecap:square;stroke-linejoin:miter;stroke-width:0.8;"/>
   </g>
   <g id="patch_6">
    <path d="M 57.6 41.472 
L 414.72 41.472 
" style="fill:none;stroke:#000000;stroke-linecap:square;stroke-linejoin:miter;stroke-width:0.8;"/>
   </g>
   <g id="PathCollection_1">
    <defs>
     <path d="M 0 1.5 
C 0.397805 1.5 0.77937 1.341951 1.06066 1.06066 
C 1.341951 0.77937 1.5 0.397805 1.5 0 
C 1.5 -0.397805 1.341951 -0.77937 1.06066 -1.06066 
C 0.77937 -1.341951 0.397805 -1.5 0 -1.5 
C -0.397805 -1.5 -0.77937 -1.341951 -1.06066 -1.06066 
C -1.341951 -0.77937 -1.5 -0.397805 -1.5 0 
C -1.5 0.397805 -1.341951 0.77937 -1.06066 1.06066 
C -0.77937 1.341951 -0.397805 1.5 0 1.5 
z
" id="m52d8736e0b" style="stroke:#4c4c4c;stroke-opacity:0.5;"/>
    </defs>
    <g clip-path="url(#p306d88b4a6)">
     <use style="fill:#ffffff;fill-opacity:0.5;stroke:#4c4c4c;stroke-opacity:0.5;" x="133.300367" xlink:href="#m52d8736e0b" y="174.528"/>
    </g>
   </g>
   <g id="PathCollection_2">
    <defs>
     <path d="M 0 1.5 
C 0.397805 1.5 0.77937 1.341951 1.06066 1.06066 
C 1.341951 0.77937 1.5 0.397805 1.5 0 
C 1.5 -0.397805 1.341951 -0.77937 1.06066 -1.06066 
C 0.77937 -1.341951 0.397805 -1.5 0 -1.5 
C -0.397805 -1.5 -0.77937 -1.341951 -1.06066 -1.06066 
C -1.341951 -0.77937 -1.5 -0.397805 -1.5 0 
C -1.5 0.397805 -1.341951 0.77937 -1.06066 1.06066 
C -0.77937 1.341951 -0.397805 1.5 0 1.5 
z
" id="m937bb2c0c6" style="stroke:#262626;stroke-opacity:0.5;"/>
    </defs>
    <g clip-path="url(#p306d88b4a6)">
     <use style="fill:#ffffff;fill-opacity:0.5;stroke:#262626;stroke-opacity:0.5;" x="137.586185" xlink:href="#m937bb2c0c6" y="174.528"/>
    </g>
   </g>
   <g id="text_10">
    <!-- Association of lymphadmac vs. death -->
    <defs>
     <path d="M 34.1875 63.1875 
L 20.796875 26.90625 
L 47.609375 26.90625 
z
M 28.609375 72.90625 
L 39.796875 72.90625 
L 67.578125 0 
L 57.328125 0 
L 50.6875 18.703125 
L 17.828125 18.703125 
L 11.1875 0 
L 0.78125 0 
z
" id="DejaVuSans-65"/>
     <path d="M 44.28125 53.078125 
L 44.28125 44.578125 
Q 40.484375 46.53125 36.375 47.5 
Q 32.28125 48.484375 27.875 48.484375 
Q 21.1875 48.484375 17.84375 46.4375 
Q 14.5 44.390625 14.5 40.28125 
Q 14.5 37.15625 16.890625 35.375 
Q 19.28125 33.59375 26.515625 31.984375 
L 29.59375 31.296875 
Q 39.15625 29.25 43.1875 25.515625 
Q 47.21875 21.78125 47.21875 15.09375 
Q 47.21875 7.46875 41.1875 3.015625 
Q 35.15625 -1.421875 24.609375 -1.421875 
Q 20.21875 -1.421875 15.453125 -0.5625 
Q 10.6875 0.296875 5.421875 2 
L 5.421875 11.28125 
Q 10.40625 8.6875 15.234375 7.390625 
Q 20.0625 6.109375 24.8125 6.109375 
Q 31.15625 6.109375 34.5625 8.28125 
Q 37.984375 10.453125 37.984375 14.40625 
Q 37.984375 18.0625 35.515625 20.015625 
Q 33.0625 21.96875 24.703125 23.78125 
L 21.578125 24.515625 
Q 13.234375 26.265625 9.515625 29.90625 
Q 5.8125 33.546875 5.8125 39.890625 
Q 5.8125 47.609375 11.28125 51.796875 
Q 16.75 56 26.8125 56 
Q 31.78125 56 36.171875 55.265625 
Q 40.578125 54.546875 44.28125 53.078125 
z
" id="DejaVuSans-115"/>
     <path d="M 30.609375 48.390625 
Q 23.390625 48.390625 19.1875 42.75 
Q 14.984375 37.109375 14.984375 27.296875 
Q 14.984375 17.484375 19.15625 11.84375 
Q 23.34375 6.203125 30.609375 6.203125 
Q 37.796875 6.203125 41.984375 11.859375 
Q 46.1875 17.53125 46.1875 27.296875 
Q 46.1875 37.015625 41.984375 42.703125 
Q 37.796875 48.390625 30.609375 48.390625 
z
M 30.609375 56 
Q 42.328125 56 49.015625 48.375 
Q 55.71875 40.765625 55.71875 27.296875 
Q 55.71875 13.875 49.015625 6.21875 
Q 42.328125 -1.421875 30.609375 -1.421875 
Q 18.84375 -1.421875 12.171875 6.21875 
Q 5.515625 13.875 5.515625 27.296875 
Q 5.515625 40.765625 12.171875 48.375 
Q 18.84375 56 30.609375 56 
z
" id="DejaVuSans-111"/>
     <path d="M 9.421875 54.6875 
L 18.40625 54.6875 
L 18.40625 0 
L 9.421875 0 
z
M 9.421875 75.984375 
L 18.40625 75.984375 
L 18.40625 64.59375 
L 9.421875 64.59375 
z
" id="DejaVuSans-105"/>
     <path d="M 18.3125 70.21875 
L 18.3125 54.6875 
L 36.8125 54.6875 
L 36.8125 47.703125 
L 18.3125 47.703125 
L 18.3125 18.015625 
Q 18.3125 11.328125 20.140625 9.421875 
Q 21.96875 7.515625 27.59375 7.515625 
L 36.8125 7.515625 
L 36.8125 0 
L 27.59375 0 
Q 17.1875 0 13.234375 3.875 
Q 9.28125 7.765625 9.28125 18.015625 
L 9.28125 47.703125 
L 2.6875 47.703125 
L 2.6875 54.6875 
L 9.28125 54.6875 
L 9.28125 70.21875 
z
" id="DejaVuSans-116"/>
     <path d="M 54.890625 33.015625 
L 54.890625 0 
L 45.90625 0 
L 45.90625 32.71875 
Q 45.90625 40.484375 42.875 44.328125 
Q 39.84375 48.1875 33.796875 48.1875 
Q 26.515625 48.1875 22.3125 43.546875 
Q 18.109375 38.921875 18.109375 30.90625 
L 18.109375 0 
L 9.078125 0 
L 9.078125 54.6875 
L 18.109375 54.6875 
L 18.109375 46.1875 
Q 21.34375 51.125 25.703125 53.5625 
Q 30.078125 56 35.796875 56 
Q 45.21875 56 50.046875 50.171875 
Q 54.890625 44.34375 54.890625 33.015625 
z
" id="DejaVuSans-110"/>
     <path id="DejaVuSans-32"/>
     <path d="M 37.109375 75.984375 
L 37.109375 68.5 
L 28.515625 68.5 
Q 23.6875 68.5 21.796875 66.546875 
Q 19.921875 64.59375 19.921875 59.515625 
L 19.921875 54.6875 
L 34.71875 54.6875 
L 34.71875 47.703125 
L 19.921875 47.703125 
L 19.921875 0 
L 10.890625 0 
L 10.890625 47.703125 
L 2.296875 47.703125 
L 2.296875 54.6875 
L 10.890625 54.6875 
L 10.890625 58.5 
Q 10.890625 67.625 15.140625 71.796875 
Q 19.390625 75.984375 28.609375 75.984375 
z
" id="DejaVuSans-102"/>
     <path d="M 2.984375 54.6875 
L 12.5 54.6875 
L 29.59375 8.796875 
L 46.6875 54.6875 
L 56.203125 54.6875 
L 35.6875 0 
L 23.484375 0 
z
" id="DejaVuSans-118"/>
     <path d="M 10.6875 12.40625 
L 21 12.40625 
L 21 0 
L 10.6875 0 
z
" id="DejaVuSans-46"/>
     <path d="M 56.203125 29.59375 
L 56.203125 25.203125 
L 14.890625 25.203125 
Q 15.484375 15.921875 20.484375 11.0625 
Q 25.484375 6.203125 34.421875 6.203125 
Q 39.59375 6.203125 44.453125 7.46875 
Q 49.3125 8.734375 54.109375 11.28125 
L 54.109375 2.78125 
Q 49.265625 0.734375 44.1875 -0.34375 
Q 39.109375 -1.421875 33.890625 -1.421875 
Q 20.796875 -1.421875 13.15625 6.1875 
Q 5.515625 13.8125 5.515625 26.8125 
Q 5.515625 40.234375 12.765625 48.109375 
Q 20.015625 56 32.328125 56 
Q 43.359375 56 49.78125 48.890625 
Q 56.203125 41.796875 56.203125 29.59375 
z
M 47.21875 32.234375 
Q 47.125 39.59375 43.09375 43.984375 
Q 39.0625 48.390625 32.421875 48.390625 
Q 24.90625 48.390625 20.390625 44.140625 
Q 15.875 39.890625 15.1875 32.171875 
z
" id="DejaVuSans-101"/>
    </defs>
    <g transform="translate(123.69 35.472)scale(0.12 -0.12)">
     <use xlink:href="#DejaVuSans-65"/>
     <use x="68.408203" xlink:href="#DejaVuSans-115"/>
     <use x="120.507812" xlink:href="#DejaVuSans-115"/>
     <use x="172.607422" xlink:href="#DejaVuSans-111"/>
     <use x="233.789062" xlink:href="#DejaVuSans-99"/>
     <use x="288.769531" xlink:href="#DejaVuSans-105"/>
     <use x="316.552734" xlink:href="#DejaVuSans-97"/>
     <use x="377.832031" xlink:href="#DejaVuSans-116"/>
     <use x="417.041016" xlink:href="#DejaVuSans-105"/>
     <use x="444.824219" xlink:href="#DejaVuSans-111"/>
     <use x="506.005859" xlink:href="#DejaVuSans-110"/>
     <use x="569.384766" xlink:href="#DejaVuSans-32"/>
     <use x="601.171875" xlink:href="#DejaVuSans-111"/>
     <use x="662.353516" xlink:href="#DejaVuSans-102"/>
     <use x="697.558594" xlink:href="#DejaVuSans-32"/>
     <use x="729.345703" xlink:href="#DejaVuSans-108"/>
     <use x="757.128906" xlink:href="#DejaVuSans-121"/>
     <use x="816.308594" xlink:href="#DejaVuSans-109"/>
     <use x="913.720703" xlink:href="#DejaVuSans-112"/>
     <use x="977.197266" xlink:href="#DejaVuSans-104"/>
     <use x="1040.576172" xlink:href="#DejaVuSans-97"/>
     <use x="1101.855469" xlink:href="#DejaVuSans-100"/>
     <use x="1165.332031" xlink:href="#DejaVuSans-109"/>
     <use x="1262.744141" xlink:href="#DejaVuSans-97"/>
     <use x="1324.023438" xlink:href="#DejaVuSans-99"/>
     <use x="1379.003906" xlink:href="#DejaVuSans-32"/>
     <use x="1410.791016" xlink:href="#DejaVuSans-118"/>
     <use x="1469.970703" xlink:href="#DejaVuSans-115"/>
     <use x="1522.070312" xlink:href="#DejaVuSans-46"/>
     <use x="1553.857422" xlink:href="#DejaVuSans-32"/>
     <use x="1585.644531" xlink:href="#DejaVuSans-100"/>
     <use x="1649.121094" xlink:href="#DejaVuSans-101"/>
     <use x="1710.644531" xlink:href="#DejaVuSans-97"/>
     <use x="1771.923828" xlink:href="#DejaVuSans-116"/>
     <use x="1811.132812" xlink:href="#DejaVuSans-104"/>
    </g>
   </g>
   <g id="legend_1">
    <g id="patch_7">
     <path d="M 296.065313 78.82825 
L 407.72 78.82825 
Q 409.72 78.82825 409.72 76.82825 
L 409.72 48.472 
Q 409.72 46.472 407.72 46.472 
L 296.065313 46.472 
Q 294.065313 46.472 294.065313 48.472 
L 294.065313 76.82825 
Q 294.065313 78.82825 296.065313 78.82825 
z
" style="fill:#ffffff;opacity:0.8;stroke:#cccccc;stroke-linejoin:miter;"/>
    </g>
    <g id="line2d_14">
     <path d="M 298.065313 54.570437 
L 318.065313 54.570437 
" style="fill:none;stroke:#ffa500;stroke-linecap:square;stroke-width:1.5;"/>
    </g>
    <g id="line2d_15"/>
    <g id="text_11">
     <!-- death (116) -->
     <defs>
      <path d="M 31 75.875 
Q 24.46875 64.65625 21.28125 53.65625 
Q 18.109375 42.671875 18.109375 31.390625 
Q 18.109375 20.125 21.3125 9.0625 
Q 24.515625 -2 31 -13.1875 
L 23.1875 -13.1875 
Q 15.875 -1.703125 12.234375 9.375 
Q 8.59375 20.453125 8.59375 31.390625 
Q 8.59375 42.28125 12.203125 53.3125 
Q 15.828125 64.359375 23.1875 75.875 
z
" id="DejaVuSans-40"/>
      <path d="M 8.015625 75.875 
L 15.828125 75.875 
Q 23.140625 64.359375 26.78125 53.3125 
Q 30.421875 42.28125 30.421875 31.390625 
Q 30.421875 20.453125 26.78125 9.375 
Q 23.140625 -1.703125 15.828125 -13.1875 
L 8.015625 -13.1875 
Q 14.5 -2 17.703125 9.0625 
Q 20.90625 20.125 20.90625 31.390625 
Q 20.90625 42.671875 17.703125 53.65625 
Q 14.5 64.65625 8.015625 75.875 
z
" id="DejaVuSans-41"/>
     </defs>
     <g transform="translate(326.065313 58.070437)scale(0.1 -0.1)">
      <use xlink:href="#DejaVuSans-100"/>
      <use x="63.476562" xlink:href="#DejaVuSans-101"/>
      <use x="125" xlink:href="#DejaVuSans-97"/>
      <use x="186.279297" xlink:href="#DejaVuSans-116"/>
      <use x="225.488281" xlink:href="#DejaVuSans-104"/>
      <use x="288.867188" xlink:href="#DejaVuSans-32"/>
      <use x="320.654297" xlink:href="#DejaVuSans-40"/>
      <use x="359.667969" xlink:href="#DejaVuSans-49"/>
      <use x="423.291016" xlink:href="#DejaVuSans-49"/>
      <use x="486.914062" xlink:href="#DejaVuSans-54"/>
      <use x="550.537109" xlink:href="#DejaVuSans-41"/>
     </g>
    </g>
    <g id="line2d_16">
     <path d="M 298.065313 69.248562 
L 318.065313 69.248562 
" style="fill:none;stroke:#008000;stroke-linecap:square;stroke-width:1.5;"/>
    </g>
    <g id="line2d_17"/>
    <g id="text_12">
     <!-- Not death (301) -->
     <defs>
      <path d="M 9.8125 72.90625 
L 23.09375 72.90625 
L 55.421875 11.921875 
L 55.421875 72.90625 
L 64.984375 72.90625 
L 64.984375 0 
L 51.703125 0 
L 19.390625 60.984375 
L 19.390625 0 
L 9.8125 0 
z
" id="DejaVuSans-78"/>
     </defs>
     <g transform="translate(326.065313 72.748562)scale(0.1 -0.1)">
      <use xlink:href="#DejaVuSans-78"/>
      <use x="74.804688" xlink:href="#DejaVuSans-111"/>
      <use x="135.986328" xlink:href="#DejaVuSans-116"/>
      <use x="175.195312" xlink:href="#DejaVuSans-32"/>
      <use x="206.982422" xlink:href="#DejaVuSans-100"/>
      <use x="270.458984" xlink:href="#DejaVuSans-101"/>
      <use x="331.982422" xlink:href="#DejaVuSans-97"/>
      <use x="393.261719" xlink:href="#DejaVuSans-116"/>
      <use x="432.470703" xlink:href="#DejaVuSans-104"/>
      <use x="495.849609" xlink:href="#DejaVuSans-32"/>
      <use x="527.636719" xlink:href="#DejaVuSans-40"/>
      <use x="566.650391" xlink:href="#DejaVuSans-51"/>
      <use x="630.273438" xlink:href="#DejaVuSans-48"/>
      <use x="693.896484" xlink:href="#DejaVuSans-49"/>
      <use x="757.519531" xlink:href="#DejaVuSans-41"/>
     </g>
    </g>
   </g>
  </g>
 </g>
 <defs>
  <clipPath id="p306d88b4a6">
   <rect height="266.112" width="357.12" x="57.6" y="41.472"/>
  </clipPath>
 </defs>
</svg>
