<?xml version="1.0" encoding="utf-8" standalone="no"?>
<!DOCTYPE svg PUBLIC "-//W3C//DTD SVG 1.1//EN"
  "http://www.w3.org/Graphics/SVG/1.1/DTD/svg11.dtd">
<!-- Created with matplotlib (https://matplotlib.org/) -->
<svg height="345.6pt" version="1.1" viewBox="0 0 460.8 345.6" width="460.8pt" xmlns="http://www.w3.org/2000/svg" xmlns:xlink="http://www.w3.org/1999/xlink">
 <defs>
  <style type="text/css">
*{stroke-linecap:butt;stroke-linejoin:round;}
  </style>
 </defs>
 <g id="figure_1">
  <g id="patch_1">
   <path d="M 0 345.6 
L 460.8 345.6 
L 460.8 0 
L 0 0 
z
" style="fill:#ffffff;"/>
  </g>
  <g id="axes_1">
   <g id="patch_2">
    <path d="M 57.6 307.584 
L 414.72 307.584 
L 414.72 41.472 
L 57.6 41.472 
z
" style="fill:#ffffff;"/>
   </g>
   <g id="PolyCollection_1">
    <defs>
     <path d="M 85.662037 -162.725728 
L 85.662037 -179.418272 
L 86.739886 -181.046316 
L 87.817736 -182.903609 
L 88.895586 -185.002989 
L 89.973435 -187.353944 
L 91.051285 -189.961785 
L 92.129135 -192.826864 
L 93.206984 -195.943882 
L 94.284834 -199.301342 
L 95.362684 -202.881192 
L 96.440533 -206.658708 
L 97.518383 -210.602653 
L 98.596232 -214.675744 
L 99.674082 -218.835435 
L 100.751932 -223.035014 
L 101.829781 -227.224995 
L 102.907631 -231.354747 
L 103.985481 -235.374323 
L 105.06333 -239.236379 
L 106.14118 -242.898112 
L 107.21903 -246.3231 
L 108.296879 -249.48295 
L 109.374729 -252.358646 
L 110.452579 -254.941499 
L 111.530428 -257.233642 
L 112.608278 -259.248002 
L 113.686128 -261.007737 
L 114.763977 -262.545133 
L 115.841827 -263.900018 
L 116.919676 -265.117732 
L 117.997526 -266.246782 
L 119.075376 -267.336271 
L 120.153225 -268.433248 
L 121.231075 -269.580115 
L 122.308925 -270.812235 
L 123.386774 -272.155852 
L 124.464624 -273.626468 
L 125.542474 -275.227734 
L 126.620323 -276.950935 
L 127.698173 -278.77509 
L 128.776023 -280.667666 
L 129.853872 -282.585857 
L 130.931722 -284.478382 
L 132.009572 -286.28768 
L 133.087421 -287.952415 
L 134.165271 -289.410146 
L 135.24312 -290.600043 
L 136.32097 -291.465506 
L 137.39882 -291.956571 
L 138.476669 -292.032 
L 139.554519 -291.660947 
L 140.632369 -290.824156 
L 141.710218 -289.514635 
L 142.788068 -287.737796 
L 143.865918 -285.511076 
L 144.943767 -282.863069 
L 146.021617 -279.832229 
L 147.099467 -276.465221 
L 148.177316 -272.815004 
L 149.255166 -268.938745 
L 150.333015 -264.895668 
L 151.410865 -260.744925 
L 152.488715 -256.543598 
L 153.566564 -252.344904 
L 154.644414 -248.19667 
L 155.722264 -244.140145 
L 156.800113 -240.209159 
L 157.877963 -236.429673 
L 158.955813 -232.819695 
L 160.033662 -229.389539 
L 161.111512 -226.142415 
L 162.189362 -223.075259 
L 163.267211 -220.179782 
L 164.345061 -217.443642 
L 165.422911 -214.851685 
L 166.50076 -212.387176 
L 167.57861 -210.032976 
L 168.656459 -207.772585 
L 169.734309 -205.591029 
L 170.812159 -203.475556 
L 171.890008 -201.416115 
L 172.967858 -199.405622 
L 174.045708 -197.440019 
L 175.123557 -195.518151 
L 176.201407 -193.641476 
L 177.279257 -191.813657 
L 178.357106 -190.040064 
L 179.434956 -188.327232 
L 180.512806 -186.682306 
L 181.590655 -185.112507 
L 182.668505 -183.624651 
L 183.746355 -182.224741 
L 184.824204 -180.917646 
L 185.902054 -179.70687 
L 186.979903 -178.594418 
L 188.057753 -177.580755 
L 189.135603 -176.664846 
L 190.213452 -175.844256 
L 191.291302 -175.11531 
L 192.369152 -174.473294 
L 192.369152 -167.670706 
L 192.369152 -167.670706 
L 191.291302 -167.02869 
L 190.213452 -166.299744 
L 189.135603 -165.479154 
L 188.057753 -164.563245 
L 186.979903 -163.549582 
L 185.902054 -162.43713 
L 184.824204 -161.226354 
L 183.746355 -159.919259 
L 182.668505 -158.519349 
L 181.590655 -157.031493 
L 180.512806 -155.461694 
L 179.434956 -153.816768 
L 178.357106 -152.103936 
L 177.279257 -150.330343 
L 176.201407 -148.502524 
L 175.123557 -146.625849 
L 174.045708 -144.703981 
L 172.967858 -142.738378 
L 171.890008 -140.727885 
L 170.812159 -138.668444 
L 169.734309 -136.552971 
L 168.656459 -134.371415 
L 167.57861 -132.111024 
L 166.50076 -129.756824 
L 165.422911 -127.292315 
L 164.345061 -124.700358 
L 163.267211 -121.964218 
L 162.189362 -119.068741 
L 161.111512 -116.001585 
L 160.033662 -112.754461 
L 158.955813 -109.324305 
L 157.877963 -105.714327 
L 156.800113 -101.934841 
L 155.722264 -98.003855 
L 154.644414 -93.94733 
L 153.566564 -89.799096 
L 152.488715 -85.600402 
L 151.410865 -81.399075 
L 150.333015 -77.248332 
L 149.255166 -73.205255 
L 148.177316 -69.328996 
L 147.099467 -65.678779 
L 146.021617 -62.311771 
L 144.943767 -59.280931 
L 143.865918 -56.632924 
L 142.788068 -54.406204 
L 141.710218 -52.629365 
L 140.632369 -51.319844 
L 139.554519 -50.483053 
L 138.476669 -50.112 
L 137.39882 -50.187429 
L 136.32097 -50.678494 
L 135.24312 -51.543957 
L 134.165271 -52.733854 
L 133.087421 -54.191585 
L 132.009572 -55.85632 
L 130.931722 -57.665618 
L 129.853872 -59.558143 
L 128.776023 -61.476334 
L 127.698173 -63.36891 
L 126.620323 -65.193065 
L 125.542474 -66.916266 
L 124.464624 -68.517532 
L 123.386774 -69.988148 
L 122.308925 -71.331765 
L 121.231075 -72.563885 
L 120.153225 -73.710752 
L 119.075376 -74.807729 
L 117.997526 -75.897218 
L 116.919676 -77.026268 
L 115.841827 -78.243982 
L 114.763977 -79.598867 
L 113.686128 -81.136263 
L 112.608278 -82.895998 
L 111.530428 -84.910358 
L 110.452579 -87.202501 
L 109.374729 -89.785354 
L 108.296879 -92.66105 
L 107.21903 -95.8209 
L 106.14118 -99.245888 
L 105.06333 -102.907621 
L 103.985481 -106.769677 
L 102.907631 -110.789253 
L 101.829781 -114.919005 
L 100.751932 -119.108986 
L 99.674082 -123.308565 
L 98.596232 -127.468256 
L 97.518383 -131.541347 
L 96.440533 -135.485292 
L 95.362684 -139.262808 
L 94.284834 -142.842658 
L 93.206984 -146.200118 
L 92.129135 -149.317136 
L 91.051285 -152.182215 
L 89.973435 -154.790056 
L 88.895586 -157.141011 
L 87.817736 -159.240391 
L 86.739886 -161.097684 
L 85.662037 -162.725728 
z
" id="me6ce1bf58f" style="stroke:#4c4c4c;stroke-opacity:0.5;stroke-width:1.5;"/>
    </defs>
    <g clip-path="url(#p7ddcd47228)">
     <use style="fill:#df9c20;fill-opacity:0.5;stroke:#4c4c4c;stroke-opacity:0.5;stroke-width:1.5;" x="0" xlink:href="#me6ce1bf58f" y="345.6"/>
    </g>
   </g>
   <g id="PolyCollection_2">
    <defs>
     <path d="M 73.832727 -157.978677 
L 73.832727 -184.165323 
L 77.112066 -189.838631 
L 80.391405 -197.116289 
L 83.670744 -206.072024 
L 86.950083 -216.623322 
L 90.229421 -228.492432 
L 93.50876 -241.190366 
L 96.788099 -254.033721 
L 100.067438 -266.198686 
L 103.346777 -276.808608 
L 106.626116 -285.04292 
L 109.905455 -290.248503 
L 113.184793 -292.032 
L 116.464132 -290.314335 
L 119.743471 -285.336366 
L 123.02281 -277.61519 
L 126.302149 -267.861242 
L 129.581488 -256.874034 
L 132.860826 -245.4373 
L 136.140165 -234.232024 
L 139.419504 -223.779621 
L 142.698843 -214.419391 
L 145.978182 -206.316841 
L 149.257521 -199.494164 
L 152.53686 -193.871989 
L 155.816198 -189.312226 
L 159.095537 -185.654517 
L 162.374876 -182.742316 
L 165.654215 -180.437879 
L 168.933554 -178.627801 
L 172.212893 -177.221975 
L 175.492231 -176.14905 
L 178.77157 -175.350957 
L 182.050909 -174.778197 
L 185.330248 -174.386725 
L 188.609587 -174.136505 
L 191.888926 -173.991367 
L 195.168264 -173.919572 
L 198.447603 -173.894552 
L 201.726942 -173.895392 
L 205.006281 -173.906853 
L 208.28562 -173.918903 
L 211.564959 -173.925864 
L 214.844298 -173.92533 
L 218.123636 -173.91702 
L 221.402975 -173.901707 
L 224.682314 -173.880315 
L 227.961653 -173.853249 
L 231.240992 -173.820023 
L 234.520331 -173.779186 
L 237.799669 -173.728557 
L 241.079008 -173.665704 
L 244.358347 -173.588549 
L 247.637686 -173.495959 
L 250.917025 -173.388156 
L 254.196364 -173.266826 
L 257.475702 -173.134896 
L 260.755041 -172.996025 
L 264.03438 -172.853953 
L 267.313719 -172.711885 
L 270.593058 -172.572077 
L 273.872397 -172.435725 
L 277.151736 -172.303176 
L 280.431074 -172.174376 
L 283.710413 -172.049422 
L 286.989752 -171.92906 
L 290.269091 -171.815025 
L 293.54843 -171.710156 
L 296.827769 -171.618309 
L 300.107107 -171.544148 
L 303.386446 -171.492905 
L 306.665785 -171.470192 
L 309.945124 -171.481913 
L 313.224463 -171.534245 
L 316.503802 -171.633627 
L 319.78314 -171.786627 
L 323.062479 -171.999543 
L 326.341818 -172.27763 
L 329.621157 -172.62389 
L 332.900496 -173.037488 
L 336.179835 -173.51201 
L 339.459174 -174.033918 
L 342.738512 -174.581674 
L 346.017851 -175.126004 
L 349.29719 -175.631644 
L 352.576529 -176.060601 
L 355.855868 -176.376617 
L 359.135207 -176.550129 
L 362.414545 -176.562778 
L 365.693884 -176.41052 
L 368.973223 -176.1046 
L 372.252562 -175.670122 
L 375.531901 -175.142479 
L 378.81124 -174.562379 
L 382.090579 -173.970459 
L 385.369917 -173.402516 
L 388.649256 -172.886114 
L 391.928595 -172.438952 
L 395.207934 -172.068958 
L 398.487273 -171.775724 
L 398.487273 -170.368276 
L 398.487273 -170.368276 
L 395.207934 -170.075042 
L 391.928595 -169.705048 
L 388.649256 -169.257886 
L 385.369917 -168.741484 
L 382.090579 -168.173541 
L 378.81124 -167.581621 
L 375.531901 -167.001521 
L 372.252562 -166.473878 
L 368.973223 -166.0394 
L 365.693884 -165.73348 
L 362.414545 -165.581222 
L 359.135207 -165.593871 
L 355.855868 -165.767383 
L 352.576529 -166.083399 
L 349.29719 -166.512356 
L 346.017851 -167.017996 
L 342.738512 -167.562326 
L 339.459174 -168.110082 
L 336.179835 -168.63199 
L 332.900496 -169.106512 
L 329.621157 -169.52011 
L 326.341818 -169.86637 
L 323.062479 -170.144457 
L 319.78314 -170.357373 
L 316.503802 -170.510373 
L 313.224463 -170.609755 
L 309.945124 -170.662087 
L 306.665785 -170.673808 
L 303.386446 -170.651095 
L 300.107107 -170.599852 
L 296.827769 -170.525691 
L 293.54843 -170.433844 
L 290.269091 -170.328975 
L 286.989752 -170.21494 
L 283.710413 -170.094578 
L 280.431074 -169.969624 
L 277.151736 -169.840824 
L 273.872397 -169.708275 
L 270.593058 -169.571923 
L 267.313719 -169.432115 
L 264.03438 -169.290047 
L 260.755041 -169.147975 
L 257.475702 -169.009104 
L 254.196364 -168.877174 
L 250.917025 -168.755844 
L 247.637686 -168.648041 
L 244.358347 -168.555451 
L 241.079008 -168.478296 
L 237.799669 -168.415443 
L 234.520331 -168.364814 
L 231.240992 -168.323977 
L 227.961653 -168.290751 
L 224.682314 -168.263685 
L 221.402975 -168.242293 
L 218.123636 -168.22698 
L 214.844298 -168.21867 
L 211.564959 -168.218136 
L 208.28562 -168.225097 
L 205.006281 -168.237147 
L 201.726942 -168.248608 
L 198.447603 -168.249448 
L 195.168264 -168.224428 
L 191.888926 -168.152633 
L 188.609587 -168.007495 
L 185.330248 -167.757275 
L 182.050909 -167.365803 
L 178.77157 -166.793043 
L 175.492231 -165.99495 
L 172.212893 -164.922025 
L 168.933554 -163.516199 
L 165.654215 -161.706121 
L 162.374876 -159.401684 
L 159.095537 -156.489483 
L 155.816198 -152.831774 
L 152.53686 -148.272011 
L 149.257521 -142.649836 
L 145.978182 -135.827159 
L 142.698843 -127.724609 
L 139.419504 -118.364379 
L 136.140165 -107.911976 
L 132.860826 -96.7067 
L 129.581488 -85.269966 
L 126.302149 -74.282758 
L 123.02281 -64.52881 
L 119.743471 -56.807634 
L 116.464132 -51.829665 
L 113.184793 -50.112 
L 109.905455 -51.895497 
L 106.626116 -57.10108 
L 103.346777 -65.335392 
L 100.067438 -75.945314 
L 96.788099 -88.110279 
L 93.50876 -100.953634 
L 90.229421 -113.651568 
L 86.950083 -125.520678 
L 83.670744 -136.071976 
L 80.391405 -145.027711 
L 77.112066 -152.305369 
L 73.832727 -157.978677 
z
" id="m18a905b0a2" style="stroke:#262626;stroke-opacity:0.5;stroke-width:1.5;"/>
    </defs>
    <g clip-path="url(#p7ddcd47228)">
     <use style="fill:#107010;fill-opacity:0.5;stroke:#262626;stroke-opacity:0.5;stroke-width:1.5;" x="0" xlink:href="#m18a905b0a2" y="345.6"/>
    </g>
   </g>
   <g id="matplotlib.axis_1">
    <g id="xtick_1">
     <g id="line2d_1">
      <defs>
       <path d="M 0 0 
L 0 3.5 
" id="m095b452a0e" style="stroke:#000000;stroke-width:0.8;"/>
      </defs>
      <g>
       <use style="stroke:#000000;stroke-width:0.8;" x="58.841533" xlink:href="#m095b452a0e" y="307.584"/>
      </g>
     </g>
     <g id="text_1">
      <!-- −10 -->
      <defs>
       <path d="M 10.59375 35.5 
L 73.1875 35.5 
L 73.1875 27.203125 
L 10.59375 27.203125 
z
" id="DejaVuSans-8722"/>
       <path d="M 12.40625 8.296875 
L 28.515625 8.296875 
L 28.515625 63.921875 
L 10.984375 60.40625 
L 10.984375 69.390625 
L 28.421875 72.90625 
L 38.28125 72.90625 
L 38.28125 8.296875 
L 54.390625 8.296875 
L 54.390625 0 
L 12.40625 0 
z
" id="DejaVuSans-49"/>
       <path d="M 31.78125 66.40625 
Q 24.171875 66.40625 20.328125 58.90625 
Q 16.5 51.421875 16.5 36.375 
Q 16.5 21.390625 20.328125 13.890625 
Q 24.171875 6.390625 31.78125 6.390625 
Q 39.453125 6.390625 43.28125 13.890625 
Q 47.125 21.390625 47.125 36.375 
Q 47.125 51.421875 43.28125 58.90625 
Q 39.453125 66.40625 31.78125 66.40625 
z
M 31.78125 74.21875 
Q 44.046875 74.21875 50.515625 64.515625 
Q 56.984375 54.828125 56.984375 36.375 
Q 56.984375 17.96875 50.515625 8.265625 
Q 44.046875 -1.421875 31.78125 -1.421875 
Q 19.53125 -1.421875 13.0625 8.265625 
Q 6.59375 17.96875 6.59375 36.375 
Q 6.59375 54.828125 13.0625 64.515625 
Q 19.53125 74.21875 31.78125 74.21875 
z
" id="DejaVuSans-48"/>
      </defs>
      <g transform="translate(48.28919 322.182437)scale(0.1 -0.1)">
       <use xlink:href="#DejaVuSans-8722"/>
       <use x="83.789062" xlink:href="#DejaVuSans-49"/>
       <use x="147.412109" xlink:href="#DejaVuSans-48"/>
      </g>
     </g>
    </g>
    <g id="xtick_2">
     <g id="line2d_2">
      <g>
       <use style="stroke:#000000;stroke-width:0.8;" x="109.424537" xlink:href="#m095b452a0e" y="307.584"/>
      </g>
     </g>
     <g id="text_2">
      <!-- 0 -->
      <g transform="translate(106.243287 322.182437)scale(0.1 -0.1)">
       <use xlink:href="#DejaVuSans-48"/>
      </g>
     </g>
    </g>
    <g id="xtick_3">
     <g id="line2d_3">
      <g>
       <use style="stroke:#000000;stroke-width:0.8;" x="160.007541" xlink:href="#m095b452a0e" y="307.584"/>
      </g>
     </g>
     <g id="text_3">
      <!-- 10 -->
      <g transform="translate(153.645041 322.182437)scale(0.1 -0.1)">
       <use xlink:href="#DejaVuSans-49"/>
       <use x="63.623047" xlink:href="#DejaVuSans-48"/>
      </g>
     </g>
    </g>
    <g id="xtick_4">
     <g id="line2d_4">
      <g>
       <use style="stroke:#000000;stroke-width:0.8;" x="210.590545" xlink:href="#m095b452a0e" y="307.584"/>
      </g>
     </g>
     <g id="text_4">
      <!-- 20 -->
      <defs>
       <path d="M 19.1875 8.296875 
L 53.609375 8.296875 
L 53.609375 0 
L 7.328125 0 
L 7.328125 8.296875 
Q 12.9375 14.109375 22.625 23.890625 
Q 32.328125 33.6875 34.8125 36.53125 
Q 39.546875 41.84375 41.421875 45.53125 
Q 43.3125 49.21875 43.3125 52.78125 
Q 43.3125 58.59375 39.234375 62.25 
Q 35.15625 65.921875 28.609375 65.921875 
Q 23.96875 65.921875 18.8125 64.3125 
Q 13.671875 62.703125 7.8125 59.421875 
L 7.8125 69.390625 
Q 13.765625 71.78125 18.9375 73 
Q 24.125 74.21875 28.421875 74.21875 
Q 39.75 74.21875 46.484375 68.546875 
Q 53.21875 62.890625 53.21875 53.421875 
Q 53.21875 48.921875 51.53125 44.890625 
Q 49.859375 40.875 45.40625 35.40625 
Q 44.1875 33.984375 37.640625 27.21875 
Q 31.109375 20.453125 19.1875 8.296875 
z
" id="DejaVuSans-50"/>
      </defs>
      <g transform="translate(204.228045 322.182437)scale(0.1 -0.1)">
       <use xlink:href="#DejaVuSans-50"/>
       <use x="63.623047" xlink:href="#DejaVuSans-48"/>
      </g>
     </g>
    </g>
    <g id="xtick_5">
     <g id="line2d_5">
      <g>
       <use style="stroke:#000000;stroke-width:0.8;" x="261.173548" xlink:href="#m095b452a0e" y="307.584"/>
      </g>
     </g>
     <g id="text_5">
      <!-- 30 -->
      <defs>
       <path d="M 40.578125 39.3125 
Q 47.65625 37.796875 51.625 33 
Q 55.609375 28.21875 55.609375 21.1875 
Q 55.609375 10.40625 48.1875 4.484375 
Q 40.765625 -1.421875 27.09375 -1.421875 
Q 22.515625 -1.421875 17.65625 -0.515625 
Q 12.796875 0.390625 7.625 2.203125 
L 7.625 11.71875 
Q 11.71875 9.328125 16.59375 8.109375 
Q 21.484375 6.890625 26.8125 6.890625 
Q 36.078125 6.890625 40.9375 10.546875 
Q 45.796875 14.203125 45.796875 21.1875 
Q 45.796875 27.640625 41.28125 31.265625 
Q 36.765625 34.90625 28.71875 34.90625 
L 20.21875 34.90625 
L 20.21875 43.015625 
L 29.109375 43.015625 
Q 36.375 43.015625 40.234375 45.921875 
Q 44.09375 48.828125 44.09375 54.296875 
Q 44.09375 59.90625 40.109375 62.90625 
Q 36.140625 65.921875 28.71875 65.921875 
Q 24.65625 65.921875 20.015625 65.03125 
Q 15.375 64.15625 9.8125 62.3125 
L 9.8125 71.09375 
Q 15.4375 72.65625 20.34375 73.4375 
Q 25.25 74.21875 29.59375 74.21875 
Q 40.828125 74.21875 47.359375 69.109375 
Q 53.90625 64.015625 53.90625 55.328125 
Q 53.90625 49.265625 50.4375 45.09375 
Q 46.96875 40.921875 40.578125 39.3125 
z
" id="DejaVuSans-51"/>
      </defs>
      <g transform="translate(254.811048 322.182437)scale(0.1 -0.1)">
       <use xlink:href="#DejaVuSans-51"/>
       <use x="63.623047" xlink:href="#DejaVuSans-48"/>
      </g>
     </g>
    </g>
    <g id="xtick_6">
     <g id="line2d_6">
      <g>
       <use style="stroke:#000000;stroke-width:0.8;" x="311.756552" xlink:href="#m095b452a0e" y="307.584"/>
      </g>
     </g>
     <g id="text_6">
      <!-- 40 -->
      <defs>
       <path d="M 37.796875 64.3125 
L 12.890625 25.390625 
L 37.796875 25.390625 
z
M 35.203125 72.90625 
L 47.609375 72.90625 
L 47.609375 25.390625 
L 58.015625 25.390625 
L 58.015625 17.1875 
L 47.609375 17.1875 
L 47.609375 0 
L 37.796875 0 
L 37.796875 17.1875 
L 4.890625 17.1875 
L 4.890625 26.703125 
z
" id="DejaVuSans-52"/>
      </defs>
      <g transform="translate(305.394052 322.182437)scale(0.1 -0.1)">
       <use xlink:href="#DejaVuSans-52"/>
       <use x="63.623047" xlink:href="#DejaVuSans-48"/>
      </g>
     </g>
    </g>
    <g id="xtick_7">
     <g id="line2d_7">
      <g>
       <use style="stroke:#000000;stroke-width:0.8;" x="362.339556" xlink:href="#m095b452a0e" y="307.584"/>
      </g>
     </g>
     <g id="text_7">
      <!-- 50 -->
      <defs>
       <path d="M 10.796875 72.90625 
L 49.515625 72.90625 
L 49.515625 64.59375 
L 19.828125 64.59375 
L 19.828125 46.734375 
Q 21.96875 47.46875 24.109375 47.828125 
Q 26.265625 48.1875 28.421875 48.1875 
Q 40.625 48.1875 47.75 41.5 
Q 54.890625 34.8125 54.890625 23.390625 
Q 54.890625 11.625 47.5625 5.09375 
Q 40.234375 -1.421875 26.90625 -1.421875 
Q 22.3125 -1.421875 17.546875 -0.640625 
Q 12.796875 0.140625 7.71875 1.703125 
L 7.71875 11.625 
Q 12.109375 9.234375 16.796875 8.0625 
Q 21.484375 6.890625 26.703125 6.890625 
Q 35.15625 6.890625 40.078125 11.328125 
Q 45.015625 15.765625 45.015625 23.390625 
Q 45.015625 31 40.078125 35.4375 
Q 35.15625 39.890625 26.703125 39.890625 
Q 22.75 39.890625 18.8125 39.015625 
Q 14.890625 38.140625 10.796875 36.28125 
z
" id="DejaVuSans-53"/>
      </defs>
      <g transform="translate(355.977056 322.182437)scale(0.1 -0.1)">
       <use xlink:href="#DejaVuSans-53"/>
       <use x="63.623047" xlink:href="#DejaVuSans-48"/>
      </g>
     </g>
    </g>
    <g id="xtick_8">
     <g id="line2d_8">
      <g>
       <use style="stroke:#000000;stroke-width:0.8;" x="412.92256" xlink:href="#m095b452a0e" y="307.584"/>
      </g>
     </g>
     <g id="text_8">
      <!-- 60 -->
      <defs>
       <path d="M 33.015625 40.375 
Q 26.375 40.375 22.484375 35.828125 
Q 18.609375 31.296875 18.609375 23.390625 
Q 18.609375 15.53125 22.484375 10.953125 
Q 26.375 6.390625 33.015625 6.390625 
Q 39.65625 6.390625 43.53125 10.953125 
Q 47.40625 15.53125 47.40625 23.390625 
Q 47.40625 31.296875 43.53125 35.828125 
Q 39.65625 40.375 33.015625 40.375 
z
M 52.59375 71.296875 
L 52.59375 62.3125 
Q 48.875 64.0625 45.09375 64.984375 
Q 41.3125 65.921875 37.59375 65.921875 
Q 27.828125 65.921875 22.671875 59.328125 
Q 17.53125 52.734375 16.796875 39.40625 
Q 19.671875 43.65625 24.015625 45.921875 
Q 28.375 48.1875 33.59375 48.1875 
Q 44.578125 48.1875 50.953125 41.515625 
Q 57.328125 34.859375 57.328125 23.390625 
Q 57.328125 12.15625 50.6875 5.359375 
Q 44.046875 -1.421875 33.015625 -1.421875 
Q 20.359375 -1.421875 13.671875 8.265625 
Q 6.984375 17.96875 6.984375 36.375 
Q 6.984375 53.65625 15.1875 63.9375 
Q 23.390625 74.21875 37.203125 74.21875 
Q 40.921875 74.21875 44.703125 73.484375 
Q 48.484375 72.75 52.59375 71.296875 
z
" id="DejaVuSans-54"/>
      </defs>
      <g transform="translate(406.56006 322.182437)scale(0.1 -0.1)">
       <use xlink:href="#DejaVuSans-54"/>
       <use x="63.623047" xlink:href="#DejaVuSans-48"/>
      </g>
     </g>
    </g>
    <g id="text_9">
     <!-- procalpeakac -->
     <defs>
      <path d="M 18.109375 8.203125 
L 18.109375 -20.796875 
L 9.078125 -20.796875 
L 9.078125 54.6875 
L 18.109375 54.6875 
L 18.109375 46.390625 
Q 20.953125 51.265625 25.265625 53.625 
Q 29.59375 56 35.59375 56 
Q 45.5625 56 51.78125 48.09375 
Q 58.015625 40.1875 58.015625 27.296875 
Q 58.015625 14.40625 51.78125 6.484375 
Q 45.5625 -1.421875 35.59375 -1.421875 
Q 29.59375 -1.421875 25.265625 0.953125 
Q 20.953125 3.328125 18.109375 8.203125 
z
M 48.6875 27.296875 
Q 48.6875 37.203125 44.609375 42.84375 
Q 40.53125 48.484375 33.40625 48.484375 
Q 26.265625 48.484375 22.1875 42.84375 
Q 18.109375 37.203125 18.109375 27.296875 
Q 18.109375 17.390625 22.1875 11.75 
Q 26.265625 6.109375 33.40625 6.109375 
Q 40.53125 6.109375 44.609375 11.75 
Q 48.6875 17.390625 48.6875 27.296875 
z
" id="DejaVuSans-112"/>
      <path d="M 41.109375 46.296875 
Q 39.59375 47.171875 37.8125 47.578125 
Q 36.03125 48 33.890625 48 
Q 26.265625 48 22.1875 43.046875 
Q 18.109375 38.09375 18.109375 28.8125 
L 18.109375 0 
L 9.078125 0 
L 9.078125 54.6875 
L 18.109375 54.6875 
L 18.109375 46.1875 
Q 20.953125 51.171875 25.484375 53.578125 
Q 30.03125 56 36.53125 56 
Q 37.453125 56 38.578125 55.875 
Q 39.703125 55.765625 41.0625 55.515625 
z
" id="DejaVuSans-114"/>
      <path d="M 30.609375 48.390625 
Q 23.390625 48.390625 19.1875 42.75 
Q 14.984375 37.109375 14.984375 27.296875 
Q 14.984375 17.484375 19.15625 11.84375 
Q 23.34375 6.203125 30.609375 6.203125 
Q 37.796875 6.203125 41.984375 11.859375 
Q 46.1875 17.53125 46.1875 27.296875 
Q 46.1875 37.015625 41.984375 42.703125 
Q 37.796875 48.390625 30.609375 48.390625 
z
M 30.609375 56 
Q 42.328125 56 49.015625 48.375 
Q 55.71875 40.765625 55.71875 27.296875 
Q 55.71875 13.875 49.015625 6.21875 
Q 42.328125 -1.421875 30.609375 -1.421875 
Q 18.84375 -1.421875 12.171875 6.21875 
Q 5.515625 13.875 5.515625 27.296875 
Q 5.515625 40.765625 12.171875 48.375 
Q 18.84375 56 30.609375 56 
z
" id="DejaVuSans-111"/>
      <path d="M 48.78125 52.59375 
L 48.78125 44.1875 
Q 44.96875 46.296875 41.140625 47.34375 
Q 37.3125 48.390625 33.40625 48.390625 
Q 24.65625 48.390625 19.8125 42.84375 
Q 14.984375 37.3125 14.984375 27.296875 
Q 14.984375 17.28125 19.8125 11.734375 
Q 24.65625 6.203125 33.40625 6.203125 
Q 37.3125 6.203125 41.140625 7.25 
Q 44.96875 8.296875 48.78125 10.40625 
L 48.78125 2.09375 
Q 45.015625 0.34375 40.984375 -0.53125 
Q 36.96875 -1.421875 32.421875 -1.421875 
Q 20.0625 -1.421875 12.78125 6.34375 
Q 5.515625 14.109375 5.515625 27.296875 
Q 5.515625 40.671875 12.859375 48.328125 
Q 20.21875 56 33.015625 56 
Q 37.15625 56 41.109375 55.140625 
Q 45.0625 54.296875 48.78125 52.59375 
z
" id="DejaVuSans-99"/>
      <path d="M 34.28125 27.484375 
Q 23.390625 27.484375 19.1875 25 
Q 14.984375 22.515625 14.984375 16.5 
Q 14.984375 11.71875 18.140625 8.90625 
Q 21.296875 6.109375 26.703125 6.109375 
Q 34.1875 6.109375 38.703125 11.40625 
Q 43.21875 16.703125 43.21875 25.484375 
L 43.21875 27.484375 
z
M 52.203125 31.203125 
L 52.203125 0 
L 43.21875 0 
L 43.21875 8.296875 
Q 40.140625 3.328125 35.546875 0.953125 
Q 30.953125 -1.421875 24.3125 -1.421875 
Q 15.921875 -1.421875 10.953125 3.296875 
Q 6 8.015625 6 15.921875 
Q 6 25.140625 12.171875 29.828125 
Q 18.359375 34.515625 30.609375 34.515625 
L 43.21875 34.515625 
L 43.21875 35.40625 
Q 43.21875 41.609375 39.140625 45 
Q 35.0625 48.390625 27.6875 48.390625 
Q 23 48.390625 18.546875 47.265625 
Q 14.109375 46.140625 10.015625 43.890625 
L 10.015625 52.203125 
Q 14.9375 54.109375 19.578125 55.046875 
Q 24.21875 56 28.609375 56 
Q 40.484375 56 46.34375 49.84375 
Q 52.203125 43.703125 52.203125 31.203125 
z
" id="DejaVuSans-97"/>
      <path d="M 9.421875 75.984375 
L 18.40625 75.984375 
L 18.40625 0 
L 9.421875 0 
z
" id="DejaVuSans-108"/>
      <path d="M 56.203125 29.59375 
L 56.203125 25.203125 
L 14.890625 25.203125 
Q 15.484375 15.921875 20.484375 11.0625 
Q 25.484375 6.203125 34.421875 6.203125 
Q 39.59375 6.203125 44.453125 7.46875 
Q 49.3125 8.734375 54.109375 11.28125 
L 54.109375 2.78125 
Q 49.265625 0.734375 44.1875 -0.34375 
Q 39.109375 -1.421875 33.890625 -1.421875 
Q 20.796875 -1.421875 13.15625 6.1875 
Q 5.515625 13.8125 5.515625 26.8125 
Q 5.515625 40.234375 12.765625 48.109375 
Q 20.015625 56 32.328125 56 
Q 43.359375 56 49.78125 48.890625 
Q 56.203125 41.796875 56.203125 29.59375 
z
M 47.21875 32.234375 
Q 47.125 39.59375 43.09375 43.984375 
Q 39.0625 48.390625 32.421875 48.390625 
Q 24.90625 48.390625 20.390625 44.140625 
Q 15.875 39.890625 15.1875 32.171875 
z
" id="DejaVuSans-101"/>
      <path d="M 9.078125 75.984375 
L 18.109375 75.984375 
L 18.109375 31.109375 
L 44.921875 54.6875 
L 56.390625 54.6875 
L 27.390625 29.109375 
L 57.625 0 
L 45.90625 0 
L 18.109375 26.703125 
L 18.109375 0 
L 9.078125 0 
z
" id="DejaVuSans-107"/>
     </defs>
     <g transform="translate(202.845156 335.860562)scale(0.1 -0.1)">
      <use xlink:href="#DejaVuSans-112"/>
      <use x="63.476562" xlink:href="#DejaVuSans-114"/>
      <use x="102.339844" xlink:href="#DejaVuSans-111"/>
      <use x="163.521484" xlink:href="#DejaVuSans-99"/>
      <use x="218.501953" xlink:href="#DejaVuSans-97"/>
      <use x="279.78125" xlink:href="#DejaVuSans-108"/>
      <use x="307.564453" xlink:href="#DejaVuSans-112"/>
      <use x="371.041016" xlink:href="#DejaVuSans-101"/>
      <use x="432.564453" xlink:href="#DejaVuSans-97"/>
      <use x="493.84375" xlink:href="#DejaVuSans-107"/>
      <use x="550.003906" xlink:href="#DejaVuSans-97"/>
      <use x="611.283203" xlink:href="#DejaVuSans-99"/>
     </g>
    </g>
   </g>
   <g id="matplotlib.axis_2">
    <g id="ytick_1">
     <g id="line2d_9">
      <defs>
       <path d="M 0 0 
L -3.5 0 
" id="md1b6f5f451" style="stroke:#000000;stroke-width:0.8;"/>
      </defs>
      <g>
       <use style="stroke:#000000;stroke-width:0.8;" x="57.6" xlink:href="#md1b6f5f451" y="174.528"/>
      </g>
     </g>
    </g>
   </g>
   <g id="line2d_10">
    <path clip-path="url(#p7ddcd47228)" d="M 110.436197 174.528 
L 167.594991 174.528 
" style="fill:none;stroke:#ffa500;stroke-linecap:square;stroke-width:1.5;"/>
   </g>
   <g id="line2d_11">
    <path clip-path="url(#p7ddcd47228)" d="M 112.459517 174.528 
L 143.31515 174.528 
" style="fill:none;stroke:#4c4c4c;stroke-linecap:square;stroke-width:4.5;"/>
   </g>
   <g id="line2d_12">
    <path clip-path="url(#p7ddcd47228)" d="M 109.929861 174.528 
L 132.692719 174.528 
" style="fill:none;stroke:#008000;stroke-linecap:square;stroke-width:1.5;"/>
   </g>
   <g id="line2d_13">
    <path clip-path="url(#p7ddcd47228)" d="M 109.930367 174.528 
L 119.035308 174.528 
" style="fill:none;stroke:#262626;stroke-linecap:square;stroke-width:4.5;"/>
   </g>
   <g id="patch_3">
    <path d="M 57.6 307.584 
L 57.6 41.472 
" style="fill:none;stroke:#000000;stroke-linecap:square;stroke-linejoin:miter;stroke-width:0.8;"/>
   </g>
   <g id="patch_4">
    <path d="M 414.72 307.584 
L 414.72 41.472 
" style="fill:none;stroke:#000000;stroke-linecap:square;stroke-linejoin:miter;stroke-width:0.8;"/>
   </g>
   <g id="patch_5">
    <path d="M 57.6 307.584 
L 414.72 307.584 
" style="fill:none;stroke:#000000;stroke-linecap:square;stroke-linejoin:miter;stroke-width:0.8;"/>
   </g>
   <g id="patch_6">
    <path d="M 57.6 41.472 
L 414.72 41.472 
" style="fill:none;stroke:#000000;stroke-linecap:square;stroke-linejoin:miter;stroke-width:0.8;"/>
   </g>
   <g id="PathCollection_1">
    <defs>
     <path d="M 0 1.5 
C 0.397805 1.5 0.77937 1.341951 1.06066 1.06066 
C 1.341951 0.77937 1.5 0.397805 1.5 0 
C 1.5 -0.397805 1.341951 -0.77937 1.06066 -1.06066 
C 0.77937 -1.341951 0.397805 -1.5 0 -1.5 
C -0.397805 -1.5 -0.77937 -1.341951 -1.06066 -1.06066 
C -1.341951 -0.77937 -1.5 -0.397805 -1.5 0 
C -1.5 0.397805 -1.341951 0.77937 -1.06066 1.06066 
C -0.77937 1.341951 -0.397805 1.5 0 1.5 
z
" id="m20975e18e5" style="stroke:#4c4c4c;stroke-opacity:0.5;"/>
    </defs>
    <g clip-path="url(#p7ddcd47228)">
     <use style="fill:#ffffff;fill-opacity:0.5;stroke:#4c4c4c;stroke-opacity:0.5;" x="137.245189" xlink:href="#m20975e18e5" y="174.528"/>
    </g>
   </g>
   <g id="PathCollection_2">
    <defs>
     <path d="M 0 1.5 
C 0.397805 1.5 0.77937 1.341951 1.06066 1.06066 
C 1.341951 0.77937 1.5 0.397805 1.5 0 
C 1.5 -0.397805 1.341951 -0.77937 1.06066 -1.06066 
C 0.77937 -1.341951 0.397805 -1.5 0 -1.5 
C -0.397805 -1.5 -0.77937 -1.341951 -1.06066 -1.06066 
C -1.341951 -0.77937 -1.5 -0.397805 -1.5 0 
C -1.5 0.397805 -1.341951 0.77937 -1.06066 1.06066 
C -0.77937 1.341951 -0.397805 1.5 0 1.5 
z
" id="mb48f9bf429" style="stroke:#262626;stroke-opacity:0.5;"/>
    </defs>
    <g clip-path="url(#p7ddcd47228)">
     <use style="fill:#ffffff;fill-opacity:0.5;stroke:#262626;stroke-opacity:0.5;" x="110.942027" xlink:href="#mb48f9bf429" y="174.528"/>
    </g>
   </g>
   <g id="text_10">
    <!-- Association of procalpeakac vs. cardiogenic_shock -->
    <defs>
     <path d="M 34.1875 63.1875 
L 20.796875 26.90625 
L 47.609375 26.90625 
z
M 28.609375 72.90625 
L 39.796875 72.90625 
L 67.578125 0 
L 57.328125 0 
L 50.6875 18.703125 
L 17.828125 18.703125 
L 11.1875 0 
L 0.78125 0 
z
" id="DejaVuSans-65"/>
     <path d="M 44.28125 53.078125 
L 44.28125 44.578125 
Q 40.484375 46.53125 36.375 47.5 
Q 32.28125 48.484375 27.875 48.484375 
Q 21.1875 48.484375 17.84375 46.4375 
Q 14.5 44.390625 14.5 40.28125 
Q 14.5 37.15625 16.890625 35.375 
Q 19.28125 33.59375 26.515625 31.984375 
L 29.59375 31.296875 
Q 39.15625 29.25 43.1875 25.515625 
Q 47.21875 21.78125 47.21875 15.09375 
Q 47.21875 7.46875 41.1875 3.015625 
Q 35.15625 -1.421875 24.609375 -1.421875 
Q 20.21875 -1.421875 15.453125 -0.5625 
Q 10.6875 0.296875 5.421875 2 
L 5.421875 11.28125 
Q 10.40625 8.6875 15.234375 7.390625 
Q 20.0625 6.109375 24.8125 6.109375 
Q 31.15625 6.109375 34.5625 8.28125 
Q 37.984375 10.453125 37.984375 14.40625 
Q 37.984375 18.0625 35.515625 20.015625 
Q 33.0625 21.96875 24.703125 23.78125 
L 21.578125 24.515625 
Q 13.234375 26.265625 9.515625 29.90625 
Q 5.8125 33.546875 5.8125 39.890625 
Q 5.8125 47.609375 11.28125 51.796875 
Q 16.75 56 26.8125 56 
Q 31.78125 56 36.171875 55.265625 
Q 40.578125 54.546875 44.28125 53.078125 
z
" id="DejaVuSans-115"/>
     <path d="M 9.421875 54.6875 
L 18.40625 54.6875 
L 18.40625 0 
L 9.421875 0 
z
M 9.421875 75.984375 
L 18.40625 75.984375 
L 18.40625 64.59375 
L 9.421875 64.59375 
z
" id="DejaVuSans-105"/>
     <path d="M 18.3125 70.21875 
L 18.3125 54.6875 
L 36.8125 54.6875 
L 36.8125 47.703125 
L 18.3125 47.703125 
L 18.3125 18.015625 
Q 18.3125 11.328125 20.140625 9.421875 
Q 21.96875 7.515625 27.59375 7.515625 
L 36.8125 7.515625 
L 36.8125 0 
L 27.59375 0 
Q 17.1875 0 13.234375 3.875 
Q 9.28125 7.765625 9.28125 18.015625 
L 9.28125 47.703125 
L 2.6875 47.703125 
L 2.6875 54.6875 
L 9.28125 54.6875 
L 9.28125 70.21875 
z
" id="DejaVuSans-116"/>
     <path d="M 54.890625 33.015625 
L 54.890625 0 
L 45.90625 0 
L 45.90625 32.71875 
Q 45.90625 40.484375 42.875 44.328125 
Q 39.84375 48.1875 33.796875 48.1875 
Q 26.515625 48.1875 22.3125 43.546875 
Q 18.109375 38.921875 18.109375 30.90625 
L 18.109375 0 
L 9.078125 0 
L 9.078125 54.6875 
L 18.109375 54.6875 
L 18.109375 46.1875 
Q 21.34375 51.125 25.703125 53.5625 
Q 30.078125 56 35.796875 56 
Q 45.21875 56 50.046875 50.171875 
Q 54.890625 44.34375 54.890625 33.015625 
z
" id="DejaVuSans-110"/>
     <path id="DejaVuSans-32"/>
     <path d="M 37.109375 75.984375 
L 37.109375 68.5 
L 28.515625 68.5 
Q 23.6875 68.5 21.796875 66.546875 
Q 19.921875 64.59375 19.921875 59.515625 
L 19.921875 54.6875 
L 34.71875 54.6875 
L 34.71875 47.703125 
L 19.921875 47.703125 
L 19.921875 0 
L 10.890625 0 
L 10.890625 47.703125 
L 2.296875 47.703125 
L 2.296875 54.6875 
L 10.890625 54.6875 
L 10.890625 58.5 
Q 10.890625 67.625 15.140625 71.796875 
Q 19.390625 75.984375 28.609375 75.984375 
z
" id="DejaVuSans-102"/>
     <path d="M 2.984375 54.6875 
L 12.5 54.6875 
L 29.59375 8.796875 
L 46.6875 54.6875 
L 56.203125 54.6875 
L 35.6875 0 
L 23.484375 0 
z
" id="DejaVuSans-118"/>
     <path d="M 10.6875 12.40625 
L 21 12.40625 
L 21 0 
L 10.6875 0 
z
" id="DejaVuSans-46"/>
     <path d="M 45.40625 46.390625 
L 45.40625 75.984375 
L 54.390625 75.984375 
L 54.390625 0 
L 45.40625 0 
L 45.40625 8.203125 
Q 42.578125 3.328125 38.25 0.953125 
Q 33.9375 -1.421875 27.875 -1.421875 
Q 17.96875 -1.421875 11.734375 6.484375 
Q 5.515625 14.40625 5.515625 27.296875 
Q 5.515625 40.1875 11.734375 48.09375 
Q 17.96875 56 27.875 56 
Q 33.9375 56 38.25 53.625 
Q 42.578125 51.265625 45.40625 46.390625 
z
M 14.796875 27.296875 
Q 14.796875 17.390625 18.875 11.75 
Q 22.953125 6.109375 30.078125 6.109375 
Q 37.203125 6.109375 41.296875 11.75 
Q 45.40625 17.390625 45.40625 27.296875 
Q 45.40625 37.203125 41.296875 42.84375 
Q 37.203125 48.484375 30.078125 48.484375 
Q 22.953125 48.484375 18.875 42.84375 
Q 14.796875 37.203125 14.796875 27.296875 
z
" id="DejaVuSans-100"/>
     <path d="M 45.40625 27.984375 
Q 45.40625 37.75 41.375 43.109375 
Q 37.359375 48.484375 30.078125 48.484375 
Q 22.859375 48.484375 18.828125 43.109375 
Q 14.796875 37.75 14.796875 27.984375 
Q 14.796875 18.265625 18.828125 12.890625 
Q 22.859375 7.515625 30.078125 7.515625 
Q 37.359375 7.515625 41.375 12.890625 
Q 45.40625 18.265625 45.40625 27.984375 
z
M 54.390625 6.78125 
Q 54.390625 -7.171875 48.1875 -13.984375 
Q 42 -20.796875 29.203125 -20.796875 
Q 24.46875 -20.796875 20.265625 -20.09375 
Q 16.0625 -19.390625 12.109375 -17.921875 
L 12.109375 -9.1875 
Q 16.0625 -11.328125 19.921875 -12.34375 
Q 23.78125 -13.375 27.78125 -13.375 
Q 36.625 -13.375 41.015625 -8.765625 
Q 45.40625 -4.15625 45.40625 5.171875 
L 45.40625 9.625 
Q 42.625 4.78125 38.28125 2.390625 
Q 33.9375 0 27.875 0 
Q 17.828125 0 11.671875 7.65625 
Q 5.515625 15.328125 5.515625 27.984375 
Q 5.515625 40.671875 11.671875 48.328125 
Q 17.828125 56 27.875 56 
Q 33.9375 56 38.28125 53.609375 
Q 42.625 51.21875 45.40625 46.390625 
L 45.40625 54.6875 
L 54.390625 54.6875 
z
" id="DejaVuSans-103"/>
     <path d="M 50.984375 -16.609375 
L 50.984375 -23.578125 
L -0.984375 -23.578125 
L -0.984375 -16.609375 
z
" id="DejaVuSans-95"/>
     <path d="M 54.890625 33.015625 
L 54.890625 0 
L 45.90625 0 
L 45.90625 32.71875 
Q 45.90625 40.484375 42.875 44.328125 
Q 39.84375 48.1875 33.796875 48.1875 
Q 26.515625 48.1875 22.3125 43.546875 
Q 18.109375 38.921875 18.109375 30.90625 
L 18.109375 0 
L 9.078125 0 
L 9.078125 75.984375 
L 18.109375 75.984375 
L 18.109375 46.1875 
Q 21.34375 51.125 25.703125 53.5625 
Q 30.078125 56 35.796875 56 
Q 45.21875 56 50.046875 50.171875 
Q 54.890625 44.34375 54.890625 33.015625 
z
" id="DejaVuSans-104"/>
    </defs>
    <g transform="translate(84.898125 35.472)scale(0.12 -0.12)">
     <use xlink:href="#DejaVuSans-65"/>
     <use x="68.408203" xlink:href="#DejaVuSans-115"/>
     <use x="120.507812" xlink:href="#DejaVuSans-115"/>
     <use x="172.607422" xlink:href="#DejaVuSans-111"/>
     <use x="233.789062" xlink:href="#DejaVuSans-99"/>
     <use x="288.769531" xlink:href="#DejaVuSans-105"/>
     <use x="316.552734" xlink:href="#DejaVuSans-97"/>
     <use x="377.832031" xlink:href="#DejaVuSans-116"/>
     <use x="417.041016" xlink:href="#DejaVuSans-105"/>
     <use x="444.824219" xlink:href="#DejaVuSans-111"/>
     <use x="506.005859" xlink:href="#DejaVuSans-110"/>
     <use x="569.384766" xlink:href="#DejaVuSans-32"/>
     <use x="601.171875" xlink:href="#DejaVuSans-111"/>
     <use x="662.353516" xlink:href="#DejaVuSans-102"/>
     <use x="697.558594" xlink:href="#DejaVuSans-32"/>
     <use x="729.345703" xlink:href="#DejaVuSans-112"/>
     <use x="792.822266" xlink:href="#DejaVuSans-114"/>
     <use x="831.685547" xlink:href="#DejaVuSans-111"/>
     <use x="892.867188" xlink:href="#DejaVuSans-99"/>
     <use x="947.847656" xlink:href="#DejaVuSans-97"/>
     <use x="1009.126953" xlink:href="#DejaVuSans-108"/>
     <use x="1036.910156" xlink:href="#DejaVuSans-112"/>
     <use x="1100.386719" xlink:href="#DejaVuSans-101"/>
     <use x="1161.910156" xlink:href="#DejaVuSans-97"/>
     <use x="1223.189453" xlink:href="#DejaVuSans-107"/>
     <use x="1279.349609" xlink:href="#DejaVuSans-97"/>
     <use x="1340.628906" xlink:href="#DejaVuSans-99"/>
     <use x="1395.609375" xlink:href="#DejaVuSans-32"/>
     <use x="1427.396484" xlink:href="#DejaVuSans-118"/>
     <use x="1486.576172" xlink:href="#DejaVuSans-115"/>
     <use x="1538.675781" xlink:href="#DejaVuSans-46"/>
     <use x="1570.462891" xlink:href="#DejaVuSans-32"/>
     <use x="1602.25" xlink:href="#DejaVuSans-99"/>
     <use x="1657.230469" xlink:href="#DejaVuSans-97"/>
     <use x="1718.509766" xlink:href="#DejaVuSans-114"/>
     <use x="1757.873047" xlink:href="#DejaVuSans-100"/>
     <use x="1821.349609" xlink:href="#DejaVuSans-105"/>
     <use x="1849.132812" xlink:href="#DejaVuSans-111"/>
     <use x="1910.314453" xlink:href="#DejaVuSans-103"/>
     <use x="1973.791016" xlink:href="#DejaVuSans-101"/>
     <use x="2035.314453" xlink:href="#DejaVuSans-110"/>
     <use x="2098.693359" xlink:href="#DejaVuSans-105"/>
     <use x="2126.476562" xlink:href="#DejaVuSans-99"/>
     <use x="2181.457031" xlink:href="#DejaVuSans-95"/>
     <use x="2231.457031" xlink:href="#DejaVuSans-115"/>
     <use x="2283.556641" xlink:href="#DejaVuSans-104"/>
     <use x="2346.935547" xlink:href="#DejaVuSans-111"/>
     <use x="2408.117188" xlink:href="#DejaVuSans-99"/>
     <use x="2463.097656" xlink:href="#DejaVuSans-107"/>
    </g>
   </g>
   <g id="legend_1">
    <g id="patch_7">
     <path d="M 233.074687 79.3845 
L 407.72 79.3845 
Q 409.72 79.3845 409.72 77.3845 
L 409.72 48.472 
Q 409.72 46.472 407.72 46.472 
L 233.074687 46.472 
Q 231.074687 46.472 231.074687 48.472 
L 231.074687 77.3845 
Q 231.074687 79.3845 233.074687 79.3845 
z
" style="fill:#ffffff;opacity:0.8;stroke:#cccccc;stroke-linejoin:miter;"/>
    </g>
    <g id="line2d_14">
     <path d="M 235.074687 54.570438 
L 255.074687 54.570438 
" style="fill:none;stroke:#ffa500;stroke-linecap:square;stroke-width:1.5;"/>
    </g>
    <g id="line2d_15"/>
    <g id="text_11">
     <!-- cardiogenic_shock (9) -->
     <defs>
      <path d="M 31 75.875 
Q 24.46875 64.65625 21.28125 53.65625 
Q 18.109375 42.671875 18.109375 31.390625 
Q 18.109375 20.125 21.3125 9.0625 
Q 24.515625 -2 31 -13.1875 
L 23.1875 -13.1875 
Q 15.875 -1.703125 12.234375 9.375 
Q 8.59375 20.453125 8.59375 31.390625 
Q 8.59375 42.28125 12.203125 53.3125 
Q 15.828125 64.359375 23.1875 75.875 
z
" id="DejaVuSans-40"/>
      <path d="M 10.984375 1.515625 
L 10.984375 10.5 
Q 14.703125 8.734375 18.5 7.8125 
Q 22.3125 6.890625 25.984375 6.890625 
Q 35.75 6.890625 40.890625 13.453125 
Q 46.046875 20.015625 46.78125 33.40625 
Q 43.953125 29.203125 39.59375 26.953125 
Q 35.25 24.703125 29.984375 24.703125 
Q 19.046875 24.703125 12.671875 31.3125 
Q 6.296875 37.9375 6.296875 49.421875 
Q 6.296875 60.640625 12.9375 67.421875 
Q 19.578125 74.21875 30.609375 74.21875 
Q 43.265625 74.21875 49.921875 64.515625 
Q 56.59375 54.828125 56.59375 36.375 
Q 56.59375 19.140625 48.40625 8.859375 
Q 40.234375 -1.421875 26.421875 -1.421875 
Q 22.703125 -1.421875 18.890625 -0.6875 
Q 15.09375 0.046875 10.984375 1.515625 
z
M 30.609375 32.421875 
Q 37.25 32.421875 41.125 36.953125 
Q 45.015625 41.5 45.015625 49.421875 
Q 45.015625 57.28125 41.125 61.84375 
Q 37.25 66.40625 30.609375 66.40625 
Q 23.96875 66.40625 20.09375 61.84375 
Q 16.21875 57.28125 16.21875 49.421875 
Q 16.21875 41.5 20.09375 36.953125 
Q 23.96875 32.421875 30.609375 32.421875 
z
" id="DejaVuSans-57"/>
      <path d="M 8.015625 75.875 
L 15.828125 75.875 
Q 23.140625 64.359375 26.78125 53.3125 
Q 30.421875 42.28125 30.421875 31.390625 
Q 30.421875 20.453125 26.78125 9.375 
Q 23.140625 -1.703125 15.828125 -13.1875 
L 8.015625 -13.1875 
Q 14.5 -2 17.703125 9.0625 
Q 20.90625 20.125 20.90625 31.390625 
Q 20.90625 42.671875 17.703125 53.65625 
Q 14.5 64.65625 8.015625 75.875 
z
" id="DejaVuSans-41"/>
     </defs>
     <g transform="translate(263.074687 58.070438)scale(0.1 -0.1)">
      <use xlink:href="#DejaVuSans-99"/>
      <use x="54.980469" xlink:href="#DejaVuSans-97"/>
      <use x="116.259766" xlink:href="#DejaVuSans-114"/>
      <use x="155.623047" xlink:href="#DejaVuSans-100"/>
      <use x="219.099609" xlink:href="#DejaVuSans-105"/>
      <use x="246.882812" xlink:href="#DejaVuSans-111"/>
      <use x="308.064453" xlink:href="#DejaVuSans-103"/>
      <use x="371.541016" xlink:href="#DejaVuSans-101"/>
      <use x="433.064453" xlink:href="#DejaVuSans-110"/>
      <use x="496.443359" xlink:href="#DejaVuSans-105"/>
      <use x="524.226562" xlink:href="#DejaVuSans-99"/>
      <use x="579.207031" xlink:href="#DejaVuSans-95"/>
      <use x="629.207031" xlink:href="#DejaVuSans-115"/>
      <use x="681.306641" xlink:href="#DejaVuSans-104"/>
      <use x="744.685547" xlink:href="#DejaVuSans-111"/>
      <use x="805.867188" xlink:href="#DejaVuSans-99"/>
      <use x="860.847656" xlink:href="#DejaVuSans-107"/>
      <use x="918.757812" xlink:href="#DejaVuSans-32"/>
      <use x="950.544922" xlink:href="#DejaVuSans-40"/>
      <use x="989.558594" xlink:href="#DejaVuSans-57"/>
      <use x="1053.181641" xlink:href="#DejaVuSans-41"/>
     </g>
    </g>
    <g id="line2d_16">
     <path d="M 235.074687 69.526688 
L 255.074687 69.526688 
" style="fill:none;stroke:#008000;stroke-linecap:square;stroke-width:1.5;"/>
    </g>
    <g id="line2d_17"/>
    <g id="text_12">
     <!-- Not cardiogenic_shock (225) -->
     <defs>
      <path d="M 9.8125 72.90625 
L 23.09375 72.90625 
L 55.421875 11.921875 
L 55.421875 72.90625 
L 64.984375 72.90625 
L 64.984375 0 
L 51.703125 0 
L 19.390625 60.984375 
L 19.390625 0 
L 9.8125 0 
z
" id="DejaVuSans-78"/>
     </defs>
     <g transform="translate(263.074687 73.026688)scale(0.1 -0.1)">
      <use xlink:href="#DejaVuSans-78"/>
      <use x="74.804688" xlink:href="#DejaVuSans-111"/>
      <use x="135.986328" xlink:href="#DejaVuSans-116"/>
      <use x="175.195312" xlink:href="#DejaVuSans-32"/>
      <use x="206.982422" xlink:href="#DejaVuSans-99"/>
      <use x="261.962891" xlink:href="#DejaVuSans-97"/>
      <use x="323.242188" xlink:href="#DejaVuSans-114"/>
      <use x="362.605469" xlink:href="#DejaVuSans-100"/>
      <use x="426.082031" xlink:href="#DejaVuSans-105"/>
      <use x="453.865234" xlink:href="#DejaVuSans-111"/>
      <use x="515.046875" xlink:href="#DejaVuSans-103"/>
      <use x="578.523438" xlink:href="#DejaVuSans-101"/>
      <use x="640.046875" xlink:href="#DejaVuSans-110"/>
      <use x="703.425781" xlink:href="#DejaVuSans-105"/>
      <use x="731.208984" xlink:href="#DejaVuSans-99"/>
      <use x="786.189453" xlink:href="#DejaVuSans-95"/>
      <use x="836.189453" xlink:href="#DejaVuSans-115"/>
      <use x="888.289062" xlink:href="#DejaVuSans-104"/>
      <use x="951.667969" xlink:href="#DejaVuSans-111"/>
      <use x="1012.849609" xlink:href="#DejaVuSans-99"/>
      <use x="1067.830078" xlink:href="#DejaVuSans-107"/>
      <use x="1125.740234" xlink:href="#DejaVuSans-32"/>
      <use x="1157.527344" xlink:href="#DejaVuSans-40"/>
      <use x="1196.541016" xlink:href="#DejaVuSans-50"/>
      <use x="1260.164062" xlink:href="#DejaVuSans-50"/>
      <use x="1323.787109" xlink:href="#DejaVuSans-53"/>
      <use x="1387.410156" xlink:href="#DejaVuSans-41"/>
     </g>
    </g>
   </g>
  </g>
 </g>
 <defs>
  <clipPath id="p7ddcd47228">
   <rect height="266.112" width="357.12" x="57.6" y="41.472"/>
  </clipPath>
 </defs>
</svg>
