<?xml version="1.0" encoding="utf-8" standalone="no"?>
<!DOCTYPE svg PUBLIC "-//W3C//DTD SVG 1.1//EN"
  "http://www.w3.org/Graphics/SVG/1.1/DTD/svg11.dtd">
<!-- Created with matplotlib (https://matplotlib.org/) -->
<svg height="345.6pt" version="1.1" viewBox="0 0 460.8 345.6" width="460.8pt" xmlns="http://www.w3.org/2000/svg" xmlns:xlink="http://www.w3.org/1999/xlink">
 <defs>
  <style type="text/css">
*{stroke-linecap:butt;stroke-linejoin:round;}
  </style>
 </defs>
 <g id="figure_1">
  <g id="patch_1">
   <path d="M 0 345.6 
L 460.8 345.6 
L 460.8 0 
L 0 0 
z
" style="fill:#ffffff;"/>
  </g>
  <g id="axes_1">
   <g id="patch_2">
    <path d="M 57.6 307.584 
L 414.72 307.584 
L 414.72 41.472 
L 57.6 41.472 
z
" style="fill:#ffffff;"/>
   </g>
   <g id="PolyCollection_1">
    <defs>
     <path d="M 73.832727 -170.505781 
L 73.832727 -171.638219 
L 77.112066 -171.905412 
L 80.391405 -172.26449 
L 83.670744 -172.732019 
L 86.950083 -173.322294 
L 90.229421 -174.045789 
L 93.50876 -174.908033 
L 96.788099 -175.909282 
L 100.067438 -177.045175 
L 103.346777 -178.308403 
L 106.626116 -179.691093 
L 109.905455 -181.187398 
L 113.184793 -182.795611 
L 116.464132 -184.519115 
L 119.743471 -186.365713 
L 123.02281 -188.345205 
L 126.302149 -190.465622 
L 129.581488 -192.72898 
L 132.860826 -195.127813 
L 136.140165 -197.643859 
L 139.419504 -200.250008 
L 142.698843 -202.916027 
L 145.978182 -205.617586 
L 149.257521 -208.347025 
L 152.53686 -211.123381 
L 155.816198 -213.99869 
L 159.095537 -217.057852 
L 162.374876 -220.410405 
L 165.654215 -224.174287 
L 168.933554 -228.45373 
L 172.212893 -233.31517 
L 175.492231 -238.766124 
L 178.77157 -244.741818 
L 182.050909 -251.103031 
L 185.330248 -257.646391 
L 188.609587 -264.1258 
L 191.888926 -270.281406 
L 195.168264 -275.871182 
L 198.447603 -280.699911 
L 201.726942 -284.641169 
L 205.006281 -287.649369 
L 208.28562 -289.760658 
L 211.564959 -291.083036 
L 214.844298 -291.777334 
L 218.123636 -292.031584 
L 221.402975 -292.032 
L 224.682314 -291.934199 
L 227.961653 -291.838542 
L 231.240992 -291.773214 
L 234.520331 -291.687945 
L 237.799669 -291.45988 
L 241.079008 -290.911266 
L 244.358347 -289.836607 
L 247.637686 -288.035197 
L 250.917025 -285.343831 
L 254.196364 -281.664352 
L 257.475702 -276.981508 
L 260.755041 -271.368276 
L 264.03438 -264.978055 
L 267.313719 -258.025416 
L 270.593058 -250.759084 
L 273.872397 -243.432085 
L 277.151736 -236.274223 
L 280.431074 -229.471282 
L 283.710413 -223.153715 
L 286.989752 -217.395458 
L 290.269091 -212.221368 
L 293.54843 -207.6202 
L 296.827769 -203.559269 
L 300.107107 -199.997215 
L 303.386446 -196.892414 
L 306.665785 -194.206194 
L 309.945124 -191.901701 
L 313.224463 -189.940387 
L 316.503802 -188.278566 
L 319.78314 -186.866044 
L 323.062479 -185.647844 
L 326.341818 -184.56872 
L 329.621157 -183.579155 
L 332.900496 -182.640939 
L 336.179835 -181.730603 
L 339.459174 -180.839684 
L 342.738512 -179.971837 
L 346.017851 -179.137753 
L 349.29719 -178.349425 
L 352.576529 -177.615362 
L 355.855868 -176.9379 
L 359.135207 -176.313002 
L 362.414545 -175.732175 
L 365.693884 -175.185563 
L 368.973223 -174.665081 
L 372.252562 -174.166638 
L 375.531901 -173.690934 
L 378.81124 -173.242803 
L 382.090579 -172.829519 
L 385.369917 -172.458683 
L 388.649256 -172.136304 
L 391.928595 -171.865514 
L 395.207934 -171.646085 
L 398.487273 -171.474696 
L 398.487273 -170.669304 
L 398.487273 -170.669304 
L 395.207934 -170.497915 
L 391.928595 -170.278486 
L 388.649256 -170.007696 
L 385.369917 -169.685317 
L 382.090579 -169.314481 
L 378.81124 -168.901197 
L 375.531901 -168.453066 
L 372.252562 -167.977362 
L 368.973223 -167.478919 
L 365.693884 -166.958437 
L 362.414545 -166.411825 
L 359.135207 -165.830998 
L 355.855868 -165.2061 
L 352.576529 -164.528638 
L 349.29719 -163.794575 
L 346.017851 -163.006247 
L 342.738512 -162.172163 
L 339.459174 -161.304316 
L 336.179835 -160.413397 
L 332.900496 -159.503061 
L 329.621157 -158.564845 
L 326.341818 -157.57528 
L 323.062479 -156.496156 
L 319.78314 -155.277956 
L 316.503802 -153.865434 
L 313.224463 -152.203613 
L 309.945124 -150.242299 
L 306.665785 -147.937806 
L 303.386446 -145.251586 
L 300.107107 -142.146785 
L 296.827769 -138.584731 
L 293.54843 -134.5238 
L 290.269091 -129.922632 
L 286.989752 -124.748542 
L 283.710413 -118.990285 
L 280.431074 -112.672718 
L 277.151736 -105.869777 
L 273.872397 -98.711915 
L 270.593058 -91.384916 
L 267.313719 -84.118584 
L 264.03438 -77.165945 
L 260.755041 -70.775724 
L 257.475702 -65.162492 
L 254.196364 -60.479648 
L 250.917025 -56.800169 
L 247.637686 -54.108803 
L 244.358347 -52.307393 
L 241.079008 -51.232734 
L 237.799669 -50.68412 
L 234.520331 -50.456055 
L 231.240992 -50.370786 
L 227.961653 -50.305458 
L 224.682314 -50.209801 
L 221.402975 -50.112 
L 218.123636 -50.112416 
L 214.844298 -50.366666 
L 211.564959 -51.060964 
L 208.28562 -52.383342 
L 205.006281 -54.494631 
L 201.726942 -57.502831 
L 198.447603 -61.444089 
L 195.168264 -66.272818 
L 191.888926 -71.862594 
L 188.609587 -78.0182 
L 185.330248 -84.497609 
L 182.050909 -91.040969 
L 178.77157 -97.402182 
L 175.492231 -103.377876 
L 172.212893 -108.82883 
L 168.933554 -113.69027 
L 165.654215 -117.969713 
L 162.374876 -121.733595 
L 159.095537 -125.086148 
L 155.816198 -128.14531 
L 152.53686 -131.020619 
L 149.257521 -133.796975 
L 145.978182 -136.526414 
L 142.698843 -139.227973 
L 139.419504 -141.893992 
L 136.140165 -144.500141 
L 132.860826 -147.016187 
L 129.581488 -149.41502 
L 126.302149 -151.678378 
L 123.02281 -153.798795 
L 119.743471 -155.778287 
L 116.464132 -157.624885 
L 113.184793 -159.348389 
L 109.905455 -160.956602 
L 106.626116 -162.452907 
L 103.346777 -163.835597 
L 100.067438 -165.098825 
L 96.788099 -166.234718 
L 93.50876 -167.235967 
L 90.229421 -168.098211 
L 86.950083 -168.821706 
L 83.670744 -169.411981 
L 80.391405 -169.87951 
L 77.112066 -170.238588 
L 73.832727 -170.505781 
z
" id="m555c55efd2" style="stroke:#4c4c4c;stroke-opacity:0.5;stroke-width:1.5;"/>
    </defs>
    <g clip-path="url(#pba89dda0c0)">
     <use style="fill:#df9c20;fill-opacity:0.5;stroke:#4c4c4c;stroke-opacity:0.5;stroke-width:1.5;" x="0" xlink:href="#m555c55efd2" y="345.6"/>
    </g>
   </g>
   <g id="PolyCollection_2">
    <defs>
     <path d="M 121.365323 -170.518576 
L 121.365323 -171.625424 
L 123.825237 -171.940683 
L 126.285152 -172.394725 
L 128.745067 -173.027732 
L 131.204981 -173.882901 
L 133.664896 -175.003717 
L 136.12481 -176.43069 
L 138.584725 -178.197988 
L 141.044639 -180.330419 
L 143.504554 -182.841215 
L 145.964468 -185.730906 
L 148.424383 -188.987456 
L 150.884297 -192.587607 
L 153.344212 -196.499287 
L 155.804127 -200.684732 
L 158.264041 -205.103925 
L 160.723956 -209.717778 
L 163.18387 -214.490516 
L 165.643785 -219.390756 
L 168.103699 -224.391073 
L 170.563614 -229.466194 
L 173.023528 -234.590355 
L 175.483443 -239.734557 
L 177.943358 -244.864421 
L 180.403272 -249.939055 
L 182.863187 -254.910978 
L 185.323101 -259.726993 
L 187.783016 -264.329957 
L 190.24293 -268.661683 
L 192.702845 -272.66731 
L 195.162759 -276.301155 
L 197.622674 -279.533212 
L 200.082589 -282.354328 
L 202.542503 -284.777396 
L 205.002418 -286.832198 
L 207.462332 -288.55323 
L 209.922247 -289.962487 
L 212.382161 -291.051949 
L 214.842076 -291.772065 
L 217.30199 -292.032 
L 219.761905 -291.714463 
L 222.22182 -290.70349 
L 224.681734 -288.918874 
L 227.141649 -286.347912 
L 229.601563 -283.064873 
L 232.061478 -279.231415 
L 234.521392 -275.076344 
L 236.981307 -270.858862 
L 239.441221 -266.824108 
L 241.901136 -263.161708 
L 244.361051 -259.976929 
L 246.820965 -257.280182 
L 249.28088 -254.995579 
L 251.740794 -252.98458 
L 254.200709 -251.077776 
L 256.660623 -249.107207 
L 259.120538 -246.932989 
L 261.580452 -244.460614 
L 264.040367 -241.648039 
L 266.500282 -238.503757 
L 268.960196 -235.078219 
L 271.420111 -231.45122 
L 273.880025 -227.717705 
L 276.33994 -223.973993 
L 278.799854 -220.306049 
L 281.259769 -216.780982 
L 283.719683 -213.442417 
L 286.179598 -210.309815 
L 288.639512 -207.381231 
L 291.099427 -204.638611 
L 293.559342 -202.054494 
L 296.019256 -199.599029 
L 298.479171 -197.246351 
L 300.939085 -194.979533 
L 303.399 -192.793525 
L 305.858914 -190.695772 
L 308.318829 -188.704491 
L 310.778743 -186.844975 
L 313.238658 -185.144649 
L 315.698573 -183.627752 
L 318.158487 -182.310561 
L 320.618402 -181.197857 
L 323.078316 -180.281055 
L 325.538231 -179.538209 
L 327.998145 -178.93585 
L 330.45806 -178.432497 
L 332.917974 -177.983495 
L 335.377889 -177.546568 
L 337.837804 -177.087275 
L 340.297718 -176.583378 
L 342.757633 -176.027238 
L 345.217547 -175.425687 
L 347.677462 -174.797395 
L 350.137376 -174.168355 
L 352.597291 -173.566529 
L 355.057205 -173.016851 
L 357.51712 -172.537564 
L 359.977035 -172.138419 
L 362.436949 -171.820747 
L 364.896864 -171.578963 
L 364.896864 -170.565037 
L 364.896864 -170.565037 
L 362.436949 -170.323253 
L 359.977035 -170.005581 
L 357.51712 -169.606436 
L 355.057205 -169.127149 
L 352.597291 -168.577471 
L 350.137376 -167.975645 
L 347.677462 -167.346605 
L 345.217547 -166.718313 
L 342.757633 -166.116762 
L 340.297718 -165.560622 
L 337.837804 -165.056725 
L 335.377889 -164.597432 
L 332.917974 -164.160505 
L 330.45806 -163.711503 
L 327.998145 -163.20815 
L 325.538231 -162.605791 
L 323.078316 -161.862945 
L 320.618402 -160.946143 
L 318.158487 -159.833439 
L 315.698573 -158.516248 
L 313.238658 -156.999351 
L 310.778743 -155.299025 
L 308.318829 -153.439509 
L 305.858914 -151.448228 
L 303.399 -149.350475 
L 300.939085 -147.164467 
L 298.479171 -144.897649 
L 296.019256 -142.544971 
L 293.559342 -140.089506 
L 291.099427 -137.505389 
L 288.639512 -134.762769 
L 286.179598 -131.834185 
L 283.719683 -128.701583 
L 281.259769 -125.363018 
L 278.799854 -121.837951 
L 276.33994 -118.170007 
L 273.880025 -114.426295 
L 271.420111 -110.69278 
L 268.960196 -107.065781 
L 266.500282 -103.640243 
L 264.040367 -100.495961 
L 261.580452 -97.683386 
L 259.120538 -95.211011 
L 256.660623 -93.036793 
L 254.200709 -91.066224 
L 251.740794 -89.15942 
L 249.28088 -87.148421 
L 246.820965 -84.863818 
L 244.361051 -82.167071 
L 241.901136 -78.982292 
L 239.441221 -75.319892 
L 236.981307 -71.285138 
L 234.521392 -67.067656 
L 232.061478 -62.912585 
L 229.601563 -59.079127 
L 227.141649 -55.796088 
L 224.681734 -53.225126 
L 222.22182 -51.44051 
L 219.761905 -50.429537 
L 217.30199 -50.112 
L 214.842076 -50.371935 
L 212.382161 -51.092051 
L 209.922247 -52.181513 
L 207.462332 -53.59077 
L 205.002418 -55.311802 
L 202.542503 -57.366604 
L 200.082589 -59.789672 
L 197.622674 -62.610788 
L 195.162759 -65.842845 
L 192.702845 -69.47669 
L 190.24293 -73.482317 
L 187.783016 -77.814043 
L 185.323101 -82.417007 
L 182.863187 -87.233022 
L 180.403272 -92.204945 
L 177.943358 -97.279579 
L 175.483443 -102.409443 
L 173.023528 -107.553645 
L 170.563614 -112.677806 
L 168.103699 -117.752927 
L 165.643785 -122.753244 
L 163.18387 -127.653484 
L 160.723956 -132.426222 
L 158.264041 -137.040075 
L 155.804127 -141.459268 
L 153.344212 -145.644713 
L 150.884297 -149.556393 
L 148.424383 -153.156544 
L 145.964468 -156.413094 
L 143.504554 -159.302785 
L 141.044639 -161.813581 
L 138.584725 -163.946012 
L 136.12481 -165.71331 
L 133.664896 -167.140283 
L 131.204981 -168.261099 
L 128.745067 -169.116268 
L 126.285152 -169.749275 
L 123.825237 -170.203317 
L 121.365323 -170.518576 
z
" id="m869e421ab7" style="stroke:#262626;stroke-opacity:0.5;stroke-width:1.5;"/>
    </defs>
    <g clip-path="url(#pba89dda0c0)">
     <use style="fill:#107010;fill-opacity:0.5;stroke:#262626;stroke-opacity:0.5;stroke-width:1.5;" x="0" xlink:href="#m869e421ab7" y="345.6"/>
    </g>
   </g>
   <g id="matplotlib.axis_1">
    <g id="xtick_1">
     <g id="line2d_1">
      <defs>
       <path d="M 0 0 
L 0 3.5 
" id="m2c977bd775" style="stroke:#000000;stroke-width:0.8;"/>
      </defs>
      <g>
       <use style="stroke:#000000;stroke-width:0.8;" x="80.181789" xlink:href="#m2c977bd775" y="307.584"/>
      </g>
     </g>
     <g id="text_1">
      <!-- 50 -->
      <defs>
       <path d="M 10.796875 72.90625 
L 49.515625 72.90625 
L 49.515625 64.59375 
L 19.828125 64.59375 
L 19.828125 46.734375 
Q 21.96875 47.46875 24.109375 47.828125 
Q 26.265625 48.1875 28.421875 48.1875 
Q 40.625 48.1875 47.75 41.5 
Q 54.890625 34.8125 54.890625 23.390625 
Q 54.890625 11.625 47.5625 5.09375 
Q 40.234375 -1.421875 26.90625 -1.421875 
Q 22.3125 -1.421875 17.546875 -0.640625 
Q 12.796875 0.140625 7.71875 1.703125 
L 7.71875 11.625 
Q 12.109375 9.234375 16.796875 8.0625 
Q 21.484375 6.890625 26.703125 6.890625 
Q 35.15625 6.890625 40.078125 11.328125 
Q 45.015625 15.765625 45.015625 23.390625 
Q 45.015625 31 40.078125 35.4375 
Q 35.15625 39.890625 26.703125 39.890625 
Q 22.75 39.890625 18.8125 39.015625 
Q 14.890625 38.140625 10.796875 36.28125 
z
" id="DejaVuSans-53"/>
       <path d="M 31.78125 66.40625 
Q 24.171875 66.40625 20.328125 58.90625 
Q 16.5 51.421875 16.5 36.375 
Q 16.5 21.390625 20.328125 13.890625 
Q 24.171875 6.390625 31.78125 6.390625 
Q 39.453125 6.390625 43.28125 13.890625 
Q 47.125 21.390625 47.125 36.375 
Q 47.125 51.421875 43.28125 58.90625 
Q 39.453125 66.40625 31.78125 66.40625 
z
M 31.78125 74.21875 
Q 44.046875 74.21875 50.515625 64.515625 
Q 56.984375 54.828125 56.984375 36.375 
Q 56.984375 17.96875 50.515625 8.265625 
Q 44.046875 -1.421875 31.78125 -1.421875 
Q 19.53125 -1.421875 13.0625 8.265625 
Q 6.59375 17.96875 6.59375 36.375 
Q 6.59375 54.828125 13.0625 64.515625 
Q 19.53125 74.21875 31.78125 74.21875 
z
" id="DejaVuSans-48"/>
      </defs>
      <g transform="translate(73.819289 322.182437)scale(0.1 -0.1)">
       <use xlink:href="#DejaVuSans-53"/>
       <use x="63.623047" xlink:href="#DejaVuSans-48"/>
      </g>
     </g>
    </g>
    <g id="xtick_2">
     <g id="line2d_2">
      <g>
       <use style="stroke:#000000;stroke-width:0.8;" x="123.751121" xlink:href="#m2c977bd775" y="307.584"/>
      </g>
     </g>
     <g id="text_2">
      <!-- 75 -->
      <defs>
       <path d="M 8.203125 72.90625 
L 55.078125 72.90625 
L 55.078125 68.703125 
L 28.609375 0 
L 18.3125 0 
L 43.21875 64.59375 
L 8.203125 64.59375 
z
" id="DejaVuSans-55"/>
      </defs>
      <g transform="translate(117.388621 322.182437)scale(0.1 -0.1)">
       <use xlink:href="#DejaVuSans-55"/>
       <use x="63.623047" xlink:href="#DejaVuSans-53"/>
      </g>
     </g>
    </g>
    <g id="xtick_3">
     <g id="line2d_3">
      <g>
       <use style="stroke:#000000;stroke-width:0.8;" x="167.320454" xlink:href="#m2c977bd775" y="307.584"/>
      </g>
     </g>
     <g id="text_3">
      <!-- 100 -->
      <defs>
       <path d="M 12.40625 8.296875 
L 28.515625 8.296875 
L 28.515625 63.921875 
L 10.984375 60.40625 
L 10.984375 69.390625 
L 28.421875 72.90625 
L 38.28125 72.90625 
L 38.28125 8.296875 
L 54.390625 8.296875 
L 54.390625 0 
L 12.40625 0 
z
" id="DejaVuSans-49"/>
      </defs>
      <g transform="translate(157.776704 322.182437)scale(0.1 -0.1)">
       <use xlink:href="#DejaVuSans-49"/>
       <use x="63.623047" xlink:href="#DejaVuSans-48"/>
       <use x="127.246094" xlink:href="#DejaVuSans-48"/>
      </g>
     </g>
    </g>
    <g id="xtick_4">
     <g id="line2d_4">
      <g>
       <use style="stroke:#000000;stroke-width:0.8;" x="210.889787" xlink:href="#m2c977bd775" y="307.584"/>
      </g>
     </g>
     <g id="text_4">
      <!-- 125 -->
      <defs>
       <path d="M 19.1875 8.296875 
L 53.609375 8.296875 
L 53.609375 0 
L 7.328125 0 
L 7.328125 8.296875 
Q 12.9375 14.109375 22.625 23.890625 
Q 32.328125 33.6875 34.8125 36.53125 
Q 39.546875 41.84375 41.421875 45.53125 
Q 43.3125 49.21875 43.3125 52.78125 
Q 43.3125 58.59375 39.234375 62.25 
Q 35.15625 65.921875 28.609375 65.921875 
Q 23.96875 65.921875 18.8125 64.3125 
Q 13.671875 62.703125 7.8125 59.421875 
L 7.8125 69.390625 
Q 13.765625 71.78125 18.9375 73 
Q 24.125 74.21875 28.421875 74.21875 
Q 39.75 74.21875 46.484375 68.546875 
Q 53.21875 62.890625 53.21875 53.421875 
Q 53.21875 48.921875 51.53125 44.890625 
Q 49.859375 40.875 45.40625 35.40625 
Q 44.1875 33.984375 37.640625 27.21875 
Q 31.109375 20.453125 19.1875 8.296875 
z
" id="DejaVuSans-50"/>
      </defs>
      <g transform="translate(201.346037 322.182437)scale(0.1 -0.1)">
       <use xlink:href="#DejaVuSans-49"/>
       <use x="63.623047" xlink:href="#DejaVuSans-50"/>
       <use x="127.246094" xlink:href="#DejaVuSans-53"/>
      </g>
     </g>
    </g>
    <g id="xtick_5">
     <g id="line2d_5">
      <g>
       <use style="stroke:#000000;stroke-width:0.8;" x="254.45912" xlink:href="#m2c977bd775" y="307.584"/>
      </g>
     </g>
     <g id="text_5">
      <!-- 150 -->
      <g transform="translate(244.91537 322.182437)scale(0.1 -0.1)">
       <use xlink:href="#DejaVuSans-49"/>
       <use x="63.623047" xlink:href="#DejaVuSans-53"/>
       <use x="127.246094" xlink:href="#DejaVuSans-48"/>
      </g>
     </g>
    </g>
    <g id="xtick_6">
     <g id="line2d_6">
      <g>
       <use style="stroke:#000000;stroke-width:0.8;" x="298.028453" xlink:href="#m2c977bd775" y="307.584"/>
      </g>
     </g>
     <g id="text_6">
      <!-- 175 -->
      <g transform="translate(288.484703 322.182437)scale(0.1 -0.1)">
       <use xlink:href="#DejaVuSans-49"/>
       <use x="63.623047" xlink:href="#DejaVuSans-55"/>
       <use x="127.246094" xlink:href="#DejaVuSans-53"/>
      </g>
     </g>
    </g>
    <g id="xtick_7">
     <g id="line2d_7">
      <g>
       <use style="stroke:#000000;stroke-width:0.8;" x="341.597785" xlink:href="#m2c977bd775" y="307.584"/>
      </g>
     </g>
     <g id="text_7">
      <!-- 200 -->
      <g transform="translate(332.054035 322.182437)scale(0.1 -0.1)">
       <use xlink:href="#DejaVuSans-50"/>
       <use x="63.623047" xlink:href="#DejaVuSans-48"/>
       <use x="127.246094" xlink:href="#DejaVuSans-48"/>
      </g>
     </g>
    </g>
    <g id="xtick_8">
     <g id="line2d_8">
      <g>
       <use style="stroke:#000000;stroke-width:0.8;" x="385.167118" xlink:href="#m2c977bd775" y="307.584"/>
      </g>
     </g>
     <g id="text_8">
      <!-- 225 -->
      <g transform="translate(375.623368 322.182437)scale(0.1 -0.1)">
       <use xlink:href="#DejaVuSans-50"/>
       <use x="63.623047" xlink:href="#DejaVuSans-50"/>
       <use x="127.246094" xlink:href="#DejaVuSans-53"/>
      </g>
     </g>
    </g>
    <g id="text_9">
     <!-- bpsystac -->
     <defs>
      <path d="M 48.6875 27.296875 
Q 48.6875 37.203125 44.609375 42.84375 
Q 40.53125 48.484375 33.40625 48.484375 
Q 26.265625 48.484375 22.1875 42.84375 
Q 18.109375 37.203125 18.109375 27.296875 
Q 18.109375 17.390625 22.1875 11.75 
Q 26.265625 6.109375 33.40625 6.109375 
Q 40.53125 6.109375 44.609375 11.75 
Q 48.6875 17.390625 48.6875 27.296875 
z
M 18.109375 46.390625 
Q 20.953125 51.265625 25.265625 53.625 
Q 29.59375 56 35.59375 56 
Q 45.5625 56 51.78125 48.09375 
Q 58.015625 40.1875 58.015625 27.296875 
Q 58.015625 14.40625 51.78125 6.484375 
Q 45.5625 -1.421875 35.59375 -1.421875 
Q 29.59375 -1.421875 25.265625 0.953125 
Q 20.953125 3.328125 18.109375 8.203125 
L 18.109375 0 
L 9.078125 0 
L 9.078125 75.984375 
L 18.109375 75.984375 
z
" id="DejaVuSans-98"/>
      <path d="M 18.109375 8.203125 
L 18.109375 -20.796875 
L 9.078125 -20.796875 
L 9.078125 54.6875 
L 18.109375 54.6875 
L 18.109375 46.390625 
Q 20.953125 51.265625 25.265625 53.625 
Q 29.59375 56 35.59375 56 
Q 45.5625 56 51.78125 48.09375 
Q 58.015625 40.1875 58.015625 27.296875 
Q 58.015625 14.40625 51.78125 6.484375 
Q 45.5625 -1.421875 35.59375 -1.421875 
Q 29.59375 -1.421875 25.265625 0.953125 
Q 20.953125 3.328125 18.109375 8.203125 
z
M 48.6875 27.296875 
Q 48.6875 37.203125 44.609375 42.84375 
Q 40.53125 48.484375 33.40625 48.484375 
Q 26.265625 48.484375 22.1875 42.84375 
Q 18.109375 37.203125 18.109375 27.296875 
Q 18.109375 17.390625 22.1875 11.75 
Q 26.265625 6.109375 33.40625 6.109375 
Q 40.53125 6.109375 44.609375 11.75 
Q 48.6875 17.390625 48.6875 27.296875 
z
" id="DejaVuSans-112"/>
      <path d="M 44.28125 53.078125 
L 44.28125 44.578125 
Q 40.484375 46.53125 36.375 47.5 
Q 32.28125 48.484375 27.875 48.484375 
Q 21.1875 48.484375 17.84375 46.4375 
Q 14.5 44.390625 14.5 40.28125 
Q 14.5 37.15625 16.890625 35.375 
Q 19.28125 33.59375 26.515625 31.984375 
L 29.59375 31.296875 
Q 39.15625 29.25 43.1875 25.515625 
Q 47.21875 21.78125 47.21875 15.09375 
Q 47.21875 7.46875 41.1875 3.015625 
Q 35.15625 -1.421875 24.609375 -1.421875 
Q 20.21875 -1.421875 15.453125 -0.5625 
Q 10.6875 0.296875 5.421875 2 
L 5.421875 11.28125 
Q 10.40625 8.6875 15.234375 7.390625 
Q 20.0625 6.109375 24.8125 6.109375 
Q 31.15625 6.109375 34.5625 8.28125 
Q 37.984375 10.453125 37.984375 14.40625 
Q 37.984375 18.0625 35.515625 20.015625 
Q 33.0625 21.96875 24.703125 23.78125 
L 21.578125 24.515625 
Q 13.234375 26.265625 9.515625 29.90625 
Q 5.8125 33.546875 5.8125 39.890625 
Q 5.8125 47.609375 11.28125 51.796875 
Q 16.75 56 26.8125 56 
Q 31.78125 56 36.171875 55.265625 
Q 40.578125 54.546875 44.28125 53.078125 
z
" id="DejaVuSans-115"/>
      <path d="M 32.171875 -5.078125 
Q 28.375 -14.84375 24.75 -17.8125 
Q 21.140625 -20.796875 15.09375 -20.796875 
L 7.90625 -20.796875 
L 7.90625 -13.28125 
L 13.1875 -13.28125 
Q 16.890625 -13.28125 18.9375 -11.515625 
Q 21 -9.765625 23.484375 -3.21875 
L 25.09375 0.875 
L 2.984375 54.6875 
L 12.5 54.6875 
L 29.59375 11.921875 
L 46.6875 54.6875 
L 56.203125 54.6875 
z
" id="DejaVuSans-121"/>
      <path d="M 18.3125 70.21875 
L 18.3125 54.6875 
L 36.8125 54.6875 
L 36.8125 47.703125 
L 18.3125 47.703125 
L 18.3125 18.015625 
Q 18.3125 11.328125 20.140625 9.421875 
Q 21.96875 7.515625 27.59375 7.515625 
L 36.8125 7.515625 
L 36.8125 0 
L 27.59375 0 
Q 17.1875 0 13.234375 3.875 
Q 9.28125 7.765625 9.28125 18.015625 
L 9.28125 47.703125 
L 2.6875 47.703125 
L 2.6875 54.6875 
L 9.28125 54.6875 
L 9.28125 70.21875 
z
" id="DejaVuSans-116"/>
      <path d="M 34.28125 27.484375 
Q 23.390625 27.484375 19.1875 25 
Q 14.984375 22.515625 14.984375 16.5 
Q 14.984375 11.71875 18.140625 8.90625 
Q 21.296875 6.109375 26.703125 6.109375 
Q 34.1875 6.109375 38.703125 11.40625 
Q 43.21875 16.703125 43.21875 25.484375 
L 43.21875 27.484375 
z
M 52.203125 31.203125 
L 52.203125 0 
L 43.21875 0 
L 43.21875 8.296875 
Q 40.140625 3.328125 35.546875 0.953125 
Q 30.953125 -1.421875 24.3125 -1.421875 
Q 15.921875 -1.421875 10.953125 3.296875 
Q 6 8.015625 6 15.921875 
Q 6 25.140625 12.171875 29.828125 
Q 18.359375 34.515625 30.609375 34.515625 
L 43.21875 34.515625 
L 43.21875 35.40625 
Q 43.21875 41.609375 39.140625 45 
Q 35.0625 48.390625 27.6875 48.390625 
Q 23 48.390625 18.546875 47.265625 
Q 14.109375 46.140625 10.015625 43.890625 
L 10.015625 52.203125 
Q 14.9375 54.109375 19.578125 55.046875 
Q 24.21875 56 28.609375 56 
Q 40.484375 56 46.34375 49.84375 
Q 52.203125 43.703125 52.203125 31.203125 
z
" id="DejaVuSans-97"/>
      <path d="M 48.78125 52.59375 
L 48.78125 44.1875 
Q 44.96875 46.296875 41.140625 47.34375 
Q 37.3125 48.390625 33.40625 48.390625 
Q 24.65625 48.390625 19.8125 42.84375 
Q 14.984375 37.3125 14.984375 27.296875 
Q 14.984375 17.28125 19.8125 11.734375 
Q 24.65625 6.203125 33.40625 6.203125 
Q 37.3125 6.203125 41.140625 7.25 
Q 44.96875 8.296875 48.78125 10.40625 
L 48.78125 2.09375 
Q 45.015625 0.34375 40.984375 -0.53125 
Q 36.96875 -1.421875 32.421875 -1.421875 
Q 20.0625 -1.421875 12.78125 6.34375 
Q 5.515625 14.109375 5.515625 27.296875 
Q 5.515625 40.671875 12.859375 48.328125 
Q 20.21875 56 33.015625 56 
Q 37.15625 56 41.109375 55.140625 
Q 45.0625 54.296875 48.78125 52.59375 
z
" id="DejaVuSans-99"/>
     </defs>
     <g transform="translate(213.869375 335.860562)scale(0.1 -0.1)">
      <use xlink:href="#DejaVuSans-98"/>
      <use x="63.476562" xlink:href="#DejaVuSans-112"/>
      <use x="126.953125" xlink:href="#DejaVuSans-115"/>
      <use x="179.052734" xlink:href="#DejaVuSans-121"/>
      <use x="238.232422" xlink:href="#DejaVuSans-115"/>
      <use x="290.332031" xlink:href="#DejaVuSans-116"/>
      <use x="329.541016" xlink:href="#DejaVuSans-97"/>
      <use x="390.820312" xlink:href="#DejaVuSans-99"/>
     </g>
    </g>
   </g>
   <g id="matplotlib.axis_2">
    <g id="ytick_1">
     <g id="line2d_9">
      <defs>
       <path d="M 0 0 
L -3.5 0 
" id="m4239049766" style="stroke:#000000;stroke-width:0.8;"/>
      </defs>
      <g>
       <use style="stroke:#000000;stroke-width:0.8;" x="57.6" xlink:href="#m4239049766" y="174.528"/>
      </g>
     </g>
    </g>
   </g>
   <g id="line2d_10">
    <path clip-path="url(#pba89dda0c0)" d="M 109.808935 174.528 
L 334.626692 174.528 
" style="fill:none;stroke:#ffa500;stroke-linecap:square;stroke-width:1.5;"/>
   </g>
   <g id="line2d_11">
    <path clip-path="url(#pba89dda0c0)" d="M 193.897747 174.528 
L 254.023426 174.528 
" style="fill:none;stroke:#4c4c4c;stroke-linecap:square;stroke-width:4.5;"/>
   </g>
   <g id="line2d_12">
    <path clip-path="url(#pba89dda0c0)" d="M 146.407174 174.528 
L 327.655599 174.528 
" style="fill:none;stroke:#008000;stroke-linecap:square;stroke-width:1.5;"/>
   </g>
   <g id="line2d_13">
    <path clip-path="url(#pba89dda0c0)" d="M 196.9476 174.528 
L 252.716346 174.528 
" style="fill:none;stroke:#262626;stroke-linecap:square;stroke-width:4.5;"/>
   </g>
   <g id="patch_3">
    <path d="M 57.6 307.584 
L 57.6 41.472 
" style="fill:none;stroke:#000000;stroke-linecap:square;stroke-linejoin:miter;stroke-width:0.8;"/>
   </g>
   <g id="patch_4">
    <path d="M 414.72 307.584 
L 414.72 41.472 
" style="fill:none;stroke:#000000;stroke-linecap:square;stroke-linejoin:miter;stroke-width:0.8;"/>
   </g>
   <g id="patch_5">
    <path d="M 57.6 307.584 
L 414.72 307.584 
" style="fill:none;stroke:#000000;stroke-linecap:square;stroke-linejoin:miter;stroke-width:0.8;"/>
   </g>
   <g id="patch_6">
    <path d="M 57.6 41.472 
L 414.72 41.472 
" style="fill:none;stroke:#000000;stroke-linecap:square;stroke-linejoin:miter;stroke-width:0.8;"/>
   </g>
   <g id="PathCollection_1">
    <defs>
     <path d="M 0 1.5 
C 0.397805 1.5 0.77937 1.341951 1.06066 1.06066 
C 1.341951 0.77937 1.5 0.397805 1.5 0 
C 1.5 -0.397805 1.341951 -0.77937 1.06066 -1.06066 
C 0.77937 -1.341951 0.397805 -1.5 0 -1.5 
C -0.397805 -1.5 -0.77937 -1.341951 -1.06066 -1.06066 
C -1.341951 -0.77937 -1.5 -0.397805 -1.5 0 
C -1.5 0.397805 -1.341951 0.77937 -1.06066 1.06066 
C -0.77937 1.341951 -0.397805 1.5 0 1.5 
z
" id="mf37edeec99" style="stroke:#4c4c4c;stroke-opacity:0.5;"/>
    </defs>
    <g clip-path="url(#pba89dda0c0)">
     <use style="fill:#ffffff;fill-opacity:0.5;stroke:#4c4c4c;stroke-opacity:0.5;" x="222.217814" xlink:href="#mf37edeec99" y="174.528"/>
    </g>
   </g>
   <g id="PathCollection_2">
    <defs>
     <path d="M 0 1.5 
C 0.397805 1.5 0.77937 1.341951 1.06066 1.06066 
C 1.341951 0.77937 1.5 0.397805 1.5 0 
C 1.5 -0.397805 1.341951 -0.77937 1.06066 -1.06066 
C 0.77937 -1.341951 0.397805 -1.5 0 -1.5 
C -0.397805 -1.5 -0.77937 -1.341951 -1.06066 -1.06066 
C -1.341951 -0.77937 -1.5 -0.397805 -1.5 0 
C -1.5 0.397805 -1.341951 0.77937 -1.06066 1.06066 
C -0.77937 1.341951 -0.397805 1.5 0 1.5 
z
" id="m0abd7142a7" style="stroke:#262626;stroke-opacity:0.5;"/>
    </defs>
    <g clip-path="url(#pba89dda0c0)">
     <use style="fill:#ffffff;fill-opacity:0.5;stroke:#262626;stroke-opacity:0.5;" x="223.0892" xlink:href="#m0abd7142a7" y="174.528"/>
    </g>
   </g>
   <g id="text_10">
    <!-- Association of bpsystac vs. death -->
    <defs>
     <path d="M 34.1875 63.1875 
L 20.796875 26.90625 
L 47.609375 26.90625 
z
M 28.609375 72.90625 
L 39.796875 72.90625 
L 67.578125 0 
L 57.328125 0 
L 50.6875 18.703125 
L 17.828125 18.703125 
L 11.1875 0 
L 0.78125 0 
z
" id="DejaVuSans-65"/>
     <path d="M 30.609375 48.390625 
Q 23.390625 48.390625 19.1875 42.75 
Q 14.984375 37.109375 14.984375 27.296875 
Q 14.984375 17.484375 19.15625 11.84375 
Q 23.34375 6.203125 30.609375 6.203125 
Q 37.796875 6.203125 41.984375 11.859375 
Q 46.1875 17.53125 46.1875 27.296875 
Q 46.1875 37.015625 41.984375 42.703125 
Q 37.796875 48.390625 30.609375 48.390625 
z
M 30.609375 56 
Q 42.328125 56 49.015625 48.375 
Q 55.71875 40.765625 55.71875 27.296875 
Q 55.71875 13.875 49.015625 6.21875 
Q 42.328125 -1.421875 30.609375 -1.421875 
Q 18.84375 -1.421875 12.171875 6.21875 
Q 5.515625 13.875 5.515625 27.296875 
Q 5.515625 40.765625 12.171875 48.375 
Q 18.84375 56 30.609375 56 
z
" id="DejaVuSans-111"/>
     <path d="M 9.421875 54.6875 
L 18.40625 54.6875 
L 18.40625 0 
L 9.421875 0 
z
M 9.421875 75.984375 
L 18.40625 75.984375 
L 18.40625 64.59375 
L 9.421875 64.59375 
z
" id="DejaVuSans-105"/>
     <path d="M 54.890625 33.015625 
L 54.890625 0 
L 45.90625 0 
L 45.90625 32.71875 
Q 45.90625 40.484375 42.875 44.328125 
Q 39.84375 48.1875 33.796875 48.1875 
Q 26.515625 48.1875 22.3125 43.546875 
Q 18.109375 38.921875 18.109375 30.90625 
L 18.109375 0 
L 9.078125 0 
L 9.078125 54.6875 
L 18.109375 54.6875 
L 18.109375 46.1875 
Q 21.34375 51.125 25.703125 53.5625 
Q 30.078125 56 35.796875 56 
Q 45.21875 56 50.046875 50.171875 
Q 54.890625 44.34375 54.890625 33.015625 
z
" id="DejaVuSans-110"/>
     <path id="DejaVuSans-32"/>
     <path d="M 37.109375 75.984375 
L 37.109375 68.5 
L 28.515625 68.5 
Q 23.6875 68.5 21.796875 66.546875 
Q 19.921875 64.59375 19.921875 59.515625 
L 19.921875 54.6875 
L 34.71875 54.6875 
L 34.71875 47.703125 
L 19.921875 47.703125 
L 19.921875 0 
L 10.890625 0 
L 10.890625 47.703125 
L 2.296875 47.703125 
L 2.296875 54.6875 
L 10.890625 54.6875 
L 10.890625 58.5 
Q 10.890625 67.625 15.140625 71.796875 
Q 19.390625 75.984375 28.609375 75.984375 
z
" id="DejaVuSans-102"/>
     <path d="M 2.984375 54.6875 
L 12.5 54.6875 
L 29.59375 8.796875 
L 46.6875 54.6875 
L 56.203125 54.6875 
L 35.6875 0 
L 23.484375 0 
z
" id="DejaVuSans-118"/>
     <path d="M 10.6875 12.40625 
L 21 12.40625 
L 21 0 
L 10.6875 0 
z
" id="DejaVuSans-46"/>
     <path d="M 45.40625 46.390625 
L 45.40625 75.984375 
L 54.390625 75.984375 
L 54.390625 0 
L 45.40625 0 
L 45.40625 8.203125 
Q 42.578125 3.328125 38.25 0.953125 
Q 33.9375 -1.421875 27.875 -1.421875 
Q 17.96875 -1.421875 11.734375 6.484375 
Q 5.515625 14.40625 5.515625 27.296875 
Q 5.515625 40.1875 11.734375 48.09375 
Q 17.96875 56 27.875 56 
Q 33.9375 56 38.25 53.625 
Q 42.578125 51.265625 45.40625 46.390625 
z
M 14.796875 27.296875 
Q 14.796875 17.390625 18.875 11.75 
Q 22.953125 6.109375 30.078125 6.109375 
Q 37.203125 6.109375 41.296875 11.75 
Q 45.40625 17.390625 45.40625 27.296875 
Q 45.40625 37.203125 41.296875 42.84375 
Q 37.203125 48.484375 30.078125 48.484375 
Q 22.953125 48.484375 18.875 42.84375 
Q 14.796875 37.203125 14.796875 27.296875 
z
" id="DejaVuSans-100"/>
     <path d="M 56.203125 29.59375 
L 56.203125 25.203125 
L 14.890625 25.203125 
Q 15.484375 15.921875 20.484375 11.0625 
Q 25.484375 6.203125 34.421875 6.203125 
Q 39.59375 6.203125 44.453125 7.46875 
Q 49.3125 8.734375 54.109375 11.28125 
L 54.109375 2.78125 
Q 49.265625 0.734375 44.1875 -0.34375 
Q 39.109375 -1.421875 33.890625 -1.421875 
Q 20.796875 -1.421875 13.15625 6.1875 
Q 5.515625 13.8125 5.515625 26.8125 
Q 5.515625 40.234375 12.765625 48.109375 
Q 20.015625 56 32.328125 56 
Q 43.359375 56 49.78125 48.890625 
Q 56.203125 41.796875 56.203125 29.59375 
z
M 47.21875 32.234375 
Q 47.125 39.59375 43.09375 43.984375 
Q 39.0625 48.390625 32.421875 48.390625 
Q 24.90625 48.390625 20.390625 44.140625 
Q 15.875 39.890625 15.1875 32.171875 
z
" id="DejaVuSans-101"/>
     <path d="M 54.890625 33.015625 
L 54.890625 0 
L 45.90625 0 
L 45.90625 32.71875 
Q 45.90625 40.484375 42.875 44.328125 
Q 39.84375 48.1875 33.796875 48.1875 
Q 26.515625 48.1875 22.3125 43.546875 
Q 18.109375 38.921875 18.109375 30.90625 
L 18.109375 0 
L 9.078125 0 
L 9.078125 75.984375 
L 18.109375 75.984375 
L 18.109375 46.1875 
Q 21.34375 51.125 25.703125 53.5625 
Q 30.078125 56 35.796875 56 
Q 45.21875 56 50.046875 50.171875 
Q 54.890625 44.34375 54.890625 33.015625 
z
" id="DejaVuSans-104"/>
    </defs>
    <g transform="translate(135.921562 35.472)scale(0.12 -0.12)">
     <use xlink:href="#DejaVuSans-65"/>
     <use x="68.408203" xlink:href="#DejaVuSans-115"/>
     <use x="120.507812" xlink:href="#DejaVuSans-115"/>
     <use x="172.607422" xlink:href="#DejaVuSans-111"/>
     <use x="233.789062" xlink:href="#DejaVuSans-99"/>
     <use x="288.769531" xlink:href="#DejaVuSans-105"/>
     <use x="316.552734" xlink:href="#DejaVuSans-97"/>
     <use x="377.832031" xlink:href="#DejaVuSans-116"/>
     <use x="417.041016" xlink:href="#DejaVuSans-105"/>
     <use x="444.824219" xlink:href="#DejaVuSans-111"/>
     <use x="506.005859" xlink:href="#DejaVuSans-110"/>
     <use x="569.384766" xlink:href="#DejaVuSans-32"/>
     <use x="601.171875" xlink:href="#DejaVuSans-111"/>
     <use x="662.353516" xlink:href="#DejaVuSans-102"/>
     <use x="697.558594" xlink:href="#DejaVuSans-32"/>
     <use x="729.345703" xlink:href="#DejaVuSans-98"/>
     <use x="792.822266" xlink:href="#DejaVuSans-112"/>
     <use x="856.298828" xlink:href="#DejaVuSans-115"/>
     <use x="908.398438" xlink:href="#DejaVuSans-121"/>
     <use x="967.578125" xlink:href="#DejaVuSans-115"/>
     <use x="1019.677734" xlink:href="#DejaVuSans-116"/>
     <use x="1058.886719" xlink:href="#DejaVuSans-97"/>
     <use x="1120.166016" xlink:href="#DejaVuSans-99"/>
     <use x="1175.146484" xlink:href="#DejaVuSans-32"/>
     <use x="1206.933594" xlink:href="#DejaVuSans-118"/>
     <use x="1266.113281" xlink:href="#DejaVuSans-115"/>
     <use x="1318.212891" xlink:href="#DejaVuSans-46"/>
     <use x="1350" xlink:href="#DejaVuSans-32"/>
     <use x="1381.787109" xlink:href="#DejaVuSans-100"/>
     <use x="1445.263672" xlink:href="#DejaVuSans-101"/>
     <use x="1506.787109" xlink:href="#DejaVuSans-97"/>
     <use x="1568.066406" xlink:href="#DejaVuSans-116"/>
     <use x="1607.275391" xlink:href="#DejaVuSans-104"/>
    </g>
   </g>
   <g id="legend_1">
    <g id="patch_7">
     <path d="M 296.065313 78.82825 
L 407.72 78.82825 
Q 409.72 78.82825 409.72 76.82825 
L 409.72 48.472 
Q 409.72 46.472 407.72 46.472 
L 296.065313 46.472 
Q 294.065313 46.472 294.065313 48.472 
L 294.065313 76.82825 
Q 294.065313 78.82825 296.065313 78.82825 
z
" style="fill:#ffffff;opacity:0.8;stroke:#cccccc;stroke-linejoin:miter;"/>
    </g>
    <g id="line2d_14">
     <path d="M 298.065313 54.570437 
L 318.065313 54.570437 
" style="fill:none;stroke:#ffa500;stroke-linecap:square;stroke-width:1.5;"/>
    </g>
    <g id="line2d_15"/>
    <g id="text_11">
     <!-- death (114) -->
     <defs>
      <path d="M 31 75.875 
Q 24.46875 64.65625 21.28125 53.65625 
Q 18.109375 42.671875 18.109375 31.390625 
Q 18.109375 20.125 21.3125 9.0625 
Q 24.515625 -2 31 -13.1875 
L 23.1875 -13.1875 
Q 15.875 -1.703125 12.234375 9.375 
Q 8.59375 20.453125 8.59375 31.390625 
Q 8.59375 42.28125 12.203125 53.3125 
Q 15.828125 64.359375 23.1875 75.875 
z
" id="DejaVuSans-40"/>
      <path d="M 37.796875 64.3125 
L 12.890625 25.390625 
L 37.796875 25.390625 
z
M 35.203125 72.90625 
L 47.609375 72.90625 
L 47.609375 25.390625 
L 58.015625 25.390625 
L 58.015625 17.1875 
L 47.609375 17.1875 
L 47.609375 0 
L 37.796875 0 
L 37.796875 17.1875 
L 4.890625 17.1875 
L 4.890625 26.703125 
z
" id="DejaVuSans-52"/>
      <path d="M 8.015625 75.875 
L 15.828125 75.875 
Q 23.140625 64.359375 26.78125 53.3125 
Q 30.421875 42.28125 30.421875 31.390625 
Q 30.421875 20.453125 26.78125 9.375 
Q 23.140625 -1.703125 15.828125 -13.1875 
L 8.015625 -13.1875 
Q 14.5 -2 17.703125 9.0625 
Q 20.90625 20.125 20.90625 31.390625 
Q 20.90625 42.671875 17.703125 53.65625 
Q 14.5 64.65625 8.015625 75.875 
z
" id="DejaVuSans-41"/>
     </defs>
     <g transform="translate(326.065313 58.070437)scale(0.1 -0.1)">
      <use xlink:href="#DejaVuSans-100"/>
      <use x="63.476562" xlink:href="#DejaVuSans-101"/>
      <use x="125" xlink:href="#DejaVuSans-97"/>
      <use x="186.279297" xlink:href="#DejaVuSans-116"/>
      <use x="225.488281" xlink:href="#DejaVuSans-104"/>
      <use x="288.867188" xlink:href="#DejaVuSans-32"/>
      <use x="320.654297" xlink:href="#DejaVuSans-40"/>
      <use x="359.667969" xlink:href="#DejaVuSans-49"/>
      <use x="423.291016" xlink:href="#DejaVuSans-49"/>
      <use x="486.914062" xlink:href="#DejaVuSans-52"/>
      <use x="550.537109" xlink:href="#DejaVuSans-41"/>
     </g>
    </g>
    <g id="line2d_16">
     <path d="M 298.065313 69.248562 
L 318.065313 69.248562 
" style="fill:none;stroke:#008000;stroke-linecap:square;stroke-width:1.5;"/>
    </g>
    <g id="line2d_17"/>
    <g id="text_12">
     <!-- Not death (299) -->
     <defs>
      <path d="M 9.8125 72.90625 
L 23.09375 72.90625 
L 55.421875 11.921875 
L 55.421875 72.90625 
L 64.984375 72.90625 
L 64.984375 0 
L 51.703125 0 
L 19.390625 60.984375 
L 19.390625 0 
L 9.8125 0 
z
" id="DejaVuSans-78"/>
      <path d="M 10.984375 1.515625 
L 10.984375 10.5 
Q 14.703125 8.734375 18.5 7.8125 
Q 22.3125 6.890625 25.984375 6.890625 
Q 35.75 6.890625 40.890625 13.453125 
Q 46.046875 20.015625 46.78125 33.40625 
Q 43.953125 29.203125 39.59375 26.953125 
Q 35.25 24.703125 29.984375 24.703125 
Q 19.046875 24.703125 12.671875 31.3125 
Q 6.296875 37.9375 6.296875 49.421875 
Q 6.296875 60.640625 12.9375 67.421875 
Q 19.578125 74.21875 30.609375 74.21875 
Q 43.265625 74.21875 49.921875 64.515625 
Q 56.59375 54.828125 56.59375 36.375 
Q 56.59375 19.140625 48.40625 8.859375 
Q 40.234375 -1.421875 26.421875 -1.421875 
Q 22.703125 -1.421875 18.890625 -0.6875 
Q 15.09375 0.046875 10.984375 1.515625 
z
M 30.609375 32.421875 
Q 37.25 32.421875 41.125 36.953125 
Q 45.015625 41.5 45.015625 49.421875 
Q 45.015625 57.28125 41.125 61.84375 
Q 37.25 66.40625 30.609375 66.40625 
Q 23.96875 66.40625 20.09375 61.84375 
Q 16.21875 57.28125 16.21875 49.421875 
Q 16.21875 41.5 20.09375 36.953125 
Q 23.96875 32.421875 30.609375 32.421875 
z
" id="DejaVuSans-57"/>
     </defs>
     <g transform="translate(326.065313 72.748562)scale(0.1 -0.1)">
      <use xlink:href="#DejaVuSans-78"/>
      <use x="74.804688" xlink:href="#DejaVuSans-111"/>
      <use x="135.986328" xlink:href="#DejaVuSans-116"/>
      <use x="175.195312" xlink:href="#DejaVuSans-32"/>
      <use x="206.982422" xlink:href="#DejaVuSans-100"/>
      <use x="270.458984" xlink:href="#DejaVuSans-101"/>
      <use x="331.982422" xlink:href="#DejaVuSans-97"/>
      <use x="393.261719" xlink:href="#DejaVuSans-116"/>
      <use x="432.470703" xlink:href="#DejaVuSans-104"/>
      <use x="495.849609" xlink:href="#DejaVuSans-32"/>
      <use x="527.636719" xlink:href="#DejaVuSans-40"/>
      <use x="566.650391" xlink:href="#DejaVuSans-50"/>
      <use x="630.273438" xlink:href="#DejaVuSans-57"/>
      <use x="693.896484" xlink:href="#DejaVuSans-57"/>
      <use x="757.519531" xlink:href="#DejaVuSans-41"/>
     </g>
    </g>
   </g>
  </g>
 </g>
 <defs>
  <clipPath id="pba89dda0c0">
   <rect height="266.112" width="357.12" x="57.6" y="41.472"/>
  </clipPath>
 </defs>
</svg>
