<?xml version="1.0" encoding="utf-8" standalone="no"?>
<!DOCTYPE svg PUBLIC "-//W3C//DTD SVG 1.1//EN"
  "http://www.w3.org/Graphics/SVG/1.1/DTD/svg11.dtd">
<!-- Created with matplotlib (https://matplotlib.org/) -->
<svg height="345.6pt" version="1.1" viewBox="0 0 460.8 345.6" width="460.8pt" xmlns="http://www.w3.org/2000/svg" xmlns:xlink="http://www.w3.org/1999/xlink">
 <defs>
  <style type="text/css">
*{stroke-linecap:butt;stroke-linejoin:round;}
  </style>
 </defs>
 <g id="figure_1">
  <g id="patch_1">
   <path d="M 0 345.6 
L 460.8 345.6 
L 460.8 0 
L 0 0 
z
" style="fill:#ffffff;"/>
  </g>
  <g id="axes_1">
   <g id="patch_2">
    <path d="M 57.6 307.584 
L 414.72 307.584 
L 414.72 41.472 
L 57.6 41.472 
z
" style="fill:#ffffff;"/>
   </g>
   <g id="PolyCollection_1">
    <defs>
     <path d="M 86.018563 -170.909007 
L 86.018563 -171.234993 
L 89.174813 -171.326918 
L 92.331063 -171.450431 
L 95.487312 -171.606355 
L 98.643562 -171.792142 
L 101.799811 -172.003463 
L 104.956061 -172.238391 
L 108.112311 -172.504086 
L 111.26856 -172.824788 
L 114.42481 -173.24897 
L 117.581059 -173.853035 
L 120.737309 -174.73941 
L 123.893559 -176.028128 
L 127.049808 -177.842636 
L 130.206058 -180.292065 
L 133.362307 -183.45294 
L 136.518557 -187.353303 
L 139.674806 -191.961557 
L 142.831056 -197.181727 
L 145.987306 -202.85649 
L 149.143555 -208.77926 
L 152.299805 -214.716188 
L 155.456054 -220.437388 
L 158.612304 -225.753756 
L 161.768554 -230.552271 
L 164.924803 -234.820326 
L 168.081053 -238.650354 
L 171.237302 -242.220498 
L 174.393552 -245.754118 
L 177.549802 -249.467843 
L 180.706051 -253.521708 
L 183.862301 -257.98394 
L 187.01855 -262.817853 
L 190.1748 -267.891238 
L 193.331049 -273.002434 
L 196.487299 -277.913906 
L 199.643549 -282.384239 
L 202.799798 -286.192548 
L 205.956048 -289.153905 
L 209.112297 -291.128801 
L 212.268547 -292.032 
L 215.424797 -291.844935 
L 218.581046 -290.631216 
L 221.737296 -288.548711 
L 224.893545 -285.847544 
L 228.049795 -282.844336 
L 231.206045 -279.870161 
L 234.362294 -277.200703 
L 237.518544 -274.98714 
L 240.674793 -273.210387 
L 243.831043 -271.676718 
L 246.987292 -270.060565 
L 250.143542 -267.984935 
L 253.299792 -265.117223 
L 256.456041 -261.253065 
L 259.612291 -256.365078 
L 262.76854 -250.604944 
L 265.92479 -244.261882 
L 269.08104 -237.692801 
L 272.237289 -231.245507 
L 275.393539 -225.195181 
L 278.549788 -219.707457 
L 281.706038 -214.832156 
L 284.862288 -210.523342 
L 288.018537 -206.676043 
L 291.174787 -203.168296 
L 294.331036 -199.898393 
L 297.487286 -196.810018 
L 300.643535 -193.901371 
L 303.799785 -191.217746 
L 306.956035 -188.830426 
L 310.112284 -186.807713 
L 313.268534 -185.186132 
L 316.424783 -183.950261 
L 319.581033 -183.027697 
L 322.737283 -182.301475 
L 325.893532 -181.63678 
L 329.049782 -180.91402 
L 332.206031 -180.057962 
L 335.362281 -179.053925 
L 338.518531 -177.946443 
L 341.67478 -176.821812 
L 344.83103 -175.780965 
L 347.987279 -174.911462 
L 351.143529 -174.266443 
L 354.299778 -173.855089 
L 357.456028 -173.645132 
L 360.612278 -173.574764 
L 363.768527 -173.569518 
L 366.924777 -173.559457 
L 370.081026 -173.492744 
L 373.237276 -173.343084 
L 376.393526 -173.110235 
L 379.549775 -172.814584 
L 382.706025 -172.488086 
L 385.862274 -172.164537 
L 389.018524 -171.871765 
L 392.174774 -171.627288 
L 395.331023 -171.437605 
L 398.487273 -171.300235 
L 398.487273 -170.843765 
L 398.487273 -170.843765 
L 395.331023 -170.706395 
L 392.174774 -170.516712 
L 389.018524 -170.272235 
L 385.862274 -169.979463 
L 382.706025 -169.655914 
L 379.549775 -169.329416 
L 376.393526 -169.033765 
L 373.237276 -168.800916 
L 370.081026 -168.651256 
L 366.924777 -168.584543 
L 363.768527 -168.574482 
L 360.612278 -168.569236 
L 357.456028 -168.498868 
L 354.299778 -168.288911 
L 351.143529 -167.877557 
L 347.987279 -167.232538 
L 344.83103 -166.363035 
L 341.67478 -165.322188 
L 338.518531 -164.197557 
L 335.362281 -163.090075 
L 332.206031 -162.086038 
L 329.049782 -161.22998 
L 325.893532 -160.50722 
L 322.737283 -159.842525 
L 319.581033 -159.116303 
L 316.424783 -158.193739 
L 313.268534 -156.957868 
L 310.112284 -155.336287 
L 306.956035 -153.313574 
L 303.799785 -150.926254 
L 300.643535 -148.242629 
L 297.487286 -145.333982 
L 294.331036 -142.245607 
L 291.174787 -138.975704 
L 288.018537 -135.467957 
L 284.862288 -131.620658 
L 281.706038 -127.311844 
L 278.549788 -122.436543 
L 275.393539 -116.948819 
L 272.237289 -110.898493 
L 269.08104 -104.451199 
L 265.92479 -97.882118 
L 262.76854 -91.539056 
L 259.612291 -85.778922 
L 256.456041 -80.890935 
L 253.299792 -77.026777 
L 250.143542 -74.159065 
L 246.987292 -72.083435 
L 243.831043 -70.467282 
L 240.674793 -68.933613 
L 237.518544 -67.15686 
L 234.362294 -64.943297 
L 231.206045 -62.273839 
L 228.049795 -59.299664 
L 224.893545 -56.296456 
L 221.737296 -53.595289 
L 218.581046 -51.512784 
L 215.424797 -50.299065 
L 212.268547 -50.112 
L 209.112297 -51.015199 
L 205.956048 -52.990095 
L 202.799798 -55.951452 
L 199.643549 -59.759761 
L 196.487299 -64.230094 
L 193.331049 -69.141566 
L 190.1748 -74.252762 
L 187.01855 -79.326147 
L 183.862301 -84.16006 
L 180.706051 -88.622292 
L 177.549802 -92.676157 
L 174.393552 -96.389882 
L 171.237302 -99.923502 
L 168.081053 -103.493646 
L 164.924803 -107.323674 
L 161.768554 -111.591729 
L 158.612304 -116.390244 
L 155.456054 -121.706612 
L 152.299805 -127.427812 
L 149.143555 -133.36474 
L 145.987306 -139.28751 
L 142.831056 -144.962273 
L 139.674806 -150.182443 
L 136.518557 -154.790697 
L 133.362307 -158.69106 
L 130.206058 -161.851935 
L 127.049808 -164.301364 
L 123.893559 -166.115872 
L 120.737309 -167.40459 
L 117.581059 -168.290965 
L 114.42481 -168.89503 
L 111.26856 -169.319212 
L 108.112311 -169.639914 
L 104.956061 -169.905609 
L 101.799811 -170.140537 
L 98.643562 -170.351858 
L 95.487312 -170.537645 
L 92.331063 -170.693569 
L 89.174813 -170.817082 
L 86.018563 -170.909007 
z
" id="m1160a96777" style="stroke:#4c4c4c;stroke-opacity:0.5;stroke-width:1.5;"/>
    </defs>
    <g clip-path="url(#p93d529fefb)">
     <use style="fill:#df9c20;fill-opacity:0.5;stroke:#4c4c4c;stroke-opacity:0.5;stroke-width:1.5;" x="0" xlink:href="#m1160a96777" y="345.6"/>
    </g>
   </g>
   <g id="PolyCollection_2">
    <defs>
     <path d="M 73.832727 -170.780031 
L 73.832727 -171.363969 
L 76.869599 -171.502968 
L 79.90647 -171.683716 
L 82.943341 -171.907521 
L 85.980212 -172.171239 
L 89.017083 -172.466872 
L 92.053955 -172.782318 
L 95.090826 -173.103364 
L 98.127697 -173.416669 
L 101.164568 -173.713104 
L 104.20144 -173.990571 
L 107.238311 -174.255539 
L 110.275182 -174.522846 
L 113.312053 -174.813888 
L 116.348925 -175.153849 
L 119.385796 -175.568986 
L 122.422667 -176.085041 
L 125.459538 -176.727631 
L 128.49641 -177.525029 
L 131.533281 -178.513154 
L 134.570152 -179.742007 
L 137.607023 -181.28203 
L 140.643895 -183.228337 
L 143.680766 -185.700334 
L 146.717637 -188.834518 
L 149.754508 -192.769237 
L 152.791379 -197.622139 
L 155.828251 -203.463394 
L 158.865122 -210.290046 
L 161.901993 -218.007927 
L 164.938864 -226.42699 
L 167.975736 -235.273333 
L 171.012607 -244.21726 
L 174.049478 -252.912487 
L 177.086349 -261.038469 
L 180.123221 -268.336914 
L 183.160092 -274.635237 
L 186.196963 -279.853476 
L 189.233834 -283.995787 
L 192.270706 -287.131344 
L 195.307577 -289.371138 
L 198.344448 -290.846364 
L 201.381319 -291.691471 
L 204.418191 -292.032 
L 207.455062 -291.975435 
L 210.491933 -291.603281 
L 213.528804 -290.964175 
L 216.565675 -290.06985 
L 219.602547 -288.896841 
L 222.639418 -287.395992 
L 225.676289 -285.509247 
L 228.71316 -283.190051 
L 231.750032 -280.421446 
L 234.786903 -277.225934 
L 237.823774 -273.663565 
L 240.860645 -269.818654 
L 243.897517 -265.779552 
L 246.934388 -261.618264 
L 249.971259 -257.376722 
L 253.00813 -253.064149 
L 256.045002 -248.666131 
L 259.081873 -244.162256 
L 262.118744 -239.546496 
L 265.155615 -234.843842 
L 268.192487 -230.117964 
L 271.229358 -225.467395 
L 274.266229 -221.011064 
L 277.3031 -216.866936 
L 280.339971 -213.12925 
L 283.376843 -209.850067 
L 286.413714 -207.029496 
L 289.450585 -204.616604 
L 292.487456 -202.520374 
L 295.524328 -200.627831 
L 298.561199 -198.825142 
L 301.59807 -197.017253 
L 304.634941 -195.142412 
L 307.671813 -193.179269 
L 310.708684 -191.145938 
L 313.745555 -189.091972 
L 316.782426 -187.08541 
L 319.819298 -185.197715 
L 322.856169 -183.489568 
L 325.89304 -182.000031 
L 328.929911 -180.740784 
L 331.966783 -179.696104 
L 335.003654 -178.828142 
L 338.040525 -178.086047 
L 341.077396 -177.416788 
L 344.114267 -176.775282 
L 347.151139 -176.131694 
L 350.18801 -175.474607 
L 353.224881 -174.809811 
L 356.261752 -174.155594 
L 359.298624 -173.536156 
L 362.335495 -172.975001 
L 365.372366 -172.489845 
L 368.409237 -172.089884 
L 371.446109 -171.775488 
L 374.48298 -171.539755 
L 374.48298 -170.604245 
L 374.48298 -170.604245 
L 371.446109 -170.368512 
L 368.409237 -170.054116 
L 365.372366 -169.654155 
L 362.335495 -169.168999 
L 359.298624 -168.607844 
L 356.261752 -167.988406 
L 353.224881 -167.334189 
L 350.18801 -166.669393 
L 347.151139 -166.012306 
L 344.114267 -165.368718 
L 341.077396 -164.727212 
L 338.040525 -164.057953 
L 335.003654 -163.315858 
L 331.966783 -162.447896 
L 328.929911 -161.403216 
L 325.89304 -160.143969 
L 322.856169 -158.654432 
L 319.819298 -156.946285 
L 316.782426 -155.05859 
L 313.745555 -153.052028 
L 310.708684 -150.998062 
L 307.671813 -148.964731 
L 304.634941 -147.001588 
L 301.59807 -145.126747 
L 298.561199 -143.318858 
L 295.524328 -141.516169 
L 292.487456 -139.623626 
L 289.450585 -137.527396 
L 286.413714 -135.114504 
L 283.376843 -132.293933 
L 280.339971 -129.01475 
L 277.3031 -125.277064 
L 274.266229 -121.132936 
L 271.229358 -116.676605 
L 268.192487 -112.026036 
L 265.155615 -107.300158 
L 262.118744 -102.597504 
L 259.081873 -97.981744 
L 256.045002 -93.477869 
L 253.00813 -89.079851 
L 249.971259 -84.767278 
L 246.934388 -80.525736 
L 243.897517 -76.364448 
L 240.860645 -72.325346 
L 237.823774 -68.480435 
L 234.786903 -64.918066 
L 231.750032 -61.722554 
L 228.71316 -58.953949 
L 225.676289 -56.634753 
L 222.639418 -54.748008 
L 219.602547 -53.247159 
L 216.565675 -52.07415 
L 213.528804 -51.179825 
L 210.491933 -50.540719 
L 207.455062 -50.168565 
L 204.418191 -50.112 
L 201.381319 -50.452529 
L 198.344448 -51.297636 
L 195.307577 -52.772862 
L 192.270706 -55.012656 
L 189.233834 -58.148213 
L 186.196963 -62.290524 
L 183.160092 -67.508763 
L 180.123221 -73.807086 
L 177.086349 -81.105531 
L 174.049478 -89.231513 
L 171.012607 -97.92674 
L 167.975736 -106.870667 
L 164.938864 -115.71701 
L 161.901993 -124.136073 
L 158.865122 -131.853954 
L 155.828251 -138.680606 
L 152.791379 -144.521861 
L 149.754508 -149.374763 
L 146.717637 -153.309482 
L 143.680766 -156.443666 
L 140.643895 -158.915663 
L 137.607023 -160.86197 
L 134.570152 -162.401993 
L 131.533281 -163.630846 
L 128.49641 -164.618971 
L 125.459538 -165.416369 
L 122.422667 -166.058959 
L 119.385796 -166.575014 
L 116.348925 -166.990151 
L 113.312053 -167.330112 
L 110.275182 -167.621154 
L 107.238311 -167.888461 
L 104.20144 -168.153429 
L 101.164568 -168.430896 
L 98.127697 -168.727331 
L 95.090826 -169.040636 
L 92.053955 -169.361682 
L 89.017083 -169.677128 
L 85.980212 -169.972761 
L 82.943341 -170.236479 
L 79.90647 -170.460284 
L 76.869599 -170.641032 
L 73.832727 -170.780031 
z
" id="m89abed33cf" style="stroke:#262626;stroke-opacity:0.5;stroke-width:1.5;"/>
    </defs>
    <g clip-path="url(#p93d529fefb)">
     <use style="fill:#107010;fill-opacity:0.5;stroke:#262626;stroke-opacity:0.5;stroke-width:1.5;" x="0" xlink:href="#m89abed33cf" y="345.6"/>
    </g>
   </g>
   <g id="matplotlib.axis_1">
    <g id="xtick_1">
     <g id="line2d_1">
      <defs>
       <path d="M 0 0 
L 0 3.5 
" id="m1e93219f36" style="stroke:#000000;stroke-width:0.8;"/>
      </defs>
      <g>
       <use style="stroke:#000000;stroke-width:0.8;" x="73.064065" xlink:href="#m1e93219f36" y="307.584"/>
      </g>
     </g>
     <g id="text_1">
      <!-- 50 -->
      <defs>
       <path d="M 10.796875 72.90625 
L 49.515625 72.90625 
L 49.515625 64.59375 
L 19.828125 64.59375 
L 19.828125 46.734375 
Q 21.96875 47.46875 24.109375 47.828125 
Q 26.265625 48.1875 28.421875 48.1875 
Q 40.625 48.1875 47.75 41.5 
Q 54.890625 34.8125 54.890625 23.390625 
Q 54.890625 11.625 47.5625 5.09375 
Q 40.234375 -1.421875 26.90625 -1.421875 
Q 22.3125 -1.421875 17.546875 -0.640625 
Q 12.796875 0.140625 7.71875 1.703125 
L 7.71875 11.625 
Q 12.109375 9.234375 16.796875 8.0625 
Q 21.484375 6.890625 26.703125 6.890625 
Q 35.15625 6.890625 40.078125 11.328125 
Q 45.015625 15.765625 45.015625 23.390625 
Q 45.015625 31 40.078125 35.4375 
Q 35.15625 39.890625 26.703125 39.890625 
Q 22.75 39.890625 18.8125 39.015625 
Q 14.890625 38.140625 10.796875 36.28125 
z
" id="DejaVuSans-53"/>
       <path d="M 31.78125 66.40625 
Q 24.171875 66.40625 20.328125 58.90625 
Q 16.5 51.421875 16.5 36.375 
Q 16.5 21.390625 20.328125 13.890625 
Q 24.171875 6.390625 31.78125 6.390625 
Q 39.453125 6.390625 43.28125 13.890625 
Q 47.125 21.390625 47.125 36.375 
Q 47.125 51.421875 43.28125 58.90625 
Q 39.453125 66.40625 31.78125 66.40625 
z
M 31.78125 74.21875 
Q 44.046875 74.21875 50.515625 64.515625 
Q 56.984375 54.828125 56.984375 36.375 
Q 56.984375 17.96875 50.515625 8.265625 
Q 44.046875 -1.421875 31.78125 -1.421875 
Q 19.53125 -1.421875 13.0625 8.265625 
Q 6.59375 17.96875 6.59375 36.375 
Q 6.59375 54.828125 13.0625 64.515625 
Q 19.53125 74.21875 31.78125 74.21875 
z
" id="DejaVuSans-48"/>
      </defs>
      <g transform="translate(66.701565 322.182437)scale(0.1 -0.1)">
       <use xlink:href="#DejaVuSans-53"/>
       <use x="63.623047" xlink:href="#DejaVuSans-48"/>
      </g>
     </g>
    </g>
    <g id="xtick_2">
     <g id="line2d_2">
      <g>
       <use style="stroke:#000000;stroke-width:0.8;" x="118.301726" xlink:href="#m1e93219f36" y="307.584"/>
      </g>
     </g>
     <g id="text_2">
      <!-- 75 -->
      <defs>
       <path d="M 8.203125 72.90625 
L 55.078125 72.90625 
L 55.078125 68.703125 
L 28.609375 0 
L 18.3125 0 
L 43.21875 64.59375 
L 8.203125 64.59375 
z
" id="DejaVuSans-55"/>
      </defs>
      <g transform="translate(111.939226 322.182437)scale(0.1 -0.1)">
       <use xlink:href="#DejaVuSans-55"/>
       <use x="63.623047" xlink:href="#DejaVuSans-53"/>
      </g>
     </g>
    </g>
    <g id="xtick_3">
     <g id="line2d_3">
      <g>
       <use style="stroke:#000000;stroke-width:0.8;" x="163.539387" xlink:href="#m1e93219f36" y="307.584"/>
      </g>
     </g>
     <g id="text_3">
      <!-- 100 -->
      <defs>
       <path d="M 12.40625 8.296875 
L 28.515625 8.296875 
L 28.515625 63.921875 
L 10.984375 60.40625 
L 10.984375 69.390625 
L 28.421875 72.90625 
L 38.28125 72.90625 
L 38.28125 8.296875 
L 54.390625 8.296875 
L 54.390625 0 
L 12.40625 0 
z
" id="DejaVuSans-49"/>
      </defs>
      <g transform="translate(153.995637 322.182437)scale(0.1 -0.1)">
       <use xlink:href="#DejaVuSans-49"/>
       <use x="63.623047" xlink:href="#DejaVuSans-48"/>
       <use x="127.246094" xlink:href="#DejaVuSans-48"/>
      </g>
     </g>
    </g>
    <g id="xtick_4">
     <g id="line2d_4">
      <g>
       <use style="stroke:#000000;stroke-width:0.8;" x="208.777049" xlink:href="#m1e93219f36" y="307.584"/>
      </g>
     </g>
     <g id="text_4">
      <!-- 125 -->
      <defs>
       <path d="M 19.1875 8.296875 
L 53.609375 8.296875 
L 53.609375 0 
L 7.328125 0 
L 7.328125 8.296875 
Q 12.9375 14.109375 22.625 23.890625 
Q 32.328125 33.6875 34.8125 36.53125 
Q 39.546875 41.84375 41.421875 45.53125 
Q 43.3125 49.21875 43.3125 52.78125 
Q 43.3125 58.59375 39.234375 62.25 
Q 35.15625 65.921875 28.609375 65.921875 
Q 23.96875 65.921875 18.8125 64.3125 
Q 13.671875 62.703125 7.8125 59.421875 
L 7.8125 69.390625 
Q 13.765625 71.78125 18.9375 73 
Q 24.125 74.21875 28.421875 74.21875 
Q 39.75 74.21875 46.484375 68.546875 
Q 53.21875 62.890625 53.21875 53.421875 
Q 53.21875 48.921875 51.53125 44.890625 
Q 49.859375 40.875 45.40625 35.40625 
Q 44.1875 33.984375 37.640625 27.21875 
Q 31.109375 20.453125 19.1875 8.296875 
z
" id="DejaVuSans-50"/>
      </defs>
      <g transform="translate(199.233299 322.182437)scale(0.1 -0.1)">
       <use xlink:href="#DejaVuSans-49"/>
       <use x="63.623047" xlink:href="#DejaVuSans-50"/>
       <use x="127.246094" xlink:href="#DejaVuSans-53"/>
      </g>
     </g>
    </g>
    <g id="xtick_5">
     <g id="line2d_5">
      <g>
       <use style="stroke:#000000;stroke-width:0.8;" x="254.01471" xlink:href="#m1e93219f36" y="307.584"/>
      </g>
     </g>
     <g id="text_5">
      <!-- 150 -->
      <g transform="translate(244.47096 322.182437)scale(0.1 -0.1)">
       <use xlink:href="#DejaVuSans-49"/>
       <use x="63.623047" xlink:href="#DejaVuSans-53"/>
       <use x="127.246094" xlink:href="#DejaVuSans-48"/>
      </g>
     </g>
    </g>
    <g id="xtick_6">
     <g id="line2d_6">
      <g>
       <use style="stroke:#000000;stroke-width:0.8;" x="299.252371" xlink:href="#m1e93219f36" y="307.584"/>
      </g>
     </g>
     <g id="text_6">
      <!-- 175 -->
      <g transform="translate(289.708621 322.182437)scale(0.1 -0.1)">
       <use xlink:href="#DejaVuSans-49"/>
       <use x="63.623047" xlink:href="#DejaVuSans-55"/>
       <use x="127.246094" xlink:href="#DejaVuSans-53"/>
      </g>
     </g>
    </g>
    <g id="xtick_7">
     <g id="line2d_7">
      <g>
       <use style="stroke:#000000;stroke-width:0.8;" x="344.490033" xlink:href="#m1e93219f36" y="307.584"/>
      </g>
     </g>
     <g id="text_7">
      <!-- 200 -->
      <g transform="translate(334.946283 322.182437)scale(0.1 -0.1)">
       <use xlink:href="#DejaVuSans-50"/>
       <use x="63.623047" xlink:href="#DejaVuSans-48"/>
       <use x="127.246094" xlink:href="#DejaVuSans-48"/>
      </g>
     </g>
    </g>
    <g id="xtick_8">
     <g id="line2d_8">
      <g>
       <use style="stroke:#000000;stroke-width:0.8;" x="389.727694" xlink:href="#m1e93219f36" y="307.584"/>
      </g>
     </g>
     <g id="text_8">
      <!-- 225 -->
      <g transform="translate(380.183944 322.182437)scale(0.1 -0.1)">
       <use xlink:href="#DejaVuSans-50"/>
       <use x="63.623047" xlink:href="#DejaVuSans-50"/>
       <use x="127.246094" xlink:href="#DejaVuSans-53"/>
      </g>
     </g>
    </g>
    <g id="text_9">
     <!-- bpsystac -->
     <defs>
      <path d="M 48.6875 27.296875 
Q 48.6875 37.203125 44.609375 42.84375 
Q 40.53125 48.484375 33.40625 48.484375 
Q 26.265625 48.484375 22.1875 42.84375 
Q 18.109375 37.203125 18.109375 27.296875 
Q 18.109375 17.390625 22.1875 11.75 
Q 26.265625 6.109375 33.40625 6.109375 
Q 40.53125 6.109375 44.609375 11.75 
Q 48.6875 17.390625 48.6875 27.296875 
z
M 18.109375 46.390625 
Q 20.953125 51.265625 25.265625 53.625 
Q 29.59375 56 35.59375 56 
Q 45.5625 56 51.78125 48.09375 
Q 58.015625 40.1875 58.015625 27.296875 
Q 58.015625 14.40625 51.78125 6.484375 
Q 45.5625 -1.421875 35.59375 -1.421875 
Q 29.59375 -1.421875 25.265625 0.953125 
Q 20.953125 3.328125 18.109375 8.203125 
L 18.109375 0 
L 9.078125 0 
L 9.078125 75.984375 
L 18.109375 75.984375 
z
" id="DejaVuSans-98"/>
      <path d="M 18.109375 8.203125 
L 18.109375 -20.796875 
L 9.078125 -20.796875 
L 9.078125 54.6875 
L 18.109375 54.6875 
L 18.109375 46.390625 
Q 20.953125 51.265625 25.265625 53.625 
Q 29.59375 56 35.59375 56 
Q 45.5625 56 51.78125 48.09375 
Q 58.015625 40.1875 58.015625 27.296875 
Q 58.015625 14.40625 51.78125 6.484375 
Q 45.5625 -1.421875 35.59375 -1.421875 
Q 29.59375 -1.421875 25.265625 0.953125 
Q 20.953125 3.328125 18.109375 8.203125 
z
M 48.6875 27.296875 
Q 48.6875 37.203125 44.609375 42.84375 
Q 40.53125 48.484375 33.40625 48.484375 
Q 26.265625 48.484375 22.1875 42.84375 
Q 18.109375 37.203125 18.109375 27.296875 
Q 18.109375 17.390625 22.1875 11.75 
Q 26.265625 6.109375 33.40625 6.109375 
Q 40.53125 6.109375 44.609375 11.75 
Q 48.6875 17.390625 48.6875 27.296875 
z
" id="DejaVuSans-112"/>
      <path d="M 44.28125 53.078125 
L 44.28125 44.578125 
Q 40.484375 46.53125 36.375 47.5 
Q 32.28125 48.484375 27.875 48.484375 
Q 21.1875 48.484375 17.84375 46.4375 
Q 14.5 44.390625 14.5 40.28125 
Q 14.5 37.15625 16.890625 35.375 
Q 19.28125 33.59375 26.515625 31.984375 
L 29.59375 31.296875 
Q 39.15625 29.25 43.1875 25.515625 
Q 47.21875 21.78125 47.21875 15.09375 
Q 47.21875 7.46875 41.1875 3.015625 
Q 35.15625 -1.421875 24.609375 -1.421875 
Q 20.21875 -1.421875 15.453125 -0.5625 
Q 10.6875 0.296875 5.421875 2 
L 5.421875 11.28125 
Q 10.40625 8.6875 15.234375 7.390625 
Q 20.0625 6.109375 24.8125 6.109375 
Q 31.15625 6.109375 34.5625 8.28125 
Q 37.984375 10.453125 37.984375 14.40625 
Q 37.984375 18.0625 35.515625 20.015625 
Q 33.0625 21.96875 24.703125 23.78125 
L 21.578125 24.515625 
Q 13.234375 26.265625 9.515625 29.90625 
Q 5.8125 33.546875 5.8125 39.890625 
Q 5.8125 47.609375 11.28125 51.796875 
Q 16.75 56 26.8125 56 
Q 31.78125 56 36.171875 55.265625 
Q 40.578125 54.546875 44.28125 53.078125 
z
" id="DejaVuSans-115"/>
      <path d="M 32.171875 -5.078125 
Q 28.375 -14.84375 24.75 -17.8125 
Q 21.140625 -20.796875 15.09375 -20.796875 
L 7.90625 -20.796875 
L 7.90625 -13.28125 
L 13.1875 -13.28125 
Q 16.890625 -13.28125 18.9375 -11.515625 
Q 21 -9.765625 23.484375 -3.21875 
L 25.09375 0.875 
L 2.984375 54.6875 
L 12.5 54.6875 
L 29.59375 11.921875 
L 46.6875 54.6875 
L 56.203125 54.6875 
z
" id="DejaVuSans-121"/>
      <path d="M 18.3125 70.21875 
L 18.3125 54.6875 
L 36.8125 54.6875 
L 36.8125 47.703125 
L 18.3125 47.703125 
L 18.3125 18.015625 
Q 18.3125 11.328125 20.140625 9.421875 
Q 21.96875 7.515625 27.59375 7.515625 
L 36.8125 7.515625 
L 36.8125 0 
L 27.59375 0 
Q 17.1875 0 13.234375 3.875 
Q 9.28125 7.765625 9.28125 18.015625 
L 9.28125 47.703125 
L 2.6875 47.703125 
L 2.6875 54.6875 
L 9.28125 54.6875 
L 9.28125 70.21875 
z
" id="DejaVuSans-116"/>
      <path d="M 34.28125 27.484375 
Q 23.390625 27.484375 19.1875 25 
Q 14.984375 22.515625 14.984375 16.5 
Q 14.984375 11.71875 18.140625 8.90625 
Q 21.296875 6.109375 26.703125 6.109375 
Q 34.1875 6.109375 38.703125 11.40625 
Q 43.21875 16.703125 43.21875 25.484375 
L 43.21875 27.484375 
z
M 52.203125 31.203125 
L 52.203125 0 
L 43.21875 0 
L 43.21875 8.296875 
Q 40.140625 3.328125 35.546875 0.953125 
Q 30.953125 -1.421875 24.3125 -1.421875 
Q 15.921875 -1.421875 10.953125 3.296875 
Q 6 8.015625 6 15.921875 
Q 6 25.140625 12.171875 29.828125 
Q 18.359375 34.515625 30.609375 34.515625 
L 43.21875 34.515625 
L 43.21875 35.40625 
Q 43.21875 41.609375 39.140625 45 
Q 35.0625 48.390625 27.6875 48.390625 
Q 23 48.390625 18.546875 47.265625 
Q 14.109375 46.140625 10.015625 43.890625 
L 10.015625 52.203125 
Q 14.9375 54.109375 19.578125 55.046875 
Q 24.21875 56 28.609375 56 
Q 40.484375 56 46.34375 49.84375 
Q 52.203125 43.703125 52.203125 31.203125 
z
" id="DejaVuSans-97"/>
      <path d="M 48.78125 52.59375 
L 48.78125 44.1875 
Q 44.96875 46.296875 41.140625 47.34375 
Q 37.3125 48.390625 33.40625 48.390625 
Q 24.65625 48.390625 19.8125 42.84375 
Q 14.984375 37.3125 14.984375 27.296875 
Q 14.984375 17.28125 19.8125 11.734375 
Q 24.65625 6.203125 33.40625 6.203125 
Q 37.3125 6.203125 41.140625 7.25 
Q 44.96875 8.296875 48.78125 10.40625 
L 48.78125 2.09375 
Q 45.015625 0.34375 40.984375 -0.53125 
Q 36.96875 -1.421875 32.421875 -1.421875 
Q 20.0625 -1.421875 12.78125 6.34375 
Q 5.515625 14.109375 5.515625 27.296875 
Q 5.515625 40.671875 12.859375 48.328125 
Q 20.21875 56 33.015625 56 
Q 37.15625 56 41.109375 55.140625 
Q 45.0625 54.296875 48.78125 52.59375 
z
" id="DejaVuSans-99"/>
     </defs>
     <g transform="translate(213.869375 335.860562)scale(0.1 -0.1)">
      <use xlink:href="#DejaVuSans-98"/>
      <use x="63.476562" xlink:href="#DejaVuSans-112"/>
      <use x="126.953125" xlink:href="#DejaVuSans-115"/>
      <use x="179.052734" xlink:href="#DejaVuSans-121"/>
      <use x="238.232422" xlink:href="#DejaVuSans-115"/>
      <use x="290.332031" xlink:href="#DejaVuSans-116"/>
      <use x="329.541016" xlink:href="#DejaVuSans-97"/>
      <use x="390.820312" xlink:href="#DejaVuSans-99"/>
     </g>
    </g>
   </g>
   <g id="matplotlib.axis_2">
    <g id="ytick_1">
     <g id="line2d_9">
      <defs>
       <path d="M 0 0 
L -3.5 0 
" id="m5de8f5aaca" style="stroke:#000000;stroke-width:0.8;"/>
      </defs>
      <g>
       <use style="stroke:#000000;stroke-width:0.8;" x="57.6" xlink:href="#m5de8f5aaca" y="174.528"/>
      </g>
     </g>
    </g>
   </g>
   <g id="line2d_10">
    <path clip-path="url(#p93d529fefb)" d="M 112.873207 174.528 
L 331.823488 174.528 
" style="fill:none;stroke:#ffa500;stroke-linecap:square;stroke-width:1.5;"/>
   </g>
   <g id="line2d_11">
    <path clip-path="url(#p93d529fefb)" d="M 192.491491 174.528 
L 252.205204 174.528 
" style="fill:none;stroke:#4c4c4c;stroke-linecap:square;stroke-width:4.5;"/>
   </g>
   <g id="line2d_12">
    <path clip-path="url(#p93d529fefb)" d="M 127.349258 174.528 
L 322.775955 174.528 
" style="fill:none;stroke:#008000;stroke-linecap:square;stroke-width:1.5;"/>
   </g>
   <g id="line2d_13">
    <path clip-path="url(#p93d529fefb)" d="M 192.491491 174.528 
L 248.586191 174.528 
" style="fill:none;stroke:#262626;stroke-linecap:square;stroke-width:4.5;"/>
   </g>
   <g id="patch_3">
    <path d="M 57.6 307.584 
L 57.6 41.472 
" style="fill:none;stroke:#000000;stroke-linecap:square;stroke-linejoin:miter;stroke-width:0.8;"/>
   </g>
   <g id="patch_4">
    <path d="M 414.72 307.584 
L 414.72 41.472 
" style="fill:none;stroke:#000000;stroke-linecap:square;stroke-linejoin:miter;stroke-width:0.8;"/>
   </g>
   <g id="patch_5">
    <path d="M 57.6 307.584 
L 414.72 307.584 
" style="fill:none;stroke:#000000;stroke-linecap:square;stroke-linejoin:miter;stroke-width:0.8;"/>
   </g>
   <g id="patch_6">
    <path d="M 57.6 41.472 
L 414.72 41.472 
" style="fill:none;stroke:#000000;stroke-linecap:square;stroke-linejoin:miter;stroke-width:0.8;"/>
   </g>
   <g id="PathCollection_1">
    <defs>
     <path d="M 0 1.5 
C 0.397805 1.5 0.77937 1.341951 1.06066 1.06066 
C 1.341951 0.77937 1.5 0.397805 1.5 0 
C 1.5 -0.397805 1.341951 -0.77937 1.06066 -1.06066 
C 0.77937 -1.341951 0.397805 -1.5 0 -1.5 
C -0.397805 -1.5 -0.77937 -1.341951 -1.06066 -1.06066 
C -1.341951 -0.77937 -1.5 -0.397805 -1.5 0 
C -1.5 0.397805 -1.341951 0.77937 -1.06066 1.06066 
C -0.77937 1.341951 -0.397805 1.5 0 1.5 
z
" id="mcda5de0dae" style="stroke:#4c4c4c;stroke-opacity:0.5;"/>
    </defs>
    <g clip-path="url(#p93d529fefb)">
     <use style="fill:#ffffff;fill-opacity:0.5;stroke:#4c4c4c;stroke-opacity:0.5;" x="219.634087" xlink:href="#mcda5de0dae" y="174.528"/>
    </g>
   </g>
   <g id="PathCollection_2">
    <defs>
     <path d="M 0 1.5 
C 0.397805 1.5 0.77937 1.341951 1.06066 1.06066 
C 1.341951 0.77937 1.5 0.397805 1.5 0 
C 1.5 -0.397805 1.341951 -0.77937 1.06066 -1.06066 
C 0.77937 -1.341951 0.397805 -1.5 0 -1.5 
C -0.397805 -1.5 -0.77937 -1.341951 -1.06066 -1.06066 
C -1.341951 -0.77937 -1.5 -0.397805 -1.5 0 
C -1.5 0.397805 -1.341951 0.77937 -1.06066 1.06066 
C -0.77937 1.341951 -0.397805 1.5 0 1.5 
z
" id="md3e1323fca" style="stroke:#262626;stroke-opacity:0.5;"/>
    </defs>
    <g clip-path="url(#p93d529fefb)">
     <use style="fill:#ffffff;fill-opacity:0.5;stroke:#262626;stroke-opacity:0.5;" x="219.634087" xlink:href="#md3e1323fca" y="174.528"/>
    </g>
   </g>
   <g id="text_10">
    <!-- Association of bpsystac vs. nasal_cannula -->
    <defs>
     <path d="M 34.1875 63.1875 
L 20.796875 26.90625 
L 47.609375 26.90625 
z
M 28.609375 72.90625 
L 39.796875 72.90625 
L 67.578125 0 
L 57.328125 0 
L 50.6875 18.703125 
L 17.828125 18.703125 
L 11.1875 0 
L 0.78125 0 
z
" id="DejaVuSans-65"/>
     <path d="M 30.609375 48.390625 
Q 23.390625 48.390625 19.1875 42.75 
Q 14.984375 37.109375 14.984375 27.296875 
Q 14.984375 17.484375 19.15625 11.84375 
Q 23.34375 6.203125 30.609375 6.203125 
Q 37.796875 6.203125 41.984375 11.859375 
Q 46.1875 17.53125 46.1875 27.296875 
Q 46.1875 37.015625 41.984375 42.703125 
Q 37.796875 48.390625 30.609375 48.390625 
z
M 30.609375 56 
Q 42.328125 56 49.015625 48.375 
Q 55.71875 40.765625 55.71875 27.296875 
Q 55.71875 13.875 49.015625 6.21875 
Q 42.328125 -1.421875 30.609375 -1.421875 
Q 18.84375 -1.421875 12.171875 6.21875 
Q 5.515625 13.875 5.515625 27.296875 
Q 5.515625 40.765625 12.171875 48.375 
Q 18.84375 56 30.609375 56 
z
" id="DejaVuSans-111"/>
     <path d="M 9.421875 54.6875 
L 18.40625 54.6875 
L 18.40625 0 
L 9.421875 0 
z
M 9.421875 75.984375 
L 18.40625 75.984375 
L 18.40625 64.59375 
L 9.421875 64.59375 
z
" id="DejaVuSans-105"/>
     <path d="M 54.890625 33.015625 
L 54.890625 0 
L 45.90625 0 
L 45.90625 32.71875 
Q 45.90625 40.484375 42.875 44.328125 
Q 39.84375 48.1875 33.796875 48.1875 
Q 26.515625 48.1875 22.3125 43.546875 
Q 18.109375 38.921875 18.109375 30.90625 
L 18.109375 0 
L 9.078125 0 
L 9.078125 54.6875 
L 18.109375 54.6875 
L 18.109375 46.1875 
Q 21.34375 51.125 25.703125 53.5625 
Q 30.078125 56 35.796875 56 
Q 45.21875 56 50.046875 50.171875 
Q 54.890625 44.34375 54.890625 33.015625 
z
" id="DejaVuSans-110"/>
     <path id="DejaVuSans-32"/>
     <path d="M 37.109375 75.984375 
L 37.109375 68.5 
L 28.515625 68.5 
Q 23.6875 68.5 21.796875 66.546875 
Q 19.921875 64.59375 19.921875 59.515625 
L 19.921875 54.6875 
L 34.71875 54.6875 
L 34.71875 47.703125 
L 19.921875 47.703125 
L 19.921875 0 
L 10.890625 0 
L 10.890625 47.703125 
L 2.296875 47.703125 
L 2.296875 54.6875 
L 10.890625 54.6875 
L 10.890625 58.5 
Q 10.890625 67.625 15.140625 71.796875 
Q 19.390625 75.984375 28.609375 75.984375 
z
" id="DejaVuSans-102"/>
     <path d="M 2.984375 54.6875 
L 12.5 54.6875 
L 29.59375 8.796875 
L 46.6875 54.6875 
L 56.203125 54.6875 
L 35.6875 0 
L 23.484375 0 
z
" id="DejaVuSans-118"/>
     <path d="M 10.6875 12.40625 
L 21 12.40625 
L 21 0 
L 10.6875 0 
z
" id="DejaVuSans-46"/>
     <path d="M 9.421875 75.984375 
L 18.40625 75.984375 
L 18.40625 0 
L 9.421875 0 
z
" id="DejaVuSans-108"/>
     <path d="M 50.984375 -16.609375 
L 50.984375 -23.578125 
L -0.984375 -23.578125 
L -0.984375 -16.609375 
z
" id="DejaVuSans-95"/>
     <path d="M 8.5 21.578125 
L 8.5 54.6875 
L 17.484375 54.6875 
L 17.484375 21.921875 
Q 17.484375 14.15625 20.5 10.265625 
Q 23.53125 6.390625 29.59375 6.390625 
Q 36.859375 6.390625 41.078125 11.03125 
Q 45.3125 15.671875 45.3125 23.6875 
L 45.3125 54.6875 
L 54.296875 54.6875 
L 54.296875 0 
L 45.3125 0 
L 45.3125 8.40625 
Q 42.046875 3.421875 37.71875 1 
Q 33.40625 -1.421875 27.6875 -1.421875 
Q 18.265625 -1.421875 13.375 4.4375 
Q 8.5 10.296875 8.5 21.578125 
z
M 31.109375 56 
z
" id="DejaVuSans-117"/>
    </defs>
    <g transform="translate(110.578125 35.472)scale(0.12 -0.12)">
     <use xlink:href="#DejaVuSans-65"/>
     <use x="68.408203" xlink:href="#DejaVuSans-115"/>
     <use x="120.507812" xlink:href="#DejaVuSans-115"/>
     <use x="172.607422" xlink:href="#DejaVuSans-111"/>
     <use x="233.789062" xlink:href="#DejaVuSans-99"/>
     <use x="288.769531" xlink:href="#DejaVuSans-105"/>
     <use x="316.552734" xlink:href="#DejaVuSans-97"/>
     <use x="377.832031" xlink:href="#DejaVuSans-116"/>
     <use x="417.041016" xlink:href="#DejaVuSans-105"/>
     <use x="444.824219" xlink:href="#DejaVuSans-111"/>
     <use x="506.005859" xlink:href="#DejaVuSans-110"/>
     <use x="569.384766" xlink:href="#DejaVuSans-32"/>
     <use x="601.171875" xlink:href="#DejaVuSans-111"/>
     <use x="662.353516" xlink:href="#DejaVuSans-102"/>
     <use x="697.558594" xlink:href="#DejaVuSans-32"/>
     <use x="729.345703" xlink:href="#DejaVuSans-98"/>
     <use x="792.822266" xlink:href="#DejaVuSans-112"/>
     <use x="856.298828" xlink:href="#DejaVuSans-115"/>
     <use x="908.398438" xlink:href="#DejaVuSans-121"/>
     <use x="967.578125" xlink:href="#DejaVuSans-115"/>
     <use x="1019.677734" xlink:href="#DejaVuSans-116"/>
     <use x="1058.886719" xlink:href="#DejaVuSans-97"/>
     <use x="1120.166016" xlink:href="#DejaVuSans-99"/>
     <use x="1175.146484" xlink:href="#DejaVuSans-32"/>
     <use x="1206.933594" xlink:href="#DejaVuSans-118"/>
     <use x="1266.113281" xlink:href="#DejaVuSans-115"/>
     <use x="1318.212891" xlink:href="#DejaVuSans-46"/>
     <use x="1350" xlink:href="#DejaVuSans-32"/>
     <use x="1381.787109" xlink:href="#DejaVuSans-110"/>
     <use x="1445.166016" xlink:href="#DejaVuSans-97"/>
     <use x="1506.445312" xlink:href="#DejaVuSans-115"/>
     <use x="1558.544922" xlink:href="#DejaVuSans-97"/>
     <use x="1619.824219" xlink:href="#DejaVuSans-108"/>
     <use x="1647.607422" xlink:href="#DejaVuSans-95"/>
     <use x="1697.607422" xlink:href="#DejaVuSans-99"/>
     <use x="1752.587891" xlink:href="#DejaVuSans-97"/>
     <use x="1813.867188" xlink:href="#DejaVuSans-110"/>
     <use x="1877.246094" xlink:href="#DejaVuSans-110"/>
     <use x="1940.625" xlink:href="#DejaVuSans-117"/>
     <use x="2004.003906" xlink:href="#DejaVuSans-108"/>
     <use x="2031.787109" xlink:href="#DejaVuSans-97"/>
    </g>
   </g>
   <g id="legend_1">
    <g id="patch_7">
     <path d="M 253.82625 79.3845 
L 407.72 79.3845 
Q 409.72 79.3845 409.72 77.3845 
L 409.72 48.472 
Q 409.72 46.472 407.72 46.472 
L 253.82625 46.472 
Q 251.82625 46.472 251.82625 48.472 
L 251.82625 77.3845 
Q 251.82625 79.3845 253.82625 79.3845 
z
" style="fill:#ffffff;opacity:0.8;stroke:#cccccc;stroke-linejoin:miter;"/>
    </g>
    <g id="line2d_14">
     <path d="M 255.82625 54.570438 
L 275.82625 54.570438 
" style="fill:none;stroke:#ffa500;stroke-linecap:square;stroke-width:1.5;"/>
    </g>
    <g id="line2d_15"/>
    <g id="text_11">
     <!-- nasal_cannula (335) -->
     <defs>
      <path d="M 31 75.875 
Q 24.46875 64.65625 21.28125 53.65625 
Q 18.109375 42.671875 18.109375 31.390625 
Q 18.109375 20.125 21.3125 9.0625 
Q 24.515625 -2 31 -13.1875 
L 23.1875 -13.1875 
Q 15.875 -1.703125 12.234375 9.375 
Q 8.59375 20.453125 8.59375 31.390625 
Q 8.59375 42.28125 12.203125 53.3125 
Q 15.828125 64.359375 23.1875 75.875 
z
" id="DejaVuSans-40"/>
      <path d="M 40.578125 39.3125 
Q 47.65625 37.796875 51.625 33 
Q 55.609375 28.21875 55.609375 21.1875 
Q 55.609375 10.40625 48.1875 4.484375 
Q 40.765625 -1.421875 27.09375 -1.421875 
Q 22.515625 -1.421875 17.65625 -0.515625 
Q 12.796875 0.390625 7.625 2.203125 
L 7.625 11.71875 
Q 11.71875 9.328125 16.59375 8.109375 
Q 21.484375 6.890625 26.8125 6.890625 
Q 36.078125 6.890625 40.9375 10.546875 
Q 45.796875 14.203125 45.796875 21.1875 
Q 45.796875 27.640625 41.28125 31.265625 
Q 36.765625 34.90625 28.71875 34.90625 
L 20.21875 34.90625 
L 20.21875 43.015625 
L 29.109375 43.015625 
Q 36.375 43.015625 40.234375 45.921875 
Q 44.09375 48.828125 44.09375 54.296875 
Q 44.09375 59.90625 40.109375 62.90625 
Q 36.140625 65.921875 28.71875 65.921875 
Q 24.65625 65.921875 20.015625 65.03125 
Q 15.375 64.15625 9.8125 62.3125 
L 9.8125 71.09375 
Q 15.4375 72.65625 20.34375 73.4375 
Q 25.25 74.21875 29.59375 74.21875 
Q 40.828125 74.21875 47.359375 69.109375 
Q 53.90625 64.015625 53.90625 55.328125 
Q 53.90625 49.265625 50.4375 45.09375 
Q 46.96875 40.921875 40.578125 39.3125 
z
" id="DejaVuSans-51"/>
      <path d="M 8.015625 75.875 
L 15.828125 75.875 
Q 23.140625 64.359375 26.78125 53.3125 
Q 30.421875 42.28125 30.421875 31.390625 
Q 30.421875 20.453125 26.78125 9.375 
Q 23.140625 -1.703125 15.828125 -13.1875 
L 8.015625 -13.1875 
Q 14.5 -2 17.703125 9.0625 
Q 20.90625 20.125 20.90625 31.390625 
Q 20.90625 42.671875 17.703125 53.65625 
Q 14.5 64.65625 8.015625 75.875 
z
" id="DejaVuSans-41"/>
     </defs>
     <g transform="translate(283.82625 58.070438)scale(0.1 -0.1)">
      <use xlink:href="#DejaVuSans-110"/>
      <use x="63.378906" xlink:href="#DejaVuSans-97"/>
      <use x="124.658203" xlink:href="#DejaVuSans-115"/>
      <use x="176.757812" xlink:href="#DejaVuSans-97"/>
      <use x="238.037109" xlink:href="#DejaVuSans-108"/>
      <use x="265.820312" xlink:href="#DejaVuSans-95"/>
      <use x="315.820312" xlink:href="#DejaVuSans-99"/>
      <use x="370.800781" xlink:href="#DejaVuSans-97"/>
      <use x="432.080078" xlink:href="#DejaVuSans-110"/>
      <use x="495.458984" xlink:href="#DejaVuSans-110"/>
      <use x="558.837891" xlink:href="#DejaVuSans-117"/>
      <use x="622.216797" xlink:href="#DejaVuSans-108"/>
      <use x="650" xlink:href="#DejaVuSans-97"/>
      <use x="711.279297" xlink:href="#DejaVuSans-32"/>
      <use x="743.066406" xlink:href="#DejaVuSans-40"/>
      <use x="782.080078" xlink:href="#DejaVuSans-51"/>
      <use x="845.703125" xlink:href="#DejaVuSans-51"/>
      <use x="909.326172" xlink:href="#DejaVuSans-53"/>
      <use x="972.949219" xlink:href="#DejaVuSans-41"/>
     </g>
    </g>
    <g id="line2d_16">
     <path d="M 255.82625 69.526688 
L 275.82625 69.526688 
" style="fill:none;stroke:#008000;stroke-linecap:square;stroke-width:1.5;"/>
    </g>
    <g id="line2d_17"/>
    <g id="text_12">
     <!-- Not nasal_cannula (165) -->
     <defs>
      <path d="M 9.8125 72.90625 
L 23.09375 72.90625 
L 55.421875 11.921875 
L 55.421875 72.90625 
L 64.984375 72.90625 
L 64.984375 0 
L 51.703125 0 
L 19.390625 60.984375 
L 19.390625 0 
L 9.8125 0 
z
" id="DejaVuSans-78"/>
      <path d="M 33.015625 40.375 
Q 26.375 40.375 22.484375 35.828125 
Q 18.609375 31.296875 18.609375 23.390625 
Q 18.609375 15.53125 22.484375 10.953125 
Q 26.375 6.390625 33.015625 6.390625 
Q 39.65625 6.390625 43.53125 10.953125 
Q 47.40625 15.53125 47.40625 23.390625 
Q 47.40625 31.296875 43.53125 35.828125 
Q 39.65625 40.375 33.015625 40.375 
z
M 52.59375 71.296875 
L 52.59375 62.3125 
Q 48.875 64.0625 45.09375 64.984375 
Q 41.3125 65.921875 37.59375 65.921875 
Q 27.828125 65.921875 22.671875 59.328125 
Q 17.53125 52.734375 16.796875 39.40625 
Q 19.671875 43.65625 24.015625 45.921875 
Q 28.375 48.1875 33.59375 48.1875 
Q 44.578125 48.1875 50.953125 41.515625 
Q 57.328125 34.859375 57.328125 23.390625 
Q 57.328125 12.15625 50.6875 5.359375 
Q 44.046875 -1.421875 33.015625 -1.421875 
Q 20.359375 -1.421875 13.671875 8.265625 
Q 6.984375 17.96875 6.984375 36.375 
Q 6.984375 53.65625 15.1875 63.9375 
Q 23.390625 74.21875 37.203125 74.21875 
Q 40.921875 74.21875 44.703125 73.484375 
Q 48.484375 72.75 52.59375 71.296875 
z
" id="DejaVuSans-54"/>
     </defs>
     <g transform="translate(283.82625 73.026688)scale(0.1 -0.1)">
      <use xlink:href="#DejaVuSans-78"/>
      <use x="74.804688" xlink:href="#DejaVuSans-111"/>
      <use x="135.986328" xlink:href="#DejaVuSans-116"/>
      <use x="175.195312" xlink:href="#DejaVuSans-32"/>
      <use x="206.982422" xlink:href="#DejaVuSans-110"/>
      <use x="270.361328" xlink:href="#DejaVuSans-97"/>
      <use x="331.640625" xlink:href="#DejaVuSans-115"/>
      <use x="383.740234" xlink:href="#DejaVuSans-97"/>
      <use x="445.019531" xlink:href="#DejaVuSans-108"/>
      <use x="472.802734" xlink:href="#DejaVuSans-95"/>
      <use x="522.802734" xlink:href="#DejaVuSans-99"/>
      <use x="577.783203" xlink:href="#DejaVuSans-97"/>
      <use x="639.0625" xlink:href="#DejaVuSans-110"/>
      <use x="702.441406" xlink:href="#DejaVuSans-110"/>
      <use x="765.820312" xlink:href="#DejaVuSans-117"/>
      <use x="829.199219" xlink:href="#DejaVuSans-108"/>
      <use x="856.982422" xlink:href="#DejaVuSans-97"/>
      <use x="918.261719" xlink:href="#DejaVuSans-32"/>
      <use x="950.048828" xlink:href="#DejaVuSans-40"/>
      <use x="989.0625" xlink:href="#DejaVuSans-49"/>
      <use x="1052.685547" xlink:href="#DejaVuSans-54"/>
      <use x="1116.308594" xlink:href="#DejaVuSans-53"/>
      <use x="1179.931641" xlink:href="#DejaVuSans-41"/>
     </g>
    </g>
   </g>
  </g>
 </g>
 <defs>
  <clipPath id="p93d529fefb">
   <rect height="266.112" width="357.12" x="57.6" y="41.472"/>
  </clipPath>
 </defs>
</svg>
