<?xml version="1.0" encoding="utf-8" standalone="no"?>
<!DOCTYPE svg PUBLIC "-//W3C//DTD SVG 1.1//EN"
  "http://www.w3.org/Graphics/SVG/1.1/DTD/svg11.dtd">
<!-- Created with matplotlib (https://matplotlib.org/) -->
<svg height="345.6pt" version="1.1" viewBox="0 0 460.8 345.6" width="460.8pt" xmlns="http://www.w3.org/2000/svg" xmlns:xlink="http://www.w3.org/1999/xlink">
 <defs>
  <style type="text/css">
*{stroke-linecap:butt;stroke-linejoin:round;}
  </style>
 </defs>
 <g id="figure_1">
  <g id="patch_1">
   <path d="M 0 345.6 
L 460.8 345.6 
L 460.8 0 
L 0 0 
z
" style="fill:#ffffff;"/>
  </g>
  <g id="axes_1">
   <g id="patch_2">
    <path d="M 57.6 307.584 
L 414.72 307.584 
L 414.72 41.472 
L 57.6 41.472 
z
" style="fill:#ffffff;"/>
   </g>
   <g id="PolyCollection_1">
    <defs>
     <path d="M 110.815134 -160.817168 
L 110.815134 -181.326832 
L 112.02022 -182.967703 
L 113.225306 -184.802204 
L 114.430393 -186.84065 
L 115.635479 -189.091749 
L 116.840565 -191.562204 
L 118.045651 -194.256328 
L 119.250737 -197.175673 
L 120.455823 -200.318687 
L 121.660909 -203.680418 
L 122.865996 -207.252281 
L 124.071082 -211.0219 
L 125.276168 -214.973032 
L 126.481254 -219.085599 
L 127.68634 -223.335824 
L 128.891426 -227.696479 
L 130.096513 -232.137247 
L 131.301599 -236.625196 
L 132.506685 -241.12535 
L 133.711771 -245.601358 
L 134.916857 -250.016232 
L 136.121943 -254.333135 
L 137.32703 -258.516202 
L 138.532116 -262.531367 
L 139.737202 -266.347158 
L 140.942288 -269.93545 
L 142.147374 -273.272133 
L 143.35246 -276.337679 
L 144.557547 -279.117596 
L 145.762633 -281.602725 
L 146.967719 -283.789404 
L 148.172805 -285.679458 
L 149.377891 -287.280048 
L 150.582977 -288.603349 
L 151.788064 -289.666103 
L 152.99315 -290.489035 
L 154.198236 -291.096164 
L 155.403322 -291.514041 
L 156.608408 -291.770915 
L 157.813494 -291.895883 
L 159.01858 -291.918025 
L 160.223667 -291.865574 
L 161.428753 -291.765118 
L 162.633839 -291.640885 
L 163.838925 -291.514105 
L 165.044011 -291.402478 
L 166.249097 -291.319748 
L 167.454184 -291.275406 
L 168.65927 -291.274504 
L 169.864356 -291.317604 
L 171.069442 -291.400829 
L 172.274528 -291.516048 
L 173.479614 -291.651146 
L 174.684701 -291.790406 
L 175.889787 -291.914962 
L 177.094873 -292.003331 
L 178.299959 -292.032 
L 179.505045 -291.976056 
L 180.710131 -291.809848 
L 181.915218 -291.507663 
L 183.120304 -291.044398 
L 184.32539 -290.396221 
L 185.530476 -289.541199 
L 186.735562 -288.459886 
L 187.940648 -287.13585 
L 189.145735 -285.556125 
L 190.350821 -283.711594 
L 191.555907 -281.597269 
L 192.760993 -279.21248 
L 193.966079 -276.560956 
L 195.171165 -273.650805 
L 196.376252 -270.494387 
L 197.581338 -267.108085 
L 198.786424 -263.511984 
L 199.99151 -259.729461 
L 201.196596 -255.786708 
L 202.401682 -251.712186 
L 203.606768 -247.536045 
L 204.811855 -243.289514 
L 206.016941 -239.00428 
L 207.222027 -234.71188 
L 208.427113 -230.443111 
L 209.632199 -226.22749 
L 210.837285 -222.092755 
L 212.042372 -218.064444 
L 213.247458 -214.165537 
L 214.452544 -210.416185 
L 215.65763 -206.833511 
L 216.862716 -203.431501 
L 218.067802 -200.220976 
L 219.272889 -197.209626 
L 220.477975 -194.402127 
L 221.683061 -191.800306 
L 222.888147 -189.403359 
L 224.093233 -187.208106 
L 225.298319 -185.20928 
L 226.503406 -183.399823 
L 227.708492 -181.7712 
L 228.913578 -180.313705 
L 230.118664 -179.016758 
L 230.118664 -163.127242 
L 230.118664 -163.127242 
L 228.913578 -161.830295 
L 227.708492 -160.3728 
L 226.503406 -158.744177 
L 225.298319 -156.93472 
L 224.093233 -154.935894 
L 222.888147 -152.740641 
L 221.683061 -150.343694 
L 220.477975 -147.741873 
L 219.272889 -144.934374 
L 218.067802 -141.923024 
L 216.862716 -138.712499 
L 215.65763 -135.310489 
L 214.452544 -131.727815 
L 213.247458 -127.978463 
L 212.042372 -124.079556 
L 210.837285 -120.051245 
L 209.632199 -115.91651 
L 208.427113 -111.700889 
L 207.222027 -107.43212 
L 206.016941 -103.13972 
L 204.811855 -98.854486 
L 203.606768 -94.607955 
L 202.401682 -90.431814 
L 201.196596 -86.357292 
L 199.99151 -82.414539 
L 198.786424 -78.632016 
L 197.581338 -75.035915 
L 196.376252 -71.649613 
L 195.171165 -68.493195 
L 193.966079 -65.583044 
L 192.760993 -62.93152 
L 191.555907 -60.546731 
L 190.350821 -58.432406 
L 189.145735 -56.587875 
L 187.940648 -55.00815 
L 186.735562 -53.684114 
L 185.530476 -52.602801 
L 184.32539 -51.747779 
L 183.120304 -51.099602 
L 181.915218 -50.636337 
L 180.710131 -50.334152 
L 179.505045 -50.167944 
L 178.299959 -50.112 
L 177.094873 -50.140669 
L 175.889787 -50.229038 
L 174.684701 -50.353594 
L 173.479614 -50.492854 
L 172.274528 -50.627952 
L 171.069442 -50.743171 
L 169.864356 -50.826396 
L 168.65927 -50.869496 
L 167.454184 -50.868594 
L 166.249097 -50.824252 
L 165.044011 -50.741522 
L 163.838925 -50.629895 
L 162.633839 -50.503115 
L 161.428753 -50.378882 
L 160.223667 -50.278426 
L 159.01858 -50.225975 
L 157.813494 -50.248117 
L 156.608408 -50.373085 
L 155.403322 -50.629959 
L 154.198236 -51.047836 
L 152.99315 -51.654965 
L 151.788064 -52.477897 
L 150.582977 -53.540651 
L 149.377891 -54.863952 
L 148.172805 -56.464542 
L 146.967719 -58.354596 
L 145.762633 -60.541275 
L 144.557547 -63.026404 
L 143.35246 -65.806321 
L 142.147374 -68.871867 
L 140.942288 -72.20855 
L 139.737202 -75.796842 
L 138.532116 -79.612633 
L 137.32703 -83.627798 
L 136.121943 -87.810865 
L 134.916857 -92.127768 
L 133.711771 -96.542642 
L 132.506685 -101.01865 
L 131.301599 -105.518804 
L 130.096513 -110.006753 
L 128.891426 -114.447521 
L 127.68634 -118.808176 
L 126.481254 -123.058401 
L 125.276168 -127.170968 
L 124.071082 -131.1221 
L 122.865996 -134.891719 
L 121.660909 -138.463582 
L 120.455823 -141.825313 
L 119.250737 -144.968327 
L 118.045651 -147.887672 
L 116.840565 -150.581796 
L 115.635479 -153.052251 
L 114.430393 -155.30335 
L 113.225306 -157.341796 
L 112.02022 -159.176297 
L 110.815134 -160.817168 
z
" id="m7846fde8b2" style="stroke:#4c4c4c;stroke-opacity:0.5;stroke-width:1.5;"/>
    </defs>
    <g clip-path="url(#pe9819a7517)">
     <use style="fill:#df9c20;fill-opacity:0.5;stroke:#4c4c4c;stroke-opacity:0.5;stroke-width:1.5;" x="0" xlink:href="#m7846fde8b2" y="345.6"/>
    </g>
   </g>
   <g id="PolyCollection_2">
    <defs>
     <path d="M 73.832727 -170.918307 
L 73.832727 -171.225693 
L 77.112066 -171.384377 
L 80.391405 -171.65666 
L 83.670744 -172.086109 
L 86.950083 -172.713633 
L 90.229421 -173.570803 
L 93.50876 -174.676457 
L 96.788099 -176.039496 
L 100.067438 -177.669878 
L 103.346777 -179.596803 
L 106.626116 -181.88694 
L 109.905455 -184.65022 
L 113.184793 -188.024386 
L 116.464132 -192.144434 
L 119.743471 -197.116532 
L 123.02281 -203.01086 
L 126.302149 -209.86584 
L 129.581488 -217.682186 
L 132.860826 -226.397483 
L 136.140165 -235.855154 
L 139.419504 -245.785443 
L 142.698843 -255.799791 
L 145.978182 -265.396759 
L 149.257521 -274.001785 
L 152.53686 -281.075477 
L 155.816198 -286.279557 
L 159.095537 -289.609548 
L 162.374876 -291.379517 
L 165.654215 -292.032 
L 168.933554 -291.883521 
L 172.212893 -290.973555 
L 175.492231 -289.102497 
L 178.77157 -285.997867 
L 182.050909 -281.470305 
L 185.330248 -275.469722 
L 188.609587 -268.063726 
L 191.888926 -259.42263 
L 195.168264 -249.855982 
L 198.447603 -239.856331 
L 201.726942 -230.064982 
L 205.006281 -221.127781 
L 208.28562 -213.50588 
L 211.564959 -207.354187 
L 214.844298 -202.536061 
L 218.123636 -198.750181 
L 221.402975 -195.683287 
L 224.682314 -193.110541 
L 227.961653 -190.918839 
L 231.240992 -189.075279 
L 234.520331 -187.575352 
L 237.799669 -186.395101 
L 241.079008 -185.462228 
L 244.358347 -184.657441 
L 247.637686 -183.847618 
L 250.917025 -182.933235 
L 254.196364 -181.879969 
L 257.475702 -180.714773 
L 260.755041 -179.494206 
L 264.03438 -178.272464 
L 267.313719 -177.090674 
L 270.593058 -175.985649 
L 273.872397 -174.999786 
L 277.151736 -174.178023 
L 280.431074 -173.553628 
L 283.710413 -173.134447 
L 286.989752 -172.898495 
L 290.269091 -172.799933 
L 293.54843 -172.78169 
L 296.827769 -172.789933 
L 300.107107 -172.785446 
L 303.386446 -172.747661 
L 306.665785 -172.67045 
L 309.945124 -172.553838 
L 313.224463 -172.398467 
L 316.503802 -172.206693 
L 319.78314 -171.987749 
L 323.062479 -171.76036 
L 326.341818 -171.548649 
L 329.621157 -171.373441 
L 332.900496 -171.245043 
L 336.179835 -171.161832 
L 339.459174 -171.114255 
L 342.738512 -171.090697 
L 346.017851 -171.082008 
L 349.29719 -171.083729 
L 352.576529 -171.09669 
L 355.855868 -171.126689 
L 359.135207 -171.182921 
L 362.414545 -171.274105 
L 365.693884 -171.402045 
L 368.973223 -171.554928 
L 372.252562 -171.705126 
L 375.531901 -171.815695 
L 378.81124 -171.854702 
L 382.090579 -171.810065 
L 385.369917 -171.695577 
L 388.649256 -171.544043 
L 391.928595 -171.392162 
L 395.207934 -171.26656 
L 398.487273 -171.177934 
L 398.487273 -170.966066 
L 398.487273 -170.966066 
L 395.207934 -170.87744 
L 391.928595 -170.751838 
L 388.649256 -170.599957 
L 385.369917 -170.448423 
L 382.090579 -170.333935 
L 378.81124 -170.289298 
L 375.531901 -170.328305 
L 372.252562 -170.438874 
L 368.973223 -170.589072 
L 365.693884 -170.741955 
L 362.414545 -170.869895 
L 359.135207 -170.961079 
L 355.855868 -171.017311 
L 352.576529 -171.04731 
L 349.29719 -171.060271 
L 346.017851 -171.061992 
L 342.738512 -171.053303 
L 339.459174 -171.029745 
L 336.179835 -170.982168 
L 332.900496 -170.898957 
L 329.621157 -170.770559 
L 326.341818 -170.595351 
L 323.062479 -170.38364 
L 319.78314 -170.156251 
L 316.503802 -169.937307 
L 313.224463 -169.745533 
L 309.945124 -169.590162 
L 306.665785 -169.47355 
L 303.386446 -169.396339 
L 300.107107 -169.358554 
L 296.827769 -169.354067 
L 293.54843 -169.36231 
L 290.269091 -169.344067 
L 286.989752 -169.245505 
L 283.710413 -169.009553 
L 280.431074 -168.590372 
L 277.151736 -167.965977 
L 273.872397 -167.144214 
L 270.593058 -166.158351 
L 267.313719 -165.053326 
L 264.03438 -163.871536 
L 260.755041 -162.649794 
L 257.475702 -161.429227 
L 254.196364 -160.264031 
L 250.917025 -159.210765 
L 247.637686 -158.296382 
L 244.358347 -157.486559 
L 241.079008 -156.681772 
L 237.799669 -155.748899 
L 234.520331 -154.568648 
L 231.240992 -153.068721 
L 227.961653 -151.225161 
L 224.682314 -149.033459 
L 221.402975 -146.460713 
L 218.123636 -143.393819 
L 214.844298 -139.607939 
L 211.564959 -134.789813 
L 208.28562 -128.63812 
L 205.006281 -121.016219 
L 201.726942 -112.079018 
L 198.447603 -102.287669 
L 195.168264 -92.288018 
L 191.888926 -82.72137 
L 188.609587 -74.080274 
L 185.330248 -66.674278 
L 182.050909 -60.673695 
L 178.77157 -56.146133 
L 175.492231 -53.041503 
L 172.212893 -51.170445 
L 168.933554 -50.260479 
L 165.654215 -50.112 
L 162.374876 -50.764483 
L 159.095537 -52.534452 
L 155.816198 -55.864443 
L 152.53686 -61.068523 
L 149.257521 -68.142215 
L 145.978182 -76.747241 
L 142.698843 -86.344209 
L 139.419504 -96.358557 
L 136.140165 -106.288846 
L 132.860826 -115.746517 
L 129.581488 -124.461814 
L 126.302149 -132.27816 
L 123.02281 -139.13314 
L 119.743471 -145.027468 
L 116.464132 -149.999566 
L 113.184793 -154.119614 
L 109.905455 -157.49378 
L 106.626116 -160.25706 
L 103.346777 -162.547197 
L 100.067438 -164.474122 
L 96.788099 -166.104504 
L 93.50876 -167.467543 
L 90.229421 -168.573197 
L 86.950083 -169.430367 
L 83.670744 -170.057891 
L 80.391405 -170.48734 
L 77.112066 -170.759623 
L 73.832727 -170.918307 
z
" id="m57ce42662c" style="stroke:#262626;stroke-opacity:0.5;stroke-width:1.5;"/>
    </defs>
    <g clip-path="url(#pe9819a7517)">
     <use style="fill:#107010;fill-opacity:0.5;stroke:#262626;stroke-opacity:0.5;stroke-width:1.5;" x="0" xlink:href="#m57ce42662c" y="345.6"/>
    </g>
   </g>
   <g id="matplotlib.axis_1">
    <g id="xtick_1">
     <g id="line2d_1">
      <defs>
       <path d="M 0 0 
L 0 3.5 
" id="m3568d36e48" style="stroke:#000000;stroke-width:0.8;"/>
      </defs>
      <g>
       <use style="stroke:#000000;stroke-width:0.8;" x="93.216678" xlink:href="#m3568d36e48" y="307.584"/>
      </g>
     </g>
     <g id="text_1">
      <!-- 0 -->
      <defs>
       <path d="M 31.78125 66.40625 
Q 24.171875 66.40625 20.328125 58.90625 
Q 16.5 51.421875 16.5 36.375 
Q 16.5 21.390625 20.328125 13.890625 
Q 24.171875 6.390625 31.78125 6.390625 
Q 39.453125 6.390625 43.28125 13.890625 
Q 47.125 21.390625 47.125 36.375 
Q 47.125 51.421875 43.28125 58.90625 
Q 39.453125 66.40625 31.78125 66.40625 
z
M 31.78125 74.21875 
Q 44.046875 74.21875 50.515625 64.515625 
Q 56.984375 54.828125 56.984375 36.375 
Q 56.984375 17.96875 50.515625 8.265625 
Q 44.046875 -1.421875 31.78125 -1.421875 
Q 19.53125 -1.421875 13.0625 8.265625 
Q 6.59375 17.96875 6.59375 36.375 
Q 6.59375 54.828125 13.0625 64.515625 
Q 19.53125 74.21875 31.78125 74.21875 
z
" id="DejaVuSans-48"/>
      </defs>
      <g transform="translate(90.035428 322.182437)scale(0.1 -0.1)">
       <use xlink:href="#DejaVuSans-48"/>
      </g>
     </g>
    </g>
    <g id="xtick_2">
     <g id="line2d_2">
      <g>
       <use style="stroke:#000000;stroke-width:0.8;" x="133.767975" xlink:href="#m3568d36e48" y="307.584"/>
      </g>
     </g>
     <g id="text_2">
      <!-- 100 -->
      <defs>
       <path d="M 12.40625 8.296875 
L 28.515625 8.296875 
L 28.515625 63.921875 
L 10.984375 60.40625 
L 10.984375 69.390625 
L 28.421875 72.90625 
L 38.28125 72.90625 
L 38.28125 8.296875 
L 54.390625 8.296875 
L 54.390625 0 
L 12.40625 0 
z
" id="DejaVuSans-49"/>
      </defs>
      <g transform="translate(124.224225 322.182437)scale(0.1 -0.1)">
       <use xlink:href="#DejaVuSans-49"/>
       <use x="63.623047" xlink:href="#DejaVuSans-48"/>
       <use x="127.246094" xlink:href="#DejaVuSans-48"/>
      </g>
     </g>
    </g>
    <g id="xtick_3">
     <g id="line2d_3">
      <g>
       <use style="stroke:#000000;stroke-width:0.8;" x="174.319272" xlink:href="#m3568d36e48" y="307.584"/>
      </g>
     </g>
     <g id="text_3">
      <!-- 200 -->
      <defs>
       <path d="M 19.1875 8.296875 
L 53.609375 8.296875 
L 53.609375 0 
L 7.328125 0 
L 7.328125 8.296875 
Q 12.9375 14.109375 22.625 23.890625 
Q 32.328125 33.6875 34.8125 36.53125 
Q 39.546875 41.84375 41.421875 45.53125 
Q 43.3125 49.21875 43.3125 52.78125 
Q 43.3125 58.59375 39.234375 62.25 
Q 35.15625 65.921875 28.609375 65.921875 
Q 23.96875 65.921875 18.8125 64.3125 
Q 13.671875 62.703125 7.8125 59.421875 
L 7.8125 69.390625 
Q 13.765625 71.78125 18.9375 73 
Q 24.125 74.21875 28.421875 74.21875 
Q 39.75 74.21875 46.484375 68.546875 
Q 53.21875 62.890625 53.21875 53.421875 
Q 53.21875 48.921875 51.53125 44.890625 
Q 49.859375 40.875 45.40625 35.40625 
Q 44.1875 33.984375 37.640625 27.21875 
Q 31.109375 20.453125 19.1875 8.296875 
z
" id="DejaVuSans-50"/>
      </defs>
      <g transform="translate(164.775522 322.182437)scale(0.1 -0.1)">
       <use xlink:href="#DejaVuSans-50"/>
       <use x="63.623047" xlink:href="#DejaVuSans-48"/>
       <use x="127.246094" xlink:href="#DejaVuSans-48"/>
      </g>
     </g>
    </g>
    <g id="xtick_4">
     <g id="line2d_4">
      <g>
       <use style="stroke:#000000;stroke-width:0.8;" x="214.870569" xlink:href="#m3568d36e48" y="307.584"/>
      </g>
     </g>
     <g id="text_4">
      <!-- 300 -->
      <defs>
       <path d="M 40.578125 39.3125 
Q 47.65625 37.796875 51.625 33 
Q 55.609375 28.21875 55.609375 21.1875 
Q 55.609375 10.40625 48.1875 4.484375 
Q 40.765625 -1.421875 27.09375 -1.421875 
Q 22.515625 -1.421875 17.65625 -0.515625 
Q 12.796875 0.390625 7.625 2.203125 
L 7.625 11.71875 
Q 11.71875 9.328125 16.59375 8.109375 
Q 21.484375 6.890625 26.8125 6.890625 
Q 36.078125 6.890625 40.9375 10.546875 
Q 45.796875 14.203125 45.796875 21.1875 
Q 45.796875 27.640625 41.28125 31.265625 
Q 36.765625 34.90625 28.71875 34.90625 
L 20.21875 34.90625 
L 20.21875 43.015625 
L 29.109375 43.015625 
Q 36.375 43.015625 40.234375 45.921875 
Q 44.09375 48.828125 44.09375 54.296875 
Q 44.09375 59.90625 40.109375 62.90625 
Q 36.140625 65.921875 28.71875 65.921875 
Q 24.65625 65.921875 20.015625 65.03125 
Q 15.375 64.15625 9.8125 62.3125 
L 9.8125 71.09375 
Q 15.4375 72.65625 20.34375 73.4375 
Q 25.25 74.21875 29.59375 74.21875 
Q 40.828125 74.21875 47.359375 69.109375 
Q 53.90625 64.015625 53.90625 55.328125 
Q 53.90625 49.265625 50.4375 45.09375 
Q 46.96875 40.921875 40.578125 39.3125 
z
" id="DejaVuSans-51"/>
      </defs>
      <g transform="translate(205.326819 322.182437)scale(0.1 -0.1)">
       <use xlink:href="#DejaVuSans-51"/>
       <use x="63.623047" xlink:href="#DejaVuSans-48"/>
       <use x="127.246094" xlink:href="#DejaVuSans-48"/>
      </g>
     </g>
    </g>
    <g id="xtick_5">
     <g id="line2d_5">
      <g>
       <use style="stroke:#000000;stroke-width:0.8;" x="255.421866" xlink:href="#m3568d36e48" y="307.584"/>
      </g>
     </g>
     <g id="text_5">
      <!-- 400 -->
      <defs>
       <path d="M 37.796875 64.3125 
L 12.890625 25.390625 
L 37.796875 25.390625 
z
M 35.203125 72.90625 
L 47.609375 72.90625 
L 47.609375 25.390625 
L 58.015625 25.390625 
L 58.015625 17.1875 
L 47.609375 17.1875 
L 47.609375 0 
L 37.796875 0 
L 37.796875 17.1875 
L 4.890625 17.1875 
L 4.890625 26.703125 
z
" id="DejaVuSans-52"/>
      </defs>
      <g transform="translate(245.878116 322.182437)scale(0.1 -0.1)">
       <use xlink:href="#DejaVuSans-52"/>
       <use x="63.623047" xlink:href="#DejaVuSans-48"/>
       <use x="127.246094" xlink:href="#DejaVuSans-48"/>
      </g>
     </g>
    </g>
    <g id="xtick_6">
     <g id="line2d_6">
      <g>
       <use style="stroke:#000000;stroke-width:0.8;" x="295.973163" xlink:href="#m3568d36e48" y="307.584"/>
      </g>
     </g>
     <g id="text_6">
      <!-- 500 -->
      <defs>
       <path d="M 10.796875 72.90625 
L 49.515625 72.90625 
L 49.515625 64.59375 
L 19.828125 64.59375 
L 19.828125 46.734375 
Q 21.96875 47.46875 24.109375 47.828125 
Q 26.265625 48.1875 28.421875 48.1875 
Q 40.625 48.1875 47.75 41.5 
Q 54.890625 34.8125 54.890625 23.390625 
Q 54.890625 11.625 47.5625 5.09375 
Q 40.234375 -1.421875 26.90625 -1.421875 
Q 22.3125 -1.421875 17.546875 -0.640625 
Q 12.796875 0.140625 7.71875 1.703125 
L 7.71875 11.625 
Q 12.109375 9.234375 16.796875 8.0625 
Q 21.484375 6.890625 26.703125 6.890625 
Q 35.15625 6.890625 40.078125 11.328125 
Q 45.015625 15.765625 45.015625 23.390625 
Q 45.015625 31 40.078125 35.4375 
Q 35.15625 39.890625 26.703125 39.890625 
Q 22.75 39.890625 18.8125 39.015625 
Q 14.890625 38.140625 10.796875 36.28125 
z
" id="DejaVuSans-53"/>
      </defs>
      <g transform="translate(286.429413 322.182437)scale(0.1 -0.1)">
       <use xlink:href="#DejaVuSans-53"/>
       <use x="63.623047" xlink:href="#DejaVuSans-48"/>
       <use x="127.246094" xlink:href="#DejaVuSans-48"/>
      </g>
     </g>
    </g>
    <g id="xtick_7">
     <g id="line2d_7">
      <g>
       <use style="stroke:#000000;stroke-width:0.8;" x="336.52446" xlink:href="#m3568d36e48" y="307.584"/>
      </g>
     </g>
     <g id="text_7">
      <!-- 600 -->
      <defs>
       <path d="M 33.015625 40.375 
Q 26.375 40.375 22.484375 35.828125 
Q 18.609375 31.296875 18.609375 23.390625 
Q 18.609375 15.53125 22.484375 10.953125 
Q 26.375 6.390625 33.015625 6.390625 
Q 39.65625 6.390625 43.53125 10.953125 
Q 47.40625 15.53125 47.40625 23.390625 
Q 47.40625 31.296875 43.53125 35.828125 
Q 39.65625 40.375 33.015625 40.375 
z
M 52.59375 71.296875 
L 52.59375 62.3125 
Q 48.875 64.0625 45.09375 64.984375 
Q 41.3125 65.921875 37.59375 65.921875 
Q 27.828125 65.921875 22.671875 59.328125 
Q 17.53125 52.734375 16.796875 39.40625 
Q 19.671875 43.65625 24.015625 45.921875 
Q 28.375 48.1875 33.59375 48.1875 
Q 44.578125 48.1875 50.953125 41.515625 
Q 57.328125 34.859375 57.328125 23.390625 
Q 57.328125 12.15625 50.6875 5.359375 
Q 44.046875 -1.421875 33.015625 -1.421875 
Q 20.359375 -1.421875 13.671875 8.265625 
Q 6.984375 17.96875 6.984375 36.375 
Q 6.984375 53.65625 15.1875 63.9375 
Q 23.390625 74.21875 37.203125 74.21875 
Q 40.921875 74.21875 44.703125 73.484375 
Q 48.484375 72.75 52.59375 71.296875 
z
" id="DejaVuSans-54"/>
      </defs>
      <g transform="translate(326.98071 322.182437)scale(0.1 -0.1)">
       <use xlink:href="#DejaVuSans-54"/>
       <use x="63.623047" xlink:href="#DejaVuSans-48"/>
       <use x="127.246094" xlink:href="#DejaVuSans-48"/>
      </g>
     </g>
    </g>
    <g id="xtick_8">
     <g id="line2d_8">
      <g>
       <use style="stroke:#000000;stroke-width:0.8;" x="377.075757" xlink:href="#m3568d36e48" y="307.584"/>
      </g>
     </g>
     <g id="text_8">
      <!-- 700 -->
      <defs>
       <path d="M 8.203125 72.90625 
L 55.078125 72.90625 
L 55.078125 68.703125 
L 28.609375 0 
L 18.3125 0 
L 43.21875 64.59375 
L 8.203125 64.59375 
z
" id="DejaVuSans-55"/>
      </defs>
      <g transform="translate(367.532007 322.182437)scale(0.1 -0.1)">
       <use xlink:href="#DejaVuSans-55"/>
       <use x="63.623047" xlink:href="#DejaVuSans-48"/>
       <use x="127.246094" xlink:href="#DejaVuSans-48"/>
      </g>
     </g>
    </g>
    <g id="text_9">
     <!-- pltadmac -->
     <defs>
      <path d="M 18.109375 8.203125 
L 18.109375 -20.796875 
L 9.078125 -20.796875 
L 9.078125 54.6875 
L 18.109375 54.6875 
L 18.109375 46.390625 
Q 20.953125 51.265625 25.265625 53.625 
Q 29.59375 56 35.59375 56 
Q 45.5625 56 51.78125 48.09375 
Q 58.015625 40.1875 58.015625 27.296875 
Q 58.015625 14.40625 51.78125 6.484375 
Q 45.5625 -1.421875 35.59375 -1.421875 
Q 29.59375 -1.421875 25.265625 0.953125 
Q 20.953125 3.328125 18.109375 8.203125 
z
M 48.6875 27.296875 
Q 48.6875 37.203125 44.609375 42.84375 
Q 40.53125 48.484375 33.40625 48.484375 
Q 26.265625 48.484375 22.1875 42.84375 
Q 18.109375 37.203125 18.109375 27.296875 
Q 18.109375 17.390625 22.1875 11.75 
Q 26.265625 6.109375 33.40625 6.109375 
Q 40.53125 6.109375 44.609375 11.75 
Q 48.6875 17.390625 48.6875 27.296875 
z
" id="DejaVuSans-112"/>
      <path d="M 9.421875 75.984375 
L 18.40625 75.984375 
L 18.40625 0 
L 9.421875 0 
z
" id="DejaVuSans-108"/>
      <path d="M 18.3125 70.21875 
L 18.3125 54.6875 
L 36.8125 54.6875 
L 36.8125 47.703125 
L 18.3125 47.703125 
L 18.3125 18.015625 
Q 18.3125 11.328125 20.140625 9.421875 
Q 21.96875 7.515625 27.59375 7.515625 
L 36.8125 7.515625 
L 36.8125 0 
L 27.59375 0 
Q 17.1875 0 13.234375 3.875 
Q 9.28125 7.765625 9.28125 18.015625 
L 9.28125 47.703125 
L 2.6875 47.703125 
L 2.6875 54.6875 
L 9.28125 54.6875 
L 9.28125 70.21875 
z
" id="DejaVuSans-116"/>
      <path d="M 34.28125 27.484375 
Q 23.390625 27.484375 19.1875 25 
Q 14.984375 22.515625 14.984375 16.5 
Q 14.984375 11.71875 18.140625 8.90625 
Q 21.296875 6.109375 26.703125 6.109375 
Q 34.1875 6.109375 38.703125 11.40625 
Q 43.21875 16.703125 43.21875 25.484375 
L 43.21875 27.484375 
z
M 52.203125 31.203125 
L 52.203125 0 
L 43.21875 0 
L 43.21875 8.296875 
Q 40.140625 3.328125 35.546875 0.953125 
Q 30.953125 -1.421875 24.3125 -1.421875 
Q 15.921875 -1.421875 10.953125 3.296875 
Q 6 8.015625 6 15.921875 
Q 6 25.140625 12.171875 29.828125 
Q 18.359375 34.515625 30.609375 34.515625 
L 43.21875 34.515625 
L 43.21875 35.40625 
Q 43.21875 41.609375 39.140625 45 
Q 35.0625 48.390625 27.6875 48.390625 
Q 23 48.390625 18.546875 47.265625 
Q 14.109375 46.140625 10.015625 43.890625 
L 10.015625 52.203125 
Q 14.9375 54.109375 19.578125 55.046875 
Q 24.21875 56 28.609375 56 
Q 40.484375 56 46.34375 49.84375 
Q 52.203125 43.703125 52.203125 31.203125 
z
" id="DejaVuSans-97"/>
      <path d="M 45.40625 46.390625 
L 45.40625 75.984375 
L 54.390625 75.984375 
L 54.390625 0 
L 45.40625 0 
L 45.40625 8.203125 
Q 42.578125 3.328125 38.25 0.953125 
Q 33.9375 -1.421875 27.875 -1.421875 
Q 17.96875 -1.421875 11.734375 6.484375 
Q 5.515625 14.40625 5.515625 27.296875 
Q 5.515625 40.1875 11.734375 48.09375 
Q 17.96875 56 27.875 56 
Q 33.9375 56 38.25 53.625 
Q 42.578125 51.265625 45.40625 46.390625 
z
M 14.796875 27.296875 
Q 14.796875 17.390625 18.875 11.75 
Q 22.953125 6.109375 30.078125 6.109375 
Q 37.203125 6.109375 41.296875 11.75 
Q 45.40625 17.390625 45.40625 27.296875 
Q 45.40625 37.203125 41.296875 42.84375 
Q 37.203125 48.484375 30.078125 48.484375 
Q 22.953125 48.484375 18.875 42.84375 
Q 14.796875 37.203125 14.796875 27.296875 
z
" id="DejaVuSans-100"/>
      <path d="M 52 44.1875 
Q 55.375 50.25 60.0625 53.125 
Q 64.75 56 71.09375 56 
Q 79.640625 56 84.28125 50.015625 
Q 88.921875 44.046875 88.921875 33.015625 
L 88.921875 0 
L 79.890625 0 
L 79.890625 32.71875 
Q 79.890625 40.578125 77.09375 44.375 
Q 74.3125 48.1875 68.609375 48.1875 
Q 61.625 48.1875 57.5625 43.546875 
Q 53.515625 38.921875 53.515625 30.90625 
L 53.515625 0 
L 44.484375 0 
L 44.484375 32.71875 
Q 44.484375 40.625 41.703125 44.40625 
Q 38.921875 48.1875 33.109375 48.1875 
Q 26.21875 48.1875 22.15625 43.53125 
Q 18.109375 38.875 18.109375 30.90625 
L 18.109375 0 
L 9.078125 0 
L 9.078125 54.6875 
L 18.109375 54.6875 
L 18.109375 46.1875 
Q 21.1875 51.21875 25.484375 53.609375 
Q 29.78125 56 35.6875 56 
Q 41.65625 56 45.828125 52.96875 
Q 50 49.953125 52 44.1875 
z
" id="DejaVuSans-109"/>
      <path d="M 48.78125 52.59375 
L 48.78125 44.1875 
Q 44.96875 46.296875 41.140625 47.34375 
Q 37.3125 48.390625 33.40625 48.390625 
Q 24.65625 48.390625 19.8125 42.84375 
Q 14.984375 37.3125 14.984375 27.296875 
Q 14.984375 17.28125 19.8125 11.734375 
Q 24.65625 6.203125 33.40625 6.203125 
Q 37.3125 6.203125 41.140625 7.25 
Q 44.96875 8.296875 48.78125 10.40625 
L 48.78125 2.09375 
Q 45.015625 0.34375 40.984375 -0.53125 
Q 36.96875 -1.421875 32.421875 -1.421875 
Q 20.0625 -1.421875 12.78125 6.34375 
Q 5.515625 14.109375 5.515625 27.296875 
Q 5.515625 40.671875 12.859375 48.328125 
Q 20.21875 56 33.015625 56 
Q 37.15625 56 41.109375 55.140625 
Q 45.0625 54.296875 48.78125 52.59375 
z
" id="DejaVuSans-99"/>
     </defs>
     <g transform="translate(212.714687 335.860562)scale(0.1 -0.1)">
      <use xlink:href="#DejaVuSans-112"/>
      <use x="63.476562" xlink:href="#DejaVuSans-108"/>
      <use x="91.259766" xlink:href="#DejaVuSans-116"/>
      <use x="130.46875" xlink:href="#DejaVuSans-97"/>
      <use x="191.748047" xlink:href="#DejaVuSans-100"/>
      <use x="255.224609" xlink:href="#DejaVuSans-109"/>
      <use x="352.636719" xlink:href="#DejaVuSans-97"/>
      <use x="413.916016" xlink:href="#DejaVuSans-99"/>
     </g>
    </g>
   </g>
   <g id="matplotlib.axis_2">
    <g id="ytick_1">
     <g id="line2d_9">
      <defs>
       <path d="M 0 0 
L -3.5 0 
" id="ma74c3e2cf9" style="stroke:#000000;stroke-width:0.8;"/>
      </defs>
      <g>
       <use style="stroke:#000000;stroke-width:0.8;" x="57.6" xlink:href="#ma74c3e2cf9" y="174.528"/>
      </g>
     </g>
    </g>
   </g>
   <g id="line2d_10">
    <path clip-path="url(#pe9819a7517)" d="M 144.311313 174.528 
L 196.622486 174.528 
" style="fill:none;stroke:#ffa500;stroke-linecap:square;stroke-width:1.5;"/>
   </g>
   <g id="line2d_11">
    <path clip-path="url(#pe9819a7517)" d="M 147.960929 174.528 
L 186.890174 174.528 
" style="fill:none;stroke:#4c4c4c;stroke-linecap:square;stroke-width:4.5;"/>
   </g>
   <g id="line2d_12">
    <path clip-path="url(#pe9819a7517)" d="M 99.704886 174.528 
L 248.122633 174.528 
" style="fill:none;stroke:#008000;stroke-linecap:square;stroke-width:1.5;"/>
   </g>
   <g id="line2d_13">
    <path clip-path="url(#pe9819a7517)" d="M 152.016059 174.528 
L 190.539791 174.528 
" style="fill:none;stroke:#262626;stroke-linecap:square;stroke-width:4.5;"/>
   </g>
   <g id="patch_3">
    <path d="M 57.6 307.584 
L 57.6 41.472 
" style="fill:none;stroke:#000000;stroke-linecap:square;stroke-linejoin:miter;stroke-width:0.8;"/>
   </g>
   <g id="patch_4">
    <path d="M 414.72 307.584 
L 414.72 41.472 
" style="fill:none;stroke:#000000;stroke-linecap:square;stroke-linejoin:miter;stroke-width:0.8;"/>
   </g>
   <g id="patch_5">
    <path d="M 57.6 307.584 
L 414.72 307.584 
" style="fill:none;stroke:#000000;stroke-linecap:square;stroke-linejoin:miter;stroke-width:0.8;"/>
   </g>
   <g id="patch_6">
    <path d="M 57.6 41.472 
L 414.72 41.472 
" style="fill:none;stroke:#000000;stroke-linecap:square;stroke-linejoin:miter;stroke-width:0.8;"/>
   </g>
   <g id="PathCollection_1">
    <defs>
     <path d="M 0 1.5 
C 0.397805 1.5 0.77937 1.341951 1.06066 1.06066 
C 1.341951 0.77937 1.5 0.397805 1.5 0 
C 1.5 -0.397805 1.341951 -0.77937 1.06066 -1.06066 
C 0.77937 -1.341951 0.397805 -1.5 0 -1.5 
C -0.397805 -1.5 -0.77937 -1.341951 -1.06066 -1.06066 
C -1.341951 -0.77937 -1.5 -0.397805 -1.5 0 
C -1.5 0.397805 -1.341951 0.77937 -1.06066 1.06066 
C -0.77937 1.341951 -0.397805 1.5 0 1.5 
z
" id="m9bcf7a1a21" style="stroke:#4c4c4c;stroke-opacity:0.5;"/>
    </defs>
    <g clip-path="url(#pe9819a7517)">
     <use style="fill:#ffffff;fill-opacity:0.5;stroke:#4c4c4c;stroke-opacity:0.5;" x="169.85863" xlink:href="#m9bcf7a1a21" y="174.528"/>
    </g>
   </g>
   <g id="PathCollection_2">
    <defs>
     <path d="M 0 1.5 
C 0.397805 1.5 0.77937 1.341951 1.06066 1.06066 
C 1.341951 0.77937 1.5 0.397805 1.5 0 
C 1.5 -0.397805 1.341951 -0.77937 1.06066 -1.06066 
C 0.77937 -1.341951 0.397805 -1.5 0 -1.5 
C -0.397805 -1.5 -0.77937 -1.341951 -1.06066 -1.06066 
C -1.341951 -0.77937 -1.5 -0.397805 -1.5 0 
C -1.5 0.397805 -1.341951 0.77937 -1.06066 1.06066 
C -0.77937 1.341951 -0.397805 1.5 0 1.5 
z
" id="m27bc77571b" style="stroke:#262626;stroke-opacity:0.5;"/>
    </defs>
    <g clip-path="url(#pe9819a7517)">
     <use style="fill:#ffffff;fill-opacity:0.5;stroke:#262626;stroke-opacity:0.5;" x="170.669656" xlink:href="#m27bc77571b" y="174.528"/>
    </g>
   </g>
   <g id="text_10">
    <!-- Association of pltadmac vs. myocarditis -->
    <defs>
     <path d="M 34.1875 63.1875 
L 20.796875 26.90625 
L 47.609375 26.90625 
z
M 28.609375 72.90625 
L 39.796875 72.90625 
L 67.578125 0 
L 57.328125 0 
L 50.6875 18.703125 
L 17.828125 18.703125 
L 11.1875 0 
L 0.78125 0 
z
" id="DejaVuSans-65"/>
     <path d="M 44.28125 53.078125 
L 44.28125 44.578125 
Q 40.484375 46.53125 36.375 47.5 
Q 32.28125 48.484375 27.875 48.484375 
Q 21.1875 48.484375 17.84375 46.4375 
Q 14.5 44.390625 14.5 40.28125 
Q 14.5 37.15625 16.890625 35.375 
Q 19.28125 33.59375 26.515625 31.984375 
L 29.59375 31.296875 
Q 39.15625 29.25 43.1875 25.515625 
Q 47.21875 21.78125 47.21875 15.09375 
Q 47.21875 7.46875 41.1875 3.015625 
Q 35.15625 -1.421875 24.609375 -1.421875 
Q 20.21875 -1.421875 15.453125 -0.5625 
Q 10.6875 0.296875 5.421875 2 
L 5.421875 11.28125 
Q 10.40625 8.6875 15.234375 7.390625 
Q 20.0625 6.109375 24.8125 6.109375 
Q 31.15625 6.109375 34.5625 8.28125 
Q 37.984375 10.453125 37.984375 14.40625 
Q 37.984375 18.0625 35.515625 20.015625 
Q 33.0625 21.96875 24.703125 23.78125 
L 21.578125 24.515625 
Q 13.234375 26.265625 9.515625 29.90625 
Q 5.8125 33.546875 5.8125 39.890625 
Q 5.8125 47.609375 11.28125 51.796875 
Q 16.75 56 26.8125 56 
Q 31.78125 56 36.171875 55.265625 
Q 40.578125 54.546875 44.28125 53.078125 
z
" id="DejaVuSans-115"/>
     <path d="M 30.609375 48.390625 
Q 23.390625 48.390625 19.1875 42.75 
Q 14.984375 37.109375 14.984375 27.296875 
Q 14.984375 17.484375 19.15625 11.84375 
Q 23.34375 6.203125 30.609375 6.203125 
Q 37.796875 6.203125 41.984375 11.859375 
Q 46.1875 17.53125 46.1875 27.296875 
Q 46.1875 37.015625 41.984375 42.703125 
Q 37.796875 48.390625 30.609375 48.390625 
z
M 30.609375 56 
Q 42.328125 56 49.015625 48.375 
Q 55.71875 40.765625 55.71875 27.296875 
Q 55.71875 13.875 49.015625 6.21875 
Q 42.328125 -1.421875 30.609375 -1.421875 
Q 18.84375 -1.421875 12.171875 6.21875 
Q 5.515625 13.875 5.515625 27.296875 
Q 5.515625 40.765625 12.171875 48.375 
Q 18.84375 56 30.609375 56 
z
" id="DejaVuSans-111"/>
     <path d="M 9.421875 54.6875 
L 18.40625 54.6875 
L 18.40625 0 
L 9.421875 0 
z
M 9.421875 75.984375 
L 18.40625 75.984375 
L 18.40625 64.59375 
L 9.421875 64.59375 
z
" id="DejaVuSans-105"/>
     <path d="M 54.890625 33.015625 
L 54.890625 0 
L 45.90625 0 
L 45.90625 32.71875 
Q 45.90625 40.484375 42.875 44.328125 
Q 39.84375 48.1875 33.796875 48.1875 
Q 26.515625 48.1875 22.3125 43.546875 
Q 18.109375 38.921875 18.109375 30.90625 
L 18.109375 0 
L 9.078125 0 
L 9.078125 54.6875 
L 18.109375 54.6875 
L 18.109375 46.1875 
Q 21.34375 51.125 25.703125 53.5625 
Q 30.078125 56 35.796875 56 
Q 45.21875 56 50.046875 50.171875 
Q 54.890625 44.34375 54.890625 33.015625 
z
" id="DejaVuSans-110"/>
     <path id="DejaVuSans-32"/>
     <path d="M 37.109375 75.984375 
L 37.109375 68.5 
L 28.515625 68.5 
Q 23.6875 68.5 21.796875 66.546875 
Q 19.921875 64.59375 19.921875 59.515625 
L 19.921875 54.6875 
L 34.71875 54.6875 
L 34.71875 47.703125 
L 19.921875 47.703125 
L 19.921875 0 
L 10.890625 0 
L 10.890625 47.703125 
L 2.296875 47.703125 
L 2.296875 54.6875 
L 10.890625 54.6875 
L 10.890625 58.5 
Q 10.890625 67.625 15.140625 71.796875 
Q 19.390625 75.984375 28.609375 75.984375 
z
" id="DejaVuSans-102"/>
     <path d="M 2.984375 54.6875 
L 12.5 54.6875 
L 29.59375 8.796875 
L 46.6875 54.6875 
L 56.203125 54.6875 
L 35.6875 0 
L 23.484375 0 
z
" id="DejaVuSans-118"/>
     <path d="M 10.6875 12.40625 
L 21 12.40625 
L 21 0 
L 10.6875 0 
z
" id="DejaVuSans-46"/>
     <path d="M 32.171875 -5.078125 
Q 28.375 -14.84375 24.75 -17.8125 
Q 21.140625 -20.796875 15.09375 -20.796875 
L 7.90625 -20.796875 
L 7.90625 -13.28125 
L 13.1875 -13.28125 
Q 16.890625 -13.28125 18.9375 -11.515625 
Q 21 -9.765625 23.484375 -3.21875 
L 25.09375 0.875 
L 2.984375 54.6875 
L 12.5 54.6875 
L 29.59375 11.921875 
L 46.6875 54.6875 
L 56.203125 54.6875 
z
" id="DejaVuSans-121"/>
     <path d="M 41.109375 46.296875 
Q 39.59375 47.171875 37.8125 47.578125 
Q 36.03125 48 33.890625 48 
Q 26.265625 48 22.1875 43.046875 
Q 18.109375 38.09375 18.109375 28.8125 
L 18.109375 0 
L 9.078125 0 
L 9.078125 54.6875 
L 18.109375 54.6875 
L 18.109375 46.1875 
Q 20.953125 51.171875 25.484375 53.578125 
Q 30.03125 56 36.53125 56 
Q 37.453125 56 38.578125 55.875 
Q 39.703125 55.765625 41.0625 55.515625 
z
" id="DejaVuSans-114"/>
    </defs>
    <g transform="translate(116.843438 35.472)scale(0.12 -0.12)">
     <use xlink:href="#DejaVuSans-65"/>
     <use x="68.408203" xlink:href="#DejaVuSans-115"/>
     <use x="120.507812" xlink:href="#DejaVuSans-115"/>
     <use x="172.607422" xlink:href="#DejaVuSans-111"/>
     <use x="233.789062" xlink:href="#DejaVuSans-99"/>
     <use x="288.769531" xlink:href="#DejaVuSans-105"/>
     <use x="316.552734" xlink:href="#DejaVuSans-97"/>
     <use x="377.832031" xlink:href="#DejaVuSans-116"/>
     <use x="417.041016" xlink:href="#DejaVuSans-105"/>
     <use x="444.824219" xlink:href="#DejaVuSans-111"/>
     <use x="506.005859" xlink:href="#DejaVuSans-110"/>
     <use x="569.384766" xlink:href="#DejaVuSans-32"/>
     <use x="601.171875" xlink:href="#DejaVuSans-111"/>
     <use x="662.353516" xlink:href="#DejaVuSans-102"/>
     <use x="697.558594" xlink:href="#DejaVuSans-32"/>
     <use x="729.345703" xlink:href="#DejaVuSans-112"/>
     <use x="792.822266" xlink:href="#DejaVuSans-108"/>
     <use x="820.605469" xlink:href="#DejaVuSans-116"/>
     <use x="859.814453" xlink:href="#DejaVuSans-97"/>
     <use x="921.09375" xlink:href="#DejaVuSans-100"/>
     <use x="984.570312" xlink:href="#DejaVuSans-109"/>
     <use x="1081.982422" xlink:href="#DejaVuSans-97"/>
     <use x="1143.261719" xlink:href="#DejaVuSans-99"/>
     <use x="1198.242188" xlink:href="#DejaVuSans-32"/>
     <use x="1230.029297" xlink:href="#DejaVuSans-118"/>
     <use x="1289.208984" xlink:href="#DejaVuSans-115"/>
     <use x="1341.308594" xlink:href="#DejaVuSans-46"/>
     <use x="1373.095703" xlink:href="#DejaVuSans-32"/>
     <use x="1404.882812" xlink:href="#DejaVuSans-109"/>
     <use x="1502.294922" xlink:href="#DejaVuSans-121"/>
     <use x="1561.474609" xlink:href="#DejaVuSans-111"/>
     <use x="1622.65625" xlink:href="#DejaVuSans-99"/>
     <use x="1677.636719" xlink:href="#DejaVuSans-97"/>
     <use x="1738.916016" xlink:href="#DejaVuSans-114"/>
     <use x="1778.279297" xlink:href="#DejaVuSans-100"/>
     <use x="1841.755859" xlink:href="#DejaVuSans-105"/>
     <use x="1869.539062" xlink:href="#DejaVuSans-116"/>
     <use x="1908.748047" xlink:href="#DejaVuSans-105"/>
     <use x="1936.53125" xlink:href="#DejaVuSans-115"/>
    </g>
   </g>
   <g id="legend_1">
    <g id="patch_7">
     <path d="M 266.577812 78.82825 
L 407.72 78.82825 
Q 409.72 78.82825 409.72 76.82825 
L 409.72 48.472 
Q 409.72 46.472 407.72 46.472 
L 266.577812 46.472 
Q 264.577812 46.472 264.577812 48.472 
L 264.577812 76.82825 
Q 264.577812 78.82825 266.577812 78.82825 
z
" style="fill:#ffffff;opacity:0.8;stroke:#cccccc;stroke-linejoin:miter;"/>
    </g>
    <g id="line2d_14">
     <path d="M 268.577812 54.570437 
L 288.577812 54.570437 
" style="fill:none;stroke:#ffa500;stroke-linecap:square;stroke-width:1.5;"/>
    </g>
    <g id="line2d_15"/>
    <g id="text_11">
     <!-- myocarditis (5) -->
     <defs>
      <path d="M 31 75.875 
Q 24.46875 64.65625 21.28125 53.65625 
Q 18.109375 42.671875 18.109375 31.390625 
Q 18.109375 20.125 21.3125 9.0625 
Q 24.515625 -2 31 -13.1875 
L 23.1875 -13.1875 
Q 15.875 -1.703125 12.234375 9.375 
Q 8.59375 20.453125 8.59375 31.390625 
Q 8.59375 42.28125 12.203125 53.3125 
Q 15.828125 64.359375 23.1875 75.875 
z
" id="DejaVuSans-40"/>
      <path d="M 8.015625 75.875 
L 15.828125 75.875 
Q 23.140625 64.359375 26.78125 53.3125 
Q 30.421875 42.28125 30.421875 31.390625 
Q 30.421875 20.453125 26.78125 9.375 
Q 23.140625 -1.703125 15.828125 -13.1875 
L 8.015625 -13.1875 
Q 14.5 -2 17.703125 9.0625 
Q 20.90625 20.125 20.90625 31.390625 
Q 20.90625 42.671875 17.703125 53.65625 
Q 14.5 64.65625 8.015625 75.875 
z
" id="DejaVuSans-41"/>
     </defs>
     <g transform="translate(296.577812 58.070437)scale(0.1 -0.1)">
      <use xlink:href="#DejaVuSans-109"/>
      <use x="97.412109" xlink:href="#DejaVuSans-121"/>
      <use x="156.591797" xlink:href="#DejaVuSans-111"/>
      <use x="217.773438" xlink:href="#DejaVuSans-99"/>
      <use x="272.753906" xlink:href="#DejaVuSans-97"/>
      <use x="334.033203" xlink:href="#DejaVuSans-114"/>
      <use x="373.396484" xlink:href="#DejaVuSans-100"/>
      <use x="436.873047" xlink:href="#DejaVuSans-105"/>
      <use x="464.65625" xlink:href="#DejaVuSans-116"/>
      <use x="503.865234" xlink:href="#DejaVuSans-105"/>
      <use x="531.648438" xlink:href="#DejaVuSans-115"/>
      <use x="583.748047" xlink:href="#DejaVuSans-32"/>
      <use x="615.535156" xlink:href="#DejaVuSans-40"/>
      <use x="654.548828" xlink:href="#DejaVuSans-53"/>
      <use x="718.171875" xlink:href="#DejaVuSans-41"/>
     </g>
    </g>
    <g id="line2d_16">
     <path d="M 268.577812 69.248562 
L 288.577812 69.248562 
" style="fill:none;stroke:#008000;stroke-linecap:square;stroke-width:1.5;"/>
    </g>
    <g id="line2d_17"/>
    <g id="text_12">
     <!-- Not myocarditis (476) -->
     <defs>
      <path d="M 9.8125 72.90625 
L 23.09375 72.90625 
L 55.421875 11.921875 
L 55.421875 72.90625 
L 64.984375 72.90625 
L 64.984375 0 
L 51.703125 0 
L 19.390625 60.984375 
L 19.390625 0 
L 9.8125 0 
z
" id="DejaVuSans-78"/>
     </defs>
     <g transform="translate(296.577812 72.748562)scale(0.1 -0.1)">
      <use xlink:href="#DejaVuSans-78"/>
      <use x="74.804688" xlink:href="#DejaVuSans-111"/>
      <use x="135.986328" xlink:href="#DejaVuSans-116"/>
      <use x="175.195312" xlink:href="#DejaVuSans-32"/>
      <use x="206.982422" xlink:href="#DejaVuSans-109"/>
      <use x="304.394531" xlink:href="#DejaVuSans-121"/>
      <use x="363.574219" xlink:href="#DejaVuSans-111"/>
      <use x="424.755859" xlink:href="#DejaVuSans-99"/>
      <use x="479.736328" xlink:href="#DejaVuSans-97"/>
      <use x="541.015625" xlink:href="#DejaVuSans-114"/>
      <use x="580.378906" xlink:href="#DejaVuSans-100"/>
      <use x="643.855469" xlink:href="#DejaVuSans-105"/>
      <use x="671.638672" xlink:href="#DejaVuSans-116"/>
      <use x="710.847656" xlink:href="#DejaVuSans-105"/>
      <use x="738.630859" xlink:href="#DejaVuSans-115"/>
      <use x="790.730469" xlink:href="#DejaVuSans-32"/>
      <use x="822.517578" xlink:href="#DejaVuSans-40"/>
      <use x="861.53125" xlink:href="#DejaVuSans-52"/>
      <use x="925.154297" xlink:href="#DejaVuSans-55"/>
      <use x="988.777344" xlink:href="#DejaVuSans-54"/>
      <use x="1052.400391" xlink:href="#DejaVuSans-41"/>
     </g>
    </g>
   </g>
  </g>
 </g>
 <defs>
  <clipPath id="pe9819a7517">
   <rect height="266.112" width="357.12" x="57.6" y="41.472"/>
  </clipPath>
 </defs>
</svg>
