<?xml version="1.0" encoding="utf-8" standalone="no"?>
<!DOCTYPE svg PUBLIC "-//W3C//DTD SVG 1.1//EN"
  "http://www.w3.org/Graphics/SVG/1.1/DTD/svg11.dtd">
<!-- Created with matplotlib (https://matplotlib.org/) -->
<svg height="345.6pt" version="1.1" viewBox="0 0 460.8 345.6" width="460.8pt" xmlns="http://www.w3.org/2000/svg" xmlns:xlink="http://www.w3.org/1999/xlink">
 <defs>
  <style type="text/css">
*{stroke-linecap:butt;stroke-linejoin:round;}
  </style>
 </defs>
 <g id="figure_1">
  <g id="patch_1">
   <path d="M 0 345.6 
L 460.8 345.6 
L 460.8 0 
L 0 0 
z
" style="fill:#ffffff;"/>
  </g>
  <g id="axes_1">
   <g id="patch_2">
    <path d="M 57.6 307.584 
L 414.72 307.584 
L 414.72 41.472 
L 57.6 41.472 
z
" style="fill:#ffffff;"/>
   </g>
   <g id="PolyCollection_1">
    <defs>
     <path d="M 73.832727 -167.14796 
L 73.832727 -174.99604 
L 77.112066 -176.762039 
L 80.391405 -179.14272 
L 83.670744 -182.270568 
L 86.950083 -186.274265 
L 90.229421 -191.264816 
L 93.50876 -197.319073 
L 96.788099 -204.462188 
L 100.067438 -212.651197 
L 103.346777 -221.762353 
L 106.626116 -231.584845 
L 109.905455 -241.823122 
L 113.184793 -252.109055 
L 116.464132 -262.023863 
L 119.743471 -271.128177 
L 123.02281 -278.997218 
L 126.302149 -285.256982 
L 129.581488 -289.61694 
L 132.860826 -291.895062 
L 136.140165 -292.032 
L 139.419504 -290.092817 
L 142.698843 -286.256449 
L 145.978182 -280.794753 
L 149.257521 -274.044333 
L 152.53686 -266.375023 
L 155.816198 -258.158959 
L 159.095537 -249.743637 
L 162.374876 -241.431326 
L 165.654215 -233.46606 
L 168.933554 -226.028194 
L 172.212893 -219.235596 
L 175.492231 -213.149879 
L 178.77157 -207.785812 
L 182.050909 -203.122116 
L 185.330248 -199.112164 
L 188.609587 -195.693532 
L 191.888926 -192.79585 
L 195.168264 -190.346774 
L 198.447603 -188.276243 
L 201.726942 -186.5193 
L 205.006281 -185.017842 
L 208.28562 -183.721615 
L 211.564959 -182.588667 
L 214.844298 -181.585419 
L 218.123636 -180.686409 
L 221.402975 -179.87375 
L 224.682314 -179.136301 
L 227.961653 -178.468595 
L 231.240992 -177.869559 
L 234.520331 -177.341091 
L 237.799669 -176.886584 
L 241.079008 -176.509486 
L 244.358347 -176.211974 
L 247.637686 -175.993855 
L 250.917025 -175.851755 
L 254.196364 -175.778685 
L 257.475702 -175.764027 
L 260.755041 -175.793967 
L 264.03438 -175.852362 
L 267.313719 -175.921972 
L 270.593058 -175.985954 
L 273.872397 -176.029451 
L 277.151736 -176.041102 
L 280.431074 -176.014294 
L 283.710413 -175.947992 
L 286.989752 -175.847041 
L 290.269091 -175.721877 
L 293.54843 -175.587691 
L 296.827769 -175.463084 
L 300.107107 -175.368379 
L 303.386446 -175.323706 
L 306.665785 -175.347063 
L 309.945124 -175.452486 
L 313.224463 -175.648499 
L 316.503802 -175.936946 
L 319.78314 -176.312314 
L 323.062479 -176.761605 
L 326.341818 -177.264776 
L 329.621157 -177.795762 
L 332.900496 -178.324022 
L 336.179835 -178.816546 
L 339.459174 -179.240186 
L 342.738512 -179.56416 
L 346.017851 -179.762508 
L 349.29719 -179.816288 
L 352.576529 -179.715248 
L 355.855868 -179.458796 
L 359.135207 -179.056096 
L 362.414545 -178.52526 
L 365.693884 -177.891689 
L 368.973223 -177.185761 
L 372.252562 -176.440122 
L 375.531901 -175.686932 
L 378.81124 -174.955373 
L 382.090579 -174.269697 
L 385.369917 -173.647991 
L 388.649256 -173.101712 
L 391.928595 -172.635947 
L 395.207934 -172.250229 
L 398.487273 -171.939737 
L 398.487273 -170.204263 
L 398.487273 -170.204263 
L 395.207934 -169.893771 
L 391.928595 -169.508053 
L 388.649256 -169.042288 
L 385.369917 -168.496009 
L 382.090579 -167.874303 
L 378.81124 -167.188627 
L 375.531901 -166.457068 
L 372.252562 -165.703878 
L 368.973223 -164.958239 
L 365.693884 -164.252311 
L 362.414545 -163.61874 
L 359.135207 -163.087904 
L 355.855868 -162.685204 
L 352.576529 -162.428752 
L 349.29719 -162.327712 
L 346.017851 -162.381492 
L 342.738512 -162.57984 
L 339.459174 -162.903814 
L 336.179835 -163.327454 
L 332.900496 -163.819978 
L 329.621157 -164.348238 
L 326.341818 -164.879224 
L 323.062479 -165.382395 
L 319.78314 -165.831686 
L 316.503802 -166.207054 
L 313.224463 -166.495501 
L 309.945124 -166.691514 
L 306.665785 -166.796937 
L 303.386446 -166.820294 
L 300.107107 -166.775621 
L 296.827769 -166.680916 
L 293.54843 -166.556309 
L 290.269091 -166.422123 
L 286.989752 -166.296959 
L 283.710413 -166.196008 
L 280.431074 -166.129706 
L 277.151736 -166.102898 
L 273.872397 -166.114549 
L 270.593058 -166.158046 
L 267.313719 -166.222028 
L 264.03438 -166.291638 
L 260.755041 -166.350033 
L 257.475702 -166.379973 
L 254.196364 -166.365315 
L 250.917025 -166.292245 
L 247.637686 -166.150145 
L 244.358347 -165.932026 
L 241.079008 -165.634514 
L 237.799669 -165.257416 
L 234.520331 -164.802909 
L 231.240992 -164.274441 
L 227.961653 -163.675405 
L 224.682314 -163.007699 
L 221.402975 -162.27025 
L 218.123636 -161.457591 
L 214.844298 -160.558581 
L 211.564959 -159.555333 
L 208.28562 -158.422385 
L 205.006281 -157.126158 
L 201.726942 -155.6247 
L 198.447603 -153.867757 
L 195.168264 -151.797226 
L 191.888926 -149.34815 
L 188.609587 -146.450468 
L 185.330248 -143.031836 
L 182.050909 -139.021884 
L 178.77157 -134.358188 
L 175.492231 -128.994121 
L 172.212893 -122.908404 
L 168.933554 -116.115806 
L 165.654215 -108.67794 
L 162.374876 -100.712674 
L 159.095537 -92.400363 
L 155.816198 -83.985041 
L 152.53686 -75.768977 
L 149.257521 -68.099667 
L 145.978182 -61.349247 
L 142.698843 -55.887551 
L 139.419504 -52.051183 
L 136.140165 -50.112 
L 132.860826 -50.248938 
L 129.581488 -52.52706 
L 126.302149 -56.887018 
L 123.02281 -63.146782 
L 119.743471 -71.015823 
L 116.464132 -80.120137 
L 113.184793 -90.034945 
L 109.905455 -100.320878 
L 106.626116 -110.559155 
L 103.346777 -120.381647 
L 100.067438 -129.492803 
L 96.788099 -137.681812 
L 93.50876 -144.824927 
L 90.229421 -150.879184 
L 86.950083 -155.869735 
L 83.670744 -159.873432 
L 80.391405 -163.00128 
L 77.112066 -165.381961 
L 73.832727 -167.14796 
z
" id="m8298ecc452" style="stroke:#4c4c4c;stroke-opacity:0.5;stroke-width:1.5;"/>
    </defs>
    <g clip-path="url(#p6987a67a08)">
     <use style="fill:#df9c20;fill-opacity:0.5;stroke:#4c4c4c;stroke-opacity:0.5;stroke-width:1.5;" x="0" xlink:href="#m8298ecc452" y="345.6"/>
    </g>
   </g>
   <g id="PolyCollection_2">
    <defs>
     <path d="M 86.443788 -169.817575 
L 86.443788 -172.326425 
L 89.432721 -173.364636 
L 92.421655 -175.083821 
L 95.410588 -177.794201 
L 98.399522 -181.858918 
L 101.388456 -187.651061 
L 104.377389 -195.482174 
L 107.366323 -205.508278 
L 110.355256 -217.630568 
L 113.34419 -231.417692 
L 116.333123 -246.079974 
L 119.322057 -260.519077 
L 122.31099 -273.458956 
L 125.299924 -283.639784 
L 128.288857 -290.03402 
L 131.277791 -292.032 
L 134.266725 -289.549161 
L 137.255658 -283.027589 
L 140.244592 -273.334183 
L 143.233525 -261.585634 
L 146.222459 -248.947279 
L 149.211392 -236.45396 
L 152.200326 -224.887999 
L 155.189259 -214.728804 
L 158.178193 -206.168191 
L 161.167126 -199.17153 
L 164.15606 -193.559586 
L 167.144994 -189.08858 
L 170.133927 -185.513231 
L 173.122861 -182.626052 
L 176.111794 -180.273385 
L 179.100728 -178.353346 
L 182.089661 -176.802922 
L 185.078595 -175.581312 
L 188.067528 -174.654995 
L 191.056462 -173.987726 
L 194.045395 -173.53631 
L 197.034329 -173.251291 
L 200.023263 -173.080748 
L 203.012196 -172.975295 
L 206.00113 -172.892775 
L 208.990063 -172.801705 
L 211.978997 -172.683022 
L 214.96793 -172.529993 
L 217.956864 -172.346424 
L 220.945797 -172.143558 
L 223.934731 -171.936269 
L 226.923664 -171.739347 
L 229.912598 -171.564594 
L 232.901532 -171.4192 
L 235.890465 -171.305481 
L 238.879399 -171.221694 
L 241.868332 -171.163454 
L 244.857266 -171.125218 
L 247.846199 -171.101485 
L 250.835133 -171.08755 
L 253.824066 -171.079804 
L 256.813 -171.075726 
L 259.801933 -171.073692 
L 262.790867 -171.072731 
L 265.779801 -171.0723 
L 268.768734 -171.072117 
L 271.757668 -171.072044 
L 274.746601 -171.072015 
L 277.735535 -171.072005 
L 280.724468 -171.072002 
L 283.713402 -171.072002 
L 286.702335 -171.072004 
L 289.691269 -171.072013 
L 292.680202 -171.072041 
L 295.669136 -171.072119 
L 298.65807 -171.072329 
L 301.647003 -171.072865 
L 304.635937 -171.074159 
L 307.62487 -171.077114 
L 310.613804 -171.083505 
L 313.602737 -171.096581 
L 316.591671 -171.121875 
L 319.580604 -171.168104 
L 322.569538 -171.24786 
L 325.558471 -171.377607 
L 328.547405 -171.576345 
L 331.536339 -171.862428 
L 334.525272 -172.24843 
L 337.514206 -172.734799 
L 340.503139 -173.303941 
L 343.492073 -173.917086 
L 346.481006 -174.516114 
L 349.46994 -175.0314 
L 352.458873 -175.394657 
L 355.447807 -175.553689 
L 358.436741 -175.484678 
L 361.425674 -175.19803 
L 364.414608 -174.735803 
L 367.403541 -174.161594 
L 370.392475 -173.546231 
L 373.381408 -172.953693 
L 376.370342 -172.431023 
L 379.359275 -172.004126 
L 382.348209 -171.679144 
L 382.348209 -170.464856 
L 382.348209 -170.464856 
L 379.359275 -170.139874 
L 376.370342 -169.712977 
L 373.381408 -169.190307 
L 370.392475 -168.597769 
L 367.403541 -167.982406 
L 364.414608 -167.408197 
L 361.425674 -166.94597 
L 358.436741 -166.659322 
L 355.447807 -166.590311 
L 352.458873 -166.749343 
L 349.46994 -167.1126 
L 346.481006 -167.627886 
L 343.492073 -168.226914 
L 340.503139 -168.840059 
L 337.514206 -169.409201 
L 334.525272 -169.89557 
L 331.536339 -170.281572 
L 328.547405 -170.567655 
L 325.558471 -170.766393 
L 322.569538 -170.89614 
L 319.580604 -170.975896 
L 316.591671 -171.022125 
L 313.602737 -171.047419 
L 310.613804 -171.060495 
L 307.62487 -171.066886 
L 304.635937 -171.069841 
L 301.647003 -171.071135 
L 298.65807 -171.071671 
L 295.669136 -171.071881 
L 292.680202 -171.071959 
L 289.691269 -171.071987 
L 286.702335 -171.071996 
L 283.713402 -171.071998 
L 280.724468 -171.071998 
L 277.735535 -171.071995 
L 274.746601 -171.071985 
L 271.757668 -171.071956 
L 268.768734 -171.071883 
L 265.779801 -171.0717 
L 262.790867 -171.071269 
L 259.801933 -171.070308 
L 256.813 -171.068274 
L 253.824066 -171.064196 
L 250.835133 -171.05645 
L 247.846199 -171.042515 
L 244.857266 -171.018782 
L 241.868332 -170.980546 
L 238.879399 -170.922306 
L 235.890465 -170.838519 
L 232.901532 -170.7248 
L 229.912598 -170.579406 
L 226.923664 -170.404653 
L 223.934731 -170.207731 
L 220.945797 -170.000442 
L 217.956864 -169.797576 
L 214.96793 -169.614007 
L 211.978997 -169.460978 
L 208.990063 -169.342295 
L 206.00113 -169.251225 
L 203.012196 -169.168705 
L 200.023263 -169.063252 
L 197.034329 -168.892709 
L 194.045395 -168.60769 
L 191.056462 -168.156274 
L 188.067528 -167.489005 
L 185.078595 -166.562688 
L 182.089661 -165.341078 
L 179.100728 -163.790654 
L 176.111794 -161.870615 
L 173.122861 -159.517948 
L 170.133927 -156.630769 
L 167.144994 -153.05542 
L 164.15606 -148.584414 
L 161.167126 -142.97247 
L 158.178193 -135.975809 
L 155.189259 -127.415196 
L 152.200326 -117.256001 
L 149.211392 -105.69004 
L 146.222459 -93.196721 
L 143.233525 -80.558366 
L 140.244592 -68.809817 
L 137.255658 -59.116411 
L 134.266725 -52.594839 
L 131.277791 -50.112 
L 128.288857 -52.10998 
L 125.299924 -58.504216 
L 122.31099 -68.685044 
L 119.322057 -81.624923 
L 116.333123 -96.064026 
L 113.34419 -110.726308 
L 110.355256 -124.513432 
L 107.366323 -136.635722 
L 104.377389 -146.661826 
L 101.388456 -154.492939 
L 98.399522 -160.285082 
L 95.410588 -164.349799 
L 92.421655 -167.060179 
L 89.432721 -168.779364 
L 86.443788 -169.817575 
z
" id="m8dc86b7ca9" style="stroke:#262626;stroke-opacity:0.5;stroke-width:1.5;"/>
    </defs>
    <g clip-path="url(#p6987a67a08)">
     <use style="fill:#107010;fill-opacity:0.5;stroke:#262626;stroke-opacity:0.5;stroke-width:1.5;" x="0" xlink:href="#m8dc86b7ca9" y="345.6"/>
    </g>
   </g>
   <g id="matplotlib.axis_1">
    <g id="xtick_1">
     <g id="line2d_1">
      <defs>
       <path d="M 0 0 
L 0 3.5 
" id="m403debef21" style="stroke:#000000;stroke-width:0.8;"/>
      </defs>
      <g>
       <use style="stroke:#000000;stroke-width:0.8;" x="84.659329" xlink:href="#m403debef21" y="307.584"/>
      </g>
     </g>
     <g id="text_1">
      <!-- 0 -->
      <defs>
       <path d="M 31.78125 66.40625 
Q 24.171875 66.40625 20.328125 58.90625 
Q 16.5 51.421875 16.5 36.375 
Q 16.5 21.390625 20.328125 13.890625 
Q 24.171875 6.390625 31.78125 6.390625 
Q 39.453125 6.390625 43.28125 13.890625 
Q 47.125 21.390625 47.125 36.375 
Q 47.125 51.421875 43.28125 58.90625 
Q 39.453125 66.40625 31.78125 66.40625 
z
M 31.78125 74.21875 
Q 44.046875 74.21875 50.515625 64.515625 
Q 56.984375 54.828125 56.984375 36.375 
Q 56.984375 17.96875 50.515625 8.265625 
Q 44.046875 -1.421875 31.78125 -1.421875 
Q 19.53125 -1.421875 13.0625 8.265625 
Q 6.59375 17.96875 6.59375 36.375 
Q 6.59375 54.828125 13.0625 64.515625 
Q 19.53125 74.21875 31.78125 74.21875 
z
" id="DejaVuSans-48"/>
      </defs>
      <g transform="translate(81.478079 322.182437)scale(0.1 -0.1)">
       <use xlink:href="#DejaVuSans-48"/>
      </g>
     </g>
    </g>
    <g id="xtick_2">
     <g id="line2d_2">
      <g>
       <use style="stroke:#000000;stroke-width:0.8;" x="152.505546" xlink:href="#m403debef21" y="307.584"/>
      </g>
     </g>
     <g id="text_2">
      <!-- 50 -->
      <defs>
       <path d="M 10.796875 72.90625 
L 49.515625 72.90625 
L 49.515625 64.59375 
L 19.828125 64.59375 
L 19.828125 46.734375 
Q 21.96875 47.46875 24.109375 47.828125 
Q 26.265625 48.1875 28.421875 48.1875 
Q 40.625 48.1875 47.75 41.5 
Q 54.890625 34.8125 54.890625 23.390625 
Q 54.890625 11.625 47.5625 5.09375 
Q 40.234375 -1.421875 26.90625 -1.421875 
Q 22.3125 -1.421875 17.546875 -0.640625 
Q 12.796875 0.140625 7.71875 1.703125 
L 7.71875 11.625 
Q 12.109375 9.234375 16.796875 8.0625 
Q 21.484375 6.890625 26.703125 6.890625 
Q 35.15625 6.890625 40.078125 11.328125 
Q 45.015625 15.765625 45.015625 23.390625 
Q 45.015625 31 40.078125 35.4375 
Q 35.15625 39.890625 26.703125 39.890625 
Q 22.75 39.890625 18.8125 39.015625 
Q 14.890625 38.140625 10.796875 36.28125 
z
" id="DejaVuSans-53"/>
      </defs>
      <g transform="translate(146.143046 322.182437)scale(0.1 -0.1)">
       <use xlink:href="#DejaVuSans-53"/>
       <use x="63.623047" xlink:href="#DejaVuSans-48"/>
      </g>
     </g>
    </g>
    <g id="xtick_3">
     <g id="line2d_3">
      <g>
       <use style="stroke:#000000;stroke-width:0.8;" x="220.351764" xlink:href="#m403debef21" y="307.584"/>
      </g>
     </g>
     <g id="text_3">
      <!-- 100 -->
      <defs>
       <path d="M 12.40625 8.296875 
L 28.515625 8.296875 
L 28.515625 63.921875 
L 10.984375 60.40625 
L 10.984375 69.390625 
L 28.421875 72.90625 
L 38.28125 72.90625 
L 38.28125 8.296875 
L 54.390625 8.296875 
L 54.390625 0 
L 12.40625 0 
z
" id="DejaVuSans-49"/>
      </defs>
      <g transform="translate(210.808014 322.182437)scale(0.1 -0.1)">
       <use xlink:href="#DejaVuSans-49"/>
       <use x="63.623047" xlink:href="#DejaVuSans-48"/>
       <use x="127.246094" xlink:href="#DejaVuSans-48"/>
      </g>
     </g>
    </g>
    <g id="xtick_4">
     <g id="line2d_4">
      <g>
       <use style="stroke:#000000;stroke-width:0.8;" x="288.197981" xlink:href="#m403debef21" y="307.584"/>
      </g>
     </g>
     <g id="text_4">
      <!-- 150 -->
      <g transform="translate(278.654231 322.182437)scale(0.1 -0.1)">
       <use xlink:href="#DejaVuSans-49"/>
       <use x="63.623047" xlink:href="#DejaVuSans-53"/>
       <use x="127.246094" xlink:href="#DejaVuSans-48"/>
      </g>
     </g>
    </g>
    <g id="xtick_5">
     <g id="line2d_5">
      <g>
       <use style="stroke:#000000;stroke-width:0.8;" x="356.044198" xlink:href="#m403debef21" y="307.584"/>
      </g>
     </g>
     <g id="text_5">
      <!-- 200 -->
      <defs>
       <path d="M 19.1875 8.296875 
L 53.609375 8.296875 
L 53.609375 0 
L 7.328125 0 
L 7.328125 8.296875 
Q 12.9375 14.109375 22.625 23.890625 
Q 32.328125 33.6875 34.8125 36.53125 
Q 39.546875 41.84375 41.421875 45.53125 
Q 43.3125 49.21875 43.3125 52.78125 
Q 43.3125 58.59375 39.234375 62.25 
Q 35.15625 65.921875 28.609375 65.921875 
Q 23.96875 65.921875 18.8125 64.3125 
Q 13.671875 62.703125 7.8125 59.421875 
L 7.8125 69.390625 
Q 13.765625 71.78125 18.9375 73 
Q 24.125 74.21875 28.421875 74.21875 
Q 39.75 74.21875 46.484375 68.546875 
Q 53.21875 62.890625 53.21875 53.421875 
Q 53.21875 48.921875 51.53125 44.890625 
Q 49.859375 40.875 45.40625 35.40625 
Q 44.1875 33.984375 37.640625 27.21875 
Q 31.109375 20.453125 19.1875 8.296875 
z
" id="DejaVuSans-50"/>
      </defs>
      <g transform="translate(346.500448 322.182437)scale(0.1 -0.1)">
       <use xlink:href="#DejaVuSans-50"/>
       <use x="63.623047" xlink:href="#DejaVuSans-48"/>
       <use x="127.246094" xlink:href="#DejaVuSans-48"/>
      </g>
     </g>
    </g>
    <g id="text_6">
     <!-- pttpeakac -->
     <defs>
      <path d="M 18.109375 8.203125 
L 18.109375 -20.796875 
L 9.078125 -20.796875 
L 9.078125 54.6875 
L 18.109375 54.6875 
L 18.109375 46.390625 
Q 20.953125 51.265625 25.265625 53.625 
Q 29.59375 56 35.59375 56 
Q 45.5625 56 51.78125 48.09375 
Q 58.015625 40.1875 58.015625 27.296875 
Q 58.015625 14.40625 51.78125 6.484375 
Q 45.5625 -1.421875 35.59375 -1.421875 
Q 29.59375 -1.421875 25.265625 0.953125 
Q 20.953125 3.328125 18.109375 8.203125 
z
M 48.6875 27.296875 
Q 48.6875 37.203125 44.609375 42.84375 
Q 40.53125 48.484375 33.40625 48.484375 
Q 26.265625 48.484375 22.1875 42.84375 
Q 18.109375 37.203125 18.109375 27.296875 
Q 18.109375 17.390625 22.1875 11.75 
Q 26.265625 6.109375 33.40625 6.109375 
Q 40.53125 6.109375 44.609375 11.75 
Q 48.6875 17.390625 48.6875 27.296875 
z
" id="DejaVuSans-112"/>
      <path d="M 18.3125 70.21875 
L 18.3125 54.6875 
L 36.8125 54.6875 
L 36.8125 47.703125 
L 18.3125 47.703125 
L 18.3125 18.015625 
Q 18.3125 11.328125 20.140625 9.421875 
Q 21.96875 7.515625 27.59375 7.515625 
L 36.8125 7.515625 
L 36.8125 0 
L 27.59375 0 
Q 17.1875 0 13.234375 3.875 
Q 9.28125 7.765625 9.28125 18.015625 
L 9.28125 47.703125 
L 2.6875 47.703125 
L 2.6875 54.6875 
L 9.28125 54.6875 
L 9.28125 70.21875 
z
" id="DejaVuSans-116"/>
      <path d="M 56.203125 29.59375 
L 56.203125 25.203125 
L 14.890625 25.203125 
Q 15.484375 15.921875 20.484375 11.0625 
Q 25.484375 6.203125 34.421875 6.203125 
Q 39.59375 6.203125 44.453125 7.46875 
Q 49.3125 8.734375 54.109375 11.28125 
L 54.109375 2.78125 
Q 49.265625 0.734375 44.1875 -0.34375 
Q 39.109375 -1.421875 33.890625 -1.421875 
Q 20.796875 -1.421875 13.15625 6.1875 
Q 5.515625 13.8125 5.515625 26.8125 
Q 5.515625 40.234375 12.765625 48.109375 
Q 20.015625 56 32.328125 56 
Q 43.359375 56 49.78125 48.890625 
Q 56.203125 41.796875 56.203125 29.59375 
z
M 47.21875 32.234375 
Q 47.125 39.59375 43.09375 43.984375 
Q 39.0625 48.390625 32.421875 48.390625 
Q 24.90625 48.390625 20.390625 44.140625 
Q 15.875 39.890625 15.1875 32.171875 
z
" id="DejaVuSans-101"/>
      <path d="M 34.28125 27.484375 
Q 23.390625 27.484375 19.1875 25 
Q 14.984375 22.515625 14.984375 16.5 
Q 14.984375 11.71875 18.140625 8.90625 
Q 21.296875 6.109375 26.703125 6.109375 
Q 34.1875 6.109375 38.703125 11.40625 
Q 43.21875 16.703125 43.21875 25.484375 
L 43.21875 27.484375 
z
M 52.203125 31.203125 
L 52.203125 0 
L 43.21875 0 
L 43.21875 8.296875 
Q 40.140625 3.328125 35.546875 0.953125 
Q 30.953125 -1.421875 24.3125 -1.421875 
Q 15.921875 -1.421875 10.953125 3.296875 
Q 6 8.015625 6 15.921875 
Q 6 25.140625 12.171875 29.828125 
Q 18.359375 34.515625 30.609375 34.515625 
L 43.21875 34.515625 
L 43.21875 35.40625 
Q 43.21875 41.609375 39.140625 45 
Q 35.0625 48.390625 27.6875 48.390625 
Q 23 48.390625 18.546875 47.265625 
Q 14.109375 46.140625 10.015625 43.890625 
L 10.015625 52.203125 
Q 14.9375 54.109375 19.578125 55.046875 
Q 24.21875 56 28.609375 56 
Q 40.484375 56 46.34375 49.84375 
Q 52.203125 43.703125 52.203125 31.203125 
z
" id="DejaVuSans-97"/>
      <path d="M 9.078125 75.984375 
L 18.109375 75.984375 
L 18.109375 31.109375 
L 44.921875 54.6875 
L 56.390625 54.6875 
L 27.390625 29.109375 
L 57.625 0 
L 45.90625 0 
L 18.109375 26.703125 
L 18.109375 0 
L 9.078125 0 
z
" id="DejaVuSans-107"/>
      <path d="M 48.78125 52.59375 
L 48.78125 44.1875 
Q 44.96875 46.296875 41.140625 47.34375 
Q 37.3125 48.390625 33.40625 48.390625 
Q 24.65625 48.390625 19.8125 42.84375 
Q 14.984375 37.3125 14.984375 27.296875 
Q 14.984375 17.28125 19.8125 11.734375 
Q 24.65625 6.203125 33.40625 6.203125 
Q 37.3125 6.203125 41.140625 7.25 
Q 44.96875 8.296875 48.78125 10.40625 
L 48.78125 2.09375 
Q 45.015625 0.34375 40.984375 -0.53125 
Q 36.96875 -1.421875 32.421875 -1.421875 
Q 20.0625 -1.421875 12.78125 6.34375 
Q 5.515625 14.109375 5.515625 27.296875 
Q 5.515625 40.671875 12.859375 48.328125 
Q 20.21875 56 33.015625 56 
Q 37.15625 56 41.109375 55.140625 
Q 45.0625 54.296875 48.78125 52.59375 
z
" id="DejaVuSans-99"/>
     </defs>
     <g transform="translate(211.129531 335.860562)scale(0.1 -0.1)">
      <use xlink:href="#DejaVuSans-112"/>
      <use x="63.476562" xlink:href="#DejaVuSans-116"/>
      <use x="102.685547" xlink:href="#DejaVuSans-116"/>
      <use x="141.894531" xlink:href="#DejaVuSans-112"/>
      <use x="205.371094" xlink:href="#DejaVuSans-101"/>
      <use x="266.894531" xlink:href="#DejaVuSans-97"/>
      <use x="328.173828" xlink:href="#DejaVuSans-107"/>
      <use x="384.333984" xlink:href="#DejaVuSans-97"/>
      <use x="445.613281" xlink:href="#DejaVuSans-99"/>
     </g>
    </g>
   </g>
   <g id="matplotlib.axis_2">
    <g id="ytick_1">
     <g id="line2d_6">
      <defs>
       <path d="M 0 0 
L -3.5 0 
" id="ma07e3a643b" style="stroke:#000000;stroke-width:0.8;"/>
      </defs>
      <g>
       <use style="stroke:#000000;stroke-width:0.8;" x="57.6" xlink:href="#ma07e3a643b" y="174.528"/>
      </g>
     </g>
    </g>
   </g>
   <g id="line2d_7">
    <path clip-path="url(#p6987a67a08)" d="M 116.275666 174.528 
L 184.528961 174.528 
" style="fill:none;stroke:#ffa500;stroke-linecap:square;stroke-width:1.5;"/>
   </g>
   <g id="line2d_8">
    <path clip-path="url(#p6987a67a08)" d="M 127.266753 174.528 
L 154.40524 174.528 
" style="fill:none;stroke:#4c4c4c;stroke-linecap:square;stroke-width:4.5;"/>
   </g>
   <g id="line2d_9">
    <path clip-path="url(#p6987a67a08)" d="M 112.747663 174.528 
L 156.576319 174.528 
" style="fill:none;stroke:#008000;stroke-linecap:square;stroke-width:1.5;"/>
   </g>
   <g id="line2d_10">
    <path clip-path="url(#p6987a67a08)" d="M 126.588291 174.528 
L 139.34338 174.528 
" style="fill:none;stroke:#262626;stroke-linecap:square;stroke-width:4.5;"/>
   </g>
   <g id="patch_3">
    <path d="M 57.6 307.584 
L 57.6 41.472 
" style="fill:none;stroke:#000000;stroke-linecap:square;stroke-linejoin:miter;stroke-width:0.8;"/>
   </g>
   <g id="patch_4">
    <path d="M 414.72 307.584 
L 414.72 41.472 
" style="fill:none;stroke:#000000;stroke-linecap:square;stroke-linejoin:miter;stroke-width:0.8;"/>
   </g>
   <g id="patch_5">
    <path d="M 57.6 307.584 
L 414.72 307.584 
" style="fill:none;stroke:#000000;stroke-linecap:square;stroke-linejoin:miter;stroke-width:0.8;"/>
   </g>
   <g id="patch_6">
    <path d="M 57.6 41.472 
L 414.72 41.472 
" style="fill:none;stroke:#000000;stroke-linecap:square;stroke-linejoin:miter;stroke-width:0.8;"/>
   </g>
   <g id="PathCollection_1">
    <defs>
     <path d="M 0 1.5 
C 0.397805 1.5 0.77937 1.341951 1.06066 1.06066 
C 1.341951 0.77937 1.5 0.397805 1.5 0 
C 1.5 -0.397805 1.341951 -0.77937 1.06066 -1.06066 
C 0.77937 -1.341951 0.397805 -1.5 0 -1.5 
C -0.397805 -1.5 -0.77937 -1.341951 -1.06066 -1.06066 
C -1.341951 -0.77937 -1.5 -0.397805 -1.5 0 
C -1.5 0.397805 -1.341951 0.77937 -1.06066 1.06066 
C -0.77937 1.341951 -0.397805 1.5 0 1.5 
z
" id="m7126790881" style="stroke:#4c4c4c;stroke-opacity:0.5;"/>
    </defs>
    <g clip-path="url(#p6987a67a08)">
     <use style="fill:#ffffff;fill-opacity:0.5;stroke:#4c4c4c;stroke-opacity:0.5;" x="137.715071" xlink:href="#m7126790881" y="174.528"/>
    </g>
   </g>
   <g id="PathCollection_2">
    <defs>
     <path d="M 0 1.5 
C 0.397805 1.5 0.77937 1.341951 1.06066 1.06066 
C 1.341951 0.77937 1.5 0.397805 1.5 0 
C 1.5 -0.397805 1.341951 -0.77937 1.06066 -1.06066 
C 0.77937 -1.341951 0.397805 -1.5 0 -1.5 
C -0.397805 -1.5 -0.77937 -1.341951 -1.06066 -1.06066 
C -1.341951 -0.77937 -1.5 -0.397805 -1.5 0 
C -1.5 0.397805 -1.341951 0.77937 -1.06066 1.06066 
C -0.77937 1.341951 -0.397805 1.5 0 1.5 
z
" id="m113e280442" style="stroke:#262626;stroke-opacity:0.5;"/>
    </defs>
    <g clip-path="url(#p6987a67a08)">
     <use style="fill:#ffffff;fill-opacity:0.5;stroke:#262626;stroke-opacity:0.5;" x="131.744604" xlink:href="#m113e280442" y="174.528"/>
    </g>
   </g>
   <g id="text_7">
    <!-- Association of pttpeakac vs. sepsis -->
    <defs>
     <path d="M 34.1875 63.1875 
L 20.796875 26.90625 
L 47.609375 26.90625 
z
M 28.609375 72.90625 
L 39.796875 72.90625 
L 67.578125 0 
L 57.328125 0 
L 50.6875 18.703125 
L 17.828125 18.703125 
L 11.1875 0 
L 0.78125 0 
z
" id="DejaVuSans-65"/>
     <path d="M 44.28125 53.078125 
L 44.28125 44.578125 
Q 40.484375 46.53125 36.375 47.5 
Q 32.28125 48.484375 27.875 48.484375 
Q 21.1875 48.484375 17.84375 46.4375 
Q 14.5 44.390625 14.5 40.28125 
Q 14.5 37.15625 16.890625 35.375 
Q 19.28125 33.59375 26.515625 31.984375 
L 29.59375 31.296875 
Q 39.15625 29.25 43.1875 25.515625 
Q 47.21875 21.78125 47.21875 15.09375 
Q 47.21875 7.46875 41.1875 3.015625 
Q 35.15625 -1.421875 24.609375 -1.421875 
Q 20.21875 -1.421875 15.453125 -0.5625 
Q 10.6875 0.296875 5.421875 2 
L 5.421875 11.28125 
Q 10.40625 8.6875 15.234375 7.390625 
Q 20.0625 6.109375 24.8125 6.109375 
Q 31.15625 6.109375 34.5625 8.28125 
Q 37.984375 10.453125 37.984375 14.40625 
Q 37.984375 18.0625 35.515625 20.015625 
Q 33.0625 21.96875 24.703125 23.78125 
L 21.578125 24.515625 
Q 13.234375 26.265625 9.515625 29.90625 
Q 5.8125 33.546875 5.8125 39.890625 
Q 5.8125 47.609375 11.28125 51.796875 
Q 16.75 56 26.8125 56 
Q 31.78125 56 36.171875 55.265625 
Q 40.578125 54.546875 44.28125 53.078125 
z
" id="DejaVuSans-115"/>
     <path d="M 30.609375 48.390625 
Q 23.390625 48.390625 19.1875 42.75 
Q 14.984375 37.109375 14.984375 27.296875 
Q 14.984375 17.484375 19.15625 11.84375 
Q 23.34375 6.203125 30.609375 6.203125 
Q 37.796875 6.203125 41.984375 11.859375 
Q 46.1875 17.53125 46.1875 27.296875 
Q 46.1875 37.015625 41.984375 42.703125 
Q 37.796875 48.390625 30.609375 48.390625 
z
M 30.609375 56 
Q 42.328125 56 49.015625 48.375 
Q 55.71875 40.765625 55.71875 27.296875 
Q 55.71875 13.875 49.015625 6.21875 
Q 42.328125 -1.421875 30.609375 -1.421875 
Q 18.84375 -1.421875 12.171875 6.21875 
Q 5.515625 13.875 5.515625 27.296875 
Q 5.515625 40.765625 12.171875 48.375 
Q 18.84375 56 30.609375 56 
z
" id="DejaVuSans-111"/>
     <path d="M 9.421875 54.6875 
L 18.40625 54.6875 
L 18.40625 0 
L 9.421875 0 
z
M 9.421875 75.984375 
L 18.40625 75.984375 
L 18.40625 64.59375 
L 9.421875 64.59375 
z
" id="DejaVuSans-105"/>
     <path d="M 54.890625 33.015625 
L 54.890625 0 
L 45.90625 0 
L 45.90625 32.71875 
Q 45.90625 40.484375 42.875 44.328125 
Q 39.84375 48.1875 33.796875 48.1875 
Q 26.515625 48.1875 22.3125 43.546875 
Q 18.109375 38.921875 18.109375 30.90625 
L 18.109375 0 
L 9.078125 0 
L 9.078125 54.6875 
L 18.109375 54.6875 
L 18.109375 46.1875 
Q 21.34375 51.125 25.703125 53.5625 
Q 30.078125 56 35.796875 56 
Q 45.21875 56 50.046875 50.171875 
Q 54.890625 44.34375 54.890625 33.015625 
z
" id="DejaVuSans-110"/>
     <path id="DejaVuSans-32"/>
     <path d="M 37.109375 75.984375 
L 37.109375 68.5 
L 28.515625 68.5 
Q 23.6875 68.5 21.796875 66.546875 
Q 19.921875 64.59375 19.921875 59.515625 
L 19.921875 54.6875 
L 34.71875 54.6875 
L 34.71875 47.703125 
L 19.921875 47.703125 
L 19.921875 0 
L 10.890625 0 
L 10.890625 47.703125 
L 2.296875 47.703125 
L 2.296875 54.6875 
L 10.890625 54.6875 
L 10.890625 58.5 
Q 10.890625 67.625 15.140625 71.796875 
Q 19.390625 75.984375 28.609375 75.984375 
z
" id="DejaVuSans-102"/>
     <path d="M 2.984375 54.6875 
L 12.5 54.6875 
L 29.59375 8.796875 
L 46.6875 54.6875 
L 56.203125 54.6875 
L 35.6875 0 
L 23.484375 0 
z
" id="DejaVuSans-118"/>
     <path d="M 10.6875 12.40625 
L 21 12.40625 
L 21 0 
L 10.6875 0 
z
" id="DejaVuSans-46"/>
    </defs>
    <g transform="translate(131.421562 35.472)scale(0.12 -0.12)">
     <use xlink:href="#DejaVuSans-65"/>
     <use x="68.408203" xlink:href="#DejaVuSans-115"/>
     <use x="120.507812" xlink:href="#DejaVuSans-115"/>
     <use x="172.607422" xlink:href="#DejaVuSans-111"/>
     <use x="233.789062" xlink:href="#DejaVuSans-99"/>
     <use x="288.769531" xlink:href="#DejaVuSans-105"/>
     <use x="316.552734" xlink:href="#DejaVuSans-97"/>
     <use x="377.832031" xlink:href="#DejaVuSans-116"/>
     <use x="417.041016" xlink:href="#DejaVuSans-105"/>
     <use x="444.824219" xlink:href="#DejaVuSans-111"/>
     <use x="506.005859" xlink:href="#DejaVuSans-110"/>
     <use x="569.384766" xlink:href="#DejaVuSans-32"/>
     <use x="601.171875" xlink:href="#DejaVuSans-111"/>
     <use x="662.353516" xlink:href="#DejaVuSans-102"/>
     <use x="697.558594" xlink:href="#DejaVuSans-32"/>
     <use x="729.345703" xlink:href="#DejaVuSans-112"/>
     <use x="792.822266" xlink:href="#DejaVuSans-116"/>
     <use x="832.03125" xlink:href="#DejaVuSans-116"/>
     <use x="871.240234" xlink:href="#DejaVuSans-112"/>
     <use x="934.716797" xlink:href="#DejaVuSans-101"/>
     <use x="996.240234" xlink:href="#DejaVuSans-97"/>
     <use x="1057.519531" xlink:href="#DejaVuSans-107"/>
     <use x="1113.679688" xlink:href="#DejaVuSans-97"/>
     <use x="1174.958984" xlink:href="#DejaVuSans-99"/>
     <use x="1229.939453" xlink:href="#DejaVuSans-32"/>
     <use x="1261.726562" xlink:href="#DejaVuSans-118"/>
     <use x="1320.90625" xlink:href="#DejaVuSans-115"/>
     <use x="1373.005859" xlink:href="#DejaVuSans-46"/>
     <use x="1404.792969" xlink:href="#DejaVuSans-32"/>
     <use x="1436.580078" xlink:href="#DejaVuSans-115"/>
     <use x="1488.679688" xlink:href="#DejaVuSans-101"/>
     <use x="1550.203125" xlink:href="#DejaVuSans-112"/>
     <use x="1613.679688" xlink:href="#DejaVuSans-115"/>
     <use x="1665.779297" xlink:href="#DejaVuSans-105"/>
     <use x="1693.5625" xlink:href="#DejaVuSans-115"/>
    </g>
   </g>
   <g id="legend_1">
    <g id="patch_7">
     <path d="M 294.045 78.82825 
L 407.72 78.82825 
Q 409.72 78.82825 409.72 76.82825 
L 409.72 48.472 
Q 409.72 46.472 407.72 46.472 
L 294.045 46.472 
Q 292.045 46.472 292.045 48.472 
L 292.045 76.82825 
Q 292.045 78.82825 294.045 78.82825 
z
" style="fill:#ffffff;opacity:0.8;stroke:#cccccc;stroke-linejoin:miter;"/>
    </g>
    <g id="line2d_11">
     <path d="M 296.045 54.570437 
L 316.045 54.570437 
" style="fill:none;stroke:#ffa500;stroke-linecap:square;stroke-width:1.5;"/>
    </g>
    <g id="line2d_12"/>
    <g id="text_8">
     <!-- sepsis (141) -->
     <defs>
      <path d="M 31 75.875 
Q 24.46875 64.65625 21.28125 53.65625 
Q 18.109375 42.671875 18.109375 31.390625 
Q 18.109375 20.125 21.3125 9.0625 
Q 24.515625 -2 31 -13.1875 
L 23.1875 -13.1875 
Q 15.875 -1.703125 12.234375 9.375 
Q 8.59375 20.453125 8.59375 31.390625 
Q 8.59375 42.28125 12.203125 53.3125 
Q 15.828125 64.359375 23.1875 75.875 
z
" id="DejaVuSans-40"/>
      <path d="M 37.796875 64.3125 
L 12.890625 25.390625 
L 37.796875 25.390625 
z
M 35.203125 72.90625 
L 47.609375 72.90625 
L 47.609375 25.390625 
L 58.015625 25.390625 
L 58.015625 17.1875 
L 47.609375 17.1875 
L 47.609375 0 
L 37.796875 0 
L 37.796875 17.1875 
L 4.890625 17.1875 
L 4.890625 26.703125 
z
" id="DejaVuSans-52"/>
      <path d="M 8.015625 75.875 
L 15.828125 75.875 
Q 23.140625 64.359375 26.78125 53.3125 
Q 30.421875 42.28125 30.421875 31.390625 
Q 30.421875 20.453125 26.78125 9.375 
Q 23.140625 -1.703125 15.828125 -13.1875 
L 8.015625 -13.1875 
Q 14.5 -2 17.703125 9.0625 
Q 20.90625 20.125 20.90625 31.390625 
Q 20.90625 42.671875 17.703125 53.65625 
Q 14.5 64.65625 8.015625 75.875 
z
" id="DejaVuSans-41"/>
     </defs>
     <g transform="translate(324.045 58.070437)scale(0.1 -0.1)">
      <use xlink:href="#DejaVuSans-115"/>
      <use x="52.099609" xlink:href="#DejaVuSans-101"/>
      <use x="113.623047" xlink:href="#DejaVuSans-112"/>
      <use x="177.099609" xlink:href="#DejaVuSans-115"/>
      <use x="229.199219" xlink:href="#DejaVuSans-105"/>
      <use x="256.982422" xlink:href="#DejaVuSans-115"/>
      <use x="309.082031" xlink:href="#DejaVuSans-32"/>
      <use x="340.869141" xlink:href="#DejaVuSans-40"/>
      <use x="379.882812" xlink:href="#DejaVuSans-49"/>
      <use x="443.505859" xlink:href="#DejaVuSans-52"/>
      <use x="507.128906" xlink:href="#DejaVuSans-49"/>
      <use x="570.751953" xlink:href="#DejaVuSans-41"/>
     </g>
    </g>
    <g id="line2d_13">
     <path d="M 296.045 69.248562 
L 316.045 69.248562 
" style="fill:none;stroke:#008000;stroke-linecap:square;stroke-width:1.5;"/>
    </g>
    <g id="line2d_14"/>
    <g id="text_9">
     <!-- Not sepsis (244) -->
     <defs>
      <path d="M 9.8125 72.90625 
L 23.09375 72.90625 
L 55.421875 11.921875 
L 55.421875 72.90625 
L 64.984375 72.90625 
L 64.984375 0 
L 51.703125 0 
L 19.390625 60.984375 
L 19.390625 0 
L 9.8125 0 
z
" id="DejaVuSans-78"/>
     </defs>
     <g transform="translate(324.045 72.748562)scale(0.1 -0.1)">
      <use xlink:href="#DejaVuSans-78"/>
      <use x="74.804688" xlink:href="#DejaVuSans-111"/>
      <use x="135.986328" xlink:href="#DejaVuSans-116"/>
      <use x="175.195312" xlink:href="#DejaVuSans-32"/>
      <use x="206.982422" xlink:href="#DejaVuSans-115"/>
      <use x="259.082031" xlink:href="#DejaVuSans-101"/>
      <use x="320.605469" xlink:href="#DejaVuSans-112"/>
      <use x="384.082031" xlink:href="#DejaVuSans-115"/>
      <use x="436.181641" xlink:href="#DejaVuSans-105"/>
      <use x="463.964844" xlink:href="#DejaVuSans-115"/>
      <use x="516.064453" xlink:href="#DejaVuSans-32"/>
      <use x="547.851562" xlink:href="#DejaVuSans-40"/>
      <use x="586.865234" xlink:href="#DejaVuSans-50"/>
      <use x="650.488281" xlink:href="#DejaVuSans-52"/>
      <use x="714.111328" xlink:href="#DejaVuSans-52"/>
      <use x="777.734375" xlink:href="#DejaVuSans-41"/>
     </g>
    </g>
   </g>
  </g>
 </g>
 <defs>
  <clipPath id="p6987a67a08">
   <rect height="266.112" width="357.12" x="57.6" y="41.472"/>
  </clipPath>
 </defs>
</svg>
