<?xml version="1.0" encoding="utf-8" standalone="no"?>
<!DOCTYPE svg PUBLIC "-//W3C//DTD SVG 1.1//EN"
  "http://www.w3.org/Graphics/SVG/1.1/DTD/svg11.dtd">
<!-- Created with matplotlib (https://matplotlib.org/) -->
<svg height="345.6pt" version="1.1" viewBox="0 0 460.8 345.6" width="460.8pt" xmlns="http://www.w3.org/2000/svg" xmlns:xlink="http://www.w3.org/1999/xlink">
 <defs>
  <style type="text/css">
*{stroke-linecap:butt;stroke-linejoin:round;}
  </style>
 </defs>
 <g id="figure_1">
  <g id="patch_1">
   <path d="M 0 345.6 
L 460.8 345.6 
L 460.8 0 
L 0 0 
z
" style="fill:#ffffff;"/>
  </g>
  <g id="axes_1">
   <g id="patch_2">
    <path d="M 57.6 307.584 
L 414.72 307.584 
L 414.72 41.472 
L 57.6 41.472 
z
" style="fill:#ffffff;"/>
   </g>
   <g id="PolyCollection_1">
    <defs>
     <path d="M 73.832727 -159.458013 
L 73.832727 -182.685987 
L 77.112066 -190.93464 
L 80.391405 -202.743782 
L 83.670744 -218.164626 
L 86.950083 -236.378628 
L 90.229421 -255.557789 
L 93.50876 -273.061766 
L 96.788099 -286.003127 
L 100.067438 -292.032 
L 103.346777 -290.04863 
L 106.626116 -280.5446 
L 109.905455 -265.424701 
L 113.184793 -247.394215 
L 116.464132 -229.179362 
L 119.743471 -212.885097 
L 123.02281 -199.683409 
L 126.302149 -189.850156 
L 129.581488 -183.030789 
L 132.860826 -178.570331 
L 136.140165 -175.781056 
L 139.419504 -174.094681 
L 142.698843 -173.108289 
L 145.978182 -172.563615 
L 149.257521 -172.300815 
L 152.53686 -172.214694 
L 155.816198 -172.226025 
L 159.095537 -172.269409 
L 162.374876 -172.293005 
L 165.654215 -172.263275 
L 168.933554 -172.168555 
L 172.212893 -172.01773 
L 175.492231 -171.833686 
L 178.77157 -171.643961 
L 182.050909 -171.472135 
L 185.330248 -171.332698 
L 188.609587 -171.230156 
L 191.888926 -171.161332 
L 195.168264 -171.118978 
L 198.447603 -171.095 
L 201.726942 -171.082484 
L 205.006281 -171.076449 
L 208.28562 -171.073758 
L 211.564959 -171.072647 
L 214.844298 -171.072225 
L 218.123636 -171.072084 
L 221.402975 -171.072069 
L 224.682314 -171.07216 
L 227.961653 -171.072461 
L 231.240992 -171.07328 
L 234.520331 -171.075315 
L 237.799669 -171.079996 
L 241.079008 -171.089955 
L 244.358347 -171.109535 
L 247.637686 -171.145052 
L 250.917025 -171.204365 
L 254.196364 -171.295284 
L 257.475702 -171.422658 
L 260.755041 -171.584689 
L 264.03438 -171.769859 
L 267.313719 -171.956349 
L 270.593058 -172.115333 
L 273.872397 -172.217949 
L 277.151736 -172.243793 
L 280.431074 -172.187525 
L 283.710413 -172.060669 
L 286.989752 -171.887767 
L 290.269091 -171.698648 
L 293.54843 -171.520152 
L 296.827769 -171.37038 
L 300.107107 -171.256951 
L 303.386446 -171.17873 
L 306.665785 -171.129341 
L 309.945124 -171.100681 
L 313.224463 -171.08536 
L 316.503802 -171.07781 
L 319.78314 -171.074404 
L 323.062479 -171.073091 
L 326.341818 -171.072931 
L 329.621157 -171.0738 
L 332.900496 -171.076345 
L 336.179835 -171.0822 
L 339.459174 -171.094417 
L 342.738512 -171.117894 
L 346.017851 -171.159482 
L 349.29719 -171.227248 
L 352.576529 -171.328493 
L 355.855868 -171.466521 
L 359.135207 -171.636946 
L 362.414545 -171.825159 
L 365.693884 -172.006781 
L 368.973223 -172.15213 
L 372.252562 -172.233944 
L 375.531901 -172.235691 
L 378.81124 -172.157009 
L 382.090579 -172.013828 
L 385.369917 -171.833121 
L 388.649256 -171.644636 
L 391.928595 -171.473094 
L 395.207934 -171.333552 
L 398.487273 -171.230786 
L 398.487273 -170.913214 
L 398.487273 -170.913214 
L 395.207934 -170.810448 
L 391.928595 -170.670906 
L 388.649256 -170.499364 
L 385.369917 -170.310879 
L 382.090579 -170.130172 
L 378.81124 -169.986991 
L 375.531901 -169.908309 
L 372.252562 -169.910056 
L 368.973223 -169.99187 
L 365.693884 -170.137219 
L 362.414545 -170.318841 
L 359.135207 -170.507054 
L 355.855868 -170.677479 
L 352.576529 -170.815507 
L 349.29719 -170.916752 
L 346.017851 -170.984518 
L 342.738512 -171.026106 
L 339.459174 -171.049583 
L 336.179835 -171.0618 
L 332.900496 -171.067655 
L 329.621157 -171.0702 
L 326.341818 -171.071069 
L 323.062479 -171.070909 
L 319.78314 -171.069596 
L 316.503802 -171.06619 
L 313.224463 -171.05864 
L 309.945124 -171.043319 
L 306.665785 -171.014659 
L 303.386446 -170.96527 
L 300.107107 -170.887049 
L 296.827769 -170.77362 
L 293.54843 -170.623848 
L 290.269091 -170.445352 
L 286.989752 -170.256233 
L 283.710413 -170.083331 
L 280.431074 -169.956475 
L 277.151736 -169.900207 
L 273.872397 -169.926051 
L 270.593058 -170.028667 
L 267.313719 -170.187651 
L 264.03438 -170.374141 
L 260.755041 -170.559311 
L 257.475702 -170.721342 
L 254.196364 -170.848716 
L 250.917025 -170.939635 
L 247.637686 -170.998948 
L 244.358347 -171.034465 
L 241.079008 -171.054045 
L 237.799669 -171.064004 
L 234.520331 -171.068685 
L 231.240992 -171.07072 
L 227.961653 -171.071539 
L 224.682314 -171.07184 
L 221.402975 -171.071931 
L 218.123636 -171.071916 
L 214.844298 -171.071775 
L 211.564959 -171.071353 
L 208.28562 -171.070242 
L 205.006281 -171.067551 
L 201.726942 -171.061516 
L 198.447603 -171.049 
L 195.168264 -171.025022 
L 191.888926 -170.982668 
L 188.609587 -170.913844 
L 185.330248 -170.811302 
L 182.050909 -170.671865 
L 178.77157 -170.500039 
L 175.492231 -170.310314 
L 172.212893 -170.12627 
L 168.933554 -169.975445 
L 165.654215 -169.880725 
L 162.374876 -169.850995 
L 159.095537 -169.874591 
L 155.816198 -169.917975 
L 152.53686 -169.929306 
L 149.257521 -169.843185 
L 145.978182 -169.580385 
L 142.698843 -169.035711 
L 139.419504 -168.049319 
L 136.140165 -166.362944 
L 132.860826 -163.573669 
L 129.581488 -159.113211 
L 126.302149 -152.293844 
L 123.02281 -142.460591 
L 119.743471 -129.258903 
L 116.464132 -112.964638 
L 113.184793 -94.749785 
L 109.905455 -76.719299 
L 106.626116 -61.5994 
L 103.346777 -52.09537 
L 100.067438 -50.112 
L 96.788099 -56.140873 
L 93.50876 -69.082234 
L 90.229421 -86.586211 
L 86.950083 -105.765372 
L 83.670744 -123.979374 
L 80.391405 -139.400218 
L 77.112066 -151.20936 
L 73.832727 -159.458013 
z
" id="m9dff3f1b5e" style="stroke:#4c4c4c;stroke-opacity:0.5;stroke-width:1.5;"/>
    </defs>
    <g clip-path="url(#pc73f690114)">
     <use style="fill:#df9c20;fill-opacity:0.5;stroke:#4c4c4c;stroke-opacity:0.5;stroke-width:1.5;" x="0" xlink:href="#m9dff3f1b5e" y="345.6"/>
    </g>
   </g>
   <g id="PolyCollection_2">
    <defs>
     <path d="M 96.398919 -163.907177 
L 96.398919 -178.236823 
L 96.723899 -185.404331 
L 97.048879 -196.979836 
L 97.373859 -213.455934 
L 97.698838 -233.941435 
L 98.023818 -255.826078 
L 98.348798 -275.216168 
L 98.673778 -288.145363 
L 98.998758 -292.032 
L 99.323738 -286.614103 
L 99.648718 -273.880125 
L 99.973698 -257.117834 
L 100.298678 -239.662505 
L 100.623658 -223.951517 
L 100.948638 -211.176776 
L 101.273617 -201.464117 
L 101.598597 -194.314211 
L 101.923577 -189.039771 
L 102.248557 -185.045682 
L 102.573537 -181.928313 
L 102.898517 -179.455475 
L 103.223497 -177.507078 
L 103.548477 -176.025446 
L 103.873457 -174.983281 
L 104.198437 -174.357501 
L 104.523416 -174.102545 
L 104.848396 -174.13062 
L 105.173376 -174.311907 
L 105.498356 -174.499444 
L 105.823336 -174.568179 
L 106.148316 -174.448031 
L 106.473296 -174.134731 
L 106.798276 -173.676364 
L 107.123256 -173.146619 
L 107.448236 -172.618836 
L 107.773216 -172.149233 
L 108.098195 -171.770272 
L 108.423175 -171.491402 
L 108.748155 -171.304254 
L 109.073135 -171.189999 
L 109.398115 -171.126754 
L 109.723095 -171.095117 
L 110.048075 -171.080865 
L 110.373055 -171.075138 
L 110.698035 -171.073246 
L 111.023015 -171.073265 
L 111.347994 -171.075143 
L 111.672974 -171.080528 
L 111.997954 -171.093137 
L 112.322934 -171.119078 
L 112.647914 -171.166218 
L 112.972894 -171.241779 
L 113.297874 -171.348497 
L 113.622854 -171.481531 
L 113.947834 -171.629185 
L 114.272814 -171.778473 
L 114.597794 -171.921898 
L 114.922773 -172.058803 
L 115.247753 -172.187982 
L 115.572733 -172.296785 
L 115.897713 -172.357817 
L 116.222693 -172.339856 
L 116.547673 -172.227233 
L 116.872653 -172.033197 
L 117.197633 -171.796649 
L 117.522613 -171.564681 
L 117.847593 -171.373274 
L 118.172572 -171.237548 
L 118.497552 -171.154079 
L 118.822532 -171.110014 
L 119.147512 -171.092147 
L 119.472492 -171.092305 
L 119.797472 -171.108866 
L 120.122452 -171.145465 
L 120.447432 -171.207539 
L 120.772412 -171.297059 
L 121.097392 -171.407004 
L 121.422372 -171.518768 
L 121.747351 -171.605778 
L 122.072331 -171.643328 
L 122.397311 -171.61987 
L 122.722291 -171.542796 
L 123.047271 -171.434901 
L 123.372251 -171.324081 
L 123.697231 -171.233053 
L 124.022211 -171.174722 
L 124.347191 -171.153866 
L 124.672171 -171.171391 
L 124.99715 -171.226565 
L 125.32213 -171.315117 
L 125.64711 -171.424987 
L 125.97209 -171.53423 
L 126.29707 -171.615047 
L 126.62205 -171.643737 
L 126.94703 -171.611295 
L 127.27201 -171.527726 
L 127.59699 -171.417002 
L 127.92197 -171.305981 
L 128.24695 -171.214161 
L 128.571929 -171.149378 
L 128.571929 -170.994622 
L 128.571929 -170.994622 
L 128.24695 -170.929839 
L 127.92197 -170.838019 
L 127.59699 -170.726998 
L 127.27201 -170.616274 
L 126.94703 -170.532705 
L 126.62205 -170.500263 
L 126.29707 -170.528953 
L 125.97209 -170.60977 
L 125.64711 -170.719013 
L 125.32213 -170.828883 
L 124.99715 -170.917435 
L 124.672171 -170.972609 
L 124.347191 -170.990134 
L 124.022211 -170.969278 
L 123.697231 -170.910947 
L 123.372251 -170.819919 
L 123.047271 -170.709099 
L 122.722291 -170.601204 
L 122.397311 -170.52413 
L 122.072331 -170.500672 
L 121.747351 -170.538222 
L 121.422372 -170.625232 
L 121.097392 -170.736996 
L 120.772412 -170.846941 
L 120.447432 -170.936461 
L 120.122452 -170.998535 
L 119.797472 -171.035134 
L 119.472492 -171.051695 
L 119.147512 -171.051853 
L 118.822532 -171.033986 
L 118.497552 -170.989921 
L 118.172572 -170.906452 
L 117.847593 -170.770726 
L 117.522613 -170.579319 
L 117.197633 -170.347351 
L 116.872653 -170.110803 
L 116.547673 -169.916767 
L 116.222693 -169.804144 
L 115.897713 -169.786183 
L 115.572733 -169.847215 
L 115.247753 -169.956018 
L 114.922773 -170.085197 
L 114.597794 -170.222102 
L 114.272814 -170.365527 
L 113.947834 -170.514815 
L 113.622854 -170.662469 
L 113.297874 -170.795503 
L 112.972894 -170.902221 
L 112.647914 -170.977782 
L 112.322934 -171.024922 
L 111.997954 -171.050863 
L 111.672974 -171.063472 
L 111.347994 -171.068857 
L 111.023015 -171.070735 
L 110.698035 -171.070754 
L 110.373055 -171.068862 
L 110.048075 -171.063135 
L 109.723095 -171.048883 
L 109.398115 -171.017246 
L 109.073135 -170.954001 
L 108.748155 -170.839746 
L 108.423175 -170.652598 
L 108.098195 -170.373728 
L 107.773216 -169.994767 
L 107.448236 -169.525164 
L 107.123256 -168.997381 
L 106.798276 -168.467636 
L 106.473296 -168.009269 
L 106.148316 -167.695969 
L 105.823336 -167.575821 
L 105.498356 -167.644556 
L 105.173376 -167.832093 
L 104.848396 -168.01338 
L 104.523416 -168.041455 
L 104.198437 -167.786499 
L 103.873457 -167.160719 
L 103.548477 -166.118554 
L 103.223497 -164.636922 
L 102.898517 -162.688525 
L 102.573537 -160.215687 
L 102.248557 -157.098318 
L 101.923577 -153.104229 
L 101.598597 -147.829789 
L 101.273617 -140.679883 
L 100.948638 -130.967224 
L 100.623658 -118.192483 
L 100.298678 -102.481495 
L 99.973698 -85.026166 
L 99.648718 -68.263875 
L 99.323738 -55.529897 
L 98.998758 -50.112 
L 98.673778 -53.998637 
L 98.348798 -66.927832 
L 98.023818 -86.317922 
L 97.698838 -108.202565 
L 97.373859 -128.688066 
L 97.048879 -145.164164 
L 96.723899 -156.739669 
L 96.398919 -163.907177 
z
" id="m15ded5e496" style="stroke:#262626;stroke-opacity:0.5;stroke-width:1.5;"/>
    </defs>
    <g clip-path="url(#pc73f690114)">
     <use style="fill:#107010;fill-opacity:0.5;stroke:#262626;stroke-opacity:0.5;stroke-width:1.5;" x="0" xlink:href="#m15ded5e496" y="345.6"/>
    </g>
   </g>
   <g id="matplotlib.axis_1">
    <g id="xtick_1">
     <g id="line2d_1">
      <defs>
       <path d="M 0 0 
L 0 3.5 
" id="mfbf9926fe6" style="stroke:#000000;stroke-width:0.8;"/>
      </defs>
      <g>
       <use style="stroke:#000000;stroke-width:0.8;" x="97.809338" xlink:href="#mfbf9926fe6" y="307.584"/>
      </g>
     </g>
     <g id="text_1">
      <!-- 0 -->
      <defs>
       <path d="M 31.78125 66.40625 
Q 24.171875 66.40625 20.328125 58.90625 
Q 16.5 51.421875 16.5 36.375 
Q 16.5 21.390625 20.328125 13.890625 
Q 24.171875 6.390625 31.78125 6.390625 
Q 39.453125 6.390625 43.28125 13.890625 
Q 47.125 21.390625 47.125 36.375 
Q 47.125 51.421875 43.28125 58.90625 
Q 39.453125 66.40625 31.78125 66.40625 
z
M 31.78125 74.21875 
Q 44.046875 74.21875 50.515625 64.515625 
Q 56.984375 54.828125 56.984375 36.375 
Q 56.984375 17.96875 50.515625 8.265625 
Q 44.046875 -1.421875 31.78125 -1.421875 
Q 19.53125 -1.421875 13.0625 8.265625 
Q 6.59375 17.96875 6.59375 36.375 
Q 6.59375 54.828125 13.0625 64.515625 
Q 19.53125 74.21875 31.78125 74.21875 
z
" id="DejaVuSans-48"/>
      </defs>
      <g transform="translate(94.628088 322.182437)scale(0.1 -0.1)">
       <use xlink:href="#DejaVuSans-48"/>
      </g>
     </g>
    </g>
    <g id="xtick_2">
     <g id="line2d_2">
      <g>
       <use style="stroke:#000000;stroke-width:0.8;" x="153.039694" xlink:href="#mfbf9926fe6" y="307.584"/>
      </g>
     </g>
     <g id="text_2">
      <!-- 2000 -->
      <defs>
       <path d="M 19.1875 8.296875 
L 53.609375 8.296875 
L 53.609375 0 
L 7.328125 0 
L 7.328125 8.296875 
Q 12.9375 14.109375 22.625 23.890625 
Q 32.328125 33.6875 34.8125 36.53125 
Q 39.546875 41.84375 41.421875 45.53125 
Q 43.3125 49.21875 43.3125 52.78125 
Q 43.3125 58.59375 39.234375 62.25 
Q 35.15625 65.921875 28.609375 65.921875 
Q 23.96875 65.921875 18.8125 64.3125 
Q 13.671875 62.703125 7.8125 59.421875 
L 7.8125 69.390625 
Q 13.765625 71.78125 18.9375 73 
Q 24.125 74.21875 28.421875 74.21875 
Q 39.75 74.21875 46.484375 68.546875 
Q 53.21875 62.890625 53.21875 53.421875 
Q 53.21875 48.921875 51.53125 44.890625 
Q 49.859375 40.875 45.40625 35.40625 
Q 44.1875 33.984375 37.640625 27.21875 
Q 31.109375 20.453125 19.1875 8.296875 
z
" id="DejaVuSans-50"/>
      </defs>
      <g transform="translate(140.314694 322.182437)scale(0.1 -0.1)">
       <use xlink:href="#DejaVuSans-50"/>
       <use x="63.623047" xlink:href="#DejaVuSans-48"/>
       <use x="127.246094" xlink:href="#DejaVuSans-48"/>
       <use x="190.869141" xlink:href="#DejaVuSans-48"/>
      </g>
     </g>
    </g>
    <g id="xtick_3">
     <g id="line2d_3">
      <g>
       <use style="stroke:#000000;stroke-width:0.8;" x="208.270051" xlink:href="#mfbf9926fe6" y="307.584"/>
      </g>
     </g>
     <g id="text_3">
      <!-- 4000 -->
      <defs>
       <path d="M 37.796875 64.3125 
L 12.890625 25.390625 
L 37.796875 25.390625 
z
M 35.203125 72.90625 
L 47.609375 72.90625 
L 47.609375 25.390625 
L 58.015625 25.390625 
L 58.015625 17.1875 
L 47.609375 17.1875 
L 47.609375 0 
L 37.796875 0 
L 37.796875 17.1875 
L 4.890625 17.1875 
L 4.890625 26.703125 
z
" id="DejaVuSans-52"/>
      </defs>
      <g transform="translate(195.545051 322.182437)scale(0.1 -0.1)">
       <use xlink:href="#DejaVuSans-52"/>
       <use x="63.623047" xlink:href="#DejaVuSans-48"/>
       <use x="127.246094" xlink:href="#DejaVuSans-48"/>
       <use x="190.869141" xlink:href="#DejaVuSans-48"/>
      </g>
     </g>
    </g>
    <g id="xtick_4">
     <g id="line2d_4">
      <g>
       <use style="stroke:#000000;stroke-width:0.8;" x="263.500407" xlink:href="#mfbf9926fe6" y="307.584"/>
      </g>
     </g>
     <g id="text_4">
      <!-- 6000 -->
      <defs>
       <path d="M 33.015625 40.375 
Q 26.375 40.375 22.484375 35.828125 
Q 18.609375 31.296875 18.609375 23.390625 
Q 18.609375 15.53125 22.484375 10.953125 
Q 26.375 6.390625 33.015625 6.390625 
Q 39.65625 6.390625 43.53125 10.953125 
Q 47.40625 15.53125 47.40625 23.390625 
Q 47.40625 31.296875 43.53125 35.828125 
Q 39.65625 40.375 33.015625 40.375 
z
M 52.59375 71.296875 
L 52.59375 62.3125 
Q 48.875 64.0625 45.09375 64.984375 
Q 41.3125 65.921875 37.59375 65.921875 
Q 27.828125 65.921875 22.671875 59.328125 
Q 17.53125 52.734375 16.796875 39.40625 
Q 19.671875 43.65625 24.015625 45.921875 
Q 28.375 48.1875 33.59375 48.1875 
Q 44.578125 48.1875 50.953125 41.515625 
Q 57.328125 34.859375 57.328125 23.390625 
Q 57.328125 12.15625 50.6875 5.359375 
Q 44.046875 -1.421875 33.015625 -1.421875 
Q 20.359375 -1.421875 13.671875 8.265625 
Q 6.984375 17.96875 6.984375 36.375 
Q 6.984375 53.65625 15.1875 63.9375 
Q 23.390625 74.21875 37.203125 74.21875 
Q 40.921875 74.21875 44.703125 73.484375 
Q 48.484375 72.75 52.59375 71.296875 
z
" id="DejaVuSans-54"/>
      </defs>
      <g transform="translate(250.775407 322.182437)scale(0.1 -0.1)">
       <use xlink:href="#DejaVuSans-54"/>
       <use x="63.623047" xlink:href="#DejaVuSans-48"/>
       <use x="127.246094" xlink:href="#DejaVuSans-48"/>
       <use x="190.869141" xlink:href="#DejaVuSans-48"/>
      </g>
     </g>
    </g>
    <g id="xtick_5">
     <g id="line2d_5">
      <g>
       <use style="stroke:#000000;stroke-width:0.8;" x="318.730764" xlink:href="#mfbf9926fe6" y="307.584"/>
      </g>
     </g>
     <g id="text_5">
      <!-- 8000 -->
      <defs>
       <path d="M 31.78125 34.625 
Q 24.75 34.625 20.71875 30.859375 
Q 16.703125 27.09375 16.703125 20.515625 
Q 16.703125 13.921875 20.71875 10.15625 
Q 24.75 6.390625 31.78125 6.390625 
Q 38.8125 6.390625 42.859375 10.171875 
Q 46.921875 13.96875 46.921875 20.515625 
Q 46.921875 27.09375 42.890625 30.859375 
Q 38.875 34.625 31.78125 34.625 
z
M 21.921875 38.8125 
Q 15.578125 40.375 12.03125 44.71875 
Q 8.5 49.078125 8.5 55.328125 
Q 8.5 64.0625 14.71875 69.140625 
Q 20.953125 74.21875 31.78125 74.21875 
Q 42.671875 74.21875 48.875 69.140625 
Q 55.078125 64.0625 55.078125 55.328125 
Q 55.078125 49.078125 51.53125 44.71875 
Q 48 40.375 41.703125 38.8125 
Q 48.828125 37.15625 52.796875 32.3125 
Q 56.78125 27.484375 56.78125 20.515625 
Q 56.78125 9.90625 50.3125 4.234375 
Q 43.84375 -1.421875 31.78125 -1.421875 
Q 19.734375 -1.421875 13.25 4.234375 
Q 6.78125 9.90625 6.78125 20.515625 
Q 6.78125 27.484375 10.78125 32.3125 
Q 14.796875 37.15625 21.921875 38.8125 
z
M 18.3125 54.390625 
Q 18.3125 48.734375 21.84375 45.5625 
Q 25.390625 42.390625 31.78125 42.390625 
Q 38.140625 42.390625 41.71875 45.5625 
Q 45.3125 48.734375 45.3125 54.390625 
Q 45.3125 60.0625 41.71875 63.234375 
Q 38.140625 66.40625 31.78125 66.40625 
Q 25.390625 66.40625 21.84375 63.234375 
Q 18.3125 60.0625 18.3125 54.390625 
z
" id="DejaVuSans-56"/>
      </defs>
      <g transform="translate(306.005764 322.182437)scale(0.1 -0.1)">
       <use xlink:href="#DejaVuSans-56"/>
       <use x="63.623047" xlink:href="#DejaVuSans-48"/>
       <use x="127.246094" xlink:href="#DejaVuSans-48"/>
       <use x="190.869141" xlink:href="#DejaVuSans-48"/>
      </g>
     </g>
    </g>
    <g id="xtick_6">
     <g id="line2d_6">
      <g>
       <use style="stroke:#000000;stroke-width:0.8;" x="373.96112" xlink:href="#mfbf9926fe6" y="307.584"/>
      </g>
     </g>
     <g id="text_6">
      <!-- 10000 -->
      <defs>
       <path d="M 12.40625 8.296875 
L 28.515625 8.296875 
L 28.515625 63.921875 
L 10.984375 60.40625 
L 10.984375 69.390625 
L 28.421875 72.90625 
L 38.28125 72.90625 
L 38.28125 8.296875 
L 54.390625 8.296875 
L 54.390625 0 
L 12.40625 0 
z
" id="DejaVuSans-49"/>
      </defs>
      <g transform="translate(358.05487 322.182437)scale(0.1 -0.1)">
       <use xlink:href="#DejaVuSans-49"/>
       <use x="63.623047" xlink:href="#DejaVuSans-48"/>
       <use x="127.246094" xlink:href="#DejaVuSans-48"/>
       <use x="190.869141" xlink:href="#DejaVuSans-48"/>
       <use x="254.492188" xlink:href="#DejaVuSans-48"/>
      </g>
     </g>
    </g>
    <g id="text_7">
     <!-- astpeakac -->
     <defs>
      <path d="M 34.28125 27.484375 
Q 23.390625 27.484375 19.1875 25 
Q 14.984375 22.515625 14.984375 16.5 
Q 14.984375 11.71875 18.140625 8.90625 
Q 21.296875 6.109375 26.703125 6.109375 
Q 34.1875 6.109375 38.703125 11.40625 
Q 43.21875 16.703125 43.21875 25.484375 
L 43.21875 27.484375 
z
M 52.203125 31.203125 
L 52.203125 0 
L 43.21875 0 
L 43.21875 8.296875 
Q 40.140625 3.328125 35.546875 0.953125 
Q 30.953125 -1.421875 24.3125 -1.421875 
Q 15.921875 -1.421875 10.953125 3.296875 
Q 6 8.015625 6 15.921875 
Q 6 25.140625 12.171875 29.828125 
Q 18.359375 34.515625 30.609375 34.515625 
L 43.21875 34.515625 
L 43.21875 35.40625 
Q 43.21875 41.609375 39.140625 45 
Q 35.0625 48.390625 27.6875 48.390625 
Q 23 48.390625 18.546875 47.265625 
Q 14.109375 46.140625 10.015625 43.890625 
L 10.015625 52.203125 
Q 14.9375 54.109375 19.578125 55.046875 
Q 24.21875 56 28.609375 56 
Q 40.484375 56 46.34375 49.84375 
Q 52.203125 43.703125 52.203125 31.203125 
z
" id="DejaVuSans-97"/>
      <path d="M 44.28125 53.078125 
L 44.28125 44.578125 
Q 40.484375 46.53125 36.375 47.5 
Q 32.28125 48.484375 27.875 48.484375 
Q 21.1875 48.484375 17.84375 46.4375 
Q 14.5 44.390625 14.5 40.28125 
Q 14.5 37.15625 16.890625 35.375 
Q 19.28125 33.59375 26.515625 31.984375 
L 29.59375 31.296875 
Q 39.15625 29.25 43.1875 25.515625 
Q 47.21875 21.78125 47.21875 15.09375 
Q 47.21875 7.46875 41.1875 3.015625 
Q 35.15625 -1.421875 24.609375 -1.421875 
Q 20.21875 -1.421875 15.453125 -0.5625 
Q 10.6875 0.296875 5.421875 2 
L 5.421875 11.28125 
Q 10.40625 8.6875 15.234375 7.390625 
Q 20.0625 6.109375 24.8125 6.109375 
Q 31.15625 6.109375 34.5625 8.28125 
Q 37.984375 10.453125 37.984375 14.40625 
Q 37.984375 18.0625 35.515625 20.015625 
Q 33.0625 21.96875 24.703125 23.78125 
L 21.578125 24.515625 
Q 13.234375 26.265625 9.515625 29.90625 
Q 5.8125 33.546875 5.8125 39.890625 
Q 5.8125 47.609375 11.28125 51.796875 
Q 16.75 56 26.8125 56 
Q 31.78125 56 36.171875 55.265625 
Q 40.578125 54.546875 44.28125 53.078125 
z
" id="DejaVuSans-115"/>
      <path d="M 18.3125 70.21875 
L 18.3125 54.6875 
L 36.8125 54.6875 
L 36.8125 47.703125 
L 18.3125 47.703125 
L 18.3125 18.015625 
Q 18.3125 11.328125 20.140625 9.421875 
Q 21.96875 7.515625 27.59375 7.515625 
L 36.8125 7.515625 
L 36.8125 0 
L 27.59375 0 
Q 17.1875 0 13.234375 3.875 
Q 9.28125 7.765625 9.28125 18.015625 
L 9.28125 47.703125 
L 2.6875 47.703125 
L 2.6875 54.6875 
L 9.28125 54.6875 
L 9.28125 70.21875 
z
" id="DejaVuSans-116"/>
      <path d="M 18.109375 8.203125 
L 18.109375 -20.796875 
L 9.078125 -20.796875 
L 9.078125 54.6875 
L 18.109375 54.6875 
L 18.109375 46.390625 
Q 20.953125 51.265625 25.265625 53.625 
Q 29.59375 56 35.59375 56 
Q 45.5625 56 51.78125 48.09375 
Q 58.015625 40.1875 58.015625 27.296875 
Q 58.015625 14.40625 51.78125 6.484375 
Q 45.5625 -1.421875 35.59375 -1.421875 
Q 29.59375 -1.421875 25.265625 0.953125 
Q 20.953125 3.328125 18.109375 8.203125 
z
M 48.6875 27.296875 
Q 48.6875 37.203125 44.609375 42.84375 
Q 40.53125 48.484375 33.40625 48.484375 
Q 26.265625 48.484375 22.1875 42.84375 
Q 18.109375 37.203125 18.109375 27.296875 
Q 18.109375 17.390625 22.1875 11.75 
Q 26.265625 6.109375 33.40625 6.109375 
Q 40.53125 6.109375 44.609375 11.75 
Q 48.6875 17.390625 48.6875 27.296875 
z
" id="DejaVuSans-112"/>
      <path d="M 56.203125 29.59375 
L 56.203125 25.203125 
L 14.890625 25.203125 
Q 15.484375 15.921875 20.484375 11.0625 
Q 25.484375 6.203125 34.421875 6.203125 
Q 39.59375 6.203125 44.453125 7.46875 
Q 49.3125 8.734375 54.109375 11.28125 
L 54.109375 2.78125 
Q 49.265625 0.734375 44.1875 -0.34375 
Q 39.109375 -1.421875 33.890625 -1.421875 
Q 20.796875 -1.421875 13.15625 6.1875 
Q 5.515625 13.8125 5.515625 26.8125 
Q 5.515625 40.234375 12.765625 48.109375 
Q 20.015625 56 32.328125 56 
Q 43.359375 56 49.78125 48.890625 
Q 56.203125 41.796875 56.203125 29.59375 
z
M 47.21875 32.234375 
Q 47.125 39.59375 43.09375 43.984375 
Q 39.0625 48.390625 32.421875 48.390625 
Q 24.90625 48.390625 20.390625 44.140625 
Q 15.875 39.890625 15.1875 32.171875 
z
" id="DejaVuSans-101"/>
      <path d="M 9.078125 75.984375 
L 18.109375 75.984375 
L 18.109375 31.109375 
L 44.921875 54.6875 
L 56.390625 54.6875 
L 27.390625 29.109375 
L 57.625 0 
L 45.90625 0 
L 18.109375 26.703125 
L 18.109375 0 
L 9.078125 0 
z
" id="DejaVuSans-107"/>
      <path d="M 48.78125 52.59375 
L 48.78125 44.1875 
Q 44.96875 46.296875 41.140625 47.34375 
Q 37.3125 48.390625 33.40625 48.390625 
Q 24.65625 48.390625 19.8125 42.84375 
Q 14.984375 37.3125 14.984375 27.296875 
Q 14.984375 17.28125 19.8125 11.734375 
Q 24.65625 6.203125 33.40625 6.203125 
Q 37.3125 6.203125 41.140625 7.25 
Q 44.96875 8.296875 48.78125 10.40625 
L 48.78125 2.09375 
Q 45.015625 0.34375 40.984375 -0.53125 
Q 36.96875 -1.421875 32.421875 -1.421875 
Q 20.0625 -1.421875 12.78125 6.34375 
Q 5.515625 14.109375 5.515625 27.296875 
Q 5.515625 40.671875 12.859375 48.328125 
Q 20.21875 56 33.015625 56 
Q 37.15625 56 41.109375 55.140625 
Q 45.0625 54.296875 48.78125 52.59375 
z
" id="DejaVuSans-99"/>
     </defs>
     <g transform="translate(210.595156 335.860562)scale(0.1 -0.1)">
      <use xlink:href="#DejaVuSans-97"/>
      <use x="61.279297" xlink:href="#DejaVuSans-115"/>
      <use x="113.378906" xlink:href="#DejaVuSans-116"/>
      <use x="152.587891" xlink:href="#DejaVuSans-112"/>
      <use x="216.064453" xlink:href="#DejaVuSans-101"/>
      <use x="277.587891" xlink:href="#DejaVuSans-97"/>
      <use x="338.867188" xlink:href="#DejaVuSans-107"/>
      <use x="395.027344" xlink:href="#DejaVuSans-97"/>
      <use x="456.306641" xlink:href="#DejaVuSans-99"/>
     </g>
    </g>
   </g>
   <g id="matplotlib.axis_2">
    <g id="ytick_1">
     <g id="line2d_7">
      <defs>
       <path d="M 0 0 
L -3.5 0 
" id="m2c27ccd260" style="stroke:#000000;stroke-width:0.8;"/>
      </defs>
      <g>
       <use style="stroke:#000000;stroke-width:0.8;" x="57.6" xlink:href="#m2c27ccd260" y="174.528"/>
      </g>
     </g>
    </g>
   </g>
   <g id="line2d_8">
    <path clip-path="url(#pc73f690114)" d="M 98.35888 174.528 
L 107.088038 174.528 
" style="fill:none;stroke:#ffa500;stroke-linecap:square;stroke-width:1.5;"/>
   </g>
   <g id="line2d_9">
    <path clip-path="url(#pc73f690114)" d="M 99.162481 174.528 
L 102.365842 174.528 
" style="fill:none;stroke:#4c4c4c;stroke-linecap:square;stroke-width:4.5;"/>
   </g>
   <g id="line2d_10">
    <path clip-path="url(#pc73f690114)" d="M 98.35888 174.528 
L 101.371696 174.528 
" style="fill:none;stroke:#008000;stroke-linecap:square;stroke-width:1.5;"/>
   </g>
   <g id="line2d_11">
    <path clip-path="url(#pc73f690114)" d="M 98.610178 174.528 
L 99.7424 174.528 
" style="fill:none;stroke:#262626;stroke-linecap:square;stroke-width:4.5;"/>
   </g>
   <g id="patch_3">
    <path d="M 57.6 307.584 
L 57.6 41.472 
" style="fill:none;stroke:#000000;stroke-linecap:square;stroke-linejoin:miter;stroke-width:0.8;"/>
   </g>
   <g id="patch_4">
    <path d="M 414.72 307.584 
L 414.72 41.472 
" style="fill:none;stroke:#000000;stroke-linecap:square;stroke-linejoin:miter;stroke-width:0.8;"/>
   </g>
   <g id="patch_5">
    <path d="M 57.6 307.584 
L 414.72 307.584 
" style="fill:none;stroke:#000000;stroke-linecap:square;stroke-linejoin:miter;stroke-width:0.8;"/>
   </g>
   <g id="patch_6">
    <path d="M 57.6 41.472 
L 414.72 41.472 
" style="fill:none;stroke:#000000;stroke-linecap:square;stroke-linejoin:miter;stroke-width:0.8;"/>
   </g>
   <g id="PathCollection_1">
    <defs>
     <path d="M 0 1.5 
C 0.397805 1.5 0.77937 1.341951 1.06066 1.06066 
C 1.341951 0.77937 1.5 0.397805 1.5 0 
C 1.5 -0.397805 1.341951 -0.77937 1.06066 -1.06066 
C 0.77937 -1.341951 0.397805 -1.5 0 -1.5 
C -0.397805 -1.5 -0.77937 -1.341951 -1.06066 -1.06066 
C -1.341951 -0.77937 -1.5 -0.397805 -1.5 0 
C -1.5 0.397805 -1.341951 0.77937 -1.06066 1.06066 
C -0.77937 1.341951 -0.397805 1.5 0 1.5 
z
" id="ma9285db2b3" style="stroke:#4c4c4c;stroke-opacity:0.5;"/>
    </defs>
    <g clip-path="url(#pc73f690114)">
     <use style="fill:#ffffff;fill-opacity:0.5;stroke:#4c4c4c;stroke-opacity:0.5;" x="100.239473" xlink:href="#ma9285db2b3" y="174.528"/>
    </g>
   </g>
   <g id="PathCollection_2">
    <defs>
     <path d="M 0 1.5 
C 0.397805 1.5 0.77937 1.341951 1.06066 1.06066 
C 1.341951 0.77937 1.5 0.397805 1.5 0 
C 1.5 -0.397805 1.341951 -0.77937 1.06066 -1.06066 
C 0.77937 -1.341951 0.397805 -1.5 0 -1.5 
C -0.397805 -1.5 -0.77937 -1.341951 -1.06066 -1.06066 
C -1.341951 -0.77937 -1.5 -0.397805 -1.5 0 
C -1.5 0.397805 -1.341951 0.77937 -1.06066 1.06066 
C -0.77937 1.341951 -0.397805 1.5 0 1.5 
z
" id="m5a2f4b5260" style="stroke:#262626;stroke-opacity:0.5;"/>
    </defs>
    <g clip-path="url(#pc73f690114)">
     <use style="fill:#ffffff;fill-opacity:0.5;stroke:#262626;stroke-opacity:0.5;" x="98.99679" xlink:href="#m5a2f4b5260" y="174.528"/>
    </g>
   </g>
   <g id="text_8">
    <!-- Association of astpeakac vs. death -->
    <defs>
     <path d="M 34.1875 63.1875 
L 20.796875 26.90625 
L 47.609375 26.90625 
z
M 28.609375 72.90625 
L 39.796875 72.90625 
L 67.578125 0 
L 57.328125 0 
L 50.6875 18.703125 
L 17.828125 18.703125 
L 11.1875 0 
L 0.78125 0 
z
" id="DejaVuSans-65"/>
     <path d="M 30.609375 48.390625 
Q 23.390625 48.390625 19.1875 42.75 
Q 14.984375 37.109375 14.984375 27.296875 
Q 14.984375 17.484375 19.15625 11.84375 
Q 23.34375 6.203125 30.609375 6.203125 
Q 37.796875 6.203125 41.984375 11.859375 
Q 46.1875 17.53125 46.1875 27.296875 
Q 46.1875 37.015625 41.984375 42.703125 
Q 37.796875 48.390625 30.609375 48.390625 
z
M 30.609375 56 
Q 42.328125 56 49.015625 48.375 
Q 55.71875 40.765625 55.71875 27.296875 
Q 55.71875 13.875 49.015625 6.21875 
Q 42.328125 -1.421875 30.609375 -1.421875 
Q 18.84375 -1.421875 12.171875 6.21875 
Q 5.515625 13.875 5.515625 27.296875 
Q 5.515625 40.765625 12.171875 48.375 
Q 18.84375 56 30.609375 56 
z
" id="DejaVuSans-111"/>
     <path d="M 9.421875 54.6875 
L 18.40625 54.6875 
L 18.40625 0 
L 9.421875 0 
z
M 9.421875 75.984375 
L 18.40625 75.984375 
L 18.40625 64.59375 
L 9.421875 64.59375 
z
" id="DejaVuSans-105"/>
     <path d="M 54.890625 33.015625 
L 54.890625 0 
L 45.90625 0 
L 45.90625 32.71875 
Q 45.90625 40.484375 42.875 44.328125 
Q 39.84375 48.1875 33.796875 48.1875 
Q 26.515625 48.1875 22.3125 43.546875 
Q 18.109375 38.921875 18.109375 30.90625 
L 18.109375 0 
L 9.078125 0 
L 9.078125 54.6875 
L 18.109375 54.6875 
L 18.109375 46.1875 
Q 21.34375 51.125 25.703125 53.5625 
Q 30.078125 56 35.796875 56 
Q 45.21875 56 50.046875 50.171875 
Q 54.890625 44.34375 54.890625 33.015625 
z
" id="DejaVuSans-110"/>
     <path id="DejaVuSans-32"/>
     <path d="M 37.109375 75.984375 
L 37.109375 68.5 
L 28.515625 68.5 
Q 23.6875 68.5 21.796875 66.546875 
Q 19.921875 64.59375 19.921875 59.515625 
L 19.921875 54.6875 
L 34.71875 54.6875 
L 34.71875 47.703125 
L 19.921875 47.703125 
L 19.921875 0 
L 10.890625 0 
L 10.890625 47.703125 
L 2.296875 47.703125 
L 2.296875 54.6875 
L 10.890625 54.6875 
L 10.890625 58.5 
Q 10.890625 67.625 15.140625 71.796875 
Q 19.390625 75.984375 28.609375 75.984375 
z
" id="DejaVuSans-102"/>
     <path d="M 2.984375 54.6875 
L 12.5 54.6875 
L 29.59375 8.796875 
L 46.6875 54.6875 
L 56.203125 54.6875 
L 35.6875 0 
L 23.484375 0 
z
" id="DejaVuSans-118"/>
     <path d="M 10.6875 12.40625 
L 21 12.40625 
L 21 0 
L 10.6875 0 
z
" id="DejaVuSans-46"/>
     <path d="M 45.40625 46.390625 
L 45.40625 75.984375 
L 54.390625 75.984375 
L 54.390625 0 
L 45.40625 0 
L 45.40625 8.203125 
Q 42.578125 3.328125 38.25 0.953125 
Q 33.9375 -1.421875 27.875 -1.421875 
Q 17.96875 -1.421875 11.734375 6.484375 
Q 5.515625 14.40625 5.515625 27.296875 
Q 5.515625 40.1875 11.734375 48.09375 
Q 17.96875 56 27.875 56 
Q 33.9375 56 38.25 53.625 
Q 42.578125 51.265625 45.40625 46.390625 
z
M 14.796875 27.296875 
Q 14.796875 17.390625 18.875 11.75 
Q 22.953125 6.109375 30.078125 6.109375 
Q 37.203125 6.109375 41.296875 11.75 
Q 45.40625 17.390625 45.40625 27.296875 
Q 45.40625 37.203125 41.296875 42.84375 
Q 37.203125 48.484375 30.078125 48.484375 
Q 22.953125 48.484375 18.875 42.84375 
Q 14.796875 37.203125 14.796875 27.296875 
z
" id="DejaVuSans-100"/>
     <path d="M 54.890625 33.015625 
L 54.890625 0 
L 45.90625 0 
L 45.90625 32.71875 
Q 45.90625 40.484375 42.875 44.328125 
Q 39.84375 48.1875 33.796875 48.1875 
Q 26.515625 48.1875 22.3125 43.546875 
Q 18.109375 38.921875 18.109375 30.90625 
L 18.109375 0 
L 9.078125 0 
L 9.078125 75.984375 
L 18.109375 75.984375 
L 18.109375 46.1875 
Q 21.34375 51.125 25.703125 53.5625 
Q 30.078125 56 35.796875 56 
Q 45.21875 56 50.046875 50.171875 
Q 54.890625 44.34375 54.890625 33.015625 
z
" id="DejaVuSans-104"/>
    </defs>
    <g transform="translate(131.9925 35.472)scale(0.12 -0.12)">
     <use xlink:href="#DejaVuSans-65"/>
     <use x="68.408203" xlink:href="#DejaVuSans-115"/>
     <use x="120.507812" xlink:href="#DejaVuSans-115"/>
     <use x="172.607422" xlink:href="#DejaVuSans-111"/>
     <use x="233.789062" xlink:href="#DejaVuSans-99"/>
     <use x="288.769531" xlink:href="#DejaVuSans-105"/>
     <use x="316.552734" xlink:href="#DejaVuSans-97"/>
     <use x="377.832031" xlink:href="#DejaVuSans-116"/>
     <use x="417.041016" xlink:href="#DejaVuSans-105"/>
     <use x="444.824219" xlink:href="#DejaVuSans-111"/>
     <use x="506.005859" xlink:href="#DejaVuSans-110"/>
     <use x="569.384766" xlink:href="#DejaVuSans-32"/>
     <use x="601.171875" xlink:href="#DejaVuSans-111"/>
     <use x="662.353516" xlink:href="#DejaVuSans-102"/>
     <use x="697.558594" xlink:href="#DejaVuSans-32"/>
     <use x="729.345703" xlink:href="#DejaVuSans-97"/>
     <use x="790.625" xlink:href="#DejaVuSans-115"/>
     <use x="842.724609" xlink:href="#DejaVuSans-116"/>
     <use x="881.933594" xlink:href="#DejaVuSans-112"/>
     <use x="945.410156" xlink:href="#DejaVuSans-101"/>
     <use x="1006.933594" xlink:href="#DejaVuSans-97"/>
     <use x="1068.212891" xlink:href="#DejaVuSans-107"/>
     <use x="1124.373047" xlink:href="#DejaVuSans-97"/>
     <use x="1185.652344" xlink:href="#DejaVuSans-99"/>
     <use x="1240.632812" xlink:href="#DejaVuSans-32"/>
     <use x="1272.419922" xlink:href="#DejaVuSans-118"/>
     <use x="1331.599609" xlink:href="#DejaVuSans-115"/>
     <use x="1383.699219" xlink:href="#DejaVuSans-46"/>
     <use x="1415.486328" xlink:href="#DejaVuSans-32"/>
     <use x="1447.273438" xlink:href="#DejaVuSans-100"/>
     <use x="1510.75" xlink:href="#DejaVuSans-101"/>
     <use x="1572.273438" xlink:href="#DejaVuSans-97"/>
     <use x="1633.552734" xlink:href="#DejaVuSans-116"/>
     <use x="1672.761719" xlink:href="#DejaVuSans-104"/>
    </g>
   </g>
   <g id="legend_1">
    <g id="patch_7">
     <path d="M 296.065313 78.82825 
L 407.72 78.82825 
Q 409.72 78.82825 409.72 76.82825 
L 409.72 48.472 
Q 409.72 46.472 407.72 46.472 
L 296.065313 46.472 
Q 294.065313 46.472 294.065313 48.472 
L 294.065313 76.82825 
Q 294.065313 78.82825 296.065313 78.82825 
z
" style="fill:#ffffff;opacity:0.8;stroke:#cccccc;stroke-linejoin:miter;"/>
    </g>
    <g id="line2d_12">
     <path d="M 298.065313 54.570437 
L 318.065313 54.570437 
" style="fill:none;stroke:#ffa500;stroke-linecap:square;stroke-width:1.5;"/>
    </g>
    <g id="line2d_13"/>
    <g id="text_9">
     <!-- death (111) -->
     <defs>
      <path d="M 31 75.875 
Q 24.46875 64.65625 21.28125 53.65625 
Q 18.109375 42.671875 18.109375 31.390625 
Q 18.109375 20.125 21.3125 9.0625 
Q 24.515625 -2 31 -13.1875 
L 23.1875 -13.1875 
Q 15.875 -1.703125 12.234375 9.375 
Q 8.59375 20.453125 8.59375 31.390625 
Q 8.59375 42.28125 12.203125 53.3125 
Q 15.828125 64.359375 23.1875 75.875 
z
" id="DejaVuSans-40"/>
      <path d="M 8.015625 75.875 
L 15.828125 75.875 
Q 23.140625 64.359375 26.78125 53.3125 
Q 30.421875 42.28125 30.421875 31.390625 
Q 30.421875 20.453125 26.78125 9.375 
Q 23.140625 -1.703125 15.828125 -13.1875 
L 8.015625 -13.1875 
Q 14.5 -2 17.703125 9.0625 
Q 20.90625 20.125 20.90625 31.390625 
Q 20.90625 42.671875 17.703125 53.65625 
Q 14.5 64.65625 8.015625 75.875 
z
" id="DejaVuSans-41"/>
     </defs>
     <g transform="translate(326.065313 58.070437)scale(0.1 -0.1)">
      <use xlink:href="#DejaVuSans-100"/>
      <use x="63.476562" xlink:href="#DejaVuSans-101"/>
      <use x="125" xlink:href="#DejaVuSans-97"/>
      <use x="186.279297" xlink:href="#DejaVuSans-116"/>
      <use x="225.488281" xlink:href="#DejaVuSans-104"/>
      <use x="288.867188" xlink:href="#DejaVuSans-32"/>
      <use x="320.654297" xlink:href="#DejaVuSans-40"/>
      <use x="359.667969" xlink:href="#DejaVuSans-49"/>
      <use x="423.291016" xlink:href="#DejaVuSans-49"/>
      <use x="486.914062" xlink:href="#DejaVuSans-49"/>
      <use x="550.537109" xlink:href="#DejaVuSans-41"/>
     </g>
    </g>
    <g id="line2d_14">
     <path d="M 298.065313 69.248562 
L 318.065313 69.248562 
" style="fill:none;stroke:#008000;stroke-linecap:square;stroke-width:1.5;"/>
    </g>
    <g id="line2d_15"/>
    <g id="text_10">
     <!-- Not death (284) -->
     <defs>
      <path d="M 9.8125 72.90625 
L 23.09375 72.90625 
L 55.421875 11.921875 
L 55.421875 72.90625 
L 64.984375 72.90625 
L 64.984375 0 
L 51.703125 0 
L 19.390625 60.984375 
L 19.390625 0 
L 9.8125 0 
z
" id="DejaVuSans-78"/>
     </defs>
     <g transform="translate(326.065313 72.748562)scale(0.1 -0.1)">
      <use xlink:href="#DejaVuSans-78"/>
      <use x="74.804688" xlink:href="#DejaVuSans-111"/>
      <use x="135.986328" xlink:href="#DejaVuSans-116"/>
      <use x="175.195312" xlink:href="#DejaVuSans-32"/>
      <use x="206.982422" xlink:href="#DejaVuSans-100"/>
      <use x="270.458984" xlink:href="#DejaVuSans-101"/>
      <use x="331.982422" xlink:href="#DejaVuSans-97"/>
      <use x="393.261719" xlink:href="#DejaVuSans-116"/>
      <use x="432.470703" xlink:href="#DejaVuSans-104"/>
      <use x="495.849609" xlink:href="#DejaVuSans-32"/>
      <use x="527.636719" xlink:href="#DejaVuSans-40"/>
      <use x="566.650391" xlink:href="#DejaVuSans-50"/>
      <use x="630.273438" xlink:href="#DejaVuSans-56"/>
      <use x="693.896484" xlink:href="#DejaVuSans-52"/>
      <use x="757.519531" xlink:href="#DejaVuSans-41"/>
     </g>
    </g>
   </g>
  </g>
 </g>
 <defs>
  <clipPath id="pc73f690114">
   <rect height="266.112" width="357.12" x="57.6" y="41.472"/>
  </clipPath>
 </defs>
</svg>
