<?xml version="1.0" encoding="utf-8" standalone="no"?>
<!DOCTYPE svg PUBLIC "-//W3C//DTD SVG 1.1//EN"
  "http://www.w3.org/Graphics/SVG/1.1/DTD/svg11.dtd">
<!-- Created with matplotlib (https://matplotlib.org/) -->
<svg height="345.6pt" version="1.1" viewBox="0 0 460.8 345.6" width="460.8pt" xmlns="http://www.w3.org/2000/svg" xmlns:xlink="http://www.w3.org/1999/xlink">
 <defs>
  <style type="text/css">
*{stroke-linecap:butt;stroke-linejoin:round;}
  </style>
 </defs>
 <g id="figure_1">
  <g id="patch_1">
   <path d="M 0 345.6 
L 460.8 345.6 
L 460.8 0 
L 0 0 
z
" style="fill:#ffffff;"/>
  </g>
  <g id="axes_1">
   <g id="patch_2">
    <path d="M 57.6 307.584 
L 414.72 307.584 
L 414.72 41.472 
L 57.6 41.472 
z
" style="fill:#ffffff;"/>
   </g>
   <g id="PolyCollection_1">
    <defs>
     <path d="M 73.832727 -170.147271 
L 73.832727 -171.996729 
L 76.954817 -172.492648 
L 80.076906 -173.187163 
L 83.198995 -174.126334 
L 86.321084 -175.353179 
L 89.443173 -176.902065 
L 92.565263 -178.792878 
L 95.687352 -181.02597 
L 98.809441 -183.578998 
L 101.93153 -186.406604 
L 105.05362 -189.443596 
L 108.175709 -192.611749 
L 111.297798 -195.829746 
L 114.419887 -199.025127 
L 117.541977 -202.146581 
L 120.664066 -205.174562 
L 123.786155 -208.128259 
L 126.908244 -211.067333 
L 130.030334 -214.087623 
L 133.152423 -217.311044 
L 136.274512 -220.870827 
L 139.396601 -224.893915 
L 142.51869 -229.482583 
L 145.64078 -234.697129 
L 148.762869 -240.541204 
L 151.884958 -246.951022 
L 155.007047 -253.789749 
L 158.129137 -260.848562 
L 161.251226 -267.855966 
L 164.373315 -274.496554 
L 167.495404 -280.439085 
L 170.617494 -285.371639 
L 173.739583 -289.039164 
L 176.861672 -291.276814 
L 179.983761 -292.032 
L 183.105851 -291.369612 
L 186.22794 -289.458228 
L 189.350029 -286.53951 
L 192.472118 -282.886965 
L 195.594207 -278.7627 
L 198.716297 -274.380814 
L 201.838386 -269.883974 
L 204.960475 -265.336131 
L 208.082564 -260.730641 
L 211.204654 -256.010108 
L 214.326743 -251.092838 
L 217.448832 -245.90065 
L 220.570921 -240.383618 
L 223.693011 -234.538521 
L 226.8151 -228.418997 
L 229.937189 -222.136428 
L 233.059278 -215.851604 
L 236.181368 -209.758265 
L 239.303457 -204.060726 
L 242.425546 -198.948782 
L 245.547635 -194.573717 
L 248.669724 -191.029257 
L 251.791814 -188.340593 
L 254.913903 -186.463271 
L 258.035992 -185.292013 
L 261.158081 -184.67776 
L 264.280171 -184.449779 
L 267.40226 -184.438833 
L 270.524349 -184.497368 
L 273.646438 -184.51344 
L 276.768528 -184.416588 
L 279.890617 -184.175636 
L 283.012706 -183.790151 
L 286.134795 -183.278521 
L 289.256885 -182.666027 
L 292.378974 -181.975772 
L 295.501063 -181.224166 
L 298.623152 -180.421099 
L 301.745241 -179.573577 
L 304.867331 -178.690765 
L 307.98942 -177.788273 
L 311.111509 -176.890096 
L 314.233598 -176.027564 
L 317.355688 -175.235659 
L 320.477777 -174.547771 
L 323.599866 -173.990242 
L 326.721955 -173.577952 
L 329.844045 -173.311774 
L 332.966134 -173.178272 
L 336.088223 -173.151553 
L 339.210312 -173.196896 
L 342.332402 -173.275524 
L 345.454491 -173.349797 
L 348.57658 -173.38804 
L 351.698669 -173.368246 
L 354.820758 -173.280091 
L 357.942848 -173.124979 
L 361.064937 -172.914227 
L 364.187026 -172.665869 
L 367.309115 -172.400815 
L 370.431205 -172.139186 
L 373.553294 -171.897469 
L 376.675383 -171.686899 
L 379.797472 -171.513086 
L 382.919562 -171.376682 
L 382.919562 -170.767318 
L 382.919562 -170.767318 
L 379.797472 -170.630914 
L 376.675383 -170.457101 
L 373.553294 -170.246531 
L 370.431205 -170.004814 
L 367.309115 -169.743185 
L 364.187026 -169.478131 
L 361.064937 -169.229773 
L 357.942848 -169.019021 
L 354.820758 -168.863909 
L 351.698669 -168.775754 
L 348.57658 -168.75596 
L 345.454491 -168.794203 
L 342.332402 -168.868476 
L 339.210312 -168.947104 
L 336.088223 -168.992447 
L 332.966134 -168.965728 
L 329.844045 -168.832226 
L 326.721955 -168.566048 
L 323.599866 -168.153758 
L 320.477777 -167.596229 
L 317.355688 -166.908341 
L 314.233598 -166.116436 
L 311.111509 -165.253904 
L 307.98942 -164.355727 
L 304.867331 -163.453235 
L 301.745241 -162.570423 
L 298.623152 -161.722901 
L 295.501063 -160.919834 
L 292.378974 -160.168228 
L 289.256885 -159.477973 
L 286.134795 -158.865479 
L 283.012706 -158.353849 
L 279.890617 -157.968364 
L 276.768528 -157.727412 
L 273.646438 -157.63056 
L 270.524349 -157.646632 
L 267.40226 -157.705167 
L 264.280171 -157.694221 
L 261.158081 -157.46624 
L 258.035992 -156.851987 
L 254.913903 -155.680729 
L 251.791814 -153.803407 
L 248.669724 -151.114743 
L 245.547635 -147.570283 
L 242.425546 -143.195218 
L 239.303457 -138.083274 
L 236.181368 -132.385735 
L 233.059278 -126.292396 
L 229.937189 -120.007572 
L 226.8151 -113.725003 
L 223.693011 -107.605479 
L 220.570921 -101.760382 
L 217.448832 -96.24335 
L 214.326743 -91.051162 
L 211.204654 -86.133892 
L 208.082564 -81.413359 
L 204.960475 -76.807869 
L 201.838386 -72.260026 
L 198.716297 -67.763186 
L 195.594207 -63.3813 
L 192.472118 -59.257035 
L 189.350029 -55.60449 
L 186.22794 -52.685772 
L 183.105851 -50.774388 
L 179.983761 -50.112 
L 176.861672 -50.867186 
L 173.739583 -53.104836 
L 170.617494 -56.772361 
L 167.495404 -61.704915 
L 164.373315 -67.647446 
L 161.251226 -74.288034 
L 158.129137 -81.295438 
L 155.007047 -88.354251 
L 151.884958 -95.192978 
L 148.762869 -101.602796 
L 145.64078 -107.446871 
L 142.51869 -112.661417 
L 139.396601 -117.250085 
L 136.274512 -121.273173 
L 133.152423 -124.832956 
L 130.030334 -128.056377 
L 126.908244 -131.076667 
L 123.786155 -134.015741 
L 120.664066 -136.969438 
L 117.541977 -139.997419 
L 114.419887 -143.118873 
L 111.297798 -146.314254 
L 108.175709 -149.532251 
L 105.05362 -152.700404 
L 101.93153 -155.737396 
L 98.809441 -158.565002 
L 95.687352 -161.11803 
L 92.565263 -163.351122 
L 89.443173 -165.241935 
L 86.321084 -166.790821 
L 83.198995 -168.017666 
L 80.076906 -168.956837 
L 76.954817 -169.651352 
L 73.832727 -170.147271 
z
" id="m6e3c1270d4" style="stroke:#4c4c4c;stroke-opacity:0.5;stroke-width:1.5;"/>
    </defs>
    <g clip-path="url(#p3d457d1da3)">
     <use style="fill:#df9c20;fill-opacity:0.5;stroke:#4c4c4c;stroke-opacity:0.5;stroke-width:1.5;" x="0" xlink:href="#m6e3c1270d4" y="345.6"/>
    </g>
   </g>
   <g id="PolyCollection_2">
    <defs>
     <path d="M 79.981118 -170.712868 
L 79.981118 -171.431132 
L 83.198352 -171.698497 
L 86.415586 -172.101423 
L 89.63282 -172.669217 
L 92.850054 -173.419774 
L 96.067288 -174.355475 
L 99.284521 -175.46513 
L 102.501755 -176.732955 
L 105.718989 -178.15189 
L 108.936223 -179.735279 
L 112.153457 -181.520598 
L 115.370691 -183.562376 
L 118.587925 -185.917377 
L 121.805159 -188.629683 
L 125.022392 -191.72339 
L 128.239626 -195.205498 
L 131.45686 -199.074595 
L 134.674094 -203.32708 
L 137.891328 -207.954884 
L 141.108562 -212.935597 
L 144.325796 -218.22226 
L 147.54303 -223.741231 
L 150.760264 -229.401767 
L 153.977497 -235.114338 
L 157.194731 -240.810556 
L 160.411965 -246.457461 
L 163.629199 -252.060617 
L 166.846433 -257.651906 
L 170.063667 -263.260386 
L 173.280901 -268.870681 
L 176.498135 -274.382952 
L 179.715369 -279.595272 
L 182.932602 -284.225172 
L 186.149836 -287.969982 
L 189.36707 -290.583814 
L 192.584304 -291.937057 
L 195.801538 -292.032 
L 199.018772 -290.972075 
L 202.236006 -288.906883 
L 205.45324 -285.984451 
L 208.670473 -282.330972 
L 211.887707 -278.056264 
L 215.104941 -273.266492 
L 218.322175 -268.065411 
L 221.539409 -262.539515 
L 224.756643 -256.739346 
L 227.973877 -250.675904 
L 231.191111 -244.343172 
L 234.408345 -237.7607 
L 237.625578 -231.015545 
L 240.842812 -224.280049 
L 244.060046 -217.792787 
L 247.27728 -211.808003 
L 250.494514 -206.533616 
L 253.711748 -202.081954 
L 256.928982 -198.449824 
L 260.146216 -195.531151 
L 263.36345 -193.153496 
L 266.580683 -191.124212 
L 269.797917 -189.272765 
L 273.015151 -187.480155 
L 276.232385 -185.691519 
L 279.449619 -183.912401 
L 282.666853 -182.192695 
L 285.884087 -180.604487 
L 289.101321 -179.220423 
L 292.318555 -178.097261 
L 295.535788 -177.266036 
L 298.753022 -176.727408 
L 301.970256 -176.450188 
L 305.18749 -176.372637 
L 308.404724 -176.408183 
L 311.621958 -176.457436 
L 314.839192 -176.425942 
L 318.056426 -176.243549 
L 321.273659 -175.879011 
L 324.490893 -175.34452 
L 327.708127 -174.688624 
L 330.925361 -173.980557 
L 334.142595 -173.291834 
L 337.359829 -172.681076 
L 340.577063 -172.185774 
L 343.794297 -171.821541 
L 347.011531 -171.586751 
L 350.228764 -171.469152 
L 353.445998 -171.451323 
L 356.663232 -171.513251 
L 359.880466 -171.632201 
L 363.0977 -171.781656 
L 366.314934 -171.931567 
L 369.532168 -172.051423 
L 372.749402 -172.115819 
L 375.966636 -172.110445 
L 379.183869 -172.035719 
L 382.401103 -171.906113 
L 385.618337 -171.745243 
L 388.835571 -171.578732 
L 392.052805 -171.427665 
L 395.270039 -171.304787 
L 398.487273 -171.214079 
L 398.487273 -170.929921 
L 398.487273 -170.929921 
L 395.270039 -170.839213 
L 392.052805 -170.716335 
L 388.835571 -170.565268 
L 385.618337 -170.398757 
L 382.401103 -170.237887 
L 379.183869 -170.108281 
L 375.966636 -170.033555 
L 372.749402 -170.028181 
L 369.532168 -170.092577 
L 366.314934 -170.212433 
L 363.0977 -170.362344 
L 359.880466 -170.511799 
L 356.663232 -170.630749 
L 353.445998 -170.692677 
L 350.228764 -170.674848 
L 347.011531 -170.557249 
L 343.794297 -170.322459 
L 340.577063 -169.958226 
L 337.359829 -169.462924 
L 334.142595 -168.852166 
L 330.925361 -168.163443 
L 327.708127 -167.455376 
L 324.490893 -166.79948 
L 321.273659 -166.264989 
L 318.056426 -165.900451 
L 314.839192 -165.718058 
L 311.621958 -165.686564 
L 308.404724 -165.735817 
L 305.18749 -165.771363 
L 301.970256 -165.693812 
L 298.753022 -165.416592 
L 295.535788 -164.877964 
L 292.318555 -164.046739 
L 289.101321 -162.923577 
L 285.884087 -161.539513 
L 282.666853 -159.951305 
L 279.449619 -158.231599 
L 276.232385 -156.452481 
L 273.015151 -154.663845 
L 269.797917 -152.871235 
L 266.580683 -151.019788 
L 263.36345 -148.990504 
L 260.146216 -146.612849 
L 256.928982 -143.694176 
L 253.711748 -140.062046 
L 250.494514 -135.610384 
L 247.27728 -130.335997 
L 244.060046 -124.351213 
L 240.842812 -117.863951 
L 237.625578 -111.128455 
L 234.408345 -104.3833 
L 231.191111 -97.800828 
L 227.973877 -91.468096 
L 224.756643 -85.404654 
L 221.539409 -79.604485 
L 218.322175 -74.078589 
L 215.104941 -68.877508 
L 211.887707 -64.087736 
L 208.670473 -59.813028 
L 205.45324 -56.159549 
L 202.236006 -53.237117 
L 199.018772 -51.171925 
L 195.801538 -50.112 
L 192.584304 -50.206943 
L 189.36707 -51.560186 
L 186.149836 -54.174018 
L 182.932602 -57.918828 
L 179.715369 -62.548728 
L 176.498135 -67.761048 
L 173.280901 -73.273319 
L 170.063667 -78.883614 
L 166.846433 -84.492094 
L 163.629199 -90.083383 
L 160.411965 -95.686539 
L 157.194731 -101.333444 
L 153.977497 -107.029662 
L 150.760264 -112.742233 
L 147.54303 -118.402769 
L 144.325796 -123.92174 
L 141.108562 -129.208403 
L 137.891328 -134.189116 
L 134.674094 -138.81692 
L 131.45686 -143.069405 
L 128.239626 -146.938502 
L 125.022392 -150.42061 
L 121.805159 -153.514317 
L 118.587925 -156.226623 
L 115.370691 -158.581624 
L 112.153457 -160.623402 
L 108.936223 -162.408721 
L 105.718989 -163.99211 
L 102.501755 -165.411045 
L 99.284521 -166.67887 
L 96.067288 -167.788525 
L 92.850054 -168.724226 
L 89.63282 -169.474783 
L 86.415586 -170.042577 
L 83.198352 -170.445503 
L 79.981118 -170.712868 
z
" id="m85602010ed" style="stroke:#262626;stroke-opacity:0.5;stroke-width:1.5;"/>
    </defs>
    <g clip-path="url(#p3d457d1da3)">
     <use style="fill:#107010;fill-opacity:0.5;stroke:#262626;stroke-opacity:0.5;stroke-width:1.5;" x="0" xlink:href="#m85602010ed" y="345.6"/>
    </g>
   </g>
   <g id="matplotlib.axis_1">
    <g id="xtick_1">
     <g id="line2d_1">
      <defs>
       <path d="M 0 0 
L 0 3.5 
" id="m81617cc10e" style="stroke:#000000;stroke-width:0.8;"/>
      </defs>
      <g>
       <use style="stroke:#000000;stroke-width:0.8;" x="103.78001" xlink:href="#m81617cc10e" y="307.584"/>
      </g>
     </g>
     <g id="text_1">
      <!-- 0 -->
      <defs>
       <path d="M 31.78125 66.40625 
Q 24.171875 66.40625 20.328125 58.90625 
Q 16.5 51.421875 16.5 36.375 
Q 16.5 21.390625 20.328125 13.890625 
Q 24.171875 6.390625 31.78125 6.390625 
Q 39.453125 6.390625 43.28125 13.890625 
Q 47.125 21.390625 47.125 36.375 
Q 47.125 51.421875 43.28125 58.90625 
Q 39.453125 66.40625 31.78125 66.40625 
z
M 31.78125 74.21875 
Q 44.046875 74.21875 50.515625 64.515625 
Q 56.984375 54.828125 56.984375 36.375 
Q 56.984375 17.96875 50.515625 8.265625 
Q 44.046875 -1.421875 31.78125 -1.421875 
Q 19.53125 -1.421875 13.0625 8.265625 
Q 6.59375 17.96875 6.59375 36.375 
Q 6.59375 54.828125 13.0625 64.515625 
Q 19.53125 74.21875 31.78125 74.21875 
z
" id="DejaVuSans-48"/>
      </defs>
      <g transform="translate(100.59876 322.182437)scale(0.1 -0.1)">
       <use xlink:href="#DejaVuSans-48"/>
      </g>
     </g>
    </g>
    <g id="xtick_2">
     <g id="line2d_2">
      <g>
       <use style="stroke:#000000;stroke-width:0.8;" x="158.070264" xlink:href="#m81617cc10e" y="307.584"/>
      </g>
     </g>
     <g id="text_2">
      <!-- 100 -->
      <defs>
       <path d="M 12.40625 8.296875 
L 28.515625 8.296875 
L 28.515625 63.921875 
L 10.984375 60.40625 
L 10.984375 69.390625 
L 28.421875 72.90625 
L 38.28125 72.90625 
L 38.28125 8.296875 
L 54.390625 8.296875 
L 54.390625 0 
L 12.40625 0 
z
" id="DejaVuSans-49"/>
      </defs>
      <g transform="translate(148.526514 322.182437)scale(0.1 -0.1)">
       <use xlink:href="#DejaVuSans-49"/>
       <use x="63.623047" xlink:href="#DejaVuSans-48"/>
       <use x="127.246094" xlink:href="#DejaVuSans-48"/>
      </g>
     </g>
    </g>
    <g id="xtick_3">
     <g id="line2d_3">
      <g>
       <use style="stroke:#000000;stroke-width:0.8;" x="212.360519" xlink:href="#m81617cc10e" y="307.584"/>
      </g>
     </g>
     <g id="text_3">
      <!-- 200 -->
      <defs>
       <path d="M 19.1875 8.296875 
L 53.609375 8.296875 
L 53.609375 0 
L 7.328125 0 
L 7.328125 8.296875 
Q 12.9375 14.109375 22.625 23.890625 
Q 32.328125 33.6875 34.8125 36.53125 
Q 39.546875 41.84375 41.421875 45.53125 
Q 43.3125 49.21875 43.3125 52.78125 
Q 43.3125 58.59375 39.234375 62.25 
Q 35.15625 65.921875 28.609375 65.921875 
Q 23.96875 65.921875 18.8125 64.3125 
Q 13.671875 62.703125 7.8125 59.421875 
L 7.8125 69.390625 
Q 13.765625 71.78125 18.9375 73 
Q 24.125 74.21875 28.421875 74.21875 
Q 39.75 74.21875 46.484375 68.546875 
Q 53.21875 62.890625 53.21875 53.421875 
Q 53.21875 48.921875 51.53125 44.890625 
Q 49.859375 40.875 45.40625 35.40625 
Q 44.1875 33.984375 37.640625 27.21875 
Q 31.109375 20.453125 19.1875 8.296875 
z
" id="DejaVuSans-50"/>
      </defs>
      <g transform="translate(202.816769 322.182437)scale(0.1 -0.1)">
       <use xlink:href="#DejaVuSans-50"/>
       <use x="63.623047" xlink:href="#DejaVuSans-48"/>
       <use x="127.246094" xlink:href="#DejaVuSans-48"/>
      </g>
     </g>
    </g>
    <g id="xtick_4">
     <g id="line2d_4">
      <g>
       <use style="stroke:#000000;stroke-width:0.8;" x="266.650774" xlink:href="#m81617cc10e" y="307.584"/>
      </g>
     </g>
     <g id="text_4">
      <!-- 300 -->
      <defs>
       <path d="M 40.578125 39.3125 
Q 47.65625 37.796875 51.625 33 
Q 55.609375 28.21875 55.609375 21.1875 
Q 55.609375 10.40625 48.1875 4.484375 
Q 40.765625 -1.421875 27.09375 -1.421875 
Q 22.515625 -1.421875 17.65625 -0.515625 
Q 12.796875 0.390625 7.625 2.203125 
L 7.625 11.71875 
Q 11.71875 9.328125 16.59375 8.109375 
Q 21.484375 6.890625 26.8125 6.890625 
Q 36.078125 6.890625 40.9375 10.546875 
Q 45.796875 14.203125 45.796875 21.1875 
Q 45.796875 27.640625 41.28125 31.265625 
Q 36.765625 34.90625 28.71875 34.90625 
L 20.21875 34.90625 
L 20.21875 43.015625 
L 29.109375 43.015625 
Q 36.375 43.015625 40.234375 45.921875 
Q 44.09375 48.828125 44.09375 54.296875 
Q 44.09375 59.90625 40.109375 62.90625 
Q 36.140625 65.921875 28.71875 65.921875 
Q 24.65625 65.921875 20.015625 65.03125 
Q 15.375 64.15625 9.8125 62.3125 
L 9.8125 71.09375 
Q 15.4375 72.65625 20.34375 73.4375 
Q 25.25 74.21875 29.59375 74.21875 
Q 40.828125 74.21875 47.359375 69.109375 
Q 53.90625 64.015625 53.90625 55.328125 
Q 53.90625 49.265625 50.4375 45.09375 
Q 46.96875 40.921875 40.578125 39.3125 
z
" id="DejaVuSans-51"/>
      </defs>
      <g transform="translate(257.107024 322.182437)scale(0.1 -0.1)">
       <use xlink:href="#DejaVuSans-51"/>
       <use x="63.623047" xlink:href="#DejaVuSans-48"/>
       <use x="127.246094" xlink:href="#DejaVuSans-48"/>
      </g>
     </g>
    </g>
    <g id="xtick_5">
     <g id="line2d_5">
      <g>
       <use style="stroke:#000000;stroke-width:0.8;" x="320.941029" xlink:href="#m81617cc10e" y="307.584"/>
      </g>
     </g>
     <g id="text_5">
      <!-- 400 -->
      <defs>
       <path d="M 37.796875 64.3125 
L 12.890625 25.390625 
L 37.796875 25.390625 
z
M 35.203125 72.90625 
L 47.609375 72.90625 
L 47.609375 25.390625 
L 58.015625 25.390625 
L 58.015625 17.1875 
L 47.609375 17.1875 
L 47.609375 0 
L 37.796875 0 
L 37.796875 17.1875 
L 4.890625 17.1875 
L 4.890625 26.703125 
z
" id="DejaVuSans-52"/>
      </defs>
      <g transform="translate(311.397279 322.182437)scale(0.1 -0.1)">
       <use xlink:href="#DejaVuSans-52"/>
       <use x="63.623047" xlink:href="#DejaVuSans-48"/>
       <use x="127.246094" xlink:href="#DejaVuSans-48"/>
      </g>
     </g>
    </g>
    <g id="xtick_6">
     <g id="line2d_6">
      <g>
       <use style="stroke:#000000;stroke-width:0.8;" x="375.231284" xlink:href="#m81617cc10e" y="307.584"/>
      </g>
     </g>
     <g id="text_6">
      <!-- 500 -->
      <defs>
       <path d="M 10.796875 72.90625 
L 49.515625 72.90625 
L 49.515625 64.59375 
L 19.828125 64.59375 
L 19.828125 46.734375 
Q 21.96875 47.46875 24.109375 47.828125 
Q 26.265625 48.1875 28.421875 48.1875 
Q 40.625 48.1875 47.75 41.5 
Q 54.890625 34.8125 54.890625 23.390625 
Q 54.890625 11.625 47.5625 5.09375 
Q 40.234375 -1.421875 26.90625 -1.421875 
Q 22.3125 -1.421875 17.546875 -0.640625 
Q 12.796875 0.140625 7.71875 1.703125 
L 7.71875 11.625 
Q 12.109375 9.234375 16.796875 8.0625 
Q 21.484375 6.890625 26.703125 6.890625 
Q 35.15625 6.890625 40.078125 11.328125 
Q 45.015625 15.765625 45.015625 23.390625 
Q 45.015625 31 40.078125 35.4375 
Q 35.15625 39.890625 26.703125 39.890625 
Q 22.75 39.890625 18.8125 39.015625 
Q 14.890625 38.140625 10.796875 36.28125 
z
" id="DejaVuSans-53"/>
      </defs>
      <g transform="translate(365.687534 322.182437)scale(0.1 -0.1)">
       <use xlink:href="#DejaVuSans-53"/>
       <use x="63.623047" xlink:href="#DejaVuSans-48"/>
       <use x="127.246094" xlink:href="#DejaVuSans-48"/>
      </g>
     </g>
    </g>
    <g id="text_7">
     <!-- pltnadirac -->
     <defs>
      <path d="M 18.109375 8.203125 
L 18.109375 -20.796875 
L 9.078125 -20.796875 
L 9.078125 54.6875 
L 18.109375 54.6875 
L 18.109375 46.390625 
Q 20.953125 51.265625 25.265625 53.625 
Q 29.59375 56 35.59375 56 
Q 45.5625 56 51.78125 48.09375 
Q 58.015625 40.1875 58.015625 27.296875 
Q 58.015625 14.40625 51.78125 6.484375 
Q 45.5625 -1.421875 35.59375 -1.421875 
Q 29.59375 -1.421875 25.265625 0.953125 
Q 20.953125 3.328125 18.109375 8.203125 
z
M 48.6875 27.296875 
Q 48.6875 37.203125 44.609375 42.84375 
Q 40.53125 48.484375 33.40625 48.484375 
Q 26.265625 48.484375 22.1875 42.84375 
Q 18.109375 37.203125 18.109375 27.296875 
Q 18.109375 17.390625 22.1875 11.75 
Q 26.265625 6.109375 33.40625 6.109375 
Q 40.53125 6.109375 44.609375 11.75 
Q 48.6875 17.390625 48.6875 27.296875 
z
" id="DejaVuSans-112"/>
      <path d="M 9.421875 75.984375 
L 18.40625 75.984375 
L 18.40625 0 
L 9.421875 0 
z
" id="DejaVuSans-108"/>
      <path d="M 18.3125 70.21875 
L 18.3125 54.6875 
L 36.8125 54.6875 
L 36.8125 47.703125 
L 18.3125 47.703125 
L 18.3125 18.015625 
Q 18.3125 11.328125 20.140625 9.421875 
Q 21.96875 7.515625 27.59375 7.515625 
L 36.8125 7.515625 
L 36.8125 0 
L 27.59375 0 
Q 17.1875 0 13.234375 3.875 
Q 9.28125 7.765625 9.28125 18.015625 
L 9.28125 47.703125 
L 2.6875 47.703125 
L 2.6875 54.6875 
L 9.28125 54.6875 
L 9.28125 70.21875 
z
" id="DejaVuSans-116"/>
      <path d="M 54.890625 33.015625 
L 54.890625 0 
L 45.90625 0 
L 45.90625 32.71875 
Q 45.90625 40.484375 42.875 44.328125 
Q 39.84375 48.1875 33.796875 48.1875 
Q 26.515625 48.1875 22.3125 43.546875 
Q 18.109375 38.921875 18.109375 30.90625 
L 18.109375 0 
L 9.078125 0 
L 9.078125 54.6875 
L 18.109375 54.6875 
L 18.109375 46.1875 
Q 21.34375 51.125 25.703125 53.5625 
Q 30.078125 56 35.796875 56 
Q 45.21875 56 50.046875 50.171875 
Q 54.890625 44.34375 54.890625 33.015625 
z
" id="DejaVuSans-110"/>
      <path d="M 34.28125 27.484375 
Q 23.390625 27.484375 19.1875 25 
Q 14.984375 22.515625 14.984375 16.5 
Q 14.984375 11.71875 18.140625 8.90625 
Q 21.296875 6.109375 26.703125 6.109375 
Q 34.1875 6.109375 38.703125 11.40625 
Q 43.21875 16.703125 43.21875 25.484375 
L 43.21875 27.484375 
z
M 52.203125 31.203125 
L 52.203125 0 
L 43.21875 0 
L 43.21875 8.296875 
Q 40.140625 3.328125 35.546875 0.953125 
Q 30.953125 -1.421875 24.3125 -1.421875 
Q 15.921875 -1.421875 10.953125 3.296875 
Q 6 8.015625 6 15.921875 
Q 6 25.140625 12.171875 29.828125 
Q 18.359375 34.515625 30.609375 34.515625 
L 43.21875 34.515625 
L 43.21875 35.40625 
Q 43.21875 41.609375 39.140625 45 
Q 35.0625 48.390625 27.6875 48.390625 
Q 23 48.390625 18.546875 47.265625 
Q 14.109375 46.140625 10.015625 43.890625 
L 10.015625 52.203125 
Q 14.9375 54.109375 19.578125 55.046875 
Q 24.21875 56 28.609375 56 
Q 40.484375 56 46.34375 49.84375 
Q 52.203125 43.703125 52.203125 31.203125 
z
" id="DejaVuSans-97"/>
      <path d="M 45.40625 46.390625 
L 45.40625 75.984375 
L 54.390625 75.984375 
L 54.390625 0 
L 45.40625 0 
L 45.40625 8.203125 
Q 42.578125 3.328125 38.25 0.953125 
Q 33.9375 -1.421875 27.875 -1.421875 
Q 17.96875 -1.421875 11.734375 6.484375 
Q 5.515625 14.40625 5.515625 27.296875 
Q 5.515625 40.1875 11.734375 48.09375 
Q 17.96875 56 27.875 56 
Q 33.9375 56 38.25 53.625 
Q 42.578125 51.265625 45.40625 46.390625 
z
M 14.796875 27.296875 
Q 14.796875 17.390625 18.875 11.75 
Q 22.953125 6.109375 30.078125 6.109375 
Q 37.203125 6.109375 41.296875 11.75 
Q 45.40625 17.390625 45.40625 27.296875 
Q 45.40625 37.203125 41.296875 42.84375 
Q 37.203125 48.484375 30.078125 48.484375 
Q 22.953125 48.484375 18.875 42.84375 
Q 14.796875 37.203125 14.796875 27.296875 
z
" id="DejaVuSans-100"/>
      <path d="M 9.421875 54.6875 
L 18.40625 54.6875 
L 18.40625 0 
L 9.421875 0 
z
M 9.421875 75.984375 
L 18.40625 75.984375 
L 18.40625 64.59375 
L 9.421875 64.59375 
z
" id="DejaVuSans-105"/>
      <path d="M 41.109375 46.296875 
Q 39.59375 47.171875 37.8125 47.578125 
Q 36.03125 48 33.890625 48 
Q 26.265625 48 22.1875 43.046875 
Q 18.109375 38.09375 18.109375 28.8125 
L 18.109375 0 
L 9.078125 0 
L 9.078125 54.6875 
L 18.109375 54.6875 
L 18.109375 46.1875 
Q 20.953125 51.171875 25.484375 53.578125 
Q 30.03125 56 36.53125 56 
Q 37.453125 56 38.578125 55.875 
Q 39.703125 55.765625 41.0625 55.515625 
z
" id="DejaVuSans-114"/>
      <path d="M 48.78125 52.59375 
L 48.78125 44.1875 
Q 44.96875 46.296875 41.140625 47.34375 
Q 37.3125 48.390625 33.40625 48.390625 
Q 24.65625 48.390625 19.8125 42.84375 
Q 14.984375 37.3125 14.984375 27.296875 
Q 14.984375 17.28125 19.8125 11.734375 
Q 24.65625 6.203125 33.40625 6.203125 
Q 37.3125 6.203125 41.140625 7.25 
Q 44.96875 8.296875 48.78125 10.40625 
L 48.78125 2.09375 
Q 45.015625 0.34375 40.984375 -0.53125 
Q 36.96875 -1.421875 32.421875 -1.421875 
Q 20.0625 -1.421875 12.78125 6.34375 
Q 5.515625 14.109375 5.515625 27.296875 
Q 5.515625 40.671875 12.859375 48.328125 
Q 20.21875 56 33.015625 56 
Q 37.15625 56 41.109375 55.140625 
Q 45.0625 54.296875 48.78125 52.59375 
z
" id="DejaVuSans-99"/>
     </defs>
     <g transform="translate(210.971719 335.860562)scale(0.1 -0.1)">
      <use xlink:href="#DejaVuSans-112"/>
      <use x="63.476562" xlink:href="#DejaVuSans-108"/>
      <use x="91.259766" xlink:href="#DejaVuSans-116"/>
      <use x="130.46875" xlink:href="#DejaVuSans-110"/>
      <use x="193.847656" xlink:href="#DejaVuSans-97"/>
      <use x="255.126953" xlink:href="#DejaVuSans-100"/>
      <use x="318.603516" xlink:href="#DejaVuSans-105"/>
      <use x="346.386719" xlink:href="#DejaVuSans-114"/>
      <use x="387.5" xlink:href="#DejaVuSans-97"/>
      <use x="448.779297" xlink:href="#DejaVuSans-99"/>
     </g>
    </g>
   </g>
   <g id="matplotlib.axis_2">
    <g id="ytick_1">
     <g id="line2d_7">
      <defs>
       <path d="M 0 0 
L -3.5 0 
" id="m4b9e72ec5a" style="stroke:#000000;stroke-width:0.8;"/>
      </defs>
      <g>
       <use style="stroke:#000000;stroke-width:0.8;" x="57.6" xlink:href="#m4b9e72ec5a" y="174.528"/>
      </g>
     </g>
    </g>
   </g>
   <g id="line2d_8">
    <path clip-path="url(#p3d457d1da3)" d="M 105.95162 174.528 
L 274.25141 174.528 
" style="fill:none;stroke:#ffa500;stroke-linecap:square;stroke-width:1.5;"/>
   </g>
   <g id="line2d_9">
    <path clip-path="url(#p3d457d1da3)" d="M 162.956387 174.528 
L 208.560201 174.528 
" style="fill:none;stroke:#4c4c4c;stroke-linecap:square;stroke-width:4.5;"/>
   </g>
   <g id="line2d_10">
    <path clip-path="url(#p3d457d1da3)" d="M 104.322912 174.528 
L 283.480753 174.528 
" style="fill:none;stroke:#008000;stroke-linecap:square;stroke-width:1.5;"/>
   </g>
   <g id="line2d_11">
    <path clip-path="url(#p3d457d1da3)" d="M 170.9642 174.528 
L 219.553978 174.528 
" style="fill:none;stroke:#262626;stroke-linecap:square;stroke-width:4.5;"/>
   </g>
   <g id="patch_3">
    <path d="M 57.6 307.584 
L 57.6 41.472 
" style="fill:none;stroke:#000000;stroke-linecap:square;stroke-linejoin:miter;stroke-width:0.8;"/>
   </g>
   <g id="patch_4">
    <path d="M 414.72 307.584 
L 414.72 41.472 
" style="fill:none;stroke:#000000;stroke-linecap:square;stroke-linejoin:miter;stroke-width:0.8;"/>
   </g>
   <g id="patch_5">
    <path d="M 57.6 307.584 
L 414.72 307.584 
" style="fill:none;stroke:#000000;stroke-linecap:square;stroke-linejoin:miter;stroke-width:0.8;"/>
   </g>
   <g id="patch_6">
    <path d="M 57.6 41.472 
L 414.72 41.472 
" style="fill:none;stroke:#000000;stroke-linecap:square;stroke-linejoin:miter;stroke-width:0.8;"/>
   </g>
   <g id="PathCollection_1">
    <defs>
     <path d="M 0 1.5 
C 0.397805 1.5 0.77937 1.341951 1.06066 1.06066 
C 1.341951 0.77937 1.5 0.397805 1.5 0 
C 1.5 -0.397805 1.341951 -0.77937 1.06066 -1.06066 
C 0.77937 -1.341951 0.397805 -1.5 0 -1.5 
C -0.397805 -1.5 -0.77937 -1.341951 -1.06066 -1.06066 
C -1.341951 -0.77937 -1.5 -0.397805 -1.5 0 
C -1.5 0.397805 -1.341951 0.77937 -1.06066 1.06066 
C -0.77937 1.341951 -0.397805 1.5 0 1.5 
z
" id="m9b811edd1b" style="stroke:#4c4c4c;stroke-opacity:0.5;"/>
    </defs>
    <g clip-path="url(#p3d457d1da3)">
     <use style="fill:#ffffff;fill-opacity:0.5;stroke:#4c4c4c;stroke-opacity:0.5;" x="181.415074" xlink:href="#m9b811edd1b" y="174.528"/>
    </g>
   </g>
   <g id="PathCollection_2">
    <defs>
     <path d="M 0 1.5 
C 0.397805 1.5 0.77937 1.341951 1.06066 1.06066 
C 1.341951 0.77937 1.5 0.397805 1.5 0 
C 1.5 -0.397805 1.341951 -0.77937 1.06066 -1.06066 
C 0.77937 -1.341951 0.397805 -1.5 0 -1.5 
C -0.397805 -1.5 -0.77937 -1.341951 -1.06066 -1.06066 
C -1.341951 -0.77937 -1.5 -0.397805 -1.5 0 
C -1.5 0.397805 -1.341951 0.77937 -1.06066 1.06066 
C -0.77937 1.341951 -0.397805 1.5 0 1.5 
z
" id="ma8438403e3" style="stroke:#262626;stroke-opacity:0.5;"/>
    </defs>
    <g clip-path="url(#p3d457d1da3)">
     <use style="fill:#ffffff;fill-opacity:0.5;stroke:#262626;stroke-opacity:0.5;" x="195.259089" xlink:href="#ma8438403e3" y="174.528"/>
    </g>
   </g>
   <g id="text_8">
    <!-- Association of pltnadirac vs. ards -->
    <defs>
     <path d="M 34.1875 63.1875 
L 20.796875 26.90625 
L 47.609375 26.90625 
z
M 28.609375 72.90625 
L 39.796875 72.90625 
L 67.578125 0 
L 57.328125 0 
L 50.6875 18.703125 
L 17.828125 18.703125 
L 11.1875 0 
L 0.78125 0 
z
" id="DejaVuSans-65"/>
     <path d="M 44.28125 53.078125 
L 44.28125 44.578125 
Q 40.484375 46.53125 36.375 47.5 
Q 32.28125 48.484375 27.875 48.484375 
Q 21.1875 48.484375 17.84375 46.4375 
Q 14.5 44.390625 14.5 40.28125 
Q 14.5 37.15625 16.890625 35.375 
Q 19.28125 33.59375 26.515625 31.984375 
L 29.59375 31.296875 
Q 39.15625 29.25 43.1875 25.515625 
Q 47.21875 21.78125 47.21875 15.09375 
Q 47.21875 7.46875 41.1875 3.015625 
Q 35.15625 -1.421875 24.609375 -1.421875 
Q 20.21875 -1.421875 15.453125 -0.5625 
Q 10.6875 0.296875 5.421875 2 
L 5.421875 11.28125 
Q 10.40625 8.6875 15.234375 7.390625 
Q 20.0625 6.109375 24.8125 6.109375 
Q 31.15625 6.109375 34.5625 8.28125 
Q 37.984375 10.453125 37.984375 14.40625 
Q 37.984375 18.0625 35.515625 20.015625 
Q 33.0625 21.96875 24.703125 23.78125 
L 21.578125 24.515625 
Q 13.234375 26.265625 9.515625 29.90625 
Q 5.8125 33.546875 5.8125 39.890625 
Q 5.8125 47.609375 11.28125 51.796875 
Q 16.75 56 26.8125 56 
Q 31.78125 56 36.171875 55.265625 
Q 40.578125 54.546875 44.28125 53.078125 
z
" id="DejaVuSans-115"/>
     <path d="M 30.609375 48.390625 
Q 23.390625 48.390625 19.1875 42.75 
Q 14.984375 37.109375 14.984375 27.296875 
Q 14.984375 17.484375 19.15625 11.84375 
Q 23.34375 6.203125 30.609375 6.203125 
Q 37.796875 6.203125 41.984375 11.859375 
Q 46.1875 17.53125 46.1875 27.296875 
Q 46.1875 37.015625 41.984375 42.703125 
Q 37.796875 48.390625 30.609375 48.390625 
z
M 30.609375 56 
Q 42.328125 56 49.015625 48.375 
Q 55.71875 40.765625 55.71875 27.296875 
Q 55.71875 13.875 49.015625 6.21875 
Q 42.328125 -1.421875 30.609375 -1.421875 
Q 18.84375 -1.421875 12.171875 6.21875 
Q 5.515625 13.875 5.515625 27.296875 
Q 5.515625 40.765625 12.171875 48.375 
Q 18.84375 56 30.609375 56 
z
" id="DejaVuSans-111"/>
     <path id="DejaVuSans-32"/>
     <path d="M 37.109375 75.984375 
L 37.109375 68.5 
L 28.515625 68.5 
Q 23.6875 68.5 21.796875 66.546875 
Q 19.921875 64.59375 19.921875 59.515625 
L 19.921875 54.6875 
L 34.71875 54.6875 
L 34.71875 47.703125 
L 19.921875 47.703125 
L 19.921875 0 
L 10.890625 0 
L 10.890625 47.703125 
L 2.296875 47.703125 
L 2.296875 54.6875 
L 10.890625 54.6875 
L 10.890625 58.5 
Q 10.890625 67.625 15.140625 71.796875 
Q 19.390625 75.984375 28.609375 75.984375 
z
" id="DejaVuSans-102"/>
     <path d="M 2.984375 54.6875 
L 12.5 54.6875 
L 29.59375 8.796875 
L 46.6875 54.6875 
L 56.203125 54.6875 
L 35.6875 0 
L 23.484375 0 
z
" id="DejaVuSans-118"/>
     <path d="M 10.6875 12.40625 
L 21 12.40625 
L 21 0 
L 10.6875 0 
z
" id="DejaVuSans-46"/>
    </defs>
    <g transform="translate(136.80375 35.472)scale(0.12 -0.12)">
     <use xlink:href="#DejaVuSans-65"/>
     <use x="68.408203" xlink:href="#DejaVuSans-115"/>
     <use x="120.507812" xlink:href="#DejaVuSans-115"/>
     <use x="172.607422" xlink:href="#DejaVuSans-111"/>
     <use x="233.789062" xlink:href="#DejaVuSans-99"/>
     <use x="288.769531" xlink:href="#DejaVuSans-105"/>
     <use x="316.552734" xlink:href="#DejaVuSans-97"/>
     <use x="377.832031" xlink:href="#DejaVuSans-116"/>
     <use x="417.041016" xlink:href="#DejaVuSans-105"/>
     <use x="444.824219" xlink:href="#DejaVuSans-111"/>
     <use x="506.005859" xlink:href="#DejaVuSans-110"/>
     <use x="569.384766" xlink:href="#DejaVuSans-32"/>
     <use x="601.171875" xlink:href="#DejaVuSans-111"/>
     <use x="662.353516" xlink:href="#DejaVuSans-102"/>
     <use x="697.558594" xlink:href="#DejaVuSans-32"/>
     <use x="729.345703" xlink:href="#DejaVuSans-112"/>
     <use x="792.822266" xlink:href="#DejaVuSans-108"/>
     <use x="820.605469" xlink:href="#DejaVuSans-116"/>
     <use x="859.814453" xlink:href="#DejaVuSans-110"/>
     <use x="923.193359" xlink:href="#DejaVuSans-97"/>
     <use x="984.472656" xlink:href="#DejaVuSans-100"/>
     <use x="1047.949219" xlink:href="#DejaVuSans-105"/>
     <use x="1075.732422" xlink:href="#DejaVuSans-114"/>
     <use x="1116.845703" xlink:href="#DejaVuSans-97"/>
     <use x="1178.125" xlink:href="#DejaVuSans-99"/>
     <use x="1233.105469" xlink:href="#DejaVuSans-32"/>
     <use x="1264.892578" xlink:href="#DejaVuSans-118"/>
     <use x="1324.072266" xlink:href="#DejaVuSans-115"/>
     <use x="1376.171875" xlink:href="#DejaVuSans-46"/>
     <use x="1407.958984" xlink:href="#DejaVuSans-32"/>
     <use x="1439.746094" xlink:href="#DejaVuSans-97"/>
     <use x="1501.025391" xlink:href="#DejaVuSans-114"/>
     <use x="1540.388672" xlink:href="#DejaVuSans-100"/>
     <use x="1603.865234" xlink:href="#DejaVuSans-115"/>
    </g>
   </g>
   <g id="legend_1">
    <g id="patch_7">
     <path d="M 303.330938 78.82825 
L 407.72 78.82825 
Q 409.72 78.82825 409.72 76.82825 
L 409.72 48.472 
Q 409.72 46.472 407.72 46.472 
L 303.330938 46.472 
Q 301.330938 46.472 301.330938 48.472 
L 301.330938 76.82825 
Q 301.330938 78.82825 303.330938 78.82825 
z
" style="fill:#ffffff;opacity:0.8;stroke:#cccccc;stroke-linejoin:miter;"/>
    </g>
    <g id="line2d_12">
     <path d="M 305.330938 54.570437 
L 325.330938 54.570437 
" style="fill:none;stroke:#ffa500;stroke-linecap:square;stroke-width:1.5;"/>
    </g>
    <g id="line2d_13"/>
    <g id="text_9">
     <!-- ards (125) -->
     <defs>
      <path d="M 31 75.875 
Q 24.46875 64.65625 21.28125 53.65625 
Q 18.109375 42.671875 18.109375 31.390625 
Q 18.109375 20.125 21.3125 9.0625 
Q 24.515625 -2 31 -13.1875 
L 23.1875 -13.1875 
Q 15.875 -1.703125 12.234375 9.375 
Q 8.59375 20.453125 8.59375 31.390625 
Q 8.59375 42.28125 12.203125 53.3125 
Q 15.828125 64.359375 23.1875 75.875 
z
" id="DejaVuSans-40"/>
      <path d="M 8.015625 75.875 
L 15.828125 75.875 
Q 23.140625 64.359375 26.78125 53.3125 
Q 30.421875 42.28125 30.421875 31.390625 
Q 30.421875 20.453125 26.78125 9.375 
Q 23.140625 -1.703125 15.828125 -13.1875 
L 8.015625 -13.1875 
Q 14.5 -2 17.703125 9.0625 
Q 20.90625 20.125 20.90625 31.390625 
Q 20.90625 42.671875 17.703125 53.65625 
Q 14.5 64.65625 8.015625 75.875 
z
" id="DejaVuSans-41"/>
     </defs>
     <g transform="translate(333.330938 58.070437)scale(0.1 -0.1)">
      <use xlink:href="#DejaVuSans-97"/>
      <use x="61.279297" xlink:href="#DejaVuSans-114"/>
      <use x="100.642578" xlink:href="#DejaVuSans-100"/>
      <use x="164.119141" xlink:href="#DejaVuSans-115"/>
      <use x="216.21875" xlink:href="#DejaVuSans-32"/>
      <use x="248.005859" xlink:href="#DejaVuSans-40"/>
      <use x="287.019531" xlink:href="#DejaVuSans-49"/>
      <use x="350.642578" xlink:href="#DejaVuSans-50"/>
      <use x="414.265625" xlink:href="#DejaVuSans-53"/>
      <use x="477.888672" xlink:href="#DejaVuSans-41"/>
     </g>
    </g>
    <g id="line2d_14">
     <path d="M 305.330938 69.248562 
L 325.330938 69.248562 
" style="fill:none;stroke:#008000;stroke-linecap:square;stroke-width:1.5;"/>
    </g>
    <g id="line2d_15"/>
    <g id="text_10">
     <!-- Not ards (352) -->
     <defs>
      <path d="M 9.8125 72.90625 
L 23.09375 72.90625 
L 55.421875 11.921875 
L 55.421875 72.90625 
L 64.984375 72.90625 
L 64.984375 0 
L 51.703125 0 
L 19.390625 60.984375 
L 19.390625 0 
L 9.8125 0 
z
" id="DejaVuSans-78"/>
     </defs>
     <g transform="translate(333.330938 72.748562)scale(0.1 -0.1)">
      <use xlink:href="#DejaVuSans-78"/>
      <use x="74.804688" xlink:href="#DejaVuSans-111"/>
      <use x="135.986328" xlink:href="#DejaVuSans-116"/>
      <use x="175.195312" xlink:href="#DejaVuSans-32"/>
      <use x="206.982422" xlink:href="#DejaVuSans-97"/>
      <use x="268.261719" xlink:href="#DejaVuSans-114"/>
      <use x="307.625" xlink:href="#DejaVuSans-100"/>
      <use x="371.101562" xlink:href="#DejaVuSans-115"/>
      <use x="423.201172" xlink:href="#DejaVuSans-32"/>
      <use x="454.988281" xlink:href="#DejaVuSans-40"/>
      <use x="494.001953" xlink:href="#DejaVuSans-51"/>
      <use x="557.625" xlink:href="#DejaVuSans-53"/>
      <use x="621.248047" xlink:href="#DejaVuSans-50"/>
      <use x="684.871094" xlink:href="#DejaVuSans-41"/>
     </g>
    </g>
   </g>
  </g>
 </g>
 <defs>
  <clipPath id="p3d457d1da3">
   <rect height="266.112" width="357.12" x="57.6" y="41.472"/>
  </clipPath>
 </defs>
</svg>
