<?xml version="1.0" encoding="utf-8" standalone="no"?>
<!DOCTYPE svg PUBLIC "-//W3C//DTD SVG 1.1//EN"
  "http://www.w3.org/Graphics/SVG/1.1/DTD/svg11.dtd">
<!-- Created with matplotlib (https://matplotlib.org/) -->
<svg height="345.6pt" version="1.1" viewBox="0 0 460.8 345.6" width="460.8pt" xmlns="http://www.w3.org/2000/svg" xmlns:xlink="http://www.w3.org/1999/xlink">
 <defs>
  <style type="text/css">
*{stroke-linecap:butt;stroke-linejoin:round;}
  </style>
 </defs>
 <g id="figure_1">
  <g id="patch_1">
   <path d="M 0 345.6 
L 460.8 345.6 
L 460.8 0 
L 0 0 
z
" style="fill:#ffffff;"/>
  </g>
  <g id="axes_1">
   <g id="patch_2">
    <path d="M 57.6 307.584 
L 414.72 307.584 
L 414.72 41.472 
L 57.6 41.472 
z
" style="fill:#ffffff;"/>
   </g>
   <g id="PolyCollection_1">
    <defs>
     <path d="M 73.832727 -170.530507 
L 73.832727 -171.613493 
L 76.935639 -171.919226 
L 80.038551 -172.358394 
L 83.141463 -172.969875 
L 86.244375 -173.796207 
L 89.347287 -174.881275 
L 92.450199 -176.267154 
L 95.553111 -177.990194 
L 98.656023 -180.076597 
L 101.758935 -182.538012 
L 104.861847 -185.36795 
L 107.964759 -188.54007 
L 111.067671 -192.00929 
L 114.170583 -195.716198 
L 117.273495 -199.594394 
L 120.376406 -203.579429 
L 123.479318 -207.617423 
L 126.58223 -211.671514 
L 129.685142 -215.725221 
L 132.788054 -219.783017 
L 135.890966 -223.869371 
L 138.993878 -228.027456 
L 142.09679 -232.317576 
L 145.199702 -236.813616 
L 148.302614 -241.594651 
L 151.405526 -246.729302 
L 154.508438 -252.252828 
L 157.61135 -258.140734 
L 160.714262 -264.286141 
L 163.817174 -270.489555 
L 166.920086 -276.467834 
L 170.022998 -281.8843 
L 173.12591 -286.395528 
L 176.228822 -289.704811 
L 179.331733 -291.609664 
L 182.434645 -292.032 
L 185.537557 -291.024352 
L 188.640469 -288.751992 
L 191.743381 -285.456801 
L 194.846293 -281.412442 
L 197.949205 -276.881067 
L 201.052117 -272.079646 
L 204.155029 -267.160362 
L 207.257941 -262.205708 
L 210.360853 -257.236047 
L 213.463765 -252.225971 
L 216.566677 -247.12553 
L 219.669589 -241.882838 
L 222.772501 -236.465124 
L 225.875413 -230.875644 
L 228.978325 -225.164186 
L 232.081237 -219.42932 
L 235.184149 -213.811464 
L 238.287061 -208.477227 
L 241.389972 -203.597167 
L 244.492884 -199.320635 
L 247.595796 -195.752289 
L 250.698708 -192.934829 
L 253.80162 -190.841462 
L 256.904532 -189.379738 
L 260.007444 -188.406095 
L 263.110356 -187.74829 
L 266.213268 -187.231295 
L 269.31618 -186.701688 
L 272.419092 -186.046155 
L 275.522004 -185.201252 
L 278.624916 -184.153739 
L 281.727828 -182.932866 
L 284.83074 -181.597485 
L 287.933652 -180.221405 
L 291.036564 -178.879969 
L 294.139476 -177.639802 
L 297.242388 -176.552359 
L 300.345299 -175.650951 
L 303.448211 -174.950386 
L 306.551123 -174.44837 
L 309.654035 -174.128078 
L 312.756947 -173.961614 
L 315.859859 -173.914157 
L 318.962771 -173.9485 
L 322.065683 -174.029406 
L 325.168595 -174.127061 
L 328.271507 -174.218989 
L 331.374419 -174.290112 
L 334.477331 -174.331235 
L 337.580243 -174.336685 
L 340.683155 -174.302111 
L 343.786067 -174.223291 
L 346.888979 -174.096329 
L 349.991891 -173.919029 
L 353.094803 -173.692712 
L 356.197715 -173.423606 
L 359.300626 -173.123098 
L 362.403538 -172.806623 
L 365.50645 -172.491457 
L 368.609362 -172.194054 
L 371.712274 -171.927682 
L 374.815186 -171.7009 
L 377.918098 -171.517132 
L 381.02101 -171.375239 
L 381.02101 -170.768761 
L 381.02101 -170.768761 
L 377.918098 -170.626868 
L 374.815186 -170.4431 
L 371.712274 -170.216318 
L 368.609362 -169.949946 
L 365.50645 -169.652543 
L 362.403538 -169.337377 
L 359.300626 -169.020902 
L 356.197715 -168.720394 
L 353.094803 -168.451288 
L 349.991891 -168.224971 
L 346.888979 -168.047671 
L 343.786067 -167.920709 
L 340.683155 -167.841889 
L 337.580243 -167.807315 
L 334.477331 -167.812765 
L 331.374419 -167.853888 
L 328.271507 -167.925011 
L 325.168595 -168.016939 
L 322.065683 -168.114594 
L 318.962771 -168.1955 
L 315.859859 -168.229843 
L 312.756947 -168.182386 
L 309.654035 -168.015922 
L 306.551123 -167.69563 
L 303.448211 -167.193614 
L 300.345299 -166.493049 
L 297.242388 -165.591641 
L 294.139476 -164.504198 
L 291.036564 -163.264031 
L 287.933652 -161.922595 
L 284.83074 -160.546515 
L 281.727828 -159.211134 
L 278.624916 -157.990261 
L 275.522004 -156.942748 
L 272.419092 -156.097845 
L 269.31618 -155.442312 
L 266.213268 -154.912705 
L 263.110356 -154.39571 
L 260.007444 -153.737905 
L 256.904532 -152.764262 
L 253.80162 -151.302538 
L 250.698708 -149.209171 
L 247.595796 -146.391711 
L 244.492884 -142.823365 
L 241.389972 -138.546833 
L 238.287061 -133.666773 
L 235.184149 -128.332536 
L 232.081237 -122.71468 
L 228.978325 -116.979814 
L 225.875413 -111.268356 
L 222.772501 -105.678876 
L 219.669589 -100.261162 
L 216.566677 -95.01847 
L 213.463765 -89.918029 
L 210.360853 -84.907953 
L 207.257941 -79.938292 
L 204.155029 -74.983638 
L 201.052117 -70.064354 
L 197.949205 -65.262933 
L 194.846293 -60.731558 
L 191.743381 -56.687199 
L 188.640469 -53.392008 
L 185.537557 -51.119648 
L 182.434645 -50.112 
L 179.331733 -50.534336 
L 176.228822 -52.439189 
L 173.12591 -55.748472 
L 170.022998 -60.2597 
L 166.920086 -65.676166 
L 163.817174 -71.654445 
L 160.714262 -77.857859 
L 157.61135 -84.003266 
L 154.508438 -89.891172 
L 151.405526 -95.414698 
L 148.302614 -100.549349 
L 145.199702 -105.330384 
L 142.09679 -109.826424 
L 138.993878 -114.116544 
L 135.890966 -118.274629 
L 132.788054 -122.360983 
L 129.685142 -126.418779 
L 126.58223 -130.472486 
L 123.479318 -134.526577 
L 120.376406 -138.564571 
L 117.273495 -142.549606 
L 114.170583 -146.427802 
L 111.067671 -150.13471 
L 107.964759 -153.60393 
L 104.861847 -156.77605 
L 101.758935 -159.605988 
L 98.656023 -162.067403 
L 95.553111 -164.153806 
L 92.450199 -165.876846 
L 89.347287 -167.262725 
L 86.244375 -168.347793 
L 83.141463 -169.174125 
L 80.038551 -169.785606 
L 76.935639 -170.224774 
L 73.832727 -170.530507 
z
" id="meb7ea2d595" style="stroke:#4c4c4c;stroke-opacity:0.5;stroke-width:1.5;"/>
    </defs>
    <g clip-path="url(#p7f62962c34)">
     <use style="fill:#df9c20;fill-opacity:0.5;stroke:#4c4c4c;stroke-opacity:0.5;stroke-width:1.5;" x="0" xlink:href="#meb7ea2d595" y="345.6"/>
    </g>
   </g>
   <g id="PolyCollection_2">
    <defs>
     <path d="M 77.103648 -170.554373 
L 77.103648 -171.589627 
L 80.349947 -171.975603 
L 83.596246 -172.561086 
L 86.842545 -173.392308 
L 90.088845 -174.497375 
L 93.335144 -175.874414 
L 96.581443 -177.485773 
L 99.827742 -179.262787 
L 103.074041 -181.122438 
L 106.320341 -182.992584 
L 109.56664 -184.838291 
L 112.812939 -186.68025 
L 116.059238 -188.598352 
L 119.305538 -190.718489 
L 122.551837 -193.186552 
L 125.798136 -196.137793 
L 129.044435 -199.670711 
L 132.290735 -203.832069 
L 135.537034 -208.614737 
L 138.783333 -213.96512 
L 142.029632 -219.794008 
L 145.275932 -225.985496 
L 148.522231 -232.402613 
L 151.76853 -238.893242 
L 155.014829 -245.302121 
L 158.261129 -251.49159 
L 161.507428 -257.366078 
L 164.753727 -262.887843 
L 168.000026 -268.07065 
L 171.246326 -272.947236 
L 174.492625 -277.521877 
L 177.738924 -281.73151 
L 180.985223 -285.43815 
L 184.231523 -288.459803 
L 187.477822 -290.625396 
L 190.724121 -291.825252 
L 193.97042 -292.032 
L 197.21672 -291.285373 
L 200.463019 -289.655546 
L 203.709318 -287.2094 
L 206.955617 -283.997091 
L 210.201917 -280.059288 
L 213.448216 -275.441638 
L 216.694515 -270.201833 
L 219.940814 -264.40515 
L 223.187114 -258.116978 
L 226.433413 -251.405235 
L 229.679712 -244.358417 
L 232.926011 -237.111805 
L 236.172311 -229.864741 
L 239.41861 -222.872964 
L 242.664909 -216.411379 
L 245.911208 -210.717708 
L 249.157507 -205.937563 
L 252.403807 -202.091627 
L 255.650106 -199.076542 
L 258.896405 -196.698007 
L 262.142704 -194.723809 
L 265.389004 -192.939796 
L 268.635303 -191.1934 
L 271.881602 -189.415143 
L 275.127901 -187.615844 
L 278.374201 -185.863805 
L 281.6205 -184.250966 
L 284.866799 -182.858831 
L 288.113098 -181.733643 
L 291.359398 -180.876106 
L 294.605697 -180.245474 
L 297.851996 -179.773206 
L 301.098295 -179.37964 
L 304.344595 -178.988474 
L 307.590894 -178.537057 
L 310.837193 -177.983102 
L 314.083492 -177.309053 
L 317.329792 -176.524091 
L 320.576091 -175.66241 
L 323.82239 -174.776482 
L 327.068689 -173.925873 
L 330.314989 -173.164511 
L 333.561288 -172.530418 
L 336.807587 -172.041026 
L 340.053886 -171.694768 
L 343.300186 -171.477144 
L 346.546485 -171.368076 
L 349.792784 -171.347545 
L 353.039083 -171.39785 
L 356.285383 -171.502576 
L 359.531682 -171.643808 
L 362.777981 -171.799845 
L 366.02428 -171.945308 
L 369.27058 -172.05439 
L 372.516879 -172.106293 
L 375.763178 -172.090616 
L 379.009477 -172.010232 
L 382.255777 -171.880202 
L 385.502076 -171.723076 
L 388.748375 -171.562505 
L 391.994674 -171.417584 
L 395.240973 -171.2997 
L 398.487273 -171.212304 
L 398.487273 -170.931696 
L 398.487273 -170.931696 
L 395.240973 -170.8443 
L 391.994674 -170.726416 
L 388.748375 -170.581495 
L 385.502076 -170.420924 
L 382.255777 -170.263798 
L 379.009477 -170.133768 
L 375.763178 -170.053384 
L 372.516879 -170.037707 
L 369.27058 -170.08961 
L 366.02428 -170.198692 
L 362.777981 -170.344155 
L 359.531682 -170.500192 
L 356.285383 -170.641424 
L 353.039083 -170.74615 
L 349.792784 -170.796455 
L 346.546485 -170.775924 
L 343.300186 -170.666856 
L 340.053886 -170.449232 
L 336.807587 -170.102974 
L 333.561288 -169.613582 
L 330.314989 -168.979489 
L 327.068689 -168.218127 
L 323.82239 -167.367518 
L 320.576091 -166.48159 
L 317.329792 -165.619909 
L 314.083492 -164.834947 
L 310.837193 -164.160898 
L 307.590894 -163.606943 
L 304.344595 -163.155526 
L 301.098295 -162.76436 
L 297.851996 -162.370794 
L 294.605697 -161.898526 
L 291.359398 -161.267894 
L 288.113098 -160.410357 
L 284.866799 -159.285169 
L 281.6205 -157.893034 
L 278.374201 -156.280195 
L 275.127901 -154.528156 
L 271.881602 -152.728857 
L 268.635303 -150.9506 
L 265.389004 -149.204204 
L 262.142704 -147.420191 
L 258.896405 -145.445993 
L 255.650106 -143.067458 
L 252.403807 -140.052373 
L 249.157507 -136.206437 
L 245.911208 -131.426292 
L 242.664909 -125.732621 
L 239.41861 -119.271036 
L 236.172311 -112.279259 
L 232.926011 -105.032195 
L 229.679712 -97.785583 
L 226.433413 -90.738765 
L 223.187114 -84.027022 
L 219.940814 -77.73885 
L 216.694515 -71.942167 
L 213.448216 -66.702362 
L 210.201917 -62.084712 
L 206.955617 -58.146909 
L 203.709318 -54.9346 
L 200.463019 -52.488454 
L 197.21672 -50.858627 
L 193.97042 -50.112 
L 190.724121 -50.318748 
L 187.477822 -51.518604 
L 184.231523 -53.684197 
L 180.985223 -56.70585 
L 177.738924 -60.41249 
L 174.492625 -64.622123 
L 171.246326 -69.196764 
L 168.000026 -74.07335 
L 164.753727 -79.256157 
L 161.507428 -84.777922 
L 158.261129 -90.65241 
L 155.014829 -96.841879 
L 151.76853 -103.250758 
L 148.522231 -109.741387 
L 145.275932 -116.158504 
L 142.029632 -122.349992 
L 138.783333 -128.17888 
L 135.537034 -133.529263 
L 132.290735 -138.311931 
L 129.044435 -142.473289 
L 125.798136 -146.006207 
L 122.551837 -148.957448 
L 119.305538 -151.425511 
L 116.059238 -153.545648 
L 112.812939 -155.46375 
L 109.56664 -157.305709 
L 106.320341 -159.151416 
L 103.074041 -161.021562 
L 99.827742 -162.881213 
L 96.581443 -164.658227 
L 93.335144 -166.269586 
L 90.088845 -167.646625 
L 86.842545 -168.751692 
L 83.596246 -169.582914 
L 80.349947 -170.168397 
L 77.103648 -170.554373 
z
" id="m0d3792e65b" style="stroke:#262626;stroke-opacity:0.5;stroke-width:1.5;"/>
    </defs>
    <g clip-path="url(#p7f62962c34)">
     <use style="fill:#107010;fill-opacity:0.5;stroke:#262626;stroke-opacity:0.5;stroke-width:1.5;" x="0" xlink:href="#m0d3792e65b" y="345.6"/>
    </g>
   </g>
   <g id="matplotlib.axis_1">
    <g id="xtick_1">
     <g id="line2d_1">
      <defs>
       <path d="M 0 0 
L 0 3.5 
" id="m78b0c0a1d5" style="stroke:#000000;stroke-width:0.8;"/>
      </defs>
      <g>
       <use style="stroke:#000000;stroke-width:0.8;" x="101.639483" xlink:href="#m78b0c0a1d5" y="307.584"/>
      </g>
     </g>
     <g id="text_1">
      <!-- 0 -->
      <defs>
       <path d="M 31.78125 66.40625 
Q 24.171875 66.40625 20.328125 58.90625 
Q 16.5 51.421875 16.5 36.375 
Q 16.5 21.390625 20.328125 13.890625 
Q 24.171875 6.390625 31.78125 6.390625 
Q 39.453125 6.390625 43.28125 13.890625 
Q 47.125 21.390625 47.125 36.375 
Q 47.125 51.421875 43.28125 58.90625 
Q 39.453125 66.40625 31.78125 66.40625 
z
M 31.78125 74.21875 
Q 44.046875 74.21875 50.515625 64.515625 
Q 56.984375 54.828125 56.984375 36.375 
Q 56.984375 17.96875 50.515625 8.265625 
Q 44.046875 -1.421875 31.78125 -1.421875 
Q 19.53125 -1.421875 13.0625 8.265625 
Q 6.59375 17.96875 6.59375 36.375 
Q 6.59375 54.828125 13.0625 64.515625 
Q 19.53125 74.21875 31.78125 74.21875 
z
" id="DejaVuSans-48"/>
      </defs>
      <g transform="translate(98.458233 322.182437)scale(0.1 -0.1)">
       <use xlink:href="#DejaVuSans-48"/>
      </g>
     </g>
    </g>
    <g id="xtick_2">
     <g id="line2d_2">
      <g>
       <use style="stroke:#000000;stroke-width:0.8;" x="156.211017" xlink:href="#m78b0c0a1d5" y="307.584"/>
      </g>
     </g>
     <g id="text_2">
      <!-- 100 -->
      <defs>
       <path d="M 12.40625 8.296875 
L 28.515625 8.296875 
L 28.515625 63.921875 
L 10.984375 60.40625 
L 10.984375 69.390625 
L 28.421875 72.90625 
L 38.28125 72.90625 
L 38.28125 8.296875 
L 54.390625 8.296875 
L 54.390625 0 
L 12.40625 0 
z
" id="DejaVuSans-49"/>
      </defs>
      <g transform="translate(146.667267 322.182437)scale(0.1 -0.1)">
       <use xlink:href="#DejaVuSans-49"/>
       <use x="63.623047" xlink:href="#DejaVuSans-48"/>
       <use x="127.246094" xlink:href="#DejaVuSans-48"/>
      </g>
     </g>
    </g>
    <g id="xtick_3">
     <g id="line2d_3">
      <g>
       <use style="stroke:#000000;stroke-width:0.8;" x="210.782551" xlink:href="#m78b0c0a1d5" y="307.584"/>
      </g>
     </g>
     <g id="text_3">
      <!-- 200 -->
      <defs>
       <path d="M 19.1875 8.296875 
L 53.609375 8.296875 
L 53.609375 0 
L 7.328125 0 
L 7.328125 8.296875 
Q 12.9375 14.109375 22.625 23.890625 
Q 32.328125 33.6875 34.8125 36.53125 
Q 39.546875 41.84375 41.421875 45.53125 
Q 43.3125 49.21875 43.3125 52.78125 
Q 43.3125 58.59375 39.234375 62.25 
Q 35.15625 65.921875 28.609375 65.921875 
Q 23.96875 65.921875 18.8125 64.3125 
Q 13.671875 62.703125 7.8125 59.421875 
L 7.8125 69.390625 
Q 13.765625 71.78125 18.9375 73 
Q 24.125 74.21875 28.421875 74.21875 
Q 39.75 74.21875 46.484375 68.546875 
Q 53.21875 62.890625 53.21875 53.421875 
Q 53.21875 48.921875 51.53125 44.890625 
Q 49.859375 40.875 45.40625 35.40625 
Q 44.1875 33.984375 37.640625 27.21875 
Q 31.109375 20.453125 19.1875 8.296875 
z
" id="DejaVuSans-50"/>
      </defs>
      <g transform="translate(201.238801 322.182437)scale(0.1 -0.1)">
       <use xlink:href="#DejaVuSans-50"/>
       <use x="63.623047" xlink:href="#DejaVuSans-48"/>
       <use x="127.246094" xlink:href="#DejaVuSans-48"/>
      </g>
     </g>
    </g>
    <g id="xtick_4">
     <g id="line2d_4">
      <g>
       <use style="stroke:#000000;stroke-width:0.8;" x="265.354085" xlink:href="#m78b0c0a1d5" y="307.584"/>
      </g>
     </g>
     <g id="text_4">
      <!-- 300 -->
      <defs>
       <path d="M 40.578125 39.3125 
Q 47.65625 37.796875 51.625 33 
Q 55.609375 28.21875 55.609375 21.1875 
Q 55.609375 10.40625 48.1875 4.484375 
Q 40.765625 -1.421875 27.09375 -1.421875 
Q 22.515625 -1.421875 17.65625 -0.515625 
Q 12.796875 0.390625 7.625 2.203125 
L 7.625 11.71875 
Q 11.71875 9.328125 16.59375 8.109375 
Q 21.484375 6.890625 26.8125 6.890625 
Q 36.078125 6.890625 40.9375 10.546875 
Q 45.796875 14.203125 45.796875 21.1875 
Q 45.796875 27.640625 41.28125 31.265625 
Q 36.765625 34.90625 28.71875 34.90625 
L 20.21875 34.90625 
L 20.21875 43.015625 
L 29.109375 43.015625 
Q 36.375 43.015625 40.234375 45.921875 
Q 44.09375 48.828125 44.09375 54.296875 
Q 44.09375 59.90625 40.109375 62.90625 
Q 36.140625 65.921875 28.71875 65.921875 
Q 24.65625 65.921875 20.015625 65.03125 
Q 15.375 64.15625 9.8125 62.3125 
L 9.8125 71.09375 
Q 15.4375 72.65625 20.34375 73.4375 
Q 25.25 74.21875 29.59375 74.21875 
Q 40.828125 74.21875 47.359375 69.109375 
Q 53.90625 64.015625 53.90625 55.328125 
Q 53.90625 49.265625 50.4375 45.09375 
Q 46.96875 40.921875 40.578125 39.3125 
z
" id="DejaVuSans-51"/>
      </defs>
      <g transform="translate(255.810335 322.182437)scale(0.1 -0.1)">
       <use xlink:href="#DejaVuSans-51"/>
       <use x="63.623047" xlink:href="#DejaVuSans-48"/>
       <use x="127.246094" xlink:href="#DejaVuSans-48"/>
      </g>
     </g>
    </g>
    <g id="xtick_5">
     <g id="line2d_5">
      <g>
       <use style="stroke:#000000;stroke-width:0.8;" x="319.925619" xlink:href="#m78b0c0a1d5" y="307.584"/>
      </g>
     </g>
     <g id="text_5">
      <!-- 400 -->
      <defs>
       <path d="M 37.796875 64.3125 
L 12.890625 25.390625 
L 37.796875 25.390625 
z
M 35.203125 72.90625 
L 47.609375 72.90625 
L 47.609375 25.390625 
L 58.015625 25.390625 
L 58.015625 17.1875 
L 47.609375 17.1875 
L 47.609375 0 
L 37.796875 0 
L 37.796875 17.1875 
L 4.890625 17.1875 
L 4.890625 26.703125 
z
" id="DejaVuSans-52"/>
      </defs>
      <g transform="translate(310.381869 322.182437)scale(0.1 -0.1)">
       <use xlink:href="#DejaVuSans-52"/>
       <use x="63.623047" xlink:href="#DejaVuSans-48"/>
       <use x="127.246094" xlink:href="#DejaVuSans-48"/>
      </g>
     </g>
    </g>
    <g id="xtick_6">
     <g id="line2d_6">
      <g>
       <use style="stroke:#000000;stroke-width:0.8;" x="374.497153" xlink:href="#m78b0c0a1d5" y="307.584"/>
      </g>
     </g>
     <g id="text_6">
      <!-- 500 -->
      <defs>
       <path d="M 10.796875 72.90625 
L 49.515625 72.90625 
L 49.515625 64.59375 
L 19.828125 64.59375 
L 19.828125 46.734375 
Q 21.96875 47.46875 24.109375 47.828125 
Q 26.265625 48.1875 28.421875 48.1875 
Q 40.625 48.1875 47.75 41.5 
Q 54.890625 34.8125 54.890625 23.390625 
Q 54.890625 11.625 47.5625 5.09375 
Q 40.234375 -1.421875 26.90625 -1.421875 
Q 22.3125 -1.421875 17.546875 -0.640625 
Q 12.796875 0.140625 7.71875 1.703125 
L 7.71875 11.625 
Q 12.109375 9.234375 16.796875 8.0625 
Q 21.484375 6.890625 26.703125 6.890625 
Q 35.15625 6.890625 40.078125 11.328125 
Q 45.015625 15.765625 45.015625 23.390625 
Q 45.015625 31 40.078125 35.4375 
Q 35.15625 39.890625 26.703125 39.890625 
Q 22.75 39.890625 18.8125 39.015625 
Q 14.890625 38.140625 10.796875 36.28125 
z
" id="DejaVuSans-53"/>
      </defs>
      <g transform="translate(364.953403 322.182437)scale(0.1 -0.1)">
       <use xlink:href="#DejaVuSans-53"/>
       <use x="63.623047" xlink:href="#DejaVuSans-48"/>
       <use x="127.246094" xlink:href="#DejaVuSans-48"/>
      </g>
     </g>
    </g>
    <g id="text_7">
     <!-- pltnadirac -->
     <defs>
      <path d="M 18.109375 8.203125 
L 18.109375 -20.796875 
L 9.078125 -20.796875 
L 9.078125 54.6875 
L 18.109375 54.6875 
L 18.109375 46.390625 
Q 20.953125 51.265625 25.265625 53.625 
Q 29.59375 56 35.59375 56 
Q 45.5625 56 51.78125 48.09375 
Q 58.015625 40.1875 58.015625 27.296875 
Q 58.015625 14.40625 51.78125 6.484375 
Q 45.5625 -1.421875 35.59375 -1.421875 
Q 29.59375 -1.421875 25.265625 0.953125 
Q 20.953125 3.328125 18.109375 8.203125 
z
M 48.6875 27.296875 
Q 48.6875 37.203125 44.609375 42.84375 
Q 40.53125 48.484375 33.40625 48.484375 
Q 26.265625 48.484375 22.1875 42.84375 
Q 18.109375 37.203125 18.109375 27.296875 
Q 18.109375 17.390625 22.1875 11.75 
Q 26.265625 6.109375 33.40625 6.109375 
Q 40.53125 6.109375 44.609375 11.75 
Q 48.6875 17.390625 48.6875 27.296875 
z
" id="DejaVuSans-112"/>
      <path d="M 9.421875 75.984375 
L 18.40625 75.984375 
L 18.40625 0 
L 9.421875 0 
z
" id="DejaVuSans-108"/>
      <path d="M 18.3125 70.21875 
L 18.3125 54.6875 
L 36.8125 54.6875 
L 36.8125 47.703125 
L 18.3125 47.703125 
L 18.3125 18.015625 
Q 18.3125 11.328125 20.140625 9.421875 
Q 21.96875 7.515625 27.59375 7.515625 
L 36.8125 7.515625 
L 36.8125 0 
L 27.59375 0 
Q 17.1875 0 13.234375 3.875 
Q 9.28125 7.765625 9.28125 18.015625 
L 9.28125 47.703125 
L 2.6875 47.703125 
L 2.6875 54.6875 
L 9.28125 54.6875 
L 9.28125 70.21875 
z
" id="DejaVuSans-116"/>
      <path d="M 54.890625 33.015625 
L 54.890625 0 
L 45.90625 0 
L 45.90625 32.71875 
Q 45.90625 40.484375 42.875 44.328125 
Q 39.84375 48.1875 33.796875 48.1875 
Q 26.515625 48.1875 22.3125 43.546875 
Q 18.109375 38.921875 18.109375 30.90625 
L 18.109375 0 
L 9.078125 0 
L 9.078125 54.6875 
L 18.109375 54.6875 
L 18.109375 46.1875 
Q 21.34375 51.125 25.703125 53.5625 
Q 30.078125 56 35.796875 56 
Q 45.21875 56 50.046875 50.171875 
Q 54.890625 44.34375 54.890625 33.015625 
z
" id="DejaVuSans-110"/>
      <path d="M 34.28125 27.484375 
Q 23.390625 27.484375 19.1875 25 
Q 14.984375 22.515625 14.984375 16.5 
Q 14.984375 11.71875 18.140625 8.90625 
Q 21.296875 6.109375 26.703125 6.109375 
Q 34.1875 6.109375 38.703125 11.40625 
Q 43.21875 16.703125 43.21875 25.484375 
L 43.21875 27.484375 
z
M 52.203125 31.203125 
L 52.203125 0 
L 43.21875 0 
L 43.21875 8.296875 
Q 40.140625 3.328125 35.546875 0.953125 
Q 30.953125 -1.421875 24.3125 -1.421875 
Q 15.921875 -1.421875 10.953125 3.296875 
Q 6 8.015625 6 15.921875 
Q 6 25.140625 12.171875 29.828125 
Q 18.359375 34.515625 30.609375 34.515625 
L 43.21875 34.515625 
L 43.21875 35.40625 
Q 43.21875 41.609375 39.140625 45 
Q 35.0625 48.390625 27.6875 48.390625 
Q 23 48.390625 18.546875 47.265625 
Q 14.109375 46.140625 10.015625 43.890625 
L 10.015625 52.203125 
Q 14.9375 54.109375 19.578125 55.046875 
Q 24.21875 56 28.609375 56 
Q 40.484375 56 46.34375 49.84375 
Q 52.203125 43.703125 52.203125 31.203125 
z
" id="DejaVuSans-97"/>
      <path d="M 45.40625 46.390625 
L 45.40625 75.984375 
L 54.390625 75.984375 
L 54.390625 0 
L 45.40625 0 
L 45.40625 8.203125 
Q 42.578125 3.328125 38.25 0.953125 
Q 33.9375 -1.421875 27.875 -1.421875 
Q 17.96875 -1.421875 11.734375 6.484375 
Q 5.515625 14.40625 5.515625 27.296875 
Q 5.515625 40.1875 11.734375 48.09375 
Q 17.96875 56 27.875 56 
Q 33.9375 56 38.25 53.625 
Q 42.578125 51.265625 45.40625 46.390625 
z
M 14.796875 27.296875 
Q 14.796875 17.390625 18.875 11.75 
Q 22.953125 6.109375 30.078125 6.109375 
Q 37.203125 6.109375 41.296875 11.75 
Q 45.40625 17.390625 45.40625 27.296875 
Q 45.40625 37.203125 41.296875 42.84375 
Q 37.203125 48.484375 30.078125 48.484375 
Q 22.953125 48.484375 18.875 42.84375 
Q 14.796875 37.203125 14.796875 27.296875 
z
" id="DejaVuSans-100"/>
      <path d="M 9.421875 54.6875 
L 18.40625 54.6875 
L 18.40625 0 
L 9.421875 0 
z
M 9.421875 75.984375 
L 18.40625 75.984375 
L 18.40625 64.59375 
L 9.421875 64.59375 
z
" id="DejaVuSans-105"/>
      <path d="M 41.109375 46.296875 
Q 39.59375 47.171875 37.8125 47.578125 
Q 36.03125 48 33.890625 48 
Q 26.265625 48 22.1875 43.046875 
Q 18.109375 38.09375 18.109375 28.8125 
L 18.109375 0 
L 9.078125 0 
L 9.078125 54.6875 
L 18.109375 54.6875 
L 18.109375 46.1875 
Q 20.953125 51.171875 25.484375 53.578125 
Q 30.03125 56 36.53125 56 
Q 37.453125 56 38.578125 55.875 
Q 39.703125 55.765625 41.0625 55.515625 
z
" id="DejaVuSans-114"/>
      <path d="M 48.78125 52.59375 
L 48.78125 44.1875 
Q 44.96875 46.296875 41.140625 47.34375 
Q 37.3125 48.390625 33.40625 48.390625 
Q 24.65625 48.390625 19.8125 42.84375 
Q 14.984375 37.3125 14.984375 27.296875 
Q 14.984375 17.28125 19.8125 11.734375 
Q 24.65625 6.203125 33.40625 6.203125 
Q 37.3125 6.203125 41.140625 7.25 
Q 44.96875 8.296875 48.78125 10.40625 
L 48.78125 2.09375 
Q 45.015625 0.34375 40.984375 -0.53125 
Q 36.96875 -1.421875 32.421875 -1.421875 
Q 20.0625 -1.421875 12.78125 6.34375 
Q 5.515625 14.109375 5.515625 27.296875 
Q 5.515625 40.671875 12.859375 48.328125 
Q 20.21875 56 33.015625 56 
Q 37.15625 56 41.109375 55.140625 
Q 45.0625 54.296875 48.78125 52.59375 
z
" id="DejaVuSans-99"/>
     </defs>
     <g transform="translate(210.971719 335.860562)scale(0.1 -0.1)">
      <use xlink:href="#DejaVuSans-112"/>
      <use x="63.476562" xlink:href="#DejaVuSans-108"/>
      <use x="91.259766" xlink:href="#DejaVuSans-116"/>
      <use x="130.46875" xlink:href="#DejaVuSans-110"/>
      <use x="193.847656" xlink:href="#DejaVuSans-97"/>
      <use x="255.126953" xlink:href="#DejaVuSans-100"/>
      <use x="318.603516" xlink:href="#DejaVuSans-105"/>
      <use x="346.386719" xlink:href="#DejaVuSans-114"/>
      <use x="387.5" xlink:href="#DejaVuSans-97"/>
      <use x="448.779297" xlink:href="#DejaVuSans-99"/>
     </g>
    </g>
   </g>
   <g id="matplotlib.axis_2">
    <g id="ytick_1">
     <g id="line2d_7">
      <defs>
       <path d="M 0 0 
L -3.5 0 
" id="m92910c04d9" style="stroke:#000000;stroke-width:0.8;"/>
      </defs>
      <g>
       <use style="stroke:#000000;stroke-width:0.8;" x="57.6" xlink:href="#m92910c04d9" y="174.528"/>
      </g>
     </g>
    </g>
   </g>
   <g id="line2d_8">
    <path clip-path="url(#p7f62962c34)" d="M 104.913775 174.528 
L 272.9941 174.528 
" style="fill:none;stroke:#ffa500;stroke-linecap:square;stroke-width:1.5;"/>
   </g>
   <g id="line2d_9">
    <path clip-path="url(#p7f62962c34)" d="M 164.123889 174.528 
L 208.872547 174.528 
" style="fill:none;stroke:#4c4c4c;stroke-linecap:square;stroke-width:4.5;"/>
   </g>
   <g id="line2d_10">
    <path clip-path="url(#p7f62962c34)" d="M 102.185198 174.528 
L 293.731282 174.528 
" style="fill:none;stroke:#008000;stroke-linecap:square;stroke-width:1.5;"/>
   </g>
   <g id="line2d_11">
    <path clip-path="url(#p7f62962c34)" d="M 168.216754 174.528 
L 218.422566 174.528 
" style="fill:none;stroke:#262626;stroke-linecap:square;stroke-width:4.5;"/>
   </g>
   <g id="patch_3">
    <path d="M 57.6 307.584 
L 57.6 41.472 
" style="fill:none;stroke:#000000;stroke-linecap:square;stroke-linejoin:miter;stroke-width:0.8;"/>
   </g>
   <g id="patch_4">
    <path d="M 414.72 307.584 
L 414.72 41.472 
" style="fill:none;stroke:#000000;stroke-linecap:square;stroke-linejoin:miter;stroke-width:0.8;"/>
   </g>
   <g id="patch_5">
    <path d="M 57.6 307.584 
L 414.72 307.584 
" style="fill:none;stroke:#000000;stroke-linecap:square;stroke-linejoin:miter;stroke-width:0.8;"/>
   </g>
   <g id="patch_6">
    <path d="M 57.6 41.472 
L 414.72 41.472 
" style="fill:none;stroke:#000000;stroke-linecap:square;stroke-linejoin:miter;stroke-width:0.8;"/>
   </g>
   <g id="PathCollection_1">
    <defs>
     <path d="M 0 1.5 
C 0.397805 1.5 0.77937 1.341951 1.06066 1.06066 
C 1.341951 0.77937 1.5 0.397805 1.5 0 
C 1.5 -0.397805 1.341951 -0.77937 1.06066 -1.06066 
C 0.77937 -1.341951 0.397805 -1.5 0 -1.5 
C -0.397805 -1.5 -0.77937 -1.341951 -1.06066 -1.06066 
C -1.341951 -0.77937 -1.5 -0.397805 -1.5 0 
C -1.5 0.397805 -1.341951 0.77937 -1.06066 1.06066 
C -0.77937 1.341951 -0.397805 1.5 0 1.5 
z
" id="mf82fee8bd4" style="stroke:#4c4c4c;stroke-opacity:0.5;"/>
    </defs>
    <g clip-path="url(#p7f62962c34)">
     <use style="fill:#ffffff;fill-opacity:0.5;stroke:#4c4c4c;stroke-opacity:0.5;" x="183.496784" xlink:href="#mf82fee8bd4" y="174.528"/>
    </g>
   </g>
   <g id="PathCollection_2">
    <defs>
     <path d="M 0 1.5 
C 0.397805 1.5 0.77937 1.341951 1.06066 1.06066 
C 1.341951 0.77937 1.5 0.397805 1.5 0 
C 1.5 -0.397805 1.341951 -0.77937 1.06066 -1.06066 
C 0.77937 -1.341951 0.397805 -1.5 0 -1.5 
C -0.397805 -1.5 -0.77937 -1.341951 -1.06066 -1.06066 
C -1.341951 -0.77937 -1.5 -0.397805 -1.5 0 
C -1.5 0.397805 -1.341951 0.77937 -1.06066 1.06066 
C -0.77937 1.341951 -0.397805 1.5 0 1.5 
z
" id="m2fa39942f3" style="stroke:#262626;stroke-opacity:0.5;"/>
    </defs>
    <g clip-path="url(#p7f62962c34)">
     <use style="fill:#ffffff;fill-opacity:0.5;stroke:#262626;stroke-opacity:0.5;" x="192.228229" xlink:href="#m2fa39942f3" y="174.528"/>
    </g>
   </g>
   <g id="text_8">
    <!-- Association of pltnadirac vs. non_rebreather_mask -->
    <defs>
     <path d="M 34.1875 63.1875 
L 20.796875 26.90625 
L 47.609375 26.90625 
z
M 28.609375 72.90625 
L 39.796875 72.90625 
L 67.578125 0 
L 57.328125 0 
L 50.6875 18.703125 
L 17.828125 18.703125 
L 11.1875 0 
L 0.78125 0 
z
" id="DejaVuSans-65"/>
     <path d="M 44.28125 53.078125 
L 44.28125 44.578125 
Q 40.484375 46.53125 36.375 47.5 
Q 32.28125 48.484375 27.875 48.484375 
Q 21.1875 48.484375 17.84375 46.4375 
Q 14.5 44.390625 14.5 40.28125 
Q 14.5 37.15625 16.890625 35.375 
Q 19.28125 33.59375 26.515625 31.984375 
L 29.59375 31.296875 
Q 39.15625 29.25 43.1875 25.515625 
Q 47.21875 21.78125 47.21875 15.09375 
Q 47.21875 7.46875 41.1875 3.015625 
Q 35.15625 -1.421875 24.609375 -1.421875 
Q 20.21875 -1.421875 15.453125 -0.5625 
Q 10.6875 0.296875 5.421875 2 
L 5.421875 11.28125 
Q 10.40625 8.6875 15.234375 7.390625 
Q 20.0625 6.109375 24.8125 6.109375 
Q 31.15625 6.109375 34.5625 8.28125 
Q 37.984375 10.453125 37.984375 14.40625 
Q 37.984375 18.0625 35.515625 20.015625 
Q 33.0625 21.96875 24.703125 23.78125 
L 21.578125 24.515625 
Q 13.234375 26.265625 9.515625 29.90625 
Q 5.8125 33.546875 5.8125 39.890625 
Q 5.8125 47.609375 11.28125 51.796875 
Q 16.75 56 26.8125 56 
Q 31.78125 56 36.171875 55.265625 
Q 40.578125 54.546875 44.28125 53.078125 
z
" id="DejaVuSans-115"/>
     <path d="M 30.609375 48.390625 
Q 23.390625 48.390625 19.1875 42.75 
Q 14.984375 37.109375 14.984375 27.296875 
Q 14.984375 17.484375 19.15625 11.84375 
Q 23.34375 6.203125 30.609375 6.203125 
Q 37.796875 6.203125 41.984375 11.859375 
Q 46.1875 17.53125 46.1875 27.296875 
Q 46.1875 37.015625 41.984375 42.703125 
Q 37.796875 48.390625 30.609375 48.390625 
z
M 30.609375 56 
Q 42.328125 56 49.015625 48.375 
Q 55.71875 40.765625 55.71875 27.296875 
Q 55.71875 13.875 49.015625 6.21875 
Q 42.328125 -1.421875 30.609375 -1.421875 
Q 18.84375 -1.421875 12.171875 6.21875 
Q 5.515625 13.875 5.515625 27.296875 
Q 5.515625 40.765625 12.171875 48.375 
Q 18.84375 56 30.609375 56 
z
" id="DejaVuSans-111"/>
     <path id="DejaVuSans-32"/>
     <path d="M 37.109375 75.984375 
L 37.109375 68.5 
L 28.515625 68.5 
Q 23.6875 68.5 21.796875 66.546875 
Q 19.921875 64.59375 19.921875 59.515625 
L 19.921875 54.6875 
L 34.71875 54.6875 
L 34.71875 47.703125 
L 19.921875 47.703125 
L 19.921875 0 
L 10.890625 0 
L 10.890625 47.703125 
L 2.296875 47.703125 
L 2.296875 54.6875 
L 10.890625 54.6875 
L 10.890625 58.5 
Q 10.890625 67.625 15.140625 71.796875 
Q 19.390625 75.984375 28.609375 75.984375 
z
" id="DejaVuSans-102"/>
     <path d="M 2.984375 54.6875 
L 12.5 54.6875 
L 29.59375 8.796875 
L 46.6875 54.6875 
L 56.203125 54.6875 
L 35.6875 0 
L 23.484375 0 
z
" id="DejaVuSans-118"/>
     <path d="M 10.6875 12.40625 
L 21 12.40625 
L 21 0 
L 10.6875 0 
z
" id="DejaVuSans-46"/>
     <path d="M 50.984375 -16.609375 
L 50.984375 -23.578125 
L -0.984375 -23.578125 
L -0.984375 -16.609375 
z
" id="DejaVuSans-95"/>
     <path d="M 56.203125 29.59375 
L 56.203125 25.203125 
L 14.890625 25.203125 
Q 15.484375 15.921875 20.484375 11.0625 
Q 25.484375 6.203125 34.421875 6.203125 
Q 39.59375 6.203125 44.453125 7.46875 
Q 49.3125 8.734375 54.109375 11.28125 
L 54.109375 2.78125 
Q 49.265625 0.734375 44.1875 -0.34375 
Q 39.109375 -1.421875 33.890625 -1.421875 
Q 20.796875 -1.421875 13.15625 6.1875 
Q 5.515625 13.8125 5.515625 26.8125 
Q 5.515625 40.234375 12.765625 48.109375 
Q 20.015625 56 32.328125 56 
Q 43.359375 56 49.78125 48.890625 
Q 56.203125 41.796875 56.203125 29.59375 
z
M 47.21875 32.234375 
Q 47.125 39.59375 43.09375 43.984375 
Q 39.0625 48.390625 32.421875 48.390625 
Q 24.90625 48.390625 20.390625 44.140625 
Q 15.875 39.890625 15.1875 32.171875 
z
" id="DejaVuSans-101"/>
     <path d="M 48.6875 27.296875 
Q 48.6875 37.203125 44.609375 42.84375 
Q 40.53125 48.484375 33.40625 48.484375 
Q 26.265625 48.484375 22.1875 42.84375 
Q 18.109375 37.203125 18.109375 27.296875 
Q 18.109375 17.390625 22.1875 11.75 
Q 26.265625 6.109375 33.40625 6.109375 
Q 40.53125 6.109375 44.609375 11.75 
Q 48.6875 17.390625 48.6875 27.296875 
z
M 18.109375 46.390625 
Q 20.953125 51.265625 25.265625 53.625 
Q 29.59375 56 35.59375 56 
Q 45.5625 56 51.78125 48.09375 
Q 58.015625 40.1875 58.015625 27.296875 
Q 58.015625 14.40625 51.78125 6.484375 
Q 45.5625 -1.421875 35.59375 -1.421875 
Q 29.59375 -1.421875 25.265625 0.953125 
Q 20.953125 3.328125 18.109375 8.203125 
L 18.109375 0 
L 9.078125 0 
L 9.078125 75.984375 
L 18.109375 75.984375 
z
" id="DejaVuSans-98"/>
     <path d="M 54.890625 33.015625 
L 54.890625 0 
L 45.90625 0 
L 45.90625 32.71875 
Q 45.90625 40.484375 42.875 44.328125 
Q 39.84375 48.1875 33.796875 48.1875 
Q 26.515625 48.1875 22.3125 43.546875 
Q 18.109375 38.921875 18.109375 30.90625 
L 18.109375 0 
L 9.078125 0 
L 9.078125 75.984375 
L 18.109375 75.984375 
L 18.109375 46.1875 
Q 21.34375 51.125 25.703125 53.5625 
Q 30.078125 56 35.796875 56 
Q 45.21875 56 50.046875 50.171875 
Q 54.890625 44.34375 54.890625 33.015625 
z
" id="DejaVuSans-104"/>
     <path d="M 52 44.1875 
Q 55.375 50.25 60.0625 53.125 
Q 64.75 56 71.09375 56 
Q 79.640625 56 84.28125 50.015625 
Q 88.921875 44.046875 88.921875 33.015625 
L 88.921875 0 
L 79.890625 0 
L 79.890625 32.71875 
Q 79.890625 40.578125 77.09375 44.375 
Q 74.3125 48.1875 68.609375 48.1875 
Q 61.625 48.1875 57.5625 43.546875 
Q 53.515625 38.921875 53.515625 30.90625 
L 53.515625 0 
L 44.484375 0 
L 44.484375 32.71875 
Q 44.484375 40.625 41.703125 44.40625 
Q 38.921875 48.1875 33.109375 48.1875 
Q 26.21875 48.1875 22.15625 43.53125 
Q 18.109375 38.875 18.109375 30.90625 
L 18.109375 0 
L 9.078125 0 
L 9.078125 54.6875 
L 18.109375 54.6875 
L 18.109375 46.1875 
Q 21.1875 51.21875 25.484375 53.609375 
Q 29.78125 56 35.6875 56 
Q 41.65625 56 45.828125 52.96875 
Q 50 49.953125 52 44.1875 
z
" id="DejaVuSans-109"/>
     <path d="M 9.078125 75.984375 
L 18.109375 75.984375 
L 18.109375 31.109375 
L 44.921875 54.6875 
L 56.390625 54.6875 
L 27.390625 29.109375 
L 57.625 0 
L 45.90625 0 
L 18.109375 26.703125 
L 18.109375 0 
L 9.078125 0 
z
" id="DejaVuSans-107"/>
    </defs>
    <g transform="translate(84.533437 35.472)scale(0.12 -0.12)">
     <use xlink:href="#DejaVuSans-65"/>
     <use x="68.408203" xlink:href="#DejaVuSans-115"/>
     <use x="120.507812" xlink:href="#DejaVuSans-115"/>
     <use x="172.607422" xlink:href="#DejaVuSans-111"/>
     <use x="233.789062" xlink:href="#DejaVuSans-99"/>
     <use x="288.769531" xlink:href="#DejaVuSans-105"/>
     <use x="316.552734" xlink:href="#DejaVuSans-97"/>
     <use x="377.832031" xlink:href="#DejaVuSans-116"/>
     <use x="417.041016" xlink:href="#DejaVuSans-105"/>
     <use x="444.824219" xlink:href="#DejaVuSans-111"/>
     <use x="506.005859" xlink:href="#DejaVuSans-110"/>
     <use x="569.384766" xlink:href="#DejaVuSans-32"/>
     <use x="601.171875" xlink:href="#DejaVuSans-111"/>
     <use x="662.353516" xlink:href="#DejaVuSans-102"/>
     <use x="697.558594" xlink:href="#DejaVuSans-32"/>
     <use x="729.345703" xlink:href="#DejaVuSans-112"/>
     <use x="792.822266" xlink:href="#DejaVuSans-108"/>
     <use x="820.605469" xlink:href="#DejaVuSans-116"/>
     <use x="859.814453" xlink:href="#DejaVuSans-110"/>
     <use x="923.193359" xlink:href="#DejaVuSans-97"/>
     <use x="984.472656" xlink:href="#DejaVuSans-100"/>
     <use x="1047.949219" xlink:href="#DejaVuSans-105"/>
     <use x="1075.732422" xlink:href="#DejaVuSans-114"/>
     <use x="1116.845703" xlink:href="#DejaVuSans-97"/>
     <use x="1178.125" xlink:href="#DejaVuSans-99"/>
     <use x="1233.105469" xlink:href="#DejaVuSans-32"/>
     <use x="1264.892578" xlink:href="#DejaVuSans-118"/>
     <use x="1324.072266" xlink:href="#DejaVuSans-115"/>
     <use x="1376.171875" xlink:href="#DejaVuSans-46"/>
     <use x="1407.958984" xlink:href="#DejaVuSans-32"/>
     <use x="1439.746094" xlink:href="#DejaVuSans-110"/>
     <use x="1503.125" xlink:href="#DejaVuSans-111"/>
     <use x="1564.306641" xlink:href="#DejaVuSans-110"/>
     <use x="1627.685547" xlink:href="#DejaVuSans-95"/>
     <use x="1677.685547" xlink:href="#DejaVuSans-114"/>
     <use x="1716.548828" xlink:href="#DejaVuSans-101"/>
     <use x="1778.072266" xlink:href="#DejaVuSans-98"/>
     <use x="1841.548828" xlink:href="#DejaVuSans-114"/>
     <use x="1880.412109" xlink:href="#DejaVuSans-101"/>
     <use x="1941.935547" xlink:href="#DejaVuSans-97"/>
     <use x="2003.214844" xlink:href="#DejaVuSans-116"/>
     <use x="2042.423828" xlink:href="#DejaVuSans-104"/>
     <use x="2105.802734" xlink:href="#DejaVuSans-101"/>
     <use x="2167.326172" xlink:href="#DejaVuSans-114"/>
     <use x="2208.439453" xlink:href="#DejaVuSans-95"/>
     <use x="2258.439453" xlink:href="#DejaVuSans-109"/>
     <use x="2355.851562" xlink:href="#DejaVuSans-97"/>
     <use x="2417.130859" xlink:href="#DejaVuSans-115"/>
     <use x="2469.230469" xlink:href="#DejaVuSans-107"/>
    </g>
   </g>
   <g id="legend_1">
    <g id="patch_7">
     <path d="M 216.21375 79.3845 
L 407.72 79.3845 
Q 409.72 79.3845 409.72 77.3845 
L 409.72 48.472 
Q 409.72 46.472 407.72 46.472 
L 216.21375 46.472 
Q 214.21375 46.472 214.21375 48.472 
L 214.21375 77.3845 
Q 214.21375 79.3845 216.21375 79.3845 
z
" style="fill:#ffffff;opacity:0.8;stroke:#cccccc;stroke-linejoin:miter;"/>
    </g>
    <g id="line2d_12">
     <path d="M 218.21375 54.570438 
L 238.21375 54.570438 
" style="fill:none;stroke:#ffa500;stroke-linecap:square;stroke-width:1.5;"/>
    </g>
    <g id="line2d_13"/>
    <g id="text_9">
     <!-- non_rebreather_mask (131) -->
     <defs>
      <path d="M 31 75.875 
Q 24.46875 64.65625 21.28125 53.65625 
Q 18.109375 42.671875 18.109375 31.390625 
Q 18.109375 20.125 21.3125 9.0625 
Q 24.515625 -2 31 -13.1875 
L 23.1875 -13.1875 
Q 15.875 -1.703125 12.234375 9.375 
Q 8.59375 20.453125 8.59375 31.390625 
Q 8.59375 42.28125 12.203125 53.3125 
Q 15.828125 64.359375 23.1875 75.875 
z
" id="DejaVuSans-40"/>
      <path d="M 8.015625 75.875 
L 15.828125 75.875 
Q 23.140625 64.359375 26.78125 53.3125 
Q 30.421875 42.28125 30.421875 31.390625 
Q 30.421875 20.453125 26.78125 9.375 
Q 23.140625 -1.703125 15.828125 -13.1875 
L 8.015625 -13.1875 
Q 14.5 -2 17.703125 9.0625 
Q 20.90625 20.125 20.90625 31.390625 
Q 20.90625 42.671875 17.703125 53.65625 
Q 14.5 64.65625 8.015625 75.875 
z
" id="DejaVuSans-41"/>
     </defs>
     <g transform="translate(246.21375 58.070438)scale(0.1 -0.1)">
      <use xlink:href="#DejaVuSans-110"/>
      <use x="63.378906" xlink:href="#DejaVuSans-111"/>
      <use x="124.560547" xlink:href="#DejaVuSans-110"/>
      <use x="187.939453" xlink:href="#DejaVuSans-95"/>
      <use x="237.939453" xlink:href="#DejaVuSans-114"/>
      <use x="276.802734" xlink:href="#DejaVuSans-101"/>
      <use x="338.326172" xlink:href="#DejaVuSans-98"/>
      <use x="401.802734" xlink:href="#DejaVuSans-114"/>
      <use x="440.666016" xlink:href="#DejaVuSans-101"/>
      <use x="502.189453" xlink:href="#DejaVuSans-97"/>
      <use x="563.46875" xlink:href="#DejaVuSans-116"/>
      <use x="602.677734" xlink:href="#DejaVuSans-104"/>
      <use x="666.056641" xlink:href="#DejaVuSans-101"/>
      <use x="727.580078" xlink:href="#DejaVuSans-114"/>
      <use x="768.693359" xlink:href="#DejaVuSans-95"/>
      <use x="818.693359" xlink:href="#DejaVuSans-109"/>
      <use x="916.105469" xlink:href="#DejaVuSans-97"/>
      <use x="977.384766" xlink:href="#DejaVuSans-115"/>
      <use x="1029.484375" xlink:href="#DejaVuSans-107"/>
      <use x="1087.394531" xlink:href="#DejaVuSans-32"/>
      <use x="1119.181641" xlink:href="#DejaVuSans-40"/>
      <use x="1158.195312" xlink:href="#DejaVuSans-49"/>
      <use x="1221.818359" xlink:href="#DejaVuSans-51"/>
      <use x="1285.441406" xlink:href="#DejaVuSans-49"/>
      <use x="1349.064453" xlink:href="#DejaVuSans-41"/>
     </g>
    </g>
    <g id="line2d_14">
     <path d="M 218.21375 69.526688 
L 238.21375 69.526688 
" style="fill:none;stroke:#008000;stroke-linecap:square;stroke-width:1.5;"/>
    </g>
    <g id="line2d_15"/>
    <g id="text_10">
     <!-- Not non_rebreather_mask (361) -->
     <defs>
      <path d="M 9.8125 72.90625 
L 23.09375 72.90625 
L 55.421875 11.921875 
L 55.421875 72.90625 
L 64.984375 72.90625 
L 64.984375 0 
L 51.703125 0 
L 19.390625 60.984375 
L 19.390625 0 
L 9.8125 0 
z
" id="DejaVuSans-78"/>
      <path d="M 33.015625 40.375 
Q 26.375 40.375 22.484375 35.828125 
Q 18.609375 31.296875 18.609375 23.390625 
Q 18.609375 15.53125 22.484375 10.953125 
Q 26.375 6.390625 33.015625 6.390625 
Q 39.65625 6.390625 43.53125 10.953125 
Q 47.40625 15.53125 47.40625 23.390625 
Q 47.40625 31.296875 43.53125 35.828125 
Q 39.65625 40.375 33.015625 40.375 
z
M 52.59375 71.296875 
L 52.59375 62.3125 
Q 48.875 64.0625 45.09375 64.984375 
Q 41.3125 65.921875 37.59375 65.921875 
Q 27.828125 65.921875 22.671875 59.328125 
Q 17.53125 52.734375 16.796875 39.40625 
Q 19.671875 43.65625 24.015625 45.921875 
Q 28.375 48.1875 33.59375 48.1875 
Q 44.578125 48.1875 50.953125 41.515625 
Q 57.328125 34.859375 57.328125 23.390625 
Q 57.328125 12.15625 50.6875 5.359375 
Q 44.046875 -1.421875 33.015625 -1.421875 
Q 20.359375 -1.421875 13.671875 8.265625 
Q 6.984375 17.96875 6.984375 36.375 
Q 6.984375 53.65625 15.1875 63.9375 
Q 23.390625 74.21875 37.203125 74.21875 
Q 40.921875 74.21875 44.703125 73.484375 
Q 48.484375 72.75 52.59375 71.296875 
z
" id="DejaVuSans-54"/>
     </defs>
     <g transform="translate(246.21375 73.026688)scale(0.1 -0.1)">
      <use xlink:href="#DejaVuSans-78"/>
      <use x="74.804688" xlink:href="#DejaVuSans-111"/>
      <use x="135.986328" xlink:href="#DejaVuSans-116"/>
      <use x="175.195312" xlink:href="#DejaVuSans-32"/>
      <use x="206.982422" xlink:href="#DejaVuSans-110"/>
      <use x="270.361328" xlink:href="#DejaVuSans-111"/>
      <use x="331.542969" xlink:href="#DejaVuSans-110"/>
      <use x="394.921875" xlink:href="#DejaVuSans-95"/>
      <use x="444.921875" xlink:href="#DejaVuSans-114"/>
      <use x="483.785156" xlink:href="#DejaVuSans-101"/>
      <use x="545.308594" xlink:href="#DejaVuSans-98"/>
      <use x="608.785156" xlink:href="#DejaVuSans-114"/>
      <use x="647.648438" xlink:href="#DejaVuSans-101"/>
      <use x="709.171875" xlink:href="#DejaVuSans-97"/>
      <use x="770.451172" xlink:href="#DejaVuSans-116"/>
      <use x="809.660156" xlink:href="#DejaVuSans-104"/>
      <use x="873.039062" xlink:href="#DejaVuSans-101"/>
      <use x="934.5625" xlink:href="#DejaVuSans-114"/>
      <use x="975.675781" xlink:href="#DejaVuSans-95"/>
      <use x="1025.675781" xlink:href="#DejaVuSans-109"/>
      <use x="1123.087891" xlink:href="#DejaVuSans-97"/>
      <use x="1184.367188" xlink:href="#DejaVuSans-115"/>
      <use x="1236.466797" xlink:href="#DejaVuSans-107"/>
      <use x="1294.376953" xlink:href="#DejaVuSans-32"/>
      <use x="1326.164062" xlink:href="#DejaVuSans-40"/>
      <use x="1365.177734" xlink:href="#DejaVuSans-51"/>
      <use x="1428.800781" xlink:href="#DejaVuSans-54"/>
      <use x="1492.423828" xlink:href="#DejaVuSans-49"/>
      <use x="1556.046875" xlink:href="#DejaVuSans-41"/>
     </g>
    </g>
   </g>
  </g>
 </g>
 <defs>
  <clipPath id="p7f62962c34">
   <rect height="266.112" width="357.12" x="57.6" y="41.472"/>
  </clipPath>
 </defs>
</svg>
