<?xml version="1.0" encoding="utf-8" standalone="no"?>
<!DOCTYPE svg PUBLIC "-//W3C//DTD SVG 1.1//EN"
  "http://www.w3.org/Graphics/SVG/1.1/DTD/svg11.dtd">
<!-- Created with matplotlib (https://matplotlib.org/) -->
<svg height="345.6pt" version="1.1" viewBox="0 0 460.8 345.6" width="460.8pt" xmlns="http://www.w3.org/2000/svg" xmlns:xlink="http://www.w3.org/1999/xlink">
 <defs>
  <style type="text/css">
*{stroke-linecap:butt;stroke-linejoin:round;}
  </style>
 </defs>
 <g id="figure_1">
  <g id="patch_1">
   <path d="M 0 345.6 
L 460.8 345.6 
L 460.8 0 
L 0 0 
z
" style="fill:#ffffff;"/>
  </g>
  <g id="axes_1">
   <g id="patch_2">
    <path d="M 57.6 307.584 
L 414.72 307.584 
L 414.72 41.472 
L 57.6 41.472 
z
" style="fill:#ffffff;"/>
   </g>
   <g id="PolyCollection_1">
    <defs>
     <path d="M 79.049619 -170.479346 
L 79.049619 -171.664654 
L 81.805897 -172.00298 
L 84.562175 -172.489179 
L 87.318452 -173.16402 
L 90.07473 -174.069089 
L 92.831008 -175.242551 
L 95.587286 -176.714294 
L 98.343564 -178.501353 
L 101.099842 -180.60471 
L 103.85612 -183.008576 
L 106.612398 -185.682863 
L 109.368676 -188.588797 
L 112.124954 -191.686676 
L 114.881232 -194.943862 
L 117.63751 -198.340668 
L 120.393787 -201.872131 
L 123.150065 -205.544822 
L 125.906343 -209.369581 
L 128.662621 -213.352694 
L 131.418899 -217.488926 
L 134.175177 -221.759396 
L 136.931455 -226.135583 
L 139.687733 -230.588295 
L 142.444011 -235.098249 
L 145.200289 -239.663831 
L 147.956567 -244.302227 
L 150.712844 -249.042191 
L 153.469122 -253.909524 
L 156.2254 -258.908869 
L 158.981678 -264.006804 
L 161.737956 -269.121123 
L 164.494234 -274.119793 
L 167.250512 -278.830752 
L 170.00679 -283.061317 
L 172.763068 -286.623768 
L 175.519346 -289.362269 
L 178.275624 -291.175763 
L 181.031901 -292.032 
L 183.788179 -291.969476 
L 186.544457 -291.086498 
L 189.300735 -289.519458 
L 192.057013 -287.414975 
L 194.813291 -284.902109 
L 197.569569 -282.07081 
L 200.325847 -278.961127 
L 203.082125 -275.56484 
L 205.838403 -271.838038 
L 208.594681 -267.72073 
L 211.350959 -263.158401 
L 214.107236 -258.120831 
L 216.863514 -252.61495 
L 219.619792 -246.690421 
L 222.37607 -240.438379 
L 225.132348 -233.984767 
L 227.888626 -227.480124 
L 230.644904 -221.087489 
L 233.401182 -214.969787 
L 236.15746 -209.277748 
L 238.913738 -204.139217 
L 241.670016 -199.650588 
L 244.426293 -195.870917 
L 247.182571 -192.819005 
L 249.938849 -190.473458 
L 252.695127 -188.77553 
L 255.451405 -187.634466 
L 258.207683 -186.935105 
L 260.963961 -186.547502 
L 263.720239 -186.338132 
L 266.476517 -186.181833 
L 269.232795 -185.973128 
L 271.989073 -185.635214 
L 274.74535 -185.124997 
L 277.501628 -184.433178 
L 280.257906 -183.579447 
L 283.014184 -182.604003 
L 285.770462 -181.557435 
L 288.52674 -180.491225 
L 291.283018 -179.450673 
L 294.039296 -178.471073 
L 296.795574 -177.576945 
L 299.551852 -176.783276 
L 302.30813 -176.097449 
L 305.064408 -175.520773 
L 307.820685 -175.049128 
L 310.576963 -174.672921 
L 313.333241 -174.377013 
L 316.089519 -174.14138 
L 318.845797 -173.942944 
L 321.602075 -173.75849 
L 324.358353 -173.568086 
L 327.114631 -173.358096 
L 329.870909 -173.122973 
L 332.627187 -172.865337 
L 335.383465 -172.594389 
L 338.139742 -172.323173 
L 340.89602 -172.065458 
L 343.652298 -171.833013 
L 346.408576 -171.633827 
L 349.164854 -171.47146 
L 351.921132 -171.345394 
L 351.921132 -170.798606 
L 351.921132 -170.798606 
L 349.164854 -170.67254 
L 346.408576 -170.510173 
L 343.652298 -170.310987 
L 340.89602 -170.078542 
L 338.139742 -169.820827 
L 335.383465 -169.549611 
L 332.627187 -169.278663 
L 329.870909 -169.021027 
L 327.114631 -168.785904 
L 324.358353 -168.575914 
L 321.602075 -168.38551 
L 318.845797 -168.201056 
L 316.089519 -168.00262 
L 313.333241 -167.766987 
L 310.576963 -167.471079 
L 307.820685 -167.094872 
L 305.064408 -166.623227 
L 302.30813 -166.046551 
L 299.551852 -165.360724 
L 296.795574 -164.567055 
L 294.039296 -163.672927 
L 291.283018 -162.693327 
L 288.52674 -161.652775 
L 285.770462 -160.586565 
L 283.014184 -159.539997 
L 280.257906 -158.564553 
L 277.501628 -157.710822 
L 274.74535 -157.019003 
L 271.989073 -156.508786 
L 269.232795 -156.170872 
L 266.476517 -155.962167 
L 263.720239 -155.805868 
L 260.963961 -155.596498 
L 258.207683 -155.208895 
L 255.451405 -154.509534 
L 252.695127 -153.36847 
L 249.938849 -151.670542 
L 247.182571 -149.324995 
L 244.426293 -146.273083 
L 241.670016 -142.493412 
L 238.913738 -138.004783 
L 236.15746 -132.866252 
L 233.401182 -127.174213 
L 230.644904 -121.056511 
L 227.888626 -114.663876 
L 225.132348 -108.159233 
L 222.37607 -101.705621 
L 219.619792 -95.453579 
L 216.863514 -89.52905 
L 214.107236 -84.023169 
L 211.350959 -78.985599 
L 208.594681 -74.42327 
L 205.838403 -70.305962 
L 203.082125 -66.57916 
L 200.325847 -63.182873 
L 197.569569 -60.07319 
L 194.813291 -57.241891 
L 192.057013 -54.729025 
L 189.300735 -52.624542 
L 186.544457 -51.057502 
L 183.788179 -50.174524 
L 181.031901 -50.112 
L 178.275624 -50.968237 
L 175.519346 -52.781731 
L 172.763068 -55.520232 
L 170.00679 -59.082683 
L 167.250512 -63.313248 
L 164.494234 -68.024207 
L 161.737956 -73.022877 
L 158.981678 -78.137196 
L 156.2254 -83.235131 
L 153.469122 -88.234476 
L 150.712844 -93.101809 
L 147.956567 -97.841773 
L 145.200289 -102.480169 
L 142.444011 -107.045751 
L 139.687733 -111.555705 
L 136.931455 -116.008417 
L 134.175177 -120.384604 
L 131.418899 -124.655074 
L 128.662621 -128.791306 
L 125.906343 -132.774419 
L 123.150065 -136.599178 
L 120.393787 -140.271869 
L 117.63751 -143.803332 
L 114.881232 -147.200138 
L 112.124954 -150.457324 
L 109.368676 -153.555203 
L 106.612398 -156.461137 
L 103.85612 -159.135424 
L 101.099842 -161.53929 
L 98.343564 -163.642647 
L 95.587286 -165.429706 
L 92.831008 -166.901449 
L 90.07473 -168.074911 
L 87.318452 -168.97998 
L 84.562175 -169.654821 
L 81.805897 -170.14102 
L 79.049619 -170.479346 
z
" id="mcd70606b81" style="stroke:#4c4c4c;stroke-opacity:0.5;stroke-width:1.5;"/>
    </defs>
    <g clip-path="url(#pa6b7ccf61d)">
     <use style="fill:#df9c20;fill-opacity:0.5;stroke:#4c4c4c;stroke-opacity:0.5;stroke-width:1.5;" x="0" xlink:href="#mcd70606b81" y="345.6"/>
    </g>
   </g>
   <g id="PolyCollection_2">
    <defs>
     <path d="M 73.832727 -170.622806 
L 73.832727 -171.521194 
L 77.112066 -171.843879 
L 80.391405 -172.328361 
L 83.670744 -173.013085 
L 86.950083 -173.926212 
L 90.229421 -175.079383 
L 93.50876 -176.465823 
L 96.788099 -178.064453 
L 100.067438 -179.849126 
L 103.346777 -181.799423 
L 106.626116 -183.908421 
L 109.905455 -186.184485 
L 113.184793 -188.647653 
L 116.464132 -191.324604 
L 119.743471 -194.246791 
L 123.02281 -197.453493 
L 126.302149 -200.996753 
L 129.581488 -204.941845 
L 132.860826 -209.357908 
L 136.140165 -214.298749 
L 139.419504 -219.780427 
L 142.698843 -225.765782 
L 145.978182 -232.163793 
L 149.257521 -238.844512 
L 152.53686 -245.662452 
L 155.816198 -252.4773 
L 159.095537 -259.162846 
L 162.374876 -265.601773 
L 165.654215 -271.671597 
L 168.933554 -277.23175 
L 172.212893 -282.121361 
L 175.492231 -286.17217 
L 178.77157 -289.233526 
L 182.050909 -291.200218 
L 185.330248 -292.032 
L 188.609587 -291.757384 
L 191.888926 -290.461813 
L 195.168264 -288.267457 
L 198.447603 -285.314221 
L 201.726942 -281.747595 
L 205.006281 -277.711548 
L 208.28562 -273.339325 
L 211.564959 -268.736484 
L 214.844298 -263.958455 
L 218.123636 -258.994157 
L 221.402975 -253.770345 
L 224.682314 -248.184652 
L 227.961653 -242.16114 
L 231.240992 -235.708624 
L 234.520331 -228.956943 
L 237.799669 -222.153363 
L 241.079008 -215.616885 
L 244.358347 -209.664985 
L 247.637686 -204.537528 
L 250.917025 -200.342737 
L 254.196364 -197.041163 
L 257.475702 -194.470011 
L 260.755041 -192.397294 
L 264.03438 -190.58717 
L 267.313719 -188.856523 
L 270.593058 -187.107985 
L 273.872397 -185.333783 
L 277.151736 -183.594581 
L 280.431074 -181.984384 
L 283.710413 -180.594541 
L 286.989752 -179.487005 
L 290.269091 -178.681346 
L 293.54843 -178.154427 
L 296.827769 -177.848426 
L 300.107107 -177.682744 
L 303.386446 -177.567132 
L 306.665785 -177.415225 
L 309.945124 -177.158082 
L 313.224463 -176.756185 
L 316.503802 -176.206939 
L 319.78314 -175.544563 
L 323.062479 -174.831089 
L 326.341818 -174.140319 
L 329.621157 -173.539334 
L 332.900496 -173.073147 
L 336.179835 -172.756871 
L 339.459174 -172.576983 
L 342.738512 -172.500208 
L 346.017851 -172.486223 
L 349.29719 -172.499551 
L 352.576529 -172.516804 
L 355.855868 -172.52755 
L 359.135207 -172.529786 
L 362.414545 -172.523155 
L 365.693884 -172.5037 
L 368.973223 -172.462737 
L 372.252562 -172.389987 
L 375.531901 -172.278841 
L 378.81124 -172.130631 
L 382.090579 -171.955632 
L 385.369917 -171.770401 
L 388.649256 -171.592928 
L 391.928595 -171.437857 
L 395.207934 -171.313583 
L 398.487273 -171.221841 
L 398.487273 -170.922159 
L 398.487273 -170.922159 
L 395.207934 -170.830417 
L 391.928595 -170.706143 
L 388.649256 -170.551072 
L 385.369917 -170.373599 
L 382.090579 -170.188368 
L 378.81124 -170.013369 
L 375.531901 -169.865159 
L 372.252562 -169.754013 
L 368.973223 -169.681263 
L 365.693884 -169.6403 
L 362.414545 -169.620845 
L 359.135207 -169.614214 
L 355.855868 -169.61645 
L 352.576529 -169.627196 
L 349.29719 -169.644449 
L 346.017851 -169.657777 
L 342.738512 -169.643792 
L 339.459174 -169.567017 
L 336.179835 -169.387129 
L 332.900496 -169.070853 
L 329.621157 -168.604666 
L 326.341818 -168.003681 
L 323.062479 -167.312911 
L 319.78314 -166.599437 
L 316.503802 -165.937061 
L 313.224463 -165.387815 
L 309.945124 -164.985918 
L 306.665785 -164.728775 
L 303.386446 -164.576868 
L 300.107107 -164.461256 
L 296.827769 -164.295574 
L 293.54843 -163.989573 
L 290.269091 -163.462654 
L 286.989752 -162.656995 
L 283.710413 -161.549459 
L 280.431074 -160.159616 
L 277.151736 -158.549419 
L 273.872397 -156.810217 
L 270.593058 -155.036015 
L 267.313719 -153.287477 
L 264.03438 -151.55683 
L 260.755041 -149.746706 
L 257.475702 -147.673989 
L 254.196364 -145.102837 
L 250.917025 -141.801263 
L 247.637686 -137.606472 
L 244.358347 -132.479015 
L 241.079008 -126.527115 
L 237.799669 -119.990637 
L 234.520331 -113.187057 
L 231.240992 -106.435376 
L 227.961653 -99.98286 
L 224.682314 -93.959348 
L 221.402975 -88.373655 
L 218.123636 -83.149843 
L 214.844298 -78.185545 
L 211.564959 -73.407516 
L 208.28562 -68.804675 
L 205.006281 -64.432452 
L 201.726942 -60.396405 
L 198.447603 -56.829779 
L 195.168264 -53.876543 
L 191.888926 -51.682187 
L 188.609587 -50.386616 
L 185.330248 -50.112 
L 182.050909 -50.943782 
L 178.77157 -52.910474 
L 175.492231 -55.97183 
L 172.212893 -60.022639 
L 168.933554 -64.91225 
L 165.654215 -70.472403 
L 162.374876 -76.542227 
L 159.095537 -82.981154 
L 155.816198 -89.6667 
L 152.53686 -96.481548 
L 149.257521 -103.299488 
L 145.978182 -109.980207 
L 142.698843 -116.378218 
L 139.419504 -122.363573 
L 136.140165 -127.845251 
L 132.860826 -132.786092 
L 129.581488 -137.202155 
L 126.302149 -141.147247 
L 123.02281 -144.690507 
L 119.743471 -147.897209 
L 116.464132 -150.819396 
L 113.184793 -153.496347 
L 109.905455 -155.959515 
L 106.626116 -158.235579 
L 103.346777 -160.344577 
L 100.067438 -162.294874 
L 96.788099 -164.079547 
L 93.50876 -165.678177 
L 90.229421 -167.064617 
L 86.950083 -168.217788 
L 83.670744 -169.130915 
L 80.391405 -169.815639 
L 77.112066 -170.300121 
L 73.832727 -170.622806 
z
" id="m7f84d8de52" style="stroke:#262626;stroke-opacity:0.5;stroke-width:1.5;"/>
    </defs>
    <g clip-path="url(#pa6b7ccf61d)">
     <use style="fill:#107010;fill-opacity:0.5;stroke:#262626;stroke-opacity:0.5;stroke-width:1.5;" x="0" xlink:href="#m7f84d8de52" y="345.6"/>
    </g>
   </g>
   <g id="matplotlib.axis_1">
    <g id="xtick_1">
     <g id="line2d_1">
      <defs>
       <path d="M 0 0 
L 0 3.5 
" id="m3b62233f84" style="stroke:#000000;stroke-width:0.8;"/>
      </defs>
      <g>
       <use style="stroke:#000000;stroke-width:0.8;" x="98.053507" xlink:href="#m3b62233f84" y="307.584"/>
      </g>
     </g>
     <g id="text_1">
      <!-- 0 -->
      <defs>
       <path d="M 31.78125 66.40625 
Q 24.171875 66.40625 20.328125 58.90625 
Q 16.5 51.421875 16.5 36.375 
Q 16.5 21.390625 20.328125 13.890625 
Q 24.171875 6.390625 31.78125 6.390625 
Q 39.453125 6.390625 43.28125 13.890625 
Q 47.125 21.390625 47.125 36.375 
Q 47.125 51.421875 43.28125 58.90625 
Q 39.453125 66.40625 31.78125 66.40625 
z
M 31.78125 74.21875 
Q 44.046875 74.21875 50.515625 64.515625 
Q 56.984375 54.828125 56.984375 36.375 
Q 56.984375 17.96875 50.515625 8.265625 
Q 44.046875 -1.421875 31.78125 -1.421875 
Q 19.53125 -1.421875 13.0625 8.265625 
Q 6.59375 17.96875 6.59375 36.375 
Q 6.59375 54.828125 13.0625 64.515625 
Q 19.53125 74.21875 31.78125 74.21875 
z
" id="DejaVuSans-48"/>
      </defs>
      <g transform="translate(94.872257 322.182437)scale(0.1 -0.1)">
       <use xlink:href="#DejaVuSans-48"/>
      </g>
     </g>
    </g>
    <g id="xtick_2">
     <g id="line2d_2">
      <g>
       <use style="stroke:#000000;stroke-width:0.8;" x="153.18584" xlink:href="#m3b62233f84" y="307.584"/>
      </g>
     </g>
     <g id="text_2">
      <!-- 100 -->
      <defs>
       <path d="M 12.40625 8.296875 
L 28.515625 8.296875 
L 28.515625 63.921875 
L 10.984375 60.40625 
L 10.984375 69.390625 
L 28.421875 72.90625 
L 38.28125 72.90625 
L 38.28125 8.296875 
L 54.390625 8.296875 
L 54.390625 0 
L 12.40625 0 
z
" id="DejaVuSans-49"/>
      </defs>
      <g transform="translate(143.64209 322.182437)scale(0.1 -0.1)">
       <use xlink:href="#DejaVuSans-49"/>
       <use x="63.623047" xlink:href="#DejaVuSans-48"/>
       <use x="127.246094" xlink:href="#DejaVuSans-48"/>
      </g>
     </g>
    </g>
    <g id="xtick_3">
     <g id="line2d_3">
      <g>
       <use style="stroke:#000000;stroke-width:0.8;" x="208.318172" xlink:href="#m3b62233f84" y="307.584"/>
      </g>
     </g>
     <g id="text_3">
      <!-- 200 -->
      <defs>
       <path d="M 19.1875 8.296875 
L 53.609375 8.296875 
L 53.609375 0 
L 7.328125 0 
L 7.328125 8.296875 
Q 12.9375 14.109375 22.625 23.890625 
Q 32.328125 33.6875 34.8125 36.53125 
Q 39.546875 41.84375 41.421875 45.53125 
Q 43.3125 49.21875 43.3125 52.78125 
Q 43.3125 58.59375 39.234375 62.25 
Q 35.15625 65.921875 28.609375 65.921875 
Q 23.96875 65.921875 18.8125 64.3125 
Q 13.671875 62.703125 7.8125 59.421875 
L 7.8125 69.390625 
Q 13.765625 71.78125 18.9375 73 
Q 24.125 74.21875 28.421875 74.21875 
Q 39.75 74.21875 46.484375 68.546875 
Q 53.21875 62.890625 53.21875 53.421875 
Q 53.21875 48.921875 51.53125 44.890625 
Q 49.859375 40.875 45.40625 35.40625 
Q 44.1875 33.984375 37.640625 27.21875 
Q 31.109375 20.453125 19.1875 8.296875 
z
" id="DejaVuSans-50"/>
      </defs>
      <g transform="translate(198.774422 322.182437)scale(0.1 -0.1)">
       <use xlink:href="#DejaVuSans-50"/>
       <use x="63.623047" xlink:href="#DejaVuSans-48"/>
       <use x="127.246094" xlink:href="#DejaVuSans-48"/>
      </g>
     </g>
    </g>
    <g id="xtick_4">
     <g id="line2d_4">
      <g>
       <use style="stroke:#000000;stroke-width:0.8;" x="263.450505" xlink:href="#m3b62233f84" y="307.584"/>
      </g>
     </g>
     <g id="text_4">
      <!-- 300 -->
      <defs>
       <path d="M 40.578125 39.3125 
Q 47.65625 37.796875 51.625 33 
Q 55.609375 28.21875 55.609375 21.1875 
Q 55.609375 10.40625 48.1875 4.484375 
Q 40.765625 -1.421875 27.09375 -1.421875 
Q 22.515625 -1.421875 17.65625 -0.515625 
Q 12.796875 0.390625 7.625 2.203125 
L 7.625 11.71875 
Q 11.71875 9.328125 16.59375 8.109375 
Q 21.484375 6.890625 26.8125 6.890625 
Q 36.078125 6.890625 40.9375 10.546875 
Q 45.796875 14.203125 45.796875 21.1875 
Q 45.796875 27.640625 41.28125 31.265625 
Q 36.765625 34.90625 28.71875 34.90625 
L 20.21875 34.90625 
L 20.21875 43.015625 
L 29.109375 43.015625 
Q 36.375 43.015625 40.234375 45.921875 
Q 44.09375 48.828125 44.09375 54.296875 
Q 44.09375 59.90625 40.109375 62.90625 
Q 36.140625 65.921875 28.71875 65.921875 
Q 24.65625 65.921875 20.015625 65.03125 
Q 15.375 64.15625 9.8125 62.3125 
L 9.8125 71.09375 
Q 15.4375 72.65625 20.34375 73.4375 
Q 25.25 74.21875 29.59375 74.21875 
Q 40.828125 74.21875 47.359375 69.109375 
Q 53.90625 64.015625 53.90625 55.328125 
Q 53.90625 49.265625 50.4375 45.09375 
Q 46.96875 40.921875 40.578125 39.3125 
z
" id="DejaVuSans-51"/>
      </defs>
      <g transform="translate(253.906755 322.182437)scale(0.1 -0.1)">
       <use xlink:href="#DejaVuSans-51"/>
       <use x="63.623047" xlink:href="#DejaVuSans-48"/>
       <use x="127.246094" xlink:href="#DejaVuSans-48"/>
      </g>
     </g>
    </g>
    <g id="xtick_5">
     <g id="line2d_5">
      <g>
       <use style="stroke:#000000;stroke-width:0.8;" x="318.582837" xlink:href="#m3b62233f84" y="307.584"/>
      </g>
     </g>
     <g id="text_5">
      <!-- 400 -->
      <defs>
       <path d="M 37.796875 64.3125 
L 12.890625 25.390625 
L 37.796875 25.390625 
z
M 35.203125 72.90625 
L 47.609375 72.90625 
L 47.609375 25.390625 
L 58.015625 25.390625 
L 58.015625 17.1875 
L 47.609375 17.1875 
L 47.609375 0 
L 37.796875 0 
L 37.796875 17.1875 
L 4.890625 17.1875 
L 4.890625 26.703125 
z
" id="DejaVuSans-52"/>
      </defs>
      <g transform="translate(309.039087 322.182437)scale(0.1 -0.1)">
       <use xlink:href="#DejaVuSans-52"/>
       <use x="63.623047" xlink:href="#DejaVuSans-48"/>
       <use x="127.246094" xlink:href="#DejaVuSans-48"/>
      </g>
     </g>
    </g>
    <g id="xtick_6">
     <g id="line2d_6">
      <g>
       <use style="stroke:#000000;stroke-width:0.8;" x="373.715169" xlink:href="#m3b62233f84" y="307.584"/>
      </g>
     </g>
     <g id="text_6">
      <!-- 500 -->
      <defs>
       <path d="M 10.796875 72.90625 
L 49.515625 72.90625 
L 49.515625 64.59375 
L 19.828125 64.59375 
L 19.828125 46.734375 
Q 21.96875 47.46875 24.109375 47.828125 
Q 26.265625 48.1875 28.421875 48.1875 
Q 40.625 48.1875 47.75 41.5 
Q 54.890625 34.8125 54.890625 23.390625 
Q 54.890625 11.625 47.5625 5.09375 
Q 40.234375 -1.421875 26.90625 -1.421875 
Q 22.3125 -1.421875 17.546875 -0.640625 
Q 12.796875 0.140625 7.71875 1.703125 
L 7.71875 11.625 
Q 12.109375 9.234375 16.796875 8.0625 
Q 21.484375 6.890625 26.703125 6.890625 
Q 35.15625 6.890625 40.078125 11.328125 
Q 45.015625 15.765625 45.015625 23.390625 
Q 45.015625 31 40.078125 35.4375 
Q 35.15625 39.890625 26.703125 39.890625 
Q 22.75 39.890625 18.8125 39.015625 
Q 14.890625 38.140625 10.796875 36.28125 
z
" id="DejaVuSans-53"/>
      </defs>
      <g transform="translate(364.171419 322.182437)scale(0.1 -0.1)">
       <use xlink:href="#DejaVuSans-53"/>
       <use x="63.623047" xlink:href="#DejaVuSans-48"/>
       <use x="127.246094" xlink:href="#DejaVuSans-48"/>
      </g>
     </g>
    </g>
    <g id="text_7">
     <!-- pltnadirac -->
     <defs>
      <path d="M 18.109375 8.203125 
L 18.109375 -20.796875 
L 9.078125 -20.796875 
L 9.078125 54.6875 
L 18.109375 54.6875 
L 18.109375 46.390625 
Q 20.953125 51.265625 25.265625 53.625 
Q 29.59375 56 35.59375 56 
Q 45.5625 56 51.78125 48.09375 
Q 58.015625 40.1875 58.015625 27.296875 
Q 58.015625 14.40625 51.78125 6.484375 
Q 45.5625 -1.421875 35.59375 -1.421875 
Q 29.59375 -1.421875 25.265625 0.953125 
Q 20.953125 3.328125 18.109375 8.203125 
z
M 48.6875 27.296875 
Q 48.6875 37.203125 44.609375 42.84375 
Q 40.53125 48.484375 33.40625 48.484375 
Q 26.265625 48.484375 22.1875 42.84375 
Q 18.109375 37.203125 18.109375 27.296875 
Q 18.109375 17.390625 22.1875 11.75 
Q 26.265625 6.109375 33.40625 6.109375 
Q 40.53125 6.109375 44.609375 11.75 
Q 48.6875 17.390625 48.6875 27.296875 
z
" id="DejaVuSans-112"/>
      <path d="M 9.421875 75.984375 
L 18.40625 75.984375 
L 18.40625 0 
L 9.421875 0 
z
" id="DejaVuSans-108"/>
      <path d="M 18.3125 70.21875 
L 18.3125 54.6875 
L 36.8125 54.6875 
L 36.8125 47.703125 
L 18.3125 47.703125 
L 18.3125 18.015625 
Q 18.3125 11.328125 20.140625 9.421875 
Q 21.96875 7.515625 27.59375 7.515625 
L 36.8125 7.515625 
L 36.8125 0 
L 27.59375 0 
Q 17.1875 0 13.234375 3.875 
Q 9.28125 7.765625 9.28125 18.015625 
L 9.28125 47.703125 
L 2.6875 47.703125 
L 2.6875 54.6875 
L 9.28125 54.6875 
L 9.28125 70.21875 
z
" id="DejaVuSans-116"/>
      <path d="M 54.890625 33.015625 
L 54.890625 0 
L 45.90625 0 
L 45.90625 32.71875 
Q 45.90625 40.484375 42.875 44.328125 
Q 39.84375 48.1875 33.796875 48.1875 
Q 26.515625 48.1875 22.3125 43.546875 
Q 18.109375 38.921875 18.109375 30.90625 
L 18.109375 0 
L 9.078125 0 
L 9.078125 54.6875 
L 18.109375 54.6875 
L 18.109375 46.1875 
Q 21.34375 51.125 25.703125 53.5625 
Q 30.078125 56 35.796875 56 
Q 45.21875 56 50.046875 50.171875 
Q 54.890625 44.34375 54.890625 33.015625 
z
" id="DejaVuSans-110"/>
      <path d="M 34.28125 27.484375 
Q 23.390625 27.484375 19.1875 25 
Q 14.984375 22.515625 14.984375 16.5 
Q 14.984375 11.71875 18.140625 8.90625 
Q 21.296875 6.109375 26.703125 6.109375 
Q 34.1875 6.109375 38.703125 11.40625 
Q 43.21875 16.703125 43.21875 25.484375 
L 43.21875 27.484375 
z
M 52.203125 31.203125 
L 52.203125 0 
L 43.21875 0 
L 43.21875 8.296875 
Q 40.140625 3.328125 35.546875 0.953125 
Q 30.953125 -1.421875 24.3125 -1.421875 
Q 15.921875 -1.421875 10.953125 3.296875 
Q 6 8.015625 6 15.921875 
Q 6 25.140625 12.171875 29.828125 
Q 18.359375 34.515625 30.609375 34.515625 
L 43.21875 34.515625 
L 43.21875 35.40625 
Q 43.21875 41.609375 39.140625 45 
Q 35.0625 48.390625 27.6875 48.390625 
Q 23 48.390625 18.546875 47.265625 
Q 14.109375 46.140625 10.015625 43.890625 
L 10.015625 52.203125 
Q 14.9375 54.109375 19.578125 55.046875 
Q 24.21875 56 28.609375 56 
Q 40.484375 56 46.34375 49.84375 
Q 52.203125 43.703125 52.203125 31.203125 
z
" id="DejaVuSans-97"/>
      <path d="M 45.40625 46.390625 
L 45.40625 75.984375 
L 54.390625 75.984375 
L 54.390625 0 
L 45.40625 0 
L 45.40625 8.203125 
Q 42.578125 3.328125 38.25 0.953125 
Q 33.9375 -1.421875 27.875 -1.421875 
Q 17.96875 -1.421875 11.734375 6.484375 
Q 5.515625 14.40625 5.515625 27.296875 
Q 5.515625 40.1875 11.734375 48.09375 
Q 17.96875 56 27.875 56 
Q 33.9375 56 38.25 53.625 
Q 42.578125 51.265625 45.40625 46.390625 
z
M 14.796875 27.296875 
Q 14.796875 17.390625 18.875 11.75 
Q 22.953125 6.109375 30.078125 6.109375 
Q 37.203125 6.109375 41.296875 11.75 
Q 45.40625 17.390625 45.40625 27.296875 
Q 45.40625 37.203125 41.296875 42.84375 
Q 37.203125 48.484375 30.078125 48.484375 
Q 22.953125 48.484375 18.875 42.84375 
Q 14.796875 37.203125 14.796875 27.296875 
z
" id="DejaVuSans-100"/>
      <path d="M 9.421875 54.6875 
L 18.40625 54.6875 
L 18.40625 0 
L 9.421875 0 
z
M 9.421875 75.984375 
L 18.40625 75.984375 
L 18.40625 64.59375 
L 9.421875 64.59375 
z
" id="DejaVuSans-105"/>
      <path d="M 41.109375 46.296875 
Q 39.59375 47.171875 37.8125 47.578125 
Q 36.03125 48 33.890625 48 
Q 26.265625 48 22.1875 43.046875 
Q 18.109375 38.09375 18.109375 28.8125 
L 18.109375 0 
L 9.078125 0 
L 9.078125 54.6875 
L 18.109375 54.6875 
L 18.109375 46.1875 
Q 20.953125 51.171875 25.484375 53.578125 
Q 30.03125 56 36.53125 56 
Q 37.453125 56 38.578125 55.875 
Q 39.703125 55.765625 41.0625 55.515625 
z
" id="DejaVuSans-114"/>
      <path d="M 48.78125 52.59375 
L 48.78125 44.1875 
Q 44.96875 46.296875 41.140625 47.34375 
Q 37.3125 48.390625 33.40625 48.390625 
Q 24.65625 48.390625 19.8125 42.84375 
Q 14.984375 37.3125 14.984375 27.296875 
Q 14.984375 17.28125 19.8125 11.734375 
Q 24.65625 6.203125 33.40625 6.203125 
Q 37.3125 6.203125 41.140625 7.25 
Q 44.96875 8.296875 48.78125 10.40625 
L 48.78125 2.09375 
Q 45.015625 0.34375 40.984375 -0.53125 
Q 36.96875 -1.421875 32.421875 -1.421875 
Q 20.0625 -1.421875 12.78125 6.34375 
Q 5.515625 14.109375 5.515625 27.296875 
Q 5.515625 40.671875 12.859375 48.328125 
Q 20.21875 56 33.015625 56 
Q 37.15625 56 41.109375 55.140625 
Q 45.0625 54.296875 48.78125 52.59375 
z
" id="DejaVuSans-99"/>
     </defs>
     <g transform="translate(210.971719 335.860562)scale(0.1 -0.1)">
      <use xlink:href="#DejaVuSans-112"/>
      <use x="63.476562" xlink:href="#DejaVuSans-108"/>
      <use x="91.259766" xlink:href="#DejaVuSans-116"/>
      <use x="130.46875" xlink:href="#DejaVuSans-110"/>
      <use x="193.847656" xlink:href="#DejaVuSans-97"/>
      <use x="255.126953" xlink:href="#DejaVuSans-100"/>
      <use x="318.603516" xlink:href="#DejaVuSans-105"/>
      <use x="346.386719" xlink:href="#DejaVuSans-114"/>
      <use x="387.5" xlink:href="#DejaVuSans-97"/>
      <use x="448.779297" xlink:href="#DejaVuSans-99"/>
     </g>
    </g>
   </g>
   <g id="matplotlib.axis_2">
    <g id="ytick_1">
     <g id="line2d_7">
      <defs>
       <path d="M 0 0 
L -3.5 0 
" id="m22ba1b6174" style="stroke:#000000;stroke-width:0.8;"/>
      </defs>
      <g>
       <use style="stroke:#000000;stroke-width:0.8;" x="57.6" xlink:href="#m22ba1b6174" y="174.528"/>
      </g>
     </g>
    </g>
   </g>
   <g id="line2d_8">
    <path clip-path="url(#pa6b7ccf61d)" d="M 106.874681 174.528 
L 278.336234 174.528 
" style="fill:none;stroke:#ffa500;stroke-linecap:square;stroke-width:1.5;"/>
   </g>
   <g id="line2d_9">
    <path clip-path="url(#pa6b7ccf61d)" d="M 161.45569 174.528 
L 209.007326 174.528 
" style="fill:none;stroke:#4c4c4c;stroke-linecap:square;stroke-width:4.5;"/>
   </g>
   <g id="line2d_10">
    <path clip-path="url(#pa6b7ccf61d)" d="M 99.707477 174.528 
L 290.465347 174.528 
" style="fill:none;stroke:#008000;stroke-linecap:square;stroke-width:1.5;"/>
   </g>
   <g id="line2d_11">
    <path clip-path="url(#pa6b7ccf61d)" d="M 165.590615 174.528 
L 215.761037 174.528 
" style="fill:none;stroke:#262626;stroke-linecap:square;stroke-width:4.5;"/>
   </g>
   <g id="patch_3">
    <path d="M 57.6 307.584 
L 57.6 41.472 
" style="fill:none;stroke:#000000;stroke-linecap:square;stroke-linejoin:miter;stroke-width:0.8;"/>
   </g>
   <g id="patch_4">
    <path d="M 414.72 307.584 
L 414.72 41.472 
" style="fill:none;stroke:#000000;stroke-linecap:square;stroke-linejoin:miter;stroke-width:0.8;"/>
   </g>
   <g id="patch_5">
    <path d="M 57.6 307.584 
L 414.72 307.584 
" style="fill:none;stroke:#000000;stroke-linecap:square;stroke-linejoin:miter;stroke-width:0.8;"/>
   </g>
   <g id="patch_6">
    <path d="M 57.6 41.472 
L 414.72 41.472 
" style="fill:none;stroke:#000000;stroke-linecap:square;stroke-linejoin:miter;stroke-width:0.8;"/>
   </g>
   <g id="PathCollection_1">
    <defs>
     <path d="M 0 1.5 
C 0.397805 1.5 0.77937 1.341951 1.06066 1.06066 
C 1.341951 0.77937 1.5 0.397805 1.5 0 
C 1.5 -0.397805 1.341951 -0.77937 1.06066 -1.06066 
C 0.77937 -1.341951 0.397805 -1.5 0 -1.5 
C -0.397805 -1.5 -0.77937 -1.341951 -1.06066 -1.06066 
C -1.341951 -0.77937 -1.5 -0.397805 -1.5 0 
C -1.5 0.397805 -1.341951 0.77937 -1.06066 1.06066 
C -0.77937 1.341951 -0.397805 1.5 0 1.5 
z
" id="m145272a0b2" style="stroke:#4c4c4c;stroke-opacity:0.5;"/>
    </defs>
    <g clip-path="url(#pa6b7ccf61d)">
     <use style="fill:#ffffff;fill-opacity:0.5;stroke:#4c4c4c;stroke-opacity:0.5;" x="183.784284" xlink:href="#m145272a0b2" y="174.528"/>
    </g>
   </g>
   <g id="PathCollection_2">
    <defs>
     <path d="M 0 1.5 
C 0.397805 1.5 0.77937 1.341951 1.06066 1.06066 
C 1.341951 0.77937 1.5 0.397805 1.5 0 
C 1.5 -0.397805 1.341951 -0.77937 1.06066 -1.06066 
C 0.77937 -1.341951 0.397805 -1.5 0 -1.5 
C -0.397805 -1.5 -0.77937 -1.341951 -1.06066 -1.06066 
C -1.341951 -0.77937 -1.5 -0.397805 -1.5 0 
C -1.5 0.397805 -1.341951 0.77937 -1.06066 1.06066 
C -0.77937 1.341951 -0.397805 1.5 0 1.5 
z
" id="m8771b480e4" style="stroke:#262626;stroke-opacity:0.5;"/>
    </defs>
    <g clip-path="url(#pa6b7ccf61d)">
     <use style="fill:#ffffff;fill-opacity:0.5;stroke:#262626;stroke-opacity:0.5;" x="189.573179" xlink:href="#m8771b480e4" y="174.528"/>
    </g>
   </g>
   <g id="text_8">
    <!-- Association of pltnadirac vs. sepsis -->
    <defs>
     <path d="M 34.1875 63.1875 
L 20.796875 26.90625 
L 47.609375 26.90625 
z
M 28.609375 72.90625 
L 39.796875 72.90625 
L 67.578125 0 
L 57.328125 0 
L 50.6875 18.703125 
L 17.828125 18.703125 
L 11.1875 0 
L 0.78125 0 
z
" id="DejaVuSans-65"/>
     <path d="M 44.28125 53.078125 
L 44.28125 44.578125 
Q 40.484375 46.53125 36.375 47.5 
Q 32.28125 48.484375 27.875 48.484375 
Q 21.1875 48.484375 17.84375 46.4375 
Q 14.5 44.390625 14.5 40.28125 
Q 14.5 37.15625 16.890625 35.375 
Q 19.28125 33.59375 26.515625 31.984375 
L 29.59375 31.296875 
Q 39.15625 29.25 43.1875 25.515625 
Q 47.21875 21.78125 47.21875 15.09375 
Q 47.21875 7.46875 41.1875 3.015625 
Q 35.15625 -1.421875 24.609375 -1.421875 
Q 20.21875 -1.421875 15.453125 -0.5625 
Q 10.6875 0.296875 5.421875 2 
L 5.421875 11.28125 
Q 10.40625 8.6875 15.234375 7.390625 
Q 20.0625 6.109375 24.8125 6.109375 
Q 31.15625 6.109375 34.5625 8.28125 
Q 37.984375 10.453125 37.984375 14.40625 
Q 37.984375 18.0625 35.515625 20.015625 
Q 33.0625 21.96875 24.703125 23.78125 
L 21.578125 24.515625 
Q 13.234375 26.265625 9.515625 29.90625 
Q 5.8125 33.546875 5.8125 39.890625 
Q 5.8125 47.609375 11.28125 51.796875 
Q 16.75 56 26.8125 56 
Q 31.78125 56 36.171875 55.265625 
Q 40.578125 54.546875 44.28125 53.078125 
z
" id="DejaVuSans-115"/>
     <path d="M 30.609375 48.390625 
Q 23.390625 48.390625 19.1875 42.75 
Q 14.984375 37.109375 14.984375 27.296875 
Q 14.984375 17.484375 19.15625 11.84375 
Q 23.34375 6.203125 30.609375 6.203125 
Q 37.796875 6.203125 41.984375 11.859375 
Q 46.1875 17.53125 46.1875 27.296875 
Q 46.1875 37.015625 41.984375 42.703125 
Q 37.796875 48.390625 30.609375 48.390625 
z
M 30.609375 56 
Q 42.328125 56 49.015625 48.375 
Q 55.71875 40.765625 55.71875 27.296875 
Q 55.71875 13.875 49.015625 6.21875 
Q 42.328125 -1.421875 30.609375 -1.421875 
Q 18.84375 -1.421875 12.171875 6.21875 
Q 5.515625 13.875 5.515625 27.296875 
Q 5.515625 40.765625 12.171875 48.375 
Q 18.84375 56 30.609375 56 
z
" id="DejaVuSans-111"/>
     <path id="DejaVuSans-32"/>
     <path d="M 37.109375 75.984375 
L 37.109375 68.5 
L 28.515625 68.5 
Q 23.6875 68.5 21.796875 66.546875 
Q 19.921875 64.59375 19.921875 59.515625 
L 19.921875 54.6875 
L 34.71875 54.6875 
L 34.71875 47.703125 
L 19.921875 47.703125 
L 19.921875 0 
L 10.890625 0 
L 10.890625 47.703125 
L 2.296875 47.703125 
L 2.296875 54.6875 
L 10.890625 54.6875 
L 10.890625 58.5 
Q 10.890625 67.625 15.140625 71.796875 
Q 19.390625 75.984375 28.609375 75.984375 
z
" id="DejaVuSans-102"/>
     <path d="M 2.984375 54.6875 
L 12.5 54.6875 
L 29.59375 8.796875 
L 46.6875 54.6875 
L 56.203125 54.6875 
L 35.6875 0 
L 23.484375 0 
z
" id="DejaVuSans-118"/>
     <path d="M 10.6875 12.40625 
L 21 12.40625 
L 21 0 
L 10.6875 0 
z
" id="DejaVuSans-46"/>
     <path d="M 56.203125 29.59375 
L 56.203125 25.203125 
L 14.890625 25.203125 
Q 15.484375 15.921875 20.484375 11.0625 
Q 25.484375 6.203125 34.421875 6.203125 
Q 39.59375 6.203125 44.453125 7.46875 
Q 49.3125 8.734375 54.109375 11.28125 
L 54.109375 2.78125 
Q 49.265625 0.734375 44.1875 -0.34375 
Q 39.109375 -1.421875 33.890625 -1.421875 
Q 20.796875 -1.421875 13.15625 6.1875 
Q 5.515625 13.8125 5.515625 26.8125 
Q 5.515625 40.234375 12.765625 48.109375 
Q 20.015625 56 32.328125 56 
Q 43.359375 56 49.78125 48.890625 
Q 56.203125 41.796875 56.203125 29.59375 
z
M 47.21875 32.234375 
Q 47.125 39.59375 43.09375 43.984375 
Q 39.0625 48.390625 32.421875 48.390625 
Q 24.90625 48.390625 20.390625 44.140625 
Q 15.875 39.890625 15.1875 32.171875 
z
" id="DejaVuSans-101"/>
    </defs>
    <g transform="translate(131.232188 35.472)scale(0.12 -0.12)">
     <use xlink:href="#DejaVuSans-65"/>
     <use x="68.408203" xlink:href="#DejaVuSans-115"/>
     <use x="120.507812" xlink:href="#DejaVuSans-115"/>
     <use x="172.607422" xlink:href="#DejaVuSans-111"/>
     <use x="233.789062" xlink:href="#DejaVuSans-99"/>
     <use x="288.769531" xlink:href="#DejaVuSans-105"/>
     <use x="316.552734" xlink:href="#DejaVuSans-97"/>
     <use x="377.832031" xlink:href="#DejaVuSans-116"/>
     <use x="417.041016" xlink:href="#DejaVuSans-105"/>
     <use x="444.824219" xlink:href="#DejaVuSans-111"/>
     <use x="506.005859" xlink:href="#DejaVuSans-110"/>
     <use x="569.384766" xlink:href="#DejaVuSans-32"/>
     <use x="601.171875" xlink:href="#DejaVuSans-111"/>
     <use x="662.353516" xlink:href="#DejaVuSans-102"/>
     <use x="697.558594" xlink:href="#DejaVuSans-32"/>
     <use x="729.345703" xlink:href="#DejaVuSans-112"/>
     <use x="792.822266" xlink:href="#DejaVuSans-108"/>
     <use x="820.605469" xlink:href="#DejaVuSans-116"/>
     <use x="859.814453" xlink:href="#DejaVuSans-110"/>
     <use x="923.193359" xlink:href="#DejaVuSans-97"/>
     <use x="984.472656" xlink:href="#DejaVuSans-100"/>
     <use x="1047.949219" xlink:href="#DejaVuSans-105"/>
     <use x="1075.732422" xlink:href="#DejaVuSans-114"/>
     <use x="1116.845703" xlink:href="#DejaVuSans-97"/>
     <use x="1178.125" xlink:href="#DejaVuSans-99"/>
     <use x="1233.105469" xlink:href="#DejaVuSans-32"/>
     <use x="1264.892578" xlink:href="#DejaVuSans-118"/>
     <use x="1324.072266" xlink:href="#DejaVuSans-115"/>
     <use x="1376.171875" xlink:href="#DejaVuSans-46"/>
     <use x="1407.958984" xlink:href="#DejaVuSans-32"/>
     <use x="1439.746094" xlink:href="#DejaVuSans-115"/>
     <use x="1491.845703" xlink:href="#DejaVuSans-101"/>
     <use x="1553.369141" xlink:href="#DejaVuSans-112"/>
     <use x="1616.845703" xlink:href="#DejaVuSans-115"/>
     <use x="1668.945312" xlink:href="#DejaVuSans-105"/>
     <use x="1696.728516" xlink:href="#DejaVuSans-115"/>
    </g>
   </g>
   <g id="legend_1">
    <g id="patch_7">
     <path d="M 294.045 78.82825 
L 407.72 78.82825 
Q 409.72 78.82825 409.72 76.82825 
L 409.72 48.472 
Q 409.72 46.472 407.72 46.472 
L 294.045 46.472 
Q 292.045 46.472 292.045 48.472 
L 292.045 76.82825 
Q 292.045 78.82825 294.045 78.82825 
z
" style="fill:#ffffff;opacity:0.8;stroke:#cccccc;stroke-linejoin:miter;"/>
    </g>
    <g id="line2d_12">
     <path d="M 296.045 54.570437 
L 316.045 54.570437 
" style="fill:none;stroke:#ffa500;stroke-linecap:square;stroke-width:1.5;"/>
    </g>
    <g id="line2d_13"/>
    <g id="text_9">
     <!-- sepsis (162) -->
     <defs>
      <path d="M 31 75.875 
Q 24.46875 64.65625 21.28125 53.65625 
Q 18.109375 42.671875 18.109375 31.390625 
Q 18.109375 20.125 21.3125 9.0625 
Q 24.515625 -2 31 -13.1875 
L 23.1875 -13.1875 
Q 15.875 -1.703125 12.234375 9.375 
Q 8.59375 20.453125 8.59375 31.390625 
Q 8.59375 42.28125 12.203125 53.3125 
Q 15.828125 64.359375 23.1875 75.875 
z
" id="DejaVuSans-40"/>
      <path d="M 33.015625 40.375 
Q 26.375 40.375 22.484375 35.828125 
Q 18.609375 31.296875 18.609375 23.390625 
Q 18.609375 15.53125 22.484375 10.953125 
Q 26.375 6.390625 33.015625 6.390625 
Q 39.65625 6.390625 43.53125 10.953125 
Q 47.40625 15.53125 47.40625 23.390625 
Q 47.40625 31.296875 43.53125 35.828125 
Q 39.65625 40.375 33.015625 40.375 
z
M 52.59375 71.296875 
L 52.59375 62.3125 
Q 48.875 64.0625 45.09375 64.984375 
Q 41.3125 65.921875 37.59375 65.921875 
Q 27.828125 65.921875 22.671875 59.328125 
Q 17.53125 52.734375 16.796875 39.40625 
Q 19.671875 43.65625 24.015625 45.921875 
Q 28.375 48.1875 33.59375 48.1875 
Q 44.578125 48.1875 50.953125 41.515625 
Q 57.328125 34.859375 57.328125 23.390625 
Q 57.328125 12.15625 50.6875 5.359375 
Q 44.046875 -1.421875 33.015625 -1.421875 
Q 20.359375 -1.421875 13.671875 8.265625 
Q 6.984375 17.96875 6.984375 36.375 
Q 6.984375 53.65625 15.1875 63.9375 
Q 23.390625 74.21875 37.203125 74.21875 
Q 40.921875 74.21875 44.703125 73.484375 
Q 48.484375 72.75 52.59375 71.296875 
z
" id="DejaVuSans-54"/>
      <path d="M 8.015625 75.875 
L 15.828125 75.875 
Q 23.140625 64.359375 26.78125 53.3125 
Q 30.421875 42.28125 30.421875 31.390625 
Q 30.421875 20.453125 26.78125 9.375 
Q 23.140625 -1.703125 15.828125 -13.1875 
L 8.015625 -13.1875 
Q 14.5 -2 17.703125 9.0625 
Q 20.90625 20.125 20.90625 31.390625 
Q 20.90625 42.671875 17.703125 53.65625 
Q 14.5 64.65625 8.015625 75.875 
z
" id="DejaVuSans-41"/>
     </defs>
     <g transform="translate(324.045 58.070437)scale(0.1 -0.1)">
      <use xlink:href="#DejaVuSans-115"/>
      <use x="52.099609" xlink:href="#DejaVuSans-101"/>
      <use x="113.623047" xlink:href="#DejaVuSans-112"/>
      <use x="177.099609" xlink:href="#DejaVuSans-115"/>
      <use x="229.199219" xlink:href="#DejaVuSans-105"/>
      <use x="256.982422" xlink:href="#DejaVuSans-115"/>
      <use x="309.082031" xlink:href="#DejaVuSans-32"/>
      <use x="340.869141" xlink:href="#DejaVuSans-40"/>
      <use x="379.882812" xlink:href="#DejaVuSans-49"/>
      <use x="443.505859" xlink:href="#DejaVuSans-54"/>
      <use x="507.128906" xlink:href="#DejaVuSans-50"/>
      <use x="570.751953" xlink:href="#DejaVuSans-41"/>
     </g>
    </g>
    <g id="line2d_14">
     <path d="M 296.045 69.248562 
L 316.045 69.248562 
" style="fill:none;stroke:#008000;stroke-linecap:square;stroke-width:1.5;"/>
    </g>
    <g id="line2d_15"/>
    <g id="text_10">
     <!-- Not sepsis (327) -->
     <defs>
      <path d="M 9.8125 72.90625 
L 23.09375 72.90625 
L 55.421875 11.921875 
L 55.421875 72.90625 
L 64.984375 72.90625 
L 64.984375 0 
L 51.703125 0 
L 19.390625 60.984375 
L 19.390625 0 
L 9.8125 0 
z
" id="DejaVuSans-78"/>
      <path d="M 8.203125 72.90625 
L 55.078125 72.90625 
L 55.078125 68.703125 
L 28.609375 0 
L 18.3125 0 
L 43.21875 64.59375 
L 8.203125 64.59375 
z
" id="DejaVuSans-55"/>
     </defs>
     <g transform="translate(324.045 72.748562)scale(0.1 -0.1)">
      <use xlink:href="#DejaVuSans-78"/>
      <use x="74.804688" xlink:href="#DejaVuSans-111"/>
      <use x="135.986328" xlink:href="#DejaVuSans-116"/>
      <use x="175.195312" xlink:href="#DejaVuSans-32"/>
      <use x="206.982422" xlink:href="#DejaVuSans-115"/>
      <use x="259.082031" xlink:href="#DejaVuSans-101"/>
      <use x="320.605469" xlink:href="#DejaVuSans-112"/>
      <use x="384.082031" xlink:href="#DejaVuSans-115"/>
      <use x="436.181641" xlink:href="#DejaVuSans-105"/>
      <use x="463.964844" xlink:href="#DejaVuSans-115"/>
      <use x="516.064453" xlink:href="#DejaVuSans-32"/>
      <use x="547.851562" xlink:href="#DejaVuSans-40"/>
      <use x="586.865234" xlink:href="#DejaVuSans-51"/>
      <use x="650.488281" xlink:href="#DejaVuSans-50"/>
      <use x="714.111328" xlink:href="#DejaVuSans-55"/>
      <use x="777.734375" xlink:href="#DejaVuSans-41"/>
     </g>
    </g>
   </g>
  </g>
 </g>
 <defs>
  <clipPath id="pa6b7ccf61d">
   <rect height="266.112" width="357.12" x="57.6" y="41.472"/>
  </clipPath>
 </defs>
</svg>
