<?xml version="1.0" encoding="utf-8" standalone="no"?>
<!DOCTYPE svg PUBLIC "-//W3C//DTD SVG 1.1//EN"
  "http://www.w3.org/Graphics/SVG/1.1/DTD/svg11.dtd">
<!-- Created with matplotlib (https://matplotlib.org/) -->
<svg height="345.6pt" version="1.1" viewBox="0 0 460.8 345.6" width="460.8pt" xmlns="http://www.w3.org/2000/svg" xmlns:xlink="http://www.w3.org/1999/xlink">
 <defs>
  <style type="text/css">
*{stroke-linecap:butt;stroke-linejoin:round;}
  </style>
 </defs>
 <g id="figure_1">
  <g id="patch_1">
   <path d="M 0 345.6 
L 460.8 345.6 
L 460.8 0 
L 0 0 
z
" style="fill:#ffffff;"/>
  </g>
  <g id="axes_1">
   <g id="patch_2">
    <path d="M 57.6 307.584 
L 414.72 307.584 
L 414.72 41.472 
L 57.6 41.472 
z
" style="fill:#ffffff;"/>
   </g>
   <g id="PolyCollection_1">
    <defs>
     <path d="M 73.832727 -169.938374 
L 73.832727 -172.205626 
L 77.112066 -173.078362 
L 80.391405 -174.473255 
L 83.670744 -176.599684 
L 86.950083 -179.692531 
L 90.229421 -183.986042 
L 93.50876 -189.676808 
L 96.788099 -196.881219 
L 100.067438 -205.595992 
L 103.346777 -215.67137 
L 106.626116 -226.804345 
L 109.905455 -238.554336 
L 113.184793 -250.378152 
L 116.464132 -261.677357 
L 119.743471 -271.850771 
L 123.02281 -280.347168 
L 126.302149 -286.715678 
L 129.581488 -290.651531 
L 132.860826 -292.032 
L 136.140165 -290.934121 
L 139.419504 -287.625487 
L 142.698843 -282.52436 
L 145.978182 -276.134381 
L 149.257521 -268.968125 
L 152.53686 -261.478021 
L 155.816198 -254.010537 
L 159.095537 -246.791201 
L 162.374876 -239.938035 
L 165.654215 -233.493138 
L 168.933554 -227.459062 
L 172.212893 -221.828274 
L 175.492231 -216.59906 
L 178.77157 -211.777558 
L 182.050909 -207.370968 
L 185.330248 -203.379494 
L 188.609587 -199.793351 
L 191.888926 -196.596798 
L 195.168264 -193.776093 
L 198.447603 -191.325308 
L 201.726942 -189.244931 
L 205.006281 -187.53253 
L 208.28562 -186.169864 
L 211.564959 -185.113417 
L 214.844298 -184.294006 
L 218.123636 -183.626436 
L 221.402975 -183.025182 
L 224.682314 -182.419393 
L 227.961653 -181.761541 
L 231.240992 -181.027883 
L 234.520331 -180.213044 
L 237.799669 -179.323255 
L 241.079008 -178.372029 
L 244.358347 -177.379326 
L 247.637686 -176.372493 
L 250.917025 -175.386073 
L 254.196364 -174.458593 
L 257.475702 -173.626526 
L 260.755041 -172.917538 
L 264.03438 -172.345616 
L 267.313719 -171.909773 
L 270.593058 -171.596395 
L 273.872397 -171.383941 
L 277.151736 -171.248174 
L 280.431074 -171.166394 
L 283.710413 -171.119956 
L 286.989752 -171.095091 
L 290.269091 -171.082535 
L 293.54843 -171.076553 
L 296.827769 -171.073865 
L 300.107107 -171.072728 
L 303.386446 -171.072285 
L 306.665785 -171.072151 
L 309.945124 -171.072199 
L 313.224463 -171.072463 
L 316.503802 -171.073157 
L 319.78314 -171.074782 
L 323.062479 -171.078343 
L 326.341818 -171.085691 
L 329.621157 -171.099969 
L 332.900496 -171.126076 
L 336.179835 -171.170953 
L 339.459174 -171.243372 
L 342.738512 -171.352895 
L 346.017851 -171.507752 
L 349.29719 -171.711773 
L 352.576529 -171.961003 
L 355.855868 -172.241156 
L 359.135207 -172.527234 
L 362.414545 -172.786291 
L 365.693884 -172.983294 
L 368.973223 -173.088796 
L 372.252562 -173.086131 
L 375.531901 -172.975727 
L 378.81124 -172.774994 
L 382.090579 -172.513826 
L 385.369917 -172.227324 
L 388.649256 -171.948166 
L 391.928595 -171.700869 
L 395.207934 -171.499194 
L 398.487273 -171.346651 
L 398.487273 -170.797349 
L 398.487273 -170.797349 
L 395.207934 -170.644806 
L 391.928595 -170.443131 
L 388.649256 -170.195834 
L 385.369917 -169.916676 
L 382.090579 -169.630174 
L 378.81124 -169.369006 
L 375.531901 -169.168273 
L 372.252562 -169.057869 
L 368.973223 -169.055204 
L 365.693884 -169.160706 
L 362.414545 -169.357709 
L 359.135207 -169.616766 
L 355.855868 -169.902844 
L 352.576529 -170.182997 
L 349.29719 -170.432227 
L 346.017851 -170.636248 
L 342.738512 -170.791105 
L 339.459174 -170.900628 
L 336.179835 -170.973047 
L 332.900496 -171.017924 
L 329.621157 -171.044031 
L 326.341818 -171.058309 
L 323.062479 -171.065657 
L 319.78314 -171.069218 
L 316.503802 -171.070843 
L 313.224463 -171.071537 
L 309.945124 -171.071801 
L 306.665785 -171.071849 
L 303.386446 -171.071715 
L 300.107107 -171.071272 
L 296.827769 -171.070135 
L 293.54843 -171.067447 
L 290.269091 -171.061465 
L 286.989752 -171.048909 
L 283.710413 -171.024044 
L 280.431074 -170.977606 
L 277.151736 -170.895826 
L 273.872397 -170.760059 
L 270.593058 -170.547605 
L 267.313719 -170.234227 
L 264.03438 -169.798384 
L 260.755041 -169.226462 
L 257.475702 -168.517474 
L 254.196364 -167.685407 
L 250.917025 -166.757927 
L 247.637686 -165.771507 
L 244.358347 -164.764674 
L 241.079008 -163.771971 
L 237.799669 -162.820745 
L 234.520331 -161.930956 
L 231.240992 -161.116117 
L 227.961653 -160.382459 
L 224.682314 -159.724607 
L 221.402975 -159.118818 
L 218.123636 -158.517564 
L 214.844298 -157.849994 
L 211.564959 -157.030583 
L 208.28562 -155.974136 
L 205.006281 -154.61147 
L 201.726942 -152.899069 
L 198.447603 -150.818692 
L 195.168264 -148.367907 
L 191.888926 -145.547202 
L 188.609587 -142.350649 
L 185.330248 -138.764506 
L 182.050909 -134.773032 
L 178.77157 -130.366442 
L 175.492231 -125.54494 
L 172.212893 -120.315726 
L 168.933554 -114.684938 
L 165.654215 -108.650862 
L 162.374876 -102.205965 
L 159.095537 -95.352799 
L 155.816198 -88.133463 
L 152.53686 -80.665979 
L 149.257521 -73.175875 
L 145.978182 -66.009619 
L 142.698843 -59.61964 
L 139.419504 -54.518513 
L 136.140165 -51.209879 
L 132.860826 -50.112 
L 129.581488 -51.492469 
L 126.302149 -55.428322 
L 123.02281 -61.796832 
L 119.743471 -70.293229 
L 116.464132 -80.466643 
L 113.184793 -91.765848 
L 109.905455 -103.589664 
L 106.626116 -115.339655 
L 103.346777 -126.47263 
L 100.067438 -136.548008 
L 96.788099 -145.262781 
L 93.50876 -152.467192 
L 90.229421 -158.157958 
L 86.950083 -162.451469 
L 83.670744 -165.544316 
L 80.391405 -167.670745 
L 77.112066 -169.065638 
L 73.832727 -169.938374 
z
" id="m671df16e6a" style="stroke:#4c4c4c;stroke-opacity:0.5;stroke-width:1.5;"/>
    </defs>
    <g clip-path="url(#p4478a9b985)">
     <use style="fill:#df9c20;fill-opacity:0.5;stroke:#4c4c4c;stroke-opacity:0.5;stroke-width:1.5;" x="0" xlink:href="#m671df16e6a" y="345.6"/>
    </g>
   </g>
   <g id="PolyCollection_2">
    <defs>
     <path d="M 81.078415 -170.777222 
L 81.078415 -171.366778 
L 84.277053 -171.799709 
L 87.47569 -172.701343 
L 90.674328 -174.420533 
L 93.872966 -177.454505 
L 97.071604 -182.432374 
L 100.270242 -190.002806 
L 103.468879 -200.588591 
L 106.667517 -214.076919 
L 109.866155 -229.64275 
L 113.064793 -245.885983 
L 116.263431 -261.235691 
L 119.462069 -274.344594 
L 122.660706 -284.240812 
L 125.859344 -290.271976 
L 129.057982 -292.032 
L 132.25662 -289.370872 
L 135.455258 -282.471626 
L 138.653896 -271.969667 
L 141.852533 -259.045165 
L 145.051171 -245.315015 
L 148.249809 -232.42526 
L 151.448447 -221.537052 
L 154.647085 -213.058188 
L 157.845722 -206.764798 
L 161.04436 -202.129291 
L 164.242998 -198.584149 
L 167.441636 -195.625113 
L 170.640274 -192.838669 
L 173.838912 -189.953236 
L 177.037549 -186.906496 
L 180.236187 -183.84629 
L 183.434825 -181.028463 
L 186.633463 -178.67817 
L 189.832101 -176.909356 
L 193.030738 -175.7236 
L 196.229376 -175.039405 
L 199.428014 -174.716668 
L 202.626652 -174.591961 
L 205.82529 -174.540412 
L 209.023928 -174.526548 
L 212.222565 -174.583004 
L 215.421203 -174.717844 
L 218.619841 -174.838527 
L 221.818479 -174.780394 
L 225.017117 -174.423097 
L 228.215754 -173.78591 
L 231.414392 -173.017224 
L 234.61303 -172.298651 
L 237.811668 -171.750602 
L 241.010306 -171.400795 
L 244.208944 -171.211322 
L 247.407581 -171.123546 
L 250.606219 -171.088621 
L 253.804857 -171.076662 
L 257.003495 -171.073135 
L 260.202133 -171.07224 
L 263.400771 -171.072044 
L 266.599408 -171.072007 
L 269.798046 -171.072001 
L 272.996684 -171.072 
L 276.195322 -171.072 
L 279.39396 -171.072 
L 282.592597 -171.072 
L 285.791235 -171.072 
L 288.989873 -171.072 
L 292.188511 -171.072 
L 295.387149 -171.072 
L 298.585787 -171.072 
L 301.784424 -171.072 
L 304.983062 -171.072 
L 308.1817 -171.072 
L 311.380338 -171.072 
L 314.578976 -171.072 
L 317.777613 -171.072 
L 320.976251 -171.072 
L 324.174889 -171.072 
L 327.373527 -171.072 
L 330.572165 -171.072 
L 333.770803 -171.072 
L 336.96944 -171.072 
L 340.168078 -171.072003 
L 343.366716 -171.072018 
L 346.565354 -171.072105 
L 349.763992 -171.072511 
L 352.962629 -171.074139 
L 356.161267 -171.079688 
L 359.359905 -171.095726 
L 362.558543 -171.134853 
L 365.757181 -171.214928 
L 368.955819 -171.351003 
L 372.154456 -171.539518 
L 375.353094 -171.744488 
L 378.551732 -171.902365 
L 381.75037 -171.952138 
L 384.949008 -171.872813 
L 388.147645 -171.697473 
L 391.346283 -171.491357 
L 394.544921 -171.313356 
L 397.743559 -171.191242 
L 397.743559 -170.952758 
L 397.743559 -170.952758 
L 394.544921 -170.830644 
L 391.346283 -170.652643 
L 388.147645 -170.446527 
L 384.949008 -170.271187 
L 381.75037 -170.191862 
L 378.551732 -170.241635 
L 375.353094 -170.399512 
L 372.154456 -170.604482 
L 368.955819 -170.792997 
L 365.757181 -170.929072 
L 362.558543 -171.009147 
L 359.359905 -171.048274 
L 356.161267 -171.064312 
L 352.962629 -171.069861 
L 349.763992 -171.071489 
L 346.565354 -171.071895 
L 343.366716 -171.071982 
L 340.168078 -171.071997 
L 336.96944 -171.072 
L 333.770803 -171.072 
L 330.572165 -171.072 
L 327.373527 -171.072 
L 324.174889 -171.072 
L 320.976251 -171.072 
L 317.777613 -171.072 
L 314.578976 -171.072 
L 311.380338 -171.072 
L 308.1817 -171.072 
L 304.983062 -171.072 
L 301.784424 -171.072 
L 298.585787 -171.072 
L 295.387149 -171.072 
L 292.188511 -171.072 
L 288.989873 -171.072 
L 285.791235 -171.072 
L 282.592597 -171.072 
L 279.39396 -171.072 
L 276.195322 -171.072 
L 272.996684 -171.072 
L 269.798046 -171.071999 
L 266.599408 -171.071993 
L 263.400771 -171.071956 
L 260.202133 -171.07176 
L 257.003495 -171.070865 
L 253.804857 -171.067338 
L 250.606219 -171.055379 
L 247.407581 -171.020454 
L 244.208944 -170.932678 
L 241.010306 -170.743205 
L 237.811668 -170.393398 
L 234.61303 -169.845349 
L 231.414392 -169.126776 
L 228.215754 -168.35809 
L 225.017117 -167.720903 
L 221.818479 -167.363606 
L 218.619841 -167.305473 
L 215.421203 -167.426156 
L 212.222565 -167.560996 
L 209.023928 -167.617452 
L 205.82529 -167.603588 
L 202.626652 -167.552039 
L 199.428014 -167.427332 
L 196.229376 -167.104595 
L 193.030738 -166.4204 
L 189.832101 -165.234644 
L 186.633463 -163.46583 
L 183.434825 -161.115537 
L 180.236187 -158.29771 
L 177.037549 -155.237504 
L 173.838912 -152.190764 
L 170.640274 -149.305331 
L 167.441636 -146.518887 
L 164.242998 -143.559851 
L 161.04436 -140.014709 
L 157.845722 -135.379202 
L 154.647085 -129.085812 
L 151.448447 -120.606948 
L 148.249809 -109.71874 
L 145.051171 -96.828985 
L 141.852533 -83.098835 
L 138.653896 -70.174333 
L 135.455258 -59.672374 
L 132.25662 -52.773128 
L 129.057982 -50.112 
L 125.859344 -51.872024 
L 122.660706 -57.903188 
L 119.462069 -67.799406 
L 116.263431 -80.908309 
L 113.064793 -96.258017 
L 109.866155 -112.50125 
L 106.667517 -128.067081 
L 103.468879 -141.555409 
L 100.270242 -152.141194 
L 97.071604 -159.711626 
L 93.872966 -164.689495 
L 90.674328 -167.723467 
L 87.47569 -169.442657 
L 84.277053 -170.344291 
L 81.078415 -170.777222 
z
" id="m51a80e165b" style="stroke:#262626;stroke-opacity:0.5;stroke-width:1.5;"/>
    </defs>
    <g clip-path="url(#p4478a9b985)">
     <use style="fill:#107010;fill-opacity:0.5;stroke:#262626;stroke-opacity:0.5;stroke-width:1.5;" x="0" xlink:href="#m51a80e165b" y="345.6"/>
    </g>
   </g>
   <g id="matplotlib.axis_1">
    <g id="xtick_1">
     <g id="line2d_1">
      <defs>
       <path d="M 0 0 
L 0 3.5 
" id="m7fe2d7f3cd" style="stroke:#000000;stroke-width:0.8;"/>
      </defs>
      <g>
       <use style="stroke:#000000;stroke-width:0.8;" x="87.337046" xlink:href="#m7fe2d7f3cd" y="307.584"/>
      </g>
     </g>
     <g id="text_1">
      <!-- 0 -->
      <defs>
       <path d="M 31.78125 66.40625 
Q 24.171875 66.40625 20.328125 58.90625 
Q 16.5 51.421875 16.5 36.375 
Q 16.5 21.390625 20.328125 13.890625 
Q 24.171875 6.390625 31.78125 6.390625 
Q 39.453125 6.390625 43.28125 13.890625 
Q 47.125 21.390625 47.125 36.375 
Q 47.125 51.421875 43.28125 58.90625 
Q 39.453125 66.40625 31.78125 66.40625 
z
M 31.78125 74.21875 
Q 44.046875 74.21875 50.515625 64.515625 
Q 56.984375 54.828125 56.984375 36.375 
Q 56.984375 17.96875 50.515625 8.265625 
Q 44.046875 -1.421875 31.78125 -1.421875 
Q 19.53125 -1.421875 13.0625 8.265625 
Q 6.59375 17.96875 6.59375 36.375 
Q 6.59375 54.828125 13.0625 64.515625 
Q 19.53125 74.21875 31.78125 74.21875 
z
" id="DejaVuSans-48"/>
      </defs>
      <g transform="translate(84.155796 322.182437)scale(0.1 -0.1)">
       <use xlink:href="#DejaVuSans-48"/>
      </g>
     </g>
    </g>
    <g id="xtick_2">
     <g id="line2d_2">
      <g>
       <use style="stroke:#000000;stroke-width:0.8;" x="159.581199" xlink:href="#m7fe2d7f3cd" y="307.584"/>
      </g>
     </g>
     <g id="text_2">
      <!-- 10 -->
      <defs>
       <path d="M 12.40625 8.296875 
L 28.515625 8.296875 
L 28.515625 63.921875 
L 10.984375 60.40625 
L 10.984375 69.390625 
L 28.421875 72.90625 
L 38.28125 72.90625 
L 38.28125 8.296875 
L 54.390625 8.296875 
L 54.390625 0 
L 12.40625 0 
z
" id="DejaVuSans-49"/>
      </defs>
      <g transform="translate(153.218699 322.182437)scale(0.1 -0.1)">
       <use xlink:href="#DejaVuSans-49"/>
       <use x="63.623047" xlink:href="#DejaVuSans-48"/>
      </g>
     </g>
    </g>
    <g id="xtick_3">
     <g id="line2d_3">
      <g>
       <use style="stroke:#000000;stroke-width:0.8;" x="231.825351" xlink:href="#m7fe2d7f3cd" y="307.584"/>
      </g>
     </g>
     <g id="text_3">
      <!-- 20 -->
      <defs>
       <path d="M 19.1875 8.296875 
L 53.609375 8.296875 
L 53.609375 0 
L 7.328125 0 
L 7.328125 8.296875 
Q 12.9375 14.109375 22.625 23.890625 
Q 32.328125 33.6875 34.8125 36.53125 
Q 39.546875 41.84375 41.421875 45.53125 
Q 43.3125 49.21875 43.3125 52.78125 
Q 43.3125 58.59375 39.234375 62.25 
Q 35.15625 65.921875 28.609375 65.921875 
Q 23.96875 65.921875 18.8125 64.3125 
Q 13.671875 62.703125 7.8125 59.421875 
L 7.8125 69.390625 
Q 13.765625 71.78125 18.9375 73 
Q 24.125 74.21875 28.421875 74.21875 
Q 39.75 74.21875 46.484375 68.546875 
Q 53.21875 62.890625 53.21875 53.421875 
Q 53.21875 48.921875 51.53125 44.890625 
Q 49.859375 40.875 45.40625 35.40625 
Q 44.1875 33.984375 37.640625 27.21875 
Q 31.109375 20.453125 19.1875 8.296875 
z
" id="DejaVuSans-50"/>
      </defs>
      <g transform="translate(225.462851 322.182437)scale(0.1 -0.1)">
       <use xlink:href="#DejaVuSans-50"/>
       <use x="63.623047" xlink:href="#DejaVuSans-48"/>
      </g>
     </g>
    </g>
    <g id="xtick_4">
     <g id="line2d_4">
      <g>
       <use style="stroke:#000000;stroke-width:0.8;" x="304.069503" xlink:href="#m7fe2d7f3cd" y="307.584"/>
      </g>
     </g>
     <g id="text_4">
      <!-- 30 -->
      <defs>
       <path d="M 40.578125 39.3125 
Q 47.65625 37.796875 51.625 33 
Q 55.609375 28.21875 55.609375 21.1875 
Q 55.609375 10.40625 48.1875 4.484375 
Q 40.765625 -1.421875 27.09375 -1.421875 
Q 22.515625 -1.421875 17.65625 -0.515625 
Q 12.796875 0.390625 7.625 2.203125 
L 7.625 11.71875 
Q 11.71875 9.328125 16.59375 8.109375 
Q 21.484375 6.890625 26.8125 6.890625 
Q 36.078125 6.890625 40.9375 10.546875 
Q 45.796875 14.203125 45.796875 21.1875 
Q 45.796875 27.640625 41.28125 31.265625 
Q 36.765625 34.90625 28.71875 34.90625 
L 20.21875 34.90625 
L 20.21875 43.015625 
L 29.109375 43.015625 
Q 36.375 43.015625 40.234375 45.921875 
Q 44.09375 48.828125 44.09375 54.296875 
Q 44.09375 59.90625 40.109375 62.90625 
Q 36.140625 65.921875 28.71875 65.921875 
Q 24.65625 65.921875 20.015625 65.03125 
Q 15.375 64.15625 9.8125 62.3125 
L 9.8125 71.09375 
Q 15.4375 72.65625 20.34375 73.4375 
Q 25.25 74.21875 29.59375 74.21875 
Q 40.828125 74.21875 47.359375 69.109375 
Q 53.90625 64.015625 53.90625 55.328125 
Q 53.90625 49.265625 50.4375 45.09375 
Q 46.96875 40.921875 40.578125 39.3125 
z
" id="DejaVuSans-51"/>
      </defs>
      <g transform="translate(297.707003 322.182437)scale(0.1 -0.1)">
       <use xlink:href="#DejaVuSans-51"/>
       <use x="63.623047" xlink:href="#DejaVuSans-48"/>
      </g>
     </g>
    </g>
    <g id="xtick_5">
     <g id="line2d_5">
      <g>
       <use style="stroke:#000000;stroke-width:0.8;" x="376.313655" xlink:href="#m7fe2d7f3cd" y="307.584"/>
      </g>
     </g>
     <g id="text_5">
      <!-- 40 -->
      <defs>
       <path d="M 37.796875 64.3125 
L 12.890625 25.390625 
L 37.796875 25.390625 
z
M 35.203125 72.90625 
L 47.609375 72.90625 
L 47.609375 25.390625 
L 58.015625 25.390625 
L 58.015625 17.1875 
L 47.609375 17.1875 
L 47.609375 0 
L 37.796875 0 
L 37.796875 17.1875 
L 4.890625 17.1875 
L 4.890625 26.703125 
z
" id="DejaVuSans-52"/>
      </defs>
      <g transform="translate(369.951155 322.182437)scale(0.1 -0.1)">
       <use xlink:href="#DejaVuSans-52"/>
       <use x="63.623047" xlink:href="#DejaVuSans-48"/>
      </g>
     </g>
    </g>
    <g id="text_6">
     <!-- wbcadmac -->
     <defs>
      <path d="M 4.203125 54.6875 
L 13.1875 54.6875 
L 24.421875 12.015625 
L 35.59375 54.6875 
L 46.1875 54.6875 
L 57.421875 12.015625 
L 68.609375 54.6875 
L 77.59375 54.6875 
L 63.28125 0 
L 52.6875 0 
L 40.921875 44.828125 
L 29.109375 0 
L 18.5 0 
z
" id="DejaVuSans-119"/>
      <path d="M 48.6875 27.296875 
Q 48.6875 37.203125 44.609375 42.84375 
Q 40.53125 48.484375 33.40625 48.484375 
Q 26.265625 48.484375 22.1875 42.84375 
Q 18.109375 37.203125 18.109375 27.296875 
Q 18.109375 17.390625 22.1875 11.75 
Q 26.265625 6.109375 33.40625 6.109375 
Q 40.53125 6.109375 44.609375 11.75 
Q 48.6875 17.390625 48.6875 27.296875 
z
M 18.109375 46.390625 
Q 20.953125 51.265625 25.265625 53.625 
Q 29.59375 56 35.59375 56 
Q 45.5625 56 51.78125 48.09375 
Q 58.015625 40.1875 58.015625 27.296875 
Q 58.015625 14.40625 51.78125 6.484375 
Q 45.5625 -1.421875 35.59375 -1.421875 
Q 29.59375 -1.421875 25.265625 0.953125 
Q 20.953125 3.328125 18.109375 8.203125 
L 18.109375 0 
L 9.078125 0 
L 9.078125 75.984375 
L 18.109375 75.984375 
z
" id="DejaVuSans-98"/>
      <path d="M 48.78125 52.59375 
L 48.78125 44.1875 
Q 44.96875 46.296875 41.140625 47.34375 
Q 37.3125 48.390625 33.40625 48.390625 
Q 24.65625 48.390625 19.8125 42.84375 
Q 14.984375 37.3125 14.984375 27.296875 
Q 14.984375 17.28125 19.8125 11.734375 
Q 24.65625 6.203125 33.40625 6.203125 
Q 37.3125 6.203125 41.140625 7.25 
Q 44.96875 8.296875 48.78125 10.40625 
L 48.78125 2.09375 
Q 45.015625 0.34375 40.984375 -0.53125 
Q 36.96875 -1.421875 32.421875 -1.421875 
Q 20.0625 -1.421875 12.78125 6.34375 
Q 5.515625 14.109375 5.515625 27.296875 
Q 5.515625 40.671875 12.859375 48.328125 
Q 20.21875 56 33.015625 56 
Q 37.15625 56 41.109375 55.140625 
Q 45.0625 54.296875 48.78125 52.59375 
z
" id="DejaVuSans-99"/>
      <path d="M 34.28125 27.484375 
Q 23.390625 27.484375 19.1875 25 
Q 14.984375 22.515625 14.984375 16.5 
Q 14.984375 11.71875 18.140625 8.90625 
Q 21.296875 6.109375 26.703125 6.109375 
Q 34.1875 6.109375 38.703125 11.40625 
Q 43.21875 16.703125 43.21875 25.484375 
L 43.21875 27.484375 
z
M 52.203125 31.203125 
L 52.203125 0 
L 43.21875 0 
L 43.21875 8.296875 
Q 40.140625 3.328125 35.546875 0.953125 
Q 30.953125 -1.421875 24.3125 -1.421875 
Q 15.921875 -1.421875 10.953125 3.296875 
Q 6 8.015625 6 15.921875 
Q 6 25.140625 12.171875 29.828125 
Q 18.359375 34.515625 30.609375 34.515625 
L 43.21875 34.515625 
L 43.21875 35.40625 
Q 43.21875 41.609375 39.140625 45 
Q 35.0625 48.390625 27.6875 48.390625 
Q 23 48.390625 18.546875 47.265625 
Q 14.109375 46.140625 10.015625 43.890625 
L 10.015625 52.203125 
Q 14.9375 54.109375 19.578125 55.046875 
Q 24.21875 56 28.609375 56 
Q 40.484375 56 46.34375 49.84375 
Q 52.203125 43.703125 52.203125 31.203125 
z
" id="DejaVuSans-97"/>
      <path d="M 45.40625 46.390625 
L 45.40625 75.984375 
L 54.390625 75.984375 
L 54.390625 0 
L 45.40625 0 
L 45.40625 8.203125 
Q 42.578125 3.328125 38.25 0.953125 
Q 33.9375 -1.421875 27.875 -1.421875 
Q 17.96875 -1.421875 11.734375 6.484375 
Q 5.515625 14.40625 5.515625 27.296875 
Q 5.515625 40.1875 11.734375 48.09375 
Q 17.96875 56 27.875 56 
Q 33.9375 56 38.25 53.625 
Q 42.578125 51.265625 45.40625 46.390625 
z
M 14.796875 27.296875 
Q 14.796875 17.390625 18.875 11.75 
Q 22.953125 6.109375 30.078125 6.109375 
Q 37.203125 6.109375 41.296875 11.75 
Q 45.40625 17.390625 45.40625 27.296875 
Q 45.40625 37.203125 41.296875 42.84375 
Q 37.203125 48.484375 30.078125 48.484375 
Q 22.953125 48.484375 18.875 42.84375 
Q 14.796875 37.203125 14.796875 27.296875 
z
" id="DejaVuSans-100"/>
      <path d="M 52 44.1875 
Q 55.375 50.25 60.0625 53.125 
Q 64.75 56 71.09375 56 
Q 79.640625 56 84.28125 50.015625 
Q 88.921875 44.046875 88.921875 33.015625 
L 88.921875 0 
L 79.890625 0 
L 79.890625 32.71875 
Q 79.890625 40.578125 77.09375 44.375 
Q 74.3125 48.1875 68.609375 48.1875 
Q 61.625 48.1875 57.5625 43.546875 
Q 53.515625 38.921875 53.515625 30.90625 
L 53.515625 0 
L 44.484375 0 
L 44.484375 32.71875 
Q 44.484375 40.625 41.703125 44.40625 
Q 38.921875 48.1875 33.109375 48.1875 
Q 26.21875 48.1875 22.15625 43.53125 
Q 18.109375 38.875 18.109375 30.90625 
L 18.109375 0 
L 9.078125 0 
L 9.078125 54.6875 
L 18.109375 54.6875 
L 18.109375 46.1875 
Q 21.1875 51.21875 25.484375 53.609375 
Q 29.78125 56 35.6875 56 
Q 41.65625 56 45.828125 52.96875 
Q 50 49.953125 52 44.1875 
z
" id="DejaVuSans-109"/>
     </defs>
     <g transform="translate(209.225625 335.860562)scale(0.1 -0.1)">
      <use xlink:href="#DejaVuSans-119"/>
      <use x="81.787109" xlink:href="#DejaVuSans-98"/>
      <use x="145.263672" xlink:href="#DejaVuSans-99"/>
      <use x="200.244141" xlink:href="#DejaVuSans-97"/>
      <use x="261.523438" xlink:href="#DejaVuSans-100"/>
      <use x="325" xlink:href="#DejaVuSans-109"/>
      <use x="422.412109" xlink:href="#DejaVuSans-97"/>
      <use x="483.691406" xlink:href="#DejaVuSans-99"/>
     </g>
    </g>
   </g>
   <g id="matplotlib.axis_2">
    <g id="ytick_1">
     <g id="line2d_6">
      <defs>
       <path d="M 0 0 
L -3.5 0 
" id="m1c24f905e5" style="stroke:#000000;stroke-width:0.8;"/>
      </defs>
      <g>
       <use style="stroke:#000000;stroke-width:0.8;" x="57.6" xlink:href="#m1c24f905e5" y="174.528"/>
      </g>
     </g>
    </g>
   </g>
   <g id="line2d_7">
    <path clip-path="url(#p4478a9b985)" d="M 101.785877 174.528 
L 207.262339 174.528 
" style="fill:none;stroke:#ffa500;stroke-linecap:square;stroke-width:1.5;"/>
   </g>
   <g id="line2d_8">
    <path clip-path="url(#p4478a9b985)" d="M 126.168278 174.528 
L 159.761809 174.528 
" style="fill:none;stroke:#4c4c4c;stroke-linecap:square;stroke-width:4.5;"/>
   </g>
   <g id="line2d_9">
    <path clip-path="url(#p4478a9b985)" d="M 97.451228 174.528 
L 174.030029 174.528 
" style="fill:none;stroke:#008000;stroke-linecap:square;stroke-width:1.5;"/>
   </g>
   <g id="line2d_10">
    <path clip-path="url(#p4478a9b985)" d="M 122.014239 174.528 
L 142.965044 174.528 
" style="fill:none;stroke:#262626;stroke-linecap:square;stroke-width:4.5;"/>
   </g>
   <g id="patch_3">
    <path d="M 57.6 307.584 
L 57.6 41.472 
" style="fill:none;stroke:#000000;stroke-linecap:square;stroke-linejoin:miter;stroke-width:0.8;"/>
   </g>
   <g id="patch_4">
    <path d="M 414.72 307.584 
L 414.72 41.472 
" style="fill:none;stroke:#000000;stroke-linecap:square;stroke-linejoin:miter;stroke-width:0.8;"/>
   </g>
   <g id="patch_5">
    <path d="M 57.6 307.584 
L 414.72 307.584 
" style="fill:none;stroke:#000000;stroke-linecap:square;stroke-linejoin:miter;stroke-width:0.8;"/>
   </g>
   <g id="patch_6">
    <path d="M 57.6 41.472 
L 414.72 41.472 
" style="fill:none;stroke:#000000;stroke-linecap:square;stroke-linejoin:miter;stroke-width:0.8;"/>
   </g>
   <g id="PathCollection_1">
    <defs>
     <path d="M 0 1.5 
C 0.397805 1.5 0.77937 1.341951 1.06066 1.06066 
C 1.341951 0.77937 1.5 0.397805 1.5 0 
C 1.5 -0.397805 1.341951 -0.77937 1.06066 -1.06066 
C 0.77937 -1.341951 0.397805 -1.5 0 -1.5 
C -0.397805 -1.5 -0.77937 -1.341951 -1.06066 -1.06066 
C -1.341951 -0.77937 -1.5 -0.397805 -1.5 0 
C -1.5 0.397805 -1.341951 0.77937 -1.06066 1.06066 
C -0.77937 1.341951 -0.397805 1.5 0 1.5 
z
" id="m66f2c2a3e4" style="stroke:#4c4c4c;stroke-opacity:0.5;"/>
    </defs>
    <g clip-path="url(#p4478a9b985)">
     <use style="fill:#ffffff;fill-opacity:0.5;stroke:#4c4c4c;stroke-opacity:0.5;" x="137.546732" xlink:href="#m66f2c2a3e4" y="174.528"/>
    </g>
   </g>
   <g id="PathCollection_2">
    <defs>
     <path d="M 0 1.5 
C 0.397805 1.5 0.77937 1.341951 1.06066 1.06066 
C 1.341951 0.77937 1.5 0.397805 1.5 0 
C 1.5 -0.397805 1.341951 -0.77937 1.06066 -1.06066 
C 0.77937 -1.341951 0.397805 -1.5 0 -1.5 
C -0.397805 -1.5 -0.77937 -1.341951 -1.06066 -1.06066 
C -1.341951 -0.77937 -1.5 -0.397805 -1.5 0 
C -1.5 0.397805 -1.341951 0.77937 -1.06066 1.06066 
C -0.77937 1.341951 -0.397805 1.5 0 1.5 
z
" id="mea7965ae2b" style="stroke:#262626;stroke-opacity:0.5;"/>
    </defs>
    <g clip-path="url(#p4478a9b985)">
     <use style="fill:#ffffff;fill-opacity:0.5;stroke:#262626;stroke-opacity:0.5;" x="131.405979" xlink:href="#mea7965ae2b" y="174.528"/>
    </g>
   </g>
   <g id="text_7">
    <!-- Association of wbcadmac vs. death -->
    <defs>
     <path d="M 34.1875 63.1875 
L 20.796875 26.90625 
L 47.609375 26.90625 
z
M 28.609375 72.90625 
L 39.796875 72.90625 
L 67.578125 0 
L 57.328125 0 
L 50.6875 18.703125 
L 17.828125 18.703125 
L 11.1875 0 
L 0.78125 0 
z
" id="DejaVuSans-65"/>
     <path d="M 44.28125 53.078125 
L 44.28125 44.578125 
Q 40.484375 46.53125 36.375 47.5 
Q 32.28125 48.484375 27.875 48.484375 
Q 21.1875 48.484375 17.84375 46.4375 
Q 14.5 44.390625 14.5 40.28125 
Q 14.5 37.15625 16.890625 35.375 
Q 19.28125 33.59375 26.515625 31.984375 
L 29.59375 31.296875 
Q 39.15625 29.25 43.1875 25.515625 
Q 47.21875 21.78125 47.21875 15.09375 
Q 47.21875 7.46875 41.1875 3.015625 
Q 35.15625 -1.421875 24.609375 -1.421875 
Q 20.21875 -1.421875 15.453125 -0.5625 
Q 10.6875 0.296875 5.421875 2 
L 5.421875 11.28125 
Q 10.40625 8.6875 15.234375 7.390625 
Q 20.0625 6.109375 24.8125 6.109375 
Q 31.15625 6.109375 34.5625 8.28125 
Q 37.984375 10.453125 37.984375 14.40625 
Q 37.984375 18.0625 35.515625 20.015625 
Q 33.0625 21.96875 24.703125 23.78125 
L 21.578125 24.515625 
Q 13.234375 26.265625 9.515625 29.90625 
Q 5.8125 33.546875 5.8125 39.890625 
Q 5.8125 47.609375 11.28125 51.796875 
Q 16.75 56 26.8125 56 
Q 31.78125 56 36.171875 55.265625 
Q 40.578125 54.546875 44.28125 53.078125 
z
" id="DejaVuSans-115"/>
     <path d="M 30.609375 48.390625 
Q 23.390625 48.390625 19.1875 42.75 
Q 14.984375 37.109375 14.984375 27.296875 
Q 14.984375 17.484375 19.15625 11.84375 
Q 23.34375 6.203125 30.609375 6.203125 
Q 37.796875 6.203125 41.984375 11.859375 
Q 46.1875 17.53125 46.1875 27.296875 
Q 46.1875 37.015625 41.984375 42.703125 
Q 37.796875 48.390625 30.609375 48.390625 
z
M 30.609375 56 
Q 42.328125 56 49.015625 48.375 
Q 55.71875 40.765625 55.71875 27.296875 
Q 55.71875 13.875 49.015625 6.21875 
Q 42.328125 -1.421875 30.609375 -1.421875 
Q 18.84375 -1.421875 12.171875 6.21875 
Q 5.515625 13.875 5.515625 27.296875 
Q 5.515625 40.765625 12.171875 48.375 
Q 18.84375 56 30.609375 56 
z
" id="DejaVuSans-111"/>
     <path d="M 9.421875 54.6875 
L 18.40625 54.6875 
L 18.40625 0 
L 9.421875 0 
z
M 9.421875 75.984375 
L 18.40625 75.984375 
L 18.40625 64.59375 
L 9.421875 64.59375 
z
" id="DejaVuSans-105"/>
     <path d="M 18.3125 70.21875 
L 18.3125 54.6875 
L 36.8125 54.6875 
L 36.8125 47.703125 
L 18.3125 47.703125 
L 18.3125 18.015625 
Q 18.3125 11.328125 20.140625 9.421875 
Q 21.96875 7.515625 27.59375 7.515625 
L 36.8125 7.515625 
L 36.8125 0 
L 27.59375 0 
Q 17.1875 0 13.234375 3.875 
Q 9.28125 7.765625 9.28125 18.015625 
L 9.28125 47.703125 
L 2.6875 47.703125 
L 2.6875 54.6875 
L 9.28125 54.6875 
L 9.28125 70.21875 
z
" id="DejaVuSans-116"/>
     <path d="M 54.890625 33.015625 
L 54.890625 0 
L 45.90625 0 
L 45.90625 32.71875 
Q 45.90625 40.484375 42.875 44.328125 
Q 39.84375 48.1875 33.796875 48.1875 
Q 26.515625 48.1875 22.3125 43.546875 
Q 18.109375 38.921875 18.109375 30.90625 
L 18.109375 0 
L 9.078125 0 
L 9.078125 54.6875 
L 18.109375 54.6875 
L 18.109375 46.1875 
Q 21.34375 51.125 25.703125 53.5625 
Q 30.078125 56 35.796875 56 
Q 45.21875 56 50.046875 50.171875 
Q 54.890625 44.34375 54.890625 33.015625 
z
" id="DejaVuSans-110"/>
     <path id="DejaVuSans-32"/>
     <path d="M 37.109375 75.984375 
L 37.109375 68.5 
L 28.515625 68.5 
Q 23.6875 68.5 21.796875 66.546875 
Q 19.921875 64.59375 19.921875 59.515625 
L 19.921875 54.6875 
L 34.71875 54.6875 
L 34.71875 47.703125 
L 19.921875 47.703125 
L 19.921875 0 
L 10.890625 0 
L 10.890625 47.703125 
L 2.296875 47.703125 
L 2.296875 54.6875 
L 10.890625 54.6875 
L 10.890625 58.5 
Q 10.890625 67.625 15.140625 71.796875 
Q 19.390625 75.984375 28.609375 75.984375 
z
" id="DejaVuSans-102"/>
     <path d="M 2.984375 54.6875 
L 12.5 54.6875 
L 29.59375 8.796875 
L 46.6875 54.6875 
L 56.203125 54.6875 
L 35.6875 0 
L 23.484375 0 
z
" id="DejaVuSans-118"/>
     <path d="M 10.6875 12.40625 
L 21 12.40625 
L 21 0 
L 10.6875 0 
z
" id="DejaVuSans-46"/>
     <path d="M 56.203125 29.59375 
L 56.203125 25.203125 
L 14.890625 25.203125 
Q 15.484375 15.921875 20.484375 11.0625 
Q 25.484375 6.203125 34.421875 6.203125 
Q 39.59375 6.203125 44.453125 7.46875 
Q 49.3125 8.734375 54.109375 11.28125 
L 54.109375 2.78125 
Q 49.265625 0.734375 44.1875 -0.34375 
Q 39.109375 -1.421875 33.890625 -1.421875 
Q 20.796875 -1.421875 13.15625 6.1875 
Q 5.515625 13.8125 5.515625 26.8125 
Q 5.515625 40.234375 12.765625 48.109375 
Q 20.015625 56 32.328125 56 
Q 43.359375 56 49.78125 48.890625 
Q 56.203125 41.796875 56.203125 29.59375 
z
M 47.21875 32.234375 
Q 47.125 39.59375 43.09375 43.984375 
Q 39.0625 48.390625 32.421875 48.390625 
Q 24.90625 48.390625 20.390625 44.140625 
Q 15.875 39.890625 15.1875 32.171875 
z
" id="DejaVuSans-101"/>
     <path d="M 54.890625 33.015625 
L 54.890625 0 
L 45.90625 0 
L 45.90625 32.71875 
Q 45.90625 40.484375 42.875 44.328125 
Q 39.84375 48.1875 33.796875 48.1875 
Q 26.515625 48.1875 22.3125 43.546875 
Q 18.109375 38.921875 18.109375 30.90625 
L 18.109375 0 
L 9.078125 0 
L 9.078125 75.984375 
L 18.109375 75.984375 
L 18.109375 46.1875 
Q 21.34375 51.125 25.703125 53.5625 
Q 30.078125 56 35.796875 56 
Q 45.21875 56 50.046875 50.171875 
Q 54.890625 44.34375 54.890625 33.015625 
z
" id="DejaVuSans-104"/>
    </defs>
    <g transform="translate(130.349063 35.472)scale(0.12 -0.12)">
     <use xlink:href="#DejaVuSans-65"/>
     <use x="68.408203" xlink:href="#DejaVuSans-115"/>
     <use x="120.507812" xlink:href="#DejaVuSans-115"/>
     <use x="172.607422" xlink:href="#DejaVuSans-111"/>
     <use x="233.789062" xlink:href="#DejaVuSans-99"/>
     <use x="288.769531" xlink:href="#DejaVuSans-105"/>
     <use x="316.552734" xlink:href="#DejaVuSans-97"/>
     <use x="377.832031" xlink:href="#DejaVuSans-116"/>
     <use x="417.041016" xlink:href="#DejaVuSans-105"/>
     <use x="444.824219" xlink:href="#DejaVuSans-111"/>
     <use x="506.005859" xlink:href="#DejaVuSans-110"/>
     <use x="569.384766" xlink:href="#DejaVuSans-32"/>
     <use x="601.171875" xlink:href="#DejaVuSans-111"/>
     <use x="662.353516" xlink:href="#DejaVuSans-102"/>
     <use x="697.558594" xlink:href="#DejaVuSans-32"/>
     <use x="729.345703" xlink:href="#DejaVuSans-119"/>
     <use x="811.132812" xlink:href="#DejaVuSans-98"/>
     <use x="874.609375" xlink:href="#DejaVuSans-99"/>
     <use x="929.589844" xlink:href="#DejaVuSans-97"/>
     <use x="990.869141" xlink:href="#DejaVuSans-100"/>
     <use x="1054.345703" xlink:href="#DejaVuSans-109"/>
     <use x="1151.757812" xlink:href="#DejaVuSans-97"/>
     <use x="1213.037109" xlink:href="#DejaVuSans-99"/>
     <use x="1268.017578" xlink:href="#DejaVuSans-32"/>
     <use x="1299.804688" xlink:href="#DejaVuSans-118"/>
     <use x="1358.984375" xlink:href="#DejaVuSans-115"/>
     <use x="1411.083984" xlink:href="#DejaVuSans-46"/>
     <use x="1442.871094" xlink:href="#DejaVuSans-32"/>
     <use x="1474.658203" xlink:href="#DejaVuSans-100"/>
     <use x="1538.134766" xlink:href="#DejaVuSans-101"/>
     <use x="1599.658203" xlink:href="#DejaVuSans-97"/>
     <use x="1660.9375" xlink:href="#DejaVuSans-116"/>
     <use x="1700.146484" xlink:href="#DejaVuSans-104"/>
    </g>
   </g>
   <g id="legend_1">
    <g id="patch_7">
     <path d="M 296.065313 78.82825 
L 407.72 78.82825 
Q 409.72 78.82825 409.72 76.82825 
L 409.72 48.472 
Q 409.72 46.472 407.72 46.472 
L 296.065313 46.472 
Q 294.065313 46.472 294.065313 48.472 
L 294.065313 76.82825 
Q 294.065313 78.82825 296.065313 78.82825 
z
" style="fill:#ffffff;opacity:0.8;stroke:#cccccc;stroke-linejoin:miter;"/>
    </g>
    <g id="line2d_11">
     <path d="M 298.065313 54.570437 
L 318.065313 54.570437 
" style="fill:none;stroke:#ffa500;stroke-linecap:square;stroke-width:1.5;"/>
    </g>
    <g id="line2d_12"/>
    <g id="text_8">
     <!-- death (116) -->
     <defs>
      <path d="M 31 75.875 
Q 24.46875 64.65625 21.28125 53.65625 
Q 18.109375 42.671875 18.109375 31.390625 
Q 18.109375 20.125 21.3125 9.0625 
Q 24.515625 -2 31 -13.1875 
L 23.1875 -13.1875 
Q 15.875 -1.703125 12.234375 9.375 
Q 8.59375 20.453125 8.59375 31.390625 
Q 8.59375 42.28125 12.203125 53.3125 
Q 15.828125 64.359375 23.1875 75.875 
z
" id="DejaVuSans-40"/>
      <path d="M 33.015625 40.375 
Q 26.375 40.375 22.484375 35.828125 
Q 18.609375 31.296875 18.609375 23.390625 
Q 18.609375 15.53125 22.484375 10.953125 
Q 26.375 6.390625 33.015625 6.390625 
Q 39.65625 6.390625 43.53125 10.953125 
Q 47.40625 15.53125 47.40625 23.390625 
Q 47.40625 31.296875 43.53125 35.828125 
Q 39.65625 40.375 33.015625 40.375 
z
M 52.59375 71.296875 
L 52.59375 62.3125 
Q 48.875 64.0625 45.09375 64.984375 
Q 41.3125 65.921875 37.59375 65.921875 
Q 27.828125 65.921875 22.671875 59.328125 
Q 17.53125 52.734375 16.796875 39.40625 
Q 19.671875 43.65625 24.015625 45.921875 
Q 28.375 48.1875 33.59375 48.1875 
Q 44.578125 48.1875 50.953125 41.515625 
Q 57.328125 34.859375 57.328125 23.390625 
Q 57.328125 12.15625 50.6875 5.359375 
Q 44.046875 -1.421875 33.015625 -1.421875 
Q 20.359375 -1.421875 13.671875 8.265625 
Q 6.984375 17.96875 6.984375 36.375 
Q 6.984375 53.65625 15.1875 63.9375 
Q 23.390625 74.21875 37.203125 74.21875 
Q 40.921875 74.21875 44.703125 73.484375 
Q 48.484375 72.75 52.59375 71.296875 
z
" id="DejaVuSans-54"/>
      <path d="M 8.015625 75.875 
L 15.828125 75.875 
Q 23.140625 64.359375 26.78125 53.3125 
Q 30.421875 42.28125 30.421875 31.390625 
Q 30.421875 20.453125 26.78125 9.375 
Q 23.140625 -1.703125 15.828125 -13.1875 
L 8.015625 -13.1875 
Q 14.5 -2 17.703125 9.0625 
Q 20.90625 20.125 20.90625 31.390625 
Q 20.90625 42.671875 17.703125 53.65625 
Q 14.5 64.65625 8.015625 75.875 
z
" id="DejaVuSans-41"/>
     </defs>
     <g transform="translate(326.065313 58.070437)scale(0.1 -0.1)">
      <use xlink:href="#DejaVuSans-100"/>
      <use x="63.476562" xlink:href="#DejaVuSans-101"/>
      <use x="125" xlink:href="#DejaVuSans-97"/>
      <use x="186.279297" xlink:href="#DejaVuSans-116"/>
      <use x="225.488281" xlink:href="#DejaVuSans-104"/>
      <use x="288.867188" xlink:href="#DejaVuSans-32"/>
      <use x="320.654297" xlink:href="#DejaVuSans-40"/>
      <use x="359.667969" xlink:href="#DejaVuSans-49"/>
      <use x="423.291016" xlink:href="#DejaVuSans-49"/>
      <use x="486.914062" xlink:href="#DejaVuSans-54"/>
      <use x="550.537109" xlink:href="#DejaVuSans-41"/>
     </g>
    </g>
    <g id="line2d_13">
     <path d="M 298.065313 69.248562 
L 318.065313 69.248562 
" style="fill:none;stroke:#008000;stroke-linecap:square;stroke-width:1.5;"/>
    </g>
    <g id="line2d_14"/>
    <g id="text_9">
     <!-- Not death (302) -->
     <defs>
      <path d="M 9.8125 72.90625 
L 23.09375 72.90625 
L 55.421875 11.921875 
L 55.421875 72.90625 
L 64.984375 72.90625 
L 64.984375 0 
L 51.703125 0 
L 19.390625 60.984375 
L 19.390625 0 
L 9.8125 0 
z
" id="DejaVuSans-78"/>
     </defs>
     <g transform="translate(326.065313 72.748562)scale(0.1 -0.1)">
      <use xlink:href="#DejaVuSans-78"/>
      <use x="74.804688" xlink:href="#DejaVuSans-111"/>
      <use x="135.986328" xlink:href="#DejaVuSans-116"/>
      <use x="175.195312" xlink:href="#DejaVuSans-32"/>
      <use x="206.982422" xlink:href="#DejaVuSans-100"/>
      <use x="270.458984" xlink:href="#DejaVuSans-101"/>
      <use x="331.982422" xlink:href="#DejaVuSans-97"/>
      <use x="393.261719" xlink:href="#DejaVuSans-116"/>
      <use x="432.470703" xlink:href="#DejaVuSans-104"/>
      <use x="495.849609" xlink:href="#DejaVuSans-32"/>
      <use x="527.636719" xlink:href="#DejaVuSans-40"/>
      <use x="566.650391" xlink:href="#DejaVuSans-51"/>
      <use x="630.273438" xlink:href="#DejaVuSans-48"/>
      <use x="693.896484" xlink:href="#DejaVuSans-50"/>
      <use x="757.519531" xlink:href="#DejaVuSans-41"/>
     </g>
    </g>
   </g>
  </g>
 </g>
 <defs>
  <clipPath id="p4478a9b985">
   <rect height="266.112" width="357.12" x="57.6" y="41.472"/>
  </clipPath>
 </defs>
</svg>
