<?xml version="1.0" encoding="utf-8" standalone="no"?>
<!DOCTYPE svg PUBLIC "-//W3C//DTD SVG 1.1//EN"
  "http://www.w3.org/Graphics/SVG/1.1/DTD/svg11.dtd">
<!-- Created with matplotlib (https://matplotlib.org/) -->
<svg height="345.6pt" version="1.1" viewBox="0 0 460.8 345.6" width="460.8pt" xmlns="http://www.w3.org/2000/svg" xmlns:xlink="http://www.w3.org/1999/xlink">
 <defs>
  <style type="text/css">
*{stroke-linecap:butt;stroke-linejoin:round;}
  </style>
 </defs>
 <g id="figure_1">
  <g id="patch_1">
   <path d="M 0 345.6 
L 460.8 345.6 
L 460.8 0 
L 0 0 
z
" style="fill:#ffffff;"/>
  </g>
  <g id="axes_1">
   <g id="patch_2">
    <path d="M 57.6 307.584 
L 414.72 307.584 
L 414.72 41.472 
L 57.6 41.472 
z
" style="fill:#ffffff;"/>
   </g>
   <g id="PolyCollection_1">
    <defs>
     <path d="M 73.832727 -170.776527 
L 73.832727 -171.367473 
L 77.112066 -172.290022 
L 80.391405 -175.252671 
L 83.670744 -182.895822 
L 86.950083 -198.475631 
L 90.229421 -223.182863 
L 93.50876 -252.993644 
L 96.788099 -278.917939 
L 100.067438 -292.032 
L 103.346777 -289.150287 
L 106.626116 -274.017079 
L 109.905455 -253.775312 
L 113.184793 -234.53897 
L 116.464132 -219.218474 
L 119.743471 -207.888856 
L 123.02281 -199.37063 
L 126.302149 -192.674981 
L 129.581488 -187.492186 
L 132.860826 -183.721455 
L 136.140165 -180.929062 
L 139.419504 -178.52438 
L 142.698843 -176.288596 
L 145.978182 -174.423878 
L 149.257521 -173.145336 
L 152.53686 -172.429413 
L 155.816198 -172.089341 
L 159.095537 -171.913076 
L 162.374876 -171.743001 
L 165.654215 -171.530261 
L 168.933554 -171.322703 
L 172.212893 -171.178611 
L 175.492231 -171.106796 
L 178.77157 -171.080671 
L 182.050909 -171.073646 
L 185.330248 -171.072238 
L 188.609587 -171.072026 
L 191.888926 -171.072002 
L 195.168264 -171.072 
L 198.447603 -171.072 
L 201.726942 -171.072001 
L 205.006281 -171.072014 
L 208.28562 -171.072139 
L 211.564959 -171.073031 
L 214.844298 -171.077818 
L 218.123636 -171.096967 
L 221.402975 -171.153509 
L 224.682314 -171.274424 
L 227.961653 -171.454418 
L 231.240992 -171.62159 
L 234.520331 -171.672844 
L 237.799669 -171.571698 
L 241.079008 -171.388137 
L 244.358347 -171.224148 
L 247.637686 -171.127703 
L 250.917025 -171.087514 
L 254.196364 -171.075287 
L 257.475702 -171.07253 
L 260.755041 -171.072065 
L 264.03438 -171.072006 
L 267.313719 -171.072 
L 270.593058 -171.072 
L 273.872397 -171.072 
L 277.151736 -171.072 
L 280.431074 -171.072 
L 283.710413 -171.072 
L 286.989752 -171.072 
L 290.269091 -171.072 
L 293.54843 -171.072 
L 296.827769 -171.072 
L 300.107107 -171.072 
L 303.386446 -171.072 
L 306.665785 -171.072 
L 309.945124 -171.072 
L 313.224463 -171.072 
L 316.503802 -171.072 
L 319.78314 -171.072 
L 323.062479 -171.072 
L 326.341818 -171.072 
L 329.621157 -171.072 
L 332.900496 -171.072 
L 336.179835 -171.072 
L 339.459174 -171.072 
L 342.738512 -171.072 
L 346.017851 -171.072 
L 349.29719 -171.072 
L 352.576529 -171.072 
L 355.855868 -171.072006 
L 359.135207 -171.072065 
L 362.414545 -171.072528 
L 365.693884 -171.075278 
L 368.973223 -171.087477 
L 372.252562 -171.127596 
L 375.531901 -171.223926 
L 378.81124 -171.387821 
L 382.090579 -171.571428 
L 385.369917 -171.672796 
L 388.649256 -171.621799 
L 391.928595 -171.454739 
L 395.207934 -171.274687 
L 398.487273 -171.153653 
L 398.487273 -170.990347 
L 398.487273 -170.990347 
L 395.207934 -170.869313 
L 391.928595 -170.689261 
L 388.649256 -170.522201 
L 385.369917 -170.471204 
L 382.090579 -170.572572 
L 378.81124 -170.756179 
L 375.531901 -170.920074 
L 372.252562 -171.016404 
L 368.973223 -171.056523 
L 365.693884 -171.068722 
L 362.414545 -171.071472 
L 359.135207 -171.071935 
L 355.855868 -171.071994 
L 352.576529 -171.072 
L 349.29719 -171.072 
L 346.017851 -171.072 
L 342.738512 -171.072 
L 339.459174 -171.072 
L 336.179835 -171.072 
L 332.900496 -171.072 
L 329.621157 -171.072 
L 326.341818 -171.072 
L 323.062479 -171.072 
L 319.78314 -171.072 
L 316.503802 -171.072 
L 313.224463 -171.072 
L 309.945124 -171.072 
L 306.665785 -171.072 
L 303.386446 -171.072 
L 300.107107 -171.072 
L 296.827769 -171.072 
L 293.54843 -171.072 
L 290.269091 -171.072 
L 286.989752 -171.072 
L 283.710413 -171.072 
L 280.431074 -171.072 
L 277.151736 -171.072 
L 273.872397 -171.072 
L 270.593058 -171.072 
L 267.313719 -171.072 
L 264.03438 -171.071994 
L 260.755041 -171.071935 
L 257.475702 -171.07147 
L 254.196364 -171.068713 
L 250.917025 -171.056486 
L 247.637686 -171.016297 
L 244.358347 -170.919852 
L 241.079008 -170.755863 
L 237.799669 -170.572302 
L 234.520331 -170.471156 
L 231.240992 -170.52241 
L 227.961653 -170.689582 
L 224.682314 -170.869576 
L 221.402975 -170.990491 
L 218.123636 -171.047033 
L 214.844298 -171.066182 
L 211.564959 -171.070969 
L 208.28562 -171.071861 
L 205.006281 -171.071986 
L 201.726942 -171.071999 
L 198.447603 -171.072 
L 195.168264 -171.072 
L 191.888926 -171.071998 
L 188.609587 -171.071974 
L 185.330248 -171.071762 
L 182.050909 -171.070354 
L 178.77157 -171.063329 
L 175.492231 -171.037204 
L 172.212893 -170.965389 
L 168.933554 -170.821297 
L 165.654215 -170.613739 
L 162.374876 -170.400999 
L 159.095537 -170.230924 
L 155.816198 -170.054659 
L 152.53686 -169.714587 
L 149.257521 -168.998664 
L 145.978182 -167.720122 
L 142.698843 -165.855404 
L 139.419504 -163.61962 
L 136.140165 -161.214938 
L 132.860826 -158.422545 
L 129.581488 -154.651814 
L 126.302149 -149.469019 
L 123.02281 -142.77337 
L 119.743471 -134.255144 
L 116.464132 -122.925526 
L 113.184793 -107.60503 
L 109.905455 -88.368688 
L 106.626116 -68.126921 
L 103.346777 -52.993713 
L 100.067438 -50.112 
L 96.788099 -63.226061 
L 93.50876 -89.150356 
L 90.229421 -118.961137 
L 86.950083 -143.668369 
L 83.670744 -159.248178 
L 80.391405 -166.891329 
L 77.112066 -169.853978 
L 73.832727 -170.776527 
z
" id="mca5dde733e" style="stroke:#4c4c4c;stroke-opacity:0.5;stroke-width:1.5;"/>
    </defs>
    <g clip-path="url(#pf66a552086)">
     <use style="fill:#df9c20;fill-opacity:0.5;stroke:#4c4c4c;stroke-opacity:0.5;stroke-width:1.5;" x="0" xlink:href="#mca5dde733e" y="345.6"/>
    </g>
   </g>
   <g id="PolyCollection_2">
    <defs>
     <path d="M 80.872995 -169.273343 
L 80.872995 -172.870657 
L 82.016257 -174.404601 
L 83.159519 -176.933335 
L 84.302781 -180.864263 
L 85.446043 -186.622555 
L 86.589304 -194.563006 
L 87.732566 -204.854299 
L 88.875828 -217.361476 
L 90.01909 -231.564975 
L 91.162352 -246.555469 
L 92.305614 -261.12768 
L 93.448876 -273.96584 
L 94.592138 -283.878967 
L 95.7354 -290.021044 
L 96.878662 -292.032 
L 98.021924 -290.061785 
L 99.165186 -284.681285 
L 100.308448 -276.721511 
L 101.45171 -267.099861 
L 102.594971 -256.683578 
L 103.738233 -246.21321 
L 104.881495 -236.27891 
L 106.024757 -227.324325 
L 107.168019 -219.652701 
L 108.311281 -213.423279 
L 109.454543 -208.64252 
L 110.597805 -205.16448 
L 111.741067 -202.713558 
L 112.884329 -200.933328 
L 114.027591 -199.453364 
L 115.170853 -197.957876 
L 116.314115 -196.238591 
L 117.457377 -194.219298 
L 118.600639 -191.948105 
L 119.7439 -189.562367 
L 120.887162 -187.23796 
L 122.030424 -185.137462 
L 123.173686 -183.37061 
L 124.316948 -181.975684 
L 125.46021 -180.923655 
L 126.603472 -180.140029 
L 127.746734 -179.534506 
L 128.889996 -179.027427 
L 130.033258 -178.564918 
L 131.17652 -178.120325 
L 132.319782 -177.685489 
L 133.463044 -177.25899 
L 134.606306 -176.83811 
L 135.749567 -176.417646 
L 136.892829 -175.994032 
L 138.036091 -175.570362 
L 139.179353 -175.158064 
L 140.322615 -174.773712 
L 141.465877 -174.432621 
L 142.609139 -174.142521 
L 143.752401 -173.900172 
L 144.895663 -173.692042 
L 146.038925 -173.498342 
L 147.182187 -173.298767 
L 148.325449 -173.078113 
L 149.468711 -172.830256 
L 150.611973 -172.559486 
L 151.755235 -172.278874 
L 152.898496 -172.006261 
L 154.041758 -171.759259 
L 155.18502 -171.550925 
L 156.328282 -171.387411 
L 157.471544 -171.26796 
L 158.614806 -171.186698 
L 159.758068 -171.135183 
L 160.90133 -171.104733 
L 162.044592 -171.087941 
L 163.187854 -171.079303 
L 164.331116 -171.075173 
L 165.474378 -171.073386 
L 166.61764 -171.072829 
L 167.760902 -171.073112 
L 168.904163 -171.074432 
L 170.047425 -171.077641 
L 171.190687 -171.084499 
L 172.333949 -171.098051 
L 173.477211 -171.12297 
L 174.620473 -171.165594 
L 175.763735 -171.233281 
L 176.906997 -171.332812 
L 178.050259 -171.467805 
L 179.193521 -171.635692 
L 180.336783 -171.825373 
L 181.480045 -172.016901 
L 182.623307 -172.184167 
L 183.766569 -172.300461 
L 184.90983 -172.345387 
L 186.053092 -172.310703 
L 187.196354 -172.20279 
L 188.339616 -172.040733 
L 189.482878 -171.850814 
L 190.62614 -171.659586 
L 191.769402 -171.488022 
L 192.912664 -171.34842 
L 194.055926 -171.244358 
L 194.055926 -170.899642 
L 194.055926 -170.899642 
L 192.912664 -170.79558 
L 191.769402 -170.655978 
L 190.62614 -170.484414 
L 189.482878 -170.293186 
L 188.339616 -170.103267 
L 187.196354 -169.94121 
L 186.053092 -169.833297 
L 184.90983 -169.798613 
L 183.766569 -169.843539 
L 182.623307 -169.959833 
L 181.480045 -170.127099 
L 180.336783 -170.318627 
L 179.193521 -170.508308 
L 178.050259 -170.676195 
L 176.906997 -170.811188 
L 175.763735 -170.910719 
L 174.620473 -170.978406 
L 173.477211 -171.02103 
L 172.333949 -171.045949 
L 171.190687 -171.059501 
L 170.047425 -171.066359 
L 168.904163 -171.069568 
L 167.760902 -171.070888 
L 166.61764 -171.071171 
L 165.474378 -171.070614 
L 164.331116 -171.068827 
L 163.187854 -171.064697 
L 162.044592 -171.056059 
L 160.90133 -171.039267 
L 159.758068 -171.008817 
L 158.614806 -170.957302 
L 157.471544 -170.87604 
L 156.328282 -170.756589 
L 155.18502 -170.593075 
L 154.041758 -170.384741 
L 152.898496 -170.137739 
L 151.755235 -169.865126 
L 150.611973 -169.584514 
L 149.468711 -169.313744 
L 148.325449 -169.065887 
L 147.182187 -168.845233 
L 146.038925 -168.645658 
L 144.895663 -168.451958 
L 143.752401 -168.243828 
L 142.609139 -168.001479 
L 141.465877 -167.711379 
L 140.322615 -167.370288 
L 139.179353 -166.985936 
L 138.036091 -166.573638 
L 136.892829 -166.149968 
L 135.749567 -165.726354 
L 134.606306 -165.30589 
L 133.463044 -164.88501 
L 132.319782 -164.458511 
L 131.17652 -164.023675 
L 130.033258 -163.579082 
L 128.889996 -163.116573 
L 127.746734 -162.609494 
L 126.603472 -162.003971 
L 125.46021 -161.220345 
L 124.316948 -160.168316 
L 123.173686 -158.77339 
L 122.030424 -157.006538 
L 120.887162 -154.90604 
L 119.7439 -152.581633 
L 118.600639 -150.195895 
L 117.457377 -147.924702 
L 116.314115 -145.905409 
L 115.170853 -144.186124 
L 114.027591 -142.690636 
L 112.884329 -141.210672 
L 111.741067 -139.430442 
L 110.597805 -136.97952 
L 109.454543 -133.50148 
L 108.311281 -128.720721 
L 107.168019 -122.491299 
L 106.024757 -114.819675 
L 104.881495 -105.86509 
L 103.738233 -95.93079 
L 102.594971 -85.460422 
L 101.45171 -75.044139 
L 100.308448 -65.422489 
L 99.165186 -57.462715 
L 98.021924 -52.082215 
L 96.878662 -50.112 
L 95.7354 -52.122956 
L 94.592138 -58.265033 
L 93.448876 -68.17816 
L 92.305614 -81.01632 
L 91.162352 -95.588531 
L 90.01909 -110.579025 
L 88.875828 -124.782524 
L 87.732566 -137.289701 
L 86.589304 -147.580994 
L 85.446043 -155.521445 
L 84.302781 -161.279737 
L 83.159519 -165.210665 
L 82.016257 -167.739399 
L 80.872995 -169.273343 
z
" id="m9a0b726a5d" style="stroke:#262626;stroke-opacity:0.5;stroke-width:1.5;"/>
    </defs>
    <g clip-path="url(#pf66a552086)">
     <use style="fill:#107010;fill-opacity:0.5;stroke:#262626;stroke-opacity:0.5;stroke-width:1.5;" x="0" xlink:href="#m9a0b726a5d" y="345.6"/>
    </g>
   </g>
   <g id="matplotlib.axis_1">
    <g id="xtick_1">
     <g id="line2d_1">
      <defs>
       <path d="M 0 0 
L 0 3.5 
" id="m5e6b80d84d" style="stroke:#000000;stroke-width:0.8;"/>
      </defs>
      <g>
       <use style="stroke:#000000;stroke-width:0.8;" x="86.033968" xlink:href="#m5e6b80d84d" y="307.584"/>
      </g>
     </g>
     <g id="text_1">
      <!-- 0 -->
      <defs>
       <path d="M 31.78125 66.40625 
Q 24.171875 66.40625 20.328125 58.90625 
Q 16.5 51.421875 16.5 36.375 
Q 16.5 21.390625 20.328125 13.890625 
Q 24.171875 6.390625 31.78125 6.390625 
Q 39.453125 6.390625 43.28125 13.890625 
Q 47.125 21.390625 47.125 36.375 
Q 47.125 51.421875 43.28125 58.90625 
Q 39.453125 66.40625 31.78125 66.40625 
z
M 31.78125 74.21875 
Q 44.046875 74.21875 50.515625 64.515625 
Q 56.984375 54.828125 56.984375 36.375 
Q 56.984375 17.96875 50.515625 8.265625 
Q 44.046875 -1.421875 31.78125 -1.421875 
Q 19.53125 -1.421875 13.0625 8.265625 
Q 6.59375 17.96875 6.59375 36.375 
Q 6.59375 54.828125 13.0625 64.515625 
Q 19.53125 74.21875 31.78125 74.21875 
z
" id="DejaVuSans-48"/>
      </defs>
      <g transform="translate(82.852718 322.182437)scale(0.1 -0.1)">
       <use xlink:href="#DejaVuSans-48"/>
      </g>
     </g>
    </g>
    <g id="xtick_2">
     <g id="line2d_2">
      <g>
       <use style="stroke:#000000;stroke-width:0.8;" x="128.538507" xlink:href="#m5e6b80d84d" y="307.584"/>
      </g>
     </g>
     <g id="text_2">
      <!-- 25 -->
      <defs>
       <path d="M 19.1875 8.296875 
L 53.609375 8.296875 
L 53.609375 0 
L 7.328125 0 
L 7.328125 8.296875 
Q 12.9375 14.109375 22.625 23.890625 
Q 32.328125 33.6875 34.8125 36.53125 
Q 39.546875 41.84375 41.421875 45.53125 
Q 43.3125 49.21875 43.3125 52.78125 
Q 43.3125 58.59375 39.234375 62.25 
Q 35.15625 65.921875 28.609375 65.921875 
Q 23.96875 65.921875 18.8125 64.3125 
Q 13.671875 62.703125 7.8125 59.421875 
L 7.8125 69.390625 
Q 13.765625 71.78125 18.9375 73 
Q 24.125 74.21875 28.421875 74.21875 
Q 39.75 74.21875 46.484375 68.546875 
Q 53.21875 62.890625 53.21875 53.421875 
Q 53.21875 48.921875 51.53125 44.890625 
Q 49.859375 40.875 45.40625 35.40625 
Q 44.1875 33.984375 37.640625 27.21875 
Q 31.109375 20.453125 19.1875 8.296875 
z
" id="DejaVuSans-50"/>
       <path d="M 10.796875 72.90625 
L 49.515625 72.90625 
L 49.515625 64.59375 
L 19.828125 64.59375 
L 19.828125 46.734375 
Q 21.96875 47.46875 24.109375 47.828125 
Q 26.265625 48.1875 28.421875 48.1875 
Q 40.625 48.1875 47.75 41.5 
Q 54.890625 34.8125 54.890625 23.390625 
Q 54.890625 11.625 47.5625 5.09375 
Q 40.234375 -1.421875 26.90625 -1.421875 
Q 22.3125 -1.421875 17.546875 -0.640625 
Q 12.796875 0.140625 7.71875 1.703125 
L 7.71875 11.625 
Q 12.109375 9.234375 16.796875 8.0625 
Q 21.484375 6.890625 26.703125 6.890625 
Q 35.15625 6.890625 40.078125 11.328125 
Q 45.015625 15.765625 45.015625 23.390625 
Q 45.015625 31 40.078125 35.4375 
Q 35.15625 39.890625 26.703125 39.890625 
Q 22.75 39.890625 18.8125 39.015625 
Q 14.890625 38.140625 10.796875 36.28125 
z
" id="DejaVuSans-53"/>
      </defs>
      <g transform="translate(122.176007 322.182437)scale(0.1 -0.1)">
       <use xlink:href="#DejaVuSans-50"/>
       <use x="63.623047" xlink:href="#DejaVuSans-53"/>
      </g>
     </g>
    </g>
    <g id="xtick_3">
     <g id="line2d_3">
      <g>
       <use style="stroke:#000000;stroke-width:0.8;" x="171.043046" xlink:href="#m5e6b80d84d" y="307.584"/>
      </g>
     </g>
     <g id="text_3">
      <!-- 50 -->
      <g transform="translate(164.680546 322.182437)scale(0.1 -0.1)">
       <use xlink:href="#DejaVuSans-53"/>
       <use x="63.623047" xlink:href="#DejaVuSans-48"/>
      </g>
     </g>
    </g>
    <g id="xtick_4">
     <g id="line2d_4">
      <g>
       <use style="stroke:#000000;stroke-width:0.8;" x="213.547585" xlink:href="#m5e6b80d84d" y="307.584"/>
      </g>
     </g>
     <g id="text_4">
      <!-- 75 -->
      <defs>
       <path d="M 8.203125 72.90625 
L 55.078125 72.90625 
L 55.078125 68.703125 
L 28.609375 0 
L 18.3125 0 
L 43.21875 64.59375 
L 8.203125 64.59375 
z
" id="DejaVuSans-55"/>
      </defs>
      <g transform="translate(207.185085 322.182437)scale(0.1 -0.1)">
       <use xlink:href="#DejaVuSans-55"/>
       <use x="63.623047" xlink:href="#DejaVuSans-53"/>
      </g>
     </g>
    </g>
    <g id="xtick_5">
     <g id="line2d_5">
      <g>
       <use style="stroke:#000000;stroke-width:0.8;" x="256.052124" xlink:href="#m5e6b80d84d" y="307.584"/>
      </g>
     </g>
     <g id="text_5">
      <!-- 100 -->
      <defs>
       <path d="M 12.40625 8.296875 
L 28.515625 8.296875 
L 28.515625 63.921875 
L 10.984375 60.40625 
L 10.984375 69.390625 
L 28.421875 72.90625 
L 38.28125 72.90625 
L 38.28125 8.296875 
L 54.390625 8.296875 
L 54.390625 0 
L 12.40625 0 
z
" id="DejaVuSans-49"/>
      </defs>
      <g transform="translate(246.508374 322.182437)scale(0.1 -0.1)">
       <use xlink:href="#DejaVuSans-49"/>
       <use x="63.623047" xlink:href="#DejaVuSans-48"/>
       <use x="127.246094" xlink:href="#DejaVuSans-48"/>
      </g>
     </g>
    </g>
    <g id="xtick_6">
     <g id="line2d_6">
      <g>
       <use style="stroke:#000000;stroke-width:0.8;" x="298.556663" xlink:href="#m5e6b80d84d" y="307.584"/>
      </g>
     </g>
     <g id="text_6">
      <!-- 125 -->
      <g transform="translate(289.012913 322.182437)scale(0.1 -0.1)">
       <use xlink:href="#DejaVuSans-49"/>
       <use x="63.623047" xlink:href="#DejaVuSans-50"/>
       <use x="127.246094" xlink:href="#DejaVuSans-53"/>
      </g>
     </g>
    </g>
    <g id="xtick_7">
     <g id="line2d_7">
      <g>
       <use style="stroke:#000000;stroke-width:0.8;" x="341.061202" xlink:href="#m5e6b80d84d" y="307.584"/>
      </g>
     </g>
     <g id="text_7">
      <!-- 150 -->
      <g transform="translate(331.517452 322.182437)scale(0.1 -0.1)">
       <use xlink:href="#DejaVuSans-49"/>
       <use x="63.623047" xlink:href="#DejaVuSans-53"/>
       <use x="127.246094" xlink:href="#DejaVuSans-48"/>
      </g>
     </g>
    </g>
    <g id="xtick_8">
     <g id="line2d_8">
      <g>
       <use style="stroke:#000000;stroke-width:0.8;" x="383.565741" xlink:href="#m5e6b80d84d" y="307.584"/>
      </g>
     </g>
     <g id="text_8">
      <!-- 175 -->
      <g transform="translate(374.021991 322.182437)scale(0.1 -0.1)">
       <use xlink:href="#DejaVuSans-49"/>
       <use x="63.623047" xlink:href="#DejaVuSans-55"/>
       <use x="127.246094" xlink:href="#DejaVuSans-53"/>
      </g>
     </g>
    </g>
    <g id="text_9">
     <!-- wbcpeakac -->
     <defs>
      <path d="M 4.203125 54.6875 
L 13.1875 54.6875 
L 24.421875 12.015625 
L 35.59375 54.6875 
L 46.1875 54.6875 
L 57.421875 12.015625 
L 68.609375 54.6875 
L 77.59375 54.6875 
L 63.28125 0 
L 52.6875 0 
L 40.921875 44.828125 
L 29.109375 0 
L 18.5 0 
z
" id="DejaVuSans-119"/>
      <path d="M 48.6875 27.296875 
Q 48.6875 37.203125 44.609375 42.84375 
Q 40.53125 48.484375 33.40625 48.484375 
Q 26.265625 48.484375 22.1875 42.84375 
Q 18.109375 37.203125 18.109375 27.296875 
Q 18.109375 17.390625 22.1875 11.75 
Q 26.265625 6.109375 33.40625 6.109375 
Q 40.53125 6.109375 44.609375 11.75 
Q 48.6875 17.390625 48.6875 27.296875 
z
M 18.109375 46.390625 
Q 20.953125 51.265625 25.265625 53.625 
Q 29.59375 56 35.59375 56 
Q 45.5625 56 51.78125 48.09375 
Q 58.015625 40.1875 58.015625 27.296875 
Q 58.015625 14.40625 51.78125 6.484375 
Q 45.5625 -1.421875 35.59375 -1.421875 
Q 29.59375 -1.421875 25.265625 0.953125 
Q 20.953125 3.328125 18.109375 8.203125 
L 18.109375 0 
L 9.078125 0 
L 9.078125 75.984375 
L 18.109375 75.984375 
z
" id="DejaVuSans-98"/>
      <path d="M 48.78125 52.59375 
L 48.78125 44.1875 
Q 44.96875 46.296875 41.140625 47.34375 
Q 37.3125 48.390625 33.40625 48.390625 
Q 24.65625 48.390625 19.8125 42.84375 
Q 14.984375 37.3125 14.984375 27.296875 
Q 14.984375 17.28125 19.8125 11.734375 
Q 24.65625 6.203125 33.40625 6.203125 
Q 37.3125 6.203125 41.140625 7.25 
Q 44.96875 8.296875 48.78125 10.40625 
L 48.78125 2.09375 
Q 45.015625 0.34375 40.984375 -0.53125 
Q 36.96875 -1.421875 32.421875 -1.421875 
Q 20.0625 -1.421875 12.78125 6.34375 
Q 5.515625 14.109375 5.515625 27.296875 
Q 5.515625 40.671875 12.859375 48.328125 
Q 20.21875 56 33.015625 56 
Q 37.15625 56 41.109375 55.140625 
Q 45.0625 54.296875 48.78125 52.59375 
z
" id="DejaVuSans-99"/>
      <path d="M 18.109375 8.203125 
L 18.109375 -20.796875 
L 9.078125 -20.796875 
L 9.078125 54.6875 
L 18.109375 54.6875 
L 18.109375 46.390625 
Q 20.953125 51.265625 25.265625 53.625 
Q 29.59375 56 35.59375 56 
Q 45.5625 56 51.78125 48.09375 
Q 58.015625 40.1875 58.015625 27.296875 
Q 58.015625 14.40625 51.78125 6.484375 
Q 45.5625 -1.421875 35.59375 -1.421875 
Q 29.59375 -1.421875 25.265625 0.953125 
Q 20.953125 3.328125 18.109375 8.203125 
z
M 48.6875 27.296875 
Q 48.6875 37.203125 44.609375 42.84375 
Q 40.53125 48.484375 33.40625 48.484375 
Q 26.265625 48.484375 22.1875 42.84375 
Q 18.109375 37.203125 18.109375 27.296875 
Q 18.109375 17.390625 22.1875 11.75 
Q 26.265625 6.109375 33.40625 6.109375 
Q 40.53125 6.109375 44.609375 11.75 
Q 48.6875 17.390625 48.6875 27.296875 
z
" id="DejaVuSans-112"/>
      <path d="M 56.203125 29.59375 
L 56.203125 25.203125 
L 14.890625 25.203125 
Q 15.484375 15.921875 20.484375 11.0625 
Q 25.484375 6.203125 34.421875 6.203125 
Q 39.59375 6.203125 44.453125 7.46875 
Q 49.3125 8.734375 54.109375 11.28125 
L 54.109375 2.78125 
Q 49.265625 0.734375 44.1875 -0.34375 
Q 39.109375 -1.421875 33.890625 -1.421875 
Q 20.796875 -1.421875 13.15625 6.1875 
Q 5.515625 13.8125 5.515625 26.8125 
Q 5.515625 40.234375 12.765625 48.109375 
Q 20.015625 56 32.328125 56 
Q 43.359375 56 49.78125 48.890625 
Q 56.203125 41.796875 56.203125 29.59375 
z
M 47.21875 32.234375 
Q 47.125 39.59375 43.09375 43.984375 
Q 39.0625 48.390625 32.421875 48.390625 
Q 24.90625 48.390625 20.390625 44.140625 
Q 15.875 39.890625 15.1875 32.171875 
z
" id="DejaVuSans-101"/>
      <path d="M 34.28125 27.484375 
Q 23.390625 27.484375 19.1875 25 
Q 14.984375 22.515625 14.984375 16.5 
Q 14.984375 11.71875 18.140625 8.90625 
Q 21.296875 6.109375 26.703125 6.109375 
Q 34.1875 6.109375 38.703125 11.40625 
Q 43.21875 16.703125 43.21875 25.484375 
L 43.21875 27.484375 
z
M 52.203125 31.203125 
L 52.203125 0 
L 43.21875 0 
L 43.21875 8.296875 
Q 40.140625 3.328125 35.546875 0.953125 
Q 30.953125 -1.421875 24.3125 -1.421875 
Q 15.921875 -1.421875 10.953125 3.296875 
Q 6 8.015625 6 15.921875 
Q 6 25.140625 12.171875 29.828125 
Q 18.359375 34.515625 30.609375 34.515625 
L 43.21875 34.515625 
L 43.21875 35.40625 
Q 43.21875 41.609375 39.140625 45 
Q 35.0625 48.390625 27.6875 48.390625 
Q 23 48.390625 18.546875 47.265625 
Q 14.109375 46.140625 10.015625 43.890625 
L 10.015625 52.203125 
Q 14.9375 54.109375 19.578125 55.046875 
Q 24.21875 56 28.609375 56 
Q 40.484375 56 46.34375 49.84375 
Q 52.203125 43.703125 52.203125 31.203125 
z
" id="DejaVuSans-97"/>
      <path d="M 9.078125 75.984375 
L 18.109375 75.984375 
L 18.109375 31.109375 
L 44.921875 54.6875 
L 56.390625 54.6875 
L 27.390625 29.109375 
L 57.625 0 
L 45.90625 0 
L 18.109375 26.703125 
L 18.109375 0 
L 9.078125 0 
z
" id="DejaVuSans-107"/>
     </defs>
     <g transform="translate(208.211562 335.860562)scale(0.1 -0.1)">
      <use xlink:href="#DejaVuSans-119"/>
      <use x="81.787109" xlink:href="#DejaVuSans-98"/>
      <use x="145.263672" xlink:href="#DejaVuSans-99"/>
      <use x="200.244141" xlink:href="#DejaVuSans-112"/>
      <use x="263.720703" xlink:href="#DejaVuSans-101"/>
      <use x="325.244141" xlink:href="#DejaVuSans-97"/>
      <use x="386.523438" xlink:href="#DejaVuSans-107"/>
      <use x="442.683594" xlink:href="#DejaVuSans-97"/>
      <use x="503.962891" xlink:href="#DejaVuSans-99"/>
     </g>
    </g>
   </g>
   <g id="matplotlib.axis_2">
    <g id="ytick_1">
     <g id="line2d_9">
      <defs>
       <path d="M 0 0 
L -3.5 0 
" id="m945893bdb5" style="stroke:#000000;stroke-width:0.8;"/>
      </defs>
      <g>
       <use style="stroke:#000000;stroke-width:0.8;" x="57.6" xlink:href="#m945893bdb5" y="174.528"/>
      </g>
     </g>
    </g>
   </g>
   <g id="line2d_10">
    <path clip-path="url(#pf66a552086)" d="M 86.374004 174.528 
L 128.198471 174.528 
" style="fill:none;stroke:#ffa500;stroke-linecap:square;stroke-width:1.5;"/>
   </g>
   <g id="line2d_11">
    <path clip-path="url(#pf66a552086)" d="M 98.147762 174.528 
L 110.856619 174.528 
" style="fill:none;stroke:#4c4c4c;stroke-linecap:square;stroke-width:4.5;"/>
   </g>
   <g id="line2d_12">
    <path clip-path="url(#pf66a552086)" d="M 89.944386 174.528 
L 119.867581 174.528 
" style="fill:none;stroke:#008000;stroke-linecap:square;stroke-width:1.5;"/>
   </g>
   <g id="line2d_13">
    <path clip-path="url(#pf66a552086)" d="M 95.214949 174.528 
L 105.076002 174.528 
" style="fill:none;stroke:#262626;stroke-linecap:square;stroke-width:4.5;"/>
   </g>
   <g id="patch_3">
    <path d="M 57.6 307.584 
L 57.6 41.472 
" style="fill:none;stroke:#000000;stroke-linecap:square;stroke-linejoin:miter;stroke-width:0.8;"/>
   </g>
   <g id="patch_4">
    <path d="M 414.72 307.584 
L 414.72 41.472 
" style="fill:none;stroke:#000000;stroke-linecap:square;stroke-linejoin:miter;stroke-width:0.8;"/>
   </g>
   <g id="patch_5">
    <path d="M 57.6 307.584 
L 414.72 307.584 
" style="fill:none;stroke:#000000;stroke-linecap:square;stroke-linejoin:miter;stroke-width:0.8;"/>
   </g>
   <g id="patch_6">
    <path d="M 57.6 41.472 
L 414.72 41.472 
" style="fill:none;stroke:#000000;stroke-linecap:square;stroke-linejoin:miter;stroke-width:0.8;"/>
   </g>
   <g id="PathCollection_1">
    <defs>
     <path d="M 0 1.5 
C 0.397805 1.5 0.77937 1.341951 1.06066 1.06066 
C 1.341951 0.77937 1.5 0.397805 1.5 0 
C 1.5 -0.397805 1.341951 -0.77937 1.06066 -1.06066 
C 0.77937 -1.341951 0.397805 -1.5 0 -1.5 
C -0.397805 -1.5 -0.77937 -1.341951 -1.06066 -1.06066 
C -1.341951 -0.77937 -1.5 -0.397805 -1.5 0 
C -1.5 0.397805 -1.341951 0.77937 -1.06066 1.06066 
C -0.77937 1.341951 -0.397805 1.5 0 1.5 
z
" id="m8dd58e6f7c" style="stroke:#4c4c4c;stroke-opacity:0.5;"/>
    </defs>
    <g clip-path="url(#pf66a552086)">
     <use style="fill:#ffffff;fill-opacity:0.5;stroke:#4c4c4c;stroke-opacity:0.5;" x="102.950775" xlink:href="#m8dd58e6f7c" y="174.528"/>
    </g>
   </g>
   <g id="PathCollection_2">
    <defs>
     <path d="M 0 1.5 
C 0.397805 1.5 0.77937 1.341951 1.06066 1.06066 
C 1.341951 0.77937 1.5 0.397805 1.5 0 
C 1.5 -0.397805 1.341951 -0.77937 1.06066 -1.06066 
C 0.77937 -1.341951 0.397805 -1.5 0 -1.5 
C -0.397805 -1.5 -0.77937 -1.341951 -1.06066 -1.06066 
C -1.341951 -0.77937 -1.5 -0.397805 -1.5 0 
C -1.5 0.397805 -1.341951 0.77937 -1.06066 1.06066 
C -0.77937 1.341951 -0.397805 1.5 0 1.5 
z
" id="m13a9195d1f" style="stroke:#262626;stroke-opacity:0.5;"/>
    </defs>
    <g clip-path="url(#pf66a552086)">
     <use style="fill:#ffffff;fill-opacity:0.5;stroke:#262626;stroke-opacity:0.5;" x="98.275275" xlink:href="#m13a9195d1f" y="174.528"/>
    </g>
   </g>
   <g id="text_10">
    <!-- Association of wbcpeakac vs. nasal_cannula -->
    <defs>
     <path d="M 34.1875 63.1875 
L 20.796875 26.90625 
L 47.609375 26.90625 
z
M 28.609375 72.90625 
L 39.796875 72.90625 
L 67.578125 0 
L 57.328125 0 
L 50.6875 18.703125 
L 17.828125 18.703125 
L 11.1875 0 
L 0.78125 0 
z
" id="DejaVuSans-65"/>
     <path d="M 44.28125 53.078125 
L 44.28125 44.578125 
Q 40.484375 46.53125 36.375 47.5 
Q 32.28125 48.484375 27.875 48.484375 
Q 21.1875 48.484375 17.84375 46.4375 
Q 14.5 44.390625 14.5 40.28125 
Q 14.5 37.15625 16.890625 35.375 
Q 19.28125 33.59375 26.515625 31.984375 
L 29.59375 31.296875 
Q 39.15625 29.25 43.1875 25.515625 
Q 47.21875 21.78125 47.21875 15.09375 
Q 47.21875 7.46875 41.1875 3.015625 
Q 35.15625 -1.421875 24.609375 -1.421875 
Q 20.21875 -1.421875 15.453125 -0.5625 
Q 10.6875 0.296875 5.421875 2 
L 5.421875 11.28125 
Q 10.40625 8.6875 15.234375 7.390625 
Q 20.0625 6.109375 24.8125 6.109375 
Q 31.15625 6.109375 34.5625 8.28125 
Q 37.984375 10.453125 37.984375 14.40625 
Q 37.984375 18.0625 35.515625 20.015625 
Q 33.0625 21.96875 24.703125 23.78125 
L 21.578125 24.515625 
Q 13.234375 26.265625 9.515625 29.90625 
Q 5.8125 33.546875 5.8125 39.890625 
Q 5.8125 47.609375 11.28125 51.796875 
Q 16.75 56 26.8125 56 
Q 31.78125 56 36.171875 55.265625 
Q 40.578125 54.546875 44.28125 53.078125 
z
" id="DejaVuSans-115"/>
     <path d="M 30.609375 48.390625 
Q 23.390625 48.390625 19.1875 42.75 
Q 14.984375 37.109375 14.984375 27.296875 
Q 14.984375 17.484375 19.15625 11.84375 
Q 23.34375 6.203125 30.609375 6.203125 
Q 37.796875 6.203125 41.984375 11.859375 
Q 46.1875 17.53125 46.1875 27.296875 
Q 46.1875 37.015625 41.984375 42.703125 
Q 37.796875 48.390625 30.609375 48.390625 
z
M 30.609375 56 
Q 42.328125 56 49.015625 48.375 
Q 55.71875 40.765625 55.71875 27.296875 
Q 55.71875 13.875 49.015625 6.21875 
Q 42.328125 -1.421875 30.609375 -1.421875 
Q 18.84375 -1.421875 12.171875 6.21875 
Q 5.515625 13.875 5.515625 27.296875 
Q 5.515625 40.765625 12.171875 48.375 
Q 18.84375 56 30.609375 56 
z
" id="DejaVuSans-111"/>
     <path d="M 9.421875 54.6875 
L 18.40625 54.6875 
L 18.40625 0 
L 9.421875 0 
z
M 9.421875 75.984375 
L 18.40625 75.984375 
L 18.40625 64.59375 
L 9.421875 64.59375 
z
" id="DejaVuSans-105"/>
     <path d="M 18.3125 70.21875 
L 18.3125 54.6875 
L 36.8125 54.6875 
L 36.8125 47.703125 
L 18.3125 47.703125 
L 18.3125 18.015625 
Q 18.3125 11.328125 20.140625 9.421875 
Q 21.96875 7.515625 27.59375 7.515625 
L 36.8125 7.515625 
L 36.8125 0 
L 27.59375 0 
Q 17.1875 0 13.234375 3.875 
Q 9.28125 7.765625 9.28125 18.015625 
L 9.28125 47.703125 
L 2.6875 47.703125 
L 2.6875 54.6875 
L 9.28125 54.6875 
L 9.28125 70.21875 
z
" id="DejaVuSans-116"/>
     <path d="M 54.890625 33.015625 
L 54.890625 0 
L 45.90625 0 
L 45.90625 32.71875 
Q 45.90625 40.484375 42.875 44.328125 
Q 39.84375 48.1875 33.796875 48.1875 
Q 26.515625 48.1875 22.3125 43.546875 
Q 18.109375 38.921875 18.109375 30.90625 
L 18.109375 0 
L 9.078125 0 
L 9.078125 54.6875 
L 18.109375 54.6875 
L 18.109375 46.1875 
Q 21.34375 51.125 25.703125 53.5625 
Q 30.078125 56 35.796875 56 
Q 45.21875 56 50.046875 50.171875 
Q 54.890625 44.34375 54.890625 33.015625 
z
" id="DejaVuSans-110"/>
     <path id="DejaVuSans-32"/>
     <path d="M 37.109375 75.984375 
L 37.109375 68.5 
L 28.515625 68.5 
Q 23.6875 68.5 21.796875 66.546875 
Q 19.921875 64.59375 19.921875 59.515625 
L 19.921875 54.6875 
L 34.71875 54.6875 
L 34.71875 47.703125 
L 19.921875 47.703125 
L 19.921875 0 
L 10.890625 0 
L 10.890625 47.703125 
L 2.296875 47.703125 
L 2.296875 54.6875 
L 10.890625 54.6875 
L 10.890625 58.5 
Q 10.890625 67.625 15.140625 71.796875 
Q 19.390625 75.984375 28.609375 75.984375 
z
" id="DejaVuSans-102"/>
     <path d="M 2.984375 54.6875 
L 12.5 54.6875 
L 29.59375 8.796875 
L 46.6875 54.6875 
L 56.203125 54.6875 
L 35.6875 0 
L 23.484375 0 
z
" id="DejaVuSans-118"/>
     <path d="M 10.6875 12.40625 
L 21 12.40625 
L 21 0 
L 10.6875 0 
z
" id="DejaVuSans-46"/>
     <path d="M 9.421875 75.984375 
L 18.40625 75.984375 
L 18.40625 0 
L 9.421875 0 
z
" id="DejaVuSans-108"/>
     <path d="M 50.984375 -16.609375 
L 50.984375 -23.578125 
L -0.984375 -23.578125 
L -0.984375 -16.609375 
z
" id="DejaVuSans-95"/>
     <path d="M 8.5 21.578125 
L 8.5 54.6875 
L 17.484375 54.6875 
L 17.484375 21.921875 
Q 17.484375 14.15625 20.5 10.265625 
Q 23.53125 6.390625 29.59375 6.390625 
Q 36.859375 6.390625 41.078125 11.03125 
Q 45.3125 15.671875 45.3125 23.6875 
L 45.3125 54.6875 
L 54.296875 54.6875 
L 54.296875 0 
L 45.3125 0 
L 45.3125 8.40625 
Q 42.046875 3.421875 37.71875 1 
Q 33.40625 -1.421875 27.6875 -1.421875 
Q 18.265625 -1.421875 13.375 4.4375 
Q 8.5 10.296875 8.5 21.578125 
z
M 31.109375 56 
z
" id="DejaVuSans-117"/>
    </defs>
    <g transform="translate(103.78875 35.472)scale(0.12 -0.12)">
     <use xlink:href="#DejaVuSans-65"/>
     <use x="68.408203" xlink:href="#DejaVuSans-115"/>
     <use x="120.507812" xlink:href="#DejaVuSans-115"/>
     <use x="172.607422" xlink:href="#DejaVuSans-111"/>
     <use x="233.789062" xlink:href="#DejaVuSans-99"/>
     <use x="288.769531" xlink:href="#DejaVuSans-105"/>
     <use x="316.552734" xlink:href="#DejaVuSans-97"/>
     <use x="377.832031" xlink:href="#DejaVuSans-116"/>
     <use x="417.041016" xlink:href="#DejaVuSans-105"/>
     <use x="444.824219" xlink:href="#DejaVuSans-111"/>
     <use x="506.005859" xlink:href="#DejaVuSans-110"/>
     <use x="569.384766" xlink:href="#DejaVuSans-32"/>
     <use x="601.171875" xlink:href="#DejaVuSans-111"/>
     <use x="662.353516" xlink:href="#DejaVuSans-102"/>
     <use x="697.558594" xlink:href="#DejaVuSans-32"/>
     <use x="729.345703" xlink:href="#DejaVuSans-119"/>
     <use x="811.132812" xlink:href="#DejaVuSans-98"/>
     <use x="874.609375" xlink:href="#DejaVuSans-99"/>
     <use x="929.589844" xlink:href="#DejaVuSans-112"/>
     <use x="993.066406" xlink:href="#DejaVuSans-101"/>
     <use x="1054.589844" xlink:href="#DejaVuSans-97"/>
     <use x="1115.869141" xlink:href="#DejaVuSans-107"/>
     <use x="1172.029297" xlink:href="#DejaVuSans-97"/>
     <use x="1233.308594" xlink:href="#DejaVuSans-99"/>
     <use x="1288.289062" xlink:href="#DejaVuSans-32"/>
     <use x="1320.076172" xlink:href="#DejaVuSans-118"/>
     <use x="1379.255859" xlink:href="#DejaVuSans-115"/>
     <use x="1431.355469" xlink:href="#DejaVuSans-46"/>
     <use x="1463.142578" xlink:href="#DejaVuSans-32"/>
     <use x="1494.929688" xlink:href="#DejaVuSans-110"/>
     <use x="1558.308594" xlink:href="#DejaVuSans-97"/>
     <use x="1619.587891" xlink:href="#DejaVuSans-115"/>
     <use x="1671.6875" xlink:href="#DejaVuSans-97"/>
     <use x="1732.966797" xlink:href="#DejaVuSans-108"/>
     <use x="1760.75" xlink:href="#DejaVuSans-95"/>
     <use x="1810.75" xlink:href="#DejaVuSans-99"/>
     <use x="1865.730469" xlink:href="#DejaVuSans-97"/>
     <use x="1927.009766" xlink:href="#DejaVuSans-110"/>
     <use x="1990.388672" xlink:href="#DejaVuSans-110"/>
     <use x="2053.767578" xlink:href="#DejaVuSans-117"/>
     <use x="2117.146484" xlink:href="#DejaVuSans-108"/>
     <use x="2144.929688" xlink:href="#DejaVuSans-97"/>
    </g>
   </g>
   <g id="legend_1">
    <g id="patch_7">
     <path d="M 253.82625 79.3845 
L 407.72 79.3845 
Q 409.72 79.3845 409.72 77.3845 
L 409.72 48.472 
Q 409.72 46.472 407.72 46.472 
L 253.82625 46.472 
Q 251.82625 46.472 251.82625 48.472 
L 251.82625 77.3845 
Q 251.82625 79.3845 253.82625 79.3845 
z
" style="fill:#ffffff;opacity:0.8;stroke:#cccccc;stroke-linejoin:miter;"/>
    </g>
    <g id="line2d_14">
     <path d="M 255.82625 54.570438 
L 275.82625 54.570438 
" style="fill:none;stroke:#ffa500;stroke-linecap:square;stroke-width:1.5;"/>
    </g>
    <g id="line2d_15"/>
    <g id="text_11">
     <!-- nasal_cannula (338) -->
     <defs>
      <path d="M 31 75.875 
Q 24.46875 64.65625 21.28125 53.65625 
Q 18.109375 42.671875 18.109375 31.390625 
Q 18.109375 20.125 21.3125 9.0625 
Q 24.515625 -2 31 -13.1875 
L 23.1875 -13.1875 
Q 15.875 -1.703125 12.234375 9.375 
Q 8.59375 20.453125 8.59375 31.390625 
Q 8.59375 42.28125 12.203125 53.3125 
Q 15.828125 64.359375 23.1875 75.875 
z
" id="DejaVuSans-40"/>
      <path d="M 40.578125 39.3125 
Q 47.65625 37.796875 51.625 33 
Q 55.609375 28.21875 55.609375 21.1875 
Q 55.609375 10.40625 48.1875 4.484375 
Q 40.765625 -1.421875 27.09375 -1.421875 
Q 22.515625 -1.421875 17.65625 -0.515625 
Q 12.796875 0.390625 7.625 2.203125 
L 7.625 11.71875 
Q 11.71875 9.328125 16.59375 8.109375 
Q 21.484375 6.890625 26.8125 6.890625 
Q 36.078125 6.890625 40.9375 10.546875 
Q 45.796875 14.203125 45.796875 21.1875 
Q 45.796875 27.640625 41.28125 31.265625 
Q 36.765625 34.90625 28.71875 34.90625 
L 20.21875 34.90625 
L 20.21875 43.015625 
L 29.109375 43.015625 
Q 36.375 43.015625 40.234375 45.921875 
Q 44.09375 48.828125 44.09375 54.296875 
Q 44.09375 59.90625 40.109375 62.90625 
Q 36.140625 65.921875 28.71875 65.921875 
Q 24.65625 65.921875 20.015625 65.03125 
Q 15.375 64.15625 9.8125 62.3125 
L 9.8125 71.09375 
Q 15.4375 72.65625 20.34375 73.4375 
Q 25.25 74.21875 29.59375 74.21875 
Q 40.828125 74.21875 47.359375 69.109375 
Q 53.90625 64.015625 53.90625 55.328125 
Q 53.90625 49.265625 50.4375 45.09375 
Q 46.96875 40.921875 40.578125 39.3125 
z
" id="DejaVuSans-51"/>
      <path d="M 31.78125 34.625 
Q 24.75 34.625 20.71875 30.859375 
Q 16.703125 27.09375 16.703125 20.515625 
Q 16.703125 13.921875 20.71875 10.15625 
Q 24.75 6.390625 31.78125 6.390625 
Q 38.8125 6.390625 42.859375 10.171875 
Q 46.921875 13.96875 46.921875 20.515625 
Q 46.921875 27.09375 42.890625 30.859375 
Q 38.875 34.625 31.78125 34.625 
z
M 21.921875 38.8125 
Q 15.578125 40.375 12.03125 44.71875 
Q 8.5 49.078125 8.5 55.328125 
Q 8.5 64.0625 14.71875 69.140625 
Q 20.953125 74.21875 31.78125 74.21875 
Q 42.671875 74.21875 48.875 69.140625 
Q 55.078125 64.0625 55.078125 55.328125 
Q 55.078125 49.078125 51.53125 44.71875 
Q 48 40.375 41.703125 38.8125 
Q 48.828125 37.15625 52.796875 32.3125 
Q 56.78125 27.484375 56.78125 20.515625 
Q 56.78125 9.90625 50.3125 4.234375 
Q 43.84375 -1.421875 31.78125 -1.421875 
Q 19.734375 -1.421875 13.25 4.234375 
Q 6.78125 9.90625 6.78125 20.515625 
Q 6.78125 27.484375 10.78125 32.3125 
Q 14.796875 37.15625 21.921875 38.8125 
z
M 18.3125 54.390625 
Q 18.3125 48.734375 21.84375 45.5625 
Q 25.390625 42.390625 31.78125 42.390625 
Q 38.140625 42.390625 41.71875 45.5625 
Q 45.3125 48.734375 45.3125 54.390625 
Q 45.3125 60.0625 41.71875 63.234375 
Q 38.140625 66.40625 31.78125 66.40625 
Q 25.390625 66.40625 21.84375 63.234375 
Q 18.3125 60.0625 18.3125 54.390625 
z
" id="DejaVuSans-56"/>
      <path d="M 8.015625 75.875 
L 15.828125 75.875 
Q 23.140625 64.359375 26.78125 53.3125 
Q 30.421875 42.28125 30.421875 31.390625 
Q 30.421875 20.453125 26.78125 9.375 
Q 23.140625 -1.703125 15.828125 -13.1875 
L 8.015625 -13.1875 
Q 14.5 -2 17.703125 9.0625 
Q 20.90625 20.125 20.90625 31.390625 
Q 20.90625 42.671875 17.703125 53.65625 
Q 14.5 64.65625 8.015625 75.875 
z
" id="DejaVuSans-41"/>
     </defs>
     <g transform="translate(283.82625 58.070438)scale(0.1 -0.1)">
      <use xlink:href="#DejaVuSans-110"/>
      <use x="63.378906" xlink:href="#DejaVuSans-97"/>
      <use x="124.658203" xlink:href="#DejaVuSans-115"/>
      <use x="176.757812" xlink:href="#DejaVuSans-97"/>
      <use x="238.037109" xlink:href="#DejaVuSans-108"/>
      <use x="265.820312" xlink:href="#DejaVuSans-95"/>
      <use x="315.820312" xlink:href="#DejaVuSans-99"/>
      <use x="370.800781" xlink:href="#DejaVuSans-97"/>
      <use x="432.080078" xlink:href="#DejaVuSans-110"/>
      <use x="495.458984" xlink:href="#DejaVuSans-110"/>
      <use x="558.837891" xlink:href="#DejaVuSans-117"/>
      <use x="622.216797" xlink:href="#DejaVuSans-108"/>
      <use x="650" xlink:href="#DejaVuSans-97"/>
      <use x="711.279297" xlink:href="#DejaVuSans-32"/>
      <use x="743.066406" xlink:href="#DejaVuSans-40"/>
      <use x="782.080078" xlink:href="#DejaVuSans-51"/>
      <use x="845.703125" xlink:href="#DejaVuSans-51"/>
      <use x="909.326172" xlink:href="#DejaVuSans-56"/>
      <use x="972.949219" xlink:href="#DejaVuSans-41"/>
     </g>
    </g>
    <g id="line2d_16">
     <path d="M 255.82625 69.526688 
L 275.82625 69.526688 
" style="fill:none;stroke:#008000;stroke-linecap:square;stroke-width:1.5;"/>
    </g>
    <g id="line2d_17"/>
    <g id="text_12">
     <!-- Not nasal_cannula (165) -->
     <defs>
      <path d="M 9.8125 72.90625 
L 23.09375 72.90625 
L 55.421875 11.921875 
L 55.421875 72.90625 
L 64.984375 72.90625 
L 64.984375 0 
L 51.703125 0 
L 19.390625 60.984375 
L 19.390625 0 
L 9.8125 0 
z
" id="DejaVuSans-78"/>
      <path d="M 33.015625 40.375 
Q 26.375 40.375 22.484375 35.828125 
Q 18.609375 31.296875 18.609375 23.390625 
Q 18.609375 15.53125 22.484375 10.953125 
Q 26.375 6.390625 33.015625 6.390625 
Q 39.65625 6.390625 43.53125 10.953125 
Q 47.40625 15.53125 47.40625 23.390625 
Q 47.40625 31.296875 43.53125 35.828125 
Q 39.65625 40.375 33.015625 40.375 
z
M 52.59375 71.296875 
L 52.59375 62.3125 
Q 48.875 64.0625 45.09375 64.984375 
Q 41.3125 65.921875 37.59375 65.921875 
Q 27.828125 65.921875 22.671875 59.328125 
Q 17.53125 52.734375 16.796875 39.40625 
Q 19.671875 43.65625 24.015625 45.921875 
Q 28.375 48.1875 33.59375 48.1875 
Q 44.578125 48.1875 50.953125 41.515625 
Q 57.328125 34.859375 57.328125 23.390625 
Q 57.328125 12.15625 50.6875 5.359375 
Q 44.046875 -1.421875 33.015625 -1.421875 
Q 20.359375 -1.421875 13.671875 8.265625 
Q 6.984375 17.96875 6.984375 36.375 
Q 6.984375 53.65625 15.1875 63.9375 
Q 23.390625 74.21875 37.203125 74.21875 
Q 40.921875 74.21875 44.703125 73.484375 
Q 48.484375 72.75 52.59375 71.296875 
z
" id="DejaVuSans-54"/>
     </defs>
     <g transform="translate(283.82625 73.026688)scale(0.1 -0.1)">
      <use xlink:href="#DejaVuSans-78"/>
      <use x="74.804688" xlink:href="#DejaVuSans-111"/>
      <use x="135.986328" xlink:href="#DejaVuSans-116"/>
      <use x="175.195312" xlink:href="#DejaVuSans-32"/>
      <use x="206.982422" xlink:href="#DejaVuSans-110"/>
      <use x="270.361328" xlink:href="#DejaVuSans-97"/>
      <use x="331.640625" xlink:href="#DejaVuSans-115"/>
      <use x="383.740234" xlink:href="#DejaVuSans-97"/>
      <use x="445.019531" xlink:href="#DejaVuSans-108"/>
      <use x="472.802734" xlink:href="#DejaVuSans-95"/>
      <use x="522.802734" xlink:href="#DejaVuSans-99"/>
      <use x="577.783203" xlink:href="#DejaVuSans-97"/>
      <use x="639.0625" xlink:href="#DejaVuSans-110"/>
      <use x="702.441406" xlink:href="#DejaVuSans-110"/>
      <use x="765.820312" xlink:href="#DejaVuSans-117"/>
      <use x="829.199219" xlink:href="#DejaVuSans-108"/>
      <use x="856.982422" xlink:href="#DejaVuSans-97"/>
      <use x="918.261719" xlink:href="#DejaVuSans-32"/>
      <use x="950.048828" xlink:href="#DejaVuSans-40"/>
      <use x="989.0625" xlink:href="#DejaVuSans-49"/>
      <use x="1052.685547" xlink:href="#DejaVuSans-54"/>
      <use x="1116.308594" xlink:href="#DejaVuSans-53"/>
      <use x="1179.931641" xlink:href="#DejaVuSans-41"/>
     </g>
    </g>
   </g>
  </g>
 </g>
 <defs>
  <clipPath id="pf66a552086">
   <rect height="266.112" width="357.12" x="57.6" y="41.472"/>
  </clipPath>
 </defs>
</svg>
