<?xml version="1.0" encoding="utf-8" standalone="no"?>
<!DOCTYPE svg PUBLIC "-//W3C//DTD SVG 1.1//EN"
  "http://www.w3.org/Graphics/SVG/1.1/DTD/svg11.dtd">
<!-- Created with matplotlib (https://matplotlib.org/) -->
<svg height="345.6pt" version="1.1" viewBox="0 0 460.8 345.6" width="460.8pt" xmlns="http://www.w3.org/2000/svg" xmlns:xlink="http://www.w3.org/1999/xlink">
 <defs>
  <style type="text/css">
*{stroke-linecap:butt;stroke-linejoin:round;}
  </style>
 </defs>
 <g id="figure_1">
  <g id="patch_1">
   <path d="M 0 345.6 
L 460.8 345.6 
L 460.8 0 
L 0 0 
z
" style="fill:#ffffff;"/>
  </g>
  <g id="axes_1">
   <g id="patch_2">
    <path d="M 57.6 307.584 
L 414.72 307.584 
L 414.72 41.472 
L 57.6 41.472 
z
" style="fill:#ffffff;"/>
   </g>
   <g id="PolyCollection_1">
    <defs>
     <path d="M 73.832727 -161.76399 
L 73.832727 -180.38001 
L 77.112066 -189.17783 
L 80.391405 -202.902183 
L 83.670744 -221.67773 
L 86.950083 -243.895078 
L 90.229421 -266.032031 
L 93.50876 -283.451665 
L 96.788099 -292.032 
L 100.067438 -289.844193 
L 103.346777 -277.92203 
L 106.626116 -259.683994 
L 109.905455 -239.408359 
L 113.184793 -220.667012 
L 116.464132 -205.465452 
L 119.743471 -194.257407 
L 123.02281 -186.502361 
L 126.302149 -181.303446 
L 129.581488 -177.834723 
L 132.860826 -175.505894 
L 136.140165 -173.952871 
L 139.419504 -172.962435 
L 142.698843 -172.397905 
L 145.978182 -172.149187 
L 149.257521 -172.108263 
L 152.53686 -172.16573 
L 155.816198 -172.222916 
L 159.095537 -172.210846 
L 162.374876 -172.10403 
L 165.654215 -171.919436 
L 168.933554 -171.699934 
L 172.212893 -171.491198 
L 175.492231 -171.323973 
L 178.77157 -171.208336 
L 182.050909 -171.138397 
L 185.330248 -171.101104 
L 188.609587 -171.083482 
L 191.888926 -171.076077 
L 195.168264 -171.073303 
L 198.447603 -171.072375 
L 201.726942 -171.072097 
L 205.006281 -171.072023 
L 208.28562 -171.072005 
L 211.564959 -171.072001 
L 214.844298 -171.072 
L 218.123636 -171.072 
L 221.402975 -171.072 
L 224.682314 -171.072 
L 227.961653 -171.072 
L 231.240992 -171.072 
L 234.520331 -171.072 
L 237.799669 -171.072 
L 241.079008 -171.072 
L 244.358347 -171.072 
L 247.637686 -171.072 
L 250.917025 -171.072 
L 254.196364 -171.072 
L 257.475702 -171.072 
L 260.755041 -171.072 
L 264.03438 -171.072 
L 267.313719 -171.072 
L 270.593058 -171.072 
L 273.872397 -171.072 
L 277.151736 -171.072 
L 280.431074 -171.072 
L 283.710413 -171.072 
L 286.989752 -171.072 
L 290.269091 -171.072 
L 293.54843 -171.072 
L 296.827769 -171.072 
L 300.107107 -171.072 
L 303.386446 -171.072 
L 306.665785 -171.072 
L 309.945124 -171.072 
L 313.224463 -171.072 
L 316.503802 -171.072 
L 319.78314 -171.072 
L 323.062479 -171.072 
L 326.341818 -171.072002 
L 329.621157 -171.07201 
L 332.900496 -171.072047 
L 336.179835 -171.072191 
L 339.459174 -171.072701 
L 342.738512 -171.074314 
L 346.017851 -171.078876 
L 349.29719 -171.090386 
L 352.576529 -171.116251 
L 355.855868 -171.167852 
L 359.135207 -171.258867 
L 362.414545 -171.399883 
L 365.693884 -171.589795 
L 368.973223 -171.807952 
L 372.252562 -172.013443 
L 375.531901 -172.155905 
L 378.81124 -172.19516 
L 382.090579 -172.119478 
L 385.369917 -171.951227 
L 388.649256 -171.736217 
L 391.928595 -171.523619 
L 395.207934 -171.348368 
L 398.487273 -171.224214 
L 398.487273 -170.919786 
L 398.487273 -170.919786 
L 395.207934 -170.795632 
L 391.928595 -170.620381 
L 388.649256 -170.407783 
L 385.369917 -170.192773 
L 382.090579 -170.024522 
L 378.81124 -169.94884 
L 375.531901 -169.988095 
L 372.252562 -170.130557 
L 368.973223 -170.336048 
L 365.693884 -170.554205 
L 362.414545 -170.744117 
L 359.135207 -170.885133 
L 355.855868 -170.976148 
L 352.576529 -171.027749 
L 349.29719 -171.053614 
L 346.017851 -171.065124 
L 342.738512 -171.069686 
L 339.459174 -171.071299 
L 336.179835 -171.071809 
L 332.900496 -171.071953 
L 329.621157 -171.07199 
L 326.341818 -171.071998 
L 323.062479 -171.072 
L 319.78314 -171.072 
L 316.503802 -171.072 
L 313.224463 -171.072 
L 309.945124 -171.072 
L 306.665785 -171.072 
L 303.386446 -171.072 
L 300.107107 -171.072 
L 296.827769 -171.072 
L 293.54843 -171.072 
L 290.269091 -171.072 
L 286.989752 -171.072 
L 283.710413 -171.072 
L 280.431074 -171.072 
L 277.151736 -171.072 
L 273.872397 -171.072 
L 270.593058 -171.072 
L 267.313719 -171.072 
L 264.03438 -171.072 
L 260.755041 -171.072 
L 257.475702 -171.072 
L 254.196364 -171.072 
L 250.917025 -171.072 
L 247.637686 -171.072 
L 244.358347 -171.072 
L 241.079008 -171.072 
L 237.799669 -171.072 
L 234.520331 -171.072 
L 231.240992 -171.072 
L 227.961653 -171.072 
L 224.682314 -171.072 
L 221.402975 -171.072 
L 218.123636 -171.072 
L 214.844298 -171.072 
L 211.564959 -171.071999 
L 208.28562 -171.071995 
L 205.006281 -171.071977 
L 201.726942 -171.071903 
L 198.447603 -171.071625 
L 195.168264 -171.070697 
L 191.888926 -171.067923 
L 188.609587 -171.060518 
L 185.330248 -171.042896 
L 182.050909 -171.005603 
L 178.77157 -170.935664 
L 175.492231 -170.820027 
L 172.212893 -170.652802 
L 168.933554 -170.444066 
L 165.654215 -170.224564 
L 162.374876 -170.03997 
L 159.095537 -169.933154 
L 155.816198 -169.921084 
L 152.53686 -169.97827 
L 149.257521 -170.035737 
L 145.978182 -169.994813 
L 142.698843 -169.746095 
L 139.419504 -169.181565 
L 136.140165 -168.191129 
L 132.860826 -166.638106 
L 129.581488 -164.309277 
L 126.302149 -160.840554 
L 123.02281 -155.641639 
L 119.743471 -147.886593 
L 116.464132 -136.678548 
L 113.184793 -121.476988 
L 109.905455 -102.735641 
L 106.626116 -82.460006 
L 103.346777 -64.22197 
L 100.067438 -52.299807 
L 96.788099 -50.112 
L 93.50876 -58.692335 
L 90.229421 -76.111969 
L 86.950083 -98.248922 
L 83.670744 -120.46627 
L 80.391405 -139.241817 
L 77.112066 -152.96617 
L 73.832727 -161.76399 
z
" id="m57e5423c32" style="stroke:#4c4c4c;stroke-opacity:0.5;stroke-width:1.5;"/>
    </defs>
    <g clip-path="url(#p72ea603a7f)">
     <use style="fill:#df9c20;fill-opacity:0.5;stroke:#4c4c4c;stroke-opacity:0.5;stroke-width:1.5;" x="0" xlink:href="#m57e5423c32" y="345.6"/>
    </g>
   </g>
   <g id="PolyCollection_2">
    <defs>
     <path d="M 90.183295 -169.380903 
L 90.183295 -172.763097 
L 90.650082 -174.663495 
L 91.11687 -178.112373 
L 91.583658 -183.828973 
L 92.050445 -192.476138 
L 92.517233 -204.398154 
L 92.984021 -219.349622 
L 93.450808 -236.344941 
L 93.917596 -253.738753 
L 94.384383 -269.55242 
L 94.851171 -281.938534 
L 95.317959 -289.603071 
L 95.784746 -292.032 
L 96.251534 -289.474656 
L 96.718322 -282.747313 
L 97.185109 -272.971745 
L 97.651897 -261.343302 
L 98.118685 -248.968436 
L 98.585472 -236.768327 
L 99.05226 -225.431957 
L 99.519048 -215.407012 
L 99.985835 -206.9214 
L 100.452623 -200.025139 
L 100.919411 -194.638647 
L 101.386198 -190.596039 
L 101.852986 -187.679629 
L 102.319773 -185.647606 
L 102.786561 -184.2571 
L 103.253349 -183.282474 
L 103.720136 -182.528583 
L 104.186924 -181.841397 
L 104.653712 -181.119338 
L 105.120499 -180.324528 
L 105.587287 -179.486422 
L 106.054075 -178.68798 
L 106.520862 -178.031074 
L 106.98765 -177.59028 
L 107.454438 -177.374208 
L 107.921225 -177.313243 
L 108.388013 -177.281159 
L 108.8548 -177.141746 
L 109.321588 -176.799817 
L 109.788376 -176.235022 
L 110.255163 -175.50619 
L 110.721951 -174.72747 
L 111.188739 -174.028213 
L 111.655526 -173.512466 
L 112.122314 -173.231293 
L 112.589102 -173.17456 
L 113.055889 -173.281547 
L 113.522677 -173.46411 
L 113.989465 -173.63356 
L 114.456252 -173.723164 
L 114.92304 -173.701295 
L 115.389828 -173.573954 
L 115.856615 -173.377932 
L 116.323403 -173.167047 
L 116.79019 -172.994756 
L 117.256978 -172.897712 
L 117.723766 -172.885538 
L 118.190553 -172.94038 
L 118.657341 -173.025497 
L 119.124129 -173.097987 
L 119.590916 -173.11999 
L 120.057704 -173.065626 
L 120.524492 -172.924415 
L 120.991279 -172.702698 
L 121.458067 -172.422798 
L 121.924855 -172.118388 
L 122.391642 -171.82593 
L 122.85843 -171.574997 
L 123.325217 -171.381647 
L 123.792005 -171.247418 
L 124.258793 -171.163271 
L 124.72558 -171.115553 
L 125.192368 -171.091042 
L 125.659156 -171.079625 
L 126.125943 -171.074807 
L 126.592731 -171.072993 
L 127.059519 -171.072489 
L 127.526306 -171.072724 
L 127.993094 -171.073891 
L 128.459882 -171.076974 
L 128.926669 -171.084061 
L 129.393457 -171.09875 
L 129.860245 -171.126218 
L 130.327032 -171.172419 
L 130.79382 -171.24196 
L 131.260607 -171.334865 
L 131.727395 -171.443514 
L 132.194183 -171.551816 
L 132.66097 -171.638278 
L 133.127758 -171.682718 
L 133.594546 -171.673878 
L 134.061333 -171.614041 
L 134.528121 -171.518079 
L 134.994909 -171.407465 
L 135.461696 -171.302536 
L 135.928484 -171.216773 
L 136.395272 -171.155079 
L 136.395272 -170.988921 
L 136.395272 -170.988921 
L 135.928484 -170.927227 
L 135.461696 -170.841464 
L 134.994909 -170.736535 
L 134.528121 -170.625921 
L 134.061333 -170.529959 
L 133.594546 -170.470122 
L 133.127758 -170.461282 
L 132.66097 -170.505722 
L 132.194183 -170.592184 
L 131.727395 -170.700486 
L 131.260607 -170.809135 
L 130.79382 -170.90204 
L 130.327032 -170.971581 
L 129.860245 -171.017782 
L 129.393457 -171.04525 
L 128.926669 -171.059939 
L 128.459882 -171.067026 
L 127.993094 -171.070109 
L 127.526306 -171.071276 
L 127.059519 -171.071511 
L 126.592731 -171.071007 
L 126.125943 -171.069193 
L 125.659156 -171.064375 
L 125.192368 -171.052958 
L 124.72558 -171.028447 
L 124.258793 -170.980729 
L 123.792005 -170.896582 
L 123.325217 -170.762353 
L 122.85843 -170.569003 
L 122.391642 -170.31807 
L 121.924855 -170.025612 
L 121.458067 -169.721202 
L 120.991279 -169.441302 
L 120.524492 -169.219585 
L 120.057704 -169.078374 
L 119.590916 -169.02401 
L 119.124129 -169.046013 
L 118.657341 -169.118503 
L 118.190553 -169.20362 
L 117.723766 -169.258462 
L 117.256978 -169.246288 
L 116.79019 -169.149244 
L 116.323403 -168.976953 
L 115.856615 -168.766068 
L 115.389828 -168.570046 
L 114.92304 -168.442705 
L 114.456252 -168.420836 
L 113.989465 -168.51044 
L 113.522677 -168.67989 
L 113.055889 -168.862453 
L 112.589102 -168.96944 
L 112.122314 -168.912707 
L 111.655526 -168.631534 
L 111.188739 -168.115787 
L 110.721951 -167.41653 
L 110.255163 -166.63781 
L 109.788376 -165.908978 
L 109.321588 -165.344183 
L 108.8548 -165.002254 
L 108.388013 -164.862841 
L 107.921225 -164.830757 
L 107.454438 -164.769792 
L 106.98765 -164.55372 
L 106.520862 -164.112926 
L 106.054075 -163.45602 
L 105.587287 -162.657578 
L 105.120499 -161.819472 
L 104.653712 -161.024662 
L 104.186924 -160.302603 
L 103.720136 -159.615417 
L 103.253349 -158.861526 
L 102.786561 -157.8869 
L 102.319773 -156.496394 
L 101.852986 -154.464371 
L 101.386198 -151.547961 
L 100.919411 -147.505353 
L 100.452623 -142.118861 
L 99.985835 -135.2226 
L 99.519048 -126.736988 
L 99.05226 -116.712043 
L 98.585472 -105.375673 
L 98.118685 -93.175564 
L 97.651897 -80.800698 
L 97.185109 -69.172255 
L 96.718322 -59.396687 
L 96.251534 -52.669344 
L 95.784746 -50.112 
L 95.317959 -52.540929 
L 94.851171 -60.205466 
L 94.384383 -72.59158 
L 93.917596 -88.405247 
L 93.450808 -105.799059 
L 92.984021 -122.794378 
L 92.517233 -137.745846 
L 92.050445 -149.667862 
L 91.583658 -158.315027 
L 91.11687 -164.031627 
L 90.650082 -167.480505 
L 90.183295 -169.380903 
z
" id="m18047513ce" style="stroke:#262626;stroke-opacity:0.5;stroke-width:1.5;"/>
    </defs>
    <g clip-path="url(#p72ea603a7f)">
     <use style="fill:#107010;fill-opacity:0.5;stroke:#262626;stroke-opacity:0.5;stroke-width:1.5;" x="0" xlink:href="#m18047513ce" y="345.6"/>
    </g>
   </g>
   <g id="matplotlib.axis_1">
    <g id="xtick_1">
     <g id="line2d_1">
      <defs>
       <path d="M 0 0 
L 0 3.5 
" id="mbed3f36b0f" style="stroke:#000000;stroke-width:0.8;"/>
      </defs>
      <g>
       <use style="stroke:#000000;stroke-width:0.8;" x="92.529711" xlink:href="#mbed3f36b0f" y="307.584"/>
      </g>
     </g>
     <g id="text_1">
      <!-- 0 -->
      <defs>
       <path d="M 31.78125 66.40625 
Q 24.171875 66.40625 20.328125 58.90625 
Q 16.5 51.421875 16.5 36.375 
Q 16.5 21.390625 20.328125 13.890625 
Q 24.171875 6.390625 31.78125 6.390625 
Q 39.453125 6.390625 43.28125 13.890625 
Q 47.125 21.390625 47.125 36.375 
Q 47.125 51.421875 43.28125 58.90625 
Q 39.453125 66.40625 31.78125 66.40625 
z
M 31.78125 74.21875 
Q 44.046875 74.21875 50.515625 64.515625 
Q 56.984375 54.828125 56.984375 36.375 
Q 56.984375 17.96875 50.515625 8.265625 
Q 44.046875 -1.421875 31.78125 -1.421875 
Q 19.53125 -1.421875 13.0625 8.265625 
Q 6.59375 17.96875 6.59375 36.375 
Q 6.59375 54.828125 13.0625 64.515625 
Q 19.53125 74.21875 31.78125 74.21875 
z
" id="DejaVuSans-48"/>
      </defs>
      <g transform="translate(89.348461 322.182437)scale(0.1 -0.1)">
       <use xlink:href="#DejaVuSans-48"/>
      </g>
     </g>
    </g>
    <g id="xtick_2">
     <g id="line2d_2">
      <g>
       <use style="stroke:#000000;stroke-width:0.8;" x="168.851667" xlink:href="#mbed3f36b0f" y="307.584"/>
      </g>
     </g>
     <g id="text_2">
      <!-- 500 -->
      <defs>
       <path d="M 10.796875 72.90625 
L 49.515625 72.90625 
L 49.515625 64.59375 
L 19.828125 64.59375 
L 19.828125 46.734375 
Q 21.96875 47.46875 24.109375 47.828125 
Q 26.265625 48.1875 28.421875 48.1875 
Q 40.625 48.1875 47.75 41.5 
Q 54.890625 34.8125 54.890625 23.390625 
Q 54.890625 11.625 47.5625 5.09375 
Q 40.234375 -1.421875 26.90625 -1.421875 
Q 22.3125 -1.421875 17.546875 -0.640625 
Q 12.796875 0.140625 7.71875 1.703125 
L 7.71875 11.625 
Q 12.109375 9.234375 16.796875 8.0625 
Q 21.484375 6.890625 26.703125 6.890625 
Q 35.15625 6.890625 40.078125 11.328125 
Q 45.015625 15.765625 45.015625 23.390625 
Q 45.015625 31 40.078125 35.4375 
Q 35.15625 39.890625 26.703125 39.890625 
Q 22.75 39.890625 18.8125 39.015625 
Q 14.890625 38.140625 10.796875 36.28125 
z
" id="DejaVuSans-53"/>
      </defs>
      <g transform="translate(159.307917 322.182437)scale(0.1 -0.1)">
       <use xlink:href="#DejaVuSans-53"/>
       <use x="63.623047" xlink:href="#DejaVuSans-48"/>
       <use x="127.246094" xlink:href="#DejaVuSans-48"/>
      </g>
     </g>
    </g>
    <g id="xtick_3">
     <g id="line2d_3">
      <g>
       <use style="stroke:#000000;stroke-width:0.8;" x="245.173623" xlink:href="#mbed3f36b0f" y="307.584"/>
      </g>
     </g>
     <g id="text_3">
      <!-- 1000 -->
      <defs>
       <path d="M 12.40625 8.296875 
L 28.515625 8.296875 
L 28.515625 63.921875 
L 10.984375 60.40625 
L 10.984375 69.390625 
L 28.421875 72.90625 
L 38.28125 72.90625 
L 38.28125 8.296875 
L 54.390625 8.296875 
L 54.390625 0 
L 12.40625 0 
z
" id="DejaVuSans-49"/>
      </defs>
      <g transform="translate(232.448623 322.182437)scale(0.1 -0.1)">
       <use xlink:href="#DejaVuSans-49"/>
       <use x="63.623047" xlink:href="#DejaVuSans-48"/>
       <use x="127.246094" xlink:href="#DejaVuSans-48"/>
       <use x="190.869141" xlink:href="#DejaVuSans-48"/>
      </g>
     </g>
    </g>
    <g id="xtick_4">
     <g id="line2d_4">
      <g>
       <use style="stroke:#000000;stroke-width:0.8;" x="321.495579" xlink:href="#mbed3f36b0f" y="307.584"/>
      </g>
     </g>
     <g id="text_4">
      <!-- 1500 -->
      <g transform="translate(308.770579 322.182437)scale(0.1 -0.1)">
       <use xlink:href="#DejaVuSans-49"/>
       <use x="63.623047" xlink:href="#DejaVuSans-53"/>
       <use x="127.246094" xlink:href="#DejaVuSans-48"/>
       <use x="190.869141" xlink:href="#DejaVuSans-48"/>
      </g>
     </g>
    </g>
    <g id="xtick_5">
     <g id="line2d_5">
      <g>
       <use style="stroke:#000000;stroke-width:0.8;" x="397.817535" xlink:href="#mbed3f36b0f" y="307.584"/>
      </g>
     </g>
     <g id="text_5">
      <!-- 2000 -->
      <defs>
       <path d="M 19.1875 8.296875 
L 53.609375 8.296875 
L 53.609375 0 
L 7.328125 0 
L 7.328125 8.296875 
Q 12.9375 14.109375 22.625 23.890625 
Q 32.328125 33.6875 34.8125 36.53125 
Q 39.546875 41.84375 41.421875 45.53125 
Q 43.3125 49.21875 43.3125 52.78125 
Q 43.3125 58.59375 39.234375 62.25 
Q 35.15625 65.921875 28.609375 65.921875 
Q 23.96875 65.921875 18.8125 64.3125 
Q 13.671875 62.703125 7.8125 59.421875 
L 7.8125 69.390625 
Q 13.765625 71.78125 18.9375 73 
Q 24.125 74.21875 28.421875 74.21875 
Q 39.75 74.21875 46.484375 68.546875 
Q 53.21875 62.890625 53.21875 53.421875 
Q 53.21875 48.921875 51.53125 44.890625 
Q 49.859375 40.875 45.40625 35.40625 
Q 44.1875 33.984375 37.640625 27.21875 
Q 31.109375 20.453125 19.1875 8.296875 
z
" id="DejaVuSans-50"/>
      </defs>
      <g transform="translate(385.092535 322.182437)scale(0.1 -0.1)">
       <use xlink:href="#DejaVuSans-50"/>
       <use x="63.623047" xlink:href="#DejaVuSans-48"/>
       <use x="127.246094" xlink:href="#DejaVuSans-48"/>
       <use x="190.869141" xlink:href="#DejaVuSans-48"/>
      </g>
     </g>
    </g>
    <g id="text_6">
     <!-- altadmac -->
     <defs>
      <path d="M 34.28125 27.484375 
Q 23.390625 27.484375 19.1875 25 
Q 14.984375 22.515625 14.984375 16.5 
Q 14.984375 11.71875 18.140625 8.90625 
Q 21.296875 6.109375 26.703125 6.109375 
Q 34.1875 6.109375 38.703125 11.40625 
Q 43.21875 16.703125 43.21875 25.484375 
L 43.21875 27.484375 
z
M 52.203125 31.203125 
L 52.203125 0 
L 43.21875 0 
L 43.21875 8.296875 
Q 40.140625 3.328125 35.546875 0.953125 
Q 30.953125 -1.421875 24.3125 -1.421875 
Q 15.921875 -1.421875 10.953125 3.296875 
Q 6 8.015625 6 15.921875 
Q 6 25.140625 12.171875 29.828125 
Q 18.359375 34.515625 30.609375 34.515625 
L 43.21875 34.515625 
L 43.21875 35.40625 
Q 43.21875 41.609375 39.140625 45 
Q 35.0625 48.390625 27.6875 48.390625 
Q 23 48.390625 18.546875 47.265625 
Q 14.109375 46.140625 10.015625 43.890625 
L 10.015625 52.203125 
Q 14.9375 54.109375 19.578125 55.046875 
Q 24.21875 56 28.609375 56 
Q 40.484375 56 46.34375 49.84375 
Q 52.203125 43.703125 52.203125 31.203125 
z
" id="DejaVuSans-97"/>
      <path d="M 9.421875 75.984375 
L 18.40625 75.984375 
L 18.40625 0 
L 9.421875 0 
z
" id="DejaVuSans-108"/>
      <path d="M 18.3125 70.21875 
L 18.3125 54.6875 
L 36.8125 54.6875 
L 36.8125 47.703125 
L 18.3125 47.703125 
L 18.3125 18.015625 
Q 18.3125 11.328125 20.140625 9.421875 
Q 21.96875 7.515625 27.59375 7.515625 
L 36.8125 7.515625 
L 36.8125 0 
L 27.59375 0 
Q 17.1875 0 13.234375 3.875 
Q 9.28125 7.765625 9.28125 18.015625 
L 9.28125 47.703125 
L 2.6875 47.703125 
L 2.6875 54.6875 
L 9.28125 54.6875 
L 9.28125 70.21875 
z
" id="DejaVuSans-116"/>
      <path d="M 45.40625 46.390625 
L 45.40625 75.984375 
L 54.390625 75.984375 
L 54.390625 0 
L 45.40625 0 
L 45.40625 8.203125 
Q 42.578125 3.328125 38.25 0.953125 
Q 33.9375 -1.421875 27.875 -1.421875 
Q 17.96875 -1.421875 11.734375 6.484375 
Q 5.515625 14.40625 5.515625 27.296875 
Q 5.515625 40.1875 11.734375 48.09375 
Q 17.96875 56 27.875 56 
Q 33.9375 56 38.25 53.625 
Q 42.578125 51.265625 45.40625 46.390625 
z
M 14.796875 27.296875 
Q 14.796875 17.390625 18.875 11.75 
Q 22.953125 6.109375 30.078125 6.109375 
Q 37.203125 6.109375 41.296875 11.75 
Q 45.40625 17.390625 45.40625 27.296875 
Q 45.40625 37.203125 41.296875 42.84375 
Q 37.203125 48.484375 30.078125 48.484375 
Q 22.953125 48.484375 18.875 42.84375 
Q 14.796875 37.203125 14.796875 27.296875 
z
" id="DejaVuSans-100"/>
      <path d="M 52 44.1875 
Q 55.375 50.25 60.0625 53.125 
Q 64.75 56 71.09375 56 
Q 79.640625 56 84.28125 50.015625 
Q 88.921875 44.046875 88.921875 33.015625 
L 88.921875 0 
L 79.890625 0 
L 79.890625 32.71875 
Q 79.890625 40.578125 77.09375 44.375 
Q 74.3125 48.1875 68.609375 48.1875 
Q 61.625 48.1875 57.5625 43.546875 
Q 53.515625 38.921875 53.515625 30.90625 
L 53.515625 0 
L 44.484375 0 
L 44.484375 32.71875 
Q 44.484375 40.625 41.703125 44.40625 
Q 38.921875 48.1875 33.109375 48.1875 
Q 26.21875 48.1875 22.15625 43.53125 
Q 18.109375 38.875 18.109375 30.90625 
L 18.109375 0 
L 9.078125 0 
L 9.078125 54.6875 
L 18.109375 54.6875 
L 18.109375 46.1875 
Q 21.1875 51.21875 25.484375 53.609375 
Q 29.78125 56 35.6875 56 
Q 41.65625 56 45.828125 52.96875 
Q 50 49.953125 52 44.1875 
z
" id="DejaVuSans-109"/>
      <path d="M 48.78125 52.59375 
L 48.78125 44.1875 
Q 44.96875 46.296875 41.140625 47.34375 
Q 37.3125 48.390625 33.40625 48.390625 
Q 24.65625 48.390625 19.8125 42.84375 
Q 14.984375 37.3125 14.984375 27.296875 
Q 14.984375 17.28125 19.8125 11.734375 
Q 24.65625 6.203125 33.40625 6.203125 
Q 37.3125 6.203125 41.140625 7.25 
Q 44.96875 8.296875 48.78125 10.40625 
L 48.78125 2.09375 
Q 45.015625 0.34375 40.984375 -0.53125 
Q 36.96875 -1.421875 32.421875 -1.421875 
Q 20.0625 -1.421875 12.78125 6.34375 
Q 5.515625 14.109375 5.515625 27.296875 
Q 5.515625 40.671875 12.859375 48.328125 
Q 20.21875 56 33.015625 56 
Q 37.15625 56 41.109375 55.140625 
Q 45.0625 54.296875 48.78125 52.59375 
z
" id="DejaVuSans-99"/>
     </defs>
     <g transform="translate(212.824844 335.860562)scale(0.1 -0.1)">
      <use xlink:href="#DejaVuSans-97"/>
      <use x="61.279297" xlink:href="#DejaVuSans-108"/>
      <use x="89.0625" xlink:href="#DejaVuSans-116"/>
      <use x="128.271484" xlink:href="#DejaVuSans-97"/>
      <use x="189.550781" xlink:href="#DejaVuSans-100"/>
      <use x="253.027344" xlink:href="#DejaVuSans-109"/>
      <use x="350.439453" xlink:href="#DejaVuSans-97"/>
      <use x="411.71875" xlink:href="#DejaVuSans-99"/>
     </g>
    </g>
   </g>
   <g id="matplotlib.axis_2">
    <g id="ytick_1">
     <g id="line2d_6">
      <defs>
       <path d="M 0 0 
L -3.5 0 
" id="ma252f65d18" style="stroke:#000000;stroke-width:0.8;"/>
      </defs>
      <g>
       <use style="stroke:#000000;stroke-width:0.8;" x="57.6" xlink:href="#ma252f65d18" y="174.528"/>
      </g>
     </g>
    </g>
   </g>
   <g id="line2d_7">
    <path clip-path="url(#p72ea603a7f)" d="M 94.040886 174.528 
L 105.3518 174.528 
" style="fill:none;stroke:#ffa500;stroke-linecap:square;stroke-width:1.5;"/>
   </g>
   <g id="line2d_8">
    <path clip-path="url(#p72ea603a7f)" d="M 95.429945 174.528 
L 99.398687 174.528 
" style="fill:none;stroke:#4c4c4c;stroke-linecap:square;stroke-width:4.5;"/>
   </g>
   <g id="line2d_9">
    <path clip-path="url(#p72ea603a7f)" d="M 93.292931 174.528 
L 103.367429 174.528 
" style="fill:none;stroke:#008000;stroke-linecap:square;stroke-width:1.5;"/>
   </g>
   <g id="line2d_10">
    <path clip-path="url(#p72ea603a7f)" d="M 94.972014 174.528 
L 98.33018 174.528 
" style="fill:none;stroke:#262626;stroke-linecap:square;stroke-width:4.5;"/>
   </g>
   <g id="patch_3">
    <path d="M 57.6 307.584 
L 57.6 41.472 
" style="fill:none;stroke:#000000;stroke-linecap:square;stroke-linejoin:miter;stroke-width:0.8;"/>
   </g>
   <g id="patch_4">
    <path d="M 414.72 307.584 
L 414.72 41.472 
" style="fill:none;stroke:#000000;stroke-linecap:square;stroke-linejoin:miter;stroke-width:0.8;"/>
   </g>
   <g id="patch_5">
    <path d="M 57.6 307.584 
L 414.72 307.584 
" style="fill:none;stroke:#000000;stroke-linecap:square;stroke-linejoin:miter;stroke-width:0.8;"/>
   </g>
   <g id="patch_6">
    <path d="M 57.6 41.472 
L 414.72 41.472 
" style="fill:none;stroke:#000000;stroke-linecap:square;stroke-linejoin:miter;stroke-width:0.8;"/>
   </g>
   <g id="PathCollection_1">
    <defs>
     <path d="M 0 1.5 
C 0.397805 1.5 0.77937 1.341951 1.06066 1.06066 
C 1.341951 0.77937 1.5 0.397805 1.5 0 
C 1.5 -0.397805 1.341951 -0.77937 1.06066 -1.06066 
C 0.77937 -1.341951 0.397805 -1.5 0 -1.5 
C -0.397805 -1.5 -0.77937 -1.341951 -1.06066 -1.06066 
C -1.341951 -0.77937 -1.5 -0.397805 -1.5 0 
C -1.5 0.397805 -1.341951 0.77937 -1.06066 1.06066 
C -0.77937 1.341951 -0.397805 1.5 0 1.5 
z
" id="m751c9ddaf3" style="stroke:#4c4c4c;stroke-opacity:0.5;"/>
    </defs>
    <g clip-path="url(#p72ea603a7f)">
     <use style="fill:#ffffff;fill-opacity:0.5;stroke:#4c4c4c;stroke-opacity:0.5;" x="97.109028" xlink:href="#m751c9ddaf3" y="174.528"/>
    </g>
   </g>
   <g id="PathCollection_2">
    <defs>
     <path d="M 0 1.5 
C 0.397805 1.5 0.77937 1.341951 1.06066 1.06066 
C 1.341951 0.77937 1.5 0.397805 1.5 0 
C 1.5 -0.397805 1.341951 -0.77937 1.06066 -1.06066 
C 0.77937 -1.341951 0.397805 -1.5 0 -1.5 
C -0.397805 -1.5 -0.77937 -1.341951 -1.06066 -1.06066 
C -1.341951 -0.77937 -1.5 -0.397805 -1.5 0 
C -1.5 0.397805 -1.341951 0.77937 -1.06066 1.06066 
C -0.77937 1.341951 -0.397805 1.5 0 1.5 
z
" id="mfb61b2b2e6" style="stroke:#262626;stroke-opacity:0.5;"/>
    </defs>
    <g clip-path="url(#p72ea603a7f)">
     <use style="fill:#ffffff;fill-opacity:0.5;stroke:#262626;stroke-opacity:0.5;" x="96.345809" xlink:href="#mfb61b2b2e6" y="174.528"/>
    </g>
   </g>
   <g id="text_7">
    <!-- Association of altadmac vs. ards -->
    <defs>
     <path d="M 34.1875 63.1875 
L 20.796875 26.90625 
L 47.609375 26.90625 
z
M 28.609375 72.90625 
L 39.796875 72.90625 
L 67.578125 0 
L 57.328125 0 
L 50.6875 18.703125 
L 17.828125 18.703125 
L 11.1875 0 
L 0.78125 0 
z
" id="DejaVuSans-65"/>
     <path d="M 44.28125 53.078125 
L 44.28125 44.578125 
Q 40.484375 46.53125 36.375 47.5 
Q 32.28125 48.484375 27.875 48.484375 
Q 21.1875 48.484375 17.84375 46.4375 
Q 14.5 44.390625 14.5 40.28125 
Q 14.5 37.15625 16.890625 35.375 
Q 19.28125 33.59375 26.515625 31.984375 
L 29.59375 31.296875 
Q 39.15625 29.25 43.1875 25.515625 
Q 47.21875 21.78125 47.21875 15.09375 
Q 47.21875 7.46875 41.1875 3.015625 
Q 35.15625 -1.421875 24.609375 -1.421875 
Q 20.21875 -1.421875 15.453125 -0.5625 
Q 10.6875 0.296875 5.421875 2 
L 5.421875 11.28125 
Q 10.40625 8.6875 15.234375 7.390625 
Q 20.0625 6.109375 24.8125 6.109375 
Q 31.15625 6.109375 34.5625 8.28125 
Q 37.984375 10.453125 37.984375 14.40625 
Q 37.984375 18.0625 35.515625 20.015625 
Q 33.0625 21.96875 24.703125 23.78125 
L 21.578125 24.515625 
Q 13.234375 26.265625 9.515625 29.90625 
Q 5.8125 33.546875 5.8125 39.890625 
Q 5.8125 47.609375 11.28125 51.796875 
Q 16.75 56 26.8125 56 
Q 31.78125 56 36.171875 55.265625 
Q 40.578125 54.546875 44.28125 53.078125 
z
" id="DejaVuSans-115"/>
     <path d="M 30.609375 48.390625 
Q 23.390625 48.390625 19.1875 42.75 
Q 14.984375 37.109375 14.984375 27.296875 
Q 14.984375 17.484375 19.15625 11.84375 
Q 23.34375 6.203125 30.609375 6.203125 
Q 37.796875 6.203125 41.984375 11.859375 
Q 46.1875 17.53125 46.1875 27.296875 
Q 46.1875 37.015625 41.984375 42.703125 
Q 37.796875 48.390625 30.609375 48.390625 
z
M 30.609375 56 
Q 42.328125 56 49.015625 48.375 
Q 55.71875 40.765625 55.71875 27.296875 
Q 55.71875 13.875 49.015625 6.21875 
Q 42.328125 -1.421875 30.609375 -1.421875 
Q 18.84375 -1.421875 12.171875 6.21875 
Q 5.515625 13.875 5.515625 27.296875 
Q 5.515625 40.765625 12.171875 48.375 
Q 18.84375 56 30.609375 56 
z
" id="DejaVuSans-111"/>
     <path d="M 9.421875 54.6875 
L 18.40625 54.6875 
L 18.40625 0 
L 9.421875 0 
z
M 9.421875 75.984375 
L 18.40625 75.984375 
L 18.40625 64.59375 
L 9.421875 64.59375 
z
" id="DejaVuSans-105"/>
     <path d="M 54.890625 33.015625 
L 54.890625 0 
L 45.90625 0 
L 45.90625 32.71875 
Q 45.90625 40.484375 42.875 44.328125 
Q 39.84375 48.1875 33.796875 48.1875 
Q 26.515625 48.1875 22.3125 43.546875 
Q 18.109375 38.921875 18.109375 30.90625 
L 18.109375 0 
L 9.078125 0 
L 9.078125 54.6875 
L 18.109375 54.6875 
L 18.109375 46.1875 
Q 21.34375 51.125 25.703125 53.5625 
Q 30.078125 56 35.796875 56 
Q 45.21875 56 50.046875 50.171875 
Q 54.890625 44.34375 54.890625 33.015625 
z
" id="DejaVuSans-110"/>
     <path id="DejaVuSans-32"/>
     <path d="M 37.109375 75.984375 
L 37.109375 68.5 
L 28.515625 68.5 
Q 23.6875 68.5 21.796875 66.546875 
Q 19.921875 64.59375 19.921875 59.515625 
L 19.921875 54.6875 
L 34.71875 54.6875 
L 34.71875 47.703125 
L 19.921875 47.703125 
L 19.921875 0 
L 10.890625 0 
L 10.890625 47.703125 
L 2.296875 47.703125 
L 2.296875 54.6875 
L 10.890625 54.6875 
L 10.890625 58.5 
Q 10.890625 67.625 15.140625 71.796875 
Q 19.390625 75.984375 28.609375 75.984375 
z
" id="DejaVuSans-102"/>
     <path d="M 2.984375 54.6875 
L 12.5 54.6875 
L 29.59375 8.796875 
L 46.6875 54.6875 
L 56.203125 54.6875 
L 35.6875 0 
L 23.484375 0 
z
" id="DejaVuSans-118"/>
     <path d="M 10.6875 12.40625 
L 21 12.40625 
L 21 0 
L 10.6875 0 
z
" id="DejaVuSans-46"/>
     <path d="M 41.109375 46.296875 
Q 39.59375 47.171875 37.8125 47.578125 
Q 36.03125 48 33.890625 48 
Q 26.265625 48 22.1875 43.046875 
Q 18.109375 38.09375 18.109375 28.8125 
L 18.109375 0 
L 9.078125 0 
L 9.078125 54.6875 
L 18.109375 54.6875 
L 18.109375 46.1875 
Q 20.953125 51.171875 25.484375 53.578125 
Q 30.03125 56 36.53125 56 
Q 37.453125 56 38.578125 55.875 
Q 39.703125 55.765625 41.0625 55.515625 
z
" id="DejaVuSans-114"/>
    </defs>
    <g transform="translate(139.0275 35.472)scale(0.12 -0.12)">
     <use xlink:href="#DejaVuSans-65"/>
     <use x="68.408203" xlink:href="#DejaVuSans-115"/>
     <use x="120.507812" xlink:href="#DejaVuSans-115"/>
     <use x="172.607422" xlink:href="#DejaVuSans-111"/>
     <use x="233.789062" xlink:href="#DejaVuSans-99"/>
     <use x="288.769531" xlink:href="#DejaVuSans-105"/>
     <use x="316.552734" xlink:href="#DejaVuSans-97"/>
     <use x="377.832031" xlink:href="#DejaVuSans-116"/>
     <use x="417.041016" xlink:href="#DejaVuSans-105"/>
     <use x="444.824219" xlink:href="#DejaVuSans-111"/>
     <use x="506.005859" xlink:href="#DejaVuSans-110"/>
     <use x="569.384766" xlink:href="#DejaVuSans-32"/>
     <use x="601.171875" xlink:href="#DejaVuSans-111"/>
     <use x="662.353516" xlink:href="#DejaVuSans-102"/>
     <use x="697.558594" xlink:href="#DejaVuSans-32"/>
     <use x="729.345703" xlink:href="#DejaVuSans-97"/>
     <use x="790.625" xlink:href="#DejaVuSans-108"/>
     <use x="818.408203" xlink:href="#DejaVuSans-116"/>
     <use x="857.617188" xlink:href="#DejaVuSans-97"/>
     <use x="918.896484" xlink:href="#DejaVuSans-100"/>
     <use x="982.373047" xlink:href="#DejaVuSans-109"/>
     <use x="1079.785156" xlink:href="#DejaVuSans-97"/>
     <use x="1141.064453" xlink:href="#DejaVuSans-99"/>
     <use x="1196.044922" xlink:href="#DejaVuSans-32"/>
     <use x="1227.832031" xlink:href="#DejaVuSans-118"/>
     <use x="1287.011719" xlink:href="#DejaVuSans-115"/>
     <use x="1339.111328" xlink:href="#DejaVuSans-46"/>
     <use x="1370.898438" xlink:href="#DejaVuSans-32"/>
     <use x="1402.685547" xlink:href="#DejaVuSans-97"/>
     <use x="1463.964844" xlink:href="#DejaVuSans-114"/>
     <use x="1503.328125" xlink:href="#DejaVuSans-100"/>
     <use x="1566.804688" xlink:href="#DejaVuSans-115"/>
    </g>
   </g>
   <g id="legend_1">
    <g id="patch_7">
     <path d="M 303.330938 78.82825 
L 407.72 78.82825 
Q 409.72 78.82825 409.72 76.82825 
L 409.72 48.472 
Q 409.72 46.472 407.72 46.472 
L 303.330938 46.472 
Q 301.330938 46.472 301.330938 48.472 
L 301.330938 76.82825 
Q 301.330938 78.82825 303.330938 78.82825 
z
" style="fill:#ffffff;opacity:0.8;stroke:#cccccc;stroke-linejoin:miter;"/>
    </g>
    <g id="line2d_11">
     <path d="M 305.330938 54.570437 
L 325.330938 54.570437 
" style="fill:none;stroke:#ffa500;stroke-linecap:square;stroke-width:1.5;"/>
    </g>
    <g id="line2d_12"/>
    <g id="text_8">
     <!-- ards (123) -->
     <defs>
      <path d="M 31 75.875 
Q 24.46875 64.65625 21.28125 53.65625 
Q 18.109375 42.671875 18.109375 31.390625 
Q 18.109375 20.125 21.3125 9.0625 
Q 24.515625 -2 31 -13.1875 
L 23.1875 -13.1875 
Q 15.875 -1.703125 12.234375 9.375 
Q 8.59375 20.453125 8.59375 31.390625 
Q 8.59375 42.28125 12.203125 53.3125 
Q 15.828125 64.359375 23.1875 75.875 
z
" id="DejaVuSans-40"/>
      <path d="M 40.578125 39.3125 
Q 47.65625 37.796875 51.625 33 
Q 55.609375 28.21875 55.609375 21.1875 
Q 55.609375 10.40625 48.1875 4.484375 
Q 40.765625 -1.421875 27.09375 -1.421875 
Q 22.515625 -1.421875 17.65625 -0.515625 
Q 12.796875 0.390625 7.625 2.203125 
L 7.625 11.71875 
Q 11.71875 9.328125 16.59375 8.109375 
Q 21.484375 6.890625 26.8125 6.890625 
Q 36.078125 6.890625 40.9375 10.546875 
Q 45.796875 14.203125 45.796875 21.1875 
Q 45.796875 27.640625 41.28125 31.265625 
Q 36.765625 34.90625 28.71875 34.90625 
L 20.21875 34.90625 
L 20.21875 43.015625 
L 29.109375 43.015625 
Q 36.375 43.015625 40.234375 45.921875 
Q 44.09375 48.828125 44.09375 54.296875 
Q 44.09375 59.90625 40.109375 62.90625 
Q 36.140625 65.921875 28.71875 65.921875 
Q 24.65625 65.921875 20.015625 65.03125 
Q 15.375 64.15625 9.8125 62.3125 
L 9.8125 71.09375 
Q 15.4375 72.65625 20.34375 73.4375 
Q 25.25 74.21875 29.59375 74.21875 
Q 40.828125 74.21875 47.359375 69.109375 
Q 53.90625 64.015625 53.90625 55.328125 
Q 53.90625 49.265625 50.4375 45.09375 
Q 46.96875 40.921875 40.578125 39.3125 
z
" id="DejaVuSans-51"/>
      <path d="M 8.015625 75.875 
L 15.828125 75.875 
Q 23.140625 64.359375 26.78125 53.3125 
Q 30.421875 42.28125 30.421875 31.390625 
Q 30.421875 20.453125 26.78125 9.375 
Q 23.140625 -1.703125 15.828125 -13.1875 
L 8.015625 -13.1875 
Q 14.5 -2 17.703125 9.0625 
Q 20.90625 20.125 20.90625 31.390625 
Q 20.90625 42.671875 17.703125 53.65625 
Q 14.5 64.65625 8.015625 75.875 
z
" id="DejaVuSans-41"/>
     </defs>
     <g transform="translate(333.330938 58.070437)scale(0.1 -0.1)">
      <use xlink:href="#DejaVuSans-97"/>
      <use x="61.279297" xlink:href="#DejaVuSans-114"/>
      <use x="100.642578" xlink:href="#DejaVuSans-100"/>
      <use x="164.119141" xlink:href="#DejaVuSans-115"/>
      <use x="216.21875" xlink:href="#DejaVuSans-32"/>
      <use x="248.005859" xlink:href="#DejaVuSans-40"/>
      <use x="287.019531" xlink:href="#DejaVuSans-49"/>
      <use x="350.642578" xlink:href="#DejaVuSans-50"/>
      <use x="414.265625" xlink:href="#DejaVuSans-51"/>
      <use x="477.888672" xlink:href="#DejaVuSans-41"/>
     </g>
    </g>
    <g id="line2d_13">
     <path d="M 305.330938 69.248562 
L 325.330938 69.248562 
" style="fill:none;stroke:#008000;stroke-linecap:square;stroke-width:1.5;"/>
    </g>
    <g id="line2d_14"/>
    <g id="text_9">
     <!-- Not ards (337) -->
     <defs>
      <path d="M 9.8125 72.90625 
L 23.09375 72.90625 
L 55.421875 11.921875 
L 55.421875 72.90625 
L 64.984375 72.90625 
L 64.984375 0 
L 51.703125 0 
L 19.390625 60.984375 
L 19.390625 0 
L 9.8125 0 
z
" id="DejaVuSans-78"/>
      <path d="M 8.203125 72.90625 
L 55.078125 72.90625 
L 55.078125 68.703125 
L 28.609375 0 
L 18.3125 0 
L 43.21875 64.59375 
L 8.203125 64.59375 
z
" id="DejaVuSans-55"/>
     </defs>
     <g transform="translate(333.330938 72.748562)scale(0.1 -0.1)">
      <use xlink:href="#DejaVuSans-78"/>
      <use x="74.804688" xlink:href="#DejaVuSans-111"/>
      <use x="135.986328" xlink:href="#DejaVuSans-116"/>
      <use x="175.195312" xlink:href="#DejaVuSans-32"/>
      <use x="206.982422" xlink:href="#DejaVuSans-97"/>
      <use x="268.261719" xlink:href="#DejaVuSans-114"/>
      <use x="307.625" xlink:href="#DejaVuSans-100"/>
      <use x="371.101562" xlink:href="#DejaVuSans-115"/>
      <use x="423.201172" xlink:href="#DejaVuSans-32"/>
      <use x="454.988281" xlink:href="#DejaVuSans-40"/>
      <use x="494.001953" xlink:href="#DejaVuSans-51"/>
      <use x="557.625" xlink:href="#DejaVuSans-51"/>
      <use x="621.248047" xlink:href="#DejaVuSans-55"/>
      <use x="684.871094" xlink:href="#DejaVuSans-41"/>
     </g>
    </g>
   </g>
  </g>
 </g>
 <defs>
  <clipPath id="p72ea603a7f">
   <rect height="266.112" width="357.12" x="57.6" y="41.472"/>
  </clipPath>
 </defs>
</svg>
