<?xml version="1.0" encoding="utf-8" standalone="no"?>
<!DOCTYPE svg PUBLIC "-//W3C//DTD SVG 1.1//EN"
  "http://www.w3.org/Graphics/SVG/1.1/DTD/svg11.dtd">
<!-- Created with matplotlib (https://matplotlib.org/) -->
<svg height="345.6pt" version="1.1" viewBox="0 0 460.8 345.6" width="460.8pt" xmlns="http://www.w3.org/2000/svg" xmlns:xlink="http://www.w3.org/1999/xlink">
 <defs>
  <style type="text/css">
*{stroke-linecap:butt;stroke-linejoin:round;}
  </style>
 </defs>
 <g id="figure_1">
  <g id="patch_1">
   <path d="M 0 345.6 
L 460.8 345.6 
L 460.8 0 
L 0 0 
z
" style="fill:#ffffff;"/>
  </g>
  <g id="axes_1">
   <g id="patch_2">
    <path d="M 57.6 307.584 
L 414.72 307.584 
L 414.72 41.472 
L 57.6 41.472 
z
" style="fill:#ffffff;"/>
   </g>
   <g id="PolyCollection_1">
    <defs>
     <path d="M 75.748894 -158.649176 
L 75.748894 -183.494824 
L 76.005577 -185.227804 
L 76.262261 -187.139052 
L 76.518944 -189.236611 
L 76.775627 -191.527267 
L 77.032311 -194.016276 
L 77.288994 -196.707092 
L 77.545677 -199.601097 
L 77.802361 -202.697343 
L 78.059044 -205.992321 
L 78.315727 -209.479752 
L 78.572411 -213.150416 
L 78.829094 -216.992031 
L 79.085777 -220.989184 
L 79.342461 -225.123317 
L 79.599144 -229.37279 
L 79.855828 -233.713004 
L 80.112511 -238.116604 
L 80.369194 -242.553753 
L 80.625878 -246.992485 
L 80.882561 -251.399117 
L 81.139244 -255.738735 
L 81.395928 -259.97573 
L 81.652611 -264.074378 
L 81.909294 -267.999458 
L 82.165978 -271.716882 
L 82.422661 -275.194333 
L 82.679344 -278.401891 
L 82.936028 -281.31262 
L 83.192711 -283.903122 
L 83.449394 -286.15402 
L 83.706078 -288.050365 
L 83.962761 -289.581955 
L 84.219444 -290.743554 
L 84.476128 -291.534998 
L 84.732811 -291.961195 
L 84.989495 -292.032 
L 85.246178 -291.76198 
L 85.502861 -291.170074 
L 85.759545 -290.279141 
L 86.016228 -289.115431 
L 86.272911 -287.707967 
L 86.529595 -286.087878 
L 86.786278 -284.287683 
L 87.042961 -282.340555 
L 87.299645 -280.279585 
L 87.556328 -278.137062 
L 87.813011 -275.943785 
L 88.069695 -273.72844 
L 88.326378 -271.517039 
L 88.583061 -269.332451 
L 88.839745 -267.194025 
L 89.096428 -265.117318 
L 89.353112 -263.113937 
L 89.609795 -261.191485 
L 89.866478 -259.353621 
L 90.123162 -257.600224 
L 90.379845 -255.927649 
L 90.636528 -254.329072 
L 90.893212 -252.794909 
L 91.149895 -251.313288 
L 91.406578 -249.870568 
L 91.663262 -248.451879 
L 91.919945 -247.041674 
L 92.176628 -245.624275 
L 92.433312 -244.184389 
L 92.689995 -242.707598 
L 92.946678 -241.18079 
L 93.203362 -239.592535 
L 93.460045 -237.933395 
L 93.716729 -236.196158 
L 93.973412 -234.375997 
L 94.230095 -232.470558 
L 94.486779 -230.479963 
L 94.743462 -228.406753 
L 95.000145 -226.255761 
L 95.256829 -224.033927 
L 95.513512 -221.75007 
L 95.770195 -219.414616 
L 96.026879 -217.039299 
L 96.283562 -214.636846 
L 96.540245 -212.220652 
L 96.796929 -209.804459 
L 97.053612 -207.402041 
L 97.310295 -205.026912 
L 97.566979 -202.69206 
L 97.823662 -200.409708 
L 98.080345 -198.191112 
L 98.337029 -196.046394 
L 98.593712 -193.984421 
L 98.850396 -192.012711 
L 99.107079 -190.137391 
L 99.363762 -188.363173 
L 99.620446 -186.693382 
L 99.877129 -185.13 
L 100.133812 -183.673734 
L 100.390496 -182.324117 
L 100.647179 -181.079613 
L 100.903862 -179.937735 
L 101.160546 -178.895178 
L 101.160546 -163.248822 
L 101.160546 -163.248822 
L 100.903862 -162.206265 
L 100.647179 -161.064387 
L 100.390496 -159.819883 
L 100.133812 -158.470266 
L 99.877129 -157.014 
L 99.620446 -155.450618 
L 99.363762 -153.780827 
L 99.107079 -152.006609 
L 98.850396 -150.131289 
L 98.593712 -148.159579 
L 98.337029 -146.097606 
L 98.080345 -143.952888 
L 97.823662 -141.734292 
L 97.566979 -139.45194 
L 97.310295 -137.117088 
L 97.053612 -134.741959 
L 96.796929 -132.339541 
L 96.540245 -129.923348 
L 96.283562 -127.507154 
L 96.026879 -125.104701 
L 95.770195 -122.729384 
L 95.513512 -120.39393 
L 95.256829 -118.110073 
L 95.000145 -115.888239 
L 94.743462 -113.737247 
L 94.486779 -111.664037 
L 94.230095 -109.673442 
L 93.973412 -107.768003 
L 93.716729 -105.947842 
L 93.460045 -104.210605 
L 93.203362 -102.551465 
L 92.946678 -100.96321 
L 92.689995 -99.436402 
L 92.433312 -97.959611 
L 92.176628 -96.519725 
L 91.919945 -95.102326 
L 91.663262 -93.692121 
L 91.406578 -92.273432 
L 91.149895 -90.830712 
L 90.893212 -89.349091 
L 90.636528 -87.814928 
L 90.379845 -86.216351 
L 90.123162 -84.543776 
L 89.866478 -82.790379 
L 89.609795 -80.952515 
L 89.353112 -79.030063 
L 89.096428 -77.026682 
L 88.839745 -74.949975 
L 88.583061 -72.811549 
L 88.326378 -70.626961 
L 88.069695 -68.41556 
L 87.813011 -66.200215 
L 87.556328 -64.006938 
L 87.299645 -61.864415 
L 87.042961 -59.803445 
L 86.786278 -57.856317 
L 86.529595 -56.056122 
L 86.272911 -54.436033 
L 86.016228 -53.028569 
L 85.759545 -51.864859 
L 85.502861 -50.973926 
L 85.246178 -50.38202 
L 84.989495 -50.112 
L 84.732811 -50.182805 
L 84.476128 -50.609002 
L 84.219444 -51.400446 
L 83.962761 -52.562045 
L 83.706078 -54.093635 
L 83.449394 -55.98998 
L 83.192711 -58.240878 
L 82.936028 -60.83138 
L 82.679344 -63.742109 
L 82.422661 -66.949667 
L 82.165978 -70.427118 
L 81.909294 -74.144542 
L 81.652611 -78.069622 
L 81.395928 -82.16827 
L 81.139244 -86.405265 
L 80.882561 -90.744883 
L 80.625878 -95.151515 
L 80.369194 -99.590247 
L 80.112511 -104.027396 
L 79.855828 -108.430996 
L 79.599144 -112.77121 
L 79.342461 -117.020683 
L 79.085777 -121.154816 
L 78.829094 -125.151969 
L 78.572411 -128.993584 
L 78.315727 -132.664248 
L 78.059044 -136.151679 
L 77.802361 -139.446657 
L 77.545677 -142.542903 
L 77.288994 -145.436908 
L 77.032311 -148.127724 
L 76.775627 -150.616733 
L 76.518944 -152.907389 
L 76.262261 -155.004948 
L 76.005577 -156.916196 
L 75.748894 -158.649176 
z
" id="mb1f63598d0" style="stroke:#4c4c4c;stroke-opacity:0.5;stroke-width:1.5;"/>
    </defs>
    <g clip-path="url(#p6a4e4e301f)">
     <use style="fill:#df9c20;fill-opacity:0.5;stroke:#4c4c4c;stroke-opacity:0.5;stroke-width:1.5;" x="0" xlink:href="#mb1f63598d0" y="345.6"/>
    </g>
   </g>
   <g id="PolyCollection_2">
    <defs>
     <path d="M 73.832727 -166.279003 
L 73.832727 -175.864997 
L 77.112066 -192.288417 
L 80.391405 -230.151879 
L 83.670744 -275.909644 
L 86.950083 -292.032 
L 90.229421 -265.320855 
L 93.50876 -225.027255 
L 96.788099 -198.080798 
L 100.067438 -185.619215 
L 103.346777 -179.95724 
L 106.626116 -177.090924 
L 109.905455 -175.535617 
L 113.184793 -174.225637 
L 116.464132 -172.928579 
L 119.743471 -172.100902 
L 123.02281 -171.808933 
L 126.302149 -171.647161 
L 129.581488 -171.412244 
L 132.860826 -171.205096 
L 136.140165 -171.105597 
L 139.419504 -171.082592 
L 142.698843 -171.105231 
L 145.978182 -171.191562 
L 149.257521 -171.345557 
L 152.53686 -171.490263 
L 155.816198 -171.549463 
L 159.095537 -171.512973 
L 162.374876 -171.384363 
L 165.654215 -171.223225 
L 168.933554 -171.118387 
L 172.212893 -171.080728 
L 175.492231 -171.072996 
L 178.77157 -171.072069 
L 182.050909 -171.072003 
L 185.330248 -171.072 
L 188.609587 -171.072 
L 191.888926 -171.072 
L 195.168264 -171.072 
L 198.447603 -171.072 
L 201.726942 -171.072 
L 205.006281 -171.072 
L 208.28562 -171.072 
L 211.564959 -171.072 
L 214.844298 -171.072 
L 218.123636 -171.072 
L 221.402975 -171.072 
L 224.682314 -171.072 
L 227.961653 -171.072 
L 231.240992 -171.072 
L 234.520331 -171.072 
L 237.799669 -171.072 
L 241.079008 -171.072 
L 244.358347 -171.072 
L 247.637686 -171.072 
L 250.917025 -171.072 
L 254.196364 -171.072 
L 257.475702 -171.072 
L 260.755041 -171.072 
L 264.03438 -171.072 
L 267.313719 -171.072 
L 270.593058 -171.072 
L 273.872397 -171.072 
L 277.151736 -171.072 
L 280.431074 -171.072 
L 283.710413 -171.072 
L 286.989752 -171.072 
L 290.269091 -171.072 
L 293.54843 -171.072 
L 296.827769 -171.072 
L 300.107107 -171.072 
L 303.386446 -171.072 
L 306.665785 -171.072 
L 309.945124 -171.072 
L 313.224463 -171.072 
L 316.503802 -171.072 
L 319.78314 -171.072 
L 323.062479 -171.072 
L 326.341818 -171.072 
L 329.621157 -171.072 
L 332.900496 -171.072 
L 336.179835 -171.072 
L 339.459174 -171.072 
L 342.738512 -171.072 
L 346.017851 -171.072 
L 349.29719 -171.072 
L 352.576529 -171.072 
L 355.855868 -171.072 
L 359.135207 -171.072 
L 362.414545 -171.072 
L 365.693884 -171.072001 
L 368.973223 -171.07202 
L 372.252562 -171.072356 
L 375.531901 -171.075822 
L 378.81124 -171.096742 
L 382.090579 -171.168544 
L 385.369917 -171.299058 
L 388.649256 -171.393862 
L 391.928595 -171.346997 
L 395.207934 -171.213615 
L 398.487273 -171.115956 
L 398.487273 -171.028044 
L 398.487273 -171.028044 
L 395.207934 -170.930385 
L 391.928595 -170.797003 
L 388.649256 -170.750138 
L 385.369917 -170.844942 
L 382.090579 -170.975456 
L 378.81124 -171.047258 
L 375.531901 -171.068178 
L 372.252562 -171.071644 
L 368.973223 -171.07198 
L 365.693884 -171.071999 
L 362.414545 -171.072 
L 359.135207 -171.072 
L 355.855868 -171.072 
L 352.576529 -171.072 
L 349.29719 -171.072 
L 346.017851 -171.072 
L 342.738512 -171.072 
L 339.459174 -171.072 
L 336.179835 -171.072 
L 332.900496 -171.072 
L 329.621157 -171.072 
L 326.341818 -171.072 
L 323.062479 -171.072 
L 319.78314 -171.072 
L 316.503802 -171.072 
L 313.224463 -171.072 
L 309.945124 -171.072 
L 306.665785 -171.072 
L 303.386446 -171.072 
L 300.107107 -171.072 
L 296.827769 -171.072 
L 293.54843 -171.072 
L 290.269091 -171.072 
L 286.989752 -171.072 
L 283.710413 -171.072 
L 280.431074 -171.072 
L 277.151736 -171.072 
L 273.872397 -171.072 
L 270.593058 -171.072 
L 267.313719 -171.072 
L 264.03438 -171.072 
L 260.755041 -171.072 
L 257.475702 -171.072 
L 254.196364 -171.072 
L 250.917025 -171.072 
L 247.637686 -171.072 
L 244.358347 -171.072 
L 241.079008 -171.072 
L 237.799669 -171.072 
L 234.520331 -171.072 
L 231.240992 -171.072 
L 227.961653 -171.072 
L 224.682314 -171.072 
L 221.402975 -171.072 
L 218.123636 -171.072 
L 214.844298 -171.072 
L 211.564959 -171.072 
L 208.28562 -171.072 
L 205.006281 -171.072 
L 201.726942 -171.072 
L 198.447603 -171.072 
L 195.168264 -171.072 
L 191.888926 -171.072 
L 188.609587 -171.072 
L 185.330248 -171.072 
L 182.050909 -171.071997 
L 178.77157 -171.071931 
L 175.492231 -171.071004 
L 172.212893 -171.063272 
L 168.933554 -171.025613 
L 165.654215 -170.920775 
L 162.374876 -170.759637 
L 159.095537 -170.631027 
L 155.816198 -170.594537 
L 152.53686 -170.653737 
L 149.257521 -170.798443 
L 145.978182 -170.952438 
L 142.698843 -171.038769 
L 139.419504 -171.061408 
L 136.140165 -171.038403 
L 132.860826 -170.938904 
L 129.581488 -170.731756 
L 126.302149 -170.496839 
L 123.02281 -170.335067 
L 119.743471 -170.043098 
L 116.464132 -169.215421 
L 113.184793 -167.918363 
L 109.905455 -166.608383 
L 106.626116 -165.053076 
L 103.346777 -162.18676 
L 100.067438 -156.524785 
L 96.788099 -144.063202 
L 93.50876 -117.116745 
L 90.229421 -76.823145 
L 86.950083 -50.112 
L 83.670744 -66.234356 
L 80.391405 -111.992121 
L 77.112066 -149.855583 
L 73.832727 -166.279003 
z
" id="m591b4de982" style="stroke:#262626;stroke-opacity:0.5;stroke-width:1.5;"/>
    </defs>
    <g clip-path="url(#p6a4e4e301f)">
     <use style="fill:#107010;fill-opacity:0.5;stroke:#262626;stroke-opacity:0.5;stroke-width:1.5;" x="0" xlink:href="#m591b4de982" y="345.6"/>
    </g>
   </g>
   <g id="matplotlib.axis_1">
    <g id="xtick_1">
     <g id="line2d_1">
      <defs>
       <path d="M 0 0 
L 0 3.5 
" id="me86f6e9cb4" style="stroke:#000000;stroke-width:0.8;"/>
      </defs>
      <g>
       <use style="stroke:#000000;stroke-width:0.8;" x="82.230284" xlink:href="#me86f6e9cb4" y="307.584"/>
      </g>
     </g>
     <g id="text_1">
      <!-- 0 -->
      <defs>
       <path d="M 31.78125 66.40625 
Q 24.171875 66.40625 20.328125 58.90625 
Q 16.5 51.421875 16.5 36.375 
Q 16.5 21.390625 20.328125 13.890625 
Q 24.171875 6.390625 31.78125 6.390625 
Q 39.453125 6.390625 43.28125 13.890625 
Q 47.125 21.390625 47.125 36.375 
Q 47.125 51.421875 43.28125 58.90625 
Q 39.453125 66.40625 31.78125 66.40625 
z
M 31.78125 74.21875 
Q 44.046875 74.21875 50.515625 64.515625 
Q 56.984375 54.828125 56.984375 36.375 
Q 56.984375 17.96875 50.515625 8.265625 
Q 44.046875 -1.421875 31.78125 -1.421875 
Q 19.53125 -1.421875 13.0625 8.265625 
Q 6.59375 17.96875 6.59375 36.375 
Q 6.59375 54.828125 13.0625 64.515625 
Q 19.53125 74.21875 31.78125 74.21875 
z
" id="DejaVuSans-48"/>
      </defs>
      <g transform="translate(79.049034 322.182437)scale(0.1 -0.1)">
       <use xlink:href="#DejaVuSans-48"/>
      </g>
     </g>
    </g>
    <g id="xtick_2">
     <g id="line2d_2">
      <g>
       <use style="stroke:#000000;stroke-width:0.8;" x="123.234471" xlink:href="#me86f6e9cb4" y="307.584"/>
      </g>
     </g>
     <g id="text_2">
      <!-- 250 -->
      <defs>
       <path d="M 19.1875 8.296875 
L 53.609375 8.296875 
L 53.609375 0 
L 7.328125 0 
L 7.328125 8.296875 
Q 12.9375 14.109375 22.625 23.890625 
Q 32.328125 33.6875 34.8125 36.53125 
Q 39.546875 41.84375 41.421875 45.53125 
Q 43.3125 49.21875 43.3125 52.78125 
Q 43.3125 58.59375 39.234375 62.25 
Q 35.15625 65.921875 28.609375 65.921875 
Q 23.96875 65.921875 18.8125 64.3125 
Q 13.671875 62.703125 7.8125 59.421875 
L 7.8125 69.390625 
Q 13.765625 71.78125 18.9375 73 
Q 24.125 74.21875 28.421875 74.21875 
Q 39.75 74.21875 46.484375 68.546875 
Q 53.21875 62.890625 53.21875 53.421875 
Q 53.21875 48.921875 51.53125 44.890625 
Q 49.859375 40.875 45.40625 35.40625 
Q 44.1875 33.984375 37.640625 27.21875 
Q 31.109375 20.453125 19.1875 8.296875 
z
" id="DejaVuSans-50"/>
       <path d="M 10.796875 72.90625 
L 49.515625 72.90625 
L 49.515625 64.59375 
L 19.828125 64.59375 
L 19.828125 46.734375 
Q 21.96875 47.46875 24.109375 47.828125 
Q 26.265625 48.1875 28.421875 48.1875 
Q 40.625 48.1875 47.75 41.5 
Q 54.890625 34.8125 54.890625 23.390625 
Q 54.890625 11.625 47.5625 5.09375 
Q 40.234375 -1.421875 26.90625 -1.421875 
Q 22.3125 -1.421875 17.546875 -0.640625 
Q 12.796875 0.140625 7.71875 1.703125 
L 7.71875 11.625 
Q 12.109375 9.234375 16.796875 8.0625 
Q 21.484375 6.890625 26.703125 6.890625 
Q 35.15625 6.890625 40.078125 11.328125 
Q 45.015625 15.765625 45.015625 23.390625 
Q 45.015625 31 40.078125 35.4375 
Q 35.15625 39.890625 26.703125 39.890625 
Q 22.75 39.890625 18.8125 39.015625 
Q 14.890625 38.140625 10.796875 36.28125 
z
" id="DejaVuSans-53"/>
      </defs>
      <g transform="translate(113.690721 322.182437)scale(0.1 -0.1)">
       <use xlink:href="#DejaVuSans-50"/>
       <use x="63.623047" xlink:href="#DejaVuSans-53"/>
       <use x="127.246094" xlink:href="#DejaVuSans-48"/>
      </g>
     </g>
    </g>
    <g id="xtick_3">
     <g id="line2d_3">
      <g>
       <use style="stroke:#000000;stroke-width:0.8;" x="164.238657" xlink:href="#me86f6e9cb4" y="307.584"/>
      </g>
     </g>
     <g id="text_3">
      <!-- 500 -->
      <g transform="translate(154.694907 322.182437)scale(0.1 -0.1)">
       <use xlink:href="#DejaVuSans-53"/>
       <use x="63.623047" xlink:href="#DejaVuSans-48"/>
       <use x="127.246094" xlink:href="#DejaVuSans-48"/>
      </g>
     </g>
    </g>
    <g id="xtick_4">
     <g id="line2d_4">
      <g>
       <use style="stroke:#000000;stroke-width:0.8;" x="205.242843" xlink:href="#me86f6e9cb4" y="307.584"/>
      </g>
     </g>
     <g id="text_4">
      <!-- 750 -->
      <defs>
       <path d="M 8.203125 72.90625 
L 55.078125 72.90625 
L 55.078125 68.703125 
L 28.609375 0 
L 18.3125 0 
L 43.21875 64.59375 
L 8.203125 64.59375 
z
" id="DejaVuSans-55"/>
      </defs>
      <g transform="translate(195.699093 322.182437)scale(0.1 -0.1)">
       <use xlink:href="#DejaVuSans-55"/>
       <use x="63.623047" xlink:href="#DejaVuSans-53"/>
       <use x="127.246094" xlink:href="#DejaVuSans-48"/>
      </g>
     </g>
    </g>
    <g id="xtick_5">
     <g id="line2d_5">
      <g>
       <use style="stroke:#000000;stroke-width:0.8;" x="246.24703" xlink:href="#me86f6e9cb4" y="307.584"/>
      </g>
     </g>
     <g id="text_5">
      <!-- 1000 -->
      <defs>
       <path d="M 12.40625 8.296875 
L 28.515625 8.296875 
L 28.515625 63.921875 
L 10.984375 60.40625 
L 10.984375 69.390625 
L 28.421875 72.90625 
L 38.28125 72.90625 
L 38.28125 8.296875 
L 54.390625 8.296875 
L 54.390625 0 
L 12.40625 0 
z
" id="DejaVuSans-49"/>
      </defs>
      <g transform="translate(233.52203 322.182437)scale(0.1 -0.1)">
       <use xlink:href="#DejaVuSans-49"/>
       <use x="63.623047" xlink:href="#DejaVuSans-48"/>
       <use x="127.246094" xlink:href="#DejaVuSans-48"/>
       <use x="190.869141" xlink:href="#DejaVuSans-48"/>
      </g>
     </g>
    </g>
    <g id="xtick_6">
     <g id="line2d_6">
      <g>
       <use style="stroke:#000000;stroke-width:0.8;" x="287.251216" xlink:href="#me86f6e9cb4" y="307.584"/>
      </g>
     </g>
     <g id="text_6">
      <!-- 1250 -->
      <g transform="translate(274.526216 322.182437)scale(0.1 -0.1)">
       <use xlink:href="#DejaVuSans-49"/>
       <use x="63.623047" xlink:href="#DejaVuSans-50"/>
       <use x="127.246094" xlink:href="#DejaVuSans-53"/>
       <use x="190.869141" xlink:href="#DejaVuSans-48"/>
      </g>
     </g>
    </g>
    <g id="xtick_7">
     <g id="line2d_7">
      <g>
       <use style="stroke:#000000;stroke-width:0.8;" x="328.255403" xlink:href="#me86f6e9cb4" y="307.584"/>
      </g>
     </g>
     <g id="text_7">
      <!-- 1500 -->
      <g transform="translate(315.530403 322.182437)scale(0.1 -0.1)">
       <use xlink:href="#DejaVuSans-49"/>
       <use x="63.623047" xlink:href="#DejaVuSans-53"/>
       <use x="127.246094" xlink:href="#DejaVuSans-48"/>
       <use x="190.869141" xlink:href="#DejaVuSans-48"/>
      </g>
     </g>
    </g>
    <g id="xtick_8">
     <g id="line2d_8">
      <g>
       <use style="stroke:#000000;stroke-width:0.8;" x="369.259589" xlink:href="#me86f6e9cb4" y="307.584"/>
      </g>
     </g>
     <g id="text_8">
      <!-- 1750 -->
      <g transform="translate(356.534589 322.182437)scale(0.1 -0.1)">
       <use xlink:href="#DejaVuSans-49"/>
       <use x="63.623047" xlink:href="#DejaVuSans-55"/>
       <use x="127.246094" xlink:href="#DejaVuSans-53"/>
       <use x="190.869141" xlink:href="#DejaVuSans-48"/>
      </g>
     </g>
    </g>
    <g id="xtick_9">
     <g id="line2d_9">
      <g>
       <use style="stroke:#000000;stroke-width:0.8;" x="410.263775" xlink:href="#me86f6e9cb4" y="307.584"/>
      </g>
     </g>
     <g id="text_9">
      <!-- 2000 -->
      <g transform="translate(397.538775 322.182437)scale(0.1 -0.1)">
       <use xlink:href="#DejaVuSans-50"/>
       <use x="63.623047" xlink:href="#DejaVuSans-48"/>
       <use x="127.246094" xlink:href="#DejaVuSans-48"/>
       <use x="190.869141" xlink:href="#DejaVuSans-48"/>
      </g>
     </g>
    </g>
    <g id="text_10">
     <!-- altadmac -->
     <defs>
      <path d="M 34.28125 27.484375 
Q 23.390625 27.484375 19.1875 25 
Q 14.984375 22.515625 14.984375 16.5 
Q 14.984375 11.71875 18.140625 8.90625 
Q 21.296875 6.109375 26.703125 6.109375 
Q 34.1875 6.109375 38.703125 11.40625 
Q 43.21875 16.703125 43.21875 25.484375 
L 43.21875 27.484375 
z
M 52.203125 31.203125 
L 52.203125 0 
L 43.21875 0 
L 43.21875 8.296875 
Q 40.140625 3.328125 35.546875 0.953125 
Q 30.953125 -1.421875 24.3125 -1.421875 
Q 15.921875 -1.421875 10.953125 3.296875 
Q 6 8.015625 6 15.921875 
Q 6 25.140625 12.171875 29.828125 
Q 18.359375 34.515625 30.609375 34.515625 
L 43.21875 34.515625 
L 43.21875 35.40625 
Q 43.21875 41.609375 39.140625 45 
Q 35.0625 48.390625 27.6875 48.390625 
Q 23 48.390625 18.546875 47.265625 
Q 14.109375 46.140625 10.015625 43.890625 
L 10.015625 52.203125 
Q 14.9375 54.109375 19.578125 55.046875 
Q 24.21875 56 28.609375 56 
Q 40.484375 56 46.34375 49.84375 
Q 52.203125 43.703125 52.203125 31.203125 
z
" id="DejaVuSans-97"/>
      <path d="M 9.421875 75.984375 
L 18.40625 75.984375 
L 18.40625 0 
L 9.421875 0 
z
" id="DejaVuSans-108"/>
      <path d="M 18.3125 70.21875 
L 18.3125 54.6875 
L 36.8125 54.6875 
L 36.8125 47.703125 
L 18.3125 47.703125 
L 18.3125 18.015625 
Q 18.3125 11.328125 20.140625 9.421875 
Q 21.96875 7.515625 27.59375 7.515625 
L 36.8125 7.515625 
L 36.8125 0 
L 27.59375 0 
Q 17.1875 0 13.234375 3.875 
Q 9.28125 7.765625 9.28125 18.015625 
L 9.28125 47.703125 
L 2.6875 47.703125 
L 2.6875 54.6875 
L 9.28125 54.6875 
L 9.28125 70.21875 
z
" id="DejaVuSans-116"/>
      <path d="M 45.40625 46.390625 
L 45.40625 75.984375 
L 54.390625 75.984375 
L 54.390625 0 
L 45.40625 0 
L 45.40625 8.203125 
Q 42.578125 3.328125 38.25 0.953125 
Q 33.9375 -1.421875 27.875 -1.421875 
Q 17.96875 -1.421875 11.734375 6.484375 
Q 5.515625 14.40625 5.515625 27.296875 
Q 5.515625 40.1875 11.734375 48.09375 
Q 17.96875 56 27.875 56 
Q 33.9375 56 38.25 53.625 
Q 42.578125 51.265625 45.40625 46.390625 
z
M 14.796875 27.296875 
Q 14.796875 17.390625 18.875 11.75 
Q 22.953125 6.109375 30.078125 6.109375 
Q 37.203125 6.109375 41.296875 11.75 
Q 45.40625 17.390625 45.40625 27.296875 
Q 45.40625 37.203125 41.296875 42.84375 
Q 37.203125 48.484375 30.078125 48.484375 
Q 22.953125 48.484375 18.875 42.84375 
Q 14.796875 37.203125 14.796875 27.296875 
z
" id="DejaVuSans-100"/>
      <path d="M 52 44.1875 
Q 55.375 50.25 60.0625 53.125 
Q 64.75 56 71.09375 56 
Q 79.640625 56 84.28125 50.015625 
Q 88.921875 44.046875 88.921875 33.015625 
L 88.921875 0 
L 79.890625 0 
L 79.890625 32.71875 
Q 79.890625 40.578125 77.09375 44.375 
Q 74.3125 48.1875 68.609375 48.1875 
Q 61.625 48.1875 57.5625 43.546875 
Q 53.515625 38.921875 53.515625 30.90625 
L 53.515625 0 
L 44.484375 0 
L 44.484375 32.71875 
Q 44.484375 40.625 41.703125 44.40625 
Q 38.921875 48.1875 33.109375 48.1875 
Q 26.21875 48.1875 22.15625 43.53125 
Q 18.109375 38.875 18.109375 30.90625 
L 18.109375 0 
L 9.078125 0 
L 9.078125 54.6875 
L 18.109375 54.6875 
L 18.109375 46.1875 
Q 21.1875 51.21875 25.484375 53.609375 
Q 29.78125 56 35.6875 56 
Q 41.65625 56 45.828125 52.96875 
Q 50 49.953125 52 44.1875 
z
" id="DejaVuSans-109"/>
      <path d="M 48.78125 52.59375 
L 48.78125 44.1875 
Q 44.96875 46.296875 41.140625 47.34375 
Q 37.3125 48.390625 33.40625 48.390625 
Q 24.65625 48.390625 19.8125 42.84375 
Q 14.984375 37.3125 14.984375 27.296875 
Q 14.984375 17.28125 19.8125 11.734375 
Q 24.65625 6.203125 33.40625 6.203125 
Q 37.3125 6.203125 41.140625 7.25 
Q 44.96875 8.296875 48.78125 10.40625 
L 48.78125 2.09375 
Q 45.015625 0.34375 40.984375 -0.53125 
Q 36.96875 -1.421875 32.421875 -1.421875 
Q 20.0625 -1.421875 12.78125 6.34375 
Q 5.515625 14.109375 5.515625 27.296875 
Q 5.515625 40.671875 12.859375 48.328125 
Q 20.21875 56 33.015625 56 
Q 37.15625 56 41.109375 55.140625 
Q 45.0625 54.296875 48.78125 52.59375 
z
" id="DejaVuSans-99"/>
     </defs>
     <g transform="translate(212.824844 335.860562)scale(0.1 -0.1)">
      <use xlink:href="#DejaVuSans-97"/>
      <use x="61.279297" xlink:href="#DejaVuSans-108"/>
      <use x="89.0625" xlink:href="#DejaVuSans-116"/>
      <use x="128.271484" xlink:href="#DejaVuSans-97"/>
      <use x="189.550781" xlink:href="#DejaVuSans-100"/>
      <use x="253.027344" xlink:href="#DejaVuSans-109"/>
      <use x="350.439453" xlink:href="#DejaVuSans-97"/>
      <use x="411.71875" xlink:href="#DejaVuSans-99"/>
     </g>
    </g>
   </g>
   <g id="matplotlib.axis_2">
    <g id="ytick_1">
     <g id="line2d_10">
      <defs>
       <path d="M 0 0 
L -3.5 0 
" id="me96731bdf7" style="stroke:#000000;stroke-width:0.8;"/>
      </defs>
      <g>
       <use style="stroke:#000000;stroke-width:0.8;" x="57.6" xlink:href="#me96731bdf7" y="174.528"/>
      </g>
     </g>
    </g>
   </g>
   <g id="line2d_11">
    <path clip-path="url(#p6a4e4e301f)" d="M 83.85405 174.528 
L 93.05539 174.528 
" style="fill:none;stroke:#ffa500;stroke-linecap:square;stroke-width:1.5;"/>
   </g>
   <g id="line2d_12">
    <path clip-path="url(#p6a4e4e301f)" d="M 84.354301 174.528 
L 88.954971 174.528 
" style="fill:none;stroke:#4c4c4c;stroke-linecap:square;stroke-width:4.5;"/>
   </g>
   <g id="line2d_13">
    <path clip-path="url(#p6a4e4e301f)" d="M 83.050368 174.528 
L 94.859574 174.528 
" style="fill:none;stroke:#008000;stroke-linecap:square;stroke-width:1.5;"/>
   </g>
   <g id="line2d_14">
    <path clip-path="url(#p6a4e4e301f)" d="M 85.018569 174.528 
L 88.954971 174.528 
" style="fill:none;stroke:#262626;stroke-linecap:square;stroke-width:4.5;"/>
   </g>
   <g id="patch_3">
    <path d="M 57.6 307.584 
L 57.6 41.472 
" style="fill:none;stroke:#000000;stroke-linecap:square;stroke-linejoin:miter;stroke-width:0.8;"/>
   </g>
   <g id="patch_4">
    <path d="M 414.72 307.584 
L 414.72 41.472 
" style="fill:none;stroke:#000000;stroke-linecap:square;stroke-linejoin:miter;stroke-width:0.8;"/>
   </g>
   <g id="patch_5">
    <path d="M 57.6 307.584 
L 414.72 307.584 
" style="fill:none;stroke:#000000;stroke-linecap:square;stroke-linejoin:miter;stroke-width:0.8;"/>
   </g>
   <g id="patch_6">
    <path d="M 57.6 41.472 
L 414.72 41.472 
" style="fill:none;stroke:#000000;stroke-linecap:square;stroke-linejoin:miter;stroke-width:0.8;"/>
   </g>
   <g id="PathCollection_1">
    <defs>
     <path d="M 0 1.5 
C 0.397805 1.5 0.77937 1.341951 1.06066 1.06066 
C 1.341951 0.77937 1.5 0.397805 1.5 0 
C 1.5 -0.397805 1.341951 -0.77937 1.06066 -1.06066 
C 0.77937 -1.341951 0.397805 -1.5 0 -1.5 
C -0.397805 -1.5 -0.77937 -1.341951 -1.06066 -1.06066 
C -1.341951 -0.77937 -1.5 -0.397805 -1.5 0 
C -1.5 0.397805 -1.341951 0.77937 -1.06066 1.06066 
C -0.77937 1.341951 -0.397805 1.5 0 1.5 
z
" id="mdbef4eac29" style="stroke:#4c4c4c;stroke-opacity:0.5;"/>
    </defs>
    <g clip-path="url(#p6a4e4e301f)">
     <use style="fill:#ffffff;fill-opacity:0.5;stroke:#4c4c4c;stroke-opacity:0.5;" x="84.854552" xlink:href="#mdbef4eac29" y="174.528"/>
    </g>
   </g>
   <g id="PathCollection_2">
    <defs>
     <path d="M 0 1.5 
C 0.397805 1.5 0.77937 1.341951 1.06066 1.06066 
C 1.341951 0.77937 1.5 0.397805 1.5 0 
C 1.5 -0.397805 1.341951 -0.77937 1.06066 -1.06066 
C 0.77937 -1.341951 0.397805 -1.5 0 -1.5 
C -0.397805 -1.5 -0.77937 -1.341951 -1.06066 -1.06066 
C -1.341951 -0.77937 -1.5 -0.397805 -1.5 0 
C -1.5 0.397805 -1.341951 0.77937 -1.06066 1.06066 
C -0.77937 1.341951 -0.397805 1.5 0 1.5 
z
" id="ma023cc09bd" style="stroke:#262626;stroke-opacity:0.5;"/>
    </defs>
    <g clip-path="url(#p6a4e4e301f)">
     <use style="fill:#ffffff;fill-opacity:0.5;stroke:#262626;stroke-opacity:0.5;" x="86.49472" xlink:href="#ma023cc09bd" y="174.528"/>
    </g>
   </g>
   <g id="text_11">
    <!-- Association of altadmac vs. ecmo -->
    <defs>
     <path d="M 34.1875 63.1875 
L 20.796875 26.90625 
L 47.609375 26.90625 
z
M 28.609375 72.90625 
L 39.796875 72.90625 
L 67.578125 0 
L 57.328125 0 
L 50.6875 18.703125 
L 17.828125 18.703125 
L 11.1875 0 
L 0.78125 0 
z
" id="DejaVuSans-65"/>
     <path d="M 44.28125 53.078125 
L 44.28125 44.578125 
Q 40.484375 46.53125 36.375 47.5 
Q 32.28125 48.484375 27.875 48.484375 
Q 21.1875 48.484375 17.84375 46.4375 
Q 14.5 44.390625 14.5 40.28125 
Q 14.5 37.15625 16.890625 35.375 
Q 19.28125 33.59375 26.515625 31.984375 
L 29.59375 31.296875 
Q 39.15625 29.25 43.1875 25.515625 
Q 47.21875 21.78125 47.21875 15.09375 
Q 47.21875 7.46875 41.1875 3.015625 
Q 35.15625 -1.421875 24.609375 -1.421875 
Q 20.21875 -1.421875 15.453125 -0.5625 
Q 10.6875 0.296875 5.421875 2 
L 5.421875 11.28125 
Q 10.40625 8.6875 15.234375 7.390625 
Q 20.0625 6.109375 24.8125 6.109375 
Q 31.15625 6.109375 34.5625 8.28125 
Q 37.984375 10.453125 37.984375 14.40625 
Q 37.984375 18.0625 35.515625 20.015625 
Q 33.0625 21.96875 24.703125 23.78125 
L 21.578125 24.515625 
Q 13.234375 26.265625 9.515625 29.90625 
Q 5.8125 33.546875 5.8125 39.890625 
Q 5.8125 47.609375 11.28125 51.796875 
Q 16.75 56 26.8125 56 
Q 31.78125 56 36.171875 55.265625 
Q 40.578125 54.546875 44.28125 53.078125 
z
" id="DejaVuSans-115"/>
     <path d="M 30.609375 48.390625 
Q 23.390625 48.390625 19.1875 42.75 
Q 14.984375 37.109375 14.984375 27.296875 
Q 14.984375 17.484375 19.15625 11.84375 
Q 23.34375 6.203125 30.609375 6.203125 
Q 37.796875 6.203125 41.984375 11.859375 
Q 46.1875 17.53125 46.1875 27.296875 
Q 46.1875 37.015625 41.984375 42.703125 
Q 37.796875 48.390625 30.609375 48.390625 
z
M 30.609375 56 
Q 42.328125 56 49.015625 48.375 
Q 55.71875 40.765625 55.71875 27.296875 
Q 55.71875 13.875 49.015625 6.21875 
Q 42.328125 -1.421875 30.609375 -1.421875 
Q 18.84375 -1.421875 12.171875 6.21875 
Q 5.515625 13.875 5.515625 27.296875 
Q 5.515625 40.765625 12.171875 48.375 
Q 18.84375 56 30.609375 56 
z
" id="DejaVuSans-111"/>
     <path d="M 9.421875 54.6875 
L 18.40625 54.6875 
L 18.40625 0 
L 9.421875 0 
z
M 9.421875 75.984375 
L 18.40625 75.984375 
L 18.40625 64.59375 
L 9.421875 64.59375 
z
" id="DejaVuSans-105"/>
     <path d="M 54.890625 33.015625 
L 54.890625 0 
L 45.90625 0 
L 45.90625 32.71875 
Q 45.90625 40.484375 42.875 44.328125 
Q 39.84375 48.1875 33.796875 48.1875 
Q 26.515625 48.1875 22.3125 43.546875 
Q 18.109375 38.921875 18.109375 30.90625 
L 18.109375 0 
L 9.078125 0 
L 9.078125 54.6875 
L 18.109375 54.6875 
L 18.109375 46.1875 
Q 21.34375 51.125 25.703125 53.5625 
Q 30.078125 56 35.796875 56 
Q 45.21875 56 50.046875 50.171875 
Q 54.890625 44.34375 54.890625 33.015625 
z
" id="DejaVuSans-110"/>
     <path id="DejaVuSans-32"/>
     <path d="M 37.109375 75.984375 
L 37.109375 68.5 
L 28.515625 68.5 
Q 23.6875 68.5 21.796875 66.546875 
Q 19.921875 64.59375 19.921875 59.515625 
L 19.921875 54.6875 
L 34.71875 54.6875 
L 34.71875 47.703125 
L 19.921875 47.703125 
L 19.921875 0 
L 10.890625 0 
L 10.890625 47.703125 
L 2.296875 47.703125 
L 2.296875 54.6875 
L 10.890625 54.6875 
L 10.890625 58.5 
Q 10.890625 67.625 15.140625 71.796875 
Q 19.390625 75.984375 28.609375 75.984375 
z
" id="DejaVuSans-102"/>
     <path d="M 2.984375 54.6875 
L 12.5 54.6875 
L 29.59375 8.796875 
L 46.6875 54.6875 
L 56.203125 54.6875 
L 35.6875 0 
L 23.484375 0 
z
" id="DejaVuSans-118"/>
     <path d="M 10.6875 12.40625 
L 21 12.40625 
L 21 0 
L 10.6875 0 
z
" id="DejaVuSans-46"/>
     <path d="M 56.203125 29.59375 
L 56.203125 25.203125 
L 14.890625 25.203125 
Q 15.484375 15.921875 20.484375 11.0625 
Q 25.484375 6.203125 34.421875 6.203125 
Q 39.59375 6.203125 44.453125 7.46875 
Q 49.3125 8.734375 54.109375 11.28125 
L 54.109375 2.78125 
Q 49.265625 0.734375 44.1875 -0.34375 
Q 39.109375 -1.421875 33.890625 -1.421875 
Q 20.796875 -1.421875 13.15625 6.1875 
Q 5.515625 13.8125 5.515625 26.8125 
Q 5.515625 40.234375 12.765625 48.109375 
Q 20.015625 56 32.328125 56 
Q 43.359375 56 49.78125 48.890625 
Q 56.203125 41.796875 56.203125 29.59375 
z
M 47.21875 32.234375 
Q 47.125 39.59375 43.09375 43.984375 
Q 39.0625 48.390625 32.421875 48.390625 
Q 24.90625 48.390625 20.390625 44.140625 
Q 15.875 39.890625 15.1875 32.171875 
z
" id="DejaVuSans-101"/>
    </defs>
    <g transform="translate(135.494062 35.472)scale(0.12 -0.12)">
     <use xlink:href="#DejaVuSans-65"/>
     <use x="68.408203" xlink:href="#DejaVuSans-115"/>
     <use x="120.507812" xlink:href="#DejaVuSans-115"/>
     <use x="172.607422" xlink:href="#DejaVuSans-111"/>
     <use x="233.789062" xlink:href="#DejaVuSans-99"/>
     <use x="288.769531" xlink:href="#DejaVuSans-105"/>
     <use x="316.552734" xlink:href="#DejaVuSans-97"/>
     <use x="377.832031" xlink:href="#DejaVuSans-116"/>
     <use x="417.041016" xlink:href="#DejaVuSans-105"/>
     <use x="444.824219" xlink:href="#DejaVuSans-111"/>
     <use x="506.005859" xlink:href="#DejaVuSans-110"/>
     <use x="569.384766" xlink:href="#DejaVuSans-32"/>
     <use x="601.171875" xlink:href="#DejaVuSans-111"/>
     <use x="662.353516" xlink:href="#DejaVuSans-102"/>
     <use x="697.558594" xlink:href="#DejaVuSans-32"/>
     <use x="729.345703" xlink:href="#DejaVuSans-97"/>
     <use x="790.625" xlink:href="#DejaVuSans-108"/>
     <use x="818.408203" xlink:href="#DejaVuSans-116"/>
     <use x="857.617188" xlink:href="#DejaVuSans-97"/>
     <use x="918.896484" xlink:href="#DejaVuSans-100"/>
     <use x="982.373047" xlink:href="#DejaVuSans-109"/>
     <use x="1079.785156" xlink:href="#DejaVuSans-97"/>
     <use x="1141.064453" xlink:href="#DejaVuSans-99"/>
     <use x="1196.044922" xlink:href="#DejaVuSans-32"/>
     <use x="1227.832031" xlink:href="#DejaVuSans-118"/>
     <use x="1287.011719" xlink:href="#DejaVuSans-115"/>
     <use x="1339.111328" xlink:href="#DejaVuSans-46"/>
     <use x="1370.898438" xlink:href="#DejaVuSans-32"/>
     <use x="1402.685547" xlink:href="#DejaVuSans-101"/>
     <use x="1464.208984" xlink:href="#DejaVuSans-99"/>
     <use x="1519.189453" xlink:href="#DejaVuSans-109"/>
     <use x="1616.601562" xlink:href="#DejaVuSans-111"/>
    </g>
   </g>
   <g id="legend_1">
    <g id="patch_7">
     <path d="M 297.441875 78.82825 
L 407.72 78.82825 
Q 409.72 78.82825 409.72 76.82825 
L 409.72 48.472 
Q 409.72 46.472 407.72 46.472 
L 297.441875 46.472 
Q 295.441875 46.472 295.441875 48.472 
L 295.441875 76.82825 
Q 295.441875 78.82825 297.441875 78.82825 
z
" style="fill:#ffffff;opacity:0.8;stroke:#cccccc;stroke-linejoin:miter;"/>
    </g>
    <g id="line2d_15">
     <path d="M 299.441875 54.570437 
L 319.441875 54.570437 
" style="fill:none;stroke:#ffa500;stroke-linecap:square;stroke-width:1.5;"/>
    </g>
    <g id="line2d_16"/>
    <g id="text_12">
     <!-- ecmo (3) -->
     <defs>
      <path d="M 31 75.875 
Q 24.46875 64.65625 21.28125 53.65625 
Q 18.109375 42.671875 18.109375 31.390625 
Q 18.109375 20.125 21.3125 9.0625 
Q 24.515625 -2 31 -13.1875 
L 23.1875 -13.1875 
Q 15.875 -1.703125 12.234375 9.375 
Q 8.59375 20.453125 8.59375 31.390625 
Q 8.59375 42.28125 12.203125 53.3125 
Q 15.828125 64.359375 23.1875 75.875 
z
" id="DejaVuSans-40"/>
      <path d="M 40.578125 39.3125 
Q 47.65625 37.796875 51.625 33 
Q 55.609375 28.21875 55.609375 21.1875 
Q 55.609375 10.40625 48.1875 4.484375 
Q 40.765625 -1.421875 27.09375 -1.421875 
Q 22.515625 -1.421875 17.65625 -0.515625 
Q 12.796875 0.390625 7.625 2.203125 
L 7.625 11.71875 
Q 11.71875 9.328125 16.59375 8.109375 
Q 21.484375 6.890625 26.8125 6.890625 
Q 36.078125 6.890625 40.9375 10.546875 
Q 45.796875 14.203125 45.796875 21.1875 
Q 45.796875 27.640625 41.28125 31.265625 
Q 36.765625 34.90625 28.71875 34.90625 
L 20.21875 34.90625 
L 20.21875 43.015625 
L 29.109375 43.015625 
Q 36.375 43.015625 40.234375 45.921875 
Q 44.09375 48.828125 44.09375 54.296875 
Q 44.09375 59.90625 40.109375 62.90625 
Q 36.140625 65.921875 28.71875 65.921875 
Q 24.65625 65.921875 20.015625 65.03125 
Q 15.375 64.15625 9.8125 62.3125 
L 9.8125 71.09375 
Q 15.4375 72.65625 20.34375 73.4375 
Q 25.25 74.21875 29.59375 74.21875 
Q 40.828125 74.21875 47.359375 69.109375 
Q 53.90625 64.015625 53.90625 55.328125 
Q 53.90625 49.265625 50.4375 45.09375 
Q 46.96875 40.921875 40.578125 39.3125 
z
" id="DejaVuSans-51"/>
      <path d="M 8.015625 75.875 
L 15.828125 75.875 
Q 23.140625 64.359375 26.78125 53.3125 
Q 30.421875 42.28125 30.421875 31.390625 
Q 30.421875 20.453125 26.78125 9.375 
Q 23.140625 -1.703125 15.828125 -13.1875 
L 8.015625 -13.1875 
Q 14.5 -2 17.703125 9.0625 
Q 20.90625 20.125 20.90625 31.390625 
Q 20.90625 42.671875 17.703125 53.65625 
Q 14.5 64.65625 8.015625 75.875 
z
" id="DejaVuSans-41"/>
     </defs>
     <g transform="translate(327.441875 58.070437)scale(0.1 -0.1)">
      <use xlink:href="#DejaVuSans-101"/>
      <use x="61.523438" xlink:href="#DejaVuSans-99"/>
      <use x="116.503906" xlink:href="#DejaVuSans-109"/>
      <use x="213.916016" xlink:href="#DejaVuSans-111"/>
      <use x="275.097656" xlink:href="#DejaVuSans-32"/>
      <use x="306.884766" xlink:href="#DejaVuSans-40"/>
      <use x="345.898438" xlink:href="#DejaVuSans-51"/>
      <use x="409.521484" xlink:href="#DejaVuSans-41"/>
     </g>
    </g>
    <g id="line2d_17">
     <path d="M 299.441875 69.248562 
L 319.441875 69.248562 
" style="fill:none;stroke:#008000;stroke-linecap:square;stroke-width:1.5;"/>
    </g>
    <g id="line2d_18"/>
    <g id="text_13">
     <!-- Not ecmo (465) -->
     <defs>
      <path d="M 9.8125 72.90625 
L 23.09375 72.90625 
L 55.421875 11.921875 
L 55.421875 72.90625 
L 64.984375 72.90625 
L 64.984375 0 
L 51.703125 0 
L 19.390625 60.984375 
L 19.390625 0 
L 9.8125 0 
z
" id="DejaVuSans-78"/>
      <path d="M 37.796875 64.3125 
L 12.890625 25.390625 
L 37.796875 25.390625 
z
M 35.203125 72.90625 
L 47.609375 72.90625 
L 47.609375 25.390625 
L 58.015625 25.390625 
L 58.015625 17.1875 
L 47.609375 17.1875 
L 47.609375 0 
L 37.796875 0 
L 37.796875 17.1875 
L 4.890625 17.1875 
L 4.890625 26.703125 
z
" id="DejaVuSans-52"/>
      <path d="M 33.015625 40.375 
Q 26.375 40.375 22.484375 35.828125 
Q 18.609375 31.296875 18.609375 23.390625 
Q 18.609375 15.53125 22.484375 10.953125 
Q 26.375 6.390625 33.015625 6.390625 
Q 39.65625 6.390625 43.53125 10.953125 
Q 47.40625 15.53125 47.40625 23.390625 
Q 47.40625 31.296875 43.53125 35.828125 
Q 39.65625 40.375 33.015625 40.375 
z
M 52.59375 71.296875 
L 52.59375 62.3125 
Q 48.875 64.0625 45.09375 64.984375 
Q 41.3125 65.921875 37.59375 65.921875 
Q 27.828125 65.921875 22.671875 59.328125 
Q 17.53125 52.734375 16.796875 39.40625 
Q 19.671875 43.65625 24.015625 45.921875 
Q 28.375 48.1875 33.59375 48.1875 
Q 44.578125 48.1875 50.953125 41.515625 
Q 57.328125 34.859375 57.328125 23.390625 
Q 57.328125 12.15625 50.6875 5.359375 
Q 44.046875 -1.421875 33.015625 -1.421875 
Q 20.359375 -1.421875 13.671875 8.265625 
Q 6.984375 17.96875 6.984375 36.375 
Q 6.984375 53.65625 15.1875 63.9375 
Q 23.390625 74.21875 37.203125 74.21875 
Q 40.921875 74.21875 44.703125 73.484375 
Q 48.484375 72.75 52.59375 71.296875 
z
" id="DejaVuSans-54"/>
     </defs>
     <g transform="translate(327.441875 72.748562)scale(0.1 -0.1)">
      <use xlink:href="#DejaVuSans-78"/>
      <use x="74.804688" xlink:href="#DejaVuSans-111"/>
      <use x="135.986328" xlink:href="#DejaVuSans-116"/>
      <use x="175.195312" xlink:href="#DejaVuSans-32"/>
      <use x="206.982422" xlink:href="#DejaVuSans-101"/>
      <use x="268.505859" xlink:href="#DejaVuSans-99"/>
      <use x="323.486328" xlink:href="#DejaVuSans-109"/>
      <use x="420.898438" xlink:href="#DejaVuSans-111"/>
      <use x="482.080078" xlink:href="#DejaVuSans-32"/>
      <use x="513.867188" xlink:href="#DejaVuSans-40"/>
      <use x="552.880859" xlink:href="#DejaVuSans-52"/>
      <use x="616.503906" xlink:href="#DejaVuSans-54"/>
      <use x="680.126953" xlink:href="#DejaVuSans-53"/>
      <use x="743.75" xlink:href="#DejaVuSans-41"/>
     </g>
    </g>
   </g>
  </g>
 </g>
 <defs>
  <clipPath id="p6a4e4e301f">
   <rect height="266.112" width="357.12" x="57.6" y="41.472"/>
  </clipPath>
 </defs>
</svg>
