<?xml version="1.0" encoding="utf-8" standalone="no"?>
<!DOCTYPE svg PUBLIC "-//W3C//DTD SVG 1.1//EN"
  "http://www.w3.org/Graphics/SVG/1.1/DTD/svg11.dtd">
<!-- Created with matplotlib (https://matplotlib.org/) -->
<svg height="345.6pt" version="1.1" viewBox="0 0 460.8 345.6" width="460.8pt" xmlns="http://www.w3.org/2000/svg" xmlns:xlink="http://www.w3.org/1999/xlink">
 <defs>
  <style type="text/css">
*{stroke-linecap:butt;stroke-linejoin:round;}
  </style>
 </defs>
 <g id="figure_1">
  <g id="patch_1">
   <path d="M 0 345.6 
L 460.8 345.6 
L 460.8 0 
L 0 0 
z
" style="fill:#ffffff;"/>
  </g>
  <g id="axes_1">
   <g id="patch_2">
    <path d="M 57.6 307.584 
L 414.72 307.584 
L 414.72 41.472 
L 57.6 41.472 
z
" style="fill:#ffffff;"/>
   </g>
   <g id="PolyCollection_1">
    <defs>
     <path d="M 147.512851 -166.105473 
L 147.512851 -176.038527 
L 149.233169 -177.072913 
L 150.953486 -178.279895 
L 152.673803 -179.678635 
L 154.39412 -181.288431 
L 156.114437 -183.128259 
L 157.834754 -185.216252 
L 159.555072 -187.569099 
L 161.275389 -190.201399 
L 162.995706 -193.124958 
L 164.716023 -196.348075 
L 166.43634 -199.874813 
L 168.156657 -203.704304 
L 169.876975 -207.830103 
L 171.597292 -212.239622 
L 173.317609 -216.913692 
L 175.037926 -221.826256 
L 176.758243 -226.944251 
L 178.47856 -232.227677 
L 180.198878 -237.629887 
L 181.919195 -243.09811 
L 183.639512 -248.574194 
L 185.359829 -253.995573 
L 187.080146 -259.296449 
L 188.800463 -264.409135 
L 190.520781 -269.265547 
L 192.241098 -273.798797 
L 193.961415 -277.944812 
L 195.681732 -281.643961 
L 197.402049 -284.842597 
L 199.122367 -287.494481 
L 200.842684 -289.562025 
L 202.563001 -291.01731 
L 204.283318 -291.842837 
L 206.003635 -292.032 
L 207.723952 -291.589244 
L 209.44427 -290.529924 
L 211.164587 -288.879866 
L 212.884904 -286.674657 
L 214.605221 -283.958692 
L 216.325538 -280.784023 
L 218.045855 -277.209046 
L 219.766173 -273.297093 
L 221.48649 -269.114953 
L 223.206807 -264.731393 
L 224.927124 -260.215702 
L 226.647441 -255.636306 
L 228.367758 -251.059482 
L 230.088076 -246.548188 
L 231.808393 -242.161027 
L 233.52871 -237.951357 
L 235.249027 -233.96654 
L 236.969344 -230.247342 
L 238.689662 -226.827465 
L 240.409979 -223.733215 
L 242.130296 -220.983307 
L 243.850613 -218.58878 
L 245.57093 -216.553045 
L 247.291247 -214.87205 
L 249.011565 -213.534565 
L 250.731882 -212.522582 
L 252.452199 -211.811851 
L 254.172516 -211.372522 
L 255.892833 -211.169907 
L 257.61315 -211.165358 
L 259.333468 -211.317226 
L 261.053785 -211.581917 
L 262.774102 -211.914982 
L 264.494419 -212.272258 
L 266.214736 -212.610984 
L 267.935053 -212.89089 
L 269.655371 -213.075212 
L 271.375688 -213.131586 
L 273.096005 -213.032818 
L 274.816322 -212.757465 
L 276.536639 -212.290244 
L 278.256956 -211.62222 
L 279.977274 -210.750799 
L 281.697591 -209.679505 
L 283.417908 -208.417571 
L 285.138225 -206.979361 
L 286.858542 -205.38364 
L 288.57886 -203.652748 
L 290.299177 -201.811694 
L 292.019494 -199.887222 
L 293.739811 -197.906879 
L 295.460128 -195.898131 
L 297.180445 -193.887547 
L 298.900763 -191.900084 
L 300.62108 -189.958494 
L 302.341397 -188.08286 
L 304.061714 -186.290272 
L 305.782031 -184.594634 
L 307.502348 -183.006609 
L 309.222666 -181.533674 
L 310.942983 -180.180275 
L 312.6633 -178.948074 
L 314.383617 -177.836245 
L 316.103934 -176.841824 
L 317.824251 -175.960071 
L 317.824251 -166.183929 
L 317.824251 -166.183929 
L 316.103934 -165.302176 
L 314.383617 -164.307755 
L 312.6633 -163.195926 
L 310.942983 -161.963725 
L 309.222666 -160.610326 
L 307.502348 -159.137391 
L 305.782031 -157.549366 
L 304.061714 -155.853728 
L 302.341397 -154.06114 
L 300.62108 -152.185506 
L 298.900763 -150.243916 
L 297.180445 -148.256453 
L 295.460128 -146.245869 
L 293.739811 -144.237121 
L 292.019494 -142.256778 
L 290.299177 -140.332306 
L 288.57886 -138.491252 
L 286.858542 -136.76036 
L 285.138225 -135.164639 
L 283.417908 -133.726429 
L 281.697591 -132.464495 
L 279.977274 -131.393201 
L 278.256956 -130.52178 
L 276.536639 -129.853756 
L 274.816322 -129.386535 
L 273.096005 -129.111182 
L 271.375688 -129.012414 
L 269.655371 -129.068788 
L 267.935053 -129.25311 
L 266.214736 -129.533016 
L 264.494419 -129.871742 
L 262.774102 -130.229018 
L 261.053785 -130.562083 
L 259.333468 -130.826774 
L 257.61315 -130.978642 
L 255.892833 -130.974093 
L 254.172516 -130.771478 
L 252.452199 -130.332149 
L 250.731882 -129.621418 
L 249.011565 -128.609435 
L 247.291247 -127.27195 
L 245.57093 -125.590955 
L 243.850613 -123.55522 
L 242.130296 -121.160693 
L 240.409979 -118.410785 
L 238.689662 -115.316535 
L 236.969344 -111.896658 
L 235.249027 -108.17746 
L 233.52871 -104.192643 
L 231.808393 -99.982973 
L 230.088076 -95.595812 
L 228.367758 -91.084518 
L 226.647441 -86.507694 
L 224.927124 -81.928298 
L 223.206807 -77.412607 
L 221.48649 -73.029047 
L 219.766173 -68.846907 
L 218.045855 -64.934954 
L 216.325538 -61.359977 
L 214.605221 -58.185308 
L 212.884904 -55.469343 
L 211.164587 -53.264134 
L 209.44427 -51.614076 
L 207.723952 -50.554756 
L 206.003635 -50.112 
L 204.283318 -50.301163 
L 202.563001 -51.12669 
L 200.842684 -52.581975 
L 199.122367 -54.649519 
L 197.402049 -57.301403 
L 195.681732 -60.500039 
L 193.961415 -64.199188 
L 192.241098 -68.345203 
L 190.520781 -72.878453 
L 188.800463 -77.734865 
L 187.080146 -82.847551 
L 185.359829 -88.148427 
L 183.639512 -93.569806 
L 181.919195 -99.04589 
L 180.198878 -104.514113 
L 178.47856 -109.916323 
L 176.758243 -115.199749 
L 175.037926 -120.317744 
L 173.317609 -125.230308 
L 171.597292 -129.904378 
L 169.876975 -134.313897 
L 168.156657 -138.439696 
L 166.43634 -142.269187 
L 164.716023 -145.795925 
L 162.995706 -149.019042 
L 161.275389 -151.942601 
L 159.555072 -154.574901 
L 157.834754 -156.927748 
L 156.114437 -159.015741 
L 154.39412 -160.855569 
L 152.673803 -162.465365 
L 150.953486 -163.864105 
L 149.233169 -165.071087 
L 147.512851 -166.105473 
z
" id="mf8a1b85968" style="stroke:#4c4c4c;stroke-opacity:0.5;stroke-width:1.5;"/>
    </defs>
    <g clip-path="url(#p21bfa6ac4e)">
     <use style="fill:#df9c20;fill-opacity:0.5;stroke:#4c4c4c;stroke-opacity:0.5;stroke-width:1.5;" x="0" xlink:href="#mf8a1b85968" y="345.6"/>
    </g>
   </g>
   <g id="PolyCollection_2">
    <defs>
     <path d="M 73.832727 -166.391483 
L 73.832727 -175.752517 
L 77.112066 -176.735793 
L 80.391405 -177.872406 
L 83.670744 -179.174029 
L 86.950083 -180.650641 
L 90.229421 -182.309956 
L 93.50876 -184.156863 
L 96.788099 -186.192908 
L 100.067438 -188.415858 
L 103.346777 -190.819369 
L 106.626116 -193.392815 
L 109.905455 -196.12129 
L 113.184793 -198.985808 
L 116.464132 -201.96372 
L 119.743471 -205.029351 
L 123.02281 -208.15483 
L 126.302149 -211.311103 
L 129.581488 -214.469082 
L 132.860826 -217.600874 
L 136.140165 -220.68103 
L 139.419504 -223.687749 
L 142.698843 -226.60395 
L 145.978182 -229.418156 
L 149.257521 -232.125119 
L 152.53686 -234.726126 
L 155.816198 -237.228961 
L 159.095537 -239.647492 
L 162.374876 -242.000889 
L 165.654215 -244.312491 
L 168.933554 -246.608372 
L 172.212893 -248.915668 
L 175.492231 -251.260741 
L 178.77157 -253.667277 
L 182.050909 -256.154422 
L 185.330248 -258.735052 
L 188.609587 -261.414288 
L 191.888926 -264.188333 
L 195.168264 -267.04372 
L 198.447603 -269.957024 
L 201.726942 -272.895068 
L 205.006281 -275.815636 
L 208.28562 -278.668671 
L 211.564959 -281.397919 
L 214.844298 -283.942938 
L 218.123636 -286.241397 
L 221.402975 -288.231535 
L 224.682314 -289.854687 
L 227.961653 -291.057731 
L 231.240992 -291.795352 
L 234.520331 -292.032 
L 237.799669 -291.74345 
L 241.079008 -290.917898 
L 244.358347 -289.556522 
L 247.637686 -287.67351 
L 250.917025 -285.29554 
L 254.196364 -282.460757 
L 257.475702 -279.217301 
L 260.755041 -275.621458 
L 264.03438 -271.735544 
L 267.313719 -267.625609 
L 270.593058 -263.359081 
L 273.872397 -259.002461 
L 277.151736 -254.619154 
L 280.431074 -250.267547 
L 283.710413 -245.999393 
L 286.989752 -241.858562 
L 290.269091 -237.880197 
L 293.54843 -234.090281 
L 296.827769 -230.505628 
L 300.107107 -227.13425 
L 303.386446 -223.976075 
L 306.665785 -221.023958 
L 309.945124 -218.264906 
L 313.224463 -215.681462 
L 316.503802 -213.253151 
L 319.78314 -210.957934 
L 323.062479 -208.773575 
L 326.341818 -206.678876 
L 329.621157 -204.654726 
L 332.900496 -202.684918 
L 336.179835 -200.756723 
L 339.459174 -198.861204 
L 342.738512 -196.993282 
L 346.017851 -195.151575 
L 349.29719 -193.338045 
L 352.576529 -191.557486 
L 355.855868 -189.8169 
L 359.135207 -188.124821 
L 362.414545 -186.490614 
L 365.693884 -184.923806 
L 368.973223 -183.433475 
L 372.252562 -182.027734 
L 375.531901 -180.713326 
L 378.81124 -179.495328 
L 382.090579 -178.37699 
L 385.369917 -177.359676 
L 388.649256 -176.442917 
L 391.928595 -175.624541 
L 395.207934 -174.900878 
L 398.487273 -174.267003 
L 398.487273 -167.876997 
L 398.487273 -167.876997 
L 395.207934 -167.243122 
L 391.928595 -166.519459 
L 388.649256 -165.701083 
L 385.369917 -164.784324 
L 382.090579 -163.76701 
L 378.81124 -162.648672 
L 375.531901 -161.430674 
L 372.252562 -160.116266 
L 368.973223 -158.710525 
L 365.693884 -157.220194 
L 362.414545 -155.653386 
L 359.135207 -154.019179 
L 355.855868 -152.3271 
L 352.576529 -150.586514 
L 349.29719 -148.805955 
L 346.017851 -146.992425 
L 342.738512 -145.150718 
L 339.459174 -143.282796 
L 336.179835 -141.387277 
L 332.900496 -139.459082 
L 329.621157 -137.489274 
L 326.341818 -135.465124 
L 323.062479 -133.370425 
L 319.78314 -131.186066 
L 316.503802 -128.890849 
L 313.224463 -126.462538 
L 309.945124 -123.879094 
L 306.665785 -121.120042 
L 303.386446 -118.167925 
L 300.107107 -115.00975 
L 296.827769 -111.638372 
L 293.54843 -108.053719 
L 290.269091 -104.263803 
L 286.989752 -100.285438 
L 283.710413 -96.144607 
L 280.431074 -91.876453 
L 277.151736 -87.524846 
L 273.872397 -83.141539 
L 270.593058 -78.784919 
L 267.313719 -74.518391 
L 264.03438 -70.408456 
L 260.755041 -66.522542 
L 257.475702 -62.926699 
L 254.196364 -59.683243 
L 250.917025 -56.84846 
L 247.637686 -54.47049 
L 244.358347 -52.587478 
L 241.079008 -51.226102 
L 237.799669 -50.40055 
L 234.520331 -50.112 
L 231.240992 -50.348648 
L 227.961653 -51.086269 
L 224.682314 -52.289313 
L 221.402975 -53.912465 
L 218.123636 -55.902603 
L 214.844298 -58.201062 
L 211.564959 -60.746081 
L 208.28562 -63.475329 
L 205.006281 -66.328364 
L 201.726942 -69.248932 
L 198.447603 -72.186976 
L 195.168264 -75.10028 
L 191.888926 -77.955667 
L 188.609587 -80.729712 
L 185.330248 -83.408948 
L 182.050909 -85.989578 
L 178.77157 -88.476723 
L 175.492231 -90.883259 
L 172.212893 -93.228332 
L 168.933554 -95.535628 
L 165.654215 -97.831509 
L 162.374876 -100.143111 
L 159.095537 -102.496508 
L 155.816198 -104.915039 
L 152.53686 -107.417874 
L 149.257521 -110.018881 
L 145.978182 -112.725844 
L 142.698843 -115.54005 
L 139.419504 -118.456251 
L 136.140165 -121.46297 
L 132.860826 -124.543126 
L 129.581488 -127.674918 
L 126.302149 -130.832897 
L 123.02281 -133.98917 
L 119.743471 -137.114649 
L 116.464132 -140.18028 
L 113.184793 -143.158192 
L 109.905455 -146.02271 
L 106.626116 -148.751185 
L 103.346777 -151.324631 
L 100.067438 -153.728142 
L 96.788099 -155.951092 
L 93.50876 -157.987137 
L 90.229421 -159.834044 
L 86.950083 -161.493359 
L 83.670744 -162.969971 
L 80.391405 -164.271594 
L 77.112066 -165.408207 
L 73.832727 -166.391483 
z
" id="m99e5220631" style="stroke:#262626;stroke-opacity:0.5;stroke-width:1.5;"/>
    </defs>
    <g clip-path="url(#p21bfa6ac4e)">
     <use style="fill:#107010;fill-opacity:0.5;stroke:#262626;stroke-opacity:0.5;stroke-width:1.5;" x="0" xlink:href="#m99e5220631" y="345.6"/>
    </g>
   </g>
   <g id="matplotlib.axis_1">
    <g id="xtick_1">
     <g id="line2d_1">
      <defs>
       <path d="M 0 0 
L 0 3.5 
" id="m5169e4799a" style="stroke:#000000;stroke-width:0.8;"/>
      </defs>
      <g>
       <use style="stroke:#000000;stroke-width:0.8;" x="87.504862" xlink:href="#m5169e4799a" y="307.584"/>
      </g>
     </g>
     <g id="text_1">
      <!-- −200 -->
      <defs>
       <path d="M 10.59375 35.5 
L 73.1875 35.5 
L 73.1875 27.203125 
L 10.59375 27.203125 
z
" id="DejaVuSans-8722"/>
       <path d="M 19.1875 8.296875 
L 53.609375 8.296875 
L 53.609375 0 
L 7.328125 0 
L 7.328125 8.296875 
Q 12.9375 14.109375 22.625 23.890625 
Q 32.328125 33.6875 34.8125 36.53125 
Q 39.546875 41.84375 41.421875 45.53125 
Q 43.3125 49.21875 43.3125 52.78125 
Q 43.3125 58.59375 39.234375 62.25 
Q 35.15625 65.921875 28.609375 65.921875 
Q 23.96875 65.921875 18.8125 64.3125 
Q 13.671875 62.703125 7.8125 59.421875 
L 7.8125 69.390625 
Q 13.765625 71.78125 18.9375 73 
Q 24.125 74.21875 28.421875 74.21875 
Q 39.75 74.21875 46.484375 68.546875 
Q 53.21875 62.890625 53.21875 53.421875 
Q 53.21875 48.921875 51.53125 44.890625 
Q 49.859375 40.875 45.40625 35.40625 
Q 44.1875 33.984375 37.640625 27.21875 
Q 31.109375 20.453125 19.1875 8.296875 
z
" id="DejaVuSans-50"/>
       <path d="M 31.78125 66.40625 
Q 24.171875 66.40625 20.328125 58.90625 
Q 16.5 51.421875 16.5 36.375 
Q 16.5 21.390625 20.328125 13.890625 
Q 24.171875 6.390625 31.78125 6.390625 
Q 39.453125 6.390625 43.28125 13.890625 
Q 47.125 21.390625 47.125 36.375 
Q 47.125 51.421875 43.28125 58.90625 
Q 39.453125 66.40625 31.78125 66.40625 
z
M 31.78125 74.21875 
Q 44.046875 74.21875 50.515625 64.515625 
Q 56.984375 54.828125 56.984375 36.375 
Q 56.984375 17.96875 50.515625 8.265625 
Q 44.046875 -1.421875 31.78125 -1.421875 
Q 19.53125 -1.421875 13.0625 8.265625 
Q 6.59375 17.96875 6.59375 36.375 
Q 6.59375 54.828125 13.0625 64.515625 
Q 19.53125 74.21875 31.78125 74.21875 
z
" id="DejaVuSans-48"/>
      </defs>
      <g transform="translate(73.771268 322.182437)scale(0.1 -0.1)">
       <use xlink:href="#DejaVuSans-8722"/>
       <use x="83.789062" xlink:href="#DejaVuSans-50"/>
       <use x="147.412109" xlink:href="#DejaVuSans-48"/>
       <use x="211.035156" xlink:href="#DejaVuSans-48"/>
      </g>
     </g>
    </g>
    <g id="xtick_2">
     <g id="line2d_2">
      <g>
       <use style="stroke:#000000;stroke-width:0.8;" x="141.219455" xlink:href="#m5169e4799a" y="307.584"/>
      </g>
     </g>
     <g id="text_2">
      <!-- 0 -->
      <g transform="translate(138.038205 322.182437)scale(0.1 -0.1)">
       <use xlink:href="#DejaVuSans-48"/>
      </g>
     </g>
    </g>
    <g id="xtick_3">
     <g id="line2d_3">
      <g>
       <use style="stroke:#000000;stroke-width:0.8;" x="194.934049" xlink:href="#m5169e4799a" y="307.584"/>
      </g>
     </g>
     <g id="text_3">
      <!-- 200 -->
      <g transform="translate(185.390299 322.182437)scale(0.1 -0.1)">
       <use xlink:href="#DejaVuSans-50"/>
       <use x="63.623047" xlink:href="#DejaVuSans-48"/>
       <use x="127.246094" xlink:href="#DejaVuSans-48"/>
      </g>
     </g>
    </g>
    <g id="xtick_4">
     <g id="line2d_4">
      <g>
       <use style="stroke:#000000;stroke-width:0.8;" x="248.648643" xlink:href="#m5169e4799a" y="307.584"/>
      </g>
     </g>
     <g id="text_4">
      <!-- 400 -->
      <defs>
       <path d="M 37.796875 64.3125 
L 12.890625 25.390625 
L 37.796875 25.390625 
z
M 35.203125 72.90625 
L 47.609375 72.90625 
L 47.609375 25.390625 
L 58.015625 25.390625 
L 58.015625 17.1875 
L 47.609375 17.1875 
L 47.609375 0 
L 37.796875 0 
L 37.796875 17.1875 
L 4.890625 17.1875 
L 4.890625 26.703125 
z
" id="DejaVuSans-52"/>
      </defs>
      <g transform="translate(239.104893 322.182437)scale(0.1 -0.1)">
       <use xlink:href="#DejaVuSans-52"/>
       <use x="63.623047" xlink:href="#DejaVuSans-48"/>
       <use x="127.246094" xlink:href="#DejaVuSans-48"/>
      </g>
     </g>
    </g>
    <g id="xtick_5">
     <g id="line2d_5">
      <g>
       <use style="stroke:#000000;stroke-width:0.8;" x="302.363237" xlink:href="#m5169e4799a" y="307.584"/>
      </g>
     </g>
     <g id="text_5">
      <!-- 600 -->
      <defs>
       <path d="M 33.015625 40.375 
Q 26.375 40.375 22.484375 35.828125 
Q 18.609375 31.296875 18.609375 23.390625 
Q 18.609375 15.53125 22.484375 10.953125 
Q 26.375 6.390625 33.015625 6.390625 
Q 39.65625 6.390625 43.53125 10.953125 
Q 47.40625 15.53125 47.40625 23.390625 
Q 47.40625 31.296875 43.53125 35.828125 
Q 39.65625 40.375 33.015625 40.375 
z
M 52.59375 71.296875 
L 52.59375 62.3125 
Q 48.875 64.0625 45.09375 64.984375 
Q 41.3125 65.921875 37.59375 65.921875 
Q 27.828125 65.921875 22.671875 59.328125 
Q 17.53125 52.734375 16.796875 39.40625 
Q 19.671875 43.65625 24.015625 45.921875 
Q 28.375 48.1875 33.59375 48.1875 
Q 44.578125 48.1875 50.953125 41.515625 
Q 57.328125 34.859375 57.328125 23.390625 
Q 57.328125 12.15625 50.6875 5.359375 
Q 44.046875 -1.421875 33.015625 -1.421875 
Q 20.359375 -1.421875 13.671875 8.265625 
Q 6.984375 17.96875 6.984375 36.375 
Q 6.984375 53.65625 15.1875 63.9375 
Q 23.390625 74.21875 37.203125 74.21875 
Q 40.921875 74.21875 44.703125 73.484375 
Q 48.484375 72.75 52.59375 71.296875 
z
" id="DejaVuSans-54"/>
      </defs>
      <g transform="translate(292.819487 322.182437)scale(0.1 -0.1)">
       <use xlink:href="#DejaVuSans-54"/>
       <use x="63.623047" xlink:href="#DejaVuSans-48"/>
       <use x="127.246094" xlink:href="#DejaVuSans-48"/>
      </g>
     </g>
    </g>
    <g id="xtick_6">
     <g id="line2d_6">
      <g>
       <use style="stroke:#000000;stroke-width:0.8;" x="356.077831" xlink:href="#m5169e4799a" y="307.584"/>
      </g>
     </g>
     <g id="text_6">
      <!-- 800 -->
      <defs>
       <path d="M 31.78125 34.625 
Q 24.75 34.625 20.71875 30.859375 
Q 16.703125 27.09375 16.703125 20.515625 
Q 16.703125 13.921875 20.71875 10.15625 
Q 24.75 6.390625 31.78125 6.390625 
Q 38.8125 6.390625 42.859375 10.171875 
Q 46.921875 13.96875 46.921875 20.515625 
Q 46.921875 27.09375 42.890625 30.859375 
Q 38.875 34.625 31.78125 34.625 
z
M 21.921875 38.8125 
Q 15.578125 40.375 12.03125 44.71875 
Q 8.5 49.078125 8.5 55.328125 
Q 8.5 64.0625 14.71875 69.140625 
Q 20.953125 74.21875 31.78125 74.21875 
Q 42.671875 74.21875 48.875 69.140625 
Q 55.078125 64.0625 55.078125 55.328125 
Q 55.078125 49.078125 51.53125 44.71875 
Q 48 40.375 41.703125 38.8125 
Q 48.828125 37.15625 52.796875 32.3125 
Q 56.78125 27.484375 56.78125 20.515625 
Q 56.78125 9.90625 50.3125 4.234375 
Q 43.84375 -1.421875 31.78125 -1.421875 
Q 19.734375 -1.421875 13.25 4.234375 
Q 6.78125 9.90625 6.78125 20.515625 
Q 6.78125 27.484375 10.78125 32.3125 
Q 14.796875 37.15625 21.921875 38.8125 
z
M 18.3125 54.390625 
Q 18.3125 48.734375 21.84375 45.5625 
Q 25.390625 42.390625 31.78125 42.390625 
Q 38.140625 42.390625 41.71875 45.5625 
Q 45.3125 48.734375 45.3125 54.390625 
Q 45.3125 60.0625 41.71875 63.234375 
Q 38.140625 66.40625 31.78125 66.40625 
Q 25.390625 66.40625 21.84375 63.234375 
Q 18.3125 60.0625 18.3125 54.390625 
z
" id="DejaVuSans-56"/>
      </defs>
      <g transform="translate(346.534081 322.182437)scale(0.1 -0.1)">
       <use xlink:href="#DejaVuSans-56"/>
       <use x="63.623047" xlink:href="#DejaVuSans-48"/>
       <use x="127.246094" xlink:href="#DejaVuSans-48"/>
      </g>
     </g>
    </g>
    <g id="xtick_7">
     <g id="line2d_7">
      <g>
       <use style="stroke:#000000;stroke-width:0.8;" x="409.792425" xlink:href="#m5169e4799a" y="307.584"/>
      </g>
     </g>
     <g id="text_7">
      <!-- 1000 -->
      <defs>
       <path d="M 12.40625 8.296875 
L 28.515625 8.296875 
L 28.515625 63.921875 
L 10.984375 60.40625 
L 10.984375 69.390625 
L 28.421875 72.90625 
L 38.28125 72.90625 
L 38.28125 8.296875 
L 54.390625 8.296875 
L 54.390625 0 
L 12.40625 0 
z
" id="DejaVuSans-49"/>
      </defs>
      <g transform="translate(397.067425 322.182437)scale(0.1 -0.1)">
       <use xlink:href="#DejaVuSans-49"/>
       <use x="63.623047" xlink:href="#DejaVuSans-48"/>
       <use x="127.246094" xlink:href="#DejaVuSans-48"/>
       <use x="190.869141" xlink:href="#DejaVuSans-48"/>
      </g>
     </g>
    </g>
    <g id="text_8">
     <!-- cd4_count_most_recent -->
     <defs>
      <path d="M 48.78125 52.59375 
L 48.78125 44.1875 
Q 44.96875 46.296875 41.140625 47.34375 
Q 37.3125 48.390625 33.40625 48.390625 
Q 24.65625 48.390625 19.8125 42.84375 
Q 14.984375 37.3125 14.984375 27.296875 
Q 14.984375 17.28125 19.8125 11.734375 
Q 24.65625 6.203125 33.40625 6.203125 
Q 37.3125 6.203125 41.140625 7.25 
Q 44.96875 8.296875 48.78125 10.40625 
L 48.78125 2.09375 
Q 45.015625 0.34375 40.984375 -0.53125 
Q 36.96875 -1.421875 32.421875 -1.421875 
Q 20.0625 -1.421875 12.78125 6.34375 
Q 5.515625 14.109375 5.515625 27.296875 
Q 5.515625 40.671875 12.859375 48.328125 
Q 20.21875 56 33.015625 56 
Q 37.15625 56 41.109375 55.140625 
Q 45.0625 54.296875 48.78125 52.59375 
z
" id="DejaVuSans-99"/>
      <path d="M 45.40625 46.390625 
L 45.40625 75.984375 
L 54.390625 75.984375 
L 54.390625 0 
L 45.40625 0 
L 45.40625 8.203125 
Q 42.578125 3.328125 38.25 0.953125 
Q 33.9375 -1.421875 27.875 -1.421875 
Q 17.96875 -1.421875 11.734375 6.484375 
Q 5.515625 14.40625 5.515625 27.296875 
Q 5.515625 40.1875 11.734375 48.09375 
Q 17.96875 56 27.875 56 
Q 33.9375 56 38.25 53.625 
Q 42.578125 51.265625 45.40625 46.390625 
z
M 14.796875 27.296875 
Q 14.796875 17.390625 18.875 11.75 
Q 22.953125 6.109375 30.078125 6.109375 
Q 37.203125 6.109375 41.296875 11.75 
Q 45.40625 17.390625 45.40625 27.296875 
Q 45.40625 37.203125 41.296875 42.84375 
Q 37.203125 48.484375 30.078125 48.484375 
Q 22.953125 48.484375 18.875 42.84375 
Q 14.796875 37.203125 14.796875 27.296875 
z
" id="DejaVuSans-100"/>
      <path d="M 50.984375 -16.609375 
L 50.984375 -23.578125 
L -0.984375 -23.578125 
L -0.984375 -16.609375 
z
" id="DejaVuSans-95"/>
      <path d="M 30.609375 48.390625 
Q 23.390625 48.390625 19.1875 42.75 
Q 14.984375 37.109375 14.984375 27.296875 
Q 14.984375 17.484375 19.15625 11.84375 
Q 23.34375 6.203125 30.609375 6.203125 
Q 37.796875 6.203125 41.984375 11.859375 
Q 46.1875 17.53125 46.1875 27.296875 
Q 46.1875 37.015625 41.984375 42.703125 
Q 37.796875 48.390625 30.609375 48.390625 
z
M 30.609375 56 
Q 42.328125 56 49.015625 48.375 
Q 55.71875 40.765625 55.71875 27.296875 
Q 55.71875 13.875 49.015625 6.21875 
Q 42.328125 -1.421875 30.609375 -1.421875 
Q 18.84375 -1.421875 12.171875 6.21875 
Q 5.515625 13.875 5.515625 27.296875 
Q 5.515625 40.765625 12.171875 48.375 
Q 18.84375 56 30.609375 56 
z
" id="DejaVuSans-111"/>
      <path d="M 8.5 21.578125 
L 8.5 54.6875 
L 17.484375 54.6875 
L 17.484375 21.921875 
Q 17.484375 14.15625 20.5 10.265625 
Q 23.53125 6.390625 29.59375 6.390625 
Q 36.859375 6.390625 41.078125 11.03125 
Q 45.3125 15.671875 45.3125 23.6875 
L 45.3125 54.6875 
L 54.296875 54.6875 
L 54.296875 0 
L 45.3125 0 
L 45.3125 8.40625 
Q 42.046875 3.421875 37.71875 1 
Q 33.40625 -1.421875 27.6875 -1.421875 
Q 18.265625 -1.421875 13.375 4.4375 
Q 8.5 10.296875 8.5 21.578125 
z
M 31.109375 56 
z
" id="DejaVuSans-117"/>
      <path d="M 54.890625 33.015625 
L 54.890625 0 
L 45.90625 0 
L 45.90625 32.71875 
Q 45.90625 40.484375 42.875 44.328125 
Q 39.84375 48.1875 33.796875 48.1875 
Q 26.515625 48.1875 22.3125 43.546875 
Q 18.109375 38.921875 18.109375 30.90625 
L 18.109375 0 
L 9.078125 0 
L 9.078125 54.6875 
L 18.109375 54.6875 
L 18.109375 46.1875 
Q 21.34375 51.125 25.703125 53.5625 
Q 30.078125 56 35.796875 56 
Q 45.21875 56 50.046875 50.171875 
Q 54.890625 44.34375 54.890625 33.015625 
z
" id="DejaVuSans-110"/>
      <path d="M 18.3125 70.21875 
L 18.3125 54.6875 
L 36.8125 54.6875 
L 36.8125 47.703125 
L 18.3125 47.703125 
L 18.3125 18.015625 
Q 18.3125 11.328125 20.140625 9.421875 
Q 21.96875 7.515625 27.59375 7.515625 
L 36.8125 7.515625 
L 36.8125 0 
L 27.59375 0 
Q 17.1875 0 13.234375 3.875 
Q 9.28125 7.765625 9.28125 18.015625 
L 9.28125 47.703125 
L 2.6875 47.703125 
L 2.6875 54.6875 
L 9.28125 54.6875 
L 9.28125 70.21875 
z
" id="DejaVuSans-116"/>
      <path d="M 52 44.1875 
Q 55.375 50.25 60.0625 53.125 
Q 64.75 56 71.09375 56 
Q 79.640625 56 84.28125 50.015625 
Q 88.921875 44.046875 88.921875 33.015625 
L 88.921875 0 
L 79.890625 0 
L 79.890625 32.71875 
Q 79.890625 40.578125 77.09375 44.375 
Q 74.3125 48.1875 68.609375 48.1875 
Q 61.625 48.1875 57.5625 43.546875 
Q 53.515625 38.921875 53.515625 30.90625 
L 53.515625 0 
L 44.484375 0 
L 44.484375 32.71875 
Q 44.484375 40.625 41.703125 44.40625 
Q 38.921875 48.1875 33.109375 48.1875 
Q 26.21875 48.1875 22.15625 43.53125 
Q 18.109375 38.875 18.109375 30.90625 
L 18.109375 0 
L 9.078125 0 
L 9.078125 54.6875 
L 18.109375 54.6875 
L 18.109375 46.1875 
Q 21.1875 51.21875 25.484375 53.609375 
Q 29.78125 56 35.6875 56 
Q 41.65625 56 45.828125 52.96875 
Q 50 49.953125 52 44.1875 
z
" id="DejaVuSans-109"/>
      <path d="M 44.28125 53.078125 
L 44.28125 44.578125 
Q 40.484375 46.53125 36.375 47.5 
Q 32.28125 48.484375 27.875 48.484375 
Q 21.1875 48.484375 17.84375 46.4375 
Q 14.5 44.390625 14.5 40.28125 
Q 14.5 37.15625 16.890625 35.375 
Q 19.28125 33.59375 26.515625 31.984375 
L 29.59375 31.296875 
Q 39.15625 29.25 43.1875 25.515625 
Q 47.21875 21.78125 47.21875 15.09375 
Q 47.21875 7.46875 41.1875 3.015625 
Q 35.15625 -1.421875 24.609375 -1.421875 
Q 20.21875 -1.421875 15.453125 -0.5625 
Q 10.6875 0.296875 5.421875 2 
L 5.421875 11.28125 
Q 10.40625 8.6875 15.234375 7.390625 
Q 20.0625 6.109375 24.8125 6.109375 
Q 31.15625 6.109375 34.5625 8.28125 
Q 37.984375 10.453125 37.984375 14.40625 
Q 37.984375 18.0625 35.515625 20.015625 
Q 33.0625 21.96875 24.703125 23.78125 
L 21.578125 24.515625 
Q 13.234375 26.265625 9.515625 29.90625 
Q 5.8125 33.546875 5.8125 39.890625 
Q 5.8125 47.609375 11.28125 51.796875 
Q 16.75 56 26.8125 56 
Q 31.78125 56 36.171875 55.265625 
Q 40.578125 54.546875 44.28125 53.078125 
z
" id="DejaVuSans-115"/>
      <path d="M 41.109375 46.296875 
Q 39.59375 47.171875 37.8125 47.578125 
Q 36.03125 48 33.890625 48 
Q 26.265625 48 22.1875 43.046875 
Q 18.109375 38.09375 18.109375 28.8125 
L 18.109375 0 
L 9.078125 0 
L 9.078125 54.6875 
L 18.109375 54.6875 
L 18.109375 46.1875 
Q 20.953125 51.171875 25.484375 53.578125 
Q 30.03125 56 36.53125 56 
Q 37.453125 56 38.578125 55.875 
Q 39.703125 55.765625 41.0625 55.515625 
z
" id="DejaVuSans-114"/>
      <path d="M 56.203125 29.59375 
L 56.203125 25.203125 
L 14.890625 25.203125 
Q 15.484375 15.921875 20.484375 11.0625 
Q 25.484375 6.203125 34.421875 6.203125 
Q 39.59375 6.203125 44.453125 7.46875 
Q 49.3125 8.734375 54.109375 11.28125 
L 54.109375 2.78125 
Q 49.265625 0.734375 44.1875 -0.34375 
Q 39.109375 -1.421875 33.890625 -1.421875 
Q 20.796875 -1.421875 13.15625 6.1875 
Q 5.515625 13.8125 5.515625 26.8125 
Q 5.515625 40.234375 12.765625 48.109375 
Q 20.015625 56 32.328125 56 
Q 43.359375 56 49.78125 48.890625 
Q 56.203125 41.796875 56.203125 29.59375 
z
M 47.21875 32.234375 
Q 47.125 39.59375 43.09375 43.984375 
Q 39.0625 48.390625 32.421875 48.390625 
Q 24.90625 48.390625 20.390625 44.140625 
Q 15.875 39.890625 15.1875 32.171875 
z
" id="DejaVuSans-101"/>
     </defs>
     <g transform="translate(176.980312 335.860562)scale(0.1 -0.1)">
      <use xlink:href="#DejaVuSans-99"/>
      <use x="54.980469" xlink:href="#DejaVuSans-100"/>
      <use x="118.457031" xlink:href="#DejaVuSans-52"/>
      <use x="182.080078" xlink:href="#DejaVuSans-95"/>
      <use x="232.080078" xlink:href="#DejaVuSans-99"/>
      <use x="287.060547" xlink:href="#DejaVuSans-111"/>
      <use x="348.242188" xlink:href="#DejaVuSans-117"/>
      <use x="411.621094" xlink:href="#DejaVuSans-110"/>
      <use x="475" xlink:href="#DejaVuSans-116"/>
      <use x="514.208984" xlink:href="#DejaVuSans-95"/>
      <use x="564.208984" xlink:href="#DejaVuSans-109"/>
      <use x="661.621094" xlink:href="#DejaVuSans-111"/>
      <use x="722.802734" xlink:href="#DejaVuSans-115"/>
      <use x="774.902344" xlink:href="#DejaVuSans-116"/>
      <use x="814.111328" xlink:href="#DejaVuSans-95"/>
      <use x="864.111328" xlink:href="#DejaVuSans-114"/>
      <use x="902.974609" xlink:href="#DejaVuSans-101"/>
      <use x="964.498047" xlink:href="#DejaVuSans-99"/>
      <use x="1019.478516" xlink:href="#DejaVuSans-101"/>
      <use x="1081.001953" xlink:href="#DejaVuSans-110"/>
      <use x="1144.380859" xlink:href="#DejaVuSans-116"/>
     </g>
    </g>
   </g>
   <g id="matplotlib.axis_2">
    <g id="ytick_1">
     <g id="line2d_8">
      <defs>
       <path d="M 0 0 
L -3.5 0 
" id="m8aaa1396a8" style="stroke:#000000;stroke-width:0.8;"/>
      </defs>
      <g>
       <use style="stroke:#000000;stroke-width:0.8;" x="57.6" xlink:href="#m8aaa1396a8" y="174.528"/>
      </g>
     </g>
    </g>
   </g>
   <g id="line2d_9">
    <path clip-path="url(#p21bfa6ac4e)" d="M 189.025444 174.528 
L 229.579962 174.528 
" style="fill:none;stroke:#ffa500;stroke-linecap:square;stroke-width:1.5;"/>
   </g>
   <g id="line2d_10">
    <path clip-path="url(#p21bfa6ac4e)" d="M 200.842655 174.528 
L 229.579962 174.528 
" style="fill:none;stroke:#4c4c4c;stroke-linecap:square;stroke-width:4.5;"/>
   </g>
   <g id="line2d_11">
    <path clip-path="url(#p21bfa6ac4e)" d="M 145.785196 174.528 
L 326.534804 174.528 
" style="fill:none;stroke:#008000;stroke-linecap:square;stroke-width:1.5;"/>
   </g>
   <g id="line2d_12">
    <path clip-path="url(#p21bfa6ac4e)" d="M 195.202622 174.528 
L 248.111497 174.528 
" style="fill:none;stroke:#262626;stroke-linecap:square;stroke-width:4.5;"/>
   </g>
   <g id="patch_3">
    <path d="M 57.6 307.584 
L 57.6 41.472 
" style="fill:none;stroke:#000000;stroke-linecap:square;stroke-linejoin:miter;stroke-width:0.8;"/>
   </g>
   <g id="patch_4">
    <path d="M 414.72 307.584 
L 414.72 41.472 
" style="fill:none;stroke:#000000;stroke-linecap:square;stroke-linejoin:miter;stroke-width:0.8;"/>
   </g>
   <g id="patch_5">
    <path d="M 57.6 307.584 
L 414.72 307.584 
" style="fill:none;stroke:#000000;stroke-linecap:square;stroke-linejoin:miter;stroke-width:0.8;"/>
   </g>
   <g id="patch_6">
    <path d="M 57.6 41.472 
L 414.72 41.472 
" style="fill:none;stroke:#000000;stroke-linecap:square;stroke-linejoin:miter;stroke-width:0.8;"/>
   </g>
   <g id="PathCollection_1">
    <defs>
     <path d="M 0 1.5 
C 0.397805 1.5 0.77937 1.341951 1.06066 1.06066 
C 1.341951 0.77937 1.5 0.397805 1.5 0 
C 1.5 -0.397805 1.341951 -0.77937 1.06066 -1.06066 
C 0.77937 -1.341951 0.397805 -1.5 0 -1.5 
C -0.397805 -1.5 -0.77937 -1.341951 -1.06066 -1.06066 
C -1.341951 -0.77937 -1.5 -0.397805 -1.5 0 
C -1.5 0.397805 -1.341951 0.77937 -1.06066 1.06066 
C -0.77937 1.341951 -0.397805 1.5 0 1.5 
z
" id="m8d195d04b4" style="stroke:#4c4c4c;stroke-opacity:0.5;"/>
    </defs>
    <g clip-path="url(#p21bfa6ac4e)">
     <use style="fill:#ffffff;fill-opacity:0.5;stroke:#4c4c4c;stroke-opacity:0.5;" x="208.362698" xlink:href="#m8d195d04b4" y="174.528"/>
    </g>
   </g>
   <g id="PathCollection_2">
    <defs>
     <path d="M 0 1.5 
C 0.397805 1.5 0.77937 1.341951 1.06066 1.06066 
C 1.341951 0.77937 1.5 0.397805 1.5 0 
C 1.5 -0.397805 1.341951 -0.77937 1.06066 -1.06066 
C 0.77937 -1.341951 0.397805 -1.5 0 -1.5 
C -0.397805 -1.5 -0.77937 -1.341951 -1.06066 -1.06066 
C -1.341951 -0.77937 -1.5 -0.397805 -1.5 0 
C -1.5 0.397805 -1.341951 0.77937 -1.06066 1.06066 
C -0.77937 1.341951 -0.397805 1.5 0 1.5 
z
" id="m3a3d6a89ce" style="stroke:#262626;stroke-opacity:0.5;"/>
    </defs>
    <g clip-path="url(#p21bfa6ac4e)">
     <use style="fill:#ffffff;fill-opacity:0.5;stroke:#262626;stroke-opacity:0.5;" x="234.414276" xlink:href="#m3a3d6a89ce" y="174.528"/>
    </g>
   </g>
   <g id="text_9">
    <!-- Association of cd4_count_most_recent vs. sepsis -->
    <defs>
     <path d="M 34.1875 63.1875 
L 20.796875 26.90625 
L 47.609375 26.90625 
z
M 28.609375 72.90625 
L 39.796875 72.90625 
L 67.578125 0 
L 57.328125 0 
L 50.6875 18.703125 
L 17.828125 18.703125 
L 11.1875 0 
L 0.78125 0 
z
" id="DejaVuSans-65"/>
     <path d="M 9.421875 54.6875 
L 18.40625 54.6875 
L 18.40625 0 
L 9.421875 0 
z
M 9.421875 75.984375 
L 18.40625 75.984375 
L 18.40625 64.59375 
L 9.421875 64.59375 
z
" id="DejaVuSans-105"/>
     <path d="M 34.28125 27.484375 
Q 23.390625 27.484375 19.1875 25 
Q 14.984375 22.515625 14.984375 16.5 
Q 14.984375 11.71875 18.140625 8.90625 
Q 21.296875 6.109375 26.703125 6.109375 
Q 34.1875 6.109375 38.703125 11.40625 
Q 43.21875 16.703125 43.21875 25.484375 
L 43.21875 27.484375 
z
M 52.203125 31.203125 
L 52.203125 0 
L 43.21875 0 
L 43.21875 8.296875 
Q 40.140625 3.328125 35.546875 0.953125 
Q 30.953125 -1.421875 24.3125 -1.421875 
Q 15.921875 -1.421875 10.953125 3.296875 
Q 6 8.015625 6 15.921875 
Q 6 25.140625 12.171875 29.828125 
Q 18.359375 34.515625 30.609375 34.515625 
L 43.21875 34.515625 
L 43.21875 35.40625 
Q 43.21875 41.609375 39.140625 45 
Q 35.0625 48.390625 27.6875 48.390625 
Q 23 48.390625 18.546875 47.265625 
Q 14.109375 46.140625 10.015625 43.890625 
L 10.015625 52.203125 
Q 14.9375 54.109375 19.578125 55.046875 
Q 24.21875 56 28.609375 56 
Q 40.484375 56 46.34375 49.84375 
Q 52.203125 43.703125 52.203125 31.203125 
z
" id="DejaVuSans-97"/>
     <path id="DejaVuSans-32"/>
     <path d="M 37.109375 75.984375 
L 37.109375 68.5 
L 28.515625 68.5 
Q 23.6875 68.5 21.796875 66.546875 
Q 19.921875 64.59375 19.921875 59.515625 
L 19.921875 54.6875 
L 34.71875 54.6875 
L 34.71875 47.703125 
L 19.921875 47.703125 
L 19.921875 0 
L 10.890625 0 
L 10.890625 47.703125 
L 2.296875 47.703125 
L 2.296875 54.6875 
L 10.890625 54.6875 
L 10.890625 58.5 
Q 10.890625 67.625 15.140625 71.796875 
Q 19.390625 75.984375 28.609375 75.984375 
z
" id="DejaVuSans-102"/>
     <path d="M 2.984375 54.6875 
L 12.5 54.6875 
L 29.59375 8.796875 
L 46.6875 54.6875 
L 56.203125 54.6875 
L 35.6875 0 
L 23.484375 0 
z
" id="DejaVuSans-118"/>
     <path d="M 10.6875 12.40625 
L 21 12.40625 
L 21 0 
L 10.6875 0 
z
" id="DejaVuSans-46"/>
     <path d="M 18.109375 8.203125 
L 18.109375 -20.796875 
L 9.078125 -20.796875 
L 9.078125 54.6875 
L 18.109375 54.6875 
L 18.109375 46.390625 
Q 20.953125 51.265625 25.265625 53.625 
Q 29.59375 56 35.59375 56 
Q 45.5625 56 51.78125 48.09375 
Q 58.015625 40.1875 58.015625 27.296875 
Q 58.015625 14.40625 51.78125 6.484375 
Q 45.5625 -1.421875 35.59375 -1.421875 
Q 29.59375 -1.421875 25.265625 0.953125 
Q 20.953125 3.328125 18.109375 8.203125 
z
M 48.6875 27.296875 
Q 48.6875 37.203125 44.609375 42.84375 
Q 40.53125 48.484375 33.40625 48.484375 
Q 26.265625 48.484375 22.1875 42.84375 
Q 18.109375 37.203125 18.109375 27.296875 
Q 18.109375 17.390625 22.1875 11.75 
Q 26.265625 6.109375 33.40625 6.109375 
Q 40.53125 6.109375 44.609375 11.75 
Q 48.6875 17.390625 48.6875 27.296875 
z
" id="DejaVuSans-112"/>
    </defs>
    <g transform="translate(90.4425 35.472)scale(0.12 -0.12)">
     <use xlink:href="#DejaVuSans-65"/>
     <use x="68.408203" xlink:href="#DejaVuSans-115"/>
     <use x="120.507812" xlink:href="#DejaVuSans-115"/>
     <use x="172.607422" xlink:href="#DejaVuSans-111"/>
     <use x="233.789062" xlink:href="#DejaVuSans-99"/>
     <use x="288.769531" xlink:href="#DejaVuSans-105"/>
     <use x="316.552734" xlink:href="#DejaVuSans-97"/>
     <use x="377.832031" xlink:href="#DejaVuSans-116"/>
     <use x="417.041016" xlink:href="#DejaVuSans-105"/>
     <use x="444.824219" xlink:href="#DejaVuSans-111"/>
     <use x="506.005859" xlink:href="#DejaVuSans-110"/>
     <use x="569.384766" xlink:href="#DejaVuSans-32"/>
     <use x="601.171875" xlink:href="#DejaVuSans-111"/>
     <use x="662.353516" xlink:href="#DejaVuSans-102"/>
     <use x="697.558594" xlink:href="#DejaVuSans-32"/>
     <use x="729.345703" xlink:href="#DejaVuSans-99"/>
     <use x="784.326172" xlink:href="#DejaVuSans-100"/>
     <use x="847.802734" xlink:href="#DejaVuSans-52"/>
     <use x="911.425781" xlink:href="#DejaVuSans-95"/>
     <use x="961.425781" xlink:href="#DejaVuSans-99"/>
     <use x="1016.40625" xlink:href="#DejaVuSans-111"/>
     <use x="1077.587891" xlink:href="#DejaVuSans-117"/>
     <use x="1140.966797" xlink:href="#DejaVuSans-110"/>
     <use x="1204.345703" xlink:href="#DejaVuSans-116"/>
     <use x="1243.554688" xlink:href="#DejaVuSans-95"/>
     <use x="1293.554688" xlink:href="#DejaVuSans-109"/>
     <use x="1390.966797" xlink:href="#DejaVuSans-111"/>
     <use x="1452.148438" xlink:href="#DejaVuSans-115"/>
     <use x="1504.248047" xlink:href="#DejaVuSans-116"/>
     <use x="1543.457031" xlink:href="#DejaVuSans-95"/>
     <use x="1593.457031" xlink:href="#DejaVuSans-114"/>
     <use x="1632.320312" xlink:href="#DejaVuSans-101"/>
     <use x="1693.84375" xlink:href="#DejaVuSans-99"/>
     <use x="1748.824219" xlink:href="#DejaVuSans-101"/>
     <use x="1810.347656" xlink:href="#DejaVuSans-110"/>
     <use x="1873.726562" xlink:href="#DejaVuSans-116"/>
     <use x="1912.935547" xlink:href="#DejaVuSans-32"/>
     <use x="1944.722656" xlink:href="#DejaVuSans-118"/>
     <use x="2003.902344" xlink:href="#DejaVuSans-115"/>
     <use x="2056.001953" xlink:href="#DejaVuSans-46"/>
     <use x="2087.789062" xlink:href="#DejaVuSans-32"/>
     <use x="2119.576172" xlink:href="#DejaVuSans-115"/>
     <use x="2171.675781" xlink:href="#DejaVuSans-101"/>
     <use x="2233.199219" xlink:href="#DejaVuSans-112"/>
     <use x="2296.675781" xlink:href="#DejaVuSans-115"/>
     <use x="2348.775391" xlink:href="#DejaVuSans-105"/>
     <use x="2376.558594" xlink:href="#DejaVuSans-115"/>
    </g>
   </g>
   <g id="legend_1">
    <g id="patch_7">
     <path d="M 306.77 78.82825 
L 407.72 78.82825 
Q 409.72 78.82825 409.72 76.82825 
L 409.72 48.472 
Q 409.72 46.472 407.72 46.472 
L 306.77 46.472 
Q 304.77 46.472 304.77 48.472 
L 304.77 76.82825 
Q 304.77 78.82825 306.77 78.82825 
z
" style="fill:#ffffff;opacity:0.8;stroke:#cccccc;stroke-linejoin:miter;"/>
    </g>
    <g id="line2d_13">
     <path d="M 308.77 54.570437 
L 328.77 54.570437 
" style="fill:none;stroke:#ffa500;stroke-linecap:square;stroke-width:1.5;"/>
    </g>
    <g id="line2d_14"/>
    <g id="text_10">
     <!-- sepsis (9) -->
     <defs>
      <path d="M 31 75.875 
Q 24.46875 64.65625 21.28125 53.65625 
Q 18.109375 42.671875 18.109375 31.390625 
Q 18.109375 20.125 21.3125 9.0625 
Q 24.515625 -2 31 -13.1875 
L 23.1875 -13.1875 
Q 15.875 -1.703125 12.234375 9.375 
Q 8.59375 20.453125 8.59375 31.390625 
Q 8.59375 42.28125 12.203125 53.3125 
Q 15.828125 64.359375 23.1875 75.875 
z
" id="DejaVuSans-40"/>
      <path d="M 10.984375 1.515625 
L 10.984375 10.5 
Q 14.703125 8.734375 18.5 7.8125 
Q 22.3125 6.890625 25.984375 6.890625 
Q 35.75 6.890625 40.890625 13.453125 
Q 46.046875 20.015625 46.78125 33.40625 
Q 43.953125 29.203125 39.59375 26.953125 
Q 35.25 24.703125 29.984375 24.703125 
Q 19.046875 24.703125 12.671875 31.3125 
Q 6.296875 37.9375 6.296875 49.421875 
Q 6.296875 60.640625 12.9375 67.421875 
Q 19.578125 74.21875 30.609375 74.21875 
Q 43.265625 74.21875 49.921875 64.515625 
Q 56.59375 54.828125 56.59375 36.375 
Q 56.59375 19.140625 48.40625 8.859375 
Q 40.234375 -1.421875 26.421875 -1.421875 
Q 22.703125 -1.421875 18.890625 -0.6875 
Q 15.09375 0.046875 10.984375 1.515625 
z
M 30.609375 32.421875 
Q 37.25 32.421875 41.125 36.953125 
Q 45.015625 41.5 45.015625 49.421875 
Q 45.015625 57.28125 41.125 61.84375 
Q 37.25 66.40625 30.609375 66.40625 
Q 23.96875 66.40625 20.09375 61.84375 
Q 16.21875 57.28125 16.21875 49.421875 
Q 16.21875 41.5 20.09375 36.953125 
Q 23.96875 32.421875 30.609375 32.421875 
z
" id="DejaVuSans-57"/>
      <path d="M 8.015625 75.875 
L 15.828125 75.875 
Q 23.140625 64.359375 26.78125 53.3125 
Q 30.421875 42.28125 30.421875 31.390625 
Q 30.421875 20.453125 26.78125 9.375 
Q 23.140625 -1.703125 15.828125 -13.1875 
L 8.015625 -13.1875 
Q 14.5 -2 17.703125 9.0625 
Q 20.90625 20.125 20.90625 31.390625 
Q 20.90625 42.671875 17.703125 53.65625 
Q 14.5 64.65625 8.015625 75.875 
z
" id="DejaVuSans-41"/>
     </defs>
     <g transform="translate(336.77 58.070437)scale(0.1 -0.1)">
      <use xlink:href="#DejaVuSans-115"/>
      <use x="52.099609" xlink:href="#DejaVuSans-101"/>
      <use x="113.623047" xlink:href="#DejaVuSans-112"/>
      <use x="177.099609" xlink:href="#DejaVuSans-115"/>
      <use x="229.199219" xlink:href="#DejaVuSans-105"/>
      <use x="256.982422" xlink:href="#DejaVuSans-115"/>
      <use x="309.082031" xlink:href="#DejaVuSans-32"/>
      <use x="340.869141" xlink:href="#DejaVuSans-40"/>
      <use x="379.882812" xlink:href="#DejaVuSans-57"/>
      <use x="443.505859" xlink:href="#DejaVuSans-41"/>
     </g>
    </g>
    <g id="line2d_15">
     <path d="M 308.77 69.248562 
L 328.77 69.248562 
" style="fill:none;stroke:#008000;stroke-linecap:square;stroke-width:1.5;"/>
    </g>
    <g id="line2d_16"/>
    <g id="text_11">
     <!-- Not sepsis (9) -->
     <defs>
      <path d="M 9.8125 72.90625 
L 23.09375 72.90625 
L 55.421875 11.921875 
L 55.421875 72.90625 
L 64.984375 72.90625 
L 64.984375 0 
L 51.703125 0 
L 19.390625 60.984375 
L 19.390625 0 
L 9.8125 0 
z
" id="DejaVuSans-78"/>
     </defs>
     <g transform="translate(336.77 72.748562)scale(0.1 -0.1)">
      <use xlink:href="#DejaVuSans-78"/>
      <use x="74.804688" xlink:href="#DejaVuSans-111"/>
      <use x="135.986328" xlink:href="#DejaVuSans-116"/>
      <use x="175.195312" xlink:href="#DejaVuSans-32"/>
      <use x="206.982422" xlink:href="#DejaVuSans-115"/>
      <use x="259.082031" xlink:href="#DejaVuSans-101"/>
      <use x="320.605469" xlink:href="#DejaVuSans-112"/>
      <use x="384.082031" xlink:href="#DejaVuSans-115"/>
      <use x="436.181641" xlink:href="#DejaVuSans-105"/>
      <use x="463.964844" xlink:href="#DejaVuSans-115"/>
      <use x="516.064453" xlink:href="#DejaVuSans-32"/>
      <use x="547.851562" xlink:href="#DejaVuSans-40"/>
      <use x="586.865234" xlink:href="#DejaVuSans-57"/>
      <use x="650.488281" xlink:href="#DejaVuSans-41"/>
     </g>
    </g>
   </g>
  </g>
 </g>
 <defs>
  <clipPath id="p21bfa6ac4e">
   <rect height="266.112" width="357.12" x="57.6" y="41.472"/>
  </clipPath>
 </defs>
</svg>
