<?xml version="1.0" encoding="utf-8" standalone="no"?>
<!DOCTYPE svg PUBLIC "-//W3C//DTD SVG 1.1//EN"
  "http://www.w3.org/Graphics/SVG/1.1/DTD/svg11.dtd">
<!-- Created with matplotlib (https://matplotlib.org/) -->
<svg height="345.6pt" version="1.1" viewBox="0 0 460.8 345.6" width="460.8pt" xmlns="http://www.w3.org/2000/svg" xmlns:xlink="http://www.w3.org/1999/xlink">
 <defs>
  <style type="text/css">
*{stroke-linecap:butt;stroke-linejoin:round;}
  </style>
 </defs>
 <g id="figure_1">
  <g id="patch_1">
   <path d="M 0 345.6 
L 460.8 345.6 
L 460.8 0 
L 0 0 
z
" style="fill:#ffffff;"/>
  </g>
  <g id="axes_1">
   <g id="patch_2">
    <path d="M 57.6 307.584 
L 414.72 307.584 
L 414.72 41.472 
L 57.6 41.472 
z
" style="fill:#ffffff;"/>
   </g>
   <g id="PolyCollection_1">
    <defs>
     <path d="M 89.600448 -169.162487 
L 89.600448 -172.981513 
L 91.79808 -177.052021 
L 93.995712 -186.442084 
L 96.193344 -203.709164 
L 98.390975 -228.811295 
L 100.588607 -257.104209 
L 102.786239 -280.536006 
L 104.983871 -292.032 
L 107.181503 -289.430688 
L 109.379135 -275.766379 
L 111.576767 -256.560065 
L 113.774399 -236.871662 
L 115.972031 -219.758132 
L 118.169663 -206.236619 
L 120.367295 -196.12391 
L 122.564927 -188.843595 
L 124.762559 -183.723899 
L 126.960191 -180.077806 
L 129.157823 -177.385345 
L 131.355455 -175.429809 
L 133.553087 -174.197485 
L 135.750719 -173.645729 
L 137.948351 -173.555229 
L 140.145983 -173.586866 
L 142.343615 -173.492773 
L 144.541247 -173.256492 
L 146.738879 -172.994169 
L 148.936511 -172.756309 
L 151.134143 -172.485451 
L 153.331775 -172.135498 
L 155.529407 -171.753859 
L 157.727039 -171.433829 
L 159.924671 -171.228439 
L 162.122303 -171.126607 
L 164.319935 -171.087298 
L 166.517567 -171.075425 
L 168.715199 -171.072611 
L 170.912831 -171.072087 
L 173.110463 -171.07201 
L 175.308095 -171.072001 
L 177.505727 -171.072 
L 179.703359 -171.072 
L 181.900991 -171.072 
L 184.098623 -171.072 
L 186.296254 -171.072 
L 188.493886 -171.072 
L 190.691518 -171.072 
L 192.88915 -171.072 
L 195.086782 -171.072 
L 197.284414 -171.072 
L 199.482046 -171.072 
L 201.679678 -171.072 
L 203.87731 -171.072 
L 206.074942 -171.072 
L 208.272574 -171.072 
L 210.470206 -171.072 
L 212.667838 -171.072 
L 214.86547 -171.072 
L 217.063102 -171.072 
L 219.260734 -171.072 
L 221.458366 -171.072 
L 223.655998 -171.072 
L 225.85363 -171.072 
L 228.051262 -171.072 
L 230.248894 -171.072 
L 232.446526 -171.072 
L 234.644158 -171.072 
L 236.84179 -171.072 
L 239.039422 -171.072 
L 241.237054 -171.072 
L 243.434686 -171.072 
L 245.632318 -171.072 
L 247.82995 -171.072 
L 250.027582 -171.072 
L 252.225214 -171.072 
L 254.422846 -171.072 
L 256.620478 -171.072 
L 258.81811 -171.072 
L 261.015742 -171.072 
L 263.213374 -171.072 
L 265.411006 -171.072 
L 267.608638 -171.072 
L 269.80627 -171.072 
L 272.003901 -171.072 
L 274.201533 -171.072001 
L 276.399165 -171.072008 
L 278.596797 -171.072068 
L 280.794429 -171.072488 
L 282.992061 -171.074752 
L 285.189693 -171.084275 
L 287.387325 -171.115297 
L 289.584957 -171.192777 
L 291.782589 -171.338439 
L 293.980221 -171.536828 
L 296.177853 -171.713311 
L 298.375485 -171.771724 
L 300.573117 -171.675764 
L 302.770749 -171.483993 
L 304.968381 -171.294328 
L 307.166013 -171.166881 
L 307.166013 -170.977119 
L 307.166013 -170.977119 
L 304.968381 -170.849672 
L 302.770749 -170.660007 
L 300.573117 -170.468236 
L 298.375485 -170.372276 
L 296.177853 -170.430689 
L 293.980221 -170.607172 
L 291.782589 -170.805561 
L 289.584957 -170.951223 
L 287.387325 -171.028703 
L 285.189693 -171.059725 
L 282.992061 -171.069248 
L 280.794429 -171.071512 
L 278.596797 -171.071932 
L 276.399165 -171.071992 
L 274.201533 -171.071999 
L 272.003901 -171.072 
L 269.80627 -171.072 
L 267.608638 -171.072 
L 265.411006 -171.072 
L 263.213374 -171.072 
L 261.015742 -171.072 
L 258.81811 -171.072 
L 256.620478 -171.072 
L 254.422846 -171.072 
L 252.225214 -171.072 
L 250.027582 -171.072 
L 247.82995 -171.072 
L 245.632318 -171.072 
L 243.434686 -171.072 
L 241.237054 -171.072 
L 239.039422 -171.072 
L 236.84179 -171.072 
L 234.644158 -171.072 
L 232.446526 -171.072 
L 230.248894 -171.072 
L 228.051262 -171.072 
L 225.85363 -171.072 
L 223.655998 -171.072 
L 221.458366 -171.072 
L 219.260734 -171.072 
L 217.063102 -171.072 
L 214.86547 -171.072 
L 212.667838 -171.072 
L 210.470206 -171.072 
L 208.272574 -171.072 
L 206.074942 -171.072 
L 203.87731 -171.072 
L 201.679678 -171.072 
L 199.482046 -171.072 
L 197.284414 -171.072 
L 195.086782 -171.072 
L 192.88915 -171.072 
L 190.691518 -171.072 
L 188.493886 -171.072 
L 186.296254 -171.072 
L 184.098623 -171.072 
L 181.900991 -171.072 
L 179.703359 -171.072 
L 177.505727 -171.072 
L 175.308095 -171.071999 
L 173.110463 -171.07199 
L 170.912831 -171.071913 
L 168.715199 -171.071389 
L 166.517567 -171.068575 
L 164.319935 -171.056702 
L 162.122303 -171.017393 
L 159.924671 -170.915561 
L 157.727039 -170.710171 
L 155.529407 -170.390141 
L 153.331775 -170.008502 
L 151.134143 -169.658549 
L 148.936511 -169.387691 
L 146.738879 -169.149831 
L 144.541247 -168.887508 
L 142.343615 -168.651227 
L 140.145983 -168.557134 
L 137.948351 -168.588771 
L 135.750719 -168.498271 
L 133.553087 -167.946515 
L 131.355455 -166.714191 
L 129.157823 -164.758655 
L 126.960191 -162.066194 
L 124.762559 -158.420101 
L 122.564927 -153.300405 
L 120.367295 -146.02009 
L 118.169663 -135.907381 
L 115.972031 -122.385868 
L 113.774399 -105.272338 
L 111.576767 -85.583935 
L 109.379135 -66.377621 
L 107.181503 -52.713312 
L 104.983871 -50.112 
L 102.786239 -61.607994 
L 100.588607 -85.039791 
L 98.390975 -113.332705 
L 96.193344 -138.434836 
L 93.995712 -155.701916 
L 91.79808 -165.091979 
L 89.600448 -169.162487 
z
" id="m44449db10b" style="stroke:#4c4c4c;stroke-opacity:0.5;stroke-width:1.5;"/>
    </defs>
    <g clip-path="url(#p56e7c41df7)">
     <use style="fill:#df9c20;fill-opacity:0.5;stroke:#4c4c4c;stroke-opacity:0.5;stroke-width:1.5;" x="0" xlink:href="#m44449db10b" y="345.6"/>
    </g>
   </g>
   <g id="PolyCollection_2">
    <defs>
     <path d="M 73.832727 -166.34979 
L 73.832727 -175.79421 
L 77.112066 -180.083181 
L 80.391405 -187.051427 
L 83.670744 -197.416475 
L 86.950083 -211.474791 
L 90.229421 -228.751217 
L 93.50876 -247.784428 
L 96.788099 -266.214934 
L 100.067438 -281.2434 
L 103.346777 -290.352814 
L 106.626116 -292.032 
L 109.905455 -286.203721 
L 113.184793 -274.184205 
L 116.464132 -258.215685 
L 119.743471 -240.793987 
L 123.02281 -224.063134 
L 126.302149 -209.462895 
L 129.581488 -197.667362 
L 132.860826 -188.733134 
L 136.140165 -182.332319 
L 139.419504 -177.969432 
L 142.698843 -175.133189 
L 145.978182 -173.378741 
L 149.257521 -172.358212 
L 152.53686 -171.820695 
L 155.816198 -171.59717 
L 159.095537 -171.579149 
L 162.374876 -171.696002 
L 165.654215 -171.894756 
L 168.933554 -172.126106 
L 172.212893 -172.339463 
L 175.492231 -172.487265 
L 178.77157 -172.535016 
L 182.050909 -172.470872 
L 185.330248 -172.308828 
L 188.609587 -172.083135 
L 191.888926 -171.836306 
L 195.168264 -171.606171 
L 198.447603 -171.417182 
L 201.726942 -171.278238 
L 205.006281 -171.185932 
L 208.28562 -171.130193 
L 211.564959 -171.099483 
L 214.844298 -171.084 
L 218.123636 -171.076845 
L 221.402975 -171.073809 
L 224.682314 -171.072624 
L 227.961653 -171.072199 
L 231.240992 -171.072059 
L 234.520331 -171.072016 
L 237.799669 -171.072004 
L 241.079008 -171.072001 
L 244.358347 -171.072 
L 247.637686 -171.072 
L 250.917025 -171.072 
L 254.196364 -171.072 
L 257.475702 -171.072 
L 260.755041 -171.072 
L 264.03438 -171.072 
L 267.313719 -171.072 
L 270.593058 -171.072 
L 273.872397 -171.072 
L 277.151736 -171.072 
L 280.431074 -171.072 
L 283.710413 -171.072 
L 286.989752 -171.072 
L 290.269091 -171.072 
L 293.54843 -171.072 
L 296.827769 -171.072 
L 300.107107 -171.072 
L 303.386446 -171.072 
L 306.665785 -171.072 
L 309.945124 -171.072 
L 313.224463 -171.072001 
L 316.503802 -171.072005 
L 319.78314 -171.072021 
L 323.062479 -171.072077 
L 326.341818 -171.072256 
L 329.621157 -171.072788 
L 332.900496 -171.074246 
L 336.179835 -171.077916 
L 339.459174 -171.086411 
L 342.738512 -171.104457 
L 346.017851 -171.139589 
L 349.29719 -171.202134 
L 352.576529 -171.303668 
L 355.855868 -171.453322 
L 359.135207 -171.652327 
L 362.414545 -171.888596 
L 365.693884 -172.134418 
L 368.973223 -172.350021 
L 372.252562 -172.493458 
L 375.531901 -172.533787 
L 378.81124 -172.461915 
L 382.090579 -172.293929 
L 385.369917 -172.065248 
L 388.649256 -171.818489 
L 391.928595 -171.590732 
L 395.207934 -171.405286 
L 398.487273 -171.26999 
L 398.487273 -170.87401 
L 398.487273 -170.87401 
L 395.207934 -170.738714 
L 391.928595 -170.553268 
L 388.649256 -170.325511 
L 385.369917 -170.078752 
L 382.090579 -169.850071 
L 378.81124 -169.682085 
L 375.531901 -169.610213 
L 372.252562 -169.650542 
L 368.973223 -169.793979 
L 365.693884 -170.009582 
L 362.414545 -170.255404 
L 359.135207 -170.491673 
L 355.855868 -170.690678 
L 352.576529 -170.840332 
L 349.29719 -170.941866 
L 346.017851 -171.004411 
L 342.738512 -171.039543 
L 339.459174 -171.057589 
L 336.179835 -171.066084 
L 332.900496 -171.069754 
L 329.621157 -171.071212 
L 326.341818 -171.071744 
L 323.062479 -171.071923 
L 319.78314 -171.071979 
L 316.503802 -171.071995 
L 313.224463 -171.071999 
L 309.945124 -171.072 
L 306.665785 -171.072 
L 303.386446 -171.072 
L 300.107107 -171.072 
L 296.827769 -171.072 
L 293.54843 -171.072 
L 290.269091 -171.072 
L 286.989752 -171.072 
L 283.710413 -171.072 
L 280.431074 -171.072 
L 277.151736 -171.072 
L 273.872397 -171.072 
L 270.593058 -171.072 
L 267.313719 -171.072 
L 264.03438 -171.072 
L 260.755041 -171.072 
L 257.475702 -171.072 
L 254.196364 -171.072 
L 250.917025 -171.072 
L 247.637686 -171.072 
L 244.358347 -171.072 
L 241.079008 -171.071999 
L 237.799669 -171.071996 
L 234.520331 -171.071984 
L 231.240992 -171.071941 
L 227.961653 -171.071801 
L 224.682314 -171.071376 
L 221.402975 -171.070191 
L 218.123636 -171.067155 
L 214.844298 -171.06 
L 211.564959 -171.044517 
L 208.28562 -171.013807 
L 205.006281 -170.958068 
L 201.726942 -170.865762 
L 198.447603 -170.726818 
L 195.168264 -170.537829 
L 191.888926 -170.307694 
L 188.609587 -170.060865 
L 185.330248 -169.835172 
L 182.050909 -169.673128 
L 178.77157 -169.608984 
L 175.492231 -169.656735 
L 172.212893 -169.804537 
L 168.933554 -170.017894 
L 165.654215 -170.249244 
L 162.374876 -170.447998 
L 159.095537 -170.564851 
L 155.816198 -170.54683 
L 152.53686 -170.323305 
L 149.257521 -169.785788 
L 145.978182 -168.765259 
L 142.698843 -167.010811 
L 139.419504 -164.174568 
L 136.140165 -159.811681 
L 132.860826 -153.410866 
L 129.581488 -144.476638 
L 126.302149 -132.681105 
L 123.02281 -118.080866 
L 119.743471 -101.350013 
L 116.464132 -83.928315 
L 113.184793 -67.959795 
L 109.905455 -55.940279 
L 106.626116 -50.112 
L 103.346777 -51.791186 
L 100.067438 -60.9006 
L 96.788099 -75.929066 
L 93.50876 -94.359572 
L 90.229421 -113.392783 
L 86.950083 -130.669209 
L 83.670744 -144.727525 
L 80.391405 -155.092573 
L 77.112066 -162.060819 
L 73.832727 -166.34979 
z
" id="m82f5fed9f7" style="stroke:#262626;stroke-opacity:0.5;stroke-width:1.5;"/>
    </defs>
    <g clip-path="url(#p56e7c41df7)">
     <use style="fill:#107010;fill-opacity:0.5;stroke:#262626;stroke-opacity:0.5;stroke-width:1.5;" x="0" xlink:href="#m82f5fed9f7" y="345.6"/>
    </g>
   </g>
   <g id="matplotlib.axis_1">
    <g id="xtick_1">
     <g id="line2d_1">
      <defs>
       <path d="M 0 0 
L 0 3.5 
" id="me7c48b1b1a" style="stroke:#000000;stroke-width:0.8;"/>
      </defs>
      <g>
       <use style="stroke:#000000;stroke-width:0.8;" x="94.2569" xlink:href="#me7c48b1b1a" y="307.584"/>
      </g>
     </g>
     <g id="text_1">
      <!-- 0 -->
      <defs>
       <path d="M 31.78125 66.40625 
Q 24.171875 66.40625 20.328125 58.90625 
Q 16.5 51.421875 16.5 36.375 
Q 16.5 21.390625 20.328125 13.890625 
Q 24.171875 6.390625 31.78125 6.390625 
Q 39.453125 6.390625 43.28125 13.890625 
Q 47.125 21.390625 47.125 36.375 
Q 47.125 51.421875 43.28125 58.90625 
Q 39.453125 66.40625 31.78125 66.40625 
z
M 31.78125 74.21875 
Q 44.046875 74.21875 50.515625 64.515625 
Q 56.984375 54.828125 56.984375 36.375 
Q 56.984375 17.96875 50.515625 8.265625 
Q 44.046875 -1.421875 31.78125 -1.421875 
Q 19.53125 -1.421875 13.0625 8.265625 
Q 6.59375 17.96875 6.59375 36.375 
Q 6.59375 54.828125 13.0625 64.515625 
Q 19.53125 74.21875 31.78125 74.21875 
z
" id="DejaVuSans-48"/>
      </defs>
      <g transform="translate(91.07565 322.182437)scale(0.1 -0.1)">
       <use xlink:href="#DejaVuSans-48"/>
      </g>
     </g>
    </g>
    <g id="xtick_2">
     <g id="line2d_2">
      <g>
       <use style="stroke:#000000;stroke-width:0.8;" x="161.685315" xlink:href="#me7c48b1b1a" y="307.584"/>
      </g>
     </g>
     <g id="text_2">
      <!-- 2000 -->
      <defs>
       <path d="M 19.1875 8.296875 
L 53.609375 8.296875 
L 53.609375 0 
L 7.328125 0 
L 7.328125 8.296875 
Q 12.9375 14.109375 22.625 23.890625 
Q 32.328125 33.6875 34.8125 36.53125 
Q 39.546875 41.84375 41.421875 45.53125 
Q 43.3125 49.21875 43.3125 52.78125 
Q 43.3125 58.59375 39.234375 62.25 
Q 35.15625 65.921875 28.609375 65.921875 
Q 23.96875 65.921875 18.8125 64.3125 
Q 13.671875 62.703125 7.8125 59.421875 
L 7.8125 69.390625 
Q 13.765625 71.78125 18.9375 73 
Q 24.125 74.21875 28.421875 74.21875 
Q 39.75 74.21875 46.484375 68.546875 
Q 53.21875 62.890625 53.21875 53.421875 
Q 53.21875 48.921875 51.53125 44.890625 
Q 49.859375 40.875 45.40625 35.40625 
Q 44.1875 33.984375 37.640625 27.21875 
Q 31.109375 20.453125 19.1875 8.296875 
z
" id="DejaVuSans-50"/>
      </defs>
      <g transform="translate(148.960315 322.182437)scale(0.1 -0.1)">
       <use xlink:href="#DejaVuSans-50"/>
       <use x="63.623047" xlink:href="#DejaVuSans-48"/>
       <use x="127.246094" xlink:href="#DejaVuSans-48"/>
       <use x="190.869141" xlink:href="#DejaVuSans-48"/>
      </g>
     </g>
    </g>
    <g id="xtick_3">
     <g id="line2d_3">
      <g>
       <use style="stroke:#000000;stroke-width:0.8;" x="229.113731" xlink:href="#me7c48b1b1a" y="307.584"/>
      </g>
     </g>
     <g id="text_3">
      <!-- 4000 -->
      <defs>
       <path d="M 37.796875 64.3125 
L 12.890625 25.390625 
L 37.796875 25.390625 
z
M 35.203125 72.90625 
L 47.609375 72.90625 
L 47.609375 25.390625 
L 58.015625 25.390625 
L 58.015625 17.1875 
L 47.609375 17.1875 
L 47.609375 0 
L 37.796875 0 
L 37.796875 17.1875 
L 4.890625 17.1875 
L 4.890625 26.703125 
z
" id="DejaVuSans-52"/>
      </defs>
      <g transform="translate(216.388731 322.182437)scale(0.1 -0.1)">
       <use xlink:href="#DejaVuSans-52"/>
       <use x="63.623047" xlink:href="#DejaVuSans-48"/>
       <use x="127.246094" xlink:href="#DejaVuSans-48"/>
       <use x="190.869141" xlink:href="#DejaVuSans-48"/>
      </g>
     </g>
    </g>
    <g id="xtick_4">
     <g id="line2d_4">
      <g>
       <use style="stroke:#000000;stroke-width:0.8;" x="296.542146" xlink:href="#me7c48b1b1a" y="307.584"/>
      </g>
     </g>
     <g id="text_4">
      <!-- 6000 -->
      <defs>
       <path d="M 33.015625 40.375 
Q 26.375 40.375 22.484375 35.828125 
Q 18.609375 31.296875 18.609375 23.390625 
Q 18.609375 15.53125 22.484375 10.953125 
Q 26.375 6.390625 33.015625 6.390625 
Q 39.65625 6.390625 43.53125 10.953125 
Q 47.40625 15.53125 47.40625 23.390625 
Q 47.40625 31.296875 43.53125 35.828125 
Q 39.65625 40.375 33.015625 40.375 
z
M 52.59375 71.296875 
L 52.59375 62.3125 
Q 48.875 64.0625 45.09375 64.984375 
Q 41.3125 65.921875 37.59375 65.921875 
Q 27.828125 65.921875 22.671875 59.328125 
Q 17.53125 52.734375 16.796875 39.40625 
Q 19.671875 43.65625 24.015625 45.921875 
Q 28.375 48.1875 33.59375 48.1875 
Q 44.578125 48.1875 50.953125 41.515625 
Q 57.328125 34.859375 57.328125 23.390625 
Q 57.328125 12.15625 50.6875 5.359375 
Q 44.046875 -1.421875 33.015625 -1.421875 
Q 20.359375 -1.421875 13.671875 8.265625 
Q 6.984375 17.96875 6.984375 36.375 
Q 6.984375 53.65625 15.1875 63.9375 
Q 23.390625 74.21875 37.203125 74.21875 
Q 40.921875 74.21875 44.703125 73.484375 
Q 48.484375 72.75 52.59375 71.296875 
z
" id="DejaVuSans-54"/>
      </defs>
      <g transform="translate(283.817146 322.182437)scale(0.1 -0.1)">
       <use xlink:href="#DejaVuSans-54"/>
       <use x="63.623047" xlink:href="#DejaVuSans-48"/>
       <use x="127.246094" xlink:href="#DejaVuSans-48"/>
       <use x="190.869141" xlink:href="#DejaVuSans-48"/>
      </g>
     </g>
    </g>
    <g id="xtick_5">
     <g id="line2d_5">
      <g>
       <use style="stroke:#000000;stroke-width:0.8;" x="363.970561" xlink:href="#me7c48b1b1a" y="307.584"/>
      </g>
     </g>
     <g id="text_5">
      <!-- 8000 -->
      <defs>
       <path d="M 31.78125 34.625 
Q 24.75 34.625 20.71875 30.859375 
Q 16.703125 27.09375 16.703125 20.515625 
Q 16.703125 13.921875 20.71875 10.15625 
Q 24.75 6.390625 31.78125 6.390625 
Q 38.8125 6.390625 42.859375 10.171875 
Q 46.921875 13.96875 46.921875 20.515625 
Q 46.921875 27.09375 42.890625 30.859375 
Q 38.875 34.625 31.78125 34.625 
z
M 21.921875 38.8125 
Q 15.578125 40.375 12.03125 44.71875 
Q 8.5 49.078125 8.5 55.328125 
Q 8.5 64.0625 14.71875 69.140625 
Q 20.953125 74.21875 31.78125 74.21875 
Q 42.671875 74.21875 48.875 69.140625 
Q 55.078125 64.0625 55.078125 55.328125 
Q 55.078125 49.078125 51.53125 44.71875 
Q 48 40.375 41.703125 38.8125 
Q 48.828125 37.15625 52.796875 32.3125 
Q 56.78125 27.484375 56.78125 20.515625 
Q 56.78125 9.90625 50.3125 4.234375 
Q 43.84375 -1.421875 31.78125 -1.421875 
Q 19.734375 -1.421875 13.25 4.234375 
Q 6.78125 9.90625 6.78125 20.515625 
Q 6.78125 27.484375 10.78125 32.3125 
Q 14.796875 37.15625 21.921875 38.8125 
z
M 18.3125 54.390625 
Q 18.3125 48.734375 21.84375 45.5625 
Q 25.390625 42.390625 31.78125 42.390625 
Q 38.140625 42.390625 41.71875 45.5625 
Q 45.3125 48.734375 45.3125 54.390625 
Q 45.3125 60.0625 41.71875 63.234375 
Q 38.140625 66.40625 31.78125 66.40625 
Q 25.390625 66.40625 21.84375 63.234375 
Q 18.3125 60.0625 18.3125 54.390625 
z
" id="DejaVuSans-56"/>
      </defs>
      <g transform="translate(351.245561 322.182437)scale(0.1 -0.1)">
       <use xlink:href="#DejaVuSans-56"/>
       <use x="63.623047" xlink:href="#DejaVuSans-48"/>
       <use x="127.246094" xlink:href="#DejaVuSans-48"/>
       <use x="190.869141" xlink:href="#DejaVuSans-48"/>
      </g>
     </g>
    </g>
    <g id="text_6">
     <!-- ldhadmac -->
     <defs>
      <path d="M 9.421875 75.984375 
L 18.40625 75.984375 
L 18.40625 0 
L 9.421875 0 
z
" id="DejaVuSans-108"/>
      <path d="M 45.40625 46.390625 
L 45.40625 75.984375 
L 54.390625 75.984375 
L 54.390625 0 
L 45.40625 0 
L 45.40625 8.203125 
Q 42.578125 3.328125 38.25 0.953125 
Q 33.9375 -1.421875 27.875 -1.421875 
Q 17.96875 -1.421875 11.734375 6.484375 
Q 5.515625 14.40625 5.515625 27.296875 
Q 5.515625 40.1875 11.734375 48.09375 
Q 17.96875 56 27.875 56 
Q 33.9375 56 38.25 53.625 
Q 42.578125 51.265625 45.40625 46.390625 
z
M 14.796875 27.296875 
Q 14.796875 17.390625 18.875 11.75 
Q 22.953125 6.109375 30.078125 6.109375 
Q 37.203125 6.109375 41.296875 11.75 
Q 45.40625 17.390625 45.40625 27.296875 
Q 45.40625 37.203125 41.296875 42.84375 
Q 37.203125 48.484375 30.078125 48.484375 
Q 22.953125 48.484375 18.875 42.84375 
Q 14.796875 37.203125 14.796875 27.296875 
z
" id="DejaVuSans-100"/>
      <path d="M 54.890625 33.015625 
L 54.890625 0 
L 45.90625 0 
L 45.90625 32.71875 
Q 45.90625 40.484375 42.875 44.328125 
Q 39.84375 48.1875 33.796875 48.1875 
Q 26.515625 48.1875 22.3125 43.546875 
Q 18.109375 38.921875 18.109375 30.90625 
L 18.109375 0 
L 9.078125 0 
L 9.078125 75.984375 
L 18.109375 75.984375 
L 18.109375 46.1875 
Q 21.34375 51.125 25.703125 53.5625 
Q 30.078125 56 35.796875 56 
Q 45.21875 56 50.046875 50.171875 
Q 54.890625 44.34375 54.890625 33.015625 
z
" id="DejaVuSans-104"/>
      <path d="M 34.28125 27.484375 
Q 23.390625 27.484375 19.1875 25 
Q 14.984375 22.515625 14.984375 16.5 
Q 14.984375 11.71875 18.140625 8.90625 
Q 21.296875 6.109375 26.703125 6.109375 
Q 34.1875 6.109375 38.703125 11.40625 
Q 43.21875 16.703125 43.21875 25.484375 
L 43.21875 27.484375 
z
M 52.203125 31.203125 
L 52.203125 0 
L 43.21875 0 
L 43.21875 8.296875 
Q 40.140625 3.328125 35.546875 0.953125 
Q 30.953125 -1.421875 24.3125 -1.421875 
Q 15.921875 -1.421875 10.953125 3.296875 
Q 6 8.015625 6 15.921875 
Q 6 25.140625 12.171875 29.828125 
Q 18.359375 34.515625 30.609375 34.515625 
L 43.21875 34.515625 
L 43.21875 35.40625 
Q 43.21875 41.609375 39.140625 45 
Q 35.0625 48.390625 27.6875 48.390625 
Q 23 48.390625 18.546875 47.265625 
Q 14.109375 46.140625 10.015625 43.890625 
L 10.015625 52.203125 
Q 14.9375 54.109375 19.578125 55.046875 
Q 24.21875 56 28.609375 56 
Q 40.484375 56 46.34375 49.84375 
Q 52.203125 43.703125 52.203125 31.203125 
z
" id="DejaVuSans-97"/>
      <path d="M 52 44.1875 
Q 55.375 50.25 60.0625 53.125 
Q 64.75 56 71.09375 56 
Q 79.640625 56 84.28125 50.015625 
Q 88.921875 44.046875 88.921875 33.015625 
L 88.921875 0 
L 79.890625 0 
L 79.890625 32.71875 
Q 79.890625 40.578125 77.09375 44.375 
Q 74.3125 48.1875 68.609375 48.1875 
Q 61.625 48.1875 57.5625 43.546875 
Q 53.515625 38.921875 53.515625 30.90625 
L 53.515625 0 
L 44.484375 0 
L 44.484375 32.71875 
Q 44.484375 40.625 41.703125 44.40625 
Q 38.921875 48.1875 33.109375 48.1875 
Q 26.21875 48.1875 22.15625 43.53125 
Q 18.109375 38.875 18.109375 30.90625 
L 18.109375 0 
L 9.078125 0 
L 9.078125 54.6875 
L 18.109375 54.6875 
L 18.109375 46.1875 
Q 21.1875 51.21875 25.484375 53.609375 
Q 29.78125 56 35.6875 56 
Q 41.65625 56 45.828125 52.96875 
Q 50 49.953125 52 44.1875 
z
" id="DejaVuSans-109"/>
      <path d="M 48.78125 52.59375 
L 48.78125 44.1875 
Q 44.96875 46.296875 41.140625 47.34375 
Q 37.3125 48.390625 33.40625 48.390625 
Q 24.65625 48.390625 19.8125 42.84375 
Q 14.984375 37.3125 14.984375 27.296875 
Q 14.984375 17.28125 19.8125 11.734375 
Q 24.65625 6.203125 33.40625 6.203125 
Q 37.3125 6.203125 41.140625 7.25 
Q 44.96875 8.296875 48.78125 10.40625 
L 48.78125 2.09375 
Q 45.015625 0.34375 40.984375 -0.53125 
Q 36.96875 -1.421875 32.421875 -1.421875 
Q 20.0625 -1.421875 12.78125 6.34375 
Q 5.515625 14.109375 5.515625 27.296875 
Q 5.515625 40.671875 12.859375 48.328125 
Q 20.21875 56 33.015625 56 
Q 37.15625 56 41.109375 55.140625 
Q 45.0625 54.296875 48.78125 52.59375 
z
" id="DejaVuSans-99"/>
     </defs>
     <g transform="translate(211.506094 335.860562)scale(0.1 -0.1)">
      <use xlink:href="#DejaVuSans-108"/>
      <use x="27.783203" xlink:href="#DejaVuSans-100"/>
      <use x="91.259766" xlink:href="#DejaVuSans-104"/>
      <use x="154.638672" xlink:href="#DejaVuSans-97"/>
      <use x="215.917969" xlink:href="#DejaVuSans-100"/>
      <use x="279.394531" xlink:href="#DejaVuSans-109"/>
      <use x="376.806641" xlink:href="#DejaVuSans-97"/>
      <use x="438.085938" xlink:href="#DejaVuSans-99"/>
     </g>
    </g>
   </g>
   <g id="matplotlib.axis_2">
    <g id="ytick_1">
     <g id="line2d_6">
      <defs>
       <path d="M 0 0 
L -3.5 0 
" id="m6278d25877" style="stroke:#000000;stroke-width:0.8;"/>
      </defs>
      <g>
       <use style="stroke:#000000;stroke-width:0.8;" x="57.6" xlink:href="#m6278d25877" y="174.528"/>
      </g>
     </g>
    </g>
   </g>
   <g id="line2d_7">
    <path clip-path="url(#p56e7c41df7)" d="M 98.673461 174.528 
L 122.711691 174.528 
" style="fill:none;stroke:#ffa500;stroke-linecap:square;stroke-width:1.5;"/>
   </g>
   <g id="line2d_8">
    <path clip-path="url(#p56e7c41df7)" d="M 103.460879 174.528 
L 111.383718 174.528 
" style="fill:none;stroke:#4c4c4c;stroke-linecap:square;stroke-width:4.5;"/>
   </g>
   <g id="line2d_9">
    <path clip-path="url(#p56e7c41df7)" d="M 97.257465 174.528 
L 120.655125 174.528 
" style="fill:none;stroke:#008000;stroke-linecap:square;stroke-width:1.5;"/>
   </g>
   <g id="line2d_10">
    <path clip-path="url(#p56e7c41df7)" d="M 102.11231 174.528 
L 109.849721 174.528 
" style="fill:none;stroke:#262626;stroke-linecap:square;stroke-width:4.5;"/>
   </g>
   <g id="patch_3">
    <path d="M 57.6 307.584 
L 57.6 41.472 
" style="fill:none;stroke:#000000;stroke-linecap:square;stroke-linejoin:miter;stroke-width:0.8;"/>
   </g>
   <g id="patch_4">
    <path d="M 414.72 307.584 
L 414.72 41.472 
" style="fill:none;stroke:#000000;stroke-linecap:square;stroke-linejoin:miter;stroke-width:0.8;"/>
   </g>
   <g id="patch_5">
    <path d="M 57.6 307.584 
L 414.72 307.584 
" style="fill:none;stroke:#000000;stroke-linecap:square;stroke-linejoin:miter;stroke-width:0.8;"/>
   </g>
   <g id="patch_6">
    <path d="M 57.6 41.472 
L 414.72 41.472 
" style="fill:none;stroke:#000000;stroke-linecap:square;stroke-linejoin:miter;stroke-width:0.8;"/>
   </g>
   <g id="PathCollection_1">
    <defs>
     <path d="M 0 1.5 
C 0.397805 1.5 0.77937 1.341951 1.06066 1.06066 
C 1.341951 0.77937 1.5 0.397805 1.5 0 
C 1.5 -0.397805 1.341951 -0.77937 1.06066 -1.06066 
C 0.77937 -1.341951 0.397805 -1.5 0 -1.5 
C -0.397805 -1.5 -0.77937 -1.341951 -1.06066 -1.06066 
C -1.341951 -0.77937 -1.5 -0.397805 -1.5 0 
C -1.5 0.397805 -1.341951 0.77937 -1.06066 1.06066 
C -0.77937 1.341951 -0.397805 1.5 0 1.5 
z
" id="m09f0339790" style="stroke:#4c4c4c;stroke-opacity:0.5;"/>
    </defs>
    <g clip-path="url(#p56e7c41df7)">
     <use style="fill:#ffffff;fill-opacity:0.5;stroke:#4c4c4c;stroke-opacity:0.5;" x="106.630014" xlink:href="#m09f0339790" y="174.528"/>
    </g>
   </g>
   <g id="PathCollection_2">
    <defs>
     <path d="M 0 1.5 
C 0.397805 1.5 0.77937 1.341951 1.06066 1.06066 
C 1.341951 0.77937 1.5 0.397805 1.5 0 
C 1.5 -0.397805 1.341951 -0.77937 1.06066 -1.06066 
C 0.77937 -1.341951 0.397805 -1.5 0 -1.5 
C -0.397805 -1.5 -0.77937 -1.341951 -1.06066 -1.06066 
C -1.341951 -0.77937 -1.5 -0.397805 -1.5 0 
C -1.5 0.397805 -1.341951 0.77937 -1.06066 1.06066 
C -0.77937 1.341951 -0.397805 1.5 0 1.5 
z
" id="mbc042e2535" style="stroke:#262626;stroke-opacity:0.5;"/>
    </defs>
    <g clip-path="url(#p56e7c41df7)">
     <use style="fill:#ffffff;fill-opacity:0.5;stroke:#262626;stroke-opacity:0.5;" x="105.214018" xlink:href="#mbc042e2535" y="174.528"/>
    </g>
   </g>
   <g id="text_7">
    <!-- Association of ldhadmac vs. nasal_cannula -->
    <defs>
     <path d="M 34.1875 63.1875 
L 20.796875 26.90625 
L 47.609375 26.90625 
z
M 28.609375 72.90625 
L 39.796875 72.90625 
L 67.578125 0 
L 57.328125 0 
L 50.6875 18.703125 
L 17.828125 18.703125 
L 11.1875 0 
L 0.78125 0 
z
" id="DejaVuSans-65"/>
     <path d="M 44.28125 53.078125 
L 44.28125 44.578125 
Q 40.484375 46.53125 36.375 47.5 
Q 32.28125 48.484375 27.875 48.484375 
Q 21.1875 48.484375 17.84375 46.4375 
Q 14.5 44.390625 14.5 40.28125 
Q 14.5 37.15625 16.890625 35.375 
Q 19.28125 33.59375 26.515625 31.984375 
L 29.59375 31.296875 
Q 39.15625 29.25 43.1875 25.515625 
Q 47.21875 21.78125 47.21875 15.09375 
Q 47.21875 7.46875 41.1875 3.015625 
Q 35.15625 -1.421875 24.609375 -1.421875 
Q 20.21875 -1.421875 15.453125 -0.5625 
Q 10.6875 0.296875 5.421875 2 
L 5.421875 11.28125 
Q 10.40625 8.6875 15.234375 7.390625 
Q 20.0625 6.109375 24.8125 6.109375 
Q 31.15625 6.109375 34.5625 8.28125 
Q 37.984375 10.453125 37.984375 14.40625 
Q 37.984375 18.0625 35.515625 20.015625 
Q 33.0625 21.96875 24.703125 23.78125 
L 21.578125 24.515625 
Q 13.234375 26.265625 9.515625 29.90625 
Q 5.8125 33.546875 5.8125 39.890625 
Q 5.8125 47.609375 11.28125 51.796875 
Q 16.75 56 26.8125 56 
Q 31.78125 56 36.171875 55.265625 
Q 40.578125 54.546875 44.28125 53.078125 
z
" id="DejaVuSans-115"/>
     <path d="M 30.609375 48.390625 
Q 23.390625 48.390625 19.1875 42.75 
Q 14.984375 37.109375 14.984375 27.296875 
Q 14.984375 17.484375 19.15625 11.84375 
Q 23.34375 6.203125 30.609375 6.203125 
Q 37.796875 6.203125 41.984375 11.859375 
Q 46.1875 17.53125 46.1875 27.296875 
Q 46.1875 37.015625 41.984375 42.703125 
Q 37.796875 48.390625 30.609375 48.390625 
z
M 30.609375 56 
Q 42.328125 56 49.015625 48.375 
Q 55.71875 40.765625 55.71875 27.296875 
Q 55.71875 13.875 49.015625 6.21875 
Q 42.328125 -1.421875 30.609375 -1.421875 
Q 18.84375 -1.421875 12.171875 6.21875 
Q 5.515625 13.875 5.515625 27.296875 
Q 5.515625 40.765625 12.171875 48.375 
Q 18.84375 56 30.609375 56 
z
" id="DejaVuSans-111"/>
     <path d="M 9.421875 54.6875 
L 18.40625 54.6875 
L 18.40625 0 
L 9.421875 0 
z
M 9.421875 75.984375 
L 18.40625 75.984375 
L 18.40625 64.59375 
L 9.421875 64.59375 
z
" id="DejaVuSans-105"/>
     <path d="M 18.3125 70.21875 
L 18.3125 54.6875 
L 36.8125 54.6875 
L 36.8125 47.703125 
L 18.3125 47.703125 
L 18.3125 18.015625 
Q 18.3125 11.328125 20.140625 9.421875 
Q 21.96875 7.515625 27.59375 7.515625 
L 36.8125 7.515625 
L 36.8125 0 
L 27.59375 0 
Q 17.1875 0 13.234375 3.875 
Q 9.28125 7.765625 9.28125 18.015625 
L 9.28125 47.703125 
L 2.6875 47.703125 
L 2.6875 54.6875 
L 9.28125 54.6875 
L 9.28125 70.21875 
z
" id="DejaVuSans-116"/>
     <path d="M 54.890625 33.015625 
L 54.890625 0 
L 45.90625 0 
L 45.90625 32.71875 
Q 45.90625 40.484375 42.875 44.328125 
Q 39.84375 48.1875 33.796875 48.1875 
Q 26.515625 48.1875 22.3125 43.546875 
Q 18.109375 38.921875 18.109375 30.90625 
L 18.109375 0 
L 9.078125 0 
L 9.078125 54.6875 
L 18.109375 54.6875 
L 18.109375 46.1875 
Q 21.34375 51.125 25.703125 53.5625 
Q 30.078125 56 35.796875 56 
Q 45.21875 56 50.046875 50.171875 
Q 54.890625 44.34375 54.890625 33.015625 
z
" id="DejaVuSans-110"/>
     <path id="DejaVuSans-32"/>
     <path d="M 37.109375 75.984375 
L 37.109375 68.5 
L 28.515625 68.5 
Q 23.6875 68.5 21.796875 66.546875 
Q 19.921875 64.59375 19.921875 59.515625 
L 19.921875 54.6875 
L 34.71875 54.6875 
L 34.71875 47.703125 
L 19.921875 47.703125 
L 19.921875 0 
L 10.890625 0 
L 10.890625 47.703125 
L 2.296875 47.703125 
L 2.296875 54.6875 
L 10.890625 54.6875 
L 10.890625 58.5 
Q 10.890625 67.625 15.140625 71.796875 
Q 19.390625 75.984375 28.609375 75.984375 
z
" id="DejaVuSans-102"/>
     <path d="M 2.984375 54.6875 
L 12.5 54.6875 
L 29.59375 8.796875 
L 46.6875 54.6875 
L 56.203125 54.6875 
L 35.6875 0 
L 23.484375 0 
z
" id="DejaVuSans-118"/>
     <path d="M 10.6875 12.40625 
L 21 12.40625 
L 21 0 
L 10.6875 0 
z
" id="DejaVuSans-46"/>
     <path d="M 50.984375 -16.609375 
L 50.984375 -23.578125 
L -0.984375 -23.578125 
L -0.984375 -16.609375 
z
" id="DejaVuSans-95"/>
     <path d="M 8.5 21.578125 
L 8.5 54.6875 
L 17.484375 54.6875 
L 17.484375 21.921875 
Q 17.484375 14.15625 20.5 10.265625 
Q 23.53125 6.390625 29.59375 6.390625 
Q 36.859375 6.390625 41.078125 11.03125 
Q 45.3125 15.671875 45.3125 23.6875 
L 45.3125 54.6875 
L 54.296875 54.6875 
L 54.296875 0 
L 45.3125 0 
L 45.3125 8.40625 
Q 42.046875 3.421875 37.71875 1 
Q 33.40625 -1.421875 27.6875 -1.421875 
Q 18.265625 -1.421875 13.375 4.4375 
Q 8.5 10.296875 8.5 21.578125 
z
M 31.109375 56 
z
" id="DejaVuSans-117"/>
    </defs>
    <g transform="translate(107.742188 35.472)scale(0.12 -0.12)">
     <use xlink:href="#DejaVuSans-65"/>
     <use x="68.408203" xlink:href="#DejaVuSans-115"/>
     <use x="120.507812" xlink:href="#DejaVuSans-115"/>
     <use x="172.607422" xlink:href="#DejaVuSans-111"/>
     <use x="233.789062" xlink:href="#DejaVuSans-99"/>
     <use x="288.769531" xlink:href="#DejaVuSans-105"/>
     <use x="316.552734" xlink:href="#DejaVuSans-97"/>
     <use x="377.832031" xlink:href="#DejaVuSans-116"/>
     <use x="417.041016" xlink:href="#DejaVuSans-105"/>
     <use x="444.824219" xlink:href="#DejaVuSans-111"/>
     <use x="506.005859" xlink:href="#DejaVuSans-110"/>
     <use x="569.384766" xlink:href="#DejaVuSans-32"/>
     <use x="601.171875" xlink:href="#DejaVuSans-111"/>
     <use x="662.353516" xlink:href="#DejaVuSans-102"/>
     <use x="697.558594" xlink:href="#DejaVuSans-32"/>
     <use x="729.345703" xlink:href="#DejaVuSans-108"/>
     <use x="757.128906" xlink:href="#DejaVuSans-100"/>
     <use x="820.605469" xlink:href="#DejaVuSans-104"/>
     <use x="883.984375" xlink:href="#DejaVuSans-97"/>
     <use x="945.263672" xlink:href="#DejaVuSans-100"/>
     <use x="1008.740234" xlink:href="#DejaVuSans-109"/>
     <use x="1106.152344" xlink:href="#DejaVuSans-97"/>
     <use x="1167.431641" xlink:href="#DejaVuSans-99"/>
     <use x="1222.412109" xlink:href="#DejaVuSans-32"/>
     <use x="1254.199219" xlink:href="#DejaVuSans-118"/>
     <use x="1313.378906" xlink:href="#DejaVuSans-115"/>
     <use x="1365.478516" xlink:href="#DejaVuSans-46"/>
     <use x="1397.265625" xlink:href="#DejaVuSans-32"/>
     <use x="1429.052734" xlink:href="#DejaVuSans-110"/>
     <use x="1492.431641" xlink:href="#DejaVuSans-97"/>
     <use x="1553.710938" xlink:href="#DejaVuSans-115"/>
     <use x="1605.810547" xlink:href="#DejaVuSans-97"/>
     <use x="1667.089844" xlink:href="#DejaVuSans-108"/>
     <use x="1694.873047" xlink:href="#DejaVuSans-95"/>
     <use x="1744.873047" xlink:href="#DejaVuSans-99"/>
     <use x="1799.853516" xlink:href="#DejaVuSans-97"/>
     <use x="1861.132812" xlink:href="#DejaVuSans-110"/>
     <use x="1924.511719" xlink:href="#DejaVuSans-110"/>
     <use x="1987.890625" xlink:href="#DejaVuSans-117"/>
     <use x="2051.269531" xlink:href="#DejaVuSans-108"/>
     <use x="2079.052734" xlink:href="#DejaVuSans-97"/>
    </g>
   </g>
   <g id="legend_1">
    <g id="patch_7">
     <path d="M 260.18875 79.3845 
L 407.72 79.3845 
Q 409.72 79.3845 409.72 77.3845 
L 409.72 48.472 
Q 409.72 46.472 407.72 46.472 
L 260.18875 46.472 
Q 258.18875 46.472 258.18875 48.472 
L 258.18875 77.3845 
Q 258.18875 79.3845 260.18875 79.3845 
z
" style="fill:#ffffff;opacity:0.8;stroke:#cccccc;stroke-linejoin:miter;"/>
    </g>
    <g id="line2d_11">
     <path d="M 262.18875 54.570438 
L 282.18875 54.570438 
" style="fill:none;stroke:#ffa500;stroke-linecap:square;stroke-width:1.5;"/>
    </g>
    <g id="line2d_12"/>
    <g id="text_8">
     <!-- nasal_cannula (273) -->
     <defs>
      <path d="M 31 75.875 
Q 24.46875 64.65625 21.28125 53.65625 
Q 18.109375 42.671875 18.109375 31.390625 
Q 18.109375 20.125 21.3125 9.0625 
Q 24.515625 -2 31 -13.1875 
L 23.1875 -13.1875 
Q 15.875 -1.703125 12.234375 9.375 
Q 8.59375 20.453125 8.59375 31.390625 
Q 8.59375 42.28125 12.203125 53.3125 
Q 15.828125 64.359375 23.1875 75.875 
z
" id="DejaVuSans-40"/>
      <path d="M 8.203125 72.90625 
L 55.078125 72.90625 
L 55.078125 68.703125 
L 28.609375 0 
L 18.3125 0 
L 43.21875 64.59375 
L 8.203125 64.59375 
z
" id="DejaVuSans-55"/>
      <path d="M 40.578125 39.3125 
Q 47.65625 37.796875 51.625 33 
Q 55.609375 28.21875 55.609375 21.1875 
Q 55.609375 10.40625 48.1875 4.484375 
Q 40.765625 -1.421875 27.09375 -1.421875 
Q 22.515625 -1.421875 17.65625 -0.515625 
Q 12.796875 0.390625 7.625 2.203125 
L 7.625 11.71875 
Q 11.71875 9.328125 16.59375 8.109375 
Q 21.484375 6.890625 26.8125 6.890625 
Q 36.078125 6.890625 40.9375 10.546875 
Q 45.796875 14.203125 45.796875 21.1875 
Q 45.796875 27.640625 41.28125 31.265625 
Q 36.765625 34.90625 28.71875 34.90625 
L 20.21875 34.90625 
L 20.21875 43.015625 
L 29.109375 43.015625 
Q 36.375 43.015625 40.234375 45.921875 
Q 44.09375 48.828125 44.09375 54.296875 
Q 44.09375 59.90625 40.109375 62.90625 
Q 36.140625 65.921875 28.71875 65.921875 
Q 24.65625 65.921875 20.015625 65.03125 
Q 15.375 64.15625 9.8125 62.3125 
L 9.8125 71.09375 
Q 15.4375 72.65625 20.34375 73.4375 
Q 25.25 74.21875 29.59375 74.21875 
Q 40.828125 74.21875 47.359375 69.109375 
Q 53.90625 64.015625 53.90625 55.328125 
Q 53.90625 49.265625 50.4375 45.09375 
Q 46.96875 40.921875 40.578125 39.3125 
z
" id="DejaVuSans-51"/>
      <path d="M 8.015625 75.875 
L 15.828125 75.875 
Q 23.140625 64.359375 26.78125 53.3125 
Q 30.421875 42.28125 30.421875 31.390625 
Q 30.421875 20.453125 26.78125 9.375 
Q 23.140625 -1.703125 15.828125 -13.1875 
L 8.015625 -13.1875 
Q 14.5 -2 17.703125 9.0625 
Q 20.90625 20.125 20.90625 31.390625 
Q 20.90625 42.671875 17.703125 53.65625 
Q 14.5 64.65625 8.015625 75.875 
z
" id="DejaVuSans-41"/>
     </defs>
     <g transform="translate(290.18875 58.070438)scale(0.1 -0.1)">
      <use xlink:href="#DejaVuSans-110"/>
      <use x="63.378906" xlink:href="#DejaVuSans-97"/>
      <use x="124.658203" xlink:href="#DejaVuSans-115"/>
      <use x="176.757812" xlink:href="#DejaVuSans-97"/>
      <use x="238.037109" xlink:href="#DejaVuSans-108"/>
      <use x="265.820312" xlink:href="#DejaVuSans-95"/>
      <use x="315.820312" xlink:href="#DejaVuSans-99"/>
      <use x="370.800781" xlink:href="#DejaVuSans-97"/>
      <use x="432.080078" xlink:href="#DejaVuSans-110"/>
      <use x="495.458984" xlink:href="#DejaVuSans-110"/>
      <use x="558.837891" xlink:href="#DejaVuSans-117"/>
      <use x="622.216797" xlink:href="#DejaVuSans-108"/>
      <use x="650" xlink:href="#DejaVuSans-97"/>
      <use x="711.279297" xlink:href="#DejaVuSans-32"/>
      <use x="743.066406" xlink:href="#DejaVuSans-40"/>
      <use x="782.080078" xlink:href="#DejaVuSans-50"/>
      <use x="845.703125" xlink:href="#DejaVuSans-55"/>
      <use x="909.326172" xlink:href="#DejaVuSans-51"/>
      <use x="972.949219" xlink:href="#DejaVuSans-41"/>
     </g>
    </g>
    <g id="line2d_13">
     <path d="M 262.18875 69.526688 
L 282.18875 69.526688 
" style="fill:none;stroke:#008000;stroke-linecap:square;stroke-width:1.5;"/>
    </g>
    <g id="line2d_14"/>
    <g id="text_9">
     <!-- Not nasal_cannula (95) -->
     <defs>
      <path d="M 9.8125 72.90625 
L 23.09375 72.90625 
L 55.421875 11.921875 
L 55.421875 72.90625 
L 64.984375 72.90625 
L 64.984375 0 
L 51.703125 0 
L 19.390625 60.984375 
L 19.390625 0 
L 9.8125 0 
z
" id="DejaVuSans-78"/>
      <path d="M 10.984375 1.515625 
L 10.984375 10.5 
Q 14.703125 8.734375 18.5 7.8125 
Q 22.3125 6.890625 25.984375 6.890625 
Q 35.75 6.890625 40.890625 13.453125 
Q 46.046875 20.015625 46.78125 33.40625 
Q 43.953125 29.203125 39.59375 26.953125 
Q 35.25 24.703125 29.984375 24.703125 
Q 19.046875 24.703125 12.671875 31.3125 
Q 6.296875 37.9375 6.296875 49.421875 
Q 6.296875 60.640625 12.9375 67.421875 
Q 19.578125 74.21875 30.609375 74.21875 
Q 43.265625 74.21875 49.921875 64.515625 
Q 56.59375 54.828125 56.59375 36.375 
Q 56.59375 19.140625 48.40625 8.859375 
Q 40.234375 -1.421875 26.421875 -1.421875 
Q 22.703125 -1.421875 18.890625 -0.6875 
Q 15.09375 0.046875 10.984375 1.515625 
z
M 30.609375 32.421875 
Q 37.25 32.421875 41.125 36.953125 
Q 45.015625 41.5 45.015625 49.421875 
Q 45.015625 57.28125 41.125 61.84375 
Q 37.25 66.40625 30.609375 66.40625 
Q 23.96875 66.40625 20.09375 61.84375 
Q 16.21875 57.28125 16.21875 49.421875 
Q 16.21875 41.5 20.09375 36.953125 
Q 23.96875 32.421875 30.609375 32.421875 
z
" id="DejaVuSans-57"/>
      <path d="M 10.796875 72.90625 
L 49.515625 72.90625 
L 49.515625 64.59375 
L 19.828125 64.59375 
L 19.828125 46.734375 
Q 21.96875 47.46875 24.109375 47.828125 
Q 26.265625 48.1875 28.421875 48.1875 
Q 40.625 48.1875 47.75 41.5 
Q 54.890625 34.8125 54.890625 23.390625 
Q 54.890625 11.625 47.5625 5.09375 
Q 40.234375 -1.421875 26.90625 -1.421875 
Q 22.3125 -1.421875 17.546875 -0.640625 
Q 12.796875 0.140625 7.71875 1.703125 
L 7.71875 11.625 
Q 12.109375 9.234375 16.796875 8.0625 
Q 21.484375 6.890625 26.703125 6.890625 
Q 35.15625 6.890625 40.078125 11.328125 
Q 45.015625 15.765625 45.015625 23.390625 
Q 45.015625 31 40.078125 35.4375 
Q 35.15625 39.890625 26.703125 39.890625 
Q 22.75 39.890625 18.8125 39.015625 
Q 14.890625 38.140625 10.796875 36.28125 
z
" id="DejaVuSans-53"/>
     </defs>
     <g transform="translate(290.18875 73.026688)scale(0.1 -0.1)">
      <use xlink:href="#DejaVuSans-78"/>
      <use x="74.804688" xlink:href="#DejaVuSans-111"/>
      <use x="135.986328" xlink:href="#DejaVuSans-116"/>
      <use x="175.195312" xlink:href="#DejaVuSans-32"/>
      <use x="206.982422" xlink:href="#DejaVuSans-110"/>
      <use x="270.361328" xlink:href="#DejaVuSans-97"/>
      <use x="331.640625" xlink:href="#DejaVuSans-115"/>
      <use x="383.740234" xlink:href="#DejaVuSans-97"/>
      <use x="445.019531" xlink:href="#DejaVuSans-108"/>
      <use x="472.802734" xlink:href="#DejaVuSans-95"/>
      <use x="522.802734" xlink:href="#DejaVuSans-99"/>
      <use x="577.783203" xlink:href="#DejaVuSans-97"/>
      <use x="639.0625" xlink:href="#DejaVuSans-110"/>
      <use x="702.441406" xlink:href="#DejaVuSans-110"/>
      <use x="765.820312" xlink:href="#DejaVuSans-117"/>
      <use x="829.199219" xlink:href="#DejaVuSans-108"/>
      <use x="856.982422" xlink:href="#DejaVuSans-97"/>
      <use x="918.261719" xlink:href="#DejaVuSans-32"/>
      <use x="950.048828" xlink:href="#DejaVuSans-40"/>
      <use x="989.0625" xlink:href="#DejaVuSans-57"/>
      <use x="1052.685547" xlink:href="#DejaVuSans-53"/>
      <use x="1116.308594" xlink:href="#DejaVuSans-41"/>
     </g>
    </g>
   </g>
  </g>
 </g>
 <defs>
  <clipPath id="p56e7c41df7">
   <rect height="266.112" width="357.12" x="57.6" y="41.472"/>
  </clipPath>
 </defs>
</svg>
