<?xml version="1.0" encoding="utf-8" standalone="no"?>
<!DOCTYPE svg PUBLIC "-//W3C//DTD SVG 1.1//EN"
  "http://www.w3.org/Graphics/SVG/1.1/DTD/svg11.dtd">
<!-- Created with matplotlib (https://matplotlib.org/) -->
<svg height="345.6pt" version="1.1" viewBox="0 0 460.8 345.6" width="460.8pt" xmlns="http://www.w3.org/2000/svg" xmlns:xlink="http://www.w3.org/1999/xlink">
 <defs>
  <style type="text/css">
*{stroke-linecap:butt;stroke-linejoin:round;}
  </style>
 </defs>
 <g id="figure_1">
  <g id="patch_1">
   <path d="M 0 345.6 
L 460.8 345.6 
L 460.8 0 
L 0 0 
z
" style="fill:#ffffff;"/>
  </g>
  <g id="axes_1">
   <g id="patch_2">
    <path d="M 57.6 307.584 
L 414.72 307.584 
L 414.72 41.472 
L 57.6 41.472 
z
" style="fill:#ffffff;"/>
   </g>
   <g id="PolyCollection_1">
    <defs>
     <path d="M 73.832727 -170.785734 
L 73.832727 -171.358266 
L 76.928358 -171.488026 
L 80.023988 -171.653688 
L 83.119618 -171.854488 
L 86.215249 -172.084706 
L 89.310879 -172.332979 
L 92.40651 -172.582604 
L 95.50214 -172.813053 
L 98.59777 -173.002601 
L 101.693401 -173.131649 
L 104.789031 -173.186059 
L 107.884662 -173.159719 
L 110.980292 -173.055707 
L 114.075922 -172.885779 
L 117.171553 -172.668334 
L 120.267183 -172.425423 
L 123.362814 -172.179613 
L 126.458444 -171.951481 
L 129.554075 -171.758356 
L 132.649705 -171.614564 
L 135.745335 -171.533104 
L 138.840966 -171.528409 
L 141.936596 -171.619685 
L 145.032227 -171.834273 
L 148.127857 -172.210475 
L 151.223487 -172.799377 
L 154.319118 -173.665245 
L 157.414748 -174.884216 
L 160.510379 -176.541128 
L 163.606009 -178.724541 
L 166.701639 -181.520212 
L 169.79727 -185.003543 
L 172.8929 -189.2317 
L 175.988531 -194.236265 
L 179.084161 -200.017299 
L 182.179791 -206.539558 
L 185.275422 -213.731308 
L 188.371052 -221.485757 
L 191.466683 -229.664659 
L 194.562313 -238.103273 
L 197.657943 -246.615731 
L 200.753574 -255.00007 
L 203.849204 -263.042643 
L 206.944835 -270.5223 
L 210.040465 -277.215274 
L 213.136095 -282.902098 
L 216.231726 -287.377679 
L 219.327356 -290.465031 
L 222.422987 -292.032 
L 225.518617 -292.00898 
L 228.614247 -290.404373 
L 231.709878 -287.313986 
L 234.805508 -282.920911 
L 237.901139 -277.483982 
L 240.996769 -271.31521 
L 244.092399 -264.749263 
L 247.18803 -258.110095 
L 250.28366 -251.680672 
L 253.379291 -245.680965 
L 256.474921 -240.257253 
L 259.570551 -235.482928 
L 262.666182 -231.368353 
L 265.761812 -227.875721 
L 268.857443 -224.934732 
L 271.953073 -222.456046 
L 275.048703 -220.34137 
L 278.144334 -218.490823 
L 281.239964 -216.809206 
L 284.335595 -215.212671 
L 287.431225 -213.636182 
L 290.526855 -212.040711 
L 293.622486 -210.417897 
L 296.718116 -208.78969 
L 299.813747 -207.201405 
L 302.909377 -205.708466 
L 306.005007 -204.35931 
L 309.100638 -203.178601 
L 312.196268 -202.155407 
L 315.291899 -201.240003 
L 318.387529 -200.350639 
L 321.483159 -199.388816 
L 324.57879 -198.259153 
L 327.67442 -196.88871 
L 330.770051 -195.241033 
L 333.865681 -193.32196 
L 336.961311 -191.17665 
L 340.056942 -188.879655 
L 343.152572 -186.521215 
L 346.248203 -184.193282 
L 349.343833 -181.978032 
L 352.439463 -179.940328 
L 355.535094 -178.124376 
L 358.630724 -176.553809 
L 361.726355 -175.234092 
L 364.821985 -174.156129 
L 367.917615 -173.300234 
L 371.013246 -172.639937 
L 374.108876 -172.145364 
L 377.204507 -171.786044 
L 380.300137 -171.53309 
L 380.300137 -170.61091 
L 380.300137 -170.61091 
L 377.204507 -170.357956 
L 374.108876 -169.998636 
L 371.013246 -169.504063 
L 367.917615 -168.843766 
L 364.821985 -167.987871 
L 361.726355 -166.909908 
L 358.630724 -165.590191 
L 355.535094 -164.019624 
L 352.439463 -162.203672 
L 349.343833 -160.165968 
L 346.248203 -157.950718 
L 343.152572 -155.622785 
L 340.056942 -153.264345 
L 336.961311 -150.96735 
L 333.865681 -148.82204 
L 330.770051 -146.902967 
L 327.67442 -145.25529 
L 324.57879 -143.884847 
L 321.483159 -142.755184 
L 318.387529 -141.793361 
L 315.291899 -140.903997 
L 312.196268 -139.988593 
L 309.100638 -138.965399 
L 306.005007 -137.78469 
L 302.909377 -136.435534 
L 299.813747 -134.942595 
L 296.718116 -133.35431 
L 293.622486 -131.726103 
L 290.526855 -130.103289 
L 287.431225 -128.507818 
L 284.335595 -126.931329 
L 281.239964 -125.334794 
L 278.144334 -123.653177 
L 275.048703 -121.80263 
L 271.953073 -119.687954 
L 268.857443 -117.209268 
L 265.761812 -114.268279 
L 262.666182 -110.775647 
L 259.570551 -106.661072 
L 256.474921 -101.886747 
L 253.379291 -96.463035 
L 250.28366 -90.463328 
L 247.18803 -84.033905 
L 244.092399 -77.394737 
L 240.996769 -70.82879 
L 237.901139 -64.660018 
L 234.805508 -59.223089 
L 231.709878 -54.830014 
L 228.614247 -51.739627 
L 225.518617 -50.13502 
L 222.422987 -50.112 
L 219.327356 -51.678969 
L 216.231726 -54.766321 
L 213.136095 -59.241902 
L 210.040465 -64.928726 
L 206.944835 -71.6217 
L 203.849204 -79.101357 
L 200.753574 -87.14393 
L 197.657943 -95.528269 
L 194.562313 -104.040727 
L 191.466683 -112.479341 
L 188.371052 -120.658243 
L 185.275422 -128.412692 
L 182.179791 -135.604442 
L 179.084161 -142.126701 
L 175.988531 -147.907735 
L 172.8929 -152.9123 
L 169.79727 -157.140457 
L 166.701639 -160.623788 
L 163.606009 -163.419459 
L 160.510379 -165.602872 
L 157.414748 -167.259784 
L 154.319118 -168.478755 
L 151.223487 -169.344623 
L 148.127857 -169.933525 
L 145.032227 -170.309727 
L 141.936596 -170.524315 
L 138.840966 -170.615591 
L 135.745335 -170.610896 
L 132.649705 -170.529436 
L 129.554075 -170.385644 
L 126.458444 -170.192519 
L 123.362814 -169.964387 
L 120.267183 -169.718577 
L 117.171553 -169.475666 
L 114.075922 -169.258221 
L 110.980292 -169.088293 
L 107.884662 -168.984281 
L 104.789031 -168.957941 
L 101.693401 -169.012351 
L 98.59777 -169.141399 
L 95.50214 -169.330947 
L 92.40651 -169.561396 
L 89.310879 -169.811021 
L 86.215249 -170.059294 
L 83.119618 -170.289512 
L 80.023988 -170.490312 
L 76.928358 -170.655974 
L 73.832727 -170.785734 
z
" id="mbc98bb2c01" style="stroke:#4c4c4c;stroke-opacity:0.5;stroke-width:1.5;"/>
    </defs>
    <g clip-path="url(#pd0d4c0f439)">
     <use style="fill:#df9c20;fill-opacity:0.5;stroke:#4c4c4c;stroke-opacity:0.5;stroke-width:1.5;" x="0" xlink:href="#mbc98bb2c01" y="345.6"/>
    </g>
   </g>
   <g id="PolyCollection_2">
    <defs>
     <path d="M 74.170913 -170.952721 
L 74.170913 -171.191279 
L 77.446836 -171.273555 
L 80.722759 -171.386533 
L 83.998682 -171.525329 
L 87.274605 -171.675545 
L 90.550528 -171.814548 
L 93.82645 -171.916989 
L 97.102373 -171.963226 
L 100.378296 -171.947325 
L 103.654219 -171.880875 
L 106.930142 -171.790497 
L 110.206064 -171.709809 
L 113.481987 -171.668954 
L 116.75791 -171.685605 
L 120.033833 -171.76047 
L 123.309756 -171.878551 
L 126.585679 -172.015376 
L 129.861601 -172.145651 
L 133.137524 -172.250758 
L 136.413447 -172.322165 
L 139.68937 -172.360228 
L 142.965293 -172.371174 
L 146.241216 -172.366949 
L 149.517138 -172.371667 
L 152.793061 -172.434876 
L 156.068984 -172.647765 
L 159.344907 -173.156094 
L 162.62083 -174.163785 
L 165.896752 -175.923234 
L 169.172675 -178.71154 
L 172.448598 -182.795097 
L 175.724521 -188.387391 
L 179.000444 -195.605734 
L 182.276367 -204.432148 
L 185.552289 -214.683856 
L 188.828212 -226.001394 
L 192.104135 -237.865577 
L 195.380058 -249.652547 
L 198.655981 -260.723636 
L 201.931903 -270.526653 
L 205.207826 -278.670699 
L 208.483749 -284.942828 
L 211.759672 -289.264765 
L 215.035595 -291.624308 
L 218.311518 -292.032 
L 221.58744 -290.533944 
L 224.863363 -287.26805 
L 228.139286 -282.515278 
L 231.415209 -276.696501 
L 234.691132 -270.299972 
L 237.967054 -263.768982 
L 241.242977 -257.404329 
L 244.5189 -251.327447 
L 247.794823 -245.515941 
L 251.070746 -239.885507 
L 254.346669 -234.372037 
L 257.622591 -228.974865 
L 260.898514 -223.750257 
L 264.174437 -218.774371 
L 267.45036 -214.10782 
L 270.726283 -209.783715 
L 274.002206 -205.819066 
L 277.278128 -202.234071 
L 280.554051 -199.064401 
L 283.829974 -196.361924 
L 287.105897 -194.186739 
L 290.38182 -192.592433 
L 293.657742 -191.603259 
L 296.933665 -191.185374 
L 300.209588 -191.224297 
L 303.485511 -191.526893 
L 306.761434 -191.858106 
L 310.037357 -192.001943 
L 313.313279 -191.817626 
L 316.589202 -191.261245 
L 319.865125 -190.363489 
L 323.141048 -189.181306 
L 326.416971 -187.756094 
L 329.692893 -186.103224 
L 332.968816 -184.234226 
L 336.244739 -182.19121 
L 339.520662 -180.067192 
L 342.796585 -177.997779 
L 346.072508 -176.128708 
L 349.34843 -174.577071 
L 352.624353 -173.404581 
L 355.900276 -172.611567 
L 359.176199 -172.148733 
L 362.452122 -171.937252 
L 365.728045 -171.888432 
L 369.003967 -171.918768 
L 372.27989 -171.960262 
L 375.555813 -171.966984 
L 378.831736 -171.917834 
L 382.107659 -171.814642 
L 385.383581 -171.675509 
L 388.659504 -171.525299 
L 391.935427 -171.386519 
L 395.21135 -171.27355 
L 398.487273 -171.191277 
L 398.487273 -170.952723 
L 398.487273 -170.952723 
L 395.21135 -170.87045 
L 391.935427 -170.757481 
L 388.659504 -170.618701 
L 385.383581 -170.468491 
L 382.107659 -170.329358 
L 378.831736 -170.226166 
L 375.555813 -170.177016 
L 372.27989 -170.183738 
L 369.003967 -170.225232 
L 365.728045 -170.255568 
L 362.452122 -170.206748 
L 359.176199 -169.995267 
L 355.900276 -169.532433 
L 352.624353 -168.739419 
L 349.34843 -167.566929 
L 346.072508 -166.015292 
L 342.796585 -164.146221 
L 339.520662 -162.076808 
L 336.244739 -159.95279 
L 332.968816 -157.909774 
L 329.692893 -156.040776 
L 326.416971 -154.387906 
L 323.141048 -152.962694 
L 319.865125 -151.780511 
L 316.589202 -150.882755 
L 313.313279 -150.326374 
L 310.037357 -150.142057 
L 306.761434 -150.285894 
L 303.485511 -150.617107 
L 300.209588 -150.919703 
L 296.933665 -150.958626 
L 293.657742 -150.540741 
L 290.38182 -149.551567 
L 287.105897 -147.957261 
L 283.829974 -145.782076 
L 280.554051 -143.079599 
L 277.278128 -139.909929 
L 274.002206 -136.324934 
L 270.726283 -132.360285 
L 267.45036 -128.03618 
L 264.174437 -123.369629 
L 260.898514 -118.393743 
L 257.622591 -113.169135 
L 254.346669 -107.771963 
L 251.070746 -102.258493 
L 247.794823 -96.628059 
L 244.5189 -90.816553 
L 241.242977 -84.739671 
L 237.967054 -78.375018 
L 234.691132 -71.844028 
L 231.415209 -65.447499 
L 228.139286 -59.628722 
L 224.863363 -54.87595 
L 221.58744 -51.610056 
L 218.311518 -50.112 
L 215.035595 -50.519692 
L 211.759672 -52.879235 
L 208.483749 -57.201172 
L 205.207826 -63.473301 
L 201.931903 -71.617347 
L 198.655981 -81.420364 
L 195.380058 -92.491453 
L 192.104135 -104.278423 
L 188.828212 -116.142606 
L 185.552289 -127.460144 
L 182.276367 -137.711852 
L 179.000444 -146.538266 
L 175.724521 -153.756609 
L 172.448598 -159.348903 
L 169.172675 -163.43246 
L 165.896752 -166.220766 
L 162.62083 -167.980215 
L 159.344907 -168.987906 
L 156.068984 -169.496235 
L 152.793061 -169.709124 
L 149.517138 -169.772333 
L 146.241216 -169.777051 
L 142.965293 -169.772826 
L 139.68937 -169.783772 
L 136.413447 -169.821835 
L 133.137524 -169.893242 
L 129.861601 -169.998349 
L 126.585679 -170.128624 
L 123.309756 -170.265449 
L 120.033833 -170.38353 
L 116.75791 -170.458395 
L 113.481987 -170.475046 
L 110.206064 -170.434191 
L 106.930142 -170.353503 
L 103.654219 -170.263125 
L 100.378296 -170.196675 
L 97.102373 -170.180774 
L 93.82645 -170.227011 
L 90.550528 -170.329452 
L 87.274605 -170.468455 
L 83.998682 -170.618671 
L 80.722759 -170.757467 
L 77.446836 -170.870445 
L 74.170913 -170.952721 
z
" id="mc6e7932079" style="stroke:#262626;stroke-opacity:0.5;stroke-width:1.5;"/>
    </defs>
    <g clip-path="url(#pd0d4c0f439)">
     <use style="fill:#107010;fill-opacity:0.5;stroke:#262626;stroke-opacity:0.5;stroke-width:1.5;" x="0" xlink:href="#mc6e7932079" y="345.6"/>
    </g>
   </g>
   <g id="matplotlib.axis_1">
    <g id="xtick_1">
     <g id="line2d_1">
      <defs>
       <path d="M 0 0 
L 0 3.5 
" id="m2d9fb2bc83" style="stroke:#000000;stroke-width:0.8;"/>
      </defs>
      <g>
       <use style="stroke:#000000;stroke-width:0.8;" x="94.742705" xlink:href="#m2d9fb2bc83" y="307.584"/>
      </g>
     </g>
     <g id="text_1">
      <!-- 94 -->
      <defs>
       <path d="M 10.984375 1.515625 
L 10.984375 10.5 
Q 14.703125 8.734375 18.5 7.8125 
Q 22.3125 6.890625 25.984375 6.890625 
Q 35.75 6.890625 40.890625 13.453125 
Q 46.046875 20.015625 46.78125 33.40625 
Q 43.953125 29.203125 39.59375 26.953125 
Q 35.25 24.703125 29.984375 24.703125 
Q 19.046875 24.703125 12.671875 31.3125 
Q 6.296875 37.9375 6.296875 49.421875 
Q 6.296875 60.640625 12.9375 67.421875 
Q 19.578125 74.21875 30.609375 74.21875 
Q 43.265625 74.21875 49.921875 64.515625 
Q 56.59375 54.828125 56.59375 36.375 
Q 56.59375 19.140625 48.40625 8.859375 
Q 40.234375 -1.421875 26.421875 -1.421875 
Q 22.703125 -1.421875 18.890625 -0.6875 
Q 15.09375 0.046875 10.984375 1.515625 
z
M 30.609375 32.421875 
Q 37.25 32.421875 41.125 36.953125 
Q 45.015625 41.5 45.015625 49.421875 
Q 45.015625 57.28125 41.125 61.84375 
Q 37.25 66.40625 30.609375 66.40625 
Q 23.96875 66.40625 20.09375 61.84375 
Q 16.21875 57.28125 16.21875 49.421875 
Q 16.21875 41.5 20.09375 36.953125 
Q 23.96875 32.421875 30.609375 32.421875 
z
" id="DejaVuSans-57"/>
       <path d="M 37.796875 64.3125 
L 12.890625 25.390625 
L 37.796875 25.390625 
z
M 35.203125 72.90625 
L 47.609375 72.90625 
L 47.609375 25.390625 
L 58.015625 25.390625 
L 58.015625 17.1875 
L 47.609375 17.1875 
L 47.609375 0 
L 37.796875 0 
L 37.796875 17.1875 
L 4.890625 17.1875 
L 4.890625 26.703125 
z
" id="DejaVuSans-52"/>
      </defs>
      <g transform="translate(88.380205 322.182437)scale(0.1 -0.1)">
       <use xlink:href="#DejaVuSans-57"/>
       <use x="63.623047" xlink:href="#DejaVuSans-52"/>
      </g>
     </g>
    </g>
    <g id="xtick_2">
     <g id="line2d_2">
      <g>
       <use style="stroke:#000000;stroke-width:0.8;" x="147.672196" xlink:href="#m2d9fb2bc83" y="307.584"/>
      </g>
     </g>
     <g id="text_2">
      <!-- 96 -->
      <defs>
       <path d="M 33.015625 40.375 
Q 26.375 40.375 22.484375 35.828125 
Q 18.609375 31.296875 18.609375 23.390625 
Q 18.609375 15.53125 22.484375 10.953125 
Q 26.375 6.390625 33.015625 6.390625 
Q 39.65625 6.390625 43.53125 10.953125 
Q 47.40625 15.53125 47.40625 23.390625 
Q 47.40625 31.296875 43.53125 35.828125 
Q 39.65625 40.375 33.015625 40.375 
z
M 52.59375 71.296875 
L 52.59375 62.3125 
Q 48.875 64.0625 45.09375 64.984375 
Q 41.3125 65.921875 37.59375 65.921875 
Q 27.828125 65.921875 22.671875 59.328125 
Q 17.53125 52.734375 16.796875 39.40625 
Q 19.671875 43.65625 24.015625 45.921875 
Q 28.375 48.1875 33.59375 48.1875 
Q 44.578125 48.1875 50.953125 41.515625 
Q 57.328125 34.859375 57.328125 23.390625 
Q 57.328125 12.15625 50.6875 5.359375 
Q 44.046875 -1.421875 33.015625 -1.421875 
Q 20.359375 -1.421875 13.671875 8.265625 
Q 6.984375 17.96875 6.984375 36.375 
Q 6.984375 53.65625 15.1875 63.9375 
Q 23.390625 74.21875 37.203125 74.21875 
Q 40.921875 74.21875 44.703125 73.484375 
Q 48.484375 72.75 52.59375 71.296875 
z
" id="DejaVuSans-54"/>
      </defs>
      <g transform="translate(141.309696 322.182437)scale(0.1 -0.1)">
       <use xlink:href="#DejaVuSans-57"/>
       <use x="63.623047" xlink:href="#DejaVuSans-54"/>
      </g>
     </g>
    </g>
    <g id="xtick_3">
     <g id="line2d_3">
      <g>
       <use style="stroke:#000000;stroke-width:0.8;" x="200.601687" xlink:href="#m2d9fb2bc83" y="307.584"/>
      </g>
     </g>
     <g id="text_3">
      <!-- 98 -->
      <defs>
       <path d="M 31.78125 34.625 
Q 24.75 34.625 20.71875 30.859375 
Q 16.703125 27.09375 16.703125 20.515625 
Q 16.703125 13.921875 20.71875 10.15625 
Q 24.75 6.390625 31.78125 6.390625 
Q 38.8125 6.390625 42.859375 10.171875 
Q 46.921875 13.96875 46.921875 20.515625 
Q 46.921875 27.09375 42.890625 30.859375 
Q 38.875 34.625 31.78125 34.625 
z
M 21.921875 38.8125 
Q 15.578125 40.375 12.03125 44.71875 
Q 8.5 49.078125 8.5 55.328125 
Q 8.5 64.0625 14.71875 69.140625 
Q 20.953125 74.21875 31.78125 74.21875 
Q 42.671875 74.21875 48.875 69.140625 
Q 55.078125 64.0625 55.078125 55.328125 
Q 55.078125 49.078125 51.53125 44.71875 
Q 48 40.375 41.703125 38.8125 
Q 48.828125 37.15625 52.796875 32.3125 
Q 56.78125 27.484375 56.78125 20.515625 
Q 56.78125 9.90625 50.3125 4.234375 
Q 43.84375 -1.421875 31.78125 -1.421875 
Q 19.734375 -1.421875 13.25 4.234375 
Q 6.78125 9.90625 6.78125 20.515625 
Q 6.78125 27.484375 10.78125 32.3125 
Q 14.796875 37.15625 21.921875 38.8125 
z
M 18.3125 54.390625 
Q 18.3125 48.734375 21.84375 45.5625 
Q 25.390625 42.390625 31.78125 42.390625 
Q 38.140625 42.390625 41.71875 45.5625 
Q 45.3125 48.734375 45.3125 54.390625 
Q 45.3125 60.0625 41.71875 63.234375 
Q 38.140625 66.40625 31.78125 66.40625 
Q 25.390625 66.40625 21.84375 63.234375 
Q 18.3125 60.0625 18.3125 54.390625 
z
" id="DejaVuSans-56"/>
      </defs>
      <g transform="translate(194.239187 322.182437)scale(0.1 -0.1)">
       <use xlink:href="#DejaVuSans-57"/>
       <use x="63.623047" xlink:href="#DejaVuSans-56"/>
      </g>
     </g>
    </g>
    <g id="xtick_4">
     <g id="line2d_4">
      <g>
       <use style="stroke:#000000;stroke-width:0.8;" x="253.531178" xlink:href="#m2d9fb2bc83" y="307.584"/>
      </g>
     </g>
     <g id="text_4">
      <!-- 100 -->
      <defs>
       <path d="M 12.40625 8.296875 
L 28.515625 8.296875 
L 28.515625 63.921875 
L 10.984375 60.40625 
L 10.984375 69.390625 
L 28.421875 72.90625 
L 38.28125 72.90625 
L 38.28125 8.296875 
L 54.390625 8.296875 
L 54.390625 0 
L 12.40625 0 
z
" id="DejaVuSans-49"/>
       <path d="M 31.78125 66.40625 
Q 24.171875 66.40625 20.328125 58.90625 
Q 16.5 51.421875 16.5 36.375 
Q 16.5 21.390625 20.328125 13.890625 
Q 24.171875 6.390625 31.78125 6.390625 
Q 39.453125 6.390625 43.28125 13.890625 
Q 47.125 21.390625 47.125 36.375 
Q 47.125 51.421875 43.28125 58.90625 
Q 39.453125 66.40625 31.78125 66.40625 
z
M 31.78125 74.21875 
Q 44.046875 74.21875 50.515625 64.515625 
Q 56.984375 54.828125 56.984375 36.375 
Q 56.984375 17.96875 50.515625 8.265625 
Q 44.046875 -1.421875 31.78125 -1.421875 
Q 19.53125 -1.421875 13.0625 8.265625 
Q 6.59375 17.96875 6.59375 36.375 
Q 6.59375 54.828125 13.0625 64.515625 
Q 19.53125 74.21875 31.78125 74.21875 
z
" id="DejaVuSans-48"/>
      </defs>
      <g transform="translate(243.987428 322.182437)scale(0.1 -0.1)">
       <use xlink:href="#DejaVuSans-49"/>
       <use x="63.623047" xlink:href="#DejaVuSans-48"/>
       <use x="127.246094" xlink:href="#DejaVuSans-48"/>
      </g>
     </g>
    </g>
    <g id="xtick_5">
     <g id="line2d_5">
      <g>
       <use style="stroke:#000000;stroke-width:0.8;" x="306.460669" xlink:href="#m2d9fb2bc83" y="307.584"/>
      </g>
     </g>
     <g id="text_5">
      <!-- 102 -->
      <defs>
       <path d="M 19.1875 8.296875 
L 53.609375 8.296875 
L 53.609375 0 
L 7.328125 0 
L 7.328125 8.296875 
Q 12.9375 14.109375 22.625 23.890625 
Q 32.328125 33.6875 34.8125 36.53125 
Q 39.546875 41.84375 41.421875 45.53125 
Q 43.3125 49.21875 43.3125 52.78125 
Q 43.3125 58.59375 39.234375 62.25 
Q 35.15625 65.921875 28.609375 65.921875 
Q 23.96875 65.921875 18.8125 64.3125 
Q 13.671875 62.703125 7.8125 59.421875 
L 7.8125 69.390625 
Q 13.765625 71.78125 18.9375 73 
Q 24.125 74.21875 28.421875 74.21875 
Q 39.75 74.21875 46.484375 68.546875 
Q 53.21875 62.890625 53.21875 53.421875 
Q 53.21875 48.921875 51.53125 44.890625 
Q 49.859375 40.875 45.40625 35.40625 
Q 44.1875 33.984375 37.640625 27.21875 
Q 31.109375 20.453125 19.1875 8.296875 
z
" id="DejaVuSans-50"/>
      </defs>
      <g transform="translate(296.916919 322.182437)scale(0.1 -0.1)">
       <use xlink:href="#DejaVuSans-49"/>
       <use x="63.623047" xlink:href="#DejaVuSans-48"/>
       <use x="127.246094" xlink:href="#DejaVuSans-50"/>
      </g>
     </g>
    </g>
    <g id="xtick_6">
     <g id="line2d_6">
      <g>
       <use style="stroke:#000000;stroke-width:0.8;" x="359.390159" xlink:href="#m2d9fb2bc83" y="307.584"/>
      </g>
     </g>
     <g id="text_6">
      <!-- 104 -->
      <g transform="translate(349.846409 322.182437)scale(0.1 -0.1)">
       <use xlink:href="#DejaVuSans-49"/>
       <use x="63.623047" xlink:href="#DejaVuSans-48"/>
       <use x="127.246094" xlink:href="#DejaVuSans-52"/>
      </g>
     </g>
    </g>
    <g id="xtick_7">
     <g id="line2d_7">
      <g>
       <use style="stroke:#000000;stroke-width:0.8;" x="412.31965" xlink:href="#m2d9fb2bc83" y="307.584"/>
      </g>
     </g>
     <g id="text_7">
      <!-- 106 -->
      <g transform="translate(402.7759 322.182437)scale(0.1 -0.1)">
       <use xlink:href="#DejaVuSans-49"/>
       <use x="63.623047" xlink:href="#DejaVuSans-48"/>
       <use x="127.246094" xlink:href="#DejaVuSans-54"/>
      </g>
     </g>
    </g>
    <g id="text_8">
     <!-- tempinitac -->
     <defs>
      <path d="M 18.3125 70.21875 
L 18.3125 54.6875 
L 36.8125 54.6875 
L 36.8125 47.703125 
L 18.3125 47.703125 
L 18.3125 18.015625 
Q 18.3125 11.328125 20.140625 9.421875 
Q 21.96875 7.515625 27.59375 7.515625 
L 36.8125 7.515625 
L 36.8125 0 
L 27.59375 0 
Q 17.1875 0 13.234375 3.875 
Q 9.28125 7.765625 9.28125 18.015625 
L 9.28125 47.703125 
L 2.6875 47.703125 
L 2.6875 54.6875 
L 9.28125 54.6875 
L 9.28125 70.21875 
z
" id="DejaVuSans-116"/>
      <path d="M 56.203125 29.59375 
L 56.203125 25.203125 
L 14.890625 25.203125 
Q 15.484375 15.921875 20.484375 11.0625 
Q 25.484375 6.203125 34.421875 6.203125 
Q 39.59375 6.203125 44.453125 7.46875 
Q 49.3125 8.734375 54.109375 11.28125 
L 54.109375 2.78125 
Q 49.265625 0.734375 44.1875 -0.34375 
Q 39.109375 -1.421875 33.890625 -1.421875 
Q 20.796875 -1.421875 13.15625 6.1875 
Q 5.515625 13.8125 5.515625 26.8125 
Q 5.515625 40.234375 12.765625 48.109375 
Q 20.015625 56 32.328125 56 
Q 43.359375 56 49.78125 48.890625 
Q 56.203125 41.796875 56.203125 29.59375 
z
M 47.21875 32.234375 
Q 47.125 39.59375 43.09375 43.984375 
Q 39.0625 48.390625 32.421875 48.390625 
Q 24.90625 48.390625 20.390625 44.140625 
Q 15.875 39.890625 15.1875 32.171875 
z
" id="DejaVuSans-101"/>
      <path d="M 52 44.1875 
Q 55.375 50.25 60.0625 53.125 
Q 64.75 56 71.09375 56 
Q 79.640625 56 84.28125 50.015625 
Q 88.921875 44.046875 88.921875 33.015625 
L 88.921875 0 
L 79.890625 0 
L 79.890625 32.71875 
Q 79.890625 40.578125 77.09375 44.375 
Q 74.3125 48.1875 68.609375 48.1875 
Q 61.625 48.1875 57.5625 43.546875 
Q 53.515625 38.921875 53.515625 30.90625 
L 53.515625 0 
L 44.484375 0 
L 44.484375 32.71875 
Q 44.484375 40.625 41.703125 44.40625 
Q 38.921875 48.1875 33.109375 48.1875 
Q 26.21875 48.1875 22.15625 43.53125 
Q 18.109375 38.875 18.109375 30.90625 
L 18.109375 0 
L 9.078125 0 
L 9.078125 54.6875 
L 18.109375 54.6875 
L 18.109375 46.1875 
Q 21.1875 51.21875 25.484375 53.609375 
Q 29.78125 56 35.6875 56 
Q 41.65625 56 45.828125 52.96875 
Q 50 49.953125 52 44.1875 
z
" id="DejaVuSans-109"/>
      <path d="M 18.109375 8.203125 
L 18.109375 -20.796875 
L 9.078125 -20.796875 
L 9.078125 54.6875 
L 18.109375 54.6875 
L 18.109375 46.390625 
Q 20.953125 51.265625 25.265625 53.625 
Q 29.59375 56 35.59375 56 
Q 45.5625 56 51.78125 48.09375 
Q 58.015625 40.1875 58.015625 27.296875 
Q 58.015625 14.40625 51.78125 6.484375 
Q 45.5625 -1.421875 35.59375 -1.421875 
Q 29.59375 -1.421875 25.265625 0.953125 
Q 20.953125 3.328125 18.109375 8.203125 
z
M 48.6875 27.296875 
Q 48.6875 37.203125 44.609375 42.84375 
Q 40.53125 48.484375 33.40625 48.484375 
Q 26.265625 48.484375 22.1875 42.84375 
Q 18.109375 37.203125 18.109375 27.296875 
Q 18.109375 17.390625 22.1875 11.75 
Q 26.265625 6.109375 33.40625 6.109375 
Q 40.53125 6.109375 44.609375 11.75 
Q 48.6875 17.390625 48.6875 27.296875 
z
" id="DejaVuSans-112"/>
      <path d="M 9.421875 54.6875 
L 18.40625 54.6875 
L 18.40625 0 
L 9.421875 0 
z
M 9.421875 75.984375 
L 18.40625 75.984375 
L 18.40625 64.59375 
L 9.421875 64.59375 
z
" id="DejaVuSans-105"/>
      <path d="M 54.890625 33.015625 
L 54.890625 0 
L 45.90625 0 
L 45.90625 32.71875 
Q 45.90625 40.484375 42.875 44.328125 
Q 39.84375 48.1875 33.796875 48.1875 
Q 26.515625 48.1875 22.3125 43.546875 
Q 18.109375 38.921875 18.109375 30.90625 
L 18.109375 0 
L 9.078125 0 
L 9.078125 54.6875 
L 18.109375 54.6875 
L 18.109375 46.1875 
Q 21.34375 51.125 25.703125 53.5625 
Q 30.078125 56 35.796875 56 
Q 45.21875 56 50.046875 50.171875 
Q 54.890625 44.34375 54.890625 33.015625 
z
" id="DejaVuSans-110"/>
      <path d="M 34.28125 27.484375 
Q 23.390625 27.484375 19.1875 25 
Q 14.984375 22.515625 14.984375 16.5 
Q 14.984375 11.71875 18.140625 8.90625 
Q 21.296875 6.109375 26.703125 6.109375 
Q 34.1875 6.109375 38.703125 11.40625 
Q 43.21875 16.703125 43.21875 25.484375 
L 43.21875 27.484375 
z
M 52.203125 31.203125 
L 52.203125 0 
L 43.21875 0 
L 43.21875 8.296875 
Q 40.140625 3.328125 35.546875 0.953125 
Q 30.953125 -1.421875 24.3125 -1.421875 
Q 15.921875 -1.421875 10.953125 3.296875 
Q 6 8.015625 6 15.921875 
Q 6 25.140625 12.171875 29.828125 
Q 18.359375 34.515625 30.609375 34.515625 
L 43.21875 34.515625 
L 43.21875 35.40625 
Q 43.21875 41.609375 39.140625 45 
Q 35.0625 48.390625 27.6875 48.390625 
Q 23 48.390625 18.546875 47.265625 
Q 14.109375 46.140625 10.015625 43.890625 
L 10.015625 52.203125 
Q 14.9375 54.109375 19.578125 55.046875 
Q 24.21875 56 28.609375 56 
Q 40.484375 56 46.34375 49.84375 
Q 52.203125 43.703125 52.203125 31.203125 
z
" id="DejaVuSans-97"/>
      <path d="M 48.78125 52.59375 
L 48.78125 44.1875 
Q 44.96875 46.296875 41.140625 47.34375 
Q 37.3125 48.390625 33.40625 48.390625 
Q 24.65625 48.390625 19.8125 42.84375 
Q 14.984375 37.3125 14.984375 27.296875 
Q 14.984375 17.28125 19.8125 11.734375 
Q 24.65625 6.203125 33.40625 6.203125 
Q 37.3125 6.203125 41.140625 7.25 
Q 44.96875 8.296875 48.78125 10.40625 
L 48.78125 2.09375 
Q 45.015625 0.34375 40.984375 -0.53125 
Q 36.96875 -1.421875 32.421875 -1.421875 
Q 20.0625 -1.421875 12.78125 6.34375 
Q 5.515625 14.109375 5.515625 27.296875 
Q 5.515625 40.671875 12.859375 48.328125 
Q 20.21875 56 33.015625 56 
Q 37.15625 56 41.109375 55.140625 
Q 45.0625 54.296875 48.78125 52.59375 
z
" id="DejaVuSans-99"/>
     </defs>
     <g transform="translate(209.358437 335.860562)scale(0.1 -0.1)">
      <use xlink:href="#DejaVuSans-116"/>
      <use x="39.208984" xlink:href="#DejaVuSans-101"/>
      <use x="100.732422" xlink:href="#DejaVuSans-109"/>
      <use x="198.144531" xlink:href="#DejaVuSans-112"/>
      <use x="261.621094" xlink:href="#DejaVuSans-105"/>
      <use x="289.404297" xlink:href="#DejaVuSans-110"/>
      <use x="352.783203" xlink:href="#DejaVuSans-105"/>
      <use x="380.566406" xlink:href="#DejaVuSans-116"/>
      <use x="419.775391" xlink:href="#DejaVuSans-97"/>
      <use x="481.054688" xlink:href="#DejaVuSans-99"/>
     </g>
    </g>
   </g>
   <g id="matplotlib.axis_2">
    <g id="ytick_1">
     <g id="line2d_8">
      <defs>
       <path d="M 0 0 
L -3.5 0 
" id="md8af73f2ba" style="stroke:#000000;stroke-width:0.8;"/>
      </defs>
      <g>
       <use style="stroke:#000000;stroke-width:0.8;" x="57.6" xlink:href="#md8af73f2ba" y="174.528"/>
      </g>
     </g>
    </g>
   </g>
   <g id="line2d_9">
    <path clip-path="url(#pd0d4c0f439)" d="M 179.42989 174.528 
L 340.864838 174.528 
" style="fill:none;stroke:#ffa500;stroke-linecap:square;stroke-width:1.5;"/>
   </g>
   <g id="line2d_10">
    <path clip-path="url(#pd0d4c0f439)" d="M 213.834059 174.528 
L 266.76355 174.528 
" style="fill:none;stroke:#4c4c4c;stroke-linecap:square;stroke-width:4.5;"/>
   </g>
   <g id="line2d_11">
    <path clip-path="url(#pd0d4c0f439)" d="M 150.31867 174.528 
L 319.693041 174.528 
" style="fill:none;stroke:#008000;stroke-linecap:square;stroke-width:1.5;"/>
   </g>
   <g id="line2d_12">
    <path clip-path="url(#pd0d4c0f439)" d="M 208.54111 174.528 
L 253.531178 174.528 
" style="fill:none;stroke:#262626;stroke-linecap:square;stroke-width:4.5;"/>
   </g>
   <g id="patch_3">
    <path d="M 57.6 307.584 
L 57.6 41.472 
" style="fill:none;stroke:#000000;stroke-linecap:square;stroke-linejoin:miter;stroke-width:0.8;"/>
   </g>
   <g id="patch_4">
    <path d="M 414.72 307.584 
L 414.72 41.472 
" style="fill:none;stroke:#000000;stroke-linecap:square;stroke-linejoin:miter;stroke-width:0.8;"/>
   </g>
   <g id="patch_5">
    <path d="M 57.6 307.584 
L 414.72 307.584 
" style="fill:none;stroke:#000000;stroke-linecap:square;stroke-linejoin:miter;stroke-width:0.8;"/>
   </g>
   <g id="patch_6">
    <path d="M 57.6 41.472 
L 414.72 41.472 
" style="fill:none;stroke:#000000;stroke-linecap:square;stroke-linejoin:miter;stroke-width:0.8;"/>
   </g>
   <g id="PathCollection_1">
    <defs>
     <path d="M 0 1.5 
C 0.397805 1.5 0.77937 1.341951 1.06066 1.06066 
C 1.341951 0.77937 1.5 0.397805 1.5 0 
C 1.5 -0.397805 1.341951 -0.77937 1.06066 -1.06066 
C 0.77937 -1.341951 0.397805 -1.5 0 -1.5 
C -0.397805 -1.5 -0.77937 -1.341951 -1.06066 -1.06066 
C -1.341951 -0.77937 -1.5 -0.397805 -1.5 0 
C -1.5 0.397805 -1.341951 0.77937 -1.06066 1.06066 
C -0.77937 1.341951 -0.397805 1.5 0 1.5 
z
" id="m49a97cd947" style="stroke:#4c4c4c;stroke-opacity:0.5;"/>
    </defs>
    <g clip-path="url(#pd0d4c0f439)">
     <use style="fill:#ffffff;fill-opacity:0.5;stroke:#4c4c4c;stroke-opacity:0.5;" x="232.359381" xlink:href="#m49a97cd947" y="174.528"/>
    </g>
   </g>
   <g id="PathCollection_2">
    <defs>
     <path d="M 0 1.5 
C 0.397805 1.5 0.77937 1.341951 1.06066 1.06066 
C 1.341951 0.77937 1.5 0.397805 1.5 0 
C 1.5 -0.397805 1.341951 -0.77937 1.06066 -1.06066 
C 0.77937 -1.341951 0.397805 -1.5 0 -1.5 
C -0.397805 -1.5 -0.77937 -1.341951 -1.06066 -1.06066 
C -1.341951 -0.77937 -1.5 -0.397805 -1.5 0 
C -1.5 0.397805 -1.341951 0.77937 -1.06066 1.06066 
C -0.77937 1.341951 -0.397805 1.5 0 1.5 
z
" id="m6c39f349b7" style="stroke:#262626;stroke-opacity:0.5;"/>
    </defs>
    <g clip-path="url(#pd0d4c0f439)">
     <use style="fill:#ffffff;fill-opacity:0.5;stroke:#262626;stroke-opacity:0.5;" x="227.066432" xlink:href="#m6c39f349b7" y="174.528"/>
    </g>
   </g>
   <g id="text_9">
    <!-- Association of tempinitac vs. non_rebreather_mask -->
    <defs>
     <path d="M 34.1875 63.1875 
L 20.796875 26.90625 
L 47.609375 26.90625 
z
M 28.609375 72.90625 
L 39.796875 72.90625 
L 67.578125 0 
L 57.328125 0 
L 50.6875 18.703125 
L 17.828125 18.703125 
L 11.1875 0 
L 0.78125 0 
z
" id="DejaVuSans-65"/>
     <path d="M 44.28125 53.078125 
L 44.28125 44.578125 
Q 40.484375 46.53125 36.375 47.5 
Q 32.28125 48.484375 27.875 48.484375 
Q 21.1875 48.484375 17.84375 46.4375 
Q 14.5 44.390625 14.5 40.28125 
Q 14.5 37.15625 16.890625 35.375 
Q 19.28125 33.59375 26.515625 31.984375 
L 29.59375 31.296875 
Q 39.15625 29.25 43.1875 25.515625 
Q 47.21875 21.78125 47.21875 15.09375 
Q 47.21875 7.46875 41.1875 3.015625 
Q 35.15625 -1.421875 24.609375 -1.421875 
Q 20.21875 -1.421875 15.453125 -0.5625 
Q 10.6875 0.296875 5.421875 2 
L 5.421875 11.28125 
Q 10.40625 8.6875 15.234375 7.390625 
Q 20.0625 6.109375 24.8125 6.109375 
Q 31.15625 6.109375 34.5625 8.28125 
Q 37.984375 10.453125 37.984375 14.40625 
Q 37.984375 18.0625 35.515625 20.015625 
Q 33.0625 21.96875 24.703125 23.78125 
L 21.578125 24.515625 
Q 13.234375 26.265625 9.515625 29.90625 
Q 5.8125 33.546875 5.8125 39.890625 
Q 5.8125 47.609375 11.28125 51.796875 
Q 16.75 56 26.8125 56 
Q 31.78125 56 36.171875 55.265625 
Q 40.578125 54.546875 44.28125 53.078125 
z
" id="DejaVuSans-115"/>
     <path d="M 30.609375 48.390625 
Q 23.390625 48.390625 19.1875 42.75 
Q 14.984375 37.109375 14.984375 27.296875 
Q 14.984375 17.484375 19.15625 11.84375 
Q 23.34375 6.203125 30.609375 6.203125 
Q 37.796875 6.203125 41.984375 11.859375 
Q 46.1875 17.53125 46.1875 27.296875 
Q 46.1875 37.015625 41.984375 42.703125 
Q 37.796875 48.390625 30.609375 48.390625 
z
M 30.609375 56 
Q 42.328125 56 49.015625 48.375 
Q 55.71875 40.765625 55.71875 27.296875 
Q 55.71875 13.875 49.015625 6.21875 
Q 42.328125 -1.421875 30.609375 -1.421875 
Q 18.84375 -1.421875 12.171875 6.21875 
Q 5.515625 13.875 5.515625 27.296875 
Q 5.515625 40.765625 12.171875 48.375 
Q 18.84375 56 30.609375 56 
z
" id="DejaVuSans-111"/>
     <path id="DejaVuSans-32"/>
     <path d="M 37.109375 75.984375 
L 37.109375 68.5 
L 28.515625 68.5 
Q 23.6875 68.5 21.796875 66.546875 
Q 19.921875 64.59375 19.921875 59.515625 
L 19.921875 54.6875 
L 34.71875 54.6875 
L 34.71875 47.703125 
L 19.921875 47.703125 
L 19.921875 0 
L 10.890625 0 
L 10.890625 47.703125 
L 2.296875 47.703125 
L 2.296875 54.6875 
L 10.890625 54.6875 
L 10.890625 58.5 
Q 10.890625 67.625 15.140625 71.796875 
Q 19.390625 75.984375 28.609375 75.984375 
z
" id="DejaVuSans-102"/>
     <path d="M 2.984375 54.6875 
L 12.5 54.6875 
L 29.59375 8.796875 
L 46.6875 54.6875 
L 56.203125 54.6875 
L 35.6875 0 
L 23.484375 0 
z
" id="DejaVuSans-118"/>
     <path d="M 10.6875 12.40625 
L 21 12.40625 
L 21 0 
L 10.6875 0 
z
" id="DejaVuSans-46"/>
     <path d="M 50.984375 -16.609375 
L 50.984375 -23.578125 
L -0.984375 -23.578125 
L -0.984375 -16.609375 
z
" id="DejaVuSans-95"/>
     <path d="M 41.109375 46.296875 
Q 39.59375 47.171875 37.8125 47.578125 
Q 36.03125 48 33.890625 48 
Q 26.265625 48 22.1875 43.046875 
Q 18.109375 38.09375 18.109375 28.8125 
L 18.109375 0 
L 9.078125 0 
L 9.078125 54.6875 
L 18.109375 54.6875 
L 18.109375 46.1875 
Q 20.953125 51.171875 25.484375 53.578125 
Q 30.03125 56 36.53125 56 
Q 37.453125 56 38.578125 55.875 
Q 39.703125 55.765625 41.0625 55.515625 
z
" id="DejaVuSans-114"/>
     <path d="M 48.6875 27.296875 
Q 48.6875 37.203125 44.609375 42.84375 
Q 40.53125 48.484375 33.40625 48.484375 
Q 26.265625 48.484375 22.1875 42.84375 
Q 18.109375 37.203125 18.109375 27.296875 
Q 18.109375 17.390625 22.1875 11.75 
Q 26.265625 6.109375 33.40625 6.109375 
Q 40.53125 6.109375 44.609375 11.75 
Q 48.6875 17.390625 48.6875 27.296875 
z
M 18.109375 46.390625 
Q 20.953125 51.265625 25.265625 53.625 
Q 29.59375 56 35.59375 56 
Q 45.5625 56 51.78125 48.09375 
Q 58.015625 40.1875 58.015625 27.296875 
Q 58.015625 14.40625 51.78125 6.484375 
Q 45.5625 -1.421875 35.59375 -1.421875 
Q 29.59375 -1.421875 25.265625 0.953125 
Q 20.953125 3.328125 18.109375 8.203125 
L 18.109375 0 
L 9.078125 0 
L 9.078125 75.984375 
L 18.109375 75.984375 
z
" id="DejaVuSans-98"/>
     <path d="M 54.890625 33.015625 
L 54.890625 0 
L 45.90625 0 
L 45.90625 32.71875 
Q 45.90625 40.484375 42.875 44.328125 
Q 39.84375 48.1875 33.796875 48.1875 
Q 26.515625 48.1875 22.3125 43.546875 
Q 18.109375 38.921875 18.109375 30.90625 
L 18.109375 0 
L 9.078125 0 
L 9.078125 75.984375 
L 18.109375 75.984375 
L 18.109375 46.1875 
Q 21.34375 51.125 25.703125 53.5625 
Q 30.078125 56 35.796875 56 
Q 45.21875 56 50.046875 50.171875 
Q 54.890625 44.34375 54.890625 33.015625 
z
" id="DejaVuSans-104"/>
     <path d="M 9.078125 75.984375 
L 18.109375 75.984375 
L 18.109375 31.109375 
L 44.921875 54.6875 
L 56.390625 54.6875 
L 27.390625 29.109375 
L 57.625 0 
L 45.90625 0 
L 18.109375 26.703125 
L 18.109375 0 
L 9.078125 0 
z
" id="DejaVuSans-107"/>
    </defs>
    <g transform="translate(82.5975 35.472)scale(0.12 -0.12)">
     <use xlink:href="#DejaVuSans-65"/>
     <use x="68.408203" xlink:href="#DejaVuSans-115"/>
     <use x="120.507812" xlink:href="#DejaVuSans-115"/>
     <use x="172.607422" xlink:href="#DejaVuSans-111"/>
     <use x="233.789062" xlink:href="#DejaVuSans-99"/>
     <use x="288.769531" xlink:href="#DejaVuSans-105"/>
     <use x="316.552734" xlink:href="#DejaVuSans-97"/>
     <use x="377.832031" xlink:href="#DejaVuSans-116"/>
     <use x="417.041016" xlink:href="#DejaVuSans-105"/>
     <use x="444.824219" xlink:href="#DejaVuSans-111"/>
     <use x="506.005859" xlink:href="#DejaVuSans-110"/>
     <use x="569.384766" xlink:href="#DejaVuSans-32"/>
     <use x="601.171875" xlink:href="#DejaVuSans-111"/>
     <use x="662.353516" xlink:href="#DejaVuSans-102"/>
     <use x="697.558594" xlink:href="#DejaVuSans-32"/>
     <use x="729.345703" xlink:href="#DejaVuSans-116"/>
     <use x="768.554688" xlink:href="#DejaVuSans-101"/>
     <use x="830.078125" xlink:href="#DejaVuSans-109"/>
     <use x="927.490234" xlink:href="#DejaVuSans-112"/>
     <use x="990.966797" xlink:href="#DejaVuSans-105"/>
     <use x="1018.75" xlink:href="#DejaVuSans-110"/>
     <use x="1082.128906" xlink:href="#DejaVuSans-105"/>
     <use x="1109.912109" xlink:href="#DejaVuSans-116"/>
     <use x="1149.121094" xlink:href="#DejaVuSans-97"/>
     <use x="1210.400391" xlink:href="#DejaVuSans-99"/>
     <use x="1265.380859" xlink:href="#DejaVuSans-32"/>
     <use x="1297.167969" xlink:href="#DejaVuSans-118"/>
     <use x="1356.347656" xlink:href="#DejaVuSans-115"/>
     <use x="1408.447266" xlink:href="#DejaVuSans-46"/>
     <use x="1440.234375" xlink:href="#DejaVuSans-32"/>
     <use x="1472.021484" xlink:href="#DejaVuSans-110"/>
     <use x="1535.400391" xlink:href="#DejaVuSans-111"/>
     <use x="1596.582031" xlink:href="#DejaVuSans-110"/>
     <use x="1659.960938" xlink:href="#DejaVuSans-95"/>
     <use x="1709.960938" xlink:href="#DejaVuSans-114"/>
     <use x="1748.824219" xlink:href="#DejaVuSans-101"/>
     <use x="1810.347656" xlink:href="#DejaVuSans-98"/>
     <use x="1873.824219" xlink:href="#DejaVuSans-114"/>
     <use x="1912.6875" xlink:href="#DejaVuSans-101"/>
     <use x="1974.210938" xlink:href="#DejaVuSans-97"/>
     <use x="2035.490234" xlink:href="#DejaVuSans-116"/>
     <use x="2074.699219" xlink:href="#DejaVuSans-104"/>
     <use x="2138.078125" xlink:href="#DejaVuSans-101"/>
     <use x="2199.601562" xlink:href="#DejaVuSans-114"/>
     <use x="2240.714844" xlink:href="#DejaVuSans-95"/>
     <use x="2290.714844" xlink:href="#DejaVuSans-109"/>
     <use x="2388.126953" xlink:href="#DejaVuSans-97"/>
     <use x="2449.40625" xlink:href="#DejaVuSans-115"/>
     <use x="2501.505859" xlink:href="#DejaVuSans-107"/>
    </g>
   </g>
   <g id="legend_1">
    <g id="patch_7">
     <path d="M 216.21375 79.3845 
L 407.72 79.3845 
Q 409.72 79.3845 409.72 77.3845 
L 409.72 48.472 
Q 409.72 46.472 407.72 46.472 
L 216.21375 46.472 
Q 214.21375 46.472 214.21375 48.472 
L 214.21375 77.3845 
Q 214.21375 79.3845 216.21375 79.3845 
z
" style="fill:#ffffff;opacity:0.8;stroke:#cccccc;stroke-linejoin:miter;"/>
    </g>
    <g id="line2d_13">
     <path d="M 218.21375 54.570438 
L 238.21375 54.570438 
" style="fill:none;stroke:#ffa500;stroke-linecap:square;stroke-width:1.5;"/>
    </g>
    <g id="line2d_14"/>
    <g id="text_10">
     <!-- non_rebreather_mask (130) -->
     <defs>
      <path d="M 31 75.875 
Q 24.46875 64.65625 21.28125 53.65625 
Q 18.109375 42.671875 18.109375 31.390625 
Q 18.109375 20.125 21.3125 9.0625 
Q 24.515625 -2 31 -13.1875 
L 23.1875 -13.1875 
Q 15.875 -1.703125 12.234375 9.375 
Q 8.59375 20.453125 8.59375 31.390625 
Q 8.59375 42.28125 12.203125 53.3125 
Q 15.828125 64.359375 23.1875 75.875 
z
" id="DejaVuSans-40"/>
      <path d="M 40.578125 39.3125 
Q 47.65625 37.796875 51.625 33 
Q 55.609375 28.21875 55.609375 21.1875 
Q 55.609375 10.40625 48.1875 4.484375 
Q 40.765625 -1.421875 27.09375 -1.421875 
Q 22.515625 -1.421875 17.65625 -0.515625 
Q 12.796875 0.390625 7.625 2.203125 
L 7.625 11.71875 
Q 11.71875 9.328125 16.59375 8.109375 
Q 21.484375 6.890625 26.8125 6.890625 
Q 36.078125 6.890625 40.9375 10.546875 
Q 45.796875 14.203125 45.796875 21.1875 
Q 45.796875 27.640625 41.28125 31.265625 
Q 36.765625 34.90625 28.71875 34.90625 
L 20.21875 34.90625 
L 20.21875 43.015625 
L 29.109375 43.015625 
Q 36.375 43.015625 40.234375 45.921875 
Q 44.09375 48.828125 44.09375 54.296875 
Q 44.09375 59.90625 40.109375 62.90625 
Q 36.140625 65.921875 28.71875 65.921875 
Q 24.65625 65.921875 20.015625 65.03125 
Q 15.375 64.15625 9.8125 62.3125 
L 9.8125 71.09375 
Q 15.4375 72.65625 20.34375 73.4375 
Q 25.25 74.21875 29.59375 74.21875 
Q 40.828125 74.21875 47.359375 69.109375 
Q 53.90625 64.015625 53.90625 55.328125 
Q 53.90625 49.265625 50.4375 45.09375 
Q 46.96875 40.921875 40.578125 39.3125 
z
" id="DejaVuSans-51"/>
      <path d="M 8.015625 75.875 
L 15.828125 75.875 
Q 23.140625 64.359375 26.78125 53.3125 
Q 30.421875 42.28125 30.421875 31.390625 
Q 30.421875 20.453125 26.78125 9.375 
Q 23.140625 -1.703125 15.828125 -13.1875 
L 8.015625 -13.1875 
Q 14.5 -2 17.703125 9.0625 
Q 20.90625 20.125 20.90625 31.390625 
Q 20.90625 42.671875 17.703125 53.65625 
Q 14.5 64.65625 8.015625 75.875 
z
" id="DejaVuSans-41"/>
     </defs>
     <g transform="translate(246.21375 58.070438)scale(0.1 -0.1)">
      <use xlink:href="#DejaVuSans-110"/>
      <use x="63.378906" xlink:href="#DejaVuSans-111"/>
      <use x="124.560547" xlink:href="#DejaVuSans-110"/>
      <use x="187.939453" xlink:href="#DejaVuSans-95"/>
      <use x="237.939453" xlink:href="#DejaVuSans-114"/>
      <use x="276.802734" xlink:href="#DejaVuSans-101"/>
      <use x="338.326172" xlink:href="#DejaVuSans-98"/>
      <use x="401.802734" xlink:href="#DejaVuSans-114"/>
      <use x="440.666016" xlink:href="#DejaVuSans-101"/>
      <use x="502.189453" xlink:href="#DejaVuSans-97"/>
      <use x="563.46875" xlink:href="#DejaVuSans-116"/>
      <use x="602.677734" xlink:href="#DejaVuSans-104"/>
      <use x="666.056641" xlink:href="#DejaVuSans-101"/>
      <use x="727.580078" xlink:href="#DejaVuSans-114"/>
      <use x="768.693359" xlink:href="#DejaVuSans-95"/>
      <use x="818.693359" xlink:href="#DejaVuSans-109"/>
      <use x="916.105469" xlink:href="#DejaVuSans-97"/>
      <use x="977.384766" xlink:href="#DejaVuSans-115"/>
      <use x="1029.484375" xlink:href="#DejaVuSans-107"/>
      <use x="1087.394531" xlink:href="#DejaVuSans-32"/>
      <use x="1119.181641" xlink:href="#DejaVuSans-40"/>
      <use x="1158.195312" xlink:href="#DejaVuSans-49"/>
      <use x="1221.818359" xlink:href="#DejaVuSans-51"/>
      <use x="1285.441406" xlink:href="#DejaVuSans-48"/>
      <use x="1349.064453" xlink:href="#DejaVuSans-41"/>
     </g>
    </g>
    <g id="line2d_15">
     <path d="M 218.21375 69.526688 
L 238.21375 69.526688 
" style="fill:none;stroke:#008000;stroke-linecap:square;stroke-width:1.5;"/>
    </g>
    <g id="line2d_16"/>
    <g id="text_11">
     <!-- Not non_rebreather_mask (365) -->
     <defs>
      <path d="M 9.8125 72.90625 
L 23.09375 72.90625 
L 55.421875 11.921875 
L 55.421875 72.90625 
L 64.984375 72.90625 
L 64.984375 0 
L 51.703125 0 
L 19.390625 60.984375 
L 19.390625 0 
L 9.8125 0 
z
" id="DejaVuSans-78"/>
      <path d="M 10.796875 72.90625 
L 49.515625 72.90625 
L 49.515625 64.59375 
L 19.828125 64.59375 
L 19.828125 46.734375 
Q 21.96875 47.46875 24.109375 47.828125 
Q 26.265625 48.1875 28.421875 48.1875 
Q 40.625 48.1875 47.75 41.5 
Q 54.890625 34.8125 54.890625 23.390625 
Q 54.890625 11.625 47.5625 5.09375 
Q 40.234375 -1.421875 26.90625 -1.421875 
Q 22.3125 -1.421875 17.546875 -0.640625 
Q 12.796875 0.140625 7.71875 1.703125 
L 7.71875 11.625 
Q 12.109375 9.234375 16.796875 8.0625 
Q 21.484375 6.890625 26.703125 6.890625 
Q 35.15625 6.890625 40.078125 11.328125 
Q 45.015625 15.765625 45.015625 23.390625 
Q 45.015625 31 40.078125 35.4375 
Q 35.15625 39.890625 26.703125 39.890625 
Q 22.75 39.890625 18.8125 39.015625 
Q 14.890625 38.140625 10.796875 36.28125 
z
" id="DejaVuSans-53"/>
     </defs>
     <g transform="translate(246.21375 73.026688)scale(0.1 -0.1)">
      <use xlink:href="#DejaVuSans-78"/>
      <use x="74.804688" xlink:href="#DejaVuSans-111"/>
      <use x="135.986328" xlink:href="#DejaVuSans-116"/>
      <use x="175.195312" xlink:href="#DejaVuSans-32"/>
      <use x="206.982422" xlink:href="#DejaVuSans-110"/>
      <use x="270.361328" xlink:href="#DejaVuSans-111"/>
      <use x="331.542969" xlink:href="#DejaVuSans-110"/>
      <use x="394.921875" xlink:href="#DejaVuSans-95"/>
      <use x="444.921875" xlink:href="#DejaVuSans-114"/>
      <use x="483.785156" xlink:href="#DejaVuSans-101"/>
      <use x="545.308594" xlink:href="#DejaVuSans-98"/>
      <use x="608.785156" xlink:href="#DejaVuSans-114"/>
      <use x="647.648438" xlink:href="#DejaVuSans-101"/>
      <use x="709.171875" xlink:href="#DejaVuSans-97"/>
      <use x="770.451172" xlink:href="#DejaVuSans-116"/>
      <use x="809.660156" xlink:href="#DejaVuSans-104"/>
      <use x="873.039062" xlink:href="#DejaVuSans-101"/>
      <use x="934.5625" xlink:href="#DejaVuSans-114"/>
      <use x="975.675781" xlink:href="#DejaVuSans-95"/>
      <use x="1025.675781" xlink:href="#DejaVuSans-109"/>
      <use x="1123.087891" xlink:href="#DejaVuSans-97"/>
      <use x="1184.367188" xlink:href="#DejaVuSans-115"/>
      <use x="1236.466797" xlink:href="#DejaVuSans-107"/>
      <use x="1294.376953" xlink:href="#DejaVuSans-32"/>
      <use x="1326.164062" xlink:href="#DejaVuSans-40"/>
      <use x="1365.177734" xlink:href="#DejaVuSans-51"/>
      <use x="1428.800781" xlink:href="#DejaVuSans-54"/>
      <use x="1492.423828" xlink:href="#DejaVuSans-53"/>
      <use x="1556.046875" xlink:href="#DejaVuSans-41"/>
     </g>
    </g>
   </g>
  </g>
 </g>
 <defs>
  <clipPath id="pd0d4c0f439">
   <rect height="266.112" width="357.12" x="57.6" y="41.472"/>
  </clipPath>
 </defs>
</svg>
