<?xml version="1.0" encoding="utf-8" standalone="no"?>
<!DOCTYPE svg PUBLIC "-//W3C//DTD SVG 1.1//EN"
  "http://www.w3.org/Graphics/SVG/1.1/DTD/svg11.dtd">
<!-- Created with matplotlib (https://matplotlib.org/) -->
<svg height="345.6pt" version="1.1" viewBox="0 0 460.8 345.6" width="460.8pt" xmlns="http://www.w3.org/2000/svg" xmlns:xlink="http://www.w3.org/1999/xlink">
 <defs>
  <style type="text/css">
*{stroke-linecap:butt;stroke-linejoin:round;}
  </style>
 </defs>
 <g id="figure_1">
  <g id="patch_1">
   <path d="M 0 345.6 
L 460.8 345.6 
L 460.8 0 
L 0 0 
z
" style="fill:#ffffff;"/>
  </g>
  <g id="axes_1">
   <g id="patch_2">
    <path d="M 57.6 307.584 
L 414.72 307.584 
L 414.72 41.472 
L 57.6 41.472 
z
" style="fill:#ffffff;"/>
   </g>
   <g id="PolyCollection_1">
    <defs>
     <path d="M 92.417102 -159.477957 
L 92.417102 -182.666043 
L 93.968376 -184.421512 
L 95.519651 -186.372894 
L 97.070926 -188.529987 
L 98.6222 -190.901083 
L 100.173475 -193.492624 
L 101.72475 -196.30885 
L 103.276024 -199.351453 
L 104.827299 -202.619261 
L 106.378574 -206.10794 
L 107.929848 -209.809749 
L 109.481123 -213.713339 
L 111.032398 -217.803625 
L 112.583673 -222.061722 
L 114.134947 -226.464971 
L 115.686222 -230.987046 
L 117.237497 -235.598156 
L 118.788771 -240.265338 
L 120.340046 -244.952842 
L 121.891321 -249.622598 
L 123.442595 -254.234767 
L 124.99387 -258.748359 
L 126.545145 -263.121905 
L 128.096419 -267.314169 
L 129.647694 -271.284891 
L 131.198969 -274.995523 
L 132.750243 -278.409963 
L 134.301518 -281.495257 
L 135.852793 -284.22224 
L 137.404067 -286.566123 
L 138.955342 -288.506991 
L 140.506617 -290.030203 
L 142.057891 -291.126686 
L 143.609166 -291.793121 
L 145.160441 -292.032 
L 146.711715 -291.851563 
L 148.26299 -291.265622 
L 149.814265 -290.293259 
L 151.36554 -288.958425 
L 152.916814 -287.289435 
L 154.468089 -285.318378 
L 156.019364 -283.080455 
L 157.570638 -280.613264 
L 159.121913 -277.95604 
L 160.673188 -275.148875 
L 162.224462 -272.231935 
L 163.775737 -269.24469 
L 165.327012 -266.225172 
L 166.878286 -263.209283 
L 168.429561 -260.230162 
L 169.980836 -257.317627 
L 171.53211 -254.497708 
L 173.083385 -251.792274 
L 174.63466 -249.218758 
L 176.185934 -246.790003 
L 177.737209 -244.514209 
L 179.288484 -242.394993 
L 180.839758 -240.431557 
L 182.391033 -238.618957 
L 183.942308 -236.948462 
L 185.493583 -235.407995 
L 187.044857 -233.982646 
L 188.596132 -232.655232 
L 190.147407 -231.406899 
L 191.698681 -230.217741 
L 193.249956 -229.067423 
L 194.801231 -227.935786 
L 196.352505 -226.803429 
L 197.90378 -225.652233 
L 199.455055 -224.465832 
L 201.006329 -223.230011 
L 202.557604 -221.933026 
L 204.108879 -220.56583 
L 205.660153 -219.122222 
L 207.211428 -217.598893 
L 208.762703 -215.995398 
L 210.313977 -214.314037 
L 211.865252 -212.559669 
L 213.416527 -210.739459 
L 214.967801 -208.862576 
L 216.519076 -206.939849 
L 218.070351 -204.983396 
L 219.621625 -203.006247 
L 221.1729 -201.021954 
L 222.724175 -199.044223 
L 224.27545 -197.086564 
L 225.826724 -195.161971 
L 227.377999 -193.282643 
L 228.929274 -191.459746 
L 230.480548 -189.703223 
L 232.031823 -188.021654 
L 233.583098 -186.422165 
L 235.134372 -184.91038 
L 236.685647 -183.490419 
L 238.236922 -182.164935 
L 239.788196 -180.935188 
L 241.339471 -179.80114 
L 242.890746 -178.761577 
L 244.44202 -177.814246 
L 245.993295 -176.956006 
L 245.993295 -165.187994 
L 245.993295 -165.187994 
L 244.44202 -164.329754 
L 242.890746 -163.382423 
L 241.339471 -162.34286 
L 239.788196 -161.208812 
L 238.236922 -159.979065 
L 236.685647 -158.653581 
L 235.134372 -157.23362 
L 233.583098 -155.721835 
L 232.031823 -154.122346 
L 230.480548 -152.440777 
L 228.929274 -150.684254 
L 227.377999 -148.861357 
L 225.826724 -146.982029 
L 224.27545 -145.057436 
L 222.724175 -143.099777 
L 221.1729 -141.122046 
L 219.621625 -139.137753 
L 218.070351 -137.160604 
L 216.519076 -135.204151 
L 214.967801 -133.281424 
L 213.416527 -131.404541 
L 211.865252 -129.584331 
L 210.313977 -127.829963 
L 208.762703 -126.148602 
L 207.211428 -124.545107 
L 205.660153 -123.021778 
L 204.108879 -121.57817 
L 202.557604 -120.210974 
L 201.006329 -118.913989 
L 199.455055 -117.678168 
L 197.90378 -116.491767 
L 196.352505 -115.340571 
L 194.801231 -114.208214 
L 193.249956 -113.076577 
L 191.698681 -111.926259 
L 190.147407 -110.737101 
L 188.596132 -109.488768 
L 187.044857 -108.161354 
L 185.493583 -106.736005 
L 183.942308 -105.195538 
L 182.391033 -103.525043 
L 180.839758 -101.712443 
L 179.288484 -99.749007 
L 177.737209 -97.629791 
L 176.185934 -95.353997 
L 174.63466 -92.925242 
L 173.083385 -90.351726 
L 171.53211 -87.646292 
L 169.980836 -84.826373 
L 168.429561 -81.913838 
L 166.878286 -78.934717 
L 165.327012 -75.918828 
L 163.775737 -72.89931 
L 162.224462 -69.912065 
L 160.673188 -66.995125 
L 159.121913 -64.18796 
L 157.570638 -61.530736 
L 156.019364 -59.063545 
L 154.468089 -56.825622 
L 152.916814 -54.854565 
L 151.36554 -53.185575 
L 149.814265 -51.850741 
L 148.26299 -50.878378 
L 146.711715 -50.292437 
L 145.160441 -50.112 
L 143.609166 -50.350879 
L 142.057891 -51.017314 
L 140.506617 -52.113797 
L 138.955342 -53.637009 
L 137.404067 -55.577877 
L 135.852793 -57.92176 
L 134.301518 -60.648743 
L 132.750243 -63.734037 
L 131.198969 -67.148477 
L 129.647694 -70.859109 
L 128.096419 -74.829831 
L 126.545145 -79.022095 
L 124.99387 -83.395641 
L 123.442595 -87.909233 
L 121.891321 -92.521402 
L 120.340046 -97.191158 
L 118.788771 -101.878662 
L 117.237497 -106.545844 
L 115.686222 -111.156954 
L 114.134947 -115.679029 
L 112.583673 -120.082278 
L 111.032398 -124.340375 
L 109.481123 -128.430661 
L 107.929848 -132.334251 
L 106.378574 -136.03606 
L 104.827299 -139.524739 
L 103.276024 -142.792547 
L 101.72475 -145.83515 
L 100.173475 -148.651376 
L 98.6222 -151.242917 
L 97.070926 -153.614013 
L 95.519651 -155.771106 
L 93.968376 -157.722488 
L 92.417102 -159.477957 
z
" id="mc3c1f05184" style="stroke:#4c4c4c;stroke-opacity:0.5;stroke-width:1.5;"/>
    </defs>
    <g clip-path="url(#p1e7ae2b508)">
     <use style="fill:#df9c20;fill-opacity:0.5;stroke:#4c4c4c;stroke-opacity:0.5;stroke-width:1.5;" x="0" xlink:href="#mc3c1f05184" y="345.6"/>
    </g>
   </g>
   <g id="PolyCollection_2">
    <defs>
     <path d="M 73.832727 -164.619719 
L 73.832727 -177.524281 
L 77.112066 -179.59957 
L 80.391405 -182.177844 
L 83.670744 -185.325782 
L 86.950083 -189.10224 
L 90.229421 -193.552669 
L 93.50876 -198.703195 
L 96.788099 -204.554843 
L 100.067438 -211.078463 
L 103.346777 -218.210915 
L 106.626116 -225.853113 
L 109.905455 -233.870354 
L 113.184793 -242.095234 
L 116.464132 -250.333218 
L 119.743471 -258.370672 
L 123.02281 -265.984904 
L 126.302149 -272.955546 
L 129.581488 -279.076427 
L 132.860826 -284.167008 
L 136.140165 -288.082462 
L 139.419504 -290.721599 
L 142.698843 -292.032 
L 145.978182 -292.012013 
L 149.257521 -290.709523 
L 152.53686 -288.217684 
L 155.816198 -284.668066 
L 159.095537 -280.221845 
L 162.374876 -275.059792 
L 165.654215 -269.371847 
L 168.933554 -263.34705 
L 172.212893 -257.16448 
L 175.492231 -250.985743 
L 178.77157 -244.949337 
L 182.050909 -239.167096 
L 185.330248 -233.722677 
L 188.609587 -228.671971 
L 191.888926 -224.04513 
L 195.168264 -219.849867 
L 198.447603 -216.075602 
L 201.726942 -212.698043 
L 205.006281 -209.683789 
L 208.28562 -206.994619 
L 211.564959 -204.591181 
L 214.844298 -202.435899 
L 218.123636 -200.495003 
L 221.402975 -198.739674 
L 224.682314 -197.146386 
L 227.961653 -195.696581 
L 231.240992 -194.375866 
L 234.520331 -193.172933 
L 237.799669 -192.078409 
L 241.079008 -191.083811 
L 244.358347 -190.180748 
L 247.637686 -189.360452 
L 250.917025 -188.613673 
L 254.196364 -187.930925 
L 257.475702 -187.303011 
L 260.755041 -186.721755 
L 264.03438 -186.180811 
L 267.313719 -185.676464 
L 270.593058 -185.208318 
L 273.872397 -184.77977 
L 277.151736 -184.398235 
L 280.431074 -184.075049 
L 283.710413 -183.825042 
L 286.989752 -183.665758 
L 290.269091 -183.616335 
L 293.54843 -183.696062 
L 296.827769 -183.922673 
L 300.107107 -184.310446 
L 303.386446 -184.868222 
L 306.665785 -185.597498 
L 309.945124 -186.490755 
L 313.224463 -187.530231 
L 316.503802 -188.68733 
L 319.78314 -189.922819 
L 323.062479 -191.187942 
L 326.341818 -192.426471 
L 329.621157 -193.577625 
L 332.900496 -194.579685 
L 336.179835 -195.374019 
L 339.459174 -195.909183 
L 342.738512 -196.14469 
L 346.017851 -196.054089 
L 349.29719 -195.627006 
L 352.576529 -194.869956 
L 355.855868 -193.805814 
L 359.135207 -192.472013 
L 362.414545 -190.917657 
L 365.693884 -189.199864 
L 368.973223 -187.379698 
L 372.252562 -185.518107 
L 375.531901 -183.672212 
L 378.81124 -181.892272 
L 382.090579 -180.219495 
L 385.369917 -178.684815 
L 388.649256 -177.308584 
L 391.928595 -176.101089 
L 395.207934 -175.063703 
L 398.487273 -174.190464 
L 398.487273 -167.953536 
L 398.487273 -167.953536 
L 395.207934 -167.080297 
L 391.928595 -166.042911 
L 388.649256 -164.835416 
L 385.369917 -163.459185 
L 382.090579 -161.924505 
L 378.81124 -160.251728 
L 375.531901 -158.471788 
L 372.252562 -156.625893 
L 368.973223 -154.764302 
L 365.693884 -152.944136 
L 362.414545 -151.226343 
L 359.135207 -149.671987 
L 355.855868 -148.338186 
L 352.576529 -147.274044 
L 349.29719 -146.516994 
L 346.017851 -146.089911 
L 342.738512 -145.99931 
L 339.459174 -146.234817 
L 336.179835 -146.769981 
L 332.900496 -147.564315 
L 329.621157 -148.566375 
L 326.341818 -149.717529 
L 323.062479 -150.956058 
L 319.78314 -152.221181 
L 316.503802 -153.45667 
L 313.224463 -154.613769 
L 309.945124 -155.653245 
L 306.665785 -156.546502 
L 303.386446 -157.275778 
L 300.107107 -157.833554 
L 296.827769 -158.221327 
L 293.54843 -158.447938 
L 290.269091 -158.527665 
L 286.989752 -158.478242 
L 283.710413 -158.318958 
L 280.431074 -158.068951 
L 277.151736 -157.745765 
L 273.872397 -157.36423 
L 270.593058 -156.935682 
L 267.313719 -156.467536 
L 264.03438 -155.963189 
L 260.755041 -155.422245 
L 257.475702 -154.840989 
L 254.196364 -154.213075 
L 250.917025 -153.530327 
L 247.637686 -152.783548 
L 244.358347 -151.963252 
L 241.079008 -151.060189 
L 237.799669 -150.065591 
L 234.520331 -148.971067 
L 231.240992 -147.768134 
L 227.961653 -146.447419 
L 224.682314 -144.997614 
L 221.402975 -143.404326 
L 218.123636 -141.648997 
L 214.844298 -139.708101 
L 211.564959 -137.552819 
L 208.28562 -135.149381 
L 205.006281 -132.460211 
L 201.726942 -129.445957 
L 198.447603 -126.068398 
L 195.168264 -122.294133 
L 191.888926 -118.09887 
L 188.609587 -113.472029 
L 185.330248 -108.421323 
L 182.050909 -102.976904 
L 178.77157 -97.194663 
L 175.492231 -91.158257 
L 172.212893 -84.97952 
L 168.933554 -78.79695 
L 165.654215 -72.772153 
L 162.374876 -67.084208 
L 159.095537 -61.922155 
L 155.816198 -57.475934 
L 152.53686 -53.926316 
L 149.257521 -51.434477 
L 145.978182 -50.131987 
L 142.698843 -50.112 
L 139.419504 -51.422401 
L 136.140165 -54.061538 
L 132.860826 -57.976992 
L 129.581488 -63.067573 
L 126.302149 -69.188454 
L 123.02281 -76.159096 
L 119.743471 -83.773328 
L 116.464132 -91.810782 
L 113.184793 -100.048766 
L 109.905455 -108.273646 
L 106.626116 -116.290887 
L 103.346777 -123.933085 
L 100.067438 -131.065537 
L 96.788099 -137.589157 
L 93.50876 -143.440805 
L 90.229421 -148.591331 
L 86.950083 -153.04176 
L 83.670744 -156.818218 
L 80.391405 -159.966156 
L 77.112066 -162.54443 
L 73.832727 -164.619719 
z
" id="m18958b90cb" style="stroke:#262626;stroke-opacity:0.5;stroke-width:1.5;"/>
    </defs>
    <g clip-path="url(#p1e7ae2b508)">
     <use style="fill:#107010;fill-opacity:0.5;stroke:#262626;stroke-opacity:0.5;stroke-width:1.5;" x="0" xlink:href="#m18958b90cb" y="345.6"/>
    </g>
   </g>
   <g id="matplotlib.axis_1">
    <g id="xtick_1">
     <g id="line2d_1">
      <defs>
       <path d="M 0 0 
L 0 3.5 
" id="m9e213a482d" style="stroke:#000000;stroke-width:0.8;"/>
      </defs>
      <g>
       <use style="stroke:#000000;stroke-width:0.8;" x="66.107237" xlink:href="#m9e213a482d" y="307.584"/>
      </g>
     </g>
     <g id="text_1">
      <!-- −5 -->
      <defs>
       <path d="M 10.59375 35.5 
L 73.1875 35.5 
L 73.1875 27.203125 
L 10.59375 27.203125 
z
" id="DejaVuSans-8722"/>
       <path d="M 10.796875 72.90625 
L 49.515625 72.90625 
L 49.515625 64.59375 
L 19.828125 64.59375 
L 19.828125 46.734375 
Q 21.96875 47.46875 24.109375 47.828125 
Q 26.265625 48.1875 28.421875 48.1875 
Q 40.625 48.1875 47.75 41.5 
Q 54.890625 34.8125 54.890625 23.390625 
Q 54.890625 11.625 47.5625 5.09375 
Q 40.234375 -1.421875 26.90625 -1.421875 
Q 22.3125 -1.421875 17.546875 -0.640625 
Q 12.796875 0.140625 7.71875 1.703125 
L 7.71875 11.625 
Q 12.109375 9.234375 16.796875 8.0625 
Q 21.484375 6.890625 26.703125 6.890625 
Q 35.15625 6.890625 40.078125 11.328125 
Q 45.015625 15.765625 45.015625 23.390625 
Q 45.015625 31 40.078125 35.4375 
Q 35.15625 39.890625 26.703125 39.890625 
Q 22.75 39.890625 18.8125 39.015625 
Q 14.890625 38.140625 10.796875 36.28125 
z
" id="DejaVuSans-53"/>
      </defs>
      <g transform="translate(58.736144 322.182437)scale(0.1 -0.1)">
       <use xlink:href="#DejaVuSans-8722"/>
       <use x="83.789062" xlink:href="#DejaVuSans-53"/>
      </g>
     </g>
    </g>
    <g id="xtick_2">
     <g id="line2d_2">
      <g>
       <use style="stroke:#000000;stroke-width:0.8;" x="122.230243" xlink:href="#m9e213a482d" y="307.584"/>
      </g>
     </g>
     <g id="text_2">
      <!-- 0 -->
      <defs>
       <path d="M 31.78125 66.40625 
Q 24.171875 66.40625 20.328125 58.90625 
Q 16.5 51.421875 16.5 36.375 
Q 16.5 21.390625 20.328125 13.890625 
Q 24.171875 6.390625 31.78125 6.390625 
Q 39.453125 6.390625 43.28125 13.890625 
Q 47.125 21.390625 47.125 36.375 
Q 47.125 51.421875 43.28125 58.90625 
Q 39.453125 66.40625 31.78125 66.40625 
z
M 31.78125 74.21875 
Q 44.046875 74.21875 50.515625 64.515625 
Q 56.984375 54.828125 56.984375 36.375 
Q 56.984375 17.96875 50.515625 8.265625 
Q 44.046875 -1.421875 31.78125 -1.421875 
Q 19.53125 -1.421875 13.0625 8.265625 
Q 6.59375 17.96875 6.59375 36.375 
Q 6.59375 54.828125 13.0625 64.515625 
Q 19.53125 74.21875 31.78125 74.21875 
z
" id="DejaVuSans-48"/>
      </defs>
      <g transform="translate(119.048993 322.182437)scale(0.1 -0.1)">
       <use xlink:href="#DejaVuSans-48"/>
      </g>
     </g>
    </g>
    <g id="xtick_3">
     <g id="line2d_3">
      <g>
       <use style="stroke:#000000;stroke-width:0.8;" x="178.353248" xlink:href="#m9e213a482d" y="307.584"/>
      </g>
     </g>
     <g id="text_3">
      <!-- 5 -->
      <g transform="translate(175.171998 322.182437)scale(0.1 -0.1)">
       <use xlink:href="#DejaVuSans-53"/>
      </g>
     </g>
    </g>
    <g id="xtick_4">
     <g id="line2d_4">
      <g>
       <use style="stroke:#000000;stroke-width:0.8;" x="234.476254" xlink:href="#m9e213a482d" y="307.584"/>
      </g>
     </g>
     <g id="text_4">
      <!-- 10 -->
      <defs>
       <path d="M 12.40625 8.296875 
L 28.515625 8.296875 
L 28.515625 63.921875 
L 10.984375 60.40625 
L 10.984375 69.390625 
L 28.421875 72.90625 
L 38.28125 72.90625 
L 38.28125 8.296875 
L 54.390625 8.296875 
L 54.390625 0 
L 12.40625 0 
z
" id="DejaVuSans-49"/>
      </defs>
      <g transform="translate(228.113754 322.182437)scale(0.1 -0.1)">
       <use xlink:href="#DejaVuSans-49"/>
       <use x="63.623047" xlink:href="#DejaVuSans-48"/>
      </g>
     </g>
    </g>
    <g id="xtick_5">
     <g id="line2d_5">
      <g>
       <use style="stroke:#000000;stroke-width:0.8;" x="290.599259" xlink:href="#m9e213a482d" y="307.584"/>
      </g>
     </g>
     <g id="text_5">
      <!-- 15 -->
      <g transform="translate(284.236759 322.182437)scale(0.1 -0.1)">
       <use xlink:href="#DejaVuSans-49"/>
       <use x="63.623047" xlink:href="#DejaVuSans-53"/>
      </g>
     </g>
    </g>
    <g id="xtick_6">
     <g id="line2d_6">
      <g>
       <use style="stroke:#000000;stroke-width:0.8;" x="346.722265" xlink:href="#m9e213a482d" y="307.584"/>
      </g>
     </g>
     <g id="text_6">
      <!-- 20 -->
      <defs>
       <path d="M 19.1875 8.296875 
L 53.609375 8.296875 
L 53.609375 0 
L 7.328125 0 
L 7.328125 8.296875 
Q 12.9375 14.109375 22.625 23.890625 
Q 32.328125 33.6875 34.8125 36.53125 
Q 39.546875 41.84375 41.421875 45.53125 
Q 43.3125 49.21875 43.3125 52.78125 
Q 43.3125 58.59375 39.234375 62.25 
Q 35.15625 65.921875 28.609375 65.921875 
Q 23.96875 65.921875 18.8125 64.3125 
Q 13.671875 62.703125 7.8125 59.421875 
L 7.8125 69.390625 
Q 13.765625 71.78125 18.9375 73 
Q 24.125 74.21875 28.421875 74.21875 
Q 39.75 74.21875 46.484375 68.546875 
Q 53.21875 62.890625 53.21875 53.421875 
Q 53.21875 48.921875 51.53125 44.890625 
Q 49.859375 40.875 45.40625 35.40625 
Q 44.1875 33.984375 37.640625 27.21875 
Q 31.109375 20.453125 19.1875 8.296875 
z
" id="DejaVuSans-50"/>
      </defs>
      <g transform="translate(340.359765 322.182437)scale(0.1 -0.1)">
       <use xlink:href="#DejaVuSans-50"/>
       <use x="63.623047" xlink:href="#DejaVuSans-48"/>
      </g>
     </g>
    </g>
    <g id="xtick_7">
     <g id="line2d_7">
      <g>
       <use style="stroke:#000000;stroke-width:0.8;" x="402.84527" xlink:href="#m9e213a482d" y="307.584"/>
      </g>
     </g>
     <g id="text_7">
      <!-- 25 -->
      <g transform="translate(396.48277 322.182437)scale(0.1 -0.1)">
       <use xlink:href="#DejaVuSans-50"/>
       <use x="63.623047" xlink:href="#DejaVuSans-53"/>
      </g>
     </g>
    </g>
    <g id="text_8">
     <!-- ddimerpeakac -->
     <defs>
      <path d="M 45.40625 46.390625 
L 45.40625 75.984375 
L 54.390625 75.984375 
L 54.390625 0 
L 45.40625 0 
L 45.40625 8.203125 
Q 42.578125 3.328125 38.25 0.953125 
Q 33.9375 -1.421875 27.875 -1.421875 
Q 17.96875 -1.421875 11.734375 6.484375 
Q 5.515625 14.40625 5.515625 27.296875 
Q 5.515625 40.1875 11.734375 48.09375 
Q 17.96875 56 27.875 56 
Q 33.9375 56 38.25 53.625 
Q 42.578125 51.265625 45.40625 46.390625 
z
M 14.796875 27.296875 
Q 14.796875 17.390625 18.875 11.75 
Q 22.953125 6.109375 30.078125 6.109375 
Q 37.203125 6.109375 41.296875 11.75 
Q 45.40625 17.390625 45.40625 27.296875 
Q 45.40625 37.203125 41.296875 42.84375 
Q 37.203125 48.484375 30.078125 48.484375 
Q 22.953125 48.484375 18.875 42.84375 
Q 14.796875 37.203125 14.796875 27.296875 
z
" id="DejaVuSans-100"/>
      <path d="M 9.421875 54.6875 
L 18.40625 54.6875 
L 18.40625 0 
L 9.421875 0 
z
M 9.421875 75.984375 
L 18.40625 75.984375 
L 18.40625 64.59375 
L 9.421875 64.59375 
z
" id="DejaVuSans-105"/>
      <path d="M 52 44.1875 
Q 55.375 50.25 60.0625 53.125 
Q 64.75 56 71.09375 56 
Q 79.640625 56 84.28125 50.015625 
Q 88.921875 44.046875 88.921875 33.015625 
L 88.921875 0 
L 79.890625 0 
L 79.890625 32.71875 
Q 79.890625 40.578125 77.09375 44.375 
Q 74.3125 48.1875 68.609375 48.1875 
Q 61.625 48.1875 57.5625 43.546875 
Q 53.515625 38.921875 53.515625 30.90625 
L 53.515625 0 
L 44.484375 0 
L 44.484375 32.71875 
Q 44.484375 40.625 41.703125 44.40625 
Q 38.921875 48.1875 33.109375 48.1875 
Q 26.21875 48.1875 22.15625 43.53125 
Q 18.109375 38.875 18.109375 30.90625 
L 18.109375 0 
L 9.078125 0 
L 9.078125 54.6875 
L 18.109375 54.6875 
L 18.109375 46.1875 
Q 21.1875 51.21875 25.484375 53.609375 
Q 29.78125 56 35.6875 56 
Q 41.65625 56 45.828125 52.96875 
Q 50 49.953125 52 44.1875 
z
" id="DejaVuSans-109"/>
      <path d="M 56.203125 29.59375 
L 56.203125 25.203125 
L 14.890625 25.203125 
Q 15.484375 15.921875 20.484375 11.0625 
Q 25.484375 6.203125 34.421875 6.203125 
Q 39.59375 6.203125 44.453125 7.46875 
Q 49.3125 8.734375 54.109375 11.28125 
L 54.109375 2.78125 
Q 49.265625 0.734375 44.1875 -0.34375 
Q 39.109375 -1.421875 33.890625 -1.421875 
Q 20.796875 -1.421875 13.15625 6.1875 
Q 5.515625 13.8125 5.515625 26.8125 
Q 5.515625 40.234375 12.765625 48.109375 
Q 20.015625 56 32.328125 56 
Q 43.359375 56 49.78125 48.890625 
Q 56.203125 41.796875 56.203125 29.59375 
z
M 47.21875 32.234375 
Q 47.125 39.59375 43.09375 43.984375 
Q 39.0625 48.390625 32.421875 48.390625 
Q 24.90625 48.390625 20.390625 44.140625 
Q 15.875 39.890625 15.1875 32.171875 
z
" id="DejaVuSans-101"/>
      <path d="M 41.109375 46.296875 
Q 39.59375 47.171875 37.8125 47.578125 
Q 36.03125 48 33.890625 48 
Q 26.265625 48 22.1875 43.046875 
Q 18.109375 38.09375 18.109375 28.8125 
L 18.109375 0 
L 9.078125 0 
L 9.078125 54.6875 
L 18.109375 54.6875 
L 18.109375 46.1875 
Q 20.953125 51.171875 25.484375 53.578125 
Q 30.03125 56 36.53125 56 
Q 37.453125 56 38.578125 55.875 
Q 39.703125 55.765625 41.0625 55.515625 
z
" id="DejaVuSans-114"/>
      <path d="M 18.109375 8.203125 
L 18.109375 -20.796875 
L 9.078125 -20.796875 
L 9.078125 54.6875 
L 18.109375 54.6875 
L 18.109375 46.390625 
Q 20.953125 51.265625 25.265625 53.625 
Q 29.59375 56 35.59375 56 
Q 45.5625 56 51.78125 48.09375 
Q 58.015625 40.1875 58.015625 27.296875 
Q 58.015625 14.40625 51.78125 6.484375 
Q 45.5625 -1.421875 35.59375 -1.421875 
Q 29.59375 -1.421875 25.265625 0.953125 
Q 20.953125 3.328125 18.109375 8.203125 
z
M 48.6875 27.296875 
Q 48.6875 37.203125 44.609375 42.84375 
Q 40.53125 48.484375 33.40625 48.484375 
Q 26.265625 48.484375 22.1875 42.84375 
Q 18.109375 37.203125 18.109375 27.296875 
Q 18.109375 17.390625 22.1875 11.75 
Q 26.265625 6.109375 33.40625 6.109375 
Q 40.53125 6.109375 44.609375 11.75 
Q 48.6875 17.390625 48.6875 27.296875 
z
" id="DejaVuSans-112"/>
      <path d="M 34.28125 27.484375 
Q 23.390625 27.484375 19.1875 25 
Q 14.984375 22.515625 14.984375 16.5 
Q 14.984375 11.71875 18.140625 8.90625 
Q 21.296875 6.109375 26.703125 6.109375 
Q 34.1875 6.109375 38.703125 11.40625 
Q 43.21875 16.703125 43.21875 25.484375 
L 43.21875 27.484375 
z
M 52.203125 31.203125 
L 52.203125 0 
L 43.21875 0 
L 43.21875 8.296875 
Q 40.140625 3.328125 35.546875 0.953125 
Q 30.953125 -1.421875 24.3125 -1.421875 
Q 15.921875 -1.421875 10.953125 3.296875 
Q 6 8.015625 6 15.921875 
Q 6 25.140625 12.171875 29.828125 
Q 18.359375 34.515625 30.609375 34.515625 
L 43.21875 34.515625 
L 43.21875 35.40625 
Q 43.21875 41.609375 39.140625 45 
Q 35.0625 48.390625 27.6875 48.390625 
Q 23 48.390625 18.546875 47.265625 
Q 14.109375 46.140625 10.015625 43.890625 
L 10.015625 52.203125 
Q 14.9375 54.109375 19.578125 55.046875 
Q 24.21875 56 28.609375 56 
Q 40.484375 56 46.34375 49.84375 
Q 52.203125 43.703125 52.203125 31.203125 
z
" id="DejaVuSans-97"/>
      <path d="M 9.078125 75.984375 
L 18.109375 75.984375 
L 18.109375 31.109375 
L 44.921875 54.6875 
L 56.390625 54.6875 
L 27.390625 29.109375 
L 57.625 0 
L 45.90625 0 
L 18.109375 26.703125 
L 18.109375 0 
L 9.078125 0 
z
" id="DejaVuSans-107"/>
      <path d="M 48.78125 52.59375 
L 48.78125 44.1875 
Q 44.96875 46.296875 41.140625 47.34375 
Q 37.3125 48.390625 33.40625 48.390625 
Q 24.65625 48.390625 19.8125 42.84375 
Q 14.984375 37.3125 14.984375 27.296875 
Q 14.984375 17.28125 19.8125 11.734375 
Q 24.65625 6.203125 33.40625 6.203125 
Q 37.3125 6.203125 41.140625 7.25 
Q 44.96875 8.296875 48.78125 10.40625 
L 48.78125 2.09375 
Q 45.015625 0.34375 40.984375 -0.53125 
Q 36.96875 -1.421875 32.421875 -1.421875 
Q 20.0625 -1.421875 12.78125 6.34375 
Q 5.515625 14.109375 5.515625 27.296875 
Q 5.515625 40.671875 12.859375 48.328125 
Q 20.21875 56 33.015625 56 
Q 37.15625 56 41.109375 55.140625 
Q 45.0625 54.296875 48.78125 52.59375 
z
" id="DejaVuSans-99"/>
     </defs>
     <g transform="translate(200.484219 335.860562)scale(0.1 -0.1)">
      <use xlink:href="#DejaVuSans-100"/>
      <use x="63.476562" xlink:href="#DejaVuSans-100"/>
      <use x="126.953125" xlink:href="#DejaVuSans-105"/>
      <use x="154.736328" xlink:href="#DejaVuSans-109"/>
      <use x="252.148438" xlink:href="#DejaVuSans-101"/>
      <use x="313.671875" xlink:href="#DejaVuSans-114"/>
      <use x="354.785156" xlink:href="#DejaVuSans-112"/>
      <use x="418.261719" xlink:href="#DejaVuSans-101"/>
      <use x="479.785156" xlink:href="#DejaVuSans-97"/>
      <use x="541.064453" xlink:href="#DejaVuSans-107"/>
      <use x="597.224609" xlink:href="#DejaVuSans-97"/>
      <use x="658.503906" xlink:href="#DejaVuSans-99"/>
     </g>
    </g>
   </g>
   <g id="matplotlib.axis_2">
    <g id="ytick_1">
     <g id="line2d_8">
      <defs>
       <path d="M 0 0 
L -3.5 0 
" id="m67bb0b0f07" style="stroke:#000000;stroke-width:0.8;"/>
      </defs>
      <g>
       <use style="stroke:#000000;stroke-width:0.8;" x="57.6" xlink:href="#m67bb0b0f07" y="174.528"/>
      </g>
     </g>
    </g>
   </g>
   <g id="line2d_9">
    <path clip-path="url(#p1e7ae2b508)" d="M 137.383454 174.528 
L 201.026942 174.528 
" style="fill:none;stroke:#ffa500;stroke-linecap:square;stroke-width:1.5;"/>
   </g>
   <g id="line2d_10">
    <path clip-path="url(#p1e7ae2b508)" d="M 138.477853 174.528 
L 168.952645 174.528 
" style="fill:none;stroke:#4c4c4c;stroke-linecap:square;stroke-width:4.5;"/>
   </g>
   <g id="line2d_11">
    <path clip-path="url(#p1e7ae2b508)" d="M 125.597623 174.528 
L 295.987068 174.528 
" style="fill:none;stroke:#008000;stroke-linecap:square;stroke-width:1.5;"/>
   </g>
   <g id="line2d_12">
    <path clip-path="url(#p1e7ae2b508)" d="M 135.980379 174.528 
L 208.603548 174.528 
" style="fill:none;stroke:#262626;stroke-linecap:square;stroke-width:4.5;"/>
   </g>
   <g id="patch_3">
    <path d="M 57.6 307.584 
L 57.6 41.472 
" style="fill:none;stroke:#000000;stroke-linecap:square;stroke-linejoin:miter;stroke-width:0.8;"/>
   </g>
   <g id="patch_4">
    <path d="M 414.72 307.584 
L 414.72 41.472 
" style="fill:none;stroke:#000000;stroke-linecap:square;stroke-linejoin:miter;stroke-width:0.8;"/>
   </g>
   <g id="patch_5">
    <path d="M 57.6 307.584 
L 414.72 307.584 
" style="fill:none;stroke:#000000;stroke-linecap:square;stroke-linejoin:miter;stroke-width:0.8;"/>
   </g>
   <g id="patch_6">
    <path d="M 57.6 41.472 
L 414.72 41.472 
" style="fill:none;stroke:#000000;stroke-linecap:square;stroke-linejoin:miter;stroke-width:0.8;"/>
   </g>
   <g id="PathCollection_1">
    <defs>
     <path d="M 0 1.5 
C 0.397805 1.5 0.77937 1.341951 1.06066 1.06066 
C 1.341951 0.77937 1.5 0.397805 1.5 0 
C 1.5 -0.397805 1.341951 -0.77937 1.06066 -1.06066 
C 0.77937 -1.341951 0.397805 -1.5 0 -1.5 
C -0.397805 -1.5 -0.77937 -1.341951 -1.06066 -1.06066 
C -1.341951 -0.77937 -1.5 -0.397805 -1.5 0 
C -1.5 0.397805 -1.341951 0.77937 -1.06066 1.06066 
C -0.77937 1.341951 -0.397805 1.5 0 1.5 
z
" id="m041215e6d7" style="stroke:#4c4c4c;stroke-opacity:0.5;"/>
    </defs>
    <g clip-path="url(#p1e7ae2b508)">
     <use style="fill:#ffffff;fill-opacity:0.5;stroke:#4c4c4c;stroke-opacity:0.5;" x="148.551932" xlink:href="#m041215e6d7" y="174.528"/>
    </g>
   </g>
   <g id="PathCollection_2">
    <defs>
     <path d="M 0 1.5 
C 0.397805 1.5 0.77937 1.341951 1.06066 1.06066 
C 1.341951 0.77937 1.5 0.397805 1.5 0 
C 1.5 -0.397805 1.341951 -0.77937 1.06066 -1.06066 
C 0.77937 -1.341951 0.397805 -1.5 0 -1.5 
C -0.397805 -1.5 -0.77937 -1.341951 -1.06066 -1.06066 
C -1.341951 -0.77937 -1.5 -0.397805 -1.5 0 
C -1.5 0.397805 -1.341951 0.77937 -1.06066 1.06066 
C -0.77937 1.341951 -0.397805 1.5 0 1.5 
z
" id="ma2d4e4ab30" style="stroke:#262626;stroke-opacity:0.5;"/>
    </defs>
    <g clip-path="url(#p1e7ae2b508)">
     <use style="fill:#ffffff;fill-opacity:0.5;stroke:#262626;stroke-opacity:0.5;" x="153.883618" xlink:href="#ma2d4e4ab30" y="174.528"/>
    </g>
   </g>
   <g id="text_9">
    <!-- Association of ddimerpeakac vs. myocarditis -->
    <defs>
     <path d="M 34.1875 63.1875 
L 20.796875 26.90625 
L 47.609375 26.90625 
z
M 28.609375 72.90625 
L 39.796875 72.90625 
L 67.578125 0 
L 57.328125 0 
L 50.6875 18.703125 
L 17.828125 18.703125 
L 11.1875 0 
L 0.78125 0 
z
" id="DejaVuSans-65"/>
     <path d="M 44.28125 53.078125 
L 44.28125 44.578125 
Q 40.484375 46.53125 36.375 47.5 
Q 32.28125 48.484375 27.875 48.484375 
Q 21.1875 48.484375 17.84375 46.4375 
Q 14.5 44.390625 14.5 40.28125 
Q 14.5 37.15625 16.890625 35.375 
Q 19.28125 33.59375 26.515625 31.984375 
L 29.59375 31.296875 
Q 39.15625 29.25 43.1875 25.515625 
Q 47.21875 21.78125 47.21875 15.09375 
Q 47.21875 7.46875 41.1875 3.015625 
Q 35.15625 -1.421875 24.609375 -1.421875 
Q 20.21875 -1.421875 15.453125 -0.5625 
Q 10.6875 0.296875 5.421875 2 
L 5.421875 11.28125 
Q 10.40625 8.6875 15.234375 7.390625 
Q 20.0625 6.109375 24.8125 6.109375 
Q 31.15625 6.109375 34.5625 8.28125 
Q 37.984375 10.453125 37.984375 14.40625 
Q 37.984375 18.0625 35.515625 20.015625 
Q 33.0625 21.96875 24.703125 23.78125 
L 21.578125 24.515625 
Q 13.234375 26.265625 9.515625 29.90625 
Q 5.8125 33.546875 5.8125 39.890625 
Q 5.8125 47.609375 11.28125 51.796875 
Q 16.75 56 26.8125 56 
Q 31.78125 56 36.171875 55.265625 
Q 40.578125 54.546875 44.28125 53.078125 
z
" id="DejaVuSans-115"/>
     <path d="M 30.609375 48.390625 
Q 23.390625 48.390625 19.1875 42.75 
Q 14.984375 37.109375 14.984375 27.296875 
Q 14.984375 17.484375 19.15625 11.84375 
Q 23.34375 6.203125 30.609375 6.203125 
Q 37.796875 6.203125 41.984375 11.859375 
Q 46.1875 17.53125 46.1875 27.296875 
Q 46.1875 37.015625 41.984375 42.703125 
Q 37.796875 48.390625 30.609375 48.390625 
z
M 30.609375 56 
Q 42.328125 56 49.015625 48.375 
Q 55.71875 40.765625 55.71875 27.296875 
Q 55.71875 13.875 49.015625 6.21875 
Q 42.328125 -1.421875 30.609375 -1.421875 
Q 18.84375 -1.421875 12.171875 6.21875 
Q 5.515625 13.875 5.515625 27.296875 
Q 5.515625 40.765625 12.171875 48.375 
Q 18.84375 56 30.609375 56 
z
" id="DejaVuSans-111"/>
     <path d="M 18.3125 70.21875 
L 18.3125 54.6875 
L 36.8125 54.6875 
L 36.8125 47.703125 
L 18.3125 47.703125 
L 18.3125 18.015625 
Q 18.3125 11.328125 20.140625 9.421875 
Q 21.96875 7.515625 27.59375 7.515625 
L 36.8125 7.515625 
L 36.8125 0 
L 27.59375 0 
Q 17.1875 0 13.234375 3.875 
Q 9.28125 7.765625 9.28125 18.015625 
L 9.28125 47.703125 
L 2.6875 47.703125 
L 2.6875 54.6875 
L 9.28125 54.6875 
L 9.28125 70.21875 
z
" id="DejaVuSans-116"/>
     <path d="M 54.890625 33.015625 
L 54.890625 0 
L 45.90625 0 
L 45.90625 32.71875 
Q 45.90625 40.484375 42.875 44.328125 
Q 39.84375 48.1875 33.796875 48.1875 
Q 26.515625 48.1875 22.3125 43.546875 
Q 18.109375 38.921875 18.109375 30.90625 
L 18.109375 0 
L 9.078125 0 
L 9.078125 54.6875 
L 18.109375 54.6875 
L 18.109375 46.1875 
Q 21.34375 51.125 25.703125 53.5625 
Q 30.078125 56 35.796875 56 
Q 45.21875 56 50.046875 50.171875 
Q 54.890625 44.34375 54.890625 33.015625 
z
" id="DejaVuSans-110"/>
     <path id="DejaVuSans-32"/>
     <path d="M 37.109375 75.984375 
L 37.109375 68.5 
L 28.515625 68.5 
Q 23.6875 68.5 21.796875 66.546875 
Q 19.921875 64.59375 19.921875 59.515625 
L 19.921875 54.6875 
L 34.71875 54.6875 
L 34.71875 47.703125 
L 19.921875 47.703125 
L 19.921875 0 
L 10.890625 0 
L 10.890625 47.703125 
L 2.296875 47.703125 
L 2.296875 54.6875 
L 10.890625 54.6875 
L 10.890625 58.5 
Q 10.890625 67.625 15.140625 71.796875 
Q 19.390625 75.984375 28.609375 75.984375 
z
" id="DejaVuSans-102"/>
     <path d="M 2.984375 54.6875 
L 12.5 54.6875 
L 29.59375 8.796875 
L 46.6875 54.6875 
L 56.203125 54.6875 
L 35.6875 0 
L 23.484375 0 
z
" id="DejaVuSans-118"/>
     <path d="M 10.6875 12.40625 
L 21 12.40625 
L 21 0 
L 10.6875 0 
z
" id="DejaVuSans-46"/>
     <path d="M 32.171875 -5.078125 
Q 28.375 -14.84375 24.75 -17.8125 
Q 21.140625 -20.796875 15.09375 -20.796875 
L 7.90625 -20.796875 
L 7.90625 -13.28125 
L 13.1875 -13.28125 
Q 16.890625 -13.28125 18.9375 -11.515625 
Q 21 -9.765625 23.484375 -3.21875 
L 25.09375 0.875 
L 2.984375 54.6875 
L 12.5 54.6875 
L 29.59375 11.921875 
L 46.6875 54.6875 
L 56.203125 54.6875 
z
" id="DejaVuSans-121"/>
    </defs>
    <g transform="translate(102.166875 35.472)scale(0.12 -0.12)">
     <use xlink:href="#DejaVuSans-65"/>
     <use x="68.408203" xlink:href="#DejaVuSans-115"/>
     <use x="120.507812" xlink:href="#DejaVuSans-115"/>
     <use x="172.607422" xlink:href="#DejaVuSans-111"/>
     <use x="233.789062" xlink:href="#DejaVuSans-99"/>
     <use x="288.769531" xlink:href="#DejaVuSans-105"/>
     <use x="316.552734" xlink:href="#DejaVuSans-97"/>
     <use x="377.832031" xlink:href="#DejaVuSans-116"/>
     <use x="417.041016" xlink:href="#DejaVuSans-105"/>
     <use x="444.824219" xlink:href="#DejaVuSans-111"/>
     <use x="506.005859" xlink:href="#DejaVuSans-110"/>
     <use x="569.384766" xlink:href="#DejaVuSans-32"/>
     <use x="601.171875" xlink:href="#DejaVuSans-111"/>
     <use x="662.353516" xlink:href="#DejaVuSans-102"/>
     <use x="697.558594" xlink:href="#DejaVuSans-32"/>
     <use x="729.345703" xlink:href="#DejaVuSans-100"/>
     <use x="792.822266" xlink:href="#DejaVuSans-100"/>
     <use x="856.298828" xlink:href="#DejaVuSans-105"/>
     <use x="884.082031" xlink:href="#DejaVuSans-109"/>
     <use x="981.494141" xlink:href="#DejaVuSans-101"/>
     <use x="1043.017578" xlink:href="#DejaVuSans-114"/>
     <use x="1084.130859" xlink:href="#DejaVuSans-112"/>
     <use x="1147.607422" xlink:href="#DejaVuSans-101"/>
     <use x="1209.130859" xlink:href="#DejaVuSans-97"/>
     <use x="1270.410156" xlink:href="#DejaVuSans-107"/>
     <use x="1326.570312" xlink:href="#DejaVuSans-97"/>
     <use x="1387.849609" xlink:href="#DejaVuSans-99"/>
     <use x="1442.830078" xlink:href="#DejaVuSans-32"/>
     <use x="1474.617188" xlink:href="#DejaVuSans-118"/>
     <use x="1533.796875" xlink:href="#DejaVuSans-115"/>
     <use x="1585.896484" xlink:href="#DejaVuSans-46"/>
     <use x="1617.683594" xlink:href="#DejaVuSans-32"/>
     <use x="1649.470703" xlink:href="#DejaVuSans-109"/>
     <use x="1746.882812" xlink:href="#DejaVuSans-121"/>
     <use x="1806.0625" xlink:href="#DejaVuSans-111"/>
     <use x="1867.244141" xlink:href="#DejaVuSans-99"/>
     <use x="1922.224609" xlink:href="#DejaVuSans-97"/>
     <use x="1983.503906" xlink:href="#DejaVuSans-114"/>
     <use x="2022.867188" xlink:href="#DejaVuSans-100"/>
     <use x="2086.34375" xlink:href="#DejaVuSans-105"/>
     <use x="2114.126953" xlink:href="#DejaVuSans-116"/>
     <use x="2153.335938" xlink:href="#DejaVuSans-105"/>
     <use x="2181.119141" xlink:href="#DejaVuSans-115"/>
    </g>
   </g>
   <g id="legend_1">
    <g id="patch_7">
     <path d="M 266.577812 78.82825 
L 407.72 78.82825 
Q 409.72 78.82825 409.72 76.82825 
L 409.72 48.472 
Q 409.72 46.472 407.72 46.472 
L 266.577812 46.472 
Q 264.577812 46.472 264.577812 48.472 
L 264.577812 76.82825 
Q 264.577812 78.82825 266.577812 78.82825 
z
" style="fill:#ffffff;opacity:0.8;stroke:#cccccc;stroke-linejoin:miter;"/>
    </g>
    <g id="line2d_13">
     <path d="M 268.577812 54.570437 
L 288.577812 54.570437 
" style="fill:none;stroke:#ffa500;stroke-linecap:square;stroke-width:1.5;"/>
    </g>
    <g id="line2d_14"/>
    <g id="text_10">
     <!-- myocarditis (4) -->
     <defs>
      <path d="M 31 75.875 
Q 24.46875 64.65625 21.28125 53.65625 
Q 18.109375 42.671875 18.109375 31.390625 
Q 18.109375 20.125 21.3125 9.0625 
Q 24.515625 -2 31 -13.1875 
L 23.1875 -13.1875 
Q 15.875 -1.703125 12.234375 9.375 
Q 8.59375 20.453125 8.59375 31.390625 
Q 8.59375 42.28125 12.203125 53.3125 
Q 15.828125 64.359375 23.1875 75.875 
z
" id="DejaVuSans-40"/>
      <path d="M 37.796875 64.3125 
L 12.890625 25.390625 
L 37.796875 25.390625 
z
M 35.203125 72.90625 
L 47.609375 72.90625 
L 47.609375 25.390625 
L 58.015625 25.390625 
L 58.015625 17.1875 
L 47.609375 17.1875 
L 47.609375 0 
L 37.796875 0 
L 37.796875 17.1875 
L 4.890625 17.1875 
L 4.890625 26.703125 
z
" id="DejaVuSans-52"/>
      <path d="M 8.015625 75.875 
L 15.828125 75.875 
Q 23.140625 64.359375 26.78125 53.3125 
Q 30.421875 42.28125 30.421875 31.390625 
Q 30.421875 20.453125 26.78125 9.375 
Q 23.140625 -1.703125 15.828125 -13.1875 
L 8.015625 -13.1875 
Q 14.5 -2 17.703125 9.0625 
Q 20.90625 20.125 20.90625 31.390625 
Q 20.90625 42.671875 17.703125 53.65625 
Q 14.5 64.65625 8.015625 75.875 
z
" id="DejaVuSans-41"/>
     </defs>
     <g transform="translate(296.577812 58.070437)scale(0.1 -0.1)">
      <use xlink:href="#DejaVuSans-109"/>
      <use x="97.412109" xlink:href="#DejaVuSans-121"/>
      <use x="156.591797" xlink:href="#DejaVuSans-111"/>
      <use x="217.773438" xlink:href="#DejaVuSans-99"/>
      <use x="272.753906" xlink:href="#DejaVuSans-97"/>
      <use x="334.033203" xlink:href="#DejaVuSans-114"/>
      <use x="373.396484" xlink:href="#DejaVuSans-100"/>
      <use x="436.873047" xlink:href="#DejaVuSans-105"/>
      <use x="464.65625" xlink:href="#DejaVuSans-116"/>
      <use x="503.865234" xlink:href="#DejaVuSans-105"/>
      <use x="531.648438" xlink:href="#DejaVuSans-115"/>
      <use x="583.748047" xlink:href="#DejaVuSans-32"/>
      <use x="615.535156" xlink:href="#DejaVuSans-40"/>
      <use x="654.548828" xlink:href="#DejaVuSans-52"/>
      <use x="718.171875" xlink:href="#DejaVuSans-41"/>
     </g>
    </g>
    <g id="line2d_15">
     <path d="M 268.577812 69.248562 
L 288.577812 69.248562 
" style="fill:none;stroke:#008000;stroke-linecap:square;stroke-width:1.5;"/>
    </g>
    <g id="line2d_16"/>
    <g id="text_11">
     <!-- Not myocarditis (159) -->
     <defs>
      <path d="M 9.8125 72.90625 
L 23.09375 72.90625 
L 55.421875 11.921875 
L 55.421875 72.90625 
L 64.984375 72.90625 
L 64.984375 0 
L 51.703125 0 
L 19.390625 60.984375 
L 19.390625 0 
L 9.8125 0 
z
" id="DejaVuSans-78"/>
      <path d="M 10.984375 1.515625 
L 10.984375 10.5 
Q 14.703125 8.734375 18.5 7.8125 
Q 22.3125 6.890625 25.984375 6.890625 
Q 35.75 6.890625 40.890625 13.453125 
Q 46.046875 20.015625 46.78125 33.40625 
Q 43.953125 29.203125 39.59375 26.953125 
Q 35.25 24.703125 29.984375 24.703125 
Q 19.046875 24.703125 12.671875 31.3125 
Q 6.296875 37.9375 6.296875 49.421875 
Q 6.296875 60.640625 12.9375 67.421875 
Q 19.578125 74.21875 30.609375 74.21875 
Q 43.265625 74.21875 49.921875 64.515625 
Q 56.59375 54.828125 56.59375 36.375 
Q 56.59375 19.140625 48.40625 8.859375 
Q 40.234375 -1.421875 26.421875 -1.421875 
Q 22.703125 -1.421875 18.890625 -0.6875 
Q 15.09375 0.046875 10.984375 1.515625 
z
M 30.609375 32.421875 
Q 37.25 32.421875 41.125 36.953125 
Q 45.015625 41.5 45.015625 49.421875 
Q 45.015625 57.28125 41.125 61.84375 
Q 37.25 66.40625 30.609375 66.40625 
Q 23.96875 66.40625 20.09375 61.84375 
Q 16.21875 57.28125 16.21875 49.421875 
Q 16.21875 41.5 20.09375 36.953125 
Q 23.96875 32.421875 30.609375 32.421875 
z
" id="DejaVuSans-57"/>
     </defs>
     <g transform="translate(296.577812 72.748562)scale(0.1 -0.1)">
      <use xlink:href="#DejaVuSans-78"/>
      <use x="74.804688" xlink:href="#DejaVuSans-111"/>
      <use x="135.986328" xlink:href="#DejaVuSans-116"/>
      <use x="175.195312" xlink:href="#DejaVuSans-32"/>
      <use x="206.982422" xlink:href="#DejaVuSans-109"/>
      <use x="304.394531" xlink:href="#DejaVuSans-121"/>
      <use x="363.574219" xlink:href="#DejaVuSans-111"/>
      <use x="424.755859" xlink:href="#DejaVuSans-99"/>
      <use x="479.736328" xlink:href="#DejaVuSans-97"/>
      <use x="541.015625" xlink:href="#DejaVuSans-114"/>
      <use x="580.378906" xlink:href="#DejaVuSans-100"/>
      <use x="643.855469" xlink:href="#DejaVuSans-105"/>
      <use x="671.638672" xlink:href="#DejaVuSans-116"/>
      <use x="710.847656" xlink:href="#DejaVuSans-105"/>
      <use x="738.630859" xlink:href="#DejaVuSans-115"/>
      <use x="790.730469" xlink:href="#DejaVuSans-32"/>
      <use x="822.517578" xlink:href="#DejaVuSans-40"/>
      <use x="861.53125" xlink:href="#DejaVuSans-49"/>
      <use x="925.154297" xlink:href="#DejaVuSans-53"/>
      <use x="988.777344" xlink:href="#DejaVuSans-57"/>
      <use x="1052.400391" xlink:href="#DejaVuSans-41"/>
     </g>
    </g>
   </g>
  </g>
 </g>
 <defs>
  <clipPath id="p1e7ae2b508">
   <rect height="266.112" width="357.12" x="57.6" y="41.472"/>
  </clipPath>
 </defs>
</svg>
