<?xml version="1.0" encoding="utf-8" standalone="no"?>
<!DOCTYPE svg PUBLIC "-//W3C//DTD SVG 1.1//EN"
  "http://www.w3.org/Graphics/SVG/1.1/DTD/svg11.dtd">
<!-- Created with matplotlib (https://matplotlib.org/) -->
<svg height="345.6pt" version="1.1" viewBox="0 0 460.8 345.6" width="460.8pt" xmlns="http://www.w3.org/2000/svg" xmlns:xlink="http://www.w3.org/1999/xlink">
 <defs>
  <style type="text/css">
*{stroke-linecap:butt;stroke-linejoin:round;}
  </style>
 </defs>
 <g id="figure_1">
  <g id="patch_1">
   <path d="M 0 345.6 
L 460.8 345.6 
L 460.8 0 
L 0 0 
z
" style="fill:#ffffff;"/>
  </g>
  <g id="axes_1">
   <g id="patch_2">
    <path d="M 57.6 307.584 
L 414.72 307.584 
L 414.72 41.472 
L 57.6 41.472 
z
" style="fill:#ffffff;"/>
   </g>
   <g id="PolyCollection_1">
    <defs>
     <path d="M 81.631017 -164.833549 
L 81.631017 -177.310451 
L 84.755989 -179.238906 
L 87.880961 -181.621125 
L 91.005934 -184.517644 
L 94.130906 -187.983526 
L 97.255878 -192.063886 
L 100.38085 -196.78902 
L 103.505822 -202.169486 
L 106.630794 -208.191512 
L 109.755766 -214.813189 
L 112.880739 -221.961895 
L 116.005711 -229.533373 
L 119.130683 -237.392779 
L 122.255655 -245.377887 
L 125.380627 -253.304457 
L 128.505599 -260.973586 
L 131.630571 -268.180644 
L 134.755544 -274.725243 
L 137.880516 -280.42155 
L 141.005488 -285.108174 
L 144.13046 -288.656873 
L 147.255432 -290.979408 
L 150.380404 -292.032 
L 153.505376 -291.817055 
L 156.630349 -290.382062 
L 159.755321 -287.815792 
L 162.880293 -284.242154 
L 166.005265 -279.812247 
L 169.130237 -274.695282 
L 172.255209 -269.069074 
L 175.380181 -263.110823 
L 178.505154 -256.988825 
L 181.630126 -250.855588 
L 184.755098 -244.842724 
L 187.88007 -239.05775 
L 191.005042 -233.582802 
L 194.130014 -228.475074 
L 197.254986 -223.768691 
L 200.379959 -219.477657 
L 203.504931 -215.599445 
L 206.629903 -212.118852 
L 209.754875 -209.011759 
L 212.879847 -206.248521 
L 216.004819 -203.796798 
L 219.129791 -201.623738 
L 222.254764 -199.6975 
L 225.379736 -197.988187 
L 228.504708 -196.468298 
L 231.62968 -195.112852 
L 234.754652 -193.899319 
L 237.879624 -192.807495 
L 241.004597 -191.81942 
L 244.129569 -190.919399 
L 247.254541 -190.094148 
L 250.379513 -189.333056 
L 253.504485 -188.628503 
L 256.629457 -187.976191 
L 259.754429 -187.375408 
L 262.879402 -186.82917 
L 266.004374 -186.344175 
L 269.129346 -185.930546 
L 272.254318 -185.601339 
L 275.37929 -185.371816 
L 278.504262 -185.258496 
L 281.629234 -185.278014 
L 284.754207 -185.445834 
L 287.879179 -185.774847 
L 291.004151 -186.273942 
L 294.129123 -186.946599 
L 297.254095 -187.789601 
L 300.379067 -188.791977 
L 303.504039 -189.934251 
L 306.629012 -191.18815 
L 309.753984 -192.516826 
L 312.878956 -193.875693 
L 316.003928 -195.213907 
L 319.1289 -196.476457 
L 322.253872 -197.606795 
L 325.378844 -198.549854 
L 328.503817 -199.255239 
L 331.628789 -199.680358 
L 334.753761 -199.793213 
L 337.878733 -199.574595 
L 341.003705 -199.019483 
L 344.128677 -198.137489 
L 347.253649 -196.952286 
L 350.378622 -195.500089 
L 353.503594 -193.827279 
L 356.628566 -191.987432 
L 359.753538 -190.037979 
L 362.87851 -188.036817 
L 366.003482 -186.039132 
L 369.128454 -184.09468 
L 372.253427 -182.245706 
L 375.378399 -180.525589 
L 378.503371 -178.958251 
L 381.628343 -177.558255 
L 384.753315 -176.331511 
L 387.878287 -175.276414 
L 391.003259 -174.385275 
L 391.003259 -167.758725 
L 391.003259 -167.758725 
L 387.878287 -166.867586 
L 384.753315 -165.812489 
L 381.628343 -164.585745 
L 378.503371 -163.185749 
L 375.378399 -161.618411 
L 372.253427 -159.898294 
L 369.128454 -158.04932 
L 366.003482 -156.104868 
L 362.87851 -154.107183 
L 359.753538 -152.106021 
L 356.628566 -150.156568 
L 353.503594 -148.316721 
L 350.378622 -146.643911 
L 347.253649 -145.191714 
L 344.128677 -144.006511 
L 341.003705 -143.124517 
L 337.878733 -142.569405 
L 334.753761 -142.350787 
L 331.628789 -142.463642 
L 328.503817 -142.888761 
L 325.378844 -143.594146 
L 322.253872 -144.537205 
L 319.1289 -145.667543 
L 316.003928 -146.930093 
L 312.878956 -148.268307 
L 309.753984 -149.627174 
L 306.629012 -150.95585 
L 303.504039 -152.209749 
L 300.379067 -153.352023 
L 297.254095 -154.354399 
L 294.129123 -155.197401 
L 291.004151 -155.870058 
L 287.879179 -156.369153 
L 284.754207 -156.698166 
L 281.629234 -156.865986 
L 278.504262 -156.885504 
L 275.37929 -156.772184 
L 272.254318 -156.542661 
L 269.129346 -156.213454 
L 266.004374 -155.799825 
L 262.879402 -155.31483 
L 259.754429 -154.768592 
L 256.629457 -154.167809 
L 253.504485 -153.515497 
L 250.379513 -152.810944 
L 247.254541 -152.049852 
L 244.129569 -151.224601 
L 241.004597 -150.32458 
L 237.879624 -149.336505 
L 234.754652 -148.244681 
L 231.62968 -147.031148 
L 228.504708 -145.675702 
L 225.379736 -144.155813 
L 222.254764 -142.4465 
L 219.129791 -140.520262 
L 216.004819 -138.347202 
L 212.879847 -135.895479 
L 209.754875 -133.132241 
L 206.629903 -130.025148 
L 203.504931 -126.544555 
L 200.379959 -122.666343 
L 197.254986 -118.375309 
L 194.130014 -113.668926 
L 191.005042 -108.561198 
L 187.88007 -103.08625 
L 184.755098 -97.301276 
L 181.630126 -91.288412 
L 178.505154 -85.155175 
L 175.380181 -79.033177 
L 172.255209 -73.074926 
L 169.130237 -67.448718 
L 166.005265 -62.331753 
L 162.880293 -57.901846 
L 159.755321 -54.328208 
L 156.630349 -51.761938 
L 153.505376 -50.326945 
L 150.380404 -50.112 
L 147.255432 -51.164592 
L 144.13046 -53.487127 
L 141.005488 -57.035826 
L 137.880516 -61.72245 
L 134.755544 -67.418757 
L 131.630571 -73.963356 
L 128.505599 -81.170414 
L 125.380627 -88.839543 
L 122.255655 -96.766113 
L 119.130683 -104.751221 
L 116.005711 -112.610627 
L 112.880739 -120.182105 
L 109.755766 -127.330811 
L 106.630794 -133.952488 
L 103.505822 -139.974514 
L 100.38085 -145.35498 
L 97.255878 -150.080114 
L 94.130906 -154.160474 
L 91.005934 -157.626356 
L 87.880961 -160.522875 
L 84.755989 -162.905094 
L 81.631017 -164.833549 
z
" id="ma1609cde77" style="stroke:#4c4c4c;stroke-opacity:0.5;stroke-width:1.5;"/>
    </defs>
    <g clip-path="url(#p2fb7a0aff7)">
     <use style="fill:#df9c20;fill-opacity:0.5;stroke:#4c4c4c;stroke-opacity:0.5;stroke-width:1.5;" x="0" xlink:href="#ma1609cde77" y="345.6"/>
    </g>
   </g>
   <g id="PolyCollection_2">
    <defs>
     <path d="M 73.832727 -163.290261 
L 73.832727 -178.853739 
L 77.112066 -180.944778 
L 80.391405 -183.455573 
L 83.670744 -186.429559 
L 86.950083 -189.903965 
L 90.229421 -193.906728 
L 93.50876 -198.453336 
L 96.788099 -203.543777 
L 100.067438 -209.159865 
L 103.346777 -215.26317 
L 106.626116 -221.79379 
L 109.905455 -228.670174 
L 113.184793 -235.790122 
L 116.464132 -243.033047 
L 119.743471 -250.263447 
L 123.02281 -257.335475 
L 126.302149 -264.098384 
L 129.581488 -270.402542 
L 132.860826 -276.105662 
L 136.140165 -281.078865 
L 139.419504 -285.212179 
L 142.698843 -288.419145 
L 145.978182 -290.640228 
L 149.257521 -291.84486 
L 152.53686 -292.032 
L 155.816198 -291.229232 
L 159.095537 -289.490518 
L 162.374876 -286.892788 
L 165.654215 -283.531642 
L 168.933554 -279.516457 
L 172.212893 -274.965222 
L 175.492231 -269.999419 
L 178.77157 -264.739211 
L 182.050909 -259.299197 
L 185.330248 -253.784889 
L 188.609587 -248.290048 
L 191.888926 -242.894907 
L 195.168264 -237.665291 
L 198.447603 -232.652558 
L 201.726942 -227.894255 
L 205.006281 -223.415352 
L 208.28562 -219.229884 
L 211.564959 -215.342841 
L 214.844298 -211.752139 
L 218.123636 -208.450516 
L 221.402975 -205.427247 
L 224.682314 -202.66958 
L 227.961653 -200.163837 
L 231.240992 -197.896177 
L 234.520331 -195.853037 
L 237.799669 -194.021301 
L 241.079008 -192.388275 
L 244.358347 -190.941546 
L 247.637686 -189.668815 
L 250.917025 -188.557771 
L 254.196364 -187.596078 
L 257.475702 -186.771487 
L 260.755041 -186.07209 
L 264.03438 -185.486684 
L 267.313719 -185.005198 
L 270.593058 -184.619118 
L 273.872397 -184.321828 
L 277.151736 -184.108807 
L 280.431074 -183.977607 
L 283.710413 -183.927589 
L 286.989752 -183.959389 
L 290.269091 -184.074164 
L 293.54843 -184.272637 
L 296.827769 -184.554065 
L 300.107107 -184.915193 
L 303.386446 -185.349344 
L 306.665785 -185.845726 
L 309.945124 -186.389071 
L 313.224463 -186.959672 
L 316.503802 -187.533844 
L 319.78314 -188.084804 
L 323.062479 -188.583925 
L 326.341818 -189.002261 
L 329.621157 -189.312237 
L 332.900496 -189.489346 
L 336.179835 -189.513721 
L 339.459174 -189.37144 
L 342.738512 -189.055447 
L 346.017851 -188.566024 
L 349.29719 -187.910765 
L 352.576529 -187.104069 
L 355.855868 -186.166203 
L 359.135207 -185.122027 
L 362.414545 -183.999481 
L 365.693884 -182.827981 
L 368.973223 -181.636831 
L 372.252562 -180.453781 
L 375.531901 -179.303809 
L 378.81124 -178.208199 
L 382.090579 -177.183952 
L 385.369917 -176.243515 
L 388.649256 -175.394823 
L 391.928595 -174.64159 
L 395.207934 -173.983804 
L 398.487273 -173.418346 
L 398.487273 -168.725654 
L 398.487273 -168.725654 
L 395.207934 -168.160196 
L 391.928595 -167.50241 
L 388.649256 -166.749177 
L 385.369917 -165.900485 
L 382.090579 -164.960048 
L 378.81124 -163.935801 
L 375.531901 -162.840191 
L 372.252562 -161.690219 
L 368.973223 -160.507169 
L 365.693884 -159.316019 
L 362.414545 -158.144519 
L 359.135207 -157.021973 
L 355.855868 -155.977797 
L 352.576529 -155.039931 
L 349.29719 -154.233235 
L 346.017851 -153.577976 
L 342.738512 -153.088553 
L 339.459174 -152.77256 
L 336.179835 -152.630279 
L 332.900496 -152.654654 
L 329.621157 -152.831763 
L 326.341818 -153.141739 
L 323.062479 -153.560075 
L 319.78314 -154.059196 
L 316.503802 -154.610156 
L 313.224463 -155.184328 
L 309.945124 -155.754929 
L 306.665785 -156.298274 
L 303.386446 -156.794656 
L 300.107107 -157.228807 
L 296.827769 -157.589935 
L 293.54843 -157.871363 
L 290.269091 -158.069836 
L 286.989752 -158.184611 
L 283.710413 -158.216411 
L 280.431074 -158.166393 
L 277.151736 -158.035193 
L 273.872397 -157.822172 
L 270.593058 -157.524882 
L 267.313719 -157.138802 
L 264.03438 -156.657316 
L 260.755041 -156.07191 
L 257.475702 -155.372513 
L 254.196364 -154.547922 
L 250.917025 -153.586229 
L 247.637686 -152.475185 
L 244.358347 -151.202454 
L 241.079008 -149.755725 
L 237.799669 -148.122699 
L 234.520331 -146.290963 
L 231.240992 -144.247823 
L 227.961653 -141.980163 
L 224.682314 -139.47442 
L 221.402975 -136.716753 
L 218.123636 -133.693484 
L 214.844298 -130.391861 
L 211.564959 -126.801159 
L 208.28562 -122.914116 
L 205.006281 -118.728648 
L 201.726942 -114.249745 
L 198.447603 -109.491442 
L 195.168264 -104.478709 
L 191.888926 -99.249093 
L 188.609587 -93.853952 
L 185.330248 -88.359111 
L 182.050909 -82.844803 
L 178.77157 -77.404789 
L 175.492231 -72.144581 
L 172.212893 -67.178778 
L 168.933554 -62.627543 
L 165.654215 -58.612358 
L 162.374876 -55.251212 
L 159.095537 -52.653482 
L 155.816198 -50.914768 
L 152.53686 -50.112 
L 149.257521 -50.29914 
L 145.978182 -51.503772 
L 142.698843 -53.724855 
L 139.419504 -56.931821 
L 136.140165 -61.065135 
L 132.860826 -66.038338 
L 129.581488 -71.741458 
L 126.302149 -78.045616 
L 123.02281 -84.808525 
L 119.743471 -91.880553 
L 116.464132 -99.110953 
L 113.184793 -106.353878 
L 109.905455 -113.473826 
L 106.626116 -120.35021 
L 103.346777 -126.88083 
L 100.067438 -132.984135 
L 96.788099 -138.600223 
L 93.50876 -143.690664 
L 90.229421 -148.237272 
L 86.950083 -152.240035 
L 83.670744 -155.714441 
L 80.391405 -158.688427 
L 77.112066 -161.199222 
L 73.832727 -163.290261 
z
" id="mdaf600ef42" style="stroke:#262626;stroke-opacity:0.5;stroke-width:1.5;"/>
    </defs>
    <g clip-path="url(#p2fb7a0aff7)">
     <use style="fill:#107010;fill-opacity:0.5;stroke:#262626;stroke-opacity:0.5;stroke-width:1.5;" x="0" xlink:href="#mdaf600ef42" y="345.6"/>
    </g>
   </g>
   <g id="matplotlib.axis_1">
    <g id="xtick_1">
     <g id="line2d_1">
      <defs>
       <path d="M 0 0 
L 0 3.5 
" id="md2f5a718f3" style="stroke:#000000;stroke-width:0.8;"/>
      </defs>
      <g>
       <use style="stroke:#000000;stroke-width:0.8;" x="77.450281" xlink:href="#md2f5a718f3" y="307.584"/>
      </g>
     </g>
     <g id="text_1">
      <!-- −5 -->
      <defs>
       <path d="M 10.59375 35.5 
L 73.1875 35.5 
L 73.1875 27.203125 
L 10.59375 27.203125 
z
" id="DejaVuSans-8722"/>
       <path d="M 10.796875 72.90625 
L 49.515625 72.90625 
L 49.515625 64.59375 
L 19.828125 64.59375 
L 19.828125 46.734375 
Q 21.96875 47.46875 24.109375 47.828125 
Q 26.265625 48.1875 28.421875 48.1875 
Q 40.625 48.1875 47.75 41.5 
Q 54.890625 34.8125 54.890625 23.390625 
Q 54.890625 11.625 47.5625 5.09375 
Q 40.234375 -1.421875 26.90625 -1.421875 
Q 22.3125 -1.421875 17.546875 -0.640625 
Q 12.796875 0.140625 7.71875 1.703125 
L 7.71875 11.625 
Q 12.109375 9.234375 16.796875 8.0625 
Q 21.484375 6.890625 26.703125 6.890625 
Q 35.15625 6.890625 40.078125 11.328125 
Q 45.015625 15.765625 45.015625 23.390625 
Q 45.015625 31 40.078125 35.4375 
Q 35.15625 39.890625 26.703125 39.890625 
Q 22.75 39.890625 18.8125 39.015625 
Q 14.890625 38.140625 10.796875 36.28125 
z
" id="DejaVuSans-53"/>
      </defs>
      <g transform="translate(70.079188 322.182437)scale(0.1 -0.1)">
       <use xlink:href="#DejaVuSans-8722"/>
       <use x="83.789062" xlink:href="#DejaVuSans-53"/>
      </g>
     </g>
    </g>
    <g id="xtick_2">
     <g id="line2d_2">
      <g>
       <use style="stroke:#000000;stroke-width:0.8;" x="129.829709" xlink:href="#md2f5a718f3" y="307.584"/>
      </g>
     </g>
     <g id="text_2">
      <!-- 0 -->
      <defs>
       <path d="M 31.78125 66.40625 
Q 24.171875 66.40625 20.328125 58.90625 
Q 16.5 51.421875 16.5 36.375 
Q 16.5 21.390625 20.328125 13.890625 
Q 24.171875 6.390625 31.78125 6.390625 
Q 39.453125 6.390625 43.28125 13.890625 
Q 47.125 21.390625 47.125 36.375 
Q 47.125 51.421875 43.28125 58.90625 
Q 39.453125 66.40625 31.78125 66.40625 
z
M 31.78125 74.21875 
Q 44.046875 74.21875 50.515625 64.515625 
Q 56.984375 54.828125 56.984375 36.375 
Q 56.984375 17.96875 50.515625 8.265625 
Q 44.046875 -1.421875 31.78125 -1.421875 
Q 19.53125 -1.421875 13.0625 8.265625 
Q 6.59375 17.96875 6.59375 36.375 
Q 6.59375 54.828125 13.0625 64.515625 
Q 19.53125 74.21875 31.78125 74.21875 
z
" id="DejaVuSans-48"/>
      </defs>
      <g transform="translate(126.648459 322.182437)scale(0.1 -0.1)">
       <use xlink:href="#DejaVuSans-48"/>
      </g>
     </g>
    </g>
    <g id="xtick_3">
     <g id="line2d_3">
      <g>
       <use style="stroke:#000000;stroke-width:0.8;" x="182.209137" xlink:href="#md2f5a718f3" y="307.584"/>
      </g>
     </g>
     <g id="text_3">
      <!-- 5 -->
      <g transform="translate(179.027887 322.182437)scale(0.1 -0.1)">
       <use xlink:href="#DejaVuSans-53"/>
      </g>
     </g>
    </g>
    <g id="xtick_4">
     <g id="line2d_4">
      <g>
       <use style="stroke:#000000;stroke-width:0.8;" x="234.588565" xlink:href="#md2f5a718f3" y="307.584"/>
      </g>
     </g>
     <g id="text_4">
      <!-- 10 -->
      <defs>
       <path d="M 12.40625 8.296875 
L 28.515625 8.296875 
L 28.515625 63.921875 
L 10.984375 60.40625 
L 10.984375 69.390625 
L 28.421875 72.90625 
L 38.28125 72.90625 
L 38.28125 8.296875 
L 54.390625 8.296875 
L 54.390625 0 
L 12.40625 0 
z
" id="DejaVuSans-49"/>
      </defs>
      <g transform="translate(228.226065 322.182437)scale(0.1 -0.1)">
       <use xlink:href="#DejaVuSans-49"/>
       <use x="63.623047" xlink:href="#DejaVuSans-48"/>
      </g>
     </g>
    </g>
    <g id="xtick_5">
     <g id="line2d_5">
      <g>
       <use style="stroke:#000000;stroke-width:0.8;" x="286.967993" xlink:href="#md2f5a718f3" y="307.584"/>
      </g>
     </g>
     <g id="text_5">
      <!-- 15 -->
      <g transform="translate(280.605493 322.182437)scale(0.1 -0.1)">
       <use xlink:href="#DejaVuSans-49"/>
       <use x="63.623047" xlink:href="#DejaVuSans-53"/>
      </g>
     </g>
    </g>
    <g id="xtick_6">
     <g id="line2d_6">
      <g>
       <use style="stroke:#000000;stroke-width:0.8;" x="339.34742" xlink:href="#md2f5a718f3" y="307.584"/>
      </g>
     </g>
     <g id="text_6">
      <!-- 20 -->
      <defs>
       <path d="M 19.1875 8.296875 
L 53.609375 8.296875 
L 53.609375 0 
L 7.328125 0 
L 7.328125 8.296875 
Q 12.9375 14.109375 22.625 23.890625 
Q 32.328125 33.6875 34.8125 36.53125 
Q 39.546875 41.84375 41.421875 45.53125 
Q 43.3125 49.21875 43.3125 52.78125 
Q 43.3125 58.59375 39.234375 62.25 
Q 35.15625 65.921875 28.609375 65.921875 
Q 23.96875 65.921875 18.8125 64.3125 
Q 13.671875 62.703125 7.8125 59.421875 
L 7.8125 69.390625 
Q 13.765625 71.78125 18.9375 73 
Q 24.125 74.21875 28.421875 74.21875 
Q 39.75 74.21875 46.484375 68.546875 
Q 53.21875 62.890625 53.21875 53.421875 
Q 53.21875 48.921875 51.53125 44.890625 
Q 49.859375 40.875 45.40625 35.40625 
Q 44.1875 33.984375 37.640625 27.21875 
Q 31.109375 20.453125 19.1875 8.296875 
z
" id="DejaVuSans-50"/>
      </defs>
      <g transform="translate(332.98492 322.182437)scale(0.1 -0.1)">
       <use xlink:href="#DejaVuSans-50"/>
       <use x="63.623047" xlink:href="#DejaVuSans-48"/>
      </g>
     </g>
    </g>
    <g id="xtick_7">
     <g id="line2d_7">
      <g>
       <use style="stroke:#000000;stroke-width:0.8;" x="391.726848" xlink:href="#md2f5a718f3" y="307.584"/>
      </g>
     </g>
     <g id="text_7">
      <!-- 25 -->
      <g transform="translate(385.364348 322.182437)scale(0.1 -0.1)">
       <use xlink:href="#DejaVuSans-50"/>
       <use x="63.623047" xlink:href="#DejaVuSans-53"/>
      </g>
     </g>
    </g>
    <g id="text_8">
     <!-- ddimerpeakac -->
     <defs>
      <path d="M 45.40625 46.390625 
L 45.40625 75.984375 
L 54.390625 75.984375 
L 54.390625 0 
L 45.40625 0 
L 45.40625 8.203125 
Q 42.578125 3.328125 38.25 0.953125 
Q 33.9375 -1.421875 27.875 -1.421875 
Q 17.96875 -1.421875 11.734375 6.484375 
Q 5.515625 14.40625 5.515625 27.296875 
Q 5.515625 40.1875 11.734375 48.09375 
Q 17.96875 56 27.875 56 
Q 33.9375 56 38.25 53.625 
Q 42.578125 51.265625 45.40625 46.390625 
z
M 14.796875 27.296875 
Q 14.796875 17.390625 18.875 11.75 
Q 22.953125 6.109375 30.078125 6.109375 
Q 37.203125 6.109375 41.296875 11.75 
Q 45.40625 17.390625 45.40625 27.296875 
Q 45.40625 37.203125 41.296875 42.84375 
Q 37.203125 48.484375 30.078125 48.484375 
Q 22.953125 48.484375 18.875 42.84375 
Q 14.796875 37.203125 14.796875 27.296875 
z
" id="DejaVuSans-100"/>
      <path d="M 9.421875 54.6875 
L 18.40625 54.6875 
L 18.40625 0 
L 9.421875 0 
z
M 9.421875 75.984375 
L 18.40625 75.984375 
L 18.40625 64.59375 
L 9.421875 64.59375 
z
" id="DejaVuSans-105"/>
      <path d="M 52 44.1875 
Q 55.375 50.25 60.0625 53.125 
Q 64.75 56 71.09375 56 
Q 79.640625 56 84.28125 50.015625 
Q 88.921875 44.046875 88.921875 33.015625 
L 88.921875 0 
L 79.890625 0 
L 79.890625 32.71875 
Q 79.890625 40.578125 77.09375 44.375 
Q 74.3125 48.1875 68.609375 48.1875 
Q 61.625 48.1875 57.5625 43.546875 
Q 53.515625 38.921875 53.515625 30.90625 
L 53.515625 0 
L 44.484375 0 
L 44.484375 32.71875 
Q 44.484375 40.625 41.703125 44.40625 
Q 38.921875 48.1875 33.109375 48.1875 
Q 26.21875 48.1875 22.15625 43.53125 
Q 18.109375 38.875 18.109375 30.90625 
L 18.109375 0 
L 9.078125 0 
L 9.078125 54.6875 
L 18.109375 54.6875 
L 18.109375 46.1875 
Q 21.1875 51.21875 25.484375 53.609375 
Q 29.78125 56 35.6875 56 
Q 41.65625 56 45.828125 52.96875 
Q 50 49.953125 52 44.1875 
z
" id="DejaVuSans-109"/>
      <path d="M 56.203125 29.59375 
L 56.203125 25.203125 
L 14.890625 25.203125 
Q 15.484375 15.921875 20.484375 11.0625 
Q 25.484375 6.203125 34.421875 6.203125 
Q 39.59375 6.203125 44.453125 7.46875 
Q 49.3125 8.734375 54.109375 11.28125 
L 54.109375 2.78125 
Q 49.265625 0.734375 44.1875 -0.34375 
Q 39.109375 -1.421875 33.890625 -1.421875 
Q 20.796875 -1.421875 13.15625 6.1875 
Q 5.515625 13.8125 5.515625 26.8125 
Q 5.515625 40.234375 12.765625 48.109375 
Q 20.015625 56 32.328125 56 
Q 43.359375 56 49.78125 48.890625 
Q 56.203125 41.796875 56.203125 29.59375 
z
M 47.21875 32.234375 
Q 47.125 39.59375 43.09375 43.984375 
Q 39.0625 48.390625 32.421875 48.390625 
Q 24.90625 48.390625 20.390625 44.140625 
Q 15.875 39.890625 15.1875 32.171875 
z
" id="DejaVuSans-101"/>
      <path d="M 41.109375 46.296875 
Q 39.59375 47.171875 37.8125 47.578125 
Q 36.03125 48 33.890625 48 
Q 26.265625 48 22.1875 43.046875 
Q 18.109375 38.09375 18.109375 28.8125 
L 18.109375 0 
L 9.078125 0 
L 9.078125 54.6875 
L 18.109375 54.6875 
L 18.109375 46.1875 
Q 20.953125 51.171875 25.484375 53.578125 
Q 30.03125 56 36.53125 56 
Q 37.453125 56 38.578125 55.875 
Q 39.703125 55.765625 41.0625 55.515625 
z
" id="DejaVuSans-114"/>
      <path d="M 18.109375 8.203125 
L 18.109375 -20.796875 
L 9.078125 -20.796875 
L 9.078125 54.6875 
L 18.109375 54.6875 
L 18.109375 46.390625 
Q 20.953125 51.265625 25.265625 53.625 
Q 29.59375 56 35.59375 56 
Q 45.5625 56 51.78125 48.09375 
Q 58.015625 40.1875 58.015625 27.296875 
Q 58.015625 14.40625 51.78125 6.484375 
Q 45.5625 -1.421875 35.59375 -1.421875 
Q 29.59375 -1.421875 25.265625 0.953125 
Q 20.953125 3.328125 18.109375 8.203125 
z
M 48.6875 27.296875 
Q 48.6875 37.203125 44.609375 42.84375 
Q 40.53125 48.484375 33.40625 48.484375 
Q 26.265625 48.484375 22.1875 42.84375 
Q 18.109375 37.203125 18.109375 27.296875 
Q 18.109375 17.390625 22.1875 11.75 
Q 26.265625 6.109375 33.40625 6.109375 
Q 40.53125 6.109375 44.609375 11.75 
Q 48.6875 17.390625 48.6875 27.296875 
z
" id="DejaVuSans-112"/>
      <path d="M 34.28125 27.484375 
Q 23.390625 27.484375 19.1875 25 
Q 14.984375 22.515625 14.984375 16.5 
Q 14.984375 11.71875 18.140625 8.90625 
Q 21.296875 6.109375 26.703125 6.109375 
Q 34.1875 6.109375 38.703125 11.40625 
Q 43.21875 16.703125 43.21875 25.484375 
L 43.21875 27.484375 
z
M 52.203125 31.203125 
L 52.203125 0 
L 43.21875 0 
L 43.21875 8.296875 
Q 40.140625 3.328125 35.546875 0.953125 
Q 30.953125 -1.421875 24.3125 -1.421875 
Q 15.921875 -1.421875 10.953125 3.296875 
Q 6 8.015625 6 15.921875 
Q 6 25.140625 12.171875 29.828125 
Q 18.359375 34.515625 30.609375 34.515625 
L 43.21875 34.515625 
L 43.21875 35.40625 
Q 43.21875 41.609375 39.140625 45 
Q 35.0625 48.390625 27.6875 48.390625 
Q 23 48.390625 18.546875 47.265625 
Q 14.109375 46.140625 10.015625 43.890625 
L 10.015625 52.203125 
Q 14.9375 54.109375 19.578125 55.046875 
Q 24.21875 56 28.609375 56 
Q 40.484375 56 46.34375 49.84375 
Q 52.203125 43.703125 52.203125 31.203125 
z
" id="DejaVuSans-97"/>
      <path d="M 9.078125 75.984375 
L 18.109375 75.984375 
L 18.109375 31.109375 
L 44.921875 54.6875 
L 56.390625 54.6875 
L 27.390625 29.109375 
L 57.625 0 
L 45.90625 0 
L 18.109375 26.703125 
L 18.109375 0 
L 9.078125 0 
z
" id="DejaVuSans-107"/>
      <path d="M 48.78125 52.59375 
L 48.78125 44.1875 
Q 44.96875 46.296875 41.140625 47.34375 
Q 37.3125 48.390625 33.40625 48.390625 
Q 24.65625 48.390625 19.8125 42.84375 
Q 14.984375 37.3125 14.984375 27.296875 
Q 14.984375 17.28125 19.8125 11.734375 
Q 24.65625 6.203125 33.40625 6.203125 
Q 37.3125 6.203125 41.140625 7.25 
Q 44.96875 8.296875 48.78125 10.40625 
L 48.78125 2.09375 
Q 45.015625 0.34375 40.984375 -0.53125 
Q 36.96875 -1.421875 32.421875 -1.421875 
Q 20.0625 -1.421875 12.78125 6.34375 
Q 5.515625 14.109375 5.515625 27.296875 
Q 5.515625 40.671875 12.859375 48.328125 
Q 20.21875 56 33.015625 56 
Q 37.15625 56 41.109375 55.140625 
Q 45.0625 54.296875 48.78125 52.59375 
z
" id="DejaVuSans-99"/>
     </defs>
     <g transform="translate(200.484219 335.860562)scale(0.1 -0.1)">
      <use xlink:href="#DejaVuSans-100"/>
      <use x="63.476562" xlink:href="#DejaVuSans-100"/>
      <use x="126.953125" xlink:href="#DejaVuSans-105"/>
      <use x="154.736328" xlink:href="#DejaVuSans-109"/>
      <use x="252.148438" xlink:href="#DejaVuSans-101"/>
      <use x="313.671875" xlink:href="#DejaVuSans-114"/>
      <use x="354.785156" xlink:href="#DejaVuSans-112"/>
      <use x="418.261719" xlink:href="#DejaVuSans-101"/>
      <use x="479.785156" xlink:href="#DejaVuSans-97"/>
      <use x="541.064453" xlink:href="#DejaVuSans-107"/>
      <use x="597.224609" xlink:href="#DejaVuSans-97"/>
      <use x="658.503906" xlink:href="#DejaVuSans-99"/>
     </g>
    </g>
   </g>
   <g id="matplotlib.axis_2">
    <g id="ytick_1">
     <g id="line2d_8">
      <defs>
       <path d="M 0 0 
L -3.5 0 
" id="m5feea16da8" style="stroke:#000000;stroke-width:0.8;"/>
      </defs>
      <g>
       <use style="stroke:#000000;stroke-width:0.8;" x="57.6" xlink:href="#m5feea16da8" y="174.528"/>
      </g>
     </g>
    </g>
   </g>
   <g id="line2d_9">
    <path clip-path="url(#p2fb7a0aff7)" d="M 133.286751 174.528 
L 312.005359 174.528 
" style="fill:none;stroke:#ffa500;stroke-linecap:square;stroke-width:1.5;"/>
   </g>
   <g id="line2d_10">
    <path clip-path="url(#p2fb7a0aff7)" d="M 144.653087 174.528 
L 212.065411 174.528 
" style="fill:none;stroke:#4c4c4c;stroke-linecap:square;stroke-width:4.5;"/>
   </g>
   <g id="line2d_11">
    <path clip-path="url(#p2fb7a0aff7)" d="M 132.972475 174.528 
L 269.158987 174.528 
" style="fill:none;stroke:#008000;stroke-linecap:square;stroke-width:1.5;"/>
   </g>
   <g id="line2d_12">
    <path clip-path="url(#p2fb7a0aff7)" d="M 138.419935 174.528 
L 193.706421 174.528 
" style="fill:none;stroke:#262626;stroke-linecap:square;stroke-width:4.5;"/>
   </g>
   <g id="patch_3">
    <path d="M 57.6 307.584 
L 57.6 41.472 
" style="fill:none;stroke:#000000;stroke-linecap:square;stroke-linejoin:miter;stroke-width:0.8;"/>
   </g>
   <g id="patch_4">
    <path d="M 414.72 307.584 
L 414.72 41.472 
" style="fill:none;stroke:#000000;stroke-linecap:square;stroke-linejoin:miter;stroke-width:0.8;"/>
   </g>
   <g id="patch_5">
    <path d="M 57.6 307.584 
L 414.72 307.584 
" style="fill:none;stroke:#000000;stroke-linecap:square;stroke-linejoin:miter;stroke-width:0.8;"/>
   </g>
   <g id="patch_6">
    <path d="M 57.6 41.472 
L 414.72 41.472 
" style="fill:none;stroke:#000000;stroke-linecap:square;stroke-linejoin:miter;stroke-width:0.8;"/>
   </g>
   <g id="PathCollection_1">
    <defs>
     <path d="M 0 1.5 
C 0.397805 1.5 0.77937 1.341951 1.06066 1.06066 
C 1.341951 0.77937 1.5 0.397805 1.5 0 
C 1.5 -0.397805 1.341951 -0.77937 1.06066 -1.06066 
C 0.77937 -1.341951 0.397805 -1.5 0 -1.5 
C -0.397805 -1.5 -0.77937 -1.341951 -1.06066 -1.06066 
C -1.341951 -0.77937 -1.5 -0.397805 -1.5 0 
C -1.5 0.397805 -1.341951 0.77937 -1.06066 1.06066 
C -0.77937 1.341951 -0.397805 1.5 0 1.5 
z
" id="m0b66d8dad0" style="stroke:#4c4c4c;stroke-opacity:0.5;"/>
    </defs>
    <g clip-path="url(#p2fb7a0aff7)">
     <use style="fill:#ffffff;fill-opacity:0.5;stroke:#4c4c4c;stroke-opacity:0.5;" x="159.371706" xlink:href="#m0b66d8dad0" y="174.528"/>
    </g>
   </g>
   <g id="PathCollection_2">
    <defs>
     <path d="M 0 1.5 
C 0.397805 1.5 0.77937 1.341951 1.06066 1.06066 
C 1.341951 0.77937 1.5 0.397805 1.5 0 
C 1.5 -0.397805 1.341951 -0.77937 1.06066 -1.06066 
C 0.77937 -1.341951 0.397805 -1.5 0 -1.5 
C -0.397805 -1.5 -0.77937 -1.341951 -1.06066 -1.06066 
C -1.341951 -0.77937 -1.5 -0.397805 -1.5 0 
C -1.5 0.397805 -1.341951 0.77937 -1.06066 1.06066 
C -0.77937 1.341951 -0.397805 1.5 0 1.5 
z
" id="mc3bec9c11b" style="stroke:#262626;stroke-opacity:0.5;"/>
    </defs>
    <g clip-path="url(#p2fb7a0aff7)">
     <use style="fill:#ffffff;fill-opacity:0.5;stroke:#262626;stroke-opacity:0.5;" x="158.481256" xlink:href="#mc3bec9c11b" y="174.528"/>
    </g>
   </g>
   <g id="text_9">
    <!-- Association of ddimerpeakac vs. nasal_cannula -->
    <defs>
     <path d="M 34.1875 63.1875 
L 20.796875 26.90625 
L 47.609375 26.90625 
z
M 28.609375 72.90625 
L 39.796875 72.90625 
L 67.578125 0 
L 57.328125 0 
L 50.6875 18.703125 
L 17.828125 18.703125 
L 11.1875 0 
L 0.78125 0 
z
" id="DejaVuSans-65"/>
     <path d="M 44.28125 53.078125 
L 44.28125 44.578125 
Q 40.484375 46.53125 36.375 47.5 
Q 32.28125 48.484375 27.875 48.484375 
Q 21.1875 48.484375 17.84375 46.4375 
Q 14.5 44.390625 14.5 40.28125 
Q 14.5 37.15625 16.890625 35.375 
Q 19.28125 33.59375 26.515625 31.984375 
L 29.59375 31.296875 
Q 39.15625 29.25 43.1875 25.515625 
Q 47.21875 21.78125 47.21875 15.09375 
Q 47.21875 7.46875 41.1875 3.015625 
Q 35.15625 -1.421875 24.609375 -1.421875 
Q 20.21875 -1.421875 15.453125 -0.5625 
Q 10.6875 0.296875 5.421875 2 
L 5.421875 11.28125 
Q 10.40625 8.6875 15.234375 7.390625 
Q 20.0625 6.109375 24.8125 6.109375 
Q 31.15625 6.109375 34.5625 8.28125 
Q 37.984375 10.453125 37.984375 14.40625 
Q 37.984375 18.0625 35.515625 20.015625 
Q 33.0625 21.96875 24.703125 23.78125 
L 21.578125 24.515625 
Q 13.234375 26.265625 9.515625 29.90625 
Q 5.8125 33.546875 5.8125 39.890625 
Q 5.8125 47.609375 11.28125 51.796875 
Q 16.75 56 26.8125 56 
Q 31.78125 56 36.171875 55.265625 
Q 40.578125 54.546875 44.28125 53.078125 
z
" id="DejaVuSans-115"/>
     <path d="M 30.609375 48.390625 
Q 23.390625 48.390625 19.1875 42.75 
Q 14.984375 37.109375 14.984375 27.296875 
Q 14.984375 17.484375 19.15625 11.84375 
Q 23.34375 6.203125 30.609375 6.203125 
Q 37.796875 6.203125 41.984375 11.859375 
Q 46.1875 17.53125 46.1875 27.296875 
Q 46.1875 37.015625 41.984375 42.703125 
Q 37.796875 48.390625 30.609375 48.390625 
z
M 30.609375 56 
Q 42.328125 56 49.015625 48.375 
Q 55.71875 40.765625 55.71875 27.296875 
Q 55.71875 13.875 49.015625 6.21875 
Q 42.328125 -1.421875 30.609375 -1.421875 
Q 18.84375 -1.421875 12.171875 6.21875 
Q 5.515625 13.875 5.515625 27.296875 
Q 5.515625 40.765625 12.171875 48.375 
Q 18.84375 56 30.609375 56 
z
" id="DejaVuSans-111"/>
     <path d="M 18.3125 70.21875 
L 18.3125 54.6875 
L 36.8125 54.6875 
L 36.8125 47.703125 
L 18.3125 47.703125 
L 18.3125 18.015625 
Q 18.3125 11.328125 20.140625 9.421875 
Q 21.96875 7.515625 27.59375 7.515625 
L 36.8125 7.515625 
L 36.8125 0 
L 27.59375 0 
Q 17.1875 0 13.234375 3.875 
Q 9.28125 7.765625 9.28125 18.015625 
L 9.28125 47.703125 
L 2.6875 47.703125 
L 2.6875 54.6875 
L 9.28125 54.6875 
L 9.28125 70.21875 
z
" id="DejaVuSans-116"/>
     <path d="M 54.890625 33.015625 
L 54.890625 0 
L 45.90625 0 
L 45.90625 32.71875 
Q 45.90625 40.484375 42.875 44.328125 
Q 39.84375 48.1875 33.796875 48.1875 
Q 26.515625 48.1875 22.3125 43.546875 
Q 18.109375 38.921875 18.109375 30.90625 
L 18.109375 0 
L 9.078125 0 
L 9.078125 54.6875 
L 18.109375 54.6875 
L 18.109375 46.1875 
Q 21.34375 51.125 25.703125 53.5625 
Q 30.078125 56 35.796875 56 
Q 45.21875 56 50.046875 50.171875 
Q 54.890625 44.34375 54.890625 33.015625 
z
" id="DejaVuSans-110"/>
     <path id="DejaVuSans-32"/>
     <path d="M 37.109375 75.984375 
L 37.109375 68.5 
L 28.515625 68.5 
Q 23.6875 68.5 21.796875 66.546875 
Q 19.921875 64.59375 19.921875 59.515625 
L 19.921875 54.6875 
L 34.71875 54.6875 
L 34.71875 47.703125 
L 19.921875 47.703125 
L 19.921875 0 
L 10.890625 0 
L 10.890625 47.703125 
L 2.296875 47.703125 
L 2.296875 54.6875 
L 10.890625 54.6875 
L 10.890625 58.5 
Q 10.890625 67.625 15.140625 71.796875 
Q 19.390625 75.984375 28.609375 75.984375 
z
" id="DejaVuSans-102"/>
     <path d="M 2.984375 54.6875 
L 12.5 54.6875 
L 29.59375 8.796875 
L 46.6875 54.6875 
L 56.203125 54.6875 
L 35.6875 0 
L 23.484375 0 
z
" id="DejaVuSans-118"/>
     <path d="M 10.6875 12.40625 
L 21 12.40625 
L 21 0 
L 10.6875 0 
z
" id="DejaVuSans-46"/>
     <path d="M 9.421875 75.984375 
L 18.40625 75.984375 
L 18.40625 0 
L 9.421875 0 
z
" id="DejaVuSans-108"/>
     <path d="M 50.984375 -16.609375 
L 50.984375 -23.578125 
L -0.984375 -23.578125 
L -0.984375 -16.609375 
z
" id="DejaVuSans-95"/>
     <path d="M 8.5 21.578125 
L 8.5 54.6875 
L 17.484375 54.6875 
L 17.484375 21.921875 
Q 17.484375 14.15625 20.5 10.265625 
Q 23.53125 6.390625 29.59375 6.390625 
Q 36.859375 6.390625 41.078125 11.03125 
Q 45.3125 15.671875 45.3125 23.6875 
L 45.3125 54.6875 
L 54.296875 54.6875 
L 54.296875 0 
L 45.3125 0 
L 45.3125 8.40625 
Q 42.046875 3.421875 37.71875 1 
Q 33.40625 -1.421875 27.6875 -1.421875 
Q 18.265625 -1.421875 13.375 4.4375 
Q 8.5 10.296875 8.5 21.578125 
z
M 31.109375 56 
z
" id="DejaVuSans-117"/>
    </defs>
    <g transform="translate(94.515938 35.472)scale(0.12 -0.12)">
     <use xlink:href="#DejaVuSans-65"/>
     <use x="68.408203" xlink:href="#DejaVuSans-115"/>
     <use x="120.507812" xlink:href="#DejaVuSans-115"/>
     <use x="172.607422" xlink:href="#DejaVuSans-111"/>
     <use x="233.789062" xlink:href="#DejaVuSans-99"/>
     <use x="288.769531" xlink:href="#DejaVuSans-105"/>
     <use x="316.552734" xlink:href="#DejaVuSans-97"/>
     <use x="377.832031" xlink:href="#DejaVuSans-116"/>
     <use x="417.041016" xlink:href="#DejaVuSans-105"/>
     <use x="444.824219" xlink:href="#DejaVuSans-111"/>
     <use x="506.005859" xlink:href="#DejaVuSans-110"/>
     <use x="569.384766" xlink:href="#DejaVuSans-32"/>
     <use x="601.171875" xlink:href="#DejaVuSans-111"/>
     <use x="662.353516" xlink:href="#DejaVuSans-102"/>
     <use x="697.558594" xlink:href="#DejaVuSans-32"/>
     <use x="729.345703" xlink:href="#DejaVuSans-100"/>
     <use x="792.822266" xlink:href="#DejaVuSans-100"/>
     <use x="856.298828" xlink:href="#DejaVuSans-105"/>
     <use x="884.082031" xlink:href="#DejaVuSans-109"/>
     <use x="981.494141" xlink:href="#DejaVuSans-101"/>
     <use x="1043.017578" xlink:href="#DejaVuSans-114"/>
     <use x="1084.130859" xlink:href="#DejaVuSans-112"/>
     <use x="1147.607422" xlink:href="#DejaVuSans-101"/>
     <use x="1209.130859" xlink:href="#DejaVuSans-97"/>
     <use x="1270.410156" xlink:href="#DejaVuSans-107"/>
     <use x="1326.570312" xlink:href="#DejaVuSans-97"/>
     <use x="1387.849609" xlink:href="#DejaVuSans-99"/>
     <use x="1442.830078" xlink:href="#DejaVuSans-32"/>
     <use x="1474.617188" xlink:href="#DejaVuSans-118"/>
     <use x="1533.796875" xlink:href="#DejaVuSans-115"/>
     <use x="1585.896484" xlink:href="#DejaVuSans-46"/>
     <use x="1617.683594" xlink:href="#DejaVuSans-32"/>
     <use x="1649.470703" xlink:href="#DejaVuSans-110"/>
     <use x="1712.849609" xlink:href="#DejaVuSans-97"/>
     <use x="1774.128906" xlink:href="#DejaVuSans-115"/>
     <use x="1826.228516" xlink:href="#DejaVuSans-97"/>
     <use x="1887.507812" xlink:href="#DejaVuSans-108"/>
     <use x="1915.291016" xlink:href="#DejaVuSans-95"/>
     <use x="1965.291016" xlink:href="#DejaVuSans-99"/>
     <use x="2020.271484" xlink:href="#DejaVuSans-97"/>
     <use x="2081.550781" xlink:href="#DejaVuSans-110"/>
     <use x="2144.929688" xlink:href="#DejaVuSans-110"/>
     <use x="2208.308594" xlink:href="#DejaVuSans-117"/>
     <use x="2271.6875" xlink:href="#DejaVuSans-108"/>
     <use x="2299.470703" xlink:href="#DejaVuSans-97"/>
    </g>
   </g>
   <g id="legend_1">
    <g id="patch_7">
     <path d="M 260.18875 79.3845 
L 407.72 79.3845 
Q 409.72 79.3845 409.72 77.3845 
L 409.72 48.472 
Q 409.72 46.472 407.72 46.472 
L 260.18875 46.472 
Q 258.18875 46.472 258.18875 48.472 
L 258.18875 77.3845 
Q 258.18875 79.3845 260.18875 79.3845 
z
" style="fill:#ffffff;opacity:0.8;stroke:#cccccc;stroke-linejoin:miter;"/>
    </g>
    <g id="line2d_13">
     <path d="M 262.18875 54.570438 
L 282.18875 54.570438 
" style="fill:none;stroke:#ffa500;stroke-linecap:square;stroke-width:1.5;"/>
    </g>
    <g id="line2d_14"/>
    <g id="text_10">
     <!-- nasal_cannula (135) -->
     <defs>
      <path d="M 31 75.875 
Q 24.46875 64.65625 21.28125 53.65625 
Q 18.109375 42.671875 18.109375 31.390625 
Q 18.109375 20.125 21.3125 9.0625 
Q 24.515625 -2 31 -13.1875 
L 23.1875 -13.1875 
Q 15.875 -1.703125 12.234375 9.375 
Q 8.59375 20.453125 8.59375 31.390625 
Q 8.59375 42.28125 12.203125 53.3125 
Q 15.828125 64.359375 23.1875 75.875 
z
" id="DejaVuSans-40"/>
      <path d="M 40.578125 39.3125 
Q 47.65625 37.796875 51.625 33 
Q 55.609375 28.21875 55.609375 21.1875 
Q 55.609375 10.40625 48.1875 4.484375 
Q 40.765625 -1.421875 27.09375 -1.421875 
Q 22.515625 -1.421875 17.65625 -0.515625 
Q 12.796875 0.390625 7.625 2.203125 
L 7.625 11.71875 
Q 11.71875 9.328125 16.59375 8.109375 
Q 21.484375 6.890625 26.8125 6.890625 
Q 36.078125 6.890625 40.9375 10.546875 
Q 45.796875 14.203125 45.796875 21.1875 
Q 45.796875 27.640625 41.28125 31.265625 
Q 36.765625 34.90625 28.71875 34.90625 
L 20.21875 34.90625 
L 20.21875 43.015625 
L 29.109375 43.015625 
Q 36.375 43.015625 40.234375 45.921875 
Q 44.09375 48.828125 44.09375 54.296875 
Q 44.09375 59.90625 40.109375 62.90625 
Q 36.140625 65.921875 28.71875 65.921875 
Q 24.65625 65.921875 20.015625 65.03125 
Q 15.375 64.15625 9.8125 62.3125 
L 9.8125 71.09375 
Q 15.4375 72.65625 20.34375 73.4375 
Q 25.25 74.21875 29.59375 74.21875 
Q 40.828125 74.21875 47.359375 69.109375 
Q 53.90625 64.015625 53.90625 55.328125 
Q 53.90625 49.265625 50.4375 45.09375 
Q 46.96875 40.921875 40.578125 39.3125 
z
" id="DejaVuSans-51"/>
      <path d="M 8.015625 75.875 
L 15.828125 75.875 
Q 23.140625 64.359375 26.78125 53.3125 
Q 30.421875 42.28125 30.421875 31.390625 
Q 30.421875 20.453125 26.78125 9.375 
Q 23.140625 -1.703125 15.828125 -13.1875 
L 8.015625 -13.1875 
Q 14.5 -2 17.703125 9.0625 
Q 20.90625 20.125 20.90625 31.390625 
Q 20.90625 42.671875 17.703125 53.65625 
Q 14.5 64.65625 8.015625 75.875 
z
" id="DejaVuSans-41"/>
     </defs>
     <g transform="translate(290.18875 58.070438)scale(0.1 -0.1)">
      <use xlink:href="#DejaVuSans-110"/>
      <use x="63.378906" xlink:href="#DejaVuSans-97"/>
      <use x="124.658203" xlink:href="#DejaVuSans-115"/>
      <use x="176.757812" xlink:href="#DejaVuSans-97"/>
      <use x="238.037109" xlink:href="#DejaVuSans-108"/>
      <use x="265.820312" xlink:href="#DejaVuSans-95"/>
      <use x="315.820312" xlink:href="#DejaVuSans-99"/>
      <use x="370.800781" xlink:href="#DejaVuSans-97"/>
      <use x="432.080078" xlink:href="#DejaVuSans-110"/>
      <use x="495.458984" xlink:href="#DejaVuSans-110"/>
      <use x="558.837891" xlink:href="#DejaVuSans-117"/>
      <use x="622.216797" xlink:href="#DejaVuSans-108"/>
      <use x="650" xlink:href="#DejaVuSans-97"/>
      <use x="711.279297" xlink:href="#DejaVuSans-32"/>
      <use x="743.066406" xlink:href="#DejaVuSans-40"/>
      <use x="782.080078" xlink:href="#DejaVuSans-49"/>
      <use x="845.703125" xlink:href="#DejaVuSans-51"/>
      <use x="909.326172" xlink:href="#DejaVuSans-53"/>
      <use x="972.949219" xlink:href="#DejaVuSans-41"/>
     </g>
    </g>
    <g id="line2d_15">
     <path d="M 262.18875 69.526688 
L 282.18875 69.526688 
" style="fill:none;stroke:#008000;stroke-linecap:square;stroke-width:1.5;"/>
    </g>
    <g id="line2d_16"/>
    <g id="text_11">
     <!-- Not nasal_cannula (42) -->
     <defs>
      <path d="M 9.8125 72.90625 
L 23.09375 72.90625 
L 55.421875 11.921875 
L 55.421875 72.90625 
L 64.984375 72.90625 
L 64.984375 0 
L 51.703125 0 
L 19.390625 60.984375 
L 19.390625 0 
L 9.8125 0 
z
" id="DejaVuSans-78"/>
      <path d="M 37.796875 64.3125 
L 12.890625 25.390625 
L 37.796875 25.390625 
z
M 35.203125 72.90625 
L 47.609375 72.90625 
L 47.609375 25.390625 
L 58.015625 25.390625 
L 58.015625 17.1875 
L 47.609375 17.1875 
L 47.609375 0 
L 37.796875 0 
L 37.796875 17.1875 
L 4.890625 17.1875 
L 4.890625 26.703125 
z
" id="DejaVuSans-52"/>
     </defs>
     <g transform="translate(290.18875 73.026688)scale(0.1 -0.1)">
      <use xlink:href="#DejaVuSans-78"/>
      <use x="74.804688" xlink:href="#DejaVuSans-111"/>
      <use x="135.986328" xlink:href="#DejaVuSans-116"/>
      <use x="175.195312" xlink:href="#DejaVuSans-32"/>
      <use x="206.982422" xlink:href="#DejaVuSans-110"/>
      <use x="270.361328" xlink:href="#DejaVuSans-97"/>
      <use x="331.640625" xlink:href="#DejaVuSans-115"/>
      <use x="383.740234" xlink:href="#DejaVuSans-97"/>
      <use x="445.019531" xlink:href="#DejaVuSans-108"/>
      <use x="472.802734" xlink:href="#DejaVuSans-95"/>
      <use x="522.802734" xlink:href="#DejaVuSans-99"/>
      <use x="577.783203" xlink:href="#DejaVuSans-97"/>
      <use x="639.0625" xlink:href="#DejaVuSans-110"/>
      <use x="702.441406" xlink:href="#DejaVuSans-110"/>
      <use x="765.820312" xlink:href="#DejaVuSans-117"/>
      <use x="829.199219" xlink:href="#DejaVuSans-108"/>
      <use x="856.982422" xlink:href="#DejaVuSans-97"/>
      <use x="918.261719" xlink:href="#DejaVuSans-32"/>
      <use x="950.048828" xlink:href="#DejaVuSans-40"/>
      <use x="989.0625" xlink:href="#DejaVuSans-52"/>
      <use x="1052.685547" xlink:href="#DejaVuSans-50"/>
      <use x="1116.308594" xlink:href="#DejaVuSans-41"/>
     </g>
    </g>
   </g>
  </g>
 </g>
 <defs>
  <clipPath id="p2fb7a0aff7">
   <rect height="266.112" width="357.12" x="57.6" y="41.472"/>
  </clipPath>
 </defs>
</svg>
