<?xml version="1.0" encoding="utf-8" standalone="no"?>
<!DOCTYPE svg PUBLIC "-//W3C//DTD SVG 1.1//EN"
  "http://www.w3.org/Graphics/SVG/1.1/DTD/svg11.dtd">
<!-- Created with matplotlib (https://matplotlib.org/) -->
<svg height="345.6pt" version="1.1" viewBox="0 0 460.8 345.6" width="460.8pt" xmlns="http://www.w3.org/2000/svg" xmlns:xlink="http://www.w3.org/1999/xlink">
 <defs>
  <style type="text/css">
*{stroke-linecap:butt;stroke-linejoin:round;}
  </style>
 </defs>
 <g id="figure_1">
  <g id="patch_1">
   <path d="M 0 345.6 
L 460.8 345.6 
L 460.8 0 
L 0 0 
z
" style="fill:#ffffff;"/>
  </g>
  <g id="axes_1">
   <g id="patch_2">
    <path d="M 57.6 307.584 
L 414.72 307.584 
L 414.72 41.472 
L 57.6 41.472 
z
" style="fill:#ffffff;"/>
   </g>
   <g id="PolyCollection_1">
    <defs>
     <path d="M 97.549465 -170.13382 
L 97.549465 -172.01018 
L 100.589241 -172.321653 
L 103.629017 -172.700063 
L 106.668793 -173.146598 
L 109.708569 -173.657725 
L 112.748344 -174.224264 
L 115.78812 -174.830944 
L 118.827896 -175.456605 
L 121.867672 -176.075179 
L 124.907448 -176.657491 
L 127.947224 -177.173781 
L 130.986999 -177.596742 
L 134.026775 -177.90478 
L 137.066551 -178.085133 
L 140.106327 -178.136511 
L 143.146103 -178.070978 
L 146.185879 -177.914901 
L 149.225654 -177.708928 
L 152.26543 -177.507073 
L 155.305206 -177.375071 
L 158.344982 -177.388202 
L 161.384758 -177.628768 
L 164.424534 -178.183345 
L 167.464309 -179.139876 
L 170.504085 -180.584587 
L 173.543861 -182.598697 
L 176.583637 -185.25488 
L 179.623413 -188.613486 
L 182.663189 -192.718565 
L 185.702964 -197.593817 
L 188.74274 -203.23861 
L 191.782516 -209.624253 
L 194.822292 -216.690741 
L 197.862068 -224.344217 
L 200.901844 -232.455484 
L 203.941619 -240.859953 
L 206.981395 -249.359535 
L 210.021171 -257.726974 
L 213.060947 -265.713076 
L 216.100723 -273.057061 
L 219.140499 -279.499868 
L 222.180274 -284.799799 
L 225.22005 -288.749266 
L 228.259826 -291.191034 
L 231.299602 -292.032 
L 234.339378 -291.252646 
L 237.379154 -288.910632 
L 240.418929 -285.137675 
L 243.458705 -280.129755 
L 246.498481 -274.131554 
L 249.538257 -267.416913 
L 252.578033 -260.267537 
L 255.617809 -252.952442 
L 258.657584 -245.710368 
L 261.69736 -238.736897 
L 264.737136 -232.177255 
L 267.776912 -226.124934 
L 270.816688 -220.625503 
L 273.856464 -215.684357 
L 276.896239 -211.276815 
L 279.936015 -207.358884 
L 282.975791 -203.8772 
L 286.015567 -200.777066 
L 289.055343 -198.00798 
L 292.095119 -195.526592 
L 295.134894 -193.297472 
L 298.17467 -191.292341 
L 301.214446 -189.488551 
L 304.254222 -187.86751 
L 307.293998 -186.413533 
L 310.333774 -185.113324 
L 313.373549 -183.955999 
L 316.413325 -182.933364 
L 319.453101 -182.040073 
L 322.492877 -181.273304 
L 325.532653 -180.63179 
L 328.572429 -180.114208 
L 331.612204 -179.717162 
L 334.65198 -179.433148 
L 337.691756 -179.248971 
L 340.731532 -179.144998 
L 343.771308 -179.095531 
L 346.811084 -179.070333 
L 349.850859 -179.037138 
L 352.890635 -178.964774 
L 355.930411 -178.826389 
L 358.970187 -178.60228 
L 362.009963 -178.28186 
L 365.049739 -177.864491 
L 368.089514 -177.35908 
L 371.12929 -176.782564 
L 374.169066 -176.157559 
L 377.208842 -175.509575 
L 380.248618 -174.864206 
L 383.288394 -174.244665 
L 386.328169 -173.66995 
L 389.367945 -173.153758 
L 392.407721 -172.70416 
L 395.447497 -172.323945 
L 398.487273 -172.011434 
L 398.487273 -170.132566 
L 398.487273 -170.132566 
L 395.447497 -169.820055 
L 392.407721 -169.43984 
L 389.367945 -168.990242 
L 386.328169 -168.47405 
L 383.288394 -167.899335 
L 380.248618 -167.279794 
L 377.208842 -166.634425 
L 374.169066 -165.986441 
L 371.12929 -165.361436 
L 368.089514 -164.78492 
L 365.049739 -164.279509 
L 362.009963 -163.86214 
L 358.970187 -163.54172 
L 355.930411 -163.317611 
L 352.890635 -163.179226 
L 349.850859 -163.106862 
L 346.811084 -163.073667 
L 343.771308 -163.048469 
L 340.731532 -162.999002 
L 337.691756 -162.895029 
L 334.65198 -162.710852 
L 331.612204 -162.426838 
L 328.572429 -162.029792 
L 325.532653 -161.51221 
L 322.492877 -160.870696 
L 319.453101 -160.103927 
L 316.413325 -159.210636 
L 313.373549 -158.188001 
L 310.333774 -157.030676 
L 307.293998 -155.730467 
L 304.254222 -154.27649 
L 301.214446 -152.655449 
L 298.17467 -150.851659 
L 295.134894 -148.846528 
L 292.095119 -146.617408 
L 289.055343 -144.13602 
L 286.015567 -141.366934 
L 282.975791 -138.2668 
L 279.936015 -134.785116 
L 276.896239 -130.867185 
L 273.856464 -126.459643 
L 270.816688 -121.518497 
L 267.776912 -116.019066 
L 264.737136 -109.966745 
L 261.69736 -103.407103 
L 258.657584 -96.433632 
L 255.617809 -89.191558 
L 252.578033 -81.876463 
L 249.538257 -74.727087 
L 246.498481 -68.012446 
L 243.458705 -62.014245 
L 240.418929 -57.006325 
L 237.379154 -53.233368 
L 234.339378 -50.891354 
L 231.299602 -50.112 
L 228.259826 -50.952966 
L 225.22005 -53.394734 
L 222.180274 -57.344201 
L 219.140499 -62.644132 
L 216.100723 -69.086939 
L 213.060947 -76.430924 
L 210.021171 -84.417026 
L 206.981395 -92.784465 
L 203.941619 -101.284047 
L 200.901844 -109.688516 
L 197.862068 -117.799783 
L 194.822292 -125.453259 
L 191.782516 -132.519747 
L 188.74274 -138.90539 
L 185.702964 -144.550183 
L 182.663189 -149.425435 
L 179.623413 -153.530514 
L 176.583637 -156.88912 
L 173.543861 -159.545303 
L 170.504085 -161.559413 
L 167.464309 -163.004124 
L 164.424534 -163.960655 
L 161.384758 -164.515232 
L 158.344982 -164.755798 
L 155.305206 -164.768929 
L 152.26543 -164.636927 
L 149.225654 -164.435072 
L 146.185879 -164.229099 
L 143.146103 -164.073022 
L 140.106327 -164.007489 
L 137.066551 -164.058867 
L 134.026775 -164.23922 
L 130.986999 -164.547258 
L 127.947224 -164.970219 
L 124.907448 -165.486509 
L 121.867672 -166.068821 
L 118.827896 -166.687395 
L 115.78812 -167.313056 
L 112.748344 -167.919736 
L 109.708569 -168.486275 
L 106.668793 -168.997402 
L 103.629017 -169.443937 
L 100.589241 -169.822347 
L 97.549465 -170.13382 
z
" id="ma043e07094" style="stroke:#4c4c4c;stroke-opacity:0.5;stroke-width:1.5;"/>
    </defs>
    <g clip-path="url(#p1d6849cc6a)">
     <use style="fill:#df9c20;fill-opacity:0.5;stroke:#4c4c4c;stroke-opacity:0.5;stroke-width:1.5;" x="0" xlink:href="#ma043e07094" y="345.6"/>
    </g>
   </g>
   <g id="PolyCollection_2">
    <defs>
     <path d="M 73.832727 -170.964889 
L 73.832727 -171.179111 
L 76.803207 -171.26473 
L 79.773686 -171.3852 
L 82.744166 -171.531673 
L 85.714645 -171.681299 
L 88.685124 -171.801401 
L 91.655604 -171.860601 
L 94.626083 -171.842022 
L 97.596563 -171.751053 
L 100.567042 -171.612828 
L 103.537522 -171.461018 
L 106.508001 -171.324717 
L 109.478481 -171.22027 
L 112.44896 -171.150565 
L 115.419439 -171.109598 
L 118.389919 -171.088252 
L 121.360398 -171.078353 
L 124.330878 -171.07428 
L 127.301357 -171.072883 
L 130.271837 -171.072809 
L 133.242316 -171.073977 
L 136.212796 -171.077546 
L 139.183275 -171.086378 
L 142.153754 -171.105727 
L 145.124234 -171.143465 
L 148.094713 -171.208765 
L 151.065193 -171.308387 
L 154.035672 -171.441035 
L 157.006152 -171.592446 
L 159.976631 -171.735372 
L 162.94711 -171.83726 
L 165.91759 -171.874189 
L 168.888069 -171.845072 
L 171.858549 -171.779507 
L 174.829028 -171.736982 
L 177.799508 -171.801171 
L 180.769987 -172.075944 
L 183.740467 -172.687583 
L 186.710946 -173.792995 
L 189.681425 -175.589521 
L 192.651905 -178.319435 
L 195.622384 -182.261116 
L 198.592864 -187.699963 
L 201.563343 -194.87699 
L 204.533823 -203.920934 
L 207.504302 -214.776778 
L 210.474782 -227.146968 
L 213.445261 -240.462828 
L 216.41574 -253.905323 
L 219.38622 -266.492095 
L 222.356699 -277.23137 
L 225.327179 -285.311023 
L 228.297658 -290.261482 
L 231.268138 -292.032 
L 234.238617 -290.958973 
L 237.209096 -287.655938 
L 240.179576 -282.879072 
L 243.150055 -277.405587 
L 246.120535 -271.929209 
L 249.091014 -266.962823 
L 252.061494 -262.755902 
L 255.031973 -259.261038 
L 258.002453 -256.18503 
L 260.972932 -253.123005 
L 263.943411 -249.723477 
L 266.913891 -245.810175 
L 269.88437 -241.41333 
L 272.85485 -236.717139 
L 275.825329 -231.968715 
L 278.795809 -227.394769 
L 281.766288 -223.14999 
L 284.736768 -219.301131 
L 287.707247 -215.841528 
L 290.677726 -212.724728 
L 293.648206 -209.900716 
L 296.618685 -207.340807 
L 299.589165 -205.047411 
L 302.559644 -203.050603 
L 305.530124 -201.388028 
L 308.500603 -200.06121 
L 311.471082 -198.977419 
L 314.441562 -197.914684 
L 317.412041 -196.555268 
L 320.382521 -194.597148 
L 323.353 -191.894153 
L 326.32348 -188.543557 
L 329.293959 -184.866019 
L 332.264439 -181.2879 
L 335.234918 -178.190307 
L 338.205397 -175.797547 
L 341.175877 -174.144076 
L 344.146356 -173.113938 
L 347.116836 -172.51783 
L 350.087315 -172.16877 
L 353.057795 -171.930449 
L 356.028274 -171.730859 
L 358.998754 -171.549106 
L 361.969233 -171.39081 
L 364.939712 -171.26638 
L 367.910192 -171.179554 
L 367.910192 -170.964446 
L 367.910192 -170.964446 
L 364.939712 -170.87762 
L 361.969233 -170.75319 
L 358.998754 -170.594894 
L 356.028274 -170.413141 
L 353.057795 -170.213551 
L 350.087315 -169.97523 
L 347.116836 -169.62617 
L 344.146356 -169.030062 
L 341.175877 -167.999924 
L 338.205397 -166.346453 
L 335.234918 -163.953693 
L 332.264439 -160.8561 
L 329.293959 -157.277981 
L 326.32348 -153.600443 
L 323.353 -150.249847 
L 320.382521 -147.546852 
L 317.412041 -145.588732 
L 314.441562 -144.229316 
L 311.471082 -143.166581 
L 308.500603 -142.08279 
L 305.530124 -140.755972 
L 302.559644 -139.093397 
L 299.589165 -137.096589 
L 296.618685 -134.803193 
L 293.648206 -132.243284 
L 290.677726 -129.419272 
L 287.707247 -126.302472 
L 284.736768 -122.842869 
L 281.766288 -118.99401 
L 278.795809 -114.749231 
L 275.825329 -110.175285 
L 272.85485 -105.426861 
L 269.88437 -100.73067 
L 266.913891 -96.333825 
L 263.943411 -92.420523 
L 260.972932 -89.020995 
L 258.002453 -85.95897 
L 255.031973 -82.882962 
L 252.061494 -79.388098 
L 249.091014 -75.181177 
L 246.120535 -70.214791 
L 243.150055 -64.738413 
L 240.179576 -59.264928 
L 237.209096 -54.488062 
L 234.238617 -51.185027 
L 231.268138 -50.112 
L 228.297658 -51.882518 
L 225.327179 -56.832977 
L 222.356699 -64.91263 
L 219.38622 -75.651905 
L 216.41574 -88.238677 
L 213.445261 -101.681172 
L 210.474782 -114.997032 
L 207.504302 -127.367222 
L 204.533823 -138.223066 
L 201.563343 -147.26701 
L 198.592864 -154.444037 
L 195.622384 -159.882884 
L 192.651905 -163.824565 
L 189.681425 -166.554479 
L 186.710946 -168.351005 
L 183.740467 -169.456417 
L 180.769987 -170.068056 
L 177.799508 -170.342829 
L 174.829028 -170.407018 
L 171.858549 -170.364493 
L 168.888069 -170.298928 
L 165.91759 -170.269811 
L 162.94711 -170.30674 
L 159.976631 -170.408628 
L 157.006152 -170.551554 
L 154.035672 -170.702965 
L 151.065193 -170.835613 
L 148.094713 -170.935235 
L 145.124234 -171.000535 
L 142.153754 -171.038273 
L 139.183275 -171.057622 
L 136.212796 -171.066454 
L 133.242316 -171.070023 
L 130.271837 -171.071191 
L 127.301357 -171.071117 
L 124.330878 -171.06972 
L 121.360398 -171.065647 
L 118.389919 -171.055748 
L 115.419439 -171.034402 
L 112.44896 -170.993435 
L 109.478481 -170.92373 
L 106.508001 -170.819283 
L 103.537522 -170.682982 
L 100.567042 -170.531172 
L 97.596563 -170.392947 
L 94.626083 -170.301978 
L 91.655604 -170.283399 
L 88.685124 -170.342599 
L 85.714645 -170.462701 
L 82.744166 -170.612327 
L 79.773686 -170.7588 
L 76.803207 -170.87927 
L 73.832727 -170.964889 
z
" id="mcb7412bd25" style="stroke:#262626;stroke-opacity:0.5;stroke-width:1.5;"/>
    </defs>
    <g clip-path="url(#p1d6849cc6a)">
     <use style="fill:#107010;fill-opacity:0.5;stroke:#262626;stroke-opacity:0.5;stroke-width:1.5;" x="0" xlink:href="#mcb7412bd25" y="345.6"/>
    </g>
   </g>
   <g id="matplotlib.axis_1">
    <g id="xtick_1">
     <g id="line2d_1">
      <defs>
       <path d="M 0 0 
L 0 3.5 
" id="m57906bc7df" style="stroke:#000000;stroke-width:0.8;"/>
      </defs>
      <g>
       <use style="stroke:#000000;stroke-width:0.8;" x="94.533919" xlink:href="#m57906bc7df" y="307.584"/>
      </g>
     </g>
     <g id="text_1">
      <!-- 92 -->
      <defs>
       <path d="M 10.984375 1.515625 
L 10.984375 10.5 
Q 14.703125 8.734375 18.5 7.8125 
Q 22.3125 6.890625 25.984375 6.890625 
Q 35.75 6.890625 40.890625 13.453125 
Q 46.046875 20.015625 46.78125 33.40625 
Q 43.953125 29.203125 39.59375 26.953125 
Q 35.25 24.703125 29.984375 24.703125 
Q 19.046875 24.703125 12.671875 31.3125 
Q 6.296875 37.9375 6.296875 49.421875 
Q 6.296875 60.640625 12.9375 67.421875 
Q 19.578125 74.21875 30.609375 74.21875 
Q 43.265625 74.21875 49.921875 64.515625 
Q 56.59375 54.828125 56.59375 36.375 
Q 56.59375 19.140625 48.40625 8.859375 
Q 40.234375 -1.421875 26.421875 -1.421875 
Q 22.703125 -1.421875 18.890625 -0.6875 
Q 15.09375 0.046875 10.984375 1.515625 
z
M 30.609375 32.421875 
Q 37.25 32.421875 41.125 36.953125 
Q 45.015625 41.5 45.015625 49.421875 
Q 45.015625 57.28125 41.125 61.84375 
Q 37.25 66.40625 30.609375 66.40625 
Q 23.96875 66.40625 20.09375 61.84375 
Q 16.21875 57.28125 16.21875 49.421875 
Q 16.21875 41.5 20.09375 36.953125 
Q 23.96875 32.421875 30.609375 32.421875 
z
" id="DejaVuSans-57"/>
       <path d="M 19.1875 8.296875 
L 53.609375 8.296875 
L 53.609375 0 
L 7.328125 0 
L 7.328125 8.296875 
Q 12.9375 14.109375 22.625 23.890625 
Q 32.328125 33.6875 34.8125 36.53125 
Q 39.546875 41.84375 41.421875 45.53125 
Q 43.3125 49.21875 43.3125 52.78125 
Q 43.3125 58.59375 39.234375 62.25 
Q 35.15625 65.921875 28.609375 65.921875 
Q 23.96875 65.921875 18.8125 64.3125 
Q 13.671875 62.703125 7.8125 59.421875 
L 7.8125 69.390625 
Q 13.765625 71.78125 18.9375 73 
Q 24.125 74.21875 28.421875 74.21875 
Q 39.75 74.21875 46.484375 68.546875 
Q 53.21875 62.890625 53.21875 53.421875 
Q 53.21875 48.921875 51.53125 44.890625 
Q 49.859375 40.875 45.40625 35.40625 
Q 44.1875 33.984375 37.640625 27.21875 
Q 31.109375 20.453125 19.1875 8.296875 
z
" id="DejaVuSans-50"/>
      </defs>
      <g transform="translate(88.171419 322.182437)scale(0.1 -0.1)">
       <use xlink:href="#DejaVuSans-57"/>
       <use x="63.623047" xlink:href="#DejaVuSans-50"/>
      </g>
     </g>
    </g>
    <g id="xtick_2">
     <g id="line2d_2">
      <g>
       <use style="stroke:#000000;stroke-width:0.8;" x="136.298395" xlink:href="#m57906bc7df" y="307.584"/>
      </g>
     </g>
     <g id="text_2">
      <!-- 94 -->
      <defs>
       <path d="M 37.796875 64.3125 
L 12.890625 25.390625 
L 37.796875 25.390625 
z
M 35.203125 72.90625 
L 47.609375 72.90625 
L 47.609375 25.390625 
L 58.015625 25.390625 
L 58.015625 17.1875 
L 47.609375 17.1875 
L 47.609375 0 
L 37.796875 0 
L 37.796875 17.1875 
L 4.890625 17.1875 
L 4.890625 26.703125 
z
" id="DejaVuSans-52"/>
      </defs>
      <g transform="translate(129.935895 322.182437)scale(0.1 -0.1)">
       <use xlink:href="#DejaVuSans-57"/>
       <use x="63.623047" xlink:href="#DejaVuSans-52"/>
      </g>
     </g>
    </g>
    <g id="xtick_3">
     <g id="line2d_3">
      <g>
       <use style="stroke:#000000;stroke-width:0.8;" x="178.062872" xlink:href="#m57906bc7df" y="307.584"/>
      </g>
     </g>
     <g id="text_3">
      <!-- 96 -->
      <defs>
       <path d="M 33.015625 40.375 
Q 26.375 40.375 22.484375 35.828125 
Q 18.609375 31.296875 18.609375 23.390625 
Q 18.609375 15.53125 22.484375 10.953125 
Q 26.375 6.390625 33.015625 6.390625 
Q 39.65625 6.390625 43.53125 10.953125 
Q 47.40625 15.53125 47.40625 23.390625 
Q 47.40625 31.296875 43.53125 35.828125 
Q 39.65625 40.375 33.015625 40.375 
z
M 52.59375 71.296875 
L 52.59375 62.3125 
Q 48.875 64.0625 45.09375 64.984375 
Q 41.3125 65.921875 37.59375 65.921875 
Q 27.828125 65.921875 22.671875 59.328125 
Q 17.53125 52.734375 16.796875 39.40625 
Q 19.671875 43.65625 24.015625 45.921875 
Q 28.375 48.1875 33.59375 48.1875 
Q 44.578125 48.1875 50.953125 41.515625 
Q 57.328125 34.859375 57.328125 23.390625 
Q 57.328125 12.15625 50.6875 5.359375 
Q 44.046875 -1.421875 33.015625 -1.421875 
Q 20.359375 -1.421875 13.671875 8.265625 
Q 6.984375 17.96875 6.984375 36.375 
Q 6.984375 53.65625 15.1875 63.9375 
Q 23.390625 74.21875 37.203125 74.21875 
Q 40.921875 74.21875 44.703125 73.484375 
Q 48.484375 72.75 52.59375 71.296875 
z
" id="DejaVuSans-54"/>
      </defs>
      <g transform="translate(171.700372 322.182437)scale(0.1 -0.1)">
       <use xlink:href="#DejaVuSans-57"/>
       <use x="63.623047" xlink:href="#DejaVuSans-54"/>
      </g>
     </g>
    </g>
    <g id="xtick_4">
     <g id="line2d_4">
      <g>
       <use style="stroke:#000000;stroke-width:0.8;" x="219.827348" xlink:href="#m57906bc7df" y="307.584"/>
      </g>
     </g>
     <g id="text_4">
      <!-- 98 -->
      <defs>
       <path d="M 31.78125 34.625 
Q 24.75 34.625 20.71875 30.859375 
Q 16.703125 27.09375 16.703125 20.515625 
Q 16.703125 13.921875 20.71875 10.15625 
Q 24.75 6.390625 31.78125 6.390625 
Q 38.8125 6.390625 42.859375 10.171875 
Q 46.921875 13.96875 46.921875 20.515625 
Q 46.921875 27.09375 42.890625 30.859375 
Q 38.875 34.625 31.78125 34.625 
z
M 21.921875 38.8125 
Q 15.578125 40.375 12.03125 44.71875 
Q 8.5 49.078125 8.5 55.328125 
Q 8.5 64.0625 14.71875 69.140625 
Q 20.953125 74.21875 31.78125 74.21875 
Q 42.671875 74.21875 48.875 69.140625 
Q 55.078125 64.0625 55.078125 55.328125 
Q 55.078125 49.078125 51.53125 44.71875 
Q 48 40.375 41.703125 38.8125 
Q 48.828125 37.15625 52.796875 32.3125 
Q 56.78125 27.484375 56.78125 20.515625 
Q 56.78125 9.90625 50.3125 4.234375 
Q 43.84375 -1.421875 31.78125 -1.421875 
Q 19.734375 -1.421875 13.25 4.234375 
Q 6.78125 9.90625 6.78125 20.515625 
Q 6.78125 27.484375 10.78125 32.3125 
Q 14.796875 37.15625 21.921875 38.8125 
z
M 18.3125 54.390625 
Q 18.3125 48.734375 21.84375 45.5625 
Q 25.390625 42.390625 31.78125 42.390625 
Q 38.140625 42.390625 41.71875 45.5625 
Q 45.3125 48.734375 45.3125 54.390625 
Q 45.3125 60.0625 41.71875 63.234375 
Q 38.140625 66.40625 31.78125 66.40625 
Q 25.390625 66.40625 21.84375 63.234375 
Q 18.3125 60.0625 18.3125 54.390625 
z
" id="DejaVuSans-56"/>
      </defs>
      <g transform="translate(213.464848 322.182437)scale(0.1 -0.1)">
       <use xlink:href="#DejaVuSans-57"/>
       <use x="63.623047" xlink:href="#DejaVuSans-56"/>
      </g>
     </g>
    </g>
    <g id="xtick_5">
     <g id="line2d_5">
      <g>
       <use style="stroke:#000000;stroke-width:0.8;" x="261.591824" xlink:href="#m57906bc7df" y="307.584"/>
      </g>
     </g>
     <g id="text_5">
      <!-- 100 -->
      <defs>
       <path d="M 12.40625 8.296875 
L 28.515625 8.296875 
L 28.515625 63.921875 
L 10.984375 60.40625 
L 10.984375 69.390625 
L 28.421875 72.90625 
L 38.28125 72.90625 
L 38.28125 8.296875 
L 54.390625 8.296875 
L 54.390625 0 
L 12.40625 0 
z
" id="DejaVuSans-49"/>
       <path d="M 31.78125 66.40625 
Q 24.171875 66.40625 20.328125 58.90625 
Q 16.5 51.421875 16.5 36.375 
Q 16.5 21.390625 20.328125 13.890625 
Q 24.171875 6.390625 31.78125 6.390625 
Q 39.453125 6.390625 43.28125 13.890625 
Q 47.125 21.390625 47.125 36.375 
Q 47.125 51.421875 43.28125 58.90625 
Q 39.453125 66.40625 31.78125 66.40625 
z
M 31.78125 74.21875 
Q 44.046875 74.21875 50.515625 64.515625 
Q 56.984375 54.828125 56.984375 36.375 
Q 56.984375 17.96875 50.515625 8.265625 
Q 44.046875 -1.421875 31.78125 -1.421875 
Q 19.53125 -1.421875 13.0625 8.265625 
Q 6.59375 17.96875 6.59375 36.375 
Q 6.59375 54.828125 13.0625 64.515625 
Q 19.53125 74.21875 31.78125 74.21875 
z
" id="DejaVuSans-48"/>
      </defs>
      <g transform="translate(252.048074 322.182437)scale(0.1 -0.1)">
       <use xlink:href="#DejaVuSans-49"/>
       <use x="63.623047" xlink:href="#DejaVuSans-48"/>
       <use x="127.246094" xlink:href="#DejaVuSans-48"/>
      </g>
     </g>
    </g>
    <g id="xtick_6">
     <g id="line2d_6">
      <g>
       <use style="stroke:#000000;stroke-width:0.8;" x="303.3563" xlink:href="#m57906bc7df" y="307.584"/>
      </g>
     </g>
     <g id="text_6">
      <!-- 102 -->
      <g transform="translate(293.81255 322.182437)scale(0.1 -0.1)">
       <use xlink:href="#DejaVuSans-49"/>
       <use x="63.623047" xlink:href="#DejaVuSans-48"/>
       <use x="127.246094" xlink:href="#DejaVuSans-50"/>
      </g>
     </g>
    </g>
    <g id="xtick_7">
     <g id="line2d_7">
      <g>
       <use style="stroke:#000000;stroke-width:0.8;" x="345.120776" xlink:href="#m57906bc7df" y="307.584"/>
      </g>
     </g>
     <g id="text_7">
      <!-- 104 -->
      <g transform="translate(335.577026 322.182437)scale(0.1 -0.1)">
       <use xlink:href="#DejaVuSans-49"/>
       <use x="63.623047" xlink:href="#DejaVuSans-48"/>
       <use x="127.246094" xlink:href="#DejaVuSans-52"/>
      </g>
     </g>
    </g>
    <g id="xtick_8">
     <g id="line2d_8">
      <g>
       <use style="stroke:#000000;stroke-width:0.8;" x="386.885252" xlink:href="#m57906bc7df" y="307.584"/>
      </g>
     </g>
     <g id="text_8">
      <!-- 106 -->
      <g transform="translate(377.341502 322.182437)scale(0.1 -0.1)">
       <use xlink:href="#DejaVuSans-49"/>
       <use x="63.623047" xlink:href="#DejaVuSans-48"/>
       <use x="127.246094" xlink:href="#DejaVuSans-54"/>
      </g>
     </g>
    </g>
    <g id="text_9">
     <!-- initial_temp -->
     <defs>
      <path d="M 9.421875 54.6875 
L 18.40625 54.6875 
L 18.40625 0 
L 9.421875 0 
z
M 9.421875 75.984375 
L 18.40625 75.984375 
L 18.40625 64.59375 
L 9.421875 64.59375 
z
" id="DejaVuSans-105"/>
      <path d="M 54.890625 33.015625 
L 54.890625 0 
L 45.90625 0 
L 45.90625 32.71875 
Q 45.90625 40.484375 42.875 44.328125 
Q 39.84375 48.1875 33.796875 48.1875 
Q 26.515625 48.1875 22.3125 43.546875 
Q 18.109375 38.921875 18.109375 30.90625 
L 18.109375 0 
L 9.078125 0 
L 9.078125 54.6875 
L 18.109375 54.6875 
L 18.109375 46.1875 
Q 21.34375 51.125 25.703125 53.5625 
Q 30.078125 56 35.796875 56 
Q 45.21875 56 50.046875 50.171875 
Q 54.890625 44.34375 54.890625 33.015625 
z
" id="DejaVuSans-110"/>
      <path d="M 18.3125 70.21875 
L 18.3125 54.6875 
L 36.8125 54.6875 
L 36.8125 47.703125 
L 18.3125 47.703125 
L 18.3125 18.015625 
Q 18.3125 11.328125 20.140625 9.421875 
Q 21.96875 7.515625 27.59375 7.515625 
L 36.8125 7.515625 
L 36.8125 0 
L 27.59375 0 
Q 17.1875 0 13.234375 3.875 
Q 9.28125 7.765625 9.28125 18.015625 
L 9.28125 47.703125 
L 2.6875 47.703125 
L 2.6875 54.6875 
L 9.28125 54.6875 
L 9.28125 70.21875 
z
" id="DejaVuSans-116"/>
      <path d="M 34.28125 27.484375 
Q 23.390625 27.484375 19.1875 25 
Q 14.984375 22.515625 14.984375 16.5 
Q 14.984375 11.71875 18.140625 8.90625 
Q 21.296875 6.109375 26.703125 6.109375 
Q 34.1875 6.109375 38.703125 11.40625 
Q 43.21875 16.703125 43.21875 25.484375 
L 43.21875 27.484375 
z
M 52.203125 31.203125 
L 52.203125 0 
L 43.21875 0 
L 43.21875 8.296875 
Q 40.140625 3.328125 35.546875 0.953125 
Q 30.953125 -1.421875 24.3125 -1.421875 
Q 15.921875 -1.421875 10.953125 3.296875 
Q 6 8.015625 6 15.921875 
Q 6 25.140625 12.171875 29.828125 
Q 18.359375 34.515625 30.609375 34.515625 
L 43.21875 34.515625 
L 43.21875 35.40625 
Q 43.21875 41.609375 39.140625 45 
Q 35.0625 48.390625 27.6875 48.390625 
Q 23 48.390625 18.546875 47.265625 
Q 14.109375 46.140625 10.015625 43.890625 
L 10.015625 52.203125 
Q 14.9375 54.109375 19.578125 55.046875 
Q 24.21875 56 28.609375 56 
Q 40.484375 56 46.34375 49.84375 
Q 52.203125 43.703125 52.203125 31.203125 
z
" id="DejaVuSans-97"/>
      <path d="M 9.421875 75.984375 
L 18.40625 75.984375 
L 18.40625 0 
L 9.421875 0 
z
" id="DejaVuSans-108"/>
      <path d="M 50.984375 -16.609375 
L 50.984375 -23.578125 
L -0.984375 -23.578125 
L -0.984375 -16.609375 
z
" id="DejaVuSans-95"/>
      <path d="M 56.203125 29.59375 
L 56.203125 25.203125 
L 14.890625 25.203125 
Q 15.484375 15.921875 20.484375 11.0625 
Q 25.484375 6.203125 34.421875 6.203125 
Q 39.59375 6.203125 44.453125 7.46875 
Q 49.3125 8.734375 54.109375 11.28125 
L 54.109375 2.78125 
Q 49.265625 0.734375 44.1875 -0.34375 
Q 39.109375 -1.421875 33.890625 -1.421875 
Q 20.796875 -1.421875 13.15625 6.1875 
Q 5.515625 13.8125 5.515625 26.8125 
Q 5.515625 40.234375 12.765625 48.109375 
Q 20.015625 56 32.328125 56 
Q 43.359375 56 49.78125 48.890625 
Q 56.203125 41.796875 56.203125 29.59375 
z
M 47.21875 32.234375 
Q 47.125 39.59375 43.09375 43.984375 
Q 39.0625 48.390625 32.421875 48.390625 
Q 24.90625 48.390625 20.390625 44.140625 
Q 15.875 39.890625 15.1875 32.171875 
z
" id="DejaVuSans-101"/>
      <path d="M 52 44.1875 
Q 55.375 50.25 60.0625 53.125 
Q 64.75 56 71.09375 56 
Q 79.640625 56 84.28125 50.015625 
Q 88.921875 44.046875 88.921875 33.015625 
L 88.921875 0 
L 79.890625 0 
L 79.890625 32.71875 
Q 79.890625 40.578125 77.09375 44.375 
Q 74.3125 48.1875 68.609375 48.1875 
Q 61.625 48.1875 57.5625 43.546875 
Q 53.515625 38.921875 53.515625 30.90625 
L 53.515625 0 
L 44.484375 0 
L 44.484375 32.71875 
Q 44.484375 40.625 41.703125 44.40625 
Q 38.921875 48.1875 33.109375 48.1875 
Q 26.21875 48.1875 22.15625 43.53125 
Q 18.109375 38.875 18.109375 30.90625 
L 18.109375 0 
L 9.078125 0 
L 9.078125 54.6875 
L 18.109375 54.6875 
L 18.109375 46.1875 
Q 21.1875 51.21875 25.484375 53.609375 
Q 29.78125 56 35.6875 56 
Q 41.65625 56 45.828125 52.96875 
Q 50 49.953125 52 44.1875 
z
" id="DejaVuSans-109"/>
      <path d="M 18.109375 8.203125 
L 18.109375 -20.796875 
L 9.078125 -20.796875 
L 9.078125 54.6875 
L 18.109375 54.6875 
L 18.109375 46.390625 
Q 20.953125 51.265625 25.265625 53.625 
Q 29.59375 56 35.59375 56 
Q 45.5625 56 51.78125 48.09375 
Q 58.015625 40.1875 58.015625 27.296875 
Q 58.015625 14.40625 51.78125 6.484375 
Q 45.5625 -1.421875 35.59375 -1.421875 
Q 29.59375 -1.421875 25.265625 0.953125 
Q 20.953125 3.328125 18.109375 8.203125 
z
M 48.6875 27.296875 
Q 48.6875 37.203125 44.609375 42.84375 
Q 40.53125 48.484375 33.40625 48.484375 
Q 26.265625 48.484375 22.1875 42.84375 
Q 18.109375 37.203125 18.109375 27.296875 
Q 18.109375 17.390625 22.1875 11.75 
Q 26.265625 6.109375 33.40625 6.109375 
Q 40.53125 6.109375 44.609375 11.75 
Q 48.6875 17.390625 48.6875 27.296875 
z
" id="DejaVuSans-112"/>
     </defs>
     <g transform="translate(206.829531 335.860562)scale(0.1 -0.1)">
      <use xlink:href="#DejaVuSans-105"/>
      <use x="27.783203" xlink:href="#DejaVuSans-110"/>
      <use x="91.162109" xlink:href="#DejaVuSans-105"/>
      <use x="118.945312" xlink:href="#DejaVuSans-116"/>
      <use x="158.154297" xlink:href="#DejaVuSans-105"/>
      <use x="185.9375" xlink:href="#DejaVuSans-97"/>
      <use x="247.216797" xlink:href="#DejaVuSans-108"/>
      <use x="275" xlink:href="#DejaVuSans-95"/>
      <use x="325" xlink:href="#DejaVuSans-116"/>
      <use x="364.208984" xlink:href="#DejaVuSans-101"/>
      <use x="425.732422" xlink:href="#DejaVuSans-109"/>
      <use x="523.144531" xlink:href="#DejaVuSans-112"/>
     </g>
    </g>
   </g>
   <g id="matplotlib.axis_2">
    <g id="ytick_1">
     <g id="line2d_9">
      <defs>
       <path d="M 0 0 
L -3.5 0 
" id="m1dad6cde2b" style="stroke:#000000;stroke-width:0.8;"/>
      </defs>
      <g>
       <use style="stroke:#000000;stroke-width:0.8;" x="57.6" xlink:href="#m1dad6cde2b" y="174.528"/>
      </g>
     </g>
    </g>
   </g>
   <g id="line2d_10">
    <path clip-path="url(#p1d6849cc6a)" d="M 203.121557 174.528 
L 267.856495 174.528 
" style="fill:none;stroke:#ffa500;stroke-linecap:square;stroke-width:1.5;"/>
   </g>
   <g id="line2d_11">
    <path clip-path="url(#p1d6849cc6a)" d="M 224.003795 174.528 
L 246.974257 174.528 
" style="fill:none;stroke:#4c4c4c;stroke-linecap:square;stroke-width:4.5;"/>
   </g>
   <g id="line2d_12">
    <path clip-path="url(#p1d6849cc6a)" d="M 165.533529 174.528 
L 330.503209 174.528 
" style="fill:none;stroke:#008000;stroke-linecap:square;stroke-width:1.5;"/>
   </g>
   <g id="line2d_13">
    <path clip-path="url(#p1d6849cc6a)" d="M 228.180243 174.528 
L 272.032943 174.528 
" style="fill:none;stroke:#262626;stroke-linecap:square;stroke-width:4.5;"/>
   </g>
   <g id="patch_3">
    <path d="M 57.6 307.584 
L 57.6 41.472 
" style="fill:none;stroke:#000000;stroke-linecap:square;stroke-linejoin:miter;stroke-width:0.8;"/>
   </g>
   <g id="patch_4">
    <path d="M 414.72 307.584 
L 414.72 41.472 
" style="fill:none;stroke:#000000;stroke-linecap:square;stroke-linejoin:miter;stroke-width:0.8;"/>
   </g>
   <g id="patch_5">
    <path d="M 57.6 307.584 
L 414.72 307.584 
" style="fill:none;stroke:#000000;stroke-linecap:square;stroke-linejoin:miter;stroke-width:0.8;"/>
   </g>
   <g id="patch_6">
    <path d="M 57.6 41.472 
L 414.72 41.472 
" style="fill:none;stroke:#000000;stroke-linecap:square;stroke-linejoin:miter;stroke-width:0.8;"/>
   </g>
   <g id="PathCollection_1">
    <defs>
     <path d="M 0 1.5 
C 0.397805 1.5 0.77937 1.341951 1.06066 1.06066 
C 1.341951 0.77937 1.5 0.397805 1.5 0 
C 1.5 -0.397805 1.341951 -0.77937 1.06066 -1.06066 
C 0.77937 -1.341951 0.397805 -1.5 0 -1.5 
C -0.397805 -1.5 -0.77937 -1.341951 -1.06066 -1.06066 
C -1.341951 -0.77937 -1.5 -0.397805 -1.5 0 
C -1.5 0.397805 -1.341951 0.77937 -1.06066 1.06066 
C -0.77937 1.341951 -0.397805 1.5 0 1.5 
z
" id="m6502b888ab" style="stroke:#4c4c4c;stroke-opacity:0.5;"/>
    </defs>
    <g clip-path="url(#p1d6849cc6a)">
     <use style="fill:#ffffff;fill-opacity:0.5;stroke:#4c4c4c;stroke-opacity:0.5;" x="232.35669" xlink:href="#m6502b888ab" y="174.528"/>
    </g>
   </g>
   <g id="PathCollection_2">
    <defs>
     <path d="M 0 1.5 
C 0.397805 1.5 0.77937 1.341951 1.06066 1.06066 
C 1.341951 0.77937 1.5 0.397805 1.5 0 
C 1.5 -0.397805 1.341951 -0.77937 1.06066 -1.06066 
C 0.77937 -1.341951 0.397805 -1.5 0 -1.5 
C -0.397805 -1.5 -0.77937 -1.341951 -1.06066 -1.06066 
C -1.341951 -0.77937 -1.5 -0.397805 -1.5 0 
C -1.5 0.397805 -1.341951 0.77937 -1.06066 1.06066 
C -0.77937 1.341951 -0.397805 1.5 0 1.5 
z
" id="m07532df70a" style="stroke:#262626;stroke-opacity:0.5;"/>
    </defs>
    <g clip-path="url(#p1d6849cc6a)">
     <use style="fill:#ffffff;fill-opacity:0.5;stroke:#262626;stroke-opacity:0.5;" x="244.886033" xlink:href="#m07532df70a" y="174.528"/>
    </g>
   </g>
   <g id="text_10">
    <!-- Association of initial_temp vs. cpap_bpap -->
    <defs>
     <path d="M 34.1875 63.1875 
L 20.796875 26.90625 
L 47.609375 26.90625 
z
M 28.609375 72.90625 
L 39.796875 72.90625 
L 67.578125 0 
L 57.328125 0 
L 50.6875 18.703125 
L 17.828125 18.703125 
L 11.1875 0 
L 0.78125 0 
z
" id="DejaVuSans-65"/>
     <path d="M 44.28125 53.078125 
L 44.28125 44.578125 
Q 40.484375 46.53125 36.375 47.5 
Q 32.28125 48.484375 27.875 48.484375 
Q 21.1875 48.484375 17.84375 46.4375 
Q 14.5 44.390625 14.5 40.28125 
Q 14.5 37.15625 16.890625 35.375 
Q 19.28125 33.59375 26.515625 31.984375 
L 29.59375 31.296875 
Q 39.15625 29.25 43.1875 25.515625 
Q 47.21875 21.78125 47.21875 15.09375 
Q 47.21875 7.46875 41.1875 3.015625 
Q 35.15625 -1.421875 24.609375 -1.421875 
Q 20.21875 -1.421875 15.453125 -0.5625 
Q 10.6875 0.296875 5.421875 2 
L 5.421875 11.28125 
Q 10.40625 8.6875 15.234375 7.390625 
Q 20.0625 6.109375 24.8125 6.109375 
Q 31.15625 6.109375 34.5625 8.28125 
Q 37.984375 10.453125 37.984375 14.40625 
Q 37.984375 18.0625 35.515625 20.015625 
Q 33.0625 21.96875 24.703125 23.78125 
L 21.578125 24.515625 
Q 13.234375 26.265625 9.515625 29.90625 
Q 5.8125 33.546875 5.8125 39.890625 
Q 5.8125 47.609375 11.28125 51.796875 
Q 16.75 56 26.8125 56 
Q 31.78125 56 36.171875 55.265625 
Q 40.578125 54.546875 44.28125 53.078125 
z
" id="DejaVuSans-115"/>
     <path d="M 30.609375 48.390625 
Q 23.390625 48.390625 19.1875 42.75 
Q 14.984375 37.109375 14.984375 27.296875 
Q 14.984375 17.484375 19.15625 11.84375 
Q 23.34375 6.203125 30.609375 6.203125 
Q 37.796875 6.203125 41.984375 11.859375 
Q 46.1875 17.53125 46.1875 27.296875 
Q 46.1875 37.015625 41.984375 42.703125 
Q 37.796875 48.390625 30.609375 48.390625 
z
M 30.609375 56 
Q 42.328125 56 49.015625 48.375 
Q 55.71875 40.765625 55.71875 27.296875 
Q 55.71875 13.875 49.015625 6.21875 
Q 42.328125 -1.421875 30.609375 -1.421875 
Q 18.84375 -1.421875 12.171875 6.21875 
Q 5.515625 13.875 5.515625 27.296875 
Q 5.515625 40.765625 12.171875 48.375 
Q 18.84375 56 30.609375 56 
z
" id="DejaVuSans-111"/>
     <path d="M 48.78125 52.59375 
L 48.78125 44.1875 
Q 44.96875 46.296875 41.140625 47.34375 
Q 37.3125 48.390625 33.40625 48.390625 
Q 24.65625 48.390625 19.8125 42.84375 
Q 14.984375 37.3125 14.984375 27.296875 
Q 14.984375 17.28125 19.8125 11.734375 
Q 24.65625 6.203125 33.40625 6.203125 
Q 37.3125 6.203125 41.140625 7.25 
Q 44.96875 8.296875 48.78125 10.40625 
L 48.78125 2.09375 
Q 45.015625 0.34375 40.984375 -0.53125 
Q 36.96875 -1.421875 32.421875 -1.421875 
Q 20.0625 -1.421875 12.78125 6.34375 
Q 5.515625 14.109375 5.515625 27.296875 
Q 5.515625 40.671875 12.859375 48.328125 
Q 20.21875 56 33.015625 56 
Q 37.15625 56 41.109375 55.140625 
Q 45.0625 54.296875 48.78125 52.59375 
z
" id="DejaVuSans-99"/>
     <path id="DejaVuSans-32"/>
     <path d="M 37.109375 75.984375 
L 37.109375 68.5 
L 28.515625 68.5 
Q 23.6875 68.5 21.796875 66.546875 
Q 19.921875 64.59375 19.921875 59.515625 
L 19.921875 54.6875 
L 34.71875 54.6875 
L 34.71875 47.703125 
L 19.921875 47.703125 
L 19.921875 0 
L 10.890625 0 
L 10.890625 47.703125 
L 2.296875 47.703125 
L 2.296875 54.6875 
L 10.890625 54.6875 
L 10.890625 58.5 
Q 10.890625 67.625 15.140625 71.796875 
Q 19.390625 75.984375 28.609375 75.984375 
z
" id="DejaVuSans-102"/>
     <path d="M 2.984375 54.6875 
L 12.5 54.6875 
L 29.59375 8.796875 
L 46.6875 54.6875 
L 56.203125 54.6875 
L 35.6875 0 
L 23.484375 0 
z
" id="DejaVuSans-118"/>
     <path d="M 10.6875 12.40625 
L 21 12.40625 
L 21 0 
L 10.6875 0 
z
" id="DejaVuSans-46"/>
     <path d="M 48.6875 27.296875 
Q 48.6875 37.203125 44.609375 42.84375 
Q 40.53125 48.484375 33.40625 48.484375 
Q 26.265625 48.484375 22.1875 42.84375 
Q 18.109375 37.203125 18.109375 27.296875 
Q 18.109375 17.390625 22.1875 11.75 
Q 26.265625 6.109375 33.40625 6.109375 
Q 40.53125 6.109375 44.609375 11.75 
Q 48.6875 17.390625 48.6875 27.296875 
z
M 18.109375 46.390625 
Q 20.953125 51.265625 25.265625 53.625 
Q 29.59375 56 35.59375 56 
Q 45.5625 56 51.78125 48.09375 
Q 58.015625 40.1875 58.015625 27.296875 
Q 58.015625 14.40625 51.78125 6.484375 
Q 45.5625 -1.421875 35.59375 -1.421875 
Q 29.59375 -1.421875 25.265625 0.953125 
Q 20.953125 3.328125 18.109375 8.203125 
L 18.109375 0 
L 9.078125 0 
L 9.078125 75.984375 
L 18.109375 75.984375 
z
" id="DejaVuSans-98"/>
    </defs>
    <g transform="translate(112.108125 35.472)scale(0.12 -0.12)">
     <use xlink:href="#DejaVuSans-65"/>
     <use x="68.408203" xlink:href="#DejaVuSans-115"/>
     <use x="120.507812" xlink:href="#DejaVuSans-115"/>
     <use x="172.607422" xlink:href="#DejaVuSans-111"/>
     <use x="233.789062" xlink:href="#DejaVuSans-99"/>
     <use x="288.769531" xlink:href="#DejaVuSans-105"/>
     <use x="316.552734" xlink:href="#DejaVuSans-97"/>
     <use x="377.832031" xlink:href="#DejaVuSans-116"/>
     <use x="417.041016" xlink:href="#DejaVuSans-105"/>
     <use x="444.824219" xlink:href="#DejaVuSans-111"/>
     <use x="506.005859" xlink:href="#DejaVuSans-110"/>
     <use x="569.384766" xlink:href="#DejaVuSans-32"/>
     <use x="601.171875" xlink:href="#DejaVuSans-111"/>
     <use x="662.353516" xlink:href="#DejaVuSans-102"/>
     <use x="697.558594" xlink:href="#DejaVuSans-32"/>
     <use x="729.345703" xlink:href="#DejaVuSans-105"/>
     <use x="757.128906" xlink:href="#DejaVuSans-110"/>
     <use x="820.507812" xlink:href="#DejaVuSans-105"/>
     <use x="848.291016" xlink:href="#DejaVuSans-116"/>
     <use x="887.5" xlink:href="#DejaVuSans-105"/>
     <use x="915.283203" xlink:href="#DejaVuSans-97"/>
     <use x="976.5625" xlink:href="#DejaVuSans-108"/>
     <use x="1004.345703" xlink:href="#DejaVuSans-95"/>
     <use x="1054.345703" xlink:href="#DejaVuSans-116"/>
     <use x="1093.554688" xlink:href="#DejaVuSans-101"/>
     <use x="1155.078125" xlink:href="#DejaVuSans-109"/>
     <use x="1252.490234" xlink:href="#DejaVuSans-112"/>
     <use x="1315.966797" xlink:href="#DejaVuSans-32"/>
     <use x="1347.753906" xlink:href="#DejaVuSans-118"/>
     <use x="1406.933594" xlink:href="#DejaVuSans-115"/>
     <use x="1459.033203" xlink:href="#DejaVuSans-46"/>
     <use x="1490.820312" xlink:href="#DejaVuSans-32"/>
     <use x="1522.607422" xlink:href="#DejaVuSans-99"/>
     <use x="1577.587891" xlink:href="#DejaVuSans-112"/>
     <use x="1641.064453" xlink:href="#DejaVuSans-97"/>
     <use x="1702.34375" xlink:href="#DejaVuSans-112"/>
     <use x="1765.820312" xlink:href="#DejaVuSans-95"/>
     <use x="1815.820312" xlink:href="#DejaVuSans-98"/>
     <use x="1879.296875" xlink:href="#DejaVuSans-112"/>
     <use x="1942.773438" xlink:href="#DejaVuSans-97"/>
     <use x="2004.052734" xlink:href="#DejaVuSans-112"/>
    </g>
   </g>
   <g id="legend_1">
    <g id="patch_7">
     <path d="M 270.455938 79.3845 
L 407.72 79.3845 
Q 409.72 79.3845 409.72 77.3845 
L 409.72 48.472 
Q 409.72 46.472 407.72 46.472 
L 270.455938 46.472 
Q 268.455938 46.472 268.455938 48.472 
L 268.455938 77.3845 
Q 268.455938 79.3845 270.455938 79.3845 
z
" style="fill:#ffffff;opacity:0.8;stroke:#cccccc;stroke-linejoin:miter;"/>
    </g>
    <g id="line2d_14">
     <path d="M 272.455938 54.570438 
L 292.455938 54.570438 
" style="fill:none;stroke:#ffa500;stroke-linecap:square;stroke-width:1.5;"/>
    </g>
    <g id="line2d_15"/>
    <g id="text_11">
     <!-- cpap_bpap (27) -->
     <defs>
      <path d="M 31 75.875 
Q 24.46875 64.65625 21.28125 53.65625 
Q 18.109375 42.671875 18.109375 31.390625 
Q 18.109375 20.125 21.3125 9.0625 
Q 24.515625 -2 31 -13.1875 
L 23.1875 -13.1875 
Q 15.875 -1.703125 12.234375 9.375 
Q 8.59375 20.453125 8.59375 31.390625 
Q 8.59375 42.28125 12.203125 53.3125 
Q 15.828125 64.359375 23.1875 75.875 
z
" id="DejaVuSans-40"/>
      <path d="M 8.203125 72.90625 
L 55.078125 72.90625 
L 55.078125 68.703125 
L 28.609375 0 
L 18.3125 0 
L 43.21875 64.59375 
L 8.203125 64.59375 
z
" id="DejaVuSans-55"/>
      <path d="M 8.015625 75.875 
L 15.828125 75.875 
Q 23.140625 64.359375 26.78125 53.3125 
Q 30.421875 42.28125 30.421875 31.390625 
Q 30.421875 20.453125 26.78125 9.375 
Q 23.140625 -1.703125 15.828125 -13.1875 
L 8.015625 -13.1875 
Q 14.5 -2 17.703125 9.0625 
Q 20.90625 20.125 20.90625 31.390625 
Q 20.90625 42.671875 17.703125 53.65625 
Q 14.5 64.65625 8.015625 75.875 
z
" id="DejaVuSans-41"/>
     </defs>
     <g transform="translate(300.455938 58.070438)scale(0.1 -0.1)">
      <use xlink:href="#DejaVuSans-99"/>
      <use x="54.980469" xlink:href="#DejaVuSans-112"/>
      <use x="118.457031" xlink:href="#DejaVuSans-97"/>
      <use x="179.736328" xlink:href="#DejaVuSans-112"/>
      <use x="243.212891" xlink:href="#DejaVuSans-95"/>
      <use x="293.212891" xlink:href="#DejaVuSans-98"/>
      <use x="356.689453" xlink:href="#DejaVuSans-112"/>
      <use x="420.166016" xlink:href="#DejaVuSans-97"/>
      <use x="481.445312" xlink:href="#DejaVuSans-112"/>
      <use x="544.921875" xlink:href="#DejaVuSans-32"/>
      <use x="576.708984" xlink:href="#DejaVuSans-40"/>
      <use x="615.722656" xlink:href="#DejaVuSans-50"/>
      <use x="679.345703" xlink:href="#DejaVuSans-55"/>
      <use x="742.96875" xlink:href="#DejaVuSans-41"/>
     </g>
    </g>
    <g id="line2d_16">
     <path d="M 272.455938 69.526688 
L 292.455938 69.526688 
" style="fill:none;stroke:#008000;stroke-linecap:square;stroke-width:1.5;"/>
    </g>
    <g id="line2d_17"/>
    <g id="text_12">
     <!-- Not cpap_bpap (467) -->
     <defs>
      <path d="M 9.8125 72.90625 
L 23.09375 72.90625 
L 55.421875 11.921875 
L 55.421875 72.90625 
L 64.984375 72.90625 
L 64.984375 0 
L 51.703125 0 
L 19.390625 60.984375 
L 19.390625 0 
L 9.8125 0 
z
" id="DejaVuSans-78"/>
     </defs>
     <g transform="translate(300.455938 73.026688)scale(0.1 -0.1)">
      <use xlink:href="#DejaVuSans-78"/>
      <use x="74.804688" xlink:href="#DejaVuSans-111"/>
      <use x="135.986328" xlink:href="#DejaVuSans-116"/>
      <use x="175.195312" xlink:href="#DejaVuSans-32"/>
      <use x="206.982422" xlink:href="#DejaVuSans-99"/>
      <use x="261.962891" xlink:href="#DejaVuSans-112"/>
      <use x="325.439453" xlink:href="#DejaVuSans-97"/>
      <use x="386.71875" xlink:href="#DejaVuSans-112"/>
      <use x="450.195312" xlink:href="#DejaVuSans-95"/>
      <use x="500.195312" xlink:href="#DejaVuSans-98"/>
      <use x="563.671875" xlink:href="#DejaVuSans-112"/>
      <use x="627.148438" xlink:href="#DejaVuSans-97"/>
      <use x="688.427734" xlink:href="#DejaVuSans-112"/>
      <use x="751.904297" xlink:href="#DejaVuSans-32"/>
      <use x="783.691406" xlink:href="#DejaVuSans-40"/>
      <use x="822.705078" xlink:href="#DejaVuSans-52"/>
      <use x="886.328125" xlink:href="#DejaVuSans-54"/>
      <use x="949.951172" xlink:href="#DejaVuSans-55"/>
      <use x="1013.574219" xlink:href="#DejaVuSans-41"/>
     </g>
    </g>
   </g>
  </g>
 </g>
 <defs>
  <clipPath id="p1d6849cc6a">
   <rect height="266.112" width="357.12" x="57.6" y="41.472"/>
  </clipPath>
 </defs>
</svg>
