<?xml version="1.0" encoding="utf-8" standalone="no"?>
<!DOCTYPE svg PUBLIC "-//W3C//DTD SVG 1.1//EN"
  "http://www.w3.org/Graphics/SVG/1.1/DTD/svg11.dtd">
<!-- Created with matplotlib (https://matplotlib.org/) -->
<svg height="345.6pt" version="1.1" viewBox="0 0 460.8 345.6" width="460.8pt" xmlns="http://www.w3.org/2000/svg" xmlns:xlink="http://www.w3.org/1999/xlink">
 <defs>
  <style type="text/css">
*{stroke-linecap:butt;stroke-linejoin:round;}
  </style>
 </defs>
 <g id="figure_1">
  <g id="patch_1">
   <path d="M 0 345.6 
L 460.8 345.6 
L 460.8 0 
L 0 0 
z
" style="fill:#ffffff;"/>
  </g>
  <g id="axes_1">
   <g id="patch_2">
    <path d="M 57.6 307.584 
L 414.72 307.584 
L 414.72 41.472 
L 57.6 41.472 
z
" style="fill:#ffffff;"/>
   </g>
   <g id="PolyCollection_1">
    <defs>
     <path d="M 73.832727 -165.348124 
L 73.832727 -176.795876 
L 77.112066 -181.670054 
L 80.391405 -189.358968 
L 83.670744 -200.487908 
L 86.950083 -215.201084 
L 90.229421 -232.843522 
L 93.50876 -251.803993 
L 96.788099 -269.664313 
L 100.067438 -283.694377 
L 103.346777 -291.567064 
L 106.626116 -292.032 
L 109.905455 -285.272433 
L 113.184793 -272.799138 
L 116.464132 -256.941723 
L 119.743471 -240.164519 
L 123.02281 -224.475195 
L 126.302149 -211.105996 
L 129.581488 -200.499681 
L 132.860826 -192.510144 
L 136.140165 -186.679972 
L 139.419504 -182.479852 
L 142.698843 -179.452837 
L 145.978182 -177.262722 
L 149.257521 -175.679349 
L 152.53686 -174.541035 
L 155.816198 -173.723201 
L 159.095537 -173.124351 
L 162.374876 -172.66574 
L 165.654215 -172.29491 
L 168.933554 -171.985252 
L 172.212893 -171.729722 
L 175.492231 -171.531739 
L 178.77157 -171.397573 
L 182.050909 -171.332618 
L 185.330248 -171.341046 
L 188.609587 -171.426489 
L 191.888926 -171.591443 
L 195.168264 -171.834591 
L 198.447603 -172.147048 
L 201.726942 -172.509613 
L 205.006281 -172.892898 
L 208.28562 -173.260821 
L 211.564959 -173.576298 
L 214.844298 -173.807052 
L 218.123636 -173.929822 
L 221.402975 -173.9325 
L 224.682314 -173.814818 
L 227.961653 -173.588352 
L 231.240992 -173.275848 
L 234.520331 -172.909108 
L 237.799669 -172.524744 
L 241.079008 -172.158162 
L 244.358347 -171.837406 
L 247.637686 -171.578955 
L 250.917025 -171.386836 
L 254.196364 -171.254963 
L 257.475702 -171.171331 
L 260.755041 -171.122312 
L 264.03438 -171.095749 
L 267.313719 -171.082438 
L 270.593058 -171.076269 
L 273.872397 -171.073624 
L 277.151736 -171.072574 
L 280.431074 -171.072189 
L 283.710413 -171.072058 
L 286.989752 -171.072016 
L 290.269091 -171.072004 
L 293.54843 -171.072001 
L 296.827769 -171.072 
L 300.107107 -171.072 
L 303.386446 -171.072 
L 306.665785 -171.072 
L 309.945124 -171.072001 
L 313.224463 -171.072003 
L 316.503802 -171.07201 
L 319.78314 -171.072037 
L 323.062479 -171.072124 
L 326.341818 -171.072384 
L 329.621157 -171.073108 
L 332.900496 -171.074967 
L 336.179835 -171.079372 
L 339.459174 -171.088997 
L 342.738512 -171.108368 
L 346.017851 -171.144215 
L 349.29719 -171.205075 
L 352.576529 -171.299574 
L 355.855868 -171.433164 
L 359.135207 -171.603915 
L 362.414545 -171.799005 
L 365.693884 -171.994124 
L 368.973223 -172.15742 
L 372.252562 -172.257669 
L 375.531901 -172.273948 
L 378.81124 -172.202745 
L 382.090579 -172.059189 
L 385.369917 -171.871822 
L 388.649256 -171.673371 
L 391.928595 -171.491613 
L 395.207934 -171.343714 
L 398.487273 -171.235279 
L 398.487273 -170.908721 
L 398.487273 -170.908721 
L 395.207934 -170.800286 
L 391.928595 -170.652387 
L 388.649256 -170.470629 
L 385.369917 -170.272178 
L 382.090579 -170.084811 
L 378.81124 -169.941255 
L 375.531901 -169.870052 
L 372.252562 -169.886331 
L 368.973223 -169.98658 
L 365.693884 -170.149876 
L 362.414545 -170.344995 
L 359.135207 -170.540085 
L 355.855868 -170.710836 
L 352.576529 -170.844426 
L 349.29719 -170.938925 
L 346.017851 -170.999785 
L 342.738512 -171.035632 
L 339.459174 -171.055003 
L 336.179835 -171.064628 
L 332.900496 -171.069033 
L 329.621157 -171.070892 
L 326.341818 -171.071616 
L 323.062479 -171.071876 
L 319.78314 -171.071963 
L 316.503802 -171.07199 
L 313.224463 -171.071997 
L 309.945124 -171.071999 
L 306.665785 -171.072 
L 303.386446 -171.072 
L 300.107107 -171.072 
L 296.827769 -171.072 
L 293.54843 -171.071999 
L 290.269091 -171.071996 
L 286.989752 -171.071984 
L 283.710413 -171.071942 
L 280.431074 -171.071811 
L 277.151736 -171.071426 
L 273.872397 -171.070376 
L 270.593058 -171.067731 
L 267.313719 -171.061562 
L 264.03438 -171.048251 
L 260.755041 -171.021688 
L 257.475702 -170.972669 
L 254.196364 -170.889037 
L 250.917025 -170.757164 
L 247.637686 -170.565045 
L 244.358347 -170.306594 
L 241.079008 -169.985838 
L 237.799669 -169.619256 
L 234.520331 -169.234892 
L 231.240992 -168.868152 
L 227.961653 -168.555648 
L 224.682314 -168.329182 
L 221.402975 -168.2115 
L 218.123636 -168.214178 
L 214.844298 -168.336948 
L 211.564959 -168.567702 
L 208.28562 -168.883179 
L 205.006281 -169.251102 
L 201.726942 -169.634387 
L 198.447603 -169.996952 
L 195.168264 -170.309409 
L 191.888926 -170.552557 
L 188.609587 -170.717511 
L 185.330248 -170.802954 
L 182.050909 -170.811382 
L 178.77157 -170.746427 
L 175.492231 -170.612261 
L 172.212893 -170.414278 
L 168.933554 -170.158748 
L 165.654215 -169.84909 
L 162.374876 -169.47826 
L 159.095537 -169.019649 
L 155.816198 -168.420799 
L 152.53686 -167.602965 
L 149.257521 -166.464651 
L 145.978182 -164.881278 
L 142.698843 -162.691163 
L 139.419504 -159.664148 
L 136.140165 -155.464028 
L 132.860826 -149.633856 
L 129.581488 -141.644319 
L 126.302149 -131.038004 
L 123.02281 -117.668805 
L 119.743471 -101.979481 
L 116.464132 -85.202277 
L 113.184793 -69.344862 
L 109.905455 -56.871567 
L 106.626116 -50.112 
L 103.346777 -50.576936 
L 100.067438 -58.449623 
L 96.788099 -72.479687 
L 93.50876 -90.340007 
L 90.229421 -109.300478 
L 86.950083 -126.942916 
L 83.670744 -141.656092 
L 80.391405 -152.785032 
L 77.112066 -160.473946 
L 73.832727 -165.348124 
z
" id="m5bb0d54fa2" style="stroke:#4c4c4c;stroke-opacity:0.5;stroke-width:1.5;"/>
    </defs>
    <g clip-path="url(#pe97b817b4a)">
     <use style="fill:#df9c20;fill-opacity:0.5;stroke:#4c4c4c;stroke-opacity:0.5;stroke-width:1.5;" x="0" xlink:href="#m5bb0d54fa2" y="345.6"/>
    </g>
   </g>
   <g id="PolyCollection_2">
    <defs>
     <path d="M 84.2727 -164.630976 
L 84.2727 -177.513024 
L 87.341147 -187.947982 
L 90.409595 -207.521917 
L 93.478043 -236.095075 
L 96.54649 -267.124791 
L 99.614938 -288.995986 
L 102.683386 -292.032 
L 105.751833 -275.580532 
L 108.820281 -248.133993 
L 111.888729 -220.651196 
L 114.957176 -199.936747 
L 118.025624 -187.122434 
L 121.094072 -180.156863 
L 124.162519 -176.593768 
L 127.230967 -174.773013 
L 130.299415 -173.789644 
L 133.367862 -173.193499 
L 136.43631 -172.807096 
L 139.504758 -172.606222 
L 142.573205 -172.588686 
L 145.641653 -172.676184 
L 148.710101 -172.724379 
L 151.778548 -172.629598 
L 154.846996 -172.413849 
L 157.915444 -172.188682 
L 160.983891 -172.042829 
L 164.052339 -171.978102 
L 167.120787 -171.936347 
L 170.189234 -171.858503 
L 173.257682 -171.720611 
L 176.32613 -171.540311 
L 179.394577 -171.360841 
L 182.463025 -171.221544 
L 185.531473 -171.136233 
L 188.59992 -171.094721 
L 191.668368 -171.078597 
L 194.736816 -171.073632 
L 197.805263 -171.072729 
L 200.873711 -171.074156 
L 203.942159 -171.080507 
L 207.010606 -171.099947 
L 210.079054 -171.146998 
L 213.147502 -171.236694 
L 216.215949 -171.369501 
L 219.284397 -171.518948 
L 222.352845 -171.642636 
L 225.421292 -171.714213 
L 228.48974 -171.739229 
L 231.558188 -171.731862 
L 234.626635 -171.686596 
L 237.695083 -171.588809 
L 240.763531 -171.447676 
L 243.831978 -171.301296 
L 246.900426 -171.187668 
L 249.968874 -171.119852 
L 253.037321 -171.088177 
L 256.105769 -171.076461 
L 259.174217 -171.073003 
L 262.242664 -171.072184 
L 265.311112 -171.072027 
L 268.37956 -171.072003 
L 271.448007 -171.072 
L 274.516455 -171.072 
L 277.584903 -171.072 
L 280.65335 -171.072 
L 283.721798 -171.072 
L 286.790246 -171.072 
L 289.858693 -171.072 
L 292.927141 -171.072 
L 295.995589 -171.072 
L 299.064036 -171.072 
L 302.132484 -171.072 
L 305.200932 -171.072 
L 308.269379 -171.072 
L 311.337827 -171.072 
L 314.406275 -171.072 
L 317.474722 -171.072 
L 320.54317 -171.072 
L 323.611618 -171.072 
L 326.680065 -171.072 
L 329.748513 -171.072 
L 332.816961 -171.072 
L 335.885408 -171.072 
L 338.953856 -171.072001 
L 342.022304 -171.072005 
L 345.090751 -171.072041 
L 348.159199 -171.072261 
L 351.227647 -171.07337 
L 354.296094 -171.077848 
L 357.364542 -171.092337 
L 360.43299 -171.129623 
L 363.501437 -171.205012 
L 366.569885 -171.322142 
L 369.638333 -171.45525 
L 372.70678 -171.550387 
L 375.775228 -171.558492 
L 378.843676 -171.475062 
L 381.912123 -171.344063 
L 384.980571 -171.221612 
L 388.049019 -171.139029 
L 388.049019 -171.004971 
L 388.049019 -171.004971 
L 384.980571 -170.922388 
L 381.912123 -170.799937 
L 378.843676 -170.668938 
L 375.775228 -170.585508 
L 372.70678 -170.593613 
L 369.638333 -170.68875 
L 366.569885 -170.821858 
L 363.501437 -170.938988 
L 360.43299 -171.014377 
L 357.364542 -171.051663 
L 354.296094 -171.066152 
L 351.227647 -171.07063 
L 348.159199 -171.071739 
L 345.090751 -171.071959 
L 342.022304 -171.071995 
L 338.953856 -171.071999 
L 335.885408 -171.072 
L 332.816961 -171.072 
L 329.748513 -171.072 
L 326.680065 -171.072 
L 323.611618 -171.072 
L 320.54317 -171.072 
L 317.474722 -171.072 
L 314.406275 -171.072 
L 311.337827 -171.072 
L 308.269379 -171.072 
L 305.200932 -171.072 
L 302.132484 -171.072 
L 299.064036 -171.072 
L 295.995589 -171.072 
L 292.927141 -171.072 
L 289.858693 -171.072 
L 286.790246 -171.072 
L 283.721798 -171.072 
L 280.65335 -171.072 
L 277.584903 -171.072 
L 274.516455 -171.072 
L 271.448007 -171.072 
L 268.37956 -171.071997 
L 265.311112 -171.071973 
L 262.242664 -171.071816 
L 259.174217 -171.070997 
L 256.105769 -171.067539 
L 253.037321 -171.055823 
L 249.968874 -171.024148 
L 246.900426 -170.956332 
L 243.831978 -170.842704 
L 240.763531 -170.696324 
L 237.695083 -170.555191 
L 234.626635 -170.457404 
L 231.558188 -170.412138 
L 228.48974 -170.404771 
L 225.421292 -170.429787 
L 222.352845 -170.501364 
L 219.284397 -170.625052 
L 216.215949 -170.774499 
L 213.147502 -170.907306 
L 210.079054 -170.997002 
L 207.010606 -171.044053 
L 203.942159 -171.063493 
L 200.873711 -171.069844 
L 197.805263 -171.071271 
L 194.736816 -171.070368 
L 191.668368 -171.065403 
L 188.59992 -171.049279 
L 185.531473 -171.007767 
L 182.463025 -170.922456 
L 179.394577 -170.783159 
L 176.32613 -170.603689 
L 173.257682 -170.423389 
L 170.189234 -170.285497 
L 167.120787 -170.207653 
L 164.052339 -170.165898 
L 160.983891 -170.101171 
L 157.915444 -169.955318 
L 154.846996 -169.730151 
L 151.778548 -169.514402 
L 148.710101 -169.419621 
L 145.641653 -169.467816 
L 142.573205 -169.555314 
L 139.504758 -169.537778 
L 136.43631 -169.336904 
L 133.367862 -168.950501 
L 130.299415 -168.354356 
L 127.230967 -167.370987 
L 124.162519 -165.550232 
L 121.094072 -161.987137 
L 118.025624 -155.021566 
L 114.957176 -142.207253 
L 111.888729 -121.492804 
L 108.820281 -94.010007 
L 105.751833 -66.563468 
L 102.683386 -50.112 
L 99.614938 -53.148014 
L 96.54649 -75.019209 
L 93.478043 -106.048925 
L 90.409595 -134.622083 
L 87.341147 -154.196018 
L 84.2727 -164.630976 
z
" id="mf1783b3393" style="stroke:#262626;stroke-opacity:0.5;stroke-width:1.5;"/>
    </defs>
    <g clip-path="url(#pe97b817b4a)">
     <use style="fill:#107010;fill-opacity:0.5;stroke:#262626;stroke-opacity:0.5;stroke-width:1.5;" x="0" xlink:href="#mf1783b3393" y="345.6"/>
    </g>
   </g>
   <g id="matplotlib.axis_1">
    <g id="xtick_1">
     <g id="line2d_1">
      <defs>
       <path d="M 0 0 
L 0 3.5 
" id="mf26e486956" style="stroke:#000000;stroke-width:0.8;"/>
      </defs>
      <g>
       <use style="stroke:#000000;stroke-width:0.8;" x="82.363591" xlink:href="#mf26e486956" y="307.584"/>
      </g>
     </g>
     <g id="text_1">
      <!-- 0.0 -->
      <defs>
       <path d="M 31.78125 66.40625 
Q 24.171875 66.40625 20.328125 58.90625 
Q 16.5 51.421875 16.5 36.375 
Q 16.5 21.390625 20.328125 13.890625 
Q 24.171875 6.390625 31.78125 6.390625 
Q 39.453125 6.390625 43.28125 13.890625 
Q 47.125 21.390625 47.125 36.375 
Q 47.125 51.421875 43.28125 58.90625 
Q 39.453125 66.40625 31.78125 66.40625 
z
M 31.78125 74.21875 
Q 44.046875 74.21875 50.515625 64.515625 
Q 56.984375 54.828125 56.984375 36.375 
Q 56.984375 17.96875 50.515625 8.265625 
Q 44.046875 -1.421875 31.78125 -1.421875 
Q 19.53125 -1.421875 13.0625 8.265625 
Q 6.59375 17.96875 6.59375 36.375 
Q 6.59375 54.828125 13.0625 64.515625 
Q 19.53125 74.21875 31.78125 74.21875 
z
" id="DejaVuSans-48"/>
       <path d="M 10.6875 12.40625 
L 21 12.40625 
L 21 0 
L 10.6875 0 
z
" id="DejaVuSans-46"/>
      </defs>
      <g transform="translate(74.412029 322.182437)scale(0.1 -0.1)">
       <use xlink:href="#DejaVuSans-48"/>
       <use x="63.623047" xlink:href="#DejaVuSans-46"/>
       <use x="95.410156" xlink:href="#DejaVuSans-48"/>
      </g>
     </g>
    </g>
    <g id="xtick_2">
     <g id="line2d_2">
      <g>
       <use style="stroke:#000000;stroke-width:0.8;" x="125.323482" xlink:href="#mf26e486956" y="307.584"/>
      </g>
     </g>
     <g id="text_2">
      <!-- 2.5 -->
      <defs>
       <path d="M 19.1875 8.296875 
L 53.609375 8.296875 
L 53.609375 0 
L 7.328125 0 
L 7.328125 8.296875 
Q 12.9375 14.109375 22.625 23.890625 
Q 32.328125 33.6875 34.8125 36.53125 
Q 39.546875 41.84375 41.421875 45.53125 
Q 43.3125 49.21875 43.3125 52.78125 
Q 43.3125 58.59375 39.234375 62.25 
Q 35.15625 65.921875 28.609375 65.921875 
Q 23.96875 65.921875 18.8125 64.3125 
Q 13.671875 62.703125 7.8125 59.421875 
L 7.8125 69.390625 
Q 13.765625 71.78125 18.9375 73 
Q 24.125 74.21875 28.421875 74.21875 
Q 39.75 74.21875 46.484375 68.546875 
Q 53.21875 62.890625 53.21875 53.421875 
Q 53.21875 48.921875 51.53125 44.890625 
Q 49.859375 40.875 45.40625 35.40625 
Q 44.1875 33.984375 37.640625 27.21875 
Q 31.109375 20.453125 19.1875 8.296875 
z
" id="DejaVuSans-50"/>
       <path d="M 10.796875 72.90625 
L 49.515625 72.90625 
L 49.515625 64.59375 
L 19.828125 64.59375 
L 19.828125 46.734375 
Q 21.96875 47.46875 24.109375 47.828125 
Q 26.265625 48.1875 28.421875 48.1875 
Q 40.625 48.1875 47.75 41.5 
Q 54.890625 34.8125 54.890625 23.390625 
Q 54.890625 11.625 47.5625 5.09375 
Q 40.234375 -1.421875 26.90625 -1.421875 
Q 22.3125 -1.421875 17.546875 -0.640625 
Q 12.796875 0.140625 7.71875 1.703125 
L 7.71875 11.625 
Q 12.109375 9.234375 16.796875 8.0625 
Q 21.484375 6.890625 26.703125 6.890625 
Q 35.15625 6.890625 40.078125 11.328125 
Q 45.015625 15.765625 45.015625 23.390625 
Q 45.015625 31 40.078125 35.4375 
Q 35.15625 39.890625 26.703125 39.890625 
Q 22.75 39.890625 18.8125 39.015625 
Q 14.890625 38.140625 10.796875 36.28125 
z
" id="DejaVuSans-53"/>
      </defs>
      <g transform="translate(117.371919 322.182437)scale(0.1 -0.1)">
       <use xlink:href="#DejaVuSans-50"/>
       <use x="63.623047" xlink:href="#DejaVuSans-46"/>
       <use x="95.410156" xlink:href="#DejaVuSans-53"/>
      </g>
     </g>
    </g>
    <g id="xtick_3">
     <g id="line2d_3">
      <g>
       <use style="stroke:#000000;stroke-width:0.8;" x="168.283373" xlink:href="#mf26e486956" y="307.584"/>
      </g>
     </g>
     <g id="text_3">
      <!-- 5.0 -->
      <g transform="translate(160.33181 322.182437)scale(0.1 -0.1)">
       <use xlink:href="#DejaVuSans-53"/>
       <use x="63.623047" xlink:href="#DejaVuSans-46"/>
       <use x="95.410156" xlink:href="#DejaVuSans-48"/>
      </g>
     </g>
    </g>
    <g id="xtick_4">
     <g id="line2d_4">
      <g>
       <use style="stroke:#000000;stroke-width:0.8;" x="211.243263" xlink:href="#mf26e486956" y="307.584"/>
      </g>
     </g>
     <g id="text_4">
      <!-- 7.5 -->
      <defs>
       <path d="M 8.203125 72.90625 
L 55.078125 72.90625 
L 55.078125 68.703125 
L 28.609375 0 
L 18.3125 0 
L 43.21875 64.59375 
L 8.203125 64.59375 
z
" id="DejaVuSans-55"/>
      </defs>
      <g transform="translate(203.291701 322.182437)scale(0.1 -0.1)">
       <use xlink:href="#DejaVuSans-55"/>
       <use x="63.623047" xlink:href="#DejaVuSans-46"/>
       <use x="95.410156" xlink:href="#DejaVuSans-53"/>
      </g>
     </g>
    </g>
    <g id="xtick_5">
     <g id="line2d_5">
      <g>
       <use style="stroke:#000000;stroke-width:0.8;" x="254.203154" xlink:href="#mf26e486956" y="307.584"/>
      </g>
     </g>
     <g id="text_5">
      <!-- 10.0 -->
      <defs>
       <path d="M 12.40625 8.296875 
L 28.515625 8.296875 
L 28.515625 63.921875 
L 10.984375 60.40625 
L 10.984375 69.390625 
L 28.421875 72.90625 
L 38.28125 72.90625 
L 38.28125 8.296875 
L 54.390625 8.296875 
L 54.390625 0 
L 12.40625 0 
z
" id="DejaVuSans-49"/>
      </defs>
      <g transform="translate(243.070342 322.182437)scale(0.1 -0.1)">
       <use xlink:href="#DejaVuSans-49"/>
       <use x="63.623047" xlink:href="#DejaVuSans-48"/>
       <use x="127.246094" xlink:href="#DejaVuSans-46"/>
       <use x="159.033203" xlink:href="#DejaVuSans-48"/>
      </g>
     </g>
    </g>
    <g id="xtick_6">
     <g id="line2d_6">
      <g>
       <use style="stroke:#000000;stroke-width:0.8;" x="297.163045" xlink:href="#mf26e486956" y="307.584"/>
      </g>
     </g>
     <g id="text_6">
      <!-- 12.5 -->
      <g transform="translate(286.030232 322.182437)scale(0.1 -0.1)">
       <use xlink:href="#DejaVuSans-49"/>
       <use x="63.623047" xlink:href="#DejaVuSans-50"/>
       <use x="127.246094" xlink:href="#DejaVuSans-46"/>
       <use x="159.033203" xlink:href="#DejaVuSans-53"/>
      </g>
     </g>
    </g>
    <g id="xtick_7">
     <g id="line2d_7">
      <g>
       <use style="stroke:#000000;stroke-width:0.8;" x="340.122936" xlink:href="#mf26e486956" y="307.584"/>
      </g>
     </g>
     <g id="text_7">
      <!-- 15.0 -->
      <g transform="translate(328.990123 322.182437)scale(0.1 -0.1)">
       <use xlink:href="#DejaVuSans-49"/>
       <use x="63.623047" xlink:href="#DejaVuSans-53"/>
       <use x="127.246094" xlink:href="#DejaVuSans-46"/>
       <use x="159.033203" xlink:href="#DejaVuSans-48"/>
      </g>
     </g>
    </g>
    <g id="xtick_8">
     <g id="line2d_8">
      <g>
       <use style="stroke:#000000;stroke-width:0.8;" x="383.082826" xlink:href="#mf26e486956" y="307.584"/>
      </g>
     </g>
     <g id="text_8">
      <!-- 17.5 -->
      <g transform="translate(371.950014 322.182437)scale(0.1 -0.1)">
       <use xlink:href="#DejaVuSans-49"/>
       <use x="63.623047" xlink:href="#DejaVuSans-55"/>
       <use x="127.246094" xlink:href="#DejaVuSans-46"/>
       <use x="159.033203" xlink:href="#DejaVuSans-53"/>
      </g>
     </g>
    </g>
    <g id="text_9">
     <!-- inrpeakac -->
     <defs>
      <path d="M 9.421875 54.6875 
L 18.40625 54.6875 
L 18.40625 0 
L 9.421875 0 
z
M 9.421875 75.984375 
L 18.40625 75.984375 
L 18.40625 64.59375 
L 9.421875 64.59375 
z
" id="DejaVuSans-105"/>
      <path d="M 54.890625 33.015625 
L 54.890625 0 
L 45.90625 0 
L 45.90625 32.71875 
Q 45.90625 40.484375 42.875 44.328125 
Q 39.84375 48.1875 33.796875 48.1875 
Q 26.515625 48.1875 22.3125 43.546875 
Q 18.109375 38.921875 18.109375 30.90625 
L 18.109375 0 
L 9.078125 0 
L 9.078125 54.6875 
L 18.109375 54.6875 
L 18.109375 46.1875 
Q 21.34375 51.125 25.703125 53.5625 
Q 30.078125 56 35.796875 56 
Q 45.21875 56 50.046875 50.171875 
Q 54.890625 44.34375 54.890625 33.015625 
z
" id="DejaVuSans-110"/>
      <path d="M 41.109375 46.296875 
Q 39.59375 47.171875 37.8125 47.578125 
Q 36.03125 48 33.890625 48 
Q 26.265625 48 22.1875 43.046875 
Q 18.109375 38.09375 18.109375 28.8125 
L 18.109375 0 
L 9.078125 0 
L 9.078125 54.6875 
L 18.109375 54.6875 
L 18.109375 46.1875 
Q 20.953125 51.171875 25.484375 53.578125 
Q 30.03125 56 36.53125 56 
Q 37.453125 56 38.578125 55.875 
Q 39.703125 55.765625 41.0625 55.515625 
z
" id="DejaVuSans-114"/>
      <path d="M 18.109375 8.203125 
L 18.109375 -20.796875 
L 9.078125 -20.796875 
L 9.078125 54.6875 
L 18.109375 54.6875 
L 18.109375 46.390625 
Q 20.953125 51.265625 25.265625 53.625 
Q 29.59375 56 35.59375 56 
Q 45.5625 56 51.78125 48.09375 
Q 58.015625 40.1875 58.015625 27.296875 
Q 58.015625 14.40625 51.78125 6.484375 
Q 45.5625 -1.421875 35.59375 -1.421875 
Q 29.59375 -1.421875 25.265625 0.953125 
Q 20.953125 3.328125 18.109375 8.203125 
z
M 48.6875 27.296875 
Q 48.6875 37.203125 44.609375 42.84375 
Q 40.53125 48.484375 33.40625 48.484375 
Q 26.265625 48.484375 22.1875 42.84375 
Q 18.109375 37.203125 18.109375 27.296875 
Q 18.109375 17.390625 22.1875 11.75 
Q 26.265625 6.109375 33.40625 6.109375 
Q 40.53125 6.109375 44.609375 11.75 
Q 48.6875 17.390625 48.6875 27.296875 
z
" id="DejaVuSans-112"/>
      <path d="M 56.203125 29.59375 
L 56.203125 25.203125 
L 14.890625 25.203125 
Q 15.484375 15.921875 20.484375 11.0625 
Q 25.484375 6.203125 34.421875 6.203125 
Q 39.59375 6.203125 44.453125 7.46875 
Q 49.3125 8.734375 54.109375 11.28125 
L 54.109375 2.78125 
Q 49.265625 0.734375 44.1875 -0.34375 
Q 39.109375 -1.421875 33.890625 -1.421875 
Q 20.796875 -1.421875 13.15625 6.1875 
Q 5.515625 13.8125 5.515625 26.8125 
Q 5.515625 40.234375 12.765625 48.109375 
Q 20.015625 56 32.328125 56 
Q 43.359375 56 49.78125 48.890625 
Q 56.203125 41.796875 56.203125 29.59375 
z
M 47.21875 32.234375 
Q 47.125 39.59375 43.09375 43.984375 
Q 39.0625 48.390625 32.421875 48.390625 
Q 24.90625 48.390625 20.390625 44.140625 
Q 15.875 39.890625 15.1875 32.171875 
z
" id="DejaVuSans-101"/>
      <path d="M 34.28125 27.484375 
Q 23.390625 27.484375 19.1875 25 
Q 14.984375 22.515625 14.984375 16.5 
Q 14.984375 11.71875 18.140625 8.90625 
Q 21.296875 6.109375 26.703125 6.109375 
Q 34.1875 6.109375 38.703125 11.40625 
Q 43.21875 16.703125 43.21875 25.484375 
L 43.21875 27.484375 
z
M 52.203125 31.203125 
L 52.203125 0 
L 43.21875 0 
L 43.21875 8.296875 
Q 40.140625 3.328125 35.546875 0.953125 
Q 30.953125 -1.421875 24.3125 -1.421875 
Q 15.921875 -1.421875 10.953125 3.296875 
Q 6 8.015625 6 15.921875 
Q 6 25.140625 12.171875 29.828125 
Q 18.359375 34.515625 30.609375 34.515625 
L 43.21875 34.515625 
L 43.21875 35.40625 
Q 43.21875 41.609375 39.140625 45 
Q 35.0625 48.390625 27.6875 48.390625 
Q 23 48.390625 18.546875 47.265625 
Q 14.109375 46.140625 10.015625 43.890625 
L 10.015625 52.203125 
Q 14.9375 54.109375 19.578125 55.046875 
Q 24.21875 56 28.609375 56 
Q 40.484375 56 46.34375 49.84375 
Q 52.203125 43.703125 52.203125 31.203125 
z
" id="DejaVuSans-97"/>
      <path d="M 9.078125 75.984375 
L 18.109375 75.984375 
L 18.109375 31.109375 
L 44.921875 54.6875 
L 56.390625 54.6875 
L 27.390625 29.109375 
L 57.625 0 
L 45.90625 0 
L 18.109375 26.703125 
L 18.109375 0 
L 9.078125 0 
z
" id="DejaVuSans-107"/>
      <path d="M 48.78125 52.59375 
L 48.78125 44.1875 
Q 44.96875 46.296875 41.140625 47.34375 
Q 37.3125 48.390625 33.40625 48.390625 
Q 24.65625 48.390625 19.8125 42.84375 
Q 14.984375 37.3125 14.984375 27.296875 
Q 14.984375 17.28125 19.8125 11.734375 
Q 24.65625 6.203125 33.40625 6.203125 
Q 37.3125 6.203125 41.140625 7.25 
Q 44.96875 8.296875 48.78125 10.40625 
L 48.78125 2.09375 
Q 45.015625 0.34375 40.984375 -0.53125 
Q 36.96875 -1.421875 32.421875 -1.421875 
Q 20.0625 -1.421875 12.78125 6.34375 
Q 5.515625 14.109375 5.515625 27.296875 
Q 5.515625 40.671875 12.859375 48.328125 
Q 20.21875 56 33.015625 56 
Q 37.15625 56 41.109375 55.140625 
Q 45.0625 54.296875 48.78125 52.59375 
z
" id="DejaVuSans-99"/>
     </defs>
     <g transform="translate(211.610781 335.860562)scale(0.1 -0.1)">
      <use xlink:href="#DejaVuSans-105"/>
      <use x="27.783203" xlink:href="#DejaVuSans-110"/>
      <use x="91.162109" xlink:href="#DejaVuSans-114"/>
      <use x="132.275391" xlink:href="#DejaVuSans-112"/>
      <use x="195.751953" xlink:href="#DejaVuSans-101"/>
      <use x="257.275391" xlink:href="#DejaVuSans-97"/>
      <use x="318.554688" xlink:href="#DejaVuSans-107"/>
      <use x="374.714844" xlink:href="#DejaVuSans-97"/>
      <use x="435.994141" xlink:href="#DejaVuSans-99"/>
     </g>
    </g>
   </g>
   <g id="matplotlib.axis_2">
    <g id="ytick_1">
     <g id="line2d_9">
      <defs>
       <path d="M 0 0 
L -3.5 0 
" id="m50f955dc57" style="stroke:#000000;stroke-width:0.8;"/>
      </defs>
      <g>
       <use style="stroke:#000000;stroke-width:0.8;" x="57.6" xlink:href="#m50f955dc57" y="174.528"/>
      </g>
     </g>
    </g>
   </g>
   <g id="line2d_10">
    <path clip-path="url(#pe97b817b4a)" d="M 97.829152 174.528 
L 120.168295 174.528 
" style="fill:none;stroke:#ffa500;stroke-linecap:square;stroke-width:1.5;"/>
   </g>
   <g id="line2d_11">
    <path clip-path="url(#pe97b817b4a)" d="M 102.984339 174.528 
L 109.857921 174.528 
" style="fill:none;stroke:#4c4c4c;stroke-linecap:square;stroke-width:4.5;"/>
   </g>
   <g id="line2d_12">
    <path clip-path="url(#pe97b817b4a)" d="M 97.829152 174.528 
L 109.857921 174.528 
" style="fill:none;stroke:#008000;stroke-linecap:square;stroke-width:1.5;"/>
   </g>
   <g id="line2d_13">
    <path clip-path="url(#pe97b817b4a)" d="M 99.547548 174.528 
L 103.843537 174.528 
" style="fill:none;stroke:#262626;stroke-linecap:square;stroke-width:4.5;"/>
   </g>
   <g id="patch_3">
    <path d="M 57.6 307.584 
L 57.6 41.472 
" style="fill:none;stroke:#000000;stroke-linecap:square;stroke-linejoin:miter;stroke-width:0.8;"/>
   </g>
   <g id="patch_4">
    <path d="M 414.72 307.584 
L 414.72 41.472 
" style="fill:none;stroke:#000000;stroke-linecap:square;stroke-linejoin:miter;stroke-width:0.8;"/>
   </g>
   <g id="patch_5">
    <path d="M 57.6 307.584 
L 414.72 307.584 
" style="fill:none;stroke:#000000;stroke-linecap:square;stroke-linejoin:miter;stroke-width:0.8;"/>
   </g>
   <g id="patch_6">
    <path d="M 57.6 41.472 
L 414.72 41.472 
" style="fill:none;stroke:#000000;stroke-linecap:square;stroke-linejoin:miter;stroke-width:0.8;"/>
   </g>
   <g id="PathCollection_1">
    <defs>
     <path d="M 0 1.5 
C 0.397805 1.5 0.77937 1.341951 1.06066 1.06066 
C 1.341951 0.77937 1.5 0.397805 1.5 0 
C 1.5 -0.397805 1.341951 -0.77937 1.06066 -1.06066 
C 0.77937 -1.341951 0.397805 -1.5 0 -1.5 
C -0.397805 -1.5 -0.77937 -1.341951 -1.06066 -1.06066 
C -1.341951 -0.77937 -1.5 -0.397805 -1.5 0 
C -1.5 0.397805 -1.341951 0.77937 -1.06066 1.06066 
C -0.77937 1.341951 -0.397805 1.5 0 1.5 
z
" id="m6983396e1b" style="stroke:#4c4c4c;stroke-opacity:0.5;"/>
    </defs>
    <g clip-path="url(#pe97b817b4a)">
     <use style="fill:#ffffff;fill-opacity:0.5;stroke:#4c4c4c;stroke-opacity:0.5;" x="104.702734" xlink:href="#m6983396e1b" y="174.528"/>
    </g>
   </g>
   <g id="PathCollection_2">
    <defs>
     <path d="M 0 1.5 
C 0.397805 1.5 0.77937 1.341951 1.06066 1.06066 
C 1.341951 0.77937 1.5 0.397805 1.5 0 
C 1.5 -0.397805 1.341951 -0.77937 1.06066 -1.06066 
C 0.77937 -1.341951 0.397805 -1.5 0 -1.5 
C -0.397805 -1.5 -0.77937 -1.341951 -1.06066 -1.06066 
C -1.341951 -0.77937 -1.5 -0.397805 -1.5 0 
C -1.5 0.397805 -1.341951 0.77937 -1.06066 1.06066 
C -0.77937 1.341951 -0.397805 1.5 0 1.5 
z
" id="mbdfb44a83c" style="stroke:#262626;stroke-opacity:0.5;"/>
    </defs>
    <g clip-path="url(#pe97b817b4a)">
     <use style="fill:#ffffff;fill-opacity:0.5;stroke:#262626;stroke-opacity:0.5;" x="101.265943" xlink:href="#mbdfb44a83c" y="174.528"/>
    </g>
   </g>
   <g id="text_10">
    <!-- Association of inrpeakac vs. ards -->
    <defs>
     <path d="M 34.1875 63.1875 
L 20.796875 26.90625 
L 47.609375 26.90625 
z
M 28.609375 72.90625 
L 39.796875 72.90625 
L 67.578125 0 
L 57.328125 0 
L 50.6875 18.703125 
L 17.828125 18.703125 
L 11.1875 0 
L 0.78125 0 
z
" id="DejaVuSans-65"/>
     <path d="M 44.28125 53.078125 
L 44.28125 44.578125 
Q 40.484375 46.53125 36.375 47.5 
Q 32.28125 48.484375 27.875 48.484375 
Q 21.1875 48.484375 17.84375 46.4375 
Q 14.5 44.390625 14.5 40.28125 
Q 14.5 37.15625 16.890625 35.375 
Q 19.28125 33.59375 26.515625 31.984375 
L 29.59375 31.296875 
Q 39.15625 29.25 43.1875 25.515625 
Q 47.21875 21.78125 47.21875 15.09375 
Q 47.21875 7.46875 41.1875 3.015625 
Q 35.15625 -1.421875 24.609375 -1.421875 
Q 20.21875 -1.421875 15.453125 -0.5625 
Q 10.6875 0.296875 5.421875 2 
L 5.421875 11.28125 
Q 10.40625 8.6875 15.234375 7.390625 
Q 20.0625 6.109375 24.8125 6.109375 
Q 31.15625 6.109375 34.5625 8.28125 
Q 37.984375 10.453125 37.984375 14.40625 
Q 37.984375 18.0625 35.515625 20.015625 
Q 33.0625 21.96875 24.703125 23.78125 
L 21.578125 24.515625 
Q 13.234375 26.265625 9.515625 29.90625 
Q 5.8125 33.546875 5.8125 39.890625 
Q 5.8125 47.609375 11.28125 51.796875 
Q 16.75 56 26.8125 56 
Q 31.78125 56 36.171875 55.265625 
Q 40.578125 54.546875 44.28125 53.078125 
z
" id="DejaVuSans-115"/>
     <path d="M 30.609375 48.390625 
Q 23.390625 48.390625 19.1875 42.75 
Q 14.984375 37.109375 14.984375 27.296875 
Q 14.984375 17.484375 19.15625 11.84375 
Q 23.34375 6.203125 30.609375 6.203125 
Q 37.796875 6.203125 41.984375 11.859375 
Q 46.1875 17.53125 46.1875 27.296875 
Q 46.1875 37.015625 41.984375 42.703125 
Q 37.796875 48.390625 30.609375 48.390625 
z
M 30.609375 56 
Q 42.328125 56 49.015625 48.375 
Q 55.71875 40.765625 55.71875 27.296875 
Q 55.71875 13.875 49.015625 6.21875 
Q 42.328125 -1.421875 30.609375 -1.421875 
Q 18.84375 -1.421875 12.171875 6.21875 
Q 5.515625 13.875 5.515625 27.296875 
Q 5.515625 40.765625 12.171875 48.375 
Q 18.84375 56 30.609375 56 
z
" id="DejaVuSans-111"/>
     <path d="M 18.3125 70.21875 
L 18.3125 54.6875 
L 36.8125 54.6875 
L 36.8125 47.703125 
L 18.3125 47.703125 
L 18.3125 18.015625 
Q 18.3125 11.328125 20.140625 9.421875 
Q 21.96875 7.515625 27.59375 7.515625 
L 36.8125 7.515625 
L 36.8125 0 
L 27.59375 0 
Q 17.1875 0 13.234375 3.875 
Q 9.28125 7.765625 9.28125 18.015625 
L 9.28125 47.703125 
L 2.6875 47.703125 
L 2.6875 54.6875 
L 9.28125 54.6875 
L 9.28125 70.21875 
z
" id="DejaVuSans-116"/>
     <path id="DejaVuSans-32"/>
     <path d="M 37.109375 75.984375 
L 37.109375 68.5 
L 28.515625 68.5 
Q 23.6875 68.5 21.796875 66.546875 
Q 19.921875 64.59375 19.921875 59.515625 
L 19.921875 54.6875 
L 34.71875 54.6875 
L 34.71875 47.703125 
L 19.921875 47.703125 
L 19.921875 0 
L 10.890625 0 
L 10.890625 47.703125 
L 2.296875 47.703125 
L 2.296875 54.6875 
L 10.890625 54.6875 
L 10.890625 58.5 
Q 10.890625 67.625 15.140625 71.796875 
Q 19.390625 75.984375 28.609375 75.984375 
z
" id="DejaVuSans-102"/>
     <path d="M 2.984375 54.6875 
L 12.5 54.6875 
L 29.59375 8.796875 
L 46.6875 54.6875 
L 56.203125 54.6875 
L 35.6875 0 
L 23.484375 0 
z
" id="DejaVuSans-118"/>
     <path d="M 45.40625 46.390625 
L 45.40625 75.984375 
L 54.390625 75.984375 
L 54.390625 0 
L 45.40625 0 
L 45.40625 8.203125 
Q 42.578125 3.328125 38.25 0.953125 
Q 33.9375 -1.421875 27.875 -1.421875 
Q 17.96875 -1.421875 11.734375 6.484375 
Q 5.515625 14.40625 5.515625 27.296875 
Q 5.515625 40.1875 11.734375 48.09375 
Q 17.96875 56 27.875 56 
Q 33.9375 56 38.25 53.625 
Q 42.578125 51.265625 45.40625 46.390625 
z
M 14.796875 27.296875 
Q 14.796875 17.390625 18.875 11.75 
Q 22.953125 6.109375 30.078125 6.109375 
Q 37.203125 6.109375 41.296875 11.75 
Q 45.40625 17.390625 45.40625 27.296875 
Q 45.40625 37.203125 41.296875 42.84375 
Q 37.203125 48.484375 30.078125 48.484375 
Q 22.953125 48.484375 18.875 42.84375 
Q 14.796875 37.203125 14.796875 27.296875 
z
" id="DejaVuSans-100"/>
    </defs>
    <g transform="translate(137.570625 35.472)scale(0.12 -0.12)">
     <use xlink:href="#DejaVuSans-65"/>
     <use x="68.408203" xlink:href="#DejaVuSans-115"/>
     <use x="120.507812" xlink:href="#DejaVuSans-115"/>
     <use x="172.607422" xlink:href="#DejaVuSans-111"/>
     <use x="233.789062" xlink:href="#DejaVuSans-99"/>
     <use x="288.769531" xlink:href="#DejaVuSans-105"/>
     <use x="316.552734" xlink:href="#DejaVuSans-97"/>
     <use x="377.832031" xlink:href="#DejaVuSans-116"/>
     <use x="417.041016" xlink:href="#DejaVuSans-105"/>
     <use x="444.824219" xlink:href="#DejaVuSans-111"/>
     <use x="506.005859" xlink:href="#DejaVuSans-110"/>
     <use x="569.384766" xlink:href="#DejaVuSans-32"/>
     <use x="601.171875" xlink:href="#DejaVuSans-111"/>
     <use x="662.353516" xlink:href="#DejaVuSans-102"/>
     <use x="697.558594" xlink:href="#DejaVuSans-32"/>
     <use x="729.345703" xlink:href="#DejaVuSans-105"/>
     <use x="757.128906" xlink:href="#DejaVuSans-110"/>
     <use x="820.507812" xlink:href="#DejaVuSans-114"/>
     <use x="861.621094" xlink:href="#DejaVuSans-112"/>
     <use x="925.097656" xlink:href="#DejaVuSans-101"/>
     <use x="986.621094" xlink:href="#DejaVuSans-97"/>
     <use x="1047.900391" xlink:href="#DejaVuSans-107"/>
     <use x="1104.060547" xlink:href="#DejaVuSans-97"/>
     <use x="1165.339844" xlink:href="#DejaVuSans-99"/>
     <use x="1220.320312" xlink:href="#DejaVuSans-32"/>
     <use x="1252.107422" xlink:href="#DejaVuSans-118"/>
     <use x="1311.287109" xlink:href="#DejaVuSans-115"/>
     <use x="1363.386719" xlink:href="#DejaVuSans-46"/>
     <use x="1395.173828" xlink:href="#DejaVuSans-32"/>
     <use x="1426.960938" xlink:href="#DejaVuSans-97"/>
     <use x="1488.240234" xlink:href="#DejaVuSans-114"/>
     <use x="1527.603516" xlink:href="#DejaVuSans-100"/>
     <use x="1591.080078" xlink:href="#DejaVuSans-115"/>
    </g>
   </g>
   <g id="legend_1">
    <g id="patch_7">
     <path d="M 303.330938 78.82825 
L 407.72 78.82825 
Q 409.72 78.82825 409.72 76.82825 
L 409.72 48.472 
Q 409.72 46.472 407.72 46.472 
L 303.330938 46.472 
Q 301.330938 46.472 301.330938 48.472 
L 301.330938 76.82825 
Q 301.330938 78.82825 303.330938 78.82825 
z
" style="fill:#ffffff;opacity:0.8;stroke:#cccccc;stroke-linejoin:miter;"/>
    </g>
    <g id="line2d_14">
     <path d="M 305.330938 54.570437 
L 325.330938 54.570437 
" style="fill:none;stroke:#ffa500;stroke-linecap:square;stroke-width:1.5;"/>
    </g>
    <g id="line2d_15"/>
    <g id="text_11">
     <!-- ards (120) -->
     <defs>
      <path d="M 31 75.875 
Q 24.46875 64.65625 21.28125 53.65625 
Q 18.109375 42.671875 18.109375 31.390625 
Q 18.109375 20.125 21.3125 9.0625 
Q 24.515625 -2 31 -13.1875 
L 23.1875 -13.1875 
Q 15.875 -1.703125 12.234375 9.375 
Q 8.59375 20.453125 8.59375 31.390625 
Q 8.59375 42.28125 12.203125 53.3125 
Q 15.828125 64.359375 23.1875 75.875 
z
" id="DejaVuSans-40"/>
      <path d="M 8.015625 75.875 
L 15.828125 75.875 
Q 23.140625 64.359375 26.78125 53.3125 
Q 30.421875 42.28125 30.421875 31.390625 
Q 30.421875 20.453125 26.78125 9.375 
Q 23.140625 -1.703125 15.828125 -13.1875 
L 8.015625 -13.1875 
Q 14.5 -2 17.703125 9.0625 
Q 20.90625 20.125 20.90625 31.390625 
Q 20.90625 42.671875 17.703125 53.65625 
Q 14.5 64.65625 8.015625 75.875 
z
" id="DejaVuSans-41"/>
     </defs>
     <g transform="translate(333.330938 58.070437)scale(0.1 -0.1)">
      <use xlink:href="#DejaVuSans-97"/>
      <use x="61.279297" xlink:href="#DejaVuSans-114"/>
      <use x="100.642578" xlink:href="#DejaVuSans-100"/>
      <use x="164.119141" xlink:href="#DejaVuSans-115"/>
      <use x="216.21875" xlink:href="#DejaVuSans-32"/>
      <use x="248.005859" xlink:href="#DejaVuSans-40"/>
      <use x="287.019531" xlink:href="#DejaVuSans-49"/>
      <use x="350.642578" xlink:href="#DejaVuSans-50"/>
      <use x="414.265625" xlink:href="#DejaVuSans-48"/>
      <use x="477.888672" xlink:href="#DejaVuSans-41"/>
     </g>
    </g>
    <g id="line2d_16">
     <path d="M 305.330938 69.248562 
L 325.330938 69.248562 
" style="fill:none;stroke:#008000;stroke-linecap:square;stroke-width:1.5;"/>
    </g>
    <g id="line2d_17"/>
    <g id="text_12">
     <!-- Not ards (287) -->
     <defs>
      <path d="M 9.8125 72.90625 
L 23.09375 72.90625 
L 55.421875 11.921875 
L 55.421875 72.90625 
L 64.984375 72.90625 
L 64.984375 0 
L 51.703125 0 
L 19.390625 60.984375 
L 19.390625 0 
L 9.8125 0 
z
" id="DejaVuSans-78"/>
      <path d="M 31.78125 34.625 
Q 24.75 34.625 20.71875 30.859375 
Q 16.703125 27.09375 16.703125 20.515625 
Q 16.703125 13.921875 20.71875 10.15625 
Q 24.75 6.390625 31.78125 6.390625 
Q 38.8125 6.390625 42.859375 10.171875 
Q 46.921875 13.96875 46.921875 20.515625 
Q 46.921875 27.09375 42.890625 30.859375 
Q 38.875 34.625 31.78125 34.625 
z
M 21.921875 38.8125 
Q 15.578125 40.375 12.03125 44.71875 
Q 8.5 49.078125 8.5 55.328125 
Q 8.5 64.0625 14.71875 69.140625 
Q 20.953125 74.21875 31.78125 74.21875 
Q 42.671875 74.21875 48.875 69.140625 
Q 55.078125 64.0625 55.078125 55.328125 
Q 55.078125 49.078125 51.53125 44.71875 
Q 48 40.375 41.703125 38.8125 
Q 48.828125 37.15625 52.796875 32.3125 
Q 56.78125 27.484375 56.78125 20.515625 
Q 56.78125 9.90625 50.3125 4.234375 
Q 43.84375 -1.421875 31.78125 -1.421875 
Q 19.734375 -1.421875 13.25 4.234375 
Q 6.78125 9.90625 6.78125 20.515625 
Q 6.78125 27.484375 10.78125 32.3125 
Q 14.796875 37.15625 21.921875 38.8125 
z
M 18.3125 54.390625 
Q 18.3125 48.734375 21.84375 45.5625 
Q 25.390625 42.390625 31.78125 42.390625 
Q 38.140625 42.390625 41.71875 45.5625 
Q 45.3125 48.734375 45.3125 54.390625 
Q 45.3125 60.0625 41.71875 63.234375 
Q 38.140625 66.40625 31.78125 66.40625 
Q 25.390625 66.40625 21.84375 63.234375 
Q 18.3125 60.0625 18.3125 54.390625 
z
" id="DejaVuSans-56"/>
     </defs>
     <g transform="translate(333.330938 72.748562)scale(0.1 -0.1)">
      <use xlink:href="#DejaVuSans-78"/>
      <use x="74.804688" xlink:href="#DejaVuSans-111"/>
      <use x="135.986328" xlink:href="#DejaVuSans-116"/>
      <use x="175.195312" xlink:href="#DejaVuSans-32"/>
      <use x="206.982422" xlink:href="#DejaVuSans-97"/>
      <use x="268.261719" xlink:href="#DejaVuSans-114"/>
      <use x="307.625" xlink:href="#DejaVuSans-100"/>
      <use x="371.101562" xlink:href="#DejaVuSans-115"/>
      <use x="423.201172" xlink:href="#DejaVuSans-32"/>
      <use x="454.988281" xlink:href="#DejaVuSans-40"/>
      <use x="494.001953" xlink:href="#DejaVuSans-50"/>
      <use x="557.625" xlink:href="#DejaVuSans-56"/>
      <use x="621.248047" xlink:href="#DejaVuSans-55"/>
      <use x="684.871094" xlink:href="#DejaVuSans-41"/>
     </g>
    </g>
   </g>
  </g>
 </g>
 <defs>
  <clipPath id="pe97b817b4a">
   <rect height="266.112" width="357.12" x="57.6" y="41.472"/>
  </clipPath>
 </defs>
</svg>
