<?xml version="1.0" encoding="utf-8" standalone="no"?>
<!DOCTYPE svg PUBLIC "-//W3C//DTD SVG 1.1//EN"
  "http://www.w3.org/Graphics/SVG/1.1/DTD/svg11.dtd">
<!-- Created with matplotlib (https://matplotlib.org/) -->
<svg height="345.6pt" version="1.1" viewBox="0 0 460.8 345.6" width="460.8pt" xmlns="http://www.w3.org/2000/svg" xmlns:xlink="http://www.w3.org/1999/xlink">
 <defs>
  <style type="text/css">
*{stroke-linecap:butt;stroke-linejoin:round;}
  </style>
 </defs>
 <g id="figure_1">
  <g id="patch_1">
   <path d="M 0 345.6 
L 460.8 345.6 
L 460.8 0 
L 0 0 
z
" style="fill:#ffffff;"/>
  </g>
  <g id="axes_1">
   <g id="patch_2">
    <path d="M 57.6 307.584 
L 414.72 307.584 
L 414.72 41.472 
L 57.6 41.472 
z
" style="fill:#ffffff;"/>
   </g>
   <g id="PolyCollection_1">
    <defs>
     <path d="M 73.832727 -163.527467 
L 73.832727 -178.616533 
L 77.112066 -183.768075 
L 80.391405 -191.295769 
L 83.670744 -201.573019 
L 86.950083 -214.638095 
L 90.229421 -230.02551 
L 93.50876 -246.680352 
L 96.788099 -263.018557 
L 100.067438 -277.157508 
L 103.346777 -287.279601 
L 106.626116 -292.032 
L 109.905455 -290.838321 
L 113.184793 -284.020198 
L 116.464132 -272.691914 
L 119.743471 -258.471022 
L 123.02281 -243.106402 
L 126.302149 -228.139406 
L 129.581488 -214.683275 
L 132.860826 -203.351159 
L 136.140165 -194.310477 
L 139.419504 -187.410655 
L 142.698843 -182.327521 
L 145.978182 -178.683393 
L 149.257521 -176.124765 
L 152.53686 -174.358724 
L 155.816198 -173.159882 
L 159.095537 -172.361737 
L 162.374876 -171.843289 
L 165.654215 -171.516908 
L 168.933554 -171.319437 
L 172.212893 -171.206262 
L 175.492231 -171.147325 
L 178.77157 -171.124258 
L 182.050909 -171.12816 
L 185.330248 -171.15781 
L 188.609587 -171.218072 
L 191.888926 -171.318139 
L 195.168264 -171.469189 
L 198.447603 -171.681158 
L 201.726942 -171.958755 
L 205.006281 -172.297371 
L 208.28562 -172.680099 
L 211.564959 -173.077156 
L 214.844298 -173.448668 
L 218.123636 -173.750782 
L 221.402975 -173.943957 
L 224.682314 -174.001305 
L 227.961653 -173.914621 
L 231.240992 -173.696269 
L 234.520331 -173.376346 
L 237.799669 -172.995999 
L 241.079008 -172.598891 
L 244.358347 -172.223212 
L 247.637686 -171.896183 
L 250.917025 -171.631989 
L 254.196364 -171.4329 
L 257.475702 -171.292504 
L 260.755041 -171.199657 
L 264.03438 -171.141994 
L 267.313719 -171.108332 
L 270.593058 -171.089846 
L 273.872397 -171.080292 
L 277.151736 -171.075644 
L 280.431074 -171.073514 
L 283.710413 -171.072594 
L 286.989752 -171.072221 
L 290.269091 -171.072077 
L 293.54843 -171.072026 
L 296.827769 -171.072009 
L 300.107107 -171.072004 
L 303.386446 -171.072007 
L 306.665785 -171.072022 
L 309.945124 -171.072066 
L 313.224463 -171.072189 
L 316.503802 -171.07251 
L 319.78314 -171.073298 
L 323.062479 -171.07512 
L 326.341818 -171.079074 
L 329.621157 -171.087143 
L 332.900496 -171.102594 
L 336.179835 -171.130342 
L 339.459174 -171.177014 
L 342.738512 -171.250416 
L 346.017851 -171.358113 
L 349.29719 -171.505072 
L 352.576529 -171.690732 
L 355.855868 -171.906378 
L 359.135207 -172.134044 
L 362.414545 -172.34797 
L 365.693884 -172.518964 
L 368.973223 -172.620793 
L 372.252562 -172.636762 
L 375.531901 -172.564181 
L 378.81124 -172.415117 
L 382.090579 -172.213103 
L 385.369917 -171.987071 
L 388.649256 -171.764634 
L 391.928595 -171.566847 
L 395.207934 -171.405701 
L 398.487273 -171.284404 
L 398.487273 -170.859596 
L 398.487273 -170.859596 
L 395.207934 -170.738299 
L 391.928595 -170.577153 
L 388.649256 -170.379366 
L 385.369917 -170.156929 
L 382.090579 -169.930897 
L 378.81124 -169.728883 
L 375.531901 -169.579819 
L 372.252562 -169.507238 
L 368.973223 -169.523207 
L 365.693884 -169.625036 
L 362.414545 -169.79603 
L 359.135207 -170.009956 
L 355.855868 -170.237622 
L 352.576529 -170.453268 
L 349.29719 -170.638928 
L 346.017851 -170.785887 
L 342.738512 -170.893584 
L 339.459174 -170.966986 
L 336.179835 -171.013658 
L 332.900496 -171.041406 
L 329.621157 -171.056857 
L 326.341818 -171.064926 
L 323.062479 -171.06888 
L 319.78314 -171.070702 
L 316.503802 -171.07149 
L 313.224463 -171.071811 
L 309.945124 -171.071934 
L 306.665785 -171.071978 
L 303.386446 -171.071993 
L 300.107107 -171.071996 
L 296.827769 -171.071991 
L 293.54843 -171.071974 
L 290.269091 -171.071923 
L 286.989752 -171.071779 
L 283.710413 -171.071406 
L 280.431074 -171.070486 
L 277.151736 -171.068356 
L 273.872397 -171.063708 
L 270.593058 -171.054154 
L 267.313719 -171.035668 
L 264.03438 -171.002006 
L 260.755041 -170.944343 
L 257.475702 -170.851496 
L 254.196364 -170.7111 
L 250.917025 -170.512011 
L 247.637686 -170.247817 
L 244.358347 -169.920788 
L 241.079008 -169.545109 
L 237.799669 -169.148001 
L 234.520331 -168.767654 
L 231.240992 -168.447731 
L 227.961653 -168.229379 
L 224.682314 -168.142695 
L 221.402975 -168.200043 
L 218.123636 -168.393218 
L 214.844298 -168.695332 
L 211.564959 -169.066844 
L 208.28562 -169.463901 
L 205.006281 -169.846629 
L 201.726942 -170.185245 
L 198.447603 -170.462842 
L 195.168264 -170.674811 
L 191.888926 -170.825861 
L 188.609587 -170.925928 
L 185.330248 -170.98619 
L 182.050909 -171.01584 
L 178.77157 -171.019742 
L 175.492231 -170.996675 
L 172.212893 -170.937738 
L 168.933554 -170.824563 
L 165.654215 -170.627092 
L 162.374876 -170.300711 
L 159.095537 -169.782263 
L 155.816198 -168.984118 
L 152.53686 -167.785276 
L 149.257521 -166.019235 
L 145.978182 -163.460607 
L 142.698843 -159.816479 
L 139.419504 -154.733345 
L 136.140165 -147.833523 
L 132.860826 -138.792841 
L 129.581488 -127.460725 
L 126.302149 -114.004594 
L 123.02281 -99.037598 
L 119.743471 -83.672978 
L 116.464132 -69.452086 
L 113.184793 -58.123802 
L 109.905455 -51.305679 
L 106.626116 -50.112 
L 103.346777 -54.864399 
L 100.067438 -64.986492 
L 96.788099 -79.125443 
L 93.50876 -95.463648 
L 90.229421 -112.11849 
L 86.950083 -127.505905 
L 83.670744 -140.570981 
L 80.391405 -150.848231 
L 77.112066 -158.375925 
L 73.832727 -163.527467 
z
" id="m134326c68f" style="stroke:#4c4c4c;stroke-opacity:0.5;stroke-width:1.5;"/>
    </defs>
    <g clip-path="url(#p55adfc7bb2)">
     <use style="fill:#df9c20;fill-opacity:0.5;stroke:#4c4c4c;stroke-opacity:0.5;stroke-width:1.5;" x="0" xlink:href="#m134326c68f" y="345.6"/>
    </g>
   </g>
   <g id="PolyCollection_2">
    <defs>
     <path d="M 82.509788 -163.468907 
L 82.509788 -178.675093 
L 85.5968 -187.563984 
L 88.683811 -202.556463 
L 91.770823 -224.004798 
L 94.857835 -249.503361 
L 97.944847 -273.593958 
L 101.031859 -289.450443 
L 104.11887 -292.032 
L 107.205882 -280.736544 
L 110.292894 -259.644956 
L 113.379906 -235.223618 
L 116.466918 -213.214825 
L 119.55393 -196.70051 
L 122.640941 -186.034497 
L 125.727953 -179.954358 
L 128.814965 -176.797813 
L 131.901977 -175.219494 
L 134.988989 -174.386882 
L 138.076001 -173.887447 
L 141.163012 -173.553806 
L 144.250024 -173.316902 
L 147.337036 -173.127935 
L 150.424048 -172.944398 
L 153.51106 -172.74458 
L 156.598072 -172.532224 
L 159.685083 -172.320655 
L 162.772095 -172.114739 
L 165.859107 -171.909861 
L 168.946119 -171.704865 
L 172.033131 -171.510945 
L 175.120143 -171.346614 
L 178.207154 -171.225619 
L 181.294166 -171.150146 
L 184.381178 -171.113744 
L 187.46819 -171.109387 
L 190.555202 -171.135899 
L 193.642213 -171.198671 
L 196.729225 -171.304064 
L 199.816237 -171.450232 
L 202.903249 -171.620728 
L 205.990261 -171.787691 
L 209.077273 -171.925016 
L 212.164284 -172.021968 
L 215.251296 -172.08545 
L 218.338308 -172.129323 
L 221.42532 -172.161359 
L 224.512332 -172.178296 
L 227.599344 -172.16905 
L 230.686355 -172.120229 
L 233.773367 -172.021811 
L 236.860379 -171.874065 
L 239.947391 -171.692705 
L 243.034403 -171.506008 
L 246.121415 -171.34325 
L 249.208426 -171.222393 
L 252.295438 -171.145604 
L 255.38245 -171.103697 
L 258.469462 -171.083986 
L 261.556474 -171.075976 
L 264.643485 -171.073156 
L 267.730497 -171.072294 
L 270.817509 -171.072066 
L 273.904521 -171.072013 
L 276.991533 -171.072002 
L 280.078545 -171.072 
L 283.165556 -171.072 
L 286.252568 -171.072 
L 289.33958 -171.072 
L 292.426592 -171.072 
L 295.513604 -171.072 
L 298.600616 -171.072 
L 301.687627 -171.072 
L 304.774639 -171.072 
L 307.861651 -171.072 
L 310.948663 -171.072 
L 314.035675 -171.072 
L 317.122687 -171.072 
L 320.209698 -171.072 
L 323.29671 -171.072 
L 326.383722 -171.072001 
L 329.470734 -171.072003 
L 332.557746 -171.07202 
L 335.644757 -171.072098 
L 338.731769 -171.072423 
L 341.818781 -171.073603 
L 344.905793 -171.07732 
L 347.992805 -171.087455 
L 351.079817 -171.111308 
L 354.166828 -171.159523 
L 357.25384 -171.2426 
L 360.340852 -171.36311 
L 363.427864 -171.506869 
L 366.514876 -171.640698 
L 369.601888 -171.723068 
L 372.688899 -171.724518 
L 375.775911 -171.644507 
L 378.862923 -171.511734 
L 381.949935 -171.36768 
L 385.036947 -171.246051 
L 388.123959 -171.161691 
L 388.123959 -170.982309 
L 388.123959 -170.982309 
L 385.036947 -170.897949 
L 381.949935 -170.77632 
L 378.862923 -170.632266 
L 375.775911 -170.499493 
L 372.688899 -170.419482 
L 369.601888 -170.420932 
L 366.514876 -170.503302 
L 363.427864 -170.637131 
L 360.340852 -170.78089 
L 357.25384 -170.9014 
L 354.166828 -170.984477 
L 351.079817 -171.032692 
L 347.992805 -171.056545 
L 344.905793 -171.06668 
L 341.818781 -171.070397 
L 338.731769 -171.071577 
L 335.644757 -171.071902 
L 332.557746 -171.07198 
L 329.470734 -171.071997 
L 326.383722 -171.071999 
L 323.29671 -171.072 
L 320.209698 -171.072 
L 317.122687 -171.072 
L 314.035675 -171.072 
L 310.948663 -171.072 
L 307.861651 -171.072 
L 304.774639 -171.072 
L 301.687627 -171.072 
L 298.600616 -171.072 
L 295.513604 -171.072 
L 292.426592 -171.072 
L 289.33958 -171.072 
L 286.252568 -171.072 
L 283.165556 -171.072 
L 280.078545 -171.072 
L 276.991533 -171.071998 
L 273.904521 -171.071987 
L 270.817509 -171.071934 
L 267.730497 -171.071706 
L 264.643485 -171.070844 
L 261.556474 -171.068024 
L 258.469462 -171.060014 
L 255.38245 -171.040303 
L 252.295438 -170.998396 
L 249.208426 -170.921607 
L 246.121415 -170.80075 
L 243.034403 -170.637992 
L 239.947391 -170.451295 
L 236.860379 -170.269935 
L 233.773367 -170.122189 
L 230.686355 -170.023771 
L 227.599344 -169.97495 
L 224.512332 -169.965704 
L 221.42532 -169.982641 
L 218.338308 -170.014677 
L 215.251296 -170.05855 
L 212.164284 -170.122032 
L 209.077273 -170.218984 
L 205.990261 -170.356309 
L 202.903249 -170.523272 
L 199.816237 -170.693768 
L 196.729225 -170.839936 
L 193.642213 -170.945329 
L 190.555202 -171.008101 
L 187.46819 -171.034613 
L 184.381178 -171.030256 
L 181.294166 -170.993854 
L 178.207154 -170.918381 
L 175.120143 -170.797386 
L 172.033131 -170.633055 
L 168.946119 -170.439135 
L 165.859107 -170.234139 
L 162.772095 -170.029261 
L 159.685083 -169.823345 
L 156.598072 -169.611776 
L 153.51106 -169.39942 
L 150.424048 -169.199602 
L 147.337036 -169.016065 
L 144.250024 -168.827098 
L 141.163012 -168.590194 
L 138.076001 -168.256553 
L 134.988989 -167.757118 
L 131.901977 -166.924506 
L 128.814965 -165.346187 
L 125.727953 -162.189642 
L 122.640941 -156.109503 
L 119.55393 -145.44349 
L 116.466918 -128.929175 
L 113.379906 -106.920382 
L 110.292894 -82.499044 
L 107.205882 -61.407456 
L 104.11887 -50.112 
L 101.031859 -52.693557 
L 97.944847 -68.550042 
L 94.857835 -92.640639 
L 91.770823 -118.139202 
L 88.683811 -139.587537 
L 85.5968 -154.580016 
L 82.509788 -163.468907 
z
" id="me6d7d14023" style="stroke:#262626;stroke-opacity:0.5;stroke-width:1.5;"/>
    </defs>
    <g clip-path="url(#p55adfc7bb2)">
     <use style="fill:#107010;fill-opacity:0.5;stroke:#262626;stroke-opacity:0.5;stroke-width:1.5;" x="0" xlink:href="#me6d7d14023" y="345.6"/>
    </g>
   </g>
   <g id="matplotlib.axis_1">
    <g id="xtick_1">
     <g id="line2d_1">
      <defs>
       <path d="M 0 0 
L 0 3.5 
" id="mea80c48381" style="stroke:#000000;stroke-width:0.8;"/>
      </defs>
      <g>
       <use style="stroke:#000000;stroke-width:0.8;" x="84.245247" xlink:href="#mea80c48381" y="307.584"/>
      </g>
     </g>
     <g id="text_1">
      <!-- 0.0 -->
      <defs>
       <path d="M 31.78125 66.40625 
Q 24.171875 66.40625 20.328125 58.90625 
Q 16.5 51.421875 16.5 36.375 
Q 16.5 21.390625 20.328125 13.890625 
Q 24.171875 6.390625 31.78125 6.390625 
Q 39.453125 6.390625 43.28125 13.890625 
Q 47.125 21.390625 47.125 36.375 
Q 47.125 51.421875 43.28125 58.90625 
Q 39.453125 66.40625 31.78125 66.40625 
z
M 31.78125 74.21875 
Q 44.046875 74.21875 50.515625 64.515625 
Q 56.984375 54.828125 56.984375 36.375 
Q 56.984375 17.96875 50.515625 8.265625 
Q 44.046875 -1.421875 31.78125 -1.421875 
Q 19.53125 -1.421875 13.0625 8.265625 
Q 6.59375 17.96875 6.59375 36.375 
Q 6.59375 54.828125 13.0625 64.515625 
Q 19.53125 74.21875 31.78125 74.21875 
z
" id="DejaVuSans-48"/>
       <path d="M 10.6875 12.40625 
L 21 12.40625 
L 21 0 
L 10.6875 0 
z
" id="DejaVuSans-46"/>
      </defs>
      <g transform="translate(76.293684 322.182437)scale(0.1 -0.1)">
       <use xlink:href="#DejaVuSans-48"/>
       <use x="63.623047" xlink:href="#DejaVuSans-46"/>
       <use x="95.410156" xlink:href="#DejaVuSans-48"/>
      </g>
     </g>
    </g>
    <g id="xtick_2">
     <g id="line2d_2">
      <g>
       <use style="stroke:#000000;stroke-width:0.8;" x="126.443789" xlink:href="#mea80c48381" y="307.584"/>
      </g>
     </g>
     <g id="text_2">
      <!-- 2.5 -->
      <defs>
       <path d="M 19.1875 8.296875 
L 53.609375 8.296875 
L 53.609375 0 
L 7.328125 0 
L 7.328125 8.296875 
Q 12.9375 14.109375 22.625 23.890625 
Q 32.328125 33.6875 34.8125 36.53125 
Q 39.546875 41.84375 41.421875 45.53125 
Q 43.3125 49.21875 43.3125 52.78125 
Q 43.3125 58.59375 39.234375 62.25 
Q 35.15625 65.921875 28.609375 65.921875 
Q 23.96875 65.921875 18.8125 64.3125 
Q 13.671875 62.703125 7.8125 59.421875 
L 7.8125 69.390625 
Q 13.765625 71.78125 18.9375 73 
Q 24.125 74.21875 28.421875 74.21875 
Q 39.75 74.21875 46.484375 68.546875 
Q 53.21875 62.890625 53.21875 53.421875 
Q 53.21875 48.921875 51.53125 44.890625 
Q 49.859375 40.875 45.40625 35.40625 
Q 44.1875 33.984375 37.640625 27.21875 
Q 31.109375 20.453125 19.1875 8.296875 
z
" id="DejaVuSans-50"/>
       <path d="M 10.796875 72.90625 
L 49.515625 72.90625 
L 49.515625 64.59375 
L 19.828125 64.59375 
L 19.828125 46.734375 
Q 21.96875 47.46875 24.109375 47.828125 
Q 26.265625 48.1875 28.421875 48.1875 
Q 40.625 48.1875 47.75 41.5 
Q 54.890625 34.8125 54.890625 23.390625 
Q 54.890625 11.625 47.5625 5.09375 
Q 40.234375 -1.421875 26.90625 -1.421875 
Q 22.3125 -1.421875 17.546875 -0.640625 
Q 12.796875 0.140625 7.71875 1.703125 
L 7.71875 11.625 
Q 12.109375 9.234375 16.796875 8.0625 
Q 21.484375 6.890625 26.703125 6.890625 
Q 35.15625 6.890625 40.078125 11.328125 
Q 45.015625 15.765625 45.015625 23.390625 
Q 45.015625 31 40.078125 35.4375 
Q 35.15625 39.890625 26.703125 39.890625 
Q 22.75 39.890625 18.8125 39.015625 
Q 14.890625 38.140625 10.796875 36.28125 
z
" id="DejaVuSans-53"/>
      </defs>
      <g transform="translate(118.492227 322.182437)scale(0.1 -0.1)">
       <use xlink:href="#DejaVuSans-50"/>
       <use x="63.623047" xlink:href="#DejaVuSans-46"/>
       <use x="95.410156" xlink:href="#DejaVuSans-53"/>
      </g>
     </g>
    </g>
    <g id="xtick_3">
     <g id="line2d_3">
      <g>
       <use style="stroke:#000000;stroke-width:0.8;" x="168.642332" xlink:href="#mea80c48381" y="307.584"/>
      </g>
     </g>
     <g id="text_3">
      <!-- 5.0 -->
      <g transform="translate(160.690769 322.182437)scale(0.1 -0.1)">
       <use xlink:href="#DejaVuSans-53"/>
       <use x="63.623047" xlink:href="#DejaVuSans-46"/>
       <use x="95.410156" xlink:href="#DejaVuSans-48"/>
      </g>
     </g>
    </g>
    <g id="xtick_4">
     <g id="line2d_4">
      <g>
       <use style="stroke:#000000;stroke-width:0.8;" x="210.840874" xlink:href="#mea80c48381" y="307.584"/>
      </g>
     </g>
     <g id="text_4">
      <!-- 7.5 -->
      <defs>
       <path d="M 8.203125 72.90625 
L 55.078125 72.90625 
L 55.078125 68.703125 
L 28.609375 0 
L 18.3125 0 
L 43.21875 64.59375 
L 8.203125 64.59375 
z
" id="DejaVuSans-55"/>
      </defs>
      <g transform="translate(202.889312 322.182437)scale(0.1 -0.1)">
       <use xlink:href="#DejaVuSans-55"/>
       <use x="63.623047" xlink:href="#DejaVuSans-46"/>
       <use x="95.410156" xlink:href="#DejaVuSans-53"/>
      </g>
     </g>
    </g>
    <g id="xtick_5">
     <g id="line2d_5">
      <g>
       <use style="stroke:#000000;stroke-width:0.8;" x="253.039417" xlink:href="#mea80c48381" y="307.584"/>
      </g>
     </g>
     <g id="text_5">
      <!-- 10.0 -->
      <defs>
       <path d="M 12.40625 8.296875 
L 28.515625 8.296875 
L 28.515625 63.921875 
L 10.984375 60.40625 
L 10.984375 69.390625 
L 28.421875 72.90625 
L 38.28125 72.90625 
L 38.28125 8.296875 
L 54.390625 8.296875 
L 54.390625 0 
L 12.40625 0 
z
" id="DejaVuSans-49"/>
      </defs>
      <g transform="translate(241.906605 322.182437)scale(0.1 -0.1)">
       <use xlink:href="#DejaVuSans-49"/>
       <use x="63.623047" xlink:href="#DejaVuSans-48"/>
       <use x="127.246094" xlink:href="#DejaVuSans-46"/>
       <use x="159.033203" xlink:href="#DejaVuSans-48"/>
      </g>
     </g>
    </g>
    <g id="xtick_6">
     <g id="line2d_6">
      <g>
       <use style="stroke:#000000;stroke-width:0.8;" x="295.23796" xlink:href="#mea80c48381" y="307.584"/>
      </g>
     </g>
     <g id="text_6">
      <!-- 12.5 -->
      <g transform="translate(284.105147 322.182437)scale(0.1 -0.1)">
       <use xlink:href="#DejaVuSans-49"/>
       <use x="63.623047" xlink:href="#DejaVuSans-50"/>
       <use x="127.246094" xlink:href="#DejaVuSans-46"/>
       <use x="159.033203" xlink:href="#DejaVuSans-53"/>
      </g>
     </g>
    </g>
    <g id="xtick_7">
     <g id="line2d_7">
      <g>
       <use style="stroke:#000000;stroke-width:0.8;" x="337.436502" xlink:href="#mea80c48381" y="307.584"/>
      </g>
     </g>
     <g id="text_7">
      <!-- 15.0 -->
      <g transform="translate(326.30369 322.182437)scale(0.1 -0.1)">
       <use xlink:href="#DejaVuSans-49"/>
       <use x="63.623047" xlink:href="#DejaVuSans-53"/>
       <use x="127.246094" xlink:href="#DejaVuSans-46"/>
       <use x="159.033203" xlink:href="#DejaVuSans-48"/>
      </g>
     </g>
    </g>
    <g id="xtick_8">
     <g id="line2d_8">
      <g>
       <use style="stroke:#000000;stroke-width:0.8;" x="379.635045" xlink:href="#mea80c48381" y="307.584"/>
      </g>
     </g>
     <g id="text_8">
      <!-- 17.5 -->
      <g transform="translate(368.502232 322.182437)scale(0.1 -0.1)">
       <use xlink:href="#DejaVuSans-49"/>
       <use x="63.623047" xlink:href="#DejaVuSans-55"/>
       <use x="127.246094" xlink:href="#DejaVuSans-46"/>
       <use x="159.033203" xlink:href="#DejaVuSans-53"/>
      </g>
     </g>
    </g>
    <g id="text_9">
     <!-- inrpeakac -->
     <defs>
      <path d="M 9.421875 54.6875 
L 18.40625 54.6875 
L 18.40625 0 
L 9.421875 0 
z
M 9.421875 75.984375 
L 18.40625 75.984375 
L 18.40625 64.59375 
L 9.421875 64.59375 
z
" id="DejaVuSans-105"/>
      <path d="M 54.890625 33.015625 
L 54.890625 0 
L 45.90625 0 
L 45.90625 32.71875 
Q 45.90625 40.484375 42.875 44.328125 
Q 39.84375 48.1875 33.796875 48.1875 
Q 26.515625 48.1875 22.3125 43.546875 
Q 18.109375 38.921875 18.109375 30.90625 
L 18.109375 0 
L 9.078125 0 
L 9.078125 54.6875 
L 18.109375 54.6875 
L 18.109375 46.1875 
Q 21.34375 51.125 25.703125 53.5625 
Q 30.078125 56 35.796875 56 
Q 45.21875 56 50.046875 50.171875 
Q 54.890625 44.34375 54.890625 33.015625 
z
" id="DejaVuSans-110"/>
      <path d="M 41.109375 46.296875 
Q 39.59375 47.171875 37.8125 47.578125 
Q 36.03125 48 33.890625 48 
Q 26.265625 48 22.1875 43.046875 
Q 18.109375 38.09375 18.109375 28.8125 
L 18.109375 0 
L 9.078125 0 
L 9.078125 54.6875 
L 18.109375 54.6875 
L 18.109375 46.1875 
Q 20.953125 51.171875 25.484375 53.578125 
Q 30.03125 56 36.53125 56 
Q 37.453125 56 38.578125 55.875 
Q 39.703125 55.765625 41.0625 55.515625 
z
" id="DejaVuSans-114"/>
      <path d="M 18.109375 8.203125 
L 18.109375 -20.796875 
L 9.078125 -20.796875 
L 9.078125 54.6875 
L 18.109375 54.6875 
L 18.109375 46.390625 
Q 20.953125 51.265625 25.265625 53.625 
Q 29.59375 56 35.59375 56 
Q 45.5625 56 51.78125 48.09375 
Q 58.015625 40.1875 58.015625 27.296875 
Q 58.015625 14.40625 51.78125 6.484375 
Q 45.5625 -1.421875 35.59375 -1.421875 
Q 29.59375 -1.421875 25.265625 0.953125 
Q 20.953125 3.328125 18.109375 8.203125 
z
M 48.6875 27.296875 
Q 48.6875 37.203125 44.609375 42.84375 
Q 40.53125 48.484375 33.40625 48.484375 
Q 26.265625 48.484375 22.1875 42.84375 
Q 18.109375 37.203125 18.109375 27.296875 
Q 18.109375 17.390625 22.1875 11.75 
Q 26.265625 6.109375 33.40625 6.109375 
Q 40.53125 6.109375 44.609375 11.75 
Q 48.6875 17.390625 48.6875 27.296875 
z
" id="DejaVuSans-112"/>
      <path d="M 56.203125 29.59375 
L 56.203125 25.203125 
L 14.890625 25.203125 
Q 15.484375 15.921875 20.484375 11.0625 
Q 25.484375 6.203125 34.421875 6.203125 
Q 39.59375 6.203125 44.453125 7.46875 
Q 49.3125 8.734375 54.109375 11.28125 
L 54.109375 2.78125 
Q 49.265625 0.734375 44.1875 -0.34375 
Q 39.109375 -1.421875 33.890625 -1.421875 
Q 20.796875 -1.421875 13.15625 6.1875 
Q 5.515625 13.8125 5.515625 26.8125 
Q 5.515625 40.234375 12.765625 48.109375 
Q 20.015625 56 32.328125 56 
Q 43.359375 56 49.78125 48.890625 
Q 56.203125 41.796875 56.203125 29.59375 
z
M 47.21875 32.234375 
Q 47.125 39.59375 43.09375 43.984375 
Q 39.0625 48.390625 32.421875 48.390625 
Q 24.90625 48.390625 20.390625 44.140625 
Q 15.875 39.890625 15.1875 32.171875 
z
" id="DejaVuSans-101"/>
      <path d="M 34.28125 27.484375 
Q 23.390625 27.484375 19.1875 25 
Q 14.984375 22.515625 14.984375 16.5 
Q 14.984375 11.71875 18.140625 8.90625 
Q 21.296875 6.109375 26.703125 6.109375 
Q 34.1875 6.109375 38.703125 11.40625 
Q 43.21875 16.703125 43.21875 25.484375 
L 43.21875 27.484375 
z
M 52.203125 31.203125 
L 52.203125 0 
L 43.21875 0 
L 43.21875 8.296875 
Q 40.140625 3.328125 35.546875 0.953125 
Q 30.953125 -1.421875 24.3125 -1.421875 
Q 15.921875 -1.421875 10.953125 3.296875 
Q 6 8.015625 6 15.921875 
Q 6 25.140625 12.171875 29.828125 
Q 18.359375 34.515625 30.609375 34.515625 
L 43.21875 34.515625 
L 43.21875 35.40625 
Q 43.21875 41.609375 39.140625 45 
Q 35.0625 48.390625 27.6875 48.390625 
Q 23 48.390625 18.546875 47.265625 
Q 14.109375 46.140625 10.015625 43.890625 
L 10.015625 52.203125 
Q 14.9375 54.109375 19.578125 55.046875 
Q 24.21875 56 28.609375 56 
Q 40.484375 56 46.34375 49.84375 
Q 52.203125 43.703125 52.203125 31.203125 
z
" id="DejaVuSans-97"/>
      <path d="M 9.078125 75.984375 
L 18.109375 75.984375 
L 18.109375 31.109375 
L 44.921875 54.6875 
L 56.390625 54.6875 
L 27.390625 29.109375 
L 57.625 0 
L 45.90625 0 
L 18.109375 26.703125 
L 18.109375 0 
L 9.078125 0 
z
" id="DejaVuSans-107"/>
      <path d="M 48.78125 52.59375 
L 48.78125 44.1875 
Q 44.96875 46.296875 41.140625 47.34375 
Q 37.3125 48.390625 33.40625 48.390625 
Q 24.65625 48.390625 19.8125 42.84375 
Q 14.984375 37.3125 14.984375 27.296875 
Q 14.984375 17.28125 19.8125 11.734375 
Q 24.65625 6.203125 33.40625 6.203125 
Q 37.3125 6.203125 41.140625 7.25 
Q 44.96875 8.296875 48.78125 10.40625 
L 48.78125 2.09375 
Q 45.015625 0.34375 40.984375 -0.53125 
Q 36.96875 -1.421875 32.421875 -1.421875 
Q 20.0625 -1.421875 12.78125 6.34375 
Q 5.515625 14.109375 5.515625 27.296875 
Q 5.515625 40.671875 12.859375 48.328125 
Q 20.21875 56 33.015625 56 
Q 37.15625 56 41.109375 55.140625 
Q 45.0625 54.296875 48.78125 52.59375 
z
" id="DejaVuSans-99"/>
     </defs>
     <g transform="translate(211.610781 335.860562)scale(0.1 -0.1)">
      <use xlink:href="#DejaVuSans-105"/>
      <use x="27.783203" xlink:href="#DejaVuSans-110"/>
      <use x="91.162109" xlink:href="#DejaVuSans-114"/>
      <use x="132.275391" xlink:href="#DejaVuSans-112"/>
      <use x="195.751953" xlink:href="#DejaVuSans-101"/>
      <use x="257.275391" xlink:href="#DejaVuSans-97"/>
      <use x="318.554688" xlink:href="#DejaVuSans-107"/>
      <use x="374.714844" xlink:href="#DejaVuSans-97"/>
      <use x="435.994141" xlink:href="#DejaVuSans-99"/>
     </g>
    </g>
   </g>
   <g id="matplotlib.axis_2">
    <g id="ytick_1">
     <g id="line2d_9">
      <defs>
       <path d="M 0 0 
L -3.5 0 
" id="m86eb8f5d7b" style="stroke:#000000;stroke-width:0.8;"/>
      </defs>
      <g>
       <use style="stroke:#000000;stroke-width:0.8;" x="57.6" xlink:href="#m86eb8f5d7b" y="174.528"/>
      </g>
     </g>
    </g>
   </g>
   <g id="line2d_10">
    <path clip-path="url(#p55adfc7bb2)" d="M 101.124664 174.528 
L 119.692023 174.528 
" style="fill:none;stroke:#ffa500;stroke-linecap:square;stroke-width:1.5;"/>
   </g>
   <g id="line2d_11">
    <path clip-path="url(#p55adfc7bb2)" d="M 104.500547 174.528 
L 111.252314 174.528 
" style="fill:none;stroke:#4c4c4c;stroke-linecap:square;stroke-width:4.5;"/>
   </g>
   <g id="line2d_12">
    <path clip-path="url(#p55adfc7bb2)" d="M 99.436722 174.528 
L 109.564372 174.528 
" style="fill:none;stroke:#008000;stroke-linecap:square;stroke-width:1.5;"/>
   </g>
   <g id="line2d_13">
    <path clip-path="url(#p55adfc7bb2)" d="M 101.124664 174.528 
L 104.500547 174.528 
" style="fill:none;stroke:#262626;stroke-linecap:square;stroke-width:4.5;"/>
   </g>
   <g id="patch_3">
    <path d="M 57.6 307.584 
L 57.6 41.472 
" style="fill:none;stroke:#000000;stroke-linecap:square;stroke-linejoin:miter;stroke-width:0.8;"/>
   </g>
   <g id="patch_4">
    <path d="M 414.72 307.584 
L 414.72 41.472 
" style="fill:none;stroke:#000000;stroke-linecap:square;stroke-linejoin:miter;stroke-width:0.8;"/>
   </g>
   <g id="patch_5">
    <path d="M 57.6 307.584 
L 414.72 307.584 
" style="fill:none;stroke:#000000;stroke-linecap:square;stroke-linejoin:miter;stroke-width:0.8;"/>
   </g>
   <g id="patch_6">
    <path d="M 57.6 41.472 
L 414.72 41.472 
" style="fill:none;stroke:#000000;stroke-linecap:square;stroke-linejoin:miter;stroke-width:0.8;"/>
   </g>
   <g id="PathCollection_1">
    <defs>
     <path d="M 0 1.5 
C 0.397805 1.5 0.77937 1.341951 1.06066 1.06066 
C 1.341951 0.77937 1.5 0.397805 1.5 0 
C 1.5 -0.397805 1.341951 -0.77937 1.06066 -1.06066 
C 0.77937 -1.341951 0.397805 -1.5 0 -1.5 
C -0.397805 -1.5 -0.77937 -1.341951 -1.06066 -1.06066 
C -1.341951 -0.77937 -1.5 -0.397805 -1.5 0 
C -1.5 0.397805 -1.341951 0.77937 -1.06066 1.06066 
C -0.77937 1.341951 -0.397805 1.5 0 1.5 
z
" id="m014d427c05" style="stroke:#4c4c4c;stroke-opacity:0.5;"/>
    </defs>
    <g clip-path="url(#p55adfc7bb2)">
     <use style="fill:#ffffff;fill-opacity:0.5;stroke:#4c4c4c;stroke-opacity:0.5;" x="106.188489" xlink:href="#m014d427c05" y="174.528"/>
    </g>
   </g>
   <g id="PathCollection_2">
    <defs>
     <path d="M 0 1.5 
C 0.397805 1.5 0.77937 1.341951 1.06066 1.06066 
C 1.341951 0.77937 1.5 0.397805 1.5 0 
C 1.5 -0.397805 1.341951 -0.77937 1.06066 -1.06066 
C 0.77937 -1.341951 0.397805 -1.5 0 -1.5 
C -0.397805 -1.5 -0.77937 -1.341951 -1.06066 -1.06066 
C -1.341951 -0.77937 -1.5 -0.397805 -1.5 0 
C -1.5 0.397805 -1.341951 0.77937 -1.06066 1.06066 
C -0.77937 1.341951 -0.397805 1.5 0 1.5 
z
" id="m494bfaf03a" style="stroke:#262626;stroke-opacity:0.5;"/>
    </defs>
    <g clip-path="url(#p55adfc7bb2)">
     <use style="fill:#ffffff;fill-opacity:0.5;stroke:#262626;stroke-opacity:0.5;" x="102.812606" xlink:href="#m494bfaf03a" y="174.528"/>
    </g>
   </g>
   <g id="text_10">
    <!-- Association of inrpeakac vs. intubation -->
    <defs>
     <path d="M 34.1875 63.1875 
L 20.796875 26.90625 
L 47.609375 26.90625 
z
M 28.609375 72.90625 
L 39.796875 72.90625 
L 67.578125 0 
L 57.328125 0 
L 50.6875 18.703125 
L 17.828125 18.703125 
L 11.1875 0 
L 0.78125 0 
z
" id="DejaVuSans-65"/>
     <path d="M 44.28125 53.078125 
L 44.28125 44.578125 
Q 40.484375 46.53125 36.375 47.5 
Q 32.28125 48.484375 27.875 48.484375 
Q 21.1875 48.484375 17.84375 46.4375 
Q 14.5 44.390625 14.5 40.28125 
Q 14.5 37.15625 16.890625 35.375 
Q 19.28125 33.59375 26.515625 31.984375 
L 29.59375 31.296875 
Q 39.15625 29.25 43.1875 25.515625 
Q 47.21875 21.78125 47.21875 15.09375 
Q 47.21875 7.46875 41.1875 3.015625 
Q 35.15625 -1.421875 24.609375 -1.421875 
Q 20.21875 -1.421875 15.453125 -0.5625 
Q 10.6875 0.296875 5.421875 2 
L 5.421875 11.28125 
Q 10.40625 8.6875 15.234375 7.390625 
Q 20.0625 6.109375 24.8125 6.109375 
Q 31.15625 6.109375 34.5625 8.28125 
Q 37.984375 10.453125 37.984375 14.40625 
Q 37.984375 18.0625 35.515625 20.015625 
Q 33.0625 21.96875 24.703125 23.78125 
L 21.578125 24.515625 
Q 13.234375 26.265625 9.515625 29.90625 
Q 5.8125 33.546875 5.8125 39.890625 
Q 5.8125 47.609375 11.28125 51.796875 
Q 16.75 56 26.8125 56 
Q 31.78125 56 36.171875 55.265625 
Q 40.578125 54.546875 44.28125 53.078125 
z
" id="DejaVuSans-115"/>
     <path d="M 30.609375 48.390625 
Q 23.390625 48.390625 19.1875 42.75 
Q 14.984375 37.109375 14.984375 27.296875 
Q 14.984375 17.484375 19.15625 11.84375 
Q 23.34375 6.203125 30.609375 6.203125 
Q 37.796875 6.203125 41.984375 11.859375 
Q 46.1875 17.53125 46.1875 27.296875 
Q 46.1875 37.015625 41.984375 42.703125 
Q 37.796875 48.390625 30.609375 48.390625 
z
M 30.609375 56 
Q 42.328125 56 49.015625 48.375 
Q 55.71875 40.765625 55.71875 27.296875 
Q 55.71875 13.875 49.015625 6.21875 
Q 42.328125 -1.421875 30.609375 -1.421875 
Q 18.84375 -1.421875 12.171875 6.21875 
Q 5.515625 13.875 5.515625 27.296875 
Q 5.515625 40.765625 12.171875 48.375 
Q 18.84375 56 30.609375 56 
z
" id="DejaVuSans-111"/>
     <path d="M 18.3125 70.21875 
L 18.3125 54.6875 
L 36.8125 54.6875 
L 36.8125 47.703125 
L 18.3125 47.703125 
L 18.3125 18.015625 
Q 18.3125 11.328125 20.140625 9.421875 
Q 21.96875 7.515625 27.59375 7.515625 
L 36.8125 7.515625 
L 36.8125 0 
L 27.59375 0 
Q 17.1875 0 13.234375 3.875 
Q 9.28125 7.765625 9.28125 18.015625 
L 9.28125 47.703125 
L 2.6875 47.703125 
L 2.6875 54.6875 
L 9.28125 54.6875 
L 9.28125 70.21875 
z
" id="DejaVuSans-116"/>
     <path id="DejaVuSans-32"/>
     <path d="M 37.109375 75.984375 
L 37.109375 68.5 
L 28.515625 68.5 
Q 23.6875 68.5 21.796875 66.546875 
Q 19.921875 64.59375 19.921875 59.515625 
L 19.921875 54.6875 
L 34.71875 54.6875 
L 34.71875 47.703125 
L 19.921875 47.703125 
L 19.921875 0 
L 10.890625 0 
L 10.890625 47.703125 
L 2.296875 47.703125 
L 2.296875 54.6875 
L 10.890625 54.6875 
L 10.890625 58.5 
Q 10.890625 67.625 15.140625 71.796875 
Q 19.390625 75.984375 28.609375 75.984375 
z
" id="DejaVuSans-102"/>
     <path d="M 2.984375 54.6875 
L 12.5 54.6875 
L 29.59375 8.796875 
L 46.6875 54.6875 
L 56.203125 54.6875 
L 35.6875 0 
L 23.484375 0 
z
" id="DejaVuSans-118"/>
     <path d="M 8.5 21.578125 
L 8.5 54.6875 
L 17.484375 54.6875 
L 17.484375 21.921875 
Q 17.484375 14.15625 20.5 10.265625 
Q 23.53125 6.390625 29.59375 6.390625 
Q 36.859375 6.390625 41.078125 11.03125 
Q 45.3125 15.671875 45.3125 23.6875 
L 45.3125 54.6875 
L 54.296875 54.6875 
L 54.296875 0 
L 45.3125 0 
L 45.3125 8.40625 
Q 42.046875 3.421875 37.71875 1 
Q 33.40625 -1.421875 27.6875 -1.421875 
Q 18.265625 -1.421875 13.375 4.4375 
Q 8.5 10.296875 8.5 21.578125 
z
M 31.109375 56 
z
" id="DejaVuSans-117"/>
     <path d="M 48.6875 27.296875 
Q 48.6875 37.203125 44.609375 42.84375 
Q 40.53125 48.484375 33.40625 48.484375 
Q 26.265625 48.484375 22.1875 42.84375 
Q 18.109375 37.203125 18.109375 27.296875 
Q 18.109375 17.390625 22.1875 11.75 
Q 26.265625 6.109375 33.40625 6.109375 
Q 40.53125 6.109375 44.609375 11.75 
Q 48.6875 17.390625 48.6875 27.296875 
z
M 18.109375 46.390625 
Q 20.953125 51.265625 25.265625 53.625 
Q 29.59375 56 35.59375 56 
Q 45.5625 56 51.78125 48.09375 
Q 58.015625 40.1875 58.015625 27.296875 
Q 58.015625 14.40625 51.78125 6.484375 
Q 45.5625 -1.421875 35.59375 -1.421875 
Q 29.59375 -1.421875 25.265625 0.953125 
Q 20.953125 3.328125 18.109375 8.203125 
L 18.109375 0 
L 9.078125 0 
L 9.078125 75.984375 
L 18.109375 75.984375 
z
" id="DejaVuSans-98"/>
    </defs>
    <g transform="translate(119.940938 35.472)scale(0.12 -0.12)">
     <use xlink:href="#DejaVuSans-65"/>
     <use x="68.408203" xlink:href="#DejaVuSans-115"/>
     <use x="120.507812" xlink:href="#DejaVuSans-115"/>
     <use x="172.607422" xlink:href="#DejaVuSans-111"/>
     <use x="233.789062" xlink:href="#DejaVuSans-99"/>
     <use x="288.769531" xlink:href="#DejaVuSans-105"/>
     <use x="316.552734" xlink:href="#DejaVuSans-97"/>
     <use x="377.832031" xlink:href="#DejaVuSans-116"/>
     <use x="417.041016" xlink:href="#DejaVuSans-105"/>
     <use x="444.824219" xlink:href="#DejaVuSans-111"/>
     <use x="506.005859" xlink:href="#DejaVuSans-110"/>
     <use x="569.384766" xlink:href="#DejaVuSans-32"/>
     <use x="601.171875" xlink:href="#DejaVuSans-111"/>
     <use x="662.353516" xlink:href="#DejaVuSans-102"/>
     <use x="697.558594" xlink:href="#DejaVuSans-32"/>
     <use x="729.345703" xlink:href="#DejaVuSans-105"/>
     <use x="757.128906" xlink:href="#DejaVuSans-110"/>
     <use x="820.507812" xlink:href="#DejaVuSans-114"/>
     <use x="861.621094" xlink:href="#DejaVuSans-112"/>
     <use x="925.097656" xlink:href="#DejaVuSans-101"/>
     <use x="986.621094" xlink:href="#DejaVuSans-97"/>
     <use x="1047.900391" xlink:href="#DejaVuSans-107"/>
     <use x="1104.060547" xlink:href="#DejaVuSans-97"/>
     <use x="1165.339844" xlink:href="#DejaVuSans-99"/>
     <use x="1220.320312" xlink:href="#DejaVuSans-32"/>
     <use x="1252.107422" xlink:href="#DejaVuSans-118"/>
     <use x="1311.287109" xlink:href="#DejaVuSans-115"/>
     <use x="1363.386719" xlink:href="#DejaVuSans-46"/>
     <use x="1395.173828" xlink:href="#DejaVuSans-32"/>
     <use x="1426.960938" xlink:href="#DejaVuSans-105"/>
     <use x="1454.744141" xlink:href="#DejaVuSans-110"/>
     <use x="1518.123047" xlink:href="#DejaVuSans-116"/>
     <use x="1557.332031" xlink:href="#DejaVuSans-117"/>
     <use x="1620.710938" xlink:href="#DejaVuSans-98"/>
     <use x="1684.1875" xlink:href="#DejaVuSans-97"/>
     <use x="1745.466797" xlink:href="#DejaVuSans-116"/>
     <use x="1784.675781" xlink:href="#DejaVuSans-105"/>
     <use x="1812.458984" xlink:href="#DejaVuSans-111"/>
     <use x="1873.640625" xlink:href="#DejaVuSans-110"/>
    </g>
   </g>
   <g id="legend_1">
    <g id="patch_7">
     <path d="M 273.948125 78.82825 
L 407.72 78.82825 
Q 409.72 78.82825 409.72 76.82825 
L 409.72 48.472 
Q 409.72 46.472 407.72 46.472 
L 273.948125 46.472 
Q 271.948125 46.472 271.948125 48.472 
L 271.948125 76.82825 
Q 271.948125 78.82825 273.948125 78.82825 
z
" style="fill:#ffffff;opacity:0.8;stroke:#cccccc;stroke-linejoin:miter;"/>
    </g>
    <g id="line2d_14">
     <path d="M 275.948125 54.570437 
L 295.948125 54.570437 
" style="fill:none;stroke:#ffa500;stroke-linecap:square;stroke-width:1.5;"/>
    </g>
    <g id="line2d_15"/>
    <g id="text_11">
     <!-- intubation (88) -->
     <defs>
      <path d="M 31 75.875 
Q 24.46875 64.65625 21.28125 53.65625 
Q 18.109375 42.671875 18.109375 31.390625 
Q 18.109375 20.125 21.3125 9.0625 
Q 24.515625 -2 31 -13.1875 
L 23.1875 -13.1875 
Q 15.875 -1.703125 12.234375 9.375 
Q 8.59375 20.453125 8.59375 31.390625 
Q 8.59375 42.28125 12.203125 53.3125 
Q 15.828125 64.359375 23.1875 75.875 
z
" id="DejaVuSans-40"/>
      <path d="M 31.78125 34.625 
Q 24.75 34.625 20.71875 30.859375 
Q 16.703125 27.09375 16.703125 20.515625 
Q 16.703125 13.921875 20.71875 10.15625 
Q 24.75 6.390625 31.78125 6.390625 
Q 38.8125 6.390625 42.859375 10.171875 
Q 46.921875 13.96875 46.921875 20.515625 
Q 46.921875 27.09375 42.890625 30.859375 
Q 38.875 34.625 31.78125 34.625 
z
M 21.921875 38.8125 
Q 15.578125 40.375 12.03125 44.71875 
Q 8.5 49.078125 8.5 55.328125 
Q 8.5 64.0625 14.71875 69.140625 
Q 20.953125 74.21875 31.78125 74.21875 
Q 42.671875 74.21875 48.875 69.140625 
Q 55.078125 64.0625 55.078125 55.328125 
Q 55.078125 49.078125 51.53125 44.71875 
Q 48 40.375 41.703125 38.8125 
Q 48.828125 37.15625 52.796875 32.3125 
Q 56.78125 27.484375 56.78125 20.515625 
Q 56.78125 9.90625 50.3125 4.234375 
Q 43.84375 -1.421875 31.78125 -1.421875 
Q 19.734375 -1.421875 13.25 4.234375 
Q 6.78125 9.90625 6.78125 20.515625 
Q 6.78125 27.484375 10.78125 32.3125 
Q 14.796875 37.15625 21.921875 38.8125 
z
M 18.3125 54.390625 
Q 18.3125 48.734375 21.84375 45.5625 
Q 25.390625 42.390625 31.78125 42.390625 
Q 38.140625 42.390625 41.71875 45.5625 
Q 45.3125 48.734375 45.3125 54.390625 
Q 45.3125 60.0625 41.71875 63.234375 
Q 38.140625 66.40625 31.78125 66.40625 
Q 25.390625 66.40625 21.84375 63.234375 
Q 18.3125 60.0625 18.3125 54.390625 
z
" id="DejaVuSans-56"/>
      <path d="M 8.015625 75.875 
L 15.828125 75.875 
Q 23.140625 64.359375 26.78125 53.3125 
Q 30.421875 42.28125 30.421875 31.390625 
Q 30.421875 20.453125 26.78125 9.375 
Q 23.140625 -1.703125 15.828125 -13.1875 
L 8.015625 -13.1875 
Q 14.5 -2 17.703125 9.0625 
Q 20.90625 20.125 20.90625 31.390625 
Q 20.90625 42.671875 17.703125 53.65625 
Q 14.5 64.65625 8.015625 75.875 
z
" id="DejaVuSans-41"/>
     </defs>
     <g transform="translate(303.948125 58.070437)scale(0.1 -0.1)">
      <use xlink:href="#DejaVuSans-105"/>
      <use x="27.783203" xlink:href="#DejaVuSans-110"/>
      <use x="91.162109" xlink:href="#DejaVuSans-116"/>
      <use x="130.371094" xlink:href="#DejaVuSans-117"/>
      <use x="193.75" xlink:href="#DejaVuSans-98"/>
      <use x="257.226562" xlink:href="#DejaVuSans-97"/>
      <use x="318.505859" xlink:href="#DejaVuSans-116"/>
      <use x="357.714844" xlink:href="#DejaVuSans-105"/>
      <use x="385.498047" xlink:href="#DejaVuSans-111"/>
      <use x="446.679688" xlink:href="#DejaVuSans-110"/>
      <use x="510.058594" xlink:href="#DejaVuSans-32"/>
      <use x="541.845703" xlink:href="#DejaVuSans-40"/>
      <use x="580.859375" xlink:href="#DejaVuSans-56"/>
      <use x="644.482422" xlink:href="#DejaVuSans-56"/>
      <use x="708.105469" xlink:href="#DejaVuSans-41"/>
     </g>
    </g>
    <g id="line2d_16">
     <path d="M 275.948125 69.248562 
L 295.948125 69.248562 
" style="fill:none;stroke:#008000;stroke-linecap:square;stroke-width:1.5;"/>
    </g>
    <g id="line2d_17"/>
    <g id="text_12">
     <!-- Not intubation (206) -->
     <defs>
      <path d="M 9.8125 72.90625 
L 23.09375 72.90625 
L 55.421875 11.921875 
L 55.421875 72.90625 
L 64.984375 72.90625 
L 64.984375 0 
L 51.703125 0 
L 19.390625 60.984375 
L 19.390625 0 
L 9.8125 0 
z
" id="DejaVuSans-78"/>
      <path d="M 33.015625 40.375 
Q 26.375 40.375 22.484375 35.828125 
Q 18.609375 31.296875 18.609375 23.390625 
Q 18.609375 15.53125 22.484375 10.953125 
Q 26.375 6.390625 33.015625 6.390625 
Q 39.65625 6.390625 43.53125 10.953125 
Q 47.40625 15.53125 47.40625 23.390625 
Q 47.40625 31.296875 43.53125 35.828125 
Q 39.65625 40.375 33.015625 40.375 
z
M 52.59375 71.296875 
L 52.59375 62.3125 
Q 48.875 64.0625 45.09375 64.984375 
Q 41.3125 65.921875 37.59375 65.921875 
Q 27.828125 65.921875 22.671875 59.328125 
Q 17.53125 52.734375 16.796875 39.40625 
Q 19.671875 43.65625 24.015625 45.921875 
Q 28.375 48.1875 33.59375 48.1875 
Q 44.578125 48.1875 50.953125 41.515625 
Q 57.328125 34.859375 57.328125 23.390625 
Q 57.328125 12.15625 50.6875 5.359375 
Q 44.046875 -1.421875 33.015625 -1.421875 
Q 20.359375 -1.421875 13.671875 8.265625 
Q 6.984375 17.96875 6.984375 36.375 
Q 6.984375 53.65625 15.1875 63.9375 
Q 23.390625 74.21875 37.203125 74.21875 
Q 40.921875 74.21875 44.703125 73.484375 
Q 48.484375 72.75 52.59375 71.296875 
z
" id="DejaVuSans-54"/>
     </defs>
     <g transform="translate(303.948125 72.748562)scale(0.1 -0.1)">
      <use xlink:href="#DejaVuSans-78"/>
      <use x="74.804688" xlink:href="#DejaVuSans-111"/>
      <use x="135.986328" xlink:href="#DejaVuSans-116"/>
      <use x="175.195312" xlink:href="#DejaVuSans-32"/>
      <use x="206.982422" xlink:href="#DejaVuSans-105"/>
      <use x="234.765625" xlink:href="#DejaVuSans-110"/>
      <use x="298.144531" xlink:href="#DejaVuSans-116"/>
      <use x="337.353516" xlink:href="#DejaVuSans-117"/>
      <use x="400.732422" xlink:href="#DejaVuSans-98"/>
      <use x="464.208984" xlink:href="#DejaVuSans-97"/>
      <use x="525.488281" xlink:href="#DejaVuSans-116"/>
      <use x="564.697266" xlink:href="#DejaVuSans-105"/>
      <use x="592.480469" xlink:href="#DejaVuSans-111"/>
      <use x="653.662109" xlink:href="#DejaVuSans-110"/>
      <use x="717.041016" xlink:href="#DejaVuSans-32"/>
      <use x="748.828125" xlink:href="#DejaVuSans-40"/>
      <use x="787.841797" xlink:href="#DejaVuSans-50"/>
      <use x="851.464844" xlink:href="#DejaVuSans-48"/>
      <use x="915.087891" xlink:href="#DejaVuSans-54"/>
      <use x="978.710938" xlink:href="#DejaVuSans-41"/>
     </g>
    </g>
   </g>
  </g>
 </g>
 <defs>
  <clipPath id="p55adfc7bb2">
   <rect height="266.112" width="357.12" x="57.6" y="41.472"/>
  </clipPath>
 </defs>
</svg>
