<?xml version="1.0" encoding="utf-8" standalone="no"?>
<!DOCTYPE svg PUBLIC "-//W3C//DTD SVG 1.1//EN"
  "http://www.w3.org/Graphics/SVG/1.1/DTD/svg11.dtd">
<!-- Created with matplotlib (https://matplotlib.org/) -->
<svg height="345.6pt" version="1.1" viewBox="0 0 460.8 345.6" width="460.8pt" xmlns="http://www.w3.org/2000/svg" xmlns:xlink="http://www.w3.org/1999/xlink">
 <defs>
  <style type="text/css">
*{stroke-linecap:butt;stroke-linejoin:round;}
  </style>
 </defs>
 <g id="figure_1">
  <g id="patch_1">
   <path d="M 0 345.6 
L 460.8 345.6 
L 460.8 0 
L 0 0 
z
" style="fill:#ffffff;"/>
  </g>
  <g id="axes_1">
   <g id="patch_2">
    <path d="M 57.6 307.584 
L 414.72 307.584 
L 414.72 41.472 
L 57.6 41.472 
z
" style="fill:#ffffff;"/>
   </g>
   <g id="PolyCollection_1">
    <defs>
     <path d="M 73.832727 -162.390928 
L 73.832727 -179.753072 
L 76.499677 -180.97003 
L 79.166626 -182.311675 
L 81.833576 -183.783508 
L 84.500525 -185.390194 
L 87.167475 -187.135402 
L 89.834424 -189.021661 
L 92.501374 -191.050213 
L 95.168323 -193.220892 
L 97.835273 -195.53202 
L 100.502222 -197.980328 
L 103.169172 -200.560909 
L 105.836121 -203.267207 
L 108.503071 -206.09103 
L 111.17002 -209.022619 
L 113.83697 -212.050743 
L 116.503919 -215.162833 
L 119.170869 -218.34516 
L 121.837818 -221.583037 
L 124.504768 -224.861054 
L 127.171717 -228.163332 
L 129.838667 -231.473799 
L 132.505616 -234.776459 
L 135.172566 -238.05568 
L 137.839515 -241.296453 
L 140.506465 -244.48465 
L 143.173414 -247.607242 
L 145.840364 -250.652491 
L 148.507313 -253.610103 
L 151.174263 -256.471332 
L 153.841212 -259.229041 
L 156.508162 -261.877706 
L 159.175111 -264.413378 
L 161.842061 -266.833594 
L 164.50901 -269.137242 
L 167.17596 -271.324387 
L 169.842909 -273.396069 
L 172.509859 -275.354071 
L 175.176808 -277.200669 
L 177.843758 -278.93838 
L 180.510707 -280.569708 
L 183.177657 -282.096898 
L 185.844606 -283.521708 
L 188.511556 -284.845211 
L 191.178505 -286.067623 
L 193.845455 -287.188171 
L 196.512404 -288.204997 
L 199.179354 -289.115114 
L 201.846303 -289.914393 
L 204.513253 -290.597603 
L 207.180202 -291.15849 
L 209.847152 -291.589892 
L 212.514101 -291.883891 
L 215.181051 -292.032 
L 217.848 -292.025365 
L 220.51495 -291.854996 
L 223.181899 -291.512012 
L 225.848849 -290.987886 
L 228.515798 -290.274697 
L 231.182748 -289.365382 
L 233.849697 -288.25397 
L 236.516647 -286.935803 
L 239.183596 -285.407744 
L 241.850546 -283.668345 
L 244.517495 -281.718001 
L 247.184445 -279.55906 
L 249.851394 -277.195901 
L 252.518344 -274.634976 
L 255.185293 -271.884804 
L 257.852243 -268.955937 
L 260.519192 -265.86087 
L 263.186142 -262.613927 
L 265.853091 -259.231097 
L 268.520041 -255.729844 
L 271.18699 -252.128884 
L 273.85394 -248.447936 
L 276.520889 -244.70745 
L 279.187839 -240.928326 
L 281.854788 -237.131622 
L 284.521738 -233.33826 
L 287.188687 -229.568736 
L 289.855637 -225.842848 
L 292.522586 -222.179433 
L 295.189536 -218.596132 
L 297.856485 -215.109187 
L 300.523435 -211.733258 
L 303.190384 -208.481291 
L 305.857334 -205.364409 
L 308.524283 -202.391847 
L 311.191233 -199.570928 
L 313.858182 -196.907066 
L 316.525132 -194.403814 
L 319.192081 -192.062934 
L 321.859031 -189.884501 
L 324.52598 -187.867026 
L 327.19293 -186.007604 
L 329.859879 -184.302066 
L 332.526829 -182.745153 
L 335.193778 -181.330684 
L 337.860728 -180.051732 
L 337.860728 -162.092268 
L 337.860728 -162.092268 
L 335.193778 -160.813316 
L 332.526829 -159.398847 
L 329.859879 -157.841934 
L 327.19293 -156.136396 
L 324.52598 -154.276974 
L 321.859031 -152.259499 
L 319.192081 -150.081066 
L 316.525132 -147.740186 
L 313.858182 -145.236934 
L 311.191233 -142.573072 
L 308.524283 -139.752153 
L 305.857334 -136.779591 
L 303.190384 -133.662709 
L 300.523435 -130.410742 
L 297.856485 -127.034813 
L 295.189536 -123.547868 
L 292.522586 -119.964567 
L 289.855637 -116.301152 
L 287.188687 -112.575264 
L 284.521738 -108.80574 
L 281.854788 -105.012378 
L 279.187839 -101.215674 
L 276.520889 -97.43655 
L 273.85394 -93.696064 
L 271.18699 -90.015116 
L 268.520041 -86.414156 
L 265.853091 -82.912903 
L 263.186142 -79.530073 
L 260.519192 -76.28313 
L 257.852243 -73.188063 
L 255.185293 -70.259196 
L 252.518344 -67.509024 
L 249.851394 -64.948099 
L 247.184445 -62.58494 
L 244.517495 -60.425999 
L 241.850546 -58.475655 
L 239.183596 -56.736256 
L 236.516647 -55.208197 
L 233.849697 -53.89003 
L 231.182748 -52.778618 
L 228.515798 -51.869303 
L 225.848849 -51.156114 
L 223.181899 -50.631988 
L 220.51495 -50.289004 
L 217.848 -50.118635 
L 215.181051 -50.112 
L 212.514101 -50.260109 
L 209.847152 -50.554108 
L 207.180202 -50.98551 
L 204.513253 -51.546397 
L 201.846303 -52.229607 
L 199.179354 -53.028886 
L 196.512404 -53.939003 
L 193.845455 -54.955829 
L 191.178505 -56.076377 
L 188.511556 -57.298789 
L 185.844606 -58.622292 
L 183.177657 -60.047102 
L 180.510707 -61.574292 
L 177.843758 -63.20562 
L 175.176808 -64.943331 
L 172.509859 -66.789929 
L 169.842909 -68.747931 
L 167.17596 -70.819613 
L 164.50901 -73.006758 
L 161.842061 -75.310406 
L 159.175111 -77.730622 
L 156.508162 -80.266294 
L 153.841212 -82.914959 
L 151.174263 -85.672668 
L 148.507313 -88.533897 
L 145.840364 -91.491509 
L 143.173414 -94.536758 
L 140.506465 -97.65935 
L 137.839515 -100.847547 
L 135.172566 -104.08832 
L 132.505616 -107.367541 
L 129.838667 -110.670201 
L 127.171717 -113.980668 
L 124.504768 -117.282946 
L 121.837818 -120.560963 
L 119.170869 -123.79884 
L 116.503919 -126.981167 
L 113.83697 -130.093257 
L 111.17002 -133.121381 
L 108.503071 -136.05297 
L 105.836121 -138.876793 
L 103.169172 -141.583091 
L 100.502222 -144.163672 
L 97.835273 -146.61198 
L 95.168323 -148.923108 
L 92.501374 -151.093787 
L 89.834424 -153.122339 
L 87.167475 -155.008598 
L 84.500525 -156.753806 
L 81.833576 -158.360492 
L 79.166626 -159.832325 
L 76.499677 -161.17397 
L 73.832727 -162.390928 
z
" id="mfd3138d5d0" style="stroke:#4c4c4c;stroke-opacity:0.5;stroke-width:1.5;"/>
    </defs>
    <g clip-path="url(#p17ebc4767c)">
     <use style="fill:#df9c20;fill-opacity:0.5;stroke:#4c4c4c;stroke-opacity:0.5;stroke-width:1.5;" x="0" xlink:href="#mfd3138d5d0" y="345.6"/>
    </g>
   </g>
   <g id="PolyCollection_2">
    <defs>
     <path d="M 136.904039 -161.544773 
L 136.904039 -180.599227 
L 139.546293 -187.396689 
L 142.188548 -196.857811 
L 144.830803 -208.648044 
L 147.473058 -221.648253 
L 150.115313 -234.062483 
L 152.757568 -243.871387 
L 155.399823 -249.496695 
L 158.042078 -250.382381 
L 160.684333 -247.197361 
L 163.326587 -241.54799 
L 165.968842 -235.346169 
L 168.611097 -230.145504 
L 171.253352 -226.739069 
L 173.895607 -225.143074 
L 176.537862 -224.890194 
L 179.180117 -225.435085 
L 181.822372 -226.474124 
L 184.464627 -228.071228 
L 187.106881 -230.594353 
L 189.749136 -234.54056 
L 192.391391 -240.335812 
L 195.033646 -248.157021 
L 197.675901 -257.782686 
L 200.318156 -268.474413 
L 202.960411 -278.931228 
L 205.602666 -287.402868 
L 208.244921 -292.032 
L 210.887175 -291.384928 
L 213.52943 -284.978133 
L 216.171685 -273.536234 
L 218.81394 -258.815021 
L 221.456195 -243.049634 
L 224.09845 -228.287566 
L 226.740705 -215.900628 
L 229.38296 -206.43295 
L 232.025215 -199.749512 
L 234.667469 -195.329275 
L 237.309724 -192.544007 
L 239.951979 -190.836844 
L 242.594234 -189.793677 
L 245.236489 -189.143164 
L 247.878744 -188.724716 
L 250.520999 -188.448573 
L 253.163254 -188.257723 
L 255.805509 -188.095643 
L 258.447764 -187.884419 
L 261.090018 -187.519263 
L 263.732273 -186.883875 
L 266.374528 -185.884417 
L 269.016783 -184.48956 
L 271.659038 -182.756346 
L 274.301293 -180.824665 
L 276.943548 -178.878632 
L 279.585803 -177.091718 
L 282.228058 -175.581062 
L 284.870312 -174.389116 
L 287.512567 -173.494331 
L 290.154822 -172.838848 
L 292.797077 -172.357341 
L 295.439332 -171.996164 
L 298.081587 -171.719933 
L 300.723842 -171.508778 
L 303.366097 -171.351692 
L 306.008352 -171.240548 
L 308.650606 -171.166938 
L 311.292861 -171.121747 
L 313.935116 -171.096169 
L 316.577371 -171.082862 
L 319.219626 -171.076509 
L 321.861881 -171.073727 
L 324.504136 -171.07261 
L 327.146391 -171.072198 
L 329.788646 -171.07206 
L 332.4309 -171.072017 
L 335.073155 -171.072008 
L 337.71541 -171.072016 
L 340.357665 -171.072054 
L 342.99992 -171.072181 
L 345.642175 -171.072559 
L 348.28443 -171.073587 
L 350.926685 -171.076143 
L 353.56894 -171.081956 
L 356.211194 -171.09402 
L 358.853449 -171.116821 
L 361.495704 -171.155961 
L 364.137959 -171.216749 
L 366.780214 -171.301664 
L 369.422469 -171.407358 
L 372.064724 -171.522675 
L 374.706979 -171.629386 
L 377.349234 -171.706435 
L 379.991488 -171.736596 
L 382.633743 -171.712717 
L 385.275998 -171.640478 
L 387.918253 -171.536195 
L 390.560508 -171.420839 
L 393.202763 -171.313262 
L 395.845018 -171.225565 
L 398.487273 -171.161956 
L 398.487273 -170.982044 
L 398.487273 -170.982044 
L 395.845018 -170.918435 
L 393.202763 -170.830738 
L 390.560508 -170.723161 
L 387.918253 -170.607805 
L 385.275998 -170.503522 
L 382.633743 -170.431283 
L 379.991488 -170.407404 
L 377.349234 -170.437565 
L 374.706979 -170.514614 
L 372.064724 -170.621325 
L 369.422469 -170.736642 
L 366.780214 -170.842336 
L 364.137959 -170.927251 
L 361.495704 -170.988039 
L 358.853449 -171.027179 
L 356.211194 -171.04998 
L 353.56894 -171.062044 
L 350.926685 -171.067857 
L 348.28443 -171.070413 
L 345.642175 -171.071441 
L 342.99992 -171.071819 
L 340.357665 -171.071946 
L 337.71541 -171.071984 
L 335.073155 -171.071992 
L 332.4309 -171.071983 
L 329.788646 -171.07194 
L 327.146391 -171.071802 
L 324.504136 -171.07139 
L 321.861881 -171.070273 
L 319.219626 -171.067491 
L 316.577371 -171.061138 
L 313.935116 -171.047831 
L 311.292861 -171.022253 
L 308.650606 -170.977062 
L 306.008352 -170.903452 
L 303.366097 -170.792308 
L 300.723842 -170.635222 
L 298.081587 -170.424067 
L 295.439332 -170.147836 
L 292.797077 -169.786659 
L 290.154822 -169.305152 
L 287.512567 -168.649669 
L 284.870312 -167.754884 
L 282.228058 -166.562938 
L 279.585803 -165.052282 
L 276.943548 -163.265368 
L 274.301293 -161.319335 
L 271.659038 -159.387654 
L 269.016783 -157.65444 
L 266.374528 -156.259583 
L 263.732273 -155.260125 
L 261.090018 -154.624737 
L 258.447764 -154.259581 
L 255.805509 -154.048357 
L 253.163254 -153.886277 
L 250.520999 -153.695427 
L 247.878744 -153.419284 
L 245.236489 -153.000836 
L 242.594234 -152.350323 
L 239.951979 -151.307156 
L 237.309724 -149.599993 
L 234.667469 -146.814725 
L 232.025215 -142.394488 
L 229.38296 -135.71105 
L 226.740705 -126.243372 
L 224.09845 -113.856434 
L 221.456195 -99.094366 
L 218.81394 -83.328979 
L 216.171685 -68.607766 
L 213.52943 -57.165867 
L 210.887175 -50.759072 
L 208.244921 -50.112 
L 205.602666 -54.741132 
L 202.960411 -63.212772 
L 200.318156 -73.669587 
L 197.675901 -84.361314 
L 195.033646 -93.986979 
L 192.391391 -101.808188 
L 189.749136 -107.60344 
L 187.106881 -111.549647 
L 184.464627 -114.072772 
L 181.822372 -115.669876 
L 179.180117 -116.708915 
L 176.537862 -117.253806 
L 173.895607 -117.000926 
L 171.253352 -115.404931 
L 168.611097 -111.998496 
L 165.968842 -106.797831 
L 163.326587 -100.59601 
L 160.684333 -94.946639 
L 158.042078 -91.761619 
L 155.399823 -92.647305 
L 152.757568 -98.272613 
L 150.115313 -108.081517 
L 147.473058 -120.495747 
L 144.830803 -133.495956 
L 142.188548 -145.286189 
L 139.546293 -154.747311 
L 136.904039 -161.544773 
z
" id="m2c76d2c8f3" style="stroke:#262626;stroke-opacity:0.5;stroke-width:1.5;"/>
    </defs>
    <g clip-path="url(#p17ebc4767c)">
     <use style="fill:#107010;fill-opacity:0.5;stroke:#262626;stroke-opacity:0.5;stroke-width:1.5;" x="0" xlink:href="#m2c76d2c8f3" y="345.6"/>
    </g>
   </g>
   <g id="matplotlib.axis_1">
    <g id="xtick_1">
     <g id="line2d_1">
      <defs>
       <path d="M 0 0 
L 0 3.5 
" id="m2262e9e735" style="stroke:#000000;stroke-width:0.8;"/>
      </defs>
      <g>
       <use style="stroke:#000000;stroke-width:0.8;" x="99.01676" xlink:href="#m2262e9e735" y="307.584"/>
      </g>
     </g>
     <g id="text_1">
      <!-- −5 -->
      <defs>
       <path d="M 10.59375 35.5 
L 73.1875 35.5 
L 73.1875 27.203125 
L 10.59375 27.203125 
z
" id="DejaVuSans-8722"/>
       <path d="M 10.796875 72.90625 
L 49.515625 72.90625 
L 49.515625 64.59375 
L 19.828125 64.59375 
L 19.828125 46.734375 
Q 21.96875 47.46875 24.109375 47.828125 
Q 26.265625 48.1875 28.421875 48.1875 
Q 40.625 48.1875 47.75 41.5 
Q 54.890625 34.8125 54.890625 23.390625 
Q 54.890625 11.625 47.5625 5.09375 
Q 40.234375 -1.421875 26.90625 -1.421875 
Q 22.3125 -1.421875 17.546875 -0.640625 
Q 12.796875 0.140625 7.71875 1.703125 
L 7.71875 11.625 
Q 12.109375 9.234375 16.796875 8.0625 
Q 21.484375 6.890625 26.703125 6.890625 
Q 35.15625 6.890625 40.078125 11.328125 
Q 45.015625 15.765625 45.015625 23.390625 
Q 45.015625 31 40.078125 35.4375 
Q 35.15625 39.890625 26.703125 39.890625 
Q 22.75 39.890625 18.8125 39.015625 
Q 14.890625 38.140625 10.796875 36.28125 
z
" id="DejaVuSans-53"/>
      </defs>
      <g transform="translate(91.645667 322.182437)scale(0.1 -0.1)">
       <use xlink:href="#DejaVuSans-8722"/>
       <use x="83.789062" xlink:href="#DejaVuSans-53"/>
      </g>
     </g>
    </g>
    <g id="xtick_2">
     <g id="line2d_2">
      <g>
       <use style="stroke:#000000;stroke-width:0.8;" x="155.243059" xlink:href="#m2262e9e735" y="307.584"/>
      </g>
     </g>
     <g id="text_2">
      <!-- 0 -->
      <defs>
       <path d="M 31.78125 66.40625 
Q 24.171875 66.40625 20.328125 58.90625 
Q 16.5 51.421875 16.5 36.375 
Q 16.5 21.390625 20.328125 13.890625 
Q 24.171875 6.390625 31.78125 6.390625 
Q 39.453125 6.390625 43.28125 13.890625 
Q 47.125 21.390625 47.125 36.375 
Q 47.125 51.421875 43.28125 58.90625 
Q 39.453125 66.40625 31.78125 66.40625 
z
M 31.78125 74.21875 
Q 44.046875 74.21875 50.515625 64.515625 
Q 56.984375 54.828125 56.984375 36.375 
Q 56.984375 17.96875 50.515625 8.265625 
Q 44.046875 -1.421875 31.78125 -1.421875 
Q 19.53125 -1.421875 13.0625 8.265625 
Q 6.59375 17.96875 6.59375 36.375 
Q 6.59375 54.828125 13.0625 64.515625 
Q 19.53125 74.21875 31.78125 74.21875 
z
" id="DejaVuSans-48"/>
      </defs>
      <g transform="translate(152.061809 322.182437)scale(0.1 -0.1)">
       <use xlink:href="#DejaVuSans-48"/>
      </g>
     </g>
    </g>
    <g id="xtick_3">
     <g id="line2d_3">
      <g>
       <use style="stroke:#000000;stroke-width:0.8;" x="211.469357" xlink:href="#m2262e9e735" y="307.584"/>
      </g>
     </g>
     <g id="text_3">
      <!-- 5 -->
      <g transform="translate(208.288107 322.182437)scale(0.1 -0.1)">
       <use xlink:href="#DejaVuSans-53"/>
      </g>
     </g>
    </g>
    <g id="xtick_4">
     <g id="line2d_4">
      <g>
       <use style="stroke:#000000;stroke-width:0.8;" x="267.695656" xlink:href="#m2262e9e735" y="307.584"/>
      </g>
     </g>
     <g id="text_4">
      <!-- 10 -->
      <defs>
       <path d="M 12.40625 8.296875 
L 28.515625 8.296875 
L 28.515625 63.921875 
L 10.984375 60.40625 
L 10.984375 69.390625 
L 28.421875 72.90625 
L 38.28125 72.90625 
L 38.28125 8.296875 
L 54.390625 8.296875 
L 54.390625 0 
L 12.40625 0 
z
" id="DejaVuSans-49"/>
      </defs>
      <g transform="translate(261.333156 322.182437)scale(0.1 -0.1)">
       <use xlink:href="#DejaVuSans-49"/>
       <use x="63.623047" xlink:href="#DejaVuSans-48"/>
      </g>
     </g>
    </g>
    <g id="xtick_5">
     <g id="line2d_5">
      <g>
       <use style="stroke:#000000;stroke-width:0.8;" x="323.921954" xlink:href="#m2262e9e735" y="307.584"/>
      </g>
     </g>
     <g id="text_5">
      <!-- 15 -->
      <g transform="translate(317.559454 322.182437)scale(0.1 -0.1)">
       <use xlink:href="#DejaVuSans-49"/>
       <use x="63.623047" xlink:href="#DejaVuSans-53"/>
      </g>
     </g>
    </g>
    <g id="xtick_6">
     <g id="line2d_6">
      <g>
       <use style="stroke:#000000;stroke-width:0.8;" x="380.148252" xlink:href="#m2262e9e735" y="307.584"/>
      </g>
     </g>
     <g id="text_6">
      <!-- 20 -->
      <defs>
       <path d="M 19.1875 8.296875 
L 53.609375 8.296875 
L 53.609375 0 
L 7.328125 0 
L 7.328125 8.296875 
Q 12.9375 14.109375 22.625 23.890625 
Q 32.328125 33.6875 34.8125 36.53125 
Q 39.546875 41.84375 41.421875 45.53125 
Q 43.3125 49.21875 43.3125 52.78125 
Q 43.3125 58.59375 39.234375 62.25 
Q 35.15625 65.921875 28.609375 65.921875 
Q 23.96875 65.921875 18.8125 64.3125 
Q 13.671875 62.703125 7.8125 59.421875 
L 7.8125 69.390625 
Q 13.765625 71.78125 18.9375 73 
Q 24.125 74.21875 28.421875 74.21875 
Q 39.75 74.21875 46.484375 68.546875 
Q 53.21875 62.890625 53.21875 53.421875 
Q 53.21875 48.921875 51.53125 44.890625 
Q 49.859375 40.875 45.40625 35.40625 
Q 44.1875 33.984375 37.640625 27.21875 
Q 31.109375 20.453125 19.1875 8.296875 
z
" id="DejaVuSans-50"/>
      </defs>
      <g transform="translate(373.785752 322.182437)scale(0.1 -0.1)">
       <use xlink:href="#DejaVuSans-50"/>
       <use x="63.623047" xlink:href="#DejaVuSans-48"/>
      </g>
     </g>
    </g>
    <g id="text_7">
     <!-- hydroxychloroquine_days -->
     <defs>
      <path d="M 54.890625 33.015625 
L 54.890625 0 
L 45.90625 0 
L 45.90625 32.71875 
Q 45.90625 40.484375 42.875 44.328125 
Q 39.84375 48.1875 33.796875 48.1875 
Q 26.515625 48.1875 22.3125 43.546875 
Q 18.109375 38.921875 18.109375 30.90625 
L 18.109375 0 
L 9.078125 0 
L 9.078125 75.984375 
L 18.109375 75.984375 
L 18.109375 46.1875 
Q 21.34375 51.125 25.703125 53.5625 
Q 30.078125 56 35.796875 56 
Q 45.21875 56 50.046875 50.171875 
Q 54.890625 44.34375 54.890625 33.015625 
z
" id="DejaVuSans-104"/>
      <path d="M 32.171875 -5.078125 
Q 28.375 -14.84375 24.75 -17.8125 
Q 21.140625 -20.796875 15.09375 -20.796875 
L 7.90625 -20.796875 
L 7.90625 -13.28125 
L 13.1875 -13.28125 
Q 16.890625 -13.28125 18.9375 -11.515625 
Q 21 -9.765625 23.484375 -3.21875 
L 25.09375 0.875 
L 2.984375 54.6875 
L 12.5 54.6875 
L 29.59375 11.921875 
L 46.6875 54.6875 
L 56.203125 54.6875 
z
" id="DejaVuSans-121"/>
      <path d="M 45.40625 46.390625 
L 45.40625 75.984375 
L 54.390625 75.984375 
L 54.390625 0 
L 45.40625 0 
L 45.40625 8.203125 
Q 42.578125 3.328125 38.25 0.953125 
Q 33.9375 -1.421875 27.875 -1.421875 
Q 17.96875 -1.421875 11.734375 6.484375 
Q 5.515625 14.40625 5.515625 27.296875 
Q 5.515625 40.1875 11.734375 48.09375 
Q 17.96875 56 27.875 56 
Q 33.9375 56 38.25 53.625 
Q 42.578125 51.265625 45.40625 46.390625 
z
M 14.796875 27.296875 
Q 14.796875 17.390625 18.875 11.75 
Q 22.953125 6.109375 30.078125 6.109375 
Q 37.203125 6.109375 41.296875 11.75 
Q 45.40625 17.390625 45.40625 27.296875 
Q 45.40625 37.203125 41.296875 42.84375 
Q 37.203125 48.484375 30.078125 48.484375 
Q 22.953125 48.484375 18.875 42.84375 
Q 14.796875 37.203125 14.796875 27.296875 
z
" id="DejaVuSans-100"/>
      <path d="M 41.109375 46.296875 
Q 39.59375 47.171875 37.8125 47.578125 
Q 36.03125 48 33.890625 48 
Q 26.265625 48 22.1875 43.046875 
Q 18.109375 38.09375 18.109375 28.8125 
L 18.109375 0 
L 9.078125 0 
L 9.078125 54.6875 
L 18.109375 54.6875 
L 18.109375 46.1875 
Q 20.953125 51.171875 25.484375 53.578125 
Q 30.03125 56 36.53125 56 
Q 37.453125 56 38.578125 55.875 
Q 39.703125 55.765625 41.0625 55.515625 
z
" id="DejaVuSans-114"/>
      <path d="M 30.609375 48.390625 
Q 23.390625 48.390625 19.1875 42.75 
Q 14.984375 37.109375 14.984375 27.296875 
Q 14.984375 17.484375 19.15625 11.84375 
Q 23.34375 6.203125 30.609375 6.203125 
Q 37.796875 6.203125 41.984375 11.859375 
Q 46.1875 17.53125 46.1875 27.296875 
Q 46.1875 37.015625 41.984375 42.703125 
Q 37.796875 48.390625 30.609375 48.390625 
z
M 30.609375 56 
Q 42.328125 56 49.015625 48.375 
Q 55.71875 40.765625 55.71875 27.296875 
Q 55.71875 13.875 49.015625 6.21875 
Q 42.328125 -1.421875 30.609375 -1.421875 
Q 18.84375 -1.421875 12.171875 6.21875 
Q 5.515625 13.875 5.515625 27.296875 
Q 5.515625 40.765625 12.171875 48.375 
Q 18.84375 56 30.609375 56 
z
" id="DejaVuSans-111"/>
      <path d="M 54.890625 54.6875 
L 35.109375 28.078125 
L 55.90625 0 
L 45.3125 0 
L 29.390625 21.484375 
L 13.484375 0 
L 2.875 0 
L 24.125 28.609375 
L 4.6875 54.6875 
L 15.28125 54.6875 
L 29.78125 35.203125 
L 44.28125 54.6875 
z
" id="DejaVuSans-120"/>
      <path d="M 48.78125 52.59375 
L 48.78125 44.1875 
Q 44.96875 46.296875 41.140625 47.34375 
Q 37.3125 48.390625 33.40625 48.390625 
Q 24.65625 48.390625 19.8125 42.84375 
Q 14.984375 37.3125 14.984375 27.296875 
Q 14.984375 17.28125 19.8125 11.734375 
Q 24.65625 6.203125 33.40625 6.203125 
Q 37.3125 6.203125 41.140625 7.25 
Q 44.96875 8.296875 48.78125 10.40625 
L 48.78125 2.09375 
Q 45.015625 0.34375 40.984375 -0.53125 
Q 36.96875 -1.421875 32.421875 -1.421875 
Q 20.0625 -1.421875 12.78125 6.34375 
Q 5.515625 14.109375 5.515625 27.296875 
Q 5.515625 40.671875 12.859375 48.328125 
Q 20.21875 56 33.015625 56 
Q 37.15625 56 41.109375 55.140625 
Q 45.0625 54.296875 48.78125 52.59375 
z
" id="DejaVuSans-99"/>
      <path d="M 9.421875 75.984375 
L 18.40625 75.984375 
L 18.40625 0 
L 9.421875 0 
z
" id="DejaVuSans-108"/>
      <path d="M 14.796875 27.296875 
Q 14.796875 17.390625 18.875 11.75 
Q 22.953125 6.109375 30.078125 6.109375 
Q 37.203125 6.109375 41.296875 11.75 
Q 45.40625 17.390625 45.40625 27.296875 
Q 45.40625 37.203125 41.296875 42.84375 
Q 37.203125 48.484375 30.078125 48.484375 
Q 22.953125 48.484375 18.875 42.84375 
Q 14.796875 37.203125 14.796875 27.296875 
z
M 45.40625 8.203125 
Q 42.578125 3.328125 38.25 0.953125 
Q 33.9375 -1.421875 27.875 -1.421875 
Q 17.96875 -1.421875 11.734375 6.484375 
Q 5.515625 14.40625 5.515625 27.296875 
Q 5.515625 40.1875 11.734375 48.09375 
Q 17.96875 56 27.875 56 
Q 33.9375 56 38.25 53.625 
Q 42.578125 51.265625 45.40625 46.390625 
L 45.40625 54.6875 
L 54.390625 54.6875 
L 54.390625 -20.796875 
L 45.40625 -20.796875 
z
" id="DejaVuSans-113"/>
      <path d="M 8.5 21.578125 
L 8.5 54.6875 
L 17.484375 54.6875 
L 17.484375 21.921875 
Q 17.484375 14.15625 20.5 10.265625 
Q 23.53125 6.390625 29.59375 6.390625 
Q 36.859375 6.390625 41.078125 11.03125 
Q 45.3125 15.671875 45.3125 23.6875 
L 45.3125 54.6875 
L 54.296875 54.6875 
L 54.296875 0 
L 45.3125 0 
L 45.3125 8.40625 
Q 42.046875 3.421875 37.71875 1 
Q 33.40625 -1.421875 27.6875 -1.421875 
Q 18.265625 -1.421875 13.375 4.4375 
Q 8.5 10.296875 8.5 21.578125 
z
M 31.109375 56 
z
" id="DejaVuSans-117"/>
      <path d="M 9.421875 54.6875 
L 18.40625 54.6875 
L 18.40625 0 
L 9.421875 0 
z
M 9.421875 75.984375 
L 18.40625 75.984375 
L 18.40625 64.59375 
L 9.421875 64.59375 
z
" id="DejaVuSans-105"/>
      <path d="M 54.890625 33.015625 
L 54.890625 0 
L 45.90625 0 
L 45.90625 32.71875 
Q 45.90625 40.484375 42.875 44.328125 
Q 39.84375 48.1875 33.796875 48.1875 
Q 26.515625 48.1875 22.3125 43.546875 
Q 18.109375 38.921875 18.109375 30.90625 
L 18.109375 0 
L 9.078125 0 
L 9.078125 54.6875 
L 18.109375 54.6875 
L 18.109375 46.1875 
Q 21.34375 51.125 25.703125 53.5625 
Q 30.078125 56 35.796875 56 
Q 45.21875 56 50.046875 50.171875 
Q 54.890625 44.34375 54.890625 33.015625 
z
" id="DejaVuSans-110"/>
      <path d="M 56.203125 29.59375 
L 56.203125 25.203125 
L 14.890625 25.203125 
Q 15.484375 15.921875 20.484375 11.0625 
Q 25.484375 6.203125 34.421875 6.203125 
Q 39.59375 6.203125 44.453125 7.46875 
Q 49.3125 8.734375 54.109375 11.28125 
L 54.109375 2.78125 
Q 49.265625 0.734375 44.1875 -0.34375 
Q 39.109375 -1.421875 33.890625 -1.421875 
Q 20.796875 -1.421875 13.15625 6.1875 
Q 5.515625 13.8125 5.515625 26.8125 
Q 5.515625 40.234375 12.765625 48.109375 
Q 20.015625 56 32.328125 56 
Q 43.359375 56 49.78125 48.890625 
Q 56.203125 41.796875 56.203125 29.59375 
z
M 47.21875 32.234375 
Q 47.125 39.59375 43.09375 43.984375 
Q 39.0625 48.390625 32.421875 48.390625 
Q 24.90625 48.390625 20.390625 44.140625 
Q 15.875 39.890625 15.1875 32.171875 
z
" id="DejaVuSans-101"/>
      <path d="M 50.984375 -16.609375 
L 50.984375 -23.578125 
L -0.984375 -23.578125 
L -0.984375 -16.609375 
z
" id="DejaVuSans-95"/>
      <path d="M 34.28125 27.484375 
Q 23.390625 27.484375 19.1875 25 
Q 14.984375 22.515625 14.984375 16.5 
Q 14.984375 11.71875 18.140625 8.90625 
Q 21.296875 6.109375 26.703125 6.109375 
Q 34.1875 6.109375 38.703125 11.40625 
Q 43.21875 16.703125 43.21875 25.484375 
L 43.21875 27.484375 
z
M 52.203125 31.203125 
L 52.203125 0 
L 43.21875 0 
L 43.21875 8.296875 
Q 40.140625 3.328125 35.546875 0.953125 
Q 30.953125 -1.421875 24.3125 -1.421875 
Q 15.921875 -1.421875 10.953125 3.296875 
Q 6 8.015625 6 15.921875 
Q 6 25.140625 12.171875 29.828125 
Q 18.359375 34.515625 30.609375 34.515625 
L 43.21875 34.515625 
L 43.21875 35.40625 
Q 43.21875 41.609375 39.140625 45 
Q 35.0625 48.390625 27.6875 48.390625 
Q 23 48.390625 18.546875 47.265625 
Q 14.109375 46.140625 10.015625 43.890625 
L 10.015625 52.203125 
Q 14.9375 54.109375 19.578125 55.046875 
Q 24.21875 56 28.609375 56 
Q 40.484375 56 46.34375 49.84375 
Q 52.203125 43.703125 52.203125 31.203125 
z
" id="DejaVuSans-97"/>
      <path d="M 44.28125 53.078125 
L 44.28125 44.578125 
Q 40.484375 46.53125 36.375 47.5 
Q 32.28125 48.484375 27.875 48.484375 
Q 21.1875 48.484375 17.84375 46.4375 
Q 14.5 44.390625 14.5 40.28125 
Q 14.5 37.15625 16.890625 35.375 
Q 19.28125 33.59375 26.515625 31.984375 
L 29.59375 31.296875 
Q 39.15625 29.25 43.1875 25.515625 
Q 47.21875 21.78125 47.21875 15.09375 
Q 47.21875 7.46875 41.1875 3.015625 
Q 35.15625 -1.421875 24.609375 -1.421875 
Q 20.21875 -1.421875 15.453125 -0.5625 
Q 10.6875 0.296875 5.421875 2 
L 5.421875 11.28125 
Q 10.40625 8.6875 15.234375 7.390625 
Q 20.0625 6.109375 24.8125 6.109375 
Q 31.15625 6.109375 34.5625 8.28125 
Q 37.984375 10.453125 37.984375 14.40625 
Q 37.984375 18.0625 35.515625 20.015625 
Q 33.0625 21.96875 24.703125 23.78125 
L 21.578125 24.515625 
Q 13.234375 26.265625 9.515625 29.90625 
Q 5.8125 33.546875 5.8125 39.890625 
Q 5.8125 47.609375 11.28125 51.796875 
Q 16.75 56 26.8125 56 
Q 31.78125 56 36.171875 55.265625 
Q 40.578125 54.546875 44.28125 53.078125 
z
" id="DejaVuSans-115"/>
     </defs>
     <g transform="translate(172.444375 335.860562)scale(0.1 -0.1)">
      <use xlink:href="#DejaVuSans-104"/>
      <use x="63.378906" xlink:href="#DejaVuSans-121"/>
      <use x="122.558594" xlink:href="#DejaVuSans-100"/>
      <use x="186.035156" xlink:href="#DejaVuSans-114"/>
      <use x="224.898438" xlink:href="#DejaVuSans-111"/>
      <use x="282.955078" xlink:href="#DejaVuSans-120"/>
      <use x="342.134766" xlink:href="#DejaVuSans-121"/>
      <use x="401.314453" xlink:href="#DejaVuSans-99"/>
      <use x="456.294922" xlink:href="#DejaVuSans-104"/>
      <use x="519.673828" xlink:href="#DejaVuSans-108"/>
      <use x="547.457031" xlink:href="#DejaVuSans-111"/>
      <use x="608.638672" xlink:href="#DejaVuSans-114"/>
      <use x="647.501953" xlink:href="#DejaVuSans-111"/>
      <use x="708.683594" xlink:href="#DejaVuSans-113"/>
      <use x="772.160156" xlink:href="#DejaVuSans-117"/>
      <use x="835.539062" xlink:href="#DejaVuSans-105"/>
      <use x="863.322266" xlink:href="#DejaVuSans-110"/>
      <use x="926.701172" xlink:href="#DejaVuSans-101"/>
      <use x="988.224609" xlink:href="#DejaVuSans-95"/>
      <use x="1038.224609" xlink:href="#DejaVuSans-100"/>
      <use x="1101.701172" xlink:href="#DejaVuSans-97"/>
      <use x="1162.980469" xlink:href="#DejaVuSans-121"/>
      <use x="1222.160156" xlink:href="#DejaVuSans-115"/>
     </g>
    </g>
   </g>
   <g id="matplotlib.axis_2">
    <g id="ytick_1">
     <g id="line2d_7">
      <defs>
       <path d="M 0 0 
L -3.5 0 
" id="m3011efb790" style="stroke:#000000;stroke-width:0.8;"/>
      </defs>
      <g>
       <use style="stroke:#000000;stroke-width:0.8;" x="57.6" xlink:href="#m3011efb790" y="174.528"/>
      </g>
     </g>
    </g>
   </g>
   <g id="line2d_8">
    <path clip-path="url(#p17ebc4767c)" d="M 155.243059 174.528 
L 256.450396 174.528 
" style="fill:none;stroke:#ffa500;stroke-linecap:square;stroke-width:1.5;"/>
   </g>
   <g id="line2d_9">
    <path clip-path="url(#p17ebc4767c)" d="M 183.356208 174.528 
L 233.959877 174.528 
" style="fill:none;stroke:#4c4c4c;stroke-linecap:square;stroke-width:4.5;"/>
   </g>
   <g id="line2d_10">
    <path clip-path="url(#p17ebc4767c)" d="M 155.243059 174.528 
L 278.940915 174.528 
" style="fill:none;stroke:#008000;stroke-linecap:square;stroke-width:1.5;"/>
   </g>
   <g id="line2d_11">
    <path clip-path="url(#p17ebc4767c)" d="M 166.488319 174.528 
L 211.469357 174.528 
" style="fill:none;stroke:#262626;stroke-linecap:square;stroke-width:4.5;"/>
   </g>
   <g id="patch_3">
    <path d="M 57.6 307.584 
L 57.6 41.472 
" style="fill:none;stroke:#000000;stroke-linecap:square;stroke-linejoin:miter;stroke-width:0.8;"/>
   </g>
   <g id="patch_4">
    <path d="M 414.72 307.584 
L 414.72 41.472 
" style="fill:none;stroke:#000000;stroke-linecap:square;stroke-linejoin:miter;stroke-width:0.8;"/>
   </g>
   <g id="patch_5">
    <path d="M 57.6 307.584 
L 414.72 307.584 
" style="fill:none;stroke:#000000;stroke-linecap:square;stroke-linejoin:miter;stroke-width:0.8;"/>
   </g>
   <g id="patch_6">
    <path d="M 57.6 41.472 
L 414.72 41.472 
" style="fill:none;stroke:#000000;stroke-linecap:square;stroke-linejoin:miter;stroke-width:0.8;"/>
   </g>
   <g id="PathCollection_1">
    <defs>
     <path d="M 0 1.5 
C 0.397805 1.5 0.77937 1.341951 1.06066 1.06066 
C 1.341951 0.77937 1.5 0.397805 1.5 0 
C 1.5 -0.397805 1.341951 -0.77937 1.06066 -1.06066 
C 0.77937 -1.341951 0.397805 -1.5 0 -1.5 
C -0.397805 -1.5 -0.77937 -1.341951 -1.06066 -1.06066 
C -1.341951 -0.77937 -1.5 -0.397805 -1.5 0 
C -1.5 0.397805 -1.341951 0.77937 -1.06066 1.06066 
C -0.77937 1.341951 -0.397805 1.5 0 1.5 
z
" id="m0e493da193" style="stroke:#4c4c4c;stroke-opacity:0.5;"/>
    </defs>
    <g clip-path="url(#p17ebc4767c)">
     <use style="fill:#ffffff;fill-opacity:0.5;stroke:#4c4c4c;stroke-opacity:0.5;" x="211.469357" xlink:href="#m0e493da193" y="174.528"/>
    </g>
   </g>
   <g id="PathCollection_2">
    <defs>
     <path d="M 0 1.5 
C 0.397805 1.5 0.77937 1.341951 1.06066 1.06066 
C 1.341951 0.77937 1.5 0.397805 1.5 0 
C 1.5 -0.397805 1.341951 -0.77937 1.06066 -1.06066 
C 0.77937 -1.341951 0.397805 -1.5 0 -1.5 
C -0.397805 -1.5 -0.77937 -1.341951 -1.06066 -1.06066 
C -1.341951 -0.77937 -1.5 -0.397805 -1.5 0 
C -1.5 0.397805 -1.341951 0.77937 -1.06066 1.06066 
C -0.77937 1.341951 -0.397805 1.5 0 1.5 
z
" id="m20a0cb0e76" style="stroke:#262626;stroke-opacity:0.5;"/>
    </defs>
    <g clip-path="url(#p17ebc4767c)">
     <use style="fill:#ffffff;fill-opacity:0.5;stroke:#262626;stroke-opacity:0.5;" x="200.224098" xlink:href="#m20a0cb0e76" y="174.528"/>
    </g>
   </g>
   <g id="text_8">
    <!-- Association of hydroxychloroquine_days vs. ecmo -->
    <defs>
     <path d="M 34.1875 63.1875 
L 20.796875 26.90625 
L 47.609375 26.90625 
z
M 28.609375 72.90625 
L 39.796875 72.90625 
L 67.578125 0 
L 57.328125 0 
L 50.6875 18.703125 
L 17.828125 18.703125 
L 11.1875 0 
L 0.78125 0 
z
" id="DejaVuSans-65"/>
     <path d="M 18.3125 70.21875 
L 18.3125 54.6875 
L 36.8125 54.6875 
L 36.8125 47.703125 
L 18.3125 47.703125 
L 18.3125 18.015625 
Q 18.3125 11.328125 20.140625 9.421875 
Q 21.96875 7.515625 27.59375 7.515625 
L 36.8125 7.515625 
L 36.8125 0 
L 27.59375 0 
Q 17.1875 0 13.234375 3.875 
Q 9.28125 7.765625 9.28125 18.015625 
L 9.28125 47.703125 
L 2.6875 47.703125 
L 2.6875 54.6875 
L 9.28125 54.6875 
L 9.28125 70.21875 
z
" id="DejaVuSans-116"/>
     <path id="DejaVuSans-32"/>
     <path d="M 37.109375 75.984375 
L 37.109375 68.5 
L 28.515625 68.5 
Q 23.6875 68.5 21.796875 66.546875 
Q 19.921875 64.59375 19.921875 59.515625 
L 19.921875 54.6875 
L 34.71875 54.6875 
L 34.71875 47.703125 
L 19.921875 47.703125 
L 19.921875 0 
L 10.890625 0 
L 10.890625 47.703125 
L 2.296875 47.703125 
L 2.296875 54.6875 
L 10.890625 54.6875 
L 10.890625 58.5 
Q 10.890625 67.625 15.140625 71.796875 
Q 19.390625 75.984375 28.609375 75.984375 
z
" id="DejaVuSans-102"/>
     <path d="M 2.984375 54.6875 
L 12.5 54.6875 
L 29.59375 8.796875 
L 46.6875 54.6875 
L 56.203125 54.6875 
L 35.6875 0 
L 23.484375 0 
z
" id="DejaVuSans-118"/>
     <path d="M 10.6875 12.40625 
L 21 12.40625 
L 21 0 
L 10.6875 0 
z
" id="DejaVuSans-46"/>
     <path d="M 52 44.1875 
Q 55.375 50.25 60.0625 53.125 
Q 64.75 56 71.09375 56 
Q 79.640625 56 84.28125 50.015625 
Q 88.921875 44.046875 88.921875 33.015625 
L 88.921875 0 
L 79.890625 0 
L 79.890625 32.71875 
Q 79.890625 40.578125 77.09375 44.375 
Q 74.3125 48.1875 68.609375 48.1875 
Q 61.625 48.1875 57.5625 43.546875 
Q 53.515625 38.921875 53.515625 30.90625 
L 53.515625 0 
L 44.484375 0 
L 44.484375 32.71875 
Q 44.484375 40.625 41.703125 44.40625 
Q 38.921875 48.1875 33.109375 48.1875 
Q 26.21875 48.1875 22.15625 43.53125 
Q 18.109375 38.875 18.109375 30.90625 
L 18.109375 0 
L 9.078125 0 
L 9.078125 54.6875 
L 18.109375 54.6875 
L 18.109375 46.1875 
Q 21.1875 51.21875 25.484375 53.609375 
Q 29.78125 56 35.6875 56 
Q 41.65625 56 45.828125 52.96875 
Q 50 49.953125 52 44.1875 
z
" id="DejaVuSans-109"/>
    </defs>
    <g transform="translate(87.0375 35.472)scale(0.12 -0.12)">
     <use xlink:href="#DejaVuSans-65"/>
     <use x="68.408203" xlink:href="#DejaVuSans-115"/>
     <use x="120.507812" xlink:href="#DejaVuSans-115"/>
     <use x="172.607422" xlink:href="#DejaVuSans-111"/>
     <use x="233.789062" xlink:href="#DejaVuSans-99"/>
     <use x="288.769531" xlink:href="#DejaVuSans-105"/>
     <use x="316.552734" xlink:href="#DejaVuSans-97"/>
     <use x="377.832031" xlink:href="#DejaVuSans-116"/>
     <use x="417.041016" xlink:href="#DejaVuSans-105"/>
     <use x="444.824219" xlink:href="#DejaVuSans-111"/>
     <use x="506.005859" xlink:href="#DejaVuSans-110"/>
     <use x="569.384766" xlink:href="#DejaVuSans-32"/>
     <use x="601.171875" xlink:href="#DejaVuSans-111"/>
     <use x="662.353516" xlink:href="#DejaVuSans-102"/>
     <use x="697.558594" xlink:href="#DejaVuSans-32"/>
     <use x="729.345703" xlink:href="#DejaVuSans-104"/>
     <use x="792.724609" xlink:href="#DejaVuSans-121"/>
     <use x="851.904297" xlink:href="#DejaVuSans-100"/>
     <use x="915.380859" xlink:href="#DejaVuSans-114"/>
     <use x="954.244141" xlink:href="#DejaVuSans-111"/>
     <use x="1012.300781" xlink:href="#DejaVuSans-120"/>
     <use x="1071.480469" xlink:href="#DejaVuSans-121"/>
     <use x="1130.660156" xlink:href="#DejaVuSans-99"/>
     <use x="1185.640625" xlink:href="#DejaVuSans-104"/>
     <use x="1249.019531" xlink:href="#DejaVuSans-108"/>
     <use x="1276.802734" xlink:href="#DejaVuSans-111"/>
     <use x="1337.984375" xlink:href="#DejaVuSans-114"/>
     <use x="1376.847656" xlink:href="#DejaVuSans-111"/>
     <use x="1438.029297" xlink:href="#DejaVuSans-113"/>
     <use x="1501.505859" xlink:href="#DejaVuSans-117"/>
     <use x="1564.884766" xlink:href="#DejaVuSans-105"/>
     <use x="1592.667969" xlink:href="#DejaVuSans-110"/>
     <use x="1656.046875" xlink:href="#DejaVuSans-101"/>
     <use x="1717.570312" xlink:href="#DejaVuSans-95"/>
     <use x="1767.570312" xlink:href="#DejaVuSans-100"/>
     <use x="1831.046875" xlink:href="#DejaVuSans-97"/>
     <use x="1892.326172" xlink:href="#DejaVuSans-121"/>
     <use x="1951.505859" xlink:href="#DejaVuSans-115"/>
     <use x="2003.605469" xlink:href="#DejaVuSans-32"/>
     <use x="2035.392578" xlink:href="#DejaVuSans-118"/>
     <use x="2094.572266" xlink:href="#DejaVuSans-115"/>
     <use x="2146.671875" xlink:href="#DejaVuSans-46"/>
     <use x="2178.458984" xlink:href="#DejaVuSans-32"/>
     <use x="2210.246094" xlink:href="#DejaVuSans-101"/>
     <use x="2271.769531" xlink:href="#DejaVuSans-99"/>
     <use x="2326.75" xlink:href="#DejaVuSans-109"/>
     <use x="2424.162109" xlink:href="#DejaVuSans-111"/>
    </g>
   </g>
   <g id="legend_1">
    <g id="patch_7">
     <path d="M 297.441875 78.82825 
L 407.72 78.82825 
Q 409.72 78.82825 409.72 76.82825 
L 409.72 48.472 
Q 409.72 46.472 407.72 46.472 
L 297.441875 46.472 
Q 295.441875 46.472 295.441875 48.472 
L 295.441875 76.82825 
Q 295.441875 78.82825 297.441875 78.82825 
z
" style="fill:#ffffff;opacity:0.8;stroke:#cccccc;stroke-linejoin:miter;"/>
    </g>
    <g id="line2d_12">
     <path d="M 299.441875 54.570437 
L 319.441875 54.570437 
" style="fill:none;stroke:#ffa500;stroke-linecap:square;stroke-width:1.5;"/>
    </g>
    <g id="line2d_13"/>
    <g id="text_9">
     <!-- ecmo (3) -->
     <defs>
      <path d="M 31 75.875 
Q 24.46875 64.65625 21.28125 53.65625 
Q 18.109375 42.671875 18.109375 31.390625 
Q 18.109375 20.125 21.3125 9.0625 
Q 24.515625 -2 31 -13.1875 
L 23.1875 -13.1875 
Q 15.875 -1.703125 12.234375 9.375 
Q 8.59375 20.453125 8.59375 31.390625 
Q 8.59375 42.28125 12.203125 53.3125 
Q 15.828125 64.359375 23.1875 75.875 
z
" id="DejaVuSans-40"/>
      <path d="M 40.578125 39.3125 
Q 47.65625 37.796875 51.625 33 
Q 55.609375 28.21875 55.609375 21.1875 
Q 55.609375 10.40625 48.1875 4.484375 
Q 40.765625 -1.421875 27.09375 -1.421875 
Q 22.515625 -1.421875 17.65625 -0.515625 
Q 12.796875 0.390625 7.625 2.203125 
L 7.625 11.71875 
Q 11.71875 9.328125 16.59375 8.109375 
Q 21.484375 6.890625 26.8125 6.890625 
Q 36.078125 6.890625 40.9375 10.546875 
Q 45.796875 14.203125 45.796875 21.1875 
Q 45.796875 27.640625 41.28125 31.265625 
Q 36.765625 34.90625 28.71875 34.90625 
L 20.21875 34.90625 
L 20.21875 43.015625 
L 29.109375 43.015625 
Q 36.375 43.015625 40.234375 45.921875 
Q 44.09375 48.828125 44.09375 54.296875 
Q 44.09375 59.90625 40.109375 62.90625 
Q 36.140625 65.921875 28.71875 65.921875 
Q 24.65625 65.921875 20.015625 65.03125 
Q 15.375 64.15625 9.8125 62.3125 
L 9.8125 71.09375 
Q 15.4375 72.65625 20.34375 73.4375 
Q 25.25 74.21875 29.59375 74.21875 
Q 40.828125 74.21875 47.359375 69.109375 
Q 53.90625 64.015625 53.90625 55.328125 
Q 53.90625 49.265625 50.4375 45.09375 
Q 46.96875 40.921875 40.578125 39.3125 
z
" id="DejaVuSans-51"/>
      <path d="M 8.015625 75.875 
L 15.828125 75.875 
Q 23.140625 64.359375 26.78125 53.3125 
Q 30.421875 42.28125 30.421875 31.390625 
Q 30.421875 20.453125 26.78125 9.375 
Q 23.140625 -1.703125 15.828125 -13.1875 
L 8.015625 -13.1875 
Q 14.5 -2 17.703125 9.0625 
Q 20.90625 20.125 20.90625 31.390625 
Q 20.90625 42.671875 17.703125 53.65625 
Q 14.5 64.65625 8.015625 75.875 
z
" id="DejaVuSans-41"/>
     </defs>
     <g transform="translate(327.441875 58.070437)scale(0.1 -0.1)">
      <use xlink:href="#DejaVuSans-101"/>
      <use x="61.523438" xlink:href="#DejaVuSans-99"/>
      <use x="116.503906" xlink:href="#DejaVuSans-109"/>
      <use x="213.916016" xlink:href="#DejaVuSans-111"/>
      <use x="275.097656" xlink:href="#DejaVuSans-32"/>
      <use x="306.884766" xlink:href="#DejaVuSans-40"/>
      <use x="345.898438" xlink:href="#DejaVuSans-51"/>
      <use x="409.521484" xlink:href="#DejaVuSans-41"/>
     </g>
    </g>
    <g id="line2d_14">
     <path d="M 299.441875 69.248562 
L 319.441875 69.248562 
" style="fill:none;stroke:#008000;stroke-linecap:square;stroke-width:1.5;"/>
    </g>
    <g id="line2d_15"/>
    <g id="text_10">
     <!-- Not ecmo (486) -->
     <defs>
      <path d="M 9.8125 72.90625 
L 23.09375 72.90625 
L 55.421875 11.921875 
L 55.421875 72.90625 
L 64.984375 72.90625 
L 64.984375 0 
L 51.703125 0 
L 19.390625 60.984375 
L 19.390625 0 
L 9.8125 0 
z
" id="DejaVuSans-78"/>
      <path d="M 37.796875 64.3125 
L 12.890625 25.390625 
L 37.796875 25.390625 
z
M 35.203125 72.90625 
L 47.609375 72.90625 
L 47.609375 25.390625 
L 58.015625 25.390625 
L 58.015625 17.1875 
L 47.609375 17.1875 
L 47.609375 0 
L 37.796875 0 
L 37.796875 17.1875 
L 4.890625 17.1875 
L 4.890625 26.703125 
z
" id="DejaVuSans-52"/>
      <path d="M 31.78125 34.625 
Q 24.75 34.625 20.71875 30.859375 
Q 16.703125 27.09375 16.703125 20.515625 
Q 16.703125 13.921875 20.71875 10.15625 
Q 24.75 6.390625 31.78125 6.390625 
Q 38.8125 6.390625 42.859375 10.171875 
Q 46.921875 13.96875 46.921875 20.515625 
Q 46.921875 27.09375 42.890625 30.859375 
Q 38.875 34.625 31.78125 34.625 
z
M 21.921875 38.8125 
Q 15.578125 40.375 12.03125 44.71875 
Q 8.5 49.078125 8.5 55.328125 
Q 8.5 64.0625 14.71875 69.140625 
Q 20.953125 74.21875 31.78125 74.21875 
Q 42.671875 74.21875 48.875 69.140625 
Q 55.078125 64.0625 55.078125 55.328125 
Q 55.078125 49.078125 51.53125 44.71875 
Q 48 40.375 41.703125 38.8125 
Q 48.828125 37.15625 52.796875 32.3125 
Q 56.78125 27.484375 56.78125 20.515625 
Q 56.78125 9.90625 50.3125 4.234375 
Q 43.84375 -1.421875 31.78125 -1.421875 
Q 19.734375 -1.421875 13.25 4.234375 
Q 6.78125 9.90625 6.78125 20.515625 
Q 6.78125 27.484375 10.78125 32.3125 
Q 14.796875 37.15625 21.921875 38.8125 
z
M 18.3125 54.390625 
Q 18.3125 48.734375 21.84375 45.5625 
Q 25.390625 42.390625 31.78125 42.390625 
Q 38.140625 42.390625 41.71875 45.5625 
Q 45.3125 48.734375 45.3125 54.390625 
Q 45.3125 60.0625 41.71875 63.234375 
Q 38.140625 66.40625 31.78125 66.40625 
Q 25.390625 66.40625 21.84375 63.234375 
Q 18.3125 60.0625 18.3125 54.390625 
z
" id="DejaVuSans-56"/>
      <path d="M 33.015625 40.375 
Q 26.375 40.375 22.484375 35.828125 
Q 18.609375 31.296875 18.609375 23.390625 
Q 18.609375 15.53125 22.484375 10.953125 
Q 26.375 6.390625 33.015625 6.390625 
Q 39.65625 6.390625 43.53125 10.953125 
Q 47.40625 15.53125 47.40625 23.390625 
Q 47.40625 31.296875 43.53125 35.828125 
Q 39.65625 40.375 33.015625 40.375 
z
M 52.59375 71.296875 
L 52.59375 62.3125 
Q 48.875 64.0625 45.09375 64.984375 
Q 41.3125 65.921875 37.59375 65.921875 
Q 27.828125 65.921875 22.671875 59.328125 
Q 17.53125 52.734375 16.796875 39.40625 
Q 19.671875 43.65625 24.015625 45.921875 
Q 28.375 48.1875 33.59375 48.1875 
Q 44.578125 48.1875 50.953125 41.515625 
Q 57.328125 34.859375 57.328125 23.390625 
Q 57.328125 12.15625 50.6875 5.359375 
Q 44.046875 -1.421875 33.015625 -1.421875 
Q 20.359375 -1.421875 13.671875 8.265625 
Q 6.984375 17.96875 6.984375 36.375 
Q 6.984375 53.65625 15.1875 63.9375 
Q 23.390625 74.21875 37.203125 74.21875 
Q 40.921875 74.21875 44.703125 73.484375 
Q 48.484375 72.75 52.59375 71.296875 
z
" id="DejaVuSans-54"/>
     </defs>
     <g transform="translate(327.441875 72.748562)scale(0.1 -0.1)">
      <use xlink:href="#DejaVuSans-78"/>
      <use x="74.804688" xlink:href="#DejaVuSans-111"/>
      <use x="135.986328" xlink:href="#DejaVuSans-116"/>
      <use x="175.195312" xlink:href="#DejaVuSans-32"/>
      <use x="206.982422" xlink:href="#DejaVuSans-101"/>
      <use x="268.505859" xlink:href="#DejaVuSans-99"/>
      <use x="323.486328" xlink:href="#DejaVuSans-109"/>
      <use x="420.898438" xlink:href="#DejaVuSans-111"/>
      <use x="482.080078" xlink:href="#DejaVuSans-32"/>
      <use x="513.867188" xlink:href="#DejaVuSans-40"/>
      <use x="552.880859" xlink:href="#DejaVuSans-52"/>
      <use x="616.503906" xlink:href="#DejaVuSans-56"/>
      <use x="680.126953" xlink:href="#DejaVuSans-54"/>
      <use x="743.75" xlink:href="#DejaVuSans-41"/>
     </g>
    </g>
   </g>
  </g>
 </g>
 <defs>
  <clipPath id="p17ebc4767c">
   <rect height="266.112" width="357.12" x="57.6" y="41.472"/>
  </clipPath>
 </defs>
</svg>
