<?xml version="1.0" encoding="utf-8" standalone="no"?>
<!DOCTYPE svg PUBLIC "-//W3C//DTD SVG 1.1//EN"
  "http://www.w3.org/Graphics/SVG/1.1/DTD/svg11.dtd">
<!-- Created with matplotlib (https://matplotlib.org/) -->
<svg height="345.6pt" version="1.1" viewBox="0 0 460.8 345.6" width="460.8pt" xmlns="http://www.w3.org/2000/svg" xmlns:xlink="http://www.w3.org/1999/xlink">
 <defs>
  <style type="text/css">
*{stroke-linecap:butt;stroke-linejoin:round;}
  </style>
 </defs>
 <g id="figure_1">
  <g id="patch_1">
   <path d="M 0 345.6 
L 460.8 345.6 
L 460.8 0 
L 0 0 
z
" style="fill:#ffffff;"/>
  </g>
  <g id="axes_1">
   <g id="patch_2">
    <path d="M 57.6 307.584 
L 414.72 307.584 
L 414.72 41.472 
L 57.6 41.472 
z
" style="fill:#ffffff;"/>
   </g>
   <g id="PolyCollection_1">
    <defs>
     <path d="M 73.832727 -158.499024 
L 73.832727 -183.644976 
L 77.112066 -197.523823 
L 80.391405 -219.135086 
L 83.670744 -246.495576 
L 86.950083 -273.2937 
L 90.229421 -290.724242 
L 93.50876 -292.032 
L 96.788099 -276.682608 
L 100.067438 -250.709935 
L 103.346777 -222.937812 
L 106.626116 -200.245831 
L 109.905455 -185.244922 
L 113.184793 -177.018779 
L 116.464132 -173.227083 
L 119.743471 -171.746542 
L 123.02281 -171.254357 
L 126.302149 -171.11458 
L 129.581488 -171.080587 
L 132.860826 -171.073496 
L 136.140165 -171.072225 
L 139.419504 -171.072029 
L 142.698843 -171.072003 
L 145.978182 -171.072 
L 149.257521 -171.072 
L 152.53686 -171.072 
L 155.816198 -171.072 
L 159.095537 -171.072 
L 162.374876 -171.072 
L 165.654215 -171.072 
L 168.933554 -171.072 
L 172.212893 -171.072 
L 175.492231 -171.072 
L 178.77157 -171.072 
L 182.050909 -171.072 
L 185.330248 -171.072 
L 188.609587 -171.072 
L 191.888926 -171.072 
L 195.168264 -171.072 
L 198.447603 -171.072 
L 201.726942 -171.072 
L 205.006281 -171.072 
L 208.28562 -171.072 
L 211.564959 -171.072 
L 214.844298 -171.072 
L 218.123636 -171.072 
L 221.402975 -171.072 
L 224.682314 -171.072 
L 227.961653 -171.072 
L 231.240992 -171.072 
L 234.520331 -171.072 
L 237.799669 -171.072 
L 241.079008 -171.072 
L 244.358347 -171.072 
L 247.637686 -171.072 
L 250.917025 -171.072 
L 254.196364 -171.072 
L 257.475702 -171.072 
L 260.755041 -171.072 
L 264.03438 -171.072 
L 267.313719 -171.072 
L 270.593058 -171.072 
L 273.872397 -171.072 
L 277.151736 -171.072 
L 280.431074 -171.072 
L 283.710413 -171.072 
L 286.989752 -171.072 
L 290.269091 -171.072 
L 293.54843 -171.072 
L 296.827769 -171.072 
L 300.107107 -171.072 
L 303.386446 -171.072 
L 306.665785 -171.072 
L 309.945124 -171.072 
L 313.224463 -171.072 
L 316.503802 -171.072 
L 319.78314 -171.072 
L 323.062479 -171.072 
L 326.341818 -171.072 
L 329.621157 -171.072 
L 332.900496 -171.072 
L 336.179835 -171.072001 
L 339.459174 -171.072005 
L 342.738512 -171.07203 
L 346.017851 -171.072157 
L 349.29719 -171.07271 
L 352.576529 -171.07478 
L 355.855868 -171.081397 
L 359.135207 -171.09942 
L 362.414545 -171.141068 
L 365.693884 -171.222189 
L 368.973223 -171.353937 
L 372.252562 -171.528898 
L 375.531901 -171.711202 
L 378.81124 -171.843986 
L 382.090579 -171.876883 
L 385.369917 -171.79645 
L 388.649256 -171.634907 
L 391.928595 -171.449587 
L 395.207934 -171.29065 
L 398.487273 -171.181304 
L 398.487273 -170.962696 
L 398.487273 -170.962696 
L 395.207934 -170.85335 
L 391.928595 -170.694413 
L 388.649256 -170.509093 
L 385.369917 -170.34755 
L 382.090579 -170.267117 
L 378.81124 -170.300014 
L 375.531901 -170.432798 
L 372.252562 -170.615102 
L 368.973223 -170.790063 
L 365.693884 -170.921811 
L 362.414545 -171.002932 
L 359.135207 -171.04458 
L 355.855868 -171.062603 
L 352.576529 -171.06922 
L 349.29719 -171.07129 
L 346.017851 -171.071843 
L 342.738512 -171.07197 
L 339.459174 -171.071995 
L 336.179835 -171.071999 
L 332.900496 -171.072 
L 329.621157 -171.072 
L 326.341818 -171.072 
L 323.062479 -171.072 
L 319.78314 -171.072 
L 316.503802 -171.072 
L 313.224463 -171.072 
L 309.945124 -171.072 
L 306.665785 -171.072 
L 303.386446 -171.072 
L 300.107107 -171.072 
L 296.827769 -171.072 
L 293.54843 -171.072 
L 290.269091 -171.072 
L 286.989752 -171.072 
L 283.710413 -171.072 
L 280.431074 -171.072 
L 277.151736 -171.072 
L 273.872397 -171.072 
L 270.593058 -171.072 
L 267.313719 -171.072 
L 264.03438 -171.072 
L 260.755041 -171.072 
L 257.475702 -171.072 
L 254.196364 -171.072 
L 250.917025 -171.072 
L 247.637686 -171.072 
L 244.358347 -171.072 
L 241.079008 -171.072 
L 237.799669 -171.072 
L 234.520331 -171.072 
L 231.240992 -171.072 
L 227.961653 -171.072 
L 224.682314 -171.072 
L 221.402975 -171.072 
L 218.123636 -171.072 
L 214.844298 -171.072 
L 211.564959 -171.072 
L 208.28562 -171.072 
L 205.006281 -171.072 
L 201.726942 -171.072 
L 198.447603 -171.072 
L 195.168264 -171.072 
L 191.888926 -171.072 
L 188.609587 -171.072 
L 185.330248 -171.072 
L 182.050909 -171.072 
L 178.77157 -171.072 
L 175.492231 -171.072 
L 172.212893 -171.072 
L 168.933554 -171.072 
L 165.654215 -171.072 
L 162.374876 -171.072 
L 159.095537 -171.072 
L 155.816198 -171.072 
L 152.53686 -171.072 
L 149.257521 -171.072 
L 145.978182 -171.072 
L 142.698843 -171.071997 
L 139.419504 -171.071971 
L 136.140165 -171.071775 
L 132.860826 -171.070504 
L 129.581488 -171.063413 
L 126.302149 -171.02942 
L 123.02281 -170.889643 
L 119.743471 -170.397458 
L 116.464132 -168.916917 
L 113.184793 -165.125221 
L 109.905455 -156.899078 
L 106.626116 -141.898169 
L 103.346777 -119.206188 
L 100.067438 -91.434065 
L 96.788099 -65.461392 
L 93.50876 -50.112 
L 90.229421 -51.419758 
L 86.950083 -68.8503 
L 83.670744 -95.648424 
L 80.391405 -123.008914 
L 77.112066 -144.620177 
L 73.832727 -158.499024 
z
" id="m79fdbb59b7" style="stroke:#4c4c4c;stroke-opacity:0.5;stroke-width:1.5;"/>
    </defs>
    <g clip-path="url(#p22c7fcedda)">
     <use style="fill:#df9c20;fill-opacity:0.5;stroke:#4c4c4c;stroke-opacity:0.5;stroke-width:1.5;" x="0" xlink:href="#m79fdbb59b7" y="345.6"/>
    </g>
   </g>
   <g id="PolyCollection_2">
    <defs>
     <path d="M 90.109088 -170.914565 
L 90.109088 -171.229435 
L 90.151196 -171.331727 
L 90.193305 -171.470988 
L 90.235414 -171.64311 
L 90.277523 -171.834885 
L 90.319632 -172.026245 
L 90.361741 -172.198181 
L 90.40385 -172.346324 
L 90.445958 -172.498099 
L 90.488067 -172.729417 
L 90.530176 -173.175588 
L 90.572285 -174.030304 
L 90.614394 -175.526443 
L 90.656503 -177.894523 
L 90.698611 -181.30102 
L 90.74072 -185.779876 
L 90.782829 -191.18222 
L 90.824938 -197.173384 
L 90.867047 -203.294933 
L 90.909156 -209.082713 
L 90.951265 -214.201646 
L 90.993373 -218.542475 
L 91.035482 -222.23791 
L 91.077591 -225.592446 
L 91.1197 -228.961407 
L 91.161809 -232.635996 
L 91.203918 -236.780003 
L 91.246027 -241.428485 
L 91.288135 -246.522756 
L 91.330244 -251.941606 
L 91.372353 -257.502919 
L 91.414462 -262.940607 
L 91.456571 -267.887367 
L 91.49868 -271.89725 
L 91.540788 -274.521877 
L 91.582897 -275.42369 
L 91.625006 -274.487182 
L 91.667115 -271.886514 
L 91.709224 -268.084622 
L 91.751333 -263.764694 
L 91.793442 -259.716922 
L 91.83555 -256.713064 
L 91.877659 -255.396314 
L 91.919768 -256.19845 
L 91.961877 -259.279138 
L 92.003986 -264.474843 
L 92.046095 -271.254491 
L 92.088203 -278.702781 
L 92.130312 -285.573562 
L 92.172421 -290.452809 
L 92.21453 -292.032 
L 92.256639 -289.43082 
L 92.298748 -282.45832 
L 92.340857 -271.700761 
L 92.382965 -258.383831 
L 92.425074 -244.050544 
L 92.467183 -230.173926 
L 92.509292 -217.843584 
L 92.551401 -207.619873 
L 92.59351 -199.568499 
L 92.635619 -193.417103 
L 92.677727 -188.74602 
L 92.719836 -185.141212 
L 92.761945 -182.277656 
L 92.804054 -179.939567 
L 92.846163 -178.002994 
L 92.888272 -176.405911 
L 92.93038 -175.120278 
L 92.972489 -174.130362 
L 93.014598 -173.416908 
L 93.056707 -172.946923 
L 93.098816 -172.670147 
L 93.140925 -172.523151 
L 93.183034 -172.439865 
L 93.225142 -172.364773 
L 93.267251 -172.263775 
L 93.30936 -172.128714 
L 93.351469 -171.974341 
L 93.393578 -171.829511 
L 93.435687 -171.726146 
L 93.477796 -171.689472 
L 93.519904 -171.731639 
L 93.562013 -171.849382 
L 93.604122 -172.025443 
L 93.646231 -172.233033 
L 93.68834 -172.442163 
L 93.730449 -172.625979 
L 93.772557 -172.765009 
L 93.814666 -172.848057 
L 93.856775 -172.870218 
L 93.898884 -172.830172 
L 93.940993 -172.72905 
L 93.983102 -172.571649 
L 94.025211 -172.36863 
L 94.067319 -172.13733 
L 94.109428 -171.89965 
L 94.151537 -171.67748 
L 94.193646 -171.48774 
L 94.235755 -171.339265 
L 94.277864 -171.232575 
L 94.277864 -170.911425 
L 94.277864 -170.911425 
L 94.235755 -170.804735 
L 94.193646 -170.65626 
L 94.151537 -170.46652 
L 94.109428 -170.24435 
L 94.067319 -170.00667 
L 94.025211 -169.77537 
L 93.983102 -169.572351 
L 93.940993 -169.41495 
L 93.898884 -169.313828 
L 93.856775 -169.273782 
L 93.814666 -169.295943 
L 93.772557 -169.378991 
L 93.730449 -169.518021 
L 93.68834 -169.701837 
L 93.646231 -169.910967 
L 93.604122 -170.118557 
L 93.562013 -170.294618 
L 93.519904 -170.412361 
L 93.477796 -170.454528 
L 93.435687 -170.417854 
L 93.393578 -170.314489 
L 93.351469 -170.169659 
L 93.30936 -170.015286 
L 93.267251 -169.880225 
L 93.225142 -169.779227 
L 93.183034 -169.704135 
L 93.140925 -169.620849 
L 93.098816 -169.473853 
L 93.056707 -169.197077 
L 93.014598 -168.727092 
L 92.972489 -168.013638 
L 92.93038 -167.023722 
L 92.888272 -165.738089 
L 92.846163 -164.141006 
L 92.804054 -162.204433 
L 92.761945 -159.866344 
L 92.719836 -157.002788 
L 92.677727 -153.39798 
L 92.635619 -148.726897 
L 92.59351 -142.575501 
L 92.551401 -134.524127 
L 92.509292 -124.300416 
L 92.467183 -111.970074 
L 92.425074 -98.093456 
L 92.382965 -83.760169 
L 92.340857 -70.443239 
L 92.298748 -59.68568 
L 92.256639 -52.71318 
L 92.21453 -50.112 
L 92.172421 -51.691191 
L 92.130312 -56.570438 
L 92.088203 -63.441219 
L 92.046095 -70.889509 
L 92.003986 -77.669157 
L 91.961877 -82.864862 
L 91.919768 -85.94555 
L 91.877659 -86.747686 
L 91.83555 -85.430936 
L 91.793442 -82.427078 
L 91.751333 -78.379306 
L 91.709224 -74.059378 
L 91.667115 -70.257486 
L 91.625006 -67.656818 
L 91.582897 -66.72031 
L 91.540788 -67.622123 
L 91.49868 -70.24675 
L 91.456571 -74.256633 
L 91.414462 -79.203393 
L 91.372353 -84.641081 
L 91.330244 -90.202394 
L 91.288135 -95.621244 
L 91.246027 -100.715515 
L 91.203918 -105.363997 
L 91.161809 -109.508004 
L 91.1197 -113.182593 
L 91.077591 -116.551554 
L 91.035482 -119.90609 
L 90.993373 -123.601525 
L 90.951265 -127.942354 
L 90.909156 -133.061287 
L 90.867047 -138.849067 
L 90.824938 -144.970616 
L 90.782829 -150.96178 
L 90.74072 -156.364124 
L 90.698611 -160.84298 
L 90.656503 -164.249477 
L 90.614394 -166.617557 
L 90.572285 -168.113696 
L 90.530176 -168.968412 
L 90.488067 -169.414583 
L 90.445958 -169.645901 
L 90.40385 -169.797676 
L 90.361741 -169.945819 
L 90.319632 -170.117755 
L 90.277523 -170.309115 
L 90.235414 -170.50089 
L 90.193305 -170.673012 
L 90.151196 -170.812273 
L 90.109088 -170.914565 
z
" id="mfcc9720e3e" style="stroke:#262626;stroke-opacity:0.5;stroke-width:1.5;"/>
    </defs>
    <g clip-path="url(#p22c7fcedda)">
     <use style="fill:#107010;fill-opacity:0.5;stroke:#262626;stroke-opacity:0.5;stroke-width:1.5;" x="0" xlink:href="#mfcc9720e3e" y="345.6"/>
    </g>
   </g>
   <g id="matplotlib.axis_1">
    <g id="xtick_1">
     <g id="line2d_1">
      <defs>
       <path d="M 0 0 
L 0 3.5 
" id="mb2d454ba15" style="stroke:#000000;stroke-width:0.8;"/>
      </defs>
      <g>
       <use style="stroke:#000000;stroke-width:0.8;" x="59.170973" xlink:href="#mb2d454ba15" y="307.584"/>
      </g>
     </g>
     <g id="text_1">
      <!-- 0 -->
      <defs>
       <path d="M 31.78125 66.40625 
Q 24.171875 66.40625 20.328125 58.90625 
Q 16.5 51.421875 16.5 36.375 
Q 16.5 21.390625 20.328125 13.890625 
Q 24.171875 6.390625 31.78125 6.390625 
Q 39.453125 6.390625 43.28125 13.890625 
Q 47.125 21.390625 47.125 36.375 
Q 47.125 51.421875 43.28125 58.90625 
Q 39.453125 66.40625 31.78125 66.40625 
z
M 31.78125 74.21875 
Q 44.046875 74.21875 50.515625 64.515625 
Q 56.984375 54.828125 56.984375 36.375 
Q 56.984375 17.96875 50.515625 8.265625 
Q 44.046875 -1.421875 31.78125 -1.421875 
Q 19.53125 -1.421875 13.0625 8.265625 
Q 6.59375 17.96875 6.59375 36.375 
Q 6.59375 54.828125 13.0625 64.515625 
Q 19.53125 74.21875 31.78125 74.21875 
z
" id="DejaVuSans-48"/>
      </defs>
      <g transform="translate(55.989723 322.182437)scale(0.1 -0.1)">
       <use xlink:href="#DejaVuSans-48"/>
      </g>
     </g>
    </g>
    <g id="xtick_2">
     <g id="line2d_2">
      <g>
       <use style="stroke:#000000;stroke-width:0.8;" x="123.542323" xlink:href="#mb2d454ba15" y="307.584"/>
      </g>
     </g>
     <g id="text_2">
      <!-- 200 -->
      <defs>
       <path d="M 19.1875 8.296875 
L 53.609375 8.296875 
L 53.609375 0 
L 7.328125 0 
L 7.328125 8.296875 
Q 12.9375 14.109375 22.625 23.890625 
Q 32.328125 33.6875 34.8125 36.53125 
Q 39.546875 41.84375 41.421875 45.53125 
Q 43.3125 49.21875 43.3125 52.78125 
Q 43.3125 58.59375 39.234375 62.25 
Q 35.15625 65.921875 28.609375 65.921875 
Q 23.96875 65.921875 18.8125 64.3125 
Q 13.671875 62.703125 7.8125 59.421875 
L 7.8125 69.390625 
Q 13.765625 71.78125 18.9375 73 
Q 24.125 74.21875 28.421875 74.21875 
Q 39.75 74.21875 46.484375 68.546875 
Q 53.21875 62.890625 53.21875 53.421875 
Q 53.21875 48.921875 51.53125 44.890625 
Q 49.859375 40.875 45.40625 35.40625 
Q 44.1875 33.984375 37.640625 27.21875 
Q 31.109375 20.453125 19.1875 8.296875 
z
" id="DejaVuSans-50"/>
      </defs>
      <g transform="translate(113.998573 322.182437)scale(0.1 -0.1)">
       <use xlink:href="#DejaVuSans-50"/>
       <use x="63.623047" xlink:href="#DejaVuSans-48"/>
       <use x="127.246094" xlink:href="#DejaVuSans-48"/>
      </g>
     </g>
    </g>
    <g id="xtick_3">
     <g id="line2d_3">
      <g>
       <use style="stroke:#000000;stroke-width:0.8;" x="187.913673" xlink:href="#mb2d454ba15" y="307.584"/>
      </g>
     </g>
     <g id="text_3">
      <!-- 400 -->
      <defs>
       <path d="M 37.796875 64.3125 
L 12.890625 25.390625 
L 37.796875 25.390625 
z
M 35.203125 72.90625 
L 47.609375 72.90625 
L 47.609375 25.390625 
L 58.015625 25.390625 
L 58.015625 17.1875 
L 47.609375 17.1875 
L 47.609375 0 
L 37.796875 0 
L 37.796875 17.1875 
L 4.890625 17.1875 
L 4.890625 26.703125 
z
" id="DejaVuSans-52"/>
      </defs>
      <g transform="translate(178.369923 322.182437)scale(0.1 -0.1)">
       <use xlink:href="#DejaVuSans-52"/>
       <use x="63.623047" xlink:href="#DejaVuSans-48"/>
       <use x="127.246094" xlink:href="#DejaVuSans-48"/>
      </g>
     </g>
    </g>
    <g id="xtick_4">
     <g id="line2d_4">
      <g>
       <use style="stroke:#000000;stroke-width:0.8;" x="252.285023" xlink:href="#mb2d454ba15" y="307.584"/>
      </g>
     </g>
     <g id="text_4">
      <!-- 600 -->
      <defs>
       <path d="M 33.015625 40.375 
Q 26.375 40.375 22.484375 35.828125 
Q 18.609375 31.296875 18.609375 23.390625 
Q 18.609375 15.53125 22.484375 10.953125 
Q 26.375 6.390625 33.015625 6.390625 
Q 39.65625 6.390625 43.53125 10.953125 
Q 47.40625 15.53125 47.40625 23.390625 
Q 47.40625 31.296875 43.53125 35.828125 
Q 39.65625 40.375 33.015625 40.375 
z
M 52.59375 71.296875 
L 52.59375 62.3125 
Q 48.875 64.0625 45.09375 64.984375 
Q 41.3125 65.921875 37.59375 65.921875 
Q 27.828125 65.921875 22.671875 59.328125 
Q 17.53125 52.734375 16.796875 39.40625 
Q 19.671875 43.65625 24.015625 45.921875 
Q 28.375 48.1875 33.59375 48.1875 
Q 44.578125 48.1875 50.953125 41.515625 
Q 57.328125 34.859375 57.328125 23.390625 
Q 57.328125 12.15625 50.6875 5.359375 
Q 44.046875 -1.421875 33.015625 -1.421875 
Q 20.359375 -1.421875 13.671875 8.265625 
Q 6.984375 17.96875 6.984375 36.375 
Q 6.984375 53.65625 15.1875 63.9375 
Q 23.390625 74.21875 37.203125 74.21875 
Q 40.921875 74.21875 44.703125 73.484375 
Q 48.484375 72.75 52.59375 71.296875 
z
" id="DejaVuSans-54"/>
      </defs>
      <g transform="translate(242.741273 322.182437)scale(0.1 -0.1)">
       <use xlink:href="#DejaVuSans-54"/>
       <use x="63.623047" xlink:href="#DejaVuSans-48"/>
       <use x="127.246094" xlink:href="#DejaVuSans-48"/>
      </g>
     </g>
    </g>
    <g id="xtick_5">
     <g id="line2d_5">
      <g>
       <use style="stroke:#000000;stroke-width:0.8;" x="316.656373" xlink:href="#mb2d454ba15" y="307.584"/>
      </g>
     </g>
     <g id="text_5">
      <!-- 800 -->
      <defs>
       <path d="M 31.78125 34.625 
Q 24.75 34.625 20.71875 30.859375 
Q 16.703125 27.09375 16.703125 20.515625 
Q 16.703125 13.921875 20.71875 10.15625 
Q 24.75 6.390625 31.78125 6.390625 
Q 38.8125 6.390625 42.859375 10.171875 
Q 46.921875 13.96875 46.921875 20.515625 
Q 46.921875 27.09375 42.890625 30.859375 
Q 38.875 34.625 31.78125 34.625 
z
M 21.921875 38.8125 
Q 15.578125 40.375 12.03125 44.71875 
Q 8.5 49.078125 8.5 55.328125 
Q 8.5 64.0625 14.71875 69.140625 
Q 20.953125 74.21875 31.78125 74.21875 
Q 42.671875 74.21875 48.875 69.140625 
Q 55.078125 64.0625 55.078125 55.328125 
Q 55.078125 49.078125 51.53125 44.71875 
Q 48 40.375 41.703125 38.8125 
Q 48.828125 37.15625 52.796875 32.3125 
Q 56.78125 27.484375 56.78125 20.515625 
Q 56.78125 9.90625 50.3125 4.234375 
Q 43.84375 -1.421875 31.78125 -1.421875 
Q 19.734375 -1.421875 13.25 4.234375 
Q 6.78125 9.90625 6.78125 20.515625 
Q 6.78125 27.484375 10.78125 32.3125 
Q 14.796875 37.15625 21.921875 38.8125 
z
M 18.3125 54.390625 
Q 18.3125 48.734375 21.84375 45.5625 
Q 25.390625 42.390625 31.78125 42.390625 
Q 38.140625 42.390625 41.71875 45.5625 
Q 45.3125 48.734375 45.3125 54.390625 
Q 45.3125 60.0625 41.71875 63.234375 
Q 38.140625 66.40625 31.78125 66.40625 
Q 25.390625 66.40625 21.84375 63.234375 
Q 18.3125 60.0625 18.3125 54.390625 
z
" id="DejaVuSans-56"/>
      </defs>
      <g transform="translate(307.112623 322.182437)scale(0.1 -0.1)">
       <use xlink:href="#DejaVuSans-56"/>
       <use x="63.623047" xlink:href="#DejaVuSans-48"/>
       <use x="127.246094" xlink:href="#DejaVuSans-48"/>
      </g>
     </g>
    </g>
    <g id="xtick_6">
     <g id="line2d_6">
      <g>
       <use style="stroke:#000000;stroke-width:0.8;" x="381.027723" xlink:href="#mb2d454ba15" y="307.584"/>
      </g>
     </g>
     <g id="text_6">
      <!-- 1000 -->
      <defs>
       <path d="M 12.40625 8.296875 
L 28.515625 8.296875 
L 28.515625 63.921875 
L 10.984375 60.40625 
L 10.984375 69.390625 
L 28.421875 72.90625 
L 38.28125 72.90625 
L 38.28125 8.296875 
L 54.390625 8.296875 
L 54.390625 0 
L 12.40625 0 
z
" id="DejaVuSans-49"/>
      </defs>
      <g transform="translate(368.302723 322.182437)scale(0.1 -0.1)">
       <use xlink:href="#DejaVuSans-49"/>
       <use x="63.623047" xlink:href="#DejaVuSans-48"/>
       <use x="127.246094" xlink:href="#DejaVuSans-48"/>
       <use x="190.869141" xlink:href="#DejaVuSans-48"/>
      </g>
     </g>
    </g>
    <g id="text_7">
     <!-- max_temp_admission -->
     <defs>
      <path d="M 52 44.1875 
Q 55.375 50.25 60.0625 53.125 
Q 64.75 56 71.09375 56 
Q 79.640625 56 84.28125 50.015625 
Q 88.921875 44.046875 88.921875 33.015625 
L 88.921875 0 
L 79.890625 0 
L 79.890625 32.71875 
Q 79.890625 40.578125 77.09375 44.375 
Q 74.3125 48.1875 68.609375 48.1875 
Q 61.625 48.1875 57.5625 43.546875 
Q 53.515625 38.921875 53.515625 30.90625 
L 53.515625 0 
L 44.484375 0 
L 44.484375 32.71875 
Q 44.484375 40.625 41.703125 44.40625 
Q 38.921875 48.1875 33.109375 48.1875 
Q 26.21875 48.1875 22.15625 43.53125 
Q 18.109375 38.875 18.109375 30.90625 
L 18.109375 0 
L 9.078125 0 
L 9.078125 54.6875 
L 18.109375 54.6875 
L 18.109375 46.1875 
Q 21.1875 51.21875 25.484375 53.609375 
Q 29.78125 56 35.6875 56 
Q 41.65625 56 45.828125 52.96875 
Q 50 49.953125 52 44.1875 
z
" id="DejaVuSans-109"/>
      <path d="M 34.28125 27.484375 
Q 23.390625 27.484375 19.1875 25 
Q 14.984375 22.515625 14.984375 16.5 
Q 14.984375 11.71875 18.140625 8.90625 
Q 21.296875 6.109375 26.703125 6.109375 
Q 34.1875 6.109375 38.703125 11.40625 
Q 43.21875 16.703125 43.21875 25.484375 
L 43.21875 27.484375 
z
M 52.203125 31.203125 
L 52.203125 0 
L 43.21875 0 
L 43.21875 8.296875 
Q 40.140625 3.328125 35.546875 0.953125 
Q 30.953125 -1.421875 24.3125 -1.421875 
Q 15.921875 -1.421875 10.953125 3.296875 
Q 6 8.015625 6 15.921875 
Q 6 25.140625 12.171875 29.828125 
Q 18.359375 34.515625 30.609375 34.515625 
L 43.21875 34.515625 
L 43.21875 35.40625 
Q 43.21875 41.609375 39.140625 45 
Q 35.0625 48.390625 27.6875 48.390625 
Q 23 48.390625 18.546875 47.265625 
Q 14.109375 46.140625 10.015625 43.890625 
L 10.015625 52.203125 
Q 14.9375 54.109375 19.578125 55.046875 
Q 24.21875 56 28.609375 56 
Q 40.484375 56 46.34375 49.84375 
Q 52.203125 43.703125 52.203125 31.203125 
z
" id="DejaVuSans-97"/>
      <path d="M 54.890625 54.6875 
L 35.109375 28.078125 
L 55.90625 0 
L 45.3125 0 
L 29.390625 21.484375 
L 13.484375 0 
L 2.875 0 
L 24.125 28.609375 
L 4.6875 54.6875 
L 15.28125 54.6875 
L 29.78125 35.203125 
L 44.28125 54.6875 
z
" id="DejaVuSans-120"/>
      <path d="M 50.984375 -16.609375 
L 50.984375 -23.578125 
L -0.984375 -23.578125 
L -0.984375 -16.609375 
z
" id="DejaVuSans-95"/>
      <path d="M 18.3125 70.21875 
L 18.3125 54.6875 
L 36.8125 54.6875 
L 36.8125 47.703125 
L 18.3125 47.703125 
L 18.3125 18.015625 
Q 18.3125 11.328125 20.140625 9.421875 
Q 21.96875 7.515625 27.59375 7.515625 
L 36.8125 7.515625 
L 36.8125 0 
L 27.59375 0 
Q 17.1875 0 13.234375 3.875 
Q 9.28125 7.765625 9.28125 18.015625 
L 9.28125 47.703125 
L 2.6875 47.703125 
L 2.6875 54.6875 
L 9.28125 54.6875 
L 9.28125 70.21875 
z
" id="DejaVuSans-116"/>
      <path d="M 56.203125 29.59375 
L 56.203125 25.203125 
L 14.890625 25.203125 
Q 15.484375 15.921875 20.484375 11.0625 
Q 25.484375 6.203125 34.421875 6.203125 
Q 39.59375 6.203125 44.453125 7.46875 
Q 49.3125 8.734375 54.109375 11.28125 
L 54.109375 2.78125 
Q 49.265625 0.734375 44.1875 -0.34375 
Q 39.109375 -1.421875 33.890625 -1.421875 
Q 20.796875 -1.421875 13.15625 6.1875 
Q 5.515625 13.8125 5.515625 26.8125 
Q 5.515625 40.234375 12.765625 48.109375 
Q 20.015625 56 32.328125 56 
Q 43.359375 56 49.78125 48.890625 
Q 56.203125 41.796875 56.203125 29.59375 
z
M 47.21875 32.234375 
Q 47.125 39.59375 43.09375 43.984375 
Q 39.0625 48.390625 32.421875 48.390625 
Q 24.90625 48.390625 20.390625 44.140625 
Q 15.875 39.890625 15.1875 32.171875 
z
" id="DejaVuSans-101"/>
      <path d="M 18.109375 8.203125 
L 18.109375 -20.796875 
L 9.078125 -20.796875 
L 9.078125 54.6875 
L 18.109375 54.6875 
L 18.109375 46.390625 
Q 20.953125 51.265625 25.265625 53.625 
Q 29.59375 56 35.59375 56 
Q 45.5625 56 51.78125 48.09375 
Q 58.015625 40.1875 58.015625 27.296875 
Q 58.015625 14.40625 51.78125 6.484375 
Q 45.5625 -1.421875 35.59375 -1.421875 
Q 29.59375 -1.421875 25.265625 0.953125 
Q 20.953125 3.328125 18.109375 8.203125 
z
M 48.6875 27.296875 
Q 48.6875 37.203125 44.609375 42.84375 
Q 40.53125 48.484375 33.40625 48.484375 
Q 26.265625 48.484375 22.1875 42.84375 
Q 18.109375 37.203125 18.109375 27.296875 
Q 18.109375 17.390625 22.1875 11.75 
Q 26.265625 6.109375 33.40625 6.109375 
Q 40.53125 6.109375 44.609375 11.75 
Q 48.6875 17.390625 48.6875 27.296875 
z
" id="DejaVuSans-112"/>
      <path d="M 45.40625 46.390625 
L 45.40625 75.984375 
L 54.390625 75.984375 
L 54.390625 0 
L 45.40625 0 
L 45.40625 8.203125 
Q 42.578125 3.328125 38.25 0.953125 
Q 33.9375 -1.421875 27.875 -1.421875 
Q 17.96875 -1.421875 11.734375 6.484375 
Q 5.515625 14.40625 5.515625 27.296875 
Q 5.515625 40.1875 11.734375 48.09375 
Q 17.96875 56 27.875 56 
Q 33.9375 56 38.25 53.625 
Q 42.578125 51.265625 45.40625 46.390625 
z
M 14.796875 27.296875 
Q 14.796875 17.390625 18.875 11.75 
Q 22.953125 6.109375 30.078125 6.109375 
Q 37.203125 6.109375 41.296875 11.75 
Q 45.40625 17.390625 45.40625 27.296875 
Q 45.40625 37.203125 41.296875 42.84375 
Q 37.203125 48.484375 30.078125 48.484375 
Q 22.953125 48.484375 18.875 42.84375 
Q 14.796875 37.203125 14.796875 27.296875 
z
" id="DejaVuSans-100"/>
      <path d="M 9.421875 54.6875 
L 18.40625 54.6875 
L 18.40625 0 
L 9.421875 0 
z
M 9.421875 75.984375 
L 18.40625 75.984375 
L 18.40625 64.59375 
L 9.421875 64.59375 
z
" id="DejaVuSans-105"/>
      <path d="M 44.28125 53.078125 
L 44.28125 44.578125 
Q 40.484375 46.53125 36.375 47.5 
Q 32.28125 48.484375 27.875 48.484375 
Q 21.1875 48.484375 17.84375 46.4375 
Q 14.5 44.390625 14.5 40.28125 
Q 14.5 37.15625 16.890625 35.375 
Q 19.28125 33.59375 26.515625 31.984375 
L 29.59375 31.296875 
Q 39.15625 29.25 43.1875 25.515625 
Q 47.21875 21.78125 47.21875 15.09375 
Q 47.21875 7.46875 41.1875 3.015625 
Q 35.15625 -1.421875 24.609375 -1.421875 
Q 20.21875 -1.421875 15.453125 -0.5625 
Q 10.6875 0.296875 5.421875 2 
L 5.421875 11.28125 
Q 10.40625 8.6875 15.234375 7.390625 
Q 20.0625 6.109375 24.8125 6.109375 
Q 31.15625 6.109375 34.5625 8.28125 
Q 37.984375 10.453125 37.984375 14.40625 
Q 37.984375 18.0625 35.515625 20.015625 
Q 33.0625 21.96875 24.703125 23.78125 
L 21.578125 24.515625 
Q 13.234375 26.265625 9.515625 29.90625 
Q 5.8125 33.546875 5.8125 39.890625 
Q 5.8125 47.609375 11.28125 51.796875 
Q 16.75 56 26.8125 56 
Q 31.78125 56 36.171875 55.265625 
Q 40.578125 54.546875 44.28125 53.078125 
z
" id="DejaVuSans-115"/>
      <path d="M 30.609375 48.390625 
Q 23.390625 48.390625 19.1875 42.75 
Q 14.984375 37.109375 14.984375 27.296875 
Q 14.984375 17.484375 19.15625 11.84375 
Q 23.34375 6.203125 30.609375 6.203125 
Q 37.796875 6.203125 41.984375 11.859375 
Q 46.1875 17.53125 46.1875 27.296875 
Q 46.1875 37.015625 41.984375 42.703125 
Q 37.796875 48.390625 30.609375 48.390625 
z
M 30.609375 56 
Q 42.328125 56 49.015625 48.375 
Q 55.71875 40.765625 55.71875 27.296875 
Q 55.71875 13.875 49.015625 6.21875 
Q 42.328125 -1.421875 30.609375 -1.421875 
Q 18.84375 -1.421875 12.171875 6.21875 
Q 5.515625 13.875 5.515625 27.296875 
Q 5.515625 40.765625 12.171875 48.375 
Q 18.84375 56 30.609375 56 
z
" id="DejaVuSans-111"/>
      <path d="M 54.890625 33.015625 
L 54.890625 0 
L 45.90625 0 
L 45.90625 32.71875 
Q 45.90625 40.484375 42.875 44.328125 
Q 39.84375 48.1875 33.796875 48.1875 
Q 26.515625 48.1875 22.3125 43.546875 
Q 18.109375 38.921875 18.109375 30.90625 
L 18.109375 0 
L 9.078125 0 
L 9.078125 54.6875 
L 18.109375 54.6875 
L 18.109375 46.1875 
Q 21.34375 51.125 25.703125 53.5625 
Q 30.078125 56 35.796875 56 
Q 45.21875 56 50.046875 50.171875 
Q 54.890625 44.34375 54.890625 33.015625 
z
" id="DejaVuSans-110"/>
     </defs>
     <g transform="translate(181.860781 335.860562)scale(0.1 -0.1)">
      <use xlink:href="#DejaVuSans-109"/>
      <use x="97.412109" xlink:href="#DejaVuSans-97"/>
      <use x="158.691406" xlink:href="#DejaVuSans-120"/>
      <use x="217.871094" xlink:href="#DejaVuSans-95"/>
      <use x="267.871094" xlink:href="#DejaVuSans-116"/>
      <use x="307.080078" xlink:href="#DejaVuSans-101"/>
      <use x="368.603516" xlink:href="#DejaVuSans-109"/>
      <use x="466.015625" xlink:href="#DejaVuSans-112"/>
      <use x="529.492188" xlink:href="#DejaVuSans-95"/>
      <use x="579.492188" xlink:href="#DejaVuSans-97"/>
      <use x="640.771484" xlink:href="#DejaVuSans-100"/>
      <use x="704.248047" xlink:href="#DejaVuSans-109"/>
      <use x="801.660156" xlink:href="#DejaVuSans-105"/>
      <use x="829.443359" xlink:href="#DejaVuSans-115"/>
      <use x="881.542969" xlink:href="#DejaVuSans-115"/>
      <use x="933.642578" xlink:href="#DejaVuSans-105"/>
      <use x="961.425781" xlink:href="#DejaVuSans-111"/>
      <use x="1022.607422" xlink:href="#DejaVuSans-110"/>
     </g>
    </g>
   </g>
   <g id="matplotlib.axis_2">
    <g id="ytick_1">
     <g id="line2d_7">
      <defs>
       <path d="M 0 0 
L -3.5 0 
" id="m50a771f816" style="stroke:#000000;stroke-width:0.8;"/>
      </defs>
      <g>
       <use style="stroke:#000000;stroke-width:0.8;" x="57.6" xlink:href="#m50a771f816" y="174.528"/>
      </g>
     </g>
    </g>
   </g>
   <g id="line2d_8">
    <path clip-path="url(#p22c7fcedda)" d="M 91.227905 174.528 
L 92.998117 174.528 
" style="fill:none;stroke:#ffa500;stroke-linecap:square;stroke-width:1.5;"/>
   </g>
   <g id="line2d_9">
    <path clip-path="url(#p22c7fcedda)" d="M 91.871619 174.528 
L 92.322218 174.528 
" style="fill:none;stroke:#4c4c4c;stroke-linecap:square;stroke-width:4.5;"/>
   </g>
   <g id="line2d_10">
    <path clip-path="url(#p22c7fcedda)" d="M 90.423263 174.528 
L 93.223417 174.528 
" style="fill:none;stroke:#008000;stroke-linecap:square;stroke-width:1.5;"/>
   </g>
   <g id="line2d_11">
    <path clip-path="url(#p22c7fcedda)" d="M 91.453205 174.528 
L 92.225661 174.528 
" style="fill:none;stroke:#262626;stroke-linecap:square;stroke-width:4.5;"/>
   </g>
   <g id="patch_3">
    <path d="M 57.6 307.584 
L 57.6 41.472 
" style="fill:none;stroke:#000000;stroke-linecap:square;stroke-linejoin:miter;stroke-width:0.8;"/>
   </g>
   <g id="patch_4">
    <path d="M 414.72 307.584 
L 414.72 41.472 
" style="fill:none;stroke:#000000;stroke-linecap:square;stroke-linejoin:miter;stroke-width:0.8;"/>
   </g>
   <g id="patch_5">
    <path d="M 57.6 307.584 
L 414.72 307.584 
" style="fill:none;stroke:#000000;stroke-linecap:square;stroke-linejoin:miter;stroke-width:0.8;"/>
   </g>
   <g id="patch_6">
    <path d="M 57.6 41.472 
L 414.72 41.472 
" style="fill:none;stroke:#000000;stroke-linecap:square;stroke-linejoin:miter;stroke-width:0.8;"/>
   </g>
   <g id="PathCollection_1">
    <defs>
     <path d="M 0 1.5 
C 0.397805 1.5 0.77937 1.341951 1.06066 1.06066 
C 1.341951 0.77937 1.5 0.397805 1.5 0 
C 1.5 -0.397805 1.341951 -0.77937 1.06066 -1.06066 
C 0.77937 -1.341951 0.397805 -1.5 0 -1.5 
C -0.397805 -1.5 -0.77937 -1.341951 -1.06066 -1.06066 
C -1.341951 -0.77937 -1.5 -0.397805 -1.5 0 
C -1.5 0.397805 -1.341951 0.77937 -1.06066 1.06066 
C -0.77937 1.341951 -0.397805 1.5 0 1.5 
z
" id="maade924ce5" style="stroke:#4c4c4c;stroke-opacity:0.5;"/>
    </defs>
    <g clip-path="url(#p22c7fcedda)">
     <use style="fill:#ffffff;fill-opacity:0.5;stroke:#4c4c4c;stroke-opacity:0.5;" x="92.193476" xlink:href="#maade924ce5" y="174.528"/>
    </g>
   </g>
   <g id="PathCollection_2">
    <defs>
     <path d="M 0 1.5 
C 0.397805 1.5 0.77937 1.341951 1.06066 1.06066 
C 1.341951 0.77937 1.5 0.397805 1.5 0 
C 1.5 -0.397805 1.341951 -0.77937 1.06066 -1.06066 
C 0.77937 -1.341951 0.397805 -1.5 0 -1.5 
C -0.397805 -1.5 -0.77937 -1.341951 -1.06066 -1.06066 
C -1.341951 -0.77937 -1.5 -0.397805 -1.5 0 
C -1.5 0.397805 -1.341951 0.77937 -1.06066 1.06066 
C -0.77937 1.341951 -0.397805 1.5 0 1.5 
z
" id="mc592ac374e" style="stroke:#262626;stroke-opacity:0.5;"/>
    </defs>
    <g clip-path="url(#p22c7fcedda)">
     <use style="fill:#ffffff;fill-opacity:0.5;stroke:#262626;stroke-opacity:0.5;" x="91.775062" xlink:href="#mc592ac374e" y="174.528"/>
    </g>
   </g>
   <g id="text_8">
    <!-- Association of max_temp_admission vs. sepsis -->
    <defs>
     <path d="M 34.1875 63.1875 
L 20.796875 26.90625 
L 47.609375 26.90625 
z
M 28.609375 72.90625 
L 39.796875 72.90625 
L 67.578125 0 
L 57.328125 0 
L 50.6875 18.703125 
L 17.828125 18.703125 
L 11.1875 0 
L 0.78125 0 
z
" id="DejaVuSans-65"/>
     <path d="M 48.78125 52.59375 
L 48.78125 44.1875 
Q 44.96875 46.296875 41.140625 47.34375 
Q 37.3125 48.390625 33.40625 48.390625 
Q 24.65625 48.390625 19.8125 42.84375 
Q 14.984375 37.3125 14.984375 27.296875 
Q 14.984375 17.28125 19.8125 11.734375 
Q 24.65625 6.203125 33.40625 6.203125 
Q 37.3125 6.203125 41.140625 7.25 
Q 44.96875 8.296875 48.78125 10.40625 
L 48.78125 2.09375 
Q 45.015625 0.34375 40.984375 -0.53125 
Q 36.96875 -1.421875 32.421875 -1.421875 
Q 20.0625 -1.421875 12.78125 6.34375 
Q 5.515625 14.109375 5.515625 27.296875 
Q 5.515625 40.671875 12.859375 48.328125 
Q 20.21875 56 33.015625 56 
Q 37.15625 56 41.109375 55.140625 
Q 45.0625 54.296875 48.78125 52.59375 
z
" id="DejaVuSans-99"/>
     <path id="DejaVuSans-32"/>
     <path d="M 37.109375 75.984375 
L 37.109375 68.5 
L 28.515625 68.5 
Q 23.6875 68.5 21.796875 66.546875 
Q 19.921875 64.59375 19.921875 59.515625 
L 19.921875 54.6875 
L 34.71875 54.6875 
L 34.71875 47.703125 
L 19.921875 47.703125 
L 19.921875 0 
L 10.890625 0 
L 10.890625 47.703125 
L 2.296875 47.703125 
L 2.296875 54.6875 
L 10.890625 54.6875 
L 10.890625 58.5 
Q 10.890625 67.625 15.140625 71.796875 
Q 19.390625 75.984375 28.609375 75.984375 
z
" id="DejaVuSans-102"/>
     <path d="M 2.984375 54.6875 
L 12.5 54.6875 
L 29.59375 8.796875 
L 46.6875 54.6875 
L 56.203125 54.6875 
L 35.6875 0 
L 23.484375 0 
z
" id="DejaVuSans-118"/>
     <path d="M 10.6875 12.40625 
L 21 12.40625 
L 21 0 
L 10.6875 0 
z
" id="DejaVuSans-46"/>
    </defs>
    <g transform="translate(96.299062 35.472)scale(0.12 -0.12)">
     <use xlink:href="#DejaVuSans-65"/>
     <use x="68.408203" xlink:href="#DejaVuSans-115"/>
     <use x="120.507812" xlink:href="#DejaVuSans-115"/>
     <use x="172.607422" xlink:href="#DejaVuSans-111"/>
     <use x="233.789062" xlink:href="#DejaVuSans-99"/>
     <use x="288.769531" xlink:href="#DejaVuSans-105"/>
     <use x="316.552734" xlink:href="#DejaVuSans-97"/>
     <use x="377.832031" xlink:href="#DejaVuSans-116"/>
     <use x="417.041016" xlink:href="#DejaVuSans-105"/>
     <use x="444.824219" xlink:href="#DejaVuSans-111"/>
     <use x="506.005859" xlink:href="#DejaVuSans-110"/>
     <use x="569.384766" xlink:href="#DejaVuSans-32"/>
     <use x="601.171875" xlink:href="#DejaVuSans-111"/>
     <use x="662.353516" xlink:href="#DejaVuSans-102"/>
     <use x="697.558594" xlink:href="#DejaVuSans-32"/>
     <use x="729.345703" xlink:href="#DejaVuSans-109"/>
     <use x="826.757812" xlink:href="#DejaVuSans-97"/>
     <use x="888.037109" xlink:href="#DejaVuSans-120"/>
     <use x="947.216797" xlink:href="#DejaVuSans-95"/>
     <use x="997.216797" xlink:href="#DejaVuSans-116"/>
     <use x="1036.425781" xlink:href="#DejaVuSans-101"/>
     <use x="1097.949219" xlink:href="#DejaVuSans-109"/>
     <use x="1195.361328" xlink:href="#DejaVuSans-112"/>
     <use x="1258.837891" xlink:href="#DejaVuSans-95"/>
     <use x="1308.837891" xlink:href="#DejaVuSans-97"/>
     <use x="1370.117188" xlink:href="#DejaVuSans-100"/>
     <use x="1433.59375" xlink:href="#DejaVuSans-109"/>
     <use x="1531.005859" xlink:href="#DejaVuSans-105"/>
     <use x="1558.789062" xlink:href="#DejaVuSans-115"/>
     <use x="1610.888672" xlink:href="#DejaVuSans-115"/>
     <use x="1662.988281" xlink:href="#DejaVuSans-105"/>
     <use x="1690.771484" xlink:href="#DejaVuSans-111"/>
     <use x="1751.953125" xlink:href="#DejaVuSans-110"/>
     <use x="1815.332031" xlink:href="#DejaVuSans-32"/>
     <use x="1847.119141" xlink:href="#DejaVuSans-118"/>
     <use x="1906.298828" xlink:href="#DejaVuSans-115"/>
     <use x="1958.398438" xlink:href="#DejaVuSans-46"/>
     <use x="1990.185547" xlink:href="#DejaVuSans-32"/>
     <use x="2021.972656" xlink:href="#DejaVuSans-115"/>
     <use x="2074.072266" xlink:href="#DejaVuSans-101"/>
     <use x="2135.595703" xlink:href="#DejaVuSans-112"/>
     <use x="2199.072266" xlink:href="#DejaVuSans-115"/>
     <use x="2251.171875" xlink:href="#DejaVuSans-105"/>
     <use x="2278.955078" xlink:href="#DejaVuSans-115"/>
    </g>
   </g>
   <g id="legend_1">
    <g id="patch_7">
     <path d="M 294.045 78.82825 
L 407.72 78.82825 
Q 409.72 78.82825 409.72 76.82825 
L 409.72 48.472 
Q 409.72 46.472 407.72 46.472 
L 294.045 46.472 
Q 292.045 46.472 292.045 48.472 
L 292.045 76.82825 
Q 292.045 78.82825 294.045 78.82825 
z
" style="fill:#ffffff;opacity:0.8;stroke:#cccccc;stroke-linejoin:miter;"/>
    </g>
    <g id="line2d_12">
     <path d="M 296.045 54.570437 
L 316.045 54.570437 
" style="fill:none;stroke:#ffa500;stroke-linecap:square;stroke-width:1.5;"/>
    </g>
    <g id="line2d_13"/>
    <g id="text_9">
     <!-- sepsis (153) -->
     <defs>
      <path d="M 31 75.875 
Q 24.46875 64.65625 21.28125 53.65625 
Q 18.109375 42.671875 18.109375 31.390625 
Q 18.109375 20.125 21.3125 9.0625 
Q 24.515625 -2 31 -13.1875 
L 23.1875 -13.1875 
Q 15.875 -1.703125 12.234375 9.375 
Q 8.59375 20.453125 8.59375 31.390625 
Q 8.59375 42.28125 12.203125 53.3125 
Q 15.828125 64.359375 23.1875 75.875 
z
" id="DejaVuSans-40"/>
      <path d="M 10.796875 72.90625 
L 49.515625 72.90625 
L 49.515625 64.59375 
L 19.828125 64.59375 
L 19.828125 46.734375 
Q 21.96875 47.46875 24.109375 47.828125 
Q 26.265625 48.1875 28.421875 48.1875 
Q 40.625 48.1875 47.75 41.5 
Q 54.890625 34.8125 54.890625 23.390625 
Q 54.890625 11.625 47.5625 5.09375 
Q 40.234375 -1.421875 26.90625 -1.421875 
Q 22.3125 -1.421875 17.546875 -0.640625 
Q 12.796875 0.140625 7.71875 1.703125 
L 7.71875 11.625 
Q 12.109375 9.234375 16.796875 8.0625 
Q 21.484375 6.890625 26.703125 6.890625 
Q 35.15625 6.890625 40.078125 11.328125 
Q 45.015625 15.765625 45.015625 23.390625 
Q 45.015625 31 40.078125 35.4375 
Q 35.15625 39.890625 26.703125 39.890625 
Q 22.75 39.890625 18.8125 39.015625 
Q 14.890625 38.140625 10.796875 36.28125 
z
" id="DejaVuSans-53"/>
      <path d="M 40.578125 39.3125 
Q 47.65625 37.796875 51.625 33 
Q 55.609375 28.21875 55.609375 21.1875 
Q 55.609375 10.40625 48.1875 4.484375 
Q 40.765625 -1.421875 27.09375 -1.421875 
Q 22.515625 -1.421875 17.65625 -0.515625 
Q 12.796875 0.390625 7.625 2.203125 
L 7.625 11.71875 
Q 11.71875 9.328125 16.59375 8.109375 
Q 21.484375 6.890625 26.8125 6.890625 
Q 36.078125 6.890625 40.9375 10.546875 
Q 45.796875 14.203125 45.796875 21.1875 
Q 45.796875 27.640625 41.28125 31.265625 
Q 36.765625 34.90625 28.71875 34.90625 
L 20.21875 34.90625 
L 20.21875 43.015625 
L 29.109375 43.015625 
Q 36.375 43.015625 40.234375 45.921875 
Q 44.09375 48.828125 44.09375 54.296875 
Q 44.09375 59.90625 40.109375 62.90625 
Q 36.140625 65.921875 28.71875 65.921875 
Q 24.65625 65.921875 20.015625 65.03125 
Q 15.375 64.15625 9.8125 62.3125 
L 9.8125 71.09375 
Q 15.4375 72.65625 20.34375 73.4375 
Q 25.25 74.21875 29.59375 74.21875 
Q 40.828125 74.21875 47.359375 69.109375 
Q 53.90625 64.015625 53.90625 55.328125 
Q 53.90625 49.265625 50.4375 45.09375 
Q 46.96875 40.921875 40.578125 39.3125 
z
" id="DejaVuSans-51"/>
      <path d="M 8.015625 75.875 
L 15.828125 75.875 
Q 23.140625 64.359375 26.78125 53.3125 
Q 30.421875 42.28125 30.421875 31.390625 
Q 30.421875 20.453125 26.78125 9.375 
Q 23.140625 -1.703125 15.828125 -13.1875 
L 8.015625 -13.1875 
Q 14.5 -2 17.703125 9.0625 
Q 20.90625 20.125 20.90625 31.390625 
Q 20.90625 42.671875 17.703125 53.65625 
Q 14.5 64.65625 8.015625 75.875 
z
" id="DejaVuSans-41"/>
     </defs>
     <g transform="translate(324.045 58.070437)scale(0.1 -0.1)">
      <use xlink:href="#DejaVuSans-115"/>
      <use x="52.099609" xlink:href="#DejaVuSans-101"/>
      <use x="113.623047" xlink:href="#DejaVuSans-112"/>
      <use x="177.099609" xlink:href="#DejaVuSans-115"/>
      <use x="229.199219" xlink:href="#DejaVuSans-105"/>
      <use x="256.982422" xlink:href="#DejaVuSans-115"/>
      <use x="309.082031" xlink:href="#DejaVuSans-32"/>
      <use x="340.869141" xlink:href="#DejaVuSans-40"/>
      <use x="379.882812" xlink:href="#DejaVuSans-49"/>
      <use x="443.505859" xlink:href="#DejaVuSans-53"/>
      <use x="507.128906" xlink:href="#DejaVuSans-51"/>
      <use x="570.751953" xlink:href="#DejaVuSans-41"/>
     </g>
    </g>
    <g id="line2d_14">
     <path d="M 296.045 69.248562 
L 316.045 69.248562 
" style="fill:none;stroke:#008000;stroke-linecap:square;stroke-width:1.5;"/>
    </g>
    <g id="line2d_15"/>
    <g id="text_10">
     <!-- Not sepsis (334) -->
     <defs>
      <path d="M 9.8125 72.90625 
L 23.09375 72.90625 
L 55.421875 11.921875 
L 55.421875 72.90625 
L 64.984375 72.90625 
L 64.984375 0 
L 51.703125 0 
L 19.390625 60.984375 
L 19.390625 0 
L 9.8125 0 
z
" id="DejaVuSans-78"/>
     </defs>
     <g transform="translate(324.045 72.748562)scale(0.1 -0.1)">
      <use xlink:href="#DejaVuSans-78"/>
      <use x="74.804688" xlink:href="#DejaVuSans-111"/>
      <use x="135.986328" xlink:href="#DejaVuSans-116"/>
      <use x="175.195312" xlink:href="#DejaVuSans-32"/>
      <use x="206.982422" xlink:href="#DejaVuSans-115"/>
      <use x="259.082031" xlink:href="#DejaVuSans-101"/>
      <use x="320.605469" xlink:href="#DejaVuSans-112"/>
      <use x="384.082031" xlink:href="#DejaVuSans-115"/>
      <use x="436.181641" xlink:href="#DejaVuSans-105"/>
      <use x="463.964844" xlink:href="#DejaVuSans-115"/>
      <use x="516.064453" xlink:href="#DejaVuSans-32"/>
      <use x="547.851562" xlink:href="#DejaVuSans-40"/>
      <use x="586.865234" xlink:href="#DejaVuSans-51"/>
      <use x="650.488281" xlink:href="#DejaVuSans-51"/>
      <use x="714.111328" xlink:href="#DejaVuSans-52"/>
      <use x="777.734375" xlink:href="#DejaVuSans-41"/>
     </g>
    </g>
   </g>
  </g>
 </g>
 <defs>
  <clipPath id="p22c7fcedda">
   <rect height="266.112" width="357.12" x="57.6" y="41.472"/>
  </clipPath>
 </defs>
</svg>
