<?xml version="1.0" encoding="utf-8" standalone="no"?>
<!DOCTYPE svg PUBLIC "-//W3C//DTD SVG 1.1//EN"
  "http://www.w3.org/Graphics/SVG/1.1/DTD/svg11.dtd">
<!-- Created with matplotlib (https://matplotlib.org/) -->
<svg height="345.6pt" version="1.1" viewBox="0 0 460.8 345.6" width="460.8pt" xmlns="http://www.w3.org/2000/svg" xmlns:xlink="http://www.w3.org/1999/xlink">
 <defs>
  <style type="text/css">
*{stroke-linecap:butt;stroke-linejoin:round;}
  </style>
 </defs>
 <g id="figure_1">
  <g id="patch_1">
   <path d="M 0 345.6 
L 460.8 345.6 
L 460.8 0 
L 0 0 
z
" style="fill:#ffffff;"/>
  </g>
  <g id="axes_1">
   <g id="patch_2">
    <path d="M 57.6 307.584 
L 414.72 307.584 
L 414.72 41.472 
L 57.6 41.472 
z
" style="fill:#ffffff;"/>
   </g>
   <g id="PolyCollection_1">
    <defs>
     <path d="M 73.832727 -166.53907 
L 73.832727 -175.60493 
L 77.112066 -177.223021 
L 80.391405 -179.290235 
L 83.670744 -181.883935 
L 86.950083 -185.079285 
L 90.229421 -188.943623 
L 93.50876 -193.529904 
L 96.788099 -198.869613 
L 100.067438 -204.965702 
L 103.346777 -211.78625 
L 106.626116 -219.259626 
L 109.905455 -227.271873 
L 113.184793 -235.666989 
L 116.464132 -244.250508 
L 119.743471 -252.796527 
L 123.02281 -261.057943 
L 126.302149 -268.779325 
L 129.581488 -275.711467 
L 132.860826 -281.626454 
L 136.140165 -286.331918 
L 139.419504 -289.683175 
L 142.698843 -291.592113 
L 145.978182 -292.032 
L 149.257521 -291.037802 
L 152.53686 -288.702036 
L 155.816198 -285.166651 
L 159.095537 -280.611811 
L 162.374876 -275.242706 
L 165.654215 -269.275671 
L 168.933554 -262.924853 
L 172.212893 -256.390505 
L 175.492231 -249.849752 
L 178.77157 -243.450285 
L 182.050909 -237.307157 
L 185.330248 -231.502483 
L 188.609587 -226.087615 
L 191.888926 -221.087178 
L 195.168264 -216.504274 
L 198.447603 -212.32617 
L 201.726942 -208.529854 
L 205.006281 -205.086996 
L 208.28562 -201.967971 
L 211.564959 -199.14479 
L 214.844298 -196.592921 
L 218.123636 -194.292079 
L 221.402975 -192.226187 
L 224.682314 -190.382704 
L 227.961653 -188.751577 
L 231.240992 -187.324019 
L 234.520331 -186.091316 
L 237.799669 -185.043782 
L 241.079008 -184.169966 
L 244.358347 -183.456157 
L 247.637686 -182.886188 
L 250.917025 -182.441527 
L 254.196364 -182.101631 
L 257.475702 -181.844517 
L 260.755041 -181.64751 
L 264.03438 -181.488134 
L 267.313719 -181.345096 
L 270.593058 -181.199305 
L 273.872397 -181.034874 
L 277.151736 -180.840015 
L 280.431074 -180.607764 
L 283.710413 -180.336435 
L 286.989752 -180.02973 
L 290.269091 -179.696465 
L 293.54843 -179.34986 
L 296.827769 -179.006435 
L 300.107107 -178.684551 
L 303.386446 -178.402709 
L 306.665785 -178.177743 
L 309.945124 -178.023058 
L 313.224463 -177.947104 
L 316.503802 -177.952231 
L 319.78314 -178.034064 
L 323.062479 -178.181484 
L 326.341818 -178.377243 
L 329.621157 -178.599173 
L 332.900496 -178.821899 
L 336.179835 -179.018876 
L 339.459174 -179.164573 
L 342.738512 -179.236573 
L 346.017851 -179.217377 
L 349.29719 -179.095751 
L 352.576529 -178.86746 
L 355.855868 -178.535371 
L 359.135207 -178.108914 
L 362.414545 -177.603 
L 365.693884 -177.036545 
L 368.973223 -176.430767 
L 372.252562 -175.807455 
L 375.531901 -175.187369 
L 378.81124 -174.588921 
L 382.090579 -174.027233 
L 385.369917 -173.513591 
L 388.649256 -173.055305 
L 391.928595 -172.655903 
L 395.207934 -172.315603 
L 398.487273 -172.031935 
L 398.487273 -170.112065 
L 398.487273 -170.112065 
L 395.207934 -169.828397 
L 391.928595 -169.488097 
L 388.649256 -169.088695 
L 385.369917 -168.630409 
L 382.090579 -168.116767 
L 378.81124 -167.555079 
L 375.531901 -166.956631 
L 372.252562 -166.336545 
L 368.973223 -165.713233 
L 365.693884 -165.107455 
L 362.414545 -164.541 
L 359.135207 -164.035086 
L 355.855868 -163.608629 
L 352.576529 -163.27654 
L 349.29719 -163.048249 
L 346.017851 -162.926623 
L 342.738512 -162.907427 
L 339.459174 -162.979427 
L 336.179835 -163.125124 
L 332.900496 -163.322101 
L 329.621157 -163.544827 
L 326.341818 -163.766757 
L 323.062479 -163.962516 
L 319.78314 -164.109936 
L 316.503802 -164.191769 
L 313.224463 -164.196896 
L 309.945124 -164.120942 
L 306.665785 -163.966257 
L 303.386446 -163.741291 
L 300.107107 -163.459449 
L 296.827769 -163.137565 
L 293.54843 -162.79414 
L 290.269091 -162.447535 
L 286.989752 -162.11427 
L 283.710413 -161.807565 
L 280.431074 -161.536236 
L 277.151736 -161.303985 
L 273.872397 -161.109126 
L 270.593058 -160.944695 
L 267.313719 -160.798904 
L 264.03438 -160.655866 
L 260.755041 -160.49649 
L 257.475702 -160.299483 
L 254.196364 -160.042369 
L 250.917025 -159.702473 
L 247.637686 -159.257812 
L 244.358347 -158.687843 
L 241.079008 -157.974034 
L 237.799669 -157.100218 
L 234.520331 -156.052684 
L 231.240992 -154.819981 
L 227.961653 -153.392423 
L 224.682314 -151.761296 
L 221.402975 -149.917813 
L 218.123636 -147.851921 
L 214.844298 -145.551079 
L 211.564959 -142.99921 
L 208.28562 -140.176029 
L 205.006281 -137.057004 
L 201.726942 -133.614146 
L 198.447603 -129.81783 
L 195.168264 -125.639726 
L 191.888926 -121.056822 
L 188.609587 -116.056385 
L 185.330248 -110.641517 
L 182.050909 -104.836843 
L 178.77157 -98.693715 
L 175.492231 -92.294248 
L 172.212893 -85.753495 
L 168.933554 -79.219147 
L 165.654215 -72.868329 
L 162.374876 -66.901294 
L 159.095537 -61.532189 
L 155.816198 -56.977349 
L 152.53686 -53.441964 
L 149.257521 -51.106198 
L 145.978182 -50.112 
L 142.698843 -50.551887 
L 139.419504 -52.460825 
L 136.140165 -55.812082 
L 132.860826 -60.517546 
L 129.581488 -66.432533 
L 126.302149 -73.364675 
L 123.02281 -81.086057 
L 119.743471 -89.347473 
L 116.464132 -97.893492 
L 113.184793 -106.477011 
L 109.905455 -114.872127 
L 106.626116 -122.884374 
L 103.346777 -130.35775 
L 100.067438 -137.178298 
L 96.788099 -143.274387 
L 93.50876 -148.614096 
L 90.229421 -153.200377 
L 86.950083 -157.064715 
L 83.670744 -160.260065 
L 80.391405 -162.853765 
L 77.112066 -164.920979 
L 73.832727 -166.53907 
z
" id="m0c549f7118" style="stroke:#4c4c4c;stroke-opacity:0.5;stroke-width:1.5;"/>
    </defs>
    <g clip-path="url(#ped9ff2f304)">
     <use style="fill:#df9c20;fill-opacity:0.5;stroke:#4c4c4c;stroke-opacity:0.5;stroke-width:1.5;" x="0" xlink:href="#m0c549f7118" y="345.6"/>
    </g>
   </g>
   <g id="PolyCollection_2">
    <defs>
     <path d="M 100.02073 -165.667763 
L 100.02073 -176.476237 
L 101.994925 -178.775613 
L 103.96912 -181.80215 
L 105.943316 -185.678782 
L 107.917511 -190.509407 
L 109.891706 -196.363086 
L 111.865901 -203.257953 
L 113.840097 -211.147117 
L 115.814292 -219.909039 
L 117.788487 -229.344611 
L 119.762683 -239.182474 
L 121.736878 -249.092955 
L 123.711073 -258.70971 
L 125.685268 -267.656865 
L 127.659464 -275.578523 
L 129.633659 -282.167089 
L 131.607854 -287.187092 
L 133.582049 -290.491917 
L 135.556245 -292.032 
L 137.53044 -291.854225 
L 139.504635 -290.093329 
L 141.47883 -286.956859 
L 143.453026 -282.705624 
L 145.427221 -277.631628 
L 147.401416 -272.035388 
L 149.375611 -266.204315 
L 151.349807 -260.393665 
L 153.324002 -254.811355 
L 155.298197 -249.607718 
L 157.272392 -244.870926 
L 159.246588 -240.628336 
L 161.220783 -236.853413 
L 163.194978 -233.47727 
L 165.169174 -230.403321 
L 167.143369 -227.523179 
L 169.117564 -224.731911 
L 171.091759 -221.940918 
L 173.065955 -219.087228 
L 175.04015 -216.138539 
L 177.014345 -213.093972 
L 178.98854 -209.981038 
L 180.962736 -206.849678 
L 182.936931 -203.764451 
L 184.911126 -200.795997 
L 186.885321 -198.012762 
L 188.859517 -195.473826 
L 190.833712 -193.223406 
L 192.807907 -191.287359 
L 194.782102 -189.671757 
L 196.756298 -188.363403 
L 198.730493 -187.331996 
L 200.704688 -186.533549 
L 202.678884 -185.91462 
L 204.653079 -185.416941 
L 206.627274 -184.982064 
L 208.601469 -184.555681 
L 210.575665 -184.091369 
L 212.54986 -183.553509 
L 214.524055 -182.919226 
L 216.49825 -182.179191 
L 218.472446 -181.337257 
L 220.446641 -180.408965 
L 222.420836 -179.419081 
L 224.395031 -178.398459 
L 226.369227 -177.380589 
L 228.343422 -176.398263 
L 230.317617 -175.480729 
L 232.291812 -174.651638 
L 234.266008 -173.92795 
L 236.240203 -173.319787 
L 238.214398 -172.831088 
L 240.188593 -172.460815 
L 242.162789 -172.204372 
L 244.136984 -172.054959 
L 246.111179 -172.004591 
L 248.085375 -172.044643 
L 250.05957 -172.165896 
L 252.033765 -172.358152 
L 254.00796 -172.609624 
L 255.982156 -172.906319 
L 257.956351 -173.231669 
L 259.930546 -173.56662 
L 261.904741 -173.890286 
L 263.878937 -174.181187 
L 265.853132 -174.418922 
L 267.827327 -174.586057 
L 269.801522 -174.669907 
L 271.775718 -174.663912 
L 273.749913 -174.568347 
L 275.724108 -174.390222 
L 277.698303 -174.142386 
L 279.672499 -173.841967 
L 281.646694 -173.508401 
L 283.620889 -173.161367 
L 285.595085 -172.818917 
L 287.56928 -172.496037 
L 289.543475 -172.203779 
L 291.51767 -171.948987 
L 293.491866 -171.734546 
L 295.466061 -171.560012 
L 295.466061 -170.583988 
L 295.466061 -170.583988 
L 293.491866 -170.409454 
L 291.51767 -170.195013 
L 289.543475 -169.940221 
L 287.56928 -169.647963 
L 285.595085 -169.325083 
L 283.620889 -168.982633 
L 281.646694 -168.635599 
L 279.672499 -168.302033 
L 277.698303 -168.001614 
L 275.724108 -167.753778 
L 273.749913 -167.575653 
L 271.775718 -167.480088 
L 269.801522 -167.474093 
L 267.827327 -167.557943 
L 265.853132 -167.725078 
L 263.878937 -167.962813 
L 261.904741 -168.253714 
L 259.930546 -168.57738 
L 257.956351 -168.912331 
L 255.982156 -169.237681 
L 254.00796 -169.534376 
L 252.033765 -169.785848 
L 250.05957 -169.978104 
L 248.085375 -170.099357 
L 246.111179 -170.139409 
L 244.136984 -170.089041 
L 242.162789 -169.939628 
L 240.188593 -169.683185 
L 238.214398 -169.312912 
L 236.240203 -168.824213 
L 234.266008 -168.21605 
L 232.291812 -167.492362 
L 230.317617 -166.663271 
L 228.343422 -165.745737 
L 226.369227 -164.763411 
L 224.395031 -163.745541 
L 222.420836 -162.724919 
L 220.446641 -161.735035 
L 218.472446 -160.806743 
L 216.49825 -159.964809 
L 214.524055 -159.224774 
L 212.54986 -158.590491 
L 210.575665 -158.052631 
L 208.601469 -157.588319 
L 206.627274 -157.161936 
L 204.653079 -156.727059 
L 202.678884 -156.22938 
L 200.704688 -155.610451 
L 198.730493 -154.812004 
L 196.756298 -153.780597 
L 194.782102 -152.472243 
L 192.807907 -150.856641 
L 190.833712 -148.920594 
L 188.859517 -146.670174 
L 186.885321 -144.131238 
L 184.911126 -141.348003 
L 182.936931 -138.379549 
L 180.962736 -135.294322 
L 178.98854 -132.162962 
L 177.014345 -129.050028 
L 175.04015 -126.005461 
L 173.065955 -123.056772 
L 171.091759 -120.203082 
L 169.117564 -117.412089 
L 167.143369 -114.620821 
L 165.169174 -111.740679 
L 163.194978 -108.66673 
L 161.220783 -105.290587 
L 159.246588 -101.515664 
L 157.272392 -97.273074 
L 155.298197 -92.536282 
L 153.324002 -87.332645 
L 151.349807 -81.750335 
L 149.375611 -75.939685 
L 147.401416 -70.108612 
L 145.427221 -64.512372 
L 143.453026 -59.438376 
L 141.47883 -55.187141 
L 139.504635 -52.050671 
L 137.53044 -50.289775 
L 135.556245 -50.112 
L 133.582049 -51.652083 
L 131.607854 -54.956908 
L 129.633659 -59.976911 
L 127.659464 -66.565477 
L 125.685268 -74.487135 
L 123.711073 -83.43429 
L 121.736878 -93.051045 
L 119.762683 -102.961526 
L 117.788487 -112.799389 
L 115.814292 -122.234961 
L 113.840097 -130.996883 
L 111.865901 -138.886047 
L 109.891706 -145.780914 
L 107.917511 -151.634593 
L 105.943316 -156.465218 
L 103.96912 -160.34185 
L 101.994925 -163.368387 
L 100.02073 -165.667763 
z
" id="me41d369aa0" style="stroke:#262626;stroke-opacity:0.5;stroke-width:1.5;"/>
    </defs>
    <g clip-path="url(#ped9ff2f304)">
     <use style="fill:#107010;fill-opacity:0.5;stroke:#262626;stroke-opacity:0.5;stroke-width:1.5;" x="0" xlink:href="#me41d369aa0" y="345.6"/>
    </g>
   </g>
   <g id="matplotlib.axis_1">
    <g id="xtick_1">
     <g id="line2d_1">
      <defs>
       <path d="M 0 0 
L 0 3.5 
" id="m5b21169e5a" style="stroke:#000000;stroke-width:0.8;"/>
      </defs>
      <g>
       <use style="stroke:#000000;stroke-width:0.8;" x="75.812954" xlink:href="#m5b21169e5a" y="307.584"/>
      </g>
     </g>
     <g id="text_1">
      <!-- −2000 -->
      <defs>
       <path d="M 10.59375 35.5 
L 73.1875 35.5 
L 73.1875 27.203125 
L 10.59375 27.203125 
z
" id="DejaVuSans-8722"/>
       <path d="M 19.1875 8.296875 
L 53.609375 8.296875 
L 53.609375 0 
L 7.328125 0 
L 7.328125 8.296875 
Q 12.9375 14.109375 22.625 23.890625 
Q 32.328125 33.6875 34.8125 36.53125 
Q 39.546875 41.84375 41.421875 45.53125 
Q 43.3125 49.21875 43.3125 52.78125 
Q 43.3125 58.59375 39.234375 62.25 
Q 35.15625 65.921875 28.609375 65.921875 
Q 23.96875 65.921875 18.8125 64.3125 
Q 13.671875 62.703125 7.8125 59.421875 
L 7.8125 69.390625 
Q 13.765625 71.78125 18.9375 73 
Q 24.125 74.21875 28.421875 74.21875 
Q 39.75 74.21875 46.484375 68.546875 
Q 53.21875 62.890625 53.21875 53.421875 
Q 53.21875 48.921875 51.53125 44.890625 
Q 49.859375 40.875 45.40625 35.40625 
Q 44.1875 33.984375 37.640625 27.21875 
Q 31.109375 20.453125 19.1875 8.296875 
z
" id="DejaVuSans-50"/>
       <path d="M 31.78125 66.40625 
Q 24.171875 66.40625 20.328125 58.90625 
Q 16.5 51.421875 16.5 36.375 
Q 16.5 21.390625 20.328125 13.890625 
Q 24.171875 6.390625 31.78125 6.390625 
Q 39.453125 6.390625 43.28125 13.890625 
Q 47.125 21.390625 47.125 36.375 
Q 47.125 51.421875 43.28125 58.90625 
Q 39.453125 66.40625 31.78125 66.40625 
z
M 31.78125 74.21875 
Q 44.046875 74.21875 50.515625 64.515625 
Q 56.984375 54.828125 56.984375 36.375 
Q 56.984375 17.96875 50.515625 8.265625 
Q 44.046875 -1.421875 31.78125 -1.421875 
Q 19.53125 -1.421875 13.0625 8.265625 
Q 6.59375 17.96875 6.59375 36.375 
Q 6.59375 54.828125 13.0625 64.515625 
Q 19.53125 74.21875 31.78125 74.21875 
z
" id="DejaVuSans-48"/>
      </defs>
      <g transform="translate(58.89811 322.182437)scale(0.1 -0.1)">
       <use xlink:href="#DejaVuSans-8722"/>
       <use x="83.789062" xlink:href="#DejaVuSans-50"/>
       <use x="147.412109" xlink:href="#DejaVuSans-48"/>
       <use x="211.035156" xlink:href="#DejaVuSans-48"/>
       <use x="274.658203" xlink:href="#DejaVuSans-48"/>
      </g>
     </g>
    </g>
    <g id="xtick_2">
     <g id="line2d_2">
      <g>
       <use style="stroke:#000000;stroke-width:0.8;" x="123.788733" xlink:href="#m5b21169e5a" y="307.584"/>
      </g>
     </g>
     <g id="text_2">
      <!-- 0 -->
      <g transform="translate(120.607483 322.182437)scale(0.1 -0.1)">
       <use xlink:href="#DejaVuSans-48"/>
      </g>
     </g>
    </g>
    <g id="xtick_3">
     <g id="line2d_3">
      <g>
       <use style="stroke:#000000;stroke-width:0.8;" x="171.764511" xlink:href="#m5b21169e5a" y="307.584"/>
      </g>
     </g>
     <g id="text_3">
      <!-- 2000 -->
      <g transform="translate(159.039511 322.182437)scale(0.1 -0.1)">
       <use xlink:href="#DejaVuSans-50"/>
       <use x="63.623047" xlink:href="#DejaVuSans-48"/>
       <use x="127.246094" xlink:href="#DejaVuSans-48"/>
       <use x="190.869141" xlink:href="#DejaVuSans-48"/>
      </g>
     </g>
    </g>
    <g id="xtick_4">
     <g id="line2d_4">
      <g>
       <use style="stroke:#000000;stroke-width:0.8;" x="219.74029" xlink:href="#m5b21169e5a" y="307.584"/>
      </g>
     </g>
     <g id="text_4">
      <!-- 4000 -->
      <defs>
       <path d="M 37.796875 64.3125 
L 12.890625 25.390625 
L 37.796875 25.390625 
z
M 35.203125 72.90625 
L 47.609375 72.90625 
L 47.609375 25.390625 
L 58.015625 25.390625 
L 58.015625 17.1875 
L 47.609375 17.1875 
L 47.609375 0 
L 37.796875 0 
L 37.796875 17.1875 
L 4.890625 17.1875 
L 4.890625 26.703125 
z
" id="DejaVuSans-52"/>
      </defs>
      <g transform="translate(207.01529 322.182437)scale(0.1 -0.1)">
       <use xlink:href="#DejaVuSans-52"/>
       <use x="63.623047" xlink:href="#DejaVuSans-48"/>
       <use x="127.246094" xlink:href="#DejaVuSans-48"/>
       <use x="190.869141" xlink:href="#DejaVuSans-48"/>
      </g>
     </g>
    </g>
    <g id="xtick_5">
     <g id="line2d_5">
      <g>
       <use style="stroke:#000000;stroke-width:0.8;" x="267.716068" xlink:href="#m5b21169e5a" y="307.584"/>
      </g>
     </g>
     <g id="text_5">
      <!-- 6000 -->
      <defs>
       <path d="M 33.015625 40.375 
Q 26.375 40.375 22.484375 35.828125 
Q 18.609375 31.296875 18.609375 23.390625 
Q 18.609375 15.53125 22.484375 10.953125 
Q 26.375 6.390625 33.015625 6.390625 
Q 39.65625 6.390625 43.53125 10.953125 
Q 47.40625 15.53125 47.40625 23.390625 
Q 47.40625 31.296875 43.53125 35.828125 
Q 39.65625 40.375 33.015625 40.375 
z
M 52.59375 71.296875 
L 52.59375 62.3125 
Q 48.875 64.0625 45.09375 64.984375 
Q 41.3125 65.921875 37.59375 65.921875 
Q 27.828125 65.921875 22.671875 59.328125 
Q 17.53125 52.734375 16.796875 39.40625 
Q 19.671875 43.65625 24.015625 45.921875 
Q 28.375 48.1875 33.59375 48.1875 
Q 44.578125 48.1875 50.953125 41.515625 
Q 57.328125 34.859375 57.328125 23.390625 
Q 57.328125 12.15625 50.6875 5.359375 
Q 44.046875 -1.421875 33.015625 -1.421875 
Q 20.359375 -1.421875 13.671875 8.265625 
Q 6.984375 17.96875 6.984375 36.375 
Q 6.984375 53.65625 15.1875 63.9375 
Q 23.390625 74.21875 37.203125 74.21875 
Q 40.921875 74.21875 44.703125 73.484375 
Q 48.484375 72.75 52.59375 71.296875 
z
" id="DejaVuSans-54"/>
      </defs>
      <g transform="translate(254.991068 322.182437)scale(0.1 -0.1)">
       <use xlink:href="#DejaVuSans-54"/>
       <use x="63.623047" xlink:href="#DejaVuSans-48"/>
       <use x="127.246094" xlink:href="#DejaVuSans-48"/>
       <use x="190.869141" xlink:href="#DejaVuSans-48"/>
      </g>
     </g>
    </g>
    <g id="xtick_6">
     <g id="line2d_6">
      <g>
       <use style="stroke:#000000;stroke-width:0.8;" x="315.691847" xlink:href="#m5b21169e5a" y="307.584"/>
      </g>
     </g>
     <g id="text_6">
      <!-- 8000 -->
      <defs>
       <path d="M 31.78125 34.625 
Q 24.75 34.625 20.71875 30.859375 
Q 16.703125 27.09375 16.703125 20.515625 
Q 16.703125 13.921875 20.71875 10.15625 
Q 24.75 6.390625 31.78125 6.390625 
Q 38.8125 6.390625 42.859375 10.171875 
Q 46.921875 13.96875 46.921875 20.515625 
Q 46.921875 27.09375 42.890625 30.859375 
Q 38.875 34.625 31.78125 34.625 
z
M 21.921875 38.8125 
Q 15.578125 40.375 12.03125 44.71875 
Q 8.5 49.078125 8.5 55.328125 
Q 8.5 64.0625 14.71875 69.140625 
Q 20.953125 74.21875 31.78125 74.21875 
Q 42.671875 74.21875 48.875 69.140625 
Q 55.078125 64.0625 55.078125 55.328125 
Q 55.078125 49.078125 51.53125 44.71875 
Q 48 40.375 41.703125 38.8125 
Q 48.828125 37.15625 52.796875 32.3125 
Q 56.78125 27.484375 56.78125 20.515625 
Q 56.78125 9.90625 50.3125 4.234375 
Q 43.84375 -1.421875 31.78125 -1.421875 
Q 19.734375 -1.421875 13.25 4.234375 
Q 6.78125 9.90625 6.78125 20.515625 
Q 6.78125 27.484375 10.78125 32.3125 
Q 14.796875 37.15625 21.921875 38.8125 
z
M 18.3125 54.390625 
Q 18.3125 48.734375 21.84375 45.5625 
Q 25.390625 42.390625 31.78125 42.390625 
Q 38.140625 42.390625 41.71875 45.5625 
Q 45.3125 48.734375 45.3125 54.390625 
Q 45.3125 60.0625 41.71875 63.234375 
Q 38.140625 66.40625 31.78125 66.40625 
Q 25.390625 66.40625 21.84375 63.234375 
Q 18.3125 60.0625 18.3125 54.390625 
z
" id="DejaVuSans-56"/>
      </defs>
      <g transform="translate(302.966847 322.182437)scale(0.1 -0.1)">
       <use xlink:href="#DejaVuSans-56"/>
       <use x="63.623047" xlink:href="#DejaVuSans-48"/>
       <use x="127.246094" xlink:href="#DejaVuSans-48"/>
       <use x="190.869141" xlink:href="#DejaVuSans-48"/>
      </g>
     </g>
    </g>
    <g id="xtick_7">
     <g id="line2d_7">
      <g>
       <use style="stroke:#000000;stroke-width:0.8;" x="363.667625" xlink:href="#m5b21169e5a" y="307.584"/>
      </g>
     </g>
     <g id="text_7">
      <!-- 10000 -->
      <defs>
       <path d="M 12.40625 8.296875 
L 28.515625 8.296875 
L 28.515625 63.921875 
L 10.984375 60.40625 
L 10.984375 69.390625 
L 28.421875 72.90625 
L 38.28125 72.90625 
L 38.28125 8.296875 
L 54.390625 8.296875 
L 54.390625 0 
L 12.40625 0 
z
" id="DejaVuSans-49"/>
      </defs>
      <g transform="translate(347.761375 322.182437)scale(0.1 -0.1)">
       <use xlink:href="#DejaVuSans-49"/>
       <use x="63.623047" xlink:href="#DejaVuSans-48"/>
       <use x="127.246094" xlink:href="#DejaVuSans-48"/>
       <use x="190.869141" xlink:href="#DejaVuSans-48"/>
       <use x="254.492188" xlink:href="#DejaVuSans-48"/>
      </g>
     </g>
    </g>
    <g id="xtick_8">
     <g id="line2d_8">
      <g>
       <use style="stroke:#000000;stroke-width:0.8;" x="411.643404" xlink:href="#m5b21169e5a" y="307.584"/>
      </g>
     </g>
     <g id="text_8">
      <!-- 12000 -->
      <g transform="translate(395.737154 322.182437)scale(0.1 -0.1)">
       <use xlink:href="#DejaVuSans-49"/>
       <use x="63.623047" xlink:href="#DejaVuSans-50"/>
       <use x="127.246094" xlink:href="#DejaVuSans-48"/>
       <use x="190.869141" xlink:href="#DejaVuSans-48"/>
       <use x="254.492188" xlink:href="#DejaVuSans-48"/>
      </g>
     </g>
    </g>
    <g id="text_9">
     <!-- ferritadmac -->
     <defs>
      <path d="M 37.109375 75.984375 
L 37.109375 68.5 
L 28.515625 68.5 
Q 23.6875 68.5 21.796875 66.546875 
Q 19.921875 64.59375 19.921875 59.515625 
L 19.921875 54.6875 
L 34.71875 54.6875 
L 34.71875 47.703125 
L 19.921875 47.703125 
L 19.921875 0 
L 10.890625 0 
L 10.890625 47.703125 
L 2.296875 47.703125 
L 2.296875 54.6875 
L 10.890625 54.6875 
L 10.890625 58.5 
Q 10.890625 67.625 15.140625 71.796875 
Q 19.390625 75.984375 28.609375 75.984375 
z
" id="DejaVuSans-102"/>
      <path d="M 56.203125 29.59375 
L 56.203125 25.203125 
L 14.890625 25.203125 
Q 15.484375 15.921875 20.484375 11.0625 
Q 25.484375 6.203125 34.421875 6.203125 
Q 39.59375 6.203125 44.453125 7.46875 
Q 49.3125 8.734375 54.109375 11.28125 
L 54.109375 2.78125 
Q 49.265625 0.734375 44.1875 -0.34375 
Q 39.109375 -1.421875 33.890625 -1.421875 
Q 20.796875 -1.421875 13.15625 6.1875 
Q 5.515625 13.8125 5.515625 26.8125 
Q 5.515625 40.234375 12.765625 48.109375 
Q 20.015625 56 32.328125 56 
Q 43.359375 56 49.78125 48.890625 
Q 56.203125 41.796875 56.203125 29.59375 
z
M 47.21875 32.234375 
Q 47.125 39.59375 43.09375 43.984375 
Q 39.0625 48.390625 32.421875 48.390625 
Q 24.90625 48.390625 20.390625 44.140625 
Q 15.875 39.890625 15.1875 32.171875 
z
" id="DejaVuSans-101"/>
      <path d="M 41.109375 46.296875 
Q 39.59375 47.171875 37.8125 47.578125 
Q 36.03125 48 33.890625 48 
Q 26.265625 48 22.1875 43.046875 
Q 18.109375 38.09375 18.109375 28.8125 
L 18.109375 0 
L 9.078125 0 
L 9.078125 54.6875 
L 18.109375 54.6875 
L 18.109375 46.1875 
Q 20.953125 51.171875 25.484375 53.578125 
Q 30.03125 56 36.53125 56 
Q 37.453125 56 38.578125 55.875 
Q 39.703125 55.765625 41.0625 55.515625 
z
" id="DejaVuSans-114"/>
      <path d="M 9.421875 54.6875 
L 18.40625 54.6875 
L 18.40625 0 
L 9.421875 0 
z
M 9.421875 75.984375 
L 18.40625 75.984375 
L 18.40625 64.59375 
L 9.421875 64.59375 
z
" id="DejaVuSans-105"/>
      <path d="M 18.3125 70.21875 
L 18.3125 54.6875 
L 36.8125 54.6875 
L 36.8125 47.703125 
L 18.3125 47.703125 
L 18.3125 18.015625 
Q 18.3125 11.328125 20.140625 9.421875 
Q 21.96875 7.515625 27.59375 7.515625 
L 36.8125 7.515625 
L 36.8125 0 
L 27.59375 0 
Q 17.1875 0 13.234375 3.875 
Q 9.28125 7.765625 9.28125 18.015625 
L 9.28125 47.703125 
L 2.6875 47.703125 
L 2.6875 54.6875 
L 9.28125 54.6875 
L 9.28125 70.21875 
z
" id="DejaVuSans-116"/>
      <path d="M 34.28125 27.484375 
Q 23.390625 27.484375 19.1875 25 
Q 14.984375 22.515625 14.984375 16.5 
Q 14.984375 11.71875 18.140625 8.90625 
Q 21.296875 6.109375 26.703125 6.109375 
Q 34.1875 6.109375 38.703125 11.40625 
Q 43.21875 16.703125 43.21875 25.484375 
L 43.21875 27.484375 
z
M 52.203125 31.203125 
L 52.203125 0 
L 43.21875 0 
L 43.21875 8.296875 
Q 40.140625 3.328125 35.546875 0.953125 
Q 30.953125 -1.421875 24.3125 -1.421875 
Q 15.921875 -1.421875 10.953125 3.296875 
Q 6 8.015625 6 15.921875 
Q 6 25.140625 12.171875 29.828125 
Q 18.359375 34.515625 30.609375 34.515625 
L 43.21875 34.515625 
L 43.21875 35.40625 
Q 43.21875 41.609375 39.140625 45 
Q 35.0625 48.390625 27.6875 48.390625 
Q 23 48.390625 18.546875 47.265625 
Q 14.109375 46.140625 10.015625 43.890625 
L 10.015625 52.203125 
Q 14.9375 54.109375 19.578125 55.046875 
Q 24.21875 56 28.609375 56 
Q 40.484375 56 46.34375 49.84375 
Q 52.203125 43.703125 52.203125 31.203125 
z
" id="DejaVuSans-97"/>
      <path d="M 45.40625 46.390625 
L 45.40625 75.984375 
L 54.390625 75.984375 
L 54.390625 0 
L 45.40625 0 
L 45.40625 8.203125 
Q 42.578125 3.328125 38.25 0.953125 
Q 33.9375 -1.421875 27.875 -1.421875 
Q 17.96875 -1.421875 11.734375 6.484375 
Q 5.515625 14.40625 5.515625 27.296875 
Q 5.515625 40.1875 11.734375 48.09375 
Q 17.96875 56 27.875 56 
Q 33.9375 56 38.25 53.625 
Q 42.578125 51.265625 45.40625 46.390625 
z
M 14.796875 27.296875 
Q 14.796875 17.390625 18.875 11.75 
Q 22.953125 6.109375 30.078125 6.109375 
Q 37.203125 6.109375 41.296875 11.75 
Q 45.40625 17.390625 45.40625 27.296875 
Q 45.40625 37.203125 41.296875 42.84375 
Q 37.203125 48.484375 30.078125 48.484375 
Q 22.953125 48.484375 18.875 42.84375 
Q 14.796875 37.203125 14.796875 27.296875 
z
" id="DejaVuSans-100"/>
      <path d="M 52 44.1875 
Q 55.375 50.25 60.0625 53.125 
Q 64.75 56 71.09375 56 
Q 79.640625 56 84.28125 50.015625 
Q 88.921875 44.046875 88.921875 33.015625 
L 88.921875 0 
L 79.890625 0 
L 79.890625 32.71875 
Q 79.890625 40.578125 77.09375 44.375 
Q 74.3125 48.1875 68.609375 48.1875 
Q 61.625 48.1875 57.5625 43.546875 
Q 53.515625 38.921875 53.515625 30.90625 
L 53.515625 0 
L 44.484375 0 
L 44.484375 32.71875 
Q 44.484375 40.625 41.703125 44.40625 
Q 38.921875 48.1875 33.109375 48.1875 
Q 26.21875 48.1875 22.15625 43.53125 
Q 18.109375 38.875 18.109375 30.90625 
L 18.109375 0 
L 9.078125 0 
L 9.078125 54.6875 
L 18.109375 54.6875 
L 18.109375 46.1875 
Q 21.1875 51.21875 25.484375 53.609375 
Q 29.78125 56 35.6875 56 
Q 41.65625 56 45.828125 52.96875 
Q 50 49.953125 52 44.1875 
z
" id="DejaVuSans-109"/>
      <path d="M 48.78125 52.59375 
L 48.78125 44.1875 
Q 44.96875 46.296875 41.140625 47.34375 
Q 37.3125 48.390625 33.40625 48.390625 
Q 24.65625 48.390625 19.8125 42.84375 
Q 14.984375 37.3125 14.984375 27.296875 
Q 14.984375 17.28125 19.8125 11.734375 
Q 24.65625 6.203125 33.40625 6.203125 
Q 37.3125 6.203125 41.140625 7.25 
Q 44.96875 8.296875 48.78125 10.40625 
L 48.78125 2.09375 
Q 45.015625 0.34375 40.984375 -0.53125 
Q 36.96875 -1.421875 32.421875 -1.421875 
Q 20.0625 -1.421875 12.78125 6.34375 
Q 5.515625 14.109375 5.515625 27.296875 
Q 5.515625 40.671875 12.859375 48.328125 
Q 20.21875 56 33.015625 56 
Q 37.15625 56 41.109375 55.140625 
Q 45.0625 54.296875 48.78125 52.59375 
z
" id="DejaVuSans-99"/>
     </defs>
     <g transform="translate(207.02875 335.860562)scale(0.1 -0.1)">
      <use xlink:href="#DejaVuSans-102"/>
      <use x="35.205078" xlink:href="#DejaVuSans-101"/>
      <use x="96.728516" xlink:href="#DejaVuSans-114"/>
      <use x="136.091797" xlink:href="#DejaVuSans-114"/>
      <use x="177.205078" xlink:href="#DejaVuSans-105"/>
      <use x="204.988281" xlink:href="#DejaVuSans-116"/>
      <use x="244.197266" xlink:href="#DejaVuSans-97"/>
      <use x="305.476562" xlink:href="#DejaVuSans-100"/>
      <use x="368.953125" xlink:href="#DejaVuSans-109"/>
      <use x="466.365234" xlink:href="#DejaVuSans-97"/>
      <use x="527.644531" xlink:href="#DejaVuSans-99"/>
     </g>
    </g>
   </g>
   <g id="matplotlib.axis_2">
    <g id="ytick_1">
     <g id="line2d_9">
      <defs>
       <path d="M 0 0 
L -3.5 0 
" id="m77013b49c0" style="stroke:#000000;stroke-width:0.8;"/>
      </defs>
      <g>
       <use style="stroke:#000000;stroke-width:0.8;" x="57.6" xlink:href="#m77013b49c0" y="174.528"/>
      </g>
     </g>
    </g>
   </g>
   <g id="line2d_10">
    <path clip-path="url(#ped9ff2f304)" d="M 123.980636 174.528 
L 217.293525 174.528 
" style="fill:none;stroke:#ffa500;stroke-linecap:square;stroke-width:1.5;"/>
   </g>
   <g id="line2d_11">
    <path clip-path="url(#ped9ff2f304)" d="M 138.109503 174.528 
L 178.193266 174.528 
" style="fill:none;stroke:#4c4c4c;stroke-linecap:square;stroke-width:4.5;"/>
   </g>
   <g id="line2d_12">
    <path clip-path="url(#ped9ff2f304)" d="M 124.820212 174.528 
L 214.438966 174.528 
" style="fill:none;stroke:#008000;stroke-linecap:square;stroke-width:1.5;"/>
   </g>
   <g id="line2d_13">
    <path clip-path="url(#ped9ff2f304)" d="M 130.649269 174.528 
L 164.724066 174.528 
" style="fill:none;stroke:#262626;stroke-linecap:square;stroke-width:4.5;"/>
   </g>
   <g id="patch_3">
    <path d="M 57.6 307.584 
L 57.6 41.472 
" style="fill:none;stroke:#000000;stroke-linecap:square;stroke-linejoin:miter;stroke-width:0.8;"/>
   </g>
   <g id="patch_4">
    <path d="M 414.72 307.584 
L 414.72 41.472 
" style="fill:none;stroke:#000000;stroke-linecap:square;stroke-linejoin:miter;stroke-width:0.8;"/>
   </g>
   <g id="patch_5">
    <path d="M 57.6 307.584 
L 414.72 307.584 
" style="fill:none;stroke:#000000;stroke-linecap:square;stroke-linejoin:miter;stroke-width:0.8;"/>
   </g>
   <g id="patch_6">
    <path d="M 57.6 41.472 
L 414.72 41.472 
" style="fill:none;stroke:#000000;stroke-linecap:square;stroke-linejoin:miter;stroke-width:0.8;"/>
   </g>
   <g id="PathCollection_1">
    <defs>
     <path d="M 0 1.5 
C 0.397805 1.5 0.77937 1.341951 1.06066 1.06066 
C 1.341951 0.77937 1.5 0.397805 1.5 0 
C 1.5 -0.397805 1.341951 -0.77937 1.06066 -1.06066 
C 0.77937 -1.341951 0.397805 -1.5 0 -1.5 
C -0.397805 -1.5 -0.77937 -1.341951 -1.06066 -1.06066 
C -1.341951 -0.77937 -1.5 -0.397805 -1.5 0 
C -1.5 0.397805 -1.341951 0.77937 -1.06066 1.06066 
C -0.77937 1.341951 -0.397805 1.5 0 1.5 
z
" id="mdb4b86e765" style="stroke:#4c4c4c;stroke-opacity:0.5;"/>
    </defs>
    <g clip-path="url(#ped9ff2f304)">
     <use style="fill:#ffffff;fill-opacity:0.5;stroke:#4c4c4c;stroke-opacity:0.5;" x="149.719641" xlink:href="#mdb4b86e765" y="174.528"/>
    </g>
   </g>
   <g id="PathCollection_2">
    <defs>
     <path d="M 0 1.5 
C 0.397805 1.5 0.77937 1.341951 1.06066 1.06066 
C 1.341951 0.77937 1.5 0.397805 1.5 0 
C 1.5 -0.397805 1.341951 -0.77937 1.06066 -1.06066 
C 0.77937 -1.341951 0.397805 -1.5 0 -1.5 
C -0.397805 -1.5 -0.77937 -1.341951 -1.06066 -1.06066 
C -1.341951 -0.77937 -1.5 -0.397805 -1.5 0 
C -1.5 0.397805 -1.341951 0.77937 -1.06066 1.06066 
C -0.77937 1.341951 -0.397805 1.5 0 1.5 
z
" id="m0dec3d76c8" style="stroke:#262626;stroke-opacity:0.5;"/>
    </defs>
    <g clip-path="url(#ped9ff2f304)">
     <use style="fill:#ffffff;fill-opacity:0.5;stroke:#262626;stroke-opacity:0.5;" x="141.899589" xlink:href="#m0dec3d76c8" y="174.528"/>
    </g>
   </g>
   <g id="text_10">
    <!-- Association of ferritadmac vs. intubation -->
    <defs>
     <path d="M 34.1875 63.1875 
L 20.796875 26.90625 
L 47.609375 26.90625 
z
M 28.609375 72.90625 
L 39.796875 72.90625 
L 67.578125 0 
L 57.328125 0 
L 50.6875 18.703125 
L 17.828125 18.703125 
L 11.1875 0 
L 0.78125 0 
z
" id="DejaVuSans-65"/>
     <path d="M 44.28125 53.078125 
L 44.28125 44.578125 
Q 40.484375 46.53125 36.375 47.5 
Q 32.28125 48.484375 27.875 48.484375 
Q 21.1875 48.484375 17.84375 46.4375 
Q 14.5 44.390625 14.5 40.28125 
Q 14.5 37.15625 16.890625 35.375 
Q 19.28125 33.59375 26.515625 31.984375 
L 29.59375 31.296875 
Q 39.15625 29.25 43.1875 25.515625 
Q 47.21875 21.78125 47.21875 15.09375 
Q 47.21875 7.46875 41.1875 3.015625 
Q 35.15625 -1.421875 24.609375 -1.421875 
Q 20.21875 -1.421875 15.453125 -0.5625 
Q 10.6875 0.296875 5.421875 2 
L 5.421875 11.28125 
Q 10.40625 8.6875 15.234375 7.390625 
Q 20.0625 6.109375 24.8125 6.109375 
Q 31.15625 6.109375 34.5625 8.28125 
Q 37.984375 10.453125 37.984375 14.40625 
Q 37.984375 18.0625 35.515625 20.015625 
Q 33.0625 21.96875 24.703125 23.78125 
L 21.578125 24.515625 
Q 13.234375 26.265625 9.515625 29.90625 
Q 5.8125 33.546875 5.8125 39.890625 
Q 5.8125 47.609375 11.28125 51.796875 
Q 16.75 56 26.8125 56 
Q 31.78125 56 36.171875 55.265625 
Q 40.578125 54.546875 44.28125 53.078125 
z
" id="DejaVuSans-115"/>
     <path d="M 30.609375 48.390625 
Q 23.390625 48.390625 19.1875 42.75 
Q 14.984375 37.109375 14.984375 27.296875 
Q 14.984375 17.484375 19.15625 11.84375 
Q 23.34375 6.203125 30.609375 6.203125 
Q 37.796875 6.203125 41.984375 11.859375 
Q 46.1875 17.53125 46.1875 27.296875 
Q 46.1875 37.015625 41.984375 42.703125 
Q 37.796875 48.390625 30.609375 48.390625 
z
M 30.609375 56 
Q 42.328125 56 49.015625 48.375 
Q 55.71875 40.765625 55.71875 27.296875 
Q 55.71875 13.875 49.015625 6.21875 
Q 42.328125 -1.421875 30.609375 -1.421875 
Q 18.84375 -1.421875 12.171875 6.21875 
Q 5.515625 13.875 5.515625 27.296875 
Q 5.515625 40.765625 12.171875 48.375 
Q 18.84375 56 30.609375 56 
z
" id="DejaVuSans-111"/>
     <path d="M 54.890625 33.015625 
L 54.890625 0 
L 45.90625 0 
L 45.90625 32.71875 
Q 45.90625 40.484375 42.875 44.328125 
Q 39.84375 48.1875 33.796875 48.1875 
Q 26.515625 48.1875 22.3125 43.546875 
Q 18.109375 38.921875 18.109375 30.90625 
L 18.109375 0 
L 9.078125 0 
L 9.078125 54.6875 
L 18.109375 54.6875 
L 18.109375 46.1875 
Q 21.34375 51.125 25.703125 53.5625 
Q 30.078125 56 35.796875 56 
Q 45.21875 56 50.046875 50.171875 
Q 54.890625 44.34375 54.890625 33.015625 
z
" id="DejaVuSans-110"/>
     <path id="DejaVuSans-32"/>
     <path d="M 2.984375 54.6875 
L 12.5 54.6875 
L 29.59375 8.796875 
L 46.6875 54.6875 
L 56.203125 54.6875 
L 35.6875 0 
L 23.484375 0 
z
" id="DejaVuSans-118"/>
     <path d="M 10.6875 12.40625 
L 21 12.40625 
L 21 0 
L 10.6875 0 
z
" id="DejaVuSans-46"/>
     <path d="M 8.5 21.578125 
L 8.5 54.6875 
L 17.484375 54.6875 
L 17.484375 21.921875 
Q 17.484375 14.15625 20.5 10.265625 
Q 23.53125 6.390625 29.59375 6.390625 
Q 36.859375 6.390625 41.078125 11.03125 
Q 45.3125 15.671875 45.3125 23.6875 
L 45.3125 54.6875 
L 54.296875 54.6875 
L 54.296875 0 
L 45.3125 0 
L 45.3125 8.40625 
Q 42.046875 3.421875 37.71875 1 
Q 33.40625 -1.421875 27.6875 -1.421875 
Q 18.265625 -1.421875 13.375 4.4375 
Q 8.5 10.296875 8.5 21.578125 
z
M 31.109375 56 
z
" id="DejaVuSans-117"/>
     <path d="M 48.6875 27.296875 
Q 48.6875 37.203125 44.609375 42.84375 
Q 40.53125 48.484375 33.40625 48.484375 
Q 26.265625 48.484375 22.1875 42.84375 
Q 18.109375 37.203125 18.109375 27.296875 
Q 18.109375 17.390625 22.1875 11.75 
Q 26.265625 6.109375 33.40625 6.109375 
Q 40.53125 6.109375 44.609375 11.75 
Q 48.6875 17.390625 48.6875 27.296875 
z
M 18.109375 46.390625 
Q 20.953125 51.265625 25.265625 53.625 
Q 29.59375 56 35.59375 56 
Q 45.5625 56 51.78125 48.09375 
Q 58.015625 40.1875 58.015625 27.296875 
Q 58.015625 14.40625 51.78125 6.484375 
Q 45.5625 -1.421875 35.59375 -1.421875 
Q 29.59375 -1.421875 25.265625 0.953125 
Q 20.953125 3.328125 18.109375 8.203125 
L 18.109375 0 
L 9.078125 0 
L 9.078125 75.984375 
L 18.109375 75.984375 
z
" id="DejaVuSans-98"/>
    </defs>
    <g transform="translate(114.4425 35.472)scale(0.12 -0.12)">
     <use xlink:href="#DejaVuSans-65"/>
     <use x="68.408203" xlink:href="#DejaVuSans-115"/>
     <use x="120.507812" xlink:href="#DejaVuSans-115"/>
     <use x="172.607422" xlink:href="#DejaVuSans-111"/>
     <use x="233.789062" xlink:href="#DejaVuSans-99"/>
     <use x="288.769531" xlink:href="#DejaVuSans-105"/>
     <use x="316.552734" xlink:href="#DejaVuSans-97"/>
     <use x="377.832031" xlink:href="#DejaVuSans-116"/>
     <use x="417.041016" xlink:href="#DejaVuSans-105"/>
     <use x="444.824219" xlink:href="#DejaVuSans-111"/>
     <use x="506.005859" xlink:href="#DejaVuSans-110"/>
     <use x="569.384766" xlink:href="#DejaVuSans-32"/>
     <use x="601.171875" xlink:href="#DejaVuSans-111"/>
     <use x="662.353516" xlink:href="#DejaVuSans-102"/>
     <use x="697.558594" xlink:href="#DejaVuSans-32"/>
     <use x="729.345703" xlink:href="#DejaVuSans-102"/>
     <use x="764.550781" xlink:href="#DejaVuSans-101"/>
     <use x="826.074219" xlink:href="#DejaVuSans-114"/>
     <use x="865.4375" xlink:href="#DejaVuSans-114"/>
     <use x="906.550781" xlink:href="#DejaVuSans-105"/>
     <use x="934.333984" xlink:href="#DejaVuSans-116"/>
     <use x="973.542969" xlink:href="#DejaVuSans-97"/>
     <use x="1034.822266" xlink:href="#DejaVuSans-100"/>
     <use x="1098.298828" xlink:href="#DejaVuSans-109"/>
     <use x="1195.710938" xlink:href="#DejaVuSans-97"/>
     <use x="1256.990234" xlink:href="#DejaVuSans-99"/>
     <use x="1311.970703" xlink:href="#DejaVuSans-32"/>
     <use x="1343.757812" xlink:href="#DejaVuSans-118"/>
     <use x="1402.9375" xlink:href="#DejaVuSans-115"/>
     <use x="1455.037109" xlink:href="#DejaVuSans-46"/>
     <use x="1486.824219" xlink:href="#DejaVuSans-32"/>
     <use x="1518.611328" xlink:href="#DejaVuSans-105"/>
     <use x="1546.394531" xlink:href="#DejaVuSans-110"/>
     <use x="1609.773438" xlink:href="#DejaVuSans-116"/>
     <use x="1648.982422" xlink:href="#DejaVuSans-117"/>
     <use x="1712.361328" xlink:href="#DejaVuSans-98"/>
     <use x="1775.837891" xlink:href="#DejaVuSans-97"/>
     <use x="1837.117188" xlink:href="#DejaVuSans-116"/>
     <use x="1876.326172" xlink:href="#DejaVuSans-105"/>
     <use x="1904.109375" xlink:href="#DejaVuSans-111"/>
     <use x="1965.291016" xlink:href="#DejaVuSans-110"/>
    </g>
   </g>
   <g id="legend_1">
    <g id="patch_7">
     <path d="M 280.310625 78.82825 
L 407.72 78.82825 
Q 409.72 78.82825 409.72 76.82825 
L 409.72 48.472 
Q 409.72 46.472 407.72 46.472 
L 280.310625 46.472 
Q 278.310625 46.472 278.310625 48.472 
L 278.310625 76.82825 
Q 278.310625 78.82825 280.310625 78.82825 
z
" style="fill:#ffffff;opacity:0.8;stroke:#cccccc;stroke-linejoin:miter;"/>
    </g>
    <g id="line2d_14">
     <path d="M 282.310625 54.570437 
L 302.310625 54.570437 
" style="fill:none;stroke:#ffa500;stroke-linecap:square;stroke-width:1.5;"/>
    </g>
    <g id="line2d_15"/>
    <g id="text_11">
     <!-- intubation (45) -->
     <defs>
      <path d="M 31 75.875 
Q 24.46875 64.65625 21.28125 53.65625 
Q 18.109375 42.671875 18.109375 31.390625 
Q 18.109375 20.125 21.3125 9.0625 
Q 24.515625 -2 31 -13.1875 
L 23.1875 -13.1875 
Q 15.875 -1.703125 12.234375 9.375 
Q 8.59375 20.453125 8.59375 31.390625 
Q 8.59375 42.28125 12.203125 53.3125 
Q 15.828125 64.359375 23.1875 75.875 
z
" id="DejaVuSans-40"/>
      <path d="M 10.796875 72.90625 
L 49.515625 72.90625 
L 49.515625 64.59375 
L 19.828125 64.59375 
L 19.828125 46.734375 
Q 21.96875 47.46875 24.109375 47.828125 
Q 26.265625 48.1875 28.421875 48.1875 
Q 40.625 48.1875 47.75 41.5 
Q 54.890625 34.8125 54.890625 23.390625 
Q 54.890625 11.625 47.5625 5.09375 
Q 40.234375 -1.421875 26.90625 -1.421875 
Q 22.3125 -1.421875 17.546875 -0.640625 
Q 12.796875 0.140625 7.71875 1.703125 
L 7.71875 11.625 
Q 12.109375 9.234375 16.796875 8.0625 
Q 21.484375 6.890625 26.703125 6.890625 
Q 35.15625 6.890625 40.078125 11.328125 
Q 45.015625 15.765625 45.015625 23.390625 
Q 45.015625 31 40.078125 35.4375 
Q 35.15625 39.890625 26.703125 39.890625 
Q 22.75 39.890625 18.8125 39.015625 
Q 14.890625 38.140625 10.796875 36.28125 
z
" id="DejaVuSans-53"/>
      <path d="M 8.015625 75.875 
L 15.828125 75.875 
Q 23.140625 64.359375 26.78125 53.3125 
Q 30.421875 42.28125 30.421875 31.390625 
Q 30.421875 20.453125 26.78125 9.375 
Q 23.140625 -1.703125 15.828125 -13.1875 
L 8.015625 -13.1875 
Q 14.5 -2 17.703125 9.0625 
Q 20.90625 20.125 20.90625 31.390625 
Q 20.90625 42.671875 17.703125 53.65625 
Q 14.5 64.65625 8.015625 75.875 
z
" id="DejaVuSans-41"/>
     </defs>
     <g transform="translate(310.310625 58.070437)scale(0.1 -0.1)">
      <use xlink:href="#DejaVuSans-105"/>
      <use x="27.783203" xlink:href="#DejaVuSans-110"/>
      <use x="91.162109" xlink:href="#DejaVuSans-116"/>
      <use x="130.371094" xlink:href="#DejaVuSans-117"/>
      <use x="193.75" xlink:href="#DejaVuSans-98"/>
      <use x="257.226562" xlink:href="#DejaVuSans-97"/>
      <use x="318.505859" xlink:href="#DejaVuSans-116"/>
      <use x="357.714844" xlink:href="#DejaVuSans-105"/>
      <use x="385.498047" xlink:href="#DejaVuSans-111"/>
      <use x="446.679688" xlink:href="#DejaVuSans-110"/>
      <use x="510.058594" xlink:href="#DejaVuSans-32"/>
      <use x="541.845703" xlink:href="#DejaVuSans-40"/>
      <use x="580.859375" xlink:href="#DejaVuSans-52"/>
      <use x="644.482422" xlink:href="#DejaVuSans-53"/>
      <use x="708.105469" xlink:href="#DejaVuSans-41"/>
     </g>
    </g>
    <g id="line2d_16">
     <path d="M 282.310625 69.248562 
L 302.310625 69.248562 
" style="fill:none;stroke:#008000;stroke-linecap:square;stroke-width:1.5;"/>
    </g>
    <g id="line2d_17"/>
    <g id="text_12">
     <!-- Not intubation (59) -->
     <defs>
      <path d="M 9.8125 72.90625 
L 23.09375 72.90625 
L 55.421875 11.921875 
L 55.421875 72.90625 
L 64.984375 72.90625 
L 64.984375 0 
L 51.703125 0 
L 19.390625 60.984375 
L 19.390625 0 
L 9.8125 0 
z
" id="DejaVuSans-78"/>
      <path d="M 10.984375 1.515625 
L 10.984375 10.5 
Q 14.703125 8.734375 18.5 7.8125 
Q 22.3125 6.890625 25.984375 6.890625 
Q 35.75 6.890625 40.890625 13.453125 
Q 46.046875 20.015625 46.78125 33.40625 
Q 43.953125 29.203125 39.59375 26.953125 
Q 35.25 24.703125 29.984375 24.703125 
Q 19.046875 24.703125 12.671875 31.3125 
Q 6.296875 37.9375 6.296875 49.421875 
Q 6.296875 60.640625 12.9375 67.421875 
Q 19.578125 74.21875 30.609375 74.21875 
Q 43.265625 74.21875 49.921875 64.515625 
Q 56.59375 54.828125 56.59375 36.375 
Q 56.59375 19.140625 48.40625 8.859375 
Q 40.234375 -1.421875 26.421875 -1.421875 
Q 22.703125 -1.421875 18.890625 -0.6875 
Q 15.09375 0.046875 10.984375 1.515625 
z
M 30.609375 32.421875 
Q 37.25 32.421875 41.125 36.953125 
Q 45.015625 41.5 45.015625 49.421875 
Q 45.015625 57.28125 41.125 61.84375 
Q 37.25 66.40625 30.609375 66.40625 
Q 23.96875 66.40625 20.09375 61.84375 
Q 16.21875 57.28125 16.21875 49.421875 
Q 16.21875 41.5 20.09375 36.953125 
Q 23.96875 32.421875 30.609375 32.421875 
z
" id="DejaVuSans-57"/>
     </defs>
     <g transform="translate(310.310625 72.748562)scale(0.1 -0.1)">
      <use xlink:href="#DejaVuSans-78"/>
      <use x="74.804688" xlink:href="#DejaVuSans-111"/>
      <use x="135.986328" xlink:href="#DejaVuSans-116"/>
      <use x="175.195312" xlink:href="#DejaVuSans-32"/>
      <use x="206.982422" xlink:href="#DejaVuSans-105"/>
      <use x="234.765625" xlink:href="#DejaVuSans-110"/>
      <use x="298.144531" xlink:href="#DejaVuSans-116"/>
      <use x="337.353516" xlink:href="#DejaVuSans-117"/>
      <use x="400.732422" xlink:href="#DejaVuSans-98"/>
      <use x="464.208984" xlink:href="#DejaVuSans-97"/>
      <use x="525.488281" xlink:href="#DejaVuSans-116"/>
      <use x="564.697266" xlink:href="#DejaVuSans-105"/>
      <use x="592.480469" xlink:href="#DejaVuSans-111"/>
      <use x="653.662109" xlink:href="#DejaVuSans-110"/>
      <use x="717.041016" xlink:href="#DejaVuSans-32"/>
      <use x="748.828125" xlink:href="#DejaVuSans-40"/>
      <use x="787.841797" xlink:href="#DejaVuSans-53"/>
      <use x="851.464844" xlink:href="#DejaVuSans-57"/>
      <use x="915.087891" xlink:href="#DejaVuSans-41"/>
     </g>
    </g>
   </g>
  </g>
 </g>
 <defs>
  <clipPath id="ped9ff2f304">
   <rect height="266.112" width="357.12" x="57.6" y="41.472"/>
  </clipPath>
 </defs>
</svg>
