<?xml version="1.0" encoding="utf-8" standalone="no"?>
<!DOCTYPE svg PUBLIC "-//W3C//DTD SVG 1.1//EN"
  "http://www.w3.org/Graphics/SVG/1.1/DTD/svg11.dtd">
<!-- Created with matplotlib (https://matplotlib.org/) -->
<svg height="345.6pt" version="1.1" viewBox="0 0 460.8 345.6" width="460.8pt" xmlns="http://www.w3.org/2000/svg" xmlns:xlink="http://www.w3.org/1999/xlink">
 <defs>
  <style type="text/css">
*{stroke-linecap:butt;stroke-linejoin:round;}
  </style>
 </defs>
 <g id="figure_1">
  <g id="patch_1">
   <path d="M 0 345.6 
L 460.8 345.6 
L 460.8 0 
L 0 0 
z
" style="fill:#ffffff;"/>
  </g>
  <g id="axes_1">
   <g id="patch_2">
    <path d="M 57.6 307.584 
L 414.72 307.584 
L 414.72 41.472 
L 57.6 41.472 
z
" style="fill:#ffffff;"/>
   </g>
   <g id="PolyCollection_1">
    <defs>
     <path d="M 73.832727 -165.793775 
L 73.832727 -176.350225 
L 77.112066 -178.571085 
L 80.391405 -181.495993 
L 83.670744 -185.249976 
L 86.950083 -189.943358 
L 90.229421 -195.656522 
L 93.50876 -202.423505 
L 96.788099 -210.216413 
L 100.067438 -218.933064 
L 103.346777 -228.390352 
L 106.626116 -238.325418 
L 109.905455 -248.405902 
L 113.184793 -258.249306 
L 116.464132 -267.45013 
L 119.743471 -275.61204 
L 123.02281 -282.381387 
L 126.302149 -287.477892 
L 129.581488 -290.718592 
L 132.860826 -292.032 
L 136.140165 -291.460844 
L 139.419504 -289.153382 
L 142.698843 -285.344864 
L 145.978182 -280.331938 
L 149.257521 -274.443531 
L 152.53686 -268.011857 
L 155.816198 -261.346757 
L 159.095537 -254.715766 
L 162.374876 -248.331244 
L 165.654215 -242.344829 
L 168.933554 -236.848542 
L 172.212893 -231.881176 
L 175.492231 -227.438219 
L 178.77157 -223.48348 
L 182.050909 -219.960724 
L 185.330248 -216.804033 
L 188.609587 -213.946052 
L 191.888926 -211.323785 
L 195.168264 -208.882072 
L 198.447603 -206.575189 
L 201.726942 -204.36718 
L 205.006281 -202.231521 
L 208.28562 -200.150586 
L 211.564959 -198.115134 
L 214.844298 -196.123822 
L 218.123636 -194.182578 
L 221.402975 -192.303575 
L 224.682314 -190.503662 
L 227.961653 -188.802191 
L 231.240992 -187.218447 
L 234.520331 -185.768994 
L 237.799669 -184.465382 
L 241.079008 -183.312624 
L 244.358347 -182.308713 
L 247.637686 -181.445248 
L 250.917025 -180.709018 
L 254.196364 -180.084185 
L 257.475702 -179.554595 
L 260.755041 -179.105775 
L 264.03438 -178.726229 
L 267.313719 -178.407848 
L 270.593058 -178.145445 
L 273.872397 -177.935602 
L 277.151736 -177.775158 
L 280.431074 -177.65971 
L 283.710413 -177.582483 
L 286.989752 -177.533817 
L 290.269091 -177.501384 
L 293.54843 -177.471103 
L 296.827769 -177.42858 
L 300.107107 -177.360818 
L 303.386446 -177.257888 
L 306.665785 -177.114271 
L 309.945124 -176.929635 
L 313.224463 -176.708905 
L 316.503802 -176.461591 
L 319.78314 -176.200456 
L 323.062479 -175.939718 
L 326.341818 -175.693024 
L 329.621157 -175.471512 
L 332.900496 -175.282237 
L 336.179835 -175.127207 
L 339.459174 -175.003164 
L 342.738512 -174.902147 
L 346.017851 -174.812739 
L 349.29719 -174.721791 
L 352.576529 -174.61635 
L 355.855868 -174.485484 
L 359.135207 -174.321736 
L 362.414545 -174.121997 
L 365.693884 -173.887716 
L 368.973223 -173.624462 
L 372.252562 -173.340971 
L 375.531901 -173.047866 
L 378.81124 -172.756285 
L 382.090579 -172.476622 
L 385.369917 -172.217536 
L 388.649256 -171.985336 
L 391.928595 -171.783751 
L 395.207934 -171.614038 
L 398.487273 -171.475351 
L 398.487273 -170.668649 
L 398.487273 -170.668649 
L 395.207934 -170.529962 
L 391.928595 -170.360249 
L 388.649256 -170.158664 
L 385.369917 -169.926464 
L 382.090579 -169.667378 
L 378.81124 -169.387715 
L 375.531901 -169.096134 
L 372.252562 -168.803029 
L 368.973223 -168.519538 
L 365.693884 -168.256284 
L 362.414545 -168.022003 
L 359.135207 -167.822264 
L 355.855868 -167.658516 
L 352.576529 -167.52765 
L 349.29719 -167.422209 
L 346.017851 -167.331261 
L 342.738512 -167.241853 
L 339.459174 -167.140836 
L 336.179835 -167.016793 
L 332.900496 -166.861763 
L 329.621157 -166.672488 
L 326.341818 -166.450976 
L 323.062479 -166.204282 
L 319.78314 -165.943544 
L 316.503802 -165.682409 
L 313.224463 -165.435095 
L 309.945124 -165.214365 
L 306.665785 -165.029729 
L 303.386446 -164.886112 
L 300.107107 -164.783182 
L 296.827769 -164.71542 
L 293.54843 -164.672897 
L 290.269091 -164.642616 
L 286.989752 -164.610183 
L 283.710413 -164.561517 
L 280.431074 -164.48429 
L 277.151736 -164.368842 
L 273.872397 -164.208398 
L 270.593058 -163.998555 
L 267.313719 -163.736152 
L 264.03438 -163.417771 
L 260.755041 -163.038225 
L 257.475702 -162.589405 
L 254.196364 -162.059815 
L 250.917025 -161.434982 
L 247.637686 -160.698752 
L 244.358347 -159.835287 
L 241.079008 -158.831376 
L 237.799669 -157.678618 
L 234.520331 -156.375006 
L 231.240992 -154.925553 
L 227.961653 -153.341809 
L 224.682314 -151.640338 
L 221.402975 -149.840425 
L 218.123636 -147.961422 
L 214.844298 -146.020178 
L 211.564959 -144.028866 
L 208.28562 -141.993414 
L 205.006281 -139.912479 
L 201.726942 -137.77682 
L 198.447603 -135.568811 
L 195.168264 -133.261928 
L 191.888926 -130.820215 
L 188.609587 -128.197948 
L 185.330248 -125.339967 
L 182.050909 -122.183276 
L 178.77157 -118.66052 
L 175.492231 -114.705781 
L 172.212893 -110.262824 
L 168.933554 -105.295458 
L 165.654215 -99.799171 
L 162.374876 -93.812756 
L 159.095537 -87.428234 
L 155.816198 -80.797243 
L 152.53686 -74.132143 
L 149.257521 -67.700469 
L 145.978182 -61.812062 
L 142.698843 -56.799136 
L 139.419504 -52.990618 
L 136.140165 -50.683156 
L 132.860826 -50.112 
L 129.581488 -51.425408 
L 126.302149 -54.666108 
L 123.02281 -59.762613 
L 119.743471 -66.53196 
L 116.464132 -74.69387 
L 113.184793 -83.894694 
L 109.905455 -93.738098 
L 106.626116 -103.818582 
L 103.346777 -113.753648 
L 100.067438 -123.210936 
L 96.788099 -131.927587 
L 93.50876 -139.720495 
L 90.229421 -146.487478 
L 86.950083 -152.200642 
L 83.670744 -156.894024 
L 80.391405 -160.648007 
L 77.112066 -163.572915 
L 73.832727 -165.793775 
z
" id="m21635f896e" style="stroke:#4c4c4c;stroke-opacity:0.5;stroke-width:1.5;"/>
    </defs>
    <g clip-path="url(#p6ee3ea57df)">
     <use style="fill:#df9c20;fill-opacity:0.5;stroke:#4c4c4c;stroke-opacity:0.5;stroke-width:1.5;" x="0" xlink:href="#m21635f896e" y="345.6"/>
    </g>
   </g>
   <g id="PolyCollection_2">
    <defs>
     <path d="M 92.06946 -166.981376 
L 92.06946 -175.162624 
L 94.205259 -177.056446 
L 96.341059 -179.604432 
L 98.476859 -182.932413 
L 100.612659 -187.15217 
L 102.748458 -192.346282 
L 104.884258 -198.552697 
L 107.020058 -205.751325 
L 109.155858 -213.855013 
L 111.291657 -222.706843 
L 113.427457 -232.084708 
L 115.563257 -241.712976 
L 117.699057 -251.279814 
L 119.834856 -260.457885 
L 121.970656 -268.925857 
L 124.106456 -276.388395 
L 126.242255 -282.593106 
L 128.378055 -287.343735 
L 130.513855 -290.509663 
L 132.649655 -292.032 
L 134.785454 -291.926425 
L 136.921254 -290.282479 
L 139.057054 -287.258591 
L 141.192854 -283.072067 
L 143.328653 -277.983679 
L 145.464453 -272.277428 
L 147.600253 -266.237204 
L 149.736053 -260.123035 
L 151.871852 -254.15018 
L 154.007652 -248.474094 
L 156.143452 -243.183432 
L 158.279251 -238.301889 
L 160.415051 -233.798145 
L 162.550851 -229.601913 
L 164.686651 -225.623207 
L 166.82245 -221.771745 
L 168.95825 -217.973712 
L 171.09405 -214.183802 
L 173.22985 -210.391437 
L 175.365649 -206.620961 
L 177.501449 -202.926467 
L 179.637249 -199.382516 
L 181.773049 -196.072406 
L 183.908848 -193.07576 
L 186.044648 -190.457169 
L 188.180448 -188.257292 
L 190.316247 -186.48745 
L 192.452047 -185.128188 
L 194.587847 -184.131762 
L 196.723647 -183.427998 
L 198.859446 -182.932562 
L 200.995246 -182.556457 
L 203.131046 -182.215467 
L 205.266846 -181.838354 
L 207.402645 -181.372878 
L 209.538445 -180.789046 
L 211.674245 -180.079402 
L 213.810045 -179.256617 
L 215.945844 -178.348954 
L 218.081644 -177.39447 
L 220.217444 -176.434884 
L 222.353243 -175.510007 
L 224.489043 -174.653389 
L 226.624843 -173.889622 
L 228.760643 -173.23334 
L 230.896442 -172.689763 
L 233.032242 -172.256377 
L 235.168042 -171.925287 
L 237.303842 -171.685788 
L 239.439641 -171.526742 
L 241.575441 -171.438509 
L 243.711241 -171.414252 
L 245.84704 -171.450558 
L 247.98284 -171.547347 
L 250.11864 -171.707127 
L 252.25444 -171.933648 
L 254.390239 -172.2301 
L 256.526039 -172.597048 
L 258.661839 -173.030375 
L 260.797639 -173.519597 
L 262.933438 -174.046899 
L 265.069238 -174.587235 
L 267.205038 -175.109673 
L 269.340838 -175.579972 
L 271.476637 -175.964112 
L 273.612437 -176.23229 
L 275.748237 -176.362705 
L 277.884036 -176.344472 
L 280.019836 -176.179121 
L 282.155636 -175.880377 
L 284.291436 -175.472283 
L 286.427235 -174.986001 
L 288.563035 -174.455905 
L 290.698835 -173.91561 
L 292.834635 -173.3946 
L 294.970434 -172.915862 
L 297.106234 -172.494751 
L 299.242034 -172.139021 
L 301.377834 -171.849779 
L 303.513633 -171.62303 
L 303.513633 -170.52097 
L 303.513633 -170.52097 
L 301.377834 -170.294221 
L 299.242034 -170.004979 
L 297.106234 -169.649249 
L 294.970434 -169.228138 
L 292.834635 -168.7494 
L 290.698835 -168.22839 
L 288.563035 -167.688095 
L 286.427235 -167.157999 
L 284.291436 -166.671717 
L 282.155636 -166.263623 
L 280.019836 -165.964879 
L 277.884036 -165.799528 
L 275.748237 -165.781295 
L 273.612437 -165.91171 
L 271.476637 -166.179888 
L 269.340838 -166.564028 
L 267.205038 -167.034327 
L 265.069238 -167.556765 
L 262.933438 -168.097101 
L 260.797639 -168.624403 
L 258.661839 -169.113625 
L 256.526039 -169.546952 
L 254.390239 -169.9139 
L 252.25444 -170.210352 
L 250.11864 -170.436873 
L 247.98284 -170.596653 
L 245.84704 -170.693442 
L 243.711241 -170.729748 
L 241.575441 -170.705491 
L 239.439641 -170.617258 
L 237.303842 -170.458212 
L 235.168042 -170.218713 
L 233.032242 -169.887623 
L 230.896442 -169.454237 
L 228.760643 -168.91066 
L 226.624843 -168.254378 
L 224.489043 -167.490611 
L 222.353243 -166.633993 
L 220.217444 -165.709116 
L 218.081644 -164.74953 
L 215.945844 -163.795046 
L 213.810045 -162.887383 
L 211.674245 -162.064598 
L 209.538445 -161.354954 
L 207.402645 -160.771122 
L 205.266846 -160.305646 
L 203.131046 -159.928533 
L 200.995246 -159.587543 
L 198.859446 -159.211438 
L 196.723647 -158.716002 
L 194.587847 -158.012238 
L 192.452047 -157.015812 
L 190.316247 -155.65655 
L 188.180448 -153.886708 
L 186.044648 -151.686831 
L 183.908848 -149.06824 
L 181.773049 -146.071594 
L 179.637249 -142.761484 
L 177.501449 -139.217533 
L 175.365649 -135.523039 
L 173.22985 -131.752563 
L 171.09405 -127.960198 
L 168.95825 -124.170288 
L 166.82245 -120.372255 
L 164.686651 -116.520793 
L 162.550851 -112.542087 
L 160.415051 -108.345855 
L 158.279251 -103.842111 
L 156.143452 -98.960568 
L 154.007652 -93.669906 
L 151.871852 -87.99382 
L 149.736053 -82.020965 
L 147.600253 -75.906796 
L 145.464453 -69.866572 
L 143.328653 -64.160321 
L 141.192854 -59.071933 
L 139.057054 -54.885409 
L 136.921254 -51.861521 
L 134.785454 -50.217575 
L 132.649655 -50.112 
L 130.513855 -51.634337 
L 128.378055 -54.800265 
L 126.242255 -59.550894 
L 124.106456 -65.755605 
L 121.970656 -73.218143 
L 119.834856 -81.686115 
L 117.699057 -90.864186 
L 115.563257 -100.431024 
L 113.427457 -110.059292 
L 111.291657 -119.437157 
L 109.155858 -128.288987 
L 107.020058 -136.392675 
L 104.884258 -143.591303 
L 102.748458 -149.797718 
L 100.612659 -154.99183 
L 98.476859 -159.211587 
L 96.341059 -162.539568 
L 94.205259 -165.087554 
L 92.06946 -166.981376 
z
" id="m93157ee4fc" style="stroke:#262626;stroke-opacity:0.5;stroke-width:1.5;"/>
    </defs>
    <g clip-path="url(#p6ee3ea57df)">
     <use style="fill:#107010;fill-opacity:0.5;stroke:#262626;stroke-opacity:0.5;stroke-width:1.5;" x="0" xlink:href="#m93157ee4fc" y="345.6"/>
    </g>
   </g>
   <g id="matplotlib.axis_1">
    <g id="xtick_1">
     <g id="line2d_1">
      <defs>
       <path d="M 0 0 
L 0 3.5 
" id="m4cb305634c" style="stroke:#000000;stroke-width:0.8;"/>
      </defs>
      <g>
       <use style="stroke:#000000;stroke-width:0.8;" x="64.767989" xlink:href="#m4cb305634c" y="307.584"/>
      </g>
     </g>
     <g id="text_1">
      <!-- −2000 -->
      <defs>
       <path d="M 10.59375 35.5 
L 73.1875 35.5 
L 73.1875 27.203125 
L 10.59375 27.203125 
z
" id="DejaVuSans-8722"/>
       <path d="M 19.1875 8.296875 
L 53.609375 8.296875 
L 53.609375 0 
L 7.328125 0 
L 7.328125 8.296875 
Q 12.9375 14.109375 22.625 23.890625 
Q 32.328125 33.6875 34.8125 36.53125 
Q 39.546875 41.84375 41.421875 45.53125 
Q 43.3125 49.21875 43.3125 52.78125 
Q 43.3125 58.59375 39.234375 62.25 
Q 35.15625 65.921875 28.609375 65.921875 
Q 23.96875 65.921875 18.8125 64.3125 
Q 13.671875 62.703125 7.8125 59.421875 
L 7.8125 69.390625 
Q 13.765625 71.78125 18.9375 73 
Q 24.125 74.21875 28.421875 74.21875 
Q 39.75 74.21875 46.484375 68.546875 
Q 53.21875 62.890625 53.21875 53.421875 
Q 53.21875 48.921875 51.53125 44.890625 
Q 49.859375 40.875 45.40625 35.40625 
Q 44.1875 33.984375 37.640625 27.21875 
Q 31.109375 20.453125 19.1875 8.296875 
z
" id="DejaVuSans-50"/>
       <path d="M 31.78125 66.40625 
Q 24.171875 66.40625 20.328125 58.90625 
Q 16.5 51.421875 16.5 36.375 
Q 16.5 21.390625 20.328125 13.890625 
Q 24.171875 6.390625 31.78125 6.390625 
Q 39.453125 6.390625 43.28125 13.890625 
Q 47.125 21.390625 47.125 36.375 
Q 47.125 51.421875 43.28125 58.90625 
Q 39.453125 66.40625 31.78125 66.40625 
z
M 31.78125 74.21875 
Q 44.046875 74.21875 50.515625 64.515625 
Q 56.984375 54.828125 56.984375 36.375 
Q 56.984375 17.96875 50.515625 8.265625 
Q 44.046875 -1.421875 31.78125 -1.421875 
Q 19.53125 -1.421875 13.0625 8.265625 
Q 6.59375 17.96875 6.59375 36.375 
Q 6.59375 54.828125 13.0625 64.515625 
Q 19.53125 74.21875 31.78125 74.21875 
z
" id="DejaVuSans-48"/>
      </defs>
      <g transform="translate(47.853145 322.182437)scale(0.1 -0.1)">
       <use xlink:href="#DejaVuSans-8722"/>
       <use x="83.789062" xlink:href="#DejaVuSans-50"/>
       <use x="147.412109" xlink:href="#DejaVuSans-48"/>
       <use x="211.035156" xlink:href="#DejaVuSans-48"/>
       <use x="274.658203" xlink:href="#DejaVuSans-48"/>
      </g>
     </g>
    </g>
    <g id="xtick_2">
     <g id="line2d_2">
      <g>
       <use style="stroke:#000000;stroke-width:0.8;" x="116.442674" xlink:href="#m4cb305634c" y="307.584"/>
      </g>
     </g>
     <g id="text_2">
      <!-- 0 -->
      <g transform="translate(113.261424 322.182437)scale(0.1 -0.1)">
       <use xlink:href="#DejaVuSans-48"/>
      </g>
     </g>
    </g>
    <g id="xtick_3">
     <g id="line2d_3">
      <g>
       <use style="stroke:#000000;stroke-width:0.8;" x="168.117359" xlink:href="#m4cb305634c" y="307.584"/>
      </g>
     </g>
     <g id="text_3">
      <!-- 2000 -->
      <g transform="translate(155.392359 322.182437)scale(0.1 -0.1)">
       <use xlink:href="#DejaVuSans-50"/>
       <use x="63.623047" xlink:href="#DejaVuSans-48"/>
       <use x="127.246094" xlink:href="#DejaVuSans-48"/>
       <use x="190.869141" xlink:href="#DejaVuSans-48"/>
      </g>
     </g>
    </g>
    <g id="xtick_4">
     <g id="line2d_4">
      <g>
       <use style="stroke:#000000;stroke-width:0.8;" x="219.792044" xlink:href="#m4cb305634c" y="307.584"/>
      </g>
     </g>
     <g id="text_4">
      <!-- 4000 -->
      <defs>
       <path d="M 37.796875 64.3125 
L 12.890625 25.390625 
L 37.796875 25.390625 
z
M 35.203125 72.90625 
L 47.609375 72.90625 
L 47.609375 25.390625 
L 58.015625 25.390625 
L 58.015625 17.1875 
L 47.609375 17.1875 
L 47.609375 0 
L 37.796875 0 
L 37.796875 17.1875 
L 4.890625 17.1875 
L 4.890625 26.703125 
z
" id="DejaVuSans-52"/>
      </defs>
      <g transform="translate(207.067044 322.182437)scale(0.1 -0.1)">
       <use xlink:href="#DejaVuSans-52"/>
       <use x="63.623047" xlink:href="#DejaVuSans-48"/>
       <use x="127.246094" xlink:href="#DejaVuSans-48"/>
       <use x="190.869141" xlink:href="#DejaVuSans-48"/>
      </g>
     </g>
    </g>
    <g id="xtick_5">
     <g id="line2d_5">
      <g>
       <use style="stroke:#000000;stroke-width:0.8;" x="271.466728" xlink:href="#m4cb305634c" y="307.584"/>
      </g>
     </g>
     <g id="text_5">
      <!-- 6000 -->
      <defs>
       <path d="M 33.015625 40.375 
Q 26.375 40.375 22.484375 35.828125 
Q 18.609375 31.296875 18.609375 23.390625 
Q 18.609375 15.53125 22.484375 10.953125 
Q 26.375 6.390625 33.015625 6.390625 
Q 39.65625 6.390625 43.53125 10.953125 
Q 47.40625 15.53125 47.40625 23.390625 
Q 47.40625 31.296875 43.53125 35.828125 
Q 39.65625 40.375 33.015625 40.375 
z
M 52.59375 71.296875 
L 52.59375 62.3125 
Q 48.875 64.0625 45.09375 64.984375 
Q 41.3125 65.921875 37.59375 65.921875 
Q 27.828125 65.921875 22.671875 59.328125 
Q 17.53125 52.734375 16.796875 39.40625 
Q 19.671875 43.65625 24.015625 45.921875 
Q 28.375 48.1875 33.59375 48.1875 
Q 44.578125 48.1875 50.953125 41.515625 
Q 57.328125 34.859375 57.328125 23.390625 
Q 57.328125 12.15625 50.6875 5.359375 
Q 44.046875 -1.421875 33.015625 -1.421875 
Q 20.359375 -1.421875 13.671875 8.265625 
Q 6.984375 17.96875 6.984375 36.375 
Q 6.984375 53.65625 15.1875 63.9375 
Q 23.390625 74.21875 37.203125 74.21875 
Q 40.921875 74.21875 44.703125 73.484375 
Q 48.484375 72.75 52.59375 71.296875 
z
" id="DejaVuSans-54"/>
      </defs>
      <g transform="translate(258.741728 322.182437)scale(0.1 -0.1)">
       <use xlink:href="#DejaVuSans-54"/>
       <use x="63.623047" xlink:href="#DejaVuSans-48"/>
       <use x="127.246094" xlink:href="#DejaVuSans-48"/>
       <use x="190.869141" xlink:href="#DejaVuSans-48"/>
      </g>
     </g>
    </g>
    <g id="xtick_6">
     <g id="line2d_6">
      <g>
       <use style="stroke:#000000;stroke-width:0.8;" x="323.141413" xlink:href="#m4cb305634c" y="307.584"/>
      </g>
     </g>
     <g id="text_6">
      <!-- 8000 -->
      <defs>
       <path d="M 31.78125 34.625 
Q 24.75 34.625 20.71875 30.859375 
Q 16.703125 27.09375 16.703125 20.515625 
Q 16.703125 13.921875 20.71875 10.15625 
Q 24.75 6.390625 31.78125 6.390625 
Q 38.8125 6.390625 42.859375 10.171875 
Q 46.921875 13.96875 46.921875 20.515625 
Q 46.921875 27.09375 42.890625 30.859375 
Q 38.875 34.625 31.78125 34.625 
z
M 21.921875 38.8125 
Q 15.578125 40.375 12.03125 44.71875 
Q 8.5 49.078125 8.5 55.328125 
Q 8.5 64.0625 14.71875 69.140625 
Q 20.953125 74.21875 31.78125 74.21875 
Q 42.671875 74.21875 48.875 69.140625 
Q 55.078125 64.0625 55.078125 55.328125 
Q 55.078125 49.078125 51.53125 44.71875 
Q 48 40.375 41.703125 38.8125 
Q 48.828125 37.15625 52.796875 32.3125 
Q 56.78125 27.484375 56.78125 20.515625 
Q 56.78125 9.90625 50.3125 4.234375 
Q 43.84375 -1.421875 31.78125 -1.421875 
Q 19.734375 -1.421875 13.25 4.234375 
Q 6.78125 9.90625 6.78125 20.515625 
Q 6.78125 27.484375 10.78125 32.3125 
Q 14.796875 37.15625 21.921875 38.8125 
z
M 18.3125 54.390625 
Q 18.3125 48.734375 21.84375 45.5625 
Q 25.390625 42.390625 31.78125 42.390625 
Q 38.140625 42.390625 41.71875 45.5625 
Q 45.3125 48.734375 45.3125 54.390625 
Q 45.3125 60.0625 41.71875 63.234375 
Q 38.140625 66.40625 31.78125 66.40625 
Q 25.390625 66.40625 21.84375 63.234375 
Q 18.3125 60.0625 18.3125 54.390625 
z
" id="DejaVuSans-56"/>
      </defs>
      <g transform="translate(310.416413 322.182437)scale(0.1 -0.1)">
       <use xlink:href="#DejaVuSans-56"/>
       <use x="63.623047" xlink:href="#DejaVuSans-48"/>
       <use x="127.246094" xlink:href="#DejaVuSans-48"/>
       <use x="190.869141" xlink:href="#DejaVuSans-48"/>
      </g>
     </g>
    </g>
    <g id="xtick_7">
     <g id="line2d_7">
      <g>
       <use style="stroke:#000000;stroke-width:0.8;" x="374.816098" xlink:href="#m4cb305634c" y="307.584"/>
      </g>
     </g>
     <g id="text_7">
      <!-- 10000 -->
      <defs>
       <path d="M 12.40625 8.296875 
L 28.515625 8.296875 
L 28.515625 63.921875 
L 10.984375 60.40625 
L 10.984375 69.390625 
L 28.421875 72.90625 
L 38.28125 72.90625 
L 38.28125 8.296875 
L 54.390625 8.296875 
L 54.390625 0 
L 12.40625 0 
z
" id="DejaVuSans-49"/>
      </defs>
      <g transform="translate(358.909848 322.182437)scale(0.1 -0.1)">
       <use xlink:href="#DejaVuSans-49"/>
       <use x="63.623047" xlink:href="#DejaVuSans-48"/>
       <use x="127.246094" xlink:href="#DejaVuSans-48"/>
       <use x="190.869141" xlink:href="#DejaVuSans-48"/>
       <use x="254.492188" xlink:href="#DejaVuSans-48"/>
      </g>
     </g>
    </g>
    <g id="text_8">
     <!-- ferritadmac -->
     <defs>
      <path d="M 37.109375 75.984375 
L 37.109375 68.5 
L 28.515625 68.5 
Q 23.6875 68.5 21.796875 66.546875 
Q 19.921875 64.59375 19.921875 59.515625 
L 19.921875 54.6875 
L 34.71875 54.6875 
L 34.71875 47.703125 
L 19.921875 47.703125 
L 19.921875 0 
L 10.890625 0 
L 10.890625 47.703125 
L 2.296875 47.703125 
L 2.296875 54.6875 
L 10.890625 54.6875 
L 10.890625 58.5 
Q 10.890625 67.625 15.140625 71.796875 
Q 19.390625 75.984375 28.609375 75.984375 
z
" id="DejaVuSans-102"/>
      <path d="M 56.203125 29.59375 
L 56.203125 25.203125 
L 14.890625 25.203125 
Q 15.484375 15.921875 20.484375 11.0625 
Q 25.484375 6.203125 34.421875 6.203125 
Q 39.59375 6.203125 44.453125 7.46875 
Q 49.3125 8.734375 54.109375 11.28125 
L 54.109375 2.78125 
Q 49.265625 0.734375 44.1875 -0.34375 
Q 39.109375 -1.421875 33.890625 -1.421875 
Q 20.796875 -1.421875 13.15625 6.1875 
Q 5.515625 13.8125 5.515625 26.8125 
Q 5.515625 40.234375 12.765625 48.109375 
Q 20.015625 56 32.328125 56 
Q 43.359375 56 49.78125 48.890625 
Q 56.203125 41.796875 56.203125 29.59375 
z
M 47.21875 32.234375 
Q 47.125 39.59375 43.09375 43.984375 
Q 39.0625 48.390625 32.421875 48.390625 
Q 24.90625 48.390625 20.390625 44.140625 
Q 15.875 39.890625 15.1875 32.171875 
z
" id="DejaVuSans-101"/>
      <path d="M 41.109375 46.296875 
Q 39.59375 47.171875 37.8125 47.578125 
Q 36.03125 48 33.890625 48 
Q 26.265625 48 22.1875 43.046875 
Q 18.109375 38.09375 18.109375 28.8125 
L 18.109375 0 
L 9.078125 0 
L 9.078125 54.6875 
L 18.109375 54.6875 
L 18.109375 46.1875 
Q 20.953125 51.171875 25.484375 53.578125 
Q 30.03125 56 36.53125 56 
Q 37.453125 56 38.578125 55.875 
Q 39.703125 55.765625 41.0625 55.515625 
z
" id="DejaVuSans-114"/>
      <path d="M 9.421875 54.6875 
L 18.40625 54.6875 
L 18.40625 0 
L 9.421875 0 
z
M 9.421875 75.984375 
L 18.40625 75.984375 
L 18.40625 64.59375 
L 9.421875 64.59375 
z
" id="DejaVuSans-105"/>
      <path d="M 18.3125 70.21875 
L 18.3125 54.6875 
L 36.8125 54.6875 
L 36.8125 47.703125 
L 18.3125 47.703125 
L 18.3125 18.015625 
Q 18.3125 11.328125 20.140625 9.421875 
Q 21.96875 7.515625 27.59375 7.515625 
L 36.8125 7.515625 
L 36.8125 0 
L 27.59375 0 
Q 17.1875 0 13.234375 3.875 
Q 9.28125 7.765625 9.28125 18.015625 
L 9.28125 47.703125 
L 2.6875 47.703125 
L 2.6875 54.6875 
L 9.28125 54.6875 
L 9.28125 70.21875 
z
" id="DejaVuSans-116"/>
      <path d="M 34.28125 27.484375 
Q 23.390625 27.484375 19.1875 25 
Q 14.984375 22.515625 14.984375 16.5 
Q 14.984375 11.71875 18.140625 8.90625 
Q 21.296875 6.109375 26.703125 6.109375 
Q 34.1875 6.109375 38.703125 11.40625 
Q 43.21875 16.703125 43.21875 25.484375 
L 43.21875 27.484375 
z
M 52.203125 31.203125 
L 52.203125 0 
L 43.21875 0 
L 43.21875 8.296875 
Q 40.140625 3.328125 35.546875 0.953125 
Q 30.953125 -1.421875 24.3125 -1.421875 
Q 15.921875 -1.421875 10.953125 3.296875 
Q 6 8.015625 6 15.921875 
Q 6 25.140625 12.171875 29.828125 
Q 18.359375 34.515625 30.609375 34.515625 
L 43.21875 34.515625 
L 43.21875 35.40625 
Q 43.21875 41.609375 39.140625 45 
Q 35.0625 48.390625 27.6875 48.390625 
Q 23 48.390625 18.546875 47.265625 
Q 14.109375 46.140625 10.015625 43.890625 
L 10.015625 52.203125 
Q 14.9375 54.109375 19.578125 55.046875 
Q 24.21875 56 28.609375 56 
Q 40.484375 56 46.34375 49.84375 
Q 52.203125 43.703125 52.203125 31.203125 
z
" id="DejaVuSans-97"/>
      <path d="M 45.40625 46.390625 
L 45.40625 75.984375 
L 54.390625 75.984375 
L 54.390625 0 
L 45.40625 0 
L 45.40625 8.203125 
Q 42.578125 3.328125 38.25 0.953125 
Q 33.9375 -1.421875 27.875 -1.421875 
Q 17.96875 -1.421875 11.734375 6.484375 
Q 5.515625 14.40625 5.515625 27.296875 
Q 5.515625 40.1875 11.734375 48.09375 
Q 17.96875 56 27.875 56 
Q 33.9375 56 38.25 53.625 
Q 42.578125 51.265625 45.40625 46.390625 
z
M 14.796875 27.296875 
Q 14.796875 17.390625 18.875 11.75 
Q 22.953125 6.109375 30.078125 6.109375 
Q 37.203125 6.109375 41.296875 11.75 
Q 45.40625 17.390625 45.40625 27.296875 
Q 45.40625 37.203125 41.296875 42.84375 
Q 37.203125 48.484375 30.078125 48.484375 
Q 22.953125 48.484375 18.875 42.84375 
Q 14.796875 37.203125 14.796875 27.296875 
z
" id="DejaVuSans-100"/>
      <path d="M 52 44.1875 
Q 55.375 50.25 60.0625 53.125 
Q 64.75 56 71.09375 56 
Q 79.640625 56 84.28125 50.015625 
Q 88.921875 44.046875 88.921875 33.015625 
L 88.921875 0 
L 79.890625 0 
L 79.890625 32.71875 
Q 79.890625 40.578125 77.09375 44.375 
Q 74.3125 48.1875 68.609375 48.1875 
Q 61.625 48.1875 57.5625 43.546875 
Q 53.515625 38.921875 53.515625 30.90625 
L 53.515625 0 
L 44.484375 0 
L 44.484375 32.71875 
Q 44.484375 40.625 41.703125 44.40625 
Q 38.921875 48.1875 33.109375 48.1875 
Q 26.21875 48.1875 22.15625 43.53125 
Q 18.109375 38.875 18.109375 30.90625 
L 18.109375 0 
L 9.078125 0 
L 9.078125 54.6875 
L 18.109375 54.6875 
L 18.109375 46.1875 
Q 21.1875 51.21875 25.484375 53.609375 
Q 29.78125 56 35.6875 56 
Q 41.65625 56 45.828125 52.96875 
Q 50 49.953125 52 44.1875 
z
" id="DejaVuSans-109"/>
      <path d="M 48.78125 52.59375 
L 48.78125 44.1875 
Q 44.96875 46.296875 41.140625 47.34375 
Q 37.3125 48.390625 33.40625 48.390625 
Q 24.65625 48.390625 19.8125 42.84375 
Q 14.984375 37.3125 14.984375 27.296875 
Q 14.984375 17.28125 19.8125 11.734375 
Q 24.65625 6.203125 33.40625 6.203125 
Q 37.3125 6.203125 41.140625 7.25 
Q 44.96875 8.296875 48.78125 10.40625 
L 48.78125 2.09375 
Q 45.015625 0.34375 40.984375 -0.53125 
Q 36.96875 -1.421875 32.421875 -1.421875 
Q 20.0625 -1.421875 12.78125 6.34375 
Q 5.515625 14.109375 5.515625 27.296875 
Q 5.515625 40.671875 12.859375 48.328125 
Q 20.21875 56 33.015625 56 
Q 37.15625 56 41.109375 55.140625 
Q 45.0625 54.296875 48.78125 52.59375 
z
" id="DejaVuSans-99"/>
     </defs>
     <g transform="translate(207.02875 335.860562)scale(0.1 -0.1)">
      <use xlink:href="#DejaVuSans-102"/>
      <use x="35.205078" xlink:href="#DejaVuSans-101"/>
      <use x="96.728516" xlink:href="#DejaVuSans-114"/>
      <use x="136.091797" xlink:href="#DejaVuSans-114"/>
      <use x="177.205078" xlink:href="#DejaVuSans-105"/>
      <use x="204.988281" xlink:href="#DejaVuSans-116"/>
      <use x="244.197266" xlink:href="#DejaVuSans-97"/>
      <use x="305.476562" xlink:href="#DejaVuSans-100"/>
      <use x="368.953125" xlink:href="#DejaVuSans-109"/>
      <use x="466.365234" xlink:href="#DejaVuSans-97"/>
      <use x="527.644531" xlink:href="#DejaVuSans-99"/>
     </g>
    </g>
   </g>
   <g id="matplotlib.axis_2">
    <g id="ytick_1">
     <g id="line2d_8">
      <defs>
       <path d="M 0 0 
L -3.5 0 
" id="m91953fdfed" style="stroke:#000000;stroke-width:0.8;"/>
      </defs>
      <g>
       <use style="stroke:#000000;stroke-width:0.8;" x="57.6" xlink:href="#m91953fdfed" y="174.528"/>
      </g>
     </g>
    </g>
   </g>
   <g id="line2d_9">
    <path clip-path="url(#p6ee3ea57df)" d="M 116.649373 174.528 
L 248.910728 174.528 
" style="fill:none;stroke:#ffa500;stroke-linecap:square;stroke-width:1.5;"/>
   </g>
   <g id="line2d_10">
    <path clip-path="url(#p6ee3ea57df)" d="M 125.795792 174.528 
L 175.041767 174.528 
" style="fill:none;stroke:#4c4c4c;stroke-linecap:square;stroke-width:4.5;"/>
   </g>
   <g id="line2d_11">
    <path clip-path="url(#p6ee3ea57df)" d="M 117.114445 174.528 
L 196.383411 174.528 
" style="fill:none;stroke:#008000;stroke-linecap:square;stroke-width:1.5;"/>
   </g>
   <g id="line2d_12">
    <path clip-path="url(#p6ee3ea57df)" d="M 127.940291 174.528 
L 158.105389 174.528 
" style="fill:none;stroke:#262626;stroke-linecap:square;stroke-width:4.5;"/>
   </g>
   <g id="patch_3">
    <path d="M 57.6 307.584 
L 57.6 41.472 
" style="fill:none;stroke:#000000;stroke-linecap:square;stroke-linejoin:miter;stroke-width:0.8;"/>
   </g>
   <g id="patch_4">
    <path d="M 414.72 307.584 
L 414.72 41.472 
" style="fill:none;stroke:#000000;stroke-linecap:square;stroke-linejoin:miter;stroke-width:0.8;"/>
   </g>
   <g id="patch_5">
    <path d="M 57.6 307.584 
L 414.72 307.584 
" style="fill:none;stroke:#000000;stroke-linecap:square;stroke-linejoin:miter;stroke-width:0.8;"/>
   </g>
   <g id="patch_6">
    <path d="M 57.6 41.472 
L 414.72 41.472 
" style="fill:none;stroke:#000000;stroke-linecap:square;stroke-linejoin:miter;stroke-width:0.8;"/>
   </g>
   <g id="PathCollection_1">
    <defs>
     <path d="M 0 1.5 
C 0.397805 1.5 0.77937 1.341951 1.06066 1.06066 
C 1.341951 0.77937 1.5 0.397805 1.5 0 
C 1.5 -0.397805 1.341951 -0.77937 1.06066 -1.06066 
C 0.77937 -1.341951 0.397805 -1.5 0 -1.5 
C -0.397805 -1.5 -0.77937 -1.341951 -1.06066 -1.06066 
C -1.341951 -0.77937 -1.5 -0.397805 -1.5 0 
C -1.5 0.397805 -1.341951 0.77937 -1.06066 1.06066 
C -0.77937 1.341951 -0.397805 1.5 0 1.5 
z
" id="mb584e715e0" style="stroke:#4c4c4c;stroke-opacity:0.5;"/>
    </defs>
    <g clip-path="url(#p6ee3ea57df)">
     <use style="fill:#ffffff;fill-opacity:0.5;stroke:#4c4c4c;stroke-opacity:0.5;" x="140.083842" xlink:href="#mb584e715e0" y="174.528"/>
    </g>
   </g>
   <g id="PathCollection_2">
    <defs>
     <path d="M 0 1.5 
C 0.397805 1.5 0.77937 1.341951 1.06066 1.06066 
C 1.341951 0.77937 1.5 0.397805 1.5 0 
C 1.5 -0.397805 1.341951 -0.77937 1.06066 -1.06066 
C 0.77937 -1.341951 0.397805 -1.5 0 -1.5 
C -0.397805 -1.5 -0.77937 -1.341951 -1.06066 -1.06066 
C -1.341951 -0.77937 -1.5 -0.397805 -1.5 0 
C -1.5 0.397805 -1.341951 0.77937 -1.06066 1.06066 
C -0.77937 1.341951 -0.397805 1.5 0 1.5 
z
" id="m1816bc38bc" style="stroke:#262626;stroke-opacity:0.5;"/>
    </defs>
    <g clip-path="url(#p6ee3ea57df)">
     <use style="fill:#ffffff;fill-opacity:0.5;stroke:#262626;stroke-opacity:0.5;" x="138.171879" xlink:href="#m1816bc38bc" y="174.528"/>
    </g>
   </g>
   <g id="text_9">
    <!-- Association of ferritadmac vs. sepsis -->
    <defs>
     <path d="M 34.1875 63.1875 
L 20.796875 26.90625 
L 47.609375 26.90625 
z
M 28.609375 72.90625 
L 39.796875 72.90625 
L 67.578125 0 
L 57.328125 0 
L 50.6875 18.703125 
L 17.828125 18.703125 
L 11.1875 0 
L 0.78125 0 
z
" id="DejaVuSans-65"/>
     <path d="M 44.28125 53.078125 
L 44.28125 44.578125 
Q 40.484375 46.53125 36.375 47.5 
Q 32.28125 48.484375 27.875 48.484375 
Q 21.1875 48.484375 17.84375 46.4375 
Q 14.5 44.390625 14.5 40.28125 
Q 14.5 37.15625 16.890625 35.375 
Q 19.28125 33.59375 26.515625 31.984375 
L 29.59375 31.296875 
Q 39.15625 29.25 43.1875 25.515625 
Q 47.21875 21.78125 47.21875 15.09375 
Q 47.21875 7.46875 41.1875 3.015625 
Q 35.15625 -1.421875 24.609375 -1.421875 
Q 20.21875 -1.421875 15.453125 -0.5625 
Q 10.6875 0.296875 5.421875 2 
L 5.421875 11.28125 
Q 10.40625 8.6875 15.234375 7.390625 
Q 20.0625 6.109375 24.8125 6.109375 
Q 31.15625 6.109375 34.5625 8.28125 
Q 37.984375 10.453125 37.984375 14.40625 
Q 37.984375 18.0625 35.515625 20.015625 
Q 33.0625 21.96875 24.703125 23.78125 
L 21.578125 24.515625 
Q 13.234375 26.265625 9.515625 29.90625 
Q 5.8125 33.546875 5.8125 39.890625 
Q 5.8125 47.609375 11.28125 51.796875 
Q 16.75 56 26.8125 56 
Q 31.78125 56 36.171875 55.265625 
Q 40.578125 54.546875 44.28125 53.078125 
z
" id="DejaVuSans-115"/>
     <path d="M 30.609375 48.390625 
Q 23.390625 48.390625 19.1875 42.75 
Q 14.984375 37.109375 14.984375 27.296875 
Q 14.984375 17.484375 19.15625 11.84375 
Q 23.34375 6.203125 30.609375 6.203125 
Q 37.796875 6.203125 41.984375 11.859375 
Q 46.1875 17.53125 46.1875 27.296875 
Q 46.1875 37.015625 41.984375 42.703125 
Q 37.796875 48.390625 30.609375 48.390625 
z
M 30.609375 56 
Q 42.328125 56 49.015625 48.375 
Q 55.71875 40.765625 55.71875 27.296875 
Q 55.71875 13.875 49.015625 6.21875 
Q 42.328125 -1.421875 30.609375 -1.421875 
Q 18.84375 -1.421875 12.171875 6.21875 
Q 5.515625 13.875 5.515625 27.296875 
Q 5.515625 40.765625 12.171875 48.375 
Q 18.84375 56 30.609375 56 
z
" id="DejaVuSans-111"/>
     <path d="M 54.890625 33.015625 
L 54.890625 0 
L 45.90625 0 
L 45.90625 32.71875 
Q 45.90625 40.484375 42.875 44.328125 
Q 39.84375 48.1875 33.796875 48.1875 
Q 26.515625 48.1875 22.3125 43.546875 
Q 18.109375 38.921875 18.109375 30.90625 
L 18.109375 0 
L 9.078125 0 
L 9.078125 54.6875 
L 18.109375 54.6875 
L 18.109375 46.1875 
Q 21.34375 51.125 25.703125 53.5625 
Q 30.078125 56 35.796875 56 
Q 45.21875 56 50.046875 50.171875 
Q 54.890625 44.34375 54.890625 33.015625 
z
" id="DejaVuSans-110"/>
     <path id="DejaVuSans-32"/>
     <path d="M 2.984375 54.6875 
L 12.5 54.6875 
L 29.59375 8.796875 
L 46.6875 54.6875 
L 56.203125 54.6875 
L 35.6875 0 
L 23.484375 0 
z
" id="DejaVuSans-118"/>
     <path d="M 10.6875 12.40625 
L 21 12.40625 
L 21 0 
L 10.6875 0 
z
" id="DejaVuSans-46"/>
     <path d="M 18.109375 8.203125 
L 18.109375 -20.796875 
L 9.078125 -20.796875 
L 9.078125 54.6875 
L 18.109375 54.6875 
L 18.109375 46.390625 
Q 20.953125 51.265625 25.265625 53.625 
Q 29.59375 56 35.59375 56 
Q 45.5625 56 51.78125 48.09375 
Q 58.015625 40.1875 58.015625 27.296875 
Q 58.015625 14.40625 51.78125 6.484375 
Q 45.5625 -1.421875 35.59375 -1.421875 
Q 29.59375 -1.421875 25.265625 0.953125 
Q 20.953125 3.328125 18.109375 8.203125 
z
M 48.6875 27.296875 
Q 48.6875 37.203125 44.609375 42.84375 
Q 40.53125 48.484375 33.40625 48.484375 
Q 26.265625 48.484375 22.1875 42.84375 
Q 18.109375 37.203125 18.109375 27.296875 
Q 18.109375 17.390625 22.1875 11.75 
Q 26.265625 6.109375 33.40625 6.109375 
Q 40.53125 6.109375 44.609375 11.75 
Q 48.6875 17.390625 48.6875 27.296875 
z
" id="DejaVuSans-112"/>
    </defs>
    <g transform="translate(126.500625 35.472)scale(0.12 -0.12)">
     <use xlink:href="#DejaVuSans-65"/>
     <use x="68.408203" xlink:href="#DejaVuSans-115"/>
     <use x="120.507812" xlink:href="#DejaVuSans-115"/>
     <use x="172.607422" xlink:href="#DejaVuSans-111"/>
     <use x="233.789062" xlink:href="#DejaVuSans-99"/>
     <use x="288.769531" xlink:href="#DejaVuSans-105"/>
     <use x="316.552734" xlink:href="#DejaVuSans-97"/>
     <use x="377.832031" xlink:href="#DejaVuSans-116"/>
     <use x="417.041016" xlink:href="#DejaVuSans-105"/>
     <use x="444.824219" xlink:href="#DejaVuSans-111"/>
     <use x="506.005859" xlink:href="#DejaVuSans-110"/>
     <use x="569.384766" xlink:href="#DejaVuSans-32"/>
     <use x="601.171875" xlink:href="#DejaVuSans-111"/>
     <use x="662.353516" xlink:href="#DejaVuSans-102"/>
     <use x="697.558594" xlink:href="#DejaVuSans-32"/>
     <use x="729.345703" xlink:href="#DejaVuSans-102"/>
     <use x="764.550781" xlink:href="#DejaVuSans-101"/>
     <use x="826.074219" xlink:href="#DejaVuSans-114"/>
     <use x="865.4375" xlink:href="#DejaVuSans-114"/>
     <use x="906.550781" xlink:href="#DejaVuSans-105"/>
     <use x="934.333984" xlink:href="#DejaVuSans-116"/>
     <use x="973.542969" xlink:href="#DejaVuSans-97"/>
     <use x="1034.822266" xlink:href="#DejaVuSans-100"/>
     <use x="1098.298828" xlink:href="#DejaVuSans-109"/>
     <use x="1195.710938" xlink:href="#DejaVuSans-97"/>
     <use x="1256.990234" xlink:href="#DejaVuSans-99"/>
     <use x="1311.970703" xlink:href="#DejaVuSans-32"/>
     <use x="1343.757812" xlink:href="#DejaVuSans-118"/>
     <use x="1402.9375" xlink:href="#DejaVuSans-115"/>
     <use x="1455.037109" xlink:href="#DejaVuSans-46"/>
     <use x="1486.824219" xlink:href="#DejaVuSans-32"/>
     <use x="1518.611328" xlink:href="#DejaVuSans-115"/>
     <use x="1570.710938" xlink:href="#DejaVuSans-101"/>
     <use x="1632.234375" xlink:href="#DejaVuSans-112"/>
     <use x="1695.710938" xlink:href="#DejaVuSans-115"/>
     <use x="1747.810547" xlink:href="#DejaVuSans-105"/>
     <use x="1775.59375" xlink:href="#DejaVuSans-115"/>
    </g>
   </g>
   <g id="legend_1">
    <g id="patch_7">
     <path d="M 300.4075 78.82825 
L 407.72 78.82825 
Q 409.72 78.82825 409.72 76.82825 
L 409.72 48.472 
Q 409.72 46.472 407.72 46.472 
L 300.4075 46.472 
Q 298.4075 46.472 298.4075 48.472 
L 298.4075 76.82825 
Q 298.4075 78.82825 300.4075 78.82825 
z
" style="fill:#ffffff;opacity:0.8;stroke:#cccccc;stroke-linejoin:miter;"/>
    </g>
    <g id="line2d_13">
     <path d="M 302.4075 54.570437 
L 322.4075 54.570437 
" style="fill:none;stroke:#ffa500;stroke-linecap:square;stroke-width:1.5;"/>
    </g>
    <g id="line2d_14"/>
    <g id="text_10">
     <!-- sepsis (65) -->
     <defs>
      <path d="M 31 75.875 
Q 24.46875 64.65625 21.28125 53.65625 
Q 18.109375 42.671875 18.109375 31.390625 
Q 18.109375 20.125 21.3125 9.0625 
Q 24.515625 -2 31 -13.1875 
L 23.1875 -13.1875 
Q 15.875 -1.703125 12.234375 9.375 
Q 8.59375 20.453125 8.59375 31.390625 
Q 8.59375 42.28125 12.203125 53.3125 
Q 15.828125 64.359375 23.1875 75.875 
z
" id="DejaVuSans-40"/>
      <path d="M 10.796875 72.90625 
L 49.515625 72.90625 
L 49.515625 64.59375 
L 19.828125 64.59375 
L 19.828125 46.734375 
Q 21.96875 47.46875 24.109375 47.828125 
Q 26.265625 48.1875 28.421875 48.1875 
Q 40.625 48.1875 47.75 41.5 
Q 54.890625 34.8125 54.890625 23.390625 
Q 54.890625 11.625 47.5625 5.09375 
Q 40.234375 -1.421875 26.90625 -1.421875 
Q 22.3125 -1.421875 17.546875 -0.640625 
Q 12.796875 0.140625 7.71875 1.703125 
L 7.71875 11.625 
Q 12.109375 9.234375 16.796875 8.0625 
Q 21.484375 6.890625 26.703125 6.890625 
Q 35.15625 6.890625 40.078125 11.328125 
Q 45.015625 15.765625 45.015625 23.390625 
Q 45.015625 31 40.078125 35.4375 
Q 35.15625 39.890625 26.703125 39.890625 
Q 22.75 39.890625 18.8125 39.015625 
Q 14.890625 38.140625 10.796875 36.28125 
z
" id="DejaVuSans-53"/>
      <path d="M 8.015625 75.875 
L 15.828125 75.875 
Q 23.140625 64.359375 26.78125 53.3125 
Q 30.421875 42.28125 30.421875 31.390625 
Q 30.421875 20.453125 26.78125 9.375 
Q 23.140625 -1.703125 15.828125 -13.1875 
L 8.015625 -13.1875 
Q 14.5 -2 17.703125 9.0625 
Q 20.90625 20.125 20.90625 31.390625 
Q 20.90625 42.671875 17.703125 53.65625 
Q 14.5 64.65625 8.015625 75.875 
z
" id="DejaVuSans-41"/>
     </defs>
     <g transform="translate(330.4075 58.070437)scale(0.1 -0.1)">
      <use xlink:href="#DejaVuSans-115"/>
      <use x="52.099609" xlink:href="#DejaVuSans-101"/>
      <use x="113.623047" xlink:href="#DejaVuSans-112"/>
      <use x="177.099609" xlink:href="#DejaVuSans-115"/>
      <use x="229.199219" xlink:href="#DejaVuSans-105"/>
      <use x="256.982422" xlink:href="#DejaVuSans-115"/>
      <use x="309.082031" xlink:href="#DejaVuSans-32"/>
      <use x="340.869141" xlink:href="#DejaVuSans-40"/>
      <use x="379.882812" xlink:href="#DejaVuSans-54"/>
      <use x="443.505859" xlink:href="#DejaVuSans-53"/>
      <use x="507.128906" xlink:href="#DejaVuSans-41"/>
     </g>
    </g>
    <g id="line2d_15">
     <path d="M 302.4075 69.248562 
L 322.4075 69.248562 
" style="fill:none;stroke:#008000;stroke-linecap:square;stroke-width:1.5;"/>
    </g>
    <g id="line2d_16"/>
    <g id="text_11">
     <!-- Not sepsis (80) -->
     <defs>
      <path d="M 9.8125 72.90625 
L 23.09375 72.90625 
L 55.421875 11.921875 
L 55.421875 72.90625 
L 64.984375 72.90625 
L 64.984375 0 
L 51.703125 0 
L 19.390625 60.984375 
L 19.390625 0 
L 9.8125 0 
z
" id="DejaVuSans-78"/>
     </defs>
     <g transform="translate(330.4075 72.748562)scale(0.1 -0.1)">
      <use xlink:href="#DejaVuSans-78"/>
      <use x="74.804688" xlink:href="#DejaVuSans-111"/>
      <use x="135.986328" xlink:href="#DejaVuSans-116"/>
      <use x="175.195312" xlink:href="#DejaVuSans-32"/>
      <use x="206.982422" xlink:href="#DejaVuSans-115"/>
      <use x="259.082031" xlink:href="#DejaVuSans-101"/>
      <use x="320.605469" xlink:href="#DejaVuSans-112"/>
      <use x="384.082031" xlink:href="#DejaVuSans-115"/>
      <use x="436.181641" xlink:href="#DejaVuSans-105"/>
      <use x="463.964844" xlink:href="#DejaVuSans-115"/>
      <use x="516.064453" xlink:href="#DejaVuSans-32"/>
      <use x="547.851562" xlink:href="#DejaVuSans-40"/>
      <use x="586.865234" xlink:href="#DejaVuSans-56"/>
      <use x="650.488281" xlink:href="#DejaVuSans-48"/>
      <use x="714.111328" xlink:href="#DejaVuSans-41"/>
     </g>
    </g>
   </g>
  </g>
 </g>
 <defs>
  <clipPath id="p6ee3ea57df">
   <rect height="266.112" width="357.12" x="57.6" y="41.472"/>
  </clipPath>
 </defs>
</svg>
