<?xml version="1.0" encoding="utf-8" standalone="no"?>
<!DOCTYPE svg PUBLIC "-//W3C//DTD SVG 1.1//EN"
  "http://www.w3.org/Graphics/SVG/1.1/DTD/svg11.dtd">
<!-- Created with matplotlib (https://matplotlib.org/) -->
<svg height="345.6pt" version="1.1" viewBox="0 0 460.8 345.6" width="460.8pt" xmlns="http://www.w3.org/2000/svg" xmlns:xlink="http://www.w3.org/1999/xlink">
 <defs>
  <style type="text/css">
*{stroke-linecap:butt;stroke-linejoin:round;}
  </style>
 </defs>
 <g id="figure_1">
  <g id="patch_1">
   <path d="M 0 345.6 
L 460.8 345.6 
L 460.8 0 
L 0 0 
z
" style="fill:#ffffff;"/>
  </g>
  <g id="axes_1">
   <g id="patch_2">
    <path d="M 57.6 307.584 
L 414.72 307.584 
L 414.72 41.472 
L 57.6 41.472 
z
" style="fill:#ffffff;"/>
   </g>
   <g id="PolyCollection_1">
    <defs>
     <path d="M 73.832727 -155.20632 
L 73.832727 -186.93768 
L 77.112066 -193.418515 
L 80.391405 -201.560082 
L 83.670744 -211.366052 
L 86.950083 -222.662493 
L 90.229421 -235.067799 
L 93.50876 -247.990612 
L 96.788099 -260.663684 
L 100.067438 -272.214829 
L 103.346777 -281.767587 
L 106.626116 -288.555919 
L 109.905455 -292.032 
L 113.184793 -291.945632 
L 116.464132 -288.378861 
L 119.743471 -281.728743 
L 123.02281 -272.642504 
L 126.302149 -261.919335 
L 129.581488 -250.399154 
L 132.860826 -238.85936 
L 136.140165 -227.936357 
L 139.419504 -218.08107 
L 142.698843 -209.549351 
L 145.978182 -202.421255 
L 149.257521 -196.639159 
L 152.53686 -192.053775 
L 155.816198 -188.468762 
L 159.095537 -185.67764 
L 162.374876 -183.490002 
L 165.654215 -181.746746 
L 168.933554 -180.325903 
L 172.212893 -179.141495 
L 175.492231 -178.13809 
L 178.77157 -177.283373 
L 182.050909 -176.560582 
L 185.330248 -175.961975 
L 188.609587 -175.48394 
L 191.888926 -175.123827 
L 195.168264 -174.878228 
L 198.447603 -174.742237 
L 201.726942 -174.709183 
L 205.006281 -174.770427 
L 208.28562 -174.914995 
L 211.564959 -175.129034 
L 214.844298 -175.395273 
L 218.123636 -175.69278 
L 221.402975 -175.997334 
L 224.682314 -176.282623 
L 227.961653 -176.522241 
L 231.240992 -176.692268 
L 234.520331 -176.773928 
L 237.799669 -176.755776 
L 241.079008 -176.634911 
L 244.358347 -176.41691 
L 247.637686 -176.114532 
L 250.917025 -175.7455 
L 254.196364 -175.329892 
L 257.475702 -174.887698 
L 260.755041 -174.436974 
L 264.03438 -173.992787 
L 267.313719 -173.566919 
L 270.593058 -173.168106 
L 273.872397 -172.802524 
L 277.151736 -172.474285 
L 280.431074 -172.18579 
L 283.710413 -171.937931 
L 286.989752 -171.730205 
L 290.269091 -171.560837 
L 293.54843 -171.427011 
L 296.827769 -171.325218 
L 300.107107 -171.251738 
L 303.386446 -171.203178 
L 306.665785 -171.177008 
L 309.945124 -171.172022 
L 313.224463 -171.188644 
L 316.503802 -171.229029 
L 319.78314 -171.296893 
L 323.062479 -171.397017 
L 326.341818 -171.534412 
L 329.621157 -171.713151 
L 332.900496 -171.934996 
L 336.179835 -172.197989 
L 339.459174 -172.4953 
L 342.738512 -172.814631 
L 346.017851 -173.138462 
L 349.29719 -173.445287 
L 352.576529 -173.711786 
L 355.855868 -173.915683 
L 359.135207 -174.038792 
L 362.414545 -174.069686 
L 365.693884 -174.005447 
L 368.973223 -173.852118 
L 372.252562 -173.623769 
L 375.531901 -173.340363 
L 378.81124 -173.024884 
L 382.090579 -172.700297 
L 385.369917 -172.386872 
L 388.649256 -172.100316 
L 391.928595 -171.850866 
L 395.207934 -171.643336 
L 398.487273 -171.477895 
L 398.487273 -170.666105 
L 398.487273 -170.666105 
L 395.207934 -170.500664 
L 391.928595 -170.293134 
L 388.649256 -170.043684 
L 385.369917 -169.757128 
L 382.090579 -169.443703 
L 378.81124 -169.119116 
L 375.531901 -168.803637 
L 372.252562 -168.520231 
L 368.973223 -168.291882 
L 365.693884 -168.138553 
L 362.414545 -168.074314 
L 359.135207 -168.105208 
L 355.855868 -168.228317 
L 352.576529 -168.432214 
L 349.29719 -168.698713 
L 346.017851 -169.005538 
L 342.738512 -169.329369 
L 339.459174 -169.6487 
L 336.179835 -169.946011 
L 332.900496 -170.209004 
L 329.621157 -170.430849 
L 326.341818 -170.609588 
L 323.062479 -170.746983 
L 319.78314 -170.847107 
L 316.503802 -170.914971 
L 313.224463 -170.955356 
L 309.945124 -170.971978 
L 306.665785 -170.966992 
L 303.386446 -170.940822 
L 300.107107 -170.892262 
L 296.827769 -170.818782 
L 293.54843 -170.716989 
L 290.269091 -170.583163 
L 286.989752 -170.413795 
L 283.710413 -170.206069 
L 280.431074 -169.95821 
L 277.151736 -169.669715 
L 273.872397 -169.341476 
L 270.593058 -168.975894 
L 267.313719 -168.577081 
L 264.03438 -168.151213 
L 260.755041 -167.707026 
L 257.475702 -167.256302 
L 254.196364 -166.814108 
L 250.917025 -166.3985 
L 247.637686 -166.029468 
L 244.358347 -165.72709 
L 241.079008 -165.509089 
L 237.799669 -165.388224 
L 234.520331 -165.370072 
L 231.240992 -165.451732 
L 227.961653 -165.621759 
L 224.682314 -165.861377 
L 221.402975 -166.146666 
L 218.123636 -166.45122 
L 214.844298 -166.748727 
L 211.564959 -167.014966 
L 208.28562 -167.229005 
L 205.006281 -167.373573 
L 201.726942 -167.434817 
L 198.447603 -167.401763 
L 195.168264 -167.265772 
L 191.888926 -167.020173 
L 188.609587 -166.66006 
L 185.330248 -166.182025 
L 182.050909 -165.583418 
L 178.77157 -164.860627 
L 175.492231 -164.00591 
L 172.212893 -163.002505 
L 168.933554 -161.818097 
L 165.654215 -160.397254 
L 162.374876 -158.653998 
L 159.095537 -156.46636 
L 155.816198 -153.675238 
L 152.53686 -150.090225 
L 149.257521 -145.504841 
L 145.978182 -139.722745 
L 142.698843 -132.594649 
L 139.419504 -124.06293 
L 136.140165 -114.207643 
L 132.860826 -103.28464 
L 129.581488 -91.744846 
L 126.302149 -80.224665 
L 123.02281 -69.501496 
L 119.743471 -60.415257 
L 116.464132 -53.765139 
L 113.184793 -50.198368 
L 109.905455 -50.112 
L 106.626116 -53.588081 
L 103.346777 -60.376413 
L 100.067438 -69.929171 
L 96.788099 -81.480316 
L 93.50876 -94.153388 
L 90.229421 -107.076201 
L 86.950083 -119.481507 
L 83.670744 -130.777948 
L 80.391405 -140.583918 
L 77.112066 -148.725485 
L 73.832727 -155.20632 
z
" id="mb355ed49d2" style="stroke:#4c4c4c;stroke-opacity:0.5;stroke-width:1.5;"/>
    </defs>
    <g clip-path="url(#p6297c98e65)">
     <use style="fill:#df9c20;fill-opacity:0.5;stroke:#4c4c4c;stroke-opacity:0.5;stroke-width:1.5;" x="0" xlink:href="#mb355ed49d2" y="345.6"/>
    </g>
   </g>
   <g id="PolyCollection_2">
    <defs>
     <path d="M 85.680175 -154.705801 
L 85.680175 -187.438199 
L 88.720171 -197.002777 
L 91.760168 -209.761432 
L 94.800164 -225.432136 
L 97.840161 -242.997633 
L 100.880157 -260.6926 
L 103.920154 -276.234981 
L 106.96015 -287.287797 
L 110.000147 -292.032 
L 113.040143 -289.659218 
L 116.08014 -280.601057 
L 119.120136 -266.405462 
L 122.160132 -249.308646 
L 125.200129 -231.665276 
L 128.240125 -215.435934 
L 131.280122 -201.879916 
L 134.320118 -191.499317 
L 137.360115 -184.182489 
L 140.400111 -179.442764 
L 143.440108 -176.651421 
L 146.480104 -175.20345 
L 149.520101 -174.60183 
L 152.560097 -174.478868 
L 155.600094 -174.584116 
L 158.64009 -174.762529 
L 161.680087 -174.93392 
L 164.720083 -175.074293 
L 167.760079 -175.195693 
L 170.800076 -175.323316 
L 173.840072 -175.473294 
L 176.880069 -175.637684 
L 179.920065 -175.782263 
L 182.960062 -175.857886 
L 186.000058 -175.82014 
L 189.040055 -175.648108 
L 192.080051 -175.353643 
L 195.120048 -174.977289 
L 198.160044 -174.573444 
L 201.200041 -174.192139 
L 204.240037 -173.86554 
L 207.280034 -173.604088 
L 210.32003 -173.401908 
L 213.360026 -173.246869 
L 216.400023 -173.129282 
L 219.440019 -173.04508 
L 222.480016 -172.993093 
L 225.520012 -172.969337 
L 228.560009 -172.962642 
L 231.600005 -172.954715 
L 234.640002 -172.924987 
L 237.679998 -172.857803 
L 240.719995 -172.748312 
L 243.759991 -172.60416 
L 246.799988 -172.442372 
L 249.839984 -172.283175 
L 252.879981 -172.143761 
L 255.919977 -172.034625 
L 258.959974 -171.959409 
L 261.99997 -171.91732 
L 265.039966 -171.906013 
L 268.079963 -171.923024 
L 271.119959 -171.965007 
L 274.159956 -172.025572 
L 277.199952 -172.093485 
L 280.239949 -172.152877 
L 283.279945 -172.186096 
L 286.319942 -172.178316 
L 289.359938 -172.12207 
L 292.399935 -172.01975 
L 295.439931 -171.883061 
L 298.479928 -171.72977 
L 301.519924 -171.57915 
L 304.559921 -171.447861 
L 307.599917 -171.347471 
L 310.639913 -171.283893 
L 313.67991 -171.258176 
L 316.719906 -171.267765 
L 319.759903 -171.307519 
L 322.799899 -171.370346 
L 325.839896 -171.447748 
L 328.879892 -171.53079 
L 331.919889 -171.611672 
L 334.959885 -171.685595 
L 337.999882 -171.752066 
L 341.039878 -171.814731 
L 344.079875 -171.879309 
L 347.119871 -171.950098 
L 350.159868 -172.026428 
L 353.199864 -172.100755 
L 356.23986 -172.159577 
L 359.279857 -172.18715 
L 362.319853 -172.170676 
L 365.35985 -172.104883 
L 368.399846 -171.994141 
L 371.439843 -171.851365 
L 374.479839 -171.694315 
L 377.519836 -171.540877 
L 380.559832 -171.40508 
L 383.599829 -171.294982 
L 386.639825 -171.212636 
L 386.639825 -170.931364 
L 386.639825 -170.931364 
L 383.599829 -170.849018 
L 380.559832 -170.73892 
L 377.519836 -170.603123 
L 374.479839 -170.449685 
L 371.439843 -170.292635 
L 368.399846 -170.149859 
L 365.35985 -170.039117 
L 362.319853 -169.973324 
L 359.279857 -169.95685 
L 356.23986 -169.984423 
L 353.199864 -170.043245 
L 350.159868 -170.117572 
L 347.119871 -170.193902 
L 344.079875 -170.264691 
L 341.039878 -170.329269 
L 337.999882 -170.391934 
L 334.959885 -170.458405 
L 331.919889 -170.532328 
L 328.879892 -170.61321 
L 325.839896 -170.696252 
L 322.799899 -170.773654 
L 319.759903 -170.836481 
L 316.719906 -170.876235 
L 313.67991 -170.885824 
L 310.639913 -170.860107 
L 307.599917 -170.796529 
L 304.559921 -170.696139 
L 301.519924 -170.56485 
L 298.479928 -170.41423 
L 295.439931 -170.260939 
L 292.399935 -170.12425 
L 289.359938 -170.02193 
L 286.319942 -169.965684 
L 283.279945 -169.957904 
L 280.239949 -169.991123 
L 277.199952 -170.050515 
L 274.159956 -170.118428 
L 271.119959 -170.178993 
L 268.079963 -170.220976 
L 265.039966 -170.237987 
L 261.99997 -170.22668 
L 258.959974 -170.184591 
L 255.919977 -170.109375 
L 252.879981 -170.000239 
L 249.839984 -169.860825 
L 246.799988 -169.701628 
L 243.759991 -169.53984 
L 240.719995 -169.395688 
L 237.679998 -169.286197 
L 234.640002 -169.219013 
L 231.600005 -169.189285 
L 228.560009 -169.181358 
L 225.520012 -169.174663 
L 222.480016 -169.150907 
L 219.440019 -169.09892 
L 216.400023 -169.014718 
L 213.360026 -168.897131 
L 210.32003 -168.742092 
L 207.280034 -168.539912 
L 204.240037 -168.27846 
L 201.200041 -167.951861 
L 198.160044 -167.570556 
L 195.120048 -167.166711 
L 192.080051 -166.790357 
L 189.040055 -166.495892 
L 186.000058 -166.32386 
L 182.960062 -166.286114 
L 179.920065 -166.361737 
L 176.880069 -166.506316 
L 173.840072 -166.670706 
L 170.800076 -166.820684 
L 167.760079 -166.948307 
L 164.720083 -167.069707 
L 161.680087 -167.21008 
L 158.64009 -167.381471 
L 155.600094 -167.559884 
L 152.560097 -167.665132 
L 149.520101 -167.54217 
L 146.480104 -166.94055 
L 143.440108 -165.492579 
L 140.400111 -162.701236 
L 137.360115 -157.961511 
L 134.320118 -150.644683 
L 131.280122 -140.264084 
L 128.240125 -126.708066 
L 125.200129 -110.478724 
L 122.160132 -92.835354 
L 119.120136 -75.738538 
L 116.08014 -61.542943 
L 113.040143 -52.484782 
L 110.000147 -50.112 
L 106.96015 -54.856203 
L 103.920154 -65.909019 
L 100.880157 -81.4514 
L 97.840161 -99.146367 
L 94.800164 -116.711864 
L 91.760168 -132.382568 
L 88.720171 -145.141223 
L 85.680175 -154.705801 
z
" id="m59dda4087d" style="stroke:#262626;stroke-opacity:0.5;stroke-width:1.5;"/>
    </defs>
    <g clip-path="url(#p6297c98e65)">
     <use style="fill:#107010;fill-opacity:0.5;stroke:#262626;stroke-opacity:0.5;stroke-width:1.5;" x="0" xlink:href="#m59dda4087d" y="345.6"/>
    </g>
   </g>
   <g id="matplotlib.axis_1">
    <g id="xtick_1">
     <g id="line2d_1">
      <defs>
       <path d="M 0 0 
L 0 3.5 
" id="m15d8cca584" style="stroke:#000000;stroke-width:0.8;"/>
      </defs>
      <g>
       <use style="stroke:#000000;stroke-width:0.8;" x="60.213892" xlink:href="#m15d8cca584" y="307.584"/>
      </g>
     </g>
     <g id="text_1">
      <!-- −2 -->
      <defs>
       <path d="M 10.59375 35.5 
L 73.1875 35.5 
L 73.1875 27.203125 
L 10.59375 27.203125 
z
" id="DejaVuSans-8722"/>
       <path d="M 19.1875 8.296875 
L 53.609375 8.296875 
L 53.609375 0 
L 7.328125 0 
L 7.328125 8.296875 
Q 12.9375 14.109375 22.625 23.890625 
Q 32.328125 33.6875 34.8125 36.53125 
Q 39.546875 41.84375 41.421875 45.53125 
Q 43.3125 49.21875 43.3125 52.78125 
Q 43.3125 58.59375 39.234375 62.25 
Q 35.15625 65.921875 28.609375 65.921875 
Q 23.96875 65.921875 18.8125 64.3125 
Q 13.671875 62.703125 7.8125 59.421875 
L 7.8125 69.390625 
Q 13.765625 71.78125 18.9375 73 
Q 24.125 74.21875 28.421875 74.21875 
Q 39.75 74.21875 46.484375 68.546875 
Q 53.21875 62.890625 53.21875 53.421875 
Q 53.21875 48.921875 51.53125 44.890625 
Q 49.859375 40.875 45.40625 35.40625 
Q 44.1875 33.984375 37.640625 27.21875 
Q 31.109375 20.453125 19.1875 8.296875 
z
" id="DejaVuSans-50"/>
      </defs>
      <g transform="translate(52.842798 322.182437)scale(0.1 -0.1)">
       <use xlink:href="#DejaVuSans-8722"/>
       <use x="83.789062" xlink:href="#DejaVuSans-50"/>
      </g>
     </g>
    </g>
    <g id="xtick_2">
     <g id="line2d_2">
      <g>
       <use style="stroke:#000000;stroke-width:0.8;" x="110.484208" xlink:href="#m15d8cca584" y="307.584"/>
      </g>
     </g>
     <g id="text_2">
      <!-- 0 -->
      <defs>
       <path d="M 31.78125 66.40625 
Q 24.171875 66.40625 20.328125 58.90625 
Q 16.5 51.421875 16.5 36.375 
Q 16.5 21.390625 20.328125 13.890625 
Q 24.171875 6.390625 31.78125 6.390625 
Q 39.453125 6.390625 43.28125 13.890625 
Q 47.125 21.390625 47.125 36.375 
Q 47.125 51.421875 43.28125 58.90625 
Q 39.453125 66.40625 31.78125 66.40625 
z
M 31.78125 74.21875 
Q 44.046875 74.21875 50.515625 64.515625 
Q 56.984375 54.828125 56.984375 36.375 
Q 56.984375 17.96875 50.515625 8.265625 
Q 44.046875 -1.421875 31.78125 -1.421875 
Q 19.53125 -1.421875 13.0625 8.265625 
Q 6.59375 17.96875 6.59375 36.375 
Q 6.59375 54.828125 13.0625 64.515625 
Q 19.53125 74.21875 31.78125 74.21875 
z
" id="DejaVuSans-48"/>
      </defs>
      <g transform="translate(107.302958 322.182437)scale(0.1 -0.1)">
       <use xlink:href="#DejaVuSans-48"/>
      </g>
     </g>
    </g>
    <g id="xtick_3">
     <g id="line2d_3">
      <g>
       <use style="stroke:#000000;stroke-width:0.8;" x="160.754525" xlink:href="#m15d8cca584" y="307.584"/>
      </g>
     </g>
     <g id="text_3">
      <!-- 2 -->
      <g transform="translate(157.573275 322.182437)scale(0.1 -0.1)">
       <use xlink:href="#DejaVuSans-50"/>
      </g>
     </g>
    </g>
    <g id="xtick_4">
     <g id="line2d_4">
      <g>
       <use style="stroke:#000000;stroke-width:0.8;" x="211.024842" xlink:href="#m15d8cca584" y="307.584"/>
      </g>
     </g>
     <g id="text_4">
      <!-- 4 -->
      <defs>
       <path d="M 37.796875 64.3125 
L 12.890625 25.390625 
L 37.796875 25.390625 
z
M 35.203125 72.90625 
L 47.609375 72.90625 
L 47.609375 25.390625 
L 58.015625 25.390625 
L 58.015625 17.1875 
L 47.609375 17.1875 
L 47.609375 0 
L 37.796875 0 
L 37.796875 17.1875 
L 4.890625 17.1875 
L 4.890625 26.703125 
z
" id="DejaVuSans-52"/>
      </defs>
      <g transform="translate(207.843592 322.182437)scale(0.1 -0.1)">
       <use xlink:href="#DejaVuSans-52"/>
      </g>
     </g>
    </g>
    <g id="xtick_5">
     <g id="line2d_5">
      <g>
       <use style="stroke:#000000;stroke-width:0.8;" x="261.295158" xlink:href="#m15d8cca584" y="307.584"/>
      </g>
     </g>
     <g id="text_5">
      <!-- 6 -->
      <defs>
       <path d="M 33.015625 40.375 
Q 26.375 40.375 22.484375 35.828125 
Q 18.609375 31.296875 18.609375 23.390625 
Q 18.609375 15.53125 22.484375 10.953125 
Q 26.375 6.390625 33.015625 6.390625 
Q 39.65625 6.390625 43.53125 10.953125 
Q 47.40625 15.53125 47.40625 23.390625 
Q 47.40625 31.296875 43.53125 35.828125 
Q 39.65625 40.375 33.015625 40.375 
z
M 52.59375 71.296875 
L 52.59375 62.3125 
Q 48.875 64.0625 45.09375 64.984375 
Q 41.3125 65.921875 37.59375 65.921875 
Q 27.828125 65.921875 22.671875 59.328125 
Q 17.53125 52.734375 16.796875 39.40625 
Q 19.671875 43.65625 24.015625 45.921875 
Q 28.375 48.1875 33.59375 48.1875 
Q 44.578125 48.1875 50.953125 41.515625 
Q 57.328125 34.859375 57.328125 23.390625 
Q 57.328125 12.15625 50.6875 5.359375 
Q 44.046875 -1.421875 33.015625 -1.421875 
Q 20.359375 -1.421875 13.671875 8.265625 
Q 6.984375 17.96875 6.984375 36.375 
Q 6.984375 53.65625 15.1875 63.9375 
Q 23.390625 74.21875 37.203125 74.21875 
Q 40.921875 74.21875 44.703125 73.484375 
Q 48.484375 72.75 52.59375 71.296875 
z
" id="DejaVuSans-54"/>
      </defs>
      <g transform="translate(258.113908 322.182437)scale(0.1 -0.1)">
       <use xlink:href="#DejaVuSans-54"/>
      </g>
     </g>
    </g>
    <g id="xtick_6">
     <g id="line2d_6">
      <g>
       <use style="stroke:#000000;stroke-width:0.8;" x="311.565475" xlink:href="#m15d8cca584" y="307.584"/>
      </g>
     </g>
     <g id="text_6">
      <!-- 8 -->
      <defs>
       <path d="M 31.78125 34.625 
Q 24.75 34.625 20.71875 30.859375 
Q 16.703125 27.09375 16.703125 20.515625 
Q 16.703125 13.921875 20.71875 10.15625 
Q 24.75 6.390625 31.78125 6.390625 
Q 38.8125 6.390625 42.859375 10.171875 
Q 46.921875 13.96875 46.921875 20.515625 
Q 46.921875 27.09375 42.890625 30.859375 
Q 38.875 34.625 31.78125 34.625 
z
M 21.921875 38.8125 
Q 15.578125 40.375 12.03125 44.71875 
Q 8.5 49.078125 8.5 55.328125 
Q 8.5 64.0625 14.71875 69.140625 
Q 20.953125 74.21875 31.78125 74.21875 
Q 42.671875 74.21875 48.875 69.140625 
Q 55.078125 64.0625 55.078125 55.328125 
Q 55.078125 49.078125 51.53125 44.71875 
Q 48 40.375 41.703125 38.8125 
Q 48.828125 37.15625 52.796875 32.3125 
Q 56.78125 27.484375 56.78125 20.515625 
Q 56.78125 9.90625 50.3125 4.234375 
Q 43.84375 -1.421875 31.78125 -1.421875 
Q 19.734375 -1.421875 13.25 4.234375 
Q 6.78125 9.90625 6.78125 20.515625 
Q 6.78125 27.484375 10.78125 32.3125 
Q 14.796875 37.15625 21.921875 38.8125 
z
M 18.3125 54.390625 
Q 18.3125 48.734375 21.84375 45.5625 
Q 25.390625 42.390625 31.78125 42.390625 
Q 38.140625 42.390625 41.71875 45.5625 
Q 45.3125 48.734375 45.3125 54.390625 
Q 45.3125 60.0625 41.71875 63.234375 
Q 38.140625 66.40625 31.78125 66.40625 
Q 25.390625 66.40625 21.84375 63.234375 
Q 18.3125 60.0625 18.3125 54.390625 
z
" id="DejaVuSans-56"/>
      </defs>
      <g transform="translate(308.384225 322.182437)scale(0.1 -0.1)">
       <use xlink:href="#DejaVuSans-56"/>
      </g>
     </g>
    </g>
    <g id="xtick_7">
     <g id="line2d_7">
      <g>
       <use style="stroke:#000000;stroke-width:0.8;" x="361.835792" xlink:href="#m15d8cca584" y="307.584"/>
      </g>
     </g>
     <g id="text_7">
      <!-- 10 -->
      <defs>
       <path d="M 12.40625 8.296875 
L 28.515625 8.296875 
L 28.515625 63.921875 
L 10.984375 60.40625 
L 10.984375 69.390625 
L 28.421875 72.90625 
L 38.28125 72.90625 
L 38.28125 8.296875 
L 54.390625 8.296875 
L 54.390625 0 
L 12.40625 0 
z
" id="DejaVuSans-49"/>
      </defs>
      <g transform="translate(355.473292 322.182437)scale(0.1 -0.1)">
       <use xlink:href="#DejaVuSans-49"/>
       <use x="63.623047" xlink:href="#DejaVuSans-48"/>
      </g>
     </g>
    </g>
    <g id="xtick_8">
     <g id="line2d_8">
      <g>
       <use style="stroke:#000000;stroke-width:0.8;" x="412.106108" xlink:href="#m15d8cca584" y="307.584"/>
      </g>
     </g>
     <g id="text_8">
      <!-- 12 -->
      <g transform="translate(405.743608 322.182437)scale(0.1 -0.1)">
       <use xlink:href="#DejaVuSans-49"/>
       <use x="63.623047" xlink:href="#DejaVuSans-50"/>
      </g>
     </g>
    </g>
    <g id="text_9">
     <!-- kaletra_days -->
     <defs>
      <path d="M 9.078125 75.984375 
L 18.109375 75.984375 
L 18.109375 31.109375 
L 44.921875 54.6875 
L 56.390625 54.6875 
L 27.390625 29.109375 
L 57.625 0 
L 45.90625 0 
L 18.109375 26.703125 
L 18.109375 0 
L 9.078125 0 
z
" id="DejaVuSans-107"/>
      <path d="M 34.28125 27.484375 
Q 23.390625 27.484375 19.1875 25 
Q 14.984375 22.515625 14.984375 16.5 
Q 14.984375 11.71875 18.140625 8.90625 
Q 21.296875 6.109375 26.703125 6.109375 
Q 34.1875 6.109375 38.703125 11.40625 
Q 43.21875 16.703125 43.21875 25.484375 
L 43.21875 27.484375 
z
M 52.203125 31.203125 
L 52.203125 0 
L 43.21875 0 
L 43.21875 8.296875 
Q 40.140625 3.328125 35.546875 0.953125 
Q 30.953125 -1.421875 24.3125 -1.421875 
Q 15.921875 -1.421875 10.953125 3.296875 
Q 6 8.015625 6 15.921875 
Q 6 25.140625 12.171875 29.828125 
Q 18.359375 34.515625 30.609375 34.515625 
L 43.21875 34.515625 
L 43.21875 35.40625 
Q 43.21875 41.609375 39.140625 45 
Q 35.0625 48.390625 27.6875 48.390625 
Q 23 48.390625 18.546875 47.265625 
Q 14.109375 46.140625 10.015625 43.890625 
L 10.015625 52.203125 
Q 14.9375 54.109375 19.578125 55.046875 
Q 24.21875 56 28.609375 56 
Q 40.484375 56 46.34375 49.84375 
Q 52.203125 43.703125 52.203125 31.203125 
z
" id="DejaVuSans-97"/>
      <path d="M 9.421875 75.984375 
L 18.40625 75.984375 
L 18.40625 0 
L 9.421875 0 
z
" id="DejaVuSans-108"/>
      <path d="M 56.203125 29.59375 
L 56.203125 25.203125 
L 14.890625 25.203125 
Q 15.484375 15.921875 20.484375 11.0625 
Q 25.484375 6.203125 34.421875 6.203125 
Q 39.59375 6.203125 44.453125 7.46875 
Q 49.3125 8.734375 54.109375 11.28125 
L 54.109375 2.78125 
Q 49.265625 0.734375 44.1875 -0.34375 
Q 39.109375 -1.421875 33.890625 -1.421875 
Q 20.796875 -1.421875 13.15625 6.1875 
Q 5.515625 13.8125 5.515625 26.8125 
Q 5.515625 40.234375 12.765625 48.109375 
Q 20.015625 56 32.328125 56 
Q 43.359375 56 49.78125 48.890625 
Q 56.203125 41.796875 56.203125 29.59375 
z
M 47.21875 32.234375 
Q 47.125 39.59375 43.09375 43.984375 
Q 39.0625 48.390625 32.421875 48.390625 
Q 24.90625 48.390625 20.390625 44.140625 
Q 15.875 39.890625 15.1875 32.171875 
z
" id="DejaVuSans-101"/>
      <path d="M 18.3125 70.21875 
L 18.3125 54.6875 
L 36.8125 54.6875 
L 36.8125 47.703125 
L 18.3125 47.703125 
L 18.3125 18.015625 
Q 18.3125 11.328125 20.140625 9.421875 
Q 21.96875 7.515625 27.59375 7.515625 
L 36.8125 7.515625 
L 36.8125 0 
L 27.59375 0 
Q 17.1875 0 13.234375 3.875 
Q 9.28125 7.765625 9.28125 18.015625 
L 9.28125 47.703125 
L 2.6875 47.703125 
L 2.6875 54.6875 
L 9.28125 54.6875 
L 9.28125 70.21875 
z
" id="DejaVuSans-116"/>
      <path d="M 41.109375 46.296875 
Q 39.59375 47.171875 37.8125 47.578125 
Q 36.03125 48 33.890625 48 
Q 26.265625 48 22.1875 43.046875 
Q 18.109375 38.09375 18.109375 28.8125 
L 18.109375 0 
L 9.078125 0 
L 9.078125 54.6875 
L 18.109375 54.6875 
L 18.109375 46.1875 
Q 20.953125 51.171875 25.484375 53.578125 
Q 30.03125 56 36.53125 56 
Q 37.453125 56 38.578125 55.875 
Q 39.703125 55.765625 41.0625 55.515625 
z
" id="DejaVuSans-114"/>
      <path d="M 50.984375 -16.609375 
L 50.984375 -23.578125 
L -0.984375 -23.578125 
L -0.984375 -16.609375 
z
" id="DejaVuSans-95"/>
      <path d="M 45.40625 46.390625 
L 45.40625 75.984375 
L 54.390625 75.984375 
L 54.390625 0 
L 45.40625 0 
L 45.40625 8.203125 
Q 42.578125 3.328125 38.25 0.953125 
Q 33.9375 -1.421875 27.875 -1.421875 
Q 17.96875 -1.421875 11.734375 6.484375 
Q 5.515625 14.40625 5.515625 27.296875 
Q 5.515625 40.1875 11.734375 48.09375 
Q 17.96875 56 27.875 56 
Q 33.9375 56 38.25 53.625 
Q 42.578125 51.265625 45.40625 46.390625 
z
M 14.796875 27.296875 
Q 14.796875 17.390625 18.875 11.75 
Q 22.953125 6.109375 30.078125 6.109375 
Q 37.203125 6.109375 41.296875 11.75 
Q 45.40625 17.390625 45.40625 27.296875 
Q 45.40625 37.203125 41.296875 42.84375 
Q 37.203125 48.484375 30.078125 48.484375 
Q 22.953125 48.484375 18.875 42.84375 
Q 14.796875 37.203125 14.796875 27.296875 
z
" id="DejaVuSans-100"/>
      <path d="M 32.171875 -5.078125 
Q 28.375 -14.84375 24.75 -17.8125 
Q 21.140625 -20.796875 15.09375 -20.796875 
L 7.90625 -20.796875 
L 7.90625 -13.28125 
L 13.1875 -13.28125 
Q 16.890625 -13.28125 18.9375 -11.515625 
Q 21 -9.765625 23.484375 -3.21875 
L 25.09375 0.875 
L 2.984375 54.6875 
L 12.5 54.6875 
L 29.59375 11.921875 
L 46.6875 54.6875 
L 56.203125 54.6875 
z
" id="DejaVuSans-121"/>
      <path d="M 44.28125 53.078125 
L 44.28125 44.578125 
Q 40.484375 46.53125 36.375 47.5 
Q 32.28125 48.484375 27.875 48.484375 
Q 21.1875 48.484375 17.84375 46.4375 
Q 14.5 44.390625 14.5 40.28125 
Q 14.5 37.15625 16.890625 35.375 
Q 19.28125 33.59375 26.515625 31.984375 
L 29.59375 31.296875 
Q 39.15625 29.25 43.1875 25.515625 
Q 47.21875 21.78125 47.21875 15.09375 
Q 47.21875 7.46875 41.1875 3.015625 
Q 35.15625 -1.421875 24.609375 -1.421875 
Q 20.21875 -1.421875 15.453125 -0.5625 
Q 10.6875 0.296875 5.421875 2 
L 5.421875 11.28125 
Q 10.40625 8.6875 15.234375 7.390625 
Q 20.0625 6.109375 24.8125 6.109375 
Q 31.15625 6.109375 34.5625 8.28125 
Q 37.984375 10.453125 37.984375 14.40625 
Q 37.984375 18.0625 35.515625 20.015625 
Q 33.0625 21.96875 24.703125 23.78125 
L 21.578125 24.515625 
Q 13.234375 26.265625 9.515625 29.90625 
Q 5.8125 33.546875 5.8125 39.890625 
Q 5.8125 47.609375 11.28125 51.796875 
Q 16.75 56 26.8125 56 
Q 31.78125 56 36.171875 55.265625 
Q 40.578125 54.546875 44.28125 53.078125 
z
" id="DejaVuSans-115"/>
     </defs>
     <g transform="translate(204.440469 335.860562)scale(0.1 -0.1)">
      <use xlink:href="#DejaVuSans-107"/>
      <use x="56.160156" xlink:href="#DejaVuSans-97"/>
      <use x="117.439453" xlink:href="#DejaVuSans-108"/>
      <use x="145.222656" xlink:href="#DejaVuSans-101"/>
      <use x="206.746094" xlink:href="#DejaVuSans-116"/>
      <use x="245.955078" xlink:href="#DejaVuSans-114"/>
      <use x="287.068359" xlink:href="#DejaVuSans-97"/>
      <use x="348.347656" xlink:href="#DejaVuSans-95"/>
      <use x="398.347656" xlink:href="#DejaVuSans-100"/>
      <use x="461.824219" xlink:href="#DejaVuSans-97"/>
      <use x="523.103516" xlink:href="#DejaVuSans-121"/>
      <use x="582.283203" xlink:href="#DejaVuSans-115"/>
     </g>
    </g>
   </g>
   <g id="matplotlib.axis_2">
    <g id="ytick_1">
     <g id="line2d_9">
      <defs>
       <path d="M 0 0 
L -3.5 0 
" id="m99c859b192" style="stroke:#000000;stroke-width:0.8;"/>
      </defs>
      <g>
       <use style="stroke:#000000;stroke-width:0.8;" x="57.6" xlink:href="#m99c859b192" y="174.528"/>
      </g>
     </g>
    </g>
   </g>
   <g id="line2d_10">
    <path clip-path="url(#p6297c98e65)" d="M 110.484208 174.528 
L 110.484208 174.528 
" style="fill:none;stroke:#ffa500;stroke-linecap:square;stroke-width:1.5;"/>
   </g>
   <g id="line2d_11">
    <path clip-path="url(#p6297c98e65)" d="M 110.484208 174.528 
L 110.484208 174.528 
" style="fill:none;stroke:#4c4c4c;stroke-linecap:square;stroke-width:4.5;"/>
   </g>
   <g id="line2d_12">
    <path clip-path="url(#p6297c98e65)" d="M 110.484208 174.528 
L 110.484208 174.528 
" style="fill:none;stroke:#008000;stroke-linecap:square;stroke-width:1.5;"/>
   </g>
   <g id="line2d_13">
    <path clip-path="url(#p6297c98e65)" d="M 110.484208 174.528 
L 110.484208 174.528 
" style="fill:none;stroke:#262626;stroke-linecap:square;stroke-width:4.5;"/>
   </g>
   <g id="patch_3">
    <path d="M 57.6 307.584 
L 57.6 41.472 
" style="fill:none;stroke:#000000;stroke-linecap:square;stroke-linejoin:miter;stroke-width:0.8;"/>
   </g>
   <g id="patch_4">
    <path d="M 414.72 307.584 
L 414.72 41.472 
" style="fill:none;stroke:#000000;stroke-linecap:square;stroke-linejoin:miter;stroke-width:0.8;"/>
   </g>
   <g id="patch_5">
    <path d="M 57.6 307.584 
L 414.72 307.584 
" style="fill:none;stroke:#000000;stroke-linecap:square;stroke-linejoin:miter;stroke-width:0.8;"/>
   </g>
   <g id="patch_6">
    <path d="M 57.6 41.472 
L 414.72 41.472 
" style="fill:none;stroke:#000000;stroke-linecap:square;stroke-linejoin:miter;stroke-width:0.8;"/>
   </g>
   <g id="PathCollection_1">
    <defs>
     <path d="M 0 1.5 
C 0.397805 1.5 0.77937 1.341951 1.06066 1.06066 
C 1.341951 0.77937 1.5 0.397805 1.5 0 
C 1.5 -0.397805 1.341951 -0.77937 1.06066 -1.06066 
C 0.77937 -1.341951 0.397805 -1.5 0 -1.5 
C -0.397805 -1.5 -0.77937 -1.341951 -1.06066 -1.06066 
C -1.341951 -0.77937 -1.5 -0.397805 -1.5 0 
C -1.5 0.397805 -1.341951 0.77937 -1.06066 1.06066 
C -0.77937 1.341951 -0.397805 1.5 0 1.5 
z
" id="m546e177296" style="stroke:#4c4c4c;stroke-opacity:0.5;"/>
    </defs>
    <g clip-path="url(#p6297c98e65)">
     <use style="fill:#ffffff;fill-opacity:0.5;stroke:#4c4c4c;stroke-opacity:0.5;" x="110.484208" xlink:href="#m546e177296" y="174.528"/>
    </g>
   </g>
   <g id="PathCollection_2">
    <defs>
     <path d="M 0 1.5 
C 0.397805 1.5 0.77937 1.341951 1.06066 1.06066 
C 1.341951 0.77937 1.5 0.397805 1.5 0 
C 1.5 -0.397805 1.341951 -0.77937 1.06066 -1.06066 
C 0.77937 -1.341951 0.397805 -1.5 0 -1.5 
C -0.397805 -1.5 -0.77937 -1.341951 -1.06066 -1.06066 
C -1.341951 -0.77937 -1.5 -0.397805 -1.5 0 
C -1.5 0.397805 -1.341951 0.77937 -1.06066 1.06066 
C -0.77937 1.341951 -0.397805 1.5 0 1.5 
z
" id="mad346d005d" style="stroke:#262626;stroke-opacity:0.5;"/>
    </defs>
    <g clip-path="url(#p6297c98e65)">
     <use style="fill:#ffffff;fill-opacity:0.5;stroke:#262626;stroke-opacity:0.5;" x="110.484208" xlink:href="#mad346d005d" y="174.528"/>
    </g>
   </g>
   <g id="text_10">
    <!-- Association of kaletra_days vs. death -->
    <defs>
     <path d="M 34.1875 63.1875 
L 20.796875 26.90625 
L 47.609375 26.90625 
z
M 28.609375 72.90625 
L 39.796875 72.90625 
L 67.578125 0 
L 57.328125 0 
L 50.6875 18.703125 
L 17.828125 18.703125 
L 11.1875 0 
L 0.78125 0 
z
" id="DejaVuSans-65"/>
     <path d="M 30.609375 48.390625 
Q 23.390625 48.390625 19.1875 42.75 
Q 14.984375 37.109375 14.984375 27.296875 
Q 14.984375 17.484375 19.15625 11.84375 
Q 23.34375 6.203125 30.609375 6.203125 
Q 37.796875 6.203125 41.984375 11.859375 
Q 46.1875 17.53125 46.1875 27.296875 
Q 46.1875 37.015625 41.984375 42.703125 
Q 37.796875 48.390625 30.609375 48.390625 
z
M 30.609375 56 
Q 42.328125 56 49.015625 48.375 
Q 55.71875 40.765625 55.71875 27.296875 
Q 55.71875 13.875 49.015625 6.21875 
Q 42.328125 -1.421875 30.609375 -1.421875 
Q 18.84375 -1.421875 12.171875 6.21875 
Q 5.515625 13.875 5.515625 27.296875 
Q 5.515625 40.765625 12.171875 48.375 
Q 18.84375 56 30.609375 56 
z
" id="DejaVuSans-111"/>
     <path d="M 48.78125 52.59375 
L 48.78125 44.1875 
Q 44.96875 46.296875 41.140625 47.34375 
Q 37.3125 48.390625 33.40625 48.390625 
Q 24.65625 48.390625 19.8125 42.84375 
Q 14.984375 37.3125 14.984375 27.296875 
Q 14.984375 17.28125 19.8125 11.734375 
Q 24.65625 6.203125 33.40625 6.203125 
Q 37.3125 6.203125 41.140625 7.25 
Q 44.96875 8.296875 48.78125 10.40625 
L 48.78125 2.09375 
Q 45.015625 0.34375 40.984375 -0.53125 
Q 36.96875 -1.421875 32.421875 -1.421875 
Q 20.0625 -1.421875 12.78125 6.34375 
Q 5.515625 14.109375 5.515625 27.296875 
Q 5.515625 40.671875 12.859375 48.328125 
Q 20.21875 56 33.015625 56 
Q 37.15625 56 41.109375 55.140625 
Q 45.0625 54.296875 48.78125 52.59375 
z
" id="DejaVuSans-99"/>
     <path d="M 9.421875 54.6875 
L 18.40625 54.6875 
L 18.40625 0 
L 9.421875 0 
z
M 9.421875 75.984375 
L 18.40625 75.984375 
L 18.40625 64.59375 
L 9.421875 64.59375 
z
" id="DejaVuSans-105"/>
     <path d="M 54.890625 33.015625 
L 54.890625 0 
L 45.90625 0 
L 45.90625 32.71875 
Q 45.90625 40.484375 42.875 44.328125 
Q 39.84375 48.1875 33.796875 48.1875 
Q 26.515625 48.1875 22.3125 43.546875 
Q 18.109375 38.921875 18.109375 30.90625 
L 18.109375 0 
L 9.078125 0 
L 9.078125 54.6875 
L 18.109375 54.6875 
L 18.109375 46.1875 
Q 21.34375 51.125 25.703125 53.5625 
Q 30.078125 56 35.796875 56 
Q 45.21875 56 50.046875 50.171875 
Q 54.890625 44.34375 54.890625 33.015625 
z
" id="DejaVuSans-110"/>
     <path id="DejaVuSans-32"/>
     <path d="M 37.109375 75.984375 
L 37.109375 68.5 
L 28.515625 68.5 
Q 23.6875 68.5 21.796875 66.546875 
Q 19.921875 64.59375 19.921875 59.515625 
L 19.921875 54.6875 
L 34.71875 54.6875 
L 34.71875 47.703125 
L 19.921875 47.703125 
L 19.921875 0 
L 10.890625 0 
L 10.890625 47.703125 
L 2.296875 47.703125 
L 2.296875 54.6875 
L 10.890625 54.6875 
L 10.890625 58.5 
Q 10.890625 67.625 15.140625 71.796875 
Q 19.390625 75.984375 28.609375 75.984375 
z
" id="DejaVuSans-102"/>
     <path d="M 2.984375 54.6875 
L 12.5 54.6875 
L 29.59375 8.796875 
L 46.6875 54.6875 
L 56.203125 54.6875 
L 35.6875 0 
L 23.484375 0 
z
" id="DejaVuSans-118"/>
     <path d="M 10.6875 12.40625 
L 21 12.40625 
L 21 0 
L 10.6875 0 
z
" id="DejaVuSans-46"/>
     <path d="M 54.890625 33.015625 
L 54.890625 0 
L 45.90625 0 
L 45.90625 32.71875 
Q 45.90625 40.484375 42.875 44.328125 
Q 39.84375 48.1875 33.796875 48.1875 
Q 26.515625 48.1875 22.3125 43.546875 
Q 18.109375 38.921875 18.109375 30.90625 
L 18.109375 0 
L 9.078125 0 
L 9.078125 75.984375 
L 18.109375 75.984375 
L 18.109375 46.1875 
Q 21.34375 51.125 25.703125 53.5625 
Q 30.078125 56 35.796875 56 
Q 45.21875 56 50.046875 50.171875 
Q 54.890625 44.34375 54.890625 33.015625 
z
" id="DejaVuSans-104"/>
    </defs>
    <g transform="translate(124.606875 35.472)scale(0.12 -0.12)">
     <use xlink:href="#DejaVuSans-65"/>
     <use x="68.408203" xlink:href="#DejaVuSans-115"/>
     <use x="120.507812" xlink:href="#DejaVuSans-115"/>
     <use x="172.607422" xlink:href="#DejaVuSans-111"/>
     <use x="233.789062" xlink:href="#DejaVuSans-99"/>
     <use x="288.769531" xlink:href="#DejaVuSans-105"/>
     <use x="316.552734" xlink:href="#DejaVuSans-97"/>
     <use x="377.832031" xlink:href="#DejaVuSans-116"/>
     <use x="417.041016" xlink:href="#DejaVuSans-105"/>
     <use x="444.824219" xlink:href="#DejaVuSans-111"/>
     <use x="506.005859" xlink:href="#DejaVuSans-110"/>
     <use x="569.384766" xlink:href="#DejaVuSans-32"/>
     <use x="601.171875" xlink:href="#DejaVuSans-111"/>
     <use x="662.353516" xlink:href="#DejaVuSans-102"/>
     <use x="697.558594" xlink:href="#DejaVuSans-32"/>
     <use x="729.345703" xlink:href="#DejaVuSans-107"/>
     <use x="785.505859" xlink:href="#DejaVuSans-97"/>
     <use x="846.785156" xlink:href="#DejaVuSans-108"/>
     <use x="874.568359" xlink:href="#DejaVuSans-101"/>
     <use x="936.091797" xlink:href="#DejaVuSans-116"/>
     <use x="975.300781" xlink:href="#DejaVuSans-114"/>
     <use x="1016.414062" xlink:href="#DejaVuSans-97"/>
     <use x="1077.693359" xlink:href="#DejaVuSans-95"/>
     <use x="1127.693359" xlink:href="#DejaVuSans-100"/>
     <use x="1191.169922" xlink:href="#DejaVuSans-97"/>
     <use x="1252.449219" xlink:href="#DejaVuSans-121"/>
     <use x="1311.628906" xlink:href="#DejaVuSans-115"/>
     <use x="1363.728516" xlink:href="#DejaVuSans-32"/>
     <use x="1395.515625" xlink:href="#DejaVuSans-118"/>
     <use x="1454.695312" xlink:href="#DejaVuSans-115"/>
     <use x="1506.794922" xlink:href="#DejaVuSans-46"/>
     <use x="1538.582031" xlink:href="#DejaVuSans-32"/>
     <use x="1570.369141" xlink:href="#DejaVuSans-100"/>
     <use x="1633.845703" xlink:href="#DejaVuSans-101"/>
     <use x="1695.369141" xlink:href="#DejaVuSans-97"/>
     <use x="1756.648438" xlink:href="#DejaVuSans-116"/>
     <use x="1795.857422" xlink:href="#DejaVuSans-104"/>
    </g>
   </g>
   <g id="legend_1">
    <g id="patch_7">
     <path d="M 296.065313 78.82825 
L 407.72 78.82825 
Q 409.72 78.82825 409.72 76.82825 
L 409.72 48.472 
Q 409.72 46.472 407.72 46.472 
L 296.065313 46.472 
Q 294.065313 46.472 294.065313 48.472 
L 294.065313 76.82825 
Q 294.065313 78.82825 296.065313 78.82825 
z
" style="fill:#ffffff;opacity:0.8;stroke:#cccccc;stroke-linejoin:miter;"/>
    </g>
    <g id="line2d_14">
     <path d="M 298.065313 54.570437 
L 318.065313 54.570437 
" style="fill:none;stroke:#ffa500;stroke-linecap:square;stroke-width:1.5;"/>
    </g>
    <g id="line2d_15"/>
    <g id="text_11">
     <!-- death (97) -->
     <defs>
      <path d="M 31 75.875 
Q 24.46875 64.65625 21.28125 53.65625 
Q 18.109375 42.671875 18.109375 31.390625 
Q 18.109375 20.125 21.3125 9.0625 
Q 24.515625 -2 31 -13.1875 
L 23.1875 -13.1875 
Q 15.875 -1.703125 12.234375 9.375 
Q 8.59375 20.453125 8.59375 31.390625 
Q 8.59375 42.28125 12.203125 53.3125 
Q 15.828125 64.359375 23.1875 75.875 
z
" id="DejaVuSans-40"/>
      <path d="M 10.984375 1.515625 
L 10.984375 10.5 
Q 14.703125 8.734375 18.5 7.8125 
Q 22.3125 6.890625 25.984375 6.890625 
Q 35.75 6.890625 40.890625 13.453125 
Q 46.046875 20.015625 46.78125 33.40625 
Q 43.953125 29.203125 39.59375 26.953125 
Q 35.25 24.703125 29.984375 24.703125 
Q 19.046875 24.703125 12.671875 31.3125 
Q 6.296875 37.9375 6.296875 49.421875 
Q 6.296875 60.640625 12.9375 67.421875 
Q 19.578125 74.21875 30.609375 74.21875 
Q 43.265625 74.21875 49.921875 64.515625 
Q 56.59375 54.828125 56.59375 36.375 
Q 56.59375 19.140625 48.40625 8.859375 
Q 40.234375 -1.421875 26.421875 -1.421875 
Q 22.703125 -1.421875 18.890625 -0.6875 
Q 15.09375 0.046875 10.984375 1.515625 
z
M 30.609375 32.421875 
Q 37.25 32.421875 41.125 36.953125 
Q 45.015625 41.5 45.015625 49.421875 
Q 45.015625 57.28125 41.125 61.84375 
Q 37.25 66.40625 30.609375 66.40625 
Q 23.96875 66.40625 20.09375 61.84375 
Q 16.21875 57.28125 16.21875 49.421875 
Q 16.21875 41.5 20.09375 36.953125 
Q 23.96875 32.421875 30.609375 32.421875 
z
" id="DejaVuSans-57"/>
      <path d="M 8.203125 72.90625 
L 55.078125 72.90625 
L 55.078125 68.703125 
L 28.609375 0 
L 18.3125 0 
L 43.21875 64.59375 
L 8.203125 64.59375 
z
" id="DejaVuSans-55"/>
      <path d="M 8.015625 75.875 
L 15.828125 75.875 
Q 23.140625 64.359375 26.78125 53.3125 
Q 30.421875 42.28125 30.421875 31.390625 
Q 30.421875 20.453125 26.78125 9.375 
Q 23.140625 -1.703125 15.828125 -13.1875 
L 8.015625 -13.1875 
Q 14.5 -2 17.703125 9.0625 
Q 20.90625 20.125 20.90625 31.390625 
Q 20.90625 42.671875 17.703125 53.65625 
Q 14.5 64.65625 8.015625 75.875 
z
" id="DejaVuSans-41"/>
     </defs>
     <g transform="translate(326.065313 58.070437)scale(0.1 -0.1)">
      <use xlink:href="#DejaVuSans-100"/>
      <use x="63.476562" xlink:href="#DejaVuSans-101"/>
      <use x="125" xlink:href="#DejaVuSans-97"/>
      <use x="186.279297" xlink:href="#DejaVuSans-116"/>
      <use x="225.488281" xlink:href="#DejaVuSans-104"/>
      <use x="288.867188" xlink:href="#DejaVuSans-32"/>
      <use x="320.654297" xlink:href="#DejaVuSans-40"/>
      <use x="359.667969" xlink:href="#DejaVuSans-57"/>
      <use x="423.291016" xlink:href="#DejaVuSans-55"/>
      <use x="486.914062" xlink:href="#DejaVuSans-41"/>
     </g>
    </g>
    <g id="line2d_16">
     <path d="M 298.065313 69.248562 
L 318.065313 69.248562 
" style="fill:none;stroke:#008000;stroke-linecap:square;stroke-width:1.5;"/>
    </g>
    <g id="line2d_17"/>
    <g id="text_12">
     <!-- Not death (261) -->
     <defs>
      <path d="M 9.8125 72.90625 
L 23.09375 72.90625 
L 55.421875 11.921875 
L 55.421875 72.90625 
L 64.984375 72.90625 
L 64.984375 0 
L 51.703125 0 
L 19.390625 60.984375 
L 19.390625 0 
L 9.8125 0 
z
" id="DejaVuSans-78"/>
     </defs>
     <g transform="translate(326.065313 72.748562)scale(0.1 -0.1)">
      <use xlink:href="#DejaVuSans-78"/>
      <use x="74.804688" xlink:href="#DejaVuSans-111"/>
      <use x="135.986328" xlink:href="#DejaVuSans-116"/>
      <use x="175.195312" xlink:href="#DejaVuSans-32"/>
      <use x="206.982422" xlink:href="#DejaVuSans-100"/>
      <use x="270.458984" xlink:href="#DejaVuSans-101"/>
      <use x="331.982422" xlink:href="#DejaVuSans-97"/>
      <use x="393.261719" xlink:href="#DejaVuSans-116"/>
      <use x="432.470703" xlink:href="#DejaVuSans-104"/>
      <use x="495.849609" xlink:href="#DejaVuSans-32"/>
      <use x="527.636719" xlink:href="#DejaVuSans-40"/>
      <use x="566.650391" xlink:href="#DejaVuSans-50"/>
      <use x="630.273438" xlink:href="#DejaVuSans-54"/>
      <use x="693.896484" xlink:href="#DejaVuSans-49"/>
      <use x="757.519531" xlink:href="#DejaVuSans-41"/>
     </g>
    </g>
   </g>
  </g>
 </g>
 <defs>
  <clipPath id="p6297c98e65">
   <rect height="266.112" width="357.12" x="57.6" y="41.472"/>
  </clipPath>
 </defs>
</svg>
