<?xml version="1.0" encoding="utf-8" standalone="no"?>
<!DOCTYPE svg PUBLIC "-//W3C//DTD SVG 1.1//EN"
  "http://www.w3.org/Graphics/SVG/1.1/DTD/svg11.dtd">
<!-- Created with matplotlib (https://matplotlib.org/) -->
<svg height="345.6pt" version="1.1" viewBox="0 0 460.8 345.6" width="460.8pt" xmlns="http://www.w3.org/2000/svg" xmlns:xlink="http://www.w3.org/1999/xlink">
 <defs>
  <style type="text/css">
*{stroke-linecap:butt;stroke-linejoin:round;}
  </style>
 </defs>
 <g id="figure_1">
  <g id="patch_1">
   <path d="M 0 345.6 
L 460.8 345.6 
L 460.8 0 
L 0 0 
z
" style="fill:#ffffff;"/>
  </g>
  <g id="axes_1">
   <g id="patch_2">
    <path d="M 57.6 307.584 
L 414.72 307.584 
L 414.72 41.472 
L 57.6 41.472 
z
" style="fill:#ffffff;"/>
   </g>
   <g id="PolyCollection_1">
    <defs>
     <path d="M 88.20299 -161.547299 
L 88.20299 -180.596701 
L 90.129565 -183.43198 
L 92.056139 -186.884034 
L 93.982713 -191.014174 
L 95.909287 -195.868123 
L 97.835862 -201.469221 
L 99.762436 -207.811708 
L 101.68901 -214.854718 
L 103.615584 -222.517702 
L 105.542159 -230.67795 
L 107.468733 -239.170842 
L 109.395307 -247.793233 
L 111.321881 -256.310148 
L 113.248455 -264.464632 
L 115.17503 -271.990264 
L 117.101604 -278.62553 
L 119.028178 -284.128996 
L 120.954752 -288.294042 
L 122.881327 -290.961923 
L 124.807901 -292.032 
L 126.734475 -291.468241 
L 128.661049 -289.301418 
L 130.587624 -285.626855 
L 132.514198 -280.597959 
L 134.440772 -274.416205 
L 136.367346 -267.318477 
L 138.293921 -259.562907 
L 140.220495 -251.414394 
L 142.147069 -243.130887 
L 144.073643 -234.951387 
L 146.000217 -227.086332 
L 147.926792 -219.710759 
L 149.853366 -212.960334 
L 151.77994 -206.930097 
L 153.706514 -201.67557 
L 155.633089 -197.215743 
L 157.559663 -193.537411 
L 159.486237 -190.600345 
L 161.412811 -188.342844 
L 163.339386 -186.687301 
L 165.26596 -185.545537 
L 167.192534 -184.823707 
L 169.119108 -184.426722 
L 171.045683 -184.262118 
L 172.972257 -184.24337 
L 174.898831 -184.292635 
L 176.825405 -184.342919 
L 178.751979 -184.339627 
L 180.678554 -184.24149 
L 182.605128 -184.020832 
L 184.531702 -183.663193 
L 186.458276 -183.166342 
L 188.384851 -182.538749 
L 190.311425 -181.797626 
L 192.237999 -180.966706 
L 194.164573 -180.073894 
L 196.091148 -179.148988 
L 198.017722 -178.221608 
L 199.944296 -177.319472 
L 201.87087 -176.46709 
L 203.797445 -175.684914 
L 205.724019 -174.988947 
L 207.650593 -174.390725 
L 209.577167 -173.897616 
L 211.503741 -173.51331 
L 213.430316 -173.238409 
L 215.35689 -173.070997 
L 217.283464 -173.007139 
L 219.210038 -173.041233 
L 221.136613 -173.166214 
L 223.063187 -173.373619 
L 224.989761 -173.653539 
L 226.916335 -173.994535 
L 228.84291 -174.383566 
L 230.769484 -174.806005 
L 232.696058 -175.245798 
L 234.622632 -175.685798 
L 236.549206 -176.108283 
L 238.475781 -176.49565 
L 240.402355 -176.831226 
L 242.328929 -177.100142 
L 244.255503 -177.290176 
L 246.182078 -177.392491 
L 248.108652 -177.402174 
L 250.035226 -177.31853 
L 251.9618 -177.145083 
L 253.888375 -176.889282 
L 255.814949 -176.561938 
L 257.741523 -176.176448 
L 259.668097 -175.747874 
L 261.594672 -175.291962 
L 263.521246 -174.824196 
L 265.44782 -174.358953 
L 267.374394 -173.908823 
L 269.300968 -173.484134 
L 271.227543 -173.092698 
L 273.154117 -172.739753 
L 275.080691 -172.428103 
L 277.007265 -172.158386 
L 278.93384 -171.929445 
L 278.93384 -170.214555 
L 278.93384 -170.214555 
L 277.007265 -169.985614 
L 275.080691 -169.715897 
L 273.154117 -169.404247 
L 271.227543 -169.051302 
L 269.300968 -168.659866 
L 267.374394 -168.235177 
L 265.44782 -167.785047 
L 263.521246 -167.319804 
L 261.594672 -166.852038 
L 259.668097 -166.396126 
L 257.741523 -165.967552 
L 255.814949 -165.582062 
L 253.888375 -165.254718 
L 251.9618 -164.998917 
L 250.035226 -164.82547 
L 248.108652 -164.741826 
L 246.182078 -164.751509 
L 244.255503 -164.853824 
L 242.328929 -165.043858 
L 240.402355 -165.312774 
L 238.475781 -165.64835 
L 236.549206 -166.035717 
L 234.622632 -166.458202 
L 232.696058 -166.898202 
L 230.769484 -167.337995 
L 228.84291 -167.760434 
L 226.916335 -168.149465 
L 224.989761 -168.490461 
L 223.063187 -168.770381 
L 221.136613 -168.977786 
L 219.210038 -169.102767 
L 217.283464 -169.136861 
L 215.35689 -169.073003 
L 213.430316 -168.905591 
L 211.503741 -168.63069 
L 209.577167 -168.246384 
L 207.650593 -167.753275 
L 205.724019 -167.155053 
L 203.797445 -166.459086 
L 201.87087 -165.67691 
L 199.944296 -164.824528 
L 198.017722 -163.922392 
L 196.091148 -162.995012 
L 194.164573 -162.070106 
L 192.237999 -161.177294 
L 190.311425 -160.346374 
L 188.384851 -159.605251 
L 186.458276 -158.977658 
L 184.531702 -158.480807 
L 182.605128 -158.123168 
L 180.678554 -157.90251 
L 178.751979 -157.804373 
L 176.825405 -157.801081 
L 174.898831 -157.851365 
L 172.972257 -157.90063 
L 171.045683 -157.881882 
L 169.119108 -157.717278 
L 167.192534 -157.320293 
L 165.26596 -156.598463 
L 163.339386 -155.456699 
L 161.412811 -153.801156 
L 159.486237 -151.543655 
L 157.559663 -148.606589 
L 155.633089 -144.928257 
L 153.706514 -140.46843 
L 151.77994 -135.213903 
L 149.853366 -129.183666 
L 147.926792 -122.433241 
L 146.000217 -115.057668 
L 144.073643 -107.192613 
L 142.147069 -99.013113 
L 140.220495 -90.729606 
L 138.293921 -82.581093 
L 136.367346 -74.825523 
L 134.440772 -67.727795 
L 132.514198 -61.546041 
L 130.587624 -56.517145 
L 128.661049 -52.842582 
L 126.734475 -50.675759 
L 124.807901 -50.112 
L 122.881327 -51.182077 
L 120.954752 -53.849958 
L 119.028178 -58.015004 
L 117.101604 -63.51847 
L 115.17503 -70.153736 
L 113.248455 -77.679368 
L 111.321881 -85.833852 
L 109.395307 -94.350767 
L 107.468733 -102.973158 
L 105.542159 -111.46605 
L 103.615584 -119.626298 
L 101.68901 -127.289282 
L 99.762436 -134.332292 
L 97.835862 -140.674779 
L 95.909287 -146.275877 
L 93.982713 -151.129826 
L 92.056139 -155.259966 
L 90.129565 -158.71202 
L 88.20299 -161.547299 
z
" id="m32e4ed2b9f" style="stroke:#4c4c4c;stroke-opacity:0.5;stroke-width:1.5;"/>
    </defs>
    <g clip-path="url(#pd923edc6bb)">
     <use style="fill:#df9c20;fill-opacity:0.5;stroke:#4c4c4c;stroke-opacity:0.5;stroke-width:1.5;" x="0" xlink:href="#m32e4ed2b9f" y="345.6"/>
    </g>
   </g>
   <g id="PolyCollection_2">
    <defs>
     <path d="M 73.832727 -157.67246 
L 73.832727 -184.47154 
L 77.112066 -188.930098 
L 80.391405 -194.397777 
L 83.670744 -200.932524 
L 86.950083 -208.536862 
L 90.229421 -217.142354 
L 93.50876 -226.597848 
L 96.788099 -236.664004 
L 100.067438 -247.01622 
L 103.346777 -257.25727 
L 106.626116 -266.939748 
L 109.905455 -275.596988 
L 113.184793 -282.779701 
L 116.464132 -288.094417 
L 119.743471 -291.239183 
L 123.02281 -292.032 
L 126.302149 -290.428286 
L 129.581488 -286.52502 
L 132.860826 -280.551037 
L 136.140165 -272.84482 
L 139.419504 -263.822793 
L 142.698843 -253.942232 
L 145.978182 -243.663369 
L 149.257521 -233.414987 
L 152.53686 -223.566932 
L 155.816198 -214.411657 
L 159.095537 -206.15553 
L 162.374876 -198.919256 
L 165.654215 -192.745776 
L 168.933554 -187.613378 
L 172.212893 -183.451571 
L 175.492231 -180.15749 
L 178.77157 -177.611008 
L 182.050909 -175.687386 
L 185.330248 -174.266837 
L 188.609587 -173.240929 
L 191.888926 -172.51614 
L 195.168264 -172.015087 
L 198.447603 -171.676064 
L 201.726942 -171.451502 
L 205.006281 -171.305859 
L 208.28562 -171.213355 
L 211.564959 -171.15581 
L 214.844298 -171.120744 
L 218.123636 -171.099809 
L 221.402975 -171.087563 
L 224.682314 -171.080545 
L 227.961653 -171.076603 
L 231.240992 -171.074435 
L 234.520331 -171.073269 
L 237.799669 -171.072658 
L 241.079008 -171.072356 
L 244.358347 -171.072228 
L 247.637686 -171.072214 
L 250.917025 -171.0723 
L 254.196364 -171.072508 
L 257.475702 -171.072905 
L 260.755041 -171.073607 
L 264.03438 -171.07481 
L 267.313719 -171.076819 
L 270.593058 -171.080102 
L 273.872397 -171.085347 
L 277.151736 -171.093543 
L 280.431074 -171.106072 
L 283.710413 -171.1248 
L 286.989752 -171.152171 
L 290.269091 -171.191275 
L 293.54843 -171.245873 
L 296.827769 -171.320347 
L 300.107107 -171.419565 
L 303.386446 -171.548607 
L 306.665785 -171.712373 
L 309.945124 -171.91505 
L 313.224463 -172.159483 
L 316.503802 -172.446484 
L 319.78314 -172.774178 
L 323.062479 -173.137468 
L 326.341818 -173.527726 
L 329.621157 -173.932815 
L 332.900496 -174.337484 
L 336.179835 -174.724192 
L 339.459174 -175.074284 
L 342.738512 -175.369444 
L 346.017851 -175.593273 
L 349.29719 -175.732788 
L 352.576529 -175.779672 
L 355.855868 -175.73109 
L 359.135207 -175.589979 
L 362.414545 -175.364749 
L 365.693884 -175.068455 
L 368.973223 -174.717545 
L 372.252562 -174.330354 
L 375.531901 -173.925528 
L 378.81124 -173.520579 
L 382.090579 -173.130706 
L 385.369917 -172.767988 
L 388.649256 -172.440986 
L 391.928595 -172.154739 
L 395.207934 -171.911067 
L 398.487273 -171.709115 
L 398.487273 -170.434885 
L 398.487273 -170.434885 
L 395.207934 -170.232933 
L 391.928595 -169.989261 
L 388.649256 -169.703014 
L 385.369917 -169.376012 
L 382.090579 -169.013294 
L 378.81124 -168.623421 
L 375.531901 -168.218472 
L 372.252562 -167.813646 
L 368.973223 -167.426455 
L 365.693884 -167.075545 
L 362.414545 -166.779251 
L 359.135207 -166.554021 
L 355.855868 -166.41291 
L 352.576529 -166.364328 
L 349.29719 -166.411212 
L 346.017851 -166.550727 
L 342.738512 -166.774556 
L 339.459174 -167.069716 
L 336.179835 -167.419808 
L 332.900496 -167.806516 
L 329.621157 -168.211185 
L 326.341818 -168.616274 
L 323.062479 -169.006532 
L 319.78314 -169.369822 
L 316.503802 -169.697516 
L 313.224463 -169.984517 
L 309.945124 -170.22895 
L 306.665785 -170.431627 
L 303.386446 -170.595393 
L 300.107107 -170.724435 
L 296.827769 -170.823653 
L 293.54843 -170.898127 
L 290.269091 -170.952725 
L 286.989752 -170.991829 
L 283.710413 -171.0192 
L 280.431074 -171.037928 
L 277.151736 -171.050457 
L 273.872397 -171.058653 
L 270.593058 -171.063898 
L 267.313719 -171.067181 
L 264.03438 -171.06919 
L 260.755041 -171.070393 
L 257.475702 -171.071095 
L 254.196364 -171.071492 
L 250.917025 -171.0717 
L 247.637686 -171.071786 
L 244.358347 -171.071772 
L 241.079008 -171.071644 
L 237.799669 -171.071342 
L 234.520331 -171.070731 
L 231.240992 -171.069565 
L 227.961653 -171.067397 
L 224.682314 -171.063455 
L 221.402975 -171.056437 
L 218.123636 -171.044191 
L 214.844298 -171.023256 
L 211.564959 -170.98819 
L 208.28562 -170.930645 
L 205.006281 -170.838141 
L 201.726942 -170.692498 
L 198.447603 -170.467936 
L 195.168264 -170.128913 
L 191.888926 -169.62786 
L 188.609587 -168.903071 
L 185.330248 -167.877163 
L 182.050909 -166.456614 
L 178.77157 -164.532992 
L 175.492231 -161.98651 
L 172.212893 -158.692429 
L 168.933554 -154.530622 
L 165.654215 -149.398224 
L 162.374876 -143.224744 
L 159.095537 -135.98847 
L 155.816198 -127.732343 
L 152.53686 -118.577068 
L 149.257521 -108.729013 
L 145.978182 -98.480631 
L 142.698843 -88.201768 
L 139.419504 -78.321207 
L 136.140165 -69.29918 
L 132.860826 -61.592963 
L 129.581488 -55.61898 
L 126.302149 -51.715714 
L 123.02281 -50.112 
L 119.743471 -50.904817 
L 116.464132 -54.049583 
L 113.184793 -59.364299 
L 109.905455 -66.547012 
L 106.626116 -75.204252 
L 103.346777 -84.88673 
L 100.067438 -95.12778 
L 96.788099 -105.479996 
L 93.50876 -115.546152 
L 90.229421 -125.001646 
L 86.950083 -133.607138 
L 83.670744 -141.211476 
L 80.391405 -147.746223 
L 77.112066 -153.213902 
L 73.832727 -157.67246 
z
" id="m8e09694bcb" style="stroke:#262626;stroke-opacity:0.5;stroke-width:1.5;"/>
    </defs>
    <g clip-path="url(#pd923edc6bb)">
     <use style="fill:#107010;fill-opacity:0.5;stroke:#262626;stroke-opacity:0.5;stroke-width:1.5;" x="0" xlink:href="#m8e09694bcb" y="345.6"/>
    </g>
   </g>
   <g id="matplotlib.axis_1">
    <g id="xtick_1">
     <g id="line2d_1">
      <defs>
       <path d="M 0 0 
L 0 3.5 
" id="m53fdba9460" style="stroke:#000000;stroke-width:0.8;"/>
      </defs>
      <g>
       <use style="stroke:#000000;stroke-width:0.8;" x="119.772781" xlink:href="#m53fdba9460" y="307.584"/>
      </g>
     </g>
     <g id="text_1">
      <!-- 0 -->
      <defs>
       <path d="M 31.78125 66.40625 
Q 24.171875 66.40625 20.328125 58.90625 
Q 16.5 51.421875 16.5 36.375 
Q 16.5 21.390625 20.328125 13.890625 
Q 24.171875 6.390625 31.78125 6.390625 
Q 39.453125 6.390625 43.28125 13.890625 
Q 47.125 21.390625 47.125 36.375 
Q 47.125 51.421875 43.28125 58.90625 
Q 39.453125 66.40625 31.78125 66.40625 
z
M 31.78125 74.21875 
Q 44.046875 74.21875 50.515625 64.515625 
Q 56.984375 54.828125 56.984375 36.375 
Q 56.984375 17.96875 50.515625 8.265625 
Q 44.046875 -1.421875 31.78125 -1.421875 
Q 19.53125 -1.421875 13.0625 8.265625 
Q 6.59375 17.96875 6.59375 36.375 
Q 6.59375 54.828125 13.0625 64.515625 
Q 19.53125 74.21875 31.78125 74.21875 
z
" id="DejaVuSans-48"/>
      </defs>
      <g transform="translate(116.591531 322.182437)scale(0.1 -0.1)">
       <use xlink:href="#DejaVuSans-48"/>
      </g>
     </g>
    </g>
    <g id="xtick_2">
     <g id="line2d_2">
      <g>
       <use style="stroke:#000000;stroke-width:0.8;" x="188.387206" xlink:href="#m53fdba9460" y="307.584"/>
      </g>
     </g>
     <g id="text_2">
      <!-- 1000 -->
      <defs>
       <path d="M 12.40625 8.296875 
L 28.515625 8.296875 
L 28.515625 63.921875 
L 10.984375 60.40625 
L 10.984375 69.390625 
L 28.421875 72.90625 
L 38.28125 72.90625 
L 38.28125 8.296875 
L 54.390625 8.296875 
L 54.390625 0 
L 12.40625 0 
z
" id="DejaVuSans-49"/>
      </defs>
      <g transform="translate(175.662206 322.182437)scale(0.1 -0.1)">
       <use xlink:href="#DejaVuSans-49"/>
       <use x="63.623047" xlink:href="#DejaVuSans-48"/>
       <use x="127.246094" xlink:href="#DejaVuSans-48"/>
       <use x="190.869141" xlink:href="#DejaVuSans-48"/>
      </g>
     </g>
    </g>
    <g id="xtick_3">
     <g id="line2d_3">
      <g>
       <use style="stroke:#000000;stroke-width:0.8;" x="257.001632" xlink:href="#m53fdba9460" y="307.584"/>
      </g>
     </g>
     <g id="text_3">
      <!-- 2000 -->
      <defs>
       <path d="M 19.1875 8.296875 
L 53.609375 8.296875 
L 53.609375 0 
L 7.328125 0 
L 7.328125 8.296875 
Q 12.9375 14.109375 22.625 23.890625 
Q 32.328125 33.6875 34.8125 36.53125 
Q 39.546875 41.84375 41.421875 45.53125 
Q 43.3125 49.21875 43.3125 52.78125 
Q 43.3125 58.59375 39.234375 62.25 
Q 35.15625 65.921875 28.609375 65.921875 
Q 23.96875 65.921875 18.8125 64.3125 
Q 13.671875 62.703125 7.8125 59.421875 
L 7.8125 69.390625 
Q 13.765625 71.78125 18.9375 73 
Q 24.125 74.21875 28.421875 74.21875 
Q 39.75 74.21875 46.484375 68.546875 
Q 53.21875 62.890625 53.21875 53.421875 
Q 53.21875 48.921875 51.53125 44.890625 
Q 49.859375 40.875 45.40625 35.40625 
Q 44.1875 33.984375 37.640625 27.21875 
Q 31.109375 20.453125 19.1875 8.296875 
z
" id="DejaVuSans-50"/>
      </defs>
      <g transform="translate(244.276632 322.182437)scale(0.1 -0.1)">
       <use xlink:href="#DejaVuSans-50"/>
       <use x="63.623047" xlink:href="#DejaVuSans-48"/>
       <use x="127.246094" xlink:href="#DejaVuSans-48"/>
       <use x="190.869141" xlink:href="#DejaVuSans-48"/>
      </g>
     </g>
    </g>
    <g id="xtick_4">
     <g id="line2d_4">
      <g>
       <use style="stroke:#000000;stroke-width:0.8;" x="325.616057" xlink:href="#m53fdba9460" y="307.584"/>
      </g>
     </g>
     <g id="text_4">
      <!-- 3000 -->
      <defs>
       <path d="M 40.578125 39.3125 
Q 47.65625 37.796875 51.625 33 
Q 55.609375 28.21875 55.609375 21.1875 
Q 55.609375 10.40625 48.1875 4.484375 
Q 40.765625 -1.421875 27.09375 -1.421875 
Q 22.515625 -1.421875 17.65625 -0.515625 
Q 12.796875 0.390625 7.625 2.203125 
L 7.625 11.71875 
Q 11.71875 9.328125 16.59375 8.109375 
Q 21.484375 6.890625 26.8125 6.890625 
Q 36.078125 6.890625 40.9375 10.546875 
Q 45.796875 14.203125 45.796875 21.1875 
Q 45.796875 27.640625 41.28125 31.265625 
Q 36.765625 34.90625 28.71875 34.90625 
L 20.21875 34.90625 
L 20.21875 43.015625 
L 29.109375 43.015625 
Q 36.375 43.015625 40.234375 45.921875 
Q 44.09375 48.828125 44.09375 54.296875 
Q 44.09375 59.90625 40.109375 62.90625 
Q 36.140625 65.921875 28.71875 65.921875 
Q 24.65625 65.921875 20.015625 65.03125 
Q 15.375 64.15625 9.8125 62.3125 
L 9.8125 71.09375 
Q 15.4375 72.65625 20.34375 73.4375 
Q 25.25 74.21875 29.59375 74.21875 
Q 40.828125 74.21875 47.359375 69.109375 
Q 53.90625 64.015625 53.90625 55.328125 
Q 53.90625 49.265625 50.4375 45.09375 
Q 46.96875 40.921875 40.578125 39.3125 
z
" id="DejaVuSans-51"/>
      </defs>
      <g transform="translate(312.891057 322.182437)scale(0.1 -0.1)">
       <use xlink:href="#DejaVuSans-51"/>
       <use x="63.623047" xlink:href="#DejaVuSans-48"/>
       <use x="127.246094" xlink:href="#DejaVuSans-48"/>
       <use x="190.869141" xlink:href="#DejaVuSans-48"/>
      </g>
     </g>
    </g>
    <g id="xtick_5">
     <g id="line2d_5">
      <g>
       <use style="stroke:#000000;stroke-width:0.8;" x="394.230483" xlink:href="#m53fdba9460" y="307.584"/>
      </g>
     </g>
     <g id="text_5">
      <!-- 4000 -->
      <defs>
       <path d="M 37.796875 64.3125 
L 12.890625 25.390625 
L 37.796875 25.390625 
z
M 35.203125 72.90625 
L 47.609375 72.90625 
L 47.609375 25.390625 
L 58.015625 25.390625 
L 58.015625 17.1875 
L 47.609375 17.1875 
L 47.609375 0 
L 37.796875 0 
L 37.796875 17.1875 
L 4.890625 17.1875 
L 4.890625 26.703125 
z
" id="DejaVuSans-52"/>
      </defs>
      <g transform="translate(381.505483 322.182437)scale(0.1 -0.1)">
       <use xlink:href="#DejaVuSans-52"/>
       <use x="63.623047" xlink:href="#DejaVuSans-48"/>
       <use x="127.246094" xlink:href="#DejaVuSans-48"/>
       <use x="190.869141" xlink:href="#DejaVuSans-48"/>
      </g>
     </g>
    </g>
    <g id="text_6">
     <!-- il6initac -->
     <defs>
      <path d="M 9.421875 54.6875 
L 18.40625 54.6875 
L 18.40625 0 
L 9.421875 0 
z
M 9.421875 75.984375 
L 18.40625 75.984375 
L 18.40625 64.59375 
L 9.421875 64.59375 
z
" id="DejaVuSans-105"/>
      <path d="M 9.421875 75.984375 
L 18.40625 75.984375 
L 18.40625 0 
L 9.421875 0 
z
" id="DejaVuSans-108"/>
      <path d="M 33.015625 40.375 
Q 26.375 40.375 22.484375 35.828125 
Q 18.609375 31.296875 18.609375 23.390625 
Q 18.609375 15.53125 22.484375 10.953125 
Q 26.375 6.390625 33.015625 6.390625 
Q 39.65625 6.390625 43.53125 10.953125 
Q 47.40625 15.53125 47.40625 23.390625 
Q 47.40625 31.296875 43.53125 35.828125 
Q 39.65625 40.375 33.015625 40.375 
z
M 52.59375 71.296875 
L 52.59375 62.3125 
Q 48.875 64.0625 45.09375 64.984375 
Q 41.3125 65.921875 37.59375 65.921875 
Q 27.828125 65.921875 22.671875 59.328125 
Q 17.53125 52.734375 16.796875 39.40625 
Q 19.671875 43.65625 24.015625 45.921875 
Q 28.375 48.1875 33.59375 48.1875 
Q 44.578125 48.1875 50.953125 41.515625 
Q 57.328125 34.859375 57.328125 23.390625 
Q 57.328125 12.15625 50.6875 5.359375 
Q 44.046875 -1.421875 33.015625 -1.421875 
Q 20.359375 -1.421875 13.671875 8.265625 
Q 6.984375 17.96875 6.984375 36.375 
Q 6.984375 53.65625 15.1875 63.9375 
Q 23.390625 74.21875 37.203125 74.21875 
Q 40.921875 74.21875 44.703125 73.484375 
Q 48.484375 72.75 52.59375 71.296875 
z
" id="DejaVuSans-54"/>
      <path d="M 54.890625 33.015625 
L 54.890625 0 
L 45.90625 0 
L 45.90625 32.71875 
Q 45.90625 40.484375 42.875 44.328125 
Q 39.84375 48.1875 33.796875 48.1875 
Q 26.515625 48.1875 22.3125 43.546875 
Q 18.109375 38.921875 18.109375 30.90625 
L 18.109375 0 
L 9.078125 0 
L 9.078125 54.6875 
L 18.109375 54.6875 
L 18.109375 46.1875 
Q 21.34375 51.125 25.703125 53.5625 
Q 30.078125 56 35.796875 56 
Q 45.21875 56 50.046875 50.171875 
Q 54.890625 44.34375 54.890625 33.015625 
z
" id="DejaVuSans-110"/>
      <path d="M 18.3125 70.21875 
L 18.3125 54.6875 
L 36.8125 54.6875 
L 36.8125 47.703125 
L 18.3125 47.703125 
L 18.3125 18.015625 
Q 18.3125 11.328125 20.140625 9.421875 
Q 21.96875 7.515625 27.59375 7.515625 
L 36.8125 7.515625 
L 36.8125 0 
L 27.59375 0 
Q 17.1875 0 13.234375 3.875 
Q 9.28125 7.765625 9.28125 18.015625 
L 9.28125 47.703125 
L 2.6875 47.703125 
L 2.6875 54.6875 
L 9.28125 54.6875 
L 9.28125 70.21875 
z
" id="DejaVuSans-116"/>
      <path d="M 34.28125 27.484375 
Q 23.390625 27.484375 19.1875 25 
Q 14.984375 22.515625 14.984375 16.5 
Q 14.984375 11.71875 18.140625 8.90625 
Q 21.296875 6.109375 26.703125 6.109375 
Q 34.1875 6.109375 38.703125 11.40625 
Q 43.21875 16.703125 43.21875 25.484375 
L 43.21875 27.484375 
z
M 52.203125 31.203125 
L 52.203125 0 
L 43.21875 0 
L 43.21875 8.296875 
Q 40.140625 3.328125 35.546875 0.953125 
Q 30.953125 -1.421875 24.3125 -1.421875 
Q 15.921875 -1.421875 10.953125 3.296875 
Q 6 8.015625 6 15.921875 
Q 6 25.140625 12.171875 29.828125 
Q 18.359375 34.515625 30.609375 34.515625 
L 43.21875 34.515625 
L 43.21875 35.40625 
Q 43.21875 41.609375 39.140625 45 
Q 35.0625 48.390625 27.6875 48.390625 
Q 23 48.390625 18.546875 47.265625 
Q 14.109375 46.140625 10.015625 43.890625 
L 10.015625 52.203125 
Q 14.9375 54.109375 19.578125 55.046875 
Q 24.21875 56 28.609375 56 
Q 40.484375 56 46.34375 49.84375 
Q 52.203125 43.703125 52.203125 31.203125 
z
" id="DejaVuSans-97"/>
      <path d="M 48.78125 52.59375 
L 48.78125 44.1875 
Q 44.96875 46.296875 41.140625 47.34375 
Q 37.3125 48.390625 33.40625 48.390625 
Q 24.65625 48.390625 19.8125 42.84375 
Q 14.984375 37.3125 14.984375 27.296875 
Q 14.984375 17.28125 19.8125 11.734375 
Q 24.65625 6.203125 33.40625 6.203125 
Q 37.3125 6.203125 41.140625 7.25 
Q 44.96875 8.296875 48.78125 10.40625 
L 48.78125 2.09375 
Q 45.015625 0.34375 40.984375 -0.53125 
Q 36.96875 -1.421875 32.421875 -1.421875 
Q 20.0625 -1.421875 12.78125 6.34375 
Q 5.515625 14.109375 5.515625 27.296875 
Q 5.515625 40.671875 12.859375 48.328125 
Q 20.21875 56 33.015625 56 
Q 37.15625 56 41.109375 55.140625 
Q 45.0625 54.296875 48.78125 52.59375 
z
" id="DejaVuSans-99"/>
     </defs>
     <g transform="translate(216.480312 335.860562)scale(0.1 -0.1)">
      <use xlink:href="#DejaVuSans-105"/>
      <use x="27.783203" xlink:href="#DejaVuSans-108"/>
      <use x="55.566406" xlink:href="#DejaVuSans-54"/>
      <use x="119.189453" xlink:href="#DejaVuSans-105"/>
      <use x="146.972656" xlink:href="#DejaVuSans-110"/>
      <use x="210.351562" xlink:href="#DejaVuSans-105"/>
      <use x="238.134766" xlink:href="#DejaVuSans-116"/>
      <use x="277.34375" xlink:href="#DejaVuSans-97"/>
      <use x="338.623047" xlink:href="#DejaVuSans-99"/>
     </g>
    </g>
   </g>
   <g id="matplotlib.axis_2">
    <g id="ytick_1">
     <g id="line2d_6">
      <defs>
       <path d="M 0 0 
L -3.5 0 
" id="m03ded3ff28" style="stroke:#000000;stroke-width:0.8;"/>
      </defs>
      <g>
       <use style="stroke:#000000;stroke-width:0.8;" x="57.6" xlink:href="#m03ded3ff28" y="174.528"/>
      </g>
     </g>
    </g>
   </g>
   <g id="line2d_7">
    <path clip-path="url(#pd923edc6bb)" d="M 119.772781 174.528 
L 137.763483 174.528 
" style="fill:none;stroke:#ffa500;stroke-linecap:square;stroke-width:1.5;"/>
   </g>
   <g id="line2d_8">
    <path clip-path="url(#pd923edc6bb)" d="M 121.843907 174.528 
L 130.575436 174.528 
" style="fill:none;stroke:#4c4c4c;stroke-linecap:square;stroke-width:4.5;"/>
   </g>
   <g id="line2d_9">
    <path clip-path="url(#pd923edc6bb)" d="M 119.772781 174.528 
L 126.693918 174.528 
" style="fill:none;stroke:#008000;stroke-linecap:square;stroke-width:1.5;"/>
   </g>
   <g id="line2d_10">
    <path clip-path="url(#pd923edc6bb)" d="M 120.308659 174.528 
L 123.110872 174.528 
" style="fill:none;stroke:#262626;stroke-linecap:square;stroke-width:4.5;"/>
   </g>
   <g id="patch_3">
    <path d="M 57.6 307.584 
L 57.6 41.472 
" style="fill:none;stroke:#000000;stroke-linecap:square;stroke-linejoin:miter;stroke-width:0.8;"/>
   </g>
   <g id="patch_4">
    <path d="M 414.72 307.584 
L 414.72 41.472 
" style="fill:none;stroke:#000000;stroke-linecap:square;stroke-linejoin:miter;stroke-width:0.8;"/>
   </g>
   <g id="patch_5">
    <path d="M 57.6 307.584 
L 414.72 307.584 
" style="fill:none;stroke:#000000;stroke-linecap:square;stroke-linejoin:miter;stroke-width:0.8;"/>
   </g>
   <g id="patch_6">
    <path d="M 57.6 41.472 
L 414.72 41.472 
" style="fill:none;stroke:#000000;stroke-linecap:square;stroke-linejoin:miter;stroke-width:0.8;"/>
   </g>
   <g id="PathCollection_1">
    <defs>
     <path d="M 0 1.5 
C 0.397805 1.5 0.77937 1.341951 1.06066 1.06066 
C 1.341951 0.77937 1.5 0.397805 1.5 0 
C 1.5 -0.397805 1.341951 -0.77937 1.06066 -1.06066 
C 0.77937 -1.341951 0.397805 -1.5 0 -1.5 
C -0.397805 -1.5 -0.77937 -1.341951 -1.06066 -1.06066 
C -1.341951 -0.77937 -1.5 -0.397805 -1.5 0 
C -1.5 0.397805 -1.341951 0.77937 -1.06066 1.06066 
C -0.77937 1.341951 -0.397805 1.5 0 1.5 
z
" id="m61632f988e" style="stroke:#4c4c4c;stroke-opacity:0.5;"/>
    </defs>
    <g clip-path="url(#pd923edc6bb)">
     <use style="fill:#ffffff;fill-opacity:0.5;stroke:#4c4c4c;stroke-opacity:0.5;" x="124.898278" xlink:href="#m61632f988e" y="174.528"/>
    </g>
   </g>
   <g id="PathCollection_2">
    <defs>
     <path d="M 0 1.5 
C 0.397805 1.5 0.77937 1.341951 1.06066 1.06066 
C 1.341951 0.77937 1.5 0.397805 1.5 0 
C 1.5 -0.397805 1.341951 -0.77937 1.06066 -1.06066 
C 0.77937 -1.341951 0.397805 -1.5 0 -1.5 
C -0.397805 -1.5 -0.77937 -1.341951 -1.06066 -1.06066 
C -1.341951 -0.77937 -1.5 -0.397805 -1.5 0 
C -1.5 0.397805 -1.341951 0.77937 -1.06066 1.06066 
C -0.77937 1.341951 -0.397805 1.5 0 1.5 
z
" id="m0c010d0968" style="stroke:#262626;stroke-opacity:0.5;"/>
    </defs>
    <g clip-path="url(#pd923edc6bb)">
     <use style="fill:#ffffff;fill-opacity:0.5;stroke:#262626;stroke-opacity:0.5;" x="121.330328" xlink:href="#m0c010d0968" y="174.528"/>
    </g>
   </g>
   <g id="text_7">
    <!-- Association of il6initac vs. ards -->
    <defs>
     <path d="M 34.1875 63.1875 
L 20.796875 26.90625 
L 47.609375 26.90625 
z
M 28.609375 72.90625 
L 39.796875 72.90625 
L 67.578125 0 
L 57.328125 0 
L 50.6875 18.703125 
L 17.828125 18.703125 
L 11.1875 0 
L 0.78125 0 
z
" id="DejaVuSans-65"/>
     <path d="M 44.28125 53.078125 
L 44.28125 44.578125 
Q 40.484375 46.53125 36.375 47.5 
Q 32.28125 48.484375 27.875 48.484375 
Q 21.1875 48.484375 17.84375 46.4375 
Q 14.5 44.390625 14.5 40.28125 
Q 14.5 37.15625 16.890625 35.375 
Q 19.28125 33.59375 26.515625 31.984375 
L 29.59375 31.296875 
Q 39.15625 29.25 43.1875 25.515625 
Q 47.21875 21.78125 47.21875 15.09375 
Q 47.21875 7.46875 41.1875 3.015625 
Q 35.15625 -1.421875 24.609375 -1.421875 
Q 20.21875 -1.421875 15.453125 -0.5625 
Q 10.6875 0.296875 5.421875 2 
L 5.421875 11.28125 
Q 10.40625 8.6875 15.234375 7.390625 
Q 20.0625 6.109375 24.8125 6.109375 
Q 31.15625 6.109375 34.5625 8.28125 
Q 37.984375 10.453125 37.984375 14.40625 
Q 37.984375 18.0625 35.515625 20.015625 
Q 33.0625 21.96875 24.703125 23.78125 
L 21.578125 24.515625 
Q 13.234375 26.265625 9.515625 29.90625 
Q 5.8125 33.546875 5.8125 39.890625 
Q 5.8125 47.609375 11.28125 51.796875 
Q 16.75 56 26.8125 56 
Q 31.78125 56 36.171875 55.265625 
Q 40.578125 54.546875 44.28125 53.078125 
z
" id="DejaVuSans-115"/>
     <path d="M 30.609375 48.390625 
Q 23.390625 48.390625 19.1875 42.75 
Q 14.984375 37.109375 14.984375 27.296875 
Q 14.984375 17.484375 19.15625 11.84375 
Q 23.34375 6.203125 30.609375 6.203125 
Q 37.796875 6.203125 41.984375 11.859375 
Q 46.1875 17.53125 46.1875 27.296875 
Q 46.1875 37.015625 41.984375 42.703125 
Q 37.796875 48.390625 30.609375 48.390625 
z
M 30.609375 56 
Q 42.328125 56 49.015625 48.375 
Q 55.71875 40.765625 55.71875 27.296875 
Q 55.71875 13.875 49.015625 6.21875 
Q 42.328125 -1.421875 30.609375 -1.421875 
Q 18.84375 -1.421875 12.171875 6.21875 
Q 5.515625 13.875 5.515625 27.296875 
Q 5.515625 40.765625 12.171875 48.375 
Q 18.84375 56 30.609375 56 
z
" id="DejaVuSans-111"/>
     <path id="DejaVuSans-32"/>
     <path d="M 37.109375 75.984375 
L 37.109375 68.5 
L 28.515625 68.5 
Q 23.6875 68.5 21.796875 66.546875 
Q 19.921875 64.59375 19.921875 59.515625 
L 19.921875 54.6875 
L 34.71875 54.6875 
L 34.71875 47.703125 
L 19.921875 47.703125 
L 19.921875 0 
L 10.890625 0 
L 10.890625 47.703125 
L 2.296875 47.703125 
L 2.296875 54.6875 
L 10.890625 54.6875 
L 10.890625 58.5 
Q 10.890625 67.625 15.140625 71.796875 
Q 19.390625 75.984375 28.609375 75.984375 
z
" id="DejaVuSans-102"/>
     <path d="M 2.984375 54.6875 
L 12.5 54.6875 
L 29.59375 8.796875 
L 46.6875 54.6875 
L 56.203125 54.6875 
L 35.6875 0 
L 23.484375 0 
z
" id="DejaVuSans-118"/>
     <path d="M 10.6875 12.40625 
L 21 12.40625 
L 21 0 
L 10.6875 0 
z
" id="DejaVuSans-46"/>
     <path d="M 41.109375 46.296875 
Q 39.59375 47.171875 37.8125 47.578125 
Q 36.03125 48 33.890625 48 
Q 26.265625 48 22.1875 43.046875 
Q 18.109375 38.09375 18.109375 28.8125 
L 18.109375 0 
L 9.078125 0 
L 9.078125 54.6875 
L 18.109375 54.6875 
L 18.109375 46.1875 
Q 20.953125 51.171875 25.484375 53.578125 
Q 30.03125 56 36.53125 56 
Q 37.453125 56 38.578125 55.875 
Q 39.703125 55.765625 41.0625 55.515625 
z
" id="DejaVuSans-114"/>
     <path d="M 45.40625 46.390625 
L 45.40625 75.984375 
L 54.390625 75.984375 
L 54.390625 0 
L 45.40625 0 
L 45.40625 8.203125 
Q 42.578125 3.328125 38.25 0.953125 
Q 33.9375 -1.421875 27.875 -1.421875 
Q 17.96875 -1.421875 11.734375 6.484375 
Q 5.515625 14.40625 5.515625 27.296875 
Q 5.515625 40.1875 11.734375 48.09375 
Q 17.96875 56 27.875 56 
Q 33.9375 56 38.25 53.625 
Q 42.578125 51.265625 45.40625 46.390625 
z
M 14.796875 27.296875 
Q 14.796875 17.390625 18.875 11.75 
Q 22.953125 6.109375 30.078125 6.109375 
Q 37.203125 6.109375 41.296875 11.75 
Q 45.40625 17.390625 45.40625 27.296875 
Q 45.40625 37.203125 41.296875 42.84375 
Q 37.203125 48.484375 30.078125 48.484375 
Q 22.953125 48.484375 18.875 42.84375 
Q 14.796875 37.203125 14.796875 27.296875 
z
" id="DejaVuSans-100"/>
    </defs>
    <g transform="translate(143.414062 35.472)scale(0.12 -0.12)">
     <use xlink:href="#DejaVuSans-65"/>
     <use x="68.408203" xlink:href="#DejaVuSans-115"/>
     <use x="120.507812" xlink:href="#DejaVuSans-115"/>
     <use x="172.607422" xlink:href="#DejaVuSans-111"/>
     <use x="233.789062" xlink:href="#DejaVuSans-99"/>
     <use x="288.769531" xlink:href="#DejaVuSans-105"/>
     <use x="316.552734" xlink:href="#DejaVuSans-97"/>
     <use x="377.832031" xlink:href="#DejaVuSans-116"/>
     <use x="417.041016" xlink:href="#DejaVuSans-105"/>
     <use x="444.824219" xlink:href="#DejaVuSans-111"/>
     <use x="506.005859" xlink:href="#DejaVuSans-110"/>
     <use x="569.384766" xlink:href="#DejaVuSans-32"/>
     <use x="601.171875" xlink:href="#DejaVuSans-111"/>
     <use x="662.353516" xlink:href="#DejaVuSans-102"/>
     <use x="697.558594" xlink:href="#DejaVuSans-32"/>
     <use x="729.345703" xlink:href="#DejaVuSans-105"/>
     <use x="757.128906" xlink:href="#DejaVuSans-108"/>
     <use x="784.912109" xlink:href="#DejaVuSans-54"/>
     <use x="848.535156" xlink:href="#DejaVuSans-105"/>
     <use x="876.318359" xlink:href="#DejaVuSans-110"/>
     <use x="939.697266" xlink:href="#DejaVuSans-105"/>
     <use x="967.480469" xlink:href="#DejaVuSans-116"/>
     <use x="1006.689453" xlink:href="#DejaVuSans-97"/>
     <use x="1067.96875" xlink:href="#DejaVuSans-99"/>
     <use x="1122.949219" xlink:href="#DejaVuSans-32"/>
     <use x="1154.736328" xlink:href="#DejaVuSans-118"/>
     <use x="1213.916016" xlink:href="#DejaVuSans-115"/>
     <use x="1266.015625" xlink:href="#DejaVuSans-46"/>
     <use x="1297.802734" xlink:href="#DejaVuSans-32"/>
     <use x="1329.589844" xlink:href="#DejaVuSans-97"/>
     <use x="1390.869141" xlink:href="#DejaVuSans-114"/>
     <use x="1430.232422" xlink:href="#DejaVuSans-100"/>
     <use x="1493.708984" xlink:href="#DejaVuSans-115"/>
    </g>
   </g>
   <g id="legend_1">
    <g id="patch_7">
     <path d="M 309.693438 78.82825 
L 407.72 78.82825 
Q 409.72 78.82825 409.72 76.82825 
L 409.72 48.472 
Q 409.72 46.472 407.72 46.472 
L 309.693438 46.472 
Q 307.693438 46.472 307.693438 48.472 
L 307.693438 76.82825 
Q 307.693438 78.82825 309.693438 78.82825 
z
" style="fill:#ffffff;opacity:0.8;stroke:#cccccc;stroke-linejoin:miter;"/>
    </g>
    <g id="line2d_11">
     <path d="M 311.693438 54.570437 
L 331.693438 54.570437 
" style="fill:none;stroke:#ffa500;stroke-linecap:square;stroke-width:1.5;"/>
    </g>
    <g id="line2d_12"/>
    <g id="text_8">
     <!-- ards (23) -->
     <defs>
      <path d="M 31 75.875 
Q 24.46875 64.65625 21.28125 53.65625 
Q 18.109375 42.671875 18.109375 31.390625 
Q 18.109375 20.125 21.3125 9.0625 
Q 24.515625 -2 31 -13.1875 
L 23.1875 -13.1875 
Q 15.875 -1.703125 12.234375 9.375 
Q 8.59375 20.453125 8.59375 31.390625 
Q 8.59375 42.28125 12.203125 53.3125 
Q 15.828125 64.359375 23.1875 75.875 
z
" id="DejaVuSans-40"/>
      <path d="M 8.015625 75.875 
L 15.828125 75.875 
Q 23.140625 64.359375 26.78125 53.3125 
Q 30.421875 42.28125 30.421875 31.390625 
Q 30.421875 20.453125 26.78125 9.375 
Q 23.140625 -1.703125 15.828125 -13.1875 
L 8.015625 -13.1875 
Q 14.5 -2 17.703125 9.0625 
Q 20.90625 20.125 20.90625 31.390625 
Q 20.90625 42.671875 17.703125 53.65625 
Q 14.5 64.65625 8.015625 75.875 
z
" id="DejaVuSans-41"/>
     </defs>
     <g transform="translate(339.693438 58.070437)scale(0.1 -0.1)">
      <use xlink:href="#DejaVuSans-97"/>
      <use x="61.279297" xlink:href="#DejaVuSans-114"/>
      <use x="100.642578" xlink:href="#DejaVuSans-100"/>
      <use x="164.119141" xlink:href="#DejaVuSans-115"/>
      <use x="216.21875" xlink:href="#DejaVuSans-32"/>
      <use x="248.005859" xlink:href="#DejaVuSans-40"/>
      <use x="287.019531" xlink:href="#DejaVuSans-50"/>
      <use x="350.642578" xlink:href="#DejaVuSans-51"/>
      <use x="414.265625" xlink:href="#DejaVuSans-41"/>
     </g>
    </g>
    <g id="line2d_13">
     <path d="M 311.693438 69.248562 
L 331.693438 69.248562 
" style="fill:none;stroke:#008000;stroke-linecap:square;stroke-width:1.5;"/>
    </g>
    <g id="line2d_14"/>
    <g id="text_9">
     <!-- Not ards (27) -->
     <defs>
      <path d="M 9.8125 72.90625 
L 23.09375 72.90625 
L 55.421875 11.921875 
L 55.421875 72.90625 
L 64.984375 72.90625 
L 64.984375 0 
L 51.703125 0 
L 19.390625 60.984375 
L 19.390625 0 
L 9.8125 0 
z
" id="DejaVuSans-78"/>
      <path d="M 8.203125 72.90625 
L 55.078125 72.90625 
L 55.078125 68.703125 
L 28.609375 0 
L 18.3125 0 
L 43.21875 64.59375 
L 8.203125 64.59375 
z
" id="DejaVuSans-55"/>
     </defs>
     <g transform="translate(339.693438 72.748562)scale(0.1 -0.1)">
      <use xlink:href="#DejaVuSans-78"/>
      <use x="74.804688" xlink:href="#DejaVuSans-111"/>
      <use x="135.986328" xlink:href="#DejaVuSans-116"/>
      <use x="175.195312" xlink:href="#DejaVuSans-32"/>
      <use x="206.982422" xlink:href="#DejaVuSans-97"/>
      <use x="268.261719" xlink:href="#DejaVuSans-114"/>
      <use x="307.625" xlink:href="#DejaVuSans-100"/>
      <use x="371.101562" xlink:href="#DejaVuSans-115"/>
      <use x="423.201172" xlink:href="#DejaVuSans-32"/>
      <use x="454.988281" xlink:href="#DejaVuSans-40"/>
      <use x="494.001953" xlink:href="#DejaVuSans-50"/>
      <use x="557.625" xlink:href="#DejaVuSans-55"/>
      <use x="621.248047" xlink:href="#DejaVuSans-41"/>
     </g>
    </g>
   </g>
  </g>
 </g>
 <defs>
  <clipPath id="pd923edc6bb">
   <rect height="266.112" width="357.12" x="57.6" y="41.472"/>
  </clipPath>
 </defs>
</svg>
