<?xml version="1.0" encoding="utf-8" standalone="no"?>
<!DOCTYPE svg PUBLIC "-//W3C//DTD SVG 1.1//EN"
  "http://www.w3.org/Graphics/SVG/1.1/DTD/svg11.dtd">
<!-- Created with matplotlib (https://matplotlib.org/) -->
<svg height="345.6pt" version="1.1" viewBox="0 0 460.8 345.6" width="460.8pt" xmlns="http://www.w3.org/2000/svg" xmlns:xlink="http://www.w3.org/1999/xlink">
 <defs>
  <style type="text/css">
*{stroke-linecap:butt;stroke-linejoin:round;}
  </style>
 </defs>
 <g id="figure_1">
  <g id="patch_1">
   <path d="M 0 345.6 
L 460.8 345.6 
L 460.8 0 
L 0 0 
z
" style="fill:#ffffff;"/>
  </g>
  <g id="axes_1">
   <g id="patch_2">
    <path d="M 57.6 307.584 
L 414.72 307.584 
L 414.72 41.472 
L 57.6 41.472 
z
" style="fill:#ffffff;"/>
   </g>
   <g id="PolyCollection_1">
    <defs>
     <path d="M 73.832727 -158.742623 
L 73.832727 -183.401377 
L 77.112066 -186.848434 
L 80.391405 -190.975712 
L 83.670744 -195.830235 
L 86.950083 -201.436684 
L 90.229421 -207.790489 
L 93.50876 -214.85159 
L 96.788099 -222.539596 
L 100.067438 -230.731071 
L 103.346777 -239.259608 
L 106.626116 -247.919157 
L 109.905455 -256.470818 
L 113.184793 -264.65298 
L 116.464132 -272.19432 
L 119.743471 -278.828821 
L 123.02281 -284.311685 
L 126.302149 -288.434813 
L 129.581488 -291.040489 
L 132.860826 -292.032 
L 136.140165 -291.380171 
L 139.419504 -289.125187 
L 142.698843 -285.37351 
L 145.978182 -280.290207 
L 149.257521 -274.087431 
L 152.53686 -267.010149 
L 155.816198 -259.32046 
L 159.095537 -251.281876 
L 162.374876 -243.144883 
L 165.654215 -235.134846 
L 168.933554 -227.443014 
L 172.212893 -220.221013 
L 175.492231 -213.57881 
L 178.77157 -207.585833 
L 182.050909 -202.274647 
L 185.330248 -197.646445 
L 188.609587 -193.677571 
L 191.888926 -190.326291 
L 195.168264 -187.5392 
L 198.447603 -185.256777 
L 201.726942 -183.417803 
L 205.006281 -181.96254 
L 208.28562 -180.834729 
L 211.564959 -179.982565 
L 214.844298 -179.358916 
L 218.123636 -178.921041 
L 221.402975 -178.63007 
L 224.682314 -178.450482 
L 227.961653 -178.349711 
L 231.240992 -178.297991 
L 234.520331 -178.268449 
L 237.799669 -178.237408 
L 241.079008 -178.18483 
L 244.358347 -178.094796 
L 247.637686 -177.955925 
L 250.917025 -177.761638 
L 254.196364 -177.510203 
L 257.475702 -177.204536 
L 260.755041 -176.851753 
L 264.03438 -176.462503 
L 267.313719 -176.050144 
L 270.593058 -175.629823 
L 273.872397 -175.217527 
L 277.151736 -174.829183 
L 280.431074 -174.479839 
L 283.710413 -174.182973 
L 286.989752 -173.949938 
L 290.269091 -173.78954 
L 293.54843 -173.707742 
L 296.827769 -173.707469 
L 300.107107 -173.788511 
L 303.386446 -173.947493 
L 306.665785 -174.177937 
L 309.945124 -174.470403 
L 313.224463 -174.812734 
L 316.503802 -175.190416 
L 319.78314 -175.587073 
L 323.062479 -175.985093 
L 326.341818 -176.366373 
L 329.621157 -176.713157 
L 332.900496 -177.008922 
L 336.179835 -177.239241 
L 339.459174 -177.392576 
L 342.738512 -177.460906 
L 346.017851 -177.44016 
L 349.29719 -177.330383 
L 352.576529 -177.135649 
L 355.855868 -176.86369 
L 359.135207 -176.525309 
L 362.414545 -176.133604 
L 365.693884 -175.703083 
L 368.973223 -175.248755 
L 372.252562 -174.785253 
L 375.531901 -174.326073 
L 378.81124 -173.882969 
L 382.090579 -173.465537 
L 385.369917 -173.080995 
L 388.649256 -172.734156 
L 391.928595 -172.427561 
L 395.207934 -172.161733 
L 398.487273 -171.935525 
L 398.487273 -170.208475 
L 398.487273 -170.208475 
L 395.207934 -169.982267 
L 391.928595 -169.716439 
L 388.649256 -169.409844 
L 385.369917 -169.063005 
L 382.090579 -168.678463 
L 378.81124 -168.261031 
L 375.531901 -167.817927 
L 372.252562 -167.358747 
L 368.973223 -166.895245 
L 365.693884 -166.440917 
L 362.414545 -166.010396 
L 359.135207 -165.618691 
L 355.855868 -165.28031 
L 352.576529 -165.008351 
L 349.29719 -164.813617 
L 346.017851 -164.70384 
L 342.738512 -164.683094 
L 339.459174 -164.751424 
L 336.179835 -164.904759 
L 332.900496 -165.135078 
L 329.621157 -165.430843 
L 326.341818 -165.777627 
L 323.062479 -166.158907 
L 319.78314 -166.556927 
L 316.503802 -166.953584 
L 313.224463 -167.331266 
L 309.945124 -167.673597 
L 306.665785 -167.966063 
L 303.386446 -168.196507 
L 300.107107 -168.355489 
L 296.827769 -168.436531 
L 293.54843 -168.436258 
L 290.269091 -168.35446 
L 286.989752 -168.194062 
L 283.710413 -167.961027 
L 280.431074 -167.664161 
L 277.151736 -167.314817 
L 273.872397 -166.926473 
L 270.593058 -166.514177 
L 267.313719 -166.093856 
L 264.03438 -165.681497 
L 260.755041 -165.292247 
L 257.475702 -164.939464 
L 254.196364 -164.633797 
L 250.917025 -164.382362 
L 247.637686 -164.188075 
L 244.358347 -164.049204 
L 241.079008 -163.95917 
L 237.799669 -163.906592 
L 234.520331 -163.875551 
L 231.240992 -163.846009 
L 227.961653 -163.794289 
L 224.682314 -163.693518 
L 221.402975 -163.51393 
L 218.123636 -163.222959 
L 214.844298 -162.785084 
L 211.564959 -162.161435 
L 208.28562 -161.309271 
L 205.006281 -160.18146 
L 201.726942 -158.726197 
L 198.447603 -156.887223 
L 195.168264 -154.6048 
L 191.888926 -151.817709 
L 188.609587 -148.466429 
L 185.330248 -144.497555 
L 182.050909 -139.869353 
L 178.77157 -134.558167 
L 175.492231 -128.56519 
L 172.212893 -121.922987 
L 168.933554 -114.700986 
L 165.654215 -107.009154 
L 162.374876 -98.999117 
L 159.095537 -90.862124 
L 155.816198 -82.82354 
L 152.53686 -75.133851 
L 149.257521 -68.056569 
L 145.978182 -61.853793 
L 142.698843 -56.77049 
L 139.419504 -53.018813 
L 136.140165 -50.763829 
L 132.860826 -50.112 
L 129.581488 -51.103511 
L 126.302149 -53.709187 
L 123.02281 -57.832315 
L 119.743471 -63.315179 
L 116.464132 -69.94968 
L 113.184793 -77.49102 
L 109.905455 -85.673182 
L 106.626116 -94.224843 
L 103.346777 -102.884392 
L 100.067438 -111.412929 
L 96.788099 -119.604404 
L 93.50876 -127.29241 
L 90.229421 -134.353511 
L 86.950083 -140.707316 
L 83.670744 -146.313765 
L 80.391405 -151.168288 
L 77.112066 -155.295566 
L 73.832727 -158.742623 
z
" id="m516b27fe7d" style="stroke:#4c4c4c;stroke-opacity:0.5;stroke-width:1.5;"/>
    </defs>
    <g clip-path="url(#p5fe0061868)">
     <use style="fill:#df9c20;fill-opacity:0.5;stroke:#4c4c4c;stroke-opacity:0.5;stroke-width:1.5;" x="0" xlink:href="#m516b27fe7d" y="345.6"/>
    </g>
   </g>
   <g id="PolyCollection_2">
    <defs>
     <path d="M 117.509886 -160.92171 
L 117.509886 -181.22229 
L 118.303195 -184.805871 
L 119.096504 -189.284479 
L 119.889813 -194.743722 
L 120.683122 -201.229952 
L 121.476431 -208.735067 
L 122.26974 -217.183254 
L 123.063049 -226.421924 
L 123.856359 -236.219019 
L 124.649668 -246.26833 
L 125.442977 -256.203609 
L 126.236286 -265.621068 
L 127.029595 -274.108532 
L 127.822904 -281.278344 
L 128.616213 -286.80027 
L 129.409522 -290.430351 
L 130.202831 -292.032 
L 130.99614 -291.586596 
L 131.78945 -289.192274 
L 132.582759 -285.05123 
L 133.376068 -279.447484 
L 134.169377 -272.71821 
L 134.962686 -265.222477 
L 135.755995 -257.311256 
L 136.549304 -249.302001 
L 137.342613 -241.460136 
L 138.135922 -233.988543 
L 138.929231 -227.024948 
L 139.72254 -220.646089 
L 140.51585 -214.876867 
L 141.309159 -209.702404 
L 142.102468 -205.08099 
L 142.895777 -200.956232 
L 143.689086 -197.267234 
L 144.482395 -193.956145 
L 145.275704 -190.972927 
L 146.069013 -188.277584 
L 146.862322 -185.840324 
L 147.655631 -183.64026 
L 148.44894 -181.66327 
L 149.24225 -179.899539 
L 150.035559 -178.341237 
L 150.828868 -176.980594 
L 151.622177 -175.808541 
L 152.415486 -174.813958 
L 153.208795 -173.983481 
L 154.002104 -173.301753 
L 154.795413 -172.751989 
L 155.588722 -172.316709 
L 156.382031 -171.978499 
L 157.17534 -171.720713 
L 157.96865 -171.528029 
L 158.761959 -171.386837 
L 159.555268 -171.285446 
L 160.348577 -171.214131 
L 161.141886 -171.165056 
L 161.935195 -171.132109 
L 162.728504 -171.110687 
L 163.521813 -171.097473 
L 164.315122 -171.09023 
L 165.108431 -171.087625 
L 165.901741 -171.089113 
L 166.69505 -171.09486 
L 167.488359 -171.105726 
L 168.281668 -171.123283 
L 169.074977 -171.149853 
L 169.868286 -171.188561 
L 170.661595 -171.243344 
L 171.454904 -171.318908 
L 172.248213 -171.420591 
L 173.041522 -171.554087 
L 173.834831 -171.725031 
L 174.628141 -171.938426 
L 175.42145 -172.197939 
L 176.214759 -172.505119 
L 177.008068 -172.858626 
L 177.801377 -173.253566 
L 178.594686 -173.681075 
L 179.387995 -174.128247 
L 180.181304 -174.578499 
L 180.974613 -175.01242 
L 181.767922 -175.409054 
L 182.561231 -175.747527 
L 183.354541 -176.00885 
L 184.14785 -176.17767 
L 184.941159 -176.243768 
L 185.734468 -176.20308 
L 186.527777 -176.058113 
L 187.321086 -175.817685 
L 188.114395 -175.496041 
L 188.907704 -175.111457 
L 189.701013 -174.68452 
L 190.494322 -174.236325 
L 191.287632 -173.786784 
L 192.080941 -173.353251 
L 192.87425 -172.949562 
L 193.667559 -172.585558 
L 194.460868 -172.267054 
L 195.254177 -171.996186 
L 196.047486 -171.772027 
L 196.047486 -170.371973 
L 196.047486 -170.371973 
L 195.254177 -170.147814 
L 194.460868 -169.876946 
L 193.667559 -169.558442 
L 192.87425 -169.194438 
L 192.080941 -168.790749 
L 191.287632 -168.357216 
L 190.494322 -167.907675 
L 189.701013 -167.45948 
L 188.907704 -167.032543 
L 188.114395 -166.647959 
L 187.321086 -166.326315 
L 186.527777 -166.085887 
L 185.734468 -165.94092 
L 184.941159 -165.900232 
L 184.14785 -165.96633 
L 183.354541 -166.13515 
L 182.561231 -166.396473 
L 181.767922 -166.734946 
L 180.974613 -167.13158 
L 180.181304 -167.565501 
L 179.387995 -168.015753 
L 178.594686 -168.462925 
L 177.801377 -168.890434 
L 177.008068 -169.285374 
L 176.214759 -169.638881 
L 175.42145 -169.946061 
L 174.628141 -170.205574 
L 173.834831 -170.418969 
L 173.041522 -170.589913 
L 172.248213 -170.723409 
L 171.454904 -170.825092 
L 170.661595 -170.900656 
L 169.868286 -170.955439 
L 169.074977 -170.994147 
L 168.281668 -171.020717 
L 167.488359 -171.038274 
L 166.69505 -171.04914 
L 165.901741 -171.054887 
L 165.108431 -171.056375 
L 164.315122 -171.05377 
L 163.521813 -171.046527 
L 162.728504 -171.033313 
L 161.935195 -171.011891 
L 161.141886 -170.978944 
L 160.348577 -170.929869 
L 159.555268 -170.858554 
L 158.761959 -170.757163 
L 157.96865 -170.615971 
L 157.17534 -170.423287 
L 156.382031 -170.165501 
L 155.588722 -169.827291 
L 154.795413 -169.392011 
L 154.002104 -168.842247 
L 153.208795 -168.160519 
L 152.415486 -167.330042 
L 151.622177 -166.335459 
L 150.828868 -165.163406 
L 150.035559 -163.802763 
L 149.24225 -162.244461 
L 148.44894 -160.48073 
L 147.655631 -158.50374 
L 146.862322 -156.303676 
L 146.069013 -153.866416 
L 145.275704 -151.171073 
L 144.482395 -148.187855 
L 143.689086 -144.876766 
L 142.895777 -141.187768 
L 142.102468 -137.06301 
L 141.309159 -132.441596 
L 140.51585 -127.267133 
L 139.72254 -121.497911 
L 138.929231 -115.119052 
L 138.135922 -108.155457 
L 137.342613 -100.683864 
L 136.549304 -92.841999 
L 135.755995 -84.832744 
L 134.962686 -76.921523 
L 134.169377 -69.42579 
L 133.376068 -62.696516 
L 132.582759 -57.09277 
L 131.78945 -52.951726 
L 130.99614 -50.557404 
L 130.202831 -50.112 
L 129.409522 -51.713649 
L 128.616213 -55.34373 
L 127.822904 -60.865656 
L 127.029595 -68.035468 
L 126.236286 -76.522932 
L 125.442977 -85.940391 
L 124.649668 -95.87567 
L 123.856359 -105.924981 
L 123.063049 -115.722076 
L 122.26974 -124.960746 
L 121.476431 -133.408933 
L 120.683122 -140.914048 
L 119.889813 -147.400278 
L 119.096504 -152.859521 
L 118.303195 -157.338129 
L 117.509886 -160.92171 
z
" id="ma3e96dc89d" style="stroke:#262626;stroke-opacity:0.5;stroke-width:1.5;"/>
    </defs>
    <g clip-path="url(#p5fe0061868)">
     <use style="fill:#107010;fill-opacity:0.5;stroke:#262626;stroke-opacity:0.5;stroke-width:1.5;" x="0" xlink:href="#ma3e96dc89d" y="345.6"/>
    </g>
   </g>
   <g id="matplotlib.axis_1">
    <g id="xtick_1">
     <g id="line2d_1">
      <defs>
       <path d="M 0 0 
L 0 3.5 
" id="m8e590e18d0" style="stroke:#000000;stroke-width:0.8;"/>
      </defs>
      <g>
       <use style="stroke:#000000;stroke-width:0.8;" x="65.064538" xlink:href="#m8e590e18d0" y="307.584"/>
      </g>
     </g>
     <g id="text_1">
      <!-- −1000 -->
      <defs>
       <path d="M 10.59375 35.5 
L 73.1875 35.5 
L 73.1875 27.203125 
L 10.59375 27.203125 
z
" id="DejaVuSans-8722"/>
       <path d="M 12.40625 8.296875 
L 28.515625 8.296875 
L 28.515625 63.921875 
L 10.984375 60.40625 
L 10.984375 69.390625 
L 28.421875 72.90625 
L 38.28125 72.90625 
L 38.28125 8.296875 
L 54.390625 8.296875 
L 54.390625 0 
L 12.40625 0 
z
" id="DejaVuSans-49"/>
       <path d="M 31.78125 66.40625 
Q 24.171875 66.40625 20.328125 58.90625 
Q 16.5 51.421875 16.5 36.375 
Q 16.5 21.390625 20.328125 13.890625 
Q 24.171875 6.390625 31.78125 6.390625 
Q 39.453125 6.390625 43.28125 13.890625 
Q 47.125 21.390625 47.125 36.375 
Q 47.125 51.421875 43.28125 58.90625 
Q 39.453125 66.40625 31.78125 66.40625 
z
M 31.78125 74.21875 
Q 44.046875 74.21875 50.515625 64.515625 
Q 56.984375 54.828125 56.984375 36.375 
Q 56.984375 17.96875 50.515625 8.265625 
Q 44.046875 -1.421875 31.78125 -1.421875 
Q 19.53125 -1.421875 13.0625 8.265625 
Q 6.59375 17.96875 6.59375 36.375 
Q 6.59375 54.828125 13.0625 64.515625 
Q 19.53125 74.21875 31.78125 74.21875 
z
" id="DejaVuSans-48"/>
      </defs>
      <g transform="translate(48.149694 322.182437)scale(0.1 -0.1)">
       <use xlink:href="#DejaVuSans-8722"/>
       <use x="83.789062" xlink:href="#DejaVuSans-49"/>
       <use x="147.412109" xlink:href="#DejaVuSans-48"/>
       <use x="211.035156" xlink:href="#DejaVuSans-48"/>
       <use x="274.658203" xlink:href="#DejaVuSans-48"/>
      </g>
     </g>
    </g>
    <g id="xtick_2">
     <g id="line2d_2">
      <g>
       <use style="stroke:#000000;stroke-width:0.8;" x="128.521362" xlink:href="#m8e590e18d0" y="307.584"/>
      </g>
     </g>
     <g id="text_2">
      <!-- 0 -->
      <g transform="translate(125.340112 322.182437)scale(0.1 -0.1)">
       <use xlink:href="#DejaVuSans-48"/>
      </g>
     </g>
    </g>
    <g id="xtick_3">
     <g id="line2d_3">
      <g>
       <use style="stroke:#000000;stroke-width:0.8;" x="191.978186" xlink:href="#m8e590e18d0" y="307.584"/>
      </g>
     </g>
     <g id="text_3">
      <!-- 1000 -->
      <g transform="translate(179.253186 322.182437)scale(0.1 -0.1)">
       <use xlink:href="#DejaVuSans-49"/>
       <use x="63.623047" xlink:href="#DejaVuSans-48"/>
       <use x="127.246094" xlink:href="#DejaVuSans-48"/>
       <use x="190.869141" xlink:href="#DejaVuSans-48"/>
      </g>
     </g>
    </g>
    <g id="xtick_4">
     <g id="line2d_4">
      <g>
       <use style="stroke:#000000;stroke-width:0.8;" x="255.43501" xlink:href="#m8e590e18d0" y="307.584"/>
      </g>
     </g>
     <g id="text_4">
      <!-- 2000 -->
      <defs>
       <path d="M 19.1875 8.296875 
L 53.609375 8.296875 
L 53.609375 0 
L 7.328125 0 
L 7.328125 8.296875 
Q 12.9375 14.109375 22.625 23.890625 
Q 32.328125 33.6875 34.8125 36.53125 
Q 39.546875 41.84375 41.421875 45.53125 
Q 43.3125 49.21875 43.3125 52.78125 
Q 43.3125 58.59375 39.234375 62.25 
Q 35.15625 65.921875 28.609375 65.921875 
Q 23.96875 65.921875 18.8125 64.3125 
Q 13.671875 62.703125 7.8125 59.421875 
L 7.8125 69.390625 
Q 13.765625 71.78125 18.9375 73 
Q 24.125 74.21875 28.421875 74.21875 
Q 39.75 74.21875 46.484375 68.546875 
Q 53.21875 62.890625 53.21875 53.421875 
Q 53.21875 48.921875 51.53125 44.890625 
Q 49.859375 40.875 45.40625 35.40625 
Q 44.1875 33.984375 37.640625 27.21875 
Q 31.109375 20.453125 19.1875 8.296875 
z
" id="DejaVuSans-50"/>
      </defs>
      <g transform="translate(242.71001 322.182437)scale(0.1 -0.1)">
       <use xlink:href="#DejaVuSans-50"/>
       <use x="63.623047" xlink:href="#DejaVuSans-48"/>
       <use x="127.246094" xlink:href="#DejaVuSans-48"/>
       <use x="190.869141" xlink:href="#DejaVuSans-48"/>
      </g>
     </g>
    </g>
    <g id="xtick_5">
     <g id="line2d_5">
      <g>
       <use style="stroke:#000000;stroke-width:0.8;" x="318.891834" xlink:href="#m8e590e18d0" y="307.584"/>
      </g>
     </g>
     <g id="text_5">
      <!-- 3000 -->
      <defs>
       <path d="M 40.578125 39.3125 
Q 47.65625 37.796875 51.625 33 
Q 55.609375 28.21875 55.609375 21.1875 
Q 55.609375 10.40625 48.1875 4.484375 
Q 40.765625 -1.421875 27.09375 -1.421875 
Q 22.515625 -1.421875 17.65625 -0.515625 
Q 12.796875 0.390625 7.625 2.203125 
L 7.625 11.71875 
Q 11.71875 9.328125 16.59375 8.109375 
Q 21.484375 6.890625 26.8125 6.890625 
Q 36.078125 6.890625 40.9375 10.546875 
Q 45.796875 14.203125 45.796875 21.1875 
Q 45.796875 27.640625 41.28125 31.265625 
Q 36.765625 34.90625 28.71875 34.90625 
L 20.21875 34.90625 
L 20.21875 43.015625 
L 29.109375 43.015625 
Q 36.375 43.015625 40.234375 45.921875 
Q 44.09375 48.828125 44.09375 54.296875 
Q 44.09375 59.90625 40.109375 62.90625 
Q 36.140625 65.921875 28.71875 65.921875 
Q 24.65625 65.921875 20.015625 65.03125 
Q 15.375 64.15625 9.8125 62.3125 
L 9.8125 71.09375 
Q 15.4375 72.65625 20.34375 73.4375 
Q 25.25 74.21875 29.59375 74.21875 
Q 40.828125 74.21875 47.359375 69.109375 
Q 53.90625 64.015625 53.90625 55.328125 
Q 53.90625 49.265625 50.4375 45.09375 
Q 46.96875 40.921875 40.578125 39.3125 
z
" id="DejaVuSans-51"/>
      </defs>
      <g transform="translate(306.166834 322.182437)scale(0.1 -0.1)">
       <use xlink:href="#DejaVuSans-51"/>
       <use x="63.623047" xlink:href="#DejaVuSans-48"/>
       <use x="127.246094" xlink:href="#DejaVuSans-48"/>
       <use x="190.869141" xlink:href="#DejaVuSans-48"/>
      </g>
     </g>
    </g>
    <g id="xtick_6">
     <g id="line2d_6">
      <g>
       <use style="stroke:#000000;stroke-width:0.8;" x="382.348658" xlink:href="#m8e590e18d0" y="307.584"/>
      </g>
     </g>
     <g id="text_6">
      <!-- 4000 -->
      <defs>
       <path d="M 37.796875 64.3125 
L 12.890625 25.390625 
L 37.796875 25.390625 
z
M 35.203125 72.90625 
L 47.609375 72.90625 
L 47.609375 25.390625 
L 58.015625 25.390625 
L 58.015625 17.1875 
L 47.609375 17.1875 
L 47.609375 0 
L 37.796875 0 
L 37.796875 17.1875 
L 4.890625 17.1875 
L 4.890625 26.703125 
z
" id="DejaVuSans-52"/>
      </defs>
      <g transform="translate(369.623658 322.182437)scale(0.1 -0.1)">
       <use xlink:href="#DejaVuSans-52"/>
       <use x="63.623047" xlink:href="#DejaVuSans-48"/>
       <use x="127.246094" xlink:href="#DejaVuSans-48"/>
       <use x="190.869141" xlink:href="#DejaVuSans-48"/>
      </g>
     </g>
    </g>
    <g id="text_7">
     <!-- il6initac -->
     <defs>
      <path d="M 9.421875 54.6875 
L 18.40625 54.6875 
L 18.40625 0 
L 9.421875 0 
z
M 9.421875 75.984375 
L 18.40625 75.984375 
L 18.40625 64.59375 
L 9.421875 64.59375 
z
" id="DejaVuSans-105"/>
      <path d="M 9.421875 75.984375 
L 18.40625 75.984375 
L 18.40625 0 
L 9.421875 0 
z
" id="DejaVuSans-108"/>
      <path d="M 33.015625 40.375 
Q 26.375 40.375 22.484375 35.828125 
Q 18.609375 31.296875 18.609375 23.390625 
Q 18.609375 15.53125 22.484375 10.953125 
Q 26.375 6.390625 33.015625 6.390625 
Q 39.65625 6.390625 43.53125 10.953125 
Q 47.40625 15.53125 47.40625 23.390625 
Q 47.40625 31.296875 43.53125 35.828125 
Q 39.65625 40.375 33.015625 40.375 
z
M 52.59375 71.296875 
L 52.59375 62.3125 
Q 48.875 64.0625 45.09375 64.984375 
Q 41.3125 65.921875 37.59375 65.921875 
Q 27.828125 65.921875 22.671875 59.328125 
Q 17.53125 52.734375 16.796875 39.40625 
Q 19.671875 43.65625 24.015625 45.921875 
Q 28.375 48.1875 33.59375 48.1875 
Q 44.578125 48.1875 50.953125 41.515625 
Q 57.328125 34.859375 57.328125 23.390625 
Q 57.328125 12.15625 50.6875 5.359375 
Q 44.046875 -1.421875 33.015625 -1.421875 
Q 20.359375 -1.421875 13.671875 8.265625 
Q 6.984375 17.96875 6.984375 36.375 
Q 6.984375 53.65625 15.1875 63.9375 
Q 23.390625 74.21875 37.203125 74.21875 
Q 40.921875 74.21875 44.703125 73.484375 
Q 48.484375 72.75 52.59375 71.296875 
z
" id="DejaVuSans-54"/>
      <path d="M 54.890625 33.015625 
L 54.890625 0 
L 45.90625 0 
L 45.90625 32.71875 
Q 45.90625 40.484375 42.875 44.328125 
Q 39.84375 48.1875 33.796875 48.1875 
Q 26.515625 48.1875 22.3125 43.546875 
Q 18.109375 38.921875 18.109375 30.90625 
L 18.109375 0 
L 9.078125 0 
L 9.078125 54.6875 
L 18.109375 54.6875 
L 18.109375 46.1875 
Q 21.34375 51.125 25.703125 53.5625 
Q 30.078125 56 35.796875 56 
Q 45.21875 56 50.046875 50.171875 
Q 54.890625 44.34375 54.890625 33.015625 
z
" id="DejaVuSans-110"/>
      <path d="M 18.3125 70.21875 
L 18.3125 54.6875 
L 36.8125 54.6875 
L 36.8125 47.703125 
L 18.3125 47.703125 
L 18.3125 18.015625 
Q 18.3125 11.328125 20.140625 9.421875 
Q 21.96875 7.515625 27.59375 7.515625 
L 36.8125 7.515625 
L 36.8125 0 
L 27.59375 0 
Q 17.1875 0 13.234375 3.875 
Q 9.28125 7.765625 9.28125 18.015625 
L 9.28125 47.703125 
L 2.6875 47.703125 
L 2.6875 54.6875 
L 9.28125 54.6875 
L 9.28125 70.21875 
z
" id="DejaVuSans-116"/>
      <path d="M 34.28125 27.484375 
Q 23.390625 27.484375 19.1875 25 
Q 14.984375 22.515625 14.984375 16.5 
Q 14.984375 11.71875 18.140625 8.90625 
Q 21.296875 6.109375 26.703125 6.109375 
Q 34.1875 6.109375 38.703125 11.40625 
Q 43.21875 16.703125 43.21875 25.484375 
L 43.21875 27.484375 
z
M 52.203125 31.203125 
L 52.203125 0 
L 43.21875 0 
L 43.21875 8.296875 
Q 40.140625 3.328125 35.546875 0.953125 
Q 30.953125 -1.421875 24.3125 -1.421875 
Q 15.921875 -1.421875 10.953125 3.296875 
Q 6 8.015625 6 15.921875 
Q 6 25.140625 12.171875 29.828125 
Q 18.359375 34.515625 30.609375 34.515625 
L 43.21875 34.515625 
L 43.21875 35.40625 
Q 43.21875 41.609375 39.140625 45 
Q 35.0625 48.390625 27.6875 48.390625 
Q 23 48.390625 18.546875 47.265625 
Q 14.109375 46.140625 10.015625 43.890625 
L 10.015625 52.203125 
Q 14.9375 54.109375 19.578125 55.046875 
Q 24.21875 56 28.609375 56 
Q 40.484375 56 46.34375 49.84375 
Q 52.203125 43.703125 52.203125 31.203125 
z
" id="DejaVuSans-97"/>
      <path d="M 48.78125 52.59375 
L 48.78125 44.1875 
Q 44.96875 46.296875 41.140625 47.34375 
Q 37.3125 48.390625 33.40625 48.390625 
Q 24.65625 48.390625 19.8125 42.84375 
Q 14.984375 37.3125 14.984375 27.296875 
Q 14.984375 17.28125 19.8125 11.734375 
Q 24.65625 6.203125 33.40625 6.203125 
Q 37.3125 6.203125 41.140625 7.25 
Q 44.96875 8.296875 48.78125 10.40625 
L 48.78125 2.09375 
Q 45.015625 0.34375 40.984375 -0.53125 
Q 36.96875 -1.421875 32.421875 -1.421875 
Q 20.0625 -1.421875 12.78125 6.34375 
Q 5.515625 14.109375 5.515625 27.296875 
Q 5.515625 40.671875 12.859375 48.328125 
Q 20.21875 56 33.015625 56 
Q 37.15625 56 41.109375 55.140625 
Q 45.0625 54.296875 48.78125 52.59375 
z
" id="DejaVuSans-99"/>
     </defs>
     <g transform="translate(216.480312 335.860562)scale(0.1 -0.1)">
      <use xlink:href="#DejaVuSans-105"/>
      <use x="27.783203" xlink:href="#DejaVuSans-108"/>
      <use x="55.566406" xlink:href="#DejaVuSans-54"/>
      <use x="119.189453" xlink:href="#DejaVuSans-105"/>
      <use x="146.972656" xlink:href="#DejaVuSans-110"/>
      <use x="210.351562" xlink:href="#DejaVuSans-105"/>
      <use x="238.134766" xlink:href="#DejaVuSans-116"/>
      <use x="277.34375" xlink:href="#DejaVuSans-97"/>
      <use x="338.623047" xlink:href="#DejaVuSans-99"/>
     </g>
    </g>
   </g>
   <g id="matplotlib.axis_2">
    <g id="ytick_1">
     <g id="line2d_7">
      <defs>
       <path d="M 0 0 
L -3.5 0 
" id="m9048b587fa" style="stroke:#000000;stroke-width:0.8;"/>
      </defs>
      <g>
       <use style="stroke:#000000;stroke-width:0.8;" x="57.6" xlink:href="#m9048b587fa" y="174.528"/>
      </g>
     </g>
    </g>
   </g>
   <g id="line2d_8">
    <path clip-path="url(#p5fe0061868)" d="M 128.521362 174.528 
L 142.481863 174.528 
" style="fill:none;stroke:#ffa500;stroke-linecap:square;stroke-width:1.5;"/>
   </g>
   <g id="line2d_9">
    <path clip-path="url(#p5fe0061868)" d="M 129.274277 174.528 
L 138.108736 174.528 
" style="fill:none;stroke:#4c4c4c;stroke-linecap:square;stroke-width:4.5;"/>
   </g>
   <g id="line2d_10">
    <path clip-path="url(#p5fe0061868)" d="M 128.521362 174.528 
L 138.674454 174.528 
" style="fill:none;stroke:#008000;stroke-linecap:square;stroke-width:1.5;"/>
   </g>
   <g id="line2d_11">
    <path clip-path="url(#p5fe0061868)" d="M 129.157834 174.528 
L 133.261587 174.528 
" style="fill:none;stroke:#262626;stroke-linecap:square;stroke-width:4.5;"/>
   </g>
   <g id="patch_3">
    <path d="M 57.6 307.584 
L 57.6 41.472 
" style="fill:none;stroke:#000000;stroke-linecap:square;stroke-linejoin:miter;stroke-width:0.8;"/>
   </g>
   <g id="patch_4">
    <path d="M 414.72 307.584 
L 414.72 41.472 
" style="fill:none;stroke:#000000;stroke-linecap:square;stroke-linejoin:miter;stroke-width:0.8;"/>
   </g>
   <g id="patch_5">
    <path d="M 57.6 307.584 
L 414.72 307.584 
" style="fill:none;stroke:#000000;stroke-linecap:square;stroke-linejoin:miter;stroke-width:0.8;"/>
   </g>
   <g id="patch_6">
    <path d="M 57.6 41.472 
L 414.72 41.472 
" style="fill:none;stroke:#000000;stroke-linecap:square;stroke-linejoin:miter;stroke-width:0.8;"/>
   </g>
   <g id="PathCollection_1">
    <defs>
     <path d="M 0 1.5 
C 0.397805 1.5 0.77937 1.341951 1.06066 1.06066 
C 1.341951 0.77937 1.5 0.397805 1.5 0 
C 1.5 -0.397805 1.341951 -0.77937 1.06066 -1.06066 
C 0.77937 -1.341951 0.397805 -1.5 0 -1.5 
C -0.397805 -1.5 -0.77937 -1.341951 -1.06066 -1.06066 
C -1.341951 -0.77937 -1.5 -0.397805 -1.5 0 
C -1.5 0.397805 -1.341951 0.77937 -1.06066 1.06066 
C -0.77937 1.341951 -0.397805 1.5 0 1.5 
z
" id="mb5650020c5" style="stroke:#4c4c4c;stroke-opacity:0.5;"/>
    </defs>
    <g clip-path="url(#p5fe0061868)">
     <use style="fill:#ffffff;fill-opacity:0.5;stroke:#4c4c4c;stroke-opacity:0.5;" x="132.514066" xlink:href="#mb5650020c5" y="174.528"/>
    </g>
   </g>
   <g id="PathCollection_2">
    <defs>
     <path d="M 0 1.5 
C 0.397805 1.5 0.77937 1.341951 1.06066 1.06066 
C 1.341951 0.77937 1.5 0.397805 1.5 0 
C 1.5 -0.397805 1.341951 -0.77937 1.06066 -1.06066 
C 0.77937 -1.341951 0.397805 -1.5 0 -1.5 
C -0.397805 -1.5 -0.77937 -1.341951 -1.06066 -1.06066 
C -1.341951 -0.77937 -1.5 -0.397805 -1.5 0 
C -1.5 0.397805 -1.341951 0.77937 -1.06066 1.06066 
C -0.77937 1.341951 -0.397805 1.5 0 1.5 
z
" id="m325c53e2a4" style="stroke:#262626;stroke-opacity:0.5;"/>
    </defs>
    <g clip-path="url(#p5fe0061868)">
     <use style="fill:#ffffff;fill-opacity:0.5;stroke:#262626;stroke-opacity:0.5;" x="129.961832" xlink:href="#m325c53e2a4" y="174.528"/>
    </g>
   </g>
   <g id="text_8">
    <!-- Association of il6initac vs. non_rebreather_mask -->
    <defs>
     <path d="M 34.1875 63.1875 
L 20.796875 26.90625 
L 47.609375 26.90625 
z
M 28.609375 72.90625 
L 39.796875 72.90625 
L 67.578125 0 
L 57.328125 0 
L 50.6875 18.703125 
L 17.828125 18.703125 
L 11.1875 0 
L 0.78125 0 
z
" id="DejaVuSans-65"/>
     <path d="M 44.28125 53.078125 
L 44.28125 44.578125 
Q 40.484375 46.53125 36.375 47.5 
Q 32.28125 48.484375 27.875 48.484375 
Q 21.1875 48.484375 17.84375 46.4375 
Q 14.5 44.390625 14.5 40.28125 
Q 14.5 37.15625 16.890625 35.375 
Q 19.28125 33.59375 26.515625 31.984375 
L 29.59375 31.296875 
Q 39.15625 29.25 43.1875 25.515625 
Q 47.21875 21.78125 47.21875 15.09375 
Q 47.21875 7.46875 41.1875 3.015625 
Q 35.15625 -1.421875 24.609375 -1.421875 
Q 20.21875 -1.421875 15.453125 -0.5625 
Q 10.6875 0.296875 5.421875 2 
L 5.421875 11.28125 
Q 10.40625 8.6875 15.234375 7.390625 
Q 20.0625 6.109375 24.8125 6.109375 
Q 31.15625 6.109375 34.5625 8.28125 
Q 37.984375 10.453125 37.984375 14.40625 
Q 37.984375 18.0625 35.515625 20.015625 
Q 33.0625 21.96875 24.703125 23.78125 
L 21.578125 24.515625 
Q 13.234375 26.265625 9.515625 29.90625 
Q 5.8125 33.546875 5.8125 39.890625 
Q 5.8125 47.609375 11.28125 51.796875 
Q 16.75 56 26.8125 56 
Q 31.78125 56 36.171875 55.265625 
Q 40.578125 54.546875 44.28125 53.078125 
z
" id="DejaVuSans-115"/>
     <path d="M 30.609375 48.390625 
Q 23.390625 48.390625 19.1875 42.75 
Q 14.984375 37.109375 14.984375 27.296875 
Q 14.984375 17.484375 19.15625 11.84375 
Q 23.34375 6.203125 30.609375 6.203125 
Q 37.796875 6.203125 41.984375 11.859375 
Q 46.1875 17.53125 46.1875 27.296875 
Q 46.1875 37.015625 41.984375 42.703125 
Q 37.796875 48.390625 30.609375 48.390625 
z
M 30.609375 56 
Q 42.328125 56 49.015625 48.375 
Q 55.71875 40.765625 55.71875 27.296875 
Q 55.71875 13.875 49.015625 6.21875 
Q 42.328125 -1.421875 30.609375 -1.421875 
Q 18.84375 -1.421875 12.171875 6.21875 
Q 5.515625 13.875 5.515625 27.296875 
Q 5.515625 40.765625 12.171875 48.375 
Q 18.84375 56 30.609375 56 
z
" id="DejaVuSans-111"/>
     <path id="DejaVuSans-32"/>
     <path d="M 37.109375 75.984375 
L 37.109375 68.5 
L 28.515625 68.5 
Q 23.6875 68.5 21.796875 66.546875 
Q 19.921875 64.59375 19.921875 59.515625 
L 19.921875 54.6875 
L 34.71875 54.6875 
L 34.71875 47.703125 
L 19.921875 47.703125 
L 19.921875 0 
L 10.890625 0 
L 10.890625 47.703125 
L 2.296875 47.703125 
L 2.296875 54.6875 
L 10.890625 54.6875 
L 10.890625 58.5 
Q 10.890625 67.625 15.140625 71.796875 
Q 19.390625 75.984375 28.609375 75.984375 
z
" id="DejaVuSans-102"/>
     <path d="M 2.984375 54.6875 
L 12.5 54.6875 
L 29.59375 8.796875 
L 46.6875 54.6875 
L 56.203125 54.6875 
L 35.6875 0 
L 23.484375 0 
z
" id="DejaVuSans-118"/>
     <path d="M 10.6875 12.40625 
L 21 12.40625 
L 21 0 
L 10.6875 0 
z
" id="DejaVuSans-46"/>
     <path d="M 50.984375 -16.609375 
L 50.984375 -23.578125 
L -0.984375 -23.578125 
L -0.984375 -16.609375 
z
" id="DejaVuSans-95"/>
     <path d="M 41.109375 46.296875 
Q 39.59375 47.171875 37.8125 47.578125 
Q 36.03125 48 33.890625 48 
Q 26.265625 48 22.1875 43.046875 
Q 18.109375 38.09375 18.109375 28.8125 
L 18.109375 0 
L 9.078125 0 
L 9.078125 54.6875 
L 18.109375 54.6875 
L 18.109375 46.1875 
Q 20.953125 51.171875 25.484375 53.578125 
Q 30.03125 56 36.53125 56 
Q 37.453125 56 38.578125 55.875 
Q 39.703125 55.765625 41.0625 55.515625 
z
" id="DejaVuSans-114"/>
     <path d="M 56.203125 29.59375 
L 56.203125 25.203125 
L 14.890625 25.203125 
Q 15.484375 15.921875 20.484375 11.0625 
Q 25.484375 6.203125 34.421875 6.203125 
Q 39.59375 6.203125 44.453125 7.46875 
Q 49.3125 8.734375 54.109375 11.28125 
L 54.109375 2.78125 
Q 49.265625 0.734375 44.1875 -0.34375 
Q 39.109375 -1.421875 33.890625 -1.421875 
Q 20.796875 -1.421875 13.15625 6.1875 
Q 5.515625 13.8125 5.515625 26.8125 
Q 5.515625 40.234375 12.765625 48.109375 
Q 20.015625 56 32.328125 56 
Q 43.359375 56 49.78125 48.890625 
Q 56.203125 41.796875 56.203125 29.59375 
z
M 47.21875 32.234375 
Q 47.125 39.59375 43.09375 43.984375 
Q 39.0625 48.390625 32.421875 48.390625 
Q 24.90625 48.390625 20.390625 44.140625 
Q 15.875 39.890625 15.1875 32.171875 
z
" id="DejaVuSans-101"/>
     <path d="M 48.6875 27.296875 
Q 48.6875 37.203125 44.609375 42.84375 
Q 40.53125 48.484375 33.40625 48.484375 
Q 26.265625 48.484375 22.1875 42.84375 
Q 18.109375 37.203125 18.109375 27.296875 
Q 18.109375 17.390625 22.1875 11.75 
Q 26.265625 6.109375 33.40625 6.109375 
Q 40.53125 6.109375 44.609375 11.75 
Q 48.6875 17.390625 48.6875 27.296875 
z
M 18.109375 46.390625 
Q 20.953125 51.265625 25.265625 53.625 
Q 29.59375 56 35.59375 56 
Q 45.5625 56 51.78125 48.09375 
Q 58.015625 40.1875 58.015625 27.296875 
Q 58.015625 14.40625 51.78125 6.484375 
Q 45.5625 -1.421875 35.59375 -1.421875 
Q 29.59375 -1.421875 25.265625 0.953125 
Q 20.953125 3.328125 18.109375 8.203125 
L 18.109375 0 
L 9.078125 0 
L 9.078125 75.984375 
L 18.109375 75.984375 
z
" id="DejaVuSans-98"/>
     <path d="M 54.890625 33.015625 
L 54.890625 0 
L 45.90625 0 
L 45.90625 32.71875 
Q 45.90625 40.484375 42.875 44.328125 
Q 39.84375 48.1875 33.796875 48.1875 
Q 26.515625 48.1875 22.3125 43.546875 
Q 18.109375 38.921875 18.109375 30.90625 
L 18.109375 0 
L 9.078125 0 
L 9.078125 75.984375 
L 18.109375 75.984375 
L 18.109375 46.1875 
Q 21.34375 51.125 25.703125 53.5625 
Q 30.078125 56 35.796875 56 
Q 45.21875 56 50.046875 50.171875 
Q 54.890625 44.34375 54.890625 33.015625 
z
" id="DejaVuSans-104"/>
     <path d="M 52 44.1875 
Q 55.375 50.25 60.0625 53.125 
Q 64.75 56 71.09375 56 
Q 79.640625 56 84.28125 50.015625 
Q 88.921875 44.046875 88.921875 33.015625 
L 88.921875 0 
L 79.890625 0 
L 79.890625 32.71875 
Q 79.890625 40.578125 77.09375 44.375 
Q 74.3125 48.1875 68.609375 48.1875 
Q 61.625 48.1875 57.5625 43.546875 
Q 53.515625 38.921875 53.515625 30.90625 
L 53.515625 0 
L 44.484375 0 
L 44.484375 32.71875 
Q 44.484375 40.625 41.703125 44.40625 
Q 38.921875 48.1875 33.109375 48.1875 
Q 26.21875 48.1875 22.15625 43.53125 
Q 18.109375 38.875 18.109375 30.90625 
L 18.109375 0 
L 9.078125 0 
L 9.078125 54.6875 
L 18.109375 54.6875 
L 18.109375 46.1875 
Q 21.1875 51.21875 25.484375 53.609375 
Q 29.78125 56 35.6875 56 
Q 41.65625 56 45.828125 52.96875 
Q 50 49.953125 52 44.1875 
z
" id="DejaVuSans-109"/>
     <path d="M 9.078125 75.984375 
L 18.109375 75.984375 
L 18.109375 31.109375 
L 44.921875 54.6875 
L 56.390625 54.6875 
L 27.390625 29.109375 
L 57.625 0 
L 45.90625 0 
L 18.109375 26.703125 
L 18.109375 0 
L 9.078125 0 
z
" id="DejaVuSans-107"/>
    </defs>
    <g transform="translate(91.14375 35.472)scale(0.12 -0.12)">
     <use xlink:href="#DejaVuSans-65"/>
     <use x="68.408203" xlink:href="#DejaVuSans-115"/>
     <use x="120.507812" xlink:href="#DejaVuSans-115"/>
     <use x="172.607422" xlink:href="#DejaVuSans-111"/>
     <use x="233.789062" xlink:href="#DejaVuSans-99"/>
     <use x="288.769531" xlink:href="#DejaVuSans-105"/>
     <use x="316.552734" xlink:href="#DejaVuSans-97"/>
     <use x="377.832031" xlink:href="#DejaVuSans-116"/>
     <use x="417.041016" xlink:href="#DejaVuSans-105"/>
     <use x="444.824219" xlink:href="#DejaVuSans-111"/>
     <use x="506.005859" xlink:href="#DejaVuSans-110"/>
     <use x="569.384766" xlink:href="#DejaVuSans-32"/>
     <use x="601.171875" xlink:href="#DejaVuSans-111"/>
     <use x="662.353516" xlink:href="#DejaVuSans-102"/>
     <use x="697.558594" xlink:href="#DejaVuSans-32"/>
     <use x="729.345703" xlink:href="#DejaVuSans-105"/>
     <use x="757.128906" xlink:href="#DejaVuSans-108"/>
     <use x="784.912109" xlink:href="#DejaVuSans-54"/>
     <use x="848.535156" xlink:href="#DejaVuSans-105"/>
     <use x="876.318359" xlink:href="#DejaVuSans-110"/>
     <use x="939.697266" xlink:href="#DejaVuSans-105"/>
     <use x="967.480469" xlink:href="#DejaVuSans-116"/>
     <use x="1006.689453" xlink:href="#DejaVuSans-97"/>
     <use x="1067.96875" xlink:href="#DejaVuSans-99"/>
     <use x="1122.949219" xlink:href="#DejaVuSans-32"/>
     <use x="1154.736328" xlink:href="#DejaVuSans-118"/>
     <use x="1213.916016" xlink:href="#DejaVuSans-115"/>
     <use x="1266.015625" xlink:href="#DejaVuSans-46"/>
     <use x="1297.802734" xlink:href="#DejaVuSans-32"/>
     <use x="1329.589844" xlink:href="#DejaVuSans-110"/>
     <use x="1392.96875" xlink:href="#DejaVuSans-111"/>
     <use x="1454.150391" xlink:href="#DejaVuSans-110"/>
     <use x="1517.529297" xlink:href="#DejaVuSans-95"/>
     <use x="1567.529297" xlink:href="#DejaVuSans-114"/>
     <use x="1606.392578" xlink:href="#DejaVuSans-101"/>
     <use x="1667.916016" xlink:href="#DejaVuSans-98"/>
     <use x="1731.392578" xlink:href="#DejaVuSans-114"/>
     <use x="1770.255859" xlink:href="#DejaVuSans-101"/>
     <use x="1831.779297" xlink:href="#DejaVuSans-97"/>
     <use x="1893.058594" xlink:href="#DejaVuSans-116"/>
     <use x="1932.267578" xlink:href="#DejaVuSans-104"/>
     <use x="1995.646484" xlink:href="#DejaVuSans-101"/>
     <use x="2057.169922" xlink:href="#DejaVuSans-114"/>
     <use x="2098.283203" xlink:href="#DejaVuSans-95"/>
     <use x="2148.283203" xlink:href="#DejaVuSans-109"/>
     <use x="2245.695312" xlink:href="#DejaVuSans-97"/>
     <use x="2306.974609" xlink:href="#DejaVuSans-115"/>
     <use x="2359.074219" xlink:href="#DejaVuSans-107"/>
    </g>
   </g>
   <g id="legend_1">
    <g id="patch_7">
     <path d="M 222.57625 79.3845 
L 407.72 79.3845 
Q 409.72 79.3845 409.72 77.3845 
L 409.72 48.472 
Q 409.72 46.472 407.72 46.472 
L 222.57625 46.472 
Q 220.57625 46.472 220.57625 48.472 
L 220.57625 77.3845 
Q 220.57625 79.3845 222.57625 79.3845 
z
" style="fill:#ffffff;opacity:0.8;stroke:#cccccc;stroke-linejoin:miter;"/>
    </g>
    <g id="line2d_12">
     <path d="M 224.57625 54.570438 
L 244.57625 54.570438 
" style="fill:none;stroke:#ffa500;stroke-linecap:square;stroke-width:1.5;"/>
    </g>
    <g id="line2d_13"/>
    <g id="text_9">
     <!-- non_rebreather_mask (22) -->
     <defs>
      <path d="M 31 75.875 
Q 24.46875 64.65625 21.28125 53.65625 
Q 18.109375 42.671875 18.109375 31.390625 
Q 18.109375 20.125 21.3125 9.0625 
Q 24.515625 -2 31 -13.1875 
L 23.1875 -13.1875 
Q 15.875 -1.703125 12.234375 9.375 
Q 8.59375 20.453125 8.59375 31.390625 
Q 8.59375 42.28125 12.203125 53.3125 
Q 15.828125 64.359375 23.1875 75.875 
z
" id="DejaVuSans-40"/>
      <path d="M 8.015625 75.875 
L 15.828125 75.875 
Q 23.140625 64.359375 26.78125 53.3125 
Q 30.421875 42.28125 30.421875 31.390625 
Q 30.421875 20.453125 26.78125 9.375 
Q 23.140625 -1.703125 15.828125 -13.1875 
L 8.015625 -13.1875 
Q 14.5 -2 17.703125 9.0625 
Q 20.90625 20.125 20.90625 31.390625 
Q 20.90625 42.671875 17.703125 53.65625 
Q 14.5 64.65625 8.015625 75.875 
z
" id="DejaVuSans-41"/>
     </defs>
     <g transform="translate(252.57625 58.070438)scale(0.1 -0.1)">
      <use xlink:href="#DejaVuSans-110"/>
      <use x="63.378906" xlink:href="#DejaVuSans-111"/>
      <use x="124.560547" xlink:href="#DejaVuSans-110"/>
      <use x="187.939453" xlink:href="#DejaVuSans-95"/>
      <use x="237.939453" xlink:href="#DejaVuSans-114"/>
      <use x="276.802734" xlink:href="#DejaVuSans-101"/>
      <use x="338.326172" xlink:href="#DejaVuSans-98"/>
      <use x="401.802734" xlink:href="#DejaVuSans-114"/>
      <use x="440.666016" xlink:href="#DejaVuSans-101"/>
      <use x="502.189453" xlink:href="#DejaVuSans-97"/>
      <use x="563.46875" xlink:href="#DejaVuSans-116"/>
      <use x="602.677734" xlink:href="#DejaVuSans-104"/>
      <use x="666.056641" xlink:href="#DejaVuSans-101"/>
      <use x="727.580078" xlink:href="#DejaVuSans-114"/>
      <use x="768.693359" xlink:href="#DejaVuSans-95"/>
      <use x="818.693359" xlink:href="#DejaVuSans-109"/>
      <use x="916.105469" xlink:href="#DejaVuSans-97"/>
      <use x="977.384766" xlink:href="#DejaVuSans-115"/>
      <use x="1029.484375" xlink:href="#DejaVuSans-107"/>
      <use x="1087.394531" xlink:href="#DejaVuSans-32"/>
      <use x="1119.181641" xlink:href="#DejaVuSans-40"/>
      <use x="1158.195312" xlink:href="#DejaVuSans-50"/>
      <use x="1221.818359" xlink:href="#DejaVuSans-50"/>
      <use x="1285.441406" xlink:href="#DejaVuSans-41"/>
     </g>
    </g>
    <g id="line2d_14">
     <path d="M 224.57625 69.526688 
L 244.57625 69.526688 
" style="fill:none;stroke:#008000;stroke-linecap:square;stroke-width:1.5;"/>
    </g>
    <g id="line2d_15"/>
    <g id="text_10">
     <!-- Not non_rebreather_mask (29) -->
     <defs>
      <path d="M 9.8125 72.90625 
L 23.09375 72.90625 
L 55.421875 11.921875 
L 55.421875 72.90625 
L 64.984375 72.90625 
L 64.984375 0 
L 51.703125 0 
L 19.390625 60.984375 
L 19.390625 0 
L 9.8125 0 
z
" id="DejaVuSans-78"/>
      <path d="M 10.984375 1.515625 
L 10.984375 10.5 
Q 14.703125 8.734375 18.5 7.8125 
Q 22.3125 6.890625 25.984375 6.890625 
Q 35.75 6.890625 40.890625 13.453125 
Q 46.046875 20.015625 46.78125 33.40625 
Q 43.953125 29.203125 39.59375 26.953125 
Q 35.25 24.703125 29.984375 24.703125 
Q 19.046875 24.703125 12.671875 31.3125 
Q 6.296875 37.9375 6.296875 49.421875 
Q 6.296875 60.640625 12.9375 67.421875 
Q 19.578125 74.21875 30.609375 74.21875 
Q 43.265625 74.21875 49.921875 64.515625 
Q 56.59375 54.828125 56.59375 36.375 
Q 56.59375 19.140625 48.40625 8.859375 
Q 40.234375 -1.421875 26.421875 -1.421875 
Q 22.703125 -1.421875 18.890625 -0.6875 
Q 15.09375 0.046875 10.984375 1.515625 
z
M 30.609375 32.421875 
Q 37.25 32.421875 41.125 36.953125 
Q 45.015625 41.5 45.015625 49.421875 
Q 45.015625 57.28125 41.125 61.84375 
Q 37.25 66.40625 30.609375 66.40625 
Q 23.96875 66.40625 20.09375 61.84375 
Q 16.21875 57.28125 16.21875 49.421875 
Q 16.21875 41.5 20.09375 36.953125 
Q 23.96875 32.421875 30.609375 32.421875 
z
" id="DejaVuSans-57"/>
     </defs>
     <g transform="translate(252.57625 73.026688)scale(0.1 -0.1)">
      <use xlink:href="#DejaVuSans-78"/>
      <use x="74.804688" xlink:href="#DejaVuSans-111"/>
      <use x="135.986328" xlink:href="#DejaVuSans-116"/>
      <use x="175.195312" xlink:href="#DejaVuSans-32"/>
      <use x="206.982422" xlink:href="#DejaVuSans-110"/>
      <use x="270.361328" xlink:href="#DejaVuSans-111"/>
      <use x="331.542969" xlink:href="#DejaVuSans-110"/>
      <use x="394.921875" xlink:href="#DejaVuSans-95"/>
      <use x="444.921875" xlink:href="#DejaVuSans-114"/>
      <use x="483.785156" xlink:href="#DejaVuSans-101"/>
      <use x="545.308594" xlink:href="#DejaVuSans-98"/>
      <use x="608.785156" xlink:href="#DejaVuSans-114"/>
      <use x="647.648438" xlink:href="#DejaVuSans-101"/>
      <use x="709.171875" xlink:href="#DejaVuSans-97"/>
      <use x="770.451172" xlink:href="#DejaVuSans-116"/>
      <use x="809.660156" xlink:href="#DejaVuSans-104"/>
      <use x="873.039062" xlink:href="#DejaVuSans-101"/>
      <use x="934.5625" xlink:href="#DejaVuSans-114"/>
      <use x="975.675781" xlink:href="#DejaVuSans-95"/>
      <use x="1025.675781" xlink:href="#DejaVuSans-109"/>
      <use x="1123.087891" xlink:href="#DejaVuSans-97"/>
      <use x="1184.367188" xlink:href="#DejaVuSans-115"/>
      <use x="1236.466797" xlink:href="#DejaVuSans-107"/>
      <use x="1294.376953" xlink:href="#DejaVuSans-32"/>
      <use x="1326.164062" xlink:href="#DejaVuSans-40"/>
      <use x="1365.177734" xlink:href="#DejaVuSans-50"/>
      <use x="1428.800781" xlink:href="#DejaVuSans-57"/>
      <use x="1492.423828" xlink:href="#DejaVuSans-41"/>
     </g>
    </g>
   </g>
  </g>
 </g>
 <defs>
  <clipPath id="p5fe0061868">
   <rect height="266.112" width="357.12" x="57.6" y="41.472"/>
  </clipPath>
 </defs>
</svg>
