<?xml version="1.0" encoding="utf-8" standalone="no"?>
<!DOCTYPE svg PUBLIC "-//W3C//DTD SVG 1.1//EN"
  "http://www.w3.org/Graphics/SVG/1.1/DTD/svg11.dtd">
<!-- Created with matplotlib (https://matplotlib.org/) -->
<svg height="345.6pt" version="1.1" viewBox="0 0 460.8 345.6" width="460.8pt" xmlns="http://www.w3.org/2000/svg" xmlns:xlink="http://www.w3.org/1999/xlink">
 <defs>
  <style type="text/css">
*{stroke-linecap:butt;stroke-linejoin:round;}
  </style>
 </defs>
 <g id="figure_1">
  <g id="patch_1">
   <path d="M 0 345.6 
L 460.8 345.6 
L 460.8 0 
L 0 0 
z
" style="fill:#ffffff;"/>
  </g>
  <g id="axes_1">
   <g id="patch_2">
    <path d="M 57.6 307.584 
L 414.72 307.584 
L 414.72 41.472 
L 57.6 41.472 
z
" style="fill:#ffffff;"/>
   </g>
   <g id="PolyCollection_1">
    <defs>
     <path d="M 73.832727 -163.165799 
L 73.832727 -178.978201 
L 77.112066 -184.990654 
L 80.391405 -193.997643 
L 83.670744 -206.411805 
L 86.950083 -222.072192 
L 90.229421 -240.004179 
L 93.50876 -258.375929 
L 96.788099 -274.749271 
L 100.067438 -286.610975 
L 103.346777 -292.032 
L 106.626116 -290.214053 
L 109.905455 -281.705645 
L 113.184793 -268.203196 
L 116.464132 -252.028635 
L 119.743471 -235.499453 
L 123.02281 -220.420666 
L 126.302149 -207.838755 
L 129.581488 -198.067285 
L 132.860826 -190.89265 
L 136.140165 -185.833714 
L 139.419504 -182.355479 
L 142.698843 -179.992096 
L 145.978182 -178.385258 
L 149.257521 -177.271649 
L 152.53686 -176.455823 
L 155.816198 -175.791538 
L 159.095537 -175.176931 
L 162.374876 -174.556455 
L 165.654215 -173.919344 
L 168.933554 -173.288992 
L 172.212893 -172.704978 
L 175.492231 -172.204354 
L 178.77157 -171.808861 
L 182.050909 -171.521046 
L 185.330248 -171.327928 
L 188.609587 -171.208299 
L 191.888926 -171.139792 
L 195.168264 -171.103478 
L 198.447603 -171.085642 
L 201.726942 -171.077518 
L 205.006281 -171.074082 
L 208.28562 -171.072733 
L 211.564959 -171.072241 
L 214.844298 -171.072074 
L 218.123636 -171.072021 
L 221.402975 -171.072006 
L 224.682314 -171.072001 
L 227.961653 -171.072 
L 231.240992 -171.072 
L 234.520331 -171.072 
L 237.799669 -171.072 
L 241.079008 -171.072 
L 244.358347 -171.072 
L 247.637686 -171.072 
L 250.917025 -171.072 
L 254.196364 -171.072 
L 257.475702 -171.072 
L 260.755041 -171.072 
L 264.03438 -171.072 
L 267.313719 -171.072 
L 270.593058 -171.072 
L 273.872397 -171.072 
L 277.151736 -171.072 
L 280.431074 -171.072 
L 283.710413 -171.072 
L 286.989752 -171.072 
L 290.269091 -171.072 
L 293.54843 -171.072 
L 296.827769 -171.072 
L 300.107107 -171.072 
L 303.386446 -171.072 
L 306.665785 -171.072001 
L 309.945124 -171.072003 
L 313.224463 -171.072012 
L 316.503802 -171.072042 
L 319.78314 -171.072135 
L 323.062479 -171.072408 
L 326.341818 -171.073152 
L 329.621157 -171.075033 
L 332.900496 -171.079452 
L 336.179835 -171.089076 
L 339.459174 -171.108499 
L 342.738512 -171.144772 
L 346.017851 -171.207342 
L 349.29719 -171.306792 
L 352.576529 -171.451942 
L 355.855868 -171.645501 
L 359.135207 -171.879486 
L 362.414545 -172.132519 
L 365.693884 -172.371226 
L 368.973223 -172.556685 
L 372.252562 -172.654584 
L 375.531901 -172.645556 
L 378.81124 -172.531421 
L 382.090579 -172.334589 
L 385.369917 -172.090889 
L 388.649256 -171.838963 
L 391.928595 -171.610524 
L 395.207934 -171.42471 
L 398.487273 -171.287484 
L 398.487273 -170.856516 
L 398.487273 -170.856516 
L 395.207934 -170.71929 
L 391.928595 -170.533476 
L 388.649256 -170.305037 
L 385.369917 -170.053111 
L 382.090579 -169.809411 
L 378.81124 -169.612579 
L 375.531901 -169.498444 
L 372.252562 -169.489416 
L 368.973223 -169.587315 
L 365.693884 -169.772774 
L 362.414545 -170.011481 
L 359.135207 -170.264514 
L 355.855868 -170.498499 
L 352.576529 -170.692058 
L 349.29719 -170.837208 
L 346.017851 -170.936658 
L 342.738512 -170.999228 
L 339.459174 -171.035501 
L 336.179835 -171.054924 
L 332.900496 -171.064548 
L 329.621157 -171.068967 
L 326.341818 -171.070848 
L 323.062479 -171.071592 
L 319.78314 -171.071865 
L 316.503802 -171.071958 
L 313.224463 -171.071988 
L 309.945124 -171.071997 
L 306.665785 -171.071999 
L 303.386446 -171.072 
L 300.107107 -171.072 
L 296.827769 -171.072 
L 293.54843 -171.072 
L 290.269091 -171.072 
L 286.989752 -171.072 
L 283.710413 -171.072 
L 280.431074 -171.072 
L 277.151736 -171.072 
L 273.872397 -171.072 
L 270.593058 -171.072 
L 267.313719 -171.072 
L 264.03438 -171.072 
L 260.755041 -171.072 
L 257.475702 -171.072 
L 254.196364 -171.072 
L 250.917025 -171.072 
L 247.637686 -171.072 
L 244.358347 -171.072 
L 241.079008 -171.072 
L 237.799669 -171.072 
L 234.520331 -171.072 
L 231.240992 -171.072 
L 227.961653 -171.072 
L 224.682314 -171.071999 
L 221.402975 -171.071994 
L 218.123636 -171.071979 
L 214.844298 -171.071926 
L 211.564959 -171.071759 
L 208.28562 -171.071267 
L 205.006281 -171.069918 
L 201.726942 -171.066482 
L 198.447603 -171.058358 
L 195.168264 -171.040522 
L 191.888926 -171.004208 
L 188.609587 -170.935701 
L 185.330248 -170.816072 
L 182.050909 -170.622954 
L 178.77157 -170.335139 
L 175.492231 -169.939646 
L 172.212893 -169.439022 
L 168.933554 -168.855008 
L 165.654215 -168.224656 
L 162.374876 -167.587545 
L 159.095537 -166.967069 
L 155.816198 -166.352462 
L 152.53686 -165.688177 
L 149.257521 -164.872351 
L 145.978182 -163.758742 
L 142.698843 -162.151904 
L 139.419504 -159.788521 
L 136.140165 -156.310286 
L 132.860826 -151.25135 
L 129.581488 -144.076715 
L 126.302149 -134.305245 
L 123.02281 -121.723334 
L 119.743471 -106.644547 
L 116.464132 -90.115365 
L 113.184793 -73.940804 
L 109.905455 -60.438355 
L 106.626116 -51.929947 
L 103.346777 -50.112 
L 100.067438 -55.533025 
L 96.788099 -67.394729 
L 93.50876 -83.768071 
L 90.229421 -102.139821 
L 86.950083 -120.071808 
L 83.670744 -135.732195 
L 80.391405 -148.146357 
L 77.112066 -157.153346 
L 73.832727 -163.165799 
z
" id="mbaa82e7b57" style="stroke:#4c4c4c;stroke-opacity:0.5;stroke-width:1.5;"/>
    </defs>
    <g clip-path="url(#p3ae191bff1)">
     <use style="fill:#df9c20;fill-opacity:0.5;stroke:#4c4c4c;stroke-opacity:0.5;stroke-width:1.5;" x="0" xlink:href="#mbaa82e7b57" y="345.6"/>
    </g>
   </g>
   <g id="PolyCollection_2">
    <defs>
     <path d="M 81.577177 -166.021504 
L 81.577177 -176.122496 
L 84.689741 -183.135547 
L 87.802305 -196.103026 
L 90.91487 -216.224219 
L 94.027434 -241.949655 
L 97.139999 -268.02087 
L 100.252563 -286.831773 
L 103.365127 -292.032 
L 106.477692 -282.08368 
L 109.590256 -261.045045 
L 112.702821 -236.030904 
L 115.815385 -213.460705 
L 118.927949 -196.711548 
L 122.040514 -186.080141 
L 125.153078 -180.130534 
L 128.265643 -177.081951 
L 131.378207 -175.559354 
L 134.490771 -174.746068 
L 137.603336 -174.24316 
L 140.7159 -173.879947 
L 143.828465 -173.582511 
L 146.941029 -173.310065 
L 150.053593 -173.032711 
L 153.166158 -172.72923 
L 156.278722 -172.394829 
L 159.391287 -172.048095 
L 162.503851 -171.725519 
L 165.616415 -171.463247 
L 168.72898 -171.279204 
L 171.841544 -171.168333 
L 174.954109 -171.111106 
L 178.066673 -171.085808 
L 181.179237 -171.076229 
L 184.291802 -171.073122 
L 187.404366 -171.072257 
L 190.516931 -171.072051 
L 193.629495 -171.072009 
L 196.742059 -171.072001 
L 199.854624 -171.072 
L 202.967188 -171.072 
L 206.079753 -171.072 
L 209.192317 -171.072 
L 212.304881 -171.072 
L 215.417446 -171.072 
L 218.53001 -171.072 
L 221.642575 -171.072 
L 224.755139 -171.072 
L 227.867703 -171.072 
L 230.980268 -171.072001 
L 234.092832 -171.072009 
L 237.205397 -171.072053 
L 240.317961 -171.072264 
L 243.430525 -171.073132 
L 246.54309 -171.076183 
L 249.655654 -171.085306 
L 252.768219 -171.108447 
L 255.880783 -171.157968 
L 258.993347 -171.246613 
L 262.105912 -171.377403 
L 265.218476 -171.531968 
L 268.331041 -171.66854 
L 271.443605 -171.738208 
L 274.556169 -171.712675 
L 277.668734 -171.602546 
L 280.781298 -171.450327 
L 283.893863 -171.30431 
L 287.006427 -171.194837 
L 290.118991 -171.12793 
L 293.231556 -171.093929 
L 296.34412 -171.079404 
L 299.456685 -171.074153 
L 302.569249 -171.072539 
L 305.681813 -171.072116 
L 308.794378 -171.072022 
L 311.906942 -171.072003 
L 315.019507 -171.072 
L 318.132071 -171.072 
L 321.244635 -171.072 
L 324.3572 -171.072 
L 327.469764 -171.072 
L 330.582329 -171.072 
L 333.694893 -171.072003 
L 336.807457 -171.072019 
L 339.920022 -171.072104 
L 343.032586 -171.072489 
L 346.145151 -171.073972 
L 349.257715 -171.07885 
L 352.370279 -171.092493 
L 355.482844 -171.124791 
L 358.595408 -171.189105 
L 361.707973 -171.295688 
L 364.820537 -171.439934 
L 367.933101 -171.593141 
L 371.045666 -171.70762 
L 374.15823 -171.739573 
L 377.270795 -171.67575 
L 380.383359 -171.54219 
L 383.495923 -171.387317 
L 386.608488 -171.254087 
L 389.721052 -171.162546 
L 389.721052 -170.981454 
L 389.721052 -170.981454 
L 386.608488 -170.889913 
L 383.495923 -170.756683 
L 380.383359 -170.60181 
L 377.270795 -170.46825 
L 374.15823 -170.404427 
L 371.045666 -170.43638 
L 367.933101 -170.550859 
L 364.820537 -170.704066 
L 361.707973 -170.848312 
L 358.595408 -170.954895 
L 355.482844 -171.019209 
L 352.370279 -171.051507 
L 349.257715 -171.06515 
L 346.145151 -171.070028 
L 343.032586 -171.071511 
L 339.920022 -171.071896 
L 336.807457 -171.071981 
L 333.694893 -171.071997 
L 330.582329 -171.072 
L 327.469764 -171.072 
L 324.3572 -171.072 
L 321.244635 -171.072 
L 318.132071 -171.072 
L 315.019507 -171.072 
L 311.906942 -171.071997 
L 308.794378 -171.071978 
L 305.681813 -171.071884 
L 302.569249 -171.071461 
L 299.456685 -171.069847 
L 296.34412 -171.064596 
L 293.231556 -171.050071 
L 290.118991 -171.01607 
L 287.006427 -170.949163 
L 283.893863 -170.83969 
L 280.781298 -170.693673 
L 277.668734 -170.541454 
L 274.556169 -170.431325 
L 271.443605 -170.405792 
L 268.331041 -170.47546 
L 265.218476 -170.612032 
L 262.105912 -170.766597 
L 258.993347 -170.897387 
L 255.880783 -170.986032 
L 252.768219 -171.035553 
L 249.655654 -171.058694 
L 246.54309 -171.067817 
L 243.430525 -171.070868 
L 240.317961 -171.071736 
L 237.205397 -171.071947 
L 234.092832 -171.071991 
L 230.980268 -171.071999 
L 227.867703 -171.072 
L 224.755139 -171.072 
L 221.642575 -171.072 
L 218.53001 -171.072 
L 215.417446 -171.072 
L 212.304881 -171.072 
L 209.192317 -171.072 
L 206.079753 -171.072 
L 202.967188 -171.072 
L 199.854624 -171.072 
L 196.742059 -171.071999 
L 193.629495 -171.071991 
L 190.516931 -171.071949 
L 187.404366 -171.071743 
L 184.291802 -171.070878 
L 181.179237 -171.067771 
L 178.066673 -171.058192 
L 174.954109 -171.032894 
L 171.841544 -170.975667 
L 168.72898 -170.864796 
L 165.616415 -170.680753 
L 162.503851 -170.418481 
L 159.391287 -170.095905 
L 156.278722 -169.749171 
L 153.166158 -169.41477 
L 150.053593 -169.111289 
L 146.941029 -168.833935 
L 143.828465 -168.561489 
L 140.7159 -168.264053 
L 137.603336 -167.90084 
L 134.490771 -167.397932 
L 131.378207 -166.584646 
L 128.265643 -165.062049 
L 125.153078 -162.013466 
L 122.040514 -156.063859 
L 118.927949 -145.432452 
L 115.815385 -128.683295 
L 112.702821 -106.113096 
L 109.590256 -81.098955 
L 106.477692 -60.06032 
L 103.365127 -50.112 
L 100.252563 -55.312227 
L 97.139999 -74.12313 
L 94.027434 -100.194345 
L 90.91487 -125.919781 
L 87.802305 -146.040974 
L 84.689741 -159.008453 
L 81.577177 -166.021504 
z
" id="m5c9a78858c" style="stroke:#262626;stroke-opacity:0.5;stroke-width:1.5;"/>
    </defs>
    <g clip-path="url(#p3ae191bff1)">
     <use style="fill:#107010;fill-opacity:0.5;stroke:#262626;stroke-opacity:0.5;stroke-width:1.5;" x="0" xlink:href="#m5c9a78858c" y="345.6"/>
    </g>
   </g>
   <g id="matplotlib.axis_1">
    <g id="xtick_1">
     <g id="line2d_1">
      <defs>
       <path d="M 0 0 
L 0 3.5 
" id="m7c18f45edb" style="stroke:#000000;stroke-width:0.8;"/>
      </defs>
      <g>
       <use style="stroke:#000000;stroke-width:0.8;" x="67.014575" xlink:href="#m7c18f45edb" y="307.584"/>
      </g>
     </g>
     <g id="text_1">
      <!-- 0 -->
      <defs>
       <path d="M 31.78125 66.40625 
Q 24.171875 66.40625 20.328125 58.90625 
Q 16.5 51.421875 16.5 36.375 
Q 16.5 21.390625 20.328125 13.890625 
Q 24.171875 6.390625 31.78125 6.390625 
Q 39.453125 6.390625 43.28125 13.890625 
Q 47.125 21.390625 47.125 36.375 
Q 47.125 51.421875 43.28125 58.90625 
Q 39.453125 66.40625 31.78125 66.40625 
z
M 31.78125 74.21875 
Q 44.046875 74.21875 50.515625 64.515625 
Q 56.984375 54.828125 56.984375 36.375 
Q 56.984375 17.96875 50.515625 8.265625 
Q 44.046875 -1.421875 31.78125 -1.421875 
Q 19.53125 -1.421875 13.0625 8.265625 
Q 6.59375 17.96875 6.59375 36.375 
Q 6.59375 54.828125 13.0625 64.515625 
Q 19.53125 74.21875 31.78125 74.21875 
z
" id="DejaVuSans-48"/>
      </defs>
      <g transform="translate(63.833325 322.182437)scale(0.1 -0.1)">
       <use xlink:href="#DejaVuSans-48"/>
      </g>
     </g>
    </g>
    <g id="xtick_2">
     <g id="line2d_2">
      <g>
       <use style="stroke:#000000;stroke-width:0.8;" x="118.115912" xlink:href="#m7c18f45edb" y="307.584"/>
      </g>
     </g>
     <g id="text_2">
      <!-- 20 -->
      <defs>
       <path d="M 19.1875 8.296875 
L 53.609375 8.296875 
L 53.609375 0 
L 7.328125 0 
L 7.328125 8.296875 
Q 12.9375 14.109375 22.625 23.890625 
Q 32.328125 33.6875 34.8125 36.53125 
Q 39.546875 41.84375 41.421875 45.53125 
Q 43.3125 49.21875 43.3125 52.78125 
Q 43.3125 58.59375 39.234375 62.25 
Q 35.15625 65.921875 28.609375 65.921875 
Q 23.96875 65.921875 18.8125 64.3125 
Q 13.671875 62.703125 7.8125 59.421875 
L 7.8125 69.390625 
Q 13.765625 71.78125 18.9375 73 
Q 24.125 74.21875 28.421875 74.21875 
Q 39.75 74.21875 46.484375 68.546875 
Q 53.21875 62.890625 53.21875 53.421875 
Q 53.21875 48.921875 51.53125 44.890625 
Q 49.859375 40.875 45.40625 35.40625 
Q 44.1875 33.984375 37.640625 27.21875 
Q 31.109375 20.453125 19.1875 8.296875 
z
" id="DejaVuSans-50"/>
      </defs>
      <g transform="translate(111.753412 322.182437)scale(0.1 -0.1)">
       <use xlink:href="#DejaVuSans-50"/>
       <use x="63.623047" xlink:href="#DejaVuSans-48"/>
      </g>
     </g>
    </g>
    <g id="xtick_3">
     <g id="line2d_3">
      <g>
       <use style="stroke:#000000;stroke-width:0.8;" x="169.217249" xlink:href="#m7c18f45edb" y="307.584"/>
      </g>
     </g>
     <g id="text_3">
      <!-- 40 -->
      <defs>
       <path d="M 37.796875 64.3125 
L 12.890625 25.390625 
L 37.796875 25.390625 
z
M 35.203125 72.90625 
L 47.609375 72.90625 
L 47.609375 25.390625 
L 58.015625 25.390625 
L 58.015625 17.1875 
L 47.609375 17.1875 
L 47.609375 0 
L 37.796875 0 
L 37.796875 17.1875 
L 4.890625 17.1875 
L 4.890625 26.703125 
z
" id="DejaVuSans-52"/>
      </defs>
      <g transform="translate(162.854749 322.182437)scale(0.1 -0.1)">
       <use xlink:href="#DejaVuSans-52"/>
       <use x="63.623047" xlink:href="#DejaVuSans-48"/>
      </g>
     </g>
    </g>
    <g id="xtick_4">
     <g id="line2d_4">
      <g>
       <use style="stroke:#000000;stroke-width:0.8;" x="220.318586" xlink:href="#m7c18f45edb" y="307.584"/>
      </g>
     </g>
     <g id="text_4">
      <!-- 60 -->
      <defs>
       <path d="M 33.015625 40.375 
Q 26.375 40.375 22.484375 35.828125 
Q 18.609375 31.296875 18.609375 23.390625 
Q 18.609375 15.53125 22.484375 10.953125 
Q 26.375 6.390625 33.015625 6.390625 
Q 39.65625 6.390625 43.53125 10.953125 
Q 47.40625 15.53125 47.40625 23.390625 
Q 47.40625 31.296875 43.53125 35.828125 
Q 39.65625 40.375 33.015625 40.375 
z
M 52.59375 71.296875 
L 52.59375 62.3125 
Q 48.875 64.0625 45.09375 64.984375 
Q 41.3125 65.921875 37.59375 65.921875 
Q 27.828125 65.921875 22.671875 59.328125 
Q 17.53125 52.734375 16.796875 39.40625 
Q 19.671875 43.65625 24.015625 45.921875 
Q 28.375 48.1875 33.59375 48.1875 
Q 44.578125 48.1875 50.953125 41.515625 
Q 57.328125 34.859375 57.328125 23.390625 
Q 57.328125 12.15625 50.6875 5.359375 
Q 44.046875 -1.421875 33.015625 -1.421875 
Q 20.359375 -1.421875 13.671875 8.265625 
Q 6.984375 17.96875 6.984375 36.375 
Q 6.984375 53.65625 15.1875 63.9375 
Q 23.390625 74.21875 37.203125 74.21875 
Q 40.921875 74.21875 44.703125 73.484375 
Q 48.484375 72.75 52.59375 71.296875 
z
" id="DejaVuSans-54"/>
      </defs>
      <g transform="translate(213.956086 322.182437)scale(0.1 -0.1)">
       <use xlink:href="#DejaVuSans-54"/>
       <use x="63.623047" xlink:href="#DejaVuSans-48"/>
      </g>
     </g>
    </g>
    <g id="xtick_5">
     <g id="line2d_5">
      <g>
       <use style="stroke:#000000;stroke-width:0.8;" x="271.419922" xlink:href="#m7c18f45edb" y="307.584"/>
      </g>
     </g>
     <g id="text_5">
      <!-- 80 -->
      <defs>
       <path d="M 31.78125 34.625 
Q 24.75 34.625 20.71875 30.859375 
Q 16.703125 27.09375 16.703125 20.515625 
Q 16.703125 13.921875 20.71875 10.15625 
Q 24.75 6.390625 31.78125 6.390625 
Q 38.8125 6.390625 42.859375 10.171875 
Q 46.921875 13.96875 46.921875 20.515625 
Q 46.921875 27.09375 42.890625 30.859375 
Q 38.875 34.625 31.78125 34.625 
z
M 21.921875 38.8125 
Q 15.578125 40.375 12.03125 44.71875 
Q 8.5 49.078125 8.5 55.328125 
Q 8.5 64.0625 14.71875 69.140625 
Q 20.953125 74.21875 31.78125 74.21875 
Q 42.671875 74.21875 48.875 69.140625 
Q 55.078125 64.0625 55.078125 55.328125 
Q 55.078125 49.078125 51.53125 44.71875 
Q 48 40.375 41.703125 38.8125 
Q 48.828125 37.15625 52.796875 32.3125 
Q 56.78125 27.484375 56.78125 20.515625 
Q 56.78125 9.90625 50.3125 4.234375 
Q 43.84375 -1.421875 31.78125 -1.421875 
Q 19.734375 -1.421875 13.25 4.234375 
Q 6.78125 9.90625 6.78125 20.515625 
Q 6.78125 27.484375 10.78125 32.3125 
Q 14.796875 37.15625 21.921875 38.8125 
z
M 18.3125 54.390625 
Q 18.3125 48.734375 21.84375 45.5625 
Q 25.390625 42.390625 31.78125 42.390625 
Q 38.140625 42.390625 41.71875 45.5625 
Q 45.3125 48.734375 45.3125 54.390625 
Q 45.3125 60.0625 41.71875 63.234375 
Q 38.140625 66.40625 31.78125 66.40625 
Q 25.390625 66.40625 21.84375 63.234375 
Q 18.3125 60.0625 18.3125 54.390625 
z
" id="DejaVuSans-56"/>
      </defs>
      <g transform="translate(265.057422 322.182437)scale(0.1 -0.1)">
       <use xlink:href="#DejaVuSans-56"/>
       <use x="63.623047" xlink:href="#DejaVuSans-48"/>
      </g>
     </g>
    </g>
    <g id="xtick_6">
     <g id="line2d_6">
      <g>
       <use style="stroke:#000000;stroke-width:0.8;" x="322.521259" xlink:href="#m7c18f45edb" y="307.584"/>
      </g>
     </g>
     <g id="text_6">
      <!-- 100 -->
      <defs>
       <path d="M 12.40625 8.296875 
L 28.515625 8.296875 
L 28.515625 63.921875 
L 10.984375 60.40625 
L 10.984375 69.390625 
L 28.421875 72.90625 
L 38.28125 72.90625 
L 38.28125 8.296875 
L 54.390625 8.296875 
L 54.390625 0 
L 12.40625 0 
z
" id="DejaVuSans-49"/>
      </defs>
      <g transform="translate(312.977509 322.182437)scale(0.1 -0.1)">
       <use xlink:href="#DejaVuSans-49"/>
       <use x="63.623047" xlink:href="#DejaVuSans-48"/>
       <use x="127.246094" xlink:href="#DejaVuSans-48"/>
      </g>
     </g>
    </g>
    <g id="xtick_7">
     <g id="line2d_7">
      <g>
       <use style="stroke:#000000;stroke-width:0.8;" x="373.622596" xlink:href="#m7c18f45edb" y="307.584"/>
      </g>
     </g>
     <g id="text_7">
      <!-- 120 -->
      <g transform="translate(364.078846 322.182437)scale(0.1 -0.1)">
       <use xlink:href="#DejaVuSans-49"/>
       <use x="63.623047" xlink:href="#DejaVuSans-50"/>
       <use x="127.246094" xlink:href="#DejaVuSans-48"/>
      </g>
     </g>
    </g>
    <g id="text_8">
     <!-- ptadmac -->
     <defs>
      <path d="M 18.109375 8.203125 
L 18.109375 -20.796875 
L 9.078125 -20.796875 
L 9.078125 54.6875 
L 18.109375 54.6875 
L 18.109375 46.390625 
Q 20.953125 51.265625 25.265625 53.625 
Q 29.59375 56 35.59375 56 
Q 45.5625 56 51.78125 48.09375 
Q 58.015625 40.1875 58.015625 27.296875 
Q 58.015625 14.40625 51.78125 6.484375 
Q 45.5625 -1.421875 35.59375 -1.421875 
Q 29.59375 -1.421875 25.265625 0.953125 
Q 20.953125 3.328125 18.109375 8.203125 
z
M 48.6875 27.296875 
Q 48.6875 37.203125 44.609375 42.84375 
Q 40.53125 48.484375 33.40625 48.484375 
Q 26.265625 48.484375 22.1875 42.84375 
Q 18.109375 37.203125 18.109375 27.296875 
Q 18.109375 17.390625 22.1875 11.75 
Q 26.265625 6.109375 33.40625 6.109375 
Q 40.53125 6.109375 44.609375 11.75 
Q 48.6875 17.390625 48.6875 27.296875 
z
" id="DejaVuSans-112"/>
      <path d="M 18.3125 70.21875 
L 18.3125 54.6875 
L 36.8125 54.6875 
L 36.8125 47.703125 
L 18.3125 47.703125 
L 18.3125 18.015625 
Q 18.3125 11.328125 20.140625 9.421875 
Q 21.96875 7.515625 27.59375 7.515625 
L 36.8125 7.515625 
L 36.8125 0 
L 27.59375 0 
Q 17.1875 0 13.234375 3.875 
Q 9.28125 7.765625 9.28125 18.015625 
L 9.28125 47.703125 
L 2.6875 47.703125 
L 2.6875 54.6875 
L 9.28125 54.6875 
L 9.28125 70.21875 
z
" id="DejaVuSans-116"/>
      <path d="M 34.28125 27.484375 
Q 23.390625 27.484375 19.1875 25 
Q 14.984375 22.515625 14.984375 16.5 
Q 14.984375 11.71875 18.140625 8.90625 
Q 21.296875 6.109375 26.703125 6.109375 
Q 34.1875 6.109375 38.703125 11.40625 
Q 43.21875 16.703125 43.21875 25.484375 
L 43.21875 27.484375 
z
M 52.203125 31.203125 
L 52.203125 0 
L 43.21875 0 
L 43.21875 8.296875 
Q 40.140625 3.328125 35.546875 0.953125 
Q 30.953125 -1.421875 24.3125 -1.421875 
Q 15.921875 -1.421875 10.953125 3.296875 
Q 6 8.015625 6 15.921875 
Q 6 25.140625 12.171875 29.828125 
Q 18.359375 34.515625 30.609375 34.515625 
L 43.21875 34.515625 
L 43.21875 35.40625 
Q 43.21875 41.609375 39.140625 45 
Q 35.0625 48.390625 27.6875 48.390625 
Q 23 48.390625 18.546875 47.265625 
Q 14.109375 46.140625 10.015625 43.890625 
L 10.015625 52.203125 
Q 14.9375 54.109375 19.578125 55.046875 
Q 24.21875 56 28.609375 56 
Q 40.484375 56 46.34375 49.84375 
Q 52.203125 43.703125 52.203125 31.203125 
z
" id="DejaVuSans-97"/>
      <path d="M 45.40625 46.390625 
L 45.40625 75.984375 
L 54.390625 75.984375 
L 54.390625 0 
L 45.40625 0 
L 45.40625 8.203125 
Q 42.578125 3.328125 38.25 0.953125 
Q 33.9375 -1.421875 27.875 -1.421875 
Q 17.96875 -1.421875 11.734375 6.484375 
Q 5.515625 14.40625 5.515625 27.296875 
Q 5.515625 40.1875 11.734375 48.09375 
Q 17.96875 56 27.875 56 
Q 33.9375 56 38.25 53.625 
Q 42.578125 51.265625 45.40625 46.390625 
z
M 14.796875 27.296875 
Q 14.796875 17.390625 18.875 11.75 
Q 22.953125 6.109375 30.078125 6.109375 
Q 37.203125 6.109375 41.296875 11.75 
Q 45.40625 17.390625 45.40625 27.296875 
Q 45.40625 37.203125 41.296875 42.84375 
Q 37.203125 48.484375 30.078125 48.484375 
Q 22.953125 48.484375 18.875 42.84375 
Q 14.796875 37.203125 14.796875 27.296875 
z
" id="DejaVuSans-100"/>
      <path d="M 52 44.1875 
Q 55.375 50.25 60.0625 53.125 
Q 64.75 56 71.09375 56 
Q 79.640625 56 84.28125 50.015625 
Q 88.921875 44.046875 88.921875 33.015625 
L 88.921875 0 
L 79.890625 0 
L 79.890625 32.71875 
Q 79.890625 40.578125 77.09375 44.375 
Q 74.3125 48.1875 68.609375 48.1875 
Q 61.625 48.1875 57.5625 43.546875 
Q 53.515625 38.921875 53.515625 30.90625 
L 53.515625 0 
L 44.484375 0 
L 44.484375 32.71875 
Q 44.484375 40.625 41.703125 44.40625 
Q 38.921875 48.1875 33.109375 48.1875 
Q 26.21875 48.1875 22.15625 43.53125 
Q 18.109375 38.875 18.109375 30.90625 
L 18.109375 0 
L 9.078125 0 
L 9.078125 54.6875 
L 18.109375 54.6875 
L 18.109375 46.1875 
Q 21.1875 51.21875 25.484375 53.609375 
Q 29.78125 56 35.6875 56 
Q 41.65625 56 45.828125 52.96875 
Q 50 49.953125 52 44.1875 
z
" id="DejaVuSans-109"/>
      <path d="M 48.78125 52.59375 
L 48.78125 44.1875 
Q 44.96875 46.296875 41.140625 47.34375 
Q 37.3125 48.390625 33.40625 48.390625 
Q 24.65625 48.390625 19.8125 42.84375 
Q 14.984375 37.3125 14.984375 27.296875 
Q 14.984375 17.28125 19.8125 11.734375 
Q 24.65625 6.203125 33.40625 6.203125 
Q 37.3125 6.203125 41.140625 7.25 
Q 44.96875 8.296875 48.78125 10.40625 
L 48.78125 2.09375 
Q 45.015625 0.34375 40.984375 -0.53125 
Q 36.96875 -1.421875 32.421875 -1.421875 
Q 20.0625 -1.421875 12.78125 6.34375 
Q 5.515625 14.109375 5.515625 27.296875 
Q 5.515625 40.671875 12.859375 48.328125 
Q 20.21875 56 33.015625 56 
Q 37.15625 56 41.109375 55.140625 
Q 45.0625 54.296875 48.78125 52.59375 
z
" id="DejaVuSans-99"/>
     </defs>
     <g transform="translate(214.10375 335.860562)scale(0.1 -0.1)">
      <use xlink:href="#DejaVuSans-112"/>
      <use x="63.476562" xlink:href="#DejaVuSans-116"/>
      <use x="102.685547" xlink:href="#DejaVuSans-97"/>
      <use x="163.964844" xlink:href="#DejaVuSans-100"/>
      <use x="227.441406" xlink:href="#DejaVuSans-109"/>
      <use x="324.853516" xlink:href="#DejaVuSans-97"/>
      <use x="386.132812" xlink:href="#DejaVuSans-99"/>
     </g>
    </g>
   </g>
   <g id="matplotlib.axis_2">
    <g id="ytick_1">
     <g id="line2d_8">
      <defs>
       <path d="M 0 0 
L -3.5 0 
" id="m03ac52107c" style="stroke:#000000;stroke-width:0.8;"/>
      </defs>
      <g>
       <use style="stroke:#000000;stroke-width:0.8;" x="57.6" xlink:href="#m03ac52107c" y="174.528"/>
      </g>
     </g>
    </g>
   </g>
   <g id="line2d_9">
    <path clip-path="url(#p3ae191bff1)" d="M 98.697404 174.528 
L 115.305338 174.528 
" style="fill:none;stroke:#ffa500;stroke-linecap:square;stroke-width:1.5;"/>
   </g>
   <g id="line2d_10">
    <path clip-path="url(#p3ae191bff1)" d="M 101.252471 174.528 
L 107.767891 174.528 
" style="fill:none;stroke:#4c4c4c;stroke-linecap:square;stroke-width:4.5;"/>
   </g>
   <g id="line2d_11">
    <path clip-path="url(#p3ae191bff1)" d="M 97.675377 174.528 
L 110.961725 174.528 
" style="fill:none;stroke:#008000;stroke-linecap:square;stroke-width:1.5;"/>
   </g>
   <g id="line2d_12">
    <path clip-path="url(#p3ae191bff1)" d="M 101.060841 174.528 
L 105.021194 174.528 
" style="fill:none;stroke:#262626;stroke-linecap:square;stroke-width:4.5;"/>
   </g>
   <g id="patch_3">
    <path d="M 57.6 307.584 
L 57.6 41.472 
" style="fill:none;stroke:#000000;stroke-linecap:square;stroke-linejoin:miter;stroke-width:0.8;"/>
   </g>
   <g id="patch_4">
    <path d="M 414.72 307.584 
L 414.72 41.472 
" style="fill:none;stroke:#000000;stroke-linecap:square;stroke-linejoin:miter;stroke-width:0.8;"/>
   </g>
   <g id="patch_5">
    <path d="M 57.6 307.584 
L 414.72 307.584 
" style="fill:none;stroke:#000000;stroke-linecap:square;stroke-linejoin:miter;stroke-width:0.8;"/>
   </g>
   <g id="patch_6">
    <path d="M 57.6 41.472 
L 414.72 41.472 
" style="fill:none;stroke:#000000;stroke-linecap:square;stroke-linejoin:miter;stroke-width:0.8;"/>
   </g>
   <g id="PathCollection_1">
    <defs>
     <path d="M 0 1.5 
C 0.397805 1.5 0.77937 1.341951 1.06066 1.06066 
C 1.341951 0.77937 1.5 0.397805 1.5 0 
C 1.5 -0.397805 1.341951 -0.77937 1.06066 -1.06066 
C 0.77937 -1.341951 0.397805 -1.5 0 -1.5 
C -0.397805 -1.5 -0.77937 -1.341951 -1.06066 -1.06066 
C -1.341951 -0.77937 -1.5 -0.397805 -1.5 0 
C -1.5 0.397805 -1.341951 0.77937 -1.06066 1.06066 
C -0.77937 1.341951 -0.397805 1.5 0 1.5 
z
" id="m319530b7ad" style="stroke:#4c4c4c;stroke-opacity:0.5;"/>
    </defs>
    <g clip-path="url(#p3ae191bff1)">
     <use style="fill:#ffffff;fill-opacity:0.5;stroke:#4c4c4c;stroke-opacity:0.5;" x="103.679784" xlink:href="#m319530b7ad" y="174.528"/>
    </g>
   </g>
   <g id="PathCollection_2">
    <defs>
     <path d="M 0 1.5 
C 0.397805 1.5 0.77937 1.341951 1.06066 1.06066 
C 1.341951 0.77937 1.5 0.397805 1.5 0 
C 1.5 -0.397805 1.341951 -0.77937 1.06066 -1.06066 
C 0.77937 -1.341951 0.397805 -1.5 0 -1.5 
C -0.397805 -1.5 -0.77937 -1.341951 -1.06066 -1.06066 
C -1.341951 -0.77937 -1.5 -0.397805 -1.5 0 
C -1.5 0.397805 -1.341951 0.77937 -1.06066 1.06066 
C -0.77937 1.341951 -0.397805 1.5 0 1.5 
z
" id="m1517bb6638" style="stroke:#262626;stroke-opacity:0.5;"/>
    </defs>
    <g clip-path="url(#p3ae191bff1)">
     <use style="fill:#ffffff;fill-opacity:0.5;stroke:#262626;stroke-opacity:0.5;" x="102.530004" xlink:href="#m1517bb6638" y="174.528"/>
    </g>
   </g>
   <g id="text_9">
    <!-- Association of ptadmac vs. intubation -->
    <defs>
     <path d="M 34.1875 63.1875 
L 20.796875 26.90625 
L 47.609375 26.90625 
z
M 28.609375 72.90625 
L 39.796875 72.90625 
L 67.578125 0 
L 57.328125 0 
L 50.6875 18.703125 
L 17.828125 18.703125 
L 11.1875 0 
L 0.78125 0 
z
" id="DejaVuSans-65"/>
     <path d="M 44.28125 53.078125 
L 44.28125 44.578125 
Q 40.484375 46.53125 36.375 47.5 
Q 32.28125 48.484375 27.875 48.484375 
Q 21.1875 48.484375 17.84375 46.4375 
Q 14.5 44.390625 14.5 40.28125 
Q 14.5 37.15625 16.890625 35.375 
Q 19.28125 33.59375 26.515625 31.984375 
L 29.59375 31.296875 
Q 39.15625 29.25 43.1875 25.515625 
Q 47.21875 21.78125 47.21875 15.09375 
Q 47.21875 7.46875 41.1875 3.015625 
Q 35.15625 -1.421875 24.609375 -1.421875 
Q 20.21875 -1.421875 15.453125 -0.5625 
Q 10.6875 0.296875 5.421875 2 
L 5.421875 11.28125 
Q 10.40625 8.6875 15.234375 7.390625 
Q 20.0625 6.109375 24.8125 6.109375 
Q 31.15625 6.109375 34.5625 8.28125 
Q 37.984375 10.453125 37.984375 14.40625 
Q 37.984375 18.0625 35.515625 20.015625 
Q 33.0625 21.96875 24.703125 23.78125 
L 21.578125 24.515625 
Q 13.234375 26.265625 9.515625 29.90625 
Q 5.8125 33.546875 5.8125 39.890625 
Q 5.8125 47.609375 11.28125 51.796875 
Q 16.75 56 26.8125 56 
Q 31.78125 56 36.171875 55.265625 
Q 40.578125 54.546875 44.28125 53.078125 
z
" id="DejaVuSans-115"/>
     <path d="M 30.609375 48.390625 
Q 23.390625 48.390625 19.1875 42.75 
Q 14.984375 37.109375 14.984375 27.296875 
Q 14.984375 17.484375 19.15625 11.84375 
Q 23.34375 6.203125 30.609375 6.203125 
Q 37.796875 6.203125 41.984375 11.859375 
Q 46.1875 17.53125 46.1875 27.296875 
Q 46.1875 37.015625 41.984375 42.703125 
Q 37.796875 48.390625 30.609375 48.390625 
z
M 30.609375 56 
Q 42.328125 56 49.015625 48.375 
Q 55.71875 40.765625 55.71875 27.296875 
Q 55.71875 13.875 49.015625 6.21875 
Q 42.328125 -1.421875 30.609375 -1.421875 
Q 18.84375 -1.421875 12.171875 6.21875 
Q 5.515625 13.875 5.515625 27.296875 
Q 5.515625 40.765625 12.171875 48.375 
Q 18.84375 56 30.609375 56 
z
" id="DejaVuSans-111"/>
     <path d="M 9.421875 54.6875 
L 18.40625 54.6875 
L 18.40625 0 
L 9.421875 0 
z
M 9.421875 75.984375 
L 18.40625 75.984375 
L 18.40625 64.59375 
L 9.421875 64.59375 
z
" id="DejaVuSans-105"/>
     <path d="M 54.890625 33.015625 
L 54.890625 0 
L 45.90625 0 
L 45.90625 32.71875 
Q 45.90625 40.484375 42.875 44.328125 
Q 39.84375 48.1875 33.796875 48.1875 
Q 26.515625 48.1875 22.3125 43.546875 
Q 18.109375 38.921875 18.109375 30.90625 
L 18.109375 0 
L 9.078125 0 
L 9.078125 54.6875 
L 18.109375 54.6875 
L 18.109375 46.1875 
Q 21.34375 51.125 25.703125 53.5625 
Q 30.078125 56 35.796875 56 
Q 45.21875 56 50.046875 50.171875 
Q 54.890625 44.34375 54.890625 33.015625 
z
" id="DejaVuSans-110"/>
     <path id="DejaVuSans-32"/>
     <path d="M 37.109375 75.984375 
L 37.109375 68.5 
L 28.515625 68.5 
Q 23.6875 68.5 21.796875 66.546875 
Q 19.921875 64.59375 19.921875 59.515625 
L 19.921875 54.6875 
L 34.71875 54.6875 
L 34.71875 47.703125 
L 19.921875 47.703125 
L 19.921875 0 
L 10.890625 0 
L 10.890625 47.703125 
L 2.296875 47.703125 
L 2.296875 54.6875 
L 10.890625 54.6875 
L 10.890625 58.5 
Q 10.890625 67.625 15.140625 71.796875 
Q 19.390625 75.984375 28.609375 75.984375 
z
" id="DejaVuSans-102"/>
     <path d="M 2.984375 54.6875 
L 12.5 54.6875 
L 29.59375 8.796875 
L 46.6875 54.6875 
L 56.203125 54.6875 
L 35.6875 0 
L 23.484375 0 
z
" id="DejaVuSans-118"/>
     <path d="M 10.6875 12.40625 
L 21 12.40625 
L 21 0 
L 10.6875 0 
z
" id="DejaVuSans-46"/>
     <path d="M 8.5 21.578125 
L 8.5 54.6875 
L 17.484375 54.6875 
L 17.484375 21.921875 
Q 17.484375 14.15625 20.5 10.265625 
Q 23.53125 6.390625 29.59375 6.390625 
Q 36.859375 6.390625 41.078125 11.03125 
Q 45.3125 15.671875 45.3125 23.6875 
L 45.3125 54.6875 
L 54.296875 54.6875 
L 54.296875 0 
L 45.3125 0 
L 45.3125 8.40625 
Q 42.046875 3.421875 37.71875 1 
Q 33.40625 -1.421875 27.6875 -1.421875 
Q 18.265625 -1.421875 13.375 4.4375 
Q 8.5 10.296875 8.5 21.578125 
z
M 31.109375 56 
z
" id="DejaVuSans-117"/>
     <path d="M 48.6875 27.296875 
Q 48.6875 37.203125 44.609375 42.84375 
Q 40.53125 48.484375 33.40625 48.484375 
Q 26.265625 48.484375 22.1875 42.84375 
Q 18.109375 37.203125 18.109375 27.296875 
Q 18.109375 17.390625 22.1875 11.75 
Q 26.265625 6.109375 33.40625 6.109375 
Q 40.53125 6.109375 44.609375 11.75 
Q 48.6875 17.390625 48.6875 27.296875 
z
M 18.109375 46.390625 
Q 20.953125 51.265625 25.265625 53.625 
Q 29.59375 56 35.59375 56 
Q 45.5625 56 51.78125 48.09375 
Q 58.015625 40.1875 58.015625 27.296875 
Q 58.015625 14.40625 51.78125 6.484375 
Q 45.5625 -1.421875 35.59375 -1.421875 
Q 29.59375 -1.421875 25.265625 0.953125 
Q 20.953125 3.328125 18.109375 8.203125 
L 18.109375 0 
L 9.078125 0 
L 9.078125 75.984375 
L 18.109375 75.984375 
z
" id="DejaVuSans-98"/>
    </defs>
    <g transform="translate(122.9325 35.472)scale(0.12 -0.12)">
     <use xlink:href="#DejaVuSans-65"/>
     <use x="68.408203" xlink:href="#DejaVuSans-115"/>
     <use x="120.507812" xlink:href="#DejaVuSans-115"/>
     <use x="172.607422" xlink:href="#DejaVuSans-111"/>
     <use x="233.789062" xlink:href="#DejaVuSans-99"/>
     <use x="288.769531" xlink:href="#DejaVuSans-105"/>
     <use x="316.552734" xlink:href="#DejaVuSans-97"/>
     <use x="377.832031" xlink:href="#DejaVuSans-116"/>
     <use x="417.041016" xlink:href="#DejaVuSans-105"/>
     <use x="444.824219" xlink:href="#DejaVuSans-111"/>
     <use x="506.005859" xlink:href="#DejaVuSans-110"/>
     <use x="569.384766" xlink:href="#DejaVuSans-32"/>
     <use x="601.171875" xlink:href="#DejaVuSans-111"/>
     <use x="662.353516" xlink:href="#DejaVuSans-102"/>
     <use x="697.558594" xlink:href="#DejaVuSans-32"/>
     <use x="729.345703" xlink:href="#DejaVuSans-112"/>
     <use x="792.822266" xlink:href="#DejaVuSans-116"/>
     <use x="832.03125" xlink:href="#DejaVuSans-97"/>
     <use x="893.310547" xlink:href="#DejaVuSans-100"/>
     <use x="956.787109" xlink:href="#DejaVuSans-109"/>
     <use x="1054.199219" xlink:href="#DejaVuSans-97"/>
     <use x="1115.478516" xlink:href="#DejaVuSans-99"/>
     <use x="1170.458984" xlink:href="#DejaVuSans-32"/>
     <use x="1202.246094" xlink:href="#DejaVuSans-118"/>
     <use x="1261.425781" xlink:href="#DejaVuSans-115"/>
     <use x="1313.525391" xlink:href="#DejaVuSans-46"/>
     <use x="1345.3125" xlink:href="#DejaVuSans-32"/>
     <use x="1377.099609" xlink:href="#DejaVuSans-105"/>
     <use x="1404.882812" xlink:href="#DejaVuSans-110"/>
     <use x="1468.261719" xlink:href="#DejaVuSans-116"/>
     <use x="1507.470703" xlink:href="#DejaVuSans-117"/>
     <use x="1570.849609" xlink:href="#DejaVuSans-98"/>
     <use x="1634.326172" xlink:href="#DejaVuSans-97"/>
     <use x="1695.605469" xlink:href="#DejaVuSans-116"/>
     <use x="1734.814453" xlink:href="#DejaVuSans-105"/>
     <use x="1762.597656" xlink:href="#DejaVuSans-111"/>
     <use x="1823.779297" xlink:href="#DejaVuSans-110"/>
    </g>
   </g>
   <g id="legend_1">
    <g id="patch_7">
     <path d="M 273.948125 78.82825 
L 407.72 78.82825 
Q 409.72 78.82825 409.72 76.82825 
L 409.72 48.472 
Q 409.72 46.472 407.72 46.472 
L 273.948125 46.472 
Q 271.948125 46.472 271.948125 48.472 
L 271.948125 76.82825 
Q 271.948125 78.82825 273.948125 78.82825 
z
" style="fill:#ffffff;opacity:0.8;stroke:#cccccc;stroke-linejoin:miter;"/>
    </g>
    <g id="line2d_13">
     <path d="M 275.948125 54.570437 
L 295.948125 54.570437 
" style="fill:none;stroke:#ffa500;stroke-linecap:square;stroke-width:1.5;"/>
    </g>
    <g id="line2d_14"/>
    <g id="text_10">
     <!-- intubation (88) -->
     <defs>
      <path d="M 31 75.875 
Q 24.46875 64.65625 21.28125 53.65625 
Q 18.109375 42.671875 18.109375 31.390625 
Q 18.109375 20.125 21.3125 9.0625 
Q 24.515625 -2 31 -13.1875 
L 23.1875 -13.1875 
Q 15.875 -1.703125 12.234375 9.375 
Q 8.59375 20.453125 8.59375 31.390625 
Q 8.59375 42.28125 12.203125 53.3125 
Q 15.828125 64.359375 23.1875 75.875 
z
" id="DejaVuSans-40"/>
      <path d="M 8.015625 75.875 
L 15.828125 75.875 
Q 23.140625 64.359375 26.78125 53.3125 
Q 30.421875 42.28125 30.421875 31.390625 
Q 30.421875 20.453125 26.78125 9.375 
Q 23.140625 -1.703125 15.828125 -13.1875 
L 8.015625 -13.1875 
Q 14.5 -2 17.703125 9.0625 
Q 20.90625 20.125 20.90625 31.390625 
Q 20.90625 42.671875 17.703125 53.65625 
Q 14.5 64.65625 8.015625 75.875 
z
" id="DejaVuSans-41"/>
     </defs>
     <g transform="translate(303.948125 58.070437)scale(0.1 -0.1)">
      <use xlink:href="#DejaVuSans-105"/>
      <use x="27.783203" xlink:href="#DejaVuSans-110"/>
      <use x="91.162109" xlink:href="#DejaVuSans-116"/>
      <use x="130.371094" xlink:href="#DejaVuSans-117"/>
      <use x="193.75" xlink:href="#DejaVuSans-98"/>
      <use x="257.226562" xlink:href="#DejaVuSans-97"/>
      <use x="318.505859" xlink:href="#DejaVuSans-116"/>
      <use x="357.714844" xlink:href="#DejaVuSans-105"/>
      <use x="385.498047" xlink:href="#DejaVuSans-111"/>
      <use x="446.679688" xlink:href="#DejaVuSans-110"/>
      <use x="510.058594" xlink:href="#DejaVuSans-32"/>
      <use x="541.845703" xlink:href="#DejaVuSans-40"/>
      <use x="580.859375" xlink:href="#DejaVuSans-56"/>
      <use x="644.482422" xlink:href="#DejaVuSans-56"/>
      <use x="708.105469" xlink:href="#DejaVuSans-41"/>
     </g>
    </g>
    <g id="line2d_15">
     <path d="M 275.948125 69.248562 
L 295.948125 69.248562 
" style="fill:none;stroke:#008000;stroke-linecap:square;stroke-width:1.5;"/>
    </g>
    <g id="line2d_16"/>
    <g id="text_11">
     <!-- Not intubation (206) -->
     <defs>
      <path d="M 9.8125 72.90625 
L 23.09375 72.90625 
L 55.421875 11.921875 
L 55.421875 72.90625 
L 64.984375 72.90625 
L 64.984375 0 
L 51.703125 0 
L 19.390625 60.984375 
L 19.390625 0 
L 9.8125 0 
z
" id="DejaVuSans-78"/>
     </defs>
     <g transform="translate(303.948125 72.748562)scale(0.1 -0.1)">
      <use xlink:href="#DejaVuSans-78"/>
      <use x="74.804688" xlink:href="#DejaVuSans-111"/>
      <use x="135.986328" xlink:href="#DejaVuSans-116"/>
      <use x="175.195312" xlink:href="#DejaVuSans-32"/>
      <use x="206.982422" xlink:href="#DejaVuSans-105"/>
      <use x="234.765625" xlink:href="#DejaVuSans-110"/>
      <use x="298.144531" xlink:href="#DejaVuSans-116"/>
      <use x="337.353516" xlink:href="#DejaVuSans-117"/>
      <use x="400.732422" xlink:href="#DejaVuSans-98"/>
      <use x="464.208984" xlink:href="#DejaVuSans-97"/>
      <use x="525.488281" xlink:href="#DejaVuSans-116"/>
      <use x="564.697266" xlink:href="#DejaVuSans-105"/>
      <use x="592.480469" xlink:href="#DejaVuSans-111"/>
      <use x="653.662109" xlink:href="#DejaVuSans-110"/>
      <use x="717.041016" xlink:href="#DejaVuSans-32"/>
      <use x="748.828125" xlink:href="#DejaVuSans-40"/>
      <use x="787.841797" xlink:href="#DejaVuSans-50"/>
      <use x="851.464844" xlink:href="#DejaVuSans-48"/>
      <use x="915.087891" xlink:href="#DejaVuSans-54"/>
      <use x="978.710938" xlink:href="#DejaVuSans-41"/>
     </g>
    </g>
   </g>
  </g>
 </g>
 <defs>
  <clipPath id="p3ae191bff1">
   <rect height="266.112" width="357.12" x="57.6" y="41.472"/>
  </clipPath>
 </defs>
</svg>
