<?xml version="1.0" encoding="utf-8" standalone="no"?>
<!DOCTYPE svg PUBLIC "-//W3C//DTD SVG 1.1//EN"
  "http://www.w3.org/Graphics/SVG/1.1/DTD/svg11.dtd">
<!-- Created with matplotlib (https://matplotlib.org/) -->
<svg height="345.6pt" version="1.1" viewBox="0 0 460.8 345.6" width="460.8pt" xmlns="http://www.w3.org/2000/svg" xmlns:xlink="http://www.w3.org/1999/xlink">
 <defs>
  <style type="text/css">
*{stroke-linecap:butt;stroke-linejoin:round;}
  </style>
 </defs>
 <g id="figure_1">
  <g id="patch_1">
   <path d="M 0 345.6 
L 460.8 345.6 
L 460.8 0 
L 0 0 
z
" style="fill:#ffffff;"/>
  </g>
  <g id="axes_1">
   <g id="patch_2">
    <path d="M 57.6 307.584 
L 414.72 307.584 
L 414.72 41.472 
L 57.6 41.472 
z
" style="fill:#ffffff;"/>
   </g>
   <g id="PolyCollection_1">
    <defs>
     <path d="M 73.832727 -170.681415 
L 73.832727 -171.462585 
L 77.112066 -171.684626 
L 80.391405 -171.993093 
L 83.670744 -172.400233 
L 86.950083 -172.910184 
L 90.229421 -173.515448 
L 93.50876 -174.195075 
L 96.788099 -174.91577 
L 100.067438 -175.636632 
L 103.346777 -176.3172 
L 106.626116 -176.927392 
L 109.905455 -177.456888 
L 113.184793 -177.921172 
L 116.464132 -178.361939 
L 119.743471 -178.840934 
L 123.02281 -179.428194 
L 126.302149 -180.187435 
L 129.581488 -181.162414 
L 132.860826 -182.367873 
L 136.140165 -183.787375 
L 139.419504 -185.378156 
L 142.698843 -187.081152 
L 145.978182 -188.833134 
L 149.257521 -190.577973 
L 152.53686 -192.275144 
L 155.816198 -193.905044 
L 159.095537 -195.471751 
L 162.374876 -197.004014 
L 165.654215 -198.554688 
L 168.933554 -200.198095 
L 172.212893 -202.024605 
L 175.492231 -204.132401 
L 178.77157 -206.617566 
L 182.050909 -209.564637 
L 185.330248 -213.039798 
L 188.609587 -217.087759 
L 191.888926 -221.731491 
L 195.168264 -226.972408 
L 198.447603 -232.788129 
L 201.726942 -239.126113 
L 205.006281 -245.893836 
L 208.28562 -252.948874 
L 211.564959 -260.09394 
L 214.844298 -267.081883 
L 218.123636 -273.633428 
L 221.402975 -279.466723 
L 224.682314 -284.333739 
L 227.961653 -288.055703 
L 231.240992 -290.549088 
L 234.520331 -291.835452 
L 237.799669 -292.032 
L 241.079008 -291.324055 
L 244.358347 -289.924602 
L 247.637686 -288.029081 
L 250.917025 -285.77518 
L 254.196364 -283.217095 
L 257.475702 -280.321091 
L 260.755041 -276.984181 
L 264.03438 -273.07127 
L 267.313719 -268.460299 
L 270.593058 -263.082261 
L 273.872397 -256.945074 
L 277.151736 -250.136496 
L 280.431074 -242.809087 
L 283.710413 -235.155837 
L 286.989752 -227.386249 
L 290.269091 -219.709202 
L 293.54843 -212.323315 
L 296.827769 -205.41104 
L 300.107107 -199.131646 
L 303.386446 -193.610627 
L 306.665785 -188.927049 
L 309.945124 -185.103294 
L 313.224463 -182.102087 
L 316.503802 -179.833416 
L 319.78314 -178.170485 
L 323.062479 -176.970883 
L 326.341818 -176.097846 
L 329.621157 -175.437065 
L 332.900496 -174.906308 
L 336.179835 -174.457251 
L 339.459174 -174.070658 
L 342.738512 -173.747123 
L 346.017851 -173.496014 
L 349.29719 -173.325138 
L 352.576529 -173.233189 
L 355.855868 -173.206309 
L 359.135207 -173.219076 
L 362.414545 -173.239227 
L 365.693884 -173.234522 
L 368.973223 -173.179672 
L 372.252562 -173.061386 
L 375.531901 -172.880238 
L 378.81124 -172.649116 
L 382.090579 -172.389014 
L 385.369917 -172.123618 
L 388.649256 -171.874267 
L 391.928595 -171.656474 
L 395.207934 -171.47851 
L 398.487273 -171.341876 
L 398.487273 -170.802124 
L 398.487273 -170.802124 
L 395.207934 -170.66549 
L 391.928595 -170.487526 
L 388.649256 -170.269733 
L 385.369917 -170.020382 
L 382.090579 -169.754986 
L 378.81124 -169.494884 
L 375.531901 -169.263762 
L 372.252562 -169.082614 
L 368.973223 -168.964328 
L 365.693884 -168.909478 
L 362.414545 -168.904773 
L 359.135207 -168.924924 
L 355.855868 -168.937691 
L 352.576529 -168.910811 
L 349.29719 -168.818862 
L 346.017851 -168.647986 
L 342.738512 -168.396877 
L 339.459174 -168.073342 
L 336.179835 -167.686749 
L 332.900496 -167.237692 
L 329.621157 -166.706935 
L 326.341818 -166.046154 
L 323.062479 -165.173117 
L 319.78314 -163.973515 
L 316.503802 -162.310584 
L 313.224463 -160.041913 
L 309.945124 -157.040706 
L 306.665785 -153.216951 
L 303.386446 -148.533373 
L 300.107107 -143.012354 
L 296.827769 -136.73296 
L 293.54843 -129.820685 
L 290.269091 -122.434798 
L 286.989752 -114.757751 
L 283.710413 -106.988163 
L 280.431074 -99.334913 
L 277.151736 -92.007504 
L 273.872397 -85.198926 
L 270.593058 -79.061739 
L 267.313719 -73.683701 
L 264.03438 -69.07273 
L 260.755041 -65.159819 
L 257.475702 -61.822909 
L 254.196364 -58.926905 
L 250.917025 -56.36882 
L 247.637686 -54.114919 
L 244.358347 -52.219398 
L 241.079008 -50.819945 
L 237.799669 -50.112 
L 234.520331 -50.308548 
L 231.240992 -51.594912 
L 227.961653 -54.088297 
L 224.682314 -57.810261 
L 221.402975 -62.677277 
L 218.123636 -68.510572 
L 214.844298 -75.062117 
L 211.564959 -82.05006 
L 208.28562 -89.195126 
L 205.006281 -96.250164 
L 201.726942 -103.017887 
L 198.447603 -109.355871 
L 195.168264 -115.171592 
L 191.888926 -120.412509 
L 188.609587 -125.056241 
L 185.330248 -129.104202 
L 182.050909 -132.579363 
L 178.77157 -135.526434 
L 175.492231 -138.011599 
L 172.212893 -140.119395 
L 168.933554 -141.945905 
L 165.654215 -143.589312 
L 162.374876 -145.139986 
L 159.095537 -146.672249 
L 155.816198 -148.238956 
L 152.53686 -149.868856 
L 149.257521 -151.566027 
L 145.978182 -153.310866 
L 142.698843 -155.062848 
L 139.419504 -156.765844 
L 136.140165 -158.356625 
L 132.860826 -159.776127 
L 129.581488 -160.981586 
L 126.302149 -161.956565 
L 123.02281 -162.715806 
L 119.743471 -163.303066 
L 116.464132 -163.782061 
L 113.184793 -164.222828 
L 109.905455 -164.687112 
L 106.626116 -165.216608 
L 103.346777 -165.8268 
L 100.067438 -166.507368 
L 96.788099 -167.22823 
L 93.50876 -167.948925 
L 90.229421 -168.628552 
L 86.950083 -169.233816 
L 83.670744 -169.743767 
L 80.391405 -170.150907 
L 77.112066 -170.459374 
L 73.832727 -170.681415 
z
" id="ma4395dac85" style="stroke:#4c4c4c;stroke-opacity:0.5;stroke-width:1.5;"/>
    </defs>
    <g clip-path="url(#p4c4dbf5c81)">
     <use style="fill:#df9c20;fill-opacity:0.5;stroke:#4c4c4c;stroke-opacity:0.5;stroke-width:1.5;" x="0" xlink:href="#ma4395dac85" y="345.6"/>
    </g>
   </g>
   <g id="PolyCollection_2">
    <defs>
     <path d="M 81.253991 -170.901109 
L 81.253991 -171.242891 
L 84.023018 -171.341224 
L 86.792046 -171.472045 
L 89.561073 -171.632681 
L 92.3301 -171.813235 
L 95.099128 -171.996436 
L 97.868155 -172.159881 
L 100.637183 -172.280627 
L 103.40621 -172.341095 
L 106.175237 -172.334506 
L 108.944265 -172.268074 
L 111.713292 -172.162858 
L 114.48232 -172.050407 
L 117.251347 -171.967328 
L 120.020375 -171.949373 
L 122.789402 -172.026361 
L 125.558429 -172.218663 
L 128.327457 -172.535358 
L 131.096484 -172.973924 
L 133.865512 -173.521323 
L 136.634539 -174.156473 
L 139.403566 -174.854038 
L 142.172594 -175.589309 
L 144.941621 -176.343653 
L 147.710649 -177.109752 
L 150.479676 -177.895684 
L 153.248703 -178.726856 
L 156.017731 -179.644914 
L 158.786758 -180.703085 
L 161.555786 -181.958028 
L 164.324813 -183.459185 
L 167.093841 -185.237834 
L 169.862868 -187.299164 
L 172.631895 -189.621151 
L 175.400923 -192.162997 
L 178.16995 -194.882945 
L 180.938978 -197.761045 
L 183.708005 -200.818572 
L 186.477032 -204.124669 
L 189.24606 -207.783588 
L 192.015087 -211.902335 
L 194.784115 -216.546185 
L 197.553142 -221.695607 
L 200.32217 -227.220164 
L 203.091197 -232.881989 
L 205.860224 -238.373679 
L 208.629252 -243.384643 
L 211.398279 -247.679249 
L 214.167307 -251.163423 
L 216.936334 -253.917363 
L 219.705361 -256.181441 
L 222.474389 -258.297311 
L 225.243416 -260.620855 
L 228.012444 -263.431853 
L 230.781471 -266.864767 
L 233.550499 -270.877009 
L 236.319526 -275.260013 
L 239.088553 -279.688009 
L 241.857581 -283.791608 
L 244.626608 -287.238122 
L 247.395636 -289.798399 
L 250.164663 -291.382167 
L 252.93369 -292.032 
L 255.702718 -291.879017 
L 258.471745 -291.077194 
L 261.240773 -289.74129 
L 264.0098 -287.911528 
L 266.778828 -285.556263 
L 269.547855 -282.607308 
L 272.316882 -279.008824 
L 275.08591 -274.756238 
L 277.854937 -269.908114 
L 280.623965 -264.567951 
L 283.392992 -258.847625 
L 286.162019 -252.832497 
L 288.931047 -246.566447 
L 291.700074 -240.064297 
L 294.469102 -233.345049 
L 297.238129 -226.468935 
L 300.007156 -219.559552 
L 302.776184 -212.799584 
L 305.545211 -206.400833 
L 308.314239 -200.560368 
L 311.083266 -195.419555 
L 313.852294 -191.040057 
L 316.621321 -187.402777 
L 319.390348 -184.426581 
L 322.159376 -181.997394 
L 324.928403 -179.997026 
L 327.697431 -178.323969 
L 330.466458 -176.903258 
L 333.235485 -175.686721 
L 336.004513 -174.647178 
L 338.77354 -173.770373 
L 341.542568 -173.047417 
L 344.311595 -172.469246 
L 347.080623 -172.02355 
L 349.84965 -171.693997 
L 352.618677 -171.461183 
L 355.387705 -171.304534 
L 355.387705 -170.839466 
L 355.387705 -170.839466 
L 352.618677 -170.682817 
L 349.84965 -170.450003 
L 347.080623 -170.12045 
L 344.311595 -169.674754 
L 341.542568 -169.096583 
L 338.77354 -168.373627 
L 336.004513 -167.496822 
L 333.235485 -166.457279 
L 330.466458 -165.240742 
L 327.697431 -163.820031 
L 324.928403 -162.146974 
L 322.159376 -160.146606 
L 319.390348 -157.717419 
L 316.621321 -154.741223 
L 313.852294 -151.103943 
L 311.083266 -146.724445 
L 308.314239 -141.583632 
L 305.545211 -135.743167 
L 302.776184 -129.344416 
L 300.007156 -122.584448 
L 297.238129 -115.675065 
L 294.469102 -108.798951 
L 291.700074 -102.079703 
L 288.931047 -95.577553 
L 286.162019 -89.311503 
L 283.392992 -83.296375 
L 280.623965 -77.576049 
L 277.854937 -72.235886 
L 275.08591 -67.387762 
L 272.316882 -63.135176 
L 269.547855 -59.536692 
L 266.778828 -56.587737 
L 264.0098 -54.232472 
L 261.240773 -52.40271 
L 258.471745 -51.066806 
L 255.702718 -50.264983 
L 252.93369 -50.112 
L 250.164663 -50.761833 
L 247.395636 -52.345601 
L 244.626608 -54.905878 
L 241.857581 -58.352392 
L 239.088553 -62.455991 
L 236.319526 -66.883987 
L 233.550499 -71.266991 
L 230.781471 -75.279233 
L 228.012444 -78.712147 
L 225.243416 -81.523145 
L 222.474389 -83.846689 
L 219.705361 -85.962559 
L 216.936334 -88.226637 
L 214.167307 -90.980577 
L 211.398279 -94.464751 
L 208.629252 -98.759357 
L 205.860224 -103.770321 
L 203.091197 -109.262011 
L 200.32217 -114.923836 
L 197.553142 -120.448393 
L 194.784115 -125.597815 
L 192.015087 -130.241665 
L 189.24606 -134.360412 
L 186.477032 -138.019331 
L 183.708005 -141.325428 
L 180.938978 -144.382955 
L 178.16995 -147.261055 
L 175.400923 -149.981003 
L 172.631895 -152.522849 
L 169.862868 -154.844836 
L 167.093841 -156.906166 
L 164.324813 -158.684815 
L 161.555786 -160.185972 
L 158.786758 -161.440915 
L 156.017731 -162.499086 
L 153.248703 -163.417144 
L 150.479676 -164.248316 
L 147.710649 -165.034248 
L 144.941621 -165.800347 
L 142.172594 -166.554691 
L 139.403566 -167.289962 
L 136.634539 -167.987527 
L 133.865512 -168.622677 
L 131.096484 -169.170076 
L 128.327457 -169.608642 
L 125.558429 -169.925337 
L 122.789402 -170.117639 
L 120.020375 -170.194627 
L 117.251347 -170.176672 
L 114.48232 -170.093593 
L 111.713292 -169.981142 
L 108.944265 -169.875926 
L 106.175237 -169.809494 
L 103.40621 -169.802905 
L 100.637183 -169.863373 
L 97.868155 -169.984119 
L 95.099128 -170.147564 
L 92.3301 -170.330765 
L 89.561073 -170.511319 
L 86.792046 -170.671955 
L 84.023018 -170.802776 
L 81.253991 -170.901109 
z
" id="m960889c299" style="stroke:#262626;stroke-opacity:0.5;stroke-width:1.5;"/>
    </defs>
    <g clip-path="url(#p4c4dbf5c81)">
     <use style="fill:#107010;fill-opacity:0.5;stroke:#262626;stroke-opacity:0.5;stroke-width:1.5;" x="0" xlink:href="#m960889c299" y="345.6"/>
    </g>
   </g>
   <g id="matplotlib.axis_1">
    <g id="xtick_1">
     <g id="line2d_1">
      <defs>
       <path d="M 0 0 
L 0 3.5 
" id="m792ce413ff" style="stroke:#000000;stroke-width:0.8;"/>
      </defs>
      <g>
       <use style="stroke:#000000;stroke-width:0.8;" x="111.285934" xlink:href="#m792ce413ff" y="307.584"/>
      </g>
     </g>
     <g id="text_1">
      <!-- 2 -->
      <defs>
       <path d="M 19.1875 8.296875 
L 53.609375 8.296875 
L 53.609375 0 
L 7.328125 0 
L 7.328125 8.296875 
Q 12.9375 14.109375 22.625 23.890625 
Q 32.328125 33.6875 34.8125 36.53125 
Q 39.546875 41.84375 41.421875 45.53125 
Q 43.3125 49.21875 43.3125 52.78125 
Q 43.3125 58.59375 39.234375 62.25 
Q 35.15625 65.921875 28.609375 65.921875 
Q 23.96875 65.921875 18.8125 64.3125 
Q 13.671875 62.703125 7.8125 59.421875 
L 7.8125 69.390625 
Q 13.765625 71.78125 18.9375 73 
Q 24.125 74.21875 28.421875 74.21875 
Q 39.75 74.21875 46.484375 68.546875 
Q 53.21875 62.890625 53.21875 53.421875 
Q 53.21875 48.921875 51.53125 44.890625 
Q 49.859375 40.875 45.40625 35.40625 
Q 44.1875 33.984375 37.640625 27.21875 
Q 31.109375 20.453125 19.1875 8.296875 
z
" id="DejaVuSans-50"/>
      </defs>
      <g transform="translate(108.104684 322.182437)scale(0.1 -0.1)">
       <use xlink:href="#DejaVuSans-50"/>
      </g>
     </g>
    </g>
    <g id="xtick_2">
     <g id="line2d_2">
      <g>
       <use style="stroke:#000000;stroke-width:0.8;" x="182.642543" xlink:href="#m792ce413ff" y="307.584"/>
      </g>
     </g>
     <g id="text_2">
      <!-- 3 -->
      <defs>
       <path d="M 40.578125 39.3125 
Q 47.65625 37.796875 51.625 33 
Q 55.609375 28.21875 55.609375 21.1875 
Q 55.609375 10.40625 48.1875 4.484375 
Q 40.765625 -1.421875 27.09375 -1.421875 
Q 22.515625 -1.421875 17.65625 -0.515625 
Q 12.796875 0.390625 7.625 2.203125 
L 7.625 11.71875 
Q 11.71875 9.328125 16.59375 8.109375 
Q 21.484375 6.890625 26.8125 6.890625 
Q 36.078125 6.890625 40.9375 10.546875 
Q 45.796875 14.203125 45.796875 21.1875 
Q 45.796875 27.640625 41.28125 31.265625 
Q 36.765625 34.90625 28.71875 34.90625 
L 20.21875 34.90625 
L 20.21875 43.015625 
L 29.109375 43.015625 
Q 36.375 43.015625 40.234375 45.921875 
Q 44.09375 48.828125 44.09375 54.296875 
Q 44.09375 59.90625 40.109375 62.90625 
Q 36.140625 65.921875 28.71875 65.921875 
Q 24.65625 65.921875 20.015625 65.03125 
Q 15.375 64.15625 9.8125 62.3125 
L 9.8125 71.09375 
Q 15.4375 72.65625 20.34375 73.4375 
Q 25.25 74.21875 29.59375 74.21875 
Q 40.828125 74.21875 47.359375 69.109375 
Q 53.90625 64.015625 53.90625 55.328125 
Q 53.90625 49.265625 50.4375 45.09375 
Q 46.96875 40.921875 40.578125 39.3125 
z
" id="DejaVuSans-51"/>
      </defs>
      <g transform="translate(179.461293 322.182437)scale(0.1 -0.1)">
       <use xlink:href="#DejaVuSans-51"/>
      </g>
     </g>
    </g>
    <g id="xtick_3">
     <g id="line2d_3">
      <g>
       <use style="stroke:#000000;stroke-width:0.8;" x="253.999152" xlink:href="#m792ce413ff" y="307.584"/>
      </g>
     </g>
     <g id="text_3">
      <!-- 4 -->
      <defs>
       <path d="M 37.796875 64.3125 
L 12.890625 25.390625 
L 37.796875 25.390625 
z
M 35.203125 72.90625 
L 47.609375 72.90625 
L 47.609375 25.390625 
L 58.015625 25.390625 
L 58.015625 17.1875 
L 47.609375 17.1875 
L 47.609375 0 
L 37.796875 0 
L 37.796875 17.1875 
L 4.890625 17.1875 
L 4.890625 26.703125 
z
" id="DejaVuSans-52"/>
      </defs>
      <g transform="translate(250.817902 322.182437)scale(0.1 -0.1)">
       <use xlink:href="#DejaVuSans-52"/>
      </g>
     </g>
    </g>
    <g id="xtick_4">
     <g id="line2d_4">
      <g>
       <use style="stroke:#000000;stroke-width:0.8;" x="325.355761" xlink:href="#m792ce413ff" y="307.584"/>
      </g>
     </g>
     <g id="text_4">
      <!-- 5 -->
      <defs>
       <path d="M 10.796875 72.90625 
L 49.515625 72.90625 
L 49.515625 64.59375 
L 19.828125 64.59375 
L 19.828125 46.734375 
Q 21.96875 47.46875 24.109375 47.828125 
Q 26.265625 48.1875 28.421875 48.1875 
Q 40.625 48.1875 47.75 41.5 
Q 54.890625 34.8125 54.890625 23.390625 
Q 54.890625 11.625 47.5625 5.09375 
Q 40.234375 -1.421875 26.90625 -1.421875 
Q 22.3125 -1.421875 17.546875 -0.640625 
Q 12.796875 0.140625 7.71875 1.703125 
L 7.71875 11.625 
Q 12.109375 9.234375 16.796875 8.0625 
Q 21.484375 6.890625 26.703125 6.890625 
Q 35.15625 6.890625 40.078125 11.328125 
Q 45.015625 15.765625 45.015625 23.390625 
Q 45.015625 31 40.078125 35.4375 
Q 35.15625 39.890625 26.703125 39.890625 
Q 22.75 39.890625 18.8125 39.015625 
Q 14.890625 38.140625 10.796875 36.28125 
z
" id="DejaVuSans-53"/>
      </defs>
      <g transform="translate(322.174511 322.182437)scale(0.1 -0.1)">
       <use xlink:href="#DejaVuSans-53"/>
      </g>
     </g>
    </g>
    <g id="xtick_5">
     <g id="line2d_5">
      <g>
       <use style="stroke:#000000;stroke-width:0.8;" x="396.71237" xlink:href="#m792ce413ff" y="307.584"/>
      </g>
     </g>
     <g id="text_5">
      <!-- 6 -->
      <defs>
       <path d="M 33.015625 40.375 
Q 26.375 40.375 22.484375 35.828125 
Q 18.609375 31.296875 18.609375 23.390625 
Q 18.609375 15.53125 22.484375 10.953125 
Q 26.375 6.390625 33.015625 6.390625 
Q 39.65625 6.390625 43.53125 10.953125 
Q 47.40625 15.53125 47.40625 23.390625 
Q 47.40625 31.296875 43.53125 35.828125 
Q 39.65625 40.375 33.015625 40.375 
z
M 52.59375 71.296875 
L 52.59375 62.3125 
Q 48.875 64.0625 45.09375 64.984375 
Q 41.3125 65.921875 37.59375 65.921875 
Q 27.828125 65.921875 22.671875 59.328125 
Q 17.53125 52.734375 16.796875 39.40625 
Q 19.671875 43.65625 24.015625 45.921875 
Q 28.375 48.1875 33.59375 48.1875 
Q 44.578125 48.1875 50.953125 41.515625 
Q 57.328125 34.859375 57.328125 23.390625 
Q 57.328125 12.15625 50.6875 5.359375 
Q 44.046875 -1.421875 33.015625 -1.421875 
Q 20.359375 -1.421875 13.671875 8.265625 
Q 6.984375 17.96875 6.984375 36.375 
Q 6.984375 53.65625 15.1875 63.9375 
Q 23.390625 74.21875 37.203125 74.21875 
Q 40.921875 74.21875 44.703125 73.484375 
Q 48.484375 72.75 52.59375 71.296875 
z
" id="DejaVuSans-54"/>
      </defs>
      <g transform="translate(393.53112 322.182437)scale(0.1 -0.1)">
       <use xlink:href="#DejaVuSans-54"/>
      </g>
     </g>
    </g>
    <g id="text_6">
     <!-- albadmac -->
     <defs>
      <path d="M 34.28125 27.484375 
Q 23.390625 27.484375 19.1875 25 
Q 14.984375 22.515625 14.984375 16.5 
Q 14.984375 11.71875 18.140625 8.90625 
Q 21.296875 6.109375 26.703125 6.109375 
Q 34.1875 6.109375 38.703125 11.40625 
Q 43.21875 16.703125 43.21875 25.484375 
L 43.21875 27.484375 
z
M 52.203125 31.203125 
L 52.203125 0 
L 43.21875 0 
L 43.21875 8.296875 
Q 40.140625 3.328125 35.546875 0.953125 
Q 30.953125 -1.421875 24.3125 -1.421875 
Q 15.921875 -1.421875 10.953125 3.296875 
Q 6 8.015625 6 15.921875 
Q 6 25.140625 12.171875 29.828125 
Q 18.359375 34.515625 30.609375 34.515625 
L 43.21875 34.515625 
L 43.21875 35.40625 
Q 43.21875 41.609375 39.140625 45 
Q 35.0625 48.390625 27.6875 48.390625 
Q 23 48.390625 18.546875 47.265625 
Q 14.109375 46.140625 10.015625 43.890625 
L 10.015625 52.203125 
Q 14.9375 54.109375 19.578125 55.046875 
Q 24.21875 56 28.609375 56 
Q 40.484375 56 46.34375 49.84375 
Q 52.203125 43.703125 52.203125 31.203125 
z
" id="DejaVuSans-97"/>
      <path d="M 9.421875 75.984375 
L 18.40625 75.984375 
L 18.40625 0 
L 9.421875 0 
z
" id="DejaVuSans-108"/>
      <path d="M 48.6875 27.296875 
Q 48.6875 37.203125 44.609375 42.84375 
Q 40.53125 48.484375 33.40625 48.484375 
Q 26.265625 48.484375 22.1875 42.84375 
Q 18.109375 37.203125 18.109375 27.296875 
Q 18.109375 17.390625 22.1875 11.75 
Q 26.265625 6.109375 33.40625 6.109375 
Q 40.53125 6.109375 44.609375 11.75 
Q 48.6875 17.390625 48.6875 27.296875 
z
M 18.109375 46.390625 
Q 20.953125 51.265625 25.265625 53.625 
Q 29.59375 56 35.59375 56 
Q 45.5625 56 51.78125 48.09375 
Q 58.015625 40.1875 58.015625 27.296875 
Q 58.015625 14.40625 51.78125 6.484375 
Q 45.5625 -1.421875 35.59375 -1.421875 
Q 29.59375 -1.421875 25.265625 0.953125 
Q 20.953125 3.328125 18.109375 8.203125 
L 18.109375 0 
L 9.078125 0 
L 9.078125 75.984375 
L 18.109375 75.984375 
z
" id="DejaVuSans-98"/>
      <path d="M 45.40625 46.390625 
L 45.40625 75.984375 
L 54.390625 75.984375 
L 54.390625 0 
L 45.40625 0 
L 45.40625 8.203125 
Q 42.578125 3.328125 38.25 0.953125 
Q 33.9375 -1.421875 27.875 -1.421875 
Q 17.96875 -1.421875 11.734375 6.484375 
Q 5.515625 14.40625 5.515625 27.296875 
Q 5.515625 40.1875 11.734375 48.09375 
Q 17.96875 56 27.875 56 
Q 33.9375 56 38.25 53.625 
Q 42.578125 51.265625 45.40625 46.390625 
z
M 14.796875 27.296875 
Q 14.796875 17.390625 18.875 11.75 
Q 22.953125 6.109375 30.078125 6.109375 
Q 37.203125 6.109375 41.296875 11.75 
Q 45.40625 17.390625 45.40625 27.296875 
Q 45.40625 37.203125 41.296875 42.84375 
Q 37.203125 48.484375 30.078125 48.484375 
Q 22.953125 48.484375 18.875 42.84375 
Q 14.796875 37.203125 14.796875 27.296875 
z
" id="DejaVuSans-100"/>
      <path d="M 52 44.1875 
Q 55.375 50.25 60.0625 53.125 
Q 64.75 56 71.09375 56 
Q 79.640625 56 84.28125 50.015625 
Q 88.921875 44.046875 88.921875 33.015625 
L 88.921875 0 
L 79.890625 0 
L 79.890625 32.71875 
Q 79.890625 40.578125 77.09375 44.375 
Q 74.3125 48.1875 68.609375 48.1875 
Q 61.625 48.1875 57.5625 43.546875 
Q 53.515625 38.921875 53.515625 30.90625 
L 53.515625 0 
L 44.484375 0 
L 44.484375 32.71875 
Q 44.484375 40.625 41.703125 44.40625 
Q 38.921875 48.1875 33.109375 48.1875 
Q 26.21875 48.1875 22.15625 43.53125 
Q 18.109375 38.875 18.109375 30.90625 
L 18.109375 0 
L 9.078125 0 
L 9.078125 54.6875 
L 18.109375 54.6875 
L 18.109375 46.1875 
Q 21.1875 51.21875 25.484375 53.609375 
Q 29.78125 56 35.6875 56 
Q 41.65625 56 45.828125 52.96875 
Q 50 49.953125 52 44.1875 
z
" id="DejaVuSans-109"/>
      <path d="M 48.78125 52.59375 
L 48.78125 44.1875 
Q 44.96875 46.296875 41.140625 47.34375 
Q 37.3125 48.390625 33.40625 48.390625 
Q 24.65625 48.390625 19.8125 42.84375 
Q 14.984375 37.3125 14.984375 27.296875 
Q 14.984375 17.28125 19.8125 11.734375 
Q 24.65625 6.203125 33.40625 6.203125 
Q 37.3125 6.203125 41.140625 7.25 
Q 44.96875 8.296875 48.78125 10.40625 
L 48.78125 2.09375 
Q 45.015625 0.34375 40.984375 -0.53125 
Q 36.96875 -1.421875 32.421875 -1.421875 
Q 20.0625 -1.421875 12.78125 6.34375 
Q 5.515625 14.109375 5.515625 27.296875 
Q 5.515625 40.671875 12.859375 48.328125 
Q 20.21875 56 33.015625 56 
Q 37.15625 56 41.109375 55.140625 
Q 45.0625 54.296875 48.78125 52.59375 
z
" id="DejaVuSans-99"/>
     </defs>
     <g transform="translate(211.610781 335.860562)scale(0.1 -0.1)">
      <use xlink:href="#DejaVuSans-97"/>
      <use x="61.279297" xlink:href="#DejaVuSans-108"/>
      <use x="89.0625" xlink:href="#DejaVuSans-98"/>
      <use x="152.539062" xlink:href="#DejaVuSans-97"/>
      <use x="213.818359" xlink:href="#DejaVuSans-100"/>
      <use x="277.294922" xlink:href="#DejaVuSans-109"/>
      <use x="374.707031" xlink:href="#DejaVuSans-97"/>
      <use x="435.986328" xlink:href="#DejaVuSans-99"/>
     </g>
    </g>
   </g>
   <g id="matplotlib.axis_2">
    <g id="ytick_1">
     <g id="line2d_6">
      <defs>
       <path d="M 0 0 
L -3.5 0 
" id="m1cff303afa" style="stroke:#000000;stroke-width:0.8;"/>
      </defs>
      <g>
       <use style="stroke:#000000;stroke-width:0.8;" x="57.6" xlink:href="#m1cff303afa" y="174.528"/>
      </g>
     </g>
    </g>
   </g>
   <g id="line2d_7">
    <path clip-path="url(#p4c4dbf5c81)" d="M 139.828578 174.528 
L 332.491422 174.528 
" style="fill:none;stroke:#ffa500;stroke-linecap:square;stroke-width:1.5;"/>
   </g>
   <g id="line2d_8">
    <path clip-path="url(#p4c4dbf5c81)" d="M 211.185187 174.528 
L 261.134813 174.528 
" style="fill:none;stroke:#4c4c4c;stroke-linecap:square;stroke-width:4.5;"/>
   </g>
   <g id="line2d_9">
    <path clip-path="url(#p4c4dbf5c81)" d="M 139.828578 174.528 
L 332.491422 174.528 
" style="fill:none;stroke:#008000;stroke-linecap:square;stroke-width:1.5;"/>
   </g>
   <g id="line2d_10">
    <path clip-path="url(#p4c4dbf5c81)" d="M 218.320848 174.528 
L 275.406135 174.528 
" style="fill:none;stroke:#262626;stroke-linecap:square;stroke-width:4.5;"/>
   </g>
   <g id="patch_3">
    <path d="M 57.6 307.584 
L 57.6 41.472 
" style="fill:none;stroke:#000000;stroke-linecap:square;stroke-linejoin:miter;stroke-width:0.8;"/>
   </g>
   <g id="patch_4">
    <path d="M 414.72 307.584 
L 414.72 41.472 
" style="fill:none;stroke:#000000;stroke-linecap:square;stroke-linejoin:miter;stroke-width:0.8;"/>
   </g>
   <g id="patch_5">
    <path d="M 57.6 307.584 
L 414.72 307.584 
" style="fill:none;stroke:#000000;stroke-linecap:square;stroke-linejoin:miter;stroke-width:0.8;"/>
   </g>
   <g id="patch_6">
    <path d="M 57.6 41.472 
L 414.72 41.472 
" style="fill:none;stroke:#000000;stroke-linecap:square;stroke-linejoin:miter;stroke-width:0.8;"/>
   </g>
   <g id="PathCollection_1">
    <defs>
     <path d="M 0 1.5 
C 0.397805 1.5 0.77937 1.341951 1.06066 1.06066 
C 1.341951 0.77937 1.5 0.397805 1.5 0 
C 1.5 -0.397805 1.341951 -0.77937 1.06066 -1.06066 
C 0.77937 -1.341951 0.397805 -1.5 0 -1.5 
C -0.397805 -1.5 -0.77937 -1.341951 -1.06066 -1.06066 
C -1.341951 -0.77937 -1.5 -0.397805 -1.5 0 
C -1.5 0.397805 -1.341951 0.77937 -1.06066 1.06066 
C -0.77937 1.341951 -0.397805 1.5 0 1.5 
z
" id="mdc12a56c5b" style="stroke:#4c4c4c;stroke-opacity:0.5;"/>
    </defs>
    <g clip-path="url(#p4c4dbf5c81)">
     <use style="fill:#ffffff;fill-opacity:0.5;stroke:#4c4c4c;stroke-opacity:0.5;" x="239.72783" xlink:href="#mdc12a56c5b" y="174.528"/>
    </g>
   </g>
   <g id="PathCollection_2">
    <defs>
     <path d="M 0 1.5 
C 0.397805 1.5 0.77937 1.341951 1.06066 1.06066 
C 1.341951 0.77937 1.5 0.397805 1.5 0 
C 1.5 -0.397805 1.341951 -0.77937 1.06066 -1.06066 
C 0.77937 -1.341951 0.397805 -1.5 0 -1.5 
C -0.397805 -1.5 -0.77937 -1.341951 -1.06066 -1.06066 
C -1.341951 -0.77937 -1.5 -0.397805 -1.5 0 
C -1.5 0.397805 -1.341951 0.77937 -1.06066 1.06066 
C -0.77937 1.341951 -0.397805 1.5 0 1.5 
z
" id="mf37a1eee8f" style="stroke:#262626;stroke-opacity:0.5;"/>
    </defs>
    <g clip-path="url(#p4c4dbf5c81)">
     <use style="fill:#ffffff;fill-opacity:0.5;stroke:#262626;stroke-opacity:0.5;" x="246.863491" xlink:href="#mf37a1eee8f" y="174.528"/>
    </g>
   </g>
   <g id="text_7">
    <!-- Association of albadmac vs. sepsis -->
    <defs>
     <path d="M 34.1875 63.1875 
L 20.796875 26.90625 
L 47.609375 26.90625 
z
M 28.609375 72.90625 
L 39.796875 72.90625 
L 67.578125 0 
L 57.328125 0 
L 50.6875 18.703125 
L 17.828125 18.703125 
L 11.1875 0 
L 0.78125 0 
z
" id="DejaVuSans-65"/>
     <path d="M 44.28125 53.078125 
L 44.28125 44.578125 
Q 40.484375 46.53125 36.375 47.5 
Q 32.28125 48.484375 27.875 48.484375 
Q 21.1875 48.484375 17.84375 46.4375 
Q 14.5 44.390625 14.5 40.28125 
Q 14.5 37.15625 16.890625 35.375 
Q 19.28125 33.59375 26.515625 31.984375 
L 29.59375 31.296875 
Q 39.15625 29.25 43.1875 25.515625 
Q 47.21875 21.78125 47.21875 15.09375 
Q 47.21875 7.46875 41.1875 3.015625 
Q 35.15625 -1.421875 24.609375 -1.421875 
Q 20.21875 -1.421875 15.453125 -0.5625 
Q 10.6875 0.296875 5.421875 2 
L 5.421875 11.28125 
Q 10.40625 8.6875 15.234375 7.390625 
Q 20.0625 6.109375 24.8125 6.109375 
Q 31.15625 6.109375 34.5625 8.28125 
Q 37.984375 10.453125 37.984375 14.40625 
Q 37.984375 18.0625 35.515625 20.015625 
Q 33.0625 21.96875 24.703125 23.78125 
L 21.578125 24.515625 
Q 13.234375 26.265625 9.515625 29.90625 
Q 5.8125 33.546875 5.8125 39.890625 
Q 5.8125 47.609375 11.28125 51.796875 
Q 16.75 56 26.8125 56 
Q 31.78125 56 36.171875 55.265625 
Q 40.578125 54.546875 44.28125 53.078125 
z
" id="DejaVuSans-115"/>
     <path d="M 30.609375 48.390625 
Q 23.390625 48.390625 19.1875 42.75 
Q 14.984375 37.109375 14.984375 27.296875 
Q 14.984375 17.484375 19.15625 11.84375 
Q 23.34375 6.203125 30.609375 6.203125 
Q 37.796875 6.203125 41.984375 11.859375 
Q 46.1875 17.53125 46.1875 27.296875 
Q 46.1875 37.015625 41.984375 42.703125 
Q 37.796875 48.390625 30.609375 48.390625 
z
M 30.609375 56 
Q 42.328125 56 49.015625 48.375 
Q 55.71875 40.765625 55.71875 27.296875 
Q 55.71875 13.875 49.015625 6.21875 
Q 42.328125 -1.421875 30.609375 -1.421875 
Q 18.84375 -1.421875 12.171875 6.21875 
Q 5.515625 13.875 5.515625 27.296875 
Q 5.515625 40.765625 12.171875 48.375 
Q 18.84375 56 30.609375 56 
z
" id="DejaVuSans-111"/>
     <path d="M 9.421875 54.6875 
L 18.40625 54.6875 
L 18.40625 0 
L 9.421875 0 
z
M 9.421875 75.984375 
L 18.40625 75.984375 
L 18.40625 64.59375 
L 9.421875 64.59375 
z
" id="DejaVuSans-105"/>
     <path d="M 18.3125 70.21875 
L 18.3125 54.6875 
L 36.8125 54.6875 
L 36.8125 47.703125 
L 18.3125 47.703125 
L 18.3125 18.015625 
Q 18.3125 11.328125 20.140625 9.421875 
Q 21.96875 7.515625 27.59375 7.515625 
L 36.8125 7.515625 
L 36.8125 0 
L 27.59375 0 
Q 17.1875 0 13.234375 3.875 
Q 9.28125 7.765625 9.28125 18.015625 
L 9.28125 47.703125 
L 2.6875 47.703125 
L 2.6875 54.6875 
L 9.28125 54.6875 
L 9.28125 70.21875 
z
" id="DejaVuSans-116"/>
     <path d="M 54.890625 33.015625 
L 54.890625 0 
L 45.90625 0 
L 45.90625 32.71875 
Q 45.90625 40.484375 42.875 44.328125 
Q 39.84375 48.1875 33.796875 48.1875 
Q 26.515625 48.1875 22.3125 43.546875 
Q 18.109375 38.921875 18.109375 30.90625 
L 18.109375 0 
L 9.078125 0 
L 9.078125 54.6875 
L 18.109375 54.6875 
L 18.109375 46.1875 
Q 21.34375 51.125 25.703125 53.5625 
Q 30.078125 56 35.796875 56 
Q 45.21875 56 50.046875 50.171875 
Q 54.890625 44.34375 54.890625 33.015625 
z
" id="DejaVuSans-110"/>
     <path id="DejaVuSans-32"/>
     <path d="M 37.109375 75.984375 
L 37.109375 68.5 
L 28.515625 68.5 
Q 23.6875 68.5 21.796875 66.546875 
Q 19.921875 64.59375 19.921875 59.515625 
L 19.921875 54.6875 
L 34.71875 54.6875 
L 34.71875 47.703125 
L 19.921875 47.703125 
L 19.921875 0 
L 10.890625 0 
L 10.890625 47.703125 
L 2.296875 47.703125 
L 2.296875 54.6875 
L 10.890625 54.6875 
L 10.890625 58.5 
Q 10.890625 67.625 15.140625 71.796875 
Q 19.390625 75.984375 28.609375 75.984375 
z
" id="DejaVuSans-102"/>
     <path d="M 2.984375 54.6875 
L 12.5 54.6875 
L 29.59375 8.796875 
L 46.6875 54.6875 
L 56.203125 54.6875 
L 35.6875 0 
L 23.484375 0 
z
" id="DejaVuSans-118"/>
     <path d="M 10.6875 12.40625 
L 21 12.40625 
L 21 0 
L 10.6875 0 
z
" id="DejaVuSans-46"/>
     <path d="M 56.203125 29.59375 
L 56.203125 25.203125 
L 14.890625 25.203125 
Q 15.484375 15.921875 20.484375 11.0625 
Q 25.484375 6.203125 34.421875 6.203125 
Q 39.59375 6.203125 44.453125 7.46875 
Q 49.3125 8.734375 54.109375 11.28125 
L 54.109375 2.78125 
Q 49.265625 0.734375 44.1875 -0.34375 
Q 39.109375 -1.421875 33.890625 -1.421875 
Q 20.796875 -1.421875 13.15625 6.1875 
Q 5.515625 13.8125 5.515625 26.8125 
Q 5.515625 40.234375 12.765625 48.109375 
Q 20.015625 56 32.328125 56 
Q 43.359375 56 49.78125 48.890625 
Q 56.203125 41.796875 56.203125 29.59375 
z
M 47.21875 32.234375 
Q 47.125 39.59375 43.09375 43.984375 
Q 39.0625 48.390625 32.421875 48.390625 
Q 24.90625 48.390625 20.390625 44.140625 
Q 15.875 39.890625 15.1875 32.171875 
z
" id="DejaVuSans-101"/>
     <path d="M 18.109375 8.203125 
L 18.109375 -20.796875 
L 9.078125 -20.796875 
L 9.078125 54.6875 
L 18.109375 54.6875 
L 18.109375 46.390625 
Q 20.953125 51.265625 25.265625 53.625 
Q 29.59375 56 35.59375 56 
Q 45.5625 56 51.78125 48.09375 
Q 58.015625 40.1875 58.015625 27.296875 
Q 58.015625 14.40625 51.78125 6.484375 
Q 45.5625 -1.421875 35.59375 -1.421875 
Q 29.59375 -1.421875 25.265625 0.953125 
Q 20.953125 3.328125 18.109375 8.203125 
z
M 48.6875 27.296875 
Q 48.6875 37.203125 44.609375 42.84375 
Q 40.53125 48.484375 33.40625 48.484375 
Q 26.265625 48.484375 22.1875 42.84375 
Q 18.109375 37.203125 18.109375 27.296875 
Q 18.109375 17.390625 22.1875 11.75 
Q 26.265625 6.109375 33.40625 6.109375 
Q 40.53125 6.109375 44.609375 11.75 
Q 48.6875 17.390625 48.6875 27.296875 
z
" id="DejaVuSans-112"/>
    </defs>
    <g transform="translate(131.999062 35.472)scale(0.12 -0.12)">
     <use xlink:href="#DejaVuSans-65"/>
     <use x="68.408203" xlink:href="#DejaVuSans-115"/>
     <use x="120.507812" xlink:href="#DejaVuSans-115"/>
     <use x="172.607422" xlink:href="#DejaVuSans-111"/>
     <use x="233.789062" xlink:href="#DejaVuSans-99"/>
     <use x="288.769531" xlink:href="#DejaVuSans-105"/>
     <use x="316.552734" xlink:href="#DejaVuSans-97"/>
     <use x="377.832031" xlink:href="#DejaVuSans-116"/>
     <use x="417.041016" xlink:href="#DejaVuSans-105"/>
     <use x="444.824219" xlink:href="#DejaVuSans-111"/>
     <use x="506.005859" xlink:href="#DejaVuSans-110"/>
     <use x="569.384766" xlink:href="#DejaVuSans-32"/>
     <use x="601.171875" xlink:href="#DejaVuSans-111"/>
     <use x="662.353516" xlink:href="#DejaVuSans-102"/>
     <use x="697.558594" xlink:href="#DejaVuSans-32"/>
     <use x="729.345703" xlink:href="#DejaVuSans-97"/>
     <use x="790.625" xlink:href="#DejaVuSans-108"/>
     <use x="818.408203" xlink:href="#DejaVuSans-98"/>
     <use x="881.884766" xlink:href="#DejaVuSans-97"/>
     <use x="943.164062" xlink:href="#DejaVuSans-100"/>
     <use x="1006.640625" xlink:href="#DejaVuSans-109"/>
     <use x="1104.052734" xlink:href="#DejaVuSans-97"/>
     <use x="1165.332031" xlink:href="#DejaVuSans-99"/>
     <use x="1220.3125" xlink:href="#DejaVuSans-32"/>
     <use x="1252.099609" xlink:href="#DejaVuSans-118"/>
     <use x="1311.279297" xlink:href="#DejaVuSans-115"/>
     <use x="1363.378906" xlink:href="#DejaVuSans-46"/>
     <use x="1395.166016" xlink:href="#DejaVuSans-32"/>
     <use x="1426.953125" xlink:href="#DejaVuSans-115"/>
     <use x="1479.052734" xlink:href="#DejaVuSans-101"/>
     <use x="1540.576172" xlink:href="#DejaVuSans-112"/>
     <use x="1604.052734" xlink:href="#DejaVuSans-115"/>
     <use x="1656.152344" xlink:href="#DejaVuSans-105"/>
     <use x="1683.935547" xlink:href="#DejaVuSans-115"/>
    </g>
   </g>
   <g id="legend_1">
    <g id="patch_7">
     <path d="M 294.045 78.82825 
L 407.72 78.82825 
Q 409.72 78.82825 409.72 76.82825 
L 409.72 48.472 
Q 409.72 46.472 407.72 46.472 
L 294.045 46.472 
Q 292.045 46.472 292.045 48.472 
L 292.045 76.82825 
Q 292.045 78.82825 294.045 78.82825 
z
" style="fill:#ffffff;opacity:0.8;stroke:#cccccc;stroke-linejoin:miter;"/>
    </g>
    <g id="line2d_11">
     <path d="M 296.045 54.570437 
L 316.045 54.570437 
" style="fill:none;stroke:#ffa500;stroke-linecap:square;stroke-width:1.5;"/>
    </g>
    <g id="line2d_12"/>
    <g id="text_8">
     <!-- sepsis (159) -->
     <defs>
      <path d="M 31 75.875 
Q 24.46875 64.65625 21.28125 53.65625 
Q 18.109375 42.671875 18.109375 31.390625 
Q 18.109375 20.125 21.3125 9.0625 
Q 24.515625 -2 31 -13.1875 
L 23.1875 -13.1875 
Q 15.875 -1.703125 12.234375 9.375 
Q 8.59375 20.453125 8.59375 31.390625 
Q 8.59375 42.28125 12.203125 53.3125 
Q 15.828125 64.359375 23.1875 75.875 
z
" id="DejaVuSans-40"/>
      <path d="M 12.40625 8.296875 
L 28.515625 8.296875 
L 28.515625 63.921875 
L 10.984375 60.40625 
L 10.984375 69.390625 
L 28.421875 72.90625 
L 38.28125 72.90625 
L 38.28125 8.296875 
L 54.390625 8.296875 
L 54.390625 0 
L 12.40625 0 
z
" id="DejaVuSans-49"/>
      <path d="M 10.984375 1.515625 
L 10.984375 10.5 
Q 14.703125 8.734375 18.5 7.8125 
Q 22.3125 6.890625 25.984375 6.890625 
Q 35.75 6.890625 40.890625 13.453125 
Q 46.046875 20.015625 46.78125 33.40625 
Q 43.953125 29.203125 39.59375 26.953125 
Q 35.25 24.703125 29.984375 24.703125 
Q 19.046875 24.703125 12.671875 31.3125 
Q 6.296875 37.9375 6.296875 49.421875 
Q 6.296875 60.640625 12.9375 67.421875 
Q 19.578125 74.21875 30.609375 74.21875 
Q 43.265625 74.21875 49.921875 64.515625 
Q 56.59375 54.828125 56.59375 36.375 
Q 56.59375 19.140625 48.40625 8.859375 
Q 40.234375 -1.421875 26.421875 -1.421875 
Q 22.703125 -1.421875 18.890625 -0.6875 
Q 15.09375 0.046875 10.984375 1.515625 
z
M 30.609375 32.421875 
Q 37.25 32.421875 41.125 36.953125 
Q 45.015625 41.5 45.015625 49.421875 
Q 45.015625 57.28125 41.125 61.84375 
Q 37.25 66.40625 30.609375 66.40625 
Q 23.96875 66.40625 20.09375 61.84375 
Q 16.21875 57.28125 16.21875 49.421875 
Q 16.21875 41.5 20.09375 36.953125 
Q 23.96875 32.421875 30.609375 32.421875 
z
" id="DejaVuSans-57"/>
      <path d="M 8.015625 75.875 
L 15.828125 75.875 
Q 23.140625 64.359375 26.78125 53.3125 
Q 30.421875 42.28125 30.421875 31.390625 
Q 30.421875 20.453125 26.78125 9.375 
Q 23.140625 -1.703125 15.828125 -13.1875 
L 8.015625 -13.1875 
Q 14.5 -2 17.703125 9.0625 
Q 20.90625 20.125 20.90625 31.390625 
Q 20.90625 42.671875 17.703125 53.65625 
Q 14.5 64.65625 8.015625 75.875 
z
" id="DejaVuSans-41"/>
     </defs>
     <g transform="translate(324.045 58.070437)scale(0.1 -0.1)">
      <use xlink:href="#DejaVuSans-115"/>
      <use x="52.099609" xlink:href="#DejaVuSans-101"/>
      <use x="113.623047" xlink:href="#DejaVuSans-112"/>
      <use x="177.099609" xlink:href="#DejaVuSans-115"/>
      <use x="229.199219" xlink:href="#DejaVuSans-105"/>
      <use x="256.982422" xlink:href="#DejaVuSans-115"/>
      <use x="309.082031" xlink:href="#DejaVuSans-32"/>
      <use x="340.869141" xlink:href="#DejaVuSans-40"/>
      <use x="379.882812" xlink:href="#DejaVuSans-49"/>
      <use x="443.505859" xlink:href="#DejaVuSans-53"/>
      <use x="507.128906" xlink:href="#DejaVuSans-57"/>
      <use x="570.751953" xlink:href="#DejaVuSans-41"/>
     </g>
    </g>
    <g id="line2d_13">
     <path d="M 296.045 69.248562 
L 316.045 69.248562 
" style="fill:none;stroke:#008000;stroke-linecap:square;stroke-width:1.5;"/>
    </g>
    <g id="line2d_14"/>
    <g id="text_9">
     <!-- Not sepsis (315) -->
     <defs>
      <path d="M 9.8125 72.90625 
L 23.09375 72.90625 
L 55.421875 11.921875 
L 55.421875 72.90625 
L 64.984375 72.90625 
L 64.984375 0 
L 51.703125 0 
L 19.390625 60.984375 
L 19.390625 0 
L 9.8125 0 
z
" id="DejaVuSans-78"/>
     </defs>
     <g transform="translate(324.045 72.748562)scale(0.1 -0.1)">
      <use xlink:href="#DejaVuSans-78"/>
      <use x="74.804688" xlink:href="#DejaVuSans-111"/>
      <use x="135.986328" xlink:href="#DejaVuSans-116"/>
      <use x="175.195312" xlink:href="#DejaVuSans-32"/>
      <use x="206.982422" xlink:href="#DejaVuSans-115"/>
      <use x="259.082031" xlink:href="#DejaVuSans-101"/>
      <use x="320.605469" xlink:href="#DejaVuSans-112"/>
      <use x="384.082031" xlink:href="#DejaVuSans-115"/>
      <use x="436.181641" xlink:href="#DejaVuSans-105"/>
      <use x="463.964844" xlink:href="#DejaVuSans-115"/>
      <use x="516.064453" xlink:href="#DejaVuSans-32"/>
      <use x="547.851562" xlink:href="#DejaVuSans-40"/>
      <use x="586.865234" xlink:href="#DejaVuSans-51"/>
      <use x="650.488281" xlink:href="#DejaVuSans-49"/>
      <use x="714.111328" xlink:href="#DejaVuSans-53"/>
      <use x="777.734375" xlink:href="#DejaVuSans-41"/>
     </g>
    </g>
   </g>
  </g>
 </g>
 <defs>
  <clipPath id="p4c4dbf5c81">
   <rect height="266.112" width="357.12" x="57.6" y="41.472"/>
  </clipPath>
 </defs>
</svg>
