<?xml version="1.0" encoding="utf-8" standalone="no"?>
<!DOCTYPE svg PUBLIC "-//W3C//DTD SVG 1.1//EN"
  "http://www.w3.org/Graphics/SVG/1.1/DTD/svg11.dtd">
<!-- Created with matplotlib (https://matplotlib.org/) -->
<svg height="345.6pt" version="1.1" viewBox="0 0 460.8 345.6" width="460.8pt" xmlns="http://www.w3.org/2000/svg" xmlns:xlink="http://www.w3.org/1999/xlink">
 <defs>
  <style type="text/css">
*{stroke-linecap:butt;stroke-linejoin:round;}
  </style>
 </defs>
 <g id="figure_1">
  <g id="patch_1">
   <path d="M 0 345.6 
L 460.8 345.6 
L 460.8 0 
L 0 0 
z
" style="fill:#ffffff;"/>
  </g>
  <g id="axes_1">
   <g id="patch_2">
    <path d="M 57.6 307.584 
L 414.72 307.584 
L 414.72 41.472 
L 57.6 41.472 
z
" style="fill:#ffffff;"/>
   </g>
   <g id="PolyCollection_1">
    <defs>
     <path d="M 94.513031 -166.896335 
L 94.513031 -175.247665 
L 96.379455 -176.239362 
L 98.245879 -177.409891 
L 100.112303 -178.777743 
L 101.978727 -180.360487 
L 103.84515 -182.174194 
L 105.711574 -184.23287 
L 107.577998 -186.547933 
L 109.444422 -189.127758 
L 111.310846 -191.977327 
L 113.17727 -195.097978 
L 115.043693 -198.487286 
L 116.910117 -202.139038 
L 118.776541 -206.043305 
L 120.642965 -210.186574 
L 122.509389 -214.551889 
L 124.375812 -219.118982 
L 126.242236 -223.864337 
L 128.10866 -228.76117 
L 129.975084 -233.77931 
L 131.841508 -238.884987 
L 133.707931 -244.040564 
L 135.574355 -249.204251 
L 137.440779 -254.32988 
L 139.307203 -259.366821 
L 141.173627 -264.260118 
L 143.040051 -268.950921 
L 144.906474 -273.377272 
L 146.772898 -277.475277 
L 148.639322 -281.180649 
L 150.505746 -284.4306 
L 152.37217 -287.16597 
L 154.238593 -289.333511 
L 156.105017 -290.888164 
L 157.971441 -291.795189 
L 159.837865 -292.032 
L 161.704289 -291.589557 
L 163.570712 -290.473221 
L 165.437136 -288.702994 
L 167.30356 -286.31311 
L 169.169984 -283.351008 
L 171.036408 -279.87573 
L 172.902832 -275.955856 
L 174.769255 -271.667086 
L 176.635679 -267.089621 
L 178.502103 -262.305476 
L 180.368527 -257.39587 
L 182.234951 -252.438817 
L 184.101374 -247.507015 
L 185.967798 -242.666111 
L 187.834222 -237.973383 
L 189.700646 -233.476874 
L 191.56707 -229.214951 
L 193.433493 -225.216286 
L 195.299917 -221.500197 
L 197.166341 -218.077308 
L 199.032765 -214.950453 
L 200.899189 -212.11576 
L 202.765613 -209.563837 
L 204.632036 -207.280988 
L 206.49846 -205.250405 
L 208.364884 -203.453247 
L 210.231308 -201.869596 
L 212.097732 -200.479209 
L 213.964155 -199.262088 
L 215.830579 -198.198836 
L 217.697003 -197.270819 
L 219.563427 -196.460173 
L 221.429851 -195.74969 
L 223.296274 -195.122633 
L 225.162698 -194.562543 
L 227.029122 -194.053084 
L 228.895546 -193.577974 
L 230.76197 -193.12103 
L 232.628394 -192.666353 
L 234.494817 -192.198629 
L 236.361241 -191.703554 
L 238.227665 -191.168321 
L 240.094089 -190.582143 
L 241.960513 -189.936739 
L 243.826936 -189.226752 
L 245.69336 -188.450039 
L 247.559784 -187.607801 
L 249.426208 -186.704536 
L 251.292632 -185.747805 
L 253.159055 -184.747831 
L 255.025479 -183.716952 
L 256.891903 -182.668978 
L 258.758327 -181.61848 
L 260.624751 -180.580082 
L 262.491175 -179.567787 
L 264.357598 -178.594385 
L 266.224022 -177.670973 
L 268.090446 -176.806612 
L 269.95687 -176.008116 
L 271.823294 -175.279993 
L 273.689717 -174.624501 
L 275.556141 -174.041818 
L 277.422565 -173.530296 
L 279.288989 -173.086758 
L 279.288989 -169.057242 
L 279.288989 -169.057242 
L 277.422565 -168.613704 
L 275.556141 -168.102182 
L 273.689717 -167.519499 
L 271.823294 -166.864007 
L 269.95687 -166.135884 
L 268.090446 -165.337388 
L 266.224022 -164.473027 
L 264.357598 -163.549615 
L 262.491175 -162.576213 
L 260.624751 -161.563918 
L 258.758327 -160.52552 
L 256.891903 -159.475022 
L 255.025479 -158.427048 
L 253.159055 -157.396169 
L 251.292632 -156.396195 
L 249.426208 -155.439464 
L 247.559784 -154.536199 
L 245.69336 -153.693961 
L 243.826936 -152.917248 
L 241.960513 -152.207261 
L 240.094089 -151.561857 
L 238.227665 -150.975679 
L 236.361241 -150.440446 
L 234.494817 -149.945371 
L 232.628394 -149.477647 
L 230.76197 -149.02297 
L 228.895546 -148.566026 
L 227.029122 -148.090916 
L 225.162698 -147.581457 
L 223.296274 -147.021367 
L 221.429851 -146.39431 
L 219.563427 -145.683827 
L 217.697003 -144.873181 
L 215.830579 -143.945164 
L 213.964155 -142.881912 
L 212.097732 -141.664791 
L 210.231308 -140.274404 
L 208.364884 -138.690753 
L 206.49846 -136.893595 
L 204.632036 -134.863012 
L 202.765613 -132.580163 
L 200.899189 -130.02824 
L 199.032765 -127.193547 
L 197.166341 -124.066692 
L 195.299917 -120.643803 
L 193.433493 -116.927714 
L 191.56707 -112.929049 
L 189.700646 -108.667126 
L 187.834222 -104.170617 
L 185.967798 -99.477889 
L 184.101374 -94.636985 
L 182.234951 -89.705183 
L 180.368527 -84.74813 
L 178.502103 -79.838524 
L 176.635679 -75.054379 
L 174.769255 -70.476914 
L 172.902832 -66.188144 
L 171.036408 -62.26827 
L 169.169984 -58.792992 
L 167.30356 -55.83089 
L 165.437136 -53.441006 
L 163.570712 -51.670779 
L 161.704289 -50.554443 
L 159.837865 -50.112 
L 157.971441 -50.348811 
L 156.105017 -51.255836 
L 154.238593 -52.810489 
L 152.37217 -54.97803 
L 150.505746 -57.7134 
L 148.639322 -60.963351 
L 146.772898 -64.668723 
L 144.906474 -68.766728 
L 143.040051 -73.193079 
L 141.173627 -77.883882 
L 139.307203 -82.777179 
L 137.440779 -87.81412 
L 135.574355 -92.939749 
L 133.707931 -98.103436 
L 131.841508 -103.259013 
L 129.975084 -108.36469 
L 128.10866 -113.38283 
L 126.242236 -118.279663 
L 124.375812 -123.025018 
L 122.509389 -127.592111 
L 120.642965 -131.957426 
L 118.776541 -136.100695 
L 116.910117 -140.004962 
L 115.043693 -143.656714 
L 113.17727 -147.046022 
L 111.310846 -150.166673 
L 109.444422 -153.016242 
L 107.577998 -155.596067 
L 105.711574 -157.91113 
L 103.84515 -159.969806 
L 101.978727 -161.783513 
L 100.112303 -163.366257 
L 98.245879 -164.734109 
L 96.379455 -165.904638 
L 94.513031 -166.896335 
z
" id="me7e7a28d74" style="stroke:#4c4c4c;stroke-opacity:0.5;stroke-width:1.5;"/>
    </defs>
    <g clip-path="url(#p8c8b3b577b)">
     <use style="fill:#df9c20;fill-opacity:0.5;stroke:#4c4c4c;stroke-opacity:0.5;stroke-width:1.5;" x="0" xlink:href="#me7e7a28d74" y="345.6"/>
    </g>
   </g>
   <g id="PolyCollection_2">
    <defs>
     <path d="M 73.832727 -170.855077 
L 73.832727 -171.288923 
L 77.112066 -171.491627 
L 80.391405 -171.808617 
L 83.670744 -172.251011 
L 86.950083 -172.806651 
L 90.229421 -173.44984 
L 93.50876 -174.174019 
L 96.788099 -175.038319 
L 100.067438 -176.204662 
L 103.346777 -177.940141 
L 106.626116 -180.573337 
L 109.905455 -184.415372 
L 113.184793 -189.675693 
L 116.464132 -196.409699 
L 119.743471 -204.524233 
L 123.02281 -213.835425 
L 126.302149 -224.134057 
L 129.581488 -235.197203 
L 132.860826 -246.718659 
L 136.140165 -258.204251 
L 139.419504 -268.935204 
L 142.698843 -278.084722 
L 145.978182 -284.97507 
L 149.257521 -289.348465 
L 152.53686 -291.480372 
L 155.816198 -292.032 
L 159.095537 -291.690543 
L 162.374876 -290.790736 
L 165.654215 -289.147044 
L 168.933554 -286.207767 
L 172.212893 -281.436636 
L 175.492231 -274.680446 
L 178.77157 -266.304609 
L 182.050909 -257.047899 
L 185.330248 -247.724839 
L 188.609587 -238.96276 
L 191.888926 -231.088155 
L 195.168264 -224.159421 
L 198.447603 -218.072414 
L 201.726942 -212.667899 
L 205.006281 -207.809854 
L 208.28562 -203.431426 
L 211.564959 -199.545186 
L 214.844298 -196.208885 
L 218.123636 -193.45454 
L 221.402975 -191.221071 
L 224.682314 -189.341857 
L 227.961653 -187.604975 
L 231.240992 -185.849074 
L 234.520331 -184.031266 
L 237.799669 -182.227942 
L 241.079008 -180.578627 
L 244.358347 -179.213323 
L 247.637686 -178.198728 
L 250.917025 -177.516651 
L 254.196364 -177.072579 
L 257.475702 -176.728221 
L 260.755041 -176.348719 
L 264.03438 -175.848559 
L 267.313719 -175.216874 
L 270.593058 -174.510566 
L 273.872397 -173.819754 
L 277.151736 -173.223998 
L 280.431074 -172.761005 
L 283.710413 -172.4208 
L 286.989752 -172.16361 
L 290.269091 -171.947519 
L 293.54843 -171.749291 
L 296.827769 -171.569395 
L 300.107107 -171.423701 
L 303.386446 -171.330996 
L 306.665785 -171.303896 
L 309.945124 -171.344632 
L 313.224463 -171.443359 
L 316.503802 -171.57777 
L 319.78314 -171.716289 
L 323.062479 -171.827653 
L 326.341818 -171.895216 
L 329.621157 -171.928156 
L 332.900496 -171.960097 
L 336.179835 -172.031712 
L 339.459174 -172.164698 
L 342.738512 -172.342481 
L 346.017851 -172.511548 
L 349.29719 -172.605825 
L 352.576529 -172.581452 
L 355.855868 -172.441405 
L 359.135207 -172.234938 
L 362.414545 -172.032616 
L 365.693884 -171.892155 
L 368.973223 -171.833929 
L 372.252562 -171.837233 
L 375.531901 -171.856219 
L 378.81124 -171.845005 
L 382.090579 -171.778653 
L 385.369917 -171.660558 
L 388.649256 -171.515141 
L 391.928595 -171.372638 
L 395.207934 -171.255532 
L 398.487273 -171.172764 
L 398.487273 -170.971236 
L 398.487273 -170.971236 
L 395.207934 -170.888468 
L 391.928595 -170.771362 
L 388.649256 -170.628859 
L 385.369917 -170.483442 
L 382.090579 -170.365347 
L 378.81124 -170.298995 
L 375.531901 -170.287781 
L 372.252562 -170.306767 
L 368.973223 -170.310071 
L 365.693884 -170.251845 
L 362.414545 -170.111384 
L 359.135207 -169.909062 
L 355.855868 -169.702595 
L 352.576529 -169.562548 
L 349.29719 -169.538175 
L 346.017851 -169.632452 
L 342.738512 -169.801519 
L 339.459174 -169.979302 
L 336.179835 -170.112288 
L 332.900496 -170.183903 
L 329.621157 -170.215844 
L 326.341818 -170.248784 
L 323.062479 -170.316347 
L 319.78314 -170.427711 
L 316.503802 -170.56623 
L 313.224463 -170.700641 
L 309.945124 -170.799368 
L 306.665785 -170.840104 
L 303.386446 -170.813004 
L 300.107107 -170.720299 
L 296.827769 -170.574605 
L 293.54843 -170.394709 
L 290.269091 -170.196481 
L 286.989752 -169.98039 
L 283.710413 -169.7232 
L 280.431074 -169.382995 
L 277.151736 -168.920002 
L 273.872397 -168.324246 
L 270.593058 -167.633434 
L 267.313719 -166.927126 
L 264.03438 -166.295441 
L 260.755041 -165.795281 
L 257.475702 -165.415779 
L 254.196364 -165.071421 
L 250.917025 -164.627349 
L 247.637686 -163.945272 
L 244.358347 -162.930677 
L 241.079008 -161.565373 
L 237.799669 -159.916058 
L 234.520331 -158.112734 
L 231.240992 -156.294926 
L 227.961653 -154.539025 
L 224.682314 -152.802143 
L 221.402975 -150.922929 
L 218.123636 -148.68946 
L 214.844298 -145.935115 
L 211.564959 -142.598814 
L 208.28562 -138.712574 
L 205.006281 -134.334146 
L 201.726942 -129.476101 
L 198.447603 -124.071586 
L 195.168264 -117.984579 
L 191.888926 -111.055845 
L 188.609587 -103.18124 
L 185.330248 -94.419161 
L 182.050909 -85.096101 
L 178.77157 -75.839391 
L 175.492231 -67.463554 
L 172.212893 -60.707364 
L 168.933554 -55.936233 
L 165.654215 -52.996956 
L 162.374876 -51.353264 
L 159.095537 -50.453457 
L 155.816198 -50.112 
L 152.53686 -50.663628 
L 149.257521 -52.795535 
L 145.978182 -57.16893 
L 142.698843 -64.059278 
L 139.419504 -73.208796 
L 136.140165 -83.939749 
L 132.860826 -95.425341 
L 129.581488 -106.946797 
L 126.302149 -118.009943 
L 123.02281 -128.308575 
L 119.743471 -137.619767 
L 116.464132 -145.734301 
L 113.184793 -152.468307 
L 109.905455 -157.728628 
L 106.626116 -161.570663 
L 103.346777 -164.203859 
L 100.067438 -165.939338 
L 96.788099 -167.105681 
L 93.50876 -167.969981 
L 90.229421 -168.69416 
L 86.950083 -169.337349 
L 83.670744 -169.892989 
L 80.391405 -170.335383 
L 77.112066 -170.652373 
L 73.832727 -170.855077 
z
" id="md31bf00def" style="stroke:#262626;stroke-opacity:0.5;stroke-width:1.5;"/>
    </defs>
    <g clip-path="url(#p8c8b3b577b)">
     <use style="fill:#107010;fill-opacity:0.5;stroke:#262626;stroke-opacity:0.5;stroke-width:1.5;" x="0" xlink:href="#md31bf00def" y="345.6"/>
    </g>
   </g>
   <g id="matplotlib.axis_1">
    <g id="xtick_1">
     <g id="line2d_1">
      <defs>
       <path d="M 0 0 
L 0 3.5 
" id="m70b9519f55" style="stroke:#000000;stroke-width:0.8;"/>
      </defs>
      <g>
       <use style="stroke:#000000;stroke-width:0.8;" x="93.933339" xlink:href="#m70b9519f55" y="307.584"/>
      </g>
     </g>
     <g id="text_1">
      <!-- 0 -->
      <defs>
       <path d="M 31.78125 66.40625 
Q 24.171875 66.40625 20.328125 58.90625 
Q 16.5 51.421875 16.5 36.375 
Q 16.5 21.390625 20.328125 13.890625 
Q 24.171875 6.390625 31.78125 6.390625 
Q 39.453125 6.390625 43.28125 13.890625 
Q 47.125 21.390625 47.125 36.375 
Q 47.125 51.421875 43.28125 58.90625 
Q 39.453125 66.40625 31.78125 66.40625 
z
M 31.78125 74.21875 
Q 44.046875 74.21875 50.515625 64.515625 
Q 56.984375 54.828125 56.984375 36.375 
Q 56.984375 17.96875 50.515625 8.265625 
Q 44.046875 -1.421875 31.78125 -1.421875 
Q 19.53125 -1.421875 13.0625 8.265625 
Q 6.59375 17.96875 6.59375 36.375 
Q 6.59375 54.828125 13.0625 64.515625 
Q 19.53125 74.21875 31.78125 74.21875 
z
" id="DejaVuSans-48"/>
      </defs>
      <g transform="translate(90.752089 322.182437)scale(0.1 -0.1)">
       <use xlink:href="#DejaVuSans-48"/>
      </g>
     </g>
    </g>
    <g id="xtick_2">
     <g id="line2d_2">
      <g>
       <use style="stroke:#000000;stroke-width:0.8;" x="163.312198" xlink:href="#m70b9519f55" y="307.584"/>
      </g>
     </g>
     <g id="text_2">
      <!-- 5 -->
      <defs>
       <path d="M 10.796875 72.90625 
L 49.515625 72.90625 
L 49.515625 64.59375 
L 19.828125 64.59375 
L 19.828125 46.734375 
Q 21.96875 47.46875 24.109375 47.828125 
Q 26.265625 48.1875 28.421875 48.1875 
Q 40.625 48.1875 47.75 41.5 
Q 54.890625 34.8125 54.890625 23.390625 
Q 54.890625 11.625 47.5625 5.09375 
Q 40.234375 -1.421875 26.90625 -1.421875 
Q 22.3125 -1.421875 17.546875 -0.640625 
Q 12.796875 0.140625 7.71875 1.703125 
L 7.71875 11.625 
Q 12.109375 9.234375 16.796875 8.0625 
Q 21.484375 6.890625 26.703125 6.890625 
Q 35.15625 6.890625 40.078125 11.328125 
Q 45.015625 15.765625 45.015625 23.390625 
Q 45.015625 31 40.078125 35.4375 
Q 35.15625 39.890625 26.703125 39.890625 
Q 22.75 39.890625 18.8125 39.015625 
Q 14.890625 38.140625 10.796875 36.28125 
z
" id="DejaVuSans-53"/>
      </defs>
      <g transform="translate(160.130948 322.182437)scale(0.1 -0.1)">
       <use xlink:href="#DejaVuSans-53"/>
      </g>
     </g>
    </g>
    <g id="xtick_3">
     <g id="line2d_3">
      <g>
       <use style="stroke:#000000;stroke-width:0.8;" x="232.691057" xlink:href="#m70b9519f55" y="307.584"/>
      </g>
     </g>
     <g id="text_3">
      <!-- 10 -->
      <defs>
       <path d="M 12.40625 8.296875 
L 28.515625 8.296875 
L 28.515625 63.921875 
L 10.984375 60.40625 
L 10.984375 69.390625 
L 28.421875 72.90625 
L 38.28125 72.90625 
L 38.28125 8.296875 
L 54.390625 8.296875 
L 54.390625 0 
L 12.40625 0 
z
" id="DejaVuSans-49"/>
      </defs>
      <g transform="translate(226.328557 322.182437)scale(0.1 -0.1)">
       <use xlink:href="#DejaVuSans-49"/>
       <use x="63.623047" xlink:href="#DejaVuSans-48"/>
      </g>
     </g>
    </g>
    <g id="xtick_4">
     <g id="line2d_4">
      <g>
       <use style="stroke:#000000;stroke-width:0.8;" x="302.069916" xlink:href="#m70b9519f55" y="307.584"/>
      </g>
     </g>
     <g id="text_4">
      <!-- 15 -->
      <g transform="translate(295.707416 322.182437)scale(0.1 -0.1)">
       <use xlink:href="#DejaVuSans-49"/>
       <use x="63.623047" xlink:href="#DejaVuSans-53"/>
      </g>
     </g>
    </g>
    <g id="xtick_5">
     <g id="line2d_5">
      <g>
       <use style="stroke:#000000;stroke-width:0.8;" x="371.448775" xlink:href="#m70b9519f55" y="307.584"/>
      </g>
     </g>
     <g id="text_5">
      <!-- 20 -->
      <defs>
       <path d="M 19.1875 8.296875 
L 53.609375 8.296875 
L 53.609375 0 
L 7.328125 0 
L 7.328125 8.296875 
Q 12.9375 14.109375 22.625 23.890625 
Q 32.328125 33.6875 34.8125 36.53125 
Q 39.546875 41.84375 41.421875 45.53125 
Q 43.3125 49.21875 43.3125 52.78125 
Q 43.3125 58.59375 39.234375 62.25 
Q 35.15625 65.921875 28.609375 65.921875 
Q 23.96875 65.921875 18.8125 64.3125 
Q 13.671875 62.703125 7.8125 59.421875 
L 7.8125 69.390625 
Q 13.765625 71.78125 18.9375 73 
Q 24.125 74.21875 28.421875 74.21875 
Q 39.75 74.21875 46.484375 68.546875 
Q 53.21875 62.890625 53.21875 53.421875 
Q 53.21875 48.921875 51.53125 44.890625 
Q 49.859375 40.875 45.40625 35.40625 
Q 44.1875 33.984375 37.640625 27.21875 
Q 31.109375 20.453125 19.1875 8.296875 
z
" id="DejaVuSans-50"/>
      </defs>
      <g transform="translate(365.086275 322.182437)scale(0.1 -0.1)">
       <use xlink:href="#DejaVuSans-50"/>
       <use x="63.623047" xlink:href="#DejaVuSans-48"/>
      </g>
     </g>
    </g>
    <g id="text_6">
     <!-- wbcnadirac -->
     <defs>
      <path d="M 4.203125 54.6875 
L 13.1875 54.6875 
L 24.421875 12.015625 
L 35.59375 54.6875 
L 46.1875 54.6875 
L 57.421875 12.015625 
L 68.609375 54.6875 
L 77.59375 54.6875 
L 63.28125 0 
L 52.6875 0 
L 40.921875 44.828125 
L 29.109375 0 
L 18.5 0 
z
" id="DejaVuSans-119"/>
      <path d="M 48.6875 27.296875 
Q 48.6875 37.203125 44.609375 42.84375 
Q 40.53125 48.484375 33.40625 48.484375 
Q 26.265625 48.484375 22.1875 42.84375 
Q 18.109375 37.203125 18.109375 27.296875 
Q 18.109375 17.390625 22.1875 11.75 
Q 26.265625 6.109375 33.40625 6.109375 
Q 40.53125 6.109375 44.609375 11.75 
Q 48.6875 17.390625 48.6875 27.296875 
z
M 18.109375 46.390625 
Q 20.953125 51.265625 25.265625 53.625 
Q 29.59375 56 35.59375 56 
Q 45.5625 56 51.78125 48.09375 
Q 58.015625 40.1875 58.015625 27.296875 
Q 58.015625 14.40625 51.78125 6.484375 
Q 45.5625 -1.421875 35.59375 -1.421875 
Q 29.59375 -1.421875 25.265625 0.953125 
Q 20.953125 3.328125 18.109375 8.203125 
L 18.109375 0 
L 9.078125 0 
L 9.078125 75.984375 
L 18.109375 75.984375 
z
" id="DejaVuSans-98"/>
      <path d="M 48.78125 52.59375 
L 48.78125 44.1875 
Q 44.96875 46.296875 41.140625 47.34375 
Q 37.3125 48.390625 33.40625 48.390625 
Q 24.65625 48.390625 19.8125 42.84375 
Q 14.984375 37.3125 14.984375 27.296875 
Q 14.984375 17.28125 19.8125 11.734375 
Q 24.65625 6.203125 33.40625 6.203125 
Q 37.3125 6.203125 41.140625 7.25 
Q 44.96875 8.296875 48.78125 10.40625 
L 48.78125 2.09375 
Q 45.015625 0.34375 40.984375 -0.53125 
Q 36.96875 -1.421875 32.421875 -1.421875 
Q 20.0625 -1.421875 12.78125 6.34375 
Q 5.515625 14.109375 5.515625 27.296875 
Q 5.515625 40.671875 12.859375 48.328125 
Q 20.21875 56 33.015625 56 
Q 37.15625 56 41.109375 55.140625 
Q 45.0625 54.296875 48.78125 52.59375 
z
" id="DejaVuSans-99"/>
      <path d="M 54.890625 33.015625 
L 54.890625 0 
L 45.90625 0 
L 45.90625 32.71875 
Q 45.90625 40.484375 42.875 44.328125 
Q 39.84375 48.1875 33.796875 48.1875 
Q 26.515625 48.1875 22.3125 43.546875 
Q 18.109375 38.921875 18.109375 30.90625 
L 18.109375 0 
L 9.078125 0 
L 9.078125 54.6875 
L 18.109375 54.6875 
L 18.109375 46.1875 
Q 21.34375 51.125 25.703125 53.5625 
Q 30.078125 56 35.796875 56 
Q 45.21875 56 50.046875 50.171875 
Q 54.890625 44.34375 54.890625 33.015625 
z
" id="DejaVuSans-110"/>
      <path d="M 34.28125 27.484375 
Q 23.390625 27.484375 19.1875 25 
Q 14.984375 22.515625 14.984375 16.5 
Q 14.984375 11.71875 18.140625 8.90625 
Q 21.296875 6.109375 26.703125 6.109375 
Q 34.1875 6.109375 38.703125 11.40625 
Q 43.21875 16.703125 43.21875 25.484375 
L 43.21875 27.484375 
z
M 52.203125 31.203125 
L 52.203125 0 
L 43.21875 0 
L 43.21875 8.296875 
Q 40.140625 3.328125 35.546875 0.953125 
Q 30.953125 -1.421875 24.3125 -1.421875 
Q 15.921875 -1.421875 10.953125 3.296875 
Q 6 8.015625 6 15.921875 
Q 6 25.140625 12.171875 29.828125 
Q 18.359375 34.515625 30.609375 34.515625 
L 43.21875 34.515625 
L 43.21875 35.40625 
Q 43.21875 41.609375 39.140625 45 
Q 35.0625 48.390625 27.6875 48.390625 
Q 23 48.390625 18.546875 47.265625 
Q 14.109375 46.140625 10.015625 43.890625 
L 10.015625 52.203125 
Q 14.9375 54.109375 19.578125 55.046875 
Q 24.21875 56 28.609375 56 
Q 40.484375 56 46.34375 49.84375 
Q 52.203125 43.703125 52.203125 31.203125 
z
" id="DejaVuSans-97"/>
      <path d="M 45.40625 46.390625 
L 45.40625 75.984375 
L 54.390625 75.984375 
L 54.390625 0 
L 45.40625 0 
L 45.40625 8.203125 
Q 42.578125 3.328125 38.25 0.953125 
Q 33.9375 -1.421875 27.875 -1.421875 
Q 17.96875 -1.421875 11.734375 6.484375 
Q 5.515625 14.40625 5.515625 27.296875 
Q 5.515625 40.1875 11.734375 48.09375 
Q 17.96875 56 27.875 56 
Q 33.9375 56 38.25 53.625 
Q 42.578125 51.265625 45.40625 46.390625 
z
M 14.796875 27.296875 
Q 14.796875 17.390625 18.875 11.75 
Q 22.953125 6.109375 30.078125 6.109375 
Q 37.203125 6.109375 41.296875 11.75 
Q 45.40625 17.390625 45.40625 27.296875 
Q 45.40625 37.203125 41.296875 42.84375 
Q 37.203125 48.484375 30.078125 48.484375 
Q 22.953125 48.484375 18.875 42.84375 
Q 14.796875 37.203125 14.796875 27.296875 
z
" id="DejaVuSans-100"/>
      <path d="M 9.421875 54.6875 
L 18.40625 54.6875 
L 18.40625 0 
L 9.421875 0 
z
M 9.421875 75.984375 
L 18.40625 75.984375 
L 18.40625 64.59375 
L 9.421875 64.59375 
z
" id="DejaVuSans-105"/>
      <path d="M 41.109375 46.296875 
Q 39.59375 47.171875 37.8125 47.578125 
Q 36.03125 48 33.890625 48 
Q 26.265625 48 22.1875 43.046875 
Q 18.109375 38.09375 18.109375 28.8125 
L 18.109375 0 
L 9.078125 0 
L 9.078125 54.6875 
L 18.109375 54.6875 
L 18.109375 46.1875 
Q 20.953125 51.171875 25.484375 53.578125 
Q 30.03125 56 36.53125 56 
Q 37.453125 56 38.578125 55.875 
Q 39.703125 55.765625 41.0625 55.515625 
z
" id="DejaVuSans-114"/>
     </defs>
     <g transform="translate(207.482656 335.860562)scale(0.1 -0.1)">
      <use xlink:href="#DejaVuSans-119"/>
      <use x="81.787109" xlink:href="#DejaVuSans-98"/>
      <use x="145.263672" xlink:href="#DejaVuSans-99"/>
      <use x="200.244141" xlink:href="#DejaVuSans-110"/>
      <use x="263.623047" xlink:href="#DejaVuSans-97"/>
      <use x="324.902344" xlink:href="#DejaVuSans-100"/>
      <use x="388.378906" xlink:href="#DejaVuSans-105"/>
      <use x="416.162109" xlink:href="#DejaVuSans-114"/>
      <use x="457.275391" xlink:href="#DejaVuSans-97"/>
      <use x="518.554688" xlink:href="#DejaVuSans-99"/>
     </g>
    </g>
   </g>
   <g id="matplotlib.axis_2">
    <g id="ytick_1">
     <g id="line2d_6">
      <defs>
       <path d="M 0 0 
L -3.5 0 
" id="mbdf26130d9" style="stroke:#000000;stroke-width:0.8;"/>
      </defs>
      <g>
       <use style="stroke:#000000;stroke-width:0.8;" x="57.6" xlink:href="#mbdf26130d9" y="174.528"/>
      </g>
     </g>
    </g>
   </g>
   <g id="line2d_7">
    <path clip-path="url(#p8c8b3b577b)" d="M 131.397923 174.528 
L 211.877399 174.528 
" style="fill:none;stroke:#ffa500;stroke-linecap:square;stroke-width:1.5;"/>
   </g>
   <g id="line2d_8">
    <path clip-path="url(#p8c8b3b577b)" d="M 153.599158 174.528 
L 178.575547 174.528 
" style="fill:none;stroke:#4c4c4c;stroke-linecap:square;stroke-width:4.5;"/>
   </g>
   <g id="line2d_9">
    <path clip-path="url(#p8c8b3b577b)" d="M 93.933339 174.528 
L 234.078634 174.528 
" style="fill:none;stroke:#008000;stroke-linecap:square;stroke-width:1.5;"/>
   </g>
   <g id="line2d_10">
    <path clip-path="url(#p8c8b3b577b)" d="M 145.273695 174.528 
L 181.697596 174.528 
" style="fill:none;stroke:#262626;stroke-linecap:square;stroke-width:4.5;"/>
   </g>
   <g id="patch_3">
    <path d="M 57.6 307.584 
L 57.6 41.472 
" style="fill:none;stroke:#000000;stroke-linecap:square;stroke-linejoin:miter;stroke-width:0.8;"/>
   </g>
   <g id="patch_4">
    <path d="M 414.72 307.584 
L 414.72 41.472 
" style="fill:none;stroke:#000000;stroke-linecap:square;stroke-linejoin:miter;stroke-width:0.8;"/>
   </g>
   <g id="patch_5">
    <path d="M 57.6 307.584 
L 414.72 307.584 
" style="fill:none;stroke:#000000;stroke-linecap:square;stroke-linejoin:miter;stroke-width:0.8;"/>
   </g>
   <g id="patch_6">
    <path d="M 57.6 41.472 
L 414.72 41.472 
" style="fill:none;stroke:#000000;stroke-linecap:square;stroke-linejoin:miter;stroke-width:0.8;"/>
   </g>
   <g id="PathCollection_1">
    <defs>
     <path d="M 0 1.5 
C 0.397805 1.5 0.77937 1.341951 1.06066 1.06066 
C 1.341951 0.77937 1.5 0.397805 1.5 0 
C 1.5 -0.397805 1.341951 -0.77937 1.06066 -1.06066 
C 0.77937 -1.341951 0.397805 -1.5 0 -1.5 
C -0.397805 -1.5 -0.77937 -1.341951 -1.06066 -1.06066 
C -1.341951 -0.77937 -1.5 -0.397805 -1.5 0 
C -1.5 0.397805 -1.341951 0.77937 -1.06066 1.06066 
C -0.77937 1.341951 -0.397805 1.5 0 1.5 
z
" id="m43f536b90f" style="stroke:#4c4c4c;stroke-opacity:0.5;"/>
    </defs>
    <g clip-path="url(#p8c8b3b577b)">
     <use style="fill:#ffffff;fill-opacity:0.5;stroke:#4c4c4c;stroke-opacity:0.5;" x="161.924621" xlink:href="#m43f536b90f" y="174.528"/>
    </g>
   </g>
   <g id="PathCollection_2">
    <defs>
     <path d="M 0 1.5 
C 0.397805 1.5 0.77937 1.341951 1.06066 1.06066 
C 1.341951 0.77937 1.5 0.397805 1.5 0 
C 1.5 -0.397805 1.341951 -0.77937 1.06066 -1.06066 
C 0.77937 -1.341951 0.397805 -1.5 0 -1.5 
C -0.397805 -1.5 -0.77937 -1.341951 -1.06066 -1.06066 
C -1.341951 -0.77937 -1.5 -0.397805 -1.5 0 
C -1.5 0.397805 -1.341951 0.77937 -1.06066 1.06066 
C -0.77937 1.341951 -0.397805 1.5 0 1.5 
z
" id="mb6ba343eec" style="stroke:#262626;stroke-opacity:0.5;"/>
    </defs>
    <g clip-path="url(#p8c8b3b577b)">
     <use style="fill:#ffffff;fill-opacity:0.5;stroke:#262626;stroke-opacity:0.5;" x="164.699775" xlink:href="#mb6ba343eec" y="174.528"/>
    </g>
   </g>
   <g id="text_7">
    <!-- Association of wbcnadirac vs. cardiogenic_shock -->
    <defs>
     <path d="M 34.1875 63.1875 
L 20.796875 26.90625 
L 47.609375 26.90625 
z
M 28.609375 72.90625 
L 39.796875 72.90625 
L 67.578125 0 
L 57.328125 0 
L 50.6875 18.703125 
L 17.828125 18.703125 
L 11.1875 0 
L 0.78125 0 
z
" id="DejaVuSans-65"/>
     <path d="M 44.28125 53.078125 
L 44.28125 44.578125 
Q 40.484375 46.53125 36.375 47.5 
Q 32.28125 48.484375 27.875 48.484375 
Q 21.1875 48.484375 17.84375 46.4375 
Q 14.5 44.390625 14.5 40.28125 
Q 14.5 37.15625 16.890625 35.375 
Q 19.28125 33.59375 26.515625 31.984375 
L 29.59375 31.296875 
Q 39.15625 29.25 43.1875 25.515625 
Q 47.21875 21.78125 47.21875 15.09375 
Q 47.21875 7.46875 41.1875 3.015625 
Q 35.15625 -1.421875 24.609375 -1.421875 
Q 20.21875 -1.421875 15.453125 -0.5625 
Q 10.6875 0.296875 5.421875 2 
L 5.421875 11.28125 
Q 10.40625 8.6875 15.234375 7.390625 
Q 20.0625 6.109375 24.8125 6.109375 
Q 31.15625 6.109375 34.5625 8.28125 
Q 37.984375 10.453125 37.984375 14.40625 
Q 37.984375 18.0625 35.515625 20.015625 
Q 33.0625 21.96875 24.703125 23.78125 
L 21.578125 24.515625 
Q 13.234375 26.265625 9.515625 29.90625 
Q 5.8125 33.546875 5.8125 39.890625 
Q 5.8125 47.609375 11.28125 51.796875 
Q 16.75 56 26.8125 56 
Q 31.78125 56 36.171875 55.265625 
Q 40.578125 54.546875 44.28125 53.078125 
z
" id="DejaVuSans-115"/>
     <path d="M 30.609375 48.390625 
Q 23.390625 48.390625 19.1875 42.75 
Q 14.984375 37.109375 14.984375 27.296875 
Q 14.984375 17.484375 19.15625 11.84375 
Q 23.34375 6.203125 30.609375 6.203125 
Q 37.796875 6.203125 41.984375 11.859375 
Q 46.1875 17.53125 46.1875 27.296875 
Q 46.1875 37.015625 41.984375 42.703125 
Q 37.796875 48.390625 30.609375 48.390625 
z
M 30.609375 56 
Q 42.328125 56 49.015625 48.375 
Q 55.71875 40.765625 55.71875 27.296875 
Q 55.71875 13.875 49.015625 6.21875 
Q 42.328125 -1.421875 30.609375 -1.421875 
Q 18.84375 -1.421875 12.171875 6.21875 
Q 5.515625 13.875 5.515625 27.296875 
Q 5.515625 40.765625 12.171875 48.375 
Q 18.84375 56 30.609375 56 
z
" id="DejaVuSans-111"/>
     <path d="M 18.3125 70.21875 
L 18.3125 54.6875 
L 36.8125 54.6875 
L 36.8125 47.703125 
L 18.3125 47.703125 
L 18.3125 18.015625 
Q 18.3125 11.328125 20.140625 9.421875 
Q 21.96875 7.515625 27.59375 7.515625 
L 36.8125 7.515625 
L 36.8125 0 
L 27.59375 0 
Q 17.1875 0 13.234375 3.875 
Q 9.28125 7.765625 9.28125 18.015625 
L 9.28125 47.703125 
L 2.6875 47.703125 
L 2.6875 54.6875 
L 9.28125 54.6875 
L 9.28125 70.21875 
z
" id="DejaVuSans-116"/>
     <path id="DejaVuSans-32"/>
     <path d="M 37.109375 75.984375 
L 37.109375 68.5 
L 28.515625 68.5 
Q 23.6875 68.5 21.796875 66.546875 
Q 19.921875 64.59375 19.921875 59.515625 
L 19.921875 54.6875 
L 34.71875 54.6875 
L 34.71875 47.703125 
L 19.921875 47.703125 
L 19.921875 0 
L 10.890625 0 
L 10.890625 47.703125 
L 2.296875 47.703125 
L 2.296875 54.6875 
L 10.890625 54.6875 
L 10.890625 58.5 
Q 10.890625 67.625 15.140625 71.796875 
Q 19.390625 75.984375 28.609375 75.984375 
z
" id="DejaVuSans-102"/>
     <path d="M 2.984375 54.6875 
L 12.5 54.6875 
L 29.59375 8.796875 
L 46.6875 54.6875 
L 56.203125 54.6875 
L 35.6875 0 
L 23.484375 0 
z
" id="DejaVuSans-118"/>
     <path d="M 10.6875 12.40625 
L 21 12.40625 
L 21 0 
L 10.6875 0 
z
" id="DejaVuSans-46"/>
     <path d="M 45.40625 27.984375 
Q 45.40625 37.75 41.375 43.109375 
Q 37.359375 48.484375 30.078125 48.484375 
Q 22.859375 48.484375 18.828125 43.109375 
Q 14.796875 37.75 14.796875 27.984375 
Q 14.796875 18.265625 18.828125 12.890625 
Q 22.859375 7.515625 30.078125 7.515625 
Q 37.359375 7.515625 41.375 12.890625 
Q 45.40625 18.265625 45.40625 27.984375 
z
M 54.390625 6.78125 
Q 54.390625 -7.171875 48.1875 -13.984375 
Q 42 -20.796875 29.203125 -20.796875 
Q 24.46875 -20.796875 20.265625 -20.09375 
Q 16.0625 -19.390625 12.109375 -17.921875 
L 12.109375 -9.1875 
Q 16.0625 -11.328125 19.921875 -12.34375 
Q 23.78125 -13.375 27.78125 -13.375 
Q 36.625 -13.375 41.015625 -8.765625 
Q 45.40625 -4.15625 45.40625 5.171875 
L 45.40625 9.625 
Q 42.625 4.78125 38.28125 2.390625 
Q 33.9375 0 27.875 0 
Q 17.828125 0 11.671875 7.65625 
Q 5.515625 15.328125 5.515625 27.984375 
Q 5.515625 40.671875 11.671875 48.328125 
Q 17.828125 56 27.875 56 
Q 33.9375 56 38.28125 53.609375 
Q 42.625 51.21875 45.40625 46.390625 
L 45.40625 54.6875 
L 54.390625 54.6875 
z
" id="DejaVuSans-103"/>
     <path d="M 56.203125 29.59375 
L 56.203125 25.203125 
L 14.890625 25.203125 
Q 15.484375 15.921875 20.484375 11.0625 
Q 25.484375 6.203125 34.421875 6.203125 
Q 39.59375 6.203125 44.453125 7.46875 
Q 49.3125 8.734375 54.109375 11.28125 
L 54.109375 2.78125 
Q 49.265625 0.734375 44.1875 -0.34375 
Q 39.109375 -1.421875 33.890625 -1.421875 
Q 20.796875 -1.421875 13.15625 6.1875 
Q 5.515625 13.8125 5.515625 26.8125 
Q 5.515625 40.234375 12.765625 48.109375 
Q 20.015625 56 32.328125 56 
Q 43.359375 56 49.78125 48.890625 
Q 56.203125 41.796875 56.203125 29.59375 
z
M 47.21875 32.234375 
Q 47.125 39.59375 43.09375 43.984375 
Q 39.0625 48.390625 32.421875 48.390625 
Q 24.90625 48.390625 20.390625 44.140625 
Q 15.875 39.890625 15.1875 32.171875 
z
" id="DejaVuSans-101"/>
     <path d="M 50.984375 -16.609375 
L 50.984375 -23.578125 
L -0.984375 -23.578125 
L -0.984375 -16.609375 
z
" id="DejaVuSans-95"/>
     <path d="M 54.890625 33.015625 
L 54.890625 0 
L 45.90625 0 
L 45.90625 32.71875 
Q 45.90625 40.484375 42.875 44.328125 
Q 39.84375 48.1875 33.796875 48.1875 
Q 26.515625 48.1875 22.3125 43.546875 
Q 18.109375 38.921875 18.109375 30.90625 
L 18.109375 0 
L 9.078125 0 
L 9.078125 75.984375 
L 18.109375 75.984375 
L 18.109375 46.1875 
Q 21.34375 51.125 25.703125 53.5625 
Q 30.078125 56 35.796875 56 
Q 45.21875 56 50.046875 50.171875 
Q 54.890625 44.34375 54.890625 33.015625 
z
" id="DejaVuSans-104"/>
     <path d="M 9.078125 75.984375 
L 18.109375 75.984375 
L 18.109375 31.109375 
L 44.921875 54.6875 
L 56.390625 54.6875 
L 27.390625 29.109375 
L 57.625 0 
L 45.90625 0 
L 18.109375 26.703125 
L 18.109375 0 
L 9.078125 0 
z
" id="DejaVuSans-107"/>
    </defs>
    <g transform="translate(90.463125 35.472)scale(0.12 -0.12)">
     <use xlink:href="#DejaVuSans-65"/>
     <use x="68.408203" xlink:href="#DejaVuSans-115"/>
     <use x="120.507812" xlink:href="#DejaVuSans-115"/>
     <use x="172.607422" xlink:href="#DejaVuSans-111"/>
     <use x="233.789062" xlink:href="#DejaVuSans-99"/>
     <use x="288.769531" xlink:href="#DejaVuSans-105"/>
     <use x="316.552734" xlink:href="#DejaVuSans-97"/>
     <use x="377.832031" xlink:href="#DejaVuSans-116"/>
     <use x="417.041016" xlink:href="#DejaVuSans-105"/>
     <use x="444.824219" xlink:href="#DejaVuSans-111"/>
     <use x="506.005859" xlink:href="#DejaVuSans-110"/>
     <use x="569.384766" xlink:href="#DejaVuSans-32"/>
     <use x="601.171875" xlink:href="#DejaVuSans-111"/>
     <use x="662.353516" xlink:href="#DejaVuSans-102"/>
     <use x="697.558594" xlink:href="#DejaVuSans-32"/>
     <use x="729.345703" xlink:href="#DejaVuSans-119"/>
     <use x="811.132812" xlink:href="#DejaVuSans-98"/>
     <use x="874.609375" xlink:href="#DejaVuSans-99"/>
     <use x="929.589844" xlink:href="#DejaVuSans-110"/>
     <use x="992.96875" xlink:href="#DejaVuSans-97"/>
     <use x="1054.248047" xlink:href="#DejaVuSans-100"/>
     <use x="1117.724609" xlink:href="#DejaVuSans-105"/>
     <use x="1145.507812" xlink:href="#DejaVuSans-114"/>
     <use x="1186.621094" xlink:href="#DejaVuSans-97"/>
     <use x="1247.900391" xlink:href="#DejaVuSans-99"/>
     <use x="1302.880859" xlink:href="#DejaVuSans-32"/>
     <use x="1334.667969" xlink:href="#DejaVuSans-118"/>
     <use x="1393.847656" xlink:href="#DejaVuSans-115"/>
     <use x="1445.947266" xlink:href="#DejaVuSans-46"/>
     <use x="1477.734375" xlink:href="#DejaVuSans-32"/>
     <use x="1509.521484" xlink:href="#DejaVuSans-99"/>
     <use x="1564.501953" xlink:href="#DejaVuSans-97"/>
     <use x="1625.78125" xlink:href="#DejaVuSans-114"/>
     <use x="1665.144531" xlink:href="#DejaVuSans-100"/>
     <use x="1728.621094" xlink:href="#DejaVuSans-105"/>
     <use x="1756.404297" xlink:href="#DejaVuSans-111"/>
     <use x="1817.585938" xlink:href="#DejaVuSans-103"/>
     <use x="1881.0625" xlink:href="#DejaVuSans-101"/>
     <use x="1942.585938" xlink:href="#DejaVuSans-110"/>
     <use x="2005.964844" xlink:href="#DejaVuSans-105"/>
     <use x="2033.748047" xlink:href="#DejaVuSans-99"/>
     <use x="2088.728516" xlink:href="#DejaVuSans-95"/>
     <use x="2138.728516" xlink:href="#DejaVuSans-115"/>
     <use x="2190.828125" xlink:href="#DejaVuSans-104"/>
     <use x="2254.207031" xlink:href="#DejaVuSans-111"/>
     <use x="2315.388672" xlink:href="#DejaVuSans-99"/>
     <use x="2370.369141" xlink:href="#DejaVuSans-107"/>
    </g>
   </g>
   <g id="legend_1">
    <g id="patch_7">
     <path d="M 233.074687 79.3845 
L 407.72 79.3845 
Q 409.72 79.3845 409.72 77.3845 
L 409.72 48.472 
Q 409.72 46.472 407.72 46.472 
L 233.074687 46.472 
Q 231.074687 46.472 231.074687 48.472 
L 231.074687 77.3845 
Q 231.074687 79.3845 233.074687 79.3845 
z
" style="fill:#ffffff;opacity:0.8;stroke:#cccccc;stroke-linejoin:miter;"/>
    </g>
    <g id="line2d_11">
     <path d="M 235.074687 54.570438 
L 255.074687 54.570438 
" style="fill:none;stroke:#ffa500;stroke-linecap:square;stroke-width:1.5;"/>
    </g>
    <g id="line2d_12"/>
    <g id="text_8">
     <!-- cardiogenic_shock (13) -->
     <defs>
      <path d="M 31 75.875 
Q 24.46875 64.65625 21.28125 53.65625 
Q 18.109375 42.671875 18.109375 31.390625 
Q 18.109375 20.125 21.3125 9.0625 
Q 24.515625 -2 31 -13.1875 
L 23.1875 -13.1875 
Q 15.875 -1.703125 12.234375 9.375 
Q 8.59375 20.453125 8.59375 31.390625 
Q 8.59375 42.28125 12.203125 53.3125 
Q 15.828125 64.359375 23.1875 75.875 
z
" id="DejaVuSans-40"/>
      <path d="M 40.578125 39.3125 
Q 47.65625 37.796875 51.625 33 
Q 55.609375 28.21875 55.609375 21.1875 
Q 55.609375 10.40625 48.1875 4.484375 
Q 40.765625 -1.421875 27.09375 -1.421875 
Q 22.515625 -1.421875 17.65625 -0.515625 
Q 12.796875 0.390625 7.625 2.203125 
L 7.625 11.71875 
Q 11.71875 9.328125 16.59375 8.109375 
Q 21.484375 6.890625 26.8125 6.890625 
Q 36.078125 6.890625 40.9375 10.546875 
Q 45.796875 14.203125 45.796875 21.1875 
Q 45.796875 27.640625 41.28125 31.265625 
Q 36.765625 34.90625 28.71875 34.90625 
L 20.21875 34.90625 
L 20.21875 43.015625 
L 29.109375 43.015625 
Q 36.375 43.015625 40.234375 45.921875 
Q 44.09375 48.828125 44.09375 54.296875 
Q 44.09375 59.90625 40.109375 62.90625 
Q 36.140625 65.921875 28.71875 65.921875 
Q 24.65625 65.921875 20.015625 65.03125 
Q 15.375 64.15625 9.8125 62.3125 
L 9.8125 71.09375 
Q 15.4375 72.65625 20.34375 73.4375 
Q 25.25 74.21875 29.59375 74.21875 
Q 40.828125 74.21875 47.359375 69.109375 
Q 53.90625 64.015625 53.90625 55.328125 
Q 53.90625 49.265625 50.4375 45.09375 
Q 46.96875 40.921875 40.578125 39.3125 
z
" id="DejaVuSans-51"/>
      <path d="M 8.015625 75.875 
L 15.828125 75.875 
Q 23.140625 64.359375 26.78125 53.3125 
Q 30.421875 42.28125 30.421875 31.390625 
Q 30.421875 20.453125 26.78125 9.375 
Q 23.140625 -1.703125 15.828125 -13.1875 
L 8.015625 -13.1875 
Q 14.5 -2 17.703125 9.0625 
Q 20.90625 20.125 20.90625 31.390625 
Q 20.90625 42.671875 17.703125 53.65625 
Q 14.5 64.65625 8.015625 75.875 
z
" id="DejaVuSans-41"/>
     </defs>
     <g transform="translate(263.074687 58.070438)scale(0.1 -0.1)">
      <use xlink:href="#DejaVuSans-99"/>
      <use x="54.980469" xlink:href="#DejaVuSans-97"/>
      <use x="116.259766" xlink:href="#DejaVuSans-114"/>
      <use x="155.623047" xlink:href="#DejaVuSans-100"/>
      <use x="219.099609" xlink:href="#DejaVuSans-105"/>
      <use x="246.882812" xlink:href="#DejaVuSans-111"/>
      <use x="308.064453" xlink:href="#DejaVuSans-103"/>
      <use x="371.541016" xlink:href="#DejaVuSans-101"/>
      <use x="433.064453" xlink:href="#DejaVuSans-110"/>
      <use x="496.443359" xlink:href="#DejaVuSans-105"/>
      <use x="524.226562" xlink:href="#DejaVuSans-99"/>
      <use x="579.207031" xlink:href="#DejaVuSans-95"/>
      <use x="629.207031" xlink:href="#DejaVuSans-115"/>
      <use x="681.306641" xlink:href="#DejaVuSans-104"/>
      <use x="744.685547" xlink:href="#DejaVuSans-111"/>
      <use x="805.867188" xlink:href="#DejaVuSans-99"/>
      <use x="860.847656" xlink:href="#DejaVuSans-107"/>
      <use x="918.757812" xlink:href="#DejaVuSans-32"/>
      <use x="950.544922" xlink:href="#DejaVuSans-40"/>
      <use x="989.558594" xlink:href="#DejaVuSans-49"/>
      <use x="1053.181641" xlink:href="#DejaVuSans-51"/>
      <use x="1116.804688" xlink:href="#DejaVuSans-41"/>
     </g>
    </g>
    <g id="line2d_13">
     <path d="M 235.074687 69.526688 
L 255.074687 69.526688 
" style="fill:none;stroke:#008000;stroke-linecap:square;stroke-width:1.5;"/>
    </g>
    <g id="line2d_14"/>
    <g id="text_9">
     <!-- Not cardiogenic_shock (468) -->
     <defs>
      <path d="M 9.8125 72.90625 
L 23.09375 72.90625 
L 55.421875 11.921875 
L 55.421875 72.90625 
L 64.984375 72.90625 
L 64.984375 0 
L 51.703125 0 
L 19.390625 60.984375 
L 19.390625 0 
L 9.8125 0 
z
" id="DejaVuSans-78"/>
      <path d="M 37.796875 64.3125 
L 12.890625 25.390625 
L 37.796875 25.390625 
z
M 35.203125 72.90625 
L 47.609375 72.90625 
L 47.609375 25.390625 
L 58.015625 25.390625 
L 58.015625 17.1875 
L 47.609375 17.1875 
L 47.609375 0 
L 37.796875 0 
L 37.796875 17.1875 
L 4.890625 17.1875 
L 4.890625 26.703125 
z
" id="DejaVuSans-52"/>
      <path d="M 33.015625 40.375 
Q 26.375 40.375 22.484375 35.828125 
Q 18.609375 31.296875 18.609375 23.390625 
Q 18.609375 15.53125 22.484375 10.953125 
Q 26.375 6.390625 33.015625 6.390625 
Q 39.65625 6.390625 43.53125 10.953125 
Q 47.40625 15.53125 47.40625 23.390625 
Q 47.40625 31.296875 43.53125 35.828125 
Q 39.65625 40.375 33.015625 40.375 
z
M 52.59375 71.296875 
L 52.59375 62.3125 
Q 48.875 64.0625 45.09375 64.984375 
Q 41.3125 65.921875 37.59375 65.921875 
Q 27.828125 65.921875 22.671875 59.328125 
Q 17.53125 52.734375 16.796875 39.40625 
Q 19.671875 43.65625 24.015625 45.921875 
Q 28.375 48.1875 33.59375 48.1875 
Q 44.578125 48.1875 50.953125 41.515625 
Q 57.328125 34.859375 57.328125 23.390625 
Q 57.328125 12.15625 50.6875 5.359375 
Q 44.046875 -1.421875 33.015625 -1.421875 
Q 20.359375 -1.421875 13.671875 8.265625 
Q 6.984375 17.96875 6.984375 36.375 
Q 6.984375 53.65625 15.1875 63.9375 
Q 23.390625 74.21875 37.203125 74.21875 
Q 40.921875 74.21875 44.703125 73.484375 
Q 48.484375 72.75 52.59375 71.296875 
z
" id="DejaVuSans-54"/>
      <path d="M 31.78125 34.625 
Q 24.75 34.625 20.71875 30.859375 
Q 16.703125 27.09375 16.703125 20.515625 
Q 16.703125 13.921875 20.71875 10.15625 
Q 24.75 6.390625 31.78125 6.390625 
Q 38.8125 6.390625 42.859375 10.171875 
Q 46.921875 13.96875 46.921875 20.515625 
Q 46.921875 27.09375 42.890625 30.859375 
Q 38.875 34.625 31.78125 34.625 
z
M 21.921875 38.8125 
Q 15.578125 40.375 12.03125 44.71875 
Q 8.5 49.078125 8.5 55.328125 
Q 8.5 64.0625 14.71875 69.140625 
Q 20.953125 74.21875 31.78125 74.21875 
Q 42.671875 74.21875 48.875 69.140625 
Q 55.078125 64.0625 55.078125 55.328125 
Q 55.078125 49.078125 51.53125 44.71875 
Q 48 40.375 41.703125 38.8125 
Q 48.828125 37.15625 52.796875 32.3125 
Q 56.78125 27.484375 56.78125 20.515625 
Q 56.78125 9.90625 50.3125 4.234375 
Q 43.84375 -1.421875 31.78125 -1.421875 
Q 19.734375 -1.421875 13.25 4.234375 
Q 6.78125 9.90625 6.78125 20.515625 
Q 6.78125 27.484375 10.78125 32.3125 
Q 14.796875 37.15625 21.921875 38.8125 
z
M 18.3125 54.390625 
Q 18.3125 48.734375 21.84375 45.5625 
Q 25.390625 42.390625 31.78125 42.390625 
Q 38.140625 42.390625 41.71875 45.5625 
Q 45.3125 48.734375 45.3125 54.390625 
Q 45.3125 60.0625 41.71875 63.234375 
Q 38.140625 66.40625 31.78125 66.40625 
Q 25.390625 66.40625 21.84375 63.234375 
Q 18.3125 60.0625 18.3125 54.390625 
z
" id="DejaVuSans-56"/>
     </defs>
     <g transform="translate(263.074687 73.026688)scale(0.1 -0.1)">
      <use xlink:href="#DejaVuSans-78"/>
      <use x="74.804688" xlink:href="#DejaVuSans-111"/>
      <use x="135.986328" xlink:href="#DejaVuSans-116"/>
      <use x="175.195312" xlink:href="#DejaVuSans-32"/>
      <use x="206.982422" xlink:href="#DejaVuSans-99"/>
      <use x="261.962891" xlink:href="#DejaVuSans-97"/>
      <use x="323.242188" xlink:href="#DejaVuSans-114"/>
      <use x="362.605469" xlink:href="#DejaVuSans-100"/>
      <use x="426.082031" xlink:href="#DejaVuSans-105"/>
      <use x="453.865234" xlink:href="#DejaVuSans-111"/>
      <use x="515.046875" xlink:href="#DejaVuSans-103"/>
      <use x="578.523438" xlink:href="#DejaVuSans-101"/>
      <use x="640.046875" xlink:href="#DejaVuSans-110"/>
      <use x="703.425781" xlink:href="#DejaVuSans-105"/>
      <use x="731.208984" xlink:href="#DejaVuSans-99"/>
      <use x="786.189453" xlink:href="#DejaVuSans-95"/>
      <use x="836.189453" xlink:href="#DejaVuSans-115"/>
      <use x="888.289062" xlink:href="#DejaVuSans-104"/>
      <use x="951.667969" xlink:href="#DejaVuSans-111"/>
      <use x="1012.849609" xlink:href="#DejaVuSans-99"/>
      <use x="1067.830078" xlink:href="#DejaVuSans-107"/>
      <use x="1125.740234" xlink:href="#DejaVuSans-32"/>
      <use x="1157.527344" xlink:href="#DejaVuSans-40"/>
      <use x="1196.541016" xlink:href="#DejaVuSans-52"/>
      <use x="1260.164062" xlink:href="#DejaVuSans-54"/>
      <use x="1323.787109" xlink:href="#DejaVuSans-56"/>
      <use x="1387.410156" xlink:href="#DejaVuSans-41"/>
     </g>
    </g>
   </g>
  </g>
 </g>
 <defs>
  <clipPath id="p8c8b3b577b">
   <rect height="266.112" width="357.12" x="57.6" y="41.472"/>
  </clipPath>
 </defs>
</svg>
