<?xml version="1.0" encoding="utf-8" standalone="no"?>
<!DOCTYPE svg PUBLIC "-//W3C//DTD SVG 1.1//EN"
  "http://www.w3.org/Graphics/SVG/1.1/DTD/svg11.dtd">
<!-- Created with matplotlib (https://matplotlib.org/) -->
<svg height="345.6pt" version="1.1" viewBox="0 0 460.8 345.6" width="460.8pt" xmlns="http://www.w3.org/2000/svg" xmlns:xlink="http://www.w3.org/1999/xlink">
 <defs>
  <style type="text/css">
*{stroke-linecap:butt;stroke-linejoin:round;}
  </style>
 </defs>
 <g id="figure_1">
  <g id="patch_1">
   <path d="M 0 345.6 
L 460.8 345.6 
L 460.8 0 
L 0 0 
z
" style="fill:#ffffff;"/>
  </g>
  <g id="axes_1">
   <g id="patch_2">
    <path d="M 57.6 307.584 
L 414.72 307.584 
L 414.72 41.472 
L 57.6 41.472 
z
" style="fill:#ffffff;"/>
   </g>
   <g id="PolyCollection_1">
    <defs>
     <path d="M 82.005095 -169.70275 
L 82.005095 -172.44125 
L 83.955789 -172.823786 
L 85.906483 -173.28408 
L 87.857176 -173.829842 
L 89.80787 -174.467735 
L 91.758564 -175.203075 
L 93.709258 -176.039651 
L 95.659952 -176.97968 
L 97.610645 -178.023959 
L 99.561339 -179.172188 
L 101.512033 -180.423462 
L 103.462727 -181.776872 
L 105.413421 -183.232145 
L 107.364115 -184.790224 
L 109.314808 -186.453685 
L 111.265502 -188.226894 
L 113.216196 -190.115832 
L 115.16689 -192.127554 
L 117.117584 -194.269283 
L 119.068278 -196.547232 
L 121.018971 -198.96524 
L 122.969665 -201.52341 
L 124.920359 -204.216912 
L 126.871053 -207.035148 
L 128.821747 -209.961428 
L 130.772441 -212.97327 
L 132.723134 -216.043371 
L 134.673828 -219.141213 
L 136.624522 -222.235183 
L 138.575216 -225.295032 
L 140.52591 -228.294424 
L 142.476604 -231.213303 
L 144.427297 -234.039834 
L 146.377991 -236.771654 
L 148.328685 -239.41628 
L 150.279379 -241.990585 
L 152.230073 -244.519336 
L 154.180767 -247.032907 
L 156.13146 -249.564356 
L 158.082154 -252.146111 
L 160.032848 -254.80658 
L 161.983542 -257.566959 
L 163.934236 -260.438525 
L 165.88493 -263.420622 
L 167.835623 -266.499464 
L 169.786317 -269.647816 
L 171.737011 -272.825498 
L 173.687705 -275.980625 
L 175.638399 -279.051415 
L 177.589092 -281.968413 
L 179.539786 -284.656977 
L 181.49048 -287.039896 
L 183.441174 -289.040076 
L 185.391868 -290.583251 
L 187.342562 -291.600703 
L 189.293255 -292.032 
L 191.243949 -291.827714 
L 193.194643 -290.952057 
L 195.145337 -289.385314 
L 197.096031 -287.125899 
L 199.046725 -284.191819 
L 200.997418 -280.621326 
L 202.948112 -276.472563 
L 204.898806 -271.822061 
L 206.8495 -266.762057 
L 208.800194 -261.396711 
L 210.750888 -255.83741 
L 212.701581 -250.19748 
L 214.652275 -244.58667 
L 216.602969 -239.105861 
L 218.553663 -233.842386 
L 220.504357 -228.866356 
L 222.455051 -224.228243 
L 224.405744 -219.957886 
L 226.356438 -216.064945 
L 228.307132 -212.540687 
L 230.257826 -209.360896 
L 232.20852 -206.489598 
L 234.159214 -203.883232 
L 236.109907 -201.494916 
L 238.060601 -199.278433 
L 240.011295 -197.191667 
L 241.961989 -195.199236 
L 243.912683 -193.274223 
L 245.863377 -191.398947 
L 247.81407 -189.564836 
L 249.764764 -187.771537 
L 251.715458 -186.025425 
L 253.666152 -184.337754 
L 255.616846 -182.722644 
L 257.567539 -181.195115 
L 259.518233 -179.769352 
L 261.468927 -178.457299 
L 263.419621 -177.267674 
L 265.370315 -176.205418 
L 267.321009 -175.271552 
L 269.271702 -174.463382 
L 271.222396 -173.774977 
L 273.17309 -173.197823 
L 275.123784 -172.721562 
L 275.123784 -169.422438 
L 275.123784 -169.422438 
L 273.17309 -168.946177 
L 271.222396 -168.369023 
L 269.271702 -167.680618 
L 267.321009 -166.872448 
L 265.370315 -165.938582 
L 263.419621 -164.876326 
L 261.468927 -163.686701 
L 259.518233 -162.374648 
L 257.567539 -160.948885 
L 255.616846 -159.421356 
L 253.666152 -157.806246 
L 251.715458 -156.118575 
L 249.764764 -154.372463 
L 247.81407 -152.579164 
L 245.863377 -150.745053 
L 243.912683 -148.869777 
L 241.961989 -146.944764 
L 240.011295 -144.952333 
L 238.060601 -142.865567 
L 236.109907 -140.649084 
L 234.159214 -138.260768 
L 232.20852 -135.654402 
L 230.257826 -132.783104 
L 228.307132 -129.603313 
L 226.356438 -126.079055 
L 224.405744 -122.186114 
L 222.455051 -117.915757 
L 220.504357 -113.277644 
L 218.553663 -108.301614 
L 216.602969 -103.038139 
L 214.652275 -97.55733 
L 212.701581 -91.94652 
L 210.750888 -86.30659 
L 208.800194 -80.747289 
L 206.8495 -75.381943 
L 204.898806 -70.321939 
L 202.948112 -65.671437 
L 200.997418 -61.522674 
L 199.046725 -57.952181 
L 197.096031 -55.018101 
L 195.145337 -52.758686 
L 193.194643 -51.191943 
L 191.243949 -50.316286 
L 189.293255 -50.112 
L 187.342562 -50.543297 
L 185.391868 -51.560749 
L 183.441174 -53.103924 
L 181.49048 -55.104104 
L 179.539786 -57.487023 
L 177.589092 -60.175587 
L 175.638399 -63.092585 
L 173.687705 -66.163375 
L 171.737011 -69.318502 
L 169.786317 -72.496184 
L 167.835623 -75.644536 
L 165.88493 -78.723378 
L 163.934236 -81.705475 
L 161.983542 -84.577041 
L 160.032848 -87.33742 
L 158.082154 -89.997889 
L 156.13146 -92.579644 
L 154.180767 -95.111093 
L 152.230073 -97.624664 
L 150.279379 -100.153415 
L 148.328685 -102.72772 
L 146.377991 -105.372346 
L 144.427297 -108.104166 
L 142.476604 -110.930697 
L 140.52591 -113.849576 
L 138.575216 -116.848968 
L 136.624522 -119.908817 
L 134.673828 -123.002787 
L 132.723134 -126.100629 
L 130.772441 -129.17073 
L 128.821747 -132.182572 
L 126.871053 -135.108852 
L 124.920359 -137.927088 
L 122.969665 -140.62059 
L 121.018971 -143.17876 
L 119.068278 -145.596768 
L 117.117584 -147.874717 
L 115.16689 -150.016446 
L 113.216196 -152.028168 
L 111.265502 -153.917106 
L 109.314808 -155.690315 
L 107.364115 -157.353776 
L 105.413421 -158.911855 
L 103.462727 -160.367128 
L 101.512033 -161.720538 
L 99.561339 -162.971812 
L 97.610645 -164.120041 
L 95.659952 -165.16432 
L 93.709258 -166.104349 
L 91.758564 -166.940925 
L 89.80787 -167.676265 
L 87.857176 -168.314158 
L 85.906483 -168.85992 
L 83.955789 -169.320214 
L 82.005095 -169.70275 
z
" id="mccda569d81" style="stroke:#4c4c4c;stroke-opacity:0.5;stroke-width:1.5;"/>
    </defs>
    <g clip-path="url(#pb7ecf17515)">
     <use style="fill:#df9c20;fill-opacity:0.5;stroke:#4c4c4c;stroke-opacity:0.5;stroke-width:1.5;" x="0" xlink:href="#mccda569d81" y="345.6"/>
    </g>
   </g>
   <g id="PolyCollection_2">
    <defs>
     <path d="M 73.832727 -170.782282 
L 73.832727 -171.361718 
L 77.112066 -171.656562 
L 80.391405 -172.175018 
L 83.670744 -173.024468 
L 86.950083 -174.324303 
L 90.229421 -176.185851 
L 93.50876 -178.685864 
L 96.788099 -181.841169 
L 100.067438 -185.595659 
L 103.346777 -189.829651 
L 106.626116 -194.393365 
L 109.905455 -199.152707 
L 113.184793 -204.025111 
L 116.464132 -208.98531 
L 119.743471 -214.038067 
L 123.02281 -219.176165 
L 126.302149 -224.350477 
L 129.581488 -229.465962 
L 132.860826 -234.393139 
L 136.140165 -238.971497 
L 139.419504 -242.993796 
L 142.698843 -246.18943 
L 145.978182 -248.243883 
L 149.257521 -248.87844 
L 152.53686 -247.974222 
L 155.816198 -245.685635 
L 159.095537 -242.480081 
L 162.374876 -239.072202 
L 165.654215 -236.273966 
L 168.933554 -234.824391 
L 172.212893 -235.268475 
L 175.492231 -237.919072 
L 178.77157 -242.878044 
L 182.050909 -250.049431 
L 185.330248 -259.081407 
L 188.609587 -269.235465 
L 191.888926 -279.271191 
L 195.168264 -287.489134 
L 198.447603 -292.032 
L 201.726942 -291.402924 
L 205.006281 -284.998263 
L 208.28562 -273.389475 
L 211.564959 -258.189405 
L 214.844298 -241.551379 
L 218.123636 -225.536266 
L 221.402975 -211.623072 
L 224.682314 -200.52211 
L 227.961653 -192.273185 
L 231.240992 -186.492392 
L 234.520331 -182.621617 
L 237.799669 -180.101146 
L 241.079008 -178.458767 
L 244.358347 -177.34326 
L 247.637686 -176.527152 
L 250.917025 -175.889324 
L 254.196364 -175.382482 
L 257.475702 -174.994172 
L 260.755041 -174.713347 
L 264.03438 -174.511497 
L 267.313719 -174.340681 
L 270.593058 -174.145055 
L 273.872397 -173.879277 
L 277.151736 -173.525464 
L 280.431074 -173.100783 
L 283.710413 -172.651679 
L 286.989752 -172.237399 
L 290.269091 -171.910798 
L 293.54843 -171.704611 
L 296.827769 -171.626793 
L 300.107107 -171.66327 
L 303.386446 -171.784226 
L 306.665785 -171.951091 
L 309.945124 -172.123412 
L 313.224463 -172.265585 
L 316.503802 -172.352955 
L 319.78314 -172.376084 
L 323.062479 -172.341808 
L 326.341818 -172.270072 
L 329.621157 -172.186512 
L 332.900496 -172.112574 
L 336.179835 -172.057051 
L 339.459174 -172.013474 
L 342.738512 -171.965499 
L 346.017851 -171.897893 
L 349.29719 -171.807103 
L 352.576529 -171.705442 
L 355.855868 -171.61668 
L 359.135207 -171.565552 
L 362.414545 -171.566416 
L 365.693884 -171.616057 
L 368.973223 -171.693504 
L 372.252562 -171.76693 
L 375.531901 -171.805015 
L 378.81124 -171.788189 
L 382.090579 -171.714929 
L 385.369917 -171.600474 
L 388.649256 -171.469181 
L 391.928595 -171.344772 
L 395.207934 -171.243141 
L 398.487273 -171.170086 
L 398.487273 -170.973914 
L 398.487273 -170.973914 
L 395.207934 -170.900859 
L 391.928595 -170.799228 
L 388.649256 -170.674819 
L 385.369917 -170.543526 
L 382.090579 -170.429071 
L 378.81124 -170.355811 
L 375.531901 -170.338985 
L 372.252562 -170.37707 
L 368.973223 -170.450496 
L 365.693884 -170.527943 
L 362.414545 -170.577584 
L 359.135207 -170.578448 
L 355.855868 -170.52732 
L 352.576529 -170.438558 
L 349.29719 -170.336897 
L 346.017851 -170.246107 
L 342.738512 -170.178501 
L 339.459174 -170.130526 
L 336.179835 -170.086949 
L 332.900496 -170.031426 
L 329.621157 -169.957488 
L 326.341818 -169.873928 
L 323.062479 -169.802192 
L 319.78314 -169.767916 
L 316.503802 -169.791045 
L 313.224463 -169.878415 
L 309.945124 -170.020588 
L 306.665785 -170.192909 
L 303.386446 -170.359774 
L 300.107107 -170.48073 
L 296.827769 -170.517207 
L 293.54843 -170.439389 
L 290.269091 -170.233202 
L 286.989752 -169.906601 
L 283.710413 -169.492321 
L 280.431074 -169.043217 
L 277.151736 -168.618536 
L 273.872397 -168.264723 
L 270.593058 -167.998945 
L 267.313719 -167.803319 
L 264.03438 -167.632503 
L 260.755041 -167.430653 
L 257.475702 -167.149828 
L 254.196364 -166.761518 
L 250.917025 -166.254676 
L 247.637686 -165.616848 
L 244.358347 -164.80074 
L 241.079008 -163.685233 
L 237.799669 -162.042854 
L 234.520331 -159.522383 
L 231.240992 -155.651608 
L 227.961653 -149.870815 
L 224.682314 -141.62189 
L 221.402975 -130.520928 
L 218.123636 -116.607734 
L 214.844298 -100.592621 
L 211.564959 -83.954595 
L 208.28562 -68.754525 
L 205.006281 -57.145737 
L 201.726942 -50.741076 
L 198.447603 -50.112 
L 195.168264 -54.654866 
L 191.888926 -62.872809 
L 188.609587 -72.908535 
L 185.330248 -83.062593 
L 182.050909 -92.094569 
L 178.77157 -99.265956 
L 175.492231 -104.224928 
L 172.212893 -106.875525 
L 168.933554 -107.319609 
L 165.654215 -105.870034 
L 162.374876 -103.071798 
L 159.095537 -99.663919 
L 155.816198 -96.458365 
L 152.53686 -94.169778 
L 149.257521 -93.26556 
L 145.978182 -93.900117 
L 142.698843 -95.95457 
L 139.419504 -99.150204 
L 136.140165 -103.172503 
L 132.860826 -107.750861 
L 129.581488 -112.678038 
L 126.302149 -117.793523 
L 123.02281 -122.967835 
L 119.743471 -128.105933 
L 116.464132 -133.15869 
L 113.184793 -138.118889 
L 109.905455 -142.991293 
L 106.626116 -147.750635 
L 103.346777 -152.314349 
L 100.067438 -156.548341 
L 96.788099 -160.302831 
L 93.50876 -163.458136 
L 90.229421 -165.958149 
L 86.950083 -167.819697 
L 83.670744 -169.119532 
L 80.391405 -169.968982 
L 77.112066 -170.487438 
L 73.832727 -170.782282 
z
" id="mb234fa46dd" style="stroke:#262626;stroke-opacity:0.5;stroke-width:1.5;"/>
    </defs>
    <g clip-path="url(#pb7ecf17515)">
     <use style="fill:#107010;fill-opacity:0.5;stroke:#262626;stroke-opacity:0.5;stroke-width:1.5;" x="0" xlink:href="#mb234fa46dd" y="345.6"/>
    </g>
   </g>
   <g id="matplotlib.axis_1">
    <g id="xtick_1">
     <g id="line2d_1">
      <defs>
       <path d="M 0 0 
L 0 3.5 
" id="m0702ede8d1" style="stroke:#000000;stroke-width:0.8;"/>
      </defs>
      <g>
       <use style="stroke:#000000;stroke-width:0.8;" x="91.019187" xlink:href="#m0702ede8d1" y="307.584"/>
      </g>
     </g>
     <g id="text_1">
      <!-- 98 -->
      <defs>
       <path d="M 10.984375 1.515625 
L 10.984375 10.5 
Q 14.703125 8.734375 18.5 7.8125 
Q 22.3125 6.890625 25.984375 6.890625 
Q 35.75 6.890625 40.890625 13.453125 
Q 46.046875 20.015625 46.78125 33.40625 
Q 43.953125 29.203125 39.59375 26.953125 
Q 35.25 24.703125 29.984375 24.703125 
Q 19.046875 24.703125 12.671875 31.3125 
Q 6.296875 37.9375 6.296875 49.421875 
Q 6.296875 60.640625 12.9375 67.421875 
Q 19.578125 74.21875 30.609375 74.21875 
Q 43.265625 74.21875 49.921875 64.515625 
Q 56.59375 54.828125 56.59375 36.375 
Q 56.59375 19.140625 48.40625 8.859375 
Q 40.234375 -1.421875 26.421875 -1.421875 
Q 22.703125 -1.421875 18.890625 -0.6875 
Q 15.09375 0.046875 10.984375 1.515625 
z
M 30.609375 32.421875 
Q 37.25 32.421875 41.125 36.953125 
Q 45.015625 41.5 45.015625 49.421875 
Q 45.015625 57.28125 41.125 61.84375 
Q 37.25 66.40625 30.609375 66.40625 
Q 23.96875 66.40625 20.09375 61.84375 
Q 16.21875 57.28125 16.21875 49.421875 
Q 16.21875 41.5 20.09375 36.953125 
Q 23.96875 32.421875 30.609375 32.421875 
z
" id="DejaVuSans-57"/>
       <path d="M 31.78125 34.625 
Q 24.75 34.625 20.71875 30.859375 
Q 16.703125 27.09375 16.703125 20.515625 
Q 16.703125 13.921875 20.71875 10.15625 
Q 24.75 6.390625 31.78125 6.390625 
Q 38.8125 6.390625 42.859375 10.171875 
Q 46.921875 13.96875 46.921875 20.515625 
Q 46.921875 27.09375 42.890625 30.859375 
Q 38.875 34.625 31.78125 34.625 
z
M 21.921875 38.8125 
Q 15.578125 40.375 12.03125 44.71875 
Q 8.5 49.078125 8.5 55.328125 
Q 8.5 64.0625 14.71875 69.140625 
Q 20.953125 74.21875 31.78125 74.21875 
Q 42.671875 74.21875 48.875 69.140625 
Q 55.078125 64.0625 55.078125 55.328125 
Q 55.078125 49.078125 51.53125 44.71875 
Q 48 40.375 41.703125 38.8125 
Q 48.828125 37.15625 52.796875 32.3125 
Q 56.78125 27.484375 56.78125 20.515625 
Q 56.78125 9.90625 50.3125 4.234375 
Q 43.84375 -1.421875 31.78125 -1.421875 
Q 19.734375 -1.421875 13.25 4.234375 
Q 6.78125 9.90625 6.78125 20.515625 
Q 6.78125 27.484375 10.78125 32.3125 
Q 14.796875 37.15625 21.921875 38.8125 
z
M 18.3125 54.390625 
Q 18.3125 48.734375 21.84375 45.5625 
Q 25.390625 42.390625 31.78125 42.390625 
Q 38.140625 42.390625 41.71875 45.5625 
Q 45.3125 48.734375 45.3125 54.390625 
Q 45.3125 60.0625 41.71875 63.234375 
Q 38.140625 66.40625 31.78125 66.40625 
Q 25.390625 66.40625 21.84375 63.234375 
Q 18.3125 60.0625 18.3125 54.390625 
z
" id="DejaVuSans-56"/>
      </defs>
      <g transform="translate(84.656687 322.182437)scale(0.1 -0.1)">
       <use xlink:href="#DejaVuSans-57"/>
       <use x="63.623047" xlink:href="#DejaVuSans-56"/>
      </g>
     </g>
    </g>
    <g id="xtick_2">
     <g id="line2d_2">
      <g>
       <use style="stroke:#000000;stroke-width:0.8;" x="137.095636" xlink:href="#m0702ede8d1" y="307.584"/>
      </g>
     </g>
     <g id="text_2">
      <!-- 100 -->
      <defs>
       <path d="M 12.40625 8.296875 
L 28.515625 8.296875 
L 28.515625 63.921875 
L 10.984375 60.40625 
L 10.984375 69.390625 
L 28.421875 72.90625 
L 38.28125 72.90625 
L 38.28125 8.296875 
L 54.390625 8.296875 
L 54.390625 0 
L 12.40625 0 
z
" id="DejaVuSans-49"/>
       <path d="M 31.78125 66.40625 
Q 24.171875 66.40625 20.328125 58.90625 
Q 16.5 51.421875 16.5 36.375 
Q 16.5 21.390625 20.328125 13.890625 
Q 24.171875 6.390625 31.78125 6.390625 
Q 39.453125 6.390625 43.28125 13.890625 
Q 47.125 21.390625 47.125 36.375 
Q 47.125 51.421875 43.28125 58.90625 
Q 39.453125 66.40625 31.78125 66.40625 
z
M 31.78125 74.21875 
Q 44.046875 74.21875 50.515625 64.515625 
Q 56.984375 54.828125 56.984375 36.375 
Q 56.984375 17.96875 50.515625 8.265625 
Q 44.046875 -1.421875 31.78125 -1.421875 
Q 19.53125 -1.421875 13.0625 8.265625 
Q 6.59375 17.96875 6.59375 36.375 
Q 6.59375 54.828125 13.0625 64.515625 
Q 19.53125 74.21875 31.78125 74.21875 
z
" id="DejaVuSans-48"/>
      </defs>
      <g transform="translate(127.551886 322.182437)scale(0.1 -0.1)">
       <use xlink:href="#DejaVuSans-49"/>
       <use x="63.623047" xlink:href="#DejaVuSans-48"/>
       <use x="127.246094" xlink:href="#DejaVuSans-48"/>
      </g>
     </g>
    </g>
    <g id="xtick_3">
     <g id="line2d_3">
      <g>
       <use style="stroke:#000000;stroke-width:0.8;" x="183.172084" xlink:href="#m0702ede8d1" y="307.584"/>
      </g>
     </g>
     <g id="text_3">
      <!-- 102 -->
      <defs>
       <path d="M 19.1875 8.296875 
L 53.609375 8.296875 
L 53.609375 0 
L 7.328125 0 
L 7.328125 8.296875 
Q 12.9375 14.109375 22.625 23.890625 
Q 32.328125 33.6875 34.8125 36.53125 
Q 39.546875 41.84375 41.421875 45.53125 
Q 43.3125 49.21875 43.3125 52.78125 
Q 43.3125 58.59375 39.234375 62.25 
Q 35.15625 65.921875 28.609375 65.921875 
Q 23.96875 65.921875 18.8125 64.3125 
Q 13.671875 62.703125 7.8125 59.421875 
L 7.8125 69.390625 
Q 13.765625 71.78125 18.9375 73 
Q 24.125 74.21875 28.421875 74.21875 
Q 39.75 74.21875 46.484375 68.546875 
Q 53.21875 62.890625 53.21875 53.421875 
Q 53.21875 48.921875 51.53125 44.890625 
Q 49.859375 40.875 45.40625 35.40625 
Q 44.1875 33.984375 37.640625 27.21875 
Q 31.109375 20.453125 19.1875 8.296875 
z
" id="DejaVuSans-50"/>
      </defs>
      <g transform="translate(173.628334 322.182437)scale(0.1 -0.1)">
       <use xlink:href="#DejaVuSans-49"/>
       <use x="63.623047" xlink:href="#DejaVuSans-48"/>
       <use x="127.246094" xlink:href="#DejaVuSans-50"/>
      </g>
     </g>
    </g>
    <g id="xtick_4">
     <g id="line2d_4">
      <g>
       <use style="stroke:#000000;stroke-width:0.8;" x="229.248533" xlink:href="#m0702ede8d1" y="307.584"/>
      </g>
     </g>
     <g id="text_4">
      <!-- 104 -->
      <defs>
       <path d="M 37.796875 64.3125 
L 12.890625 25.390625 
L 37.796875 25.390625 
z
M 35.203125 72.90625 
L 47.609375 72.90625 
L 47.609375 25.390625 
L 58.015625 25.390625 
L 58.015625 17.1875 
L 47.609375 17.1875 
L 47.609375 0 
L 37.796875 0 
L 37.796875 17.1875 
L 4.890625 17.1875 
L 4.890625 26.703125 
z
" id="DejaVuSans-52"/>
      </defs>
      <g transform="translate(219.704783 322.182437)scale(0.1 -0.1)">
       <use xlink:href="#DejaVuSans-49"/>
       <use x="63.623047" xlink:href="#DejaVuSans-48"/>
       <use x="127.246094" xlink:href="#DejaVuSans-52"/>
      </g>
     </g>
    </g>
    <g id="xtick_5">
     <g id="line2d_5">
      <g>
       <use style="stroke:#000000;stroke-width:0.8;" x="275.324981" xlink:href="#m0702ede8d1" y="307.584"/>
      </g>
     </g>
     <g id="text_5">
      <!-- 106 -->
      <defs>
       <path d="M 33.015625 40.375 
Q 26.375 40.375 22.484375 35.828125 
Q 18.609375 31.296875 18.609375 23.390625 
Q 18.609375 15.53125 22.484375 10.953125 
Q 26.375 6.390625 33.015625 6.390625 
Q 39.65625 6.390625 43.53125 10.953125 
Q 47.40625 15.53125 47.40625 23.390625 
Q 47.40625 31.296875 43.53125 35.828125 
Q 39.65625 40.375 33.015625 40.375 
z
M 52.59375 71.296875 
L 52.59375 62.3125 
Q 48.875 64.0625 45.09375 64.984375 
Q 41.3125 65.921875 37.59375 65.921875 
Q 27.828125 65.921875 22.671875 59.328125 
Q 17.53125 52.734375 16.796875 39.40625 
Q 19.671875 43.65625 24.015625 45.921875 
Q 28.375 48.1875 33.59375 48.1875 
Q 44.578125 48.1875 50.953125 41.515625 
Q 57.328125 34.859375 57.328125 23.390625 
Q 57.328125 12.15625 50.6875 5.359375 
Q 44.046875 -1.421875 33.015625 -1.421875 
Q 20.359375 -1.421875 13.671875 8.265625 
Q 6.984375 17.96875 6.984375 36.375 
Q 6.984375 53.65625 15.1875 63.9375 
Q 23.390625 74.21875 37.203125 74.21875 
Q 40.921875 74.21875 44.703125 73.484375 
Q 48.484375 72.75 52.59375 71.296875 
z
" id="DejaVuSans-54"/>
      </defs>
      <g transform="translate(265.781231 322.182437)scale(0.1 -0.1)">
       <use xlink:href="#DejaVuSans-49"/>
       <use x="63.623047" xlink:href="#DejaVuSans-48"/>
       <use x="127.246094" xlink:href="#DejaVuSans-54"/>
      </g>
     </g>
    </g>
    <g id="xtick_6">
     <g id="line2d_6">
      <g>
       <use style="stroke:#000000;stroke-width:0.8;" x="321.40143" xlink:href="#m0702ede8d1" y="307.584"/>
      </g>
     </g>
     <g id="text_6">
      <!-- 108 -->
      <g transform="translate(311.85768 322.182437)scale(0.1 -0.1)">
       <use xlink:href="#DejaVuSans-49"/>
       <use x="63.623047" xlink:href="#DejaVuSans-48"/>
       <use x="127.246094" xlink:href="#DejaVuSans-56"/>
      </g>
     </g>
    </g>
    <g id="xtick_7">
     <g id="line2d_7">
      <g>
       <use style="stroke:#000000;stroke-width:0.8;" x="367.477878" xlink:href="#m0702ede8d1" y="307.584"/>
      </g>
     </g>
     <g id="text_7">
      <!-- 110 -->
      <g transform="translate(357.934128 322.182437)scale(0.1 -0.1)">
       <use xlink:href="#DejaVuSans-49"/>
       <use x="63.623047" xlink:href="#DejaVuSans-49"/>
       <use x="127.246094" xlink:href="#DejaVuSans-48"/>
      </g>
     </g>
    </g>
    <g id="xtick_8">
     <g id="line2d_8">
      <g>
       <use style="stroke:#000000;stroke-width:0.8;" x="413.554327" xlink:href="#m0702ede8d1" y="307.584"/>
      </g>
     </g>
     <g id="text_8">
      <!-- 112 -->
      <g transform="translate(404.010577 322.182437)scale(0.1 -0.1)">
       <use xlink:href="#DejaVuSans-49"/>
       <use x="63.623047" xlink:href="#DejaVuSans-49"/>
       <use x="127.246094" xlink:href="#DejaVuSans-50"/>
      </g>
     </g>
    </g>
    <g id="text_9">
     <!-- tempmaxac -->
     <defs>
      <path d="M 18.3125 70.21875 
L 18.3125 54.6875 
L 36.8125 54.6875 
L 36.8125 47.703125 
L 18.3125 47.703125 
L 18.3125 18.015625 
Q 18.3125 11.328125 20.140625 9.421875 
Q 21.96875 7.515625 27.59375 7.515625 
L 36.8125 7.515625 
L 36.8125 0 
L 27.59375 0 
Q 17.1875 0 13.234375 3.875 
Q 9.28125 7.765625 9.28125 18.015625 
L 9.28125 47.703125 
L 2.6875 47.703125 
L 2.6875 54.6875 
L 9.28125 54.6875 
L 9.28125 70.21875 
z
" id="DejaVuSans-116"/>
      <path d="M 56.203125 29.59375 
L 56.203125 25.203125 
L 14.890625 25.203125 
Q 15.484375 15.921875 20.484375 11.0625 
Q 25.484375 6.203125 34.421875 6.203125 
Q 39.59375 6.203125 44.453125 7.46875 
Q 49.3125 8.734375 54.109375 11.28125 
L 54.109375 2.78125 
Q 49.265625 0.734375 44.1875 -0.34375 
Q 39.109375 -1.421875 33.890625 -1.421875 
Q 20.796875 -1.421875 13.15625 6.1875 
Q 5.515625 13.8125 5.515625 26.8125 
Q 5.515625 40.234375 12.765625 48.109375 
Q 20.015625 56 32.328125 56 
Q 43.359375 56 49.78125 48.890625 
Q 56.203125 41.796875 56.203125 29.59375 
z
M 47.21875 32.234375 
Q 47.125 39.59375 43.09375 43.984375 
Q 39.0625 48.390625 32.421875 48.390625 
Q 24.90625 48.390625 20.390625 44.140625 
Q 15.875 39.890625 15.1875 32.171875 
z
" id="DejaVuSans-101"/>
      <path d="M 52 44.1875 
Q 55.375 50.25 60.0625 53.125 
Q 64.75 56 71.09375 56 
Q 79.640625 56 84.28125 50.015625 
Q 88.921875 44.046875 88.921875 33.015625 
L 88.921875 0 
L 79.890625 0 
L 79.890625 32.71875 
Q 79.890625 40.578125 77.09375 44.375 
Q 74.3125 48.1875 68.609375 48.1875 
Q 61.625 48.1875 57.5625 43.546875 
Q 53.515625 38.921875 53.515625 30.90625 
L 53.515625 0 
L 44.484375 0 
L 44.484375 32.71875 
Q 44.484375 40.625 41.703125 44.40625 
Q 38.921875 48.1875 33.109375 48.1875 
Q 26.21875 48.1875 22.15625 43.53125 
Q 18.109375 38.875 18.109375 30.90625 
L 18.109375 0 
L 9.078125 0 
L 9.078125 54.6875 
L 18.109375 54.6875 
L 18.109375 46.1875 
Q 21.1875 51.21875 25.484375 53.609375 
Q 29.78125 56 35.6875 56 
Q 41.65625 56 45.828125 52.96875 
Q 50 49.953125 52 44.1875 
z
" id="DejaVuSans-109"/>
      <path d="M 18.109375 8.203125 
L 18.109375 -20.796875 
L 9.078125 -20.796875 
L 9.078125 54.6875 
L 18.109375 54.6875 
L 18.109375 46.390625 
Q 20.953125 51.265625 25.265625 53.625 
Q 29.59375 56 35.59375 56 
Q 45.5625 56 51.78125 48.09375 
Q 58.015625 40.1875 58.015625 27.296875 
Q 58.015625 14.40625 51.78125 6.484375 
Q 45.5625 -1.421875 35.59375 -1.421875 
Q 29.59375 -1.421875 25.265625 0.953125 
Q 20.953125 3.328125 18.109375 8.203125 
z
M 48.6875 27.296875 
Q 48.6875 37.203125 44.609375 42.84375 
Q 40.53125 48.484375 33.40625 48.484375 
Q 26.265625 48.484375 22.1875 42.84375 
Q 18.109375 37.203125 18.109375 27.296875 
Q 18.109375 17.390625 22.1875 11.75 
Q 26.265625 6.109375 33.40625 6.109375 
Q 40.53125 6.109375 44.609375 11.75 
Q 48.6875 17.390625 48.6875 27.296875 
z
" id="DejaVuSans-112"/>
      <path d="M 34.28125 27.484375 
Q 23.390625 27.484375 19.1875 25 
Q 14.984375 22.515625 14.984375 16.5 
Q 14.984375 11.71875 18.140625 8.90625 
Q 21.296875 6.109375 26.703125 6.109375 
Q 34.1875 6.109375 38.703125 11.40625 
Q 43.21875 16.703125 43.21875 25.484375 
L 43.21875 27.484375 
z
M 52.203125 31.203125 
L 52.203125 0 
L 43.21875 0 
L 43.21875 8.296875 
Q 40.140625 3.328125 35.546875 0.953125 
Q 30.953125 -1.421875 24.3125 -1.421875 
Q 15.921875 -1.421875 10.953125 3.296875 
Q 6 8.015625 6 15.921875 
Q 6 25.140625 12.171875 29.828125 
Q 18.359375 34.515625 30.609375 34.515625 
L 43.21875 34.515625 
L 43.21875 35.40625 
Q 43.21875 41.609375 39.140625 45 
Q 35.0625 48.390625 27.6875 48.390625 
Q 23 48.390625 18.546875 47.265625 
Q 14.109375 46.140625 10.015625 43.890625 
L 10.015625 52.203125 
Q 14.9375 54.109375 19.578125 55.046875 
Q 24.21875 56 28.609375 56 
Q 40.484375 56 46.34375 49.84375 
Q 52.203125 43.703125 52.203125 31.203125 
z
" id="DejaVuSans-97"/>
      <path d="M 54.890625 54.6875 
L 35.109375 28.078125 
L 55.90625 0 
L 45.3125 0 
L 29.390625 21.484375 
L 13.484375 0 
L 2.875 0 
L 24.125 28.609375 
L 4.6875 54.6875 
L 15.28125 54.6875 
L 29.78125 35.203125 
L 44.28125 54.6875 
z
" id="DejaVuSans-120"/>
      <path d="M 48.78125 52.59375 
L 48.78125 44.1875 
Q 44.96875 46.296875 41.140625 47.34375 
Q 37.3125 48.390625 33.40625 48.390625 
Q 24.65625 48.390625 19.8125 42.84375 
Q 14.984375 37.3125 14.984375 27.296875 
Q 14.984375 17.28125 19.8125 11.734375 
Q 24.65625 6.203125 33.40625 6.203125 
Q 37.3125 6.203125 41.140625 7.25 
Q 44.96875 8.296875 48.78125 10.40625 
L 48.78125 2.09375 
Q 45.015625 0.34375 40.984375 -0.53125 
Q 36.96875 -1.421875 32.421875 -1.421875 
Q 20.0625 -1.421875 12.78125 6.34375 
Q 5.515625 14.109375 5.515625 27.296875 
Q 5.515625 40.671875 12.859375 48.328125 
Q 20.21875 56 33.015625 56 
Q 37.15625 56 41.109375 55.140625 
Q 45.0625 54.296875 48.78125 52.59375 
z
" id="DejaVuSans-99"/>
     </defs>
     <g transform="translate(206.371719 335.860562)scale(0.1 -0.1)">
      <use xlink:href="#DejaVuSans-116"/>
      <use x="39.208984" xlink:href="#DejaVuSans-101"/>
      <use x="100.732422" xlink:href="#DejaVuSans-109"/>
      <use x="198.144531" xlink:href="#DejaVuSans-112"/>
      <use x="261.621094" xlink:href="#DejaVuSans-109"/>
      <use x="359.033203" xlink:href="#DejaVuSans-97"/>
      <use x="420.3125" xlink:href="#DejaVuSans-120"/>
      <use x="479.492188" xlink:href="#DejaVuSans-97"/>
      <use x="540.771484" xlink:href="#DejaVuSans-99"/>
     </g>
    </g>
   </g>
   <g id="matplotlib.axis_2">
    <g id="ytick_1">
     <g id="line2d_9">
      <defs>
       <path d="M 0 0 
L -3.5 0 
" id="ma240a3fc17" style="stroke:#000000;stroke-width:0.8;"/>
      </defs>
      <g>
       <use style="stroke:#000000;stroke-width:0.8;" x="57.6" xlink:href="#ma240a3fc17" y="174.528"/>
      </g>
     </g>
    </g>
   </g>
   <g id="line2d_10">
    <path clip-path="url(#pb7ecf17515)" d="M 114.057412 174.528 
L 243.071467 174.528 
" style="fill:none;stroke:#ffa500;stroke-linecap:square;stroke-width:1.5;"/>
   </g>
   <g id="line2d_11">
    <path clip-path="url(#pb7ecf17515)" d="M 160.709816 174.528 
L 201.026708 174.528 
" style="fill:none;stroke:#4c4c4c;stroke-linecap:square;stroke-width:4.5;"/>
   </g>
   <g id="line2d_12">
    <path clip-path="url(#pb7ecf17515)" d="M 95.626832 174.528 
L 275.324981 174.528 
" style="fill:none;stroke:#008000;stroke-linecap:square;stroke-width:1.5;"/>
   </g>
   <g id="line2d_13">
    <path clip-path="url(#pb7ecf17515)" d="M 146.310925 174.528 
L 201.602664 174.528 
" style="fill:none;stroke:#262626;stroke-linecap:square;stroke-width:4.5;"/>
   </g>
   <g id="patch_3">
    <path d="M 57.6 307.584 
L 57.6 41.472 
" style="fill:none;stroke:#000000;stroke-linecap:square;stroke-linejoin:miter;stroke-width:0.8;"/>
   </g>
   <g id="patch_4">
    <path d="M 414.72 307.584 
L 414.72 41.472 
" style="fill:none;stroke:#000000;stroke-linecap:square;stroke-linejoin:miter;stroke-width:0.8;"/>
   </g>
   <g id="patch_5">
    <path d="M 57.6 307.584 
L 414.72 307.584 
" style="fill:none;stroke:#000000;stroke-linecap:square;stroke-linejoin:miter;stroke-width:0.8;"/>
   </g>
   <g id="patch_6">
    <path d="M 57.6 41.472 
L 414.72 41.472 
" style="fill:none;stroke:#000000;stroke-linecap:square;stroke-linejoin:miter;stroke-width:0.8;"/>
   </g>
   <g id="PathCollection_1">
    <defs>
     <path d="M 0 1.5 
C 0.397805 1.5 0.77937 1.341951 1.06066 1.06066 
C 1.341951 0.77937 1.5 0.397805 1.5 0 
C 1.5 -0.397805 1.341951 -0.77937 1.06066 -1.06066 
C 0.77937 -1.341951 0.397805 -1.5 0 -1.5 
C -0.397805 -1.5 -0.77937 -1.341951 -1.06066 -1.06066 
C -1.341951 -0.77937 -1.5 -0.397805 -1.5 0 
C -1.5 0.397805 -1.341951 0.77937 -1.06066 1.06066 
C -0.77937 1.341951 -0.397805 1.5 0 1.5 
z
" id="m2071da7fbd" style="stroke:#4c4c4c;stroke-opacity:0.5;"/>
    </defs>
    <g clip-path="url(#pb7ecf17515)">
     <use style="fill:#ffffff;fill-opacity:0.5;stroke:#4c4c4c;stroke-opacity:0.5;" x="183.172084" xlink:href="#m2071da7fbd" y="174.528"/>
    </g>
   </g>
   <g id="PathCollection_2">
    <defs>
     <path d="M 0 1.5 
C 0.397805 1.5 0.77937 1.341951 1.06066 1.06066 
C 1.341951 0.77937 1.5 0.397805 1.5 0 
C 1.5 -0.397805 1.341951 -0.77937 1.06066 -1.06066 
C 0.77937 -1.341951 0.397805 -1.5 0 -1.5 
C -0.397805 -1.5 -0.77937 -1.341951 -1.06066 -1.06066 
C -1.341951 -0.77937 -1.5 -0.397805 -1.5 0 
C -1.5 0.397805 -1.341951 0.77937 -1.06066 1.06066 
C -0.77937 1.341951 -0.397805 1.5 0 1.5 
z
" id="m7ce883cb06" style="stroke:#262626;stroke-opacity:0.5;"/>
    </defs>
    <g clip-path="url(#pb7ecf17515)">
     <use style="fill:#ffffff;fill-opacity:0.5;stroke:#262626;stroke-opacity:0.5;" x="180.868262" xlink:href="#m7ce883cb06" y="174.528"/>
    </g>
   </g>
   <g id="text_10">
    <!-- Association of tempmaxac vs. cpap_bpap -->
    <defs>
     <path d="M 34.1875 63.1875 
L 20.796875 26.90625 
L 47.609375 26.90625 
z
M 28.609375 72.90625 
L 39.796875 72.90625 
L 67.578125 0 
L 57.328125 0 
L 50.6875 18.703125 
L 17.828125 18.703125 
L 11.1875 0 
L 0.78125 0 
z
" id="DejaVuSans-65"/>
     <path d="M 44.28125 53.078125 
L 44.28125 44.578125 
Q 40.484375 46.53125 36.375 47.5 
Q 32.28125 48.484375 27.875 48.484375 
Q 21.1875 48.484375 17.84375 46.4375 
Q 14.5 44.390625 14.5 40.28125 
Q 14.5 37.15625 16.890625 35.375 
Q 19.28125 33.59375 26.515625 31.984375 
L 29.59375 31.296875 
Q 39.15625 29.25 43.1875 25.515625 
Q 47.21875 21.78125 47.21875 15.09375 
Q 47.21875 7.46875 41.1875 3.015625 
Q 35.15625 -1.421875 24.609375 -1.421875 
Q 20.21875 -1.421875 15.453125 -0.5625 
Q 10.6875 0.296875 5.421875 2 
L 5.421875 11.28125 
Q 10.40625 8.6875 15.234375 7.390625 
Q 20.0625 6.109375 24.8125 6.109375 
Q 31.15625 6.109375 34.5625 8.28125 
Q 37.984375 10.453125 37.984375 14.40625 
Q 37.984375 18.0625 35.515625 20.015625 
Q 33.0625 21.96875 24.703125 23.78125 
L 21.578125 24.515625 
Q 13.234375 26.265625 9.515625 29.90625 
Q 5.8125 33.546875 5.8125 39.890625 
Q 5.8125 47.609375 11.28125 51.796875 
Q 16.75 56 26.8125 56 
Q 31.78125 56 36.171875 55.265625 
Q 40.578125 54.546875 44.28125 53.078125 
z
" id="DejaVuSans-115"/>
     <path d="M 30.609375 48.390625 
Q 23.390625 48.390625 19.1875 42.75 
Q 14.984375 37.109375 14.984375 27.296875 
Q 14.984375 17.484375 19.15625 11.84375 
Q 23.34375 6.203125 30.609375 6.203125 
Q 37.796875 6.203125 41.984375 11.859375 
Q 46.1875 17.53125 46.1875 27.296875 
Q 46.1875 37.015625 41.984375 42.703125 
Q 37.796875 48.390625 30.609375 48.390625 
z
M 30.609375 56 
Q 42.328125 56 49.015625 48.375 
Q 55.71875 40.765625 55.71875 27.296875 
Q 55.71875 13.875 49.015625 6.21875 
Q 42.328125 -1.421875 30.609375 -1.421875 
Q 18.84375 -1.421875 12.171875 6.21875 
Q 5.515625 13.875 5.515625 27.296875 
Q 5.515625 40.765625 12.171875 48.375 
Q 18.84375 56 30.609375 56 
z
" id="DejaVuSans-111"/>
     <path d="M 9.421875 54.6875 
L 18.40625 54.6875 
L 18.40625 0 
L 9.421875 0 
z
M 9.421875 75.984375 
L 18.40625 75.984375 
L 18.40625 64.59375 
L 9.421875 64.59375 
z
" id="DejaVuSans-105"/>
     <path d="M 54.890625 33.015625 
L 54.890625 0 
L 45.90625 0 
L 45.90625 32.71875 
Q 45.90625 40.484375 42.875 44.328125 
Q 39.84375 48.1875 33.796875 48.1875 
Q 26.515625 48.1875 22.3125 43.546875 
Q 18.109375 38.921875 18.109375 30.90625 
L 18.109375 0 
L 9.078125 0 
L 9.078125 54.6875 
L 18.109375 54.6875 
L 18.109375 46.1875 
Q 21.34375 51.125 25.703125 53.5625 
Q 30.078125 56 35.796875 56 
Q 45.21875 56 50.046875 50.171875 
Q 54.890625 44.34375 54.890625 33.015625 
z
" id="DejaVuSans-110"/>
     <path id="DejaVuSans-32"/>
     <path d="M 37.109375 75.984375 
L 37.109375 68.5 
L 28.515625 68.5 
Q 23.6875 68.5 21.796875 66.546875 
Q 19.921875 64.59375 19.921875 59.515625 
L 19.921875 54.6875 
L 34.71875 54.6875 
L 34.71875 47.703125 
L 19.921875 47.703125 
L 19.921875 0 
L 10.890625 0 
L 10.890625 47.703125 
L 2.296875 47.703125 
L 2.296875 54.6875 
L 10.890625 54.6875 
L 10.890625 58.5 
Q 10.890625 67.625 15.140625 71.796875 
Q 19.390625 75.984375 28.609375 75.984375 
z
" id="DejaVuSans-102"/>
     <path d="M 2.984375 54.6875 
L 12.5 54.6875 
L 29.59375 8.796875 
L 46.6875 54.6875 
L 56.203125 54.6875 
L 35.6875 0 
L 23.484375 0 
z
" id="DejaVuSans-118"/>
     <path d="M 10.6875 12.40625 
L 21 12.40625 
L 21 0 
L 10.6875 0 
z
" id="DejaVuSans-46"/>
     <path d="M 50.984375 -16.609375 
L 50.984375 -23.578125 
L -0.984375 -23.578125 
L -0.984375 -16.609375 
z
" id="DejaVuSans-95"/>
     <path d="M 48.6875 27.296875 
Q 48.6875 37.203125 44.609375 42.84375 
Q 40.53125 48.484375 33.40625 48.484375 
Q 26.265625 48.484375 22.1875 42.84375 
Q 18.109375 37.203125 18.109375 27.296875 
Q 18.109375 17.390625 22.1875 11.75 
Q 26.265625 6.109375 33.40625 6.109375 
Q 40.53125 6.109375 44.609375 11.75 
Q 48.6875 17.390625 48.6875 27.296875 
z
M 18.109375 46.390625 
Q 20.953125 51.265625 25.265625 53.625 
Q 29.59375 56 35.59375 56 
Q 45.5625 56 51.78125 48.09375 
Q 58.015625 40.1875 58.015625 27.296875 
Q 58.015625 14.40625 51.78125 6.484375 
Q 45.5625 -1.421875 35.59375 -1.421875 
Q 29.59375 -1.421875 25.265625 0.953125 
Q 20.953125 3.328125 18.109375 8.203125 
L 18.109375 0 
L 9.078125 0 
L 9.078125 75.984375 
L 18.109375 75.984375 
z
" id="DejaVuSans-98"/>
    </defs>
    <g transform="translate(111.55875 35.472)scale(0.12 -0.12)">
     <use xlink:href="#DejaVuSans-65"/>
     <use x="68.408203" xlink:href="#DejaVuSans-115"/>
     <use x="120.507812" xlink:href="#DejaVuSans-115"/>
     <use x="172.607422" xlink:href="#DejaVuSans-111"/>
     <use x="233.789062" xlink:href="#DejaVuSans-99"/>
     <use x="288.769531" xlink:href="#DejaVuSans-105"/>
     <use x="316.552734" xlink:href="#DejaVuSans-97"/>
     <use x="377.832031" xlink:href="#DejaVuSans-116"/>
     <use x="417.041016" xlink:href="#DejaVuSans-105"/>
     <use x="444.824219" xlink:href="#DejaVuSans-111"/>
     <use x="506.005859" xlink:href="#DejaVuSans-110"/>
     <use x="569.384766" xlink:href="#DejaVuSans-32"/>
     <use x="601.171875" xlink:href="#DejaVuSans-111"/>
     <use x="662.353516" xlink:href="#DejaVuSans-102"/>
     <use x="697.558594" xlink:href="#DejaVuSans-32"/>
     <use x="729.345703" xlink:href="#DejaVuSans-116"/>
     <use x="768.554688" xlink:href="#DejaVuSans-101"/>
     <use x="830.078125" xlink:href="#DejaVuSans-109"/>
     <use x="927.490234" xlink:href="#DejaVuSans-112"/>
     <use x="990.966797" xlink:href="#DejaVuSans-109"/>
     <use x="1088.378906" xlink:href="#DejaVuSans-97"/>
     <use x="1149.658203" xlink:href="#DejaVuSans-120"/>
     <use x="1208.837891" xlink:href="#DejaVuSans-97"/>
     <use x="1270.117188" xlink:href="#DejaVuSans-99"/>
     <use x="1325.097656" xlink:href="#DejaVuSans-32"/>
     <use x="1356.884766" xlink:href="#DejaVuSans-118"/>
     <use x="1416.064453" xlink:href="#DejaVuSans-115"/>
     <use x="1468.164062" xlink:href="#DejaVuSans-46"/>
     <use x="1499.951172" xlink:href="#DejaVuSans-32"/>
     <use x="1531.738281" xlink:href="#DejaVuSans-99"/>
     <use x="1586.71875" xlink:href="#DejaVuSans-112"/>
     <use x="1650.195312" xlink:href="#DejaVuSans-97"/>
     <use x="1711.474609" xlink:href="#DejaVuSans-112"/>
     <use x="1774.951172" xlink:href="#DejaVuSans-95"/>
     <use x="1824.951172" xlink:href="#DejaVuSans-98"/>
     <use x="1888.427734" xlink:href="#DejaVuSans-112"/>
     <use x="1951.904297" xlink:href="#DejaVuSans-97"/>
     <use x="2013.183594" xlink:href="#DejaVuSans-112"/>
    </g>
   </g>
   <g id="legend_1">
    <g id="patch_7">
     <path d="M 270.455938 79.3845 
L 407.72 79.3845 
Q 409.72 79.3845 409.72 77.3845 
L 409.72 48.472 
Q 409.72 46.472 407.72 46.472 
L 270.455938 46.472 
Q 268.455938 46.472 268.455938 48.472 
L 268.455938 77.3845 
Q 268.455938 79.3845 270.455938 79.3845 
z
" style="fill:#ffffff;opacity:0.8;stroke:#cccccc;stroke-linejoin:miter;"/>
    </g>
    <g id="line2d_14">
     <path d="M 272.455938 54.570438 
L 292.455938 54.570438 
" style="fill:none;stroke:#ffa500;stroke-linecap:square;stroke-width:1.5;"/>
    </g>
    <g id="line2d_15"/>
    <g id="text_11">
     <!-- cpap_bpap (26) -->
     <defs>
      <path d="M 31 75.875 
Q 24.46875 64.65625 21.28125 53.65625 
Q 18.109375 42.671875 18.109375 31.390625 
Q 18.109375 20.125 21.3125 9.0625 
Q 24.515625 -2 31 -13.1875 
L 23.1875 -13.1875 
Q 15.875 -1.703125 12.234375 9.375 
Q 8.59375 20.453125 8.59375 31.390625 
Q 8.59375 42.28125 12.203125 53.3125 
Q 15.828125 64.359375 23.1875 75.875 
z
" id="DejaVuSans-40"/>
      <path d="M 8.015625 75.875 
L 15.828125 75.875 
Q 23.140625 64.359375 26.78125 53.3125 
Q 30.421875 42.28125 30.421875 31.390625 
Q 30.421875 20.453125 26.78125 9.375 
Q 23.140625 -1.703125 15.828125 -13.1875 
L 8.015625 -13.1875 
Q 14.5 -2 17.703125 9.0625 
Q 20.90625 20.125 20.90625 31.390625 
Q 20.90625 42.671875 17.703125 53.65625 
Q 14.5 64.65625 8.015625 75.875 
z
" id="DejaVuSans-41"/>
     </defs>
     <g transform="translate(300.455938 58.070438)scale(0.1 -0.1)">
      <use xlink:href="#DejaVuSans-99"/>
      <use x="54.980469" xlink:href="#DejaVuSans-112"/>
      <use x="118.457031" xlink:href="#DejaVuSans-97"/>
      <use x="179.736328" xlink:href="#DejaVuSans-112"/>
      <use x="243.212891" xlink:href="#DejaVuSans-95"/>
      <use x="293.212891" xlink:href="#DejaVuSans-98"/>
      <use x="356.689453" xlink:href="#DejaVuSans-112"/>
      <use x="420.166016" xlink:href="#DejaVuSans-97"/>
      <use x="481.445312" xlink:href="#DejaVuSans-112"/>
      <use x="544.921875" xlink:href="#DejaVuSans-32"/>
      <use x="576.708984" xlink:href="#DejaVuSans-40"/>
      <use x="615.722656" xlink:href="#DejaVuSans-50"/>
      <use x="679.345703" xlink:href="#DejaVuSans-54"/>
      <use x="742.96875" xlink:href="#DejaVuSans-41"/>
     </g>
    </g>
    <g id="line2d_16">
     <path d="M 272.455938 69.526688 
L 292.455938 69.526688 
" style="fill:none;stroke:#008000;stroke-linecap:square;stroke-width:1.5;"/>
    </g>
    <g id="line2d_17"/>
    <g id="text_12">
     <!-- Not cpap_bpap (466) -->
     <defs>
      <path d="M 9.8125 72.90625 
L 23.09375 72.90625 
L 55.421875 11.921875 
L 55.421875 72.90625 
L 64.984375 72.90625 
L 64.984375 0 
L 51.703125 0 
L 19.390625 60.984375 
L 19.390625 0 
L 9.8125 0 
z
" id="DejaVuSans-78"/>
     </defs>
     <g transform="translate(300.455938 73.026688)scale(0.1 -0.1)">
      <use xlink:href="#DejaVuSans-78"/>
      <use x="74.804688" xlink:href="#DejaVuSans-111"/>
      <use x="135.986328" xlink:href="#DejaVuSans-116"/>
      <use x="175.195312" xlink:href="#DejaVuSans-32"/>
      <use x="206.982422" xlink:href="#DejaVuSans-99"/>
      <use x="261.962891" xlink:href="#DejaVuSans-112"/>
      <use x="325.439453" xlink:href="#DejaVuSans-97"/>
      <use x="386.71875" xlink:href="#DejaVuSans-112"/>
      <use x="450.195312" xlink:href="#DejaVuSans-95"/>
      <use x="500.195312" xlink:href="#DejaVuSans-98"/>
      <use x="563.671875" xlink:href="#DejaVuSans-112"/>
      <use x="627.148438" xlink:href="#DejaVuSans-97"/>
      <use x="688.427734" xlink:href="#DejaVuSans-112"/>
      <use x="751.904297" xlink:href="#DejaVuSans-32"/>
      <use x="783.691406" xlink:href="#DejaVuSans-40"/>
      <use x="822.705078" xlink:href="#DejaVuSans-52"/>
      <use x="886.328125" xlink:href="#DejaVuSans-54"/>
      <use x="949.951172" xlink:href="#DejaVuSans-54"/>
      <use x="1013.574219" xlink:href="#DejaVuSans-41"/>
     </g>
    </g>
   </g>
  </g>
 </g>
 <defs>
  <clipPath id="pb7ecf17515">
   <rect height="266.112" width="357.12" x="57.6" y="41.472"/>
  </clipPath>
 </defs>
</svg>
