<?xml version="1.0" encoding="utf-8" standalone="no"?>
<!DOCTYPE svg PUBLIC "-//W3C//DTD SVG 1.1//EN"
  "http://www.w3.org/Graphics/SVG/1.1/DTD/svg11.dtd">
<!-- Created with matplotlib (https://matplotlib.org/) -->
<svg height="345.6pt" version="1.1" viewBox="0 0 460.8 345.6" width="460.8pt" xmlns="http://www.w3.org/2000/svg" xmlns:xlink="http://www.w3.org/1999/xlink">
 <defs>
  <style type="text/css">
*{stroke-linecap:butt;stroke-linejoin:round;}
  </style>
 </defs>
 <g id="figure_1">
  <g id="patch_1">
   <path d="M 0 345.6 
L 460.8 345.6 
L 460.8 0 
L 0 0 
z
" style="fill:#ffffff;"/>
  </g>
  <g id="axes_1">
   <g id="patch_2">
    <path d="M 57.6 307.584 
L 414.72 307.584 
L 414.72 41.472 
L 57.6 41.472 
z
" style="fill:#ffffff;"/>
   </g>
   <g id="PolyCollection_1">
    <defs>
     <path d="M 75.232028 -170.426897 
L 75.232028 -171.717103 
L 78.497233 -172.106779 
L 81.762437 -172.677017 
L 85.027642 -173.481101 
L 88.292846 -174.574145 
L 91.558051 -176.007281 
L 94.823255 -177.820736 
L 98.08846 -180.036884 
L 101.353664 -182.654637 
L 104.618869 -185.646483 
L 107.884073 -188.959055 
L 111.149278 -192.517293 
L 114.414482 -196.23137 
L 117.679687 -200.004791 
L 120.944891 -203.741863 
L 124.210096 -207.353145 
L 127.4753 -210.758535 
L 130.740505 -213.88891 
L 134.005709 -216.688225 
L 137.270914 -219.118187 
L 140.536118 -221.16683 
L 143.801323 -222.860655 
L 147.066527 -224.278019 
L 150.331732 -225.559721 
L 153.596936 -226.911919 
L 156.862141 -228.59687 
L 160.127345 -230.908601 
L 163.39255 -234.133369 
L 166.657754 -238.498251 
L 169.922959 -244.114948 
L 173.188163 -250.929179 
L 176.453368 -258.687737 
L 179.718572 -266.934494 
L 182.983776 -275.042507 
L 186.248981 -282.282343 
L 189.514185 -287.918018 
L 192.77939 -291.313969 
L 196.044594 -292.032 
L 199.309799 -289.897815 
L 202.575003 -285.023081 
L 205.840208 -277.77918 
L 209.105412 -268.730037 
L 212.370617 -258.540217 
L 215.635821 -247.878609 
L 218.901026 -237.336506 
L 222.16623 -227.372946 
L 225.431435 -218.292075 
L 228.696639 -210.249451 
L 231.961844 -203.278892 
L 235.227048 -197.329284 
L 238.492253 -192.301685 
L 241.757457 -188.0799 
L 245.022662 -184.551276 
L 248.287866 -181.617598 
L 251.553071 -179.198109 
L 254.818275 -177.227572 
L 258.08348 -175.652251 
L 261.348684 -174.425948 
L 264.613889 -173.507258 
L 267.879093 -172.85833 
L 271.144298 -172.444685 
L 274.409502 -172.235393 
L 277.674707 -172.202884 
L 280.939911 -172.321983 
L 284.205116 -172.568196 
L 287.47032 -172.915692 
L 290.735525 -173.335679 
L 294.000729 -173.795896 
L 297.265934 -174.261649 
L 300.531138 -174.698365 
L 303.796343 -175.075103 
L 307.061547 -175.368102 
L 310.326752 -175.563343 
L 313.591956 -175.657407 
L 316.857161 -175.656407 
L 320.122365 -175.573436 
L 323.387569 -175.425396 
L 326.652774 -175.230197 
L 329.917978 -175.005014 
L 333.183183 -174.765732 
L 336.448387 -174.527126 
L 339.713592 -174.302988 
L 342.978796 -174.105528 
L 346.244001 -173.943804 
L 349.509205 -173.821585 
L 352.77441 -173.735541 
L 356.039614 -173.674725 
L 359.304819 -173.621994 
L 362.570023 -173.557288 
L 365.835228 -173.462006 
L 369.100432 -173.323251 
L 372.365637 -173.13671 
L 375.630841 -172.907402 
L 378.896046 -172.648174 
L 382.16125 -172.376565 
L 385.426455 -172.111002 
L 388.691659 -171.867386 
L 391.956864 -171.656829 
L 395.222068 -171.484811 
L 398.487273 -171.35164 
L 398.487273 -170.79236 
L 398.487273 -170.79236 
L 395.222068 -170.659189 
L 391.956864 -170.487171 
L 388.691659 -170.276614 
L 385.426455 -170.032998 
L 382.16125 -169.767435 
L 378.896046 -169.495826 
L 375.630841 -169.236598 
L 372.365637 -169.00729 
L 369.100432 -168.820749 
L 365.835228 -168.681994 
L 362.570023 -168.586712 
L 359.304819 -168.522006 
L 356.039614 -168.469275 
L 352.77441 -168.408459 
L 349.509205 -168.322415 
L 346.244001 -168.200196 
L 342.978796 -168.038472 
L 339.713592 -167.841012 
L 336.448387 -167.616874 
L 333.183183 -167.378268 
L 329.917978 -167.138986 
L 326.652774 -166.913803 
L 323.387569 -166.718604 
L 320.122365 -166.570564 
L 316.857161 -166.487593 
L 313.591956 -166.486593 
L 310.326752 -166.580657 
L 307.061547 -166.775898 
L 303.796343 -167.068897 
L 300.531138 -167.445635 
L 297.265934 -167.882351 
L 294.000729 -168.348104 
L 290.735525 -168.808321 
L 287.47032 -169.228308 
L 284.205116 -169.575804 
L 280.939911 -169.822017 
L 277.674707 -169.941116 
L 274.409502 -169.908607 
L 271.144298 -169.699315 
L 267.879093 -169.28567 
L 264.613889 -168.636742 
L 261.348684 -167.718052 
L 258.08348 -166.491749 
L 254.818275 -164.916428 
L 251.553071 -162.945891 
L 248.287866 -160.526402 
L 245.022662 -157.592724 
L 241.757457 -154.0641 
L 238.492253 -149.842315 
L 235.227048 -144.814716 
L 231.961844 -138.865108 
L 228.696639 -131.894549 
L 225.431435 -123.851925 
L 222.16623 -114.771054 
L 218.901026 -104.807494 
L 215.635821 -94.265391 
L 212.370617 -83.603783 
L 209.105412 -73.413963 
L 205.840208 -64.36482 
L 202.575003 -57.120919 
L 199.309799 -52.246185 
L 196.044594 -50.112 
L 192.77939 -50.830031 
L 189.514185 -54.225982 
L 186.248981 -59.861657 
L 182.983776 -67.101493 
L 179.718572 -75.209506 
L 176.453368 -83.456263 
L 173.188163 -91.214821 
L 169.922959 -98.029052 
L 166.657754 -103.645749 
L 163.39255 -108.010631 
L 160.127345 -111.235399 
L 156.862141 -113.54713 
L 153.596936 -115.232081 
L 150.331732 -116.584279 
L 147.066527 -117.865981 
L 143.801323 -119.283345 
L 140.536118 -120.97717 
L 137.270914 -123.025813 
L 134.005709 -125.455775 
L 130.740505 -128.25509 
L 127.4753 -131.385465 
L 124.210096 -134.790855 
L 120.944891 -138.402137 
L 117.679687 -142.139209 
L 114.414482 -145.91263 
L 111.149278 -149.626707 
L 107.884073 -153.184945 
L 104.618869 -156.497517 
L 101.353664 -159.489363 
L 98.08846 -162.107116 
L 94.823255 -164.323264 
L 91.558051 -166.136719 
L 88.292846 -167.569855 
L 85.027642 -168.662899 
L 81.762437 -169.466983 
L 78.497233 -170.037221 
L 75.232028 -170.426897 
z
" id="meece3f5793" style="stroke:#4c4c4c;stroke-opacity:0.5;stroke-width:1.5;"/>
    </defs>
    <g clip-path="url(#p88777b1406)">
     <use style="fill:#df9c20;fill-opacity:0.5;stroke:#4c4c4c;stroke-opacity:0.5;stroke-width:1.5;" x="0" xlink:href="#meece3f5793" y="345.6"/>
    </g>
   </g>
   <g id="PolyCollection_2">
    <defs>
     <path d="M 73.832727 -170.687545 
L 73.832727 -171.456455 
L 75.941432 -171.709902 
L 78.050138 -172.094915 
L 80.158843 -172.658452 
L 82.267548 -173.45329 
L 84.376253 -174.533456 
L 86.484958 -175.947308 
L 88.593663 -177.728718 
L 90.702368 -179.887646 
L 92.811073 -182.402133 
L 94.919778 -185.214293 
L 97.028484 -188.232604 
L 99.137189 -191.341764 
L 101.245894 -194.419364 
L 103.354599 -197.356382 
L 105.463304 -200.076729 
L 107.572009 -202.550643 
L 109.680714 -204.798079 
L 111.789419 -206.881104 
L 113.898124 -208.887646 
L 116.00683 -210.911568 
L 118.115535 -213.034781 
L 120.22424 -215.315804 
L 122.332945 -217.786291 
L 124.44165 -220.453885 
L 126.550355 -223.30758 
L 128.65906 -226.321434 
L 130.767765 -229.454045 
L 132.876471 -232.643911 
L 134.985176 -235.803571 
L 137.093881 -238.816982 
L 139.202586 -241.544491 
L 141.311291 -243.837759 
L 143.419996 -245.563876 
L 145.528701 -246.63451 
L 147.637406 -247.033412 
L 149.746111 -246.834623 
L 151.854817 -246.204993 
L 153.963522 -245.387755 
L 156.072227 -244.668477 
L 158.180932 -244.3295 
L 160.289637 -244.602634 
L 162.398342 -245.631251 
L 164.507047 -247.451294 
L 166.615752 -249.996296 
L 168.724458 -253.125218 
L 170.833163 -256.665458 
L 172.941868 -260.458536 
L 175.050573 -264.394354 
L 177.159278 -268.42225 
L 179.267983 -272.533257 
L 181.376688 -276.7166 
L 183.485393 -280.902319 
L 185.594098 -284.908385 
L 187.702804 -288.41221 
L 189.811509 -290.961866 
L 191.920214 -292.032 
L 194.028919 -291.116011 
L 196.137624 -287.833664 
L 198.246329 -282.026322 
L 200.355034 -273.813352 
L 202.463739 -263.593097 
L 204.572444 -251.987036 
L 206.68115 -239.741365 
L 208.789855 -227.610893 
L 210.89856 -216.2527 
L 213.007265 -206.151357 
L 215.11597 -197.586436 
L 217.224675 -190.640858 
L 219.33338 -185.239263 
L 221.442085 -181.201234 
L 223.550791 -178.294882 
L 225.659496 -176.280545 
L 227.768201 -174.939788 
L 229.876906 -174.089831 
L 231.985611 -173.586644 
L 234.094316 -173.321142 
L 236.203021 -173.212541 
L 238.311726 -173.201655 
L 240.420431 -173.24548 
L 242.529137 -173.313276 
L 244.637842 -173.383734 
L 246.746547 -173.442718 
L 248.855252 -173.481241 
L 250.963957 -173.493637 
L 253.072662 -173.476087 
L 255.181367 -173.425702 
L 257.290072 -173.340295 
L 259.398778 -173.218797 
L 261.507483 -173.062054 
L 263.616188 -172.873643 
L 265.724893 -172.660304 
L 267.833598 -172.431684 
L 269.942303 -172.199336 
L 272.051008 -171.975179 
L 274.159713 -171.769789 
L 276.268418 -171.590992 
L 278.377124 -171.443076 
L 280.485829 -171.326753 
L 282.594534 -171.239768 
L 282.594534 -170.904232 
L 282.594534 -170.904232 
L 280.485829 -170.817247 
L 278.377124 -170.700924 
L 276.268418 -170.553008 
L 274.159713 -170.374211 
L 272.051008 -170.168821 
L 269.942303 -169.944664 
L 267.833598 -169.712316 
L 265.724893 -169.483696 
L 263.616188 -169.270357 
L 261.507483 -169.081946 
L 259.398778 -168.925203 
L 257.290072 -168.803705 
L 255.181367 -168.718298 
L 253.072662 -168.667913 
L 250.963957 -168.650363 
L 248.855252 -168.662759 
L 246.746547 -168.701282 
L 244.637842 -168.760266 
L 242.529137 -168.830724 
L 240.420431 -168.89852 
L 238.311726 -168.942345 
L 236.203021 -168.931459 
L 234.094316 -168.822858 
L 231.985611 -168.557356 
L 229.876906 -168.054169 
L 227.768201 -167.204212 
L 225.659496 -165.863455 
L 223.550791 -163.849118 
L 221.442085 -160.942766 
L 219.33338 -156.904737 
L 217.224675 -151.503142 
L 215.11597 -144.557564 
L 213.007265 -135.992643 
L 210.89856 -125.8913 
L 208.789855 -114.533107 
L 206.68115 -102.402635 
L 204.572444 -90.156964 
L 202.463739 -78.550903 
L 200.355034 -68.330648 
L 198.246329 -60.117678 
L 196.137624 -54.310336 
L 194.028919 -51.027989 
L 191.920214 -50.112 
L 189.811509 -51.182134 
L 187.702804 -53.73179 
L 185.594098 -57.235615 
L 183.485393 -61.241681 
L 181.376688 -65.4274 
L 179.267983 -69.610743 
L 177.159278 -73.72175 
L 175.050573 -77.749646 
L 172.941868 -81.685464 
L 170.833163 -85.478542 
L 168.724458 -89.018782 
L 166.615752 -92.147704 
L 164.507047 -94.692706 
L 162.398342 -96.512749 
L 160.289637 -97.541366 
L 158.180932 -97.8145 
L 156.072227 -97.475523 
L 153.963522 -96.756245 
L 151.854817 -95.939007 
L 149.746111 -95.309377 
L 147.637406 -95.110588 
L 145.528701 -95.50949 
L 143.419996 -96.580124 
L 141.311291 -98.306241 
L 139.202586 -100.599509 
L 137.093881 -103.327018 
L 134.985176 -106.340429 
L 132.876471 -109.500089 
L 130.767765 -112.689955 
L 128.65906 -115.822566 
L 126.550355 -118.83642 
L 124.44165 -121.690115 
L 122.332945 -124.357709 
L 120.22424 -126.828196 
L 118.115535 -129.109219 
L 116.00683 -131.232432 
L 113.898124 -133.256354 
L 111.789419 -135.262896 
L 109.680714 -137.345921 
L 107.572009 -139.593357 
L 105.463304 -142.067271 
L 103.354599 -144.787618 
L 101.245894 -147.724636 
L 99.137189 -150.802236 
L 97.028484 -153.911396 
L 94.919778 -156.929707 
L 92.811073 -159.741867 
L 90.702368 -162.256354 
L 88.593663 -164.415282 
L 86.484958 -166.196692 
L 84.376253 -167.610544 
L 82.267548 -168.69071 
L 80.158843 -169.485548 
L 78.050138 -170.049085 
L 75.941432 -170.434098 
L 73.832727 -170.687545 
z
" id="m39ee6d595c" style="stroke:#262626;stroke-opacity:0.5;stroke-width:1.5;"/>
    </defs>
    <g clip-path="url(#p88777b1406)">
     <use style="fill:#107010;fill-opacity:0.5;stroke:#262626;stroke-opacity:0.5;stroke-width:1.5;" x="0" xlink:href="#m39ee6d595c" y="345.6"/>
    </g>
   </g>
   <g id="matplotlib.axis_1">
    <g id="xtick_1">
     <g id="line2d_1">
      <defs>
       <path d="M 0 0 
L 0 3.5 
" id="mdca669c23b" style="stroke:#000000;stroke-width:0.8;"/>
      </defs>
      <g>
       <use style="stroke:#000000;stroke-width:0.8;" x="86.861176" xlink:href="#mdca669c23b" y="307.584"/>
      </g>
     </g>
     <g id="text_1">
      <!-- 98 -->
      <defs>
       <path d="M 10.984375 1.515625 
L 10.984375 10.5 
Q 14.703125 8.734375 18.5 7.8125 
Q 22.3125 6.890625 25.984375 6.890625 
Q 35.75 6.890625 40.890625 13.453125 
Q 46.046875 20.015625 46.78125 33.40625 
Q 43.953125 29.203125 39.59375 26.953125 
Q 35.25 24.703125 29.984375 24.703125 
Q 19.046875 24.703125 12.671875 31.3125 
Q 6.296875 37.9375 6.296875 49.421875 
Q 6.296875 60.640625 12.9375 67.421875 
Q 19.578125 74.21875 30.609375 74.21875 
Q 43.265625 74.21875 49.921875 64.515625 
Q 56.59375 54.828125 56.59375 36.375 
Q 56.59375 19.140625 48.40625 8.859375 
Q 40.234375 -1.421875 26.421875 -1.421875 
Q 22.703125 -1.421875 18.890625 -0.6875 
Q 15.09375 0.046875 10.984375 1.515625 
z
M 30.609375 32.421875 
Q 37.25 32.421875 41.125 36.953125 
Q 45.015625 41.5 45.015625 49.421875 
Q 45.015625 57.28125 41.125 61.84375 
Q 37.25 66.40625 30.609375 66.40625 
Q 23.96875 66.40625 20.09375 61.84375 
Q 16.21875 57.28125 16.21875 49.421875 
Q 16.21875 41.5 20.09375 36.953125 
Q 23.96875 32.421875 30.609375 32.421875 
z
" id="DejaVuSans-57"/>
       <path d="M 31.78125 34.625 
Q 24.75 34.625 20.71875 30.859375 
Q 16.703125 27.09375 16.703125 20.515625 
Q 16.703125 13.921875 20.71875 10.15625 
Q 24.75 6.390625 31.78125 6.390625 
Q 38.8125 6.390625 42.859375 10.171875 
Q 46.921875 13.96875 46.921875 20.515625 
Q 46.921875 27.09375 42.890625 30.859375 
Q 38.875 34.625 31.78125 34.625 
z
M 21.921875 38.8125 
Q 15.578125 40.375 12.03125 44.71875 
Q 8.5 49.078125 8.5 55.328125 
Q 8.5 64.0625 14.71875 69.140625 
Q 20.953125 74.21875 31.78125 74.21875 
Q 42.671875 74.21875 48.875 69.140625 
Q 55.078125 64.0625 55.078125 55.328125 
Q 55.078125 49.078125 51.53125 44.71875 
Q 48 40.375 41.703125 38.8125 
Q 48.828125 37.15625 52.796875 32.3125 
Q 56.78125 27.484375 56.78125 20.515625 
Q 56.78125 9.90625 50.3125 4.234375 
Q 43.84375 -1.421875 31.78125 -1.421875 
Q 19.734375 -1.421875 13.25 4.234375 
Q 6.78125 9.90625 6.78125 20.515625 
Q 6.78125 27.484375 10.78125 32.3125 
Q 14.796875 37.15625 21.921875 38.8125 
z
M 18.3125 54.390625 
Q 18.3125 48.734375 21.84375 45.5625 
Q 25.390625 42.390625 31.78125 42.390625 
Q 38.140625 42.390625 41.71875 45.5625 
Q 45.3125 48.734375 45.3125 54.390625 
Q 45.3125 60.0625 41.71875 63.234375 
Q 38.140625 66.40625 31.78125 66.40625 
Q 25.390625 66.40625 21.84375 63.234375 
Q 18.3125 60.0625 18.3125 54.390625 
z
" id="DejaVuSans-56"/>
      </defs>
      <g transform="translate(80.498676 322.182437)scale(0.1 -0.1)">
       <use xlink:href="#DejaVuSans-57"/>
       <use x="63.623047" xlink:href="#DejaVuSans-56"/>
      </g>
     </g>
    </g>
    <g id="xtick_2">
     <g id="line2d_2">
      <g>
       <use style="stroke:#000000;stroke-width:0.8;" x="131.973499" xlink:href="#mdca669c23b" y="307.584"/>
      </g>
     </g>
     <g id="text_2">
      <!-- 100 -->
      <defs>
       <path d="M 12.40625 8.296875 
L 28.515625 8.296875 
L 28.515625 63.921875 
L 10.984375 60.40625 
L 10.984375 69.390625 
L 28.421875 72.90625 
L 38.28125 72.90625 
L 38.28125 8.296875 
L 54.390625 8.296875 
L 54.390625 0 
L 12.40625 0 
z
" id="DejaVuSans-49"/>
       <path d="M 31.78125 66.40625 
Q 24.171875 66.40625 20.328125 58.90625 
Q 16.5 51.421875 16.5 36.375 
Q 16.5 21.390625 20.328125 13.890625 
Q 24.171875 6.390625 31.78125 6.390625 
Q 39.453125 6.390625 43.28125 13.890625 
Q 47.125 21.390625 47.125 36.375 
Q 47.125 51.421875 43.28125 58.90625 
Q 39.453125 66.40625 31.78125 66.40625 
z
M 31.78125 74.21875 
Q 44.046875 74.21875 50.515625 64.515625 
Q 56.984375 54.828125 56.984375 36.375 
Q 56.984375 17.96875 50.515625 8.265625 
Q 44.046875 -1.421875 31.78125 -1.421875 
Q 19.53125 -1.421875 13.0625 8.265625 
Q 6.59375 17.96875 6.59375 36.375 
Q 6.59375 54.828125 13.0625 64.515625 
Q 19.53125 74.21875 31.78125 74.21875 
z
" id="DejaVuSans-48"/>
      </defs>
      <g transform="translate(122.429749 322.182437)scale(0.1 -0.1)">
       <use xlink:href="#DejaVuSans-49"/>
       <use x="63.623047" xlink:href="#DejaVuSans-48"/>
       <use x="127.246094" xlink:href="#DejaVuSans-48"/>
      </g>
     </g>
    </g>
    <g id="xtick_3">
     <g id="line2d_3">
      <g>
       <use style="stroke:#000000;stroke-width:0.8;" x="177.085822" xlink:href="#mdca669c23b" y="307.584"/>
      </g>
     </g>
     <g id="text_3">
      <!-- 102 -->
      <defs>
       <path d="M 19.1875 8.296875 
L 53.609375 8.296875 
L 53.609375 0 
L 7.328125 0 
L 7.328125 8.296875 
Q 12.9375 14.109375 22.625 23.890625 
Q 32.328125 33.6875 34.8125 36.53125 
Q 39.546875 41.84375 41.421875 45.53125 
Q 43.3125 49.21875 43.3125 52.78125 
Q 43.3125 58.59375 39.234375 62.25 
Q 35.15625 65.921875 28.609375 65.921875 
Q 23.96875 65.921875 18.8125 64.3125 
Q 13.671875 62.703125 7.8125 59.421875 
L 7.8125 69.390625 
Q 13.765625 71.78125 18.9375 73 
Q 24.125 74.21875 28.421875 74.21875 
Q 39.75 74.21875 46.484375 68.546875 
Q 53.21875 62.890625 53.21875 53.421875 
Q 53.21875 48.921875 51.53125 44.890625 
Q 49.859375 40.875 45.40625 35.40625 
Q 44.1875 33.984375 37.640625 27.21875 
Q 31.109375 20.453125 19.1875 8.296875 
z
" id="DejaVuSans-50"/>
      </defs>
      <g transform="translate(167.542072 322.182437)scale(0.1 -0.1)">
       <use xlink:href="#DejaVuSans-49"/>
       <use x="63.623047" xlink:href="#DejaVuSans-48"/>
       <use x="127.246094" xlink:href="#DejaVuSans-50"/>
      </g>
     </g>
    </g>
    <g id="xtick_4">
     <g id="line2d_4">
      <g>
       <use style="stroke:#000000;stroke-width:0.8;" x="222.198146" xlink:href="#mdca669c23b" y="307.584"/>
      </g>
     </g>
     <g id="text_4">
      <!-- 104 -->
      <defs>
       <path d="M 37.796875 64.3125 
L 12.890625 25.390625 
L 37.796875 25.390625 
z
M 35.203125 72.90625 
L 47.609375 72.90625 
L 47.609375 25.390625 
L 58.015625 25.390625 
L 58.015625 17.1875 
L 47.609375 17.1875 
L 47.609375 0 
L 37.796875 0 
L 37.796875 17.1875 
L 4.890625 17.1875 
L 4.890625 26.703125 
z
" id="DejaVuSans-52"/>
      </defs>
      <g transform="translate(212.654396 322.182437)scale(0.1 -0.1)">
       <use xlink:href="#DejaVuSans-49"/>
       <use x="63.623047" xlink:href="#DejaVuSans-48"/>
       <use x="127.246094" xlink:href="#DejaVuSans-52"/>
      </g>
     </g>
    </g>
    <g id="xtick_5">
     <g id="line2d_5">
      <g>
       <use style="stroke:#000000;stroke-width:0.8;" x="267.310469" xlink:href="#mdca669c23b" y="307.584"/>
      </g>
     </g>
     <g id="text_5">
      <!-- 106 -->
      <defs>
       <path d="M 33.015625 40.375 
Q 26.375 40.375 22.484375 35.828125 
Q 18.609375 31.296875 18.609375 23.390625 
Q 18.609375 15.53125 22.484375 10.953125 
Q 26.375 6.390625 33.015625 6.390625 
Q 39.65625 6.390625 43.53125 10.953125 
Q 47.40625 15.53125 47.40625 23.390625 
Q 47.40625 31.296875 43.53125 35.828125 
Q 39.65625 40.375 33.015625 40.375 
z
M 52.59375 71.296875 
L 52.59375 62.3125 
Q 48.875 64.0625 45.09375 64.984375 
Q 41.3125 65.921875 37.59375 65.921875 
Q 27.828125 65.921875 22.671875 59.328125 
Q 17.53125 52.734375 16.796875 39.40625 
Q 19.671875 43.65625 24.015625 45.921875 
Q 28.375 48.1875 33.59375 48.1875 
Q 44.578125 48.1875 50.953125 41.515625 
Q 57.328125 34.859375 57.328125 23.390625 
Q 57.328125 12.15625 50.6875 5.359375 
Q 44.046875 -1.421875 33.015625 -1.421875 
Q 20.359375 -1.421875 13.671875 8.265625 
Q 6.984375 17.96875 6.984375 36.375 
Q 6.984375 53.65625 15.1875 63.9375 
Q 23.390625 74.21875 37.203125 74.21875 
Q 40.921875 74.21875 44.703125 73.484375 
Q 48.484375 72.75 52.59375 71.296875 
z
" id="DejaVuSans-54"/>
      </defs>
      <g transform="translate(257.766719 322.182437)scale(0.1 -0.1)">
       <use xlink:href="#DejaVuSans-49"/>
       <use x="63.623047" xlink:href="#DejaVuSans-48"/>
       <use x="127.246094" xlink:href="#DejaVuSans-54"/>
      </g>
     </g>
    </g>
    <g id="xtick_6">
     <g id="line2d_6">
      <g>
       <use style="stroke:#000000;stroke-width:0.8;" x="312.422792" xlink:href="#mdca669c23b" y="307.584"/>
      </g>
     </g>
     <g id="text_6">
      <!-- 108 -->
      <g transform="translate(302.879042 322.182437)scale(0.1 -0.1)">
       <use xlink:href="#DejaVuSans-49"/>
       <use x="63.623047" xlink:href="#DejaVuSans-48"/>
       <use x="127.246094" xlink:href="#DejaVuSans-56"/>
      </g>
     </g>
    </g>
    <g id="xtick_7">
     <g id="line2d_7">
      <g>
       <use style="stroke:#000000;stroke-width:0.8;" x="357.535115" xlink:href="#mdca669c23b" y="307.584"/>
      </g>
     </g>
     <g id="text_7">
      <!-- 110 -->
      <g transform="translate(347.991365 322.182437)scale(0.1 -0.1)">
       <use xlink:href="#DejaVuSans-49"/>
       <use x="63.623047" xlink:href="#DejaVuSans-49"/>
       <use x="127.246094" xlink:href="#DejaVuSans-48"/>
      </g>
     </g>
    </g>
    <g id="xtick_8">
     <g id="line2d_8">
      <g>
       <use style="stroke:#000000;stroke-width:0.8;" x="402.647438" xlink:href="#mdca669c23b" y="307.584"/>
      </g>
     </g>
     <g id="text_8">
      <!-- 112 -->
      <g transform="translate(393.103688 322.182437)scale(0.1 -0.1)">
       <use xlink:href="#DejaVuSans-49"/>
       <use x="63.623047" xlink:href="#DejaVuSans-49"/>
       <use x="127.246094" xlink:href="#DejaVuSans-50"/>
      </g>
     </g>
    </g>
    <g id="text_9">
     <!-- tempmaxac -->
     <defs>
      <path d="M 18.3125 70.21875 
L 18.3125 54.6875 
L 36.8125 54.6875 
L 36.8125 47.703125 
L 18.3125 47.703125 
L 18.3125 18.015625 
Q 18.3125 11.328125 20.140625 9.421875 
Q 21.96875 7.515625 27.59375 7.515625 
L 36.8125 7.515625 
L 36.8125 0 
L 27.59375 0 
Q 17.1875 0 13.234375 3.875 
Q 9.28125 7.765625 9.28125 18.015625 
L 9.28125 47.703125 
L 2.6875 47.703125 
L 2.6875 54.6875 
L 9.28125 54.6875 
L 9.28125 70.21875 
z
" id="DejaVuSans-116"/>
      <path d="M 56.203125 29.59375 
L 56.203125 25.203125 
L 14.890625 25.203125 
Q 15.484375 15.921875 20.484375 11.0625 
Q 25.484375 6.203125 34.421875 6.203125 
Q 39.59375 6.203125 44.453125 7.46875 
Q 49.3125 8.734375 54.109375 11.28125 
L 54.109375 2.78125 
Q 49.265625 0.734375 44.1875 -0.34375 
Q 39.109375 -1.421875 33.890625 -1.421875 
Q 20.796875 -1.421875 13.15625 6.1875 
Q 5.515625 13.8125 5.515625 26.8125 
Q 5.515625 40.234375 12.765625 48.109375 
Q 20.015625 56 32.328125 56 
Q 43.359375 56 49.78125 48.890625 
Q 56.203125 41.796875 56.203125 29.59375 
z
M 47.21875 32.234375 
Q 47.125 39.59375 43.09375 43.984375 
Q 39.0625 48.390625 32.421875 48.390625 
Q 24.90625 48.390625 20.390625 44.140625 
Q 15.875 39.890625 15.1875 32.171875 
z
" id="DejaVuSans-101"/>
      <path d="M 52 44.1875 
Q 55.375 50.25 60.0625 53.125 
Q 64.75 56 71.09375 56 
Q 79.640625 56 84.28125 50.015625 
Q 88.921875 44.046875 88.921875 33.015625 
L 88.921875 0 
L 79.890625 0 
L 79.890625 32.71875 
Q 79.890625 40.578125 77.09375 44.375 
Q 74.3125 48.1875 68.609375 48.1875 
Q 61.625 48.1875 57.5625 43.546875 
Q 53.515625 38.921875 53.515625 30.90625 
L 53.515625 0 
L 44.484375 0 
L 44.484375 32.71875 
Q 44.484375 40.625 41.703125 44.40625 
Q 38.921875 48.1875 33.109375 48.1875 
Q 26.21875 48.1875 22.15625 43.53125 
Q 18.109375 38.875 18.109375 30.90625 
L 18.109375 0 
L 9.078125 0 
L 9.078125 54.6875 
L 18.109375 54.6875 
L 18.109375 46.1875 
Q 21.1875 51.21875 25.484375 53.609375 
Q 29.78125 56 35.6875 56 
Q 41.65625 56 45.828125 52.96875 
Q 50 49.953125 52 44.1875 
z
" id="DejaVuSans-109"/>
      <path d="M 18.109375 8.203125 
L 18.109375 -20.796875 
L 9.078125 -20.796875 
L 9.078125 54.6875 
L 18.109375 54.6875 
L 18.109375 46.390625 
Q 20.953125 51.265625 25.265625 53.625 
Q 29.59375 56 35.59375 56 
Q 45.5625 56 51.78125 48.09375 
Q 58.015625 40.1875 58.015625 27.296875 
Q 58.015625 14.40625 51.78125 6.484375 
Q 45.5625 -1.421875 35.59375 -1.421875 
Q 29.59375 -1.421875 25.265625 0.953125 
Q 20.953125 3.328125 18.109375 8.203125 
z
M 48.6875 27.296875 
Q 48.6875 37.203125 44.609375 42.84375 
Q 40.53125 48.484375 33.40625 48.484375 
Q 26.265625 48.484375 22.1875 42.84375 
Q 18.109375 37.203125 18.109375 27.296875 
Q 18.109375 17.390625 22.1875 11.75 
Q 26.265625 6.109375 33.40625 6.109375 
Q 40.53125 6.109375 44.609375 11.75 
Q 48.6875 17.390625 48.6875 27.296875 
z
" id="DejaVuSans-112"/>
      <path d="M 34.28125 27.484375 
Q 23.390625 27.484375 19.1875 25 
Q 14.984375 22.515625 14.984375 16.5 
Q 14.984375 11.71875 18.140625 8.90625 
Q 21.296875 6.109375 26.703125 6.109375 
Q 34.1875 6.109375 38.703125 11.40625 
Q 43.21875 16.703125 43.21875 25.484375 
L 43.21875 27.484375 
z
M 52.203125 31.203125 
L 52.203125 0 
L 43.21875 0 
L 43.21875 8.296875 
Q 40.140625 3.328125 35.546875 0.953125 
Q 30.953125 -1.421875 24.3125 -1.421875 
Q 15.921875 -1.421875 10.953125 3.296875 
Q 6 8.015625 6 15.921875 
Q 6 25.140625 12.171875 29.828125 
Q 18.359375 34.515625 30.609375 34.515625 
L 43.21875 34.515625 
L 43.21875 35.40625 
Q 43.21875 41.609375 39.140625 45 
Q 35.0625 48.390625 27.6875 48.390625 
Q 23 48.390625 18.546875 47.265625 
Q 14.109375 46.140625 10.015625 43.890625 
L 10.015625 52.203125 
Q 14.9375 54.109375 19.578125 55.046875 
Q 24.21875 56 28.609375 56 
Q 40.484375 56 46.34375 49.84375 
Q 52.203125 43.703125 52.203125 31.203125 
z
" id="DejaVuSans-97"/>
      <path d="M 54.890625 54.6875 
L 35.109375 28.078125 
L 55.90625 0 
L 45.3125 0 
L 29.390625 21.484375 
L 13.484375 0 
L 2.875 0 
L 24.125 28.609375 
L 4.6875 54.6875 
L 15.28125 54.6875 
L 29.78125 35.203125 
L 44.28125 54.6875 
z
" id="DejaVuSans-120"/>
      <path d="M 48.78125 52.59375 
L 48.78125 44.1875 
Q 44.96875 46.296875 41.140625 47.34375 
Q 37.3125 48.390625 33.40625 48.390625 
Q 24.65625 48.390625 19.8125 42.84375 
Q 14.984375 37.3125 14.984375 27.296875 
Q 14.984375 17.28125 19.8125 11.734375 
Q 24.65625 6.203125 33.40625 6.203125 
Q 37.3125 6.203125 41.140625 7.25 
Q 44.96875 8.296875 48.78125 10.40625 
L 48.78125 2.09375 
Q 45.015625 0.34375 40.984375 -0.53125 
Q 36.96875 -1.421875 32.421875 -1.421875 
Q 20.0625 -1.421875 12.78125 6.34375 
Q 5.515625 14.109375 5.515625 27.296875 
Q 5.515625 40.671875 12.859375 48.328125 
Q 20.21875 56 33.015625 56 
Q 37.15625 56 41.109375 55.140625 
Q 45.0625 54.296875 48.78125 52.59375 
z
" id="DejaVuSans-99"/>
     </defs>
     <g transform="translate(206.371719 335.860562)scale(0.1 -0.1)">
      <use xlink:href="#DejaVuSans-116"/>
      <use x="39.208984" xlink:href="#DejaVuSans-101"/>
      <use x="100.732422" xlink:href="#DejaVuSans-109"/>
      <use x="198.144531" xlink:href="#DejaVuSans-112"/>
      <use x="261.621094" xlink:href="#DejaVuSans-109"/>
      <use x="359.033203" xlink:href="#DejaVuSans-97"/>
      <use x="420.3125" xlink:href="#DejaVuSans-120"/>
      <use x="479.492188" xlink:href="#DejaVuSans-97"/>
      <use x="540.771484" xlink:href="#DejaVuSans-99"/>
     </g>
    </g>
   </g>
   <g id="matplotlib.axis_2">
    <g id="ytick_1">
     <g id="line2d_9">
      <defs>
       <path d="M 0 0 
L -3.5 0 
" id="m002bcad897" style="stroke:#000000;stroke-width:0.8;"/>
      </defs>
      <g>
       <use style="stroke:#000000;stroke-width:0.8;" x="57.6" xlink:href="#m002bcad897" y="174.528"/>
      </g>
     </g>
    </g>
   </g>
   <g id="line2d_10">
    <path clip-path="url(#p88777b1406)" d="M 107.161722 174.528 
L 244.754307 174.528 
" style="fill:none;stroke:#ffa500;stroke-linecap:square;stroke-width:1.5;"/>
   </g>
   <g id="line2d_11">
    <path clip-path="url(#p88777b1406)" d="M 159.604797 174.528 
L 201.333696 174.528 
" style="fill:none;stroke:#4c4c4c;stroke-linecap:square;stroke-width:4.5;"/>
   </g>
   <g id="line2d_12">
    <path clip-path="url(#p88777b1406)" d="M 93.628025 174.528 
L 262.799236 174.528 
" style="fill:none;stroke:#008000;stroke-linecap:square;stroke-width:1.5;"/>
   </g>
   <g id="line2d_13">
    <path clip-path="url(#p88777b1406)" d="M 143.25158 174.528 
L 192.875136 174.528 
" style="fill:none;stroke:#262626;stroke-linecap:square;stroke-width:4.5;"/>
   </g>
   <g id="patch_3">
    <path d="M 57.6 307.584 
L 57.6 41.472 
" style="fill:none;stroke:#000000;stroke-linecap:square;stroke-linejoin:miter;stroke-width:0.8;"/>
   </g>
   <g id="patch_4">
    <path d="M 414.72 307.584 
L 414.72 41.472 
" style="fill:none;stroke:#000000;stroke-linecap:square;stroke-linejoin:miter;stroke-width:0.8;"/>
   </g>
   <g id="patch_5">
    <path d="M 57.6 307.584 
L 414.72 307.584 
" style="fill:none;stroke:#000000;stroke-linecap:square;stroke-linejoin:miter;stroke-width:0.8;"/>
   </g>
   <g id="patch_6">
    <path d="M 57.6 41.472 
L 414.72 41.472 
" style="fill:none;stroke:#000000;stroke-linecap:square;stroke-linejoin:miter;stroke-width:0.8;"/>
   </g>
   <g id="PathCollection_1">
    <defs>
     <path d="M 0 1.5 
C 0.397805 1.5 0.77937 1.341951 1.06066 1.06066 
C 1.341951 0.77937 1.5 0.397805 1.5 0 
C 1.5 -0.397805 1.341951 -0.77937 1.06066 -1.06066 
C 0.77937 -1.341951 0.397805 -1.5 0 -1.5 
C -0.397805 -1.5 -0.77937 -1.341951 -1.06066 -1.06066 
C -1.341951 -0.77937 -1.5 -0.397805 -1.5 0 
C -1.5 0.397805 -1.341951 0.77937 -1.06066 1.06066 
C -0.77937 1.341951 -0.397805 1.5 0 1.5 
z
" id="m2daf088ea5" style="stroke:#4c4c4c;stroke-opacity:0.5;"/>
    </defs>
    <g clip-path="url(#p88777b1406)">
     <use style="fill:#ffffff;fill-opacity:0.5;stroke:#4c4c4c;stroke-opacity:0.5;" x="191.747327" xlink:href="#m2daf088ea5" y="174.528"/>
    </g>
   </g>
   <g id="PathCollection_2">
    <defs>
     <path d="M 0 1.5 
C 0.397805 1.5 0.77937 1.341951 1.06066 1.06066 
C 1.341951 0.77937 1.5 0.397805 1.5 0 
C 1.5 -0.397805 1.341951 -0.77937 1.06066 -1.06066 
C 0.77937 -1.341951 0.397805 -1.5 0 -1.5 
C -0.397805 -1.5 -0.77937 -1.341951 -1.06066 -1.06066 
C -1.341951 -0.77937 -1.5 -0.397805 -1.5 0 
C -1.5 0.397805 -1.341951 0.77937 -1.06066 1.06066 
C -0.77937 1.341951 -0.397805 1.5 0 1.5 
z
" id="m125fb52e38" style="stroke:#262626;stroke-opacity:0.5;"/>
    </defs>
    <g clip-path="url(#p88777b1406)">
     <use style="fill:#ffffff;fill-opacity:0.5;stroke:#262626;stroke-opacity:0.5;" x="172.57459" xlink:href="#m125fb52e38" y="174.528"/>
    </g>
   </g>
   <g id="text_10">
    <!-- Association of tempmaxac vs. death -->
    <defs>
     <path d="M 34.1875 63.1875 
L 20.796875 26.90625 
L 47.609375 26.90625 
z
M 28.609375 72.90625 
L 39.796875 72.90625 
L 67.578125 0 
L 57.328125 0 
L 50.6875 18.703125 
L 17.828125 18.703125 
L 11.1875 0 
L 0.78125 0 
z
" id="DejaVuSans-65"/>
     <path d="M 44.28125 53.078125 
L 44.28125 44.578125 
Q 40.484375 46.53125 36.375 47.5 
Q 32.28125 48.484375 27.875 48.484375 
Q 21.1875 48.484375 17.84375 46.4375 
Q 14.5 44.390625 14.5 40.28125 
Q 14.5 37.15625 16.890625 35.375 
Q 19.28125 33.59375 26.515625 31.984375 
L 29.59375 31.296875 
Q 39.15625 29.25 43.1875 25.515625 
Q 47.21875 21.78125 47.21875 15.09375 
Q 47.21875 7.46875 41.1875 3.015625 
Q 35.15625 -1.421875 24.609375 -1.421875 
Q 20.21875 -1.421875 15.453125 -0.5625 
Q 10.6875 0.296875 5.421875 2 
L 5.421875 11.28125 
Q 10.40625 8.6875 15.234375 7.390625 
Q 20.0625 6.109375 24.8125 6.109375 
Q 31.15625 6.109375 34.5625 8.28125 
Q 37.984375 10.453125 37.984375 14.40625 
Q 37.984375 18.0625 35.515625 20.015625 
Q 33.0625 21.96875 24.703125 23.78125 
L 21.578125 24.515625 
Q 13.234375 26.265625 9.515625 29.90625 
Q 5.8125 33.546875 5.8125 39.890625 
Q 5.8125 47.609375 11.28125 51.796875 
Q 16.75 56 26.8125 56 
Q 31.78125 56 36.171875 55.265625 
Q 40.578125 54.546875 44.28125 53.078125 
z
" id="DejaVuSans-115"/>
     <path d="M 30.609375 48.390625 
Q 23.390625 48.390625 19.1875 42.75 
Q 14.984375 37.109375 14.984375 27.296875 
Q 14.984375 17.484375 19.15625 11.84375 
Q 23.34375 6.203125 30.609375 6.203125 
Q 37.796875 6.203125 41.984375 11.859375 
Q 46.1875 17.53125 46.1875 27.296875 
Q 46.1875 37.015625 41.984375 42.703125 
Q 37.796875 48.390625 30.609375 48.390625 
z
M 30.609375 56 
Q 42.328125 56 49.015625 48.375 
Q 55.71875 40.765625 55.71875 27.296875 
Q 55.71875 13.875 49.015625 6.21875 
Q 42.328125 -1.421875 30.609375 -1.421875 
Q 18.84375 -1.421875 12.171875 6.21875 
Q 5.515625 13.875 5.515625 27.296875 
Q 5.515625 40.765625 12.171875 48.375 
Q 18.84375 56 30.609375 56 
z
" id="DejaVuSans-111"/>
     <path d="M 9.421875 54.6875 
L 18.40625 54.6875 
L 18.40625 0 
L 9.421875 0 
z
M 9.421875 75.984375 
L 18.40625 75.984375 
L 18.40625 64.59375 
L 9.421875 64.59375 
z
" id="DejaVuSans-105"/>
     <path d="M 54.890625 33.015625 
L 54.890625 0 
L 45.90625 0 
L 45.90625 32.71875 
Q 45.90625 40.484375 42.875 44.328125 
Q 39.84375 48.1875 33.796875 48.1875 
Q 26.515625 48.1875 22.3125 43.546875 
Q 18.109375 38.921875 18.109375 30.90625 
L 18.109375 0 
L 9.078125 0 
L 9.078125 54.6875 
L 18.109375 54.6875 
L 18.109375 46.1875 
Q 21.34375 51.125 25.703125 53.5625 
Q 30.078125 56 35.796875 56 
Q 45.21875 56 50.046875 50.171875 
Q 54.890625 44.34375 54.890625 33.015625 
z
" id="DejaVuSans-110"/>
     <path id="DejaVuSans-32"/>
     <path d="M 37.109375 75.984375 
L 37.109375 68.5 
L 28.515625 68.5 
Q 23.6875 68.5 21.796875 66.546875 
Q 19.921875 64.59375 19.921875 59.515625 
L 19.921875 54.6875 
L 34.71875 54.6875 
L 34.71875 47.703125 
L 19.921875 47.703125 
L 19.921875 0 
L 10.890625 0 
L 10.890625 47.703125 
L 2.296875 47.703125 
L 2.296875 54.6875 
L 10.890625 54.6875 
L 10.890625 58.5 
Q 10.890625 67.625 15.140625 71.796875 
Q 19.390625 75.984375 28.609375 75.984375 
z
" id="DejaVuSans-102"/>
     <path d="M 2.984375 54.6875 
L 12.5 54.6875 
L 29.59375 8.796875 
L 46.6875 54.6875 
L 56.203125 54.6875 
L 35.6875 0 
L 23.484375 0 
z
" id="DejaVuSans-118"/>
     <path d="M 10.6875 12.40625 
L 21 12.40625 
L 21 0 
L 10.6875 0 
z
" id="DejaVuSans-46"/>
     <path d="M 45.40625 46.390625 
L 45.40625 75.984375 
L 54.390625 75.984375 
L 54.390625 0 
L 45.40625 0 
L 45.40625 8.203125 
Q 42.578125 3.328125 38.25 0.953125 
Q 33.9375 -1.421875 27.875 -1.421875 
Q 17.96875 -1.421875 11.734375 6.484375 
Q 5.515625 14.40625 5.515625 27.296875 
Q 5.515625 40.1875 11.734375 48.09375 
Q 17.96875 56 27.875 56 
Q 33.9375 56 38.25 53.625 
Q 42.578125 51.265625 45.40625 46.390625 
z
M 14.796875 27.296875 
Q 14.796875 17.390625 18.875 11.75 
Q 22.953125 6.109375 30.078125 6.109375 
Q 37.203125 6.109375 41.296875 11.75 
Q 45.40625 17.390625 45.40625 27.296875 
Q 45.40625 37.203125 41.296875 42.84375 
Q 37.203125 48.484375 30.078125 48.484375 
Q 22.953125 48.484375 18.875 42.84375 
Q 14.796875 37.203125 14.796875 27.296875 
z
" id="DejaVuSans-100"/>
     <path d="M 54.890625 33.015625 
L 54.890625 0 
L 45.90625 0 
L 45.90625 32.71875 
Q 45.90625 40.484375 42.875 44.328125 
Q 39.84375 48.1875 33.796875 48.1875 
Q 26.515625 48.1875 22.3125 43.546875 
Q 18.109375 38.921875 18.109375 30.90625 
L 18.109375 0 
L 9.078125 0 
L 9.078125 75.984375 
L 18.109375 75.984375 
L 18.109375 46.1875 
Q 21.34375 51.125 25.703125 53.5625 
Q 30.078125 56 35.796875 56 
Q 45.21875 56 50.046875 50.171875 
Q 54.890625 44.34375 54.890625 33.015625 
z
" id="DejaVuSans-104"/>
    </defs>
    <g transform="translate(126.924375 35.472)scale(0.12 -0.12)">
     <use xlink:href="#DejaVuSans-65"/>
     <use x="68.408203" xlink:href="#DejaVuSans-115"/>
     <use x="120.507812" xlink:href="#DejaVuSans-115"/>
     <use x="172.607422" xlink:href="#DejaVuSans-111"/>
     <use x="233.789062" xlink:href="#DejaVuSans-99"/>
     <use x="288.769531" xlink:href="#DejaVuSans-105"/>
     <use x="316.552734" xlink:href="#DejaVuSans-97"/>
     <use x="377.832031" xlink:href="#DejaVuSans-116"/>
     <use x="417.041016" xlink:href="#DejaVuSans-105"/>
     <use x="444.824219" xlink:href="#DejaVuSans-111"/>
     <use x="506.005859" xlink:href="#DejaVuSans-110"/>
     <use x="569.384766" xlink:href="#DejaVuSans-32"/>
     <use x="601.171875" xlink:href="#DejaVuSans-111"/>
     <use x="662.353516" xlink:href="#DejaVuSans-102"/>
     <use x="697.558594" xlink:href="#DejaVuSans-32"/>
     <use x="729.345703" xlink:href="#DejaVuSans-116"/>
     <use x="768.554688" xlink:href="#DejaVuSans-101"/>
     <use x="830.078125" xlink:href="#DejaVuSans-109"/>
     <use x="927.490234" xlink:href="#DejaVuSans-112"/>
     <use x="990.966797" xlink:href="#DejaVuSans-109"/>
     <use x="1088.378906" xlink:href="#DejaVuSans-97"/>
     <use x="1149.658203" xlink:href="#DejaVuSans-120"/>
     <use x="1208.837891" xlink:href="#DejaVuSans-97"/>
     <use x="1270.117188" xlink:href="#DejaVuSans-99"/>
     <use x="1325.097656" xlink:href="#DejaVuSans-32"/>
     <use x="1356.884766" xlink:href="#DejaVuSans-118"/>
     <use x="1416.064453" xlink:href="#DejaVuSans-115"/>
     <use x="1468.164062" xlink:href="#DejaVuSans-46"/>
     <use x="1499.951172" xlink:href="#DejaVuSans-32"/>
     <use x="1531.738281" xlink:href="#DejaVuSans-100"/>
     <use x="1595.214844" xlink:href="#DejaVuSans-101"/>
     <use x="1656.738281" xlink:href="#DejaVuSans-97"/>
     <use x="1718.017578" xlink:href="#DejaVuSans-116"/>
     <use x="1757.226562" xlink:href="#DejaVuSans-104"/>
    </g>
   </g>
   <g id="legend_1">
    <g id="patch_7">
     <path d="M 296.065313 78.82825 
L 407.72 78.82825 
Q 409.72 78.82825 409.72 76.82825 
L 409.72 48.472 
Q 409.72 46.472 407.72 46.472 
L 296.065313 46.472 
Q 294.065313 46.472 294.065313 48.472 
L 294.065313 76.82825 
Q 294.065313 78.82825 296.065313 78.82825 
z
" style="fill:#ffffff;opacity:0.8;stroke:#cccccc;stroke-linejoin:miter;"/>
    </g>
    <g id="line2d_14">
     <path d="M 298.065313 54.570437 
L 318.065313 54.570437 
" style="fill:none;stroke:#ffa500;stroke-linecap:square;stroke-width:1.5;"/>
    </g>
    <g id="line2d_15"/>
    <g id="text_11">
     <!-- death (114) -->
     <defs>
      <path d="M 31 75.875 
Q 24.46875 64.65625 21.28125 53.65625 
Q 18.109375 42.671875 18.109375 31.390625 
Q 18.109375 20.125 21.3125 9.0625 
Q 24.515625 -2 31 -13.1875 
L 23.1875 -13.1875 
Q 15.875 -1.703125 12.234375 9.375 
Q 8.59375 20.453125 8.59375 31.390625 
Q 8.59375 42.28125 12.203125 53.3125 
Q 15.828125 64.359375 23.1875 75.875 
z
" id="DejaVuSans-40"/>
      <path d="M 8.015625 75.875 
L 15.828125 75.875 
Q 23.140625 64.359375 26.78125 53.3125 
Q 30.421875 42.28125 30.421875 31.390625 
Q 30.421875 20.453125 26.78125 9.375 
Q 23.140625 -1.703125 15.828125 -13.1875 
L 8.015625 -13.1875 
Q 14.5 -2 17.703125 9.0625 
Q 20.90625 20.125 20.90625 31.390625 
Q 20.90625 42.671875 17.703125 53.65625 
Q 14.5 64.65625 8.015625 75.875 
z
" id="DejaVuSans-41"/>
     </defs>
     <g transform="translate(326.065313 58.070437)scale(0.1 -0.1)">
      <use xlink:href="#DejaVuSans-100"/>
      <use x="63.476562" xlink:href="#DejaVuSans-101"/>
      <use x="125" xlink:href="#DejaVuSans-97"/>
      <use x="186.279297" xlink:href="#DejaVuSans-116"/>
      <use x="225.488281" xlink:href="#DejaVuSans-104"/>
      <use x="288.867188" xlink:href="#DejaVuSans-32"/>
      <use x="320.654297" xlink:href="#DejaVuSans-40"/>
      <use x="359.667969" xlink:href="#DejaVuSans-49"/>
      <use x="423.291016" xlink:href="#DejaVuSans-49"/>
      <use x="486.914062" xlink:href="#DejaVuSans-52"/>
      <use x="550.537109" xlink:href="#DejaVuSans-41"/>
     </g>
    </g>
    <g id="line2d_16">
     <path d="M 298.065313 69.248562 
L 318.065313 69.248562 
" style="fill:none;stroke:#008000;stroke-linecap:square;stroke-width:1.5;"/>
    </g>
    <g id="line2d_17"/>
    <g id="text_12">
     <!-- Not death (299) -->
     <defs>
      <path d="M 9.8125 72.90625 
L 23.09375 72.90625 
L 55.421875 11.921875 
L 55.421875 72.90625 
L 64.984375 72.90625 
L 64.984375 0 
L 51.703125 0 
L 19.390625 60.984375 
L 19.390625 0 
L 9.8125 0 
z
" id="DejaVuSans-78"/>
     </defs>
     <g transform="translate(326.065313 72.748562)scale(0.1 -0.1)">
      <use xlink:href="#DejaVuSans-78"/>
      <use x="74.804688" xlink:href="#DejaVuSans-111"/>
      <use x="135.986328" xlink:href="#DejaVuSans-116"/>
      <use x="175.195312" xlink:href="#DejaVuSans-32"/>
      <use x="206.982422" xlink:href="#DejaVuSans-100"/>
      <use x="270.458984" xlink:href="#DejaVuSans-101"/>
      <use x="331.982422" xlink:href="#DejaVuSans-97"/>
      <use x="393.261719" xlink:href="#DejaVuSans-116"/>
      <use x="432.470703" xlink:href="#DejaVuSans-104"/>
      <use x="495.849609" xlink:href="#DejaVuSans-32"/>
      <use x="527.636719" xlink:href="#DejaVuSans-40"/>
      <use x="566.650391" xlink:href="#DejaVuSans-50"/>
      <use x="630.273438" xlink:href="#DejaVuSans-57"/>
      <use x="693.896484" xlink:href="#DejaVuSans-57"/>
      <use x="757.519531" xlink:href="#DejaVuSans-41"/>
     </g>
    </g>
   </g>
  </g>
 </g>
 <defs>
  <clipPath id="p88777b1406">
   <rect height="266.112" width="357.12" x="57.6" y="41.472"/>
  </clipPath>
 </defs>
</svg>
