<?xml version="1.0" encoding="utf-8" standalone="no"?>
<!DOCTYPE svg PUBLIC "-//W3C//DTD SVG 1.1//EN"
  "http://www.w3.org/Graphics/SVG/1.1/DTD/svg11.dtd">
<!-- Created with matplotlib (https://matplotlib.org/) -->
<svg height="345.6pt" version="1.1" viewBox="0 0 460.8 345.6" width="460.8pt" xmlns="http://www.w3.org/2000/svg" xmlns:xlink="http://www.w3.org/1999/xlink">
 <defs>
  <style type="text/css">
*{stroke-linecap:butt;stroke-linejoin:round;}
  </style>
 </defs>
 <g id="figure_1">
  <g id="patch_1">
   <path d="M 0 345.6 
L 460.8 345.6 
L 460.8 0 
L 0 0 
z
" style="fill:#ffffff;"/>
  </g>
  <g id="axes_1">
   <g id="patch_2">
    <path d="M 57.6 307.584 
L 414.72 307.584 
L 414.72 41.472 
L 57.6 41.472 
z
" style="fill:#ffffff;"/>
   </g>
   <g id="PolyCollection_1">
    <defs>
     <path d="M 73.832727 -155.552249 
L 73.832727 -186.591751 
L 76.667179 -188.615263 
L 79.501631 -190.826301 
L 82.336082 -193.230456 
L 85.170534 -195.831667 
L 88.004986 -198.631965 
L 90.839437 -201.631226 
L 93.673889 -204.826934 
L 96.508341 -208.21398 
L 99.342793 -211.784481 
L 102.177244 -215.527649 
L 105.011696 -219.429698 
L 107.846148 -223.473817 
L 110.680599 -227.640194 
L 113.515051 -231.906105 
L 116.349503 -236.246081 
L 119.183954 -240.632133 
L 122.018406 -245.034051 
L 124.852858 -249.419778 
L 127.687309 -253.755832 
L 130.521761 -258.007796 
L 133.356213 -262.140851 
L 136.190665 -266.120346 
L 139.025116 -269.912396 
L 141.859568 -273.484484 
L 144.69402 -276.806066 
L 147.528471 -279.849156 
L 150.362923 -282.588874 
L 153.197375 -285.003945 
L 156.031826 -287.077136 
L 158.866278 -288.795612 
L 161.70073 -290.151208 
L 164.535181 -291.140601 
L 167.369633 -291.765379 
L 170.204085 -292.032 
L 173.038537 -291.951644 
L 175.872988 -291.539961 
L 178.70744 -290.816714 
L 181.541892 -289.805332 
L 184.376343 -288.532384 
L 187.210795 -287.026979 
L 190.045247 -285.32012 
L 192.879698 -283.444018 
L 195.71415 -281.431394 
L 198.548602 -279.314776 
L 201.383054 -277.12582 
L 204.217505 -274.894666 
L 207.051957 -272.649347 
L 209.886409 -270.415272 
L 212.72086 -268.214776 
L 215.555312 -266.066776 
L 218.389764 -263.986517 
L 221.224215 -261.985417 
L 224.058667 -260.071021 
L 226.893119 -258.247055 
L 229.72757 -256.513574 
L 232.562022 -254.867201 
L 235.396474 -253.301447 
L 238.230926 -251.807099 
L 241.065377 -250.372658 
L 243.899829 -248.984825 
L 246.734281 -247.62901 
L 249.568732 -246.289847 
L 252.403184 -244.951712 
L 255.237636 -243.599217 
L 258.072087 -242.217678 
L 260.906539 -240.793535 
L 263.740991 -239.314721 
L 266.575443 -237.770975 
L 269.409894 -236.154088 
L 272.244346 -234.458073 
L 275.078798 -232.679277 
L 277.913249 -230.816414 
L 280.747701 -228.870539 
L 283.582153 -226.844954 
L 286.416604 -224.745066 
L 289.251056 -222.578189 
L 292.085508 -220.353313 
L 294.919959 -218.080842 
L 297.754411 -215.772304 
L 300.588863 -213.440058 
L 303.423315 -211.09699 
L 306.257766 -208.756218 
L 309.092218 -206.430812 
L 311.92667 -204.133524 
L 314.761121 -201.876554 
L 317.595573 -199.67134 
L 320.430025 -197.528378 
L 323.264476 -195.457079 
L 326.098928 -193.465662 
L 328.93338 -191.561083 
L 331.767831 -189.74899 
L 334.602283 -188.033723 
L 337.436735 -186.418326 
L 340.271187 -184.904602 
L 343.105638 -183.493176 
L 345.94009 -182.183585 
L 348.774542 -180.974377 
L 351.608993 -179.863223 
L 354.443445 -178.847032 
L 354.443445 -163.296968 
L 354.443445 -163.296968 
L 351.608993 -162.280777 
L 348.774542 -161.169623 
L 345.94009 -159.960415 
L 343.105638 -158.650824 
L 340.271187 -157.239398 
L 337.436735 -155.725674 
L 334.602283 -154.110277 
L 331.767831 -152.39501 
L 328.93338 -150.582917 
L 326.098928 -148.678338 
L 323.264476 -146.686921 
L 320.430025 -144.615622 
L 317.595573 -142.47266 
L 314.761121 -140.267446 
L 311.92667 -138.010476 
L 309.092218 -135.713188 
L 306.257766 -133.387782 
L 303.423315 -131.04701 
L 300.588863 -128.703942 
L 297.754411 -126.371696 
L 294.919959 -124.063158 
L 292.085508 -121.790687 
L 289.251056 -119.565811 
L 286.416604 -117.398934 
L 283.582153 -115.299046 
L 280.747701 -113.273461 
L 277.913249 -111.327586 
L 275.078798 -109.464723 
L 272.244346 -107.685927 
L 269.409894 -105.989912 
L 266.575443 -104.373025 
L 263.740991 -102.829279 
L 260.906539 -101.350465 
L 258.072087 -99.926322 
L 255.237636 -98.544783 
L 252.403184 -97.192288 
L 249.568732 -95.854153 
L 246.734281 -94.51499 
L 243.899829 -93.159175 
L 241.065377 -91.771342 
L 238.230926 -90.336901 
L 235.396474 -88.842553 
L 232.562022 -87.276799 
L 229.72757 -85.630426 
L 226.893119 -83.896945 
L 224.058667 -82.072979 
L 221.224215 -80.158583 
L 218.389764 -78.157483 
L 215.555312 -76.077224 
L 212.72086 -73.929224 
L 209.886409 -71.728728 
L 207.051957 -69.494653 
L 204.217505 -67.249334 
L 201.383054 -65.01818 
L 198.548602 -62.829224 
L 195.71415 -60.712606 
L 192.879698 -58.699982 
L 190.045247 -56.82388 
L 187.210795 -55.117021 
L 184.376343 -53.611616 
L 181.541892 -52.338668 
L 178.70744 -51.327286 
L 175.872988 -50.604039 
L 173.038537 -50.192356 
L 170.204085 -50.112 
L 167.369633 -50.378621 
L 164.535181 -51.003399 
L 161.70073 -51.992792 
L 158.866278 -53.348388 
L 156.031826 -55.066864 
L 153.197375 -57.140055 
L 150.362923 -59.555126 
L 147.528471 -62.294844 
L 144.69402 -65.337934 
L 141.859568 -68.659516 
L 139.025116 -72.231604 
L 136.190665 -76.023654 
L 133.356213 -80.003149 
L 130.521761 -84.136204 
L 127.687309 -88.388168 
L 124.852858 -92.724222 
L 122.018406 -97.109949 
L 119.183954 -101.511867 
L 116.349503 -105.897919 
L 113.515051 -110.237895 
L 110.680599 -114.503806 
L 107.846148 -118.670183 
L 105.011696 -122.714302 
L 102.177244 -126.616351 
L 99.342793 -130.359519 
L 96.508341 -133.93002 
L 93.673889 -137.317066 
L 90.839437 -140.512774 
L 88.004986 -143.512035 
L 85.170534 -146.312333 
L 82.336082 -148.913544 
L 79.501631 -151.317699 
L 76.667179 -153.528737 
L 73.832727 -155.552249 
z
" id="m4bb71b52f7" style="stroke:#4c4c4c;stroke-opacity:0.5;stroke-width:1.5;"/>
    </defs>
    <g clip-path="url(#pb8f64de284)">
     <use style="fill:#df9c20;fill-opacity:0.5;stroke:#4c4c4c;stroke-opacity:0.5;stroke-width:1.5;" x="0" xlink:href="#m4bb71b52f7" y="345.6"/>
    </g>
   </g>
   <g id="PolyCollection_2">
    <defs>
     <path d="M 147.781295 -154.696793 
L 147.781295 -187.447207 
L 150.313679 -199.334914 
L 152.846063 -215.798663 
L 155.378446 -235.971462 
L 157.91083 -257.419905 
L 160.443213 -276.418547 
L 162.975597 -288.938162 
L 165.507981 -292.032 
L 168.040364 -284.976777 
L 170.572748 -269.56622 
L 173.105131 -249.39294 
L 175.637515 -228.507101 
L 178.169899 -210.13122 
L 180.702282 -195.973015 
L 183.234666 -186.266108 
L 185.767049 -180.290161 
L 188.299433 -176.987402 
L 190.831817 -175.396396 
L 193.3642 -174.822254 
L 195.896584 -174.814553 
L 198.428968 -175.074865 
L 200.961351 -175.386126 
L 203.493735 -175.595418 
L 206.026118 -175.63105 
L 208.558502 -175.514453 
L 211.090886 -175.338379 
L 213.623269 -175.211751 
L 216.155653 -175.198038 
L 218.688036 -175.281533 
L 221.22042 -175.380574 
L 223.752804 -175.398889 
L 226.285187 -175.283649 
L 228.817571 -175.055646 
L 231.349954 -174.794884 
L 233.882338 -174.5924 
L 236.414722 -174.498995 
L 238.947105 -174.501887 
L 241.479489 -174.541817 
L 244.011872 -174.55777 
L 246.544256 -174.529854 
L 249.07664 -174.492776 
L 251.609023 -174.511108 
L 254.141407 -174.631613 
L 256.673791 -174.842638 
L 259.206174 -175.066779 
L 261.738558 -175.193084 
L 264.270941 -175.131025 
L 266.803325 -174.855342 
L 269.335709 -174.416908 
L 271.868092 -173.915602 
L 274.400476 -173.453152 
L 276.932859 -173.093176 
L 279.465243 -172.847886 
L 281.997627 -172.693031 
L 284.53001 -172.596729 
L 287.062394 -172.542622 
L 289.594777 -172.534583 
L 292.127161 -172.583136 
L 294.659545 -172.684998 
L 297.191928 -172.810479 
L 299.724312 -172.907834 
L 302.256696 -172.922787 
L 304.789079 -172.822118 
L 307.321463 -172.608027 
L 309.853846 -172.316014 
L 312.38623 -171.998837 
L 314.918614 -171.706211 
L 317.450997 -171.470249 
L 319.983381 -171.301395 
L 322.515764 -171.193178 
L 325.048148 -171.130699 
L 327.580532 -171.098072 
L 330.112915 -171.082618 
L 332.645299 -171.075965 
L 335.177682 -171.073358 
L 337.710066 -171.072427 
L 340.24245 -171.072126 
L 342.774833 -171.072045 
L 345.307217 -171.072054 
L 347.839601 -171.072152 
L 350.371984 -171.072455 
L 352.904368 -171.073255 
L 355.436751 -171.075179 
L 357.969135 -171.079383 
L 360.501519 -171.087722 
L 363.033902 -171.102697 
L 365.566286 -171.126954 
L 368.098669 -171.162201 
L 370.631053 -171.20775 
L 373.163437 -171.259319 
L 375.69582 -171.308993 
L 378.228204 -171.346917 
L 380.760587 -171.364404 
L 383.292971 -171.357153 
L 385.825355 -171.326968 
L 388.357738 -171.28103 
L 390.890122 -171.229124 
L 393.422506 -171.180291 
L 395.954889 -171.140431 
L 398.487273 -171.111649 
L 398.487273 -171.032351 
L 398.487273 -171.032351 
L 395.954889 -171.003569 
L 393.422506 -170.963709 
L 390.890122 -170.914876 
L 388.357738 -170.86297 
L 385.825355 -170.817032 
L 383.292971 -170.786847 
L 380.760587 -170.779596 
L 378.228204 -170.797083 
L 375.69582 -170.835007 
L 373.163437 -170.884681 
L 370.631053 -170.93625 
L 368.098669 -170.981799 
L 365.566286 -171.017046 
L 363.033902 -171.041303 
L 360.501519 -171.056278 
L 357.969135 -171.064617 
L 355.436751 -171.068821 
L 352.904368 -171.070745 
L 350.371984 -171.071545 
L 347.839601 -171.071848 
L 345.307217 -171.071946 
L 342.774833 -171.071955 
L 340.24245 -171.071874 
L 337.710066 -171.071573 
L 335.177682 -171.070642 
L 332.645299 -171.068035 
L 330.112915 -171.061382 
L 327.580532 -171.045928 
L 325.048148 -171.013301 
L 322.515764 -170.950822 
L 319.983381 -170.842605 
L 317.450997 -170.673751 
L 314.918614 -170.437789 
L 312.38623 -170.145163 
L 309.853846 -169.827986 
L 307.321463 -169.535973 
L 304.789079 -169.321882 
L 302.256696 -169.221213 
L 299.724312 -169.236166 
L 297.191928 -169.333521 
L 294.659545 -169.459002 
L 292.127161 -169.560864 
L 289.594777 -169.609417 
L 287.062394 -169.601378 
L 284.53001 -169.547271 
L 281.997627 -169.450969 
L 279.465243 -169.296114 
L 276.932859 -169.050824 
L 274.400476 -168.690848 
L 271.868092 -168.228398 
L 269.335709 -167.727092 
L 266.803325 -167.288658 
L 264.270941 -167.012975 
L 261.738558 -166.950916 
L 259.206174 -167.077221 
L 256.673791 -167.301362 
L 254.141407 -167.512387 
L 251.609023 -167.632892 
L 249.07664 -167.651224 
L 246.544256 -167.614146 
L 244.011872 -167.58623 
L 241.479489 -167.602183 
L 238.947105 -167.642113 
L 236.414722 -167.645005 
L 233.882338 -167.5516 
L 231.349954 -167.349116 
L 228.817571 -167.088354 
L 226.285187 -166.860351 
L 223.752804 -166.745111 
L 221.22042 -166.763426 
L 218.688036 -166.862467 
L 216.155653 -166.945962 
L 213.623269 -166.932249 
L 211.090886 -166.805621 
L 208.558502 -166.629547 
L 206.026118 -166.51295 
L 203.493735 -166.548582 
L 200.961351 -166.757874 
L 198.428968 -167.069135 
L 195.896584 -167.329447 
L 193.3642 -167.321746 
L 190.831817 -166.747604 
L 188.299433 -165.156598 
L 185.767049 -161.853839 
L 183.234666 -155.877892 
L 180.702282 -146.170985 
L 178.169899 -132.01278 
L 175.637515 -113.636899 
L 173.105131 -92.75106 
L 170.572748 -72.57778 
L 168.040364 -57.167223 
L 165.507981 -50.112 
L 162.975597 -53.205838 
L 160.443213 -65.725453 
L 157.91083 -84.724095 
L 155.378446 -106.172538 
L 152.846063 -126.345337 
L 150.313679 -142.809086 
L 147.781295 -154.696793 
z
" id="mced978f9e5" style="stroke:#262626;stroke-opacity:0.5;stroke-width:1.5;"/>
    </defs>
    <g clip-path="url(#pb8f64de284)">
     <use style="fill:#107010;fill-opacity:0.5;stroke:#262626;stroke-opacity:0.5;stroke-width:1.5;" x="0" xlink:href="#mced978f9e5" y="345.6"/>
    </g>
   </g>
   <g id="matplotlib.axis_1">
    <g id="xtick_1">
     <g id="line2d_1">
      <defs>
       <path d="M 0 0 
L 0 3.5 
" id="maf1d0bc5d2" style="stroke:#000000;stroke-width:0.8;"/>
      </defs>
      <g>
       <use style="stroke:#000000;stroke-width:0.8;" x="66.647591" xlink:href="#maf1d0bc5d2" y="307.584"/>
      </g>
     </g>
     <g id="text_1">
      <!-- −5.0 -->
      <defs>
       <path d="M 10.59375 35.5 
L 73.1875 35.5 
L 73.1875 27.203125 
L 10.59375 27.203125 
z
" id="DejaVuSans-8722"/>
       <path d="M 10.796875 72.90625 
L 49.515625 72.90625 
L 49.515625 64.59375 
L 19.828125 64.59375 
L 19.828125 46.734375 
Q 21.96875 47.46875 24.109375 47.828125 
Q 26.265625 48.1875 28.421875 48.1875 
Q 40.625 48.1875 47.75 41.5 
Q 54.890625 34.8125 54.890625 23.390625 
Q 54.890625 11.625 47.5625 5.09375 
Q 40.234375 -1.421875 26.90625 -1.421875 
Q 22.3125 -1.421875 17.546875 -0.640625 
Q 12.796875 0.140625 7.71875 1.703125 
L 7.71875 11.625 
Q 12.109375 9.234375 16.796875 8.0625 
Q 21.484375 6.890625 26.703125 6.890625 
Q 35.15625 6.890625 40.078125 11.328125 
Q 45.015625 15.765625 45.015625 23.390625 
Q 45.015625 31 40.078125 35.4375 
Q 35.15625 39.890625 26.703125 39.890625 
Q 22.75 39.890625 18.8125 39.015625 
Q 14.890625 38.140625 10.796875 36.28125 
z
" id="DejaVuSans-53"/>
       <path d="M 10.6875 12.40625 
L 21 12.40625 
L 21 0 
L 10.6875 0 
z
" id="DejaVuSans-46"/>
       <path d="M 31.78125 66.40625 
Q 24.171875 66.40625 20.328125 58.90625 
Q 16.5 51.421875 16.5 36.375 
Q 16.5 21.390625 20.328125 13.890625 
Q 24.171875 6.390625 31.78125 6.390625 
Q 39.453125 6.390625 43.28125 13.890625 
Q 47.125 21.390625 47.125 36.375 
Q 47.125 51.421875 43.28125 58.90625 
Q 39.453125 66.40625 31.78125 66.40625 
z
M 31.78125 74.21875 
Q 44.046875 74.21875 50.515625 64.515625 
Q 56.984375 54.828125 56.984375 36.375 
Q 56.984375 17.96875 50.515625 8.265625 
Q 44.046875 -1.421875 31.78125 -1.421875 
Q 19.53125 -1.421875 13.0625 8.265625 
Q 6.59375 17.96875 6.59375 36.375 
Q 6.59375 54.828125 13.0625 64.515625 
Q 19.53125 74.21875 31.78125 74.21875 
z
" id="DejaVuSans-48"/>
      </defs>
      <g transform="translate(54.506185 322.182437)scale(0.1 -0.1)">
       <use xlink:href="#DejaVuSans-8722"/>
       <use x="83.789062" xlink:href="#DejaVuSans-53"/>
       <use x="147.412109" xlink:href="#DejaVuSans-46"/>
       <use x="179.199219" xlink:href="#DejaVuSans-48"/>
      </g>
     </g>
    </g>
    <g id="xtick_2">
     <g id="line2d_2">
      <g>
       <use style="stroke:#000000;stroke-width:0.8;" x="115.81109" xlink:href="#maf1d0bc5d2" y="307.584"/>
      </g>
     </g>
     <g id="text_2">
      <!-- −2.5 -->
      <defs>
       <path d="M 19.1875 8.296875 
L 53.609375 8.296875 
L 53.609375 0 
L 7.328125 0 
L 7.328125 8.296875 
Q 12.9375 14.109375 22.625 23.890625 
Q 32.328125 33.6875 34.8125 36.53125 
Q 39.546875 41.84375 41.421875 45.53125 
Q 43.3125 49.21875 43.3125 52.78125 
Q 43.3125 58.59375 39.234375 62.25 
Q 35.15625 65.921875 28.609375 65.921875 
Q 23.96875 65.921875 18.8125 64.3125 
Q 13.671875 62.703125 7.8125 59.421875 
L 7.8125 69.390625 
Q 13.765625 71.78125 18.9375 73 
Q 24.125 74.21875 28.421875 74.21875 
Q 39.75 74.21875 46.484375 68.546875 
Q 53.21875 62.890625 53.21875 53.421875 
Q 53.21875 48.921875 51.53125 44.890625 
Q 49.859375 40.875 45.40625 35.40625 
Q 44.1875 33.984375 37.640625 27.21875 
Q 31.109375 20.453125 19.1875 8.296875 
z
" id="DejaVuSans-50"/>
      </defs>
      <g transform="translate(103.669683 322.182437)scale(0.1 -0.1)">
       <use xlink:href="#DejaVuSans-8722"/>
       <use x="83.789062" xlink:href="#DejaVuSans-50"/>
       <use x="147.412109" xlink:href="#DejaVuSans-46"/>
       <use x="179.199219" xlink:href="#DejaVuSans-53"/>
      </g>
     </g>
    </g>
    <g id="xtick_3">
     <g id="line2d_3">
      <g>
       <use style="stroke:#000000;stroke-width:0.8;" x="164.974588" xlink:href="#maf1d0bc5d2" y="307.584"/>
      </g>
     </g>
     <g id="text_3">
      <!-- 0.0 -->
      <g transform="translate(157.023025 322.182437)scale(0.1 -0.1)">
       <use xlink:href="#DejaVuSans-48"/>
       <use x="63.623047" xlink:href="#DejaVuSans-46"/>
       <use x="95.410156" xlink:href="#DejaVuSans-48"/>
      </g>
     </g>
    </g>
    <g id="xtick_4">
     <g id="line2d_4">
      <g>
       <use style="stroke:#000000;stroke-width:0.8;" x="214.138086" xlink:href="#maf1d0bc5d2" y="307.584"/>
      </g>
     </g>
     <g id="text_4">
      <!-- 2.5 -->
      <g transform="translate(206.186524 322.182437)scale(0.1 -0.1)">
       <use xlink:href="#DejaVuSans-50"/>
       <use x="63.623047" xlink:href="#DejaVuSans-46"/>
       <use x="95.410156" xlink:href="#DejaVuSans-53"/>
      </g>
     </g>
    </g>
    <g id="xtick_5">
     <g id="line2d_5">
      <g>
       <use style="stroke:#000000;stroke-width:0.8;" x="263.301584" xlink:href="#maf1d0bc5d2" y="307.584"/>
      </g>
     </g>
     <g id="text_5">
      <!-- 5.0 -->
      <g transform="translate(255.350022 322.182437)scale(0.1 -0.1)">
       <use xlink:href="#DejaVuSans-53"/>
       <use x="63.623047" xlink:href="#DejaVuSans-46"/>
       <use x="95.410156" xlink:href="#DejaVuSans-48"/>
      </g>
     </g>
    </g>
    <g id="xtick_6">
     <g id="line2d_6">
      <g>
       <use style="stroke:#000000;stroke-width:0.8;" x="312.465083" xlink:href="#maf1d0bc5d2" y="307.584"/>
      </g>
     </g>
     <g id="text_6">
      <!-- 7.5 -->
      <defs>
       <path d="M 8.203125 72.90625 
L 55.078125 72.90625 
L 55.078125 68.703125 
L 28.609375 0 
L 18.3125 0 
L 43.21875 64.59375 
L 8.203125 64.59375 
z
" id="DejaVuSans-55"/>
      </defs>
      <g transform="translate(304.51352 322.182437)scale(0.1 -0.1)">
       <use xlink:href="#DejaVuSans-55"/>
       <use x="63.623047" xlink:href="#DejaVuSans-46"/>
       <use x="95.410156" xlink:href="#DejaVuSans-53"/>
      </g>
     </g>
    </g>
    <g id="xtick_7">
     <g id="line2d_7">
      <g>
       <use style="stroke:#000000;stroke-width:0.8;" x="361.628581" xlink:href="#maf1d0bc5d2" y="307.584"/>
      </g>
     </g>
     <g id="text_7">
      <!-- 10.0 -->
      <defs>
       <path d="M 12.40625 8.296875 
L 28.515625 8.296875 
L 28.515625 63.921875 
L 10.984375 60.40625 
L 10.984375 69.390625 
L 28.421875 72.90625 
L 38.28125 72.90625 
L 38.28125 8.296875 
L 54.390625 8.296875 
L 54.390625 0 
L 12.40625 0 
z
" id="DejaVuSans-49"/>
      </defs>
      <g transform="translate(350.495768 322.182437)scale(0.1 -0.1)">
       <use xlink:href="#DejaVuSans-49"/>
       <use x="63.623047" xlink:href="#DejaVuSans-48"/>
       <use x="127.246094" xlink:href="#DejaVuSans-46"/>
       <use x="159.033203" xlink:href="#DejaVuSans-48"/>
      </g>
     </g>
    </g>
    <g id="xtick_8">
     <g id="line2d_8">
      <g>
       <use style="stroke:#000000;stroke-width:0.8;" x="410.792079" xlink:href="#maf1d0bc5d2" y="307.584"/>
      </g>
     </g>
     <g id="text_8">
      <!-- 12.5 -->
      <g transform="translate(399.659267 322.182437)scale(0.1 -0.1)">
       <use xlink:href="#DejaVuSans-49"/>
       <use x="63.623047" xlink:href="#DejaVuSans-50"/>
       <use x="127.246094" xlink:href="#DejaVuSans-46"/>
       <use x="159.033203" xlink:href="#DejaVuSans-53"/>
      </g>
     </g>
    </g>
    <g id="text_9">
     <!-- chloroquine_days -->
     <defs>
      <path d="M 48.78125 52.59375 
L 48.78125 44.1875 
Q 44.96875 46.296875 41.140625 47.34375 
Q 37.3125 48.390625 33.40625 48.390625 
Q 24.65625 48.390625 19.8125 42.84375 
Q 14.984375 37.3125 14.984375 27.296875 
Q 14.984375 17.28125 19.8125 11.734375 
Q 24.65625 6.203125 33.40625 6.203125 
Q 37.3125 6.203125 41.140625 7.25 
Q 44.96875 8.296875 48.78125 10.40625 
L 48.78125 2.09375 
Q 45.015625 0.34375 40.984375 -0.53125 
Q 36.96875 -1.421875 32.421875 -1.421875 
Q 20.0625 -1.421875 12.78125 6.34375 
Q 5.515625 14.109375 5.515625 27.296875 
Q 5.515625 40.671875 12.859375 48.328125 
Q 20.21875 56 33.015625 56 
Q 37.15625 56 41.109375 55.140625 
Q 45.0625 54.296875 48.78125 52.59375 
z
" id="DejaVuSans-99"/>
      <path d="M 54.890625 33.015625 
L 54.890625 0 
L 45.90625 0 
L 45.90625 32.71875 
Q 45.90625 40.484375 42.875 44.328125 
Q 39.84375 48.1875 33.796875 48.1875 
Q 26.515625 48.1875 22.3125 43.546875 
Q 18.109375 38.921875 18.109375 30.90625 
L 18.109375 0 
L 9.078125 0 
L 9.078125 75.984375 
L 18.109375 75.984375 
L 18.109375 46.1875 
Q 21.34375 51.125 25.703125 53.5625 
Q 30.078125 56 35.796875 56 
Q 45.21875 56 50.046875 50.171875 
Q 54.890625 44.34375 54.890625 33.015625 
z
" id="DejaVuSans-104"/>
      <path d="M 9.421875 75.984375 
L 18.40625 75.984375 
L 18.40625 0 
L 9.421875 0 
z
" id="DejaVuSans-108"/>
      <path d="M 30.609375 48.390625 
Q 23.390625 48.390625 19.1875 42.75 
Q 14.984375 37.109375 14.984375 27.296875 
Q 14.984375 17.484375 19.15625 11.84375 
Q 23.34375 6.203125 30.609375 6.203125 
Q 37.796875 6.203125 41.984375 11.859375 
Q 46.1875 17.53125 46.1875 27.296875 
Q 46.1875 37.015625 41.984375 42.703125 
Q 37.796875 48.390625 30.609375 48.390625 
z
M 30.609375 56 
Q 42.328125 56 49.015625 48.375 
Q 55.71875 40.765625 55.71875 27.296875 
Q 55.71875 13.875 49.015625 6.21875 
Q 42.328125 -1.421875 30.609375 -1.421875 
Q 18.84375 -1.421875 12.171875 6.21875 
Q 5.515625 13.875 5.515625 27.296875 
Q 5.515625 40.765625 12.171875 48.375 
Q 18.84375 56 30.609375 56 
z
" id="DejaVuSans-111"/>
      <path d="M 41.109375 46.296875 
Q 39.59375 47.171875 37.8125 47.578125 
Q 36.03125 48 33.890625 48 
Q 26.265625 48 22.1875 43.046875 
Q 18.109375 38.09375 18.109375 28.8125 
L 18.109375 0 
L 9.078125 0 
L 9.078125 54.6875 
L 18.109375 54.6875 
L 18.109375 46.1875 
Q 20.953125 51.171875 25.484375 53.578125 
Q 30.03125 56 36.53125 56 
Q 37.453125 56 38.578125 55.875 
Q 39.703125 55.765625 41.0625 55.515625 
z
" id="DejaVuSans-114"/>
      <path d="M 14.796875 27.296875 
Q 14.796875 17.390625 18.875 11.75 
Q 22.953125 6.109375 30.078125 6.109375 
Q 37.203125 6.109375 41.296875 11.75 
Q 45.40625 17.390625 45.40625 27.296875 
Q 45.40625 37.203125 41.296875 42.84375 
Q 37.203125 48.484375 30.078125 48.484375 
Q 22.953125 48.484375 18.875 42.84375 
Q 14.796875 37.203125 14.796875 27.296875 
z
M 45.40625 8.203125 
Q 42.578125 3.328125 38.25 0.953125 
Q 33.9375 -1.421875 27.875 -1.421875 
Q 17.96875 -1.421875 11.734375 6.484375 
Q 5.515625 14.40625 5.515625 27.296875 
Q 5.515625 40.1875 11.734375 48.09375 
Q 17.96875 56 27.875 56 
Q 33.9375 56 38.25 53.625 
Q 42.578125 51.265625 45.40625 46.390625 
L 45.40625 54.6875 
L 54.390625 54.6875 
L 54.390625 -20.796875 
L 45.40625 -20.796875 
z
" id="DejaVuSans-113"/>
      <path d="M 8.5 21.578125 
L 8.5 54.6875 
L 17.484375 54.6875 
L 17.484375 21.921875 
Q 17.484375 14.15625 20.5 10.265625 
Q 23.53125 6.390625 29.59375 6.390625 
Q 36.859375 6.390625 41.078125 11.03125 
Q 45.3125 15.671875 45.3125 23.6875 
L 45.3125 54.6875 
L 54.296875 54.6875 
L 54.296875 0 
L 45.3125 0 
L 45.3125 8.40625 
Q 42.046875 3.421875 37.71875 1 
Q 33.40625 -1.421875 27.6875 -1.421875 
Q 18.265625 -1.421875 13.375 4.4375 
Q 8.5 10.296875 8.5 21.578125 
z
M 31.109375 56 
z
" id="DejaVuSans-117"/>
      <path d="M 9.421875 54.6875 
L 18.40625 54.6875 
L 18.40625 0 
L 9.421875 0 
z
M 9.421875 75.984375 
L 18.40625 75.984375 
L 18.40625 64.59375 
L 9.421875 64.59375 
z
" id="DejaVuSans-105"/>
      <path d="M 54.890625 33.015625 
L 54.890625 0 
L 45.90625 0 
L 45.90625 32.71875 
Q 45.90625 40.484375 42.875 44.328125 
Q 39.84375 48.1875 33.796875 48.1875 
Q 26.515625 48.1875 22.3125 43.546875 
Q 18.109375 38.921875 18.109375 30.90625 
L 18.109375 0 
L 9.078125 0 
L 9.078125 54.6875 
L 18.109375 54.6875 
L 18.109375 46.1875 
Q 21.34375 51.125 25.703125 53.5625 
Q 30.078125 56 35.796875 56 
Q 45.21875 56 50.046875 50.171875 
Q 54.890625 44.34375 54.890625 33.015625 
z
" id="DejaVuSans-110"/>
      <path d="M 56.203125 29.59375 
L 56.203125 25.203125 
L 14.890625 25.203125 
Q 15.484375 15.921875 20.484375 11.0625 
Q 25.484375 6.203125 34.421875 6.203125 
Q 39.59375 6.203125 44.453125 7.46875 
Q 49.3125 8.734375 54.109375 11.28125 
L 54.109375 2.78125 
Q 49.265625 0.734375 44.1875 -0.34375 
Q 39.109375 -1.421875 33.890625 -1.421875 
Q 20.796875 -1.421875 13.15625 6.1875 
Q 5.515625 13.8125 5.515625 26.8125 
Q 5.515625 40.234375 12.765625 48.109375 
Q 20.015625 56 32.328125 56 
Q 43.359375 56 49.78125 48.890625 
Q 56.203125 41.796875 56.203125 29.59375 
z
M 47.21875 32.234375 
Q 47.125 39.59375 43.09375 43.984375 
Q 39.0625 48.390625 32.421875 48.390625 
Q 24.90625 48.390625 20.390625 44.140625 
Q 15.875 39.890625 15.1875 32.171875 
z
" id="DejaVuSans-101"/>
      <path d="M 50.984375 -16.609375 
L 50.984375 -23.578125 
L -0.984375 -23.578125 
L -0.984375 -16.609375 
z
" id="DejaVuSans-95"/>
      <path d="M 45.40625 46.390625 
L 45.40625 75.984375 
L 54.390625 75.984375 
L 54.390625 0 
L 45.40625 0 
L 45.40625 8.203125 
Q 42.578125 3.328125 38.25 0.953125 
Q 33.9375 -1.421875 27.875 -1.421875 
Q 17.96875 -1.421875 11.734375 6.484375 
Q 5.515625 14.40625 5.515625 27.296875 
Q 5.515625 40.1875 11.734375 48.09375 
Q 17.96875 56 27.875 56 
Q 33.9375 56 38.25 53.625 
Q 42.578125 51.265625 45.40625 46.390625 
z
M 14.796875 27.296875 
Q 14.796875 17.390625 18.875 11.75 
Q 22.953125 6.109375 30.078125 6.109375 
Q 37.203125 6.109375 41.296875 11.75 
Q 45.40625 17.390625 45.40625 27.296875 
Q 45.40625 37.203125 41.296875 42.84375 
Q 37.203125 48.484375 30.078125 48.484375 
Q 22.953125 48.484375 18.875 42.84375 
Q 14.796875 37.203125 14.796875 27.296875 
z
" id="DejaVuSans-100"/>
      <path d="M 34.28125 27.484375 
Q 23.390625 27.484375 19.1875 25 
Q 14.984375 22.515625 14.984375 16.5 
Q 14.984375 11.71875 18.140625 8.90625 
Q 21.296875 6.109375 26.703125 6.109375 
Q 34.1875 6.109375 38.703125 11.40625 
Q 43.21875 16.703125 43.21875 25.484375 
L 43.21875 27.484375 
z
M 52.203125 31.203125 
L 52.203125 0 
L 43.21875 0 
L 43.21875 8.296875 
Q 40.140625 3.328125 35.546875 0.953125 
Q 30.953125 -1.421875 24.3125 -1.421875 
Q 15.921875 -1.421875 10.953125 3.296875 
Q 6 8.015625 6 15.921875 
Q 6 25.140625 12.171875 29.828125 
Q 18.359375 34.515625 30.609375 34.515625 
L 43.21875 34.515625 
L 43.21875 35.40625 
Q 43.21875 41.609375 39.140625 45 
Q 35.0625 48.390625 27.6875 48.390625 
Q 23 48.390625 18.546875 47.265625 
Q 14.109375 46.140625 10.015625 43.890625 
L 10.015625 52.203125 
Q 14.9375 54.109375 19.578125 55.046875 
Q 24.21875 56 28.609375 56 
Q 40.484375 56 46.34375 49.84375 
Q 52.203125 43.703125 52.203125 31.203125 
z
" id="DejaVuSans-97"/>
      <path d="M 32.171875 -5.078125 
Q 28.375 -14.84375 24.75 -17.8125 
Q 21.140625 -20.796875 15.09375 -20.796875 
L 7.90625 -20.796875 
L 7.90625 -13.28125 
L 13.1875 -13.28125 
Q 16.890625 -13.28125 18.9375 -11.515625 
Q 21 -9.765625 23.484375 -3.21875 
L 25.09375 0.875 
L 2.984375 54.6875 
L 12.5 54.6875 
L 29.59375 11.921875 
L 46.6875 54.6875 
L 56.203125 54.6875 
z
" id="DejaVuSans-121"/>
      <path d="M 44.28125 53.078125 
L 44.28125 44.578125 
Q 40.484375 46.53125 36.375 47.5 
Q 32.28125 48.484375 27.875 48.484375 
Q 21.1875 48.484375 17.84375 46.4375 
Q 14.5 44.390625 14.5 40.28125 
Q 14.5 37.15625 16.890625 35.375 
Q 19.28125 33.59375 26.515625 31.984375 
L 29.59375 31.296875 
Q 39.15625 29.25 43.1875 25.515625 
Q 47.21875 21.78125 47.21875 15.09375 
Q 47.21875 7.46875 41.1875 3.015625 
Q 35.15625 -1.421875 24.609375 -1.421875 
Q 20.21875 -1.421875 15.453125 -0.5625 
Q 10.6875 0.296875 5.421875 2 
L 5.421875 11.28125 
Q 10.40625 8.6875 15.234375 7.390625 
Q 20.0625 6.109375 24.8125 6.109375 
Q 31.15625 6.109375 34.5625 8.28125 
Q 37.984375 10.453125 37.984375 14.40625 
Q 37.984375 18.0625 35.515625 20.015625 
Q 33.0625 21.96875 24.703125 23.78125 
L 21.578125 24.515625 
Q 13.234375 26.265625 9.515625 29.90625 
Q 5.8125 33.546875 5.8125 39.890625 
Q 5.8125 47.609375 11.28125 51.796875 
Q 16.75 56 26.8125 56 
Q 31.78125 56 36.171875 55.265625 
Q 40.578125 54.546875 44.28125 53.078125 
z
" id="DejaVuSans-115"/>
     </defs>
     <g transform="translate(192.511562 335.860562)scale(0.1 -0.1)">
      <use xlink:href="#DejaVuSans-99"/>
      <use x="54.980469" xlink:href="#DejaVuSans-104"/>
      <use x="118.359375" xlink:href="#DejaVuSans-108"/>
      <use x="146.142578" xlink:href="#DejaVuSans-111"/>
      <use x="207.324219" xlink:href="#DejaVuSans-114"/>
      <use x="246.1875" xlink:href="#DejaVuSans-111"/>
      <use x="307.369141" xlink:href="#DejaVuSans-113"/>
      <use x="370.845703" xlink:href="#DejaVuSans-117"/>
      <use x="434.224609" xlink:href="#DejaVuSans-105"/>
      <use x="462.007812" xlink:href="#DejaVuSans-110"/>
      <use x="525.386719" xlink:href="#DejaVuSans-101"/>
      <use x="586.910156" xlink:href="#DejaVuSans-95"/>
      <use x="636.910156" xlink:href="#DejaVuSans-100"/>
      <use x="700.386719" xlink:href="#DejaVuSans-97"/>
      <use x="761.666016" xlink:href="#DejaVuSans-121"/>
      <use x="820.845703" xlink:href="#DejaVuSans-115"/>
     </g>
    </g>
   </g>
   <g id="matplotlib.axis_2">
    <g id="ytick_1">
     <g id="line2d_9">
      <defs>
       <path d="M 0 0 
L -3.5 0 
" id="mf197c0e8b2" style="stroke:#000000;stroke-width:0.8;"/>
      </defs>
      <g>
       <use style="stroke:#000000;stroke-width:0.8;" x="57.6" xlink:href="#mf197c0e8b2" y="174.528"/>
      </g>
     </g>
    </g>
   </g>
   <g id="line2d_10">
    <path clip-path="url(#pb8f64de284)" d="M 164.974588 174.528 
L 263.301584 174.528 
" style="fill:none;stroke:#ffa500;stroke-linecap:square;stroke-width:1.5;"/>
   </g>
   <g id="line2d_11">
    <path clip-path="url(#pb8f64de284)" d="M 164.974588 174.528 
L 214.138086 174.528 
" style="fill:none;stroke:#4c4c4c;stroke-linecap:square;stroke-width:4.5;"/>
   </g>
   <g id="line2d_12">
    <path clip-path="url(#pb8f64de284)" d="M 164.974588 174.528 
L 164.974588 174.528 
" style="fill:none;stroke:#008000;stroke-linecap:square;stroke-width:1.5;"/>
   </g>
   <g id="line2d_13">
    <path clip-path="url(#pb8f64de284)" d="M 164.974588 174.528 
L 164.974588 174.528 
" style="fill:none;stroke:#262626;stroke-linecap:square;stroke-width:4.5;"/>
   </g>
   <g id="patch_3">
    <path d="M 57.6 307.584 
L 57.6 41.472 
" style="fill:none;stroke:#000000;stroke-linecap:square;stroke-linejoin:miter;stroke-width:0.8;"/>
   </g>
   <g id="patch_4">
    <path d="M 414.72 307.584 
L 414.72 41.472 
" style="fill:none;stroke:#000000;stroke-linecap:square;stroke-linejoin:miter;stroke-width:0.8;"/>
   </g>
   <g id="patch_5">
    <path d="M 57.6 307.584 
L 414.72 307.584 
" style="fill:none;stroke:#000000;stroke-linecap:square;stroke-linejoin:miter;stroke-width:0.8;"/>
   </g>
   <g id="patch_6">
    <path d="M 57.6 41.472 
L 414.72 41.472 
" style="fill:none;stroke:#000000;stroke-linecap:square;stroke-linejoin:miter;stroke-width:0.8;"/>
   </g>
   <g id="PathCollection_1">
    <defs>
     <path d="M 0 1.5 
C 0.397805 1.5 0.77937 1.341951 1.06066 1.06066 
C 1.341951 0.77937 1.5 0.397805 1.5 0 
C 1.5 -0.397805 1.341951 -0.77937 1.06066 -1.06066 
C 0.77937 -1.341951 0.397805 -1.5 0 -1.5 
C -0.397805 -1.5 -0.77937 -1.341951 -1.06066 -1.06066 
C -1.341951 -0.77937 -1.5 -0.397805 -1.5 0 
C -1.5 0.397805 -1.341951 0.77937 -1.06066 1.06066 
C -0.77937 1.341951 -0.397805 1.5 0 1.5 
z
" id="m08e3c55ffd" style="stroke:#4c4c4c;stroke-opacity:0.5;"/>
    </defs>
    <g clip-path="url(#pb8f64de284)">
     <use style="fill:#ffffff;fill-opacity:0.5;stroke:#4c4c4c;stroke-opacity:0.5;" x="164.974588" xlink:href="#m08e3c55ffd" y="174.528"/>
    </g>
   </g>
   <g id="PathCollection_2">
    <defs>
     <path d="M 0 1.5 
C 0.397805 1.5 0.77937 1.341951 1.06066 1.06066 
C 1.341951 0.77937 1.5 0.397805 1.5 0 
C 1.5 -0.397805 1.341951 -0.77937 1.06066 -1.06066 
C 0.77937 -1.341951 0.397805 -1.5 0 -1.5 
C -0.397805 -1.5 -0.77937 -1.341951 -1.06066 -1.06066 
C -1.341951 -0.77937 -1.5 -0.397805 -1.5 0 
C -1.5 0.397805 -1.341951 0.77937 -1.06066 1.06066 
C -0.77937 1.341951 -0.397805 1.5 0 1.5 
z
" id="mcf50eca526" style="stroke:#262626;stroke-opacity:0.5;"/>
    </defs>
    <g clip-path="url(#pb8f64de284)">
     <use style="fill:#ffffff;fill-opacity:0.5;stroke:#262626;stroke-opacity:0.5;" x="164.974588" xlink:href="#mcf50eca526" y="174.528"/>
    </g>
   </g>
   <g id="text_10">
    <!-- Association of chloroquine_days vs. ecmo -->
    <defs>
     <path d="M 34.1875 63.1875 
L 20.796875 26.90625 
L 47.609375 26.90625 
z
M 28.609375 72.90625 
L 39.796875 72.90625 
L 67.578125 0 
L 57.328125 0 
L 50.6875 18.703125 
L 17.828125 18.703125 
L 11.1875 0 
L 0.78125 0 
z
" id="DejaVuSans-65"/>
     <path d="M 18.3125 70.21875 
L 18.3125 54.6875 
L 36.8125 54.6875 
L 36.8125 47.703125 
L 18.3125 47.703125 
L 18.3125 18.015625 
Q 18.3125 11.328125 20.140625 9.421875 
Q 21.96875 7.515625 27.59375 7.515625 
L 36.8125 7.515625 
L 36.8125 0 
L 27.59375 0 
Q 17.1875 0 13.234375 3.875 
Q 9.28125 7.765625 9.28125 18.015625 
L 9.28125 47.703125 
L 2.6875 47.703125 
L 2.6875 54.6875 
L 9.28125 54.6875 
L 9.28125 70.21875 
z
" id="DejaVuSans-116"/>
     <path id="DejaVuSans-32"/>
     <path d="M 37.109375 75.984375 
L 37.109375 68.5 
L 28.515625 68.5 
Q 23.6875 68.5 21.796875 66.546875 
Q 19.921875 64.59375 19.921875 59.515625 
L 19.921875 54.6875 
L 34.71875 54.6875 
L 34.71875 47.703125 
L 19.921875 47.703125 
L 19.921875 0 
L 10.890625 0 
L 10.890625 47.703125 
L 2.296875 47.703125 
L 2.296875 54.6875 
L 10.890625 54.6875 
L 10.890625 58.5 
Q 10.890625 67.625 15.140625 71.796875 
Q 19.390625 75.984375 28.609375 75.984375 
z
" id="DejaVuSans-102"/>
     <path d="M 2.984375 54.6875 
L 12.5 54.6875 
L 29.59375 8.796875 
L 46.6875 54.6875 
L 56.203125 54.6875 
L 35.6875 0 
L 23.484375 0 
z
" id="DejaVuSans-118"/>
     <path d="M 52 44.1875 
Q 55.375 50.25 60.0625 53.125 
Q 64.75 56 71.09375 56 
Q 79.640625 56 84.28125 50.015625 
Q 88.921875 44.046875 88.921875 33.015625 
L 88.921875 0 
L 79.890625 0 
L 79.890625 32.71875 
Q 79.890625 40.578125 77.09375 44.375 
Q 74.3125 48.1875 68.609375 48.1875 
Q 61.625 48.1875 57.5625 43.546875 
Q 53.515625 38.921875 53.515625 30.90625 
L 53.515625 0 
L 44.484375 0 
L 44.484375 32.71875 
Q 44.484375 40.625 41.703125 44.40625 
Q 38.921875 48.1875 33.109375 48.1875 
Q 26.21875 48.1875 22.15625 43.53125 
Q 18.109375 38.875 18.109375 30.90625 
L 18.109375 0 
L 9.078125 0 
L 9.078125 54.6875 
L 18.109375 54.6875 
L 18.109375 46.1875 
Q 21.1875 51.21875 25.484375 53.609375 
Q 29.78125 56 35.6875 56 
Q 41.65625 56 45.828125 52.96875 
Q 50 49.953125 52 44.1875 
z
" id="DejaVuSans-109"/>
    </defs>
    <g transform="translate(111.118125 35.472)scale(0.12 -0.12)">
     <use xlink:href="#DejaVuSans-65"/>
     <use x="68.408203" xlink:href="#DejaVuSans-115"/>
     <use x="120.507812" xlink:href="#DejaVuSans-115"/>
     <use x="172.607422" xlink:href="#DejaVuSans-111"/>
     <use x="233.789062" xlink:href="#DejaVuSans-99"/>
     <use x="288.769531" xlink:href="#DejaVuSans-105"/>
     <use x="316.552734" xlink:href="#DejaVuSans-97"/>
     <use x="377.832031" xlink:href="#DejaVuSans-116"/>
     <use x="417.041016" xlink:href="#DejaVuSans-105"/>
     <use x="444.824219" xlink:href="#DejaVuSans-111"/>
     <use x="506.005859" xlink:href="#DejaVuSans-110"/>
     <use x="569.384766" xlink:href="#DejaVuSans-32"/>
     <use x="601.171875" xlink:href="#DejaVuSans-111"/>
     <use x="662.353516" xlink:href="#DejaVuSans-102"/>
     <use x="697.558594" xlink:href="#DejaVuSans-32"/>
     <use x="729.345703" xlink:href="#DejaVuSans-99"/>
     <use x="784.326172" xlink:href="#DejaVuSans-104"/>
     <use x="847.705078" xlink:href="#DejaVuSans-108"/>
     <use x="875.488281" xlink:href="#DejaVuSans-111"/>
     <use x="936.669922" xlink:href="#DejaVuSans-114"/>
     <use x="975.533203" xlink:href="#DejaVuSans-111"/>
     <use x="1036.714844" xlink:href="#DejaVuSans-113"/>
     <use x="1100.191406" xlink:href="#DejaVuSans-117"/>
     <use x="1163.570312" xlink:href="#DejaVuSans-105"/>
     <use x="1191.353516" xlink:href="#DejaVuSans-110"/>
     <use x="1254.732422" xlink:href="#DejaVuSans-101"/>
     <use x="1316.255859" xlink:href="#DejaVuSans-95"/>
     <use x="1366.255859" xlink:href="#DejaVuSans-100"/>
     <use x="1429.732422" xlink:href="#DejaVuSans-97"/>
     <use x="1491.011719" xlink:href="#DejaVuSans-121"/>
     <use x="1550.191406" xlink:href="#DejaVuSans-115"/>
     <use x="1602.291016" xlink:href="#DejaVuSans-32"/>
     <use x="1634.078125" xlink:href="#DejaVuSans-118"/>
     <use x="1693.257812" xlink:href="#DejaVuSans-115"/>
     <use x="1745.357422" xlink:href="#DejaVuSans-46"/>
     <use x="1777.144531" xlink:href="#DejaVuSans-32"/>
     <use x="1808.931641" xlink:href="#DejaVuSans-101"/>
     <use x="1870.455078" xlink:href="#DejaVuSans-99"/>
     <use x="1925.435547" xlink:href="#DejaVuSans-109"/>
     <use x="2022.847656" xlink:href="#DejaVuSans-111"/>
    </g>
   </g>
   <g id="legend_1">
    <g id="patch_7">
     <path d="M 297.441875 78.82825 
L 407.72 78.82825 
Q 409.72 78.82825 409.72 76.82825 
L 409.72 48.472 
Q 409.72 46.472 407.72 46.472 
L 297.441875 46.472 
Q 295.441875 46.472 295.441875 48.472 
L 295.441875 76.82825 
Q 295.441875 78.82825 297.441875 78.82825 
z
" style="fill:#ffffff;opacity:0.8;stroke:#cccccc;stroke-linejoin:miter;"/>
    </g>
    <g id="line2d_14">
     <path d="M 299.441875 54.570437 
L 319.441875 54.570437 
" style="fill:none;stroke:#ffa500;stroke-linecap:square;stroke-width:1.5;"/>
    </g>
    <g id="line2d_15"/>
    <g id="text_11">
     <!-- ecmo (3) -->
     <defs>
      <path d="M 31 75.875 
Q 24.46875 64.65625 21.28125 53.65625 
Q 18.109375 42.671875 18.109375 31.390625 
Q 18.109375 20.125 21.3125 9.0625 
Q 24.515625 -2 31 -13.1875 
L 23.1875 -13.1875 
Q 15.875 -1.703125 12.234375 9.375 
Q 8.59375 20.453125 8.59375 31.390625 
Q 8.59375 42.28125 12.203125 53.3125 
Q 15.828125 64.359375 23.1875 75.875 
z
" id="DejaVuSans-40"/>
      <path d="M 40.578125 39.3125 
Q 47.65625 37.796875 51.625 33 
Q 55.609375 28.21875 55.609375 21.1875 
Q 55.609375 10.40625 48.1875 4.484375 
Q 40.765625 -1.421875 27.09375 -1.421875 
Q 22.515625 -1.421875 17.65625 -0.515625 
Q 12.796875 0.390625 7.625 2.203125 
L 7.625 11.71875 
Q 11.71875 9.328125 16.59375 8.109375 
Q 21.484375 6.890625 26.8125 6.890625 
Q 36.078125 6.890625 40.9375 10.546875 
Q 45.796875 14.203125 45.796875 21.1875 
Q 45.796875 27.640625 41.28125 31.265625 
Q 36.765625 34.90625 28.71875 34.90625 
L 20.21875 34.90625 
L 20.21875 43.015625 
L 29.109375 43.015625 
Q 36.375 43.015625 40.234375 45.921875 
Q 44.09375 48.828125 44.09375 54.296875 
Q 44.09375 59.90625 40.109375 62.90625 
Q 36.140625 65.921875 28.71875 65.921875 
Q 24.65625 65.921875 20.015625 65.03125 
Q 15.375 64.15625 9.8125 62.3125 
L 9.8125 71.09375 
Q 15.4375 72.65625 20.34375 73.4375 
Q 25.25 74.21875 29.59375 74.21875 
Q 40.828125 74.21875 47.359375 69.109375 
Q 53.90625 64.015625 53.90625 55.328125 
Q 53.90625 49.265625 50.4375 45.09375 
Q 46.96875 40.921875 40.578125 39.3125 
z
" id="DejaVuSans-51"/>
      <path d="M 8.015625 75.875 
L 15.828125 75.875 
Q 23.140625 64.359375 26.78125 53.3125 
Q 30.421875 42.28125 30.421875 31.390625 
Q 30.421875 20.453125 26.78125 9.375 
Q 23.140625 -1.703125 15.828125 -13.1875 
L 8.015625 -13.1875 
Q 14.5 -2 17.703125 9.0625 
Q 20.90625 20.125 20.90625 31.390625 
Q 20.90625 42.671875 17.703125 53.65625 
Q 14.5 64.65625 8.015625 75.875 
z
" id="DejaVuSans-41"/>
     </defs>
     <g transform="translate(327.441875 58.070437)scale(0.1 -0.1)">
      <use xlink:href="#DejaVuSans-101"/>
      <use x="61.523438" xlink:href="#DejaVuSans-99"/>
      <use x="116.503906" xlink:href="#DejaVuSans-109"/>
      <use x="213.916016" xlink:href="#DejaVuSans-111"/>
      <use x="275.097656" xlink:href="#DejaVuSans-32"/>
      <use x="306.884766" xlink:href="#DejaVuSans-40"/>
      <use x="345.898438" xlink:href="#DejaVuSans-51"/>
      <use x="409.521484" xlink:href="#DejaVuSans-41"/>
     </g>
    </g>
    <g id="line2d_16">
     <path d="M 299.441875 69.248562 
L 319.441875 69.248562 
" style="fill:none;stroke:#008000;stroke-linecap:square;stroke-width:1.5;"/>
    </g>
    <g id="line2d_17"/>
    <g id="text_12">
     <!-- Not ecmo (482) -->
     <defs>
      <path d="M 9.8125 72.90625 
L 23.09375 72.90625 
L 55.421875 11.921875 
L 55.421875 72.90625 
L 64.984375 72.90625 
L 64.984375 0 
L 51.703125 0 
L 19.390625 60.984375 
L 19.390625 0 
L 9.8125 0 
z
" id="DejaVuSans-78"/>
      <path d="M 37.796875 64.3125 
L 12.890625 25.390625 
L 37.796875 25.390625 
z
M 35.203125 72.90625 
L 47.609375 72.90625 
L 47.609375 25.390625 
L 58.015625 25.390625 
L 58.015625 17.1875 
L 47.609375 17.1875 
L 47.609375 0 
L 37.796875 0 
L 37.796875 17.1875 
L 4.890625 17.1875 
L 4.890625 26.703125 
z
" id="DejaVuSans-52"/>
      <path d="M 31.78125 34.625 
Q 24.75 34.625 20.71875 30.859375 
Q 16.703125 27.09375 16.703125 20.515625 
Q 16.703125 13.921875 20.71875 10.15625 
Q 24.75 6.390625 31.78125 6.390625 
Q 38.8125 6.390625 42.859375 10.171875 
Q 46.921875 13.96875 46.921875 20.515625 
Q 46.921875 27.09375 42.890625 30.859375 
Q 38.875 34.625 31.78125 34.625 
z
M 21.921875 38.8125 
Q 15.578125 40.375 12.03125 44.71875 
Q 8.5 49.078125 8.5 55.328125 
Q 8.5 64.0625 14.71875 69.140625 
Q 20.953125 74.21875 31.78125 74.21875 
Q 42.671875 74.21875 48.875 69.140625 
Q 55.078125 64.0625 55.078125 55.328125 
Q 55.078125 49.078125 51.53125 44.71875 
Q 48 40.375 41.703125 38.8125 
Q 48.828125 37.15625 52.796875 32.3125 
Q 56.78125 27.484375 56.78125 20.515625 
Q 56.78125 9.90625 50.3125 4.234375 
Q 43.84375 -1.421875 31.78125 -1.421875 
Q 19.734375 -1.421875 13.25 4.234375 
Q 6.78125 9.90625 6.78125 20.515625 
Q 6.78125 27.484375 10.78125 32.3125 
Q 14.796875 37.15625 21.921875 38.8125 
z
M 18.3125 54.390625 
Q 18.3125 48.734375 21.84375 45.5625 
Q 25.390625 42.390625 31.78125 42.390625 
Q 38.140625 42.390625 41.71875 45.5625 
Q 45.3125 48.734375 45.3125 54.390625 
Q 45.3125 60.0625 41.71875 63.234375 
Q 38.140625 66.40625 31.78125 66.40625 
Q 25.390625 66.40625 21.84375 63.234375 
Q 18.3125 60.0625 18.3125 54.390625 
z
" id="DejaVuSans-56"/>
     </defs>
     <g transform="translate(327.441875 72.748562)scale(0.1 -0.1)">
      <use xlink:href="#DejaVuSans-78"/>
      <use x="74.804688" xlink:href="#DejaVuSans-111"/>
      <use x="135.986328" xlink:href="#DejaVuSans-116"/>
      <use x="175.195312" xlink:href="#DejaVuSans-32"/>
      <use x="206.982422" xlink:href="#DejaVuSans-101"/>
      <use x="268.505859" xlink:href="#DejaVuSans-99"/>
      <use x="323.486328" xlink:href="#DejaVuSans-109"/>
      <use x="420.898438" xlink:href="#DejaVuSans-111"/>
      <use x="482.080078" xlink:href="#DejaVuSans-32"/>
      <use x="513.867188" xlink:href="#DejaVuSans-40"/>
      <use x="552.880859" xlink:href="#DejaVuSans-52"/>
      <use x="616.503906" xlink:href="#DejaVuSans-56"/>
      <use x="680.126953" xlink:href="#DejaVuSans-50"/>
      <use x="743.75" xlink:href="#DejaVuSans-41"/>
     </g>
    </g>
   </g>
  </g>
 </g>
 <defs>
  <clipPath id="pb8f64de284">
   <rect height="266.112" width="357.12" x="57.6" y="41.472"/>
  </clipPath>
 </defs>
</svg>
