<?xml version="1.0" encoding="utf-8" standalone="no"?>
<!DOCTYPE svg PUBLIC "-//W3C//DTD SVG 1.1//EN"
  "http://www.w3.org/Graphics/SVG/1.1/DTD/svg11.dtd">
<!-- Created with matplotlib (https://matplotlib.org/) -->
<svg height="345.6pt" version="1.1" viewBox="0 0 460.8 345.6" width="460.8pt" xmlns="http://www.w3.org/2000/svg" xmlns:xlink="http://www.w3.org/1999/xlink">
 <defs>
  <style type="text/css">
*{stroke-linecap:butt;stroke-linejoin:round;}
  </style>
 </defs>
 <g id="figure_1">
  <g id="patch_1">
   <path d="M 0 345.6 
L 460.8 345.6 
L 460.8 0 
L 0 0 
z
" style="fill:#ffffff;"/>
  </g>
  <g id="axes_1">
   <g id="patch_2">
    <path d="M 57.6 307.584 
L 414.72 307.584 
L 414.72 41.472 
L 57.6 41.472 
z
" style="fill:#ffffff;"/>
   </g>
   <g id="PolyCollection_1">
    <defs>
     <path d="M 73.832727 -160.015696 
L 73.832727 -182.128304 
L 76.273197 -183.708896 
L 78.713666 -185.458658 
L 81.154135 -187.386354 
L 83.594605 -189.499724 
L 86.035074 -191.805227 
L 88.475544 -194.307772 
L 90.916013 -197.010454 
L 93.356482 -199.91429 
L 95.796952 -203.017976 
L 98.237421 -206.317659 
L 100.67789 -209.806744 
L 103.11836 -213.475737 
L 105.558829 -217.312129 
L 107.999299 -221.300345 
L 110.439768 -225.421741 
L 112.880237 -229.654674 
L 115.320707 -233.974635 
L 117.761176 -238.354463 
L 120.201645 -242.764622 
L 122.642115 -247.173551 
L 125.082584 -251.548087 
L 127.523054 -255.853935 
L 129.963523 -260.056206 
L 132.403992 -264.119986 
L 134.844462 -268.010937 
L 137.284931 -271.695917 
L 139.7254 -275.143594 
L 142.16587 -278.325053 
L 144.606339 -281.214366 
L 147.046809 -283.789114 
L 149.487278 -286.030848 
L 151.927747 -287.925476 
L 154.368217 -289.463551 
L 156.808686 -290.640472 
L 159.249155 -291.456569 
L 161.689625 -291.917076 
L 164.130094 -292.032 
L 166.570564 -291.81587 
L 169.011033 -291.287382 
L 171.451502 -290.468951 
L 173.891972 -289.386171 
L 176.332441 -288.06721 
L 178.77291 -286.542141 
L 181.21338 -284.842244 
L 183.653849 -282.999285 
L 186.094319 -281.044797 
L 188.534788 -279.009386 
L 190.975257 -276.922071 
L 193.415727 -274.809691 
L 195.856196 -272.696375 
L 198.296665 -270.603108 
L 200.737135 -268.547392 
L 203.177604 -266.54301 
L 205.618074 -264.599904 
L 208.058543 -262.724156 
L 210.499012 -260.918087 
L 212.939482 -259.180443 
L 215.379951 -257.506691 
L 217.82042 -255.889381 
L 220.26089 -254.318585 
L 222.701359 -252.782385 
L 225.141829 -251.267395 
L 227.582298 -249.75931 
L 230.022767 -248.243447 
L 232.463237 -246.705277 
L 234.903706 -245.130929 
L 237.344175 -243.507648 
L 239.784645 -241.824197 
L 242.225114 -240.071199 
L 244.665584 -238.241401 
L 247.106053 -236.329869 
L 249.546522 -234.3341 
L 251.986992 -232.254061 
L 254.427461 -230.092145 
L 256.86793 -227.853075 
L 259.3084 -225.543725 
L 261.748869 -223.172908 
L 264.189339 -220.751105 
L 266.629808 -218.290171 
L 269.070277 -215.803014 
L 271.510747 -213.303265 
L 273.951216 -210.804946 
L 276.391685 -208.322145 
L 278.832155 -205.868714 
L 281.272624 -203.457985 
L 283.713094 -201.102521 
L 286.153563 -198.8139 
L 288.594032 -196.602542 
L 291.034502 -194.47757 
L 293.474971 -192.446717 
L 295.91544 -190.51627 
L 298.35591 -188.691056 
L 300.796379 -186.974451 
L 303.236849 -185.368438 
L 305.677318 -183.873675 
L 308.117787 -182.489593 
L 310.558257 -181.214515 
L 312.998726 -180.045773 
L 315.439195 -178.979853 
L 315.439195 -163.164147 
L 315.439195 -163.164147 
L 312.998726 -162.098227 
L 310.558257 -160.929485 
L 308.117787 -159.654407 
L 305.677318 -158.270325 
L 303.236849 -156.775562 
L 300.796379 -155.169549 
L 298.35591 -153.452944 
L 295.91544 -151.62773 
L 293.474971 -149.697283 
L 291.034502 -147.66643 
L 288.594032 -145.541458 
L 286.153563 -143.3301 
L 283.713094 -141.041479 
L 281.272624 -138.686015 
L 278.832155 -136.275286 
L 276.391685 -133.821855 
L 273.951216 -131.339054 
L 271.510747 -128.840735 
L 269.070277 -126.340986 
L 266.629808 -123.853829 
L 264.189339 -121.392895 
L 261.748869 -118.971092 
L 259.3084 -116.600275 
L 256.86793 -114.290925 
L 254.427461 -112.051855 
L 251.986992 -109.889939 
L 249.546522 -107.8099 
L 247.106053 -105.814131 
L 244.665584 -103.902599 
L 242.225114 -102.072801 
L 239.784645 -100.319803 
L 237.344175 -98.636352 
L 234.903706 -97.013071 
L 232.463237 -95.438723 
L 230.022767 -93.900553 
L 227.582298 -92.38469 
L 225.141829 -90.876605 
L 222.701359 -89.361615 
L 220.26089 -87.825415 
L 217.82042 -86.254619 
L 215.379951 -84.637309 
L 212.939482 -82.963557 
L 210.499012 -81.225913 
L 208.058543 -79.419844 
L 205.618074 -77.544096 
L 203.177604 -75.60099 
L 200.737135 -73.596608 
L 198.296665 -71.540892 
L 195.856196 -69.447625 
L 193.415727 -67.334309 
L 190.975257 -65.221929 
L 188.534788 -63.134614 
L 186.094319 -61.099203 
L 183.653849 -59.144715 
L 181.21338 -57.301756 
L 178.77291 -55.601859 
L 176.332441 -54.07679 
L 173.891972 -52.757829 
L 171.451502 -51.675049 
L 169.011033 -50.856618 
L 166.570564 -50.32813 
L 164.130094 -50.112 
L 161.689625 -50.226924 
L 159.249155 -50.687431 
L 156.808686 -51.503528 
L 154.368217 -52.680449 
L 151.927747 -54.218524 
L 149.487278 -56.113152 
L 147.046809 -58.354886 
L 144.606339 -60.929634 
L 142.16587 -63.818947 
L 139.7254 -67.000406 
L 137.284931 -70.448083 
L 134.844462 -74.133063 
L 132.403992 -78.024014 
L 129.963523 -82.087794 
L 127.523054 -86.290065 
L 125.082584 -90.595913 
L 122.642115 -94.970449 
L 120.201645 -99.379378 
L 117.761176 -103.789537 
L 115.320707 -108.169365 
L 112.880237 -112.489326 
L 110.439768 -116.722259 
L 107.999299 -120.843655 
L 105.558829 -124.831871 
L 103.11836 -128.668263 
L 100.67789 -132.337256 
L 98.237421 -135.826341 
L 95.796952 -139.126024 
L 93.356482 -142.22971 
L 90.916013 -145.133546 
L 88.475544 -147.836228 
L 86.035074 -150.338773 
L 83.594605 -152.644276 
L 81.154135 -154.757646 
L 78.713666 -156.685342 
L 76.273197 -158.435104 
L 73.832727 -160.015696 
z
" id="ma06e51aebf" style="stroke:#4c4c4c;stroke-opacity:0.5;stroke-width:1.5;"/>
    </defs>
    <g clip-path="url(#pd8877eddcb)">
     <use style="fill:#df9c20;fill-opacity:0.5;stroke:#4c4c4c;stroke-opacity:0.5;stroke-width:1.5;" x="0" xlink:href="#ma06e51aebf" y="345.6"/>
    </g>
   </g>
   <g id="PolyCollection_2">
    <defs>
     <path d="M 125.197903 -168.788315 
L 125.197903 -173.355685 
L 127.958402 -175.280801 
L 130.7189 -178.411038 
L 133.479399 -183.192912 
L 136.239898 -190.053354 
L 139.000397 -199.289264 
L 141.760895 -210.939229 
L 144.521394 -224.672108 
L 147.281893 -239.734626 
L 150.042391 -254.992694 
L 152.80289 -269.077712 
L 155.563389 -280.615588 
L 158.323887 -288.484593 
L 161.084386 -292.032 
L 163.844885 -291.187422 
L 166.605383 -286.442075 
L 169.365882 -278.706399 
L 172.126381 -269.096045 
L 174.886879 -258.712783 
L 177.647378 -248.47711 
L 180.407877 -239.040507 
L 183.168375 -230.773038 
L 185.928874 -223.801021 
L 188.689373 -218.066034 
L 191.449872 -213.386262 
L 194.21037 -209.51383 
L 196.970869 -206.188369 
L 199.731368 -203.185488 
L 202.491866 -200.353479 
L 205.252365 -197.629272 
L 208.012864 -195.029017 
L 210.773362 -192.617855 
L 213.533861 -190.471551 
L 216.29436 -188.644713 
L 219.054858 -187.155125 
L 221.815357 -185.985021 
L 224.575856 -185.093077 
L 227.336354 -184.428799 
L 230.096853 -183.943519 
L 232.857352 -183.596206 
L 235.61785 -183.354969 
L 238.378349 -183.195447 
L 241.138848 -183.096607 
L 243.899346 -183.034502 
L 246.659845 -182.975901 
L 249.420344 -182.875181 
L 252.180843 -182.677744 
L 254.941341 -182.330697 
L 257.70184 -181.797736 
L 260.462339 -181.072344 
L 263.222837 -180.183409 
L 265.983336 -179.190439 
L 268.743835 -178.169895 
L 271.504333 -177.197632 
L 274.264832 -176.333368 
L 277.025331 -175.611572 
L 279.785829 -175.040262 
L 282.546328 -174.60638 
L 285.306827 -174.284663 
L 288.067325 -174.046453 
L 290.827824 -173.865746 
L 293.588323 -173.721444 
L 296.348821 -173.596651 
L 299.10932 -173.477065 
L 301.869819 -173.350454 
L 304.630318 -173.207946 
L 307.390816 -173.04627 
L 310.151315 -172.869269 
L 312.911814 -172.687384 
L 315.672312 -172.515024 
L 318.432811 -172.366851 
L 321.19331 -172.254288 
L 323.953808 -172.183156 
L 326.714307 -172.152678 
L 329.474806 -172.155808 
L 332.235304 -172.180724 
L 334.995803 -172.213349 
L 337.756302 -172.240411 
L 340.5168 -172.252284 
L 343.277299 -172.244755 
L 346.037798 -172.219267 
L 348.798296 -172.18177 
L 351.558795 -172.140769 
L 354.319294 -172.105159 
L 357.079792 -172.082141 
L 359.840291 -172.075358 
L 362.60079 -172.08343 
L 365.361289 -172.099413 
L 368.121787 -172.111759 
L 370.882286 -172.106976 
L 373.642785 -172.073407 
L 376.403283 -172.004862 
L 379.163782 -171.902694 
L 381.924281 -171.775498 
L 384.684779 -171.636585 
L 387.445278 -171.500306 
L 390.205777 -171.378595 
L 392.966275 -171.278819 
L 395.726774 -171.203339 
L 398.487273 -171.150456 
L 398.487273 -170.993544 
L 398.487273 -170.993544 
L 395.726774 -170.940661 
L 392.966275 -170.865181 
L 390.205777 -170.765405 
L 387.445278 -170.643694 
L 384.684779 -170.507415 
L 381.924281 -170.368502 
L 379.163782 -170.241306 
L 376.403283 -170.139138 
L 373.642785 -170.070593 
L 370.882286 -170.037024 
L 368.121787 -170.032241 
L 365.361289 -170.044587 
L 362.60079 -170.06057 
L 359.840291 -170.068642 
L 357.079792 -170.061859 
L 354.319294 -170.038841 
L 351.558795 -170.003231 
L 348.798296 -169.96223 
L 346.037798 -169.924733 
L 343.277299 -169.899245 
L 340.5168 -169.891716 
L 337.756302 -169.903589 
L 334.995803 -169.930651 
L 332.235304 -169.963276 
L 329.474806 -169.988192 
L 326.714307 -169.991322 
L 323.953808 -169.960844 
L 321.19331 -169.889712 
L 318.432811 -169.777149 
L 315.672312 -169.628976 
L 312.911814 -169.456616 
L 310.151315 -169.274731 
L 307.390816 -169.09773 
L 304.630318 -168.936054 
L 301.869819 -168.793546 
L 299.10932 -168.666935 
L 296.348821 -168.547349 
L 293.588323 -168.422556 
L 290.827824 -168.278254 
L 288.067325 -168.097547 
L 285.306827 -167.859337 
L 282.546328 -167.53762 
L 279.785829 -167.103738 
L 277.025331 -166.532428 
L 274.264832 -165.810632 
L 271.504333 -164.946368 
L 268.743835 -163.974105 
L 265.983336 -162.953561 
L 263.222837 -161.960591 
L 260.462339 -161.071656 
L 257.70184 -160.346264 
L 254.941341 -159.813303 
L 252.180843 -159.466256 
L 249.420344 -159.268819 
L 246.659845 -159.168099 
L 243.899346 -159.109498 
L 241.138848 -159.047393 
L 238.378349 -158.948553 
L 235.61785 -158.789031 
L 232.857352 -158.547794 
L 230.096853 -158.200481 
L 227.336354 -157.715201 
L 224.575856 -157.050923 
L 221.815357 -156.158979 
L 219.054858 -154.988875 
L 216.29436 -153.499287 
L 213.533861 -151.672449 
L 210.773362 -149.526145 
L 208.012864 -147.114983 
L 205.252365 -144.514728 
L 202.491866 -141.790521 
L 199.731368 -138.958512 
L 196.970869 -135.955631 
L 194.21037 -132.63017 
L 191.449872 -128.757738 
L 188.689373 -124.077966 
L 185.928874 -118.342979 
L 183.168375 -111.370962 
L 180.407877 -103.103493 
L 177.647378 -93.66689 
L 174.886879 -83.431217 
L 172.126381 -73.047955 
L 169.365882 -63.437601 
L 166.605383 -55.701925 
L 163.844885 -50.956578 
L 161.084386 -50.112 
L 158.323887 -53.659407 
L 155.563389 -61.528412 
L 152.80289 -73.066288 
L 150.042391 -87.151306 
L 147.281893 -102.409374 
L 144.521394 -117.471892 
L 141.760895 -131.204771 
L 139.000397 -142.854736 
L 136.239898 -152.090646 
L 133.479399 -158.951088 
L 130.7189 -163.732962 
L 127.958402 -166.863199 
L 125.197903 -168.788315 
z
" id="mc170ea36a4" style="stroke:#262626;stroke-opacity:0.5;stroke-width:1.5;"/>
    </defs>
    <g clip-path="url(#pd8877eddcb)">
     <use style="fill:#107010;fill-opacity:0.5;stroke:#262626;stroke-opacity:0.5;stroke-width:1.5;" x="0" xlink:href="#mc170ea36a4" y="345.6"/>
    </g>
   </g>
   <g id="matplotlib.axis_1">
    <g id="xtick_1">
     <g id="line2d_1">
      <defs>
       <path d="M 0 0 
L 0 3.5 
" id="mcf70be03de" style="stroke:#000000;stroke-width:0.8;"/>
      </defs>
      <g>
       <use style="stroke:#000000;stroke-width:0.8;" x="94.262428" xlink:href="#mcf70be03de" y="307.584"/>
      </g>
     </g>
     <g id="text_1">
      <!-- −25 -->
      <defs>
       <path d="M 10.59375 35.5 
L 73.1875 35.5 
L 73.1875 27.203125 
L 10.59375 27.203125 
z
" id="DejaVuSans-8722"/>
       <path d="M 19.1875 8.296875 
L 53.609375 8.296875 
L 53.609375 0 
L 7.328125 0 
L 7.328125 8.296875 
Q 12.9375 14.109375 22.625 23.890625 
Q 32.328125 33.6875 34.8125 36.53125 
Q 39.546875 41.84375 41.421875 45.53125 
Q 43.3125 49.21875 43.3125 52.78125 
Q 43.3125 58.59375 39.234375 62.25 
Q 35.15625 65.921875 28.609375 65.921875 
Q 23.96875 65.921875 18.8125 64.3125 
Q 13.671875 62.703125 7.8125 59.421875 
L 7.8125 69.390625 
Q 13.765625 71.78125 18.9375 73 
Q 24.125 74.21875 28.421875 74.21875 
Q 39.75 74.21875 46.484375 68.546875 
Q 53.21875 62.890625 53.21875 53.421875 
Q 53.21875 48.921875 51.53125 44.890625 
Q 49.859375 40.875 45.40625 35.40625 
Q 44.1875 33.984375 37.640625 27.21875 
Q 31.109375 20.453125 19.1875 8.296875 
z
" id="DejaVuSans-50"/>
       <path d="M 10.796875 72.90625 
L 49.515625 72.90625 
L 49.515625 64.59375 
L 19.828125 64.59375 
L 19.828125 46.734375 
Q 21.96875 47.46875 24.109375 47.828125 
Q 26.265625 48.1875 28.421875 48.1875 
Q 40.625 48.1875 47.75 41.5 
Q 54.890625 34.8125 54.890625 23.390625 
Q 54.890625 11.625 47.5625 5.09375 
Q 40.234375 -1.421875 26.90625 -1.421875 
Q 22.3125 -1.421875 17.546875 -0.640625 
Q 12.796875 0.140625 7.71875 1.703125 
L 7.71875 11.625 
Q 12.109375 9.234375 16.796875 8.0625 
Q 21.484375 6.890625 26.703125 6.890625 
Q 35.15625 6.890625 40.078125 11.328125 
Q 45.015625 15.765625 45.015625 23.390625 
Q 45.015625 31 40.078125 35.4375 
Q 35.15625 39.890625 26.703125 39.890625 
Q 22.75 39.890625 18.8125 39.015625 
Q 14.890625 38.140625 10.796875 36.28125 
z
" id="DejaVuSans-53"/>
      </defs>
      <g transform="translate(83.710084 322.182437)scale(0.1 -0.1)">
       <use xlink:href="#DejaVuSans-8722"/>
       <use x="83.789062" xlink:href="#DejaVuSans-50"/>
       <use x="147.412109" xlink:href="#DejaVuSans-53"/>
      </g>
     </g>
    </g>
    <g id="xtick_2">
     <g id="line2d_2">
      <g>
       <use style="stroke:#000000;stroke-width:0.8;" x="137.903095" xlink:href="#mcf70be03de" y="307.584"/>
      </g>
     </g>
     <g id="text_2">
      <!-- 0 -->
      <defs>
       <path d="M 31.78125 66.40625 
Q 24.171875 66.40625 20.328125 58.90625 
Q 16.5 51.421875 16.5 36.375 
Q 16.5 21.390625 20.328125 13.890625 
Q 24.171875 6.390625 31.78125 6.390625 
Q 39.453125 6.390625 43.28125 13.890625 
Q 47.125 21.390625 47.125 36.375 
Q 47.125 51.421875 43.28125 58.90625 
Q 39.453125 66.40625 31.78125 66.40625 
z
M 31.78125 74.21875 
Q 44.046875 74.21875 50.515625 64.515625 
Q 56.984375 54.828125 56.984375 36.375 
Q 56.984375 17.96875 50.515625 8.265625 
Q 44.046875 -1.421875 31.78125 -1.421875 
Q 19.53125 -1.421875 13.0625 8.265625 
Q 6.59375 17.96875 6.59375 36.375 
Q 6.59375 54.828125 13.0625 64.515625 
Q 19.53125 74.21875 31.78125 74.21875 
z
" id="DejaVuSans-48"/>
      </defs>
      <g transform="translate(134.721845 322.182437)scale(0.1 -0.1)">
       <use xlink:href="#DejaVuSans-48"/>
      </g>
     </g>
    </g>
    <g id="xtick_3">
     <g id="line2d_3">
      <g>
       <use style="stroke:#000000;stroke-width:0.8;" x="181.543761" xlink:href="#mcf70be03de" y="307.584"/>
      </g>
     </g>
     <g id="text_3">
      <!-- 25 -->
      <g transform="translate(175.181261 322.182437)scale(0.1 -0.1)">
       <use xlink:href="#DejaVuSans-50"/>
       <use x="63.623047" xlink:href="#DejaVuSans-53"/>
      </g>
     </g>
    </g>
    <g id="xtick_4">
     <g id="line2d_4">
      <g>
       <use style="stroke:#000000;stroke-width:0.8;" x="225.184428" xlink:href="#mcf70be03de" y="307.584"/>
      </g>
     </g>
     <g id="text_4">
      <!-- 50 -->
      <g transform="translate(218.821928 322.182437)scale(0.1 -0.1)">
       <use xlink:href="#DejaVuSans-53"/>
       <use x="63.623047" xlink:href="#DejaVuSans-48"/>
      </g>
     </g>
    </g>
    <g id="xtick_5">
     <g id="line2d_5">
      <g>
       <use style="stroke:#000000;stroke-width:0.8;" x="268.825095" xlink:href="#mcf70be03de" y="307.584"/>
      </g>
     </g>
     <g id="text_5">
      <!-- 75 -->
      <defs>
       <path d="M 8.203125 72.90625 
L 55.078125 72.90625 
L 55.078125 68.703125 
L 28.609375 0 
L 18.3125 0 
L 43.21875 64.59375 
L 8.203125 64.59375 
z
" id="DejaVuSans-55"/>
      </defs>
      <g transform="translate(262.462595 322.182437)scale(0.1 -0.1)">
       <use xlink:href="#DejaVuSans-55"/>
       <use x="63.623047" xlink:href="#DejaVuSans-53"/>
      </g>
     </g>
    </g>
    <g id="xtick_6">
     <g id="line2d_6">
      <g>
       <use style="stroke:#000000;stroke-width:0.8;" x="312.465761" xlink:href="#mcf70be03de" y="307.584"/>
      </g>
     </g>
     <g id="text_6">
      <!-- 100 -->
      <defs>
       <path d="M 12.40625 8.296875 
L 28.515625 8.296875 
L 28.515625 63.921875 
L 10.984375 60.40625 
L 10.984375 69.390625 
L 28.421875 72.90625 
L 38.28125 72.90625 
L 38.28125 8.296875 
L 54.390625 8.296875 
L 54.390625 0 
L 12.40625 0 
z
" id="DejaVuSans-49"/>
      </defs>
      <g transform="translate(302.922011 322.182437)scale(0.1 -0.1)">
       <use xlink:href="#DejaVuSans-49"/>
       <use x="63.623047" xlink:href="#DejaVuSans-48"/>
       <use x="127.246094" xlink:href="#DejaVuSans-48"/>
      </g>
     </g>
    </g>
    <g id="xtick_7">
     <g id="line2d_7">
      <g>
       <use style="stroke:#000000;stroke-width:0.8;" x="356.106428" xlink:href="#mcf70be03de" y="307.584"/>
      </g>
     </g>
     <g id="text_7">
      <!-- 125 -->
      <g transform="translate(346.562678 322.182437)scale(0.1 -0.1)">
       <use xlink:href="#DejaVuSans-49"/>
       <use x="63.623047" xlink:href="#DejaVuSans-50"/>
       <use x="127.246094" xlink:href="#DejaVuSans-53"/>
      </g>
     </g>
    </g>
    <g id="xtick_8">
     <g id="line2d_8">
      <g>
       <use style="stroke:#000000;stroke-width:0.8;" x="399.747094" xlink:href="#mcf70be03de" y="307.584"/>
      </g>
     </g>
     <g id="text_8">
      <!-- 150 -->
      <g transform="translate(390.203344 322.182437)scale(0.1 -0.1)">
       <use xlink:href="#DejaVuSans-49"/>
       <use x="63.623047" xlink:href="#DejaVuSans-53"/>
       <use x="127.246094" xlink:href="#DejaVuSans-48"/>
      </g>
     </g>
    </g>
    <g id="text_9">
     <!-- bunadmac -->
     <defs>
      <path d="M 48.6875 27.296875 
Q 48.6875 37.203125 44.609375 42.84375 
Q 40.53125 48.484375 33.40625 48.484375 
Q 26.265625 48.484375 22.1875 42.84375 
Q 18.109375 37.203125 18.109375 27.296875 
Q 18.109375 17.390625 22.1875 11.75 
Q 26.265625 6.109375 33.40625 6.109375 
Q 40.53125 6.109375 44.609375 11.75 
Q 48.6875 17.390625 48.6875 27.296875 
z
M 18.109375 46.390625 
Q 20.953125 51.265625 25.265625 53.625 
Q 29.59375 56 35.59375 56 
Q 45.5625 56 51.78125 48.09375 
Q 58.015625 40.1875 58.015625 27.296875 
Q 58.015625 14.40625 51.78125 6.484375 
Q 45.5625 -1.421875 35.59375 -1.421875 
Q 29.59375 -1.421875 25.265625 0.953125 
Q 20.953125 3.328125 18.109375 8.203125 
L 18.109375 0 
L 9.078125 0 
L 9.078125 75.984375 
L 18.109375 75.984375 
z
" id="DejaVuSans-98"/>
      <path d="M 8.5 21.578125 
L 8.5 54.6875 
L 17.484375 54.6875 
L 17.484375 21.921875 
Q 17.484375 14.15625 20.5 10.265625 
Q 23.53125 6.390625 29.59375 6.390625 
Q 36.859375 6.390625 41.078125 11.03125 
Q 45.3125 15.671875 45.3125 23.6875 
L 45.3125 54.6875 
L 54.296875 54.6875 
L 54.296875 0 
L 45.3125 0 
L 45.3125 8.40625 
Q 42.046875 3.421875 37.71875 1 
Q 33.40625 -1.421875 27.6875 -1.421875 
Q 18.265625 -1.421875 13.375 4.4375 
Q 8.5 10.296875 8.5 21.578125 
z
M 31.109375 56 
z
" id="DejaVuSans-117"/>
      <path d="M 54.890625 33.015625 
L 54.890625 0 
L 45.90625 0 
L 45.90625 32.71875 
Q 45.90625 40.484375 42.875 44.328125 
Q 39.84375 48.1875 33.796875 48.1875 
Q 26.515625 48.1875 22.3125 43.546875 
Q 18.109375 38.921875 18.109375 30.90625 
L 18.109375 0 
L 9.078125 0 
L 9.078125 54.6875 
L 18.109375 54.6875 
L 18.109375 46.1875 
Q 21.34375 51.125 25.703125 53.5625 
Q 30.078125 56 35.796875 56 
Q 45.21875 56 50.046875 50.171875 
Q 54.890625 44.34375 54.890625 33.015625 
z
" id="DejaVuSans-110"/>
      <path d="M 34.28125 27.484375 
Q 23.390625 27.484375 19.1875 25 
Q 14.984375 22.515625 14.984375 16.5 
Q 14.984375 11.71875 18.140625 8.90625 
Q 21.296875 6.109375 26.703125 6.109375 
Q 34.1875 6.109375 38.703125 11.40625 
Q 43.21875 16.703125 43.21875 25.484375 
L 43.21875 27.484375 
z
M 52.203125 31.203125 
L 52.203125 0 
L 43.21875 0 
L 43.21875 8.296875 
Q 40.140625 3.328125 35.546875 0.953125 
Q 30.953125 -1.421875 24.3125 -1.421875 
Q 15.921875 -1.421875 10.953125 3.296875 
Q 6 8.015625 6 15.921875 
Q 6 25.140625 12.171875 29.828125 
Q 18.359375 34.515625 30.609375 34.515625 
L 43.21875 34.515625 
L 43.21875 35.40625 
Q 43.21875 41.609375 39.140625 45 
Q 35.0625 48.390625 27.6875 48.390625 
Q 23 48.390625 18.546875 47.265625 
Q 14.109375 46.140625 10.015625 43.890625 
L 10.015625 52.203125 
Q 14.9375 54.109375 19.578125 55.046875 
Q 24.21875 56 28.609375 56 
Q 40.484375 56 46.34375 49.84375 
Q 52.203125 43.703125 52.203125 31.203125 
z
" id="DejaVuSans-97"/>
      <path d="M 45.40625 46.390625 
L 45.40625 75.984375 
L 54.390625 75.984375 
L 54.390625 0 
L 45.40625 0 
L 45.40625 8.203125 
Q 42.578125 3.328125 38.25 0.953125 
Q 33.9375 -1.421875 27.875 -1.421875 
Q 17.96875 -1.421875 11.734375 6.484375 
Q 5.515625 14.40625 5.515625 27.296875 
Q 5.515625 40.1875 11.734375 48.09375 
Q 17.96875 56 27.875 56 
Q 33.9375 56 38.25 53.625 
Q 42.578125 51.265625 45.40625 46.390625 
z
M 14.796875 27.296875 
Q 14.796875 17.390625 18.875 11.75 
Q 22.953125 6.109375 30.078125 6.109375 
Q 37.203125 6.109375 41.296875 11.75 
Q 45.40625 17.390625 45.40625 27.296875 
Q 45.40625 37.203125 41.296875 42.84375 
Q 37.203125 48.484375 30.078125 48.484375 
Q 22.953125 48.484375 18.875 42.84375 
Q 14.796875 37.203125 14.796875 27.296875 
z
" id="DejaVuSans-100"/>
      <path d="M 52 44.1875 
Q 55.375 50.25 60.0625 53.125 
Q 64.75 56 71.09375 56 
Q 79.640625 56 84.28125 50.015625 
Q 88.921875 44.046875 88.921875 33.015625 
L 88.921875 0 
L 79.890625 0 
L 79.890625 32.71875 
Q 79.890625 40.578125 77.09375 44.375 
Q 74.3125 48.1875 68.609375 48.1875 
Q 61.625 48.1875 57.5625 43.546875 
Q 53.515625 38.921875 53.515625 30.90625 
L 53.515625 0 
L 44.484375 0 
L 44.484375 32.71875 
Q 44.484375 40.625 41.703125 44.40625 
Q 38.921875 48.1875 33.109375 48.1875 
Q 26.21875 48.1875 22.15625 43.53125 
Q 18.109375 38.875 18.109375 30.90625 
L 18.109375 0 
L 9.078125 0 
L 9.078125 54.6875 
L 18.109375 54.6875 
L 18.109375 46.1875 
Q 21.1875 51.21875 25.484375 53.609375 
Q 29.78125 56 35.6875 56 
Q 41.65625 56 45.828125 52.96875 
Q 50 49.953125 52 44.1875 
z
" id="DejaVuSans-109"/>
      <path d="M 48.78125 52.59375 
L 48.78125 44.1875 
Q 44.96875 46.296875 41.140625 47.34375 
Q 37.3125 48.390625 33.40625 48.390625 
Q 24.65625 48.390625 19.8125 42.84375 
Q 14.984375 37.3125 14.984375 27.296875 
Q 14.984375 17.28125 19.8125 11.734375 
Q 24.65625 6.203125 33.40625 6.203125 
Q 37.3125 6.203125 41.140625 7.25 
Q 44.96875 8.296875 48.78125 10.40625 
L 48.78125 2.09375 
Q 45.015625 0.34375 40.984375 -0.53125 
Q 36.96875 -1.421875 32.421875 -1.421875 
Q 20.0625 -1.421875 12.78125 6.34375 
Q 5.515625 14.109375 5.515625 27.296875 
Q 5.515625 40.671875 12.859375 48.328125 
Q 20.21875 56 33.015625 56 
Q 37.15625 56 41.109375 55.140625 
Q 45.0625 54.296875 48.78125 52.59375 
z
" id="DejaVuSans-99"/>
     </defs>
     <g transform="translate(209.726406 335.860562)scale(0.1 -0.1)">
      <use xlink:href="#DejaVuSans-98"/>
      <use x="63.476562" xlink:href="#DejaVuSans-117"/>
      <use x="126.855469" xlink:href="#DejaVuSans-110"/>
      <use x="190.234375" xlink:href="#DejaVuSans-97"/>
      <use x="251.513672" xlink:href="#DejaVuSans-100"/>
      <use x="314.990234" xlink:href="#DejaVuSans-109"/>
      <use x="412.402344" xlink:href="#DejaVuSans-97"/>
      <use x="473.681641" xlink:href="#DejaVuSans-99"/>
     </g>
    </g>
   </g>
   <g id="matplotlib.axis_2">
    <g id="ytick_1">
     <g id="line2d_9">
      <defs>
       <path d="M 0 0 
L -3.5 0 
" id="m37b690a0e1" style="stroke:#000000;stroke-width:0.8;"/>
      </defs>
      <g>
       <use style="stroke:#000000;stroke-width:0.8;" x="57.6" xlink:href="#m37b690a0e1" y="174.528"/>
      </g>
     </g>
    </g>
   </g>
   <g id="line2d_10">
    <path clip-path="url(#pd8877eddcb)" d="M 150.122481 174.528 
L 239.149441 174.528 
" style="fill:none;stroke:#ffa500;stroke-linecap:square;stroke-width:1.5;"/>
   </g>
   <g id="line2d_11">
    <path clip-path="url(#pd8877eddcb)" d="M 157.977801 174.528 
L 202.491281 174.528 
" style="fill:none;stroke:#4c4c4c;stroke-linecap:square;stroke-width:4.5;"/>
   </g>
   <g id="line2d_12">
    <path clip-path="url(#pd8877eddcb)" d="M 146.631228 174.528 
L 244.386321 174.528 
" style="fill:none;stroke:#008000;stroke-linecap:square;stroke-width:1.5;"/>
   </g>
   <g id="line2d_13">
    <path clip-path="url(#pd8877eddcb)" d="M 158.850615 174.528 
L 193.326741 174.528 
" style="fill:none;stroke:#262626;stroke-linecap:square;stroke-width:4.5;"/>
   </g>
   <g id="patch_3">
    <path d="M 57.6 307.584 
L 57.6 41.472 
" style="fill:none;stroke:#000000;stroke-linecap:square;stroke-linejoin:miter;stroke-width:0.8;"/>
   </g>
   <g id="patch_4">
    <path d="M 414.72 307.584 
L 414.72 41.472 
" style="fill:none;stroke:#000000;stroke-linecap:square;stroke-linejoin:miter;stroke-width:0.8;"/>
   </g>
   <g id="patch_5">
    <path d="M 57.6 307.584 
L 414.72 307.584 
" style="fill:none;stroke:#000000;stroke-linecap:square;stroke-linejoin:miter;stroke-width:0.8;"/>
   </g>
   <g id="patch_6">
    <path d="M 57.6 41.472 
L 414.72 41.472 
" style="fill:none;stroke:#000000;stroke-linecap:square;stroke-linejoin:miter;stroke-width:0.8;"/>
   </g>
   <g id="PathCollection_1">
    <defs>
     <path d="M 0 1.5 
C 0.397805 1.5 0.77937 1.341951 1.06066 1.06066 
C 1.341951 0.77937 1.5 0.397805 1.5 0 
C 1.5 -0.397805 1.341951 -0.77937 1.06066 -1.06066 
C 0.77937 -1.341951 0.397805 -1.5 0 -1.5 
C -0.397805 -1.5 -0.77937 -1.341951 -1.06066 -1.06066 
C -1.341951 -0.77937 -1.5 -0.397805 -1.5 0 
C -1.5 0.397805 -1.341951 0.77937 -1.06066 1.06066 
C -0.77937 1.341951 -0.397805 1.5 0 1.5 
z
" id="m268cc8df14" style="stroke:#4c4c4c;stroke-opacity:0.5;"/>
    </defs>
    <g clip-path="url(#pd8877eddcb)">
     <use style="fill:#ffffff;fill-opacity:0.5;stroke:#4c4c4c;stroke-opacity:0.5;" x="165.833121" xlink:href="#m268cc8df14" y="174.528"/>
    </g>
   </g>
   <g id="PathCollection_2">
    <defs>
     <path d="M 0 1.5 
C 0.397805 1.5 0.77937 1.341951 1.06066 1.06066 
C 1.341951 0.77937 1.5 0.397805 1.5 0 
C 1.5 -0.397805 1.341951 -0.77937 1.06066 -1.06066 
C 0.77937 -1.341951 0.397805 -1.5 0 -1.5 
C -0.397805 -1.5 -0.77937 -1.341951 -1.06066 -1.06066 
C -1.341951 -0.77937 -1.5 -0.397805 -1.5 0 
C -1.5 0.397805 -1.341951 0.77937 -1.06066 1.06066 
C -0.77937 1.341951 -0.397805 1.5 0 1.5 
z
" id="m7f58abbbd7" style="stroke:#262626;stroke-opacity:0.5;"/>
    </defs>
    <g clip-path="url(#pd8877eddcb)">
     <use style="fill:#ffffff;fill-opacity:0.5;stroke:#262626;stroke-opacity:0.5;" x="167.578748" xlink:href="#m7f58abbbd7" y="174.528"/>
    </g>
   </g>
   <g id="text_10">
    <!-- Association of bunadmac vs. ecmo -->
    <defs>
     <path d="M 34.1875 63.1875 
L 20.796875 26.90625 
L 47.609375 26.90625 
z
M 28.609375 72.90625 
L 39.796875 72.90625 
L 67.578125 0 
L 57.328125 0 
L 50.6875 18.703125 
L 17.828125 18.703125 
L 11.1875 0 
L 0.78125 0 
z
" id="DejaVuSans-65"/>
     <path d="M 44.28125 53.078125 
L 44.28125 44.578125 
Q 40.484375 46.53125 36.375 47.5 
Q 32.28125 48.484375 27.875 48.484375 
Q 21.1875 48.484375 17.84375 46.4375 
Q 14.5 44.390625 14.5 40.28125 
Q 14.5 37.15625 16.890625 35.375 
Q 19.28125 33.59375 26.515625 31.984375 
L 29.59375 31.296875 
Q 39.15625 29.25 43.1875 25.515625 
Q 47.21875 21.78125 47.21875 15.09375 
Q 47.21875 7.46875 41.1875 3.015625 
Q 35.15625 -1.421875 24.609375 -1.421875 
Q 20.21875 -1.421875 15.453125 -0.5625 
Q 10.6875 0.296875 5.421875 2 
L 5.421875 11.28125 
Q 10.40625 8.6875 15.234375 7.390625 
Q 20.0625 6.109375 24.8125 6.109375 
Q 31.15625 6.109375 34.5625 8.28125 
Q 37.984375 10.453125 37.984375 14.40625 
Q 37.984375 18.0625 35.515625 20.015625 
Q 33.0625 21.96875 24.703125 23.78125 
L 21.578125 24.515625 
Q 13.234375 26.265625 9.515625 29.90625 
Q 5.8125 33.546875 5.8125 39.890625 
Q 5.8125 47.609375 11.28125 51.796875 
Q 16.75 56 26.8125 56 
Q 31.78125 56 36.171875 55.265625 
Q 40.578125 54.546875 44.28125 53.078125 
z
" id="DejaVuSans-115"/>
     <path d="M 30.609375 48.390625 
Q 23.390625 48.390625 19.1875 42.75 
Q 14.984375 37.109375 14.984375 27.296875 
Q 14.984375 17.484375 19.15625 11.84375 
Q 23.34375 6.203125 30.609375 6.203125 
Q 37.796875 6.203125 41.984375 11.859375 
Q 46.1875 17.53125 46.1875 27.296875 
Q 46.1875 37.015625 41.984375 42.703125 
Q 37.796875 48.390625 30.609375 48.390625 
z
M 30.609375 56 
Q 42.328125 56 49.015625 48.375 
Q 55.71875 40.765625 55.71875 27.296875 
Q 55.71875 13.875 49.015625 6.21875 
Q 42.328125 -1.421875 30.609375 -1.421875 
Q 18.84375 -1.421875 12.171875 6.21875 
Q 5.515625 13.875 5.515625 27.296875 
Q 5.515625 40.765625 12.171875 48.375 
Q 18.84375 56 30.609375 56 
z
" id="DejaVuSans-111"/>
     <path d="M 9.421875 54.6875 
L 18.40625 54.6875 
L 18.40625 0 
L 9.421875 0 
z
M 9.421875 75.984375 
L 18.40625 75.984375 
L 18.40625 64.59375 
L 9.421875 64.59375 
z
" id="DejaVuSans-105"/>
     <path d="M 18.3125 70.21875 
L 18.3125 54.6875 
L 36.8125 54.6875 
L 36.8125 47.703125 
L 18.3125 47.703125 
L 18.3125 18.015625 
Q 18.3125 11.328125 20.140625 9.421875 
Q 21.96875 7.515625 27.59375 7.515625 
L 36.8125 7.515625 
L 36.8125 0 
L 27.59375 0 
Q 17.1875 0 13.234375 3.875 
Q 9.28125 7.765625 9.28125 18.015625 
L 9.28125 47.703125 
L 2.6875 47.703125 
L 2.6875 54.6875 
L 9.28125 54.6875 
L 9.28125 70.21875 
z
" id="DejaVuSans-116"/>
     <path id="DejaVuSans-32"/>
     <path d="M 37.109375 75.984375 
L 37.109375 68.5 
L 28.515625 68.5 
Q 23.6875 68.5 21.796875 66.546875 
Q 19.921875 64.59375 19.921875 59.515625 
L 19.921875 54.6875 
L 34.71875 54.6875 
L 34.71875 47.703125 
L 19.921875 47.703125 
L 19.921875 0 
L 10.890625 0 
L 10.890625 47.703125 
L 2.296875 47.703125 
L 2.296875 54.6875 
L 10.890625 54.6875 
L 10.890625 58.5 
Q 10.890625 67.625 15.140625 71.796875 
Q 19.390625 75.984375 28.609375 75.984375 
z
" id="DejaVuSans-102"/>
     <path d="M 2.984375 54.6875 
L 12.5 54.6875 
L 29.59375 8.796875 
L 46.6875 54.6875 
L 56.203125 54.6875 
L 35.6875 0 
L 23.484375 0 
z
" id="DejaVuSans-118"/>
     <path d="M 10.6875 12.40625 
L 21 12.40625 
L 21 0 
L 10.6875 0 
z
" id="DejaVuSans-46"/>
     <path d="M 56.203125 29.59375 
L 56.203125 25.203125 
L 14.890625 25.203125 
Q 15.484375 15.921875 20.484375 11.0625 
Q 25.484375 6.203125 34.421875 6.203125 
Q 39.59375 6.203125 44.453125 7.46875 
Q 49.3125 8.734375 54.109375 11.28125 
L 54.109375 2.78125 
Q 49.265625 0.734375 44.1875 -0.34375 
Q 39.109375 -1.421875 33.890625 -1.421875 
Q 20.796875 -1.421875 13.15625 6.1875 
Q 5.515625 13.8125 5.515625 26.8125 
Q 5.515625 40.234375 12.765625 48.109375 
Q 20.015625 56 32.328125 56 
Q 43.359375 56 49.78125 48.890625 
Q 56.203125 41.796875 56.203125 29.59375 
z
M 47.21875 32.234375 
Q 47.125 39.59375 43.09375 43.984375 
Q 39.0625 48.390625 32.421875 48.390625 
Q 24.90625 48.390625 20.390625 44.140625 
Q 15.875 39.890625 15.1875 32.171875 
z
" id="DejaVuSans-101"/>
    </defs>
    <g transform="translate(131.775937 35.472)scale(0.12 -0.12)">
     <use xlink:href="#DejaVuSans-65"/>
     <use x="68.408203" xlink:href="#DejaVuSans-115"/>
     <use x="120.507812" xlink:href="#DejaVuSans-115"/>
     <use x="172.607422" xlink:href="#DejaVuSans-111"/>
     <use x="233.789062" xlink:href="#DejaVuSans-99"/>
     <use x="288.769531" xlink:href="#DejaVuSans-105"/>
     <use x="316.552734" xlink:href="#DejaVuSans-97"/>
     <use x="377.832031" xlink:href="#DejaVuSans-116"/>
     <use x="417.041016" xlink:href="#DejaVuSans-105"/>
     <use x="444.824219" xlink:href="#DejaVuSans-111"/>
     <use x="506.005859" xlink:href="#DejaVuSans-110"/>
     <use x="569.384766" xlink:href="#DejaVuSans-32"/>
     <use x="601.171875" xlink:href="#DejaVuSans-111"/>
     <use x="662.353516" xlink:href="#DejaVuSans-102"/>
     <use x="697.558594" xlink:href="#DejaVuSans-32"/>
     <use x="729.345703" xlink:href="#DejaVuSans-98"/>
     <use x="792.822266" xlink:href="#DejaVuSans-117"/>
     <use x="856.201172" xlink:href="#DejaVuSans-110"/>
     <use x="919.580078" xlink:href="#DejaVuSans-97"/>
     <use x="980.859375" xlink:href="#DejaVuSans-100"/>
     <use x="1044.335938" xlink:href="#DejaVuSans-109"/>
     <use x="1141.748047" xlink:href="#DejaVuSans-97"/>
     <use x="1203.027344" xlink:href="#DejaVuSans-99"/>
     <use x="1258.007812" xlink:href="#DejaVuSans-32"/>
     <use x="1289.794922" xlink:href="#DejaVuSans-118"/>
     <use x="1348.974609" xlink:href="#DejaVuSans-115"/>
     <use x="1401.074219" xlink:href="#DejaVuSans-46"/>
     <use x="1432.861328" xlink:href="#DejaVuSans-32"/>
     <use x="1464.648438" xlink:href="#DejaVuSans-101"/>
     <use x="1526.171875" xlink:href="#DejaVuSans-99"/>
     <use x="1581.152344" xlink:href="#DejaVuSans-109"/>
     <use x="1678.564453" xlink:href="#DejaVuSans-111"/>
    </g>
   </g>
   <g id="legend_1">
    <g id="patch_7">
     <path d="M 297.441875 78.82825 
L 407.72 78.82825 
Q 409.72 78.82825 409.72 76.82825 
L 409.72 48.472 
Q 409.72 46.472 407.72 46.472 
L 297.441875 46.472 
Q 295.441875 46.472 295.441875 48.472 
L 295.441875 76.82825 
Q 295.441875 78.82825 297.441875 78.82825 
z
" style="fill:#ffffff;opacity:0.8;stroke:#cccccc;stroke-linejoin:miter;"/>
    </g>
    <g id="line2d_14">
     <path d="M 299.441875 54.570437 
L 319.441875 54.570437 
" style="fill:none;stroke:#ffa500;stroke-linecap:square;stroke-width:1.5;"/>
    </g>
    <g id="line2d_15"/>
    <g id="text_11">
     <!-- ecmo (3) -->
     <defs>
      <path d="M 31 75.875 
Q 24.46875 64.65625 21.28125 53.65625 
Q 18.109375 42.671875 18.109375 31.390625 
Q 18.109375 20.125 21.3125 9.0625 
Q 24.515625 -2 31 -13.1875 
L 23.1875 -13.1875 
Q 15.875 -1.703125 12.234375 9.375 
Q 8.59375 20.453125 8.59375 31.390625 
Q 8.59375 42.28125 12.203125 53.3125 
Q 15.828125 64.359375 23.1875 75.875 
z
" id="DejaVuSans-40"/>
      <path d="M 40.578125 39.3125 
Q 47.65625 37.796875 51.625 33 
Q 55.609375 28.21875 55.609375 21.1875 
Q 55.609375 10.40625 48.1875 4.484375 
Q 40.765625 -1.421875 27.09375 -1.421875 
Q 22.515625 -1.421875 17.65625 -0.515625 
Q 12.796875 0.390625 7.625 2.203125 
L 7.625 11.71875 
Q 11.71875 9.328125 16.59375 8.109375 
Q 21.484375 6.890625 26.8125 6.890625 
Q 36.078125 6.890625 40.9375 10.546875 
Q 45.796875 14.203125 45.796875 21.1875 
Q 45.796875 27.640625 41.28125 31.265625 
Q 36.765625 34.90625 28.71875 34.90625 
L 20.21875 34.90625 
L 20.21875 43.015625 
L 29.109375 43.015625 
Q 36.375 43.015625 40.234375 45.921875 
Q 44.09375 48.828125 44.09375 54.296875 
Q 44.09375 59.90625 40.109375 62.90625 
Q 36.140625 65.921875 28.71875 65.921875 
Q 24.65625 65.921875 20.015625 65.03125 
Q 15.375 64.15625 9.8125 62.3125 
L 9.8125 71.09375 
Q 15.4375 72.65625 20.34375 73.4375 
Q 25.25 74.21875 29.59375 74.21875 
Q 40.828125 74.21875 47.359375 69.109375 
Q 53.90625 64.015625 53.90625 55.328125 
Q 53.90625 49.265625 50.4375 45.09375 
Q 46.96875 40.921875 40.578125 39.3125 
z
" id="DejaVuSans-51"/>
      <path d="M 8.015625 75.875 
L 15.828125 75.875 
Q 23.140625 64.359375 26.78125 53.3125 
Q 30.421875 42.28125 30.421875 31.390625 
Q 30.421875 20.453125 26.78125 9.375 
Q 23.140625 -1.703125 15.828125 -13.1875 
L 8.015625 -13.1875 
Q 14.5 -2 17.703125 9.0625 
Q 20.90625 20.125 20.90625 31.390625 
Q 20.90625 42.671875 17.703125 53.65625 
Q 14.5 64.65625 8.015625 75.875 
z
" id="DejaVuSans-41"/>
     </defs>
     <g transform="translate(327.441875 58.070437)scale(0.1 -0.1)">
      <use xlink:href="#DejaVuSans-101"/>
      <use x="61.523438" xlink:href="#DejaVuSans-99"/>
      <use x="116.503906" xlink:href="#DejaVuSans-109"/>
      <use x="213.916016" xlink:href="#DejaVuSans-111"/>
      <use x="275.097656" xlink:href="#DejaVuSans-32"/>
      <use x="306.884766" xlink:href="#DejaVuSans-40"/>
      <use x="345.898438" xlink:href="#DejaVuSans-51"/>
      <use x="409.521484" xlink:href="#DejaVuSans-41"/>
     </g>
    </g>
    <g id="line2d_16">
     <path d="M 299.441875 69.248562 
L 319.441875 69.248562 
" style="fill:none;stroke:#008000;stroke-linecap:square;stroke-width:1.5;"/>
    </g>
    <g id="line2d_17"/>
    <g id="text_12">
     <!-- Not ecmo (474) -->
     <defs>
      <path d="M 9.8125 72.90625 
L 23.09375 72.90625 
L 55.421875 11.921875 
L 55.421875 72.90625 
L 64.984375 72.90625 
L 64.984375 0 
L 51.703125 0 
L 19.390625 60.984375 
L 19.390625 0 
L 9.8125 0 
z
" id="DejaVuSans-78"/>
      <path d="M 37.796875 64.3125 
L 12.890625 25.390625 
L 37.796875 25.390625 
z
M 35.203125 72.90625 
L 47.609375 72.90625 
L 47.609375 25.390625 
L 58.015625 25.390625 
L 58.015625 17.1875 
L 47.609375 17.1875 
L 47.609375 0 
L 37.796875 0 
L 37.796875 17.1875 
L 4.890625 17.1875 
L 4.890625 26.703125 
z
" id="DejaVuSans-52"/>
     </defs>
     <g transform="translate(327.441875 72.748562)scale(0.1 -0.1)">
      <use xlink:href="#DejaVuSans-78"/>
      <use x="74.804688" xlink:href="#DejaVuSans-111"/>
      <use x="135.986328" xlink:href="#DejaVuSans-116"/>
      <use x="175.195312" xlink:href="#DejaVuSans-32"/>
      <use x="206.982422" xlink:href="#DejaVuSans-101"/>
      <use x="268.505859" xlink:href="#DejaVuSans-99"/>
      <use x="323.486328" xlink:href="#DejaVuSans-109"/>
      <use x="420.898438" xlink:href="#DejaVuSans-111"/>
      <use x="482.080078" xlink:href="#DejaVuSans-32"/>
      <use x="513.867188" xlink:href="#DejaVuSans-40"/>
      <use x="552.880859" xlink:href="#DejaVuSans-52"/>
      <use x="616.503906" xlink:href="#DejaVuSans-55"/>
      <use x="680.126953" xlink:href="#DejaVuSans-52"/>
      <use x="743.75" xlink:href="#DejaVuSans-41"/>
     </g>
    </g>
   </g>
  </g>
 </g>
 <defs>
  <clipPath id="pd8877eddcb">
   <rect height="266.112" width="357.12" x="57.6" y="41.472"/>
  </clipPath>
 </defs>
</svg>
