<?xml version="1.0" encoding="utf-8" standalone="no"?>
<!DOCTYPE svg PUBLIC "-//W3C//DTD SVG 1.1//EN"
  "http://www.w3.org/Graphics/SVG/1.1/DTD/svg11.dtd">
<!-- Created with matplotlib (https://matplotlib.org/) -->
<svg height="345.6pt" version="1.1" viewBox="0 0 460.8 345.6" width="460.8pt" xmlns="http://www.w3.org/2000/svg" xmlns:xlink="http://www.w3.org/1999/xlink">
 <defs>
  <style type="text/css">
*{stroke-linecap:butt;stroke-linejoin:round;}
  </style>
 </defs>
 <g id="figure_1">
  <g id="patch_1">
   <path d="M 0 345.6 
L 460.8 345.6 
L 460.8 0 
L 0 0 
z
" style="fill:#ffffff;"/>
  </g>
  <g id="axes_1">
   <g id="patch_2">
    <path d="M 57.6 307.584 
L 414.72 307.584 
L 414.72 41.472 
L 57.6 41.472 
z
" style="fill:#ffffff;"/>
   </g>
   <g id="PolyCollection_1">
    <defs>
     <path d="M 73.832727 -167.403693 
L 73.832727 -174.740307 
L 76.533104 -176.260764 
L 79.233481 -178.271125 
L 81.933858 -180.870467 
L 84.634234 -184.156267 
L 87.334611 -188.215905 
L 90.034988 -193.116597 
L 92.735365 -198.894593 
L 95.435741 -205.544777 
L 98.136118 -213.012053 
L 100.836495 -221.185972 
L 103.536872 -229.899861 
L 106.237248 -238.935319 
L 108.937625 -248.032327 
L 111.638002 -256.90445 
L 114.338379 -265.25787 
L 117.038755 -272.81233 
L 119.739132 -279.321691 
L 122.439509 -284.591752 
L 125.139886 -288.493255 
L 127.840263 -290.968648 
L 130.540639 -292.032 
L 133.241016 -291.762355 
L 135.941393 -290.291689 
L 138.64177 -287.78922 
L 141.342146 -284.444183 
L 144.042523 -280.449184 
L 146.7429 -275.985974 
L 149.443277 -271.214921 
L 152.143653 -266.268891 
L 154.84403 -261.251503 
L 157.544407 -256.239222 
L 160.244784 -251.286251 
L 162.94516 -246.431008 
L 165.645537 -241.702927 
L 168.345914 -237.128446 
L 171.046291 -232.735391 
L 173.746668 -228.555284 
L 176.447044 -224.623515 
L 179.147421 -220.977636 
L 181.847798 -217.654292 
L 184.548175 -214.685437 
L 187.248551 -212.094507 
L 189.948928 -209.893138 
L 192.649305 -208.07887 
L 195.349682 -206.634118 
L 198.050058 -205.526482 
L 200.750435 -204.710336 
L 203.450812 -204.129502 
L 206.151189 -203.72074 
L 208.851565 -203.417741 
L 211.551942 -203.155286 
L 214.252319 -202.873236 
L 216.952696 -202.520056 
L 219.653072 -202.055592 
L 222.353449 -201.4529 
L 225.053826 -200.698985 
L 227.754203 -199.794418 
L 230.45458 -198.751904 
L 233.154956 -197.59396 
L 235.855333 -196.349963 
L 238.55571 -195.052899 
L 241.256087 -193.736126 
L 243.956463 -192.430493 
L 246.65684 -191.16206 
L 249.357217 -189.950599 
L 252.057594 -188.808942 
L 254.75797 -187.743139 
L 257.458347 -186.753298 
L 260.158724 -185.834911 
L 262.859101 -184.980438 
L 265.559477 -184.180907 
L 268.259854 -183.427332 
L 270.960231 -182.711782 
L 273.660608 -182.028038 
L 276.360985 -181.371791 
L 279.061361 -180.740469 
L 281.761738 -180.132773 
L 284.462115 -179.548066 
L 287.162492 -178.985778 
L 289.862868 -178.44492 
L 292.563245 -177.92383 
L 295.263622 -177.420175 
L 297.963999 -176.931184 
L 300.664375 -176.454079 
L 303.364752 -175.986577 
L 306.065129 -175.527372 
L 308.765506 -175.076487 
L 311.465882 -174.635434 
L 314.166259 -174.207128 
L 316.866636 -173.795598 
L 319.567013 -173.405512 
L 322.267389 -173.041628 
L 324.967766 -172.708234 
L 327.668143 -172.408671 
L 330.36852 -172.145004 
L 333.068897 -171.917863 
L 335.769273 -171.726462 
L 338.46965 -171.56877 
L 341.170027 -171.441778 
L 341.170027 -170.702222 
L 341.170027 -170.702222 
L 338.46965 -170.57523 
L 335.769273 -170.417538 
L 333.068897 -170.226137 
L 330.36852 -169.998996 
L 327.668143 -169.735329 
L 324.967766 -169.435766 
L 322.267389 -169.102372 
L 319.567013 -168.738488 
L 316.866636 -168.348402 
L 314.166259 -167.936872 
L 311.465882 -167.508566 
L 308.765506 -167.067513 
L 306.065129 -166.616628 
L 303.364752 -166.157423 
L 300.664375 -165.689921 
L 297.963999 -165.212816 
L 295.263622 -164.723825 
L 292.563245 -164.22017 
L 289.862868 -163.69908 
L 287.162492 -163.158222 
L 284.462115 -162.595934 
L 281.761738 -162.011227 
L 279.061361 -161.403531 
L 276.360985 -160.772209 
L 273.660608 -160.115962 
L 270.960231 -159.432218 
L 268.259854 -158.716668 
L 265.559477 -157.963093 
L 262.859101 -157.163562 
L 260.158724 -156.309089 
L 257.458347 -155.390702 
L 254.75797 -154.400861 
L 252.057594 -153.335058 
L 249.357217 -152.193401 
L 246.65684 -150.98194 
L 243.956463 -149.713507 
L 241.256087 -148.407874 
L 238.55571 -147.091101 
L 235.855333 -145.794037 
L 233.154956 -144.55004 
L 230.45458 -143.392096 
L 227.754203 -142.349582 
L 225.053826 -141.445015 
L 222.353449 -140.6911 
L 219.653072 -140.088408 
L 216.952696 -139.623944 
L 214.252319 -139.270764 
L 211.551942 -138.988714 
L 208.851565 -138.726259 
L 206.151189 -138.42326 
L 203.450812 -138.014498 
L 200.750435 -137.433664 
L 198.050058 -136.617518 
L 195.349682 -135.509882 
L 192.649305 -134.06513 
L 189.948928 -132.250862 
L 187.248551 -130.049493 
L 184.548175 -127.458563 
L 181.847798 -124.489708 
L 179.147421 -121.166364 
L 176.447044 -117.520485 
L 173.746668 -113.588716 
L 171.046291 -109.408609 
L 168.345914 -105.015554 
L 165.645537 -100.441073 
L 162.94516 -95.712992 
L 160.244784 -90.857749 
L 157.544407 -85.904778 
L 154.84403 -80.892497 
L 152.143653 -75.875109 
L 149.443277 -70.929079 
L 146.7429 -66.158026 
L 144.042523 -61.694816 
L 141.342146 -57.699817 
L 138.64177 -54.35478 
L 135.941393 -51.852311 
L 133.241016 -50.381645 
L 130.540639 -50.112 
L 127.840263 -51.175352 
L 125.139886 -53.650745 
L 122.439509 -57.552248 
L 119.739132 -62.822309 
L 117.038755 -69.33167 
L 114.338379 -76.88613 
L 111.638002 -85.23955 
L 108.937625 -94.111673 
L 106.237248 -103.208681 
L 103.536872 -112.244139 
L 100.836495 -120.958028 
L 98.136118 -129.131947 
L 95.435741 -136.599223 
L 92.735365 -143.249407 
L 90.034988 -149.027403 
L 87.334611 -153.928095 
L 84.634234 -157.987733 
L 81.933858 -161.273533 
L 79.233481 -163.872875 
L 76.533104 -165.883236 
L 73.832727 -167.403693 
z
" id="m01672654f9" style="stroke:#4c4c4c;stroke-opacity:0.5;stroke-width:1.5;"/>
    </defs>
    <g clip-path="url(#pad24ade894)">
     <use style="fill:#df9c20;fill-opacity:0.5;stroke:#4c4c4c;stroke-opacity:0.5;stroke-width:1.5;" x="0" xlink:href="#m01672654f9" y="345.6"/>
    </g>
   </g>
   <g id="PolyCollection_2">
    <defs>
     <path d="M 78.499938 -168.495183 
L 78.499938 -173.648817 
L 81.732133 -175.532327 
L 84.964329 -178.451659 
L 88.196524 -182.750226 
L 91.428719 -188.760308 
L 94.660915 -196.733127 
L 97.89311 -206.755683 
L 101.125305 -218.67208 
L 104.3575 -232.032406 
L 107.589696 -246.091278 
L 110.821891 -259.86921 
L 114.054086 -272.274282 
L 117.286282 -282.263561 
L 120.518477 -289.009508 
L 123.750672 -292.032 
L 126.982868 -291.264181 
L 130.215063 -287.038333 
L 133.447258 -280.000116 
L 136.679453 -270.977959 
L 139.911649 -260.842712 
L 143.143844 -250.389036 
L 146.376039 -240.257438 
L 149.608235 -230.900624 
L 152.84043 -222.586078 
L 156.072625 -215.421642 
L 159.304821 -209.391788 
L 162.537016 -204.396235 
L 165.769211 -200.286347 
L 169.001406 -196.896802 
L 172.233602 -194.070558 
L 175.465797 -191.675568 
L 178.697992 -189.612614 
L 181.930188 -187.815288 
L 185.162383 -186.244443 
L 188.394578 -184.879975 
L 191.626774 -183.712299 
L 194.858969 -182.735036 
L 198.091164 -181.939637 
L 201.323359 -181.31235 
L 204.555555 -180.833604 
L 207.78775 -180.479444 
L 211.019945 -180.223983 
L 214.252141 -180.041387 
L 217.484336 -179.906198 
L 220.716531 -179.791835 
L 223.948727 -179.668499 
L 227.180922 -179.502572 
L 230.413117 -179.259193 
L 233.645312 -178.908235 
L 236.877508 -178.431935 
L 240.109703 -177.83117 
L 243.341898 -177.127516 
L 246.574094 -176.359849 
L 249.806289 -175.576425 
L 253.038484 -174.825157 
L 256.27068 -174.145252 
L 259.502875 -173.56241 
L 262.73507 -173.088104 
L 265.967265 -172.721838 
L 269.199461 -172.454595 
L 272.431656 -172.271964 
L 275.663851 -172.156363 
L 278.896047 -172.088662 
L 282.128242 -172.049907 
L 285.360437 -172.02358 
L 288.592633 -171.998167 
L 291.824828 -171.969278 
L 295.057023 -171.940357 
L 298.289218 -171.921408 
L 301.521414 -171.925817 
L 304.753609 -171.966065 
L 307.985804 -172.049549 
L 311.218 -172.175721 
L 314.450195 -172.33538 
L 317.68239 -172.512291 
L 320.914586 -172.686647 
L 324.146781 -172.839376 
L 327.378976 -172.956115 
L 330.611171 -173.029836 
L 333.843367 -173.061601 
L 337.075562 -173.059435 
L 340.307757 -173.035765 
L 343.539953 -173.004117 
L 346.772148 -172.975767 
L 350.004343 -172.956987 
L 353.236539 -172.947438 
L 356.468734 -172.940107 
L 359.700929 -172.922948 
L 362.933124 -172.881992 
L 366.16532 -172.805201 
L 369.397515 -172.685986 
L 372.62971 -172.525343 
L 375.861906 -172.331921 
L 379.094101 -172.120066 
L 382.326296 -171.906526 
L 385.558492 -171.706914 
L 388.790687 -171.532927 
L 392.022882 -171.390976 
L 395.255077 -171.282261 
L 398.487273 -171.203939 
L 398.487273 -170.940061 
L 398.487273 -170.940061 
L 395.255077 -170.861739 
L 392.022882 -170.753024 
L 388.790687 -170.611073 
L 385.558492 -170.437086 
L 382.326296 -170.237474 
L 379.094101 -170.023934 
L 375.861906 -169.812079 
L 372.62971 -169.618657 
L 369.397515 -169.458014 
L 366.16532 -169.338799 
L 362.933124 -169.262008 
L 359.700929 -169.221052 
L 356.468734 -169.203893 
L 353.236539 -169.196562 
L 350.004343 -169.187013 
L 346.772148 -169.168233 
L 343.539953 -169.139883 
L 340.307757 -169.108235 
L 337.075562 -169.084565 
L 333.843367 -169.082399 
L 330.611171 -169.114164 
L 327.378976 -169.187885 
L 324.146781 -169.304624 
L 320.914586 -169.457353 
L 317.68239 -169.631709 
L 314.450195 -169.80862 
L 311.218 -169.968279 
L 307.985804 -170.094451 
L 304.753609 -170.177935 
L 301.521414 -170.218183 
L 298.289218 -170.222592 
L 295.057023 -170.203643 
L 291.824828 -170.174722 
L 288.592633 -170.145833 
L 285.360437 -170.12042 
L 282.128242 -170.094093 
L 278.896047 -170.055338 
L 275.663851 -169.987637 
L 272.431656 -169.872036 
L 269.199461 -169.689405 
L 265.967265 -169.422162 
L 262.73507 -169.055896 
L 259.502875 -168.58159 
L 256.27068 -167.998748 
L 253.038484 -167.318843 
L 249.806289 -166.567575 
L 246.574094 -165.784151 
L 243.341898 -165.016484 
L 240.109703 -164.31283 
L 236.877508 -163.712065 
L 233.645312 -163.235765 
L 230.413117 -162.884807 
L 227.180922 -162.641428 
L 223.948727 -162.475501 
L 220.716531 -162.352165 
L 217.484336 -162.237802 
L 214.252141 -162.102613 
L 211.019945 -161.920017 
L 207.78775 -161.664556 
L 204.555555 -161.310396 
L 201.323359 -160.83165 
L 198.091164 -160.204363 
L 194.858969 -159.408964 
L 191.626774 -158.431701 
L 188.394578 -157.264025 
L 185.162383 -155.899557 
L 181.930188 -154.328712 
L 178.697992 -152.531386 
L 175.465797 -150.468432 
L 172.233602 -148.073442 
L 169.001406 -145.247198 
L 165.769211 -141.857653 
L 162.537016 -137.747765 
L 159.304821 -132.752212 
L 156.072625 -126.722358 
L 152.84043 -119.557922 
L 149.608235 -111.243376 
L 146.376039 -101.886562 
L 143.143844 -91.754964 
L 139.911649 -81.301288 
L 136.679453 -71.166041 
L 133.447258 -62.143884 
L 130.215063 -55.105667 
L 126.982868 -50.879819 
L 123.750672 -50.112 
L 120.518477 -53.134492 
L 117.286282 -59.880439 
L 114.054086 -69.869718 
L 110.821891 -82.27479 
L 107.589696 -96.052722 
L 104.3575 -110.111594 
L 101.125305 -123.47192 
L 97.89311 -135.388317 
L 94.660915 -145.410873 
L 91.428719 -153.383692 
L 88.196524 -159.393774 
L 84.964329 -163.692341 
L 81.732133 -166.611673 
L 78.499938 -168.495183 
z
" id="mb565c25d90" style="stroke:#262626;stroke-opacity:0.5;stroke-width:1.5;"/>
    </defs>
    <g clip-path="url(#pad24ade894)">
     <use style="fill:#107010;fill-opacity:0.5;stroke:#262626;stroke-opacity:0.5;stroke-width:1.5;" x="0" xlink:href="#mb565c25d90" y="345.6"/>
    </g>
   </g>
   <g id="matplotlib.axis_1">
    <g id="xtick_1">
     <g id="line2d_1">
      <defs>
       <path d="M 0 0 
L 0 3.5 
" id="m6794b41594" style="stroke:#000000;stroke-width:0.8;"/>
      </defs>
      <g>
       <use style="stroke:#000000;stroke-width:0.8;" x="96.529205" xlink:href="#m6794b41594" y="307.584"/>
      </g>
     </g>
     <g id="text_1">
      <!-- 0 -->
      <defs>
       <path d="M 31.78125 66.40625 
Q 24.171875 66.40625 20.328125 58.90625 
Q 16.5 51.421875 16.5 36.375 
Q 16.5 21.390625 20.328125 13.890625 
Q 24.171875 6.390625 31.78125 6.390625 
Q 39.453125 6.390625 43.28125 13.890625 
Q 47.125 21.390625 47.125 36.375 
Q 47.125 51.421875 43.28125 58.90625 
Q 39.453125 66.40625 31.78125 66.40625 
z
M 31.78125 74.21875 
Q 44.046875 74.21875 50.515625 64.515625 
Q 56.984375 54.828125 56.984375 36.375 
Q 56.984375 17.96875 50.515625 8.265625 
Q 44.046875 -1.421875 31.78125 -1.421875 
Q 19.53125 -1.421875 13.0625 8.265625 
Q 6.59375 17.96875 6.59375 36.375 
Q 6.59375 54.828125 13.0625 64.515625 
Q 19.53125 74.21875 31.78125 74.21875 
z
" id="DejaVuSans-48"/>
      </defs>
      <g transform="translate(93.347955 322.182437)scale(0.1 -0.1)">
       <use xlink:href="#DejaVuSans-48"/>
      </g>
     </g>
    </g>
    <g id="xtick_2">
     <g id="line2d_2">
      <g>
       <use style="stroke:#000000;stroke-width:0.8;" x="136.519177" xlink:href="#m6794b41594" y="307.584"/>
      </g>
     </g>
     <g id="text_2">
      <!-- 20 -->
      <defs>
       <path d="M 19.1875 8.296875 
L 53.609375 8.296875 
L 53.609375 0 
L 7.328125 0 
L 7.328125 8.296875 
Q 12.9375 14.109375 22.625 23.890625 
Q 32.328125 33.6875 34.8125 36.53125 
Q 39.546875 41.84375 41.421875 45.53125 
Q 43.3125 49.21875 43.3125 52.78125 
Q 43.3125 58.59375 39.234375 62.25 
Q 35.15625 65.921875 28.609375 65.921875 
Q 23.96875 65.921875 18.8125 64.3125 
Q 13.671875 62.703125 7.8125 59.421875 
L 7.8125 69.390625 
Q 13.765625 71.78125 18.9375 73 
Q 24.125 74.21875 28.421875 74.21875 
Q 39.75 74.21875 46.484375 68.546875 
Q 53.21875 62.890625 53.21875 53.421875 
Q 53.21875 48.921875 51.53125 44.890625 
Q 49.859375 40.875 45.40625 35.40625 
Q 44.1875 33.984375 37.640625 27.21875 
Q 31.109375 20.453125 19.1875 8.296875 
z
" id="DejaVuSans-50"/>
      </defs>
      <g transform="translate(130.156677 322.182437)scale(0.1 -0.1)">
       <use xlink:href="#DejaVuSans-50"/>
       <use x="63.623047" xlink:href="#DejaVuSans-48"/>
      </g>
     </g>
    </g>
    <g id="xtick_3">
     <g id="line2d_3">
      <g>
       <use style="stroke:#000000;stroke-width:0.8;" x="176.509149" xlink:href="#m6794b41594" y="307.584"/>
      </g>
     </g>
     <g id="text_3">
      <!-- 40 -->
      <defs>
       <path d="M 37.796875 64.3125 
L 12.890625 25.390625 
L 37.796875 25.390625 
z
M 35.203125 72.90625 
L 47.609375 72.90625 
L 47.609375 25.390625 
L 58.015625 25.390625 
L 58.015625 17.1875 
L 47.609375 17.1875 
L 47.609375 0 
L 37.796875 0 
L 37.796875 17.1875 
L 4.890625 17.1875 
L 4.890625 26.703125 
z
" id="DejaVuSans-52"/>
      </defs>
      <g transform="translate(170.146649 322.182437)scale(0.1 -0.1)">
       <use xlink:href="#DejaVuSans-52"/>
       <use x="63.623047" xlink:href="#DejaVuSans-48"/>
      </g>
     </g>
    </g>
    <g id="xtick_4">
     <g id="line2d_4">
      <g>
       <use style="stroke:#000000;stroke-width:0.8;" x="216.499121" xlink:href="#m6794b41594" y="307.584"/>
      </g>
     </g>
     <g id="text_4">
      <!-- 60 -->
      <defs>
       <path d="M 33.015625 40.375 
Q 26.375 40.375 22.484375 35.828125 
Q 18.609375 31.296875 18.609375 23.390625 
Q 18.609375 15.53125 22.484375 10.953125 
Q 26.375 6.390625 33.015625 6.390625 
Q 39.65625 6.390625 43.53125 10.953125 
Q 47.40625 15.53125 47.40625 23.390625 
Q 47.40625 31.296875 43.53125 35.828125 
Q 39.65625 40.375 33.015625 40.375 
z
M 52.59375 71.296875 
L 52.59375 62.3125 
Q 48.875 64.0625 45.09375 64.984375 
Q 41.3125 65.921875 37.59375 65.921875 
Q 27.828125 65.921875 22.671875 59.328125 
Q 17.53125 52.734375 16.796875 39.40625 
Q 19.671875 43.65625 24.015625 45.921875 
Q 28.375 48.1875 33.59375 48.1875 
Q 44.578125 48.1875 50.953125 41.515625 
Q 57.328125 34.859375 57.328125 23.390625 
Q 57.328125 12.15625 50.6875 5.359375 
Q 44.046875 -1.421875 33.015625 -1.421875 
Q 20.359375 -1.421875 13.671875 8.265625 
Q 6.984375 17.96875 6.984375 36.375 
Q 6.984375 53.65625 15.1875 63.9375 
Q 23.390625 74.21875 37.203125 74.21875 
Q 40.921875 74.21875 44.703125 73.484375 
Q 48.484375 72.75 52.59375 71.296875 
z
" id="DejaVuSans-54"/>
      </defs>
      <g transform="translate(210.136621 322.182437)scale(0.1 -0.1)">
       <use xlink:href="#DejaVuSans-54"/>
       <use x="63.623047" xlink:href="#DejaVuSans-48"/>
      </g>
     </g>
    </g>
    <g id="xtick_5">
     <g id="line2d_5">
      <g>
       <use style="stroke:#000000;stroke-width:0.8;" x="256.489093" xlink:href="#m6794b41594" y="307.584"/>
      </g>
     </g>
     <g id="text_5">
      <!-- 80 -->
      <defs>
       <path d="M 31.78125 34.625 
Q 24.75 34.625 20.71875 30.859375 
Q 16.703125 27.09375 16.703125 20.515625 
Q 16.703125 13.921875 20.71875 10.15625 
Q 24.75 6.390625 31.78125 6.390625 
Q 38.8125 6.390625 42.859375 10.171875 
Q 46.921875 13.96875 46.921875 20.515625 
Q 46.921875 27.09375 42.890625 30.859375 
Q 38.875 34.625 31.78125 34.625 
z
M 21.921875 38.8125 
Q 15.578125 40.375 12.03125 44.71875 
Q 8.5 49.078125 8.5 55.328125 
Q 8.5 64.0625 14.71875 69.140625 
Q 20.953125 74.21875 31.78125 74.21875 
Q 42.671875 74.21875 48.875 69.140625 
Q 55.078125 64.0625 55.078125 55.328125 
Q 55.078125 49.078125 51.53125 44.71875 
Q 48 40.375 41.703125 38.8125 
Q 48.828125 37.15625 52.796875 32.3125 
Q 56.78125 27.484375 56.78125 20.515625 
Q 56.78125 9.90625 50.3125 4.234375 
Q 43.84375 -1.421875 31.78125 -1.421875 
Q 19.734375 -1.421875 13.25 4.234375 
Q 6.78125 9.90625 6.78125 20.515625 
Q 6.78125 27.484375 10.78125 32.3125 
Q 14.796875 37.15625 21.921875 38.8125 
z
M 18.3125 54.390625 
Q 18.3125 48.734375 21.84375 45.5625 
Q 25.390625 42.390625 31.78125 42.390625 
Q 38.140625 42.390625 41.71875 45.5625 
Q 45.3125 48.734375 45.3125 54.390625 
Q 45.3125 60.0625 41.71875 63.234375 
Q 38.140625 66.40625 31.78125 66.40625 
Q 25.390625 66.40625 21.84375 63.234375 
Q 18.3125 60.0625 18.3125 54.390625 
z
" id="DejaVuSans-56"/>
      </defs>
      <g transform="translate(250.126593 322.182437)scale(0.1 -0.1)">
       <use xlink:href="#DejaVuSans-56"/>
       <use x="63.623047" xlink:href="#DejaVuSans-48"/>
      </g>
     </g>
    </g>
    <g id="xtick_6">
     <g id="line2d_6">
      <g>
       <use style="stroke:#000000;stroke-width:0.8;" x="296.479065" xlink:href="#m6794b41594" y="307.584"/>
      </g>
     </g>
     <g id="text_6">
      <!-- 100 -->
      <defs>
       <path d="M 12.40625 8.296875 
L 28.515625 8.296875 
L 28.515625 63.921875 
L 10.984375 60.40625 
L 10.984375 69.390625 
L 28.421875 72.90625 
L 38.28125 72.90625 
L 38.28125 8.296875 
L 54.390625 8.296875 
L 54.390625 0 
L 12.40625 0 
z
" id="DejaVuSans-49"/>
      </defs>
      <g transform="translate(286.935315 322.182437)scale(0.1 -0.1)">
       <use xlink:href="#DejaVuSans-49"/>
       <use x="63.623047" xlink:href="#DejaVuSans-48"/>
       <use x="127.246094" xlink:href="#DejaVuSans-48"/>
      </g>
     </g>
    </g>
    <g id="xtick_7">
     <g id="line2d_7">
      <g>
       <use style="stroke:#000000;stroke-width:0.8;" x="336.469037" xlink:href="#m6794b41594" y="307.584"/>
      </g>
     </g>
     <g id="text_7">
      <!-- 120 -->
      <g transform="translate(326.925287 322.182437)scale(0.1 -0.1)">
       <use xlink:href="#DejaVuSans-49"/>
       <use x="63.623047" xlink:href="#DejaVuSans-50"/>
       <use x="127.246094" xlink:href="#DejaVuSans-48"/>
      </g>
     </g>
    </g>
    <g id="xtick_8">
     <g id="line2d_8">
      <g>
       <use style="stroke:#000000;stroke-width:0.8;" x="376.459009" xlink:href="#m6794b41594" y="307.584"/>
      </g>
     </g>
     <g id="text_8">
      <!-- 140 -->
      <g transform="translate(366.915259 322.182437)scale(0.1 -0.1)">
       <use xlink:href="#DejaVuSans-49"/>
       <use x="63.623047" xlink:href="#DejaVuSans-52"/>
       <use x="127.246094" xlink:href="#DejaVuSans-48"/>
      </g>
     </g>
    </g>
    <g id="text_9">
     <!-- bunadmac -->
     <defs>
      <path d="M 48.6875 27.296875 
Q 48.6875 37.203125 44.609375 42.84375 
Q 40.53125 48.484375 33.40625 48.484375 
Q 26.265625 48.484375 22.1875 42.84375 
Q 18.109375 37.203125 18.109375 27.296875 
Q 18.109375 17.390625 22.1875 11.75 
Q 26.265625 6.109375 33.40625 6.109375 
Q 40.53125 6.109375 44.609375 11.75 
Q 48.6875 17.390625 48.6875 27.296875 
z
M 18.109375 46.390625 
Q 20.953125 51.265625 25.265625 53.625 
Q 29.59375 56 35.59375 56 
Q 45.5625 56 51.78125 48.09375 
Q 58.015625 40.1875 58.015625 27.296875 
Q 58.015625 14.40625 51.78125 6.484375 
Q 45.5625 -1.421875 35.59375 -1.421875 
Q 29.59375 -1.421875 25.265625 0.953125 
Q 20.953125 3.328125 18.109375 8.203125 
L 18.109375 0 
L 9.078125 0 
L 9.078125 75.984375 
L 18.109375 75.984375 
z
" id="DejaVuSans-98"/>
      <path d="M 8.5 21.578125 
L 8.5 54.6875 
L 17.484375 54.6875 
L 17.484375 21.921875 
Q 17.484375 14.15625 20.5 10.265625 
Q 23.53125 6.390625 29.59375 6.390625 
Q 36.859375 6.390625 41.078125 11.03125 
Q 45.3125 15.671875 45.3125 23.6875 
L 45.3125 54.6875 
L 54.296875 54.6875 
L 54.296875 0 
L 45.3125 0 
L 45.3125 8.40625 
Q 42.046875 3.421875 37.71875 1 
Q 33.40625 -1.421875 27.6875 -1.421875 
Q 18.265625 -1.421875 13.375 4.4375 
Q 8.5 10.296875 8.5 21.578125 
z
M 31.109375 56 
z
" id="DejaVuSans-117"/>
      <path d="M 54.890625 33.015625 
L 54.890625 0 
L 45.90625 0 
L 45.90625 32.71875 
Q 45.90625 40.484375 42.875 44.328125 
Q 39.84375 48.1875 33.796875 48.1875 
Q 26.515625 48.1875 22.3125 43.546875 
Q 18.109375 38.921875 18.109375 30.90625 
L 18.109375 0 
L 9.078125 0 
L 9.078125 54.6875 
L 18.109375 54.6875 
L 18.109375 46.1875 
Q 21.34375 51.125 25.703125 53.5625 
Q 30.078125 56 35.796875 56 
Q 45.21875 56 50.046875 50.171875 
Q 54.890625 44.34375 54.890625 33.015625 
z
" id="DejaVuSans-110"/>
      <path d="M 34.28125 27.484375 
Q 23.390625 27.484375 19.1875 25 
Q 14.984375 22.515625 14.984375 16.5 
Q 14.984375 11.71875 18.140625 8.90625 
Q 21.296875 6.109375 26.703125 6.109375 
Q 34.1875 6.109375 38.703125 11.40625 
Q 43.21875 16.703125 43.21875 25.484375 
L 43.21875 27.484375 
z
M 52.203125 31.203125 
L 52.203125 0 
L 43.21875 0 
L 43.21875 8.296875 
Q 40.140625 3.328125 35.546875 0.953125 
Q 30.953125 -1.421875 24.3125 -1.421875 
Q 15.921875 -1.421875 10.953125 3.296875 
Q 6 8.015625 6 15.921875 
Q 6 25.140625 12.171875 29.828125 
Q 18.359375 34.515625 30.609375 34.515625 
L 43.21875 34.515625 
L 43.21875 35.40625 
Q 43.21875 41.609375 39.140625 45 
Q 35.0625 48.390625 27.6875 48.390625 
Q 23 48.390625 18.546875 47.265625 
Q 14.109375 46.140625 10.015625 43.890625 
L 10.015625 52.203125 
Q 14.9375 54.109375 19.578125 55.046875 
Q 24.21875 56 28.609375 56 
Q 40.484375 56 46.34375 49.84375 
Q 52.203125 43.703125 52.203125 31.203125 
z
" id="DejaVuSans-97"/>
      <path d="M 45.40625 46.390625 
L 45.40625 75.984375 
L 54.390625 75.984375 
L 54.390625 0 
L 45.40625 0 
L 45.40625 8.203125 
Q 42.578125 3.328125 38.25 0.953125 
Q 33.9375 -1.421875 27.875 -1.421875 
Q 17.96875 -1.421875 11.734375 6.484375 
Q 5.515625 14.40625 5.515625 27.296875 
Q 5.515625 40.1875 11.734375 48.09375 
Q 17.96875 56 27.875 56 
Q 33.9375 56 38.25 53.625 
Q 42.578125 51.265625 45.40625 46.390625 
z
M 14.796875 27.296875 
Q 14.796875 17.390625 18.875 11.75 
Q 22.953125 6.109375 30.078125 6.109375 
Q 37.203125 6.109375 41.296875 11.75 
Q 45.40625 17.390625 45.40625 27.296875 
Q 45.40625 37.203125 41.296875 42.84375 
Q 37.203125 48.484375 30.078125 48.484375 
Q 22.953125 48.484375 18.875 42.84375 
Q 14.796875 37.203125 14.796875 27.296875 
z
" id="DejaVuSans-100"/>
      <path d="M 52 44.1875 
Q 55.375 50.25 60.0625 53.125 
Q 64.75 56 71.09375 56 
Q 79.640625 56 84.28125 50.015625 
Q 88.921875 44.046875 88.921875 33.015625 
L 88.921875 0 
L 79.890625 0 
L 79.890625 32.71875 
Q 79.890625 40.578125 77.09375 44.375 
Q 74.3125 48.1875 68.609375 48.1875 
Q 61.625 48.1875 57.5625 43.546875 
Q 53.515625 38.921875 53.515625 30.90625 
L 53.515625 0 
L 44.484375 0 
L 44.484375 32.71875 
Q 44.484375 40.625 41.703125 44.40625 
Q 38.921875 48.1875 33.109375 48.1875 
Q 26.21875 48.1875 22.15625 43.53125 
Q 18.109375 38.875 18.109375 30.90625 
L 18.109375 0 
L 9.078125 0 
L 9.078125 54.6875 
L 18.109375 54.6875 
L 18.109375 46.1875 
Q 21.1875 51.21875 25.484375 53.609375 
Q 29.78125 56 35.6875 56 
Q 41.65625 56 45.828125 52.96875 
Q 50 49.953125 52 44.1875 
z
" id="DejaVuSans-109"/>
      <path d="M 48.78125 52.59375 
L 48.78125 44.1875 
Q 44.96875 46.296875 41.140625 47.34375 
Q 37.3125 48.390625 33.40625 48.390625 
Q 24.65625 48.390625 19.8125 42.84375 
Q 14.984375 37.3125 14.984375 27.296875 
Q 14.984375 17.28125 19.8125 11.734375 
Q 24.65625 6.203125 33.40625 6.203125 
Q 37.3125 6.203125 41.140625 7.25 
Q 44.96875 8.296875 48.78125 10.40625 
L 48.78125 2.09375 
Q 45.015625 0.34375 40.984375 -0.53125 
Q 36.96875 -1.421875 32.421875 -1.421875 
Q 20.0625 -1.421875 12.78125 6.34375 
Q 5.515625 14.109375 5.515625 27.296875 
Q 5.515625 40.671875 12.859375 48.328125 
Q 20.21875 56 33.015625 56 
Q 37.15625 56 41.109375 55.140625 
Q 45.0625 54.296875 48.78125 52.59375 
z
" id="DejaVuSans-99"/>
     </defs>
     <g transform="translate(209.726406 335.860562)scale(0.1 -0.1)">
      <use xlink:href="#DejaVuSans-98"/>
      <use x="63.476562" xlink:href="#DejaVuSans-117"/>
      <use x="126.855469" xlink:href="#DejaVuSans-110"/>
      <use x="190.234375" xlink:href="#DejaVuSans-97"/>
      <use x="251.513672" xlink:href="#DejaVuSans-100"/>
      <use x="314.990234" xlink:href="#DejaVuSans-109"/>
      <use x="412.402344" xlink:href="#DejaVuSans-97"/>
      <use x="473.681641" xlink:href="#DejaVuSans-99"/>
     </g>
    </g>
   </g>
   <g id="matplotlib.axis_2">
    <g id="ytick_1">
     <g id="line2d_9">
      <defs>
       <path d="M 0 0 
L -3.5 0 
" id="m2c6f96512a" style="stroke:#000000;stroke-width:0.8;"/>
      </defs>
      <g>
       <use style="stroke:#000000;stroke-width:0.8;" x="57.6" xlink:href="#m2c6f96512a" y="174.528"/>
      </g>
     </g>
    </g>
   </g>
   <g id="line2d_10">
    <path clip-path="url(#pad24ade894)" d="M 110.525695 174.528 
L 252.490096 174.528 
" style="fill:none;stroke:#ffa500;stroke-linecap:square;stroke-width:1.5;"/>
   </g>
   <g id="line2d_11">
    <path clip-path="url(#pad24ade894)" d="M 123.022561 174.528 
L 177.508898 174.528 
" style="fill:none;stroke:#4c4c4c;stroke-linecap:square;stroke-width:4.5;"/>
   </g>
   <g id="line2d_12">
    <path clip-path="url(#pad24ade894)" d="M 106.526698 174.528 
L 190.505639 174.528 
" style="fill:none;stroke:#008000;stroke-linecap:square;stroke-width:1.5;"/>
   </g>
   <g id="line2d_13">
    <path clip-path="url(#pad24ade894)" d="M 118.523689 174.528 
L 148.516168 174.528 
" style="fill:none;stroke:#262626;stroke-linecap:square;stroke-width:4.5;"/>
   </g>
   <g id="patch_3">
    <path d="M 57.6 307.584 
L 57.6 41.472 
" style="fill:none;stroke:#000000;stroke-linecap:square;stroke-linejoin:miter;stroke-width:0.8;"/>
   </g>
   <g id="patch_4">
    <path d="M 414.72 307.584 
L 414.72 41.472 
" style="fill:none;stroke:#000000;stroke-linecap:square;stroke-linejoin:miter;stroke-width:0.8;"/>
   </g>
   <g id="patch_5">
    <path d="M 57.6 307.584 
L 414.72 307.584 
" style="fill:none;stroke:#000000;stroke-linecap:square;stroke-linejoin:miter;stroke-width:0.8;"/>
   </g>
   <g id="patch_6">
    <path d="M 57.6 41.472 
L 414.72 41.472 
" style="fill:none;stroke:#000000;stroke-linecap:square;stroke-linejoin:miter;stroke-width:0.8;"/>
   </g>
   <g id="PathCollection_1">
    <defs>
     <path d="M 0 1.5 
C 0.397805 1.5 0.77937 1.341951 1.06066 1.06066 
C 1.341951 0.77937 1.5 0.397805 1.5 0 
C 1.5 -0.397805 1.341951 -0.77937 1.06066 -1.06066 
C 0.77937 -1.341951 0.397805 -1.5 0 -1.5 
C -0.397805 -1.5 -0.77937 -1.341951 -1.06066 -1.06066 
C -1.341951 -0.77937 -1.5 -0.397805 -1.5 0 
C -1.5 0.397805 -1.341951 0.77937 -1.06066 1.06066 
C -0.77937 1.341951 -0.397805 1.5 0 1.5 
z
" id="mf0ea09ff16" style="stroke:#4c4c4c;stroke-opacity:0.5;"/>
    </defs>
    <g clip-path="url(#pad24ade894)">
     <use style="fill:#ffffff;fill-opacity:0.5;stroke:#4c4c4c;stroke-opacity:0.5;" x="143.517422" xlink:href="#mf0ea09ff16" y="174.528"/>
    </g>
   </g>
   <g id="PathCollection_2">
    <defs>
     <path d="M 0 1.5 
C 0.397805 1.5 0.77937 1.341951 1.06066 1.06066 
C 1.341951 0.77937 1.5 0.397805 1.5 0 
C 1.5 -0.397805 1.341951 -0.77937 1.06066 -1.06066 
C 0.77937 -1.341951 0.397805 -1.5 0 -1.5 
C -0.397805 -1.5 -0.77937 -1.341951 -1.06066 -1.06066 
C -1.341951 -0.77937 -1.5 -0.397805 -1.5 0 
C -1.5 0.397805 -1.341951 0.77937 -1.06066 1.06066 
C -0.77937 1.341951 -0.397805 1.5 0 1.5 
z
" id="me42aeb834a" style="stroke:#262626;stroke-opacity:0.5;"/>
    </defs>
    <g clip-path="url(#pad24ade894)">
     <use style="fill:#ffffff;fill-opacity:0.5;stroke:#262626;stroke-opacity:0.5;" x="128.521182" xlink:href="#me42aeb834a" y="174.528"/>
    </g>
   </g>
   <g id="text_10">
    <!-- Association of bunadmac vs. intubation -->
    <defs>
     <path d="M 34.1875 63.1875 
L 20.796875 26.90625 
L 47.609375 26.90625 
z
M 28.609375 72.90625 
L 39.796875 72.90625 
L 67.578125 0 
L 57.328125 0 
L 50.6875 18.703125 
L 17.828125 18.703125 
L 11.1875 0 
L 0.78125 0 
z
" id="DejaVuSans-65"/>
     <path d="M 44.28125 53.078125 
L 44.28125 44.578125 
Q 40.484375 46.53125 36.375 47.5 
Q 32.28125 48.484375 27.875 48.484375 
Q 21.1875 48.484375 17.84375 46.4375 
Q 14.5 44.390625 14.5 40.28125 
Q 14.5 37.15625 16.890625 35.375 
Q 19.28125 33.59375 26.515625 31.984375 
L 29.59375 31.296875 
Q 39.15625 29.25 43.1875 25.515625 
Q 47.21875 21.78125 47.21875 15.09375 
Q 47.21875 7.46875 41.1875 3.015625 
Q 35.15625 -1.421875 24.609375 -1.421875 
Q 20.21875 -1.421875 15.453125 -0.5625 
Q 10.6875 0.296875 5.421875 2 
L 5.421875 11.28125 
Q 10.40625 8.6875 15.234375 7.390625 
Q 20.0625 6.109375 24.8125 6.109375 
Q 31.15625 6.109375 34.5625 8.28125 
Q 37.984375 10.453125 37.984375 14.40625 
Q 37.984375 18.0625 35.515625 20.015625 
Q 33.0625 21.96875 24.703125 23.78125 
L 21.578125 24.515625 
Q 13.234375 26.265625 9.515625 29.90625 
Q 5.8125 33.546875 5.8125 39.890625 
Q 5.8125 47.609375 11.28125 51.796875 
Q 16.75 56 26.8125 56 
Q 31.78125 56 36.171875 55.265625 
Q 40.578125 54.546875 44.28125 53.078125 
z
" id="DejaVuSans-115"/>
     <path d="M 30.609375 48.390625 
Q 23.390625 48.390625 19.1875 42.75 
Q 14.984375 37.109375 14.984375 27.296875 
Q 14.984375 17.484375 19.15625 11.84375 
Q 23.34375 6.203125 30.609375 6.203125 
Q 37.796875 6.203125 41.984375 11.859375 
Q 46.1875 17.53125 46.1875 27.296875 
Q 46.1875 37.015625 41.984375 42.703125 
Q 37.796875 48.390625 30.609375 48.390625 
z
M 30.609375 56 
Q 42.328125 56 49.015625 48.375 
Q 55.71875 40.765625 55.71875 27.296875 
Q 55.71875 13.875 49.015625 6.21875 
Q 42.328125 -1.421875 30.609375 -1.421875 
Q 18.84375 -1.421875 12.171875 6.21875 
Q 5.515625 13.875 5.515625 27.296875 
Q 5.515625 40.765625 12.171875 48.375 
Q 18.84375 56 30.609375 56 
z
" id="DejaVuSans-111"/>
     <path d="M 9.421875 54.6875 
L 18.40625 54.6875 
L 18.40625 0 
L 9.421875 0 
z
M 9.421875 75.984375 
L 18.40625 75.984375 
L 18.40625 64.59375 
L 9.421875 64.59375 
z
" id="DejaVuSans-105"/>
     <path d="M 18.3125 70.21875 
L 18.3125 54.6875 
L 36.8125 54.6875 
L 36.8125 47.703125 
L 18.3125 47.703125 
L 18.3125 18.015625 
Q 18.3125 11.328125 20.140625 9.421875 
Q 21.96875 7.515625 27.59375 7.515625 
L 36.8125 7.515625 
L 36.8125 0 
L 27.59375 0 
Q 17.1875 0 13.234375 3.875 
Q 9.28125 7.765625 9.28125 18.015625 
L 9.28125 47.703125 
L 2.6875 47.703125 
L 2.6875 54.6875 
L 9.28125 54.6875 
L 9.28125 70.21875 
z
" id="DejaVuSans-116"/>
     <path id="DejaVuSans-32"/>
     <path d="M 37.109375 75.984375 
L 37.109375 68.5 
L 28.515625 68.5 
Q 23.6875 68.5 21.796875 66.546875 
Q 19.921875 64.59375 19.921875 59.515625 
L 19.921875 54.6875 
L 34.71875 54.6875 
L 34.71875 47.703125 
L 19.921875 47.703125 
L 19.921875 0 
L 10.890625 0 
L 10.890625 47.703125 
L 2.296875 47.703125 
L 2.296875 54.6875 
L 10.890625 54.6875 
L 10.890625 58.5 
Q 10.890625 67.625 15.140625 71.796875 
Q 19.390625 75.984375 28.609375 75.984375 
z
" id="DejaVuSans-102"/>
     <path d="M 2.984375 54.6875 
L 12.5 54.6875 
L 29.59375 8.796875 
L 46.6875 54.6875 
L 56.203125 54.6875 
L 35.6875 0 
L 23.484375 0 
z
" id="DejaVuSans-118"/>
     <path d="M 10.6875 12.40625 
L 21 12.40625 
L 21 0 
L 10.6875 0 
z
" id="DejaVuSans-46"/>
    </defs>
    <g transform="translate(117.679688 35.472)scale(0.12 -0.12)">
     <use xlink:href="#DejaVuSans-65"/>
     <use x="68.408203" xlink:href="#DejaVuSans-115"/>
     <use x="120.507812" xlink:href="#DejaVuSans-115"/>
     <use x="172.607422" xlink:href="#DejaVuSans-111"/>
     <use x="233.789062" xlink:href="#DejaVuSans-99"/>
     <use x="288.769531" xlink:href="#DejaVuSans-105"/>
     <use x="316.552734" xlink:href="#DejaVuSans-97"/>
     <use x="377.832031" xlink:href="#DejaVuSans-116"/>
     <use x="417.041016" xlink:href="#DejaVuSans-105"/>
     <use x="444.824219" xlink:href="#DejaVuSans-111"/>
     <use x="506.005859" xlink:href="#DejaVuSans-110"/>
     <use x="569.384766" xlink:href="#DejaVuSans-32"/>
     <use x="601.171875" xlink:href="#DejaVuSans-111"/>
     <use x="662.353516" xlink:href="#DejaVuSans-102"/>
     <use x="697.558594" xlink:href="#DejaVuSans-32"/>
     <use x="729.345703" xlink:href="#DejaVuSans-98"/>
     <use x="792.822266" xlink:href="#DejaVuSans-117"/>
     <use x="856.201172" xlink:href="#DejaVuSans-110"/>
     <use x="919.580078" xlink:href="#DejaVuSans-97"/>
     <use x="980.859375" xlink:href="#DejaVuSans-100"/>
     <use x="1044.335938" xlink:href="#DejaVuSans-109"/>
     <use x="1141.748047" xlink:href="#DejaVuSans-97"/>
     <use x="1203.027344" xlink:href="#DejaVuSans-99"/>
     <use x="1258.007812" xlink:href="#DejaVuSans-32"/>
     <use x="1289.794922" xlink:href="#DejaVuSans-118"/>
     <use x="1348.974609" xlink:href="#DejaVuSans-115"/>
     <use x="1401.074219" xlink:href="#DejaVuSans-46"/>
     <use x="1432.861328" xlink:href="#DejaVuSans-32"/>
     <use x="1464.648438" xlink:href="#DejaVuSans-105"/>
     <use x="1492.431641" xlink:href="#DejaVuSans-110"/>
     <use x="1555.810547" xlink:href="#DejaVuSans-116"/>
     <use x="1595.019531" xlink:href="#DejaVuSans-117"/>
     <use x="1658.398438" xlink:href="#DejaVuSans-98"/>
     <use x="1721.875" xlink:href="#DejaVuSans-97"/>
     <use x="1783.154297" xlink:href="#DejaVuSans-116"/>
     <use x="1822.363281" xlink:href="#DejaVuSans-105"/>
     <use x="1850.146484" xlink:href="#DejaVuSans-111"/>
     <use x="1911.328125" xlink:href="#DejaVuSans-110"/>
    </g>
   </g>
   <g id="legend_1">
    <g id="patch_7">
     <path d="M 273.948125 78.82825 
L 407.72 78.82825 
Q 409.72 78.82825 409.72 76.82825 
L 409.72 48.472 
Q 409.72 46.472 407.72 46.472 
L 273.948125 46.472 
Q 271.948125 46.472 271.948125 48.472 
L 271.948125 76.82825 
Q 271.948125 78.82825 273.948125 78.82825 
z
" style="fill:#ffffff;opacity:0.8;stroke:#cccccc;stroke-linejoin:miter;"/>
    </g>
    <g id="line2d_14">
     <path d="M 275.948125 54.570437 
L 295.948125 54.570437 
" style="fill:none;stroke:#ffa500;stroke-linecap:square;stroke-width:1.5;"/>
    </g>
    <g id="line2d_15"/>
    <g id="text_11">
     <!-- intubation (90) -->
     <defs>
      <path d="M 31 75.875 
Q 24.46875 64.65625 21.28125 53.65625 
Q 18.109375 42.671875 18.109375 31.390625 
Q 18.109375 20.125 21.3125 9.0625 
Q 24.515625 -2 31 -13.1875 
L 23.1875 -13.1875 
Q 15.875 -1.703125 12.234375 9.375 
Q 8.59375 20.453125 8.59375 31.390625 
Q 8.59375 42.28125 12.203125 53.3125 
Q 15.828125 64.359375 23.1875 75.875 
z
" id="DejaVuSans-40"/>
      <path d="M 10.984375 1.515625 
L 10.984375 10.5 
Q 14.703125 8.734375 18.5 7.8125 
Q 22.3125 6.890625 25.984375 6.890625 
Q 35.75 6.890625 40.890625 13.453125 
Q 46.046875 20.015625 46.78125 33.40625 
Q 43.953125 29.203125 39.59375 26.953125 
Q 35.25 24.703125 29.984375 24.703125 
Q 19.046875 24.703125 12.671875 31.3125 
Q 6.296875 37.9375 6.296875 49.421875 
Q 6.296875 60.640625 12.9375 67.421875 
Q 19.578125 74.21875 30.609375 74.21875 
Q 43.265625 74.21875 49.921875 64.515625 
Q 56.59375 54.828125 56.59375 36.375 
Q 56.59375 19.140625 48.40625 8.859375 
Q 40.234375 -1.421875 26.421875 -1.421875 
Q 22.703125 -1.421875 18.890625 -0.6875 
Q 15.09375 0.046875 10.984375 1.515625 
z
M 30.609375 32.421875 
Q 37.25 32.421875 41.125 36.953125 
Q 45.015625 41.5 45.015625 49.421875 
Q 45.015625 57.28125 41.125 61.84375 
Q 37.25 66.40625 30.609375 66.40625 
Q 23.96875 66.40625 20.09375 61.84375 
Q 16.21875 57.28125 16.21875 49.421875 
Q 16.21875 41.5 20.09375 36.953125 
Q 23.96875 32.421875 30.609375 32.421875 
z
" id="DejaVuSans-57"/>
      <path d="M 8.015625 75.875 
L 15.828125 75.875 
Q 23.140625 64.359375 26.78125 53.3125 
Q 30.421875 42.28125 30.421875 31.390625 
Q 30.421875 20.453125 26.78125 9.375 
Q 23.140625 -1.703125 15.828125 -13.1875 
L 8.015625 -13.1875 
Q 14.5 -2 17.703125 9.0625 
Q 20.90625 20.125 20.90625 31.390625 
Q 20.90625 42.671875 17.703125 53.65625 
Q 14.5 64.65625 8.015625 75.875 
z
" id="DejaVuSans-41"/>
     </defs>
     <g transform="translate(303.948125 58.070437)scale(0.1 -0.1)">
      <use xlink:href="#DejaVuSans-105"/>
      <use x="27.783203" xlink:href="#DejaVuSans-110"/>
      <use x="91.162109" xlink:href="#DejaVuSans-116"/>
      <use x="130.371094" xlink:href="#DejaVuSans-117"/>
      <use x="193.75" xlink:href="#DejaVuSans-98"/>
      <use x="257.226562" xlink:href="#DejaVuSans-97"/>
      <use x="318.505859" xlink:href="#DejaVuSans-116"/>
      <use x="357.714844" xlink:href="#DejaVuSans-105"/>
      <use x="385.498047" xlink:href="#DejaVuSans-111"/>
      <use x="446.679688" xlink:href="#DejaVuSans-110"/>
      <use x="510.058594" xlink:href="#DejaVuSans-32"/>
      <use x="541.845703" xlink:href="#DejaVuSans-40"/>
      <use x="580.859375" xlink:href="#DejaVuSans-57"/>
      <use x="644.482422" xlink:href="#DejaVuSans-48"/>
      <use x="708.105469" xlink:href="#DejaVuSans-41"/>
     </g>
    </g>
    <g id="line2d_16">
     <path d="M 275.948125 69.248562 
L 295.948125 69.248562 
" style="fill:none;stroke:#008000;stroke-linecap:square;stroke-width:1.5;"/>
    </g>
    <g id="line2d_17"/>
    <g id="text_12">
     <!-- Not intubation (257) -->
     <defs>
      <path d="M 9.8125 72.90625 
L 23.09375 72.90625 
L 55.421875 11.921875 
L 55.421875 72.90625 
L 64.984375 72.90625 
L 64.984375 0 
L 51.703125 0 
L 19.390625 60.984375 
L 19.390625 0 
L 9.8125 0 
z
" id="DejaVuSans-78"/>
      <path d="M 10.796875 72.90625 
L 49.515625 72.90625 
L 49.515625 64.59375 
L 19.828125 64.59375 
L 19.828125 46.734375 
Q 21.96875 47.46875 24.109375 47.828125 
Q 26.265625 48.1875 28.421875 48.1875 
Q 40.625 48.1875 47.75 41.5 
Q 54.890625 34.8125 54.890625 23.390625 
Q 54.890625 11.625 47.5625 5.09375 
Q 40.234375 -1.421875 26.90625 -1.421875 
Q 22.3125 -1.421875 17.546875 -0.640625 
Q 12.796875 0.140625 7.71875 1.703125 
L 7.71875 11.625 
Q 12.109375 9.234375 16.796875 8.0625 
Q 21.484375 6.890625 26.703125 6.890625 
Q 35.15625 6.890625 40.078125 11.328125 
Q 45.015625 15.765625 45.015625 23.390625 
Q 45.015625 31 40.078125 35.4375 
Q 35.15625 39.890625 26.703125 39.890625 
Q 22.75 39.890625 18.8125 39.015625 
Q 14.890625 38.140625 10.796875 36.28125 
z
" id="DejaVuSans-53"/>
      <path d="M 8.203125 72.90625 
L 55.078125 72.90625 
L 55.078125 68.703125 
L 28.609375 0 
L 18.3125 0 
L 43.21875 64.59375 
L 8.203125 64.59375 
z
" id="DejaVuSans-55"/>
     </defs>
     <g transform="translate(303.948125 72.748562)scale(0.1 -0.1)">
      <use xlink:href="#DejaVuSans-78"/>
      <use x="74.804688" xlink:href="#DejaVuSans-111"/>
      <use x="135.986328" xlink:href="#DejaVuSans-116"/>
      <use x="175.195312" xlink:href="#DejaVuSans-32"/>
      <use x="206.982422" xlink:href="#DejaVuSans-105"/>
      <use x="234.765625" xlink:href="#DejaVuSans-110"/>
      <use x="298.144531" xlink:href="#DejaVuSans-116"/>
      <use x="337.353516" xlink:href="#DejaVuSans-117"/>
      <use x="400.732422" xlink:href="#DejaVuSans-98"/>
      <use x="464.208984" xlink:href="#DejaVuSans-97"/>
      <use x="525.488281" xlink:href="#DejaVuSans-116"/>
      <use x="564.697266" xlink:href="#DejaVuSans-105"/>
      <use x="592.480469" xlink:href="#DejaVuSans-111"/>
      <use x="653.662109" xlink:href="#DejaVuSans-110"/>
      <use x="717.041016" xlink:href="#DejaVuSans-32"/>
      <use x="748.828125" xlink:href="#DejaVuSans-40"/>
      <use x="787.841797" xlink:href="#DejaVuSans-50"/>
      <use x="851.464844" xlink:href="#DejaVuSans-53"/>
      <use x="915.087891" xlink:href="#DejaVuSans-55"/>
      <use x="978.710938" xlink:href="#DejaVuSans-41"/>
     </g>
    </g>
   </g>
  </g>
 </g>
 <defs>
  <clipPath id="pad24ade894">
   <rect height="266.112" width="357.12" x="57.6" y="41.472"/>
  </clipPath>
 </defs>
</svg>
