<?xml version="1.0" encoding="utf-8" standalone="no"?>
<!DOCTYPE svg PUBLIC "-//W3C//DTD SVG 1.1//EN"
  "http://www.w3.org/Graphics/SVG/1.1/DTD/svg11.dtd">
<!-- Created with matplotlib (https://matplotlib.org/) -->
<svg height="345.6pt" version="1.1" viewBox="0 0 460.8 345.6" width="460.8pt" xmlns="http://www.w3.org/2000/svg" xmlns:xlink="http://www.w3.org/1999/xlink">
 <defs>
  <style type="text/css">
*{stroke-linecap:butt;stroke-linejoin:round;}
  </style>
 </defs>
 <g id="figure_1">
  <g id="patch_1">
   <path d="M 0 345.6 
L 460.8 345.6 
L 460.8 0 
L 0 0 
z
" style="fill:#ffffff;"/>
  </g>
  <g id="axes_1">
   <g id="patch_2">
    <path d="M 57.6 307.584 
L 414.72 307.584 
L 414.72 41.472 
L 57.6 41.472 
z
" style="fill:#ffffff;"/>
   </g>
   <g id="PolyCollection_1">
    <defs>
     <path d="M 73.832727 -168.98678 
L 73.832727 -173.15722 
L 77.112066 -173.781054 
L 80.391405 -174.534175 
L 83.670744 -175.424752 
L 86.950083 -176.455766 
L 90.229421 -177.623614 
L 93.50876 -178.917023 
L 96.788099 -180.316508 
L 100.067438 -181.794559 
L 103.346777 -183.316718 
L 106.626116 -184.843621 
L 109.905455 -186.333969 
L 113.184793 -187.74829 
L 116.464132 -189.053198 
L 119.743471 -190.225792 
L 123.02281 -191.257726 
L 126.302149 -192.158481 
L 129.581488 -192.957387 
L 132.860826 -193.704037 
L 136.140165 -194.466862 
L 139.419504 -195.329819 
L 142.698843 -196.387315 
L 145.978182 -197.73771 
L 149.257521 -199.475853 
L 152.53686 -201.685301 
L 155.816198 -204.43085 
L 159.095537 -207.7521 
L 162.374876 -211.658652 
L 165.654215 -216.127448 
L 168.933554 -221.102584 
L 172.212893 -226.497708 
L 175.492231 -232.200902 
L 178.77157 -238.081688 
L 182.050909 -243.999611 
L 185.330248 -249.813676 
L 188.609587 -255.391817 
L 191.888926 -260.619552 
L 195.168264 -265.40704 
L 198.447603 -269.693906 
L 201.726942 -273.451403 
L 205.006281 -276.681754 
L 208.28562 -279.414781 
L 211.564959 -281.702217 
L 214.844298 -283.610299 
L 218.123636 -285.211398 
L 221.402975 -286.575527 
L 224.682314 -287.762515 
L 227.961653 -288.815556 
L 231.240992 -289.756651 
L 234.520331 -290.584269 
L 237.799669 -291.273302 
L 241.079008 -291.777202 
L 244.358347 -292.032 
L 247.637686 -291.961769 
L 250.917025 -291.485039 
L 254.196364 -290.521621 
L 257.475702 -288.999323 
L 260.755041 -286.860099 
L 264.03438 -284.065214 
L 267.313719 -280.599139 
L 270.593058 -276.471934 
L 273.872397 -271.720017 
L 277.151736 -266.405305 
L 280.431074 -260.612806 
L 283.710413 -254.44684 
L 286.989752 -248.02616 
L 290.269091 -241.478288 
L 293.54843 -234.933442 
L 296.827769 -228.518425 
L 300.107107 -222.350849 
L 303.386446 -216.534042 
L 306.665785 -211.152885 
L 309.945124 -206.270824 
L 313.224463 -201.928145 
L 316.503802 -198.1416 
L 319.78314 -194.905316 
L 323.062479 -192.192906 
L 326.341818 -189.960594 
L 329.621157 -188.151127 
L 332.900496 -186.698194 
L 336.179835 -185.531054 
L 339.459174 -184.579051 
L 342.738512 -183.775714 
L 346.017851 -183.062193 
L 349.29719 -182.389806 
L 352.576529 -181.721592 
L 355.855868 -181.032833 
L 359.135207 -180.310584 
L 362.414545 -179.552388 
L 365.693884 -178.764342 
L 368.973223 -177.958795 
L 372.252562 -177.151904 
L 375.531901 -176.361308 
L 378.81124 -175.604095 
L 382.090579 -174.895221 
L 385.369917 -174.24642 
L 388.649256 -173.665645 
L 391.928595 -173.156961 
L 395.207934 -172.720825 
L 398.487273 -172.354631 
L 398.487273 -169.789369 
L 398.487273 -169.789369 
L 395.207934 -169.423175 
L 391.928595 -168.987039 
L 388.649256 -168.478355 
L 385.369917 -167.89758 
L 382.090579 -167.248779 
L 378.81124 -166.539905 
L 375.531901 -165.782692 
L 372.252562 -164.992096 
L 368.973223 -164.185205 
L 365.693884 -163.379658 
L 362.414545 -162.591612 
L 359.135207 -161.833416 
L 355.855868 -161.111167 
L 352.576529 -160.422408 
L 349.29719 -159.754194 
L 346.017851 -159.081807 
L 342.738512 -158.368286 
L 339.459174 -157.564949 
L 336.179835 -156.612946 
L 332.900496 -155.445806 
L 329.621157 -153.992873 
L 326.341818 -152.183406 
L 323.062479 -149.951094 
L 319.78314 -147.238684 
L 316.503802 -144.0024 
L 313.224463 -140.215855 
L 309.945124 -135.873176 
L 306.665785 -130.991115 
L 303.386446 -125.609958 
L 300.107107 -119.793151 
L 296.827769 -113.625575 
L 293.54843 -107.210558 
L 290.269091 -100.665712 
L 286.989752 -94.11784 
L 283.710413 -87.69716 
L 280.431074 -81.531194 
L 277.151736 -75.738695 
L 273.872397 -70.423983 
L 270.593058 -65.672066 
L 267.313719 -61.544861 
L 264.03438 -58.078786 
L 260.755041 -55.283901 
L 257.475702 -53.144677 
L 254.196364 -51.622379 
L 250.917025 -50.658961 
L 247.637686 -50.182231 
L 244.358347 -50.112 
L 241.079008 -50.366798 
L 237.799669 -50.870698 
L 234.520331 -51.559731 
L 231.240992 -52.387349 
L 227.961653 -53.328444 
L 224.682314 -54.381485 
L 221.402975 -55.568473 
L 218.123636 -56.932602 
L 214.844298 -58.533701 
L 211.564959 -60.441783 
L 208.28562 -62.729219 
L 205.006281 -65.462246 
L 201.726942 -68.692597 
L 198.447603 -72.450094 
L 195.168264 -76.73696 
L 191.888926 -81.524448 
L 188.609587 -86.752183 
L 185.330248 -92.330324 
L 182.050909 -98.144389 
L 178.77157 -104.062312 
L 175.492231 -109.943098 
L 172.212893 -115.646292 
L 168.933554 -121.041416 
L 165.654215 -126.016552 
L 162.374876 -130.485348 
L 159.095537 -134.3919 
L 155.816198 -137.71315 
L 152.53686 -140.458699 
L 149.257521 -142.668147 
L 145.978182 -144.40629 
L 142.698843 -145.756685 
L 139.419504 -146.814181 
L 136.140165 -147.677138 
L 132.860826 -148.439963 
L 129.581488 -149.186613 
L 126.302149 -149.985519 
L 123.02281 -150.886274 
L 119.743471 -151.918208 
L 116.464132 -153.090802 
L 113.184793 -154.39571 
L 109.905455 -155.810031 
L 106.626116 -157.300379 
L 103.346777 -158.827282 
L 100.067438 -160.349441 
L 96.788099 -161.827492 
L 93.50876 -163.226977 
L 90.229421 -164.520386 
L 86.950083 -165.688234 
L 83.670744 -166.719248 
L 80.391405 -167.609825 
L 77.112066 -168.362946 
L 73.832727 -168.98678 
z
" id="m6872b23b96" style="stroke:#4c4c4c;stroke-opacity:0.5;stroke-width:1.5;"/>
    </defs>
    <g clip-path="url(#p301fb7a5ac)">
     <use style="fill:#df9c20;fill-opacity:0.5;stroke:#4c4c4c;stroke-opacity:0.5;stroke-width:1.5;" x="0" xlink:href="#m6872b23b96" y="345.6"/>
    </g>
   </g>
   <g id="PolyCollection_2">
    <defs>
     <path d="M 77.673815 -168.640172 
L 77.673815 -173.503828 
L 80.809786 -174.187244 
L 83.945757 -175.014029 
L 87.081727 -176.000566 
L 90.217698 -177.161947 
L 93.353669 -178.511329 
L 96.48964 -180.059392 
L 99.625611 -181.813962 
L 102.761582 -183.77986 
L 105.897553 -185.959004 
L 109.033524 -188.350765 
L 112.169494 -190.952541 
L 115.305465 -193.760476 
L 118.441436 -196.770209 
L 121.577407 -199.977524 
L 124.713378 -203.37878 
L 127.849349 -206.970985 
L 130.98532 -210.751449 
L 134.121291 -214.716991 
L 137.257261 -218.862736 
L 140.393232 -223.180616 
L 143.529203 -227.657752 
L 146.665174 -232.274915 
L 149.801145 -237.005316 
L 152.937116 -241.813923 
L 156.073087 -246.657476 
L 159.209057 -251.485307 
L 162.345028 -256.240975 
L 165.480999 -260.864617 
L 168.61697 -265.295861 
L 171.752941 -269.477031 
L 174.888912 -273.356375 
L 178.024883 -276.89098 
L 181.160854 -280.0491 
L 184.296824 -282.81165 
L 187.432795 -285.172699 
L 190.568766 -287.138881 
L 193.704737 -288.727784 
L 196.840708 -289.965422 
L 199.976679 -290.883041 
L 203.11265 -291.513552 
L 206.248621 -291.887939 
L 209.384591 -292.032 
L 212.520562 -291.96375 
L 215.656533 -291.691757 
L 218.792504 -291.214581 
L 221.928475 -290.521378 
L 225.064446 -289.593609 
L 228.200417 -288.40764 
L 231.336387 -286.937981 
L 234.472358 -285.160771 
L 237.608329 -283.05715 
L 240.7443 -280.616159 
L 243.880271 -277.836872 
L 247.016242 -274.729577 
L 250.152213 -271.315944 
L 253.288184 -267.628232 
L 256.424154 -263.707697 
L 259.560125 -259.602445 
L 262.696096 -255.36498 
L 265.832067 -251.049738 
L 268.968038 -246.710792 
L 272.104009 -242.39991 
L 275.23998 -238.165007 
L 278.375951 -234.049014 
L 281.511921 -230.089091 
L 284.647892 -226.316105 
L 287.783863 -222.754286 
L 290.919834 -219.420985 
L 294.055805 -216.326516 
L 297.191776 -213.474081 
L 300.327747 -210.859833 
L 303.463717 -208.473133 
L 306.599688 -206.297083 
L 309.735659 -204.309358 
L 312.87163 -202.48338 
L 316.007601 -200.78977 
L 319.143572 -199.198033 
L 322.279543 -197.678331 
L 325.415514 -196.203232 
L 328.551484 -194.749268 
L 331.687455 -193.298189 
L 334.823426 -191.837796 
L 337.959397 -190.362298 
L 341.095368 -188.872178 
L 344.231339 -187.373608 
L 347.36731 -185.877477 
L 350.503281 -184.398146 
L 353.639251 -182.952054 
L 356.775222 -181.556303 
L 359.911193 -180.22733 
L 363.047164 -178.979778 
L 366.183135 -177.825622 
L 369.319106 -176.773597 
L 372.455077 -175.828925 
L 375.591047 -174.993323 
L 378.727018 -174.26526 
L 381.862989 -173.640383 
L 384.99896 -173.112078 
L 388.134931 -172.672072 
L 388.134931 -169.471928 
L 388.134931 -169.471928 
L 384.99896 -169.031922 
L 381.862989 -168.503617 
L 378.727018 -167.87874 
L 375.591047 -167.150677 
L 372.455077 -166.315075 
L 369.319106 -165.370403 
L 366.183135 -164.318378 
L 363.047164 -163.164222 
L 359.911193 -161.91667 
L 356.775222 -160.587697 
L 353.639251 -159.191946 
L 350.503281 -157.745854 
L 347.36731 -156.266523 
L 344.231339 -154.770392 
L 341.095368 -153.271822 
L 337.959397 -151.781702 
L 334.823426 -150.306204 
L 331.687455 -148.845811 
L 328.551484 -147.394732 
L 325.415514 -145.940768 
L 322.279543 -144.465669 
L 319.143572 -142.945967 
L 316.007601 -141.35423 
L 312.87163 -139.66062 
L 309.735659 -137.834642 
L 306.599688 -135.846917 
L 303.463717 -133.670867 
L 300.327747 -131.284167 
L 297.191776 -128.669919 
L 294.055805 -125.817484 
L 290.919834 -122.723015 
L 287.783863 -119.389714 
L 284.647892 -115.827895 
L 281.511921 -112.054909 
L 278.375951 -108.094986 
L 275.23998 -103.978993 
L 272.104009 -99.74409 
L 268.968038 -95.433208 
L 265.832067 -91.094262 
L 262.696096 -86.77902 
L 259.560125 -82.541555 
L 256.424154 -78.436303 
L 253.288184 -74.515768 
L 250.152213 -70.828056 
L 247.016242 -67.414423 
L 243.880271 -64.307128 
L 240.7443 -61.527841 
L 237.608329 -59.08685 
L 234.472358 -56.983229 
L 231.336387 -55.206019 
L 228.200417 -53.73636 
L 225.064446 -52.550391 
L 221.928475 -51.622622 
L 218.792504 -50.929419 
L 215.656533 -50.452243 
L 212.520562 -50.18025 
L 209.384591 -50.112 
L 206.248621 -50.256061 
L 203.11265 -50.630448 
L 199.976679 -51.260959 
L 196.840708 -52.178578 
L 193.704737 -53.416216 
L 190.568766 -55.005119 
L 187.432795 -56.971301 
L 184.296824 -59.33235 
L 181.160854 -62.0949 
L 178.024883 -65.25302 
L 174.888912 -68.787625 
L 171.752941 -72.666969 
L 168.61697 -76.848139 
L 165.480999 -81.279383 
L 162.345028 -85.903025 
L 159.209057 -90.658693 
L 156.073087 -95.486524 
L 152.937116 -100.330077 
L 149.801145 -105.138684 
L 146.665174 -109.869085 
L 143.529203 -114.486248 
L 140.393232 -118.963384 
L 137.257261 -123.281264 
L 134.121291 -127.427009 
L 130.98532 -131.392551 
L 127.849349 -135.173015 
L 124.713378 -138.76522 
L 121.577407 -142.166476 
L 118.441436 -145.373791 
L 115.305465 -148.383524 
L 112.169494 -151.191459 
L 109.033524 -153.793235 
L 105.897553 -156.184996 
L 102.761582 -158.36414 
L 99.625611 -160.330038 
L 96.48964 -162.084608 
L 93.353669 -163.632671 
L 90.217698 -164.982053 
L 87.081727 -166.143434 
L 83.945757 -167.129971 
L 80.809786 -167.956756 
L 77.673815 -168.640172 
z
" id="m1674fca1ef" style="stroke:#262626;stroke-opacity:0.5;stroke-width:1.5;"/>
    </defs>
    <g clip-path="url(#p301fb7a5ac)">
     <use style="fill:#107010;fill-opacity:0.5;stroke:#262626;stroke-opacity:0.5;stroke-width:1.5;" x="0" xlink:href="#m1674fca1ef" y="345.6"/>
    </g>
   </g>
   <g id="matplotlib.axis_1">
    <g id="xtick_1">
     <g id="line2d_1">
      <defs>
       <path d="M 0 0 
L 0 3.5 
" id="m1980bcb510" style="stroke:#000000;stroke-width:0.8;"/>
      </defs>
      <g>
       <use style="stroke:#000000;stroke-width:0.8;" x="89.889325" xlink:href="#m1980bcb510" y="307.584"/>
      </g>
     </g>
     <g id="text_1">
      <!-- 0 -->
      <defs>
       <path d="M 31.78125 66.40625 
Q 24.171875 66.40625 20.328125 58.90625 
Q 16.5 51.421875 16.5 36.375 
Q 16.5 21.390625 20.328125 13.890625 
Q 24.171875 6.390625 31.78125 6.390625 
Q 39.453125 6.390625 43.28125 13.890625 
Q 47.125 21.390625 47.125 36.375 
Q 47.125 51.421875 43.28125 58.90625 
Q 39.453125 66.40625 31.78125 66.40625 
z
M 31.78125 74.21875 
Q 44.046875 74.21875 50.515625 64.515625 
Q 56.984375 54.828125 56.984375 36.375 
Q 56.984375 17.96875 50.515625 8.265625 
Q 44.046875 -1.421875 31.78125 -1.421875 
Q 19.53125 -1.421875 13.0625 8.265625 
Q 6.59375 17.96875 6.59375 36.375 
Q 6.59375 54.828125 13.0625 64.515625 
Q 19.53125 74.21875 31.78125 74.21875 
z
" id="DejaVuSans-48"/>
      </defs>
      <g transform="translate(86.708075 322.182437)scale(0.1 -0.1)">
       <use xlink:href="#DejaVuSans-48"/>
      </g>
     </g>
    </g>
    <g id="xtick_2">
     <g id="line2d_2">
      <g>
       <use style="stroke:#000000;stroke-width:0.8;" x="136.398284" xlink:href="#m1980bcb510" y="307.584"/>
      </g>
     </g>
     <g id="text_2">
      <!-- 200 -->
      <defs>
       <path d="M 19.1875 8.296875 
L 53.609375 8.296875 
L 53.609375 0 
L 7.328125 0 
L 7.328125 8.296875 
Q 12.9375 14.109375 22.625 23.890625 
Q 32.328125 33.6875 34.8125 36.53125 
Q 39.546875 41.84375 41.421875 45.53125 
Q 43.3125 49.21875 43.3125 52.78125 
Q 43.3125 58.59375 39.234375 62.25 
Q 35.15625 65.921875 28.609375 65.921875 
Q 23.96875 65.921875 18.8125 64.3125 
Q 13.671875 62.703125 7.8125 59.421875 
L 7.8125 69.390625 
Q 13.765625 71.78125 18.9375 73 
Q 24.125 74.21875 28.421875 74.21875 
Q 39.75 74.21875 46.484375 68.546875 
Q 53.21875 62.890625 53.21875 53.421875 
Q 53.21875 48.921875 51.53125 44.890625 
Q 49.859375 40.875 45.40625 35.40625 
Q 44.1875 33.984375 37.640625 27.21875 
Q 31.109375 20.453125 19.1875 8.296875 
z
" id="DejaVuSans-50"/>
      </defs>
      <g transform="translate(126.854534 322.182437)scale(0.1 -0.1)">
       <use xlink:href="#DejaVuSans-50"/>
       <use x="63.623047" xlink:href="#DejaVuSans-48"/>
       <use x="127.246094" xlink:href="#DejaVuSans-48"/>
      </g>
     </g>
    </g>
    <g id="xtick_3">
     <g id="line2d_3">
      <g>
       <use style="stroke:#000000;stroke-width:0.8;" x="182.907242" xlink:href="#m1980bcb510" y="307.584"/>
      </g>
     </g>
     <g id="text_3">
      <!-- 400 -->
      <defs>
       <path d="M 37.796875 64.3125 
L 12.890625 25.390625 
L 37.796875 25.390625 
z
M 35.203125 72.90625 
L 47.609375 72.90625 
L 47.609375 25.390625 
L 58.015625 25.390625 
L 58.015625 17.1875 
L 47.609375 17.1875 
L 47.609375 0 
L 37.796875 0 
L 37.796875 17.1875 
L 4.890625 17.1875 
L 4.890625 26.703125 
z
" id="DejaVuSans-52"/>
      </defs>
      <g transform="translate(173.363492 322.182437)scale(0.1 -0.1)">
       <use xlink:href="#DejaVuSans-52"/>
       <use x="63.623047" xlink:href="#DejaVuSans-48"/>
       <use x="127.246094" xlink:href="#DejaVuSans-48"/>
      </g>
     </g>
    </g>
    <g id="xtick_4">
     <g id="line2d_4">
      <g>
       <use style="stroke:#000000;stroke-width:0.8;" x="229.416201" xlink:href="#m1980bcb510" y="307.584"/>
      </g>
     </g>
     <g id="text_4">
      <!-- 600 -->
      <defs>
       <path d="M 33.015625 40.375 
Q 26.375 40.375 22.484375 35.828125 
Q 18.609375 31.296875 18.609375 23.390625 
Q 18.609375 15.53125 22.484375 10.953125 
Q 26.375 6.390625 33.015625 6.390625 
Q 39.65625 6.390625 43.53125 10.953125 
Q 47.40625 15.53125 47.40625 23.390625 
Q 47.40625 31.296875 43.53125 35.828125 
Q 39.65625 40.375 33.015625 40.375 
z
M 52.59375 71.296875 
L 52.59375 62.3125 
Q 48.875 64.0625 45.09375 64.984375 
Q 41.3125 65.921875 37.59375 65.921875 
Q 27.828125 65.921875 22.671875 59.328125 
Q 17.53125 52.734375 16.796875 39.40625 
Q 19.671875 43.65625 24.015625 45.921875 
Q 28.375 48.1875 33.59375 48.1875 
Q 44.578125 48.1875 50.953125 41.515625 
Q 57.328125 34.859375 57.328125 23.390625 
Q 57.328125 12.15625 50.6875 5.359375 
Q 44.046875 -1.421875 33.015625 -1.421875 
Q 20.359375 -1.421875 13.671875 8.265625 
Q 6.984375 17.96875 6.984375 36.375 
Q 6.984375 53.65625 15.1875 63.9375 
Q 23.390625 74.21875 37.203125 74.21875 
Q 40.921875 74.21875 44.703125 73.484375 
Q 48.484375 72.75 52.59375 71.296875 
z
" id="DejaVuSans-54"/>
      </defs>
      <g transform="translate(219.872451 322.182437)scale(0.1 -0.1)">
       <use xlink:href="#DejaVuSans-54"/>
       <use x="63.623047" xlink:href="#DejaVuSans-48"/>
       <use x="127.246094" xlink:href="#DejaVuSans-48"/>
      </g>
     </g>
    </g>
    <g id="xtick_5">
     <g id="line2d_5">
      <g>
       <use style="stroke:#000000;stroke-width:0.8;" x="275.92516" xlink:href="#m1980bcb510" y="307.584"/>
      </g>
     </g>
     <g id="text_5">
      <!-- 800 -->
      <defs>
       <path d="M 31.78125 34.625 
Q 24.75 34.625 20.71875 30.859375 
Q 16.703125 27.09375 16.703125 20.515625 
Q 16.703125 13.921875 20.71875 10.15625 
Q 24.75 6.390625 31.78125 6.390625 
Q 38.8125 6.390625 42.859375 10.171875 
Q 46.921875 13.96875 46.921875 20.515625 
Q 46.921875 27.09375 42.890625 30.859375 
Q 38.875 34.625 31.78125 34.625 
z
M 21.921875 38.8125 
Q 15.578125 40.375 12.03125 44.71875 
Q 8.5 49.078125 8.5 55.328125 
Q 8.5 64.0625 14.71875 69.140625 
Q 20.953125 74.21875 31.78125 74.21875 
Q 42.671875 74.21875 48.875 69.140625 
Q 55.078125 64.0625 55.078125 55.328125 
Q 55.078125 49.078125 51.53125 44.71875 
Q 48 40.375 41.703125 38.8125 
Q 48.828125 37.15625 52.796875 32.3125 
Q 56.78125 27.484375 56.78125 20.515625 
Q 56.78125 9.90625 50.3125 4.234375 
Q 43.84375 -1.421875 31.78125 -1.421875 
Q 19.734375 -1.421875 13.25 4.234375 
Q 6.78125 9.90625 6.78125 20.515625 
Q 6.78125 27.484375 10.78125 32.3125 
Q 14.796875 37.15625 21.921875 38.8125 
z
M 18.3125 54.390625 
Q 18.3125 48.734375 21.84375 45.5625 
Q 25.390625 42.390625 31.78125 42.390625 
Q 38.140625 42.390625 41.71875 45.5625 
Q 45.3125 48.734375 45.3125 54.390625 
Q 45.3125 60.0625 41.71875 63.234375 
Q 38.140625 66.40625 31.78125 66.40625 
Q 25.390625 66.40625 21.84375 63.234375 
Q 18.3125 60.0625 18.3125 54.390625 
z
" id="DejaVuSans-56"/>
      </defs>
      <g transform="translate(266.38141 322.182437)scale(0.1 -0.1)">
       <use xlink:href="#DejaVuSans-56"/>
       <use x="63.623047" xlink:href="#DejaVuSans-48"/>
       <use x="127.246094" xlink:href="#DejaVuSans-48"/>
      </g>
     </g>
    </g>
    <g id="xtick_6">
     <g id="line2d_6">
      <g>
       <use style="stroke:#000000;stroke-width:0.8;" x="322.434118" xlink:href="#m1980bcb510" y="307.584"/>
      </g>
     </g>
     <g id="text_6">
      <!-- 1000 -->
      <defs>
       <path d="M 12.40625 8.296875 
L 28.515625 8.296875 
L 28.515625 63.921875 
L 10.984375 60.40625 
L 10.984375 69.390625 
L 28.421875 72.90625 
L 38.28125 72.90625 
L 38.28125 8.296875 
L 54.390625 8.296875 
L 54.390625 0 
L 12.40625 0 
z
" id="DejaVuSans-49"/>
      </defs>
      <g transform="translate(309.709118 322.182437)scale(0.1 -0.1)">
       <use xlink:href="#DejaVuSans-49"/>
       <use x="63.623047" xlink:href="#DejaVuSans-48"/>
       <use x="127.246094" xlink:href="#DejaVuSans-48"/>
       <use x="190.869141" xlink:href="#DejaVuSans-48"/>
      </g>
     </g>
    </g>
    <g id="xtick_7">
     <g id="line2d_7">
      <g>
       <use style="stroke:#000000;stroke-width:0.8;" x="368.943077" xlink:href="#m1980bcb510" y="307.584"/>
      </g>
     </g>
     <g id="text_7">
      <!-- 1200 -->
      <g transform="translate(356.218077 322.182437)scale(0.1 -0.1)">
       <use xlink:href="#DejaVuSans-49"/>
       <use x="63.623047" xlink:href="#DejaVuSans-50"/>
       <use x="127.246094" xlink:href="#DejaVuSans-48"/>
       <use x="190.869141" xlink:href="#DejaVuSans-48"/>
      </g>
     </g>
    </g>
    <g id="text_8">
     <!-- fibrinoadmac -->
     <defs>
      <path d="M 37.109375 75.984375 
L 37.109375 68.5 
L 28.515625 68.5 
Q 23.6875 68.5 21.796875 66.546875 
Q 19.921875 64.59375 19.921875 59.515625 
L 19.921875 54.6875 
L 34.71875 54.6875 
L 34.71875 47.703125 
L 19.921875 47.703125 
L 19.921875 0 
L 10.890625 0 
L 10.890625 47.703125 
L 2.296875 47.703125 
L 2.296875 54.6875 
L 10.890625 54.6875 
L 10.890625 58.5 
Q 10.890625 67.625 15.140625 71.796875 
Q 19.390625 75.984375 28.609375 75.984375 
z
" id="DejaVuSans-102"/>
      <path d="M 9.421875 54.6875 
L 18.40625 54.6875 
L 18.40625 0 
L 9.421875 0 
z
M 9.421875 75.984375 
L 18.40625 75.984375 
L 18.40625 64.59375 
L 9.421875 64.59375 
z
" id="DejaVuSans-105"/>
      <path d="M 48.6875 27.296875 
Q 48.6875 37.203125 44.609375 42.84375 
Q 40.53125 48.484375 33.40625 48.484375 
Q 26.265625 48.484375 22.1875 42.84375 
Q 18.109375 37.203125 18.109375 27.296875 
Q 18.109375 17.390625 22.1875 11.75 
Q 26.265625 6.109375 33.40625 6.109375 
Q 40.53125 6.109375 44.609375 11.75 
Q 48.6875 17.390625 48.6875 27.296875 
z
M 18.109375 46.390625 
Q 20.953125 51.265625 25.265625 53.625 
Q 29.59375 56 35.59375 56 
Q 45.5625 56 51.78125 48.09375 
Q 58.015625 40.1875 58.015625 27.296875 
Q 58.015625 14.40625 51.78125 6.484375 
Q 45.5625 -1.421875 35.59375 -1.421875 
Q 29.59375 -1.421875 25.265625 0.953125 
Q 20.953125 3.328125 18.109375 8.203125 
L 18.109375 0 
L 9.078125 0 
L 9.078125 75.984375 
L 18.109375 75.984375 
z
" id="DejaVuSans-98"/>
      <path d="M 41.109375 46.296875 
Q 39.59375 47.171875 37.8125 47.578125 
Q 36.03125 48 33.890625 48 
Q 26.265625 48 22.1875 43.046875 
Q 18.109375 38.09375 18.109375 28.8125 
L 18.109375 0 
L 9.078125 0 
L 9.078125 54.6875 
L 18.109375 54.6875 
L 18.109375 46.1875 
Q 20.953125 51.171875 25.484375 53.578125 
Q 30.03125 56 36.53125 56 
Q 37.453125 56 38.578125 55.875 
Q 39.703125 55.765625 41.0625 55.515625 
z
" id="DejaVuSans-114"/>
      <path d="M 54.890625 33.015625 
L 54.890625 0 
L 45.90625 0 
L 45.90625 32.71875 
Q 45.90625 40.484375 42.875 44.328125 
Q 39.84375 48.1875 33.796875 48.1875 
Q 26.515625 48.1875 22.3125 43.546875 
Q 18.109375 38.921875 18.109375 30.90625 
L 18.109375 0 
L 9.078125 0 
L 9.078125 54.6875 
L 18.109375 54.6875 
L 18.109375 46.1875 
Q 21.34375 51.125 25.703125 53.5625 
Q 30.078125 56 35.796875 56 
Q 45.21875 56 50.046875 50.171875 
Q 54.890625 44.34375 54.890625 33.015625 
z
" id="DejaVuSans-110"/>
      <path d="M 30.609375 48.390625 
Q 23.390625 48.390625 19.1875 42.75 
Q 14.984375 37.109375 14.984375 27.296875 
Q 14.984375 17.484375 19.15625 11.84375 
Q 23.34375 6.203125 30.609375 6.203125 
Q 37.796875 6.203125 41.984375 11.859375 
Q 46.1875 17.53125 46.1875 27.296875 
Q 46.1875 37.015625 41.984375 42.703125 
Q 37.796875 48.390625 30.609375 48.390625 
z
M 30.609375 56 
Q 42.328125 56 49.015625 48.375 
Q 55.71875 40.765625 55.71875 27.296875 
Q 55.71875 13.875 49.015625 6.21875 
Q 42.328125 -1.421875 30.609375 -1.421875 
Q 18.84375 -1.421875 12.171875 6.21875 
Q 5.515625 13.875 5.515625 27.296875 
Q 5.515625 40.765625 12.171875 48.375 
Q 18.84375 56 30.609375 56 
z
" id="DejaVuSans-111"/>
      <path d="M 34.28125 27.484375 
Q 23.390625 27.484375 19.1875 25 
Q 14.984375 22.515625 14.984375 16.5 
Q 14.984375 11.71875 18.140625 8.90625 
Q 21.296875 6.109375 26.703125 6.109375 
Q 34.1875 6.109375 38.703125 11.40625 
Q 43.21875 16.703125 43.21875 25.484375 
L 43.21875 27.484375 
z
M 52.203125 31.203125 
L 52.203125 0 
L 43.21875 0 
L 43.21875 8.296875 
Q 40.140625 3.328125 35.546875 0.953125 
Q 30.953125 -1.421875 24.3125 -1.421875 
Q 15.921875 -1.421875 10.953125 3.296875 
Q 6 8.015625 6 15.921875 
Q 6 25.140625 12.171875 29.828125 
Q 18.359375 34.515625 30.609375 34.515625 
L 43.21875 34.515625 
L 43.21875 35.40625 
Q 43.21875 41.609375 39.140625 45 
Q 35.0625 48.390625 27.6875 48.390625 
Q 23 48.390625 18.546875 47.265625 
Q 14.109375 46.140625 10.015625 43.890625 
L 10.015625 52.203125 
Q 14.9375 54.109375 19.578125 55.046875 
Q 24.21875 56 28.609375 56 
Q 40.484375 56 46.34375 49.84375 
Q 52.203125 43.703125 52.203125 31.203125 
z
" id="DejaVuSans-97"/>
      <path d="M 45.40625 46.390625 
L 45.40625 75.984375 
L 54.390625 75.984375 
L 54.390625 0 
L 45.40625 0 
L 45.40625 8.203125 
Q 42.578125 3.328125 38.25 0.953125 
Q 33.9375 -1.421875 27.875 -1.421875 
Q 17.96875 -1.421875 11.734375 6.484375 
Q 5.515625 14.40625 5.515625 27.296875 
Q 5.515625 40.1875 11.734375 48.09375 
Q 17.96875 56 27.875 56 
Q 33.9375 56 38.25 53.625 
Q 42.578125 51.265625 45.40625 46.390625 
z
M 14.796875 27.296875 
Q 14.796875 17.390625 18.875 11.75 
Q 22.953125 6.109375 30.078125 6.109375 
Q 37.203125 6.109375 41.296875 11.75 
Q 45.40625 17.390625 45.40625 27.296875 
Q 45.40625 37.203125 41.296875 42.84375 
Q 37.203125 48.484375 30.078125 48.484375 
Q 22.953125 48.484375 18.875 42.84375 
Q 14.796875 37.203125 14.796875 27.296875 
z
" id="DejaVuSans-100"/>
      <path d="M 52 44.1875 
Q 55.375 50.25 60.0625 53.125 
Q 64.75 56 71.09375 56 
Q 79.640625 56 84.28125 50.015625 
Q 88.921875 44.046875 88.921875 33.015625 
L 88.921875 0 
L 79.890625 0 
L 79.890625 32.71875 
Q 79.890625 40.578125 77.09375 44.375 
Q 74.3125 48.1875 68.609375 48.1875 
Q 61.625 48.1875 57.5625 43.546875 
Q 53.515625 38.921875 53.515625 30.90625 
L 53.515625 0 
L 44.484375 0 
L 44.484375 32.71875 
Q 44.484375 40.625 41.703125 44.40625 
Q 38.921875 48.1875 33.109375 48.1875 
Q 26.21875 48.1875 22.15625 43.53125 
Q 18.109375 38.875 18.109375 30.90625 
L 18.109375 0 
L 9.078125 0 
L 9.078125 54.6875 
L 18.109375 54.6875 
L 18.109375 46.1875 
Q 21.1875 51.21875 25.484375 53.609375 
Q 29.78125 56 35.6875 56 
Q 41.65625 56 45.828125 52.96875 
Q 50 49.953125 52 44.1875 
z
" id="DejaVuSans-109"/>
      <path d="M 48.78125 52.59375 
L 48.78125 44.1875 
Q 44.96875 46.296875 41.140625 47.34375 
Q 37.3125 48.390625 33.40625 48.390625 
Q 24.65625 48.390625 19.8125 42.84375 
Q 14.984375 37.3125 14.984375 27.296875 
Q 14.984375 17.28125 19.8125 11.734375 
Q 24.65625 6.203125 33.40625 6.203125 
Q 37.3125 6.203125 41.140625 7.25 
Q 44.96875 8.296875 48.78125 10.40625 
L 48.78125 2.09375 
Q 45.015625 0.34375 40.984375 -0.53125 
Q 36.96875 -1.421875 32.421875 -1.421875 
Q 20.0625 -1.421875 12.78125 6.34375 
Q 5.515625 14.109375 5.515625 27.296875 
Q 5.515625 40.671875 12.859375 48.328125 
Q 20.21875 56 33.015625 56 
Q 37.15625 56 41.109375 55.140625 
Q 45.0625 54.296875 48.78125 52.59375 
z
" id="DejaVuSans-99"/>
     </defs>
     <g transform="translate(203.242031 335.860562)scale(0.1 -0.1)">
      <use xlink:href="#DejaVuSans-102"/>
      <use x="35.205078" xlink:href="#DejaVuSans-105"/>
      <use x="62.988281" xlink:href="#DejaVuSans-98"/>
      <use x="126.464844" xlink:href="#DejaVuSans-114"/>
      <use x="167.578125" xlink:href="#DejaVuSans-105"/>
      <use x="195.361328" xlink:href="#DejaVuSans-110"/>
      <use x="258.740234" xlink:href="#DejaVuSans-111"/>
      <use x="319.921875" xlink:href="#DejaVuSans-97"/>
      <use x="381.201172" xlink:href="#DejaVuSans-100"/>
      <use x="444.677734" xlink:href="#DejaVuSans-109"/>
      <use x="542.089844" xlink:href="#DejaVuSans-97"/>
      <use x="603.369141" xlink:href="#DejaVuSans-99"/>
     </g>
    </g>
   </g>
   <g id="matplotlib.axis_2">
    <g id="ytick_1">
     <g id="line2d_8">
      <defs>
       <path d="M 0 0 
L -3.5 0 
" id="m0af7f64f1e" style="stroke:#000000;stroke-width:0.8;"/>
      </defs>
      <g>
       <use style="stroke:#000000;stroke-width:0.8;" x="57.6" xlink:href="#m0af7f64f1e" y="174.528"/>
      </g>
     </g>
    </g>
   </g>
   <g id="line2d_9">
    <path clip-path="url(#p301fb7a5ac)" d="M 124.538499 174.528 
L 347.781501 174.528 
" style="fill:none;stroke:#ffa500;stroke-linecap:square;stroke-width:1.5;"/>
   </g>
   <g id="line2d_10">
    <path clip-path="url(#p301fb7a5ac)" d="M 199.883012 174.528 
L 265.111827 174.528 
" style="fill:none;stroke:#4c4c4c;stroke-linecap:square;stroke-width:4.5;"/>
   </g>
   <g id="line2d_11">
    <path clip-path="url(#p301fb7a5ac)" d="M 130.817209 174.528 
L 334.991537 174.528 
" style="fill:none;stroke:#008000;stroke-linecap:square;stroke-width:1.5;"/>
   </g>
   <g id="line2d_12">
    <path clip-path="url(#p301fb7a5ac)" d="M 180.756203 174.528 
L 244.357204 174.528 
" style="fill:none;stroke:#262626;stroke-linecap:square;stroke-width:4.5;"/>
   </g>
   <g id="patch_3">
    <path d="M 57.6 307.584 
L 57.6 41.472 
" style="fill:none;stroke:#000000;stroke-linecap:square;stroke-linejoin:miter;stroke-width:0.8;"/>
   </g>
   <g id="patch_4">
    <path d="M 414.72 307.584 
L 414.72 41.472 
" style="fill:none;stroke:#000000;stroke-linecap:square;stroke-linejoin:miter;stroke-width:0.8;"/>
   </g>
   <g id="patch_5">
    <path d="M 57.6 307.584 
L 414.72 307.584 
" style="fill:none;stroke:#000000;stroke-linecap:square;stroke-linejoin:miter;stroke-width:0.8;"/>
   </g>
   <g id="patch_6">
    <path d="M 57.6 41.472 
L 414.72 41.472 
" style="fill:none;stroke:#000000;stroke-linecap:square;stroke-linejoin:miter;stroke-width:0.8;"/>
   </g>
   <g id="PathCollection_1">
    <defs>
     <path d="M 0 1.5 
C 0.397805 1.5 0.77937 1.341951 1.06066 1.06066 
C 1.341951 0.77937 1.5 0.397805 1.5 0 
C 1.5 -0.397805 1.341951 -0.77937 1.06066 -1.06066 
C 0.77937 -1.341951 0.397805 -1.5 0 -1.5 
C -0.397805 -1.5 -0.77937 -1.341951 -1.06066 -1.06066 
C -1.341951 -0.77937 -1.5 -0.397805 -1.5 0 
C -1.5 0.397805 -1.341951 0.77937 -1.06066 1.06066 
C -0.77937 1.341951 -0.397805 1.5 0 1.5 
z
" id="m6f97d69f25" style="stroke:#4c4c4c;stroke-opacity:0.5;"/>
    </defs>
    <g clip-path="url(#p301fb7a5ac)">
     <use style="fill:#ffffff;fill-opacity:0.5;stroke:#4c4c4c;stroke-opacity:0.5;" x="239.415627" xlink:href="#m6f97d69f25" y="174.528"/>
    </g>
   </g>
   <g id="PathCollection_2">
    <defs>
     <path d="M 0 1.5 
C 0.397805 1.5 0.77937 1.341951 1.06066 1.06066 
C 1.341951 0.77937 1.5 0.397805 1.5 0 
C 1.5 -0.397805 1.341951 -0.77937 1.06066 -1.06066 
C 0.77937 -1.341951 0.397805 -1.5 0 -1.5 
C -0.397805 -1.5 -0.77937 -1.341951 -1.06066 -1.06066 
C -1.341951 -0.77937 -1.5 -0.397805 -1.5 0 
C -1.5 0.397805 -1.341951 0.77937 -1.06066 1.06066 
C -0.77937 1.341951 -0.397805 1.5 0 1.5 
z
" id="m0e28f0789d" style="stroke:#262626;stroke-opacity:0.5;"/>
    </defs>
    <g clip-path="url(#p301fb7a5ac)">
     <use style="fill:#ffffff;fill-opacity:0.5;stroke:#262626;stroke-opacity:0.5;" x="212.556704" xlink:href="#m0e28f0789d" y="174.528"/>
    </g>
   </g>
   <g id="text_9">
    <!-- Association of fibrinoadmac vs. intubation -->
    <defs>
     <path d="M 34.1875 63.1875 
L 20.796875 26.90625 
L 47.609375 26.90625 
z
M 28.609375 72.90625 
L 39.796875 72.90625 
L 67.578125 0 
L 57.328125 0 
L 50.6875 18.703125 
L 17.828125 18.703125 
L 11.1875 0 
L 0.78125 0 
z
" id="DejaVuSans-65"/>
     <path d="M 44.28125 53.078125 
L 44.28125 44.578125 
Q 40.484375 46.53125 36.375 47.5 
Q 32.28125 48.484375 27.875 48.484375 
Q 21.1875 48.484375 17.84375 46.4375 
Q 14.5 44.390625 14.5 40.28125 
Q 14.5 37.15625 16.890625 35.375 
Q 19.28125 33.59375 26.515625 31.984375 
L 29.59375 31.296875 
Q 39.15625 29.25 43.1875 25.515625 
Q 47.21875 21.78125 47.21875 15.09375 
Q 47.21875 7.46875 41.1875 3.015625 
Q 35.15625 -1.421875 24.609375 -1.421875 
Q 20.21875 -1.421875 15.453125 -0.5625 
Q 10.6875 0.296875 5.421875 2 
L 5.421875 11.28125 
Q 10.40625 8.6875 15.234375 7.390625 
Q 20.0625 6.109375 24.8125 6.109375 
Q 31.15625 6.109375 34.5625 8.28125 
Q 37.984375 10.453125 37.984375 14.40625 
Q 37.984375 18.0625 35.515625 20.015625 
Q 33.0625 21.96875 24.703125 23.78125 
L 21.578125 24.515625 
Q 13.234375 26.265625 9.515625 29.90625 
Q 5.8125 33.546875 5.8125 39.890625 
Q 5.8125 47.609375 11.28125 51.796875 
Q 16.75 56 26.8125 56 
Q 31.78125 56 36.171875 55.265625 
Q 40.578125 54.546875 44.28125 53.078125 
z
" id="DejaVuSans-115"/>
     <path d="M 18.3125 70.21875 
L 18.3125 54.6875 
L 36.8125 54.6875 
L 36.8125 47.703125 
L 18.3125 47.703125 
L 18.3125 18.015625 
Q 18.3125 11.328125 20.140625 9.421875 
Q 21.96875 7.515625 27.59375 7.515625 
L 36.8125 7.515625 
L 36.8125 0 
L 27.59375 0 
Q 17.1875 0 13.234375 3.875 
Q 9.28125 7.765625 9.28125 18.015625 
L 9.28125 47.703125 
L 2.6875 47.703125 
L 2.6875 54.6875 
L 9.28125 54.6875 
L 9.28125 70.21875 
z
" id="DejaVuSans-116"/>
     <path id="DejaVuSans-32"/>
     <path d="M 2.984375 54.6875 
L 12.5 54.6875 
L 29.59375 8.796875 
L 46.6875 54.6875 
L 56.203125 54.6875 
L 35.6875 0 
L 23.484375 0 
z
" id="DejaVuSans-118"/>
     <path d="M 10.6875 12.40625 
L 21 12.40625 
L 21 0 
L 10.6875 0 
z
" id="DejaVuSans-46"/>
     <path d="M 8.5 21.578125 
L 8.5 54.6875 
L 17.484375 54.6875 
L 17.484375 21.921875 
Q 17.484375 14.15625 20.5 10.265625 
Q 23.53125 6.390625 29.59375 6.390625 
Q 36.859375 6.390625 41.078125 11.03125 
Q 45.3125 15.671875 45.3125 23.6875 
L 45.3125 54.6875 
L 54.296875 54.6875 
L 54.296875 0 
L 45.3125 0 
L 45.3125 8.40625 
Q 42.046875 3.421875 37.71875 1 
Q 33.40625 -1.421875 27.6875 -1.421875 
Q 18.265625 -1.421875 13.375 4.4375 
Q 8.5 10.296875 8.5 21.578125 
z
M 31.109375 56 
z
" id="DejaVuSans-117"/>
    </defs>
    <g transform="translate(109.898438 35.472)scale(0.12 -0.12)">
     <use xlink:href="#DejaVuSans-65"/>
     <use x="68.408203" xlink:href="#DejaVuSans-115"/>
     <use x="120.507812" xlink:href="#DejaVuSans-115"/>
     <use x="172.607422" xlink:href="#DejaVuSans-111"/>
     <use x="233.789062" xlink:href="#DejaVuSans-99"/>
     <use x="288.769531" xlink:href="#DejaVuSans-105"/>
     <use x="316.552734" xlink:href="#DejaVuSans-97"/>
     <use x="377.832031" xlink:href="#DejaVuSans-116"/>
     <use x="417.041016" xlink:href="#DejaVuSans-105"/>
     <use x="444.824219" xlink:href="#DejaVuSans-111"/>
     <use x="506.005859" xlink:href="#DejaVuSans-110"/>
     <use x="569.384766" xlink:href="#DejaVuSans-32"/>
     <use x="601.171875" xlink:href="#DejaVuSans-111"/>
     <use x="662.353516" xlink:href="#DejaVuSans-102"/>
     <use x="697.558594" xlink:href="#DejaVuSans-32"/>
     <use x="729.345703" xlink:href="#DejaVuSans-102"/>
     <use x="764.550781" xlink:href="#DejaVuSans-105"/>
     <use x="792.333984" xlink:href="#DejaVuSans-98"/>
     <use x="855.810547" xlink:href="#DejaVuSans-114"/>
     <use x="896.923828" xlink:href="#DejaVuSans-105"/>
     <use x="924.707031" xlink:href="#DejaVuSans-110"/>
     <use x="988.085938" xlink:href="#DejaVuSans-111"/>
     <use x="1049.267578" xlink:href="#DejaVuSans-97"/>
     <use x="1110.546875" xlink:href="#DejaVuSans-100"/>
     <use x="1174.023438" xlink:href="#DejaVuSans-109"/>
     <use x="1271.435547" xlink:href="#DejaVuSans-97"/>
     <use x="1332.714844" xlink:href="#DejaVuSans-99"/>
     <use x="1387.695312" xlink:href="#DejaVuSans-32"/>
     <use x="1419.482422" xlink:href="#DejaVuSans-118"/>
     <use x="1478.662109" xlink:href="#DejaVuSans-115"/>
     <use x="1530.761719" xlink:href="#DejaVuSans-46"/>
     <use x="1562.548828" xlink:href="#DejaVuSans-32"/>
     <use x="1594.335938" xlink:href="#DejaVuSans-105"/>
     <use x="1622.119141" xlink:href="#DejaVuSans-110"/>
     <use x="1685.498047" xlink:href="#DejaVuSans-116"/>
     <use x="1724.707031" xlink:href="#DejaVuSans-117"/>
     <use x="1788.085938" xlink:href="#DejaVuSans-98"/>
     <use x="1851.5625" xlink:href="#DejaVuSans-97"/>
     <use x="1912.841797" xlink:href="#DejaVuSans-116"/>
     <use x="1952.050781" xlink:href="#DejaVuSans-105"/>
     <use x="1979.833984" xlink:href="#DejaVuSans-111"/>
     <use x="2041.015625" xlink:href="#DejaVuSans-110"/>
    </g>
   </g>
   <g id="legend_1">
    <g id="patch_7">
     <path d="M 280.310625 78.82825 
L 407.72 78.82825 
Q 409.72 78.82825 409.72 76.82825 
L 409.72 48.472 
Q 409.72 46.472 407.72 46.472 
L 280.310625 46.472 
Q 278.310625 46.472 278.310625 48.472 
L 278.310625 76.82825 
Q 278.310625 78.82825 280.310625 78.82825 
z
" style="fill:#ffffff;opacity:0.8;stroke:#cccccc;stroke-linejoin:miter;"/>
    </g>
    <g id="line2d_13">
     <path d="M 282.310625 54.570437 
L 302.310625 54.570437 
" style="fill:none;stroke:#ffa500;stroke-linecap:square;stroke-width:1.5;"/>
    </g>
    <g id="line2d_14"/>
    <g id="text_10">
     <!-- intubation (27) -->
     <defs>
      <path d="M 31 75.875 
Q 24.46875 64.65625 21.28125 53.65625 
Q 18.109375 42.671875 18.109375 31.390625 
Q 18.109375 20.125 21.3125 9.0625 
Q 24.515625 -2 31 -13.1875 
L 23.1875 -13.1875 
Q 15.875 -1.703125 12.234375 9.375 
Q 8.59375 20.453125 8.59375 31.390625 
Q 8.59375 42.28125 12.203125 53.3125 
Q 15.828125 64.359375 23.1875 75.875 
z
" id="DejaVuSans-40"/>
      <path d="M 8.203125 72.90625 
L 55.078125 72.90625 
L 55.078125 68.703125 
L 28.609375 0 
L 18.3125 0 
L 43.21875 64.59375 
L 8.203125 64.59375 
z
" id="DejaVuSans-55"/>
      <path d="M 8.015625 75.875 
L 15.828125 75.875 
Q 23.140625 64.359375 26.78125 53.3125 
Q 30.421875 42.28125 30.421875 31.390625 
Q 30.421875 20.453125 26.78125 9.375 
Q 23.140625 -1.703125 15.828125 -13.1875 
L 8.015625 -13.1875 
Q 14.5 -2 17.703125 9.0625 
Q 20.90625 20.125 20.90625 31.390625 
Q 20.90625 42.671875 17.703125 53.65625 
Q 14.5 64.65625 8.015625 75.875 
z
" id="DejaVuSans-41"/>
     </defs>
     <g transform="translate(310.310625 58.070437)scale(0.1 -0.1)">
      <use xlink:href="#DejaVuSans-105"/>
      <use x="27.783203" xlink:href="#DejaVuSans-110"/>
      <use x="91.162109" xlink:href="#DejaVuSans-116"/>
      <use x="130.371094" xlink:href="#DejaVuSans-117"/>
      <use x="193.75" xlink:href="#DejaVuSans-98"/>
      <use x="257.226562" xlink:href="#DejaVuSans-97"/>
      <use x="318.505859" xlink:href="#DejaVuSans-116"/>
      <use x="357.714844" xlink:href="#DejaVuSans-105"/>
      <use x="385.498047" xlink:href="#DejaVuSans-111"/>
      <use x="446.679688" xlink:href="#DejaVuSans-110"/>
      <use x="510.058594" xlink:href="#DejaVuSans-32"/>
      <use x="541.845703" xlink:href="#DejaVuSans-40"/>
      <use x="580.859375" xlink:href="#DejaVuSans-50"/>
      <use x="644.482422" xlink:href="#DejaVuSans-55"/>
      <use x="708.105469" xlink:href="#DejaVuSans-41"/>
     </g>
    </g>
    <g id="line2d_15">
     <path d="M 282.310625 69.248562 
L 302.310625 69.248562 
" style="fill:none;stroke:#008000;stroke-linecap:square;stroke-width:1.5;"/>
    </g>
    <g id="line2d_16"/>
    <g id="text_11">
     <!-- Not intubation (26) -->
     <defs>
      <path d="M 9.8125 72.90625 
L 23.09375 72.90625 
L 55.421875 11.921875 
L 55.421875 72.90625 
L 64.984375 72.90625 
L 64.984375 0 
L 51.703125 0 
L 19.390625 60.984375 
L 19.390625 0 
L 9.8125 0 
z
" id="DejaVuSans-78"/>
     </defs>
     <g transform="translate(310.310625 72.748562)scale(0.1 -0.1)">
      <use xlink:href="#DejaVuSans-78"/>
      <use x="74.804688" xlink:href="#DejaVuSans-111"/>
      <use x="135.986328" xlink:href="#DejaVuSans-116"/>
      <use x="175.195312" xlink:href="#DejaVuSans-32"/>
      <use x="206.982422" xlink:href="#DejaVuSans-105"/>
      <use x="234.765625" xlink:href="#DejaVuSans-110"/>
      <use x="298.144531" xlink:href="#DejaVuSans-116"/>
      <use x="337.353516" xlink:href="#DejaVuSans-117"/>
      <use x="400.732422" xlink:href="#DejaVuSans-98"/>
      <use x="464.208984" xlink:href="#DejaVuSans-97"/>
      <use x="525.488281" xlink:href="#DejaVuSans-116"/>
      <use x="564.697266" xlink:href="#DejaVuSans-105"/>
      <use x="592.480469" xlink:href="#DejaVuSans-111"/>
      <use x="653.662109" xlink:href="#DejaVuSans-110"/>
      <use x="717.041016" xlink:href="#DejaVuSans-32"/>
      <use x="748.828125" xlink:href="#DejaVuSans-40"/>
      <use x="787.841797" xlink:href="#DejaVuSans-50"/>
      <use x="851.464844" xlink:href="#DejaVuSans-54"/>
      <use x="915.087891" xlink:href="#DejaVuSans-41"/>
     </g>
    </g>
   </g>
  </g>
 </g>
 <defs>
  <clipPath id="p301fb7a5ac">
   <rect height="266.112" width="357.12" x="57.6" y="41.472"/>
  </clipPath>
 </defs>
</svg>
