<?xml version="1.0" encoding="utf-8" standalone="no"?>
<!DOCTYPE svg PUBLIC "-//W3C//DTD SVG 1.1//EN"
  "http://www.w3.org/Graphics/SVG/1.1/DTD/svg11.dtd">
<!-- Created with matplotlib (https://matplotlib.org/) -->
<svg height="345.6pt" version="1.1" viewBox="0 0 460.8 345.6" width="460.8pt" xmlns="http://www.w3.org/2000/svg" xmlns:xlink="http://www.w3.org/1999/xlink">
 <defs>
  <style type="text/css">
*{stroke-linecap:butt;stroke-linejoin:round;}
  </style>
 </defs>
 <g id="figure_1">
  <g id="patch_1">
   <path d="M 0 345.6 
L 460.8 345.6 
L 460.8 0 
L 0 0 
z
" style="fill:#ffffff;"/>
  </g>
  <g id="axes_1">
   <g id="patch_2">
    <path d="M 57.6 307.584 
L 414.72 307.584 
L 414.72 41.472 
L 57.6 41.472 
z
" style="fill:#ffffff;"/>
   </g>
   <g id="PolyCollection_1">
    <defs>
     <path d="M 74.143345 -169.308783 
L 74.143345 -172.835217 
L 77.419546 -173.347946 
L 80.695748 -173.963549 
L 83.971949 -174.688172 
L 87.24815 -175.524121 
L 90.524352 -176.468974 
L 93.800553 -177.514987 
L 97.076754 -178.648955 
L 100.352955 -179.852675 
L 103.629157 -181.104107 
L 106.905358 -182.379263 
L 110.181559 -183.654783 
L 113.457761 -184.911031 
L 116.733962 -186.135493 
L 120.010163 -187.326126 
L 123.286364 -188.494286 
L 126.562566 -189.66684 
L 129.838767 -190.887092 
L 133.114968 -192.214226 
L 136.39117 -193.721104 
L 139.667371 -195.490397 
L 142.943572 -197.609211 
L 146.219773 -200.162525 
L 149.495975 -203.225926 
L 152.772176 -206.858245 
L 156.048377 -211.094729 
L 159.324579 -215.941438 
L 162.60078 -221.371438 
L 165.876981 -227.323265 
L 169.153182 -233.701932 
L 172.429384 -240.382543 
L 175.705585 -247.21632 
L 178.981786 -254.038617 
L 182.257988 -260.67832 
L 185.534189 -266.967837 
L 188.81039 -272.752876 
L 192.086591 -277.901163 
L 195.362793 -282.309404 
L 198.638994 -285.907951 
L 201.915195 -288.662847 
L 205.191397 -290.575225 
L 208.467598 -291.678247 
L 211.743799 -292.032 
L 215.020001 -291.716945 
L 218.296202 -290.826572 
L 221.572403 -289.459942 
L 224.848604 -287.714731 
L 228.124806 -285.68129 
L 231.401007 -283.438066 
L 234.677208 -281.048593 
L 237.95341 -278.560101 
L 241.229611 -276.003658 
L 244.505812 -273.395654 
L 247.782013 -270.740362 
L 251.058215 -268.033251 
L 254.334416 -265.264705 
L 257.610617 -262.423783 
L 260.886819 -259.50167 
L 264.16302 -256.494519 
L 267.439221 -253.405417 
L 270.715422 -250.245323 
L 273.991624 -247.032925 
L 277.267825 -243.793471 
L 280.544026 -240.556762 
L 283.820228 -237.354584 
L 287.096429 -234.217914 
L 290.37263 -231.174253 
L 293.648831 -228.245417 
L 296.925033 -225.446 
L 300.201234 -222.78267 
L 303.477435 -220.254293 
L 306.753637 -217.852781 
L 310.029838 -215.564501 
L 313.306039 -213.372002 
L 316.58224 -211.255846 
L 319.858442 -209.196337 
L 323.134643 -207.175013 
L 326.410844 -205.175832 
L 329.687046 -203.18602 
L 332.963247 -201.196634 
L 336.239448 -199.202848 
L 339.51565 -197.204044 
L 342.791851 -195.203722 
L 346.068052 -193.209241 
L 349.344253 -191.231407 
L 352.620455 -189.283888 
L 355.896656 -187.382465 
L 359.172857 -185.544144 
L 362.449059 -183.786154 
L 365.72526 -182.124924 
L 369.001461 -180.575085 
L 372.277662 -179.14861 
L 375.553864 -177.85415 
L 378.830065 -176.696626 
L 382.106266 -175.677104 
L 385.382468 -174.792941 
L 388.658669 -174.038179 
L 391.93487 -173.404125 
L 395.211071 -172.880039 
L 398.487273 -172.453878 
L 398.487273 -169.690122 
L 398.487273 -169.690122 
L 395.211071 -169.263961 
L 391.93487 -168.739875 
L 388.658669 -168.105821 
L 385.382468 -167.351059 
L 382.106266 -166.466896 
L 378.830065 -165.447374 
L 375.553864 -164.28985 
L 372.277662 -162.99539 
L 369.001461 -161.568915 
L 365.72526 -160.019076 
L 362.449059 -158.357846 
L 359.172857 -156.599856 
L 355.896656 -154.761535 
L 352.620455 -152.860112 
L 349.344253 -150.912593 
L 346.068052 -148.934759 
L 342.791851 -146.940278 
L 339.51565 -144.939956 
L 336.239448 -142.941152 
L 332.963247 -140.947366 
L 329.687046 -138.95798 
L 326.410844 -136.968168 
L 323.134643 -134.968987 
L 319.858442 -132.947663 
L 316.58224 -130.888154 
L 313.306039 -128.771998 
L 310.029838 -126.579499 
L 306.753637 -124.291219 
L 303.477435 -121.889707 
L 300.201234 -119.36133 
L 296.925033 -116.698 
L 293.648831 -113.898583 
L 290.37263 -110.969747 
L 287.096429 -107.926086 
L 283.820228 -104.789416 
L 280.544026 -101.587238 
L 277.267825 -98.350529 
L 273.991624 -95.111075 
L 270.715422 -91.898677 
L 267.439221 -88.738583 
L 264.16302 -85.649481 
L 260.886819 -82.64233 
L 257.610617 -79.720217 
L 254.334416 -76.879295 
L 251.058215 -74.110749 
L 247.782013 -71.403638 
L 244.505812 -68.748346 
L 241.229611 -66.140342 
L 237.95341 -63.583899 
L 234.677208 -61.095407 
L 231.401007 -58.705934 
L 228.124806 -56.46271 
L 224.848604 -54.429269 
L 221.572403 -52.684058 
L 218.296202 -51.317428 
L 215.020001 -50.427055 
L 211.743799 -50.112 
L 208.467598 -50.465753 
L 205.191397 -51.568775 
L 201.915195 -53.481153 
L 198.638994 -56.236049 
L 195.362793 -59.834596 
L 192.086591 -64.242837 
L 188.81039 -69.391124 
L 185.534189 -75.176163 
L 182.257988 -81.46568 
L 178.981786 -88.105383 
L 175.705585 -94.92768 
L 172.429384 -101.761457 
L 169.153182 -108.442068 
L 165.876981 -114.820735 
L 162.60078 -120.772562 
L 159.324579 -126.202562 
L 156.048377 -131.049271 
L 152.772176 -135.285755 
L 149.495975 -138.918074 
L 146.219773 -141.981475 
L 142.943572 -144.534789 
L 139.667371 -146.653603 
L 136.39117 -148.422896 
L 133.114968 -149.929774 
L 129.838767 -151.256908 
L 126.562566 -152.47716 
L 123.286364 -153.649714 
L 120.010163 -154.817874 
L 116.733962 -156.008507 
L 113.457761 -157.232969 
L 110.181559 -158.489217 
L 106.905358 -159.764737 
L 103.629157 -161.039893 
L 100.352955 -162.291325 
L 97.076754 -163.495045 
L 93.800553 -164.629013 
L 90.524352 -165.675026 
L 87.24815 -166.619879 
L 83.971949 -167.455828 
L 80.695748 -168.180451 
L 77.419546 -168.796054 
L 74.143345 -169.308783 
z
" id="md0b913f3ca" style="stroke:#4c4c4c;stroke-opacity:0.5;stroke-width:1.5;"/>
    </defs>
    <g clip-path="url(#p28b2622bb7)">
     <use style="fill:#df9c20;fill-opacity:0.5;stroke:#4c4c4c;stroke-opacity:0.5;stroke-width:1.5;" x="0" xlink:href="#md0b913f3ca" y="345.6"/>
    </g>
   </g>
   <g id="PolyCollection_2">
    <defs>
     <path d="M 73.832727 -168.903873 
L 73.832727 -173.240127 
L 76.716208 -173.925981 
L 79.599688 -174.776526 
L 82.483169 -175.814351 
L 85.366649 -177.060365 
L 88.25013 -178.532404 
L 91.13361 -180.243823 
L 94.017091 -182.202225 
L 96.900572 -184.408481 
L 99.784052 -186.856193 
L 102.667533 -189.531742 
L 105.551013 -192.414978 
L 108.434494 -195.480583 
L 111.317974 -198.700016 
L 114.201455 -202.043896 
L 117.084935 -205.484575 
L 119.968416 -208.998627 
L 122.851896 -212.568939 
L 125.735377 -216.186131 
L 128.618857 -219.849062 
L 131.502338 -223.564311 
L 134.385819 -227.344618 
L 137.269299 -231.206386 
L 140.15278 -235.166488 
L 143.03626 -239.238677 
L 145.919741 -243.429977 
L 148.803221 -247.737415 
L 151.686702 -252.145436 
L 154.570182 -256.62427 
L 157.453663 -261.129422 
L 160.337143 -265.602377 
L 163.220624 -269.972486 
L 166.104104 -274.159954 
L 168.987585 -278.079754 
L 171.871066 -281.646255 
L 174.754546 -284.778312 
L 177.638027 -287.404517 
L 180.521507 -289.468303 
L 183.404988 -290.932533 
L 186.288468 -291.783221 
L 189.171949 -292.032 
L 192.055429 -291.717004 
L 194.93891 -290.901895 
L 197.82239 -289.672891 
L 200.705871 -288.133816 
L 203.589351 -286.399403 
L 206.472832 -284.587267 
L 209.356313 -282.809206 
L 212.239793 -281.162582 
L 215.123274 -279.722621 
L 218.006754 -278.53644 
L 220.890235 -277.619451 
L 223.773715 -276.954573 
L 226.657196 -276.494353 
L 229.540676 -276.165821 
L 232.424157 -275.87754 
L 235.307637 -275.528096 
L 238.191118 -275.015135 
L 241.074598 -274.244006 
L 243.958079 -273.135168 
L 246.84156 -271.629725 
L 249.72504 -269.692678 
L 252.608521 -267.313828 
L 255.492001 -264.506464 
L 258.375482 -261.304273 
L 261.258962 -257.756979 
L 264.142443 -253.92534 
L 267.025923 -249.876062 
L 269.909404 -245.677116 
L 272.792884 -241.393828 
L 275.676365 -237.085907 
L 278.559845 -232.805498 
L 281.443326 -228.596175 
L 284.326807 -224.492735 
L 287.210287 -220.521607 
L 290.093768 -216.701674 
L 292.977248 -213.045347 
L 295.860729 -209.559728 
L 298.744209 -206.247778 
L 301.62769 -203.109417 
L 304.51117 -200.142509 
L 307.394651 -197.343715 
L 310.278131 -194.709198 
L 313.161612 -192.235169 
L 316.045092 -189.918265 
L 318.928573 -187.755754 
L 321.812054 -185.745571 
L 324.695534 -183.8862 
L 327.579015 -182.176427 
L 330.462495 -180.615001 
L 333.345976 -179.200251 
L 336.229456 -177.929717 
L 339.112937 -176.799826 
L 341.996417 -175.805673 
L 344.879898 -174.940922 
L 347.763378 -174.197829 
L 350.646859 -173.567398 
L 353.530339 -173.039641 
L 356.41382 -172.603899 
L 359.2973 -172.249211 
L 359.2973 -169.894789 
L 359.2973 -169.894789 
L 356.41382 -169.540101 
L 353.530339 -169.104359 
L 350.646859 -168.576602 
L 347.763378 -167.946171 
L 344.879898 -167.203078 
L 341.996417 -166.338327 
L 339.112937 -165.344174 
L 336.229456 -164.214283 
L 333.345976 -162.943749 
L 330.462495 -161.528999 
L 327.579015 -159.967573 
L 324.695534 -158.2578 
L 321.812054 -156.398429 
L 318.928573 -154.388246 
L 316.045092 -152.225735 
L 313.161612 -149.908831 
L 310.278131 -147.434802 
L 307.394651 -144.800285 
L 304.51117 -142.001491 
L 301.62769 -139.034583 
L 298.744209 -135.896222 
L 295.860729 -132.584272 
L 292.977248 -129.098653 
L 290.093768 -125.442326 
L 287.210287 -121.622393 
L 284.326807 -117.651265 
L 281.443326 -113.547825 
L 278.559845 -109.338502 
L 275.676365 -105.058093 
L 272.792884 -100.750172 
L 269.909404 -96.466884 
L 267.025923 -92.267938 
L 264.142443 -88.21866 
L 261.258962 -84.387021 
L 258.375482 -80.839727 
L 255.492001 -77.637536 
L 252.608521 -74.830172 
L 249.72504 -72.451322 
L 246.84156 -70.514275 
L 243.958079 -69.008832 
L 241.074598 -67.899994 
L 238.191118 -67.128865 
L 235.307637 -66.615904 
L 232.424157 -66.26646 
L 229.540676 -65.978179 
L 226.657196 -65.649647 
L 223.773715 -65.189427 
L 220.890235 -64.524549 
L 218.006754 -63.60756 
L 215.123274 -62.421379 
L 212.239793 -60.981418 
L 209.356313 -59.334794 
L 206.472832 -57.556733 
L 203.589351 -55.744597 
L 200.705871 -54.010184 
L 197.82239 -52.471109 
L 194.93891 -51.242105 
L 192.055429 -50.426996 
L 189.171949 -50.112 
L 186.288468 -50.360779 
L 183.404988 -51.211467 
L 180.521507 -52.675697 
L 177.638027 -54.739483 
L 174.754546 -57.365688 
L 171.871066 -60.497745 
L 168.987585 -64.064246 
L 166.104104 -67.984046 
L 163.220624 -72.171514 
L 160.337143 -76.541623 
L 157.453663 -81.014578 
L 154.570182 -85.51973 
L 151.686702 -89.998564 
L 148.803221 -94.406585 
L 145.919741 -98.714023 
L 143.03626 -102.905323 
L 140.15278 -106.977512 
L 137.269299 -110.937614 
L 134.385819 -114.799382 
L 131.502338 -118.579689 
L 128.618857 -122.294938 
L 125.735377 -125.957869 
L 122.851896 -129.575061 
L 119.968416 -133.145373 
L 117.084935 -136.659425 
L 114.201455 -140.100104 
L 111.317974 -143.443984 
L 108.434494 -146.663417 
L 105.551013 -149.729022 
L 102.667533 -152.612258 
L 99.784052 -155.287807 
L 96.900572 -157.735519 
L 94.017091 -159.941775 
L 91.13361 -161.900177 
L 88.25013 -163.611596 
L 85.366649 -165.083635 
L 82.483169 -166.329649 
L 79.599688 -167.367474 
L 76.716208 -168.218019 
L 73.832727 -168.903873 
z
" id="mb6a306841f" style="stroke:#262626;stroke-opacity:0.5;stroke-width:1.5;"/>
    </defs>
    <g clip-path="url(#p28b2622bb7)">
     <use style="fill:#107010;fill-opacity:0.5;stroke:#262626;stroke-opacity:0.5;stroke-width:1.5;" x="0" xlink:href="#mb6a306841f" y="345.6"/>
    </g>
   </g>
   <g id="matplotlib.axis_1">
    <g id="xtick_1">
     <g id="line2d_1">
      <defs>
       <path d="M 0 0 
L 0 3.5 
" id="m9f5755b408" style="stroke:#000000;stroke-width:0.8;"/>
      </defs>
      <g>
       <use style="stroke:#000000;stroke-width:0.8;" x="84.699272" xlink:href="#m9f5755b408" y="307.584"/>
      </g>
     </g>
     <g id="text_1">
      <!-- 0 -->
      <defs>
       <path d="M 31.78125 66.40625 
Q 24.171875 66.40625 20.328125 58.90625 
Q 16.5 51.421875 16.5 36.375 
Q 16.5 21.390625 20.328125 13.890625 
Q 24.171875 6.390625 31.78125 6.390625 
Q 39.453125 6.390625 43.28125 13.890625 
Q 47.125 21.390625 47.125 36.375 
Q 47.125 51.421875 43.28125 58.90625 
Q 39.453125 66.40625 31.78125 66.40625 
z
M 31.78125 74.21875 
Q 44.046875 74.21875 50.515625 64.515625 
Q 56.984375 54.828125 56.984375 36.375 
Q 56.984375 17.96875 50.515625 8.265625 
Q 44.046875 -1.421875 31.78125 -1.421875 
Q 19.53125 -1.421875 13.0625 8.265625 
Q 6.59375 17.96875 6.59375 36.375 
Q 6.59375 54.828125 13.0625 64.515625 
Q 19.53125 74.21875 31.78125 74.21875 
z
" id="DejaVuSans-48"/>
      </defs>
      <g transform="translate(81.518022 322.182437)scale(0.1 -0.1)">
       <use xlink:href="#DejaVuSans-48"/>
      </g>
     </g>
    </g>
    <g id="xtick_2">
     <g id="line2d_2">
      <g>
       <use style="stroke:#000000;stroke-width:0.8;" x="132.005368" xlink:href="#m9f5755b408" y="307.584"/>
      </g>
     </g>
     <g id="text_2">
      <!-- 200 -->
      <defs>
       <path d="M 19.1875 8.296875 
L 53.609375 8.296875 
L 53.609375 0 
L 7.328125 0 
L 7.328125 8.296875 
Q 12.9375 14.109375 22.625 23.890625 
Q 32.328125 33.6875 34.8125 36.53125 
Q 39.546875 41.84375 41.421875 45.53125 
Q 43.3125 49.21875 43.3125 52.78125 
Q 43.3125 58.59375 39.234375 62.25 
Q 35.15625 65.921875 28.609375 65.921875 
Q 23.96875 65.921875 18.8125 64.3125 
Q 13.671875 62.703125 7.8125 59.421875 
L 7.8125 69.390625 
Q 13.765625 71.78125 18.9375 73 
Q 24.125 74.21875 28.421875 74.21875 
Q 39.75 74.21875 46.484375 68.546875 
Q 53.21875 62.890625 53.21875 53.421875 
Q 53.21875 48.921875 51.53125 44.890625 
Q 49.859375 40.875 45.40625 35.40625 
Q 44.1875 33.984375 37.640625 27.21875 
Q 31.109375 20.453125 19.1875 8.296875 
z
" id="DejaVuSans-50"/>
      </defs>
      <g transform="translate(122.461618 322.182437)scale(0.1 -0.1)">
       <use xlink:href="#DejaVuSans-50"/>
       <use x="63.623047" xlink:href="#DejaVuSans-48"/>
       <use x="127.246094" xlink:href="#DejaVuSans-48"/>
      </g>
     </g>
    </g>
    <g id="xtick_3">
     <g id="line2d_3">
      <g>
       <use style="stroke:#000000;stroke-width:0.8;" x="179.311463" xlink:href="#m9f5755b408" y="307.584"/>
      </g>
     </g>
     <g id="text_3">
      <!-- 400 -->
      <defs>
       <path d="M 37.796875 64.3125 
L 12.890625 25.390625 
L 37.796875 25.390625 
z
M 35.203125 72.90625 
L 47.609375 72.90625 
L 47.609375 25.390625 
L 58.015625 25.390625 
L 58.015625 17.1875 
L 47.609375 17.1875 
L 47.609375 0 
L 37.796875 0 
L 37.796875 17.1875 
L 4.890625 17.1875 
L 4.890625 26.703125 
z
" id="DejaVuSans-52"/>
      </defs>
      <g transform="translate(169.767713 322.182437)scale(0.1 -0.1)">
       <use xlink:href="#DejaVuSans-52"/>
       <use x="63.623047" xlink:href="#DejaVuSans-48"/>
       <use x="127.246094" xlink:href="#DejaVuSans-48"/>
      </g>
     </g>
    </g>
    <g id="xtick_4">
     <g id="line2d_4">
      <g>
       <use style="stroke:#000000;stroke-width:0.8;" x="226.617559" xlink:href="#m9f5755b408" y="307.584"/>
      </g>
     </g>
     <g id="text_4">
      <!-- 600 -->
      <defs>
       <path d="M 33.015625 40.375 
Q 26.375 40.375 22.484375 35.828125 
Q 18.609375 31.296875 18.609375 23.390625 
Q 18.609375 15.53125 22.484375 10.953125 
Q 26.375 6.390625 33.015625 6.390625 
Q 39.65625 6.390625 43.53125 10.953125 
Q 47.40625 15.53125 47.40625 23.390625 
Q 47.40625 31.296875 43.53125 35.828125 
Q 39.65625 40.375 33.015625 40.375 
z
M 52.59375 71.296875 
L 52.59375 62.3125 
Q 48.875 64.0625 45.09375 64.984375 
Q 41.3125 65.921875 37.59375 65.921875 
Q 27.828125 65.921875 22.671875 59.328125 
Q 17.53125 52.734375 16.796875 39.40625 
Q 19.671875 43.65625 24.015625 45.921875 
Q 28.375 48.1875 33.59375 48.1875 
Q 44.578125 48.1875 50.953125 41.515625 
Q 57.328125 34.859375 57.328125 23.390625 
Q 57.328125 12.15625 50.6875 5.359375 
Q 44.046875 -1.421875 33.015625 -1.421875 
Q 20.359375 -1.421875 13.671875 8.265625 
Q 6.984375 17.96875 6.984375 36.375 
Q 6.984375 53.65625 15.1875 63.9375 
Q 23.390625 74.21875 37.203125 74.21875 
Q 40.921875 74.21875 44.703125 73.484375 
Q 48.484375 72.75 52.59375 71.296875 
z
" id="DejaVuSans-54"/>
      </defs>
      <g transform="translate(217.073809 322.182437)scale(0.1 -0.1)">
       <use xlink:href="#DejaVuSans-54"/>
       <use x="63.623047" xlink:href="#DejaVuSans-48"/>
       <use x="127.246094" xlink:href="#DejaVuSans-48"/>
      </g>
     </g>
    </g>
    <g id="xtick_5">
     <g id="line2d_5">
      <g>
       <use style="stroke:#000000;stroke-width:0.8;" x="273.923655" xlink:href="#m9f5755b408" y="307.584"/>
      </g>
     </g>
     <g id="text_5">
      <!-- 800 -->
      <defs>
       <path d="M 31.78125 34.625 
Q 24.75 34.625 20.71875 30.859375 
Q 16.703125 27.09375 16.703125 20.515625 
Q 16.703125 13.921875 20.71875 10.15625 
Q 24.75 6.390625 31.78125 6.390625 
Q 38.8125 6.390625 42.859375 10.171875 
Q 46.921875 13.96875 46.921875 20.515625 
Q 46.921875 27.09375 42.890625 30.859375 
Q 38.875 34.625 31.78125 34.625 
z
M 21.921875 38.8125 
Q 15.578125 40.375 12.03125 44.71875 
Q 8.5 49.078125 8.5 55.328125 
Q 8.5 64.0625 14.71875 69.140625 
Q 20.953125 74.21875 31.78125 74.21875 
Q 42.671875 74.21875 48.875 69.140625 
Q 55.078125 64.0625 55.078125 55.328125 
Q 55.078125 49.078125 51.53125 44.71875 
Q 48 40.375 41.703125 38.8125 
Q 48.828125 37.15625 52.796875 32.3125 
Q 56.78125 27.484375 56.78125 20.515625 
Q 56.78125 9.90625 50.3125 4.234375 
Q 43.84375 -1.421875 31.78125 -1.421875 
Q 19.734375 -1.421875 13.25 4.234375 
Q 6.78125 9.90625 6.78125 20.515625 
Q 6.78125 27.484375 10.78125 32.3125 
Q 14.796875 37.15625 21.921875 38.8125 
z
M 18.3125 54.390625 
Q 18.3125 48.734375 21.84375 45.5625 
Q 25.390625 42.390625 31.78125 42.390625 
Q 38.140625 42.390625 41.71875 45.5625 
Q 45.3125 48.734375 45.3125 54.390625 
Q 45.3125 60.0625 41.71875 63.234375 
Q 38.140625 66.40625 31.78125 66.40625 
Q 25.390625 66.40625 21.84375 63.234375 
Q 18.3125 60.0625 18.3125 54.390625 
z
" id="DejaVuSans-56"/>
      </defs>
      <g transform="translate(264.379905 322.182437)scale(0.1 -0.1)">
       <use xlink:href="#DejaVuSans-56"/>
       <use x="63.623047" xlink:href="#DejaVuSans-48"/>
       <use x="127.246094" xlink:href="#DejaVuSans-48"/>
      </g>
     </g>
    </g>
    <g id="xtick_6">
     <g id="line2d_6">
      <g>
       <use style="stroke:#000000;stroke-width:0.8;" x="321.229751" xlink:href="#m9f5755b408" y="307.584"/>
      </g>
     </g>
     <g id="text_6">
      <!-- 1000 -->
      <defs>
       <path d="M 12.40625 8.296875 
L 28.515625 8.296875 
L 28.515625 63.921875 
L 10.984375 60.40625 
L 10.984375 69.390625 
L 28.421875 72.90625 
L 38.28125 72.90625 
L 38.28125 8.296875 
L 54.390625 8.296875 
L 54.390625 0 
L 12.40625 0 
z
" id="DejaVuSans-49"/>
      </defs>
      <g transform="translate(308.504751 322.182437)scale(0.1 -0.1)">
       <use xlink:href="#DejaVuSans-49"/>
       <use x="63.623047" xlink:href="#DejaVuSans-48"/>
       <use x="127.246094" xlink:href="#DejaVuSans-48"/>
       <use x="190.869141" xlink:href="#DejaVuSans-48"/>
      </g>
     </g>
    </g>
    <g id="xtick_7">
     <g id="line2d_7">
      <g>
       <use style="stroke:#000000;stroke-width:0.8;" x="368.535847" xlink:href="#m9f5755b408" y="307.584"/>
      </g>
     </g>
     <g id="text_7">
      <!-- 1200 -->
      <g transform="translate(355.810847 322.182437)scale(0.1 -0.1)">
       <use xlink:href="#DejaVuSans-49"/>
       <use x="63.623047" xlink:href="#DejaVuSans-50"/>
       <use x="127.246094" xlink:href="#DejaVuSans-48"/>
       <use x="190.869141" xlink:href="#DejaVuSans-48"/>
      </g>
     </g>
    </g>
    <g id="text_8">
     <!-- fibrinoadmac -->
     <defs>
      <path d="M 37.109375 75.984375 
L 37.109375 68.5 
L 28.515625 68.5 
Q 23.6875 68.5 21.796875 66.546875 
Q 19.921875 64.59375 19.921875 59.515625 
L 19.921875 54.6875 
L 34.71875 54.6875 
L 34.71875 47.703125 
L 19.921875 47.703125 
L 19.921875 0 
L 10.890625 0 
L 10.890625 47.703125 
L 2.296875 47.703125 
L 2.296875 54.6875 
L 10.890625 54.6875 
L 10.890625 58.5 
Q 10.890625 67.625 15.140625 71.796875 
Q 19.390625 75.984375 28.609375 75.984375 
z
" id="DejaVuSans-102"/>
      <path d="M 9.421875 54.6875 
L 18.40625 54.6875 
L 18.40625 0 
L 9.421875 0 
z
M 9.421875 75.984375 
L 18.40625 75.984375 
L 18.40625 64.59375 
L 9.421875 64.59375 
z
" id="DejaVuSans-105"/>
      <path d="M 48.6875 27.296875 
Q 48.6875 37.203125 44.609375 42.84375 
Q 40.53125 48.484375 33.40625 48.484375 
Q 26.265625 48.484375 22.1875 42.84375 
Q 18.109375 37.203125 18.109375 27.296875 
Q 18.109375 17.390625 22.1875 11.75 
Q 26.265625 6.109375 33.40625 6.109375 
Q 40.53125 6.109375 44.609375 11.75 
Q 48.6875 17.390625 48.6875 27.296875 
z
M 18.109375 46.390625 
Q 20.953125 51.265625 25.265625 53.625 
Q 29.59375 56 35.59375 56 
Q 45.5625 56 51.78125 48.09375 
Q 58.015625 40.1875 58.015625 27.296875 
Q 58.015625 14.40625 51.78125 6.484375 
Q 45.5625 -1.421875 35.59375 -1.421875 
Q 29.59375 -1.421875 25.265625 0.953125 
Q 20.953125 3.328125 18.109375 8.203125 
L 18.109375 0 
L 9.078125 0 
L 9.078125 75.984375 
L 18.109375 75.984375 
z
" id="DejaVuSans-98"/>
      <path d="M 41.109375 46.296875 
Q 39.59375 47.171875 37.8125 47.578125 
Q 36.03125 48 33.890625 48 
Q 26.265625 48 22.1875 43.046875 
Q 18.109375 38.09375 18.109375 28.8125 
L 18.109375 0 
L 9.078125 0 
L 9.078125 54.6875 
L 18.109375 54.6875 
L 18.109375 46.1875 
Q 20.953125 51.171875 25.484375 53.578125 
Q 30.03125 56 36.53125 56 
Q 37.453125 56 38.578125 55.875 
Q 39.703125 55.765625 41.0625 55.515625 
z
" id="DejaVuSans-114"/>
      <path d="M 54.890625 33.015625 
L 54.890625 0 
L 45.90625 0 
L 45.90625 32.71875 
Q 45.90625 40.484375 42.875 44.328125 
Q 39.84375 48.1875 33.796875 48.1875 
Q 26.515625 48.1875 22.3125 43.546875 
Q 18.109375 38.921875 18.109375 30.90625 
L 18.109375 0 
L 9.078125 0 
L 9.078125 54.6875 
L 18.109375 54.6875 
L 18.109375 46.1875 
Q 21.34375 51.125 25.703125 53.5625 
Q 30.078125 56 35.796875 56 
Q 45.21875 56 50.046875 50.171875 
Q 54.890625 44.34375 54.890625 33.015625 
z
" id="DejaVuSans-110"/>
      <path d="M 30.609375 48.390625 
Q 23.390625 48.390625 19.1875 42.75 
Q 14.984375 37.109375 14.984375 27.296875 
Q 14.984375 17.484375 19.15625 11.84375 
Q 23.34375 6.203125 30.609375 6.203125 
Q 37.796875 6.203125 41.984375 11.859375 
Q 46.1875 17.53125 46.1875 27.296875 
Q 46.1875 37.015625 41.984375 42.703125 
Q 37.796875 48.390625 30.609375 48.390625 
z
M 30.609375 56 
Q 42.328125 56 49.015625 48.375 
Q 55.71875 40.765625 55.71875 27.296875 
Q 55.71875 13.875 49.015625 6.21875 
Q 42.328125 -1.421875 30.609375 -1.421875 
Q 18.84375 -1.421875 12.171875 6.21875 
Q 5.515625 13.875 5.515625 27.296875 
Q 5.515625 40.765625 12.171875 48.375 
Q 18.84375 56 30.609375 56 
z
" id="DejaVuSans-111"/>
      <path d="M 34.28125 27.484375 
Q 23.390625 27.484375 19.1875 25 
Q 14.984375 22.515625 14.984375 16.5 
Q 14.984375 11.71875 18.140625 8.90625 
Q 21.296875 6.109375 26.703125 6.109375 
Q 34.1875 6.109375 38.703125 11.40625 
Q 43.21875 16.703125 43.21875 25.484375 
L 43.21875 27.484375 
z
M 52.203125 31.203125 
L 52.203125 0 
L 43.21875 0 
L 43.21875 8.296875 
Q 40.140625 3.328125 35.546875 0.953125 
Q 30.953125 -1.421875 24.3125 -1.421875 
Q 15.921875 -1.421875 10.953125 3.296875 
Q 6 8.015625 6 15.921875 
Q 6 25.140625 12.171875 29.828125 
Q 18.359375 34.515625 30.609375 34.515625 
L 43.21875 34.515625 
L 43.21875 35.40625 
Q 43.21875 41.609375 39.140625 45 
Q 35.0625 48.390625 27.6875 48.390625 
Q 23 48.390625 18.546875 47.265625 
Q 14.109375 46.140625 10.015625 43.890625 
L 10.015625 52.203125 
Q 14.9375 54.109375 19.578125 55.046875 
Q 24.21875 56 28.609375 56 
Q 40.484375 56 46.34375 49.84375 
Q 52.203125 43.703125 52.203125 31.203125 
z
" id="DejaVuSans-97"/>
      <path d="M 45.40625 46.390625 
L 45.40625 75.984375 
L 54.390625 75.984375 
L 54.390625 0 
L 45.40625 0 
L 45.40625 8.203125 
Q 42.578125 3.328125 38.25 0.953125 
Q 33.9375 -1.421875 27.875 -1.421875 
Q 17.96875 -1.421875 11.734375 6.484375 
Q 5.515625 14.40625 5.515625 27.296875 
Q 5.515625 40.1875 11.734375 48.09375 
Q 17.96875 56 27.875 56 
Q 33.9375 56 38.25 53.625 
Q 42.578125 51.265625 45.40625 46.390625 
z
M 14.796875 27.296875 
Q 14.796875 17.390625 18.875 11.75 
Q 22.953125 6.109375 30.078125 6.109375 
Q 37.203125 6.109375 41.296875 11.75 
Q 45.40625 17.390625 45.40625 27.296875 
Q 45.40625 37.203125 41.296875 42.84375 
Q 37.203125 48.484375 30.078125 48.484375 
Q 22.953125 48.484375 18.875 42.84375 
Q 14.796875 37.203125 14.796875 27.296875 
z
" id="DejaVuSans-100"/>
      <path d="M 52 44.1875 
Q 55.375 50.25 60.0625 53.125 
Q 64.75 56 71.09375 56 
Q 79.640625 56 84.28125 50.015625 
Q 88.921875 44.046875 88.921875 33.015625 
L 88.921875 0 
L 79.890625 0 
L 79.890625 32.71875 
Q 79.890625 40.578125 77.09375 44.375 
Q 74.3125 48.1875 68.609375 48.1875 
Q 61.625 48.1875 57.5625 43.546875 
Q 53.515625 38.921875 53.515625 30.90625 
L 53.515625 0 
L 44.484375 0 
L 44.484375 32.71875 
Q 44.484375 40.625 41.703125 44.40625 
Q 38.921875 48.1875 33.109375 48.1875 
Q 26.21875 48.1875 22.15625 43.53125 
Q 18.109375 38.875 18.109375 30.90625 
L 18.109375 0 
L 9.078125 0 
L 9.078125 54.6875 
L 18.109375 54.6875 
L 18.109375 46.1875 
Q 21.1875 51.21875 25.484375 53.609375 
Q 29.78125 56 35.6875 56 
Q 41.65625 56 45.828125 52.96875 
Q 50 49.953125 52 44.1875 
z
" id="DejaVuSans-109"/>
      <path d="M 48.78125 52.59375 
L 48.78125 44.1875 
Q 44.96875 46.296875 41.140625 47.34375 
Q 37.3125 48.390625 33.40625 48.390625 
Q 24.65625 48.390625 19.8125 42.84375 
Q 14.984375 37.3125 14.984375 27.296875 
Q 14.984375 17.28125 19.8125 11.734375 
Q 24.65625 6.203125 33.40625 6.203125 
Q 37.3125 6.203125 41.140625 7.25 
Q 44.96875 8.296875 48.78125 10.40625 
L 48.78125 2.09375 
Q 45.015625 0.34375 40.984375 -0.53125 
Q 36.96875 -1.421875 32.421875 -1.421875 
Q 20.0625 -1.421875 12.78125 6.34375 
Q 5.515625 14.109375 5.515625 27.296875 
Q 5.515625 40.671875 12.859375 48.328125 
Q 20.21875 56 33.015625 56 
Q 37.15625 56 41.109375 55.140625 
Q 45.0625 54.296875 48.78125 52.59375 
z
" id="DejaVuSans-99"/>
     </defs>
     <g transform="translate(203.242031 335.860562)scale(0.1 -0.1)">
      <use xlink:href="#DejaVuSans-102"/>
      <use x="35.205078" xlink:href="#DejaVuSans-105"/>
      <use x="62.988281" xlink:href="#DejaVuSans-98"/>
      <use x="126.464844" xlink:href="#DejaVuSans-114"/>
      <use x="167.578125" xlink:href="#DejaVuSans-105"/>
      <use x="195.361328" xlink:href="#DejaVuSans-110"/>
      <use x="258.740234" xlink:href="#DejaVuSans-111"/>
      <use x="319.921875" xlink:href="#DejaVuSans-97"/>
      <use x="381.201172" xlink:href="#DejaVuSans-100"/>
      <use x="444.677734" xlink:href="#DejaVuSans-109"/>
      <use x="542.089844" xlink:href="#DejaVuSans-97"/>
      <use x="603.369141" xlink:href="#DejaVuSans-99"/>
     </g>
    </g>
   </g>
   <g id="matplotlib.axis_2">
    <g id="ytick_1">
     <g id="line2d_8">
      <defs>
       <path d="M 0 0 
L -3.5 0 
" id="m82bd14a71d" style="stroke:#000000;stroke-width:0.8;"/>
      </defs>
      <g>
       <use style="stroke:#000000;stroke-width:0.8;" x="57.6" xlink:href="#m82bd14a71d" y="174.528"/>
      </g>
     </g>
    </g>
   </g>
   <g id="line2d_9">
    <path clip-path="url(#p28b2622bb7)" d="M 125.619045 174.528 
L 347.011573 174.528 
" style="fill:none;stroke:#ffa500;stroke-linecap:square;stroke-width:1.5;"/>
   </g>
   <g id="line2d_10">
    <path clip-path="url(#p28b2622bb7)" d="M 197.465178 174.528 
L 266.946006 174.528 
" style="fill:none;stroke:#4c4c4c;stroke-linecap:square;stroke-width:4.5;"/>
   </g>
   <g id="line2d_11">
    <path clip-path="url(#p28b2622bb7)" d="M 119.942313 174.528 
L 313.187715 174.528 
" style="fill:none;stroke:#008000;stroke-linecap:square;stroke-width:1.5;"/>
   </g>
   <g id="line2d_12">
    <path clip-path="url(#p28b2622bb7)" d="M 174.817384 174.528 
L 241.99204 174.528 
" style="fill:none;stroke:#262626;stroke-linecap:square;stroke-width:4.5;"/>
   </g>
   <g id="patch_3">
    <path d="M 57.6 307.584 
L 57.6 41.472 
" style="fill:none;stroke:#000000;stroke-linecap:square;stroke-linejoin:miter;stroke-width:0.8;"/>
   </g>
   <g id="patch_4">
    <path d="M 414.72 307.584 
L 414.72 41.472 
" style="fill:none;stroke:#000000;stroke-linecap:square;stroke-linejoin:miter;stroke-width:0.8;"/>
   </g>
   <g id="patch_5">
    <path d="M 57.6 307.584 
L 414.72 307.584 
" style="fill:none;stroke:#000000;stroke-linecap:square;stroke-linejoin:miter;stroke-width:0.8;"/>
   </g>
   <g id="patch_6">
    <path d="M 57.6 41.472 
L 414.72 41.472 
" style="fill:none;stroke:#000000;stroke-linecap:square;stroke-linejoin:miter;stroke-width:0.8;"/>
   </g>
   <g id="PathCollection_1">
    <defs>
     <path d="M 0 1.5 
C 0.397805 1.5 0.77937 1.341951 1.06066 1.06066 
C 1.341951 0.77937 1.5 0.397805 1.5 0 
C 1.5 -0.397805 1.341951 -0.77937 1.06066 -1.06066 
C 0.77937 -1.341951 0.397805 -1.5 0 -1.5 
C -0.397805 -1.5 -0.77937 -1.341951 -1.06066 -1.06066 
C -1.341951 -0.77937 -1.5 -0.397805 -1.5 0 
C -1.5 0.397805 -1.341951 0.77937 -1.06066 1.06066 
C -0.77937 1.341951 -0.397805 1.5 0 1.5 
z
" id="m80beb9c066" style="stroke:#4c4c4c;stroke-opacity:0.5;"/>
    </defs>
    <g clip-path="url(#p28b2622bb7)">
     <use style="fill:#ffffff;fill-opacity:0.5;stroke:#4c4c4c;stroke-opacity:0.5;" x="229.928986" xlink:href="#m80beb9c066" y="174.528"/>
    </g>
   </g>
   <g id="PathCollection_2">
    <defs>
     <path d="M 0 1.5 
C 0.397805 1.5 0.77937 1.341951 1.06066 1.06066 
C 1.341951 0.77937 1.5 0.397805 1.5 0 
C 1.5 -0.397805 1.341951 -0.77937 1.06066 -1.06066 
C 0.77937 -1.341951 0.397805 -1.5 0 -1.5 
C -0.397805 -1.5 -0.77937 -1.341951 -1.06066 -1.06066 
C -1.341951 -0.77937 -1.5 -0.397805 -1.5 0 
C -1.5 0.397805 -1.341951 0.77937 -1.06066 1.06066 
C -0.77937 1.341951 -0.397805 1.5 0 1.5 
z
" id="mf7ae528b3c" style="stroke:#262626;stroke-opacity:0.5;"/>
    </defs>
    <g clip-path="url(#p28b2622bb7)">
     <use style="fill:#ffffff;fill-opacity:0.5;stroke:#262626;stroke-opacity:0.5;" x="202.964511" xlink:href="#mf7ae528b3c" y="174.528"/>
    </g>
   </g>
   <g id="text_9">
    <!-- Association of fibrinoadmac vs. non_rebreather_mask -->
    <defs>
     <path d="M 34.1875 63.1875 
L 20.796875 26.90625 
L 47.609375 26.90625 
z
M 28.609375 72.90625 
L 39.796875 72.90625 
L 67.578125 0 
L 57.328125 0 
L 50.6875 18.703125 
L 17.828125 18.703125 
L 11.1875 0 
L 0.78125 0 
z
" id="DejaVuSans-65"/>
     <path d="M 44.28125 53.078125 
L 44.28125 44.578125 
Q 40.484375 46.53125 36.375 47.5 
Q 32.28125 48.484375 27.875 48.484375 
Q 21.1875 48.484375 17.84375 46.4375 
Q 14.5 44.390625 14.5 40.28125 
Q 14.5 37.15625 16.890625 35.375 
Q 19.28125 33.59375 26.515625 31.984375 
L 29.59375 31.296875 
Q 39.15625 29.25 43.1875 25.515625 
Q 47.21875 21.78125 47.21875 15.09375 
Q 47.21875 7.46875 41.1875 3.015625 
Q 35.15625 -1.421875 24.609375 -1.421875 
Q 20.21875 -1.421875 15.453125 -0.5625 
Q 10.6875 0.296875 5.421875 2 
L 5.421875 11.28125 
Q 10.40625 8.6875 15.234375 7.390625 
Q 20.0625 6.109375 24.8125 6.109375 
Q 31.15625 6.109375 34.5625 8.28125 
Q 37.984375 10.453125 37.984375 14.40625 
Q 37.984375 18.0625 35.515625 20.015625 
Q 33.0625 21.96875 24.703125 23.78125 
L 21.578125 24.515625 
Q 13.234375 26.265625 9.515625 29.90625 
Q 5.8125 33.546875 5.8125 39.890625 
Q 5.8125 47.609375 11.28125 51.796875 
Q 16.75 56 26.8125 56 
Q 31.78125 56 36.171875 55.265625 
Q 40.578125 54.546875 44.28125 53.078125 
z
" id="DejaVuSans-115"/>
     <path d="M 18.3125 70.21875 
L 18.3125 54.6875 
L 36.8125 54.6875 
L 36.8125 47.703125 
L 18.3125 47.703125 
L 18.3125 18.015625 
Q 18.3125 11.328125 20.140625 9.421875 
Q 21.96875 7.515625 27.59375 7.515625 
L 36.8125 7.515625 
L 36.8125 0 
L 27.59375 0 
Q 17.1875 0 13.234375 3.875 
Q 9.28125 7.765625 9.28125 18.015625 
L 9.28125 47.703125 
L 2.6875 47.703125 
L 2.6875 54.6875 
L 9.28125 54.6875 
L 9.28125 70.21875 
z
" id="DejaVuSans-116"/>
     <path id="DejaVuSans-32"/>
     <path d="M 2.984375 54.6875 
L 12.5 54.6875 
L 29.59375 8.796875 
L 46.6875 54.6875 
L 56.203125 54.6875 
L 35.6875 0 
L 23.484375 0 
z
" id="DejaVuSans-118"/>
     <path d="M 10.6875 12.40625 
L 21 12.40625 
L 21 0 
L 10.6875 0 
z
" id="DejaVuSans-46"/>
     <path d="M 50.984375 -16.609375 
L 50.984375 -23.578125 
L -0.984375 -23.578125 
L -0.984375 -16.609375 
z
" id="DejaVuSans-95"/>
     <path d="M 56.203125 29.59375 
L 56.203125 25.203125 
L 14.890625 25.203125 
Q 15.484375 15.921875 20.484375 11.0625 
Q 25.484375 6.203125 34.421875 6.203125 
Q 39.59375 6.203125 44.453125 7.46875 
Q 49.3125 8.734375 54.109375 11.28125 
L 54.109375 2.78125 
Q 49.265625 0.734375 44.1875 -0.34375 
Q 39.109375 -1.421875 33.890625 -1.421875 
Q 20.796875 -1.421875 13.15625 6.1875 
Q 5.515625 13.8125 5.515625 26.8125 
Q 5.515625 40.234375 12.765625 48.109375 
Q 20.015625 56 32.328125 56 
Q 43.359375 56 49.78125 48.890625 
Q 56.203125 41.796875 56.203125 29.59375 
z
M 47.21875 32.234375 
Q 47.125 39.59375 43.09375 43.984375 
Q 39.0625 48.390625 32.421875 48.390625 
Q 24.90625 48.390625 20.390625 44.140625 
Q 15.875 39.890625 15.1875 32.171875 
z
" id="DejaVuSans-101"/>
     <path d="M 54.890625 33.015625 
L 54.890625 0 
L 45.90625 0 
L 45.90625 32.71875 
Q 45.90625 40.484375 42.875 44.328125 
Q 39.84375 48.1875 33.796875 48.1875 
Q 26.515625 48.1875 22.3125 43.546875 
Q 18.109375 38.921875 18.109375 30.90625 
L 18.109375 0 
L 9.078125 0 
L 9.078125 75.984375 
L 18.109375 75.984375 
L 18.109375 46.1875 
Q 21.34375 51.125 25.703125 53.5625 
Q 30.078125 56 35.796875 56 
Q 45.21875 56 50.046875 50.171875 
Q 54.890625 44.34375 54.890625 33.015625 
z
" id="DejaVuSans-104"/>
     <path d="M 9.078125 75.984375 
L 18.109375 75.984375 
L 18.109375 31.109375 
L 44.921875 54.6875 
L 56.390625 54.6875 
L 27.390625 29.109375 
L 57.625 0 
L 45.90625 0 
L 18.109375 26.703125 
L 18.109375 0 
L 9.078125 0 
z
" id="DejaVuSans-107"/>
    </defs>
    <g transform="translate(75.257812 35.472)scale(0.12 -0.12)">
     <use xlink:href="#DejaVuSans-65"/>
     <use x="68.408203" xlink:href="#DejaVuSans-115"/>
     <use x="120.507812" xlink:href="#DejaVuSans-115"/>
     <use x="172.607422" xlink:href="#DejaVuSans-111"/>
     <use x="233.789062" xlink:href="#DejaVuSans-99"/>
     <use x="288.769531" xlink:href="#DejaVuSans-105"/>
     <use x="316.552734" xlink:href="#DejaVuSans-97"/>
     <use x="377.832031" xlink:href="#DejaVuSans-116"/>
     <use x="417.041016" xlink:href="#DejaVuSans-105"/>
     <use x="444.824219" xlink:href="#DejaVuSans-111"/>
     <use x="506.005859" xlink:href="#DejaVuSans-110"/>
     <use x="569.384766" xlink:href="#DejaVuSans-32"/>
     <use x="601.171875" xlink:href="#DejaVuSans-111"/>
     <use x="662.353516" xlink:href="#DejaVuSans-102"/>
     <use x="697.558594" xlink:href="#DejaVuSans-32"/>
     <use x="729.345703" xlink:href="#DejaVuSans-102"/>
     <use x="764.550781" xlink:href="#DejaVuSans-105"/>
     <use x="792.333984" xlink:href="#DejaVuSans-98"/>
     <use x="855.810547" xlink:href="#DejaVuSans-114"/>
     <use x="896.923828" xlink:href="#DejaVuSans-105"/>
     <use x="924.707031" xlink:href="#DejaVuSans-110"/>
     <use x="988.085938" xlink:href="#DejaVuSans-111"/>
     <use x="1049.267578" xlink:href="#DejaVuSans-97"/>
     <use x="1110.546875" xlink:href="#DejaVuSans-100"/>
     <use x="1174.023438" xlink:href="#DejaVuSans-109"/>
     <use x="1271.435547" xlink:href="#DejaVuSans-97"/>
     <use x="1332.714844" xlink:href="#DejaVuSans-99"/>
     <use x="1387.695312" xlink:href="#DejaVuSans-32"/>
     <use x="1419.482422" xlink:href="#DejaVuSans-118"/>
     <use x="1478.662109" xlink:href="#DejaVuSans-115"/>
     <use x="1530.761719" xlink:href="#DejaVuSans-46"/>
     <use x="1562.548828" xlink:href="#DejaVuSans-32"/>
     <use x="1594.335938" xlink:href="#DejaVuSans-110"/>
     <use x="1657.714844" xlink:href="#DejaVuSans-111"/>
     <use x="1718.896484" xlink:href="#DejaVuSans-110"/>
     <use x="1782.275391" xlink:href="#DejaVuSans-95"/>
     <use x="1832.275391" xlink:href="#DejaVuSans-114"/>
     <use x="1871.138672" xlink:href="#DejaVuSans-101"/>
     <use x="1932.662109" xlink:href="#DejaVuSans-98"/>
     <use x="1996.138672" xlink:href="#DejaVuSans-114"/>
     <use x="2035.001953" xlink:href="#DejaVuSans-101"/>
     <use x="2096.525391" xlink:href="#DejaVuSans-97"/>
     <use x="2157.804688" xlink:href="#DejaVuSans-116"/>
     <use x="2197.013672" xlink:href="#DejaVuSans-104"/>
     <use x="2260.392578" xlink:href="#DejaVuSans-101"/>
     <use x="2321.916016" xlink:href="#DejaVuSans-114"/>
     <use x="2363.029297" xlink:href="#DejaVuSans-95"/>
     <use x="2413.029297" xlink:href="#DejaVuSans-109"/>
     <use x="2510.441406" xlink:href="#DejaVuSans-97"/>
     <use x="2571.720703" xlink:href="#DejaVuSans-115"/>
     <use x="2623.820312" xlink:href="#DejaVuSans-107"/>
    </g>
   </g>
   <g id="legend_1">
    <g id="patch_7">
     <path d="M 222.57625 79.3845 
L 407.72 79.3845 
Q 409.72 79.3845 409.72 77.3845 
L 409.72 48.472 
Q 409.72 46.472 407.72 46.472 
L 222.57625 46.472 
Q 220.57625 46.472 220.57625 48.472 
L 220.57625 77.3845 
Q 220.57625 79.3845 222.57625 79.3845 
z
" style="fill:#ffffff;opacity:0.8;stroke:#cccccc;stroke-linejoin:miter;"/>
    </g>
    <g id="line2d_13">
     <path d="M 224.57625 54.570438 
L 244.57625 54.570438 
" style="fill:none;stroke:#ffa500;stroke-linecap:square;stroke-width:1.5;"/>
    </g>
    <g id="line2d_14"/>
    <g id="text_10">
     <!-- non_rebreather_mask (34) -->
     <defs>
      <path d="M 31 75.875 
Q 24.46875 64.65625 21.28125 53.65625 
Q 18.109375 42.671875 18.109375 31.390625 
Q 18.109375 20.125 21.3125 9.0625 
Q 24.515625 -2 31 -13.1875 
L 23.1875 -13.1875 
Q 15.875 -1.703125 12.234375 9.375 
Q 8.59375 20.453125 8.59375 31.390625 
Q 8.59375 42.28125 12.203125 53.3125 
Q 15.828125 64.359375 23.1875 75.875 
z
" id="DejaVuSans-40"/>
      <path d="M 40.578125 39.3125 
Q 47.65625 37.796875 51.625 33 
Q 55.609375 28.21875 55.609375 21.1875 
Q 55.609375 10.40625 48.1875 4.484375 
Q 40.765625 -1.421875 27.09375 -1.421875 
Q 22.515625 -1.421875 17.65625 -0.515625 
Q 12.796875 0.390625 7.625 2.203125 
L 7.625 11.71875 
Q 11.71875 9.328125 16.59375 8.109375 
Q 21.484375 6.890625 26.8125 6.890625 
Q 36.078125 6.890625 40.9375 10.546875 
Q 45.796875 14.203125 45.796875 21.1875 
Q 45.796875 27.640625 41.28125 31.265625 
Q 36.765625 34.90625 28.71875 34.90625 
L 20.21875 34.90625 
L 20.21875 43.015625 
L 29.109375 43.015625 
Q 36.375 43.015625 40.234375 45.921875 
Q 44.09375 48.828125 44.09375 54.296875 
Q 44.09375 59.90625 40.109375 62.90625 
Q 36.140625 65.921875 28.71875 65.921875 
Q 24.65625 65.921875 20.015625 65.03125 
Q 15.375 64.15625 9.8125 62.3125 
L 9.8125 71.09375 
Q 15.4375 72.65625 20.34375 73.4375 
Q 25.25 74.21875 29.59375 74.21875 
Q 40.828125 74.21875 47.359375 69.109375 
Q 53.90625 64.015625 53.90625 55.328125 
Q 53.90625 49.265625 50.4375 45.09375 
Q 46.96875 40.921875 40.578125 39.3125 
z
" id="DejaVuSans-51"/>
      <path d="M 8.015625 75.875 
L 15.828125 75.875 
Q 23.140625 64.359375 26.78125 53.3125 
Q 30.421875 42.28125 30.421875 31.390625 
Q 30.421875 20.453125 26.78125 9.375 
Q 23.140625 -1.703125 15.828125 -13.1875 
L 8.015625 -13.1875 
Q 14.5 -2 17.703125 9.0625 
Q 20.90625 20.125 20.90625 31.390625 
Q 20.90625 42.671875 17.703125 53.65625 
Q 14.5 64.65625 8.015625 75.875 
z
" id="DejaVuSans-41"/>
     </defs>
     <g transform="translate(252.57625 58.070438)scale(0.1 -0.1)">
      <use xlink:href="#DejaVuSans-110"/>
      <use x="63.378906" xlink:href="#DejaVuSans-111"/>
      <use x="124.560547" xlink:href="#DejaVuSans-110"/>
      <use x="187.939453" xlink:href="#DejaVuSans-95"/>
      <use x="237.939453" xlink:href="#DejaVuSans-114"/>
      <use x="276.802734" xlink:href="#DejaVuSans-101"/>
      <use x="338.326172" xlink:href="#DejaVuSans-98"/>
      <use x="401.802734" xlink:href="#DejaVuSans-114"/>
      <use x="440.666016" xlink:href="#DejaVuSans-101"/>
      <use x="502.189453" xlink:href="#DejaVuSans-97"/>
      <use x="563.46875" xlink:href="#DejaVuSans-116"/>
      <use x="602.677734" xlink:href="#DejaVuSans-104"/>
      <use x="666.056641" xlink:href="#DejaVuSans-101"/>
      <use x="727.580078" xlink:href="#DejaVuSans-114"/>
      <use x="768.693359" xlink:href="#DejaVuSans-95"/>
      <use x="818.693359" xlink:href="#DejaVuSans-109"/>
      <use x="916.105469" xlink:href="#DejaVuSans-97"/>
      <use x="977.384766" xlink:href="#DejaVuSans-115"/>
      <use x="1029.484375" xlink:href="#DejaVuSans-107"/>
      <use x="1087.394531" xlink:href="#DejaVuSans-32"/>
      <use x="1119.181641" xlink:href="#DejaVuSans-40"/>
      <use x="1158.195312" xlink:href="#DejaVuSans-51"/>
      <use x="1221.818359" xlink:href="#DejaVuSans-52"/>
      <use x="1285.441406" xlink:href="#DejaVuSans-41"/>
     </g>
    </g>
    <g id="line2d_15">
     <path d="M 224.57625 69.526688 
L 244.57625 69.526688 
" style="fill:none;stroke:#008000;stroke-linecap:square;stroke-width:1.5;"/>
    </g>
    <g id="line2d_16"/>
    <g id="text_11">
     <!-- Not non_rebreather_mask (41) -->
     <defs>
      <path d="M 9.8125 72.90625 
L 23.09375 72.90625 
L 55.421875 11.921875 
L 55.421875 72.90625 
L 64.984375 72.90625 
L 64.984375 0 
L 51.703125 0 
L 19.390625 60.984375 
L 19.390625 0 
L 9.8125 0 
z
" id="DejaVuSans-78"/>
     </defs>
     <g transform="translate(252.57625 73.026688)scale(0.1 -0.1)">
      <use xlink:href="#DejaVuSans-78"/>
      <use x="74.804688" xlink:href="#DejaVuSans-111"/>
      <use x="135.986328" xlink:href="#DejaVuSans-116"/>
      <use x="175.195312" xlink:href="#DejaVuSans-32"/>
      <use x="206.982422" xlink:href="#DejaVuSans-110"/>
      <use x="270.361328" xlink:href="#DejaVuSans-111"/>
      <use x="331.542969" xlink:href="#DejaVuSans-110"/>
      <use x="394.921875" xlink:href="#DejaVuSans-95"/>
      <use x="444.921875" xlink:href="#DejaVuSans-114"/>
      <use x="483.785156" xlink:href="#DejaVuSans-101"/>
      <use x="545.308594" xlink:href="#DejaVuSans-98"/>
      <use x="608.785156" xlink:href="#DejaVuSans-114"/>
      <use x="647.648438" xlink:href="#DejaVuSans-101"/>
      <use x="709.171875" xlink:href="#DejaVuSans-97"/>
      <use x="770.451172" xlink:href="#DejaVuSans-116"/>
      <use x="809.660156" xlink:href="#DejaVuSans-104"/>
      <use x="873.039062" xlink:href="#DejaVuSans-101"/>
      <use x="934.5625" xlink:href="#DejaVuSans-114"/>
      <use x="975.675781" xlink:href="#DejaVuSans-95"/>
      <use x="1025.675781" xlink:href="#DejaVuSans-109"/>
      <use x="1123.087891" xlink:href="#DejaVuSans-97"/>
      <use x="1184.367188" xlink:href="#DejaVuSans-115"/>
      <use x="1236.466797" xlink:href="#DejaVuSans-107"/>
      <use x="1294.376953" xlink:href="#DejaVuSans-32"/>
      <use x="1326.164062" xlink:href="#DejaVuSans-40"/>
      <use x="1365.177734" xlink:href="#DejaVuSans-52"/>
      <use x="1428.800781" xlink:href="#DejaVuSans-49"/>
      <use x="1492.423828" xlink:href="#DejaVuSans-41"/>
     </g>
    </g>
   </g>
  </g>
 </g>
 <defs>
  <clipPath id="p28b2622bb7">
   <rect height="266.112" width="357.12" x="57.6" y="41.472"/>
  </clipPath>
 </defs>
</svg>
