<?xml version="1.0" encoding="utf-8" standalone="no"?>
<!DOCTYPE svg PUBLIC "-//W3C//DTD SVG 1.1//EN"
  "http://www.w3.org/Graphics/SVG/1.1/DTD/svg11.dtd">
<!-- Created with matplotlib (https://matplotlib.org/) -->
<svg height="345.6pt" version="1.1" viewBox="0 0 460.8 345.6" width="460.8pt" xmlns="http://www.w3.org/2000/svg" xmlns:xlink="http://www.w3.org/1999/xlink">
 <defs>
  <style type="text/css">
*{stroke-linecap:butt;stroke-linejoin:round;}
  </style>
 </defs>
 <g id="figure_1">
  <g id="patch_1">
   <path d="M 0 345.6 
L 460.8 345.6 
L 460.8 0 
L 0 0 
z
" style="fill:#ffffff;"/>
  </g>
  <g id="axes_1">
   <g id="patch_2">
    <path d="M 57.6 307.584 
L 414.72 307.584 
L 414.72 41.472 
L 57.6 41.472 
z
" style="fill:#ffffff;"/>
   </g>
   <g id="PolyCollection_1">
    <defs>
     <path d="M 73.832727 -158.654853 
L 73.832727 -183.489147 
L 77.112066 -186.225957 
L 80.391405 -189.390918 
L 83.670744 -193.008062 
L 86.950083 -197.092724 
L 90.229421 -201.649373 
L 93.50876 -206.669607 
L 96.788099 -212.130468 
L 100.067438 -217.993208 
L 103.346777 -224.202678 
L 106.626116 -230.687418 
L 109.905455 -237.360556 
L 113.184793 -244.121529 
L 116.464132 -250.858631 
L 119.743471 -257.452278 
L 123.02281 -263.778892 
L 126.302149 -269.715202 
L 129.581488 -275.142745 
L 132.860826 -279.952328 
L 136.140165 -284.048198 
L 139.419504 -287.351685 
L 142.698843 -289.804107 
L 145.978182 -291.368775 
L 149.257521 -292.032 
L 152.53686 -291.803056 
L 155.816198 -290.713128 
L 159.095537 -288.813336 
L 162.374876 -286.171977 
L 165.654215 -282.871162 
L 168.933554 -279.003076 
L 172.212893 -274.666059 
L 175.492231 -269.960747 
L 178.77157 -264.986444 
L 182.050909 -259.837913 
L 185.330248 -254.602703 
L 188.609587 -249.359083 
L 191.888926 -244.174648 
L 195.168264 -239.10557 
L 198.447603 -234.196462 
L 201.726942 -229.480789 
L 205.006281 -224.98173 
L 208.28562 -220.713372 
L 211.564959 -216.682147 
L 214.844298 -212.888378 
L 218.123636 -209.327842 
L 221.402975 -205.993262 
L 224.682314 -202.87565 
L 227.961653 -199.965455 
L 231.240992 -197.253476 
L 234.520331 -194.731531 
L 237.799669 -192.392884 
L 241.079008 -190.232445 
L 244.358347 -188.246779 
L 247.637686 -186.433941 
L 250.917025 -184.793198 
L 254.196364 -183.32466 
L 257.475702 -182.028858 
L 260.755041 -180.906302 
L 264.03438 -179.957048 
L 267.313719 -179.180282 
L 270.593058 -178.573948 
L 273.872397 -178.134418 
L 277.151736 -177.856224 
L 280.431074 -177.73184 
L 283.710413 -177.751545 
L 286.989752 -177.903343 
L 290.269091 -178.172978 
L 293.54843 -178.544026 
L 296.827769 -178.998083 
L 300.107107 -179.515054 
L 303.386446 -180.073537 
L 306.665785 -180.651306 
L 309.945124 -181.225868 
L 313.224463 -181.775095 
L 316.503802 -182.277882 
L 319.78314 -182.714825 
L 323.062479 -183.068861 
L 326.341818 -183.325846 
L 329.621157 -183.475037 
L 332.900496 -183.509431 
L 336.179835 -183.425959 
L 339.459174 -183.225503 
L 342.738512 -182.912739 
L 346.017851 -182.495816 
L 349.29719 -181.985885 
L 352.576529 -181.396514 
L 355.855868 -180.743017 
L 359.135207 -180.041743 
L 362.414545 -179.309362 
L 365.693884 -178.562194 
L 368.973223 -177.815607 
L 372.252562 -177.083513 
L 375.531901 -176.377991 
L 378.81124 -175.709024 
L 382.090579 -175.084378 
L 385.369917 -174.509584 
L 388.649256 -173.98804 
L 391.928595 -173.521189 
L 395.207934 -173.108757 
L 398.487273 -172.749044 
L 398.487273 -169.394956 
L 398.487273 -169.394956 
L 395.207934 -169.035243 
L 391.928595 -168.622811 
L 388.649256 -168.15596 
L 385.369917 -167.634416 
L 382.090579 -167.059622 
L 378.81124 -166.434976 
L 375.531901 -165.766009 
L 372.252562 -165.060487 
L 368.973223 -164.328393 
L 365.693884 -163.581806 
L 362.414545 -162.834638 
L 359.135207 -162.102257 
L 355.855868 -161.400983 
L 352.576529 -160.747486 
L 349.29719 -160.158115 
L 346.017851 -159.648184 
L 342.738512 -159.231261 
L 339.459174 -158.918497 
L 336.179835 -158.718041 
L 332.900496 -158.634569 
L 329.621157 -158.668963 
L 326.341818 -158.818154 
L 323.062479 -159.075139 
L 319.78314 -159.429175 
L 316.503802 -159.866118 
L 313.224463 -160.368905 
L 309.945124 -160.918132 
L 306.665785 -161.492694 
L 303.386446 -162.070463 
L 300.107107 -162.628946 
L 296.827769 -163.145917 
L 293.54843 -163.599974 
L 290.269091 -163.971022 
L 286.989752 -164.240657 
L 283.710413 -164.392455 
L 280.431074 -164.41216 
L 277.151736 -164.287776 
L 273.872397 -164.009582 
L 270.593058 -163.570052 
L 267.313719 -162.963718 
L 264.03438 -162.186952 
L 260.755041 -161.237698 
L 257.475702 -160.115142 
L 254.196364 -158.81934 
L 250.917025 -157.350802 
L 247.637686 -155.710059 
L 244.358347 -153.897221 
L 241.079008 -151.911555 
L 237.799669 -149.751116 
L 234.520331 -147.412469 
L 231.240992 -144.890524 
L 227.961653 -142.178545 
L 224.682314 -139.26835 
L 221.402975 -136.150738 
L 218.123636 -132.816158 
L 214.844298 -129.255622 
L 211.564959 -125.461853 
L 208.28562 -121.430628 
L 205.006281 -117.16227 
L 201.726942 -112.663211 
L 198.447603 -107.947538 
L 195.168264 -103.03843 
L 191.888926 -97.969352 
L 188.609587 -92.784917 
L 185.330248 -87.541297 
L 182.050909 -82.306087 
L 178.77157 -77.157556 
L 175.492231 -72.183253 
L 172.212893 -67.477941 
L 168.933554 -63.140924 
L 165.654215 -59.272838 
L 162.374876 -55.972023 
L 159.095537 -53.330664 
L 155.816198 -51.430872 
L 152.53686 -50.340944 
L 149.257521 -50.112 
L 145.978182 -50.775225 
L 142.698843 -52.339893 
L 139.419504 -54.792315 
L 136.140165 -58.095802 
L 132.860826 -62.191672 
L 129.581488 -67.001255 
L 126.302149 -72.428798 
L 123.02281 -78.365108 
L 119.743471 -84.691722 
L 116.464132 -91.285369 
L 113.184793 -98.022471 
L 109.905455 -104.783444 
L 106.626116 -111.456582 
L 103.346777 -117.941322 
L 100.067438 -124.150792 
L 96.788099 -130.013532 
L 93.50876 -135.474393 
L 90.229421 -140.494627 
L 86.950083 -145.051276 
L 83.670744 -149.135938 
L 80.391405 -152.753082 
L 77.112066 -155.918043 
L 73.832727 -158.654853 
z
" id="m81d5aa6d55" style="stroke:#4c4c4c;stroke-opacity:0.5;stroke-width:1.5;"/>
    </defs>
    <g clip-path="url(#p5d5696df34)">
     <use style="fill:#df9c20;fill-opacity:0.5;stroke:#4c4c4c;stroke-opacity:0.5;stroke-width:1.5;" x="0" xlink:href="#m81d5aa6d55" y="345.6"/>
    </g>
   </g>
   <g id="PolyCollection_2">
    <defs>
     <path d="M 103.843564 -156.152278 
L 103.843564 -185.991722 
L 106.795141 -191.562675 
L 109.746719 -198.468656 
L 112.698296 -206.735735 
L 115.649873 -216.278226 
L 118.60145 -226.878041 
L 121.553028 -238.178475 
L 124.504605 -249.697079 
L 127.456182 -260.859369 
L 130.407759 -271.051142 
L 133.359337 -279.683009 
L 136.310914 -286.257363 
L 139.262491 -290.426562 
L 142.214068 -292.032 
L 145.165646 -291.117145 
L 148.117223 -287.912639 
L 151.0688 -282.797053 
L 154.020377 -276.241487 
L 156.971954 -268.748645 
L 159.923532 -260.797002 
L 162.875109 -252.798225 
L 165.826686 -245.072094 
L 168.778263 -237.838997 
L 171.729841 -231.226653 
L 174.681418 -225.285884 
L 177.632995 -220.010079 
L 180.584572 -215.354152 
L 183.53615 -211.250549 
L 186.487727 -207.621618 
L 189.439304 -204.388764 
L 192.390881 -201.479256 
L 195.342459 -198.831358 
L 198.294036 -196.398 
L 201.245613 -194.148823 
L 204.19719 -192.070277 
L 207.148768 -190.163625 
L 210.100345 -188.441077 
L 213.051922 -186.920653 
L 216.003499 -185.62057 
L 218.955077 -184.554007 
L 221.906654 -183.724883 
L 224.858231 -183.125049 
L 227.809808 -182.733037 
L 230.761385 -182.514348 
L 233.712963 -182.423182 
L 236.66454 -182.40548 
L 239.616117 -182.403103 
L 242.567694 -182.358828 
L 245.519272 -182.2217 
L 248.470849 -181.952076 
L 251.422426 -181.525648 
L 254.374003 -180.935752 
L 257.325581 -180.193529 
L 260.277158 -179.325855 
L 263.228735 -178.371355 
L 266.180312 -177.375201 
L 269.13189 -176.383542 
L 272.083467 -175.438472 
L 275.035044 -174.57424 
L 277.986621 -173.815101 
L 280.938199 -173.174856 
L 283.889776 -172.657852 
L 286.841353 -172.260959 
L 289.79293 -171.97599 
L 292.744507 -171.792072 
L 295.696085 -171.697564 
L 298.647662 -171.68133 
L 301.599239 -171.733293 
L 304.550816 -171.844386 
L 307.502394 -172.006098 
L 310.453971 -172.209835 
L 313.405548 -172.446374 
L 316.357125 -172.705574 
L 319.308703 -172.97646 
L 322.26028 -173.247689 
L 325.211857 -173.508279 
L 328.163434 -173.748447 
L 331.115012 -173.96032 
L 334.066589 -174.138349 
L 337.018166 -174.279313 
L 339.969743 -174.381923 
L 342.921321 -174.446134 
L 345.872898 -174.472379 
L 348.824475 -174.46095 
L 351.776052 -174.411707 
L 354.727629 -174.324203 
L 357.679207 -174.19819 
L 360.630784 -174.034342 
L 363.582361 -173.834987 
L 366.533938 -173.604609 
L 369.485516 -173.349967 
L 372.437093 -173.079761 
L 375.38867 -172.803909 
L 378.340247 -172.532574 
L 381.291825 -172.275143 
L 384.243402 -172.039347 
L 387.194979 -171.830674 
L 390.146556 -171.652128 
L 393.098134 -171.504331 
L 396.049711 -171.385906 
L 396.049711 -170.758094 
L 396.049711 -170.758094 
L 393.098134 -170.639669 
L 390.146556 -170.491872 
L 387.194979 -170.313326 
L 384.243402 -170.104653 
L 381.291825 -169.868857 
L 378.340247 -169.611426 
L 375.38867 -169.340091 
L 372.437093 -169.064239 
L 369.485516 -168.794033 
L 366.533938 -168.539391 
L 363.582361 -168.309013 
L 360.630784 -168.109658 
L 357.679207 -167.94581 
L 354.727629 -167.819797 
L 351.776052 -167.732293 
L 348.824475 -167.68305 
L 345.872898 -167.671621 
L 342.921321 -167.697866 
L 339.969743 -167.762077 
L 337.018166 -167.864687 
L 334.066589 -168.005651 
L 331.115012 -168.18368 
L 328.163434 -168.395553 
L 325.211857 -168.635721 
L 322.26028 -168.896311 
L 319.308703 -169.16754 
L 316.357125 -169.438426 
L 313.405548 -169.697626 
L 310.453971 -169.934165 
L 307.502394 -170.137902 
L 304.550816 -170.299614 
L 301.599239 -170.410707 
L 298.647662 -170.46267 
L 295.696085 -170.446436 
L 292.744507 -170.351928 
L 289.79293 -170.16801 
L 286.841353 -169.883041 
L 283.889776 -169.486148 
L 280.938199 -168.969144 
L 277.986621 -168.328899 
L 275.035044 -167.56976 
L 272.083467 -166.705528 
L 269.13189 -165.760458 
L 266.180312 -164.768799 
L 263.228735 -163.772645 
L 260.277158 -162.818145 
L 257.325581 -161.950471 
L 254.374003 -161.208248 
L 251.422426 -160.618352 
L 248.470849 -160.191924 
L 245.519272 -159.9223 
L 242.567694 -159.785172 
L 239.616117 -159.740897 
L 236.66454 -159.73852 
L 233.712963 -159.720818 
L 230.761385 -159.629652 
L 227.809808 -159.410963 
L 224.858231 -159.018951 
L 221.906654 -158.419117 
L 218.955077 -157.589993 
L 216.003499 -156.52343 
L 213.051922 -155.223347 
L 210.100345 -153.702923 
L 207.148768 -151.980375 
L 204.19719 -150.073723 
L 201.245613 -147.995177 
L 198.294036 -145.746 
L 195.342459 -143.312642 
L 192.390881 -140.664744 
L 189.439304 -137.755236 
L 186.487727 -134.522382 
L 183.53615 -130.893451 
L 180.584572 -126.789848 
L 177.632995 -122.133921 
L 174.681418 -116.858116 
L 171.729841 -110.917347 
L 168.778263 -104.305003 
L 165.826686 -97.071906 
L 162.875109 -89.345775 
L 159.923532 -81.346998 
L 156.971954 -73.395355 
L 154.020377 -65.902513 
L 151.0688 -59.346947 
L 148.117223 -54.231361 
L 145.165646 -51.026855 
L 142.214068 -50.112 
L 139.262491 -51.717438 
L 136.310914 -55.886637 
L 133.359337 -62.460991 
L 130.407759 -71.092858 
L 127.456182 -81.284631 
L 124.504605 -92.446921 
L 121.553028 -103.965525 
L 118.60145 -115.265959 
L 115.649873 -125.865774 
L 112.698296 -135.408265 
L 109.746719 -143.675344 
L 106.795141 -150.581325 
L 103.843564 -156.152278 
z
" id="m74577abb1f" style="stroke:#262626;stroke-opacity:0.5;stroke-width:1.5;"/>
    </defs>
    <g clip-path="url(#p5d5696df34)">
     <use style="fill:#107010;fill-opacity:0.5;stroke:#262626;stroke-opacity:0.5;stroke-width:1.5;" x="0" xlink:href="#m74577abb1f" y="345.6"/>
    </g>
   </g>
   <g id="matplotlib.axis_1">
    <g id="xtick_1">
     <g id="line2d_1">
      <defs>
       <path d="M 0 0 
L 0 3.5 
" id="mbf3f88e17f" style="stroke:#000000;stroke-width:0.8;"/>
      </defs>
      <g>
       <use style="stroke:#000000;stroke-width:0.8;" x="112.080262" xlink:href="#mbf3f88e17f" y="307.584"/>
      </g>
     </g>
     <g id="text_1">
      <!-- 0.0 -->
      <defs>
       <path d="M 31.78125 66.40625 
Q 24.171875 66.40625 20.328125 58.90625 
Q 16.5 51.421875 16.5 36.375 
Q 16.5 21.390625 20.328125 13.890625 
Q 24.171875 6.390625 31.78125 6.390625 
Q 39.453125 6.390625 43.28125 13.890625 
Q 47.125 21.390625 47.125 36.375 
Q 47.125 51.421875 43.28125 58.90625 
Q 39.453125 66.40625 31.78125 66.40625 
z
M 31.78125 74.21875 
Q 44.046875 74.21875 50.515625 64.515625 
Q 56.984375 54.828125 56.984375 36.375 
Q 56.984375 17.96875 50.515625 8.265625 
Q 44.046875 -1.421875 31.78125 -1.421875 
Q 19.53125 -1.421875 13.0625 8.265625 
Q 6.59375 17.96875 6.59375 36.375 
Q 6.59375 54.828125 13.0625 64.515625 
Q 19.53125 74.21875 31.78125 74.21875 
z
" id="DejaVuSans-48"/>
       <path d="M 10.6875 12.40625 
L 21 12.40625 
L 21 0 
L 10.6875 0 
z
" id="DejaVuSans-46"/>
      </defs>
      <g transform="translate(104.1287 322.182437)scale(0.1 -0.1)">
       <use xlink:href="#DejaVuSans-48"/>
       <use x="63.623047" xlink:href="#DejaVuSans-46"/>
       <use x="95.410156" xlink:href="#DejaVuSans-48"/>
      </g>
     </g>
    </g>
    <g id="xtick_2">
     <g id="line2d_2">
      <g>
       <use style="stroke:#000000;stroke-width:0.8;" x="167.226812" xlink:href="#mbf3f88e17f" y="307.584"/>
      </g>
     </g>
     <g id="text_2">
      <!-- 0.2 -->
      <defs>
       <path d="M 19.1875 8.296875 
L 53.609375 8.296875 
L 53.609375 0 
L 7.328125 0 
L 7.328125 8.296875 
Q 12.9375 14.109375 22.625 23.890625 
Q 32.328125 33.6875 34.8125 36.53125 
Q 39.546875 41.84375 41.421875 45.53125 
Q 43.3125 49.21875 43.3125 52.78125 
Q 43.3125 58.59375 39.234375 62.25 
Q 35.15625 65.921875 28.609375 65.921875 
Q 23.96875 65.921875 18.8125 64.3125 
Q 13.671875 62.703125 7.8125 59.421875 
L 7.8125 69.390625 
Q 13.765625 71.78125 18.9375 73 
Q 24.125 74.21875 28.421875 74.21875 
Q 39.75 74.21875 46.484375 68.546875 
Q 53.21875 62.890625 53.21875 53.421875 
Q 53.21875 48.921875 51.53125 44.890625 
Q 49.859375 40.875 45.40625 35.40625 
Q 44.1875 33.984375 37.640625 27.21875 
Q 31.109375 20.453125 19.1875 8.296875 
z
" id="DejaVuSans-50"/>
      </defs>
      <g transform="translate(159.27525 322.182437)scale(0.1 -0.1)">
       <use xlink:href="#DejaVuSans-48"/>
       <use x="63.623047" xlink:href="#DejaVuSans-46"/>
       <use x="95.410156" xlink:href="#DejaVuSans-50"/>
      </g>
     </g>
    </g>
    <g id="xtick_3">
     <g id="line2d_3">
      <g>
       <use style="stroke:#000000;stroke-width:0.8;" x="222.373362" xlink:href="#mbf3f88e17f" y="307.584"/>
      </g>
     </g>
     <g id="text_3">
      <!-- 0.4 -->
      <defs>
       <path d="M 37.796875 64.3125 
L 12.890625 25.390625 
L 37.796875 25.390625 
z
M 35.203125 72.90625 
L 47.609375 72.90625 
L 47.609375 25.390625 
L 58.015625 25.390625 
L 58.015625 17.1875 
L 47.609375 17.1875 
L 47.609375 0 
L 37.796875 0 
L 37.796875 17.1875 
L 4.890625 17.1875 
L 4.890625 26.703125 
z
" id="DejaVuSans-52"/>
      </defs>
      <g transform="translate(214.4218 322.182437)scale(0.1 -0.1)">
       <use xlink:href="#DejaVuSans-48"/>
       <use x="63.623047" xlink:href="#DejaVuSans-46"/>
       <use x="95.410156" xlink:href="#DejaVuSans-52"/>
      </g>
     </g>
    </g>
    <g id="xtick_4">
     <g id="line2d_4">
      <g>
       <use style="stroke:#000000;stroke-width:0.8;" x="277.519913" xlink:href="#mbf3f88e17f" y="307.584"/>
      </g>
     </g>
     <g id="text_4">
      <!-- 0.6 -->
      <defs>
       <path d="M 33.015625 40.375 
Q 26.375 40.375 22.484375 35.828125 
Q 18.609375 31.296875 18.609375 23.390625 
Q 18.609375 15.53125 22.484375 10.953125 
Q 26.375 6.390625 33.015625 6.390625 
Q 39.65625 6.390625 43.53125 10.953125 
Q 47.40625 15.53125 47.40625 23.390625 
Q 47.40625 31.296875 43.53125 35.828125 
Q 39.65625 40.375 33.015625 40.375 
z
M 52.59375 71.296875 
L 52.59375 62.3125 
Q 48.875 64.0625 45.09375 64.984375 
Q 41.3125 65.921875 37.59375 65.921875 
Q 27.828125 65.921875 22.671875 59.328125 
Q 17.53125 52.734375 16.796875 39.40625 
Q 19.671875 43.65625 24.015625 45.921875 
Q 28.375 48.1875 33.59375 48.1875 
Q 44.578125 48.1875 50.953125 41.515625 
Q 57.328125 34.859375 57.328125 23.390625 
Q 57.328125 12.15625 50.6875 5.359375 
Q 44.046875 -1.421875 33.015625 -1.421875 
Q 20.359375 -1.421875 13.671875 8.265625 
Q 6.984375 17.96875 6.984375 36.375 
Q 6.984375 53.65625 15.1875 63.9375 
Q 23.390625 74.21875 37.203125 74.21875 
Q 40.921875 74.21875 44.703125 73.484375 
Q 48.484375 72.75 52.59375 71.296875 
z
" id="DejaVuSans-54"/>
      </defs>
      <g transform="translate(269.56835 322.182437)scale(0.1 -0.1)">
       <use xlink:href="#DejaVuSans-48"/>
       <use x="63.623047" xlink:href="#DejaVuSans-46"/>
       <use x="95.410156" xlink:href="#DejaVuSans-54"/>
      </g>
     </g>
    </g>
    <g id="xtick_5">
     <g id="line2d_5">
      <g>
       <use style="stroke:#000000;stroke-width:0.8;" x="332.666463" xlink:href="#mbf3f88e17f" y="307.584"/>
      </g>
     </g>
     <g id="text_5">
      <!-- 0.8 -->
      <defs>
       <path d="M 31.78125 34.625 
Q 24.75 34.625 20.71875 30.859375 
Q 16.703125 27.09375 16.703125 20.515625 
Q 16.703125 13.921875 20.71875 10.15625 
Q 24.75 6.390625 31.78125 6.390625 
Q 38.8125 6.390625 42.859375 10.171875 
Q 46.921875 13.96875 46.921875 20.515625 
Q 46.921875 27.09375 42.890625 30.859375 
Q 38.875 34.625 31.78125 34.625 
z
M 21.921875 38.8125 
Q 15.578125 40.375 12.03125 44.71875 
Q 8.5 49.078125 8.5 55.328125 
Q 8.5 64.0625 14.71875 69.140625 
Q 20.953125 74.21875 31.78125 74.21875 
Q 42.671875 74.21875 48.875 69.140625 
Q 55.078125 64.0625 55.078125 55.328125 
Q 55.078125 49.078125 51.53125 44.71875 
Q 48 40.375 41.703125 38.8125 
Q 48.828125 37.15625 52.796875 32.3125 
Q 56.78125 27.484375 56.78125 20.515625 
Q 56.78125 9.90625 50.3125 4.234375 
Q 43.84375 -1.421875 31.78125 -1.421875 
Q 19.734375 -1.421875 13.25 4.234375 
Q 6.78125 9.90625 6.78125 20.515625 
Q 6.78125 27.484375 10.78125 32.3125 
Q 14.796875 37.15625 21.921875 38.8125 
z
M 18.3125 54.390625 
Q 18.3125 48.734375 21.84375 45.5625 
Q 25.390625 42.390625 31.78125 42.390625 
Q 38.140625 42.390625 41.71875 45.5625 
Q 45.3125 48.734375 45.3125 54.390625 
Q 45.3125 60.0625 41.71875 63.234375 
Q 38.140625 66.40625 31.78125 66.40625 
Q 25.390625 66.40625 21.84375 63.234375 
Q 18.3125 60.0625 18.3125 54.390625 
z
" id="DejaVuSans-56"/>
      </defs>
      <g transform="translate(324.7149 322.182437)scale(0.1 -0.1)">
       <use xlink:href="#DejaVuSans-48"/>
       <use x="63.623047" xlink:href="#DejaVuSans-46"/>
       <use x="95.410156" xlink:href="#DejaVuSans-56"/>
      </g>
     </g>
    </g>
    <g id="xtick_6">
     <g id="line2d_6">
      <g>
       <use style="stroke:#000000;stroke-width:0.8;" x="387.813013" xlink:href="#mbf3f88e17f" y="307.584"/>
      </g>
     </g>
     <g id="text_6">
      <!-- 1.0 -->
      <defs>
       <path d="M 12.40625 8.296875 
L 28.515625 8.296875 
L 28.515625 63.921875 
L 10.984375 60.40625 
L 10.984375 69.390625 
L 28.421875 72.90625 
L 38.28125 72.90625 
L 38.28125 8.296875 
L 54.390625 8.296875 
L 54.390625 0 
L 12.40625 0 
z
" id="DejaVuSans-49"/>
      </defs>
      <g transform="translate(379.86145 322.182437)scale(0.1 -0.1)">
       <use xlink:href="#DejaVuSans-49"/>
       <use x="63.623047" xlink:href="#DejaVuSans-46"/>
       <use x="95.410156" xlink:href="#DejaVuSans-48"/>
      </g>
     </g>
    </g>
    <g id="text_7">
     <!-- eosadmac -->
     <defs>
      <path d="M 56.203125 29.59375 
L 56.203125 25.203125 
L 14.890625 25.203125 
Q 15.484375 15.921875 20.484375 11.0625 
Q 25.484375 6.203125 34.421875 6.203125 
Q 39.59375 6.203125 44.453125 7.46875 
Q 49.3125 8.734375 54.109375 11.28125 
L 54.109375 2.78125 
Q 49.265625 0.734375 44.1875 -0.34375 
Q 39.109375 -1.421875 33.890625 -1.421875 
Q 20.796875 -1.421875 13.15625 6.1875 
Q 5.515625 13.8125 5.515625 26.8125 
Q 5.515625 40.234375 12.765625 48.109375 
Q 20.015625 56 32.328125 56 
Q 43.359375 56 49.78125 48.890625 
Q 56.203125 41.796875 56.203125 29.59375 
z
M 47.21875 32.234375 
Q 47.125 39.59375 43.09375 43.984375 
Q 39.0625 48.390625 32.421875 48.390625 
Q 24.90625 48.390625 20.390625 44.140625 
Q 15.875 39.890625 15.1875 32.171875 
z
" id="DejaVuSans-101"/>
      <path d="M 30.609375 48.390625 
Q 23.390625 48.390625 19.1875 42.75 
Q 14.984375 37.109375 14.984375 27.296875 
Q 14.984375 17.484375 19.15625 11.84375 
Q 23.34375 6.203125 30.609375 6.203125 
Q 37.796875 6.203125 41.984375 11.859375 
Q 46.1875 17.53125 46.1875 27.296875 
Q 46.1875 37.015625 41.984375 42.703125 
Q 37.796875 48.390625 30.609375 48.390625 
z
M 30.609375 56 
Q 42.328125 56 49.015625 48.375 
Q 55.71875 40.765625 55.71875 27.296875 
Q 55.71875 13.875 49.015625 6.21875 
Q 42.328125 -1.421875 30.609375 -1.421875 
Q 18.84375 -1.421875 12.171875 6.21875 
Q 5.515625 13.875 5.515625 27.296875 
Q 5.515625 40.765625 12.171875 48.375 
Q 18.84375 56 30.609375 56 
z
" id="DejaVuSans-111"/>
      <path d="M 44.28125 53.078125 
L 44.28125 44.578125 
Q 40.484375 46.53125 36.375 47.5 
Q 32.28125 48.484375 27.875 48.484375 
Q 21.1875 48.484375 17.84375 46.4375 
Q 14.5 44.390625 14.5 40.28125 
Q 14.5 37.15625 16.890625 35.375 
Q 19.28125 33.59375 26.515625 31.984375 
L 29.59375 31.296875 
Q 39.15625 29.25 43.1875 25.515625 
Q 47.21875 21.78125 47.21875 15.09375 
Q 47.21875 7.46875 41.1875 3.015625 
Q 35.15625 -1.421875 24.609375 -1.421875 
Q 20.21875 -1.421875 15.453125 -0.5625 
Q 10.6875 0.296875 5.421875 2 
L 5.421875 11.28125 
Q 10.40625 8.6875 15.234375 7.390625 
Q 20.0625 6.109375 24.8125 6.109375 
Q 31.15625 6.109375 34.5625 8.28125 
Q 37.984375 10.453125 37.984375 14.40625 
Q 37.984375 18.0625 35.515625 20.015625 
Q 33.0625 21.96875 24.703125 23.78125 
L 21.578125 24.515625 
Q 13.234375 26.265625 9.515625 29.90625 
Q 5.8125 33.546875 5.8125 39.890625 
Q 5.8125 47.609375 11.28125 51.796875 
Q 16.75 56 26.8125 56 
Q 31.78125 56 36.171875 55.265625 
Q 40.578125 54.546875 44.28125 53.078125 
z
" id="DejaVuSans-115"/>
      <path d="M 34.28125 27.484375 
Q 23.390625 27.484375 19.1875 25 
Q 14.984375 22.515625 14.984375 16.5 
Q 14.984375 11.71875 18.140625 8.90625 
Q 21.296875 6.109375 26.703125 6.109375 
Q 34.1875 6.109375 38.703125 11.40625 
Q 43.21875 16.703125 43.21875 25.484375 
L 43.21875 27.484375 
z
M 52.203125 31.203125 
L 52.203125 0 
L 43.21875 0 
L 43.21875 8.296875 
Q 40.140625 3.328125 35.546875 0.953125 
Q 30.953125 -1.421875 24.3125 -1.421875 
Q 15.921875 -1.421875 10.953125 3.296875 
Q 6 8.015625 6 15.921875 
Q 6 25.140625 12.171875 29.828125 
Q 18.359375 34.515625 30.609375 34.515625 
L 43.21875 34.515625 
L 43.21875 35.40625 
Q 43.21875 41.609375 39.140625 45 
Q 35.0625 48.390625 27.6875 48.390625 
Q 23 48.390625 18.546875 47.265625 
Q 14.109375 46.140625 10.015625 43.890625 
L 10.015625 52.203125 
Q 14.9375 54.109375 19.578125 55.046875 
Q 24.21875 56 28.609375 56 
Q 40.484375 56 46.34375 49.84375 
Q 52.203125 43.703125 52.203125 31.203125 
z
" id="DejaVuSans-97"/>
      <path d="M 45.40625 46.390625 
L 45.40625 75.984375 
L 54.390625 75.984375 
L 54.390625 0 
L 45.40625 0 
L 45.40625 8.203125 
Q 42.578125 3.328125 38.25 0.953125 
Q 33.9375 -1.421875 27.875 -1.421875 
Q 17.96875 -1.421875 11.734375 6.484375 
Q 5.515625 14.40625 5.515625 27.296875 
Q 5.515625 40.1875 11.734375 48.09375 
Q 17.96875 56 27.875 56 
Q 33.9375 56 38.25 53.625 
Q 42.578125 51.265625 45.40625 46.390625 
z
M 14.796875 27.296875 
Q 14.796875 17.390625 18.875 11.75 
Q 22.953125 6.109375 30.078125 6.109375 
Q 37.203125 6.109375 41.296875 11.75 
Q 45.40625 17.390625 45.40625 27.296875 
Q 45.40625 37.203125 41.296875 42.84375 
Q 37.203125 48.484375 30.078125 48.484375 
Q 22.953125 48.484375 18.875 42.84375 
Q 14.796875 37.203125 14.796875 27.296875 
z
" id="DejaVuSans-100"/>
      <path d="M 52 44.1875 
Q 55.375 50.25 60.0625 53.125 
Q 64.75 56 71.09375 56 
Q 79.640625 56 84.28125 50.015625 
Q 88.921875 44.046875 88.921875 33.015625 
L 88.921875 0 
L 79.890625 0 
L 79.890625 32.71875 
Q 79.890625 40.578125 77.09375 44.375 
Q 74.3125 48.1875 68.609375 48.1875 
Q 61.625 48.1875 57.5625 43.546875 
Q 53.515625 38.921875 53.515625 30.90625 
L 53.515625 0 
L 44.484375 0 
L 44.484375 32.71875 
Q 44.484375 40.625 41.703125 44.40625 
Q 38.921875 48.1875 33.109375 48.1875 
Q 26.21875 48.1875 22.15625 43.53125 
Q 18.109375 38.875 18.109375 30.90625 
L 18.109375 0 
L 9.078125 0 
L 9.078125 54.6875 
L 18.109375 54.6875 
L 18.109375 46.1875 
Q 21.1875 51.21875 25.484375 53.609375 
Q 29.78125 56 35.6875 56 
Q 41.65625 56 45.828125 52.96875 
Q 50 49.953125 52 44.1875 
z
" id="DejaVuSans-109"/>
      <path d="M 48.78125 52.59375 
L 48.78125 44.1875 
Q 44.96875 46.296875 41.140625 47.34375 
Q 37.3125 48.390625 33.40625 48.390625 
Q 24.65625 48.390625 19.8125 42.84375 
Q 14.984375 37.3125 14.984375 27.296875 
Q 14.984375 17.28125 19.8125 11.734375 
Q 24.65625 6.203125 33.40625 6.203125 
Q 37.3125 6.203125 41.140625 7.25 
Q 44.96875 8.296875 48.78125 10.40625 
L 48.78125 2.09375 
Q 45.015625 0.34375 40.984375 -0.53125 
Q 36.96875 -1.421875 32.421875 -1.421875 
Q 20.0625 -1.421875 12.78125 6.34375 
Q 5.515625 14.109375 5.515625 27.296875 
Q 5.515625 40.671875 12.859375 48.328125 
Q 20.21875 56 33.015625 56 
Q 37.15625 56 41.109375 55.140625 
Q 45.0625 54.296875 48.78125 52.59375 
z
" id="DejaVuSans-99"/>
     </defs>
     <g transform="translate(210.4975 335.860562)scale(0.1 -0.1)">
      <use xlink:href="#DejaVuSans-101"/>
      <use x="61.523438" xlink:href="#DejaVuSans-111"/>
      <use x="122.705078" xlink:href="#DejaVuSans-115"/>
      <use x="174.804688" xlink:href="#DejaVuSans-97"/>
      <use x="236.083984" xlink:href="#DejaVuSans-100"/>
      <use x="299.560547" xlink:href="#DejaVuSans-109"/>
      <use x="396.972656" xlink:href="#DejaVuSans-97"/>
      <use x="458.251953" xlink:href="#DejaVuSans-99"/>
     </g>
    </g>
   </g>
   <g id="matplotlib.axis_2">
    <g id="ytick_1">
     <g id="line2d_7">
      <defs>
       <path d="M 0 0 
L -3.5 0 
" id="maff20e8bdc" style="stroke:#000000;stroke-width:0.8;"/>
      </defs>
      <g>
       <use style="stroke:#000000;stroke-width:0.8;" x="57.6" xlink:href="#maff20e8bdc" y="174.528"/>
      </g>
     </g>
    </g>
   </g>
   <g id="line2d_8">
    <path clip-path="url(#p5d5696df34)" d="M 139.653537 174.528 
L 194.800087 174.528 
" style="fill:none;stroke:#ffa500;stroke-linecap:square;stroke-width:1.5;"/>
   </g>
   <g id="line2d_9">
    <path clip-path="url(#p5d5696df34)" d="M 139.653537 174.528 
L 167.226812 174.528 
" style="fill:none;stroke:#4c4c4c;stroke-linecap:square;stroke-width:4.5;"/>
   </g>
   <g id="line2d_10">
    <path clip-path="url(#p5d5696df34)" d="M 139.653537 174.528 
L 194.800087 174.528 
" style="fill:none;stroke:#008000;stroke-linecap:square;stroke-width:1.5;"/>
   </g>
   <g id="line2d_11">
    <path clip-path="url(#p5d5696df34)" d="M 139.653537 174.528 
L 167.226812 174.528 
" style="fill:none;stroke:#262626;stroke-linecap:square;stroke-width:4.5;"/>
   </g>
   <g id="patch_3">
    <path d="M 57.6 307.584 
L 57.6 41.472 
" style="fill:none;stroke:#000000;stroke-linecap:square;stroke-linejoin:miter;stroke-width:0.8;"/>
   </g>
   <g id="patch_4">
    <path d="M 414.72 307.584 
L 414.72 41.472 
" style="fill:none;stroke:#000000;stroke-linecap:square;stroke-linejoin:miter;stroke-width:0.8;"/>
   </g>
   <g id="patch_5">
    <path d="M 57.6 307.584 
L 414.72 307.584 
" style="fill:none;stroke:#000000;stroke-linecap:square;stroke-linejoin:miter;stroke-width:0.8;"/>
   </g>
   <g id="patch_6">
    <path d="M 57.6 41.472 
L 414.72 41.472 
" style="fill:none;stroke:#000000;stroke-linecap:square;stroke-linejoin:miter;stroke-width:0.8;"/>
   </g>
   <g id="PathCollection_1">
    <defs>
     <path d="M 0 1.5 
C 0.397805 1.5 0.77937 1.341951 1.06066 1.06066 
C 1.341951 0.77937 1.5 0.397805 1.5 0 
C 1.5 -0.397805 1.341951 -0.77937 1.06066 -1.06066 
C 0.77937 -1.341951 0.397805 -1.5 0 -1.5 
C -0.397805 -1.5 -0.77937 -1.341951 -1.06066 -1.06066 
C -1.341951 -0.77937 -1.5 -0.397805 -1.5 0 
C -1.5 0.397805 -1.341951 0.77937 -1.06066 1.06066 
C -0.77937 1.341951 -0.397805 1.5 0 1.5 
z
" id="m5d8035c1a3" style="stroke:#4c4c4c;stroke-opacity:0.5;"/>
    </defs>
    <g clip-path="url(#p5d5696df34)">
     <use style="fill:#ffffff;fill-opacity:0.5;stroke:#4c4c4c;stroke-opacity:0.5;" x="139.653537" xlink:href="#m5d8035c1a3" y="174.528"/>
    </g>
   </g>
   <g id="PathCollection_2">
    <defs>
     <path d="M 0 1.5 
C 0.397805 1.5 0.77937 1.341951 1.06066 1.06066 
C 1.341951 0.77937 1.5 0.397805 1.5 0 
C 1.5 -0.397805 1.341951 -0.77937 1.06066 -1.06066 
C 0.77937 -1.341951 0.397805 -1.5 0 -1.5 
C -0.397805 -1.5 -0.77937 -1.341951 -1.06066 -1.06066 
C -1.341951 -0.77937 -1.5 -0.397805 -1.5 0 
C -1.5 0.397805 -1.341951 0.77937 -1.06066 1.06066 
C -0.77937 1.341951 -0.397805 1.5 0 1.5 
z
" id="m7aebfa83d6" style="stroke:#262626;stroke-opacity:0.5;"/>
    </defs>
    <g clip-path="url(#p5d5696df34)">
     <use style="fill:#ffffff;fill-opacity:0.5;stroke:#262626;stroke-opacity:0.5;" x="139.653537" xlink:href="#m7aebfa83d6" y="174.528"/>
    </g>
   </g>
   <g id="text_8">
    <!-- Association of eosadmac vs. ards -->
    <defs>
     <path d="M 34.1875 63.1875 
L 20.796875 26.90625 
L 47.609375 26.90625 
z
M 28.609375 72.90625 
L 39.796875 72.90625 
L 67.578125 0 
L 57.328125 0 
L 50.6875 18.703125 
L 17.828125 18.703125 
L 11.1875 0 
L 0.78125 0 
z
" id="DejaVuSans-65"/>
     <path d="M 9.421875 54.6875 
L 18.40625 54.6875 
L 18.40625 0 
L 9.421875 0 
z
M 9.421875 75.984375 
L 18.40625 75.984375 
L 18.40625 64.59375 
L 9.421875 64.59375 
z
" id="DejaVuSans-105"/>
     <path d="M 18.3125 70.21875 
L 18.3125 54.6875 
L 36.8125 54.6875 
L 36.8125 47.703125 
L 18.3125 47.703125 
L 18.3125 18.015625 
Q 18.3125 11.328125 20.140625 9.421875 
Q 21.96875 7.515625 27.59375 7.515625 
L 36.8125 7.515625 
L 36.8125 0 
L 27.59375 0 
Q 17.1875 0 13.234375 3.875 
Q 9.28125 7.765625 9.28125 18.015625 
L 9.28125 47.703125 
L 2.6875 47.703125 
L 2.6875 54.6875 
L 9.28125 54.6875 
L 9.28125 70.21875 
z
" id="DejaVuSans-116"/>
     <path d="M 54.890625 33.015625 
L 54.890625 0 
L 45.90625 0 
L 45.90625 32.71875 
Q 45.90625 40.484375 42.875 44.328125 
Q 39.84375 48.1875 33.796875 48.1875 
Q 26.515625 48.1875 22.3125 43.546875 
Q 18.109375 38.921875 18.109375 30.90625 
L 18.109375 0 
L 9.078125 0 
L 9.078125 54.6875 
L 18.109375 54.6875 
L 18.109375 46.1875 
Q 21.34375 51.125 25.703125 53.5625 
Q 30.078125 56 35.796875 56 
Q 45.21875 56 50.046875 50.171875 
Q 54.890625 44.34375 54.890625 33.015625 
z
" id="DejaVuSans-110"/>
     <path id="DejaVuSans-32"/>
     <path d="M 37.109375 75.984375 
L 37.109375 68.5 
L 28.515625 68.5 
Q 23.6875 68.5 21.796875 66.546875 
Q 19.921875 64.59375 19.921875 59.515625 
L 19.921875 54.6875 
L 34.71875 54.6875 
L 34.71875 47.703125 
L 19.921875 47.703125 
L 19.921875 0 
L 10.890625 0 
L 10.890625 47.703125 
L 2.296875 47.703125 
L 2.296875 54.6875 
L 10.890625 54.6875 
L 10.890625 58.5 
Q 10.890625 67.625 15.140625 71.796875 
Q 19.390625 75.984375 28.609375 75.984375 
z
" id="DejaVuSans-102"/>
     <path d="M 2.984375 54.6875 
L 12.5 54.6875 
L 29.59375 8.796875 
L 46.6875 54.6875 
L 56.203125 54.6875 
L 35.6875 0 
L 23.484375 0 
z
" id="DejaVuSans-118"/>
     <path d="M 41.109375 46.296875 
Q 39.59375 47.171875 37.8125 47.578125 
Q 36.03125 48 33.890625 48 
Q 26.265625 48 22.1875 43.046875 
Q 18.109375 38.09375 18.109375 28.8125 
L 18.109375 0 
L 9.078125 0 
L 9.078125 54.6875 
L 18.109375 54.6875 
L 18.109375 46.1875 
Q 20.953125 51.171875 25.484375 53.578125 
Q 30.03125 56 36.53125 56 
Q 37.453125 56 38.578125 55.875 
Q 39.703125 55.765625 41.0625 55.515625 
z
" id="DejaVuSans-114"/>
    </defs>
    <g transform="translate(136.234688 35.472)scale(0.12 -0.12)">
     <use xlink:href="#DejaVuSans-65"/>
     <use x="68.408203" xlink:href="#DejaVuSans-115"/>
     <use x="120.507812" xlink:href="#DejaVuSans-115"/>
     <use x="172.607422" xlink:href="#DejaVuSans-111"/>
     <use x="233.789062" xlink:href="#DejaVuSans-99"/>
     <use x="288.769531" xlink:href="#DejaVuSans-105"/>
     <use x="316.552734" xlink:href="#DejaVuSans-97"/>
     <use x="377.832031" xlink:href="#DejaVuSans-116"/>
     <use x="417.041016" xlink:href="#DejaVuSans-105"/>
     <use x="444.824219" xlink:href="#DejaVuSans-111"/>
     <use x="506.005859" xlink:href="#DejaVuSans-110"/>
     <use x="569.384766" xlink:href="#DejaVuSans-32"/>
     <use x="601.171875" xlink:href="#DejaVuSans-111"/>
     <use x="662.353516" xlink:href="#DejaVuSans-102"/>
     <use x="697.558594" xlink:href="#DejaVuSans-32"/>
     <use x="729.345703" xlink:href="#DejaVuSans-101"/>
     <use x="790.869141" xlink:href="#DejaVuSans-111"/>
     <use x="852.050781" xlink:href="#DejaVuSans-115"/>
     <use x="904.150391" xlink:href="#DejaVuSans-97"/>
     <use x="965.429688" xlink:href="#DejaVuSans-100"/>
     <use x="1028.90625" xlink:href="#DejaVuSans-109"/>
     <use x="1126.318359" xlink:href="#DejaVuSans-97"/>
     <use x="1187.597656" xlink:href="#DejaVuSans-99"/>
     <use x="1242.578125" xlink:href="#DejaVuSans-32"/>
     <use x="1274.365234" xlink:href="#DejaVuSans-118"/>
     <use x="1333.544922" xlink:href="#DejaVuSans-115"/>
     <use x="1385.644531" xlink:href="#DejaVuSans-46"/>
     <use x="1417.431641" xlink:href="#DejaVuSans-32"/>
     <use x="1449.21875" xlink:href="#DejaVuSans-97"/>
     <use x="1510.498047" xlink:href="#DejaVuSans-114"/>
     <use x="1549.861328" xlink:href="#DejaVuSans-100"/>
     <use x="1613.337891" xlink:href="#DejaVuSans-115"/>
    </g>
   </g>
   <g id="legend_1">
    <g id="patch_7">
     <path d="M 309.693438 78.82825 
L 407.72 78.82825 
Q 409.72 78.82825 409.72 76.82825 
L 409.72 48.472 
Q 409.72 46.472 407.72 46.472 
L 309.693438 46.472 
Q 307.693438 46.472 307.693438 48.472 
L 307.693438 76.82825 
Q 307.693438 78.82825 309.693438 78.82825 
z
" style="fill:#ffffff;opacity:0.8;stroke:#cccccc;stroke-linejoin:miter;"/>
    </g>
    <g id="line2d_12">
     <path d="M 311.693438 54.570437 
L 331.693438 54.570437 
" style="fill:none;stroke:#ffa500;stroke-linecap:square;stroke-width:1.5;"/>
    </g>
    <g id="line2d_13"/>
    <g id="text_9">
     <!-- ards (13) -->
     <defs>
      <path d="M 31 75.875 
Q 24.46875 64.65625 21.28125 53.65625 
Q 18.109375 42.671875 18.109375 31.390625 
Q 18.109375 20.125 21.3125 9.0625 
Q 24.515625 -2 31 -13.1875 
L 23.1875 -13.1875 
Q 15.875 -1.703125 12.234375 9.375 
Q 8.59375 20.453125 8.59375 31.390625 
Q 8.59375 42.28125 12.203125 53.3125 
Q 15.828125 64.359375 23.1875 75.875 
z
" id="DejaVuSans-40"/>
      <path d="M 40.578125 39.3125 
Q 47.65625 37.796875 51.625 33 
Q 55.609375 28.21875 55.609375 21.1875 
Q 55.609375 10.40625 48.1875 4.484375 
Q 40.765625 -1.421875 27.09375 -1.421875 
Q 22.515625 -1.421875 17.65625 -0.515625 
Q 12.796875 0.390625 7.625 2.203125 
L 7.625 11.71875 
Q 11.71875 9.328125 16.59375 8.109375 
Q 21.484375 6.890625 26.8125 6.890625 
Q 36.078125 6.890625 40.9375 10.546875 
Q 45.796875 14.203125 45.796875 21.1875 
Q 45.796875 27.640625 41.28125 31.265625 
Q 36.765625 34.90625 28.71875 34.90625 
L 20.21875 34.90625 
L 20.21875 43.015625 
L 29.109375 43.015625 
Q 36.375 43.015625 40.234375 45.921875 
Q 44.09375 48.828125 44.09375 54.296875 
Q 44.09375 59.90625 40.109375 62.90625 
Q 36.140625 65.921875 28.71875 65.921875 
Q 24.65625 65.921875 20.015625 65.03125 
Q 15.375 64.15625 9.8125 62.3125 
L 9.8125 71.09375 
Q 15.4375 72.65625 20.34375 73.4375 
Q 25.25 74.21875 29.59375 74.21875 
Q 40.828125 74.21875 47.359375 69.109375 
Q 53.90625 64.015625 53.90625 55.328125 
Q 53.90625 49.265625 50.4375 45.09375 
Q 46.96875 40.921875 40.578125 39.3125 
z
" id="DejaVuSans-51"/>
      <path d="M 8.015625 75.875 
L 15.828125 75.875 
Q 23.140625 64.359375 26.78125 53.3125 
Q 30.421875 42.28125 30.421875 31.390625 
Q 30.421875 20.453125 26.78125 9.375 
Q 23.140625 -1.703125 15.828125 -13.1875 
L 8.015625 -13.1875 
Q 14.5 -2 17.703125 9.0625 
Q 20.90625 20.125 20.90625 31.390625 
Q 20.90625 42.671875 17.703125 53.65625 
Q 14.5 64.65625 8.015625 75.875 
z
" id="DejaVuSans-41"/>
     </defs>
     <g transform="translate(339.693438 58.070437)scale(0.1 -0.1)">
      <use xlink:href="#DejaVuSans-97"/>
      <use x="61.279297" xlink:href="#DejaVuSans-114"/>
      <use x="100.642578" xlink:href="#DejaVuSans-100"/>
      <use x="164.119141" xlink:href="#DejaVuSans-115"/>
      <use x="216.21875" xlink:href="#DejaVuSans-32"/>
      <use x="248.005859" xlink:href="#DejaVuSans-40"/>
      <use x="287.019531" xlink:href="#DejaVuSans-49"/>
      <use x="350.642578" xlink:href="#DejaVuSans-51"/>
      <use x="414.265625" xlink:href="#DejaVuSans-41"/>
     </g>
    </g>
    <g id="line2d_14">
     <path d="M 311.693438 69.248562 
L 331.693438 69.248562 
" style="fill:none;stroke:#008000;stroke-linecap:square;stroke-width:1.5;"/>
    </g>
    <g id="line2d_15"/>
    <g id="text_10">
     <!-- Not ards (77) -->
     <defs>
      <path d="M 9.8125 72.90625 
L 23.09375 72.90625 
L 55.421875 11.921875 
L 55.421875 72.90625 
L 64.984375 72.90625 
L 64.984375 0 
L 51.703125 0 
L 19.390625 60.984375 
L 19.390625 0 
L 9.8125 0 
z
" id="DejaVuSans-78"/>
      <path d="M 8.203125 72.90625 
L 55.078125 72.90625 
L 55.078125 68.703125 
L 28.609375 0 
L 18.3125 0 
L 43.21875 64.59375 
L 8.203125 64.59375 
z
" id="DejaVuSans-55"/>
     </defs>
     <g transform="translate(339.693438 72.748562)scale(0.1 -0.1)">
      <use xlink:href="#DejaVuSans-78"/>
      <use x="74.804688" xlink:href="#DejaVuSans-111"/>
      <use x="135.986328" xlink:href="#DejaVuSans-116"/>
      <use x="175.195312" xlink:href="#DejaVuSans-32"/>
      <use x="206.982422" xlink:href="#DejaVuSans-97"/>
      <use x="268.261719" xlink:href="#DejaVuSans-114"/>
      <use x="307.625" xlink:href="#DejaVuSans-100"/>
      <use x="371.101562" xlink:href="#DejaVuSans-115"/>
      <use x="423.201172" xlink:href="#DejaVuSans-32"/>
      <use x="454.988281" xlink:href="#DejaVuSans-40"/>
      <use x="494.001953" xlink:href="#DejaVuSans-55"/>
      <use x="557.625" xlink:href="#DejaVuSans-55"/>
      <use x="621.248047" xlink:href="#DejaVuSans-41"/>
     </g>
    </g>
   </g>
  </g>
 </g>
 <defs>
  <clipPath id="p5d5696df34">
   <rect height="266.112" width="357.12" x="57.6" y="41.472"/>
  </clipPath>
 </defs>
</svg>
