<?xml version="1.0" encoding="utf-8" standalone="no"?>
<!DOCTYPE svg PUBLIC "-//W3C//DTD SVG 1.1//EN"
  "http://www.w3.org/Graphics/SVG/1.1/DTD/svg11.dtd">
<!-- Created with matplotlib (https://matplotlib.org/) -->
<svg height="345.6pt" version="1.1" viewBox="0 0 460.8 345.6" width="460.8pt" xmlns="http://www.w3.org/2000/svg" xmlns:xlink="http://www.w3.org/1999/xlink">
 <defs>
  <style type="text/css">
*{stroke-linecap:butt;stroke-linejoin:round;}
  </style>
 </defs>
 <g id="figure_1">
  <g id="patch_1">
   <path d="M 0 345.6 
L 460.8 345.6 
L 460.8 0 
L 0 0 
z
" style="fill:#ffffff;"/>
  </g>
  <g id="axes_1">
   <g id="patch_2">
    <path d="M 57.6 307.584 
L 414.72 307.584 
L 414.72 41.472 
L 57.6 41.472 
z
" style="fill:#ffffff;"/>
   </g>
   <g id="PolyCollection_1">
    <defs>
     <path d="M 73.832727 -158.128922 
L 73.832727 -184.015078 
L 76.25859 -186.449714 
L 78.684452 -189.208801 
L 81.110315 -192.307137 
L 83.536177 -195.754367 
L 85.96204 -199.553908 
L 88.387902 -203.701958 
L 90.813764 -208.186644 
L 93.239627 -212.987379 
L 95.665489 -218.074475 
L 98.091352 -223.409063 
L 100.517214 -228.943367 
L 102.943077 -234.621342 
L 105.368939 -240.379683 
L 107.794802 -246.149198 
L 110.220664 -251.856501 
L 112.646527 -257.425967 
L 115.072389 -262.781876 
L 117.498252 -267.850662 
L 119.924114 -272.563159 
L 122.349976 -276.856743 
L 124.775839 -280.677271 
L 127.201701 -283.980729 
L 129.627564 -286.734489 
L 132.053426 -288.918148 
L 134.479289 -290.523886 
L 136.905151 -291.556336 
L 139.331014 -292.032 
L 141.756876 -291.978217 
L 144.182739 -291.431774 
L 146.608601 -290.437216 
L 149.034464 -289.044959 
L 151.460326 -287.309286 
L 153.886188 -285.286342 
L 156.312051 -283.032205 
L 158.737913 -280.601117 
L 161.163776 -278.043951 
L 163.589638 -275.406954 
L 166.015501 -272.730808 
L 168.441363 -270.05002 
L 170.867226 -267.392631 
L 173.293088 -264.780243 
L 175.718951 -262.228307 
L 178.144813 -259.746647 
L 180.570675 -257.340158 
L 182.996538 -255.009632 
L 185.4224 -252.752645 
L 187.848263 -250.564464 
L 190.274125 -248.43892 
L 192.699988 -246.369194 
L 195.12585 -244.34851 
L 197.551713 -242.370681 
L 199.977575 -240.430516 
L 202.403438 -238.524068 
L 204.8293 -236.648743 
L 207.255163 -234.803262 
L 209.681025 -232.987517 
L 212.106887 -231.202324 
L 214.53275 -229.449121 
L 216.958612 -227.729617 
L 219.384475 -226.045442 
L 221.810337 -224.397808 
L 224.2362 -222.787214 
L 226.662062 -221.213215 
L 229.087925 -219.67426 
L 231.513787 -218.167624 
L 233.93965 -216.689421 
L 236.365512 -215.234708 
L 238.791375 -213.797669 
L 241.217237 -212.371869 
L 243.643099 -210.950551 
L 246.068962 -209.526987 
L 248.494824 -208.094825 
L 250.920687 -206.648444 
L 253.346549 -205.183277 
L 255.772412 -203.696093 
L 258.198274 -202.18522 
L 260.624137 -200.6507 
L 263.049999 -199.094355 
L 265.475862 -197.519777 
L 267.901724 -195.932241 
L 270.327586 -194.338524 
L 272.753449 -192.746677 
L 275.179311 -191.165728 
L 277.605174 -189.605356 
L 280.031036 -188.075535 
L 282.456899 -186.586184 
L 284.882761 -185.146822 
L 287.308624 -183.766258 
L 289.734486 -182.452319 
L 292.160349 -181.211638 
L 294.586211 -180.049486 
L 297.012074 -178.969686 
L 299.437936 -177.974571 
L 301.863798 -177.065014 
L 304.289661 -176.240497 
L 306.715523 -175.499238 
L 309.141386 -174.838336 
L 311.567248 -174.253955 
L 313.993111 -173.741512 
L 313.993111 -168.402488 
L 313.993111 -168.402488 
L 311.567248 -167.890045 
L 309.141386 -167.305664 
L 306.715523 -166.644762 
L 304.289661 -165.903503 
L 301.863798 -165.078986 
L 299.437936 -164.169429 
L 297.012074 -163.174314 
L 294.586211 -162.094514 
L 292.160349 -160.932362 
L 289.734486 -159.691681 
L 287.308624 -158.377742 
L 284.882761 -156.997178 
L 282.456899 -155.557816 
L 280.031036 -154.068465 
L 277.605174 -152.538644 
L 275.179311 -150.978272 
L 272.753449 -149.397323 
L 270.327586 -147.805476 
L 267.901724 -146.211759 
L 265.475862 -144.624223 
L 263.049999 -143.049645 
L 260.624137 -141.4933 
L 258.198274 -139.95878 
L 255.772412 -138.447907 
L 253.346549 -136.960723 
L 250.920687 -135.495556 
L 248.494824 -134.049175 
L 246.068962 -132.617013 
L 243.643099 -131.193449 
L 241.217237 -129.772131 
L 238.791375 -128.346331 
L 236.365512 -126.909292 
L 233.93965 -125.454579 
L 231.513787 -123.976376 
L 229.087925 -122.46974 
L 226.662062 -120.930785 
L 224.2362 -119.356786 
L 221.810337 -117.746192 
L 219.384475 -116.098558 
L 216.958612 -114.414383 
L 214.53275 -112.694879 
L 212.106887 -110.941676 
L 209.681025 -109.156483 
L 207.255163 -107.340738 
L 204.8293 -105.495257 
L 202.403438 -103.619932 
L 199.977575 -101.713484 
L 197.551713 -99.773319 
L 195.12585 -97.79549 
L 192.699988 -95.774806 
L 190.274125 -93.70508 
L 187.848263 -91.579536 
L 185.4224 -89.391355 
L 182.996538 -87.134368 
L 180.570675 -84.803842 
L 178.144813 -82.397353 
L 175.718951 -79.915693 
L 173.293088 -77.363757 
L 170.867226 -74.751369 
L 168.441363 -72.09398 
L 166.015501 -69.413192 
L 163.589638 -66.737046 
L 161.163776 -64.100049 
L 158.737913 -61.542883 
L 156.312051 -59.111795 
L 153.886188 -56.857658 
L 151.460326 -54.834714 
L 149.034464 -53.099041 
L 146.608601 -51.706784 
L 144.182739 -50.712226 
L 141.756876 -50.165783 
L 139.331014 -50.112 
L 136.905151 -50.587664 
L 134.479289 -51.620114 
L 132.053426 -53.225852 
L 129.627564 -55.409511 
L 127.201701 -58.163271 
L 124.775839 -61.466729 
L 122.349976 -65.287257 
L 119.924114 -69.580841 
L 117.498252 -74.293338 
L 115.072389 -79.362124 
L 112.646527 -84.718033 
L 110.220664 -90.287499 
L 107.794802 -95.994802 
L 105.368939 -101.764317 
L 102.943077 -107.522658 
L 100.517214 -113.200633 
L 98.091352 -118.734937 
L 95.665489 -124.069525 
L 93.239627 -129.156621 
L 90.813764 -133.957356 
L 88.387902 -138.442042 
L 85.96204 -142.590092 
L 83.536177 -146.389633 
L 81.110315 -149.836863 
L 78.684452 -152.935199 
L 76.25859 -155.694286 
L 73.832727 -158.128922 
z
" id="m49035d08e1" style="stroke:#4c4c4c;stroke-opacity:0.5;stroke-width:1.5;"/>
    </defs>
    <g clip-path="url(#p5deef17b78)">
     <use style="fill:#df9c20;fill-opacity:0.5;stroke:#4c4c4c;stroke-opacity:0.5;stroke-width:1.5;" x="0" xlink:href="#m49035d08e1" y="345.6"/>
    </g>
   </g>
   <g id="PolyCollection_2">
    <defs>
     <path d="M 85.790323 -156.525252 
L 85.790323 -185.618748 
L 88.948878 -190.306467 
L 92.107433 -195.990007 
L 95.265988 -202.701975 
L 98.424543 -210.415943 
L 101.583098 -219.034396 
L 104.741653 -228.381894 
L 107.900208 -238.205559 
L 111.058763 -248.184224 
L 114.217318 -257.946513 
L 117.375873 -267.096698 
L 120.534428 -275.245862 
L 123.692983 -282.044766 
L 126.851538 -287.214236 
L 130.010093 -290.569039 
L 133.168648 -292.032 
L 136.327203 -291.636597 
L 139.485758 -289.51798 
L 142.644314 -285.894148 
L 145.802869 -281.040377 
L 148.961424 -275.260787 
L 152.119979 -268.860957 
L 155.278534 -262.124867 
L 158.437089 -255.298298 
L 161.595644 -248.579487 
L 164.754199 -242.116582 
L 167.912754 -236.010501 
L 171.071309 -230.321371 
L 174.229864 -225.07664 
L 177.388419 -220.279356 
L 180.546974 -215.915587 
L 183.705529 -211.960509 
L 186.864084 -208.383117 
L 190.022639 -205.149765 
L 193.181194 -202.226806 
L 196.339749 -199.58254 
L 199.498304 -197.188602 
L 202.65686 -195.020808 
L 205.815415 -193.059427 
L 208.97397 -191.288926 
L 212.132525 -189.697213 
L 215.29108 -188.274558 
L 218.449635 -187.012336 
L 221.60819 -185.901817 
L 224.766745 -184.933128 
L 227.9253 -184.09451 
L 231.083855 -183.371905 
L 234.24241 -182.748887 
L 237.400965 -182.206894 
L 240.55952 -181.725759 
L 243.718075 -181.284483 
L 246.87663 -180.862238 
L 250.035185 -180.439517 
L 253.19374 -179.999362 
L 256.352295 -179.528536 
L 259.51085 -179.018496 
L 262.669405 -178.466026 
L 265.827961 -177.873405 
L 268.986516 -177.24807 
L 272.145071 -176.601788 
L 275.303626 -175.94944 
L 278.462181 -175.307584 
L 281.620736 -174.692982 
L 284.779291 -174.121306 
L 287.937846 -173.606144 
L 291.096401 -173.158425 
L 294.254956 -172.786253 
L 297.413511 -172.495103 
L 300.572066 -172.288255 
L 303.730621 -172.167321 
L 306.889176 -172.132709 
L 310.047731 -172.183895 
L 313.206286 -172.319429 
L 316.364841 -172.536645 
L 319.523396 -172.831111 
L 322.681951 -173.195946 
L 325.840507 -173.621129 
L 328.999062 -174.092982 
L 332.157617 -174.594 
L 335.316172 -175.103144 
L 338.474727 -175.596673 
L 341.633282 -176.049494 
L 344.791837 -176.436917 
L 347.950392 -176.736632 
L 351.108947 -176.930665 
L 354.267502 -177.007039 
L 357.426057 -176.960918 
L 360.584612 -176.795068 
L 363.743167 -176.519544 
L 366.901722 -176.150662 
L 370.060277 -175.709392 
L 373.218832 -175.21938 
L 376.377387 -174.704864 
L 379.535942 -174.188732 
L 382.694497 -173.690936 
L 385.853053 -173.227388 
L 389.011608 -172.809404 
L 392.170163 -172.443675 
L 395.328718 -172.132661 
L 398.487273 -171.875299 
L 398.487273 -170.268701 
L 398.487273 -170.268701 
L 395.328718 -170.011339 
L 392.170163 -169.700325 
L 389.011608 -169.334596 
L 385.853053 -168.916612 
L 382.694497 -168.453064 
L 379.535942 -167.955268 
L 376.377387 -167.439136 
L 373.218832 -166.92462 
L 370.060277 -166.434608 
L 366.901722 -165.993338 
L 363.743167 -165.624456 
L 360.584612 -165.348932 
L 357.426057 -165.183082 
L 354.267502 -165.136961 
L 351.108947 -165.213335 
L 347.950392 -165.407368 
L 344.791837 -165.707083 
L 341.633282 -166.094506 
L 338.474727 -166.547327 
L 335.316172 -167.040856 
L 332.157617 -167.55 
L 328.999062 -168.051018 
L 325.840507 -168.522871 
L 322.681951 -168.948054 
L 319.523396 -169.312889 
L 316.364841 -169.607355 
L 313.206286 -169.824571 
L 310.047731 -169.960105 
L 306.889176 -170.011291 
L 303.730621 -169.976679 
L 300.572066 -169.855745 
L 297.413511 -169.648897 
L 294.254956 -169.357747 
L 291.096401 -168.985575 
L 287.937846 -168.537856 
L 284.779291 -168.022694 
L 281.620736 -167.451018 
L 278.462181 -166.836416 
L 275.303626 -166.19456 
L 272.145071 -165.542212 
L 268.986516 -164.89593 
L 265.827961 -164.270595 
L 262.669405 -163.677974 
L 259.51085 -163.125504 
L 256.352295 -162.615464 
L 253.19374 -162.144638 
L 250.035185 -161.704483 
L 246.87663 -161.281762 
L 243.718075 -160.859517 
L 240.55952 -160.418241 
L 237.400965 -159.937106 
L 234.24241 -159.395113 
L 231.083855 -158.772095 
L 227.9253 -158.04949 
L 224.766745 -157.210872 
L 221.60819 -156.242183 
L 218.449635 -155.131664 
L 215.29108 -153.869442 
L 212.132525 -152.446787 
L 208.97397 -150.855074 
L 205.815415 -149.084573 
L 202.65686 -147.123192 
L 199.498304 -144.955398 
L 196.339749 -142.56146 
L 193.181194 -139.917194 
L 190.022639 -136.994235 
L 186.864084 -133.760883 
L 183.705529 -130.183491 
L 180.546974 -126.228413 
L 177.388419 -121.864644 
L 174.229864 -117.06736 
L 171.071309 -111.822629 
L 167.912754 -106.133499 
L 164.754199 -100.027418 
L 161.595644 -93.564513 
L 158.437089 -86.845702 
L 155.278534 -80.019133 
L 152.119979 -73.283043 
L 148.961424 -66.883213 
L 145.802869 -61.103623 
L 142.644314 -56.249852 
L 139.485758 -52.62602 
L 136.327203 -50.507403 
L 133.168648 -50.112 
L 130.010093 -51.574961 
L 126.851538 -54.929764 
L 123.692983 -60.099234 
L 120.534428 -66.898138 
L 117.375873 -75.047302 
L 114.217318 -84.197487 
L 111.058763 -93.959776 
L 107.900208 -103.938441 
L 104.741653 -113.762106 
L 101.583098 -123.109604 
L 98.424543 -131.728057 
L 95.265988 -139.442025 
L 92.107433 -146.153993 
L 88.948878 -151.837533 
L 85.790323 -156.525252 
z
" id="m5a9e3e21b2" style="stroke:#262626;stroke-opacity:0.5;stroke-width:1.5;"/>
    </defs>
    <g clip-path="url(#p5deef17b78)">
     <use style="fill:#107010;fill-opacity:0.5;stroke:#262626;stroke-opacity:0.5;stroke-width:1.5;" x="0" xlink:href="#m5a9e3e21b2" y="345.6"/>
    </g>
   </g>
   <g id="matplotlib.axis_1">
    <g id="xtick_1">
     <g id="line2d_1">
      <defs>
       <path d="M 0 0 
L 0 3.5 
" id="m226ff981bc" style="stroke:#000000;stroke-width:0.8;"/>
      </defs>
      <g>
       <use style="stroke:#000000;stroke-width:0.8;" x="97.461162" xlink:href="#m226ff981bc" y="307.584"/>
      </g>
     </g>
     <g id="text_1">
      <!-- 0.0 -->
      <defs>
       <path d="M 31.78125 66.40625 
Q 24.171875 66.40625 20.328125 58.90625 
Q 16.5 51.421875 16.5 36.375 
Q 16.5 21.390625 20.328125 13.890625 
Q 24.171875 6.390625 31.78125 6.390625 
Q 39.453125 6.390625 43.28125 13.890625 
Q 47.125 21.390625 47.125 36.375 
Q 47.125 51.421875 43.28125 58.90625 
Q 39.453125 66.40625 31.78125 66.40625 
z
M 31.78125 74.21875 
Q 44.046875 74.21875 50.515625 64.515625 
Q 56.984375 54.828125 56.984375 36.375 
Q 56.984375 17.96875 50.515625 8.265625 
Q 44.046875 -1.421875 31.78125 -1.421875 
Q 19.53125 -1.421875 13.0625 8.265625 
Q 6.59375 17.96875 6.59375 36.375 
Q 6.59375 54.828125 13.0625 64.515625 
Q 19.53125 74.21875 31.78125 74.21875 
z
" id="DejaVuSans-48"/>
       <path d="M 10.6875 12.40625 
L 21 12.40625 
L 21 0 
L 10.6875 0 
z
" id="DejaVuSans-46"/>
      </defs>
      <g transform="translate(89.509599 322.182437)scale(0.1 -0.1)">
       <use xlink:href="#DejaVuSans-48"/>
       <use x="63.623047" xlink:href="#DejaVuSans-46"/>
       <use x="95.410156" xlink:href="#DejaVuSans-48"/>
      </g>
     </g>
    </g>
    <g id="xtick_2">
     <g id="line2d_2">
      <g>
       <use style="stroke:#000000;stroke-width:0.8;" x="161.762333" xlink:href="#m226ff981bc" y="307.584"/>
      </g>
     </g>
     <g id="text_2">
      <!-- 0.2 -->
      <defs>
       <path d="M 19.1875 8.296875 
L 53.609375 8.296875 
L 53.609375 0 
L 7.328125 0 
L 7.328125 8.296875 
Q 12.9375 14.109375 22.625 23.890625 
Q 32.328125 33.6875 34.8125 36.53125 
Q 39.546875 41.84375 41.421875 45.53125 
Q 43.3125 49.21875 43.3125 52.78125 
Q 43.3125 58.59375 39.234375 62.25 
Q 35.15625 65.921875 28.609375 65.921875 
Q 23.96875 65.921875 18.8125 64.3125 
Q 13.671875 62.703125 7.8125 59.421875 
L 7.8125 69.390625 
Q 13.765625 71.78125 18.9375 73 
Q 24.125 74.21875 28.421875 74.21875 
Q 39.75 74.21875 46.484375 68.546875 
Q 53.21875 62.890625 53.21875 53.421875 
Q 53.21875 48.921875 51.53125 44.890625 
Q 49.859375 40.875 45.40625 35.40625 
Q 44.1875 33.984375 37.640625 27.21875 
Q 31.109375 20.453125 19.1875 8.296875 
z
" id="DejaVuSans-50"/>
      </defs>
      <g transform="translate(153.810771 322.182437)scale(0.1 -0.1)">
       <use xlink:href="#DejaVuSans-48"/>
       <use x="63.623047" xlink:href="#DejaVuSans-46"/>
       <use x="95.410156" xlink:href="#DejaVuSans-50"/>
      </g>
     </g>
    </g>
    <g id="xtick_3">
     <g id="line2d_3">
      <g>
       <use style="stroke:#000000;stroke-width:0.8;" x="226.063505" xlink:href="#m226ff981bc" y="307.584"/>
      </g>
     </g>
     <g id="text_3">
      <!-- 0.4 -->
      <defs>
       <path d="M 37.796875 64.3125 
L 12.890625 25.390625 
L 37.796875 25.390625 
z
M 35.203125 72.90625 
L 47.609375 72.90625 
L 47.609375 25.390625 
L 58.015625 25.390625 
L 58.015625 17.1875 
L 47.609375 17.1875 
L 47.609375 0 
L 37.796875 0 
L 37.796875 17.1875 
L 4.890625 17.1875 
L 4.890625 26.703125 
z
" id="DejaVuSans-52"/>
      </defs>
      <g transform="translate(218.111942 322.182437)scale(0.1 -0.1)">
       <use xlink:href="#DejaVuSans-48"/>
       <use x="63.623047" xlink:href="#DejaVuSans-46"/>
       <use x="95.410156" xlink:href="#DejaVuSans-52"/>
      </g>
     </g>
    </g>
    <g id="xtick_4">
     <g id="line2d_4">
      <g>
       <use style="stroke:#000000;stroke-width:0.8;" x="290.364676" xlink:href="#m226ff981bc" y="307.584"/>
      </g>
     </g>
     <g id="text_4">
      <!-- 0.6 -->
      <defs>
       <path d="M 33.015625 40.375 
Q 26.375 40.375 22.484375 35.828125 
Q 18.609375 31.296875 18.609375 23.390625 
Q 18.609375 15.53125 22.484375 10.953125 
Q 26.375 6.390625 33.015625 6.390625 
Q 39.65625 6.390625 43.53125 10.953125 
Q 47.40625 15.53125 47.40625 23.390625 
Q 47.40625 31.296875 43.53125 35.828125 
Q 39.65625 40.375 33.015625 40.375 
z
M 52.59375 71.296875 
L 52.59375 62.3125 
Q 48.875 64.0625 45.09375 64.984375 
Q 41.3125 65.921875 37.59375 65.921875 
Q 27.828125 65.921875 22.671875 59.328125 
Q 17.53125 52.734375 16.796875 39.40625 
Q 19.671875 43.65625 24.015625 45.921875 
Q 28.375 48.1875 33.59375 48.1875 
Q 44.578125 48.1875 50.953125 41.515625 
Q 57.328125 34.859375 57.328125 23.390625 
Q 57.328125 12.15625 50.6875 5.359375 
Q 44.046875 -1.421875 33.015625 -1.421875 
Q 20.359375 -1.421875 13.671875 8.265625 
Q 6.984375 17.96875 6.984375 36.375 
Q 6.984375 53.65625 15.1875 63.9375 
Q 23.390625 74.21875 37.203125 74.21875 
Q 40.921875 74.21875 44.703125 73.484375 
Q 48.484375 72.75 52.59375 71.296875 
z
" id="DejaVuSans-54"/>
      </defs>
      <g transform="translate(282.413114 322.182437)scale(0.1 -0.1)">
       <use xlink:href="#DejaVuSans-48"/>
       <use x="63.623047" xlink:href="#DejaVuSans-46"/>
       <use x="95.410156" xlink:href="#DejaVuSans-54"/>
      </g>
     </g>
    </g>
    <g id="xtick_5">
     <g id="line2d_5">
      <g>
       <use style="stroke:#000000;stroke-width:0.8;" x="354.665848" xlink:href="#m226ff981bc" y="307.584"/>
      </g>
     </g>
     <g id="text_5">
      <!-- 0.8 -->
      <defs>
       <path d="M 31.78125 34.625 
Q 24.75 34.625 20.71875 30.859375 
Q 16.703125 27.09375 16.703125 20.515625 
Q 16.703125 13.921875 20.71875 10.15625 
Q 24.75 6.390625 31.78125 6.390625 
Q 38.8125 6.390625 42.859375 10.171875 
Q 46.921875 13.96875 46.921875 20.515625 
Q 46.921875 27.09375 42.890625 30.859375 
Q 38.875 34.625 31.78125 34.625 
z
M 21.921875 38.8125 
Q 15.578125 40.375 12.03125 44.71875 
Q 8.5 49.078125 8.5 55.328125 
Q 8.5 64.0625 14.71875 69.140625 
Q 20.953125 74.21875 31.78125 74.21875 
Q 42.671875 74.21875 48.875 69.140625 
Q 55.078125 64.0625 55.078125 55.328125 
Q 55.078125 49.078125 51.53125 44.71875 
Q 48 40.375 41.703125 38.8125 
Q 48.828125 37.15625 52.796875 32.3125 
Q 56.78125 27.484375 56.78125 20.515625 
Q 56.78125 9.90625 50.3125 4.234375 
Q 43.84375 -1.421875 31.78125 -1.421875 
Q 19.734375 -1.421875 13.25 4.234375 
Q 6.78125 9.90625 6.78125 20.515625 
Q 6.78125 27.484375 10.78125 32.3125 
Q 14.796875 37.15625 21.921875 38.8125 
z
M 18.3125 54.390625 
Q 18.3125 48.734375 21.84375 45.5625 
Q 25.390625 42.390625 31.78125 42.390625 
Q 38.140625 42.390625 41.71875 45.5625 
Q 45.3125 48.734375 45.3125 54.390625 
Q 45.3125 60.0625 41.71875 63.234375 
Q 38.140625 66.40625 31.78125 66.40625 
Q 25.390625 66.40625 21.84375 63.234375 
Q 18.3125 60.0625 18.3125 54.390625 
z
" id="DejaVuSans-56"/>
      </defs>
      <g transform="translate(346.714285 322.182437)scale(0.1 -0.1)">
       <use xlink:href="#DejaVuSans-48"/>
       <use x="63.623047" xlink:href="#DejaVuSans-46"/>
       <use x="95.410156" xlink:href="#DejaVuSans-56"/>
      </g>
     </g>
    </g>
    <g id="text_6">
     <!-- eosadmac -->
     <defs>
      <path d="M 56.203125 29.59375 
L 56.203125 25.203125 
L 14.890625 25.203125 
Q 15.484375 15.921875 20.484375 11.0625 
Q 25.484375 6.203125 34.421875 6.203125 
Q 39.59375 6.203125 44.453125 7.46875 
Q 49.3125 8.734375 54.109375 11.28125 
L 54.109375 2.78125 
Q 49.265625 0.734375 44.1875 -0.34375 
Q 39.109375 -1.421875 33.890625 -1.421875 
Q 20.796875 -1.421875 13.15625 6.1875 
Q 5.515625 13.8125 5.515625 26.8125 
Q 5.515625 40.234375 12.765625 48.109375 
Q 20.015625 56 32.328125 56 
Q 43.359375 56 49.78125 48.890625 
Q 56.203125 41.796875 56.203125 29.59375 
z
M 47.21875 32.234375 
Q 47.125 39.59375 43.09375 43.984375 
Q 39.0625 48.390625 32.421875 48.390625 
Q 24.90625 48.390625 20.390625 44.140625 
Q 15.875 39.890625 15.1875 32.171875 
z
" id="DejaVuSans-101"/>
      <path d="M 30.609375 48.390625 
Q 23.390625 48.390625 19.1875 42.75 
Q 14.984375 37.109375 14.984375 27.296875 
Q 14.984375 17.484375 19.15625 11.84375 
Q 23.34375 6.203125 30.609375 6.203125 
Q 37.796875 6.203125 41.984375 11.859375 
Q 46.1875 17.53125 46.1875 27.296875 
Q 46.1875 37.015625 41.984375 42.703125 
Q 37.796875 48.390625 30.609375 48.390625 
z
M 30.609375 56 
Q 42.328125 56 49.015625 48.375 
Q 55.71875 40.765625 55.71875 27.296875 
Q 55.71875 13.875 49.015625 6.21875 
Q 42.328125 -1.421875 30.609375 -1.421875 
Q 18.84375 -1.421875 12.171875 6.21875 
Q 5.515625 13.875 5.515625 27.296875 
Q 5.515625 40.765625 12.171875 48.375 
Q 18.84375 56 30.609375 56 
z
" id="DejaVuSans-111"/>
      <path d="M 44.28125 53.078125 
L 44.28125 44.578125 
Q 40.484375 46.53125 36.375 47.5 
Q 32.28125 48.484375 27.875 48.484375 
Q 21.1875 48.484375 17.84375 46.4375 
Q 14.5 44.390625 14.5 40.28125 
Q 14.5 37.15625 16.890625 35.375 
Q 19.28125 33.59375 26.515625 31.984375 
L 29.59375 31.296875 
Q 39.15625 29.25 43.1875 25.515625 
Q 47.21875 21.78125 47.21875 15.09375 
Q 47.21875 7.46875 41.1875 3.015625 
Q 35.15625 -1.421875 24.609375 -1.421875 
Q 20.21875 -1.421875 15.453125 -0.5625 
Q 10.6875 0.296875 5.421875 2 
L 5.421875 11.28125 
Q 10.40625 8.6875 15.234375 7.390625 
Q 20.0625 6.109375 24.8125 6.109375 
Q 31.15625 6.109375 34.5625 8.28125 
Q 37.984375 10.453125 37.984375 14.40625 
Q 37.984375 18.0625 35.515625 20.015625 
Q 33.0625 21.96875 24.703125 23.78125 
L 21.578125 24.515625 
Q 13.234375 26.265625 9.515625 29.90625 
Q 5.8125 33.546875 5.8125 39.890625 
Q 5.8125 47.609375 11.28125 51.796875 
Q 16.75 56 26.8125 56 
Q 31.78125 56 36.171875 55.265625 
Q 40.578125 54.546875 44.28125 53.078125 
z
" id="DejaVuSans-115"/>
      <path d="M 34.28125 27.484375 
Q 23.390625 27.484375 19.1875 25 
Q 14.984375 22.515625 14.984375 16.5 
Q 14.984375 11.71875 18.140625 8.90625 
Q 21.296875 6.109375 26.703125 6.109375 
Q 34.1875 6.109375 38.703125 11.40625 
Q 43.21875 16.703125 43.21875 25.484375 
L 43.21875 27.484375 
z
M 52.203125 31.203125 
L 52.203125 0 
L 43.21875 0 
L 43.21875 8.296875 
Q 40.140625 3.328125 35.546875 0.953125 
Q 30.953125 -1.421875 24.3125 -1.421875 
Q 15.921875 -1.421875 10.953125 3.296875 
Q 6 8.015625 6 15.921875 
Q 6 25.140625 12.171875 29.828125 
Q 18.359375 34.515625 30.609375 34.515625 
L 43.21875 34.515625 
L 43.21875 35.40625 
Q 43.21875 41.609375 39.140625 45 
Q 35.0625 48.390625 27.6875 48.390625 
Q 23 48.390625 18.546875 47.265625 
Q 14.109375 46.140625 10.015625 43.890625 
L 10.015625 52.203125 
Q 14.9375 54.109375 19.578125 55.046875 
Q 24.21875 56 28.609375 56 
Q 40.484375 56 46.34375 49.84375 
Q 52.203125 43.703125 52.203125 31.203125 
z
" id="DejaVuSans-97"/>
      <path d="M 45.40625 46.390625 
L 45.40625 75.984375 
L 54.390625 75.984375 
L 54.390625 0 
L 45.40625 0 
L 45.40625 8.203125 
Q 42.578125 3.328125 38.25 0.953125 
Q 33.9375 -1.421875 27.875 -1.421875 
Q 17.96875 -1.421875 11.734375 6.484375 
Q 5.515625 14.40625 5.515625 27.296875 
Q 5.515625 40.1875 11.734375 48.09375 
Q 17.96875 56 27.875 56 
Q 33.9375 56 38.25 53.625 
Q 42.578125 51.265625 45.40625 46.390625 
z
M 14.796875 27.296875 
Q 14.796875 17.390625 18.875 11.75 
Q 22.953125 6.109375 30.078125 6.109375 
Q 37.203125 6.109375 41.296875 11.75 
Q 45.40625 17.390625 45.40625 27.296875 
Q 45.40625 37.203125 41.296875 42.84375 
Q 37.203125 48.484375 30.078125 48.484375 
Q 22.953125 48.484375 18.875 42.84375 
Q 14.796875 37.203125 14.796875 27.296875 
z
" id="DejaVuSans-100"/>
      <path d="M 52 44.1875 
Q 55.375 50.25 60.0625 53.125 
Q 64.75 56 71.09375 56 
Q 79.640625 56 84.28125 50.015625 
Q 88.921875 44.046875 88.921875 33.015625 
L 88.921875 0 
L 79.890625 0 
L 79.890625 32.71875 
Q 79.890625 40.578125 77.09375 44.375 
Q 74.3125 48.1875 68.609375 48.1875 
Q 61.625 48.1875 57.5625 43.546875 
Q 53.515625 38.921875 53.515625 30.90625 
L 53.515625 0 
L 44.484375 0 
L 44.484375 32.71875 
Q 44.484375 40.625 41.703125 44.40625 
Q 38.921875 48.1875 33.109375 48.1875 
Q 26.21875 48.1875 22.15625 43.53125 
Q 18.109375 38.875 18.109375 30.90625 
L 18.109375 0 
L 9.078125 0 
L 9.078125 54.6875 
L 18.109375 54.6875 
L 18.109375 46.1875 
Q 21.1875 51.21875 25.484375 53.609375 
Q 29.78125 56 35.6875 56 
Q 41.65625 56 45.828125 52.96875 
Q 50 49.953125 52 44.1875 
z
" id="DejaVuSans-109"/>
      <path d="M 48.78125 52.59375 
L 48.78125 44.1875 
Q 44.96875 46.296875 41.140625 47.34375 
Q 37.3125 48.390625 33.40625 48.390625 
Q 24.65625 48.390625 19.8125 42.84375 
Q 14.984375 37.3125 14.984375 27.296875 
Q 14.984375 17.28125 19.8125 11.734375 
Q 24.65625 6.203125 33.40625 6.203125 
Q 37.3125 6.203125 41.140625 7.25 
Q 44.96875 8.296875 48.78125 10.40625 
L 48.78125 2.09375 
Q 45.015625 0.34375 40.984375 -0.53125 
Q 36.96875 -1.421875 32.421875 -1.421875 
Q 20.0625 -1.421875 12.78125 6.34375 
Q 5.515625 14.109375 5.515625 27.296875 
Q 5.515625 40.671875 12.859375 48.328125 
Q 20.21875 56 33.015625 56 
Q 37.15625 56 41.109375 55.140625 
Q 45.0625 54.296875 48.78125 52.59375 
z
" id="DejaVuSans-99"/>
     </defs>
     <g transform="translate(210.4975 335.860562)scale(0.1 -0.1)">
      <use xlink:href="#DejaVuSans-101"/>
      <use x="61.523438" xlink:href="#DejaVuSans-111"/>
      <use x="122.705078" xlink:href="#DejaVuSans-115"/>
      <use x="174.804688" xlink:href="#DejaVuSans-97"/>
      <use x="236.083984" xlink:href="#DejaVuSans-100"/>
      <use x="299.560547" xlink:href="#DejaVuSans-109"/>
      <use x="396.972656" xlink:href="#DejaVuSans-97"/>
      <use x="458.251953" xlink:href="#DejaVuSans-99"/>
     </g>
    </g>
   </g>
   <g id="matplotlib.axis_2">
    <g id="ytick_1">
     <g id="line2d_6">
      <defs>
       <path d="M 0 0 
L -3.5 0 
" id="m264fc10b8c" style="stroke:#000000;stroke-width:0.8;"/>
      </defs>
      <g>
       <use style="stroke:#000000;stroke-width:0.8;" x="57.6" xlink:href="#m264fc10b8c" y="174.528"/>
      </g>
     </g>
    </g>
   </g>
   <g id="line2d_7">
    <path clip-path="url(#p5deef17b78)" d="M 129.611747 174.528 
L 258.214091 174.528 
" style="fill:none;stroke:#ffa500;stroke-linecap:square;stroke-width:1.5;"/>
   </g>
   <g id="line2d_8">
    <path clip-path="url(#p5deef17b78)" d="M 129.611747 174.528 
L 193.912919 174.528 
" style="fill:none;stroke:#4c4c4c;stroke-linecap:square;stroke-width:4.5;"/>
   </g>
   <g id="line2d_9">
    <path clip-path="url(#p5deef17b78)" d="M 129.611747 174.528 
L 193.912919 174.528 
" style="fill:none;stroke:#008000;stroke-linecap:square;stroke-width:1.5;"/>
   </g>
   <g id="line2d_10">
    <path clip-path="url(#p5deef17b78)" d="M 129.611747 174.528 
L 161.762333 174.528 
" style="fill:none;stroke:#262626;stroke-linecap:square;stroke-width:4.5;"/>
   </g>
   <g id="patch_3">
    <path d="M 57.6 307.584 
L 57.6 41.472 
" style="fill:none;stroke:#000000;stroke-linecap:square;stroke-linejoin:miter;stroke-width:0.8;"/>
   </g>
   <g id="patch_4">
    <path d="M 414.72 307.584 
L 414.72 41.472 
" style="fill:none;stroke:#000000;stroke-linecap:square;stroke-linejoin:miter;stroke-width:0.8;"/>
   </g>
   <g id="patch_5">
    <path d="M 57.6 307.584 
L 414.72 307.584 
" style="fill:none;stroke:#000000;stroke-linecap:square;stroke-linejoin:miter;stroke-width:0.8;"/>
   </g>
   <g id="patch_6">
    <path d="M 57.6 41.472 
L 414.72 41.472 
" style="fill:none;stroke:#000000;stroke-linecap:square;stroke-linejoin:miter;stroke-width:0.8;"/>
   </g>
   <g id="PathCollection_1">
    <defs>
     <path d="M 0 1.5 
C 0.397805 1.5 0.77937 1.341951 1.06066 1.06066 
C 1.341951 0.77937 1.5 0.397805 1.5 0 
C 1.5 -0.397805 1.341951 -0.77937 1.06066 -1.06066 
C 0.77937 -1.341951 0.397805 -1.5 0 -1.5 
C -0.397805 -1.5 -0.77937 -1.341951 -1.06066 -1.06066 
C -1.341951 -0.77937 -1.5 -0.397805 -1.5 0 
C -1.5 0.397805 -1.341951 0.77937 -1.06066 1.06066 
C -0.77937 1.341951 -0.397805 1.5 0 1.5 
z
" id="m59df26a801" style="stroke:#4c4c4c;stroke-opacity:0.5;"/>
    </defs>
    <g clip-path="url(#p5deef17b78)">
     <use style="fill:#ffffff;fill-opacity:0.5;stroke:#4c4c4c;stroke-opacity:0.5;" x="161.762333" xlink:href="#m59df26a801" y="174.528"/>
    </g>
   </g>
   <g id="PathCollection_2">
    <defs>
     <path d="M 0 1.5 
C 0.397805 1.5 0.77937 1.341951 1.06066 1.06066 
C 1.341951 0.77937 1.5 0.397805 1.5 0 
C 1.5 -0.397805 1.341951 -0.77937 1.06066 -1.06066 
C 0.77937 -1.341951 0.397805 -1.5 0 -1.5 
C -0.397805 -1.5 -0.77937 -1.341951 -1.06066 -1.06066 
C -1.341951 -0.77937 -1.5 -0.397805 -1.5 0 
C -1.5 0.397805 -1.341951 0.77937 -1.06066 1.06066 
C -0.77937 1.341951 -0.397805 1.5 0 1.5 
z
" id="m91afae3fc1" style="stroke:#262626;stroke-opacity:0.5;"/>
    </defs>
    <g clip-path="url(#p5deef17b78)">
     <use style="fill:#ffffff;fill-opacity:0.5;stroke:#262626;stroke-opacity:0.5;" x="129.611747" xlink:href="#m91afae3fc1" y="174.528"/>
    </g>
   </g>
   <g id="text_7">
    <!-- Association of eosadmac vs. intubation -->
    <defs>
     <path d="M 34.1875 63.1875 
L 20.796875 26.90625 
L 47.609375 26.90625 
z
M 28.609375 72.90625 
L 39.796875 72.90625 
L 67.578125 0 
L 57.328125 0 
L 50.6875 18.703125 
L 17.828125 18.703125 
L 11.1875 0 
L 0.78125 0 
z
" id="DejaVuSans-65"/>
     <path d="M 9.421875 54.6875 
L 18.40625 54.6875 
L 18.40625 0 
L 9.421875 0 
z
M 9.421875 75.984375 
L 18.40625 75.984375 
L 18.40625 64.59375 
L 9.421875 64.59375 
z
" id="DejaVuSans-105"/>
     <path d="M 18.3125 70.21875 
L 18.3125 54.6875 
L 36.8125 54.6875 
L 36.8125 47.703125 
L 18.3125 47.703125 
L 18.3125 18.015625 
Q 18.3125 11.328125 20.140625 9.421875 
Q 21.96875 7.515625 27.59375 7.515625 
L 36.8125 7.515625 
L 36.8125 0 
L 27.59375 0 
Q 17.1875 0 13.234375 3.875 
Q 9.28125 7.765625 9.28125 18.015625 
L 9.28125 47.703125 
L 2.6875 47.703125 
L 2.6875 54.6875 
L 9.28125 54.6875 
L 9.28125 70.21875 
z
" id="DejaVuSans-116"/>
     <path d="M 54.890625 33.015625 
L 54.890625 0 
L 45.90625 0 
L 45.90625 32.71875 
Q 45.90625 40.484375 42.875 44.328125 
Q 39.84375 48.1875 33.796875 48.1875 
Q 26.515625 48.1875 22.3125 43.546875 
Q 18.109375 38.921875 18.109375 30.90625 
L 18.109375 0 
L 9.078125 0 
L 9.078125 54.6875 
L 18.109375 54.6875 
L 18.109375 46.1875 
Q 21.34375 51.125 25.703125 53.5625 
Q 30.078125 56 35.796875 56 
Q 45.21875 56 50.046875 50.171875 
Q 54.890625 44.34375 54.890625 33.015625 
z
" id="DejaVuSans-110"/>
     <path id="DejaVuSans-32"/>
     <path d="M 37.109375 75.984375 
L 37.109375 68.5 
L 28.515625 68.5 
Q 23.6875 68.5 21.796875 66.546875 
Q 19.921875 64.59375 19.921875 59.515625 
L 19.921875 54.6875 
L 34.71875 54.6875 
L 34.71875 47.703125 
L 19.921875 47.703125 
L 19.921875 0 
L 10.890625 0 
L 10.890625 47.703125 
L 2.296875 47.703125 
L 2.296875 54.6875 
L 10.890625 54.6875 
L 10.890625 58.5 
Q 10.890625 67.625 15.140625 71.796875 
Q 19.390625 75.984375 28.609375 75.984375 
z
" id="DejaVuSans-102"/>
     <path d="M 2.984375 54.6875 
L 12.5 54.6875 
L 29.59375 8.796875 
L 46.6875 54.6875 
L 56.203125 54.6875 
L 35.6875 0 
L 23.484375 0 
z
" id="DejaVuSans-118"/>
     <path d="M 8.5 21.578125 
L 8.5 54.6875 
L 17.484375 54.6875 
L 17.484375 21.921875 
Q 17.484375 14.15625 20.5 10.265625 
Q 23.53125 6.390625 29.59375 6.390625 
Q 36.859375 6.390625 41.078125 11.03125 
Q 45.3125 15.671875 45.3125 23.6875 
L 45.3125 54.6875 
L 54.296875 54.6875 
L 54.296875 0 
L 45.3125 0 
L 45.3125 8.40625 
Q 42.046875 3.421875 37.71875 1 
Q 33.40625 -1.421875 27.6875 -1.421875 
Q 18.265625 -1.421875 13.375 4.4375 
Q 8.5 10.296875 8.5 21.578125 
z
M 31.109375 56 
z
" id="DejaVuSans-117"/>
     <path d="M 48.6875 27.296875 
Q 48.6875 37.203125 44.609375 42.84375 
Q 40.53125 48.484375 33.40625 48.484375 
Q 26.265625 48.484375 22.1875 42.84375 
Q 18.109375 37.203125 18.109375 27.296875 
Q 18.109375 17.390625 22.1875 11.75 
Q 26.265625 6.109375 33.40625 6.109375 
Q 40.53125 6.109375 44.609375 11.75 
Q 48.6875 17.390625 48.6875 27.296875 
z
M 18.109375 46.390625 
Q 20.953125 51.265625 25.265625 53.625 
Q 29.59375 56 35.59375 56 
Q 45.5625 56 51.78125 48.09375 
Q 58.015625 40.1875 58.015625 27.296875 
Q 58.015625 14.40625 51.78125 6.484375 
Q 45.5625 -1.421875 35.59375 -1.421875 
Q 29.59375 -1.421875 25.265625 0.953125 
Q 20.953125 3.328125 18.109375 8.203125 
L 18.109375 0 
L 9.078125 0 
L 9.078125 75.984375 
L 18.109375 75.984375 
z
" id="DejaVuSans-98"/>
    </defs>
    <g transform="translate(118.605 35.472)scale(0.12 -0.12)">
     <use xlink:href="#DejaVuSans-65"/>
     <use x="68.408203" xlink:href="#DejaVuSans-115"/>
     <use x="120.507812" xlink:href="#DejaVuSans-115"/>
     <use x="172.607422" xlink:href="#DejaVuSans-111"/>
     <use x="233.789062" xlink:href="#DejaVuSans-99"/>
     <use x="288.769531" xlink:href="#DejaVuSans-105"/>
     <use x="316.552734" xlink:href="#DejaVuSans-97"/>
     <use x="377.832031" xlink:href="#DejaVuSans-116"/>
     <use x="417.041016" xlink:href="#DejaVuSans-105"/>
     <use x="444.824219" xlink:href="#DejaVuSans-111"/>
     <use x="506.005859" xlink:href="#DejaVuSans-110"/>
     <use x="569.384766" xlink:href="#DejaVuSans-32"/>
     <use x="601.171875" xlink:href="#DejaVuSans-111"/>
     <use x="662.353516" xlink:href="#DejaVuSans-102"/>
     <use x="697.558594" xlink:href="#DejaVuSans-32"/>
     <use x="729.345703" xlink:href="#DejaVuSans-101"/>
     <use x="790.869141" xlink:href="#DejaVuSans-111"/>
     <use x="852.050781" xlink:href="#DejaVuSans-115"/>
     <use x="904.150391" xlink:href="#DejaVuSans-97"/>
     <use x="965.429688" xlink:href="#DejaVuSans-100"/>
     <use x="1028.90625" xlink:href="#DejaVuSans-109"/>
     <use x="1126.318359" xlink:href="#DejaVuSans-97"/>
     <use x="1187.597656" xlink:href="#DejaVuSans-99"/>
     <use x="1242.578125" xlink:href="#DejaVuSans-32"/>
     <use x="1274.365234" xlink:href="#DejaVuSans-118"/>
     <use x="1333.544922" xlink:href="#DejaVuSans-115"/>
     <use x="1385.644531" xlink:href="#DejaVuSans-46"/>
     <use x="1417.431641" xlink:href="#DejaVuSans-32"/>
     <use x="1449.21875" xlink:href="#DejaVuSans-105"/>
     <use x="1477.001953" xlink:href="#DejaVuSans-110"/>
     <use x="1540.380859" xlink:href="#DejaVuSans-116"/>
     <use x="1579.589844" xlink:href="#DejaVuSans-117"/>
     <use x="1642.96875" xlink:href="#DejaVuSans-98"/>
     <use x="1706.445312" xlink:href="#DejaVuSans-97"/>
     <use x="1767.724609" xlink:href="#DejaVuSans-116"/>
     <use x="1806.933594" xlink:href="#DejaVuSans-105"/>
     <use x="1834.716797" xlink:href="#DejaVuSans-111"/>
     <use x="1895.898438" xlink:href="#DejaVuSans-110"/>
    </g>
   </g>
   <g id="legend_1">
    <g id="patch_7">
     <path d="M 280.310625 78.82825 
L 407.72 78.82825 
Q 409.72 78.82825 409.72 76.82825 
L 409.72 48.472 
Q 409.72 46.472 407.72 46.472 
L 280.310625 46.472 
Q 278.310625 46.472 278.310625 48.472 
L 278.310625 76.82825 
Q 278.310625 78.82825 280.310625 78.82825 
z
" style="fill:#ffffff;opacity:0.8;stroke:#cccccc;stroke-linejoin:miter;"/>
    </g>
    <g id="line2d_11">
     <path d="M 282.310625 54.570437 
L 302.310625 54.570437 
" style="fill:none;stroke:#ffa500;stroke-linecap:square;stroke-width:1.5;"/>
    </g>
    <g id="line2d_12"/>
    <g id="text_8">
     <!-- intubation (11) -->
     <defs>
      <path d="M 31 75.875 
Q 24.46875 64.65625 21.28125 53.65625 
Q 18.109375 42.671875 18.109375 31.390625 
Q 18.109375 20.125 21.3125 9.0625 
Q 24.515625 -2 31 -13.1875 
L 23.1875 -13.1875 
Q 15.875 -1.703125 12.234375 9.375 
Q 8.59375 20.453125 8.59375 31.390625 
Q 8.59375 42.28125 12.203125 53.3125 
Q 15.828125 64.359375 23.1875 75.875 
z
" id="DejaVuSans-40"/>
      <path d="M 12.40625 8.296875 
L 28.515625 8.296875 
L 28.515625 63.921875 
L 10.984375 60.40625 
L 10.984375 69.390625 
L 28.421875 72.90625 
L 38.28125 72.90625 
L 38.28125 8.296875 
L 54.390625 8.296875 
L 54.390625 0 
L 12.40625 0 
z
" id="DejaVuSans-49"/>
      <path d="M 8.015625 75.875 
L 15.828125 75.875 
Q 23.140625 64.359375 26.78125 53.3125 
Q 30.421875 42.28125 30.421875 31.390625 
Q 30.421875 20.453125 26.78125 9.375 
Q 23.140625 -1.703125 15.828125 -13.1875 
L 8.015625 -13.1875 
Q 14.5 -2 17.703125 9.0625 
Q 20.90625 20.125 20.90625 31.390625 
Q 20.90625 42.671875 17.703125 53.65625 
Q 14.5 64.65625 8.015625 75.875 
z
" id="DejaVuSans-41"/>
     </defs>
     <g transform="translate(310.310625 58.070437)scale(0.1 -0.1)">
      <use xlink:href="#DejaVuSans-105"/>
      <use x="27.783203" xlink:href="#DejaVuSans-110"/>
      <use x="91.162109" xlink:href="#DejaVuSans-116"/>
      <use x="130.371094" xlink:href="#DejaVuSans-117"/>
      <use x="193.75" xlink:href="#DejaVuSans-98"/>
      <use x="257.226562" xlink:href="#DejaVuSans-97"/>
      <use x="318.505859" xlink:href="#DejaVuSans-116"/>
      <use x="357.714844" xlink:href="#DejaVuSans-105"/>
      <use x="385.498047" xlink:href="#DejaVuSans-111"/>
      <use x="446.679688" xlink:href="#DejaVuSans-110"/>
      <use x="510.058594" xlink:href="#DejaVuSans-32"/>
      <use x="541.845703" xlink:href="#DejaVuSans-40"/>
      <use x="580.859375" xlink:href="#DejaVuSans-49"/>
      <use x="644.482422" xlink:href="#DejaVuSans-49"/>
      <use x="708.105469" xlink:href="#DejaVuSans-41"/>
     </g>
    </g>
    <g id="line2d_13">
     <path d="M 282.310625 69.248562 
L 302.310625 69.248562 
" style="fill:none;stroke:#008000;stroke-linecap:square;stroke-width:1.5;"/>
    </g>
    <g id="line2d_14"/>
    <g id="text_9">
     <!-- Not intubation (59) -->
     <defs>
      <path d="M 9.8125 72.90625 
L 23.09375 72.90625 
L 55.421875 11.921875 
L 55.421875 72.90625 
L 64.984375 72.90625 
L 64.984375 0 
L 51.703125 0 
L 19.390625 60.984375 
L 19.390625 0 
L 9.8125 0 
z
" id="DejaVuSans-78"/>
      <path d="M 10.796875 72.90625 
L 49.515625 72.90625 
L 49.515625 64.59375 
L 19.828125 64.59375 
L 19.828125 46.734375 
Q 21.96875 47.46875 24.109375 47.828125 
Q 26.265625 48.1875 28.421875 48.1875 
Q 40.625 48.1875 47.75 41.5 
Q 54.890625 34.8125 54.890625 23.390625 
Q 54.890625 11.625 47.5625 5.09375 
Q 40.234375 -1.421875 26.90625 -1.421875 
Q 22.3125 -1.421875 17.546875 -0.640625 
Q 12.796875 0.140625 7.71875 1.703125 
L 7.71875 11.625 
Q 12.109375 9.234375 16.796875 8.0625 
Q 21.484375 6.890625 26.703125 6.890625 
Q 35.15625 6.890625 40.078125 11.328125 
Q 45.015625 15.765625 45.015625 23.390625 
Q 45.015625 31 40.078125 35.4375 
Q 35.15625 39.890625 26.703125 39.890625 
Q 22.75 39.890625 18.8125 39.015625 
Q 14.890625 38.140625 10.796875 36.28125 
z
" id="DejaVuSans-53"/>
      <path d="M 10.984375 1.515625 
L 10.984375 10.5 
Q 14.703125 8.734375 18.5 7.8125 
Q 22.3125 6.890625 25.984375 6.890625 
Q 35.75 6.890625 40.890625 13.453125 
Q 46.046875 20.015625 46.78125 33.40625 
Q 43.953125 29.203125 39.59375 26.953125 
Q 35.25 24.703125 29.984375 24.703125 
Q 19.046875 24.703125 12.671875 31.3125 
Q 6.296875 37.9375 6.296875 49.421875 
Q 6.296875 60.640625 12.9375 67.421875 
Q 19.578125 74.21875 30.609375 74.21875 
Q 43.265625 74.21875 49.921875 64.515625 
Q 56.59375 54.828125 56.59375 36.375 
Q 56.59375 19.140625 48.40625 8.859375 
Q 40.234375 -1.421875 26.421875 -1.421875 
Q 22.703125 -1.421875 18.890625 -0.6875 
Q 15.09375 0.046875 10.984375 1.515625 
z
M 30.609375 32.421875 
Q 37.25 32.421875 41.125 36.953125 
Q 45.015625 41.5 45.015625 49.421875 
Q 45.015625 57.28125 41.125 61.84375 
Q 37.25 66.40625 30.609375 66.40625 
Q 23.96875 66.40625 20.09375 61.84375 
Q 16.21875 57.28125 16.21875 49.421875 
Q 16.21875 41.5 20.09375 36.953125 
Q 23.96875 32.421875 30.609375 32.421875 
z
" id="DejaVuSans-57"/>
     </defs>
     <g transform="translate(310.310625 72.748562)scale(0.1 -0.1)">
      <use xlink:href="#DejaVuSans-78"/>
      <use x="74.804688" xlink:href="#DejaVuSans-111"/>
      <use x="135.986328" xlink:href="#DejaVuSans-116"/>
      <use x="175.195312" xlink:href="#DejaVuSans-32"/>
      <use x="206.982422" xlink:href="#DejaVuSans-105"/>
      <use x="234.765625" xlink:href="#DejaVuSans-110"/>
      <use x="298.144531" xlink:href="#DejaVuSans-116"/>
      <use x="337.353516" xlink:href="#DejaVuSans-117"/>
      <use x="400.732422" xlink:href="#DejaVuSans-98"/>
      <use x="464.208984" xlink:href="#DejaVuSans-97"/>
      <use x="525.488281" xlink:href="#DejaVuSans-116"/>
      <use x="564.697266" xlink:href="#DejaVuSans-105"/>
      <use x="592.480469" xlink:href="#DejaVuSans-111"/>
      <use x="653.662109" xlink:href="#DejaVuSans-110"/>
      <use x="717.041016" xlink:href="#DejaVuSans-32"/>
      <use x="748.828125" xlink:href="#DejaVuSans-40"/>
      <use x="787.841797" xlink:href="#DejaVuSans-53"/>
      <use x="851.464844" xlink:href="#DejaVuSans-57"/>
      <use x="915.087891" xlink:href="#DejaVuSans-41"/>
     </g>
    </g>
   </g>
  </g>
 </g>
 <defs>
  <clipPath id="p5deef17b78">
   <rect height="266.112" width="357.12" x="57.6" y="41.472"/>
  </clipPath>
 </defs>
</svg>
