<?xml version="1.0" encoding="utf-8" standalone="no"?>
<!DOCTYPE svg PUBLIC "-//W3C//DTD SVG 1.1//EN"
  "http://www.w3.org/Graphics/SVG/1.1/DTD/svg11.dtd">
<!-- Created with matplotlib (https://matplotlib.org/) -->
<svg height="345.6pt" version="1.1" viewBox="0 0 460.8 345.6" width="460.8pt" xmlns="http://www.w3.org/2000/svg" xmlns:xlink="http://www.w3.org/1999/xlink">
 <defs>
  <style type="text/css">
*{stroke-linecap:butt;stroke-linejoin:round;}
  </style>
 </defs>
 <g id="figure_1">
  <g id="patch_1">
   <path d="M 0 345.6 
L 460.8 345.6 
L 460.8 0 
L 0 0 
z
" style="fill:#ffffff;"/>
  </g>
  <g id="axes_1">
   <g id="patch_2">
    <path d="M 57.6 307.584 
L 414.72 307.584 
L 414.72 41.472 
L 57.6 41.472 
z
" style="fill:#ffffff;"/>
   </g>
   <g id="PolyCollection_1">
    <defs>
     <path d="M 73.832727 -157.162354 
L 73.832727 -184.981646 
L 77.112066 -189.283524 
L 80.391405 -194.475534 
L 83.670744 -200.594819 
L 86.950083 -207.633013 
L 90.229421 -215.526206 
L 93.50876 -224.148307 
L 96.788099 -233.309322 
L 100.067438 -242.759664 
L 103.346777 -252.200961 
L 106.626116 -261.302994 
L 109.905455 -269.725467 
L 113.184793 -277.142544 
L 116.464132 -283.267506 
L 119.743471 -287.87472 
L 123.02281 -290.816366 
L 126.302149 -292.032 
L 129.581488 -291.550005 
L 132.860826 -289.481064 
L 136.140165 -286.004794 
L 139.419504 -281.35152 
L 142.698843 -275.781575 
L 145.978182 -269.564601 
L 149.257521 -262.960997 
L 152.53686 -256.207084 
L 155.816198 -249.504858 
L 159.095537 -243.016469 
L 162.374876 -236.863008 
L 165.654215 -231.126727 
L 168.933554 -225.855678 
L 172.212893 -221.069689 
L 175.492231 -216.766762 
L 178.77157 -212.92918 
L 182.050909 -209.52883 
L 185.330248 -206.531506 
L 188.609587 -203.900099 
L 191.888926 -201.596761 
L 195.168264 -199.58417 
L 198.447603 -197.826126 
L 201.726942 -196.287658 
L 205.006281 -194.934898 
L 208.28562 -193.734864 
L 211.564959 -192.655354 
L 214.844298 -191.665036 
L 218.123636 -190.733815 
L 221.402975 -189.833486 
L 224.682314 -188.938641 
L 227.961653 -188.027732 
L 231.240992 -187.084157 
L 234.520331 -186.097234 
L 237.799669 -185.062881 
L 241.079008 -183.983903 
L 244.358347 -182.869775 
L 247.637686 -181.735924 
L 250.917025 -180.602546 
L 254.196364 -179.493083 
L 257.475702 -178.432506 
L 260.755041 -177.44559 
L 264.03438 -176.555335 
L 267.313719 -175.78166 
L 270.593058 -175.140438 
L 273.872397 -174.642888 
L 277.151736 -174.295281 
L 280.431074 -174.098894 
L 283.710413 -174.050134 
L 286.989752 -174.140765 
L 290.269091 -174.358211 
L 293.54843 -174.685917 
L 296.827769 -175.103817 
L 300.107107 -175.588927 
L 303.386446 -176.116122 
L 306.665785 -176.659091 
L 309.945124 -177.191471 
L 313.224463 -177.688066 
L 316.503802 -178.126084 
L 319.78314 -178.486252 
L 323.062479 -178.753706 
L 326.341818 -178.918558 
L 329.621157 -178.976088 
L 332.900496 -178.926565 
L 336.179835 -178.77474 
L 339.459174 -178.529101 
L 342.738512 -178.200987 
L 346.017851 -177.803673 
L 349.29719 -177.351514 
L 352.576529 -176.859198 
L 355.855868 -176.341146 
L 359.135207 -175.811044 
L 362.414545 -175.2815 
L 365.693884 -174.76378 
L 368.973223 -174.267622 
L 372.252562 -173.801082 
L 375.531901 -173.370437 
L 378.81124 -172.980139 
L 382.090579 -172.632823 
L 385.369917 -172.329398 
L 388.649256 -172.069206 
L 391.928595 -171.850247 
L 395.207934 -171.669464 
L 398.487273 -171.523047 
L 398.487273 -170.620953 
L 398.487273 -170.620953 
L 395.207934 -170.474536 
L 391.928595 -170.293753 
L 388.649256 -170.074794 
L 385.369917 -169.814602 
L 382.090579 -169.511177 
L 378.81124 -169.163861 
L 375.531901 -168.773563 
L 372.252562 -168.342918 
L 368.973223 -167.876378 
L 365.693884 -167.38022 
L 362.414545 -166.8625 
L 359.135207 -166.332956 
L 355.855868 -165.802854 
L 352.576529 -165.284802 
L 349.29719 -164.792486 
L 346.017851 -164.340327 
L 342.738512 -163.943013 
L 339.459174 -163.614899 
L 336.179835 -163.36926 
L 332.900496 -163.217435 
L 329.621157 -163.167912 
L 326.341818 -163.225442 
L 323.062479 -163.390294 
L 319.78314 -163.657748 
L 316.503802 -164.017916 
L 313.224463 -164.455934 
L 309.945124 -164.952529 
L 306.665785 -165.484909 
L 303.386446 -166.027878 
L 300.107107 -166.555073 
L 296.827769 -167.040183 
L 293.54843 -167.458083 
L 290.269091 -167.785789 
L 286.989752 -168.003235 
L 283.710413 -168.093866 
L 280.431074 -168.045106 
L 277.151736 -167.848719 
L 273.872397 -167.501112 
L 270.593058 -167.003562 
L 267.313719 -166.36234 
L 264.03438 -165.588665 
L 260.755041 -164.69841 
L 257.475702 -163.711494 
L 254.196364 -162.650917 
L 250.917025 -161.541454 
L 247.637686 -160.408076 
L 244.358347 -159.274225 
L 241.079008 -158.160097 
L 237.799669 -157.081119 
L 234.520331 -156.046766 
L 231.240992 -155.059843 
L 227.961653 -154.116268 
L 224.682314 -153.205359 
L 221.402975 -152.310514 
L 218.123636 -151.410185 
L 214.844298 -150.478964 
L 211.564959 -149.488646 
L 208.28562 -148.409136 
L 205.006281 -147.209102 
L 201.726942 -145.856342 
L 198.447603 -144.317874 
L 195.168264 -142.55983 
L 191.888926 -140.547239 
L 188.609587 -138.243901 
L 185.330248 -135.612494 
L 182.050909 -132.61517 
L 178.77157 -129.21482 
L 175.492231 -125.377238 
L 172.212893 -121.074311 
L 168.933554 -116.288322 
L 165.654215 -111.017273 
L 162.374876 -105.280992 
L 159.095537 -99.127531 
L 155.816198 -92.639142 
L 152.53686 -85.936916 
L 149.257521 -79.183003 
L 145.978182 -72.579399 
L 142.698843 -66.362425 
L 139.419504 -60.79248 
L 136.140165 -56.139206 
L 132.860826 -52.662936 
L 129.581488 -50.593995 
L 126.302149 -50.112 
L 123.02281 -51.327634 
L 119.743471 -54.26928 
L 116.464132 -58.876494 
L 113.184793 -65.001456 
L 109.905455 -72.418533 
L 106.626116 -80.841006 
L 103.346777 -89.943039 
L 100.067438 -99.384336 
L 96.788099 -108.834678 
L 93.50876 -117.995693 
L 90.229421 -126.617794 
L 86.950083 -134.510987 
L 83.670744 -141.549181 
L 80.391405 -147.668466 
L 77.112066 -152.860476 
L 73.832727 -157.162354 
z
" id="ma7c0fe65c2" style="stroke:#4c4c4c;stroke-opacity:0.5;stroke-width:1.5;"/>
    </defs>
    <g clip-path="url(#p9dc367c31b)">
     <use style="fill:#df9c20;fill-opacity:0.5;stroke:#4c4c4c;stroke-opacity:0.5;stroke-width:1.5;" x="0" xlink:href="#ma7c0fe65c2" y="345.6"/>
    </g>
   </g>
   <g id="PolyCollection_2">
    <defs>
     <path d="M 97.203271 -154.9431 
L 97.203271 -187.2009 
L 98.850097 -192.079393 
L 100.496924 -197.926796 
L 102.143751 -204.766337 
L 103.790578 -212.565645 
L 105.437405 -221.22556 
L 107.084231 -230.573183 
L 108.731058 -240.361015 
L 110.377885 -250.273564 
L 112.024712 -259.942032 
L 113.671539 -268.966666 
L 115.318365 -276.945227 
L 116.965192 -283.504975 
L 118.612019 -288.334787 
L 120.258846 -291.213656 
L 121.905673 -292.032 
L 123.552499 -290.802946 
L 125.199326 -287.661921 
L 126.846153 -282.854371 
L 128.49298 -276.712935 
L 130.139807 -269.626764 
L 131.786633 -262.00663 
L 133.43346 -254.249846 
L 135.080287 -246.708941 
L 136.727114 -239.667283 
L 138.373941 -233.323845 
L 140.020767 -227.787986 
L 141.667594 -223.083886 
L 143.314421 -219.163114 
L 144.961248 -215.923022 
L 146.608075 -213.228198 
L 148.254901 -210.932168 
L 149.901728 -208.896818 
L 151.548555 -207.007593 
L 153.195382 -205.18325 
L 154.842208 -203.379743 
L 156.489035 -201.588579 
L 158.135862 -199.83059 
L 159.782689 -198.146532 
L 161.429516 -196.586107 
L 163.076342 -195.197049 
L 164.723169 -194.015677 
L 166.369996 -193.060023 
L 168.016823 -192.32616 
L 169.66365 -191.787917 
L 171.310476 -191.399719 
L 172.957303 -191.101904 
L 174.60413 -190.827634 
L 176.250957 -190.510408 
L 177.897784 -190.091153 
L 179.54461 -189.524077 
L 181.191437 -188.780649 
L 182.838264 -187.851384 
L 184.485091 -186.745437 
L 186.131918 -185.488242 
L 187.778744 -184.117702 
L 189.425571 -182.679515 
L 191.072398 -181.222294 
L 192.719225 -179.793045 
L 194.366052 -178.43348 
L 196.012878 -177.177428 
L 197.659705 -176.049468 
L 199.306532 -175.064707 
L 200.953359 -174.229522 
L 202.600186 -173.542983 
L 204.247012 -172.998664 
L 205.893839 -172.586536 
L 207.540666 -172.294716 
L 209.187493 -172.110884 
L 210.83432 -172.023271 
L 212.481146 -172.021178 
L 214.127973 -172.095075 
L 215.7748 -172.236329 
L 217.421627 -172.436694 
L 219.068454 -172.687681 
L 220.71528 -172.979934 
L 222.362107 -173.302742 
L 224.008934 -173.643779 
L 225.655761 -173.989146 
L 227.302588 -174.323738 
L 228.949414 -174.631908 
L 230.596241 -174.898384 
L 232.243068 -175.109308 
L 233.889895 -175.253295 
L 235.536722 -175.322359 
L 237.183548 -175.312587 
L 238.830375 -175.22447 
L 240.477202 -175.06284 
L 242.124029 -174.836421 
L 243.770856 -174.557035 
L 245.417682 -174.238583 
L 247.064509 -173.895899 
L 248.711336 -173.543621 
L 250.358163 -173.195191 
L 252.00499 -172.862072 
L 253.651816 -172.553243 
L 255.298643 -172.274975 
L 256.94547 -172.030873 
L 258.592297 -171.822136 
L 260.239124 -171.647961 
L 260.239124 -170.496039 
L 260.239124 -170.496039 
L 258.592297 -170.321864 
L 256.94547 -170.113127 
L 255.298643 -169.869025 
L 253.651816 -169.590757 
L 252.00499 -169.281928 
L 250.358163 -168.948809 
L 248.711336 -168.600379 
L 247.064509 -168.248101 
L 245.417682 -167.905417 
L 243.770856 -167.586965 
L 242.124029 -167.307579 
L 240.477202 -167.08116 
L 238.830375 -166.91953 
L 237.183548 -166.831413 
L 235.536722 -166.821641 
L 233.889895 -166.890705 
L 232.243068 -167.034692 
L 230.596241 -167.245616 
L 228.949414 -167.512092 
L 227.302588 -167.820262 
L 225.655761 -168.154854 
L 224.008934 -168.500221 
L 222.362107 -168.841258 
L 220.71528 -169.164066 
L 219.068454 -169.456319 
L 217.421627 -169.707306 
L 215.7748 -169.907671 
L 214.127973 -170.048925 
L 212.481146 -170.122822 
L 210.83432 -170.120729 
L 209.187493 -170.033116 
L 207.540666 -169.849284 
L 205.893839 -169.557464 
L 204.247012 -169.145336 
L 202.600186 -168.601017 
L 200.953359 -167.914478 
L 199.306532 -167.079293 
L 197.659705 -166.094532 
L 196.012878 -164.966572 
L 194.366052 -163.71052 
L 192.719225 -162.350955 
L 191.072398 -160.921706 
L 189.425571 -159.464485 
L 187.778744 -158.026298 
L 186.131918 -156.655758 
L 184.485091 -155.398563 
L 182.838264 -154.292616 
L 181.191437 -153.363351 
L 179.54461 -152.619923 
L 177.897784 -152.052847 
L 176.250957 -151.633592 
L 174.60413 -151.316366 
L 172.957303 -151.042096 
L 171.310476 -150.744281 
L 169.66365 -150.356083 
L 168.016823 -149.81784 
L 166.369996 -149.083977 
L 164.723169 -148.128323 
L 163.076342 -146.946951 
L 161.429516 -145.557893 
L 159.782689 -143.997468 
L 158.135862 -142.31341 
L 156.489035 -140.555421 
L 154.842208 -138.764257 
L 153.195382 -136.96075 
L 151.548555 -135.136407 
L 149.901728 -133.247182 
L 148.254901 -131.211832 
L 146.608075 -128.915802 
L 144.961248 -126.220978 
L 143.314421 -122.980886 
L 141.667594 -119.060114 
L 140.020767 -114.356014 
L 138.373941 -108.820155 
L 136.727114 -102.476717 
L 135.080287 -95.435059 
L 133.43346 -87.894154 
L 131.786633 -80.13737 
L 130.139807 -72.517236 
L 128.49298 -65.431065 
L 126.846153 -59.289629 
L 125.199326 -54.482079 
L 123.552499 -51.341054 
L 121.905673 -50.112 
L 120.258846 -50.930344 
L 118.612019 -53.809213 
L 116.965192 -58.639025 
L 115.318365 -65.198773 
L 113.671539 -73.177334 
L 112.024712 -82.201968 
L 110.377885 -91.870436 
L 108.731058 -101.782985 
L 107.084231 -111.570817 
L 105.437405 -120.91844 
L 103.790578 -129.578355 
L 102.143751 -137.377663 
L 100.496924 -144.217204 
L 98.850097 -150.064607 
L 97.203271 -154.9431 
z
" id="m78e1d2bc85" style="stroke:#262626;stroke-opacity:0.5;stroke-width:1.5;"/>
    </defs>
    <g clip-path="url(#p9dc367c31b)">
     <use style="fill:#107010;fill-opacity:0.5;stroke:#262626;stroke-opacity:0.5;stroke-width:1.5;" x="0" xlink:href="#m78e1d2bc85" y="345.6"/>
    </g>
   </g>
   <g id="matplotlib.axis_1">
    <g id="xtick_1">
     <g id="line2d_1">
      <defs>
       <path d="M 0 0 
L 0 3.5 
" id="m10cc225cea" style="stroke:#000000;stroke-width:0.8;"/>
      </defs>
      <g>
       <use style="stroke:#000000;stroke-width:0.8;" x="92.562993" xlink:href="#m10cc225cea" y="307.584"/>
      </g>
     </g>
     <g id="text_1">
      <!-- 0.0 -->
      <defs>
       <path d="M 31.78125 66.40625 
Q 24.171875 66.40625 20.328125 58.90625 
Q 16.5 51.421875 16.5 36.375 
Q 16.5 21.390625 20.328125 13.890625 
Q 24.171875 6.390625 31.78125 6.390625 
Q 39.453125 6.390625 43.28125 13.890625 
Q 47.125 21.390625 47.125 36.375 
Q 47.125 51.421875 43.28125 58.90625 
Q 39.453125 66.40625 31.78125 66.40625 
z
M 31.78125 74.21875 
Q 44.046875 74.21875 50.515625 64.515625 
Q 56.984375 54.828125 56.984375 36.375 
Q 56.984375 17.96875 50.515625 8.265625 
Q 44.046875 -1.421875 31.78125 -1.421875 
Q 19.53125 -1.421875 13.0625 8.265625 
Q 6.59375 17.96875 6.59375 36.375 
Q 6.59375 54.828125 13.0625 64.515625 
Q 19.53125 74.21875 31.78125 74.21875 
z
" id="DejaVuSans-48"/>
       <path d="M 10.6875 12.40625 
L 21 12.40625 
L 21 0 
L 10.6875 0 
z
" id="DejaVuSans-46"/>
      </defs>
      <g transform="translate(84.61143 322.182437)scale(0.1 -0.1)">
       <use xlink:href="#DejaVuSans-48"/>
       <use x="63.623047" xlink:href="#DejaVuSans-46"/>
       <use x="95.410156" xlink:href="#DejaVuSans-48"/>
      </g>
     </g>
    </g>
    <g id="xtick_2">
     <g id="line2d_2">
      <g>
       <use style="stroke:#000000;stroke-width:0.8;" x="150.001796" xlink:href="#m10cc225cea" y="307.584"/>
      </g>
     </g>
     <g id="text_2">
      <!-- 0.2 -->
      <defs>
       <path d="M 19.1875 8.296875 
L 53.609375 8.296875 
L 53.609375 0 
L 7.328125 0 
L 7.328125 8.296875 
Q 12.9375 14.109375 22.625 23.890625 
Q 32.328125 33.6875 34.8125 36.53125 
Q 39.546875 41.84375 41.421875 45.53125 
Q 43.3125 49.21875 43.3125 52.78125 
Q 43.3125 58.59375 39.234375 62.25 
Q 35.15625 65.921875 28.609375 65.921875 
Q 23.96875 65.921875 18.8125 64.3125 
Q 13.671875 62.703125 7.8125 59.421875 
L 7.8125 69.390625 
Q 13.765625 71.78125 18.9375 73 
Q 24.125 74.21875 28.421875 74.21875 
Q 39.75 74.21875 46.484375 68.546875 
Q 53.21875 62.890625 53.21875 53.421875 
Q 53.21875 48.921875 51.53125 44.890625 
Q 49.859375 40.875 45.40625 35.40625 
Q 44.1875 33.984375 37.640625 27.21875 
Q 31.109375 20.453125 19.1875 8.296875 
z
" id="DejaVuSans-50"/>
      </defs>
      <g transform="translate(142.050233 322.182437)scale(0.1 -0.1)">
       <use xlink:href="#DejaVuSans-48"/>
       <use x="63.623047" xlink:href="#DejaVuSans-46"/>
       <use x="95.410156" xlink:href="#DejaVuSans-50"/>
      </g>
     </g>
    </g>
    <g id="xtick_3">
     <g id="line2d_3">
      <g>
       <use style="stroke:#000000;stroke-width:0.8;" x="207.440599" xlink:href="#m10cc225cea" y="307.584"/>
      </g>
     </g>
     <g id="text_3">
      <!-- 0.4 -->
      <defs>
       <path d="M 37.796875 64.3125 
L 12.890625 25.390625 
L 37.796875 25.390625 
z
M 35.203125 72.90625 
L 47.609375 72.90625 
L 47.609375 25.390625 
L 58.015625 25.390625 
L 58.015625 17.1875 
L 47.609375 17.1875 
L 47.609375 0 
L 37.796875 0 
L 37.796875 17.1875 
L 4.890625 17.1875 
L 4.890625 26.703125 
z
" id="DejaVuSans-52"/>
      </defs>
      <g transform="translate(199.489036 322.182437)scale(0.1 -0.1)">
       <use xlink:href="#DejaVuSans-48"/>
       <use x="63.623047" xlink:href="#DejaVuSans-46"/>
       <use x="95.410156" xlink:href="#DejaVuSans-52"/>
      </g>
     </g>
    </g>
    <g id="xtick_4">
     <g id="line2d_4">
      <g>
       <use style="stroke:#000000;stroke-width:0.8;" x="264.879401" xlink:href="#m10cc225cea" y="307.584"/>
      </g>
     </g>
     <g id="text_4">
      <!-- 0.6 -->
      <defs>
       <path d="M 33.015625 40.375 
Q 26.375 40.375 22.484375 35.828125 
Q 18.609375 31.296875 18.609375 23.390625 
Q 18.609375 15.53125 22.484375 10.953125 
Q 26.375 6.390625 33.015625 6.390625 
Q 39.65625 6.390625 43.53125 10.953125 
Q 47.40625 15.53125 47.40625 23.390625 
Q 47.40625 31.296875 43.53125 35.828125 
Q 39.65625 40.375 33.015625 40.375 
z
M 52.59375 71.296875 
L 52.59375 62.3125 
Q 48.875 64.0625 45.09375 64.984375 
Q 41.3125 65.921875 37.59375 65.921875 
Q 27.828125 65.921875 22.671875 59.328125 
Q 17.53125 52.734375 16.796875 39.40625 
Q 19.671875 43.65625 24.015625 45.921875 
Q 28.375 48.1875 33.59375 48.1875 
Q 44.578125 48.1875 50.953125 41.515625 
Q 57.328125 34.859375 57.328125 23.390625 
Q 57.328125 12.15625 50.6875 5.359375 
Q 44.046875 -1.421875 33.015625 -1.421875 
Q 20.359375 -1.421875 13.671875 8.265625 
Q 6.984375 17.96875 6.984375 36.375 
Q 6.984375 53.65625 15.1875 63.9375 
Q 23.390625 74.21875 37.203125 74.21875 
Q 40.921875 74.21875 44.703125 73.484375 
Q 48.484375 72.75 52.59375 71.296875 
z
" id="DejaVuSans-54"/>
      </defs>
      <g transform="translate(256.927839 322.182437)scale(0.1 -0.1)">
       <use xlink:href="#DejaVuSans-48"/>
       <use x="63.623047" xlink:href="#DejaVuSans-46"/>
       <use x="95.410156" xlink:href="#DejaVuSans-54"/>
      </g>
     </g>
    </g>
    <g id="xtick_5">
     <g id="line2d_5">
      <g>
       <use style="stroke:#000000;stroke-width:0.8;" x="322.318204" xlink:href="#m10cc225cea" y="307.584"/>
      </g>
     </g>
     <g id="text_5">
      <!-- 0.8 -->
      <defs>
       <path d="M 31.78125 34.625 
Q 24.75 34.625 20.71875 30.859375 
Q 16.703125 27.09375 16.703125 20.515625 
Q 16.703125 13.921875 20.71875 10.15625 
Q 24.75 6.390625 31.78125 6.390625 
Q 38.8125 6.390625 42.859375 10.171875 
Q 46.921875 13.96875 46.921875 20.515625 
Q 46.921875 27.09375 42.890625 30.859375 
Q 38.875 34.625 31.78125 34.625 
z
M 21.921875 38.8125 
Q 15.578125 40.375 12.03125 44.71875 
Q 8.5 49.078125 8.5 55.328125 
Q 8.5 64.0625 14.71875 69.140625 
Q 20.953125 74.21875 31.78125 74.21875 
Q 42.671875 74.21875 48.875 69.140625 
Q 55.078125 64.0625 55.078125 55.328125 
Q 55.078125 49.078125 51.53125 44.71875 
Q 48 40.375 41.703125 38.8125 
Q 48.828125 37.15625 52.796875 32.3125 
Q 56.78125 27.484375 56.78125 20.515625 
Q 56.78125 9.90625 50.3125 4.234375 
Q 43.84375 -1.421875 31.78125 -1.421875 
Q 19.734375 -1.421875 13.25 4.234375 
Q 6.78125 9.90625 6.78125 20.515625 
Q 6.78125 27.484375 10.78125 32.3125 
Q 14.796875 37.15625 21.921875 38.8125 
z
M 18.3125 54.390625 
Q 18.3125 48.734375 21.84375 45.5625 
Q 25.390625 42.390625 31.78125 42.390625 
Q 38.140625 42.390625 41.71875 45.5625 
Q 45.3125 48.734375 45.3125 54.390625 
Q 45.3125 60.0625 41.71875 63.234375 
Q 38.140625 66.40625 31.78125 66.40625 
Q 25.390625 66.40625 21.84375 63.234375 
Q 18.3125 60.0625 18.3125 54.390625 
z
" id="DejaVuSans-56"/>
      </defs>
      <g transform="translate(314.366642 322.182437)scale(0.1 -0.1)">
       <use xlink:href="#DejaVuSans-48"/>
       <use x="63.623047" xlink:href="#DejaVuSans-46"/>
       <use x="95.410156" xlink:href="#DejaVuSans-56"/>
      </g>
     </g>
    </g>
    <g id="xtick_6">
     <g id="line2d_6">
      <g>
       <use style="stroke:#000000;stroke-width:0.8;" x="379.757007" xlink:href="#m10cc225cea" y="307.584"/>
      </g>
     </g>
     <g id="text_6">
      <!-- 1.0 -->
      <defs>
       <path d="M 12.40625 8.296875 
L 28.515625 8.296875 
L 28.515625 63.921875 
L 10.984375 60.40625 
L 10.984375 69.390625 
L 28.421875 72.90625 
L 38.28125 72.90625 
L 38.28125 8.296875 
L 54.390625 8.296875 
L 54.390625 0 
L 12.40625 0 
z
" id="DejaVuSans-49"/>
      </defs>
      <g transform="translate(371.805445 322.182437)scale(0.1 -0.1)">
       <use xlink:href="#DejaVuSans-49"/>
       <use x="63.623047" xlink:href="#DejaVuSans-46"/>
       <use x="95.410156" xlink:href="#DejaVuSans-48"/>
      </g>
     </g>
    </g>
    <g id="text_7">
     <!-- eosadmac -->
     <defs>
      <path d="M 56.203125 29.59375 
L 56.203125 25.203125 
L 14.890625 25.203125 
Q 15.484375 15.921875 20.484375 11.0625 
Q 25.484375 6.203125 34.421875 6.203125 
Q 39.59375 6.203125 44.453125 7.46875 
Q 49.3125 8.734375 54.109375 11.28125 
L 54.109375 2.78125 
Q 49.265625 0.734375 44.1875 -0.34375 
Q 39.109375 -1.421875 33.890625 -1.421875 
Q 20.796875 -1.421875 13.15625 6.1875 
Q 5.515625 13.8125 5.515625 26.8125 
Q 5.515625 40.234375 12.765625 48.109375 
Q 20.015625 56 32.328125 56 
Q 43.359375 56 49.78125 48.890625 
Q 56.203125 41.796875 56.203125 29.59375 
z
M 47.21875 32.234375 
Q 47.125 39.59375 43.09375 43.984375 
Q 39.0625 48.390625 32.421875 48.390625 
Q 24.90625 48.390625 20.390625 44.140625 
Q 15.875 39.890625 15.1875 32.171875 
z
" id="DejaVuSans-101"/>
      <path d="M 30.609375 48.390625 
Q 23.390625 48.390625 19.1875 42.75 
Q 14.984375 37.109375 14.984375 27.296875 
Q 14.984375 17.484375 19.15625 11.84375 
Q 23.34375 6.203125 30.609375 6.203125 
Q 37.796875 6.203125 41.984375 11.859375 
Q 46.1875 17.53125 46.1875 27.296875 
Q 46.1875 37.015625 41.984375 42.703125 
Q 37.796875 48.390625 30.609375 48.390625 
z
M 30.609375 56 
Q 42.328125 56 49.015625 48.375 
Q 55.71875 40.765625 55.71875 27.296875 
Q 55.71875 13.875 49.015625 6.21875 
Q 42.328125 -1.421875 30.609375 -1.421875 
Q 18.84375 -1.421875 12.171875 6.21875 
Q 5.515625 13.875 5.515625 27.296875 
Q 5.515625 40.765625 12.171875 48.375 
Q 18.84375 56 30.609375 56 
z
" id="DejaVuSans-111"/>
      <path d="M 44.28125 53.078125 
L 44.28125 44.578125 
Q 40.484375 46.53125 36.375 47.5 
Q 32.28125 48.484375 27.875 48.484375 
Q 21.1875 48.484375 17.84375 46.4375 
Q 14.5 44.390625 14.5 40.28125 
Q 14.5 37.15625 16.890625 35.375 
Q 19.28125 33.59375 26.515625 31.984375 
L 29.59375 31.296875 
Q 39.15625 29.25 43.1875 25.515625 
Q 47.21875 21.78125 47.21875 15.09375 
Q 47.21875 7.46875 41.1875 3.015625 
Q 35.15625 -1.421875 24.609375 -1.421875 
Q 20.21875 -1.421875 15.453125 -0.5625 
Q 10.6875 0.296875 5.421875 2 
L 5.421875 11.28125 
Q 10.40625 8.6875 15.234375 7.390625 
Q 20.0625 6.109375 24.8125 6.109375 
Q 31.15625 6.109375 34.5625 8.28125 
Q 37.984375 10.453125 37.984375 14.40625 
Q 37.984375 18.0625 35.515625 20.015625 
Q 33.0625 21.96875 24.703125 23.78125 
L 21.578125 24.515625 
Q 13.234375 26.265625 9.515625 29.90625 
Q 5.8125 33.546875 5.8125 39.890625 
Q 5.8125 47.609375 11.28125 51.796875 
Q 16.75 56 26.8125 56 
Q 31.78125 56 36.171875 55.265625 
Q 40.578125 54.546875 44.28125 53.078125 
z
" id="DejaVuSans-115"/>
      <path d="M 34.28125 27.484375 
Q 23.390625 27.484375 19.1875 25 
Q 14.984375 22.515625 14.984375 16.5 
Q 14.984375 11.71875 18.140625 8.90625 
Q 21.296875 6.109375 26.703125 6.109375 
Q 34.1875 6.109375 38.703125 11.40625 
Q 43.21875 16.703125 43.21875 25.484375 
L 43.21875 27.484375 
z
M 52.203125 31.203125 
L 52.203125 0 
L 43.21875 0 
L 43.21875 8.296875 
Q 40.140625 3.328125 35.546875 0.953125 
Q 30.953125 -1.421875 24.3125 -1.421875 
Q 15.921875 -1.421875 10.953125 3.296875 
Q 6 8.015625 6 15.921875 
Q 6 25.140625 12.171875 29.828125 
Q 18.359375 34.515625 30.609375 34.515625 
L 43.21875 34.515625 
L 43.21875 35.40625 
Q 43.21875 41.609375 39.140625 45 
Q 35.0625 48.390625 27.6875 48.390625 
Q 23 48.390625 18.546875 47.265625 
Q 14.109375 46.140625 10.015625 43.890625 
L 10.015625 52.203125 
Q 14.9375 54.109375 19.578125 55.046875 
Q 24.21875 56 28.609375 56 
Q 40.484375 56 46.34375 49.84375 
Q 52.203125 43.703125 52.203125 31.203125 
z
" id="DejaVuSans-97"/>
      <path d="M 45.40625 46.390625 
L 45.40625 75.984375 
L 54.390625 75.984375 
L 54.390625 0 
L 45.40625 0 
L 45.40625 8.203125 
Q 42.578125 3.328125 38.25 0.953125 
Q 33.9375 -1.421875 27.875 -1.421875 
Q 17.96875 -1.421875 11.734375 6.484375 
Q 5.515625 14.40625 5.515625 27.296875 
Q 5.515625 40.1875 11.734375 48.09375 
Q 17.96875 56 27.875 56 
Q 33.9375 56 38.25 53.625 
Q 42.578125 51.265625 45.40625 46.390625 
z
M 14.796875 27.296875 
Q 14.796875 17.390625 18.875 11.75 
Q 22.953125 6.109375 30.078125 6.109375 
Q 37.203125 6.109375 41.296875 11.75 
Q 45.40625 17.390625 45.40625 27.296875 
Q 45.40625 37.203125 41.296875 42.84375 
Q 37.203125 48.484375 30.078125 48.484375 
Q 22.953125 48.484375 18.875 42.84375 
Q 14.796875 37.203125 14.796875 27.296875 
z
" id="DejaVuSans-100"/>
      <path d="M 52 44.1875 
Q 55.375 50.25 60.0625 53.125 
Q 64.75 56 71.09375 56 
Q 79.640625 56 84.28125 50.015625 
Q 88.921875 44.046875 88.921875 33.015625 
L 88.921875 0 
L 79.890625 0 
L 79.890625 32.71875 
Q 79.890625 40.578125 77.09375 44.375 
Q 74.3125 48.1875 68.609375 48.1875 
Q 61.625 48.1875 57.5625 43.546875 
Q 53.515625 38.921875 53.515625 30.90625 
L 53.515625 0 
L 44.484375 0 
L 44.484375 32.71875 
Q 44.484375 40.625 41.703125 44.40625 
Q 38.921875 48.1875 33.109375 48.1875 
Q 26.21875 48.1875 22.15625 43.53125 
Q 18.109375 38.875 18.109375 30.90625 
L 18.109375 0 
L 9.078125 0 
L 9.078125 54.6875 
L 18.109375 54.6875 
L 18.109375 46.1875 
Q 21.1875 51.21875 25.484375 53.609375 
Q 29.78125 56 35.6875 56 
Q 41.65625 56 45.828125 52.96875 
Q 50 49.953125 52 44.1875 
z
" id="DejaVuSans-109"/>
      <path d="M 48.78125 52.59375 
L 48.78125 44.1875 
Q 44.96875 46.296875 41.140625 47.34375 
Q 37.3125 48.390625 33.40625 48.390625 
Q 24.65625 48.390625 19.8125 42.84375 
Q 14.984375 37.3125 14.984375 27.296875 
Q 14.984375 17.28125 19.8125 11.734375 
Q 24.65625 6.203125 33.40625 6.203125 
Q 37.3125 6.203125 41.140625 7.25 
Q 44.96875 8.296875 48.78125 10.40625 
L 48.78125 2.09375 
Q 45.015625 0.34375 40.984375 -0.53125 
Q 36.96875 -1.421875 32.421875 -1.421875 
Q 20.0625 -1.421875 12.78125 6.34375 
Q 5.515625 14.109375 5.515625 27.296875 
Q 5.515625 40.671875 12.859375 48.328125 
Q 20.21875 56 33.015625 56 
Q 37.15625 56 41.109375 55.140625 
Q 45.0625 54.296875 48.78125 52.59375 
z
" id="DejaVuSans-99"/>
     </defs>
     <g transform="translate(210.4975 335.860562)scale(0.1 -0.1)">
      <use xlink:href="#DejaVuSans-101"/>
      <use x="61.523438" xlink:href="#DejaVuSans-111"/>
      <use x="122.705078" xlink:href="#DejaVuSans-115"/>
      <use x="174.804688" xlink:href="#DejaVuSans-97"/>
      <use x="236.083984" xlink:href="#DejaVuSans-100"/>
      <use x="299.560547" xlink:href="#DejaVuSans-109"/>
      <use x="396.972656" xlink:href="#DejaVuSans-97"/>
      <use x="458.251953" xlink:href="#DejaVuSans-99"/>
     </g>
    </g>
   </g>
   <g id="matplotlib.axis_2">
    <g id="ytick_1">
     <g id="line2d_7">
      <defs>
       <path d="M 0 0 
L -3.5 0 
" id="md30fd10c74" style="stroke:#000000;stroke-width:0.8;"/>
      </defs>
      <g>
       <use style="stroke:#000000;stroke-width:0.8;" x="57.6" xlink:href="#md30fd10c74" y="174.528"/>
      </g>
     </g>
    </g>
   </g>
   <g id="line2d_8">
    <path clip-path="url(#p9dc367c31b)" d="M 121.282394 174.528 
L 178.721197 174.528 
" style="fill:none;stroke:#ffa500;stroke-linecap:square;stroke-width:1.5;"/>
   </g>
   <g id="line2d_9">
    <path clip-path="url(#p9dc367c31b)" d="M 121.282394 174.528 
L 150.001796 174.528 
" style="fill:none;stroke:#4c4c4c;stroke-linecap:square;stroke-width:4.5;"/>
   </g>
   <g id="line2d_10">
    <path clip-path="url(#p9dc367c31b)" d="M 121.282394 174.528 
L 178.721197 174.528 
" style="fill:none;stroke:#008000;stroke-linecap:square;stroke-width:1.5;"/>
   </g>
   <g id="line2d_11">
    <path clip-path="url(#p9dc367c31b)" d="M 121.282394 174.528 
L 150.001796 174.528 
" style="fill:none;stroke:#262626;stroke-linecap:square;stroke-width:4.5;"/>
   </g>
   <g id="patch_3">
    <path d="M 57.6 307.584 
L 57.6 41.472 
" style="fill:none;stroke:#000000;stroke-linecap:square;stroke-linejoin:miter;stroke-width:0.8;"/>
   </g>
   <g id="patch_4">
    <path d="M 414.72 307.584 
L 414.72 41.472 
" style="fill:none;stroke:#000000;stroke-linecap:square;stroke-linejoin:miter;stroke-width:0.8;"/>
   </g>
   <g id="patch_5">
    <path d="M 57.6 307.584 
L 414.72 307.584 
" style="fill:none;stroke:#000000;stroke-linecap:square;stroke-linejoin:miter;stroke-width:0.8;"/>
   </g>
   <g id="patch_6">
    <path d="M 57.6 41.472 
L 414.72 41.472 
" style="fill:none;stroke:#000000;stroke-linecap:square;stroke-linejoin:miter;stroke-width:0.8;"/>
   </g>
   <g id="PathCollection_1">
    <defs>
     <path d="M 0 1.5 
C 0.397805 1.5 0.77937 1.341951 1.06066 1.06066 
C 1.341951 0.77937 1.5 0.397805 1.5 0 
C 1.5 -0.397805 1.341951 -0.77937 1.06066 -1.06066 
C 0.77937 -1.341951 0.397805 -1.5 0 -1.5 
C -0.397805 -1.5 -0.77937 -1.341951 -1.06066 -1.06066 
C -1.341951 -0.77937 -1.5 -0.397805 -1.5 0 
C -1.5 0.397805 -1.341951 0.77937 -1.06066 1.06066 
C -0.77937 1.341951 -0.397805 1.5 0 1.5 
z
" id="me926ba403a" style="stroke:#4c4c4c;stroke-opacity:0.5;"/>
    </defs>
    <g clip-path="url(#p9dc367c31b)">
     <use style="fill:#ffffff;fill-opacity:0.5;stroke:#4c4c4c;stroke-opacity:0.5;" x="121.282394" xlink:href="#me926ba403a" y="174.528"/>
    </g>
   </g>
   <g id="PathCollection_2">
    <defs>
     <path d="M 0 1.5 
C 0.397805 1.5 0.77937 1.341951 1.06066 1.06066 
C 1.341951 0.77937 1.5 0.397805 1.5 0 
C 1.5 -0.397805 1.341951 -0.77937 1.06066 -1.06066 
C 0.77937 -1.341951 0.397805 -1.5 0 -1.5 
C -0.397805 -1.5 -0.77937 -1.341951 -1.06066 -1.06066 
C -1.341951 -0.77937 -1.5 -0.397805 -1.5 0 
C -1.5 0.397805 -1.341951 0.77937 -1.06066 1.06066 
C -0.77937 1.341951 -0.397805 1.5 0 1.5 
z
" id="m04b2972660" style="stroke:#262626;stroke-opacity:0.5;"/>
    </defs>
    <g clip-path="url(#p9dc367c31b)">
     <use style="fill:#ffffff;fill-opacity:0.5;stroke:#262626;stroke-opacity:0.5;" x="121.282394" xlink:href="#m04b2972660" y="174.528"/>
    </g>
   </g>
   <g id="text_8">
    <!-- Association of eosadmac vs. nasal_cannula -->
    <defs>
     <path d="M 34.1875 63.1875 
L 20.796875 26.90625 
L 47.609375 26.90625 
z
M 28.609375 72.90625 
L 39.796875 72.90625 
L 67.578125 0 
L 57.328125 0 
L 50.6875 18.703125 
L 17.828125 18.703125 
L 11.1875 0 
L 0.78125 0 
z
" id="DejaVuSans-65"/>
     <path d="M 9.421875 54.6875 
L 18.40625 54.6875 
L 18.40625 0 
L 9.421875 0 
z
M 9.421875 75.984375 
L 18.40625 75.984375 
L 18.40625 64.59375 
L 9.421875 64.59375 
z
" id="DejaVuSans-105"/>
     <path d="M 18.3125 70.21875 
L 18.3125 54.6875 
L 36.8125 54.6875 
L 36.8125 47.703125 
L 18.3125 47.703125 
L 18.3125 18.015625 
Q 18.3125 11.328125 20.140625 9.421875 
Q 21.96875 7.515625 27.59375 7.515625 
L 36.8125 7.515625 
L 36.8125 0 
L 27.59375 0 
Q 17.1875 0 13.234375 3.875 
Q 9.28125 7.765625 9.28125 18.015625 
L 9.28125 47.703125 
L 2.6875 47.703125 
L 2.6875 54.6875 
L 9.28125 54.6875 
L 9.28125 70.21875 
z
" id="DejaVuSans-116"/>
     <path d="M 54.890625 33.015625 
L 54.890625 0 
L 45.90625 0 
L 45.90625 32.71875 
Q 45.90625 40.484375 42.875 44.328125 
Q 39.84375 48.1875 33.796875 48.1875 
Q 26.515625 48.1875 22.3125 43.546875 
Q 18.109375 38.921875 18.109375 30.90625 
L 18.109375 0 
L 9.078125 0 
L 9.078125 54.6875 
L 18.109375 54.6875 
L 18.109375 46.1875 
Q 21.34375 51.125 25.703125 53.5625 
Q 30.078125 56 35.796875 56 
Q 45.21875 56 50.046875 50.171875 
Q 54.890625 44.34375 54.890625 33.015625 
z
" id="DejaVuSans-110"/>
     <path id="DejaVuSans-32"/>
     <path d="M 37.109375 75.984375 
L 37.109375 68.5 
L 28.515625 68.5 
Q 23.6875 68.5 21.796875 66.546875 
Q 19.921875 64.59375 19.921875 59.515625 
L 19.921875 54.6875 
L 34.71875 54.6875 
L 34.71875 47.703125 
L 19.921875 47.703125 
L 19.921875 0 
L 10.890625 0 
L 10.890625 47.703125 
L 2.296875 47.703125 
L 2.296875 54.6875 
L 10.890625 54.6875 
L 10.890625 58.5 
Q 10.890625 67.625 15.140625 71.796875 
Q 19.390625 75.984375 28.609375 75.984375 
z
" id="DejaVuSans-102"/>
     <path d="M 2.984375 54.6875 
L 12.5 54.6875 
L 29.59375 8.796875 
L 46.6875 54.6875 
L 56.203125 54.6875 
L 35.6875 0 
L 23.484375 0 
z
" id="DejaVuSans-118"/>
     <path d="M 9.421875 75.984375 
L 18.40625 75.984375 
L 18.40625 0 
L 9.421875 0 
z
" id="DejaVuSans-108"/>
     <path d="M 50.984375 -16.609375 
L 50.984375 -23.578125 
L -0.984375 -23.578125 
L -0.984375 -16.609375 
z
" id="DejaVuSans-95"/>
     <path d="M 8.5 21.578125 
L 8.5 54.6875 
L 17.484375 54.6875 
L 17.484375 21.921875 
Q 17.484375 14.15625 20.5 10.265625 
Q 23.53125 6.390625 29.59375 6.390625 
Q 36.859375 6.390625 41.078125 11.03125 
Q 45.3125 15.671875 45.3125 23.6875 
L 45.3125 54.6875 
L 54.296875 54.6875 
L 54.296875 0 
L 45.3125 0 
L 45.3125 8.40625 
Q 42.046875 3.421875 37.71875 1 
Q 33.40625 -1.421875 27.6875 -1.421875 
Q 18.265625 -1.421875 13.375 4.4375 
Q 8.5 10.296875 8.5 21.578125 
z
M 31.109375 56 
z
" id="DejaVuSans-117"/>
    </defs>
    <g transform="translate(106.531875 35.472)scale(0.12 -0.12)">
     <use xlink:href="#DejaVuSans-65"/>
     <use x="68.408203" xlink:href="#DejaVuSans-115"/>
     <use x="120.507812" xlink:href="#DejaVuSans-115"/>
     <use x="172.607422" xlink:href="#DejaVuSans-111"/>
     <use x="233.789062" xlink:href="#DejaVuSans-99"/>
     <use x="288.769531" xlink:href="#DejaVuSans-105"/>
     <use x="316.552734" xlink:href="#DejaVuSans-97"/>
     <use x="377.832031" xlink:href="#DejaVuSans-116"/>
     <use x="417.041016" xlink:href="#DejaVuSans-105"/>
     <use x="444.824219" xlink:href="#DejaVuSans-111"/>
     <use x="506.005859" xlink:href="#DejaVuSans-110"/>
     <use x="569.384766" xlink:href="#DejaVuSans-32"/>
     <use x="601.171875" xlink:href="#DejaVuSans-111"/>
     <use x="662.353516" xlink:href="#DejaVuSans-102"/>
     <use x="697.558594" xlink:href="#DejaVuSans-32"/>
     <use x="729.345703" xlink:href="#DejaVuSans-101"/>
     <use x="790.869141" xlink:href="#DejaVuSans-111"/>
     <use x="852.050781" xlink:href="#DejaVuSans-115"/>
     <use x="904.150391" xlink:href="#DejaVuSans-97"/>
     <use x="965.429688" xlink:href="#DejaVuSans-100"/>
     <use x="1028.90625" xlink:href="#DejaVuSans-109"/>
     <use x="1126.318359" xlink:href="#DejaVuSans-97"/>
     <use x="1187.597656" xlink:href="#DejaVuSans-99"/>
     <use x="1242.578125" xlink:href="#DejaVuSans-32"/>
     <use x="1274.365234" xlink:href="#DejaVuSans-118"/>
     <use x="1333.544922" xlink:href="#DejaVuSans-115"/>
     <use x="1385.644531" xlink:href="#DejaVuSans-46"/>
     <use x="1417.431641" xlink:href="#DejaVuSans-32"/>
     <use x="1449.21875" xlink:href="#DejaVuSans-110"/>
     <use x="1512.597656" xlink:href="#DejaVuSans-97"/>
     <use x="1573.876953" xlink:href="#DejaVuSans-115"/>
     <use x="1625.976562" xlink:href="#DejaVuSans-97"/>
     <use x="1687.255859" xlink:href="#DejaVuSans-108"/>
     <use x="1715.039062" xlink:href="#DejaVuSans-95"/>
     <use x="1765.039062" xlink:href="#DejaVuSans-99"/>
     <use x="1820.019531" xlink:href="#DejaVuSans-97"/>
     <use x="1881.298828" xlink:href="#DejaVuSans-110"/>
     <use x="1944.677734" xlink:href="#DejaVuSans-110"/>
     <use x="2008.056641" xlink:href="#DejaVuSans-117"/>
     <use x="2071.435547" xlink:href="#DejaVuSans-108"/>
     <use x="2099.21875" xlink:href="#DejaVuSans-97"/>
    </g>
   </g>
   <g id="legend_1">
    <g id="patch_7">
     <path d="M 260.18875 79.3845 
L 407.72 79.3845 
Q 409.72 79.3845 409.72 77.3845 
L 409.72 48.472 
Q 409.72 46.472 407.72 46.472 
L 260.18875 46.472 
Q 258.18875 46.472 258.18875 48.472 
L 258.18875 77.3845 
Q 258.18875 79.3845 260.18875 79.3845 
z
" style="fill:#ffffff;opacity:0.8;stroke:#cccccc;stroke-linejoin:miter;"/>
    </g>
    <g id="line2d_12">
     <path d="M 262.18875 54.570438 
L 282.18875 54.570438 
" style="fill:none;stroke:#ffa500;stroke-linecap:square;stroke-width:1.5;"/>
    </g>
    <g id="line2d_13"/>
    <g id="text_9">
     <!-- nasal_cannula (58) -->
     <defs>
      <path d="M 31 75.875 
Q 24.46875 64.65625 21.28125 53.65625 
Q 18.109375 42.671875 18.109375 31.390625 
Q 18.109375 20.125 21.3125 9.0625 
Q 24.515625 -2 31 -13.1875 
L 23.1875 -13.1875 
Q 15.875 -1.703125 12.234375 9.375 
Q 8.59375 20.453125 8.59375 31.390625 
Q 8.59375 42.28125 12.203125 53.3125 
Q 15.828125 64.359375 23.1875 75.875 
z
" id="DejaVuSans-40"/>
      <path d="M 10.796875 72.90625 
L 49.515625 72.90625 
L 49.515625 64.59375 
L 19.828125 64.59375 
L 19.828125 46.734375 
Q 21.96875 47.46875 24.109375 47.828125 
Q 26.265625 48.1875 28.421875 48.1875 
Q 40.625 48.1875 47.75 41.5 
Q 54.890625 34.8125 54.890625 23.390625 
Q 54.890625 11.625 47.5625 5.09375 
Q 40.234375 -1.421875 26.90625 -1.421875 
Q 22.3125 -1.421875 17.546875 -0.640625 
Q 12.796875 0.140625 7.71875 1.703125 
L 7.71875 11.625 
Q 12.109375 9.234375 16.796875 8.0625 
Q 21.484375 6.890625 26.703125 6.890625 
Q 35.15625 6.890625 40.078125 11.328125 
Q 45.015625 15.765625 45.015625 23.390625 
Q 45.015625 31 40.078125 35.4375 
Q 35.15625 39.890625 26.703125 39.890625 
Q 22.75 39.890625 18.8125 39.015625 
Q 14.890625 38.140625 10.796875 36.28125 
z
" id="DejaVuSans-53"/>
      <path d="M 8.015625 75.875 
L 15.828125 75.875 
Q 23.140625 64.359375 26.78125 53.3125 
Q 30.421875 42.28125 30.421875 31.390625 
Q 30.421875 20.453125 26.78125 9.375 
Q 23.140625 -1.703125 15.828125 -13.1875 
L 8.015625 -13.1875 
Q 14.5 -2 17.703125 9.0625 
Q 20.90625 20.125 20.90625 31.390625 
Q 20.90625 42.671875 17.703125 53.65625 
Q 14.5 64.65625 8.015625 75.875 
z
" id="DejaVuSans-41"/>
     </defs>
     <g transform="translate(290.18875 58.070438)scale(0.1 -0.1)">
      <use xlink:href="#DejaVuSans-110"/>
      <use x="63.378906" xlink:href="#DejaVuSans-97"/>
      <use x="124.658203" xlink:href="#DejaVuSans-115"/>
      <use x="176.757812" xlink:href="#DejaVuSans-97"/>
      <use x="238.037109" xlink:href="#DejaVuSans-108"/>
      <use x="265.820312" xlink:href="#DejaVuSans-95"/>
      <use x="315.820312" xlink:href="#DejaVuSans-99"/>
      <use x="370.800781" xlink:href="#DejaVuSans-97"/>
      <use x="432.080078" xlink:href="#DejaVuSans-110"/>
      <use x="495.458984" xlink:href="#DejaVuSans-110"/>
      <use x="558.837891" xlink:href="#DejaVuSans-117"/>
      <use x="622.216797" xlink:href="#DejaVuSans-108"/>
      <use x="650" xlink:href="#DejaVuSans-97"/>
      <use x="711.279297" xlink:href="#DejaVuSans-32"/>
      <use x="743.066406" xlink:href="#DejaVuSans-40"/>
      <use x="782.080078" xlink:href="#DejaVuSans-53"/>
      <use x="845.703125" xlink:href="#DejaVuSans-56"/>
      <use x="909.326172" xlink:href="#DejaVuSans-41"/>
     </g>
    </g>
    <g id="line2d_14">
     <path d="M 262.18875 69.526688 
L 282.18875 69.526688 
" style="fill:none;stroke:#008000;stroke-linecap:square;stroke-width:1.5;"/>
    </g>
    <g id="line2d_15"/>
    <g id="text_10">
     <!-- Not nasal_cannula (40) -->
     <defs>
      <path d="M 9.8125 72.90625 
L 23.09375 72.90625 
L 55.421875 11.921875 
L 55.421875 72.90625 
L 64.984375 72.90625 
L 64.984375 0 
L 51.703125 0 
L 19.390625 60.984375 
L 19.390625 0 
L 9.8125 0 
z
" id="DejaVuSans-78"/>
     </defs>
     <g transform="translate(290.18875 73.026688)scale(0.1 -0.1)">
      <use xlink:href="#DejaVuSans-78"/>
      <use x="74.804688" xlink:href="#DejaVuSans-111"/>
      <use x="135.986328" xlink:href="#DejaVuSans-116"/>
      <use x="175.195312" xlink:href="#DejaVuSans-32"/>
      <use x="206.982422" xlink:href="#DejaVuSans-110"/>
      <use x="270.361328" xlink:href="#DejaVuSans-97"/>
      <use x="331.640625" xlink:href="#DejaVuSans-115"/>
      <use x="383.740234" xlink:href="#DejaVuSans-97"/>
      <use x="445.019531" xlink:href="#DejaVuSans-108"/>
      <use x="472.802734" xlink:href="#DejaVuSans-95"/>
      <use x="522.802734" xlink:href="#DejaVuSans-99"/>
      <use x="577.783203" xlink:href="#DejaVuSans-97"/>
      <use x="639.0625" xlink:href="#DejaVuSans-110"/>
      <use x="702.441406" xlink:href="#DejaVuSans-110"/>
      <use x="765.820312" xlink:href="#DejaVuSans-117"/>
      <use x="829.199219" xlink:href="#DejaVuSans-108"/>
      <use x="856.982422" xlink:href="#DejaVuSans-97"/>
      <use x="918.261719" xlink:href="#DejaVuSans-32"/>
      <use x="950.048828" xlink:href="#DejaVuSans-40"/>
      <use x="989.0625" xlink:href="#DejaVuSans-52"/>
      <use x="1052.685547" xlink:href="#DejaVuSans-48"/>
      <use x="1116.308594" xlink:href="#DejaVuSans-41"/>
     </g>
    </g>
   </g>
  </g>
 </g>
 <defs>
  <clipPath id="p9dc367c31b">
   <rect height="266.112" width="357.12" x="57.6" y="41.472"/>
  </clipPath>
 </defs>
</svg>
