<?xml version="1.0" encoding="utf-8" standalone="no"?>
<!DOCTYPE svg PUBLIC "-//W3C//DTD SVG 1.1//EN"
  "http://www.w3.org/Graphics/SVG/1.1/DTD/svg11.dtd">
<!-- Created with matplotlib (https://matplotlib.org/) -->
<svg height="345.6pt" version="1.1" viewBox="0 0 460.8 345.6" width="460.8pt" xmlns="http://www.w3.org/2000/svg" xmlns:xlink="http://www.w3.org/1999/xlink">
 <defs>
  <style type="text/css">
*{stroke-linecap:butt;stroke-linejoin:round;}
  </style>
 </defs>
 <g id="figure_1">
  <g id="patch_1">
   <path d="M 0 345.6 
L 460.8 345.6 
L 460.8 0 
L 0 0 
z
" style="fill:#ffffff;"/>
  </g>
  <g id="axes_1">
   <g id="patch_2">
    <path d="M 57.6 307.584 
L 414.72 307.584 
L 414.72 41.472 
L 57.6 41.472 
z
" style="fill:#ffffff;"/>
   </g>
   <g id="PolyCollection_1">
    <defs>
     <path d="M 73.832727 -158.579465 
L 73.832727 -183.564535 
L 77.112066 -186.200746 
L 80.391405 -189.235884 
L 83.670744 -192.693056 
L 86.950083 -196.588256 
L 90.229421 -200.928493 
L 93.50876 -205.710001 
L 96.788099 -210.916642 
L 100.067438 -216.518617 
L 103.346777 -222.471597 
L 106.626116 -228.716387 
L 109.905455 -235.179191 
L 113.184793 -241.772563 
L 116.464132 -248.397038 
L 119.743471 -254.943451 
L 123.02281 -261.295867 
L 126.302149 -267.335036 
L 129.581488 -272.942216 
L 132.860826 -278.003208 
L 136.140165 -282.4124 
L 139.419504 -286.076619 
L 142.698843 -288.918589 
L 145.978182 -290.879814 
L 149.257521 -291.922728 
L 152.53686 -292.032 
L 155.816198 -291.214928 
L 159.095537 -289.500903 
L 162.374876 -286.93999 
L 165.654215 -283.600711 
L 168.933554 -279.56716 
L 172.212893 -274.935622 
L 175.492231 -269.810875 
L 178.77157 -264.302386 
L 182.050909 -258.520569 
L 185.330248 -252.573313 
L 188.609587 -246.5629 
L 191.888926 -240.583447 
L 195.168264 -234.718948 
L 198.447603 -229.04194 
L 201.726942 -223.612807 
L 205.006281 -218.479673 
L 208.28562 -213.678808 
L 211.564959 -209.23548 
L 214.844298 -205.165119 
L 218.123636 -201.474697 
L 221.402975 -198.164216 
L 224.682314 -195.228182 
L 227.961653 -192.657011 
L 231.240992 -190.438254 
L 234.520331 -188.557631 
L 237.799669 -186.999814 
L 241.079008 -185.748972 
L 244.358347 -184.789064 
L 247.637686 -184.103926 
L 250.917025 -183.677174 
L 254.196364 -183.491978 
L 257.475702 -183.530745 
L 260.755041 -183.774774 
L 264.03438 -184.203929 
L 267.313719 -184.796373 
L 270.593058 -185.528404 
L 273.872397 -186.374418 
L 277.151736 -187.307023 
L 280.431074 -188.297309 
L 283.710413 -189.315265 
L 286.989752 -190.330335 
L 290.269091 -191.312091 
L 293.54843 -192.230977 
L 296.827769 -193.059101 
L 300.107107 -193.771024 
L 303.386446 -194.344503 
L 306.665785 -194.761148 
L 309.945124 -195.006961 
L 313.224463 -195.072717 
L 316.503802 -194.954173 
L 319.78314 -194.652094 
L 323.062479 -194.172087 
L 326.341818 -193.524263 
L 329.621157 -192.722738 
L 332.900496 -191.785003 
L 336.179835 -190.731198 
L 339.459174 -189.583319 
L 342.738512 -188.364412 
L 346.017851 -187.097767 
L 349.29719 -185.806179 
L 352.576529 -184.51127 
L 355.855868 -183.232923 
L 359.135207 -181.988835 
L 362.414545 -180.794186 
L 365.693884 -179.661444 
L 368.973223 -178.600293 
L 372.252562 -177.617669 
L 375.531901 -176.717893 
L 378.81124 -175.902883 
L 382.090579 -175.17243 
L 385.369917 -174.524504 
L 388.649256 -173.955588 
L 391.928595 -173.461013 
L 395.207934 -173.035274 
L 398.487273 -172.672338 
L 398.487273 -169.471662 
L 398.487273 -169.471662 
L 395.207934 -169.108726 
L 391.928595 -168.682987 
L 388.649256 -168.188412 
L 385.369917 -167.619496 
L 382.090579 -166.97157 
L 378.81124 -166.241117 
L 375.531901 -165.426107 
L 372.252562 -164.526331 
L 368.973223 -163.543707 
L 365.693884 -162.482556 
L 362.414545 -161.349814 
L 359.135207 -160.155165 
L 355.855868 -158.911077 
L 352.576529 -157.63273 
L 349.29719 -156.337821 
L 346.017851 -155.046233 
L 342.738512 -153.779588 
L 339.459174 -152.560681 
L 336.179835 -151.412802 
L 332.900496 -150.358997 
L 329.621157 -149.421262 
L 326.341818 -148.619737 
L 323.062479 -147.971913 
L 319.78314 -147.491906 
L 316.503802 -147.189827 
L 313.224463 -147.071283 
L 309.945124 -147.137039 
L 306.665785 -147.382852 
L 303.386446 -147.799497 
L 300.107107 -148.372976 
L 296.827769 -149.084899 
L 293.54843 -149.913023 
L 290.269091 -150.831909 
L 286.989752 -151.813665 
L 283.710413 -152.828735 
L 280.431074 -153.846691 
L 277.151736 -154.836977 
L 273.872397 -155.769582 
L 270.593058 -156.615596 
L 267.313719 -157.347627 
L 264.03438 -157.940071 
L 260.755041 -158.369226 
L 257.475702 -158.613255 
L 254.196364 -158.652022 
L 250.917025 -158.466826 
L 247.637686 -158.040074 
L 244.358347 -157.354936 
L 241.079008 -156.395028 
L 237.799669 -155.144186 
L 234.520331 -153.586369 
L 231.240992 -151.705746 
L 227.961653 -149.486989 
L 224.682314 -146.915818 
L 221.402975 -143.979784 
L 218.123636 -140.669303 
L 214.844298 -136.978881 
L 211.564959 -132.90852 
L 208.28562 -128.465192 
L 205.006281 -123.664327 
L 201.726942 -118.531193 
L 198.447603 -113.10206 
L 195.168264 -107.425052 
L 191.888926 -101.560553 
L 188.609587 -95.5811 
L 185.330248 -89.570687 
L 182.050909 -83.623431 
L 178.77157 -77.841614 
L 175.492231 -72.333125 
L 172.212893 -67.208378 
L 168.933554 -62.57684 
L 165.654215 -58.543289 
L 162.374876 -55.20401 
L 159.095537 -52.643097 
L 155.816198 -50.929072 
L 152.53686 -50.112 
L 149.257521 -50.221272 
L 145.978182 -51.264186 
L 142.698843 -53.225411 
L 139.419504 -56.067381 
L 136.140165 -59.7316 
L 132.860826 -64.140792 
L 129.581488 -69.201784 
L 126.302149 -74.808964 
L 123.02281 -80.848133 
L 119.743471 -87.200549 
L 116.464132 -93.746962 
L 113.184793 -100.371437 
L 109.905455 -106.964809 
L 106.626116 -113.427613 
L 103.346777 -119.672403 
L 100.067438 -125.625383 
L 96.788099 -131.227358 
L 93.50876 -136.433999 
L 90.229421 -141.215507 
L 86.950083 -145.555744 
L 83.670744 -149.450944 
L 80.391405 -152.908116 
L 77.112066 -155.943254 
L 73.832727 -158.579465 
z
" id="m8eddbc468b" style="stroke:#4c4c4c;stroke-opacity:0.5;stroke-width:1.5;"/>
    </defs>
    <g clip-path="url(#p31f5e6952f)">
     <use style="fill:#df9c20;fill-opacity:0.5;stroke:#4c4c4c;stroke-opacity:0.5;stroke-width:1.5;" x="0" xlink:href="#m8eddbc468b" y="345.6"/>
    </g>
   </g>
   <g id="PolyCollection_2">
    <defs>
     <path d="M 121.313651 -155.128207 
L 121.313651 -187.015793 
L 122.692387 -191.47774 
L 124.071123 -196.768965 
L 125.449858 -202.912863 
L 126.828594 -209.893072 
L 128.20733 -217.645412 
L 129.586065 -226.052299 
L 130.964801 -234.940793 
L 132.343536 -244.085189 
L 133.722272 -253.214726 
L 135.101008 -262.026419 
L 136.479743 -270.202414 
L 137.858479 -277.430642 
L 139.237215 -283.426976 
L 140.61595 -287.95675 
L 141.994686 -290.853383 
L 143.373422 -292.032 
L 144.752157 -291.496441 
L 146.130893 -289.338738 
L 147.509629 -285.730986 
L 148.888364 -280.910427 
L 150.2671 -275.159351 
L 151.645835 -268.781981 
L 153.024571 -262.080825 
L 154.403307 -255.334936 
L 155.782042 -248.782181 
L 157.160778 -242.607053 
L 158.539514 -236.934798 
L 159.918249 -231.83185 
L 161.296985 -227.311837 
L 162.675721 -223.34584 
L 164.054456 -219.875228 
L 165.433192 -216.825265 
L 166.811928 -214.117813 
L 168.190663 -211.681761 
L 169.569399 -209.460261 
L 170.948134 -207.414375 
L 172.32687 -205.523231 
L 173.705606 -203.781243 
L 175.084341 -202.19324 
L 176.463077 -200.768541 
L 177.841813 -199.515014 
L 179.220548 -198.434039 
L 180.599284 -197.517061 
L 181.97802 -196.744123 
L 183.356755 -196.084449 
L 184.735491 -195.498854 
L 186.114227 -194.943498 
L 187.492962 -194.374396 
L 188.871698 -193.75198 
L 190.250433 -193.045108 
L 191.629169 -192.233999 
L 193.007905 -191.311769 
L 194.38664 -190.284463 
L 195.765376 -189.169664 
L 197.144112 -187.993959 
L 198.522847 -186.789655 
L 199.901583 -185.591204 
L 201.280319 -184.431793 
L 202.659054 -183.340488 
L 204.03779 -182.340215 
L 205.416526 -181.446706 
L 206.795261 -180.668438 
L 208.173997 -180.007405 
L 209.552732 -179.460524 
L 210.931468 -179.021372 
L 212.310204 -178.681963 
L 213.688939 -178.434292 
L 215.067675 -178.271422 
L 216.446411 -178.188014 
L 217.825146 -178.180231 
L 219.203882 -178.245125 
L 220.582618 -178.379612 
L 221.961353 -178.579255 
L 223.340089 -178.837075 
L 224.718825 -179.142612 
L 226.09756 -179.481408 
L 227.476296 -179.835043 
L 228.855031 -180.181754 
L 230.233767 -180.497608 
L 231.612503 -180.758097 
L 232.991238 -180.939988 
L 234.369974 -181.023202 
L 235.74871 -180.992505 
L 237.127445 -180.838819 
L 238.506181 -180.559987 
L 239.884917 -180.160931 
L 241.263652 -179.653187 
L 242.642388 -179.05388 
L 244.021124 -178.38428 
L 245.399859 -177.668106 
L 246.778595 -176.929749 
L 248.15733 -176.19261 
L 249.536066 -175.477695 
L 250.914802 -174.802557 
L 252.293537 -174.180654 
L 253.672273 -173.62112 
L 255.051009 -173.128893 
L 256.429744 -172.705145 
L 257.80848 -172.347911 
L 257.80848 -169.796089 
L 257.80848 -169.796089 
L 256.429744 -169.438855 
L 255.051009 -169.015107 
L 253.672273 -168.52288 
L 252.293537 -167.963346 
L 250.914802 -167.341443 
L 249.536066 -166.666305 
L 248.15733 -165.95139 
L 246.778595 -165.214251 
L 245.399859 -164.475894 
L 244.021124 -163.75972 
L 242.642388 -163.09012 
L 241.263652 -162.490813 
L 239.884917 -161.983069 
L 238.506181 -161.584013 
L 237.127445 -161.305181 
L 235.74871 -161.151495 
L 234.369974 -161.120798 
L 232.991238 -161.204012 
L 231.612503 -161.385903 
L 230.233767 -161.646392 
L 228.855031 -161.962246 
L 227.476296 -162.308957 
L 226.09756 -162.662592 
L 224.718825 -163.001388 
L 223.340089 -163.306925 
L 221.961353 -163.564745 
L 220.582618 -163.764388 
L 219.203882 -163.898875 
L 217.825146 -163.963769 
L 216.446411 -163.955986 
L 215.067675 -163.872578 
L 213.688939 -163.709708 
L 212.310204 -163.462037 
L 210.931468 -163.122628 
L 209.552732 -162.683476 
L 208.173997 -162.136595 
L 206.795261 -161.475562 
L 205.416526 -160.697294 
L 204.03779 -159.803785 
L 202.659054 -158.803512 
L 201.280319 -157.712207 
L 199.901583 -156.552796 
L 198.522847 -155.354345 
L 197.144112 -154.150041 
L 195.765376 -152.974336 
L 194.38664 -151.859537 
L 193.007905 -150.832231 
L 191.629169 -149.910001 
L 190.250433 -149.098892 
L 188.871698 -148.39202 
L 187.492962 -147.769604 
L 186.114227 -147.200502 
L 184.735491 -146.645146 
L 183.356755 -146.059551 
L 181.97802 -145.399877 
L 180.599284 -144.626939 
L 179.220548 -143.709961 
L 177.841813 -142.628986 
L 176.463077 -141.375459 
L 175.084341 -139.95076 
L 173.705606 -138.362757 
L 172.32687 -136.620769 
L 170.948134 -134.729625 
L 169.569399 -132.683739 
L 168.190663 -130.462239 
L 166.811928 -128.026187 
L 165.433192 -125.318735 
L 164.054456 -122.268772 
L 162.675721 -118.79816 
L 161.296985 -114.832163 
L 159.918249 -110.31215 
L 158.539514 -105.209202 
L 157.160778 -99.536947 
L 155.782042 -93.361819 
L 154.403307 -86.809064 
L 153.024571 -80.063175 
L 151.645835 -73.362019 
L 150.2671 -66.984649 
L 148.888364 -61.233573 
L 147.509629 -56.413014 
L 146.130893 -52.805262 
L 144.752157 -50.647559 
L 143.373422 -50.112 
L 141.994686 -51.290617 
L 140.61595 -54.18725 
L 139.237215 -58.717024 
L 137.858479 -64.713358 
L 136.479743 -71.941586 
L 135.101008 -80.117581 
L 133.722272 -88.929274 
L 132.343536 -98.058811 
L 130.964801 -107.203207 
L 129.586065 -116.091701 
L 128.20733 -124.498588 
L 126.828594 -132.250928 
L 125.449858 -139.231137 
L 124.071123 -145.375035 
L 122.692387 -150.66626 
L 121.313651 -155.128207 
z
" id="mbea8d49f2e" style="stroke:#262626;stroke-opacity:0.5;stroke-width:1.5;"/>
    </defs>
    <g clip-path="url(#p31f5e6952f)">
     <use style="fill:#107010;fill-opacity:0.5;stroke:#262626;stroke-opacity:0.5;stroke-width:1.5;" x="0" xlink:href="#mbea8d49f2e" y="345.6"/>
    </g>
   </g>
   <g id="matplotlib.axis_1">
    <g id="xtick_1">
     <g id="line2d_1">
      <defs>
       <path d="M 0 0 
L 0 3.5 
" id="m5ffe2d322f" style="stroke:#000000;stroke-width:0.8;"/>
      </defs>
      <g>
       <use style="stroke:#000000;stroke-width:0.8;" x="73.06373" xlink:href="#m5ffe2d322f" y="307.584"/>
      </g>
     </g>
     <g id="text_1">
      <!-- −0.2 -->
      <defs>
       <path d="M 10.59375 35.5 
L 73.1875 35.5 
L 73.1875 27.203125 
L 10.59375 27.203125 
z
" id="DejaVuSans-8722"/>
       <path d="M 31.78125 66.40625 
Q 24.171875 66.40625 20.328125 58.90625 
Q 16.5 51.421875 16.5 36.375 
Q 16.5 21.390625 20.328125 13.890625 
Q 24.171875 6.390625 31.78125 6.390625 
Q 39.453125 6.390625 43.28125 13.890625 
Q 47.125 21.390625 47.125 36.375 
Q 47.125 51.421875 43.28125 58.90625 
Q 39.453125 66.40625 31.78125 66.40625 
z
M 31.78125 74.21875 
Q 44.046875 74.21875 50.515625 64.515625 
Q 56.984375 54.828125 56.984375 36.375 
Q 56.984375 17.96875 50.515625 8.265625 
Q 44.046875 -1.421875 31.78125 -1.421875 
Q 19.53125 -1.421875 13.0625 8.265625 
Q 6.59375 17.96875 6.59375 36.375 
Q 6.59375 54.828125 13.0625 64.515625 
Q 19.53125 74.21875 31.78125 74.21875 
z
" id="DejaVuSans-48"/>
       <path d="M 10.6875 12.40625 
L 21 12.40625 
L 21 0 
L 10.6875 0 
z
" id="DejaVuSans-46"/>
       <path d="M 19.1875 8.296875 
L 53.609375 8.296875 
L 53.609375 0 
L 7.328125 0 
L 7.328125 8.296875 
Q 12.9375 14.109375 22.625 23.890625 
Q 32.328125 33.6875 34.8125 36.53125 
Q 39.546875 41.84375 41.421875 45.53125 
Q 43.3125 49.21875 43.3125 52.78125 
Q 43.3125 58.59375 39.234375 62.25 
Q 35.15625 65.921875 28.609375 65.921875 
Q 23.96875 65.921875 18.8125 64.3125 
Q 13.671875 62.703125 7.8125 59.421875 
L 7.8125 69.390625 
Q 13.765625 71.78125 18.9375 73 
Q 24.125 74.21875 28.421875 74.21875 
Q 39.75 74.21875 46.484375 68.546875 
Q 53.21875 62.890625 53.21875 53.421875 
Q 53.21875 48.921875 51.53125 44.890625 
Q 49.859375 40.875 45.40625 35.40625 
Q 44.1875 33.984375 37.640625 27.21875 
Q 31.109375 20.453125 19.1875 8.296875 
z
" id="DejaVuSans-50"/>
      </defs>
      <g transform="translate(60.922324 322.182437)scale(0.1 -0.1)">
       <use xlink:href="#DejaVuSans-8722"/>
       <use x="83.789062" xlink:href="#DejaVuSans-48"/>
       <use x="147.412109" xlink:href="#DejaVuSans-46"/>
       <use x="179.199219" xlink:href="#DejaVuSans-50"/>
      </g>
     </g>
    </g>
    <g id="xtick_2">
     <g id="line2d_2">
      <g>
       <use style="stroke:#000000;stroke-width:0.8;" x="119.662664" xlink:href="#m5ffe2d322f" y="307.584"/>
      </g>
     </g>
     <g id="text_2">
      <!-- 0.0 -->
      <g transform="translate(111.711102 322.182437)scale(0.1 -0.1)">
       <use xlink:href="#DejaVuSans-48"/>
       <use x="63.623047" xlink:href="#DejaVuSans-46"/>
       <use x="95.410156" xlink:href="#DejaVuSans-48"/>
      </g>
     </g>
    </g>
    <g id="xtick_3">
     <g id="line2d_3">
      <g>
       <use style="stroke:#000000;stroke-width:0.8;" x="166.261598" xlink:href="#m5ffe2d322f" y="307.584"/>
      </g>
     </g>
     <g id="text_3">
      <!-- 0.2 -->
      <g transform="translate(158.310036 322.182437)scale(0.1 -0.1)">
       <use xlink:href="#DejaVuSans-48"/>
       <use x="63.623047" xlink:href="#DejaVuSans-46"/>
       <use x="95.410156" xlink:href="#DejaVuSans-50"/>
      </g>
     </g>
    </g>
    <g id="xtick_4">
     <g id="line2d_4">
      <g>
       <use style="stroke:#000000;stroke-width:0.8;" x="212.860533" xlink:href="#m5ffe2d322f" y="307.584"/>
      </g>
     </g>
     <g id="text_4">
      <!-- 0.4 -->
      <defs>
       <path d="M 37.796875 64.3125 
L 12.890625 25.390625 
L 37.796875 25.390625 
z
M 35.203125 72.90625 
L 47.609375 72.90625 
L 47.609375 25.390625 
L 58.015625 25.390625 
L 58.015625 17.1875 
L 47.609375 17.1875 
L 47.609375 0 
L 37.796875 0 
L 37.796875 17.1875 
L 4.890625 17.1875 
L 4.890625 26.703125 
z
" id="DejaVuSans-52"/>
      </defs>
      <g transform="translate(204.90897 322.182437)scale(0.1 -0.1)">
       <use xlink:href="#DejaVuSans-48"/>
       <use x="63.623047" xlink:href="#DejaVuSans-46"/>
       <use x="95.410156" xlink:href="#DejaVuSans-52"/>
      </g>
     </g>
    </g>
    <g id="xtick_5">
     <g id="line2d_5">
      <g>
       <use style="stroke:#000000;stroke-width:0.8;" x="259.459467" xlink:href="#m5ffe2d322f" y="307.584"/>
      </g>
     </g>
     <g id="text_5">
      <!-- 0.6 -->
      <defs>
       <path d="M 33.015625 40.375 
Q 26.375 40.375 22.484375 35.828125 
Q 18.609375 31.296875 18.609375 23.390625 
Q 18.609375 15.53125 22.484375 10.953125 
Q 26.375 6.390625 33.015625 6.390625 
Q 39.65625 6.390625 43.53125 10.953125 
Q 47.40625 15.53125 47.40625 23.390625 
Q 47.40625 31.296875 43.53125 35.828125 
Q 39.65625 40.375 33.015625 40.375 
z
M 52.59375 71.296875 
L 52.59375 62.3125 
Q 48.875 64.0625 45.09375 64.984375 
Q 41.3125 65.921875 37.59375 65.921875 
Q 27.828125 65.921875 22.671875 59.328125 
Q 17.53125 52.734375 16.796875 39.40625 
Q 19.671875 43.65625 24.015625 45.921875 
Q 28.375 48.1875 33.59375 48.1875 
Q 44.578125 48.1875 50.953125 41.515625 
Q 57.328125 34.859375 57.328125 23.390625 
Q 57.328125 12.15625 50.6875 5.359375 
Q 44.046875 -1.421875 33.015625 -1.421875 
Q 20.359375 -1.421875 13.671875 8.265625 
Q 6.984375 17.96875 6.984375 36.375 
Q 6.984375 53.65625 15.1875 63.9375 
Q 23.390625 74.21875 37.203125 74.21875 
Q 40.921875 74.21875 44.703125 73.484375 
Q 48.484375 72.75 52.59375 71.296875 
z
" id="DejaVuSans-54"/>
      </defs>
      <g transform="translate(251.507905 322.182437)scale(0.1 -0.1)">
       <use xlink:href="#DejaVuSans-48"/>
       <use x="63.623047" xlink:href="#DejaVuSans-46"/>
       <use x="95.410156" xlink:href="#DejaVuSans-54"/>
      </g>
     </g>
    </g>
    <g id="xtick_6">
     <g id="line2d_6">
      <g>
       <use style="stroke:#000000;stroke-width:0.8;" x="306.058402" xlink:href="#m5ffe2d322f" y="307.584"/>
      </g>
     </g>
     <g id="text_6">
      <!-- 0.8 -->
      <defs>
       <path d="M 31.78125 34.625 
Q 24.75 34.625 20.71875 30.859375 
Q 16.703125 27.09375 16.703125 20.515625 
Q 16.703125 13.921875 20.71875 10.15625 
Q 24.75 6.390625 31.78125 6.390625 
Q 38.8125 6.390625 42.859375 10.171875 
Q 46.921875 13.96875 46.921875 20.515625 
Q 46.921875 27.09375 42.890625 30.859375 
Q 38.875 34.625 31.78125 34.625 
z
M 21.921875 38.8125 
Q 15.578125 40.375 12.03125 44.71875 
Q 8.5 49.078125 8.5 55.328125 
Q 8.5 64.0625 14.71875 69.140625 
Q 20.953125 74.21875 31.78125 74.21875 
Q 42.671875 74.21875 48.875 69.140625 
Q 55.078125 64.0625 55.078125 55.328125 
Q 55.078125 49.078125 51.53125 44.71875 
Q 48 40.375 41.703125 38.8125 
Q 48.828125 37.15625 52.796875 32.3125 
Q 56.78125 27.484375 56.78125 20.515625 
Q 56.78125 9.90625 50.3125 4.234375 
Q 43.84375 -1.421875 31.78125 -1.421875 
Q 19.734375 -1.421875 13.25 4.234375 
Q 6.78125 9.90625 6.78125 20.515625 
Q 6.78125 27.484375 10.78125 32.3125 
Q 14.796875 37.15625 21.921875 38.8125 
z
M 18.3125 54.390625 
Q 18.3125 48.734375 21.84375 45.5625 
Q 25.390625 42.390625 31.78125 42.390625 
Q 38.140625 42.390625 41.71875 45.5625 
Q 45.3125 48.734375 45.3125 54.390625 
Q 45.3125 60.0625 41.71875 63.234375 
Q 38.140625 66.40625 31.78125 66.40625 
Q 25.390625 66.40625 21.84375 63.234375 
Q 18.3125 60.0625 18.3125 54.390625 
z
" id="DejaVuSans-56"/>
      </defs>
      <g transform="translate(298.106839 322.182437)scale(0.1 -0.1)">
       <use xlink:href="#DejaVuSans-48"/>
       <use x="63.623047" xlink:href="#DejaVuSans-46"/>
       <use x="95.410156" xlink:href="#DejaVuSans-56"/>
      </g>
     </g>
    </g>
    <g id="xtick_7">
     <g id="line2d_7">
      <g>
       <use style="stroke:#000000;stroke-width:0.8;" x="352.657336" xlink:href="#m5ffe2d322f" y="307.584"/>
      </g>
     </g>
     <g id="text_7">
      <!-- 1.0 -->
      <defs>
       <path d="M 12.40625 8.296875 
L 28.515625 8.296875 
L 28.515625 63.921875 
L 10.984375 60.40625 
L 10.984375 69.390625 
L 28.421875 72.90625 
L 38.28125 72.90625 
L 38.28125 8.296875 
L 54.390625 8.296875 
L 54.390625 0 
L 12.40625 0 
z
" id="DejaVuSans-49"/>
      </defs>
      <g transform="translate(344.705773 322.182437)scale(0.1 -0.1)">
       <use xlink:href="#DejaVuSans-49"/>
       <use x="63.623047" xlink:href="#DejaVuSans-46"/>
       <use x="95.410156" xlink:href="#DejaVuSans-48"/>
      </g>
     </g>
    </g>
    <g id="xtick_8">
     <g id="line2d_8">
      <g>
       <use style="stroke:#000000;stroke-width:0.8;" x="399.25627" xlink:href="#m5ffe2d322f" y="307.584"/>
      </g>
     </g>
     <g id="text_8">
      <!-- 1.2 -->
      <g transform="translate(391.304708 322.182437)scale(0.1 -0.1)">
       <use xlink:href="#DejaVuSans-49"/>
       <use x="63.623047" xlink:href="#DejaVuSans-46"/>
       <use x="95.410156" xlink:href="#DejaVuSans-50"/>
      </g>
     </g>
    </g>
    <g id="text_9">
     <!-- eosadmac -->
     <defs>
      <path d="M 56.203125 29.59375 
L 56.203125 25.203125 
L 14.890625 25.203125 
Q 15.484375 15.921875 20.484375 11.0625 
Q 25.484375 6.203125 34.421875 6.203125 
Q 39.59375 6.203125 44.453125 7.46875 
Q 49.3125 8.734375 54.109375 11.28125 
L 54.109375 2.78125 
Q 49.265625 0.734375 44.1875 -0.34375 
Q 39.109375 -1.421875 33.890625 -1.421875 
Q 20.796875 -1.421875 13.15625 6.1875 
Q 5.515625 13.8125 5.515625 26.8125 
Q 5.515625 40.234375 12.765625 48.109375 
Q 20.015625 56 32.328125 56 
Q 43.359375 56 49.78125 48.890625 
Q 56.203125 41.796875 56.203125 29.59375 
z
M 47.21875 32.234375 
Q 47.125 39.59375 43.09375 43.984375 
Q 39.0625 48.390625 32.421875 48.390625 
Q 24.90625 48.390625 20.390625 44.140625 
Q 15.875 39.890625 15.1875 32.171875 
z
" id="DejaVuSans-101"/>
      <path d="M 30.609375 48.390625 
Q 23.390625 48.390625 19.1875 42.75 
Q 14.984375 37.109375 14.984375 27.296875 
Q 14.984375 17.484375 19.15625 11.84375 
Q 23.34375 6.203125 30.609375 6.203125 
Q 37.796875 6.203125 41.984375 11.859375 
Q 46.1875 17.53125 46.1875 27.296875 
Q 46.1875 37.015625 41.984375 42.703125 
Q 37.796875 48.390625 30.609375 48.390625 
z
M 30.609375 56 
Q 42.328125 56 49.015625 48.375 
Q 55.71875 40.765625 55.71875 27.296875 
Q 55.71875 13.875 49.015625 6.21875 
Q 42.328125 -1.421875 30.609375 -1.421875 
Q 18.84375 -1.421875 12.171875 6.21875 
Q 5.515625 13.875 5.515625 27.296875 
Q 5.515625 40.765625 12.171875 48.375 
Q 18.84375 56 30.609375 56 
z
" id="DejaVuSans-111"/>
      <path d="M 44.28125 53.078125 
L 44.28125 44.578125 
Q 40.484375 46.53125 36.375 47.5 
Q 32.28125 48.484375 27.875 48.484375 
Q 21.1875 48.484375 17.84375 46.4375 
Q 14.5 44.390625 14.5 40.28125 
Q 14.5 37.15625 16.890625 35.375 
Q 19.28125 33.59375 26.515625 31.984375 
L 29.59375 31.296875 
Q 39.15625 29.25 43.1875 25.515625 
Q 47.21875 21.78125 47.21875 15.09375 
Q 47.21875 7.46875 41.1875 3.015625 
Q 35.15625 -1.421875 24.609375 -1.421875 
Q 20.21875 -1.421875 15.453125 -0.5625 
Q 10.6875 0.296875 5.421875 2 
L 5.421875 11.28125 
Q 10.40625 8.6875 15.234375 7.390625 
Q 20.0625 6.109375 24.8125 6.109375 
Q 31.15625 6.109375 34.5625 8.28125 
Q 37.984375 10.453125 37.984375 14.40625 
Q 37.984375 18.0625 35.515625 20.015625 
Q 33.0625 21.96875 24.703125 23.78125 
L 21.578125 24.515625 
Q 13.234375 26.265625 9.515625 29.90625 
Q 5.8125 33.546875 5.8125 39.890625 
Q 5.8125 47.609375 11.28125 51.796875 
Q 16.75 56 26.8125 56 
Q 31.78125 56 36.171875 55.265625 
Q 40.578125 54.546875 44.28125 53.078125 
z
" id="DejaVuSans-115"/>
      <path d="M 34.28125 27.484375 
Q 23.390625 27.484375 19.1875 25 
Q 14.984375 22.515625 14.984375 16.5 
Q 14.984375 11.71875 18.140625 8.90625 
Q 21.296875 6.109375 26.703125 6.109375 
Q 34.1875 6.109375 38.703125 11.40625 
Q 43.21875 16.703125 43.21875 25.484375 
L 43.21875 27.484375 
z
M 52.203125 31.203125 
L 52.203125 0 
L 43.21875 0 
L 43.21875 8.296875 
Q 40.140625 3.328125 35.546875 0.953125 
Q 30.953125 -1.421875 24.3125 -1.421875 
Q 15.921875 -1.421875 10.953125 3.296875 
Q 6 8.015625 6 15.921875 
Q 6 25.140625 12.171875 29.828125 
Q 18.359375 34.515625 30.609375 34.515625 
L 43.21875 34.515625 
L 43.21875 35.40625 
Q 43.21875 41.609375 39.140625 45 
Q 35.0625 48.390625 27.6875 48.390625 
Q 23 48.390625 18.546875 47.265625 
Q 14.109375 46.140625 10.015625 43.890625 
L 10.015625 52.203125 
Q 14.9375 54.109375 19.578125 55.046875 
Q 24.21875 56 28.609375 56 
Q 40.484375 56 46.34375 49.84375 
Q 52.203125 43.703125 52.203125 31.203125 
z
" id="DejaVuSans-97"/>
      <path d="M 45.40625 46.390625 
L 45.40625 75.984375 
L 54.390625 75.984375 
L 54.390625 0 
L 45.40625 0 
L 45.40625 8.203125 
Q 42.578125 3.328125 38.25 0.953125 
Q 33.9375 -1.421875 27.875 -1.421875 
Q 17.96875 -1.421875 11.734375 6.484375 
Q 5.515625 14.40625 5.515625 27.296875 
Q 5.515625 40.1875 11.734375 48.09375 
Q 17.96875 56 27.875 56 
Q 33.9375 56 38.25 53.625 
Q 42.578125 51.265625 45.40625 46.390625 
z
M 14.796875 27.296875 
Q 14.796875 17.390625 18.875 11.75 
Q 22.953125 6.109375 30.078125 6.109375 
Q 37.203125 6.109375 41.296875 11.75 
Q 45.40625 17.390625 45.40625 27.296875 
Q 45.40625 37.203125 41.296875 42.84375 
Q 37.203125 48.484375 30.078125 48.484375 
Q 22.953125 48.484375 18.875 42.84375 
Q 14.796875 37.203125 14.796875 27.296875 
z
" id="DejaVuSans-100"/>
      <path d="M 52 44.1875 
Q 55.375 50.25 60.0625 53.125 
Q 64.75 56 71.09375 56 
Q 79.640625 56 84.28125 50.015625 
Q 88.921875 44.046875 88.921875 33.015625 
L 88.921875 0 
L 79.890625 0 
L 79.890625 32.71875 
Q 79.890625 40.578125 77.09375 44.375 
Q 74.3125 48.1875 68.609375 48.1875 
Q 61.625 48.1875 57.5625 43.546875 
Q 53.515625 38.921875 53.515625 30.90625 
L 53.515625 0 
L 44.484375 0 
L 44.484375 32.71875 
Q 44.484375 40.625 41.703125 44.40625 
Q 38.921875 48.1875 33.109375 48.1875 
Q 26.21875 48.1875 22.15625 43.53125 
Q 18.109375 38.875 18.109375 30.90625 
L 18.109375 0 
L 9.078125 0 
L 9.078125 54.6875 
L 18.109375 54.6875 
L 18.109375 46.1875 
Q 21.1875 51.21875 25.484375 53.609375 
Q 29.78125 56 35.6875 56 
Q 41.65625 56 45.828125 52.96875 
Q 50 49.953125 52 44.1875 
z
" id="DejaVuSans-109"/>
      <path d="M 48.78125 52.59375 
L 48.78125 44.1875 
Q 44.96875 46.296875 41.140625 47.34375 
Q 37.3125 48.390625 33.40625 48.390625 
Q 24.65625 48.390625 19.8125 42.84375 
Q 14.984375 37.3125 14.984375 27.296875 
Q 14.984375 17.28125 19.8125 11.734375 
Q 24.65625 6.203125 33.40625 6.203125 
Q 37.3125 6.203125 41.140625 7.25 
Q 44.96875 8.296875 48.78125 10.40625 
L 48.78125 2.09375 
Q 45.015625 0.34375 40.984375 -0.53125 
Q 36.96875 -1.421875 32.421875 -1.421875 
Q 20.0625 -1.421875 12.78125 6.34375 
Q 5.515625 14.109375 5.515625 27.296875 
Q 5.515625 40.671875 12.859375 48.328125 
Q 20.21875 56 33.015625 56 
Q 37.15625 56 41.109375 55.140625 
Q 45.0625 54.296875 48.78125 52.59375 
z
" id="DejaVuSans-99"/>
     </defs>
     <g transform="translate(210.4975 335.860562)scale(0.1 -0.1)">
      <use xlink:href="#DejaVuSans-101"/>
      <use x="61.523438" xlink:href="#DejaVuSans-111"/>
      <use x="122.705078" xlink:href="#DejaVuSans-115"/>
      <use x="174.804688" xlink:href="#DejaVuSans-97"/>
      <use x="236.083984" xlink:href="#DejaVuSans-100"/>
      <use x="299.560547" xlink:href="#DejaVuSans-109"/>
      <use x="396.972656" xlink:href="#DejaVuSans-97"/>
      <use x="458.251953" xlink:href="#DejaVuSans-99"/>
     </g>
    </g>
   </g>
   <g id="matplotlib.axis_2">
    <g id="ytick_1">
     <g id="line2d_9">
      <defs>
       <path d="M 0 0 
L -3.5 0 
" id="ma0718599e9" style="stroke:#000000;stroke-width:0.8;"/>
      </defs>
      <g>
       <use style="stroke:#000000;stroke-width:0.8;" x="57.6" xlink:href="#ma0718599e9" y="174.528"/>
      </g>
     </g>
    </g>
   </g>
   <g id="line2d_10">
    <path clip-path="url(#p31f5e6952f)" d="M 142.962131 174.528 
L 166.261598 174.528 
" style="fill:none;stroke:#ffa500;stroke-linecap:square;stroke-width:1.5;"/>
   </g>
   <g id="line2d_11">
    <path clip-path="url(#p31f5e6952f)" d="M 142.962131 174.528 
L 166.261598 174.528 
" style="fill:none;stroke:#4c4c4c;stroke-linecap:square;stroke-width:4.5;"/>
   </g>
   <g id="line2d_12">
    <path clip-path="url(#p31f5e6952f)" d="M 142.962131 174.528 
L 189.561066 174.528 
" style="fill:none;stroke:#008000;stroke-linecap:square;stroke-width:1.5;"/>
   </g>
   <g id="line2d_13">
    <path clip-path="url(#p31f5e6952f)" d="M 142.962131 174.528 
L 166.261598 174.528 
" style="fill:none;stroke:#262626;stroke-linecap:square;stroke-width:4.5;"/>
   </g>
   <g id="patch_3">
    <path d="M 57.6 307.584 
L 57.6 41.472 
" style="fill:none;stroke:#000000;stroke-linecap:square;stroke-linejoin:miter;stroke-width:0.8;"/>
   </g>
   <g id="patch_4">
    <path d="M 414.72 307.584 
L 414.72 41.472 
" style="fill:none;stroke:#000000;stroke-linecap:square;stroke-linejoin:miter;stroke-width:0.8;"/>
   </g>
   <g id="patch_5">
    <path d="M 57.6 307.584 
L 414.72 307.584 
" style="fill:none;stroke:#000000;stroke-linecap:square;stroke-linejoin:miter;stroke-width:0.8;"/>
   </g>
   <g id="patch_6">
    <path d="M 57.6 41.472 
L 414.72 41.472 
" style="fill:none;stroke:#000000;stroke-linecap:square;stroke-linejoin:miter;stroke-width:0.8;"/>
   </g>
   <g id="PathCollection_1">
    <defs>
     <path d="M 0 1.5 
C 0.397805 1.5 0.77937 1.341951 1.06066 1.06066 
C 1.341951 0.77937 1.5 0.397805 1.5 0 
C 1.5 -0.397805 1.341951 -0.77937 1.06066 -1.06066 
C 0.77937 -1.341951 0.397805 -1.5 0 -1.5 
C -0.397805 -1.5 -0.77937 -1.341951 -1.06066 -1.06066 
C -1.341951 -0.77937 -1.5 -0.397805 -1.5 0 
C -1.5 0.397805 -1.341951 0.77937 -1.06066 1.06066 
C -0.77937 1.341951 -0.397805 1.5 0 1.5 
z
" id="m9a58602436" style="stroke:#4c4c4c;stroke-opacity:0.5;"/>
    </defs>
    <g clip-path="url(#p31f5e6952f)">
     <use style="fill:#ffffff;fill-opacity:0.5;stroke:#4c4c4c;stroke-opacity:0.5;" x="142.962131" xlink:href="#m9a58602436" y="174.528"/>
    </g>
   </g>
   <g id="PathCollection_2">
    <defs>
     <path d="M 0 1.5 
C 0.397805 1.5 0.77937 1.341951 1.06066 1.06066 
C 1.341951 0.77937 1.5 0.397805 1.5 0 
C 1.5 -0.397805 1.341951 -0.77937 1.06066 -1.06066 
C 0.77937 -1.341951 0.397805 -1.5 0 -1.5 
C -0.397805 -1.5 -0.77937 -1.341951 -1.06066 -1.06066 
C -1.341951 -0.77937 -1.5 -0.397805 -1.5 0 
C -1.5 0.397805 -1.341951 0.77937 -1.06066 1.06066 
C -0.77937 1.341951 -0.397805 1.5 0 1.5 
z
" id="m3c4affb6ba" style="stroke:#262626;stroke-opacity:0.5;"/>
    </defs>
    <g clip-path="url(#p31f5e6952f)">
     <use style="fill:#ffffff;fill-opacity:0.5;stroke:#262626;stroke-opacity:0.5;" x="142.962131" xlink:href="#m3c4affb6ba" y="174.528"/>
    </g>
   </g>
   <g id="text_10">
    <!-- Association of eosadmac vs. non_rebreather_mask -->
    <defs>
     <path d="M 34.1875 63.1875 
L 20.796875 26.90625 
L 47.609375 26.90625 
z
M 28.609375 72.90625 
L 39.796875 72.90625 
L 67.578125 0 
L 57.328125 0 
L 50.6875 18.703125 
L 17.828125 18.703125 
L 11.1875 0 
L 0.78125 0 
z
" id="DejaVuSans-65"/>
     <path d="M 9.421875 54.6875 
L 18.40625 54.6875 
L 18.40625 0 
L 9.421875 0 
z
M 9.421875 75.984375 
L 18.40625 75.984375 
L 18.40625 64.59375 
L 9.421875 64.59375 
z
" id="DejaVuSans-105"/>
     <path d="M 18.3125 70.21875 
L 18.3125 54.6875 
L 36.8125 54.6875 
L 36.8125 47.703125 
L 18.3125 47.703125 
L 18.3125 18.015625 
Q 18.3125 11.328125 20.140625 9.421875 
Q 21.96875 7.515625 27.59375 7.515625 
L 36.8125 7.515625 
L 36.8125 0 
L 27.59375 0 
Q 17.1875 0 13.234375 3.875 
Q 9.28125 7.765625 9.28125 18.015625 
L 9.28125 47.703125 
L 2.6875 47.703125 
L 2.6875 54.6875 
L 9.28125 54.6875 
L 9.28125 70.21875 
z
" id="DejaVuSans-116"/>
     <path d="M 54.890625 33.015625 
L 54.890625 0 
L 45.90625 0 
L 45.90625 32.71875 
Q 45.90625 40.484375 42.875 44.328125 
Q 39.84375 48.1875 33.796875 48.1875 
Q 26.515625 48.1875 22.3125 43.546875 
Q 18.109375 38.921875 18.109375 30.90625 
L 18.109375 0 
L 9.078125 0 
L 9.078125 54.6875 
L 18.109375 54.6875 
L 18.109375 46.1875 
Q 21.34375 51.125 25.703125 53.5625 
Q 30.078125 56 35.796875 56 
Q 45.21875 56 50.046875 50.171875 
Q 54.890625 44.34375 54.890625 33.015625 
z
" id="DejaVuSans-110"/>
     <path id="DejaVuSans-32"/>
     <path d="M 37.109375 75.984375 
L 37.109375 68.5 
L 28.515625 68.5 
Q 23.6875 68.5 21.796875 66.546875 
Q 19.921875 64.59375 19.921875 59.515625 
L 19.921875 54.6875 
L 34.71875 54.6875 
L 34.71875 47.703125 
L 19.921875 47.703125 
L 19.921875 0 
L 10.890625 0 
L 10.890625 47.703125 
L 2.296875 47.703125 
L 2.296875 54.6875 
L 10.890625 54.6875 
L 10.890625 58.5 
Q 10.890625 67.625 15.140625 71.796875 
Q 19.390625 75.984375 28.609375 75.984375 
z
" id="DejaVuSans-102"/>
     <path d="M 2.984375 54.6875 
L 12.5 54.6875 
L 29.59375 8.796875 
L 46.6875 54.6875 
L 56.203125 54.6875 
L 35.6875 0 
L 23.484375 0 
z
" id="DejaVuSans-118"/>
     <path d="M 50.984375 -16.609375 
L 50.984375 -23.578125 
L -0.984375 -23.578125 
L -0.984375 -16.609375 
z
" id="DejaVuSans-95"/>
     <path d="M 41.109375 46.296875 
Q 39.59375 47.171875 37.8125 47.578125 
Q 36.03125 48 33.890625 48 
Q 26.265625 48 22.1875 43.046875 
Q 18.109375 38.09375 18.109375 28.8125 
L 18.109375 0 
L 9.078125 0 
L 9.078125 54.6875 
L 18.109375 54.6875 
L 18.109375 46.1875 
Q 20.953125 51.171875 25.484375 53.578125 
Q 30.03125 56 36.53125 56 
Q 37.453125 56 38.578125 55.875 
Q 39.703125 55.765625 41.0625 55.515625 
z
" id="DejaVuSans-114"/>
     <path d="M 48.6875 27.296875 
Q 48.6875 37.203125 44.609375 42.84375 
Q 40.53125 48.484375 33.40625 48.484375 
Q 26.265625 48.484375 22.1875 42.84375 
Q 18.109375 37.203125 18.109375 27.296875 
Q 18.109375 17.390625 22.1875 11.75 
Q 26.265625 6.109375 33.40625 6.109375 
Q 40.53125 6.109375 44.609375 11.75 
Q 48.6875 17.390625 48.6875 27.296875 
z
M 18.109375 46.390625 
Q 20.953125 51.265625 25.265625 53.625 
Q 29.59375 56 35.59375 56 
Q 45.5625 56 51.78125 48.09375 
Q 58.015625 40.1875 58.015625 27.296875 
Q 58.015625 14.40625 51.78125 6.484375 
Q 45.5625 -1.421875 35.59375 -1.421875 
Q 29.59375 -1.421875 25.265625 0.953125 
Q 20.953125 3.328125 18.109375 8.203125 
L 18.109375 0 
L 9.078125 0 
L 9.078125 75.984375 
L 18.109375 75.984375 
z
" id="DejaVuSans-98"/>
     <path d="M 54.890625 33.015625 
L 54.890625 0 
L 45.90625 0 
L 45.90625 32.71875 
Q 45.90625 40.484375 42.875 44.328125 
Q 39.84375 48.1875 33.796875 48.1875 
Q 26.515625 48.1875 22.3125 43.546875 
Q 18.109375 38.921875 18.109375 30.90625 
L 18.109375 0 
L 9.078125 0 
L 9.078125 75.984375 
L 18.109375 75.984375 
L 18.109375 46.1875 
Q 21.34375 51.125 25.703125 53.5625 
Q 30.078125 56 35.796875 56 
Q 45.21875 56 50.046875 50.171875 
Q 54.890625 44.34375 54.890625 33.015625 
z
" id="DejaVuSans-104"/>
     <path d="M 9.078125 75.984375 
L 18.109375 75.984375 
L 18.109375 31.109375 
L 44.921875 54.6875 
L 56.390625 54.6875 
L 27.390625 29.109375 
L 57.625 0 
L 45.90625 0 
L 18.109375 26.703125 
L 18.109375 0 
L 9.078125 0 
z
" id="DejaVuSans-107"/>
    </defs>
    <g transform="translate(83.964375 35.472)scale(0.12 -0.12)">
     <use xlink:href="#DejaVuSans-65"/>
     <use x="68.408203" xlink:href="#DejaVuSans-115"/>
     <use x="120.507812" xlink:href="#DejaVuSans-115"/>
     <use x="172.607422" xlink:href="#DejaVuSans-111"/>
     <use x="233.789062" xlink:href="#DejaVuSans-99"/>
     <use x="288.769531" xlink:href="#DejaVuSans-105"/>
     <use x="316.552734" xlink:href="#DejaVuSans-97"/>
     <use x="377.832031" xlink:href="#DejaVuSans-116"/>
     <use x="417.041016" xlink:href="#DejaVuSans-105"/>
     <use x="444.824219" xlink:href="#DejaVuSans-111"/>
     <use x="506.005859" xlink:href="#DejaVuSans-110"/>
     <use x="569.384766" xlink:href="#DejaVuSans-32"/>
     <use x="601.171875" xlink:href="#DejaVuSans-111"/>
     <use x="662.353516" xlink:href="#DejaVuSans-102"/>
     <use x="697.558594" xlink:href="#DejaVuSans-32"/>
     <use x="729.345703" xlink:href="#DejaVuSans-101"/>
     <use x="790.869141" xlink:href="#DejaVuSans-111"/>
     <use x="852.050781" xlink:href="#DejaVuSans-115"/>
     <use x="904.150391" xlink:href="#DejaVuSans-97"/>
     <use x="965.429688" xlink:href="#DejaVuSans-100"/>
     <use x="1028.90625" xlink:href="#DejaVuSans-109"/>
     <use x="1126.318359" xlink:href="#DejaVuSans-97"/>
     <use x="1187.597656" xlink:href="#DejaVuSans-99"/>
     <use x="1242.578125" xlink:href="#DejaVuSans-32"/>
     <use x="1274.365234" xlink:href="#DejaVuSans-118"/>
     <use x="1333.544922" xlink:href="#DejaVuSans-115"/>
     <use x="1385.644531" xlink:href="#DejaVuSans-46"/>
     <use x="1417.431641" xlink:href="#DejaVuSans-32"/>
     <use x="1449.21875" xlink:href="#DejaVuSans-110"/>
     <use x="1512.597656" xlink:href="#DejaVuSans-111"/>
     <use x="1573.779297" xlink:href="#DejaVuSans-110"/>
     <use x="1637.158203" xlink:href="#DejaVuSans-95"/>
     <use x="1687.158203" xlink:href="#DejaVuSans-114"/>
     <use x="1726.021484" xlink:href="#DejaVuSans-101"/>
     <use x="1787.544922" xlink:href="#DejaVuSans-98"/>
     <use x="1851.021484" xlink:href="#DejaVuSans-114"/>
     <use x="1889.884766" xlink:href="#DejaVuSans-101"/>
     <use x="1951.408203" xlink:href="#DejaVuSans-97"/>
     <use x="2012.6875" xlink:href="#DejaVuSans-116"/>
     <use x="2051.896484" xlink:href="#DejaVuSans-104"/>
     <use x="2115.275391" xlink:href="#DejaVuSans-101"/>
     <use x="2176.798828" xlink:href="#DejaVuSans-114"/>
     <use x="2217.912109" xlink:href="#DejaVuSans-95"/>
     <use x="2267.912109" xlink:href="#DejaVuSans-109"/>
     <use x="2365.324219" xlink:href="#DejaVuSans-97"/>
     <use x="2426.603516" xlink:href="#DejaVuSans-115"/>
     <use x="2478.703125" xlink:href="#DejaVuSans-107"/>
    </g>
   </g>
   <g id="legend_1">
    <g id="patch_7">
     <path d="M 222.57625 79.3845 
L 407.72 79.3845 
Q 409.72 79.3845 409.72 77.3845 
L 409.72 48.472 
Q 409.72 46.472 407.72 46.472 
L 222.57625 46.472 
Q 220.57625 46.472 220.57625 48.472 
L 220.57625 77.3845 
Q 220.57625 79.3845 222.57625 79.3845 
z
" style="fill:#ffffff;opacity:0.8;stroke:#cccccc;stroke-linejoin:miter;"/>
    </g>
    <g id="line2d_14">
     <path d="M 224.57625 54.570438 
L 244.57625 54.570438 
" style="fill:none;stroke:#ffa500;stroke-linecap:square;stroke-width:1.5;"/>
    </g>
    <g id="line2d_15"/>
    <g id="text_11">
     <!-- non_rebreather_mask (19) -->
     <defs>
      <path d="M 31 75.875 
Q 24.46875 64.65625 21.28125 53.65625 
Q 18.109375 42.671875 18.109375 31.390625 
Q 18.109375 20.125 21.3125 9.0625 
Q 24.515625 -2 31 -13.1875 
L 23.1875 -13.1875 
Q 15.875 -1.703125 12.234375 9.375 
Q 8.59375 20.453125 8.59375 31.390625 
Q 8.59375 42.28125 12.203125 53.3125 
Q 15.828125 64.359375 23.1875 75.875 
z
" id="DejaVuSans-40"/>
      <path d="M 10.984375 1.515625 
L 10.984375 10.5 
Q 14.703125 8.734375 18.5 7.8125 
Q 22.3125 6.890625 25.984375 6.890625 
Q 35.75 6.890625 40.890625 13.453125 
Q 46.046875 20.015625 46.78125 33.40625 
Q 43.953125 29.203125 39.59375 26.953125 
Q 35.25 24.703125 29.984375 24.703125 
Q 19.046875 24.703125 12.671875 31.3125 
Q 6.296875 37.9375 6.296875 49.421875 
Q 6.296875 60.640625 12.9375 67.421875 
Q 19.578125 74.21875 30.609375 74.21875 
Q 43.265625 74.21875 49.921875 64.515625 
Q 56.59375 54.828125 56.59375 36.375 
Q 56.59375 19.140625 48.40625 8.859375 
Q 40.234375 -1.421875 26.421875 -1.421875 
Q 22.703125 -1.421875 18.890625 -0.6875 
Q 15.09375 0.046875 10.984375 1.515625 
z
M 30.609375 32.421875 
Q 37.25 32.421875 41.125 36.953125 
Q 45.015625 41.5 45.015625 49.421875 
Q 45.015625 57.28125 41.125 61.84375 
Q 37.25 66.40625 30.609375 66.40625 
Q 23.96875 66.40625 20.09375 61.84375 
Q 16.21875 57.28125 16.21875 49.421875 
Q 16.21875 41.5 20.09375 36.953125 
Q 23.96875 32.421875 30.609375 32.421875 
z
" id="DejaVuSans-57"/>
      <path d="M 8.015625 75.875 
L 15.828125 75.875 
Q 23.140625 64.359375 26.78125 53.3125 
Q 30.421875 42.28125 30.421875 31.390625 
Q 30.421875 20.453125 26.78125 9.375 
Q 23.140625 -1.703125 15.828125 -13.1875 
L 8.015625 -13.1875 
Q 14.5 -2 17.703125 9.0625 
Q 20.90625 20.125 20.90625 31.390625 
Q 20.90625 42.671875 17.703125 53.65625 
Q 14.5 64.65625 8.015625 75.875 
z
" id="DejaVuSans-41"/>
     </defs>
     <g transform="translate(252.57625 58.070438)scale(0.1 -0.1)">
      <use xlink:href="#DejaVuSans-110"/>
      <use x="63.378906" xlink:href="#DejaVuSans-111"/>
      <use x="124.560547" xlink:href="#DejaVuSans-110"/>
      <use x="187.939453" xlink:href="#DejaVuSans-95"/>
      <use x="237.939453" xlink:href="#DejaVuSans-114"/>
      <use x="276.802734" xlink:href="#DejaVuSans-101"/>
      <use x="338.326172" xlink:href="#DejaVuSans-98"/>
      <use x="401.802734" xlink:href="#DejaVuSans-114"/>
      <use x="440.666016" xlink:href="#DejaVuSans-101"/>
      <use x="502.189453" xlink:href="#DejaVuSans-97"/>
      <use x="563.46875" xlink:href="#DejaVuSans-116"/>
      <use x="602.677734" xlink:href="#DejaVuSans-104"/>
      <use x="666.056641" xlink:href="#DejaVuSans-101"/>
      <use x="727.580078" xlink:href="#DejaVuSans-114"/>
      <use x="768.693359" xlink:href="#DejaVuSans-95"/>
      <use x="818.693359" xlink:href="#DejaVuSans-109"/>
      <use x="916.105469" xlink:href="#DejaVuSans-97"/>
      <use x="977.384766" xlink:href="#DejaVuSans-115"/>
      <use x="1029.484375" xlink:href="#DejaVuSans-107"/>
      <use x="1087.394531" xlink:href="#DejaVuSans-32"/>
      <use x="1119.181641" xlink:href="#DejaVuSans-40"/>
      <use x="1158.195312" xlink:href="#DejaVuSans-49"/>
      <use x="1221.818359" xlink:href="#DejaVuSans-57"/>
      <use x="1285.441406" xlink:href="#DejaVuSans-41"/>
     </g>
    </g>
    <g id="line2d_16">
     <path d="M 224.57625 69.526688 
L 244.57625 69.526688 
" style="fill:none;stroke:#008000;stroke-linecap:square;stroke-width:1.5;"/>
    </g>
    <g id="line2d_17"/>
    <g id="text_12">
     <!-- Not non_rebreather_mask (77) -->
     <defs>
      <path d="M 9.8125 72.90625 
L 23.09375 72.90625 
L 55.421875 11.921875 
L 55.421875 72.90625 
L 64.984375 72.90625 
L 64.984375 0 
L 51.703125 0 
L 19.390625 60.984375 
L 19.390625 0 
L 9.8125 0 
z
" id="DejaVuSans-78"/>
      <path d="M 8.203125 72.90625 
L 55.078125 72.90625 
L 55.078125 68.703125 
L 28.609375 0 
L 18.3125 0 
L 43.21875 64.59375 
L 8.203125 64.59375 
z
" id="DejaVuSans-55"/>
     </defs>
     <g transform="translate(252.57625 73.026688)scale(0.1 -0.1)">
      <use xlink:href="#DejaVuSans-78"/>
      <use x="74.804688" xlink:href="#DejaVuSans-111"/>
      <use x="135.986328" xlink:href="#DejaVuSans-116"/>
      <use x="175.195312" xlink:href="#DejaVuSans-32"/>
      <use x="206.982422" xlink:href="#DejaVuSans-110"/>
      <use x="270.361328" xlink:href="#DejaVuSans-111"/>
      <use x="331.542969" xlink:href="#DejaVuSans-110"/>
      <use x="394.921875" xlink:href="#DejaVuSans-95"/>
      <use x="444.921875" xlink:href="#DejaVuSans-114"/>
      <use x="483.785156" xlink:href="#DejaVuSans-101"/>
      <use x="545.308594" xlink:href="#DejaVuSans-98"/>
      <use x="608.785156" xlink:href="#DejaVuSans-114"/>
      <use x="647.648438" xlink:href="#DejaVuSans-101"/>
      <use x="709.171875" xlink:href="#DejaVuSans-97"/>
      <use x="770.451172" xlink:href="#DejaVuSans-116"/>
      <use x="809.660156" xlink:href="#DejaVuSans-104"/>
      <use x="873.039062" xlink:href="#DejaVuSans-101"/>
      <use x="934.5625" xlink:href="#DejaVuSans-114"/>
      <use x="975.675781" xlink:href="#DejaVuSans-95"/>
      <use x="1025.675781" xlink:href="#DejaVuSans-109"/>
      <use x="1123.087891" xlink:href="#DejaVuSans-97"/>
      <use x="1184.367188" xlink:href="#DejaVuSans-115"/>
      <use x="1236.466797" xlink:href="#DejaVuSans-107"/>
      <use x="1294.376953" xlink:href="#DejaVuSans-32"/>
      <use x="1326.164062" xlink:href="#DejaVuSans-40"/>
      <use x="1365.177734" xlink:href="#DejaVuSans-55"/>
      <use x="1428.800781" xlink:href="#DejaVuSans-55"/>
      <use x="1492.423828" xlink:href="#DejaVuSans-41"/>
     </g>
    </g>
   </g>
  </g>
 </g>
 <defs>
  <clipPath id="p31f5e6952f">
   <rect height="266.112" width="357.12" x="57.6" y="41.472"/>
  </clipPath>
 </defs>
</svg>
