<?xml version="1.0" encoding="utf-8" standalone="no"?>
<!DOCTYPE svg PUBLIC "-//W3C//DTD SVG 1.1//EN"
  "http://www.w3.org/Graphics/SVG/1.1/DTD/svg11.dtd">
<!-- Created with matplotlib (https://matplotlib.org/) -->
<svg height="345.6pt" version="1.1" viewBox="0 0 460.8 345.6" width="460.8pt" xmlns="http://www.w3.org/2000/svg" xmlns:xlink="http://www.w3.org/1999/xlink">
 <defs>
  <style type="text/css">
*{stroke-linecap:butt;stroke-linejoin:round;}
  </style>
 </defs>
 <g id="figure_1">
  <g id="patch_1">
   <path d="M 0 345.6 
L 460.8 345.6 
L 460.8 0 
L 0 0 
z
" style="fill:#ffffff;"/>
  </g>
  <g id="axes_1">
   <g id="patch_2">
    <path d="M 57.6 307.584 
L 414.72 307.584 
L 414.72 41.472 
L 57.6 41.472 
z
" style="fill:#ffffff;"/>
   </g>
   <g id="PolyCollection_1">
    <defs>
     <path d="M 73.832727 -165.057223 
L 73.832727 -177.086777 
L 77.112066 -178.537599 
L 80.391405 -180.259502 
L 83.670744 -182.282676 
L 86.950083 -184.635839 
L 90.229421 -187.344935 
L 93.50876 -190.431699 
L 96.788099 -193.912152 
L 100.067438 -197.795089 
L 103.346777 -202.080629 
L 106.626116 -206.758942 
L 109.905455 -211.809208 
L 113.184793 -217.198934 
L 116.464132 -222.883675 
L 119.743471 -228.807247 
L 123.02281 -234.902456 
L 126.302149 -241.092361 
L 129.581488 -247.292055 
L 132.860826 -253.410902 
L 136.140165 -259.35516 
L 139.419504 -265.030867 
L 142.698843 -270.346863 
L 145.978182 -275.217794 
L 149.257521 -279.566955 
L 152.53686 -283.328817 
L 155.816198 -286.451113 
L 159.095537 -288.896377 
L 162.374876 -290.642861 
L 165.654215 -291.684796 
L 168.933554 -292.032 
L 172.212893 -291.708875 
L 175.492231 -290.752869 
L 178.77157 -289.212505 
L 182.050909 -287.145105 
L 185.330248 -284.614342 
L 188.609587 -281.687759 
L 191.888926 -278.434373 
L 195.168264 -274.922492 
L 198.447603 -271.217819 
L 201.726942 -267.38192 
L 205.006281 -263.471084 
L 208.28562 -259.53559 
L 211.564959 -255.619363 
L 214.844298 -251.759979 
L 218.123636 -247.988985 
L 221.402975 -244.332452 
L 224.682314 -240.811704 
L 227.961653 -237.444159 
L 231.240992 -234.244209 
L 234.520331 -231.224088 
L 237.799669 -228.394666 
L 241.079008 -225.766137 
L 244.358347 -223.348554 
L 247.637686 -221.15219 
L 250.917025 -219.187696 
L 254.196364 -217.466054 
L 257.475702 -215.998315 
L 260.755041 -214.795122 
L 264.03438 -213.866045 
L 267.313719 -213.218747 
L 270.593058 -212.858025 
L 273.872397 -212.784772 
L 277.151736 -212.994931 
L 280.431074 -213.478519 
L 283.710413 -214.218782 
L 286.989752 -215.191584 
L 290.269091 -216.365092 
L 293.54843 -217.699826 
L 296.827769 -219.149121 
L 300.107107 -220.660023 
L 303.386446 -222.174612 
L 306.665785 -223.631724 
L 309.945124 -224.968984 
L 313.224463 -226.125083 
L 316.503802 -227.042154 
L 319.78314 -227.668131 
L 323.062479 -227.958939 
L 326.341818 -227.880397 
L 329.621157 -227.409692 
L 332.900496 -226.536354 
L 336.179835 -225.262651 
L 339.459174 -223.603387 
L 342.738512 -221.585124 
L 346.017851 -219.244867 
L 349.29719 -216.628304 
L 352.576529 -213.787718 
L 355.855868 -210.779687 
L 359.135207 -207.662721 
L 362.414545 -204.494956 
L 365.693884 -201.332035 
L 368.973223 -198.225269 
L 372.252562 -195.220154 
L 375.531901 -192.355296 
L 378.81124 -189.661744 
L 382.090579 -187.162741 
L 385.369917 -184.873843 
L 388.649256 -182.803357 
L 391.928595 -180.953035 
L 395.207934 -179.318956 
L 398.487273 -177.892508 
L 398.487273 -164.251492 
L 398.487273 -164.251492 
L 395.207934 -162.825044 
L 391.928595 -161.190965 
L 388.649256 -159.340643 
L 385.369917 -157.270157 
L 382.090579 -154.981259 
L 378.81124 -152.482256 
L 375.531901 -149.788704 
L 372.252562 -146.923846 
L 368.973223 -143.918731 
L 365.693884 -140.811965 
L 362.414545 -137.649044 
L 359.135207 -134.481279 
L 355.855868 -131.364313 
L 352.576529 -128.356282 
L 349.29719 -125.515696 
L 346.017851 -122.899133 
L 342.738512 -120.558876 
L 339.459174 -118.540613 
L 336.179835 -116.881349 
L 332.900496 -115.607646 
L 329.621157 -114.734308 
L 326.341818 -114.263603 
L 323.062479 -114.185061 
L 319.78314 -114.475869 
L 316.503802 -115.101846 
L 313.224463 -116.018917 
L 309.945124 -117.175016 
L 306.665785 -118.512276 
L 303.386446 -119.969388 
L 300.107107 -121.483977 
L 296.827769 -122.994879 
L 293.54843 -124.444174 
L 290.269091 -125.778908 
L 286.989752 -126.952416 
L 283.710413 -127.925218 
L 280.431074 -128.665481 
L 277.151736 -129.149069 
L 273.872397 -129.359228 
L 270.593058 -129.285975 
L 267.313719 -128.925253 
L 264.03438 -128.277955 
L 260.755041 -127.348878 
L 257.475702 -126.145685 
L 254.196364 -124.677946 
L 250.917025 -122.956304 
L 247.637686 -120.99181 
L 244.358347 -118.795446 
L 241.079008 -116.377863 
L 237.799669 -113.749334 
L 234.520331 -110.919912 
L 231.240992 -107.899791 
L 227.961653 -104.699841 
L 224.682314 -101.332296 
L 221.402975 -97.811548 
L 218.123636 -94.155015 
L 214.844298 -90.384021 
L 211.564959 -86.524637 
L 208.28562 -82.60841 
L 205.006281 -78.672916 
L 201.726942 -74.76208 
L 198.447603 -70.926181 
L 195.168264 -67.221508 
L 191.888926 -63.709627 
L 188.609587 -60.456241 
L 185.330248 -57.529658 
L 182.050909 -54.998895 
L 178.77157 -52.931495 
L 175.492231 -51.391131 
L 172.212893 -50.435125 
L 168.933554 -50.112 
L 165.654215 -50.459204 
L 162.374876 -51.501139 
L 159.095537 -53.247623 
L 155.816198 -55.692887 
L 152.53686 -58.815183 
L 149.257521 -62.577045 
L 145.978182 -66.926206 
L 142.698843 -71.797137 
L 139.419504 -77.113133 
L 136.140165 -82.78884 
L 132.860826 -88.733098 
L 129.581488 -94.851945 
L 126.302149 -101.051639 
L 123.02281 -107.241544 
L 119.743471 -113.336753 
L 116.464132 -119.260325 
L 113.184793 -124.945066 
L 109.905455 -130.334792 
L 106.626116 -135.385058 
L 103.346777 -140.063371 
L 100.067438 -144.348911 
L 96.788099 -148.231848 
L 93.50876 -151.712301 
L 90.229421 -154.799065 
L 86.950083 -157.508161 
L 83.670744 -159.861324 
L 80.391405 -161.884498 
L 77.112066 -163.606401 
L 73.832727 -165.057223 
z
" id="m6692c25138" style="stroke:#4c4c4c;stroke-opacity:0.5;stroke-width:1.5;"/>
    </defs>
    <g clip-path="url(#p6a198eee85)">
     <use style="fill:#df9c20;fill-opacity:0.5;stroke:#4c4c4c;stroke-opacity:0.5;stroke-width:1.5;" x="0" xlink:href="#m6692c25138" y="345.6"/>
    </g>
   </g>
   <g id="PolyCollection_2">
    <defs>
     <path d="M 97.385941 -164.486856 
L 97.385941 -177.657144 
L 100.182676 -179.79895 
L 102.979411 -182.466283 
L 105.776146 -185.729825 
L 108.572881 -189.651868 
L 111.369616 -194.280164 
L 114.166351 -199.641356 
L 116.963086 -205.734527 
L 119.759821 -212.525479 
L 122.556556 -219.942422 
L 125.35329 -227.873727 
L 128.150025 -236.168294 
L 130.94676 -244.63889 
L 133.743495 -253.068573 
L 136.54023 -261.219979 
L 139.336965 -268.846996 
L 142.1337 -275.707992 
L 144.930435 -281.579619 
L 147.72717 -286.270049 
L 150.523905 -289.630538 
L 153.32064 -291.564308 
L 156.117375 -292.032 
L 158.914109 -291.053261 
L 161.710844 -288.704376 
L 164.507579 -285.112238 
L 167.304314 -280.445265 
L 170.101049 -274.902105 
L 172.897784 -268.699131 
L 175.694519 -262.057767 
L 178.491254 -255.192595 
L 181.287989 -248.301081 
L 184.084724 -241.555497 
L 186.881459 -235.097411 
L 189.678194 -229.034819 
L 192.474929 -223.441814 
L 195.271663 -218.360442 
L 198.068398 -213.804312 
L 200.865133 -209.763412 
L 203.661868 -206.209579 
L 206.458603 -203.102109 
L 209.255338 -200.393049 
L 212.052073 -198.031826 
L 214.848808 -195.96897 
L 217.645543 -194.158825 
L 220.442278 -192.561226 
L 223.239013 -191.142252 
L 226.035748 -189.874186 
L 228.832482 -188.734921 
L 231.629217 -187.707007 
L 234.425952 -186.776569 
L 237.222687 -185.932279 
L 240.019422 -185.164518 
L 242.816157 -184.464812 
L 245.612892 -183.825566 
L 248.409627 -183.240076 
L 251.206362 -182.702751 
L 254.003097 -182.20946 
L 256.799832 -181.757903 
L 259.596567 -181.347914 
L 262.393302 -180.981631 
L 265.190036 -180.663477 
L 267.986771 -180.399932 
L 270.783506 -180.199108 
L 273.580241 -180.070149 
L 276.376976 -180.022498 
L 279.173711 -180.065081 
L 281.970446 -180.205453 
L 284.767181 -180.44895 
L 287.563916 -180.797891 
L 290.360651 -181.250868 
L 293.157386 -181.802155 
L 295.954121 -182.441276 
L 298.750855 -183.152782 
L 301.54759 -183.916274 
L 304.344325 -184.706719 
L 307.14106 -185.495097 
L 309.937795 -186.249404 
L 312.73453 -186.935987 
L 315.531265 -187.52118 
L 318.328 -187.973153 
L 321.124735 -188.263838 
L 323.92147 -188.370795 
L 326.718205 -188.27883 
L 329.51494 -187.981208 
L 332.311675 -187.480318 
L 335.108409 -186.7877 
L 337.905144 -185.92341 
L 340.701879 -184.914752 
L 343.498614 -183.794503 
L 346.295349 -182.598786 
L 349.092084 -181.364787 
L 351.888819 -180.128537 
L 354.685554 -178.922931 
L 357.482289 -177.77616 
L 360.279024 -176.710635 
L 363.075759 -175.742453 
L 365.872494 -174.881382 
L 368.669229 -174.131293 
L 371.465963 -173.490931 
L 374.262698 -172.954916 
L 374.262698 -169.189084 
L 374.262698 -169.189084 
L 371.465963 -168.653069 
L 368.669229 -168.012707 
L 365.872494 -167.262618 
L 363.075759 -166.401547 
L 360.279024 -165.433365 
L 357.482289 -164.36784 
L 354.685554 -163.221069 
L 351.888819 -162.015463 
L 349.092084 -160.779213 
L 346.295349 -159.545214 
L 343.498614 -158.349497 
L 340.701879 -157.229248 
L 337.905144 -156.22059 
L 335.108409 -155.3563 
L 332.311675 -154.663682 
L 329.51494 -154.162792 
L 326.718205 -153.86517 
L 323.92147 -153.773205 
L 321.124735 -153.880162 
L 318.328 -154.170847 
L 315.531265 -154.62282 
L 312.73453 -155.208013 
L 309.937795 -155.894596 
L 307.14106 -156.648903 
L 304.344325 -157.437281 
L 301.54759 -158.227726 
L 298.750855 -158.991218 
L 295.954121 -159.702724 
L 293.157386 -160.341845 
L 290.360651 -160.893132 
L 287.563916 -161.346109 
L 284.767181 -161.69505 
L 281.970446 -161.938547 
L 279.173711 -162.078919 
L 276.376976 -162.121502 
L 273.580241 -162.073851 
L 270.783506 -161.944892 
L 267.986771 -161.744068 
L 265.190036 -161.480523 
L 262.393302 -161.162369 
L 259.596567 -160.796086 
L 256.799832 -160.386097 
L 254.003097 -159.93454 
L 251.206362 -159.441249 
L 248.409627 -158.903924 
L 245.612892 -158.318434 
L 242.816157 -157.679188 
L 240.019422 -156.979482 
L 237.222687 -156.211721 
L 234.425952 -155.367431 
L 231.629217 -154.436993 
L 228.832482 -153.409079 
L 226.035748 -152.269814 
L 223.239013 -151.001748 
L 220.442278 -149.582774 
L 217.645543 -147.985175 
L 214.848808 -146.17503 
L 212.052073 -144.112174 
L 209.255338 -141.750951 
L 206.458603 -139.041891 
L 203.661868 -135.934421 
L 200.865133 -132.380588 
L 198.068398 -128.339688 
L 195.271663 -123.783558 
L 192.474929 -118.702186 
L 189.678194 -113.109181 
L 186.881459 -107.046589 
L 184.084724 -100.588503 
L 181.287989 -93.842919 
L 178.491254 -86.951405 
L 175.694519 -80.086233 
L 172.897784 -73.444869 
L 170.101049 -67.241895 
L 167.304314 -61.698735 
L 164.507579 -57.031762 
L 161.710844 -53.439624 
L 158.914109 -51.090739 
L 156.117375 -50.112 
L 153.32064 -50.579692 
L 150.523905 -52.513462 
L 147.72717 -55.873951 
L 144.930435 -60.564381 
L 142.1337 -66.436008 
L 139.336965 -73.297004 
L 136.54023 -80.924021 
L 133.743495 -89.075427 
L 130.94676 -97.50511 
L 128.150025 -105.975706 
L 125.35329 -114.270273 
L 122.556556 -122.201578 
L 119.759821 -129.618521 
L 116.963086 -136.409473 
L 114.166351 -142.502644 
L 111.369616 -147.863836 
L 108.572881 -152.492132 
L 105.776146 -156.414175 
L 102.979411 -159.677717 
L 100.182676 -162.34505 
L 97.385941 -164.486856 
z
" id="m09f01b0b61" style="stroke:#262626;stroke-opacity:0.5;stroke-width:1.5;"/>
    </defs>
    <g clip-path="url(#p6a198eee85)">
     <use style="fill:#107010;fill-opacity:0.5;stroke:#262626;stroke-opacity:0.5;stroke-width:1.5;" x="0" xlink:href="#m09f01b0b61" y="345.6"/>
    </g>
   </g>
   <g id="matplotlib.axis_1">
    <g id="xtick_1">
     <g id="line2d_1">
      <defs>
       <path d="M 0 0 
L 0 3.5 
" id="m6110bb863e" style="stroke:#000000;stroke-width:0.8;"/>
      </defs>
      <g>
       <use style="stroke:#000000;stroke-width:0.8;" x="90.522738" xlink:href="#m6110bb863e" y="307.584"/>
      </g>
     </g>
     <g id="text_1">
      <!-- −5 -->
      <defs>
       <path d="M 10.59375 35.5 
L 73.1875 35.5 
L 73.1875 27.203125 
L 10.59375 27.203125 
z
" id="DejaVuSans-8722"/>
       <path d="M 10.796875 72.90625 
L 49.515625 72.90625 
L 49.515625 64.59375 
L 19.828125 64.59375 
L 19.828125 46.734375 
Q 21.96875 47.46875 24.109375 47.828125 
Q 26.265625 48.1875 28.421875 48.1875 
Q 40.625 48.1875 47.75 41.5 
Q 54.890625 34.8125 54.890625 23.390625 
Q 54.890625 11.625 47.5625 5.09375 
Q 40.234375 -1.421875 26.90625 -1.421875 
Q 22.3125 -1.421875 17.546875 -0.640625 
Q 12.796875 0.140625 7.71875 1.703125 
L 7.71875 11.625 
Q 12.109375 9.234375 16.796875 8.0625 
Q 21.484375 6.890625 26.703125 6.890625 
Q 35.15625 6.890625 40.078125 11.328125 
Q 45.015625 15.765625 45.015625 23.390625 
Q 45.015625 31 40.078125 35.4375 
Q 35.15625 39.890625 26.703125 39.890625 
Q 22.75 39.890625 18.8125 39.015625 
Q 14.890625 38.140625 10.796875 36.28125 
z
" id="DejaVuSans-53"/>
      </defs>
      <g transform="translate(83.151645 322.182437)scale(0.1 -0.1)">
       <use xlink:href="#DejaVuSans-8722"/>
       <use x="83.789062" xlink:href="#DejaVuSans-53"/>
      </g>
     </g>
    </g>
    <g id="xtick_2">
     <g id="line2d_2">
      <g>
       <use style="stroke:#000000;stroke-width:0.8;" x="138.477056" xlink:href="#m6110bb863e" y="307.584"/>
      </g>
     </g>
     <g id="text_2">
      <!-- 0 -->
      <defs>
       <path d="M 31.78125 66.40625 
Q 24.171875 66.40625 20.328125 58.90625 
Q 16.5 51.421875 16.5 36.375 
Q 16.5 21.390625 20.328125 13.890625 
Q 24.171875 6.390625 31.78125 6.390625 
Q 39.453125 6.390625 43.28125 13.890625 
Q 47.125 21.390625 47.125 36.375 
Q 47.125 51.421875 43.28125 58.90625 
Q 39.453125 66.40625 31.78125 66.40625 
z
M 31.78125 74.21875 
Q 44.046875 74.21875 50.515625 64.515625 
Q 56.984375 54.828125 56.984375 36.375 
Q 56.984375 17.96875 50.515625 8.265625 
Q 44.046875 -1.421875 31.78125 -1.421875 
Q 19.53125 -1.421875 13.0625 8.265625 
Q 6.59375 17.96875 6.59375 36.375 
Q 6.59375 54.828125 13.0625 64.515625 
Q 19.53125 74.21875 31.78125 74.21875 
z
" id="DejaVuSans-48"/>
      </defs>
      <g transform="translate(135.295806 322.182437)scale(0.1 -0.1)">
       <use xlink:href="#DejaVuSans-48"/>
      </g>
     </g>
    </g>
    <g id="xtick_3">
     <g id="line2d_3">
      <g>
       <use style="stroke:#000000;stroke-width:0.8;" x="186.431373" xlink:href="#m6110bb863e" y="307.584"/>
      </g>
     </g>
     <g id="text_3">
      <!-- 5 -->
      <g transform="translate(183.250123 322.182437)scale(0.1 -0.1)">
       <use xlink:href="#DejaVuSans-53"/>
      </g>
     </g>
    </g>
    <g id="xtick_4">
     <g id="line2d_4">
      <g>
       <use style="stroke:#000000;stroke-width:0.8;" x="234.38569" xlink:href="#m6110bb863e" y="307.584"/>
      </g>
     </g>
     <g id="text_4">
      <!-- 10 -->
      <defs>
       <path d="M 12.40625 8.296875 
L 28.515625 8.296875 
L 28.515625 63.921875 
L 10.984375 60.40625 
L 10.984375 69.390625 
L 28.421875 72.90625 
L 38.28125 72.90625 
L 38.28125 8.296875 
L 54.390625 8.296875 
L 54.390625 0 
L 12.40625 0 
z
" id="DejaVuSans-49"/>
      </defs>
      <g transform="translate(228.02319 322.182437)scale(0.1 -0.1)">
       <use xlink:href="#DejaVuSans-49"/>
       <use x="63.623047" xlink:href="#DejaVuSans-48"/>
      </g>
     </g>
    </g>
    <g id="xtick_5">
     <g id="line2d_5">
      <g>
       <use style="stroke:#000000;stroke-width:0.8;" x="282.340008" xlink:href="#m6110bb863e" y="307.584"/>
      </g>
     </g>
     <g id="text_5">
      <!-- 15 -->
      <g transform="translate(275.977508 322.182437)scale(0.1 -0.1)">
       <use xlink:href="#DejaVuSans-49"/>
       <use x="63.623047" xlink:href="#DejaVuSans-53"/>
      </g>
     </g>
    </g>
    <g id="xtick_6">
     <g id="line2d_6">
      <g>
       <use style="stroke:#000000;stroke-width:0.8;" x="330.294325" xlink:href="#m6110bb863e" y="307.584"/>
      </g>
     </g>
     <g id="text_6">
      <!-- 20 -->
      <defs>
       <path d="M 19.1875 8.296875 
L 53.609375 8.296875 
L 53.609375 0 
L 7.328125 0 
L 7.328125 8.296875 
Q 12.9375 14.109375 22.625 23.890625 
Q 32.328125 33.6875 34.8125 36.53125 
Q 39.546875 41.84375 41.421875 45.53125 
Q 43.3125 49.21875 43.3125 52.78125 
Q 43.3125 58.59375 39.234375 62.25 
Q 35.15625 65.921875 28.609375 65.921875 
Q 23.96875 65.921875 18.8125 64.3125 
Q 13.671875 62.703125 7.8125 59.421875 
L 7.8125 69.390625 
Q 13.765625 71.78125 18.9375 73 
Q 24.125 74.21875 28.421875 74.21875 
Q 39.75 74.21875 46.484375 68.546875 
Q 53.21875 62.890625 53.21875 53.421875 
Q 53.21875 48.921875 51.53125 44.890625 
Q 49.859375 40.875 45.40625 35.40625 
Q 44.1875 33.984375 37.640625 27.21875 
Q 31.109375 20.453125 19.1875 8.296875 
z
" id="DejaVuSans-50"/>
      </defs>
      <g transform="translate(323.931825 322.182437)scale(0.1 -0.1)">
       <use xlink:href="#DejaVuSans-50"/>
       <use x="63.623047" xlink:href="#DejaVuSans-48"/>
      </g>
     </g>
    </g>
    <g id="xtick_7">
     <g id="line2d_7">
      <g>
       <use style="stroke:#000000;stroke-width:0.8;" x="378.248642" xlink:href="#m6110bb863e" y="307.584"/>
      </g>
     </g>
     <g id="text_7">
      <!-- 25 -->
      <g transform="translate(371.886142 322.182437)scale(0.1 -0.1)">
       <use xlink:href="#DejaVuSans-50"/>
       <use x="63.623047" xlink:href="#DejaVuSans-53"/>
      </g>
     </g>
    </g>
    <g id="text_8">
     <!-- ddimerpeakac -->
     <defs>
      <path d="M 45.40625 46.390625 
L 45.40625 75.984375 
L 54.390625 75.984375 
L 54.390625 0 
L 45.40625 0 
L 45.40625 8.203125 
Q 42.578125 3.328125 38.25 0.953125 
Q 33.9375 -1.421875 27.875 -1.421875 
Q 17.96875 -1.421875 11.734375 6.484375 
Q 5.515625 14.40625 5.515625 27.296875 
Q 5.515625 40.1875 11.734375 48.09375 
Q 17.96875 56 27.875 56 
Q 33.9375 56 38.25 53.625 
Q 42.578125 51.265625 45.40625 46.390625 
z
M 14.796875 27.296875 
Q 14.796875 17.390625 18.875 11.75 
Q 22.953125 6.109375 30.078125 6.109375 
Q 37.203125 6.109375 41.296875 11.75 
Q 45.40625 17.390625 45.40625 27.296875 
Q 45.40625 37.203125 41.296875 42.84375 
Q 37.203125 48.484375 30.078125 48.484375 
Q 22.953125 48.484375 18.875 42.84375 
Q 14.796875 37.203125 14.796875 27.296875 
z
" id="DejaVuSans-100"/>
      <path d="M 9.421875 54.6875 
L 18.40625 54.6875 
L 18.40625 0 
L 9.421875 0 
z
M 9.421875 75.984375 
L 18.40625 75.984375 
L 18.40625 64.59375 
L 9.421875 64.59375 
z
" id="DejaVuSans-105"/>
      <path d="M 52 44.1875 
Q 55.375 50.25 60.0625 53.125 
Q 64.75 56 71.09375 56 
Q 79.640625 56 84.28125 50.015625 
Q 88.921875 44.046875 88.921875 33.015625 
L 88.921875 0 
L 79.890625 0 
L 79.890625 32.71875 
Q 79.890625 40.578125 77.09375 44.375 
Q 74.3125 48.1875 68.609375 48.1875 
Q 61.625 48.1875 57.5625 43.546875 
Q 53.515625 38.921875 53.515625 30.90625 
L 53.515625 0 
L 44.484375 0 
L 44.484375 32.71875 
Q 44.484375 40.625 41.703125 44.40625 
Q 38.921875 48.1875 33.109375 48.1875 
Q 26.21875 48.1875 22.15625 43.53125 
Q 18.109375 38.875 18.109375 30.90625 
L 18.109375 0 
L 9.078125 0 
L 9.078125 54.6875 
L 18.109375 54.6875 
L 18.109375 46.1875 
Q 21.1875 51.21875 25.484375 53.609375 
Q 29.78125 56 35.6875 56 
Q 41.65625 56 45.828125 52.96875 
Q 50 49.953125 52 44.1875 
z
" id="DejaVuSans-109"/>
      <path d="M 56.203125 29.59375 
L 56.203125 25.203125 
L 14.890625 25.203125 
Q 15.484375 15.921875 20.484375 11.0625 
Q 25.484375 6.203125 34.421875 6.203125 
Q 39.59375 6.203125 44.453125 7.46875 
Q 49.3125 8.734375 54.109375 11.28125 
L 54.109375 2.78125 
Q 49.265625 0.734375 44.1875 -0.34375 
Q 39.109375 -1.421875 33.890625 -1.421875 
Q 20.796875 -1.421875 13.15625 6.1875 
Q 5.515625 13.8125 5.515625 26.8125 
Q 5.515625 40.234375 12.765625 48.109375 
Q 20.015625 56 32.328125 56 
Q 43.359375 56 49.78125 48.890625 
Q 56.203125 41.796875 56.203125 29.59375 
z
M 47.21875 32.234375 
Q 47.125 39.59375 43.09375 43.984375 
Q 39.0625 48.390625 32.421875 48.390625 
Q 24.90625 48.390625 20.390625 44.140625 
Q 15.875 39.890625 15.1875 32.171875 
z
" id="DejaVuSans-101"/>
      <path d="M 41.109375 46.296875 
Q 39.59375 47.171875 37.8125 47.578125 
Q 36.03125 48 33.890625 48 
Q 26.265625 48 22.1875 43.046875 
Q 18.109375 38.09375 18.109375 28.8125 
L 18.109375 0 
L 9.078125 0 
L 9.078125 54.6875 
L 18.109375 54.6875 
L 18.109375 46.1875 
Q 20.953125 51.171875 25.484375 53.578125 
Q 30.03125 56 36.53125 56 
Q 37.453125 56 38.578125 55.875 
Q 39.703125 55.765625 41.0625 55.515625 
z
" id="DejaVuSans-114"/>
      <path d="M 18.109375 8.203125 
L 18.109375 -20.796875 
L 9.078125 -20.796875 
L 9.078125 54.6875 
L 18.109375 54.6875 
L 18.109375 46.390625 
Q 20.953125 51.265625 25.265625 53.625 
Q 29.59375 56 35.59375 56 
Q 45.5625 56 51.78125 48.09375 
Q 58.015625 40.1875 58.015625 27.296875 
Q 58.015625 14.40625 51.78125 6.484375 
Q 45.5625 -1.421875 35.59375 -1.421875 
Q 29.59375 -1.421875 25.265625 0.953125 
Q 20.953125 3.328125 18.109375 8.203125 
z
M 48.6875 27.296875 
Q 48.6875 37.203125 44.609375 42.84375 
Q 40.53125 48.484375 33.40625 48.484375 
Q 26.265625 48.484375 22.1875 42.84375 
Q 18.109375 37.203125 18.109375 27.296875 
Q 18.109375 17.390625 22.1875 11.75 
Q 26.265625 6.109375 33.40625 6.109375 
Q 40.53125 6.109375 44.609375 11.75 
Q 48.6875 17.390625 48.6875 27.296875 
z
" id="DejaVuSans-112"/>
      <path d="M 34.28125 27.484375 
Q 23.390625 27.484375 19.1875 25 
Q 14.984375 22.515625 14.984375 16.5 
Q 14.984375 11.71875 18.140625 8.90625 
Q 21.296875 6.109375 26.703125 6.109375 
Q 34.1875 6.109375 38.703125 11.40625 
Q 43.21875 16.703125 43.21875 25.484375 
L 43.21875 27.484375 
z
M 52.203125 31.203125 
L 52.203125 0 
L 43.21875 0 
L 43.21875 8.296875 
Q 40.140625 3.328125 35.546875 0.953125 
Q 30.953125 -1.421875 24.3125 -1.421875 
Q 15.921875 -1.421875 10.953125 3.296875 
Q 6 8.015625 6 15.921875 
Q 6 25.140625 12.171875 29.828125 
Q 18.359375 34.515625 30.609375 34.515625 
L 43.21875 34.515625 
L 43.21875 35.40625 
Q 43.21875 41.609375 39.140625 45 
Q 35.0625 48.390625 27.6875 48.390625 
Q 23 48.390625 18.546875 47.265625 
Q 14.109375 46.140625 10.015625 43.890625 
L 10.015625 52.203125 
Q 14.9375 54.109375 19.578125 55.046875 
Q 24.21875 56 28.609375 56 
Q 40.484375 56 46.34375 49.84375 
Q 52.203125 43.703125 52.203125 31.203125 
z
" id="DejaVuSans-97"/>
      <path d="M 9.078125 75.984375 
L 18.109375 75.984375 
L 18.109375 31.109375 
L 44.921875 54.6875 
L 56.390625 54.6875 
L 27.390625 29.109375 
L 57.625 0 
L 45.90625 0 
L 18.109375 26.703125 
L 18.109375 0 
L 9.078125 0 
z
" id="DejaVuSans-107"/>
      <path d="M 48.78125 52.59375 
L 48.78125 44.1875 
Q 44.96875 46.296875 41.140625 47.34375 
Q 37.3125 48.390625 33.40625 48.390625 
Q 24.65625 48.390625 19.8125 42.84375 
Q 14.984375 37.3125 14.984375 27.296875 
Q 14.984375 17.28125 19.8125 11.734375 
Q 24.65625 6.203125 33.40625 6.203125 
Q 37.3125 6.203125 41.140625 7.25 
Q 44.96875 8.296875 48.78125 10.40625 
L 48.78125 2.09375 
Q 45.015625 0.34375 40.984375 -0.53125 
Q 36.96875 -1.421875 32.421875 -1.421875 
Q 20.0625 -1.421875 12.78125 6.34375 
Q 5.515625 14.109375 5.515625 27.296875 
Q 5.515625 40.671875 12.859375 48.328125 
Q 20.21875 56 33.015625 56 
Q 37.15625 56 41.109375 55.140625 
Q 45.0625 54.296875 48.78125 52.59375 
z
" id="DejaVuSans-99"/>
     </defs>
     <g transform="translate(200.484219 335.860562)scale(0.1 -0.1)">
      <use xlink:href="#DejaVuSans-100"/>
      <use x="63.476562" xlink:href="#DejaVuSans-100"/>
      <use x="126.953125" xlink:href="#DejaVuSans-105"/>
      <use x="154.736328" xlink:href="#DejaVuSans-109"/>
      <use x="252.148438" xlink:href="#DejaVuSans-101"/>
      <use x="313.671875" xlink:href="#DejaVuSans-114"/>
      <use x="354.785156" xlink:href="#DejaVuSans-112"/>
      <use x="418.261719" xlink:href="#DejaVuSans-101"/>
      <use x="479.785156" xlink:href="#DejaVuSans-97"/>
      <use x="541.064453" xlink:href="#DejaVuSans-107"/>
      <use x="597.224609" xlink:href="#DejaVuSans-97"/>
      <use x="658.503906" xlink:href="#DejaVuSans-99"/>
     </g>
    </g>
   </g>
   <g id="matplotlib.axis_2">
    <g id="ytick_1">
     <g id="line2d_8">
      <defs>
       <path d="M 0 0 
L -3.5 0 
" id="m889fcc1c67" style="stroke:#000000;stroke-width:0.8;"/>
      </defs>
      <g>
       <use style="stroke:#000000;stroke-width:0.8;" x="57.6" xlink:href="#m889fcc1c67" y="174.528"/>
      </g>
     </g>
    </g>
   </g>
   <g id="line2d_9">
    <path clip-path="url(#p6a198eee85)" d="M 142.025675 174.528 
L 330.294325 174.528 
" style="fill:none;stroke:#ffa500;stroke-linecap:square;stroke-width:1.5;"/>
   </g>
   <g id="line2d_10">
    <path clip-path="url(#p6a198eee85)" d="M 157.179239 174.528 
L 272.749144 174.528 
" style="fill:none;stroke:#4c4c4c;stroke-linecap:square;stroke-width:4.5;"/>
   </g>
   <g id="line2d_11">
    <path clip-path="url(#p6a198eee85)" d="M 141.354315 174.528 
L 251.073793 174.528 
" style="fill:none;stroke:#008000;stroke-linecap:square;stroke-width:1.5;"/>
   </g>
   <g id="line2d_12">
    <path clip-path="url(#p6a198eee85)" d="M 148.211782 174.528 
L 189.548404 174.528 
" style="fill:none;stroke:#262626;stroke-linecap:square;stroke-width:4.5;"/>
   </g>
   <g id="patch_3">
    <path d="M 57.6 307.584 
L 57.6 41.472 
" style="fill:none;stroke:#000000;stroke-linecap:square;stroke-linejoin:miter;stroke-width:0.8;"/>
   </g>
   <g id="patch_4">
    <path d="M 414.72 307.584 
L 414.72 41.472 
" style="fill:none;stroke:#000000;stroke-linecap:square;stroke-linejoin:miter;stroke-width:0.8;"/>
   </g>
   <g id="patch_5">
    <path d="M 57.6 307.584 
L 414.72 307.584 
" style="fill:none;stroke:#000000;stroke-linecap:square;stroke-linejoin:miter;stroke-width:0.8;"/>
   </g>
   <g id="patch_6">
    <path d="M 57.6 41.472 
L 414.72 41.472 
" style="fill:none;stroke:#000000;stroke-linecap:square;stroke-linejoin:miter;stroke-width:0.8;"/>
   </g>
   <g id="PathCollection_1">
    <defs>
     <path d="M 0 1.5 
C 0.397805 1.5 0.77937 1.341951 1.06066 1.06066 
C 1.341951 0.77937 1.5 0.397805 1.5 0 
C 1.5 -0.397805 1.341951 -0.77937 1.06066 -1.06066 
C 0.77937 -1.341951 0.397805 -1.5 0 -1.5 
C -0.397805 -1.5 -0.77937 -1.341951 -1.06066 -1.06066 
C -1.341951 -0.77937 -1.5 -0.397805 -1.5 0 
C -1.5 0.397805 -1.341951 0.77937 -1.06066 1.06066 
C -0.77937 1.341951 -0.397805 1.5 0 1.5 
z
" id="meb55a4db23" style="stroke:#4c4c4c;stroke-opacity:0.5;"/>
    </defs>
    <g clip-path="url(#p6a198eee85)">
     <use style="fill:#ffffff;fill-opacity:0.5;stroke:#4c4c4c;stroke-opacity:0.5;" x="191.226805" xlink:href="#meb55a4db23" y="174.528"/>
    </g>
   </g>
   <g id="PathCollection_2">
    <defs>
     <path d="M 0 1.5 
C 0.397805 1.5 0.77937 1.341951 1.06066 1.06066 
C 1.341951 0.77937 1.5 0.397805 1.5 0 
C 1.5 -0.397805 1.341951 -0.77937 1.06066 -1.06066 
C 0.77937 -1.341951 0.397805 -1.5 0 -1.5 
C -0.397805 -1.5 -0.77937 -1.341951 -1.06066 -1.06066 
C -1.341951 -0.77937 -1.5 -0.397805 -1.5 0 
C -1.5 0.397805 -1.341951 0.77937 -1.06066 1.06066 
C -0.77937 1.341951 -0.397805 1.5 0 1.5 
z
" id="m4a1a51fdb5" style="stroke:#262626;stroke-opacity:0.5;"/>
    </defs>
    <g clip-path="url(#p6a198eee85)">
     <use style="fill:#ffffff;fill-opacity:0.5;stroke:#262626;stroke-opacity:0.5;" x="159.96059" xlink:href="#m4a1a51fdb5" y="174.528"/>
    </g>
   </g>
   <g id="text_9">
    <!-- Association of ddimerpeakac vs. death -->
    <defs>
     <path d="M 34.1875 63.1875 
L 20.796875 26.90625 
L 47.609375 26.90625 
z
M 28.609375 72.90625 
L 39.796875 72.90625 
L 67.578125 0 
L 57.328125 0 
L 50.6875 18.703125 
L 17.828125 18.703125 
L 11.1875 0 
L 0.78125 0 
z
" id="DejaVuSans-65"/>
     <path d="M 44.28125 53.078125 
L 44.28125 44.578125 
Q 40.484375 46.53125 36.375 47.5 
Q 32.28125 48.484375 27.875 48.484375 
Q 21.1875 48.484375 17.84375 46.4375 
Q 14.5 44.390625 14.5 40.28125 
Q 14.5 37.15625 16.890625 35.375 
Q 19.28125 33.59375 26.515625 31.984375 
L 29.59375 31.296875 
Q 39.15625 29.25 43.1875 25.515625 
Q 47.21875 21.78125 47.21875 15.09375 
Q 47.21875 7.46875 41.1875 3.015625 
Q 35.15625 -1.421875 24.609375 -1.421875 
Q 20.21875 -1.421875 15.453125 -0.5625 
Q 10.6875 0.296875 5.421875 2 
L 5.421875 11.28125 
Q 10.40625 8.6875 15.234375 7.390625 
Q 20.0625 6.109375 24.8125 6.109375 
Q 31.15625 6.109375 34.5625 8.28125 
Q 37.984375 10.453125 37.984375 14.40625 
Q 37.984375 18.0625 35.515625 20.015625 
Q 33.0625 21.96875 24.703125 23.78125 
L 21.578125 24.515625 
Q 13.234375 26.265625 9.515625 29.90625 
Q 5.8125 33.546875 5.8125 39.890625 
Q 5.8125 47.609375 11.28125 51.796875 
Q 16.75 56 26.8125 56 
Q 31.78125 56 36.171875 55.265625 
Q 40.578125 54.546875 44.28125 53.078125 
z
" id="DejaVuSans-115"/>
     <path d="M 30.609375 48.390625 
Q 23.390625 48.390625 19.1875 42.75 
Q 14.984375 37.109375 14.984375 27.296875 
Q 14.984375 17.484375 19.15625 11.84375 
Q 23.34375 6.203125 30.609375 6.203125 
Q 37.796875 6.203125 41.984375 11.859375 
Q 46.1875 17.53125 46.1875 27.296875 
Q 46.1875 37.015625 41.984375 42.703125 
Q 37.796875 48.390625 30.609375 48.390625 
z
M 30.609375 56 
Q 42.328125 56 49.015625 48.375 
Q 55.71875 40.765625 55.71875 27.296875 
Q 55.71875 13.875 49.015625 6.21875 
Q 42.328125 -1.421875 30.609375 -1.421875 
Q 18.84375 -1.421875 12.171875 6.21875 
Q 5.515625 13.875 5.515625 27.296875 
Q 5.515625 40.765625 12.171875 48.375 
Q 18.84375 56 30.609375 56 
z
" id="DejaVuSans-111"/>
     <path d="M 18.3125 70.21875 
L 18.3125 54.6875 
L 36.8125 54.6875 
L 36.8125 47.703125 
L 18.3125 47.703125 
L 18.3125 18.015625 
Q 18.3125 11.328125 20.140625 9.421875 
Q 21.96875 7.515625 27.59375 7.515625 
L 36.8125 7.515625 
L 36.8125 0 
L 27.59375 0 
Q 17.1875 0 13.234375 3.875 
Q 9.28125 7.765625 9.28125 18.015625 
L 9.28125 47.703125 
L 2.6875 47.703125 
L 2.6875 54.6875 
L 9.28125 54.6875 
L 9.28125 70.21875 
z
" id="DejaVuSans-116"/>
     <path d="M 54.890625 33.015625 
L 54.890625 0 
L 45.90625 0 
L 45.90625 32.71875 
Q 45.90625 40.484375 42.875 44.328125 
Q 39.84375 48.1875 33.796875 48.1875 
Q 26.515625 48.1875 22.3125 43.546875 
Q 18.109375 38.921875 18.109375 30.90625 
L 18.109375 0 
L 9.078125 0 
L 9.078125 54.6875 
L 18.109375 54.6875 
L 18.109375 46.1875 
Q 21.34375 51.125 25.703125 53.5625 
Q 30.078125 56 35.796875 56 
Q 45.21875 56 50.046875 50.171875 
Q 54.890625 44.34375 54.890625 33.015625 
z
" id="DejaVuSans-110"/>
     <path id="DejaVuSans-32"/>
     <path d="M 37.109375 75.984375 
L 37.109375 68.5 
L 28.515625 68.5 
Q 23.6875 68.5 21.796875 66.546875 
Q 19.921875 64.59375 19.921875 59.515625 
L 19.921875 54.6875 
L 34.71875 54.6875 
L 34.71875 47.703125 
L 19.921875 47.703125 
L 19.921875 0 
L 10.890625 0 
L 10.890625 47.703125 
L 2.296875 47.703125 
L 2.296875 54.6875 
L 10.890625 54.6875 
L 10.890625 58.5 
Q 10.890625 67.625 15.140625 71.796875 
Q 19.390625 75.984375 28.609375 75.984375 
z
" id="DejaVuSans-102"/>
     <path d="M 2.984375 54.6875 
L 12.5 54.6875 
L 29.59375 8.796875 
L 46.6875 54.6875 
L 56.203125 54.6875 
L 35.6875 0 
L 23.484375 0 
z
" id="DejaVuSans-118"/>
     <path d="M 10.6875 12.40625 
L 21 12.40625 
L 21 0 
L 10.6875 0 
z
" id="DejaVuSans-46"/>
     <path d="M 54.890625 33.015625 
L 54.890625 0 
L 45.90625 0 
L 45.90625 32.71875 
Q 45.90625 40.484375 42.875 44.328125 
Q 39.84375 48.1875 33.796875 48.1875 
Q 26.515625 48.1875 22.3125 43.546875 
Q 18.109375 38.921875 18.109375 30.90625 
L 18.109375 0 
L 9.078125 0 
L 9.078125 75.984375 
L 18.109375 75.984375 
L 18.109375 46.1875 
Q 21.34375 51.125 25.703125 53.5625 
Q 30.078125 56 35.796875 56 
Q 45.21875 56 50.046875 50.171875 
Q 54.890625 44.34375 54.890625 33.015625 
z
" id="DejaVuSans-104"/>
    </defs>
    <g transform="translate(119.859375 35.472)scale(0.12 -0.12)">
     <use xlink:href="#DejaVuSans-65"/>
     <use x="68.408203" xlink:href="#DejaVuSans-115"/>
     <use x="120.507812" xlink:href="#DejaVuSans-115"/>
     <use x="172.607422" xlink:href="#DejaVuSans-111"/>
     <use x="233.789062" xlink:href="#DejaVuSans-99"/>
     <use x="288.769531" xlink:href="#DejaVuSans-105"/>
     <use x="316.552734" xlink:href="#DejaVuSans-97"/>
     <use x="377.832031" xlink:href="#DejaVuSans-116"/>
     <use x="417.041016" xlink:href="#DejaVuSans-105"/>
     <use x="444.824219" xlink:href="#DejaVuSans-111"/>
     <use x="506.005859" xlink:href="#DejaVuSans-110"/>
     <use x="569.384766" xlink:href="#DejaVuSans-32"/>
     <use x="601.171875" xlink:href="#DejaVuSans-111"/>
     <use x="662.353516" xlink:href="#DejaVuSans-102"/>
     <use x="697.558594" xlink:href="#DejaVuSans-32"/>
     <use x="729.345703" xlink:href="#DejaVuSans-100"/>
     <use x="792.822266" xlink:href="#DejaVuSans-100"/>
     <use x="856.298828" xlink:href="#DejaVuSans-105"/>
     <use x="884.082031" xlink:href="#DejaVuSans-109"/>
     <use x="981.494141" xlink:href="#DejaVuSans-101"/>
     <use x="1043.017578" xlink:href="#DejaVuSans-114"/>
     <use x="1084.130859" xlink:href="#DejaVuSans-112"/>
     <use x="1147.607422" xlink:href="#DejaVuSans-101"/>
     <use x="1209.130859" xlink:href="#DejaVuSans-97"/>
     <use x="1270.410156" xlink:href="#DejaVuSans-107"/>
     <use x="1326.570312" xlink:href="#DejaVuSans-97"/>
     <use x="1387.849609" xlink:href="#DejaVuSans-99"/>
     <use x="1442.830078" xlink:href="#DejaVuSans-32"/>
     <use x="1474.617188" xlink:href="#DejaVuSans-118"/>
     <use x="1533.796875" xlink:href="#DejaVuSans-115"/>
     <use x="1585.896484" xlink:href="#DejaVuSans-46"/>
     <use x="1617.683594" xlink:href="#DejaVuSans-32"/>
     <use x="1649.470703" xlink:href="#DejaVuSans-100"/>
     <use x="1712.947266" xlink:href="#DejaVuSans-101"/>
     <use x="1774.470703" xlink:href="#DejaVuSans-97"/>
     <use x="1835.75" xlink:href="#DejaVuSans-116"/>
     <use x="1874.958984" xlink:href="#DejaVuSans-104"/>
    </g>
   </g>
   <g id="legend_1">
    <g id="patch_7">
     <path d="M 296.065313 78.82825 
L 407.72 78.82825 
Q 409.72 78.82825 409.72 76.82825 
L 409.72 48.472 
Q 409.72 46.472 407.72 46.472 
L 296.065313 46.472 
Q 294.065313 46.472 294.065313 48.472 
L 294.065313 76.82825 
Q 294.065313 78.82825 296.065313 78.82825 
z
" style="fill:#ffffff;opacity:0.8;stroke:#cccccc;stroke-linejoin:miter;"/>
    </g>
    <g id="line2d_13">
     <path d="M 298.065313 54.570437 
L 318.065313 54.570437 
" style="fill:none;stroke:#ffa500;stroke-linecap:square;stroke-width:1.5;"/>
    </g>
    <g id="line2d_14"/>
    <g id="text_10">
     <!-- death (38) -->
     <defs>
      <path d="M 31 75.875 
Q 24.46875 64.65625 21.28125 53.65625 
Q 18.109375 42.671875 18.109375 31.390625 
Q 18.109375 20.125 21.3125 9.0625 
Q 24.515625 -2 31 -13.1875 
L 23.1875 -13.1875 
Q 15.875 -1.703125 12.234375 9.375 
Q 8.59375 20.453125 8.59375 31.390625 
Q 8.59375 42.28125 12.203125 53.3125 
Q 15.828125 64.359375 23.1875 75.875 
z
" id="DejaVuSans-40"/>
      <path d="M 40.578125 39.3125 
Q 47.65625 37.796875 51.625 33 
Q 55.609375 28.21875 55.609375 21.1875 
Q 55.609375 10.40625 48.1875 4.484375 
Q 40.765625 -1.421875 27.09375 -1.421875 
Q 22.515625 -1.421875 17.65625 -0.515625 
Q 12.796875 0.390625 7.625 2.203125 
L 7.625 11.71875 
Q 11.71875 9.328125 16.59375 8.109375 
Q 21.484375 6.890625 26.8125 6.890625 
Q 36.078125 6.890625 40.9375 10.546875 
Q 45.796875 14.203125 45.796875 21.1875 
Q 45.796875 27.640625 41.28125 31.265625 
Q 36.765625 34.90625 28.71875 34.90625 
L 20.21875 34.90625 
L 20.21875 43.015625 
L 29.109375 43.015625 
Q 36.375 43.015625 40.234375 45.921875 
Q 44.09375 48.828125 44.09375 54.296875 
Q 44.09375 59.90625 40.109375 62.90625 
Q 36.140625 65.921875 28.71875 65.921875 
Q 24.65625 65.921875 20.015625 65.03125 
Q 15.375 64.15625 9.8125 62.3125 
L 9.8125 71.09375 
Q 15.4375 72.65625 20.34375 73.4375 
Q 25.25 74.21875 29.59375 74.21875 
Q 40.828125 74.21875 47.359375 69.109375 
Q 53.90625 64.015625 53.90625 55.328125 
Q 53.90625 49.265625 50.4375 45.09375 
Q 46.96875 40.921875 40.578125 39.3125 
z
" id="DejaVuSans-51"/>
      <path d="M 31.78125 34.625 
Q 24.75 34.625 20.71875 30.859375 
Q 16.703125 27.09375 16.703125 20.515625 
Q 16.703125 13.921875 20.71875 10.15625 
Q 24.75 6.390625 31.78125 6.390625 
Q 38.8125 6.390625 42.859375 10.171875 
Q 46.921875 13.96875 46.921875 20.515625 
Q 46.921875 27.09375 42.890625 30.859375 
Q 38.875 34.625 31.78125 34.625 
z
M 21.921875 38.8125 
Q 15.578125 40.375 12.03125 44.71875 
Q 8.5 49.078125 8.5 55.328125 
Q 8.5 64.0625 14.71875 69.140625 
Q 20.953125 74.21875 31.78125 74.21875 
Q 42.671875 74.21875 48.875 69.140625 
Q 55.078125 64.0625 55.078125 55.328125 
Q 55.078125 49.078125 51.53125 44.71875 
Q 48 40.375 41.703125 38.8125 
Q 48.828125 37.15625 52.796875 32.3125 
Q 56.78125 27.484375 56.78125 20.515625 
Q 56.78125 9.90625 50.3125 4.234375 
Q 43.84375 -1.421875 31.78125 -1.421875 
Q 19.734375 -1.421875 13.25 4.234375 
Q 6.78125 9.90625 6.78125 20.515625 
Q 6.78125 27.484375 10.78125 32.3125 
Q 14.796875 37.15625 21.921875 38.8125 
z
M 18.3125 54.390625 
Q 18.3125 48.734375 21.84375 45.5625 
Q 25.390625 42.390625 31.78125 42.390625 
Q 38.140625 42.390625 41.71875 45.5625 
Q 45.3125 48.734375 45.3125 54.390625 
Q 45.3125 60.0625 41.71875 63.234375 
Q 38.140625 66.40625 31.78125 66.40625 
Q 25.390625 66.40625 21.84375 63.234375 
Q 18.3125 60.0625 18.3125 54.390625 
z
" id="DejaVuSans-56"/>
      <path d="M 8.015625 75.875 
L 15.828125 75.875 
Q 23.140625 64.359375 26.78125 53.3125 
Q 30.421875 42.28125 30.421875 31.390625 
Q 30.421875 20.453125 26.78125 9.375 
Q 23.140625 -1.703125 15.828125 -13.1875 
L 8.015625 -13.1875 
Q 14.5 -2 17.703125 9.0625 
Q 20.90625 20.125 20.90625 31.390625 
Q 20.90625 42.671875 17.703125 53.65625 
Q 14.5 64.65625 8.015625 75.875 
z
" id="DejaVuSans-41"/>
     </defs>
     <g transform="translate(326.065313 58.070437)scale(0.1 -0.1)">
      <use xlink:href="#DejaVuSans-100"/>
      <use x="63.476562" xlink:href="#DejaVuSans-101"/>
      <use x="125" xlink:href="#DejaVuSans-97"/>
      <use x="186.279297" xlink:href="#DejaVuSans-116"/>
      <use x="225.488281" xlink:href="#DejaVuSans-104"/>
      <use x="288.867188" xlink:href="#DejaVuSans-32"/>
      <use x="320.654297" xlink:href="#DejaVuSans-40"/>
      <use x="359.667969" xlink:href="#DejaVuSans-51"/>
      <use x="423.291016" xlink:href="#DejaVuSans-56"/>
      <use x="486.914062" xlink:href="#DejaVuSans-41"/>
     </g>
    </g>
    <g id="line2d_15">
     <path d="M 298.065313 69.248562 
L 318.065313 69.248562 
" style="fill:none;stroke:#008000;stroke-linecap:square;stroke-width:1.5;"/>
    </g>
    <g id="line2d_16"/>
    <g id="text_11">
     <!-- Not death (107) -->
     <defs>
      <path d="M 9.8125 72.90625 
L 23.09375 72.90625 
L 55.421875 11.921875 
L 55.421875 72.90625 
L 64.984375 72.90625 
L 64.984375 0 
L 51.703125 0 
L 19.390625 60.984375 
L 19.390625 0 
L 9.8125 0 
z
" id="DejaVuSans-78"/>
      <path d="M 8.203125 72.90625 
L 55.078125 72.90625 
L 55.078125 68.703125 
L 28.609375 0 
L 18.3125 0 
L 43.21875 64.59375 
L 8.203125 64.59375 
z
" id="DejaVuSans-55"/>
     </defs>
     <g transform="translate(326.065313 72.748562)scale(0.1 -0.1)">
      <use xlink:href="#DejaVuSans-78"/>
      <use x="74.804688" xlink:href="#DejaVuSans-111"/>
      <use x="135.986328" xlink:href="#DejaVuSans-116"/>
      <use x="175.195312" xlink:href="#DejaVuSans-32"/>
      <use x="206.982422" xlink:href="#DejaVuSans-100"/>
      <use x="270.458984" xlink:href="#DejaVuSans-101"/>
      <use x="331.982422" xlink:href="#DejaVuSans-97"/>
      <use x="393.261719" xlink:href="#DejaVuSans-116"/>
      <use x="432.470703" xlink:href="#DejaVuSans-104"/>
      <use x="495.849609" xlink:href="#DejaVuSans-32"/>
      <use x="527.636719" xlink:href="#DejaVuSans-40"/>
      <use x="566.650391" xlink:href="#DejaVuSans-49"/>
      <use x="630.273438" xlink:href="#DejaVuSans-48"/>
      <use x="693.896484" xlink:href="#DejaVuSans-55"/>
      <use x="757.519531" xlink:href="#DejaVuSans-41"/>
     </g>
    </g>
   </g>
  </g>
 </g>
 <defs>
  <clipPath id="p6a198eee85">
   <rect height="266.112" width="357.12" x="57.6" y="41.472"/>
  </clipPath>
 </defs>
</svg>
