<?xml version="1.0" encoding="utf-8" standalone="no"?>
<!DOCTYPE svg PUBLIC "-//W3C//DTD SVG 1.1//EN"
  "http://www.w3.org/Graphics/SVG/1.1/DTD/svg11.dtd">
<!-- Created with matplotlib (https://matplotlib.org/) -->
<svg height="345.6pt" version="1.1" viewBox="0 0 460.8 345.6" width="460.8pt" xmlns="http://www.w3.org/2000/svg" xmlns:xlink="http://www.w3.org/1999/xlink">
 <defs>
  <style type="text/css">
*{stroke-linecap:butt;stroke-linejoin:round;}
  </style>
 </defs>
 <g id="figure_1">
  <g id="patch_1">
   <path d="M 0 345.6 
L 460.8 345.6 
L 460.8 0 
L 0 0 
z
" style="fill:#ffffff;"/>
  </g>
  <g id="axes_1">
   <g id="patch_2">
    <path d="M 57.6 307.584 
L 414.72 307.584 
L 414.72 41.472 
L 57.6 41.472 
z
" style="fill:#ffffff;"/>
   </g>
   <g id="PolyCollection_1">
    <defs>
     <path d="M 73.832727 -157.182322 
L 73.832727 -184.961678 
L 77.112066 -188.827802 
L 80.391405 -193.433963 
L 83.670744 -198.818521 
L 86.950083 -204.991109 
L 90.229421 -211.925281 
L 93.50876 -219.552428 
L 96.788099 -227.757842 
L 100.067438 -236.379708 
L 103.346777 -245.211655 
L 106.626116 -254.009185 
L 109.905455 -262.499945 
L 113.184793 -270.39734 
L 116.464132 -277.416624 
L 119.743471 -283.292208 
L 123.02281 -287.794702 
L 126.302149 -290.746148 
L 129.581488 -292.032 
L 132.860826 -291.608703 
L 136.140165 -289.506152 
L 139.419504 -285.824837 
L 142.698843 -280.728013 
L 145.978182 -274.429746 
L 149.257521 -267.180038 
L 152.53686 -259.248471 
L 155.816198 -250.907855 
L 159.095537 -242.419224 
L 162.374876 -234.019276 
L 165.654215 -225.910977 
L 168.933554 -218.257682 
L 172.212893 -211.180711 
L 175.492231 -204.760034 
L 178.77157 -199.037484 
L 182.050909 -194.02177 
L 185.330248 -189.694569 
L 188.609587 -186.017006 
L 191.888926 -182.935954 
L 195.168264 -180.389744 
L 198.447603 -178.312994 
L 201.726942 -176.640462 
L 205.006281 -175.309889 
L 208.28562 -174.263918 
L 211.564959 -173.451224 
L 214.844298 -172.827004 
L 218.123636 -172.352988 
L 221.402975 -171.997111 
L 224.682314 -171.73298 
L 227.961653 -171.539228 
L 231.240992 -171.39883 
L 234.520331 -171.298433 
L 237.799669 -171.227738 
L 241.079008 -171.178951 
L 244.358347 -171.146313 
L 247.637686 -171.125711 
L 250.917025 -171.114364 
L 254.196364 -171.110594 
L 257.475702 -171.113649 
L 260.755041 -171.123589 
L 264.03438 -171.141212 
L 267.313719 -171.168015 
L 270.593058 -171.206164 
L 273.872397 -171.258476 
L 277.151736 -171.328366 
L 280.431074 -171.419779 
L 283.710413 -171.537054 
L 286.989752 -171.684733 
L 290.269091 -171.867293 
L 293.54843 -172.088802 
L 296.827769 -172.352516 
L 300.107107 -172.660424 
L 303.386446 -173.012789 
L 306.665785 -173.407714 
L 309.945124 -173.840789 
L 313.224463 -174.304874 
L 316.503802 -174.790059 
L 319.78314 -175.283845 
L 323.062479 -175.771558 
L 326.341818 -176.236998 
L 329.621157 -176.663288 
L 332.900496 -177.033864 
L 336.179835 -177.333536 
L 339.459174 -177.549511 
L 342.738512 -177.672305 
L 346.017851 -177.696428 
L 349.29719 -177.620794 
L 352.576529 -177.4488 
L 355.855868 -177.188075 
L 359.135207 -176.849917 
L 362.414545 -176.448484 
L 365.693884 -175.99981 
L 368.973223 -175.520751 
L 372.252562 -175.02795 
L 375.531901 -174.536911 
L 378.81124 -174.061247 
L 382.090579 -173.612154 
L 385.369917 -173.198116 
L 388.649256 -172.82484 
L 391.928595 -172.495398 
L 395.207934 -172.210515 
L 398.487273 -171.968974 
L 398.487273 -170.175026 
L 398.487273 -170.175026 
L 395.207934 -169.933485 
L 391.928595 -169.648602 
L 388.649256 -169.31916 
L 385.369917 -168.945884 
L 382.090579 -168.531846 
L 378.81124 -168.082753 
L 375.531901 -167.607089 
L 372.252562 -167.11605 
L 368.973223 -166.623249 
L 365.693884 -166.14419 
L 362.414545 -165.695516 
L 359.135207 -165.294083 
L 355.855868 -164.955925 
L 352.576529 -164.6952 
L 349.29719 -164.523206 
L 346.017851 -164.447572 
L 342.738512 -164.471695 
L 339.459174 -164.594489 
L 336.179835 -164.810464 
L 332.900496 -165.110136 
L 329.621157 -165.480712 
L 326.341818 -165.907002 
L 323.062479 -166.372442 
L 319.78314 -166.860155 
L 316.503802 -167.353941 
L 313.224463 -167.839126 
L 309.945124 -168.303211 
L 306.665785 -168.736286 
L 303.386446 -169.131211 
L 300.107107 -169.483576 
L 296.827769 -169.791484 
L 293.54843 -170.055198 
L 290.269091 -170.276707 
L 286.989752 -170.459267 
L 283.710413 -170.606946 
L 280.431074 -170.724221 
L 277.151736 -170.815634 
L 273.872397 -170.885524 
L 270.593058 -170.937836 
L 267.313719 -170.975985 
L 264.03438 -171.002788 
L 260.755041 -171.020411 
L 257.475702 -171.030351 
L 254.196364 -171.033406 
L 250.917025 -171.029636 
L 247.637686 -171.018289 
L 244.358347 -170.997687 
L 241.079008 -170.965049 
L 237.799669 -170.916262 
L 234.520331 -170.845567 
L 231.240992 -170.74517 
L 227.961653 -170.604772 
L 224.682314 -170.41102 
L 221.402975 -170.146889 
L 218.123636 -169.791012 
L 214.844298 -169.316996 
L 211.564959 -168.692776 
L 208.28562 -167.880082 
L 205.006281 -166.834111 
L 201.726942 -165.503538 
L 198.447603 -163.831006 
L 195.168264 -161.754256 
L 191.888926 -159.208046 
L 188.609587 -156.126994 
L 185.330248 -152.449431 
L 182.050909 -148.12223 
L 178.77157 -143.106516 
L 175.492231 -137.383966 
L 172.212893 -130.963289 
L 168.933554 -123.886318 
L 165.654215 -116.233023 
L 162.374876 -108.124724 
L 159.095537 -99.724776 
L 155.816198 -91.236145 
L 152.53686 -82.895529 
L 149.257521 -74.963962 
L 145.978182 -67.714254 
L 142.698843 -61.415987 
L 139.419504 -56.319163 
L 136.140165 -52.637848 
L 132.860826 -50.535297 
L 129.581488 -50.112 
L 126.302149 -51.397852 
L 123.02281 -54.349298 
L 119.743471 -58.851792 
L 116.464132 -64.727376 
L 113.184793 -71.74666 
L 109.905455 -79.644055 
L 106.626116 -88.134815 
L 103.346777 -96.932345 
L 100.067438 -105.764292 
L 96.788099 -114.386158 
L 93.50876 -122.591572 
L 90.229421 -130.218719 
L 86.950083 -137.152891 
L 83.670744 -143.325479 
L 80.391405 -148.710037 
L 77.112066 -153.316198 
L 73.832727 -157.182322 
z
" id="m4c8223f645" style="stroke:#4c4c4c;stroke-opacity:0.5;stroke-width:1.5;"/>
    </defs>
    <g clip-path="url(#pbb60bd63e8)">
     <use style="fill:#df9c20;fill-opacity:0.5;stroke:#4c4c4c;stroke-opacity:0.5;stroke-width:1.5;" x="0" xlink:href="#m4c8223f645" y="345.6"/>
    </g>
   </g>
   <g id="PolyCollection_2">
    <defs>
     <path d="M 108.123812 -157.857471 
L 108.123812 -184.286529 
L 110.710402 -193.455735 
L 113.296992 -206.34454 
L 115.883581 -222.79396 
L 118.470171 -241.669051 
L 121.05676 -260.804773 
L 123.64335 -277.341126 
L 126.22994 -288.421733 
L 128.816529 -292.032 
L 131.403119 -287.637978 
L 133.989709 -276.34428 
L 136.576298 -260.503347 
L 139.162888 -242.959206 
L 141.749478 -226.252524 
L 144.336067 -212.081246 
L 146.922657 -201.146205 
L 149.509247 -193.325871 
L 152.095836 -188.015818 
L 154.682426 -184.465105 
L 157.269016 -182.008122 
L 159.855605 -180.169217 
L 162.442195 -178.669246 
L 165.028785 -177.379446 
L 167.615374 -176.26089 
L 170.201964 -175.312892 
L 172.788554 -174.540206 
L 175.375143 -173.939259 
L 177.961733 -173.497543 
L 180.548322 -173.197961 
L 183.134912 -173.021466 
L 185.721502 -172.945699 
L 188.308091 -172.941779 
L 190.894681 -172.973221 
L 193.481271 -172.999587 
L 196.06786 -172.984166 
L 198.65445 -172.902415 
L 201.24104 -172.747369 
L 203.827629 -172.529874 
L 206.414219 -172.273893 
L 209.000809 -172.009026 
L 211.587398 -171.763048 
L 214.173988 -171.556728 
L 216.760578 -171.401911 
L 219.347167 -171.302498 
L 221.933757 -171.256945 
L 224.520347 -171.260594 
L 227.106936 -171.306664 
L 229.693526 -171.38572 
L 232.280116 -171.484542 
L 234.866705 -171.585906 
L 237.453295 -171.670445 
L 240.039884 -171.720606 
L 242.626474 -171.725329 
L 245.213064 -171.683332 
L 247.799653 -171.603314 
L 250.386243 -171.500877 
L 252.972833 -171.393525 
L 255.559422 -171.295869 
L 258.146012 -171.216768 
L 260.732602 -171.158946 
L 263.319191 -171.120498 
L 265.905781 -171.097124 
L 268.492371 -171.084088 
L 271.07896 -171.077402 
L 273.66555 -171.074242 
L 276.25214 -171.072865 
L 278.838729 -171.072312 
L 281.425319 -171.072112 
L 284.011909 -171.072065 
L 286.598498 -171.072116 
L 289.185088 -171.072323 
L 291.771678 -171.072893 
L 294.358267 -171.07431 
L 296.944857 -171.077553 
L 299.531446 -171.084404 
L 302.118036 -171.097739 
L 304.704626 -171.121632 
L 307.291215 -171.160966 
L 309.877805 -171.220347 
L 312.464395 -171.302353 
L 315.050984 -171.405717 
L 317.637574 -171.524432 
L 320.224164 -171.648825 
L 322.810753 -171.768808 
L 325.397343 -171.878162 
L 327.983933 -171.977496 
L 330.570522 -172.073556 
L 333.157112 -172.174259 
L 335.743702 -172.281473 
L 338.330291 -172.38559 
L 340.916881 -172.465606 
L 343.503471 -172.495746 
L 346.09006 -172.455854 
L 348.67665 -172.340469 
L 351.26324 -172.162029 
L 353.849829 -171.946871 
L 356.436419 -171.726341 
L 359.023008 -171.527429 
L 361.609598 -171.366741 
L 364.196188 -171.249278 
L 364.196188 -170.894722 
L 364.196188 -170.894722 
L 361.609598 -170.777259 
L 359.023008 -170.616571 
L 356.436419 -170.417659 
L 353.849829 -170.197129 
L 351.26324 -169.981971 
L 348.67665 -169.803531 
L 346.09006 -169.688146 
L 343.503471 -169.648254 
L 340.916881 -169.678394 
L 338.330291 -169.75841 
L 335.743702 -169.862527 
L 333.157112 -169.969741 
L 330.570522 -170.070444 
L 327.983933 -170.166504 
L 325.397343 -170.265838 
L 322.810753 -170.375192 
L 320.224164 -170.495175 
L 317.637574 -170.619568 
L 315.050984 -170.738283 
L 312.464395 -170.841647 
L 309.877805 -170.923653 
L 307.291215 -170.983034 
L 304.704626 -171.022368 
L 302.118036 -171.046261 
L 299.531446 -171.059596 
L 296.944857 -171.066447 
L 294.358267 -171.06969 
L 291.771678 -171.071107 
L 289.185088 -171.071677 
L 286.598498 -171.071884 
L 284.011909 -171.071935 
L 281.425319 -171.071888 
L 278.838729 -171.071688 
L 276.25214 -171.071135 
L 273.66555 -171.069758 
L 271.07896 -171.066598 
L 268.492371 -171.059912 
L 265.905781 -171.046876 
L 263.319191 -171.023502 
L 260.732602 -170.985054 
L 258.146012 -170.927232 
L 255.559422 -170.848131 
L 252.972833 -170.750475 
L 250.386243 -170.643123 
L 247.799653 -170.540686 
L 245.213064 -170.460668 
L 242.626474 -170.418671 
L 240.039884 -170.423394 
L 237.453295 -170.473555 
L 234.866705 -170.558094 
L 232.280116 -170.659458 
L 229.693526 -170.75828 
L 227.106936 -170.837336 
L 224.520347 -170.883406 
L 221.933757 -170.887055 
L 219.347167 -170.841502 
L 216.760578 -170.742089 
L 214.173988 -170.587272 
L 211.587398 -170.380952 
L 209.000809 -170.134974 
L 206.414219 -169.870107 
L 203.827629 -169.614126 
L 201.24104 -169.396631 
L 198.65445 -169.241585 
L 196.06786 -169.159834 
L 193.481271 -169.144413 
L 190.894681 -169.170779 
L 188.308091 -169.202221 
L 185.721502 -169.198301 
L 183.134912 -169.122534 
L 180.548322 -168.946039 
L 177.961733 -168.646457 
L 175.375143 -168.204741 
L 172.788554 -167.603794 
L 170.201964 -166.831108 
L 167.615374 -165.88311 
L 165.028785 -164.764554 
L 162.442195 -163.474754 
L 159.855605 -161.974783 
L 157.269016 -160.135878 
L 154.682426 -157.678895 
L 152.095836 -154.128182 
L 149.509247 -148.818129 
L 146.922657 -140.997795 
L 144.336067 -130.062754 
L 141.749478 -115.891476 
L 139.162888 -99.184794 
L 136.576298 -81.640653 
L 133.989709 -65.79972 
L 131.403119 -54.506022 
L 128.816529 -50.112 
L 126.22994 -53.722267 
L 123.64335 -64.802874 
L 121.05676 -81.339227 
L 118.470171 -100.474949 
L 115.883581 -119.35004 
L 113.296992 -135.79946 
L 110.710402 -148.688265 
L 108.123812 -157.857471 
z
" id="m24eef1da2d" style="stroke:#262626;stroke-opacity:0.5;stroke-width:1.5;"/>
    </defs>
    <g clip-path="url(#pbb60bd63e8)">
     <use style="fill:#107010;fill-opacity:0.5;stroke:#262626;stroke-opacity:0.5;stroke-width:1.5;" x="0" xlink:href="#m24eef1da2d" y="345.6"/>
    </g>
   </g>
   <g id="matplotlib.axis_1">
    <g id="xtick_1">
     <g id="line2d_1">
      <defs>
       <path d="M 0 0 
L 0 3.5 
" id="m393d1b4ad2" style="stroke:#000000;stroke-width:0.8;"/>
      </defs>
      <g>
       <use style="stroke:#000000;stroke-width:0.8;" x="83.03271" xlink:href="#m393d1b4ad2" y="307.584"/>
      </g>
     </g>
     <g id="text_1">
      <!-- −10 -->
      <defs>
       <path d="M 10.59375 35.5 
L 73.1875 35.5 
L 73.1875 27.203125 
L 10.59375 27.203125 
z
" id="DejaVuSans-8722"/>
       <path d="M 12.40625 8.296875 
L 28.515625 8.296875 
L 28.515625 63.921875 
L 10.984375 60.40625 
L 10.984375 69.390625 
L 28.421875 72.90625 
L 38.28125 72.90625 
L 38.28125 8.296875 
L 54.390625 8.296875 
L 54.390625 0 
L 12.40625 0 
z
" id="DejaVuSans-49"/>
       <path d="M 31.78125 66.40625 
Q 24.171875 66.40625 20.328125 58.90625 
Q 16.5 51.421875 16.5 36.375 
Q 16.5 21.390625 20.328125 13.890625 
Q 24.171875 6.390625 31.78125 6.390625 
Q 39.453125 6.390625 43.28125 13.890625 
Q 47.125 21.390625 47.125 36.375 
Q 47.125 51.421875 43.28125 58.90625 
Q 39.453125 66.40625 31.78125 66.40625 
z
M 31.78125 74.21875 
Q 44.046875 74.21875 50.515625 64.515625 
Q 56.984375 54.828125 56.984375 36.375 
Q 56.984375 17.96875 50.515625 8.265625 
Q 44.046875 -1.421875 31.78125 -1.421875 
Q 19.53125 -1.421875 13.0625 8.265625 
Q 6.59375 17.96875 6.59375 36.375 
Q 6.59375 54.828125 13.0625 64.515625 
Q 19.53125 74.21875 31.78125 74.21875 
z
" id="DejaVuSans-48"/>
      </defs>
      <g transform="translate(72.480366 322.182437)scale(0.1 -0.1)">
       <use xlink:href="#DejaVuSans-8722"/>
       <use x="83.789062" xlink:href="#DejaVuSans-49"/>
       <use x="147.412109" xlink:href="#DejaVuSans-48"/>
      </g>
     </g>
    </g>
    <g id="xtick_2">
     <g id="line2d_2">
      <g>
       <use style="stroke:#000000;stroke-width:0.8;" x="126.714783" xlink:href="#m393d1b4ad2" y="307.584"/>
      </g>
     </g>
     <g id="text_2">
      <!-- 0 -->
      <g transform="translate(123.533533 322.182437)scale(0.1 -0.1)">
       <use xlink:href="#DejaVuSans-48"/>
      </g>
     </g>
    </g>
    <g id="xtick_3">
     <g id="line2d_3">
      <g>
       <use style="stroke:#000000;stroke-width:0.8;" x="170.396857" xlink:href="#m393d1b4ad2" y="307.584"/>
      </g>
     </g>
     <g id="text_3">
      <!-- 10 -->
      <g transform="translate(164.034357 322.182437)scale(0.1 -0.1)">
       <use xlink:href="#DejaVuSans-49"/>
       <use x="63.623047" xlink:href="#DejaVuSans-48"/>
      </g>
     </g>
    </g>
    <g id="xtick_4">
     <g id="line2d_4">
      <g>
       <use style="stroke:#000000;stroke-width:0.8;" x="214.07893" xlink:href="#m393d1b4ad2" y="307.584"/>
      </g>
     </g>
     <g id="text_4">
      <!-- 20 -->
      <defs>
       <path d="M 19.1875 8.296875 
L 53.609375 8.296875 
L 53.609375 0 
L 7.328125 0 
L 7.328125 8.296875 
Q 12.9375 14.109375 22.625 23.890625 
Q 32.328125 33.6875 34.8125 36.53125 
Q 39.546875 41.84375 41.421875 45.53125 
Q 43.3125 49.21875 43.3125 52.78125 
Q 43.3125 58.59375 39.234375 62.25 
Q 35.15625 65.921875 28.609375 65.921875 
Q 23.96875 65.921875 18.8125 64.3125 
Q 13.671875 62.703125 7.8125 59.421875 
L 7.8125 69.390625 
Q 13.765625 71.78125 18.9375 73 
Q 24.125 74.21875 28.421875 74.21875 
Q 39.75 74.21875 46.484375 68.546875 
Q 53.21875 62.890625 53.21875 53.421875 
Q 53.21875 48.921875 51.53125 44.890625 
Q 49.859375 40.875 45.40625 35.40625 
Q 44.1875 33.984375 37.640625 27.21875 
Q 31.109375 20.453125 19.1875 8.296875 
z
" id="DejaVuSans-50"/>
      </defs>
      <g transform="translate(207.71643 322.182437)scale(0.1 -0.1)">
       <use xlink:href="#DejaVuSans-50"/>
       <use x="63.623047" xlink:href="#DejaVuSans-48"/>
      </g>
     </g>
    </g>
    <g id="xtick_5">
     <g id="line2d_5">
      <g>
       <use style="stroke:#000000;stroke-width:0.8;" x="257.761004" xlink:href="#m393d1b4ad2" y="307.584"/>
      </g>
     </g>
     <g id="text_5">
      <!-- 30 -->
      <defs>
       <path d="M 40.578125 39.3125 
Q 47.65625 37.796875 51.625 33 
Q 55.609375 28.21875 55.609375 21.1875 
Q 55.609375 10.40625 48.1875 4.484375 
Q 40.765625 -1.421875 27.09375 -1.421875 
Q 22.515625 -1.421875 17.65625 -0.515625 
Q 12.796875 0.390625 7.625 2.203125 
L 7.625 11.71875 
Q 11.71875 9.328125 16.59375 8.109375 
Q 21.484375 6.890625 26.8125 6.890625 
Q 36.078125 6.890625 40.9375 10.546875 
Q 45.796875 14.203125 45.796875 21.1875 
Q 45.796875 27.640625 41.28125 31.265625 
Q 36.765625 34.90625 28.71875 34.90625 
L 20.21875 34.90625 
L 20.21875 43.015625 
L 29.109375 43.015625 
Q 36.375 43.015625 40.234375 45.921875 
Q 44.09375 48.828125 44.09375 54.296875 
Q 44.09375 59.90625 40.109375 62.90625 
Q 36.140625 65.921875 28.71875 65.921875 
Q 24.65625 65.921875 20.015625 65.03125 
Q 15.375 64.15625 9.8125 62.3125 
L 9.8125 71.09375 
Q 15.4375 72.65625 20.34375 73.4375 
Q 25.25 74.21875 29.59375 74.21875 
Q 40.828125 74.21875 47.359375 69.109375 
Q 53.90625 64.015625 53.90625 55.328125 
Q 53.90625 49.265625 50.4375 45.09375 
Q 46.96875 40.921875 40.578125 39.3125 
z
" id="DejaVuSans-51"/>
      </defs>
      <g transform="translate(251.398504 322.182437)scale(0.1 -0.1)">
       <use xlink:href="#DejaVuSans-51"/>
       <use x="63.623047" xlink:href="#DejaVuSans-48"/>
      </g>
     </g>
    </g>
    <g id="xtick_6">
     <g id="line2d_6">
      <g>
       <use style="stroke:#000000;stroke-width:0.8;" x="301.443077" xlink:href="#m393d1b4ad2" y="307.584"/>
      </g>
     </g>
     <g id="text_6">
      <!-- 40 -->
      <defs>
       <path d="M 37.796875 64.3125 
L 12.890625 25.390625 
L 37.796875 25.390625 
z
M 35.203125 72.90625 
L 47.609375 72.90625 
L 47.609375 25.390625 
L 58.015625 25.390625 
L 58.015625 17.1875 
L 47.609375 17.1875 
L 47.609375 0 
L 37.796875 0 
L 37.796875 17.1875 
L 4.890625 17.1875 
L 4.890625 26.703125 
z
" id="DejaVuSans-52"/>
      </defs>
      <g transform="translate(295.080577 322.182437)scale(0.1 -0.1)">
       <use xlink:href="#DejaVuSans-52"/>
       <use x="63.623047" xlink:href="#DejaVuSans-48"/>
      </g>
     </g>
    </g>
    <g id="xtick_7">
     <g id="line2d_7">
      <g>
       <use style="stroke:#000000;stroke-width:0.8;" x="345.125151" xlink:href="#m393d1b4ad2" y="307.584"/>
      </g>
     </g>
     <g id="text_7">
      <!-- 50 -->
      <defs>
       <path d="M 10.796875 72.90625 
L 49.515625 72.90625 
L 49.515625 64.59375 
L 19.828125 64.59375 
L 19.828125 46.734375 
Q 21.96875 47.46875 24.109375 47.828125 
Q 26.265625 48.1875 28.421875 48.1875 
Q 40.625 48.1875 47.75 41.5 
Q 54.890625 34.8125 54.890625 23.390625 
Q 54.890625 11.625 47.5625 5.09375 
Q 40.234375 -1.421875 26.90625 -1.421875 
Q 22.3125 -1.421875 17.546875 -0.640625 
Q 12.796875 0.140625 7.71875 1.703125 
L 7.71875 11.625 
Q 12.109375 9.234375 16.796875 8.0625 
Q 21.484375 6.890625 26.703125 6.890625 
Q 35.15625 6.890625 40.078125 11.328125 
Q 45.015625 15.765625 45.015625 23.390625 
Q 45.015625 31 40.078125 35.4375 
Q 35.15625 39.890625 26.703125 39.890625 
Q 22.75 39.890625 18.8125 39.015625 
Q 14.890625 38.140625 10.796875 36.28125 
z
" id="DejaVuSans-53"/>
      </defs>
      <g transform="translate(338.762651 322.182437)scale(0.1 -0.1)">
       <use xlink:href="#DejaVuSans-53"/>
       <use x="63.623047" xlink:href="#DejaVuSans-48"/>
      </g>
     </g>
    </g>
    <g id="xtick_8">
     <g id="line2d_8">
      <g>
       <use style="stroke:#000000;stroke-width:0.8;" x="388.807224" xlink:href="#m393d1b4ad2" y="307.584"/>
      </g>
     </g>
     <g id="text_8">
      <!-- 60 -->
      <defs>
       <path d="M 33.015625 40.375 
Q 26.375 40.375 22.484375 35.828125 
Q 18.609375 31.296875 18.609375 23.390625 
Q 18.609375 15.53125 22.484375 10.953125 
Q 26.375 6.390625 33.015625 6.390625 
Q 39.65625 6.390625 43.53125 10.953125 
Q 47.40625 15.53125 47.40625 23.390625 
Q 47.40625 31.296875 43.53125 35.828125 
Q 39.65625 40.375 33.015625 40.375 
z
M 52.59375 71.296875 
L 52.59375 62.3125 
Q 48.875 64.0625 45.09375 64.984375 
Q 41.3125 65.921875 37.59375 65.921875 
Q 27.828125 65.921875 22.671875 59.328125 
Q 17.53125 52.734375 16.796875 39.40625 
Q 19.671875 43.65625 24.015625 45.921875 
Q 28.375 48.1875 33.59375 48.1875 
Q 44.578125 48.1875 50.953125 41.515625 
Q 57.328125 34.859375 57.328125 23.390625 
Q 57.328125 12.15625 50.6875 5.359375 
Q 44.046875 -1.421875 33.015625 -1.421875 
Q 20.359375 -1.421875 13.671875 8.265625 
Q 6.984375 17.96875 6.984375 36.375 
Q 6.984375 53.65625 15.1875 63.9375 
Q 23.390625 74.21875 37.203125 74.21875 
Q 40.921875 74.21875 44.703125 73.484375 
Q 48.484375 72.75 52.59375 71.296875 
z
" id="DejaVuSans-54"/>
      </defs>
      <g transform="translate(382.444724 322.182437)scale(0.1 -0.1)">
       <use xlink:href="#DejaVuSans-54"/>
       <use x="63.623047" xlink:href="#DejaVuSans-48"/>
      </g>
     </g>
    </g>
    <g id="text_9">
     <!-- procaladmac -->
     <defs>
      <path d="M 18.109375 8.203125 
L 18.109375 -20.796875 
L 9.078125 -20.796875 
L 9.078125 54.6875 
L 18.109375 54.6875 
L 18.109375 46.390625 
Q 20.953125 51.265625 25.265625 53.625 
Q 29.59375 56 35.59375 56 
Q 45.5625 56 51.78125 48.09375 
Q 58.015625 40.1875 58.015625 27.296875 
Q 58.015625 14.40625 51.78125 6.484375 
Q 45.5625 -1.421875 35.59375 -1.421875 
Q 29.59375 -1.421875 25.265625 0.953125 
Q 20.953125 3.328125 18.109375 8.203125 
z
M 48.6875 27.296875 
Q 48.6875 37.203125 44.609375 42.84375 
Q 40.53125 48.484375 33.40625 48.484375 
Q 26.265625 48.484375 22.1875 42.84375 
Q 18.109375 37.203125 18.109375 27.296875 
Q 18.109375 17.390625 22.1875 11.75 
Q 26.265625 6.109375 33.40625 6.109375 
Q 40.53125 6.109375 44.609375 11.75 
Q 48.6875 17.390625 48.6875 27.296875 
z
" id="DejaVuSans-112"/>
      <path d="M 41.109375 46.296875 
Q 39.59375 47.171875 37.8125 47.578125 
Q 36.03125 48 33.890625 48 
Q 26.265625 48 22.1875 43.046875 
Q 18.109375 38.09375 18.109375 28.8125 
L 18.109375 0 
L 9.078125 0 
L 9.078125 54.6875 
L 18.109375 54.6875 
L 18.109375 46.1875 
Q 20.953125 51.171875 25.484375 53.578125 
Q 30.03125 56 36.53125 56 
Q 37.453125 56 38.578125 55.875 
Q 39.703125 55.765625 41.0625 55.515625 
z
" id="DejaVuSans-114"/>
      <path d="M 30.609375 48.390625 
Q 23.390625 48.390625 19.1875 42.75 
Q 14.984375 37.109375 14.984375 27.296875 
Q 14.984375 17.484375 19.15625 11.84375 
Q 23.34375 6.203125 30.609375 6.203125 
Q 37.796875 6.203125 41.984375 11.859375 
Q 46.1875 17.53125 46.1875 27.296875 
Q 46.1875 37.015625 41.984375 42.703125 
Q 37.796875 48.390625 30.609375 48.390625 
z
M 30.609375 56 
Q 42.328125 56 49.015625 48.375 
Q 55.71875 40.765625 55.71875 27.296875 
Q 55.71875 13.875 49.015625 6.21875 
Q 42.328125 -1.421875 30.609375 -1.421875 
Q 18.84375 -1.421875 12.171875 6.21875 
Q 5.515625 13.875 5.515625 27.296875 
Q 5.515625 40.765625 12.171875 48.375 
Q 18.84375 56 30.609375 56 
z
" id="DejaVuSans-111"/>
      <path d="M 48.78125 52.59375 
L 48.78125 44.1875 
Q 44.96875 46.296875 41.140625 47.34375 
Q 37.3125 48.390625 33.40625 48.390625 
Q 24.65625 48.390625 19.8125 42.84375 
Q 14.984375 37.3125 14.984375 27.296875 
Q 14.984375 17.28125 19.8125 11.734375 
Q 24.65625 6.203125 33.40625 6.203125 
Q 37.3125 6.203125 41.140625 7.25 
Q 44.96875 8.296875 48.78125 10.40625 
L 48.78125 2.09375 
Q 45.015625 0.34375 40.984375 -0.53125 
Q 36.96875 -1.421875 32.421875 -1.421875 
Q 20.0625 -1.421875 12.78125 6.34375 
Q 5.515625 14.109375 5.515625 27.296875 
Q 5.515625 40.671875 12.859375 48.328125 
Q 20.21875 56 33.015625 56 
Q 37.15625 56 41.109375 55.140625 
Q 45.0625 54.296875 48.78125 52.59375 
z
" id="DejaVuSans-99"/>
      <path d="M 34.28125 27.484375 
Q 23.390625 27.484375 19.1875 25 
Q 14.984375 22.515625 14.984375 16.5 
Q 14.984375 11.71875 18.140625 8.90625 
Q 21.296875 6.109375 26.703125 6.109375 
Q 34.1875 6.109375 38.703125 11.40625 
Q 43.21875 16.703125 43.21875 25.484375 
L 43.21875 27.484375 
z
M 52.203125 31.203125 
L 52.203125 0 
L 43.21875 0 
L 43.21875 8.296875 
Q 40.140625 3.328125 35.546875 0.953125 
Q 30.953125 -1.421875 24.3125 -1.421875 
Q 15.921875 -1.421875 10.953125 3.296875 
Q 6 8.015625 6 15.921875 
Q 6 25.140625 12.171875 29.828125 
Q 18.359375 34.515625 30.609375 34.515625 
L 43.21875 34.515625 
L 43.21875 35.40625 
Q 43.21875 41.609375 39.140625 45 
Q 35.0625 48.390625 27.6875 48.390625 
Q 23 48.390625 18.546875 47.265625 
Q 14.109375 46.140625 10.015625 43.890625 
L 10.015625 52.203125 
Q 14.9375 54.109375 19.578125 55.046875 
Q 24.21875 56 28.609375 56 
Q 40.484375 56 46.34375 49.84375 
Q 52.203125 43.703125 52.203125 31.203125 
z
" id="DejaVuSans-97"/>
      <path d="M 9.421875 75.984375 
L 18.40625 75.984375 
L 18.40625 0 
L 9.421875 0 
z
" id="DejaVuSans-108"/>
      <path d="M 45.40625 46.390625 
L 45.40625 75.984375 
L 54.390625 75.984375 
L 54.390625 0 
L 45.40625 0 
L 45.40625 8.203125 
Q 42.578125 3.328125 38.25 0.953125 
Q 33.9375 -1.421875 27.875 -1.421875 
Q 17.96875 -1.421875 11.734375 6.484375 
Q 5.515625 14.40625 5.515625 27.296875 
Q 5.515625 40.1875 11.734375 48.09375 
Q 17.96875 56 27.875 56 
Q 33.9375 56 38.25 53.625 
Q 42.578125 51.265625 45.40625 46.390625 
z
M 14.796875 27.296875 
Q 14.796875 17.390625 18.875 11.75 
Q 22.953125 6.109375 30.078125 6.109375 
Q 37.203125 6.109375 41.296875 11.75 
Q 45.40625 17.390625 45.40625 27.296875 
Q 45.40625 37.203125 41.296875 42.84375 
Q 37.203125 48.484375 30.078125 48.484375 
Q 22.953125 48.484375 18.875 42.84375 
Q 14.796875 37.203125 14.796875 27.296875 
z
" id="DejaVuSans-100"/>
      <path d="M 52 44.1875 
Q 55.375 50.25 60.0625 53.125 
Q 64.75 56 71.09375 56 
Q 79.640625 56 84.28125 50.015625 
Q 88.921875 44.046875 88.921875 33.015625 
L 88.921875 0 
L 79.890625 0 
L 79.890625 32.71875 
Q 79.890625 40.578125 77.09375 44.375 
Q 74.3125 48.1875 68.609375 48.1875 
Q 61.625 48.1875 57.5625 43.546875 
Q 53.515625 38.921875 53.515625 30.90625 
L 53.515625 0 
L 44.484375 0 
L 44.484375 32.71875 
Q 44.484375 40.625 41.703125 44.40625 
Q 38.921875 48.1875 33.109375 48.1875 
Q 26.21875 48.1875 22.15625 43.53125 
Q 18.109375 38.875 18.109375 30.90625 
L 18.109375 0 
L 9.078125 0 
L 9.078125 54.6875 
L 18.109375 54.6875 
L 18.109375 46.1875 
Q 21.1875 51.21875 25.484375 53.609375 
Q 29.78125 56 35.6875 56 
Q 41.65625 56 45.828125 52.96875 
Q 50 49.953125 52 44.1875 
z
" id="DejaVuSans-109"/>
     </defs>
     <g transform="translate(203.859219 335.860562)scale(0.1 -0.1)">
      <use xlink:href="#DejaVuSans-112"/>
      <use x="63.476562" xlink:href="#DejaVuSans-114"/>
      <use x="102.339844" xlink:href="#DejaVuSans-111"/>
      <use x="163.521484" xlink:href="#DejaVuSans-99"/>
      <use x="218.501953" xlink:href="#DejaVuSans-97"/>
      <use x="279.78125" xlink:href="#DejaVuSans-108"/>
      <use x="307.564453" xlink:href="#DejaVuSans-97"/>
      <use x="368.84375" xlink:href="#DejaVuSans-100"/>
      <use x="432.320312" xlink:href="#DejaVuSans-109"/>
      <use x="529.732422" xlink:href="#DejaVuSans-97"/>
      <use x="591.011719" xlink:href="#DejaVuSans-99"/>
     </g>
    </g>
   </g>
   <g id="matplotlib.axis_2">
    <g id="ytick_1">
     <g id="line2d_9">
      <defs>
       <path d="M 0 0 
L -3.5 0 
" id="m42b7360163" style="stroke:#000000;stroke-width:0.8;"/>
      </defs>
      <g>
       <use style="stroke:#000000;stroke-width:0.8;" x="57.6" xlink:href="#m42b7360163" y="174.528"/>
      </g>
     </g>
    </g>
   </g>
   <g id="line2d_10">
    <path clip-path="url(#pbb60bd63e8)" d="M 127.151167 174.528 
L 132.830274 174.528 
" style="fill:none;stroke:#ffa500;stroke-linecap:square;stroke-width:1.5;"/>
   </g>
   <g id="line2d_11">
    <path clip-path="url(#pbb60bd63e8)" d="M 127.151604 174.528 
L 131.519811 174.528 
" style="fill:none;stroke:#4c4c4c;stroke-linecap:square;stroke-width:4.5;"/>
   </g>
   <g id="line2d_12">
    <path clip-path="url(#pbb60bd63e8)" d="M 127.151167 174.528 
L 135.888019 174.528 
" style="fill:none;stroke:#008000;stroke-linecap:square;stroke-width:1.5;"/>
   </g>
   <g id="line2d_13">
    <path clip-path="url(#pbb60bd63e8)" d="M 127.151604 174.528 
L 131.082991 174.528 
" style="fill:none;stroke:#262626;stroke-linecap:square;stroke-width:4.5;"/>
   </g>
   <g id="patch_3">
    <path d="M 57.6 307.584 
L 57.6 41.472 
" style="fill:none;stroke:#000000;stroke-linecap:square;stroke-linejoin:miter;stroke-width:0.8;"/>
   </g>
   <g id="patch_4">
    <path d="M 414.72 307.584 
L 414.72 41.472 
" style="fill:none;stroke:#000000;stroke-linecap:square;stroke-linejoin:miter;stroke-width:0.8;"/>
   </g>
   <g id="patch_5">
    <path d="M 57.6 307.584 
L 414.72 307.584 
" style="fill:none;stroke:#000000;stroke-linecap:square;stroke-linejoin:miter;stroke-width:0.8;"/>
   </g>
   <g id="patch_6">
    <path d="M 57.6 41.472 
L 414.72 41.472 
" style="fill:none;stroke:#000000;stroke-linecap:square;stroke-linejoin:miter;stroke-width:0.8;"/>
   </g>
   <g id="PathCollection_1">
    <defs>
     <path d="M 0 1.5 
C 0.397805 1.5 0.77937 1.341951 1.06066 1.06066 
C 1.341951 0.77937 1.5 0.397805 1.5 0 
C 1.5 -0.397805 1.341951 -0.77937 1.06066 -1.06066 
C 0.77937 -1.341951 0.397805 -1.5 0 -1.5 
C -0.397805 -1.5 -0.77937 -1.341951 -1.06066 -1.06066 
C -1.341951 -0.77937 -1.5 -0.397805 -1.5 0 
C -1.5 0.397805 -1.341951 0.77937 -1.06066 1.06066 
C -0.77937 1.341951 -0.397805 1.5 0 1.5 
z
" id="m561f12201e" style="stroke:#4c4c4c;stroke-opacity:0.5;"/>
    </defs>
    <g clip-path="url(#pbb60bd63e8)">
     <use style="fill:#ffffff;fill-opacity:0.5;stroke:#4c4c4c;stroke-opacity:0.5;" x="127.588425" xlink:href="#m561f12201e" y="174.528"/>
    </g>
   </g>
   <g id="PathCollection_2">
    <defs>
     <path d="M 0 1.5 
C 0.397805 1.5 0.77937 1.341951 1.06066 1.06066 
C 1.341951 0.77937 1.5 0.397805 1.5 0 
C 1.5 -0.397805 1.341951 -0.77937 1.06066 -1.06066 
C 0.77937 -1.341951 0.397805 -1.5 0 -1.5 
C -0.397805 -1.5 -0.77937 -1.341951 -1.06066 -1.06066 
C -1.341951 -0.77937 -1.5 -0.397805 -1.5 0 
C -1.5 0.397805 -1.341951 0.77937 -1.06066 1.06066 
C -0.77937 1.341951 -0.397805 1.5 0 1.5 
z
" id="mdce50b9d35" style="stroke:#262626;stroke-opacity:0.5;"/>
    </defs>
    <g clip-path="url(#pbb60bd63e8)">
     <use style="fill:#ffffff;fill-opacity:0.5;stroke:#262626;stroke-opacity:0.5;" x="127.588425" xlink:href="#mdce50b9d35" y="174.528"/>
    </g>
   </g>
   <g id="text_10">
    <!-- Association of procaladmac vs. cpap_bpap -->
    <defs>
     <path d="M 34.1875 63.1875 
L 20.796875 26.90625 
L 47.609375 26.90625 
z
M 28.609375 72.90625 
L 39.796875 72.90625 
L 67.578125 0 
L 57.328125 0 
L 50.6875 18.703125 
L 17.828125 18.703125 
L 11.1875 0 
L 0.78125 0 
z
" id="DejaVuSans-65"/>
     <path d="M 44.28125 53.078125 
L 44.28125 44.578125 
Q 40.484375 46.53125 36.375 47.5 
Q 32.28125 48.484375 27.875 48.484375 
Q 21.1875 48.484375 17.84375 46.4375 
Q 14.5 44.390625 14.5 40.28125 
Q 14.5 37.15625 16.890625 35.375 
Q 19.28125 33.59375 26.515625 31.984375 
L 29.59375 31.296875 
Q 39.15625 29.25 43.1875 25.515625 
Q 47.21875 21.78125 47.21875 15.09375 
Q 47.21875 7.46875 41.1875 3.015625 
Q 35.15625 -1.421875 24.609375 -1.421875 
Q 20.21875 -1.421875 15.453125 -0.5625 
Q 10.6875 0.296875 5.421875 2 
L 5.421875 11.28125 
Q 10.40625 8.6875 15.234375 7.390625 
Q 20.0625 6.109375 24.8125 6.109375 
Q 31.15625 6.109375 34.5625 8.28125 
Q 37.984375 10.453125 37.984375 14.40625 
Q 37.984375 18.0625 35.515625 20.015625 
Q 33.0625 21.96875 24.703125 23.78125 
L 21.578125 24.515625 
Q 13.234375 26.265625 9.515625 29.90625 
Q 5.8125 33.546875 5.8125 39.890625 
Q 5.8125 47.609375 11.28125 51.796875 
Q 16.75 56 26.8125 56 
Q 31.78125 56 36.171875 55.265625 
Q 40.578125 54.546875 44.28125 53.078125 
z
" id="DejaVuSans-115"/>
     <path d="M 9.421875 54.6875 
L 18.40625 54.6875 
L 18.40625 0 
L 9.421875 0 
z
M 9.421875 75.984375 
L 18.40625 75.984375 
L 18.40625 64.59375 
L 9.421875 64.59375 
z
" id="DejaVuSans-105"/>
     <path d="M 18.3125 70.21875 
L 18.3125 54.6875 
L 36.8125 54.6875 
L 36.8125 47.703125 
L 18.3125 47.703125 
L 18.3125 18.015625 
Q 18.3125 11.328125 20.140625 9.421875 
Q 21.96875 7.515625 27.59375 7.515625 
L 36.8125 7.515625 
L 36.8125 0 
L 27.59375 0 
Q 17.1875 0 13.234375 3.875 
Q 9.28125 7.765625 9.28125 18.015625 
L 9.28125 47.703125 
L 2.6875 47.703125 
L 2.6875 54.6875 
L 9.28125 54.6875 
L 9.28125 70.21875 
z
" id="DejaVuSans-116"/>
     <path d="M 54.890625 33.015625 
L 54.890625 0 
L 45.90625 0 
L 45.90625 32.71875 
Q 45.90625 40.484375 42.875 44.328125 
Q 39.84375 48.1875 33.796875 48.1875 
Q 26.515625 48.1875 22.3125 43.546875 
Q 18.109375 38.921875 18.109375 30.90625 
L 18.109375 0 
L 9.078125 0 
L 9.078125 54.6875 
L 18.109375 54.6875 
L 18.109375 46.1875 
Q 21.34375 51.125 25.703125 53.5625 
Q 30.078125 56 35.796875 56 
Q 45.21875 56 50.046875 50.171875 
Q 54.890625 44.34375 54.890625 33.015625 
z
" id="DejaVuSans-110"/>
     <path id="DejaVuSans-32"/>
     <path d="M 37.109375 75.984375 
L 37.109375 68.5 
L 28.515625 68.5 
Q 23.6875 68.5 21.796875 66.546875 
Q 19.921875 64.59375 19.921875 59.515625 
L 19.921875 54.6875 
L 34.71875 54.6875 
L 34.71875 47.703125 
L 19.921875 47.703125 
L 19.921875 0 
L 10.890625 0 
L 10.890625 47.703125 
L 2.296875 47.703125 
L 2.296875 54.6875 
L 10.890625 54.6875 
L 10.890625 58.5 
Q 10.890625 67.625 15.140625 71.796875 
Q 19.390625 75.984375 28.609375 75.984375 
z
" id="DejaVuSans-102"/>
     <path d="M 2.984375 54.6875 
L 12.5 54.6875 
L 29.59375 8.796875 
L 46.6875 54.6875 
L 56.203125 54.6875 
L 35.6875 0 
L 23.484375 0 
z
" id="DejaVuSans-118"/>
     <path d="M 10.6875 12.40625 
L 21 12.40625 
L 21 0 
L 10.6875 0 
z
" id="DejaVuSans-46"/>
     <path d="M 50.984375 -16.609375 
L 50.984375 -23.578125 
L -0.984375 -23.578125 
L -0.984375 -16.609375 
z
" id="DejaVuSans-95"/>
     <path d="M 48.6875 27.296875 
Q 48.6875 37.203125 44.609375 42.84375 
Q 40.53125 48.484375 33.40625 48.484375 
Q 26.265625 48.484375 22.1875 42.84375 
Q 18.109375 37.203125 18.109375 27.296875 
Q 18.109375 17.390625 22.1875 11.75 
Q 26.265625 6.109375 33.40625 6.109375 
Q 40.53125 6.109375 44.609375 11.75 
Q 48.6875 17.390625 48.6875 27.296875 
z
M 18.109375 46.390625 
Q 20.953125 51.265625 25.265625 53.625 
Q 29.59375 56 35.59375 56 
Q 45.5625 56 51.78125 48.09375 
Q 58.015625 40.1875 58.015625 27.296875 
Q 58.015625 14.40625 51.78125 6.484375 
Q 45.5625 -1.421875 35.59375 -1.421875 
Q 29.59375 -1.421875 25.265625 0.953125 
Q 20.953125 3.328125 18.109375 8.203125 
L 18.109375 0 
L 9.078125 0 
L 9.078125 75.984375 
L 18.109375 75.984375 
z
" id="DejaVuSans-98"/>
    </defs>
    <g transform="translate(108.54375 35.472)scale(0.12 -0.12)">
     <use xlink:href="#DejaVuSans-65"/>
     <use x="68.408203" xlink:href="#DejaVuSans-115"/>
     <use x="120.507812" xlink:href="#DejaVuSans-115"/>
     <use x="172.607422" xlink:href="#DejaVuSans-111"/>
     <use x="233.789062" xlink:href="#DejaVuSans-99"/>
     <use x="288.769531" xlink:href="#DejaVuSans-105"/>
     <use x="316.552734" xlink:href="#DejaVuSans-97"/>
     <use x="377.832031" xlink:href="#DejaVuSans-116"/>
     <use x="417.041016" xlink:href="#DejaVuSans-105"/>
     <use x="444.824219" xlink:href="#DejaVuSans-111"/>
     <use x="506.005859" xlink:href="#DejaVuSans-110"/>
     <use x="569.384766" xlink:href="#DejaVuSans-32"/>
     <use x="601.171875" xlink:href="#DejaVuSans-111"/>
     <use x="662.353516" xlink:href="#DejaVuSans-102"/>
     <use x="697.558594" xlink:href="#DejaVuSans-32"/>
     <use x="729.345703" xlink:href="#DejaVuSans-112"/>
     <use x="792.822266" xlink:href="#DejaVuSans-114"/>
     <use x="831.685547" xlink:href="#DejaVuSans-111"/>
     <use x="892.867188" xlink:href="#DejaVuSans-99"/>
     <use x="947.847656" xlink:href="#DejaVuSans-97"/>
     <use x="1009.126953" xlink:href="#DejaVuSans-108"/>
     <use x="1036.910156" xlink:href="#DejaVuSans-97"/>
     <use x="1098.189453" xlink:href="#DejaVuSans-100"/>
     <use x="1161.666016" xlink:href="#DejaVuSans-109"/>
     <use x="1259.078125" xlink:href="#DejaVuSans-97"/>
     <use x="1320.357422" xlink:href="#DejaVuSans-99"/>
     <use x="1375.337891" xlink:href="#DejaVuSans-32"/>
     <use x="1407.125" xlink:href="#DejaVuSans-118"/>
     <use x="1466.304688" xlink:href="#DejaVuSans-115"/>
     <use x="1518.404297" xlink:href="#DejaVuSans-46"/>
     <use x="1550.191406" xlink:href="#DejaVuSans-32"/>
     <use x="1581.978516" xlink:href="#DejaVuSans-99"/>
     <use x="1636.958984" xlink:href="#DejaVuSans-112"/>
     <use x="1700.435547" xlink:href="#DejaVuSans-97"/>
     <use x="1761.714844" xlink:href="#DejaVuSans-112"/>
     <use x="1825.191406" xlink:href="#DejaVuSans-95"/>
     <use x="1875.191406" xlink:href="#DejaVuSans-98"/>
     <use x="1938.667969" xlink:href="#DejaVuSans-112"/>
     <use x="2002.144531" xlink:href="#DejaVuSans-97"/>
     <use x="2063.423828" xlink:href="#DejaVuSans-112"/>
    </g>
   </g>
   <g id="legend_1">
    <g id="patch_7">
     <path d="M 270.455938 79.3845 
L 407.72 79.3845 
Q 409.72 79.3845 409.72 77.3845 
L 409.72 48.472 
Q 409.72 46.472 407.72 46.472 
L 270.455938 46.472 
Q 268.455938 46.472 268.455938 48.472 
L 268.455938 77.3845 
Q 268.455938 79.3845 270.455938 79.3845 
z
" style="fill:#ffffff;opacity:0.8;stroke:#cccccc;stroke-linejoin:miter;"/>
    </g>
    <g id="line2d_14">
     <path d="M 272.455938 54.570438 
L 292.455938 54.570438 
" style="fill:none;stroke:#ffa500;stroke-linecap:square;stroke-width:1.5;"/>
    </g>
    <g id="line2d_15"/>
    <g id="text_11">
     <!-- cpap_bpap (20) -->
     <defs>
      <path d="M 31 75.875 
Q 24.46875 64.65625 21.28125 53.65625 
Q 18.109375 42.671875 18.109375 31.390625 
Q 18.109375 20.125 21.3125 9.0625 
Q 24.515625 -2 31 -13.1875 
L 23.1875 -13.1875 
Q 15.875 -1.703125 12.234375 9.375 
Q 8.59375 20.453125 8.59375 31.390625 
Q 8.59375 42.28125 12.203125 53.3125 
Q 15.828125 64.359375 23.1875 75.875 
z
" id="DejaVuSans-40"/>
      <path d="M 8.015625 75.875 
L 15.828125 75.875 
Q 23.140625 64.359375 26.78125 53.3125 
Q 30.421875 42.28125 30.421875 31.390625 
Q 30.421875 20.453125 26.78125 9.375 
Q 23.140625 -1.703125 15.828125 -13.1875 
L 8.015625 -13.1875 
Q 14.5 -2 17.703125 9.0625 
Q 20.90625 20.125 20.90625 31.390625 
Q 20.90625 42.671875 17.703125 53.65625 
Q 14.5 64.65625 8.015625 75.875 
z
" id="DejaVuSans-41"/>
     </defs>
     <g transform="translate(300.455938 58.070438)scale(0.1 -0.1)">
      <use xlink:href="#DejaVuSans-99"/>
      <use x="54.980469" xlink:href="#DejaVuSans-112"/>
      <use x="118.457031" xlink:href="#DejaVuSans-97"/>
      <use x="179.736328" xlink:href="#DejaVuSans-112"/>
      <use x="243.212891" xlink:href="#DejaVuSans-95"/>
      <use x="293.212891" xlink:href="#DejaVuSans-98"/>
      <use x="356.689453" xlink:href="#DejaVuSans-112"/>
      <use x="420.166016" xlink:href="#DejaVuSans-97"/>
      <use x="481.445312" xlink:href="#DejaVuSans-112"/>
      <use x="544.921875" xlink:href="#DejaVuSans-32"/>
      <use x="576.708984" xlink:href="#DejaVuSans-40"/>
      <use x="615.722656" xlink:href="#DejaVuSans-50"/>
      <use x="679.345703" xlink:href="#DejaVuSans-48"/>
      <use x="742.96875" xlink:href="#DejaVuSans-41"/>
     </g>
    </g>
    <g id="line2d_16">
     <path d="M 272.455938 69.526688 
L 292.455938 69.526688 
" style="fill:none;stroke:#008000;stroke-linecap:square;stroke-width:1.5;"/>
    </g>
    <g id="line2d_17"/>
    <g id="text_12">
     <!-- Not cpap_bpap (215) -->
     <defs>
      <path d="M 9.8125 72.90625 
L 23.09375 72.90625 
L 55.421875 11.921875 
L 55.421875 72.90625 
L 64.984375 72.90625 
L 64.984375 0 
L 51.703125 0 
L 19.390625 60.984375 
L 19.390625 0 
L 9.8125 0 
z
" id="DejaVuSans-78"/>
     </defs>
     <g transform="translate(300.455938 73.026688)scale(0.1 -0.1)">
      <use xlink:href="#DejaVuSans-78"/>
      <use x="74.804688" xlink:href="#DejaVuSans-111"/>
      <use x="135.986328" xlink:href="#DejaVuSans-116"/>
      <use x="175.195312" xlink:href="#DejaVuSans-32"/>
      <use x="206.982422" xlink:href="#DejaVuSans-99"/>
      <use x="261.962891" xlink:href="#DejaVuSans-112"/>
      <use x="325.439453" xlink:href="#DejaVuSans-97"/>
      <use x="386.71875" xlink:href="#DejaVuSans-112"/>
      <use x="450.195312" xlink:href="#DejaVuSans-95"/>
      <use x="500.195312" xlink:href="#DejaVuSans-98"/>
      <use x="563.671875" xlink:href="#DejaVuSans-112"/>
      <use x="627.148438" xlink:href="#DejaVuSans-97"/>
      <use x="688.427734" xlink:href="#DejaVuSans-112"/>
      <use x="751.904297" xlink:href="#DejaVuSans-32"/>
      <use x="783.691406" xlink:href="#DejaVuSans-40"/>
      <use x="822.705078" xlink:href="#DejaVuSans-50"/>
      <use x="886.328125" xlink:href="#DejaVuSans-49"/>
      <use x="949.951172" xlink:href="#DejaVuSans-53"/>
      <use x="1013.574219" xlink:href="#DejaVuSans-41"/>
     </g>
    </g>
   </g>
  </g>
 </g>
 <defs>
  <clipPath id="pbb60bd63e8">
   <rect height="266.112" width="357.12" x="57.6" y="41.472"/>
  </clipPath>
 </defs>
</svg>
