<?xml version="1.0" encoding="utf-8" standalone="no"?>
<!DOCTYPE svg PUBLIC "-//W3C//DTD SVG 1.1//EN"
  "http://www.w3.org/Graphics/SVG/1.1/DTD/svg11.dtd">
<!-- Created with matplotlib (https://matplotlib.org/) -->
<svg height="345.6pt" version="1.1" viewBox="0 0 460.8 345.6" width="460.8pt" xmlns="http://www.w3.org/2000/svg" xmlns:xlink="http://www.w3.org/1999/xlink">
 <defs>
  <style type="text/css">
*{stroke-linecap:butt;stroke-linejoin:round;}
  </style>
 </defs>
 <g id="figure_1">
  <g id="patch_1">
   <path d="M 0 345.6 
L 460.8 345.6 
L 460.8 0 
L 0 0 
z
" style="fill:#ffffff;"/>
  </g>
  <g id="axes_1">
   <g id="patch_2">
    <path d="M 57.6 307.584 
L 414.72 307.584 
L 414.72 41.472 
L 57.6 41.472 
z
" style="fill:#ffffff;"/>
   </g>
   <g id="PolyCollection_1">
    <defs>
     <path d="M 73.832727 -164.734793 
L 73.832727 -177.409207 
L 77.013855 -180.258254 
L 80.194983 -184.043971 
L 83.37611 -188.919437 
L 86.557238 -195.00142 
L 89.738366 -202.344938 
L 92.919494 -210.918511 
L 96.100621 -220.5845 
L 99.281749 -231.089107 
L 102.462877 -242.065897 
L 105.644005 -253.054884 
L 108.825132 -263.536726 
L 112.00626 -272.978684 
L 115.187388 -280.88654 
L 118.368515 -286.855073 
L 121.549643 -290.609554 
L 124.730771 -292.032 
L 127.911899 -291.168517 
L 131.093026 -288.217243 
L 134.274154 -283.499629 
L 137.455282 -277.420259 
L 140.63641 -270.421757 
L 143.817537 -262.941346 
L 146.998665 -255.374494 
L 150.179793 -248.049156 
L 153.36092 -241.211949 
L 156.542048 -235.025572 
L 159.723176 -229.57526 
L 162.904304 -224.881264 
L 166.085431 -220.914178 
L 169.266559 -217.610341 
L 172.447687 -214.885353 
L 175.628815 -212.644617 
L 178.809942 -210.790722 
L 181.99107 -209.228178 
L 185.172198 -207.866343 
L 188.353325 -206.621529 
L 191.534453 -205.419027 
L 194.715581 -204.195427 
L 197.896709 -202.901226 
L 201.077836 -201.503312 
L 204.258964 -199.986797 
L 207.440092 -198.355639 
L 210.62122 -196.631716 
L 213.802347 -194.85227 
L 216.983475 -193.06592 
L 220.164603 -191.327656 
L 223.34573 -189.693307 
L 226.526858 -188.214013 
L 229.707986 -186.931176 
L 232.889114 -185.872293 
L 236.070241 -185.048057 
L 239.251369 -184.451014 
L 242.432497 -184.056022 
L 245.613625 -183.822571 
L 248.794752 -183.698845 
L 251.97588 -183.627135 
L 255.157008 -183.549974 
L 258.338135 -183.416204 
L 261.519263 -183.186142 
L 264.700391 -182.83513 
L 267.881519 -182.355019 
L 271.062646 -181.753472 
L 274.243774 -181.051335 
L 277.424902 -180.278625 
L 280.60603 -179.469867 
L 283.787157 -178.65954 
L 286.968285 -177.878295 
L 290.149413 -177.150394 
L 293.33054 -176.492562 
L 296.511668 -175.914156 
L 299.692796 -175.418371 
L 302.873924 -175.004033 
L 306.055051 -174.667492 
L 309.236179 -174.404198 
L 312.417307 -174.209644 
L 315.598435 -174.079557 
L 318.779562 -174.009404 
L 321.96069 -173.993455 
L 325.141818 -174.023743 
L 328.322945 -174.089292 
L 331.504073 -174.175926 
L 334.685201 -174.266829 
L 337.866329 -174.343841 
L 341.047456 -174.3893 
L 344.228584 -174.388101 
L 347.409712 -174.329576 
L 350.59084 -174.208821 
L 353.771967 -174.027237 
L 356.953095 -173.792173 
L 360.134223 -173.515764 
L 363.31535 -173.213207 
L 366.496478 -172.900774 
L 369.677606 -172.593921 
L 372.858734 -172.305753 
L 376.039861 -172.046034 
L 379.220989 -171.820784 
L 382.402117 -171.632428 
L 385.583245 -171.480336 
L 388.764372 -171.361609 
L 388.764372 -170.782391 
L 388.764372 -170.782391 
L 385.583245 -170.663664 
L 382.402117 -170.511572 
L 379.220989 -170.323216 
L 376.039861 -170.097966 
L 372.858734 -169.838247 
L 369.677606 -169.550079 
L 366.496478 -169.243226 
L 363.31535 -168.930793 
L 360.134223 -168.628236 
L 356.953095 -168.351827 
L 353.771967 -168.116763 
L 350.59084 -167.935179 
L 347.409712 -167.814424 
L 344.228584 -167.755899 
L 341.047456 -167.7547 
L 337.866329 -167.800159 
L 334.685201 -167.877171 
L 331.504073 -167.968074 
L 328.322945 -168.054708 
L 325.141818 -168.120257 
L 321.96069 -168.150545 
L 318.779562 -168.134596 
L 315.598435 -168.064443 
L 312.417307 -167.934356 
L 309.236179 -167.739802 
L 306.055051 -167.476508 
L 302.873924 -167.139967 
L 299.692796 -166.725629 
L 296.511668 -166.229844 
L 293.33054 -165.651438 
L 290.149413 -164.993606 
L 286.968285 -164.265705 
L 283.787157 -163.48446 
L 280.60603 -162.674133 
L 277.424902 -161.865375 
L 274.243774 -161.092665 
L 271.062646 -160.390528 
L 267.881519 -159.788981 
L 264.700391 -159.30887 
L 261.519263 -158.957858 
L 258.338135 -158.727796 
L 255.157008 -158.594026 
L 251.97588 -158.516865 
L 248.794752 -158.445155 
L 245.613625 -158.321429 
L 242.432497 -158.087978 
L 239.251369 -157.692986 
L 236.070241 -157.095943 
L 232.889114 -156.271707 
L 229.707986 -155.212824 
L 226.526858 -153.929987 
L 223.34573 -152.450693 
L 220.164603 -150.816344 
L 216.983475 -149.07808 
L 213.802347 -147.29173 
L 210.62122 -145.512284 
L 207.440092 -143.788361 
L 204.258964 -142.157203 
L 201.077836 -140.640688 
L 197.896709 -139.242774 
L 194.715581 -137.948573 
L 191.534453 -136.724973 
L 188.353325 -135.522471 
L 185.172198 -134.277657 
L 181.99107 -132.915822 
L 178.809942 -131.353278 
L 175.628815 -129.499383 
L 172.447687 -127.258647 
L 169.266559 -124.533659 
L 166.085431 -121.229822 
L 162.904304 -117.262736 
L 159.723176 -112.56874 
L 156.542048 -107.118428 
L 153.36092 -100.932051 
L 150.179793 -94.094844 
L 146.998665 -86.769506 
L 143.817537 -79.202654 
L 140.63641 -71.722243 
L 137.455282 -64.723741 
L 134.274154 -58.644371 
L 131.093026 -53.926757 
L 127.911899 -50.975483 
L 124.730771 -50.112 
L 121.549643 -51.534446 
L 118.368515 -55.288927 
L 115.187388 -61.25746 
L 112.00626 -69.165316 
L 108.825132 -78.607274 
L 105.644005 -89.089116 
L 102.462877 -100.078103 
L 99.281749 -111.054893 
L 96.100621 -121.5595 
L 92.919494 -131.225489 
L 89.738366 -139.799062 
L 86.557238 -147.14258 
L 83.37611 -153.224563 
L 80.194983 -158.100029 
L 77.013855 -161.885746 
L 73.832727 -164.734793 
z
" id="m670acb2472" style="stroke:#4c4c4c;stroke-opacity:0.5;stroke-width:1.5;"/>
    </defs>
    <g clip-path="url(#p6739e3ce18)">
     <use style="fill:#df9c20;fill-opacity:0.5;stroke:#4c4c4c;stroke-opacity:0.5;stroke-width:1.5;" x="0" xlink:href="#m670acb2472" y="345.6"/>
    </g>
   </g>
   <g id="PolyCollection_2">
    <defs>
     <path d="M 80.226331 -166.336591 
L 80.226331 -175.807409 
L 83.441088 -179.25108 
L 86.655845 -184.493023 
L 89.870602 -191.997603 
L 93.085359 -202.079959 
L 96.300116 -214.751854 
L 99.514873 -229.582684 
L 102.72963 -245.630673 
L 105.944387 -261.493496 
L 109.159144 -275.497732 
L 112.373901 -285.999454 
L 115.588658 -291.721867 
L 118.803415 -292.032 
L 122.018172 -287.071063 
L 125.232929 -277.699656 
L 128.447686 -265.280687 
L 131.662443 -251.373319 
L 134.8772 -237.430847 
L 138.091957 -224.57967 
L 141.306714 -213.517411 
L 144.521471 -204.524939 
L 147.736228 -197.556677 
L 150.950985 -192.363186 
L 154.165742 -188.607027 
L 157.380499 -185.948857 
L 160.595256 -184.097102 
L 163.810013 -182.826113 
L 167.02477 -181.973008 
L 170.239527 -181.423836 
L 173.454283 -181.097309 
L 176.66904 -180.931159 
L 179.883797 -180.873317 
L 183.098554 -180.877988 
L 186.313311 -180.905503 
L 189.528068 -180.924214 
L 192.742825 -180.912726 
L 195.957582 -180.861103 
L 199.172339 -180.770333 
L 202.387096 -180.649948 
L 205.601853 -180.514194 
L 208.81661 -180.377439 
L 212.031367 -180.249627 
L 215.246124 -180.132738 
L 218.460881 -180.01921 
L 221.675638 -179.893107 
L 224.890395 -179.73415 
L 228.105152 -179.52376 
L 231.319909 -179.25128 
L 234.534666 -178.918166 
L 237.749423 -178.538434 
L 240.96418 -178.134986 
L 244.178937 -177.733065 
L 247.393694 -177.353224 
L 250.608451 -177.006346 
L 253.823208 -176.692304 
L 257.037965 -176.402309 
L 260.252722 -176.123502 
L 263.467479 -175.843737 
L 266.682236 -175.554792 
L 269.896993 -175.253403 
L 273.11175 -174.940659 
L 276.326507 -174.620965 
L 279.541264 -174.301536 
L 282.756021 -173.992603 
L 285.970778 -173.707589 
L 289.185535 -173.462154 
L 292.400292 -173.271403 
L 295.615049 -173.14556 
L 298.829806 -173.08543 
L 302.044563 -173.079562 
L 305.25932 -173.104692 
L 308.474077 -173.12994 
L 311.688834 -173.123815 
L 314.903591 -173.061876 
L 318.118348 -172.93259 
L 321.333105 -172.739534 
L 324.547862 -172.499463 
L 327.762619 -172.237207 
L 330.977376 -171.979329 
L 334.192133 -171.74858 
L 337.40689 -171.560532 
L 340.621647 -171.422723 
L 343.836404 -171.335741 
L 347.051161 -171.295205 
L 350.265918 -171.293659 
L 353.480675 -171.321877 
L 356.695432 -171.369546 
L 359.910189 -171.425709 
L 363.124946 -171.479382 
L 366.339703 -171.520592 
L 369.55446 -171.541693 
L 372.769217 -171.538594 
L 375.983974 -171.51139 
L 379.198731 -171.464102 
L 382.413488 -171.403533 
L 385.628245 -171.337589 
L 388.843002 -171.273576 
L 392.057759 -171.216948 
L 395.272516 -171.170748 
L 398.487273 -171.135736 
L 398.487273 -171.008264 
L 398.487273 -171.008264 
L 395.272516 -170.973252 
L 392.057759 -170.927052 
L 388.843002 -170.870424 
L 385.628245 -170.806411 
L 382.413488 -170.740467 
L 379.198731 -170.679898 
L 375.983974 -170.63261 
L 372.769217 -170.605406 
L 369.55446 -170.602307 
L 366.339703 -170.623408 
L 363.124946 -170.664618 
L 359.910189 -170.718291 
L 356.695432 -170.774454 
L 353.480675 -170.822123 
L 350.265918 -170.850341 
L 347.051161 -170.848795 
L 343.836404 -170.808259 
L 340.621647 -170.721277 
L 337.40689 -170.583468 
L 334.192133 -170.39542 
L 330.977376 -170.164671 
L 327.762619 -169.906793 
L 324.547862 -169.644537 
L 321.333105 -169.404466 
L 318.118348 -169.21141 
L 314.903591 -169.082124 
L 311.688834 -169.020185 
L 308.474077 -169.01406 
L 305.25932 -169.039308 
L 302.044563 -169.064438 
L 298.829806 -169.05857 
L 295.615049 -168.99844 
L 292.400292 -168.872597 
L 289.185535 -168.681846 
L 285.970778 -168.436411 
L 282.756021 -168.151397 
L 279.541264 -167.842464 
L 276.326507 -167.523035 
L 273.11175 -167.203341 
L 269.896993 -166.890597 
L 266.682236 -166.589208 
L 263.467479 -166.300263 
L 260.252722 -166.020498 
L 257.037965 -165.741691 
L 253.823208 -165.451696 
L 250.608451 -165.137654 
L 247.393694 -164.790776 
L 244.178937 -164.410935 
L 240.96418 -164.009014 
L 237.749423 -163.605566 
L 234.534666 -163.225834 
L 231.319909 -162.89272 
L 228.105152 -162.62024 
L 224.890395 -162.40985 
L 221.675638 -162.250893 
L 218.460881 -162.12479 
L 215.246124 -162.011262 
L 212.031367 -161.894373 
L 208.81661 -161.766561 
L 205.601853 -161.629806 
L 202.387096 -161.494052 
L 199.172339 -161.373667 
L 195.957582 -161.282897 
L 192.742825 -161.231274 
L 189.528068 -161.219786 
L 186.313311 -161.238497 
L 183.098554 -161.266012 
L 179.883797 -161.270683 
L 176.66904 -161.212841 
L 173.454283 -161.046691 
L 170.239527 -160.720164 
L 167.02477 -160.170992 
L 163.810013 -159.317887 
L 160.595256 -158.046898 
L 157.380499 -156.195143 
L 154.165742 -153.536973 
L 150.950985 -149.780814 
L 147.736228 -144.587323 
L 144.521471 -137.619061 
L 141.306714 -128.626589 
L 138.091957 -117.56433 
L 134.8772 -104.713153 
L 131.662443 -90.770681 
L 128.447686 -76.863313 
L 125.232929 -64.444344 
L 122.018172 -55.072937 
L 118.803415 -50.112 
L 115.588658 -50.422133 
L 112.373901 -56.144546 
L 109.159144 -66.646268 
L 105.944387 -80.650504 
L 102.72963 -96.513327 
L 99.514873 -112.561316 
L 96.300116 -127.392146 
L 93.085359 -140.064041 
L 89.870602 -150.146397 
L 86.655845 -157.650977 
L 83.441088 -162.89292 
L 80.226331 -166.336591 
z
" id="m3b463a6295" style="stroke:#262626;stroke-opacity:0.5;stroke-width:1.5;"/>
    </defs>
    <g clip-path="url(#p6739e3ce18)">
     <use style="fill:#107010;fill-opacity:0.5;stroke:#262626;stroke-opacity:0.5;stroke-width:1.5;" x="0" xlink:href="#m3b463a6295" y="345.6"/>
    </g>
   </g>
   <g id="matplotlib.axis_1">
    <g id="xtick_1">
     <g id="line2d_1">
      <defs>
       <path d="M 0 0 
L 0 3.5 
" id="m0a14937645" style="stroke:#000000;stroke-width:0.8;"/>
      </defs>
      <g>
       <use style="stroke:#000000;stroke-width:0.8;" x="102.691448" xlink:href="#m0a14937645" y="307.584"/>
      </g>
     </g>
     <g id="text_1">
      <!-- 0 -->
      <defs>
       <path d="M 31.78125 66.40625 
Q 24.171875 66.40625 20.328125 58.90625 
Q 16.5 51.421875 16.5 36.375 
Q 16.5 21.390625 20.328125 13.890625 
Q 24.171875 6.390625 31.78125 6.390625 
Q 39.453125 6.390625 43.28125 13.890625 
Q 47.125 21.390625 47.125 36.375 
Q 47.125 51.421875 43.28125 58.90625 
Q 39.453125 66.40625 31.78125 66.40625 
z
M 31.78125 74.21875 
Q 44.046875 74.21875 50.515625 64.515625 
Q 56.984375 54.828125 56.984375 36.375 
Q 56.984375 17.96875 50.515625 8.265625 
Q 44.046875 -1.421875 31.78125 -1.421875 
Q 19.53125 -1.421875 13.0625 8.265625 
Q 6.59375 17.96875 6.59375 36.375 
Q 6.59375 54.828125 13.0625 64.515625 
Q 19.53125 74.21875 31.78125 74.21875 
z
" id="DejaVuSans-48"/>
      </defs>
      <g transform="translate(99.510198 322.182437)scale(0.1 -0.1)">
       <use xlink:href="#DejaVuSans-48"/>
      </g>
     </g>
    </g>
    <g id="xtick_2">
     <g id="line2d_2">
      <g>
       <use style="stroke:#000000;stroke-width:0.8;" x="167.677351" xlink:href="#m0a14937645" y="307.584"/>
      </g>
     </g>
     <g id="text_2">
      <!-- 5 -->
      <defs>
       <path d="M 10.796875 72.90625 
L 49.515625 72.90625 
L 49.515625 64.59375 
L 19.828125 64.59375 
L 19.828125 46.734375 
Q 21.96875 47.46875 24.109375 47.828125 
Q 26.265625 48.1875 28.421875 48.1875 
Q 40.625 48.1875 47.75 41.5 
Q 54.890625 34.8125 54.890625 23.390625 
Q 54.890625 11.625 47.5625 5.09375 
Q 40.234375 -1.421875 26.90625 -1.421875 
Q 22.3125 -1.421875 17.546875 -0.640625 
Q 12.796875 0.140625 7.71875 1.703125 
L 7.71875 11.625 
Q 12.109375 9.234375 16.796875 8.0625 
Q 21.484375 6.890625 26.703125 6.890625 
Q 35.15625 6.890625 40.078125 11.328125 
Q 45.015625 15.765625 45.015625 23.390625 
Q 45.015625 31 40.078125 35.4375 
Q 35.15625 39.890625 26.703125 39.890625 
Q 22.75 39.890625 18.8125 39.015625 
Q 14.890625 38.140625 10.796875 36.28125 
z
" id="DejaVuSans-53"/>
      </defs>
      <g transform="translate(164.496101 322.182437)scale(0.1 -0.1)">
       <use xlink:href="#DejaVuSans-53"/>
      </g>
     </g>
    </g>
    <g id="xtick_3">
     <g id="line2d_3">
      <g>
       <use style="stroke:#000000;stroke-width:0.8;" x="232.663254" xlink:href="#m0a14937645" y="307.584"/>
      </g>
     </g>
     <g id="text_3">
      <!-- 10 -->
      <defs>
       <path d="M 12.40625 8.296875 
L 28.515625 8.296875 
L 28.515625 63.921875 
L 10.984375 60.40625 
L 10.984375 69.390625 
L 28.421875 72.90625 
L 38.28125 72.90625 
L 38.28125 8.296875 
L 54.390625 8.296875 
L 54.390625 0 
L 12.40625 0 
z
" id="DejaVuSans-49"/>
      </defs>
      <g transform="translate(226.300754 322.182437)scale(0.1 -0.1)">
       <use xlink:href="#DejaVuSans-49"/>
       <use x="63.623047" xlink:href="#DejaVuSans-48"/>
      </g>
     </g>
    </g>
    <g id="xtick_4">
     <g id="line2d_4">
      <g>
       <use style="stroke:#000000;stroke-width:0.8;" x="297.649157" xlink:href="#m0a14937645" y="307.584"/>
      </g>
     </g>
     <g id="text_4">
      <!-- 15 -->
      <g transform="translate(291.286657 322.182437)scale(0.1 -0.1)">
       <use xlink:href="#DejaVuSans-49"/>
       <use x="63.623047" xlink:href="#DejaVuSans-53"/>
      </g>
     </g>
    </g>
    <g id="xtick_5">
     <g id="line2d_5">
      <g>
       <use style="stroke:#000000;stroke-width:0.8;" x="362.63506" xlink:href="#m0a14937645" y="307.584"/>
      </g>
     </g>
     <g id="text_5">
      <!-- 20 -->
      <defs>
       <path d="M 19.1875 8.296875 
L 53.609375 8.296875 
L 53.609375 0 
L 7.328125 0 
L 7.328125 8.296875 
Q 12.9375 14.109375 22.625 23.890625 
Q 32.328125 33.6875 34.8125 36.53125 
Q 39.546875 41.84375 41.421875 45.53125 
Q 43.3125 49.21875 43.3125 52.78125 
Q 43.3125 58.59375 39.234375 62.25 
Q 35.15625 65.921875 28.609375 65.921875 
Q 23.96875 65.921875 18.8125 64.3125 
Q 13.671875 62.703125 7.8125 59.421875 
L 7.8125 69.390625 
Q 13.765625 71.78125 18.9375 73 
Q 24.125 74.21875 28.421875 74.21875 
Q 39.75 74.21875 46.484375 68.546875 
Q 53.21875 62.890625 53.21875 53.421875 
Q 53.21875 48.921875 51.53125 44.890625 
Q 49.859375 40.875 45.40625 35.40625 
Q 44.1875 33.984375 37.640625 27.21875 
Q 31.109375 20.453125 19.1875 8.296875 
z
" id="DejaVuSans-50"/>
      </defs>
      <g transform="translate(356.27256 322.182437)scale(0.1 -0.1)">
       <use xlink:href="#DejaVuSans-50"/>
       <use x="63.623047" xlink:href="#DejaVuSans-48"/>
      </g>
     </g>
    </g>
    <g id="text_6">
     <!-- crpeakac -->
     <defs>
      <path d="M 48.78125 52.59375 
L 48.78125 44.1875 
Q 44.96875 46.296875 41.140625 47.34375 
Q 37.3125 48.390625 33.40625 48.390625 
Q 24.65625 48.390625 19.8125 42.84375 
Q 14.984375 37.3125 14.984375 27.296875 
Q 14.984375 17.28125 19.8125 11.734375 
Q 24.65625 6.203125 33.40625 6.203125 
Q 37.3125 6.203125 41.140625 7.25 
Q 44.96875 8.296875 48.78125 10.40625 
L 48.78125 2.09375 
Q 45.015625 0.34375 40.984375 -0.53125 
Q 36.96875 -1.421875 32.421875 -1.421875 
Q 20.0625 -1.421875 12.78125 6.34375 
Q 5.515625 14.109375 5.515625 27.296875 
Q 5.515625 40.671875 12.859375 48.328125 
Q 20.21875 56 33.015625 56 
Q 37.15625 56 41.109375 55.140625 
Q 45.0625 54.296875 48.78125 52.59375 
z
" id="DejaVuSans-99"/>
      <path d="M 41.109375 46.296875 
Q 39.59375 47.171875 37.8125 47.578125 
Q 36.03125 48 33.890625 48 
Q 26.265625 48 22.1875 43.046875 
Q 18.109375 38.09375 18.109375 28.8125 
L 18.109375 0 
L 9.078125 0 
L 9.078125 54.6875 
L 18.109375 54.6875 
L 18.109375 46.1875 
Q 20.953125 51.171875 25.484375 53.578125 
Q 30.03125 56 36.53125 56 
Q 37.453125 56 38.578125 55.875 
Q 39.703125 55.765625 41.0625 55.515625 
z
" id="DejaVuSans-114"/>
      <path d="M 18.109375 8.203125 
L 18.109375 -20.796875 
L 9.078125 -20.796875 
L 9.078125 54.6875 
L 18.109375 54.6875 
L 18.109375 46.390625 
Q 20.953125 51.265625 25.265625 53.625 
Q 29.59375 56 35.59375 56 
Q 45.5625 56 51.78125 48.09375 
Q 58.015625 40.1875 58.015625 27.296875 
Q 58.015625 14.40625 51.78125 6.484375 
Q 45.5625 -1.421875 35.59375 -1.421875 
Q 29.59375 -1.421875 25.265625 0.953125 
Q 20.953125 3.328125 18.109375 8.203125 
z
M 48.6875 27.296875 
Q 48.6875 37.203125 44.609375 42.84375 
Q 40.53125 48.484375 33.40625 48.484375 
Q 26.265625 48.484375 22.1875 42.84375 
Q 18.109375 37.203125 18.109375 27.296875 
Q 18.109375 17.390625 22.1875 11.75 
Q 26.265625 6.109375 33.40625 6.109375 
Q 40.53125 6.109375 44.609375 11.75 
Q 48.6875 17.390625 48.6875 27.296875 
z
" id="DejaVuSans-112"/>
      <path d="M 56.203125 29.59375 
L 56.203125 25.203125 
L 14.890625 25.203125 
Q 15.484375 15.921875 20.484375 11.0625 
Q 25.484375 6.203125 34.421875 6.203125 
Q 39.59375 6.203125 44.453125 7.46875 
Q 49.3125 8.734375 54.109375 11.28125 
L 54.109375 2.78125 
Q 49.265625 0.734375 44.1875 -0.34375 
Q 39.109375 -1.421875 33.890625 -1.421875 
Q 20.796875 -1.421875 13.15625 6.1875 
Q 5.515625 13.8125 5.515625 26.8125 
Q 5.515625 40.234375 12.765625 48.109375 
Q 20.015625 56 32.328125 56 
Q 43.359375 56 49.78125 48.890625 
Q 56.203125 41.796875 56.203125 29.59375 
z
M 47.21875 32.234375 
Q 47.125 39.59375 43.09375 43.984375 
Q 39.0625 48.390625 32.421875 48.390625 
Q 24.90625 48.390625 20.390625 44.140625 
Q 15.875 39.890625 15.1875 32.171875 
z
" id="DejaVuSans-101"/>
      <path d="M 34.28125 27.484375 
Q 23.390625 27.484375 19.1875 25 
Q 14.984375 22.515625 14.984375 16.5 
Q 14.984375 11.71875 18.140625 8.90625 
Q 21.296875 6.109375 26.703125 6.109375 
Q 34.1875 6.109375 38.703125 11.40625 
Q 43.21875 16.703125 43.21875 25.484375 
L 43.21875 27.484375 
z
M 52.203125 31.203125 
L 52.203125 0 
L 43.21875 0 
L 43.21875 8.296875 
Q 40.140625 3.328125 35.546875 0.953125 
Q 30.953125 -1.421875 24.3125 -1.421875 
Q 15.921875 -1.421875 10.953125 3.296875 
Q 6 8.015625 6 15.921875 
Q 6 25.140625 12.171875 29.828125 
Q 18.359375 34.515625 30.609375 34.515625 
L 43.21875 34.515625 
L 43.21875 35.40625 
Q 43.21875 41.609375 39.140625 45 
Q 35.0625 48.390625 27.6875 48.390625 
Q 23 48.390625 18.546875 47.265625 
Q 14.109375 46.140625 10.015625 43.890625 
L 10.015625 52.203125 
Q 14.9375 54.109375 19.578125 55.046875 
Q 24.21875 56 28.609375 56 
Q 40.484375 56 46.34375 49.84375 
Q 52.203125 43.703125 52.203125 31.203125 
z
" id="DejaVuSans-97"/>
      <path d="M 9.078125 75.984375 
L 18.109375 75.984375 
L 18.109375 31.109375 
L 44.921875 54.6875 
L 56.390625 54.6875 
L 27.390625 29.109375 
L 57.625 0 
L 45.90625 0 
L 18.109375 26.703125 
L 18.109375 0 
L 9.078125 0 
z
" id="DejaVuSans-107"/>
     </defs>
     <g transform="translate(213.419375 335.860562)scale(0.1 -0.1)">
      <use xlink:href="#DejaVuSans-99"/>
      <use x="54.980469" xlink:href="#DejaVuSans-114"/>
      <use x="96.09375" xlink:href="#DejaVuSans-112"/>
      <use x="159.570312" xlink:href="#DejaVuSans-101"/>
      <use x="221.09375" xlink:href="#DejaVuSans-97"/>
      <use x="282.373047" xlink:href="#DejaVuSans-107"/>
      <use x="338.533203" xlink:href="#DejaVuSans-97"/>
      <use x="399.8125" xlink:href="#DejaVuSans-99"/>
     </g>
    </g>
   </g>
   <g id="matplotlib.axis_2">
    <g id="ytick_1">
     <g id="line2d_6">
      <defs>
       <path d="M 0 0 
L -3.5 0 
" id="mc4760ce8af" style="stroke:#000000;stroke-width:0.8;"/>
      </defs>
      <g>
       <use style="stroke:#000000;stroke-width:0.8;" x="57.6" xlink:href="#mc4760ce8af" y="174.528"/>
      </g>
     </g>
    </g>
   </g>
   <g id="line2d_7">
    <path clip-path="url(#p6739e3ce18)" d="M 111.659502 174.528 
L 254.628489 174.528 
" style="fill:none;stroke:#ffa500;stroke-linecap:square;stroke-width:1.5;"/>
   </g>
   <g id="line2d_8">
    <path clip-path="url(#p6739e3ce18)" d="M 119.522796 174.528 
L 174.565856 174.528 
" style="fill:none;stroke:#4c4c4c;stroke-linecap:square;stroke-width:4.5;"/>
   </g>
   <g id="line2d_9">
    <path clip-path="url(#p6739e3ce18)" d="M 107.89032 174.528 
L 163.778196 174.528 
" style="fill:none;stroke:#008000;stroke-linecap:square;stroke-width:1.5;"/>
   </g>
   <g id="line2d_10">
    <path clip-path="url(#p6739e3ce18)" d="M 114.38891 174.528 
L 135.184399 174.528 
" style="fill:none;stroke:#262626;stroke-linecap:square;stroke-width:4.5;"/>
   </g>
   <g id="patch_3">
    <path d="M 57.6 307.584 
L 57.6 41.472 
" style="fill:none;stroke:#000000;stroke-linecap:square;stroke-linejoin:miter;stroke-width:0.8;"/>
   </g>
   <g id="patch_4">
    <path d="M 414.72 307.584 
L 414.72 41.472 
" style="fill:none;stroke:#000000;stroke-linecap:square;stroke-linejoin:miter;stroke-width:0.8;"/>
   </g>
   <g id="patch_5">
    <path d="M 57.6 307.584 
L 414.72 307.584 
" style="fill:none;stroke:#000000;stroke-linecap:square;stroke-linejoin:miter;stroke-width:0.8;"/>
   </g>
   <g id="patch_6">
    <path d="M 57.6 41.472 
L 414.72 41.472 
" style="fill:none;stroke:#000000;stroke-linecap:square;stroke-linejoin:miter;stroke-width:0.8;"/>
   </g>
   <g id="PathCollection_1">
    <defs>
     <path d="M 0 1.5 
C 0.397805 1.5 0.77937 1.341951 1.06066 1.06066 
C 1.341951 0.77937 1.5 0.397805 1.5 0 
C 1.5 -0.397805 1.341951 -0.77937 1.06066 -1.06066 
C 0.77937 -1.341951 0.397805 -1.5 0 -1.5 
C -0.397805 -1.5 -0.77937 -1.341951 -1.06066 -1.06066 
C -1.341951 -0.77937 -1.5 -0.397805 -1.5 0 
C -1.5 0.397805 -1.341951 0.77937 -1.06066 1.06066 
C -0.77937 1.341951 -0.397805 1.5 0 1.5 
z
" id="m180b077d39" style="stroke:#4c4c4c;stroke-opacity:0.5;"/>
    </defs>
    <g clip-path="url(#p6739e3ce18)">
     <use style="fill:#ffffff;fill-opacity:0.5;stroke:#4c4c4c;stroke-opacity:0.5;" x="133.234822" xlink:href="#m180b077d39" y="174.528"/>
    </g>
   </g>
   <g id="PathCollection_2">
    <defs>
     <path d="M 0 1.5 
C 0.397805 1.5 0.77937 1.341951 1.06066 1.06066 
C 1.341951 0.77937 1.5 0.397805 1.5 0 
C 1.5 -0.397805 1.341951 -0.77937 1.06066 -1.06066 
C 0.77937 -1.341951 0.397805 -1.5 0 -1.5 
C -0.397805 -1.5 -0.77937 -1.341951 -1.06066 -1.06066 
C -1.341951 -0.77937 -1.5 -0.397805 -1.5 0 
C -1.5 0.397805 -1.341951 0.77937 -1.06066 1.06066 
C -0.77937 1.341951 -0.397805 1.5 0 1.5 
z
" id="mcb64ec1fea" style="stroke:#262626;stroke-opacity:0.5;"/>
    </defs>
    <g clip-path="url(#p6739e3ce18)">
     <use style="fill:#ffffff;fill-opacity:0.5;stroke:#262626;stroke-opacity:0.5;" x="118.223078" xlink:href="#mcb64ec1fea" y="174.528"/>
    </g>
   </g>
   <g id="text_7">
    <!-- Association of crpeakac vs. non_rebreather_mask -->
    <defs>
     <path d="M 34.1875 63.1875 
L 20.796875 26.90625 
L 47.609375 26.90625 
z
M 28.609375 72.90625 
L 39.796875 72.90625 
L 67.578125 0 
L 57.328125 0 
L 50.6875 18.703125 
L 17.828125 18.703125 
L 11.1875 0 
L 0.78125 0 
z
" id="DejaVuSans-65"/>
     <path d="M 44.28125 53.078125 
L 44.28125 44.578125 
Q 40.484375 46.53125 36.375 47.5 
Q 32.28125 48.484375 27.875 48.484375 
Q 21.1875 48.484375 17.84375 46.4375 
Q 14.5 44.390625 14.5 40.28125 
Q 14.5 37.15625 16.890625 35.375 
Q 19.28125 33.59375 26.515625 31.984375 
L 29.59375 31.296875 
Q 39.15625 29.25 43.1875 25.515625 
Q 47.21875 21.78125 47.21875 15.09375 
Q 47.21875 7.46875 41.1875 3.015625 
Q 35.15625 -1.421875 24.609375 -1.421875 
Q 20.21875 -1.421875 15.453125 -0.5625 
Q 10.6875 0.296875 5.421875 2 
L 5.421875 11.28125 
Q 10.40625 8.6875 15.234375 7.390625 
Q 20.0625 6.109375 24.8125 6.109375 
Q 31.15625 6.109375 34.5625 8.28125 
Q 37.984375 10.453125 37.984375 14.40625 
Q 37.984375 18.0625 35.515625 20.015625 
Q 33.0625 21.96875 24.703125 23.78125 
L 21.578125 24.515625 
Q 13.234375 26.265625 9.515625 29.90625 
Q 5.8125 33.546875 5.8125 39.890625 
Q 5.8125 47.609375 11.28125 51.796875 
Q 16.75 56 26.8125 56 
Q 31.78125 56 36.171875 55.265625 
Q 40.578125 54.546875 44.28125 53.078125 
z
" id="DejaVuSans-115"/>
     <path d="M 30.609375 48.390625 
Q 23.390625 48.390625 19.1875 42.75 
Q 14.984375 37.109375 14.984375 27.296875 
Q 14.984375 17.484375 19.15625 11.84375 
Q 23.34375 6.203125 30.609375 6.203125 
Q 37.796875 6.203125 41.984375 11.859375 
Q 46.1875 17.53125 46.1875 27.296875 
Q 46.1875 37.015625 41.984375 42.703125 
Q 37.796875 48.390625 30.609375 48.390625 
z
M 30.609375 56 
Q 42.328125 56 49.015625 48.375 
Q 55.71875 40.765625 55.71875 27.296875 
Q 55.71875 13.875 49.015625 6.21875 
Q 42.328125 -1.421875 30.609375 -1.421875 
Q 18.84375 -1.421875 12.171875 6.21875 
Q 5.515625 13.875 5.515625 27.296875 
Q 5.515625 40.765625 12.171875 48.375 
Q 18.84375 56 30.609375 56 
z
" id="DejaVuSans-111"/>
     <path d="M 9.421875 54.6875 
L 18.40625 54.6875 
L 18.40625 0 
L 9.421875 0 
z
M 9.421875 75.984375 
L 18.40625 75.984375 
L 18.40625 64.59375 
L 9.421875 64.59375 
z
" id="DejaVuSans-105"/>
     <path d="M 18.3125 70.21875 
L 18.3125 54.6875 
L 36.8125 54.6875 
L 36.8125 47.703125 
L 18.3125 47.703125 
L 18.3125 18.015625 
Q 18.3125 11.328125 20.140625 9.421875 
Q 21.96875 7.515625 27.59375 7.515625 
L 36.8125 7.515625 
L 36.8125 0 
L 27.59375 0 
Q 17.1875 0 13.234375 3.875 
Q 9.28125 7.765625 9.28125 18.015625 
L 9.28125 47.703125 
L 2.6875 47.703125 
L 2.6875 54.6875 
L 9.28125 54.6875 
L 9.28125 70.21875 
z
" id="DejaVuSans-116"/>
     <path d="M 54.890625 33.015625 
L 54.890625 0 
L 45.90625 0 
L 45.90625 32.71875 
Q 45.90625 40.484375 42.875 44.328125 
Q 39.84375 48.1875 33.796875 48.1875 
Q 26.515625 48.1875 22.3125 43.546875 
Q 18.109375 38.921875 18.109375 30.90625 
L 18.109375 0 
L 9.078125 0 
L 9.078125 54.6875 
L 18.109375 54.6875 
L 18.109375 46.1875 
Q 21.34375 51.125 25.703125 53.5625 
Q 30.078125 56 35.796875 56 
Q 45.21875 56 50.046875 50.171875 
Q 54.890625 44.34375 54.890625 33.015625 
z
" id="DejaVuSans-110"/>
     <path id="DejaVuSans-32"/>
     <path d="M 37.109375 75.984375 
L 37.109375 68.5 
L 28.515625 68.5 
Q 23.6875 68.5 21.796875 66.546875 
Q 19.921875 64.59375 19.921875 59.515625 
L 19.921875 54.6875 
L 34.71875 54.6875 
L 34.71875 47.703125 
L 19.921875 47.703125 
L 19.921875 0 
L 10.890625 0 
L 10.890625 47.703125 
L 2.296875 47.703125 
L 2.296875 54.6875 
L 10.890625 54.6875 
L 10.890625 58.5 
Q 10.890625 67.625 15.140625 71.796875 
Q 19.390625 75.984375 28.609375 75.984375 
z
" id="DejaVuSans-102"/>
     <path d="M 2.984375 54.6875 
L 12.5 54.6875 
L 29.59375 8.796875 
L 46.6875 54.6875 
L 56.203125 54.6875 
L 35.6875 0 
L 23.484375 0 
z
" id="DejaVuSans-118"/>
     <path d="M 10.6875 12.40625 
L 21 12.40625 
L 21 0 
L 10.6875 0 
z
" id="DejaVuSans-46"/>
     <path d="M 50.984375 -16.609375 
L 50.984375 -23.578125 
L -0.984375 -23.578125 
L -0.984375 -16.609375 
z
" id="DejaVuSans-95"/>
     <path d="M 48.6875 27.296875 
Q 48.6875 37.203125 44.609375 42.84375 
Q 40.53125 48.484375 33.40625 48.484375 
Q 26.265625 48.484375 22.1875 42.84375 
Q 18.109375 37.203125 18.109375 27.296875 
Q 18.109375 17.390625 22.1875 11.75 
Q 26.265625 6.109375 33.40625 6.109375 
Q 40.53125 6.109375 44.609375 11.75 
Q 48.6875 17.390625 48.6875 27.296875 
z
M 18.109375 46.390625 
Q 20.953125 51.265625 25.265625 53.625 
Q 29.59375 56 35.59375 56 
Q 45.5625 56 51.78125 48.09375 
Q 58.015625 40.1875 58.015625 27.296875 
Q 58.015625 14.40625 51.78125 6.484375 
Q 45.5625 -1.421875 35.59375 -1.421875 
Q 29.59375 -1.421875 25.265625 0.953125 
Q 20.953125 3.328125 18.109375 8.203125 
L 18.109375 0 
L 9.078125 0 
L 9.078125 75.984375 
L 18.109375 75.984375 
z
" id="DejaVuSans-98"/>
     <path d="M 54.890625 33.015625 
L 54.890625 0 
L 45.90625 0 
L 45.90625 32.71875 
Q 45.90625 40.484375 42.875 44.328125 
Q 39.84375 48.1875 33.796875 48.1875 
Q 26.515625 48.1875 22.3125 43.546875 
Q 18.109375 38.921875 18.109375 30.90625 
L 18.109375 0 
L 9.078125 0 
L 9.078125 75.984375 
L 18.109375 75.984375 
L 18.109375 46.1875 
Q 21.34375 51.125 25.703125 53.5625 
Q 30.078125 56 35.796875 56 
Q 45.21875 56 50.046875 50.171875 
Q 54.890625 44.34375 54.890625 33.015625 
z
" id="DejaVuSans-104"/>
     <path d="M 52 44.1875 
Q 55.375 50.25 60.0625 53.125 
Q 64.75 56 71.09375 56 
Q 79.640625 56 84.28125 50.015625 
Q 88.921875 44.046875 88.921875 33.015625 
L 88.921875 0 
L 79.890625 0 
L 79.890625 32.71875 
Q 79.890625 40.578125 77.09375 44.375 
Q 74.3125 48.1875 68.609375 48.1875 
Q 61.625 48.1875 57.5625 43.546875 
Q 53.515625 38.921875 53.515625 30.90625 
L 53.515625 0 
L 44.484375 0 
L 44.484375 32.71875 
Q 44.484375 40.625 41.703125 44.40625 
Q 38.921875 48.1875 33.109375 48.1875 
Q 26.21875 48.1875 22.15625 43.53125 
Q 18.109375 38.875 18.109375 30.90625 
L 18.109375 0 
L 9.078125 0 
L 9.078125 54.6875 
L 18.109375 54.6875 
L 18.109375 46.1875 
Q 21.1875 51.21875 25.484375 53.609375 
Q 29.78125 56 35.6875 56 
Q 41.65625 56 45.828125 52.96875 
Q 50 49.953125 52 44.1875 
z
" id="DejaVuSans-109"/>
    </defs>
    <g transform="translate(87.470625 35.472)scale(0.12 -0.12)">
     <use xlink:href="#DejaVuSans-65"/>
     <use x="68.408203" xlink:href="#DejaVuSans-115"/>
     <use x="120.507812" xlink:href="#DejaVuSans-115"/>
     <use x="172.607422" xlink:href="#DejaVuSans-111"/>
     <use x="233.789062" xlink:href="#DejaVuSans-99"/>
     <use x="288.769531" xlink:href="#DejaVuSans-105"/>
     <use x="316.552734" xlink:href="#DejaVuSans-97"/>
     <use x="377.832031" xlink:href="#DejaVuSans-116"/>
     <use x="417.041016" xlink:href="#DejaVuSans-105"/>
     <use x="444.824219" xlink:href="#DejaVuSans-111"/>
     <use x="506.005859" xlink:href="#DejaVuSans-110"/>
     <use x="569.384766" xlink:href="#DejaVuSans-32"/>
     <use x="601.171875" xlink:href="#DejaVuSans-111"/>
     <use x="662.353516" xlink:href="#DejaVuSans-102"/>
     <use x="697.558594" xlink:href="#DejaVuSans-32"/>
     <use x="729.345703" xlink:href="#DejaVuSans-99"/>
     <use x="784.326172" xlink:href="#DejaVuSans-114"/>
     <use x="825.439453" xlink:href="#DejaVuSans-112"/>
     <use x="888.916016" xlink:href="#DejaVuSans-101"/>
     <use x="950.439453" xlink:href="#DejaVuSans-97"/>
     <use x="1011.71875" xlink:href="#DejaVuSans-107"/>
     <use x="1067.878906" xlink:href="#DejaVuSans-97"/>
     <use x="1129.158203" xlink:href="#DejaVuSans-99"/>
     <use x="1184.138672" xlink:href="#DejaVuSans-32"/>
     <use x="1215.925781" xlink:href="#DejaVuSans-118"/>
     <use x="1275.105469" xlink:href="#DejaVuSans-115"/>
     <use x="1327.205078" xlink:href="#DejaVuSans-46"/>
     <use x="1358.992188" xlink:href="#DejaVuSans-32"/>
     <use x="1390.779297" xlink:href="#DejaVuSans-110"/>
     <use x="1454.158203" xlink:href="#DejaVuSans-111"/>
     <use x="1515.339844" xlink:href="#DejaVuSans-110"/>
     <use x="1578.71875" xlink:href="#DejaVuSans-95"/>
     <use x="1628.71875" xlink:href="#DejaVuSans-114"/>
     <use x="1667.582031" xlink:href="#DejaVuSans-101"/>
     <use x="1729.105469" xlink:href="#DejaVuSans-98"/>
     <use x="1792.582031" xlink:href="#DejaVuSans-114"/>
     <use x="1831.445312" xlink:href="#DejaVuSans-101"/>
     <use x="1892.96875" xlink:href="#DejaVuSans-97"/>
     <use x="1954.248047" xlink:href="#DejaVuSans-116"/>
     <use x="1993.457031" xlink:href="#DejaVuSans-104"/>
     <use x="2056.835938" xlink:href="#DejaVuSans-101"/>
     <use x="2118.359375" xlink:href="#DejaVuSans-114"/>
     <use x="2159.472656" xlink:href="#DejaVuSans-95"/>
     <use x="2209.472656" xlink:href="#DejaVuSans-109"/>
     <use x="2306.884766" xlink:href="#DejaVuSans-97"/>
     <use x="2368.164062" xlink:href="#DejaVuSans-115"/>
     <use x="2420.263672" xlink:href="#DejaVuSans-107"/>
    </g>
   </g>
   <g id="legend_1">
    <g id="patch_7">
     <path d="M 216.21375 79.3845 
L 407.72 79.3845 
Q 409.72 79.3845 409.72 77.3845 
L 409.72 48.472 
Q 409.72 46.472 407.72 46.472 
L 216.21375 46.472 
Q 214.21375 46.472 214.21375 48.472 
L 214.21375 77.3845 
Q 214.21375 79.3845 216.21375 79.3845 
z
" style="fill:#ffffff;opacity:0.8;stroke:#cccccc;stroke-linejoin:miter;"/>
    </g>
    <g id="line2d_11">
     <path d="M 218.21375 54.570438 
L 238.21375 54.570438 
" style="fill:none;stroke:#ffa500;stroke-linecap:square;stroke-width:1.5;"/>
    </g>
    <g id="line2d_12"/>
    <g id="text_8">
     <!-- non_rebreather_mask (131) -->
     <defs>
      <path d="M 31 75.875 
Q 24.46875 64.65625 21.28125 53.65625 
Q 18.109375 42.671875 18.109375 31.390625 
Q 18.109375 20.125 21.3125 9.0625 
Q 24.515625 -2 31 -13.1875 
L 23.1875 -13.1875 
Q 15.875 -1.703125 12.234375 9.375 
Q 8.59375 20.453125 8.59375 31.390625 
Q 8.59375 42.28125 12.203125 53.3125 
Q 15.828125 64.359375 23.1875 75.875 
z
" id="DejaVuSans-40"/>
      <path d="M 40.578125 39.3125 
Q 47.65625 37.796875 51.625 33 
Q 55.609375 28.21875 55.609375 21.1875 
Q 55.609375 10.40625 48.1875 4.484375 
Q 40.765625 -1.421875 27.09375 -1.421875 
Q 22.515625 -1.421875 17.65625 -0.515625 
Q 12.796875 0.390625 7.625 2.203125 
L 7.625 11.71875 
Q 11.71875 9.328125 16.59375 8.109375 
Q 21.484375 6.890625 26.8125 6.890625 
Q 36.078125 6.890625 40.9375 10.546875 
Q 45.796875 14.203125 45.796875 21.1875 
Q 45.796875 27.640625 41.28125 31.265625 
Q 36.765625 34.90625 28.71875 34.90625 
L 20.21875 34.90625 
L 20.21875 43.015625 
L 29.109375 43.015625 
Q 36.375 43.015625 40.234375 45.921875 
Q 44.09375 48.828125 44.09375 54.296875 
Q 44.09375 59.90625 40.109375 62.90625 
Q 36.140625 65.921875 28.71875 65.921875 
Q 24.65625 65.921875 20.015625 65.03125 
Q 15.375 64.15625 9.8125 62.3125 
L 9.8125 71.09375 
Q 15.4375 72.65625 20.34375 73.4375 
Q 25.25 74.21875 29.59375 74.21875 
Q 40.828125 74.21875 47.359375 69.109375 
Q 53.90625 64.015625 53.90625 55.328125 
Q 53.90625 49.265625 50.4375 45.09375 
Q 46.96875 40.921875 40.578125 39.3125 
z
" id="DejaVuSans-51"/>
      <path d="M 8.015625 75.875 
L 15.828125 75.875 
Q 23.140625 64.359375 26.78125 53.3125 
Q 30.421875 42.28125 30.421875 31.390625 
Q 30.421875 20.453125 26.78125 9.375 
Q 23.140625 -1.703125 15.828125 -13.1875 
L 8.015625 -13.1875 
Q 14.5 -2 17.703125 9.0625 
Q 20.90625 20.125 20.90625 31.390625 
Q 20.90625 42.671875 17.703125 53.65625 
Q 14.5 64.65625 8.015625 75.875 
z
" id="DejaVuSans-41"/>
     </defs>
     <g transform="translate(246.21375 58.070438)scale(0.1 -0.1)">
      <use xlink:href="#DejaVuSans-110"/>
      <use x="63.378906" xlink:href="#DejaVuSans-111"/>
      <use x="124.560547" xlink:href="#DejaVuSans-110"/>
      <use x="187.939453" xlink:href="#DejaVuSans-95"/>
      <use x="237.939453" xlink:href="#DejaVuSans-114"/>
      <use x="276.802734" xlink:href="#DejaVuSans-101"/>
      <use x="338.326172" xlink:href="#DejaVuSans-98"/>
      <use x="401.802734" xlink:href="#DejaVuSans-114"/>
      <use x="440.666016" xlink:href="#DejaVuSans-101"/>
      <use x="502.189453" xlink:href="#DejaVuSans-97"/>
      <use x="563.46875" xlink:href="#DejaVuSans-116"/>
      <use x="602.677734" xlink:href="#DejaVuSans-104"/>
      <use x="666.056641" xlink:href="#DejaVuSans-101"/>
      <use x="727.580078" xlink:href="#DejaVuSans-114"/>
      <use x="768.693359" xlink:href="#DejaVuSans-95"/>
      <use x="818.693359" xlink:href="#DejaVuSans-109"/>
      <use x="916.105469" xlink:href="#DejaVuSans-97"/>
      <use x="977.384766" xlink:href="#DejaVuSans-115"/>
      <use x="1029.484375" xlink:href="#DejaVuSans-107"/>
      <use x="1087.394531" xlink:href="#DejaVuSans-32"/>
      <use x="1119.181641" xlink:href="#DejaVuSans-40"/>
      <use x="1158.195312" xlink:href="#DejaVuSans-49"/>
      <use x="1221.818359" xlink:href="#DejaVuSans-51"/>
      <use x="1285.441406" xlink:href="#DejaVuSans-49"/>
      <use x="1349.064453" xlink:href="#DejaVuSans-41"/>
     </g>
    </g>
    <g id="line2d_13">
     <path d="M 218.21375 69.526688 
L 238.21375 69.526688 
" style="fill:none;stroke:#008000;stroke-linecap:square;stroke-width:1.5;"/>
    </g>
    <g id="line2d_14"/>
    <g id="text_9">
     <!-- Not non_rebreather_mask (360) -->
     <defs>
      <path d="M 9.8125 72.90625 
L 23.09375 72.90625 
L 55.421875 11.921875 
L 55.421875 72.90625 
L 64.984375 72.90625 
L 64.984375 0 
L 51.703125 0 
L 19.390625 60.984375 
L 19.390625 0 
L 9.8125 0 
z
" id="DejaVuSans-78"/>
      <path d="M 33.015625 40.375 
Q 26.375 40.375 22.484375 35.828125 
Q 18.609375 31.296875 18.609375 23.390625 
Q 18.609375 15.53125 22.484375 10.953125 
Q 26.375 6.390625 33.015625 6.390625 
Q 39.65625 6.390625 43.53125 10.953125 
Q 47.40625 15.53125 47.40625 23.390625 
Q 47.40625 31.296875 43.53125 35.828125 
Q 39.65625 40.375 33.015625 40.375 
z
M 52.59375 71.296875 
L 52.59375 62.3125 
Q 48.875 64.0625 45.09375 64.984375 
Q 41.3125 65.921875 37.59375 65.921875 
Q 27.828125 65.921875 22.671875 59.328125 
Q 17.53125 52.734375 16.796875 39.40625 
Q 19.671875 43.65625 24.015625 45.921875 
Q 28.375 48.1875 33.59375 48.1875 
Q 44.578125 48.1875 50.953125 41.515625 
Q 57.328125 34.859375 57.328125 23.390625 
Q 57.328125 12.15625 50.6875 5.359375 
Q 44.046875 -1.421875 33.015625 -1.421875 
Q 20.359375 -1.421875 13.671875 8.265625 
Q 6.984375 17.96875 6.984375 36.375 
Q 6.984375 53.65625 15.1875 63.9375 
Q 23.390625 74.21875 37.203125 74.21875 
Q 40.921875 74.21875 44.703125 73.484375 
Q 48.484375 72.75 52.59375 71.296875 
z
" id="DejaVuSans-54"/>
     </defs>
     <g transform="translate(246.21375 73.026688)scale(0.1 -0.1)">
      <use xlink:href="#DejaVuSans-78"/>
      <use x="74.804688" xlink:href="#DejaVuSans-111"/>
      <use x="135.986328" xlink:href="#DejaVuSans-116"/>
      <use x="175.195312" xlink:href="#DejaVuSans-32"/>
      <use x="206.982422" xlink:href="#DejaVuSans-110"/>
      <use x="270.361328" xlink:href="#DejaVuSans-111"/>
      <use x="331.542969" xlink:href="#DejaVuSans-110"/>
      <use x="394.921875" xlink:href="#DejaVuSans-95"/>
      <use x="444.921875" xlink:href="#DejaVuSans-114"/>
      <use x="483.785156" xlink:href="#DejaVuSans-101"/>
      <use x="545.308594" xlink:href="#DejaVuSans-98"/>
      <use x="608.785156" xlink:href="#DejaVuSans-114"/>
      <use x="647.648438" xlink:href="#DejaVuSans-101"/>
      <use x="709.171875" xlink:href="#DejaVuSans-97"/>
      <use x="770.451172" xlink:href="#DejaVuSans-116"/>
      <use x="809.660156" xlink:href="#DejaVuSans-104"/>
      <use x="873.039062" xlink:href="#DejaVuSans-101"/>
      <use x="934.5625" xlink:href="#DejaVuSans-114"/>
      <use x="975.675781" xlink:href="#DejaVuSans-95"/>
      <use x="1025.675781" xlink:href="#DejaVuSans-109"/>
      <use x="1123.087891" xlink:href="#DejaVuSans-97"/>
      <use x="1184.367188" xlink:href="#DejaVuSans-115"/>
      <use x="1236.466797" xlink:href="#DejaVuSans-107"/>
      <use x="1294.376953" xlink:href="#DejaVuSans-32"/>
      <use x="1326.164062" xlink:href="#DejaVuSans-40"/>
      <use x="1365.177734" xlink:href="#DejaVuSans-51"/>
      <use x="1428.800781" xlink:href="#DejaVuSans-54"/>
      <use x="1492.423828" xlink:href="#DejaVuSans-48"/>
      <use x="1556.046875" xlink:href="#DejaVuSans-41"/>
     </g>
    </g>
   </g>
  </g>
 </g>
 <defs>
  <clipPath id="p6739e3ce18">
   <rect height="266.112" width="357.12" x="57.6" y="41.472"/>
  </clipPath>
 </defs>
</svg>
