<?xml version="1.0" encoding="utf-8" standalone="no"?>
<!DOCTYPE svg PUBLIC "-//W3C//DTD SVG 1.1//EN"
  "http://www.w3.org/Graphics/SVG/1.1/DTD/svg11.dtd">
<!-- Created with matplotlib (https://matplotlib.org/) -->
<svg height="345.6pt" version="1.1" viewBox="0 0 460.8 345.6" width="460.8pt" xmlns="http://www.w3.org/2000/svg" xmlns:xlink="http://www.w3.org/1999/xlink">
 <defs>
  <style type="text/css">
*{stroke-linecap:butt;stroke-linejoin:round;}
  </style>
 </defs>
 <g id="figure_1">
  <g id="patch_1">
   <path d="M 0 345.6 
L 460.8 345.6 
L 460.8 0 
L 0 0 
z
" style="fill:#ffffff;"/>
  </g>
  <g id="axes_1">
   <g id="patch_2">
    <path d="M 57.6 307.584 
L 414.72 307.584 
L 414.72 41.472 
L 57.6 41.472 
z
" style="fill:#ffffff;"/>
   </g>
   <g id="PolyCollection_1">
    <defs>
     <path d="M 78.560817 -168.352507 
L 78.560817 -173.791493 
L 80.619854 -174.82218 
L 82.678891 -176.167293 
L 84.737927 -177.893229 
L 86.796964 -180.070198 
L 88.856 -182.768909 
L 90.915037 -186.0562 
L 92.974073 -189.989725 
L 95.03311 -194.611956 
L 97.092147 -199.943934 
L 99.151183 -205.979286 
L 101.21022 -212.679174 
L 103.269256 -219.968827 
L 105.328293 -227.736275 
L 107.387329 -235.833748 
L 109.446366 -244.081989 
L 111.505403 -252.277418 
L 113.564439 -260.201784 
L 115.623476 -267.633635 
L 117.682512 -274.360671 
L 119.741549 -280.191943 
L 121.800585 -284.968789 
L 123.859622 -288.573543 
L 125.918659 -290.935257 
L 127.977695 -292.032 
L 130.036732 -291.889637 
L 132.095768 -290.577357 
L 134.154805 -288.200511 
L 136.213841 -284.891548 
L 138.272878 -280.79997 
L 140.331915 -276.082222 
L 142.390951 -270.892389 
L 144.449988 -265.374369 
L 146.509024 -259.656039 
L 148.568061 -253.845636 
L 150.627097 -248.030377 
L 152.686134 -242.277098 
L 154.745171 -236.634544 
L 156.804207 -231.13679 
L 158.863244 -225.80723 
L 160.92228 -220.662601 
L 162.981317 -215.716523 
L 165.040353 -210.982223 
L 167.09939 -206.474203 
L 169.158427 -202.20882 
L 171.217463 -198.203859 
L 173.2765 -194.477348 
L 175.335536 -191.045891 
L 177.394573 -187.922871 
L 179.453609 -185.116819 
L 181.512646 -182.6302 
L 183.571683 -180.458777 
L 185.630719 -178.591595 
L 187.689756 -177.011567 
L 189.748792 -175.696545 
L 191.807829 -174.620713 
L 193.866865 -173.756149 
L 195.925902 -173.074366 
L 197.984939 -172.547728 
L 200.043975 -172.150613 
L 202.103012 -171.860311 
L 204.162048 -171.657613 
L 206.221085 -171.527123 
L 208.280121 -171.457329 
L 210.339158 -171.440461 
L 212.398195 -171.472191 
L 214.457231 -171.551175 
L 216.516268 -171.678478 
L 218.575304 -171.856883 
L 220.634341 -172.090081 
L 222.693377 -172.381778 
L 224.752414 -172.73473 
L 226.811451 -173.149763 
L 228.870487 -173.624852 
L 230.929524 -174.154339 
L 232.98856 -174.728399 
L 235.047597 -175.332842 
L 237.106634 -175.949342 
L 239.16567 -176.55611 
L 241.224707 -177.129025 
L 243.283743 -177.643137 
L 245.34278 -178.074428 
L 247.401816 -178.401649 
L 249.460853 -178.608052 
L 251.51989 -178.682806 
L 253.578926 -178.62194 
L 255.637963 -178.428687 
L 257.696999 -178.113207 
L 259.756036 -177.691694 
L 261.815072 -177.185005 
L 263.874109 -176.616948 
L 265.933146 -176.012447 
L 267.992182 -175.395755 
L 270.051219 -174.788908 
L 272.110255 -174.210546 
L 274.169292 -173.675162 
L 276.228328 -173.192801 
L 278.287365 -172.769167 
L 280.346402 -172.40606 
L 282.405438 -172.102035 
L 282.405438 -170.041965 
L 282.405438 -170.041965 
L 280.346402 -169.73794 
L 278.287365 -169.374833 
L 276.228328 -168.951199 
L 274.169292 -168.468838 
L 272.110255 -167.933454 
L 270.051219 -167.355092 
L 267.992182 -166.748245 
L 265.933146 -166.131553 
L 263.874109 -165.527052 
L 261.815072 -164.958995 
L 259.756036 -164.452306 
L 257.696999 -164.030793 
L 255.637963 -163.715313 
L 253.578926 -163.52206 
L 251.51989 -163.461194 
L 249.460853 -163.535948 
L 247.401816 -163.742351 
L 245.34278 -164.069572 
L 243.283743 -164.500863 
L 241.224707 -165.014975 
L 239.16567 -165.58789 
L 237.106634 -166.194658 
L 235.047597 -166.811158 
L 232.98856 -167.415601 
L 230.929524 -167.989661 
L 228.870487 -168.519148 
L 226.811451 -168.994237 
L 224.752414 -169.40927 
L 222.693377 -169.762222 
L 220.634341 -170.053919 
L 218.575304 -170.287117 
L 216.516268 -170.465522 
L 214.457231 -170.592825 
L 212.398195 -170.671809 
L 210.339158 -170.703539 
L 208.280121 -170.686671 
L 206.221085 -170.616877 
L 204.162048 -170.486387 
L 202.103012 -170.283689 
L 200.043975 -169.993387 
L 197.984939 -169.596272 
L 195.925902 -169.069634 
L 193.866865 -168.387851 
L 191.807829 -167.523287 
L 189.748792 -166.447455 
L 187.689756 -165.132433 
L 185.630719 -163.552405 
L 183.571683 -161.685223 
L 181.512646 -159.5138 
L 179.453609 -157.027181 
L 177.394573 -154.221129 
L 175.335536 -151.098109 
L 173.2765 -147.666652 
L 171.217463 -143.940141 
L 169.158427 -139.93518 
L 167.09939 -135.669797 
L 165.040353 -131.161777 
L 162.981317 -126.427477 
L 160.92228 -121.481399 
L 158.863244 -116.33677 
L 156.804207 -111.00721 
L 154.745171 -105.509456 
L 152.686134 -99.866902 
L 150.627097 -94.113623 
L 148.568061 -88.298364 
L 146.509024 -82.487961 
L 144.449988 -76.769631 
L 142.390951 -71.251611 
L 140.331915 -66.061778 
L 138.272878 -61.34403 
L 136.213841 -57.252452 
L 134.154805 -53.943489 
L 132.095768 -51.566643 
L 130.036732 -50.254363 
L 127.977695 -50.112 
L 125.918659 -51.208743 
L 123.859622 -53.570457 
L 121.800585 -57.175211 
L 119.741549 -61.952057 
L 117.682512 -67.783329 
L 115.623476 -74.510365 
L 113.564439 -81.942216 
L 111.505403 -89.866582 
L 109.446366 -98.062011 
L 107.387329 -106.310252 
L 105.328293 -114.407725 
L 103.269256 -122.175173 
L 101.21022 -129.464826 
L 99.151183 -136.164714 
L 97.092147 -142.200066 
L 95.03311 -147.532044 
L 92.974073 -152.154275 
L 90.915037 -156.0878 
L 88.856 -159.375091 
L 86.796964 -162.073802 
L 84.737927 -164.250771 
L 82.678891 -165.976707 
L 80.619854 -167.32182 
L 78.560817 -168.352507 
z
" id="mcefde16fe5" style="stroke:#4c4c4c;stroke-opacity:0.5;stroke-width:1.5;"/>
    </defs>
    <g clip-path="url(#pa5c814d628)">
     <use style="fill:#df9c20;fill-opacity:0.5;stroke:#4c4c4c;stroke-opacity:0.5;stroke-width:1.5;" x="0" xlink:href="#mcefde16fe5" y="345.6"/>
    </g>
   </g>
   <g id="PolyCollection_2">
    <defs>
     <path d="M 73.832727 -170.965345 
L 73.832727 -171.178655 
L 77.112066 -171.326423 
L 80.391405 -171.634037 
L 83.670744 -172.247939 
L 86.950083 -173.440076 
L 90.229421 -175.672961 
L 93.50876 -179.604798 
L 96.788099 -185.943937 
L 100.067438 -195.149865 
L 103.346777 -207.156768 
L 106.626116 -221.353973 
L 109.905455 -236.821546 
L 113.184793 -252.52442 
L 116.464132 -267.270071 
L 119.743471 -279.651609 
L 123.02281 -288.262584 
L 126.302149 -292.032 
L 129.581488 -290.356262 
L 132.860826 -283.137631 
L 136.140165 -271.040232 
L 139.419504 -255.742264 
L 142.698843 -239.607112 
L 145.978182 -224.782934 
L 149.257521 -212.463604 
L 152.53686 -202.84981 
L 155.816198 -195.597738 
L 159.095537 -190.243156 
L 162.374876 -186.378644 
L 165.654215 -183.667686 
L 168.933554 -181.82061 
L 172.212893 -180.585125 
L 175.492231 -179.753689 
L 178.77157 -179.166546 
L 182.050909 -178.696291 
L 185.330248 -178.231288 
L 188.609587 -177.683883 
L 191.888926 -177.01864 
L 195.168264 -176.268688 
L 198.447603 -175.518026 
L 201.726942 -174.858645 
L 205.006281 -174.352048 
L 208.28562 -174.019111 
L 211.564959 -173.854634 
L 214.844298 -173.838463 
L 218.123636 -173.923559 
L 221.402975 -174.019645 
L 224.682314 -174.01301 
L 227.961653 -173.831236 
L 231.240992 -173.503214 
L 234.520331 -173.150882 
L 237.799669 -172.907146 
L 241.079008 -172.825714 
L 244.358347 -172.855097 
L 247.637686 -172.887267 
L 250.917025 -172.830378 
L 254.196364 -172.651058 
L 257.475702 -172.372372 
L 260.755041 -172.04793 
L 264.03438 -171.735122 
L 267.313719 -171.476719 
L 270.593058 -171.292016 
L 273.872397 -171.177716 
L 277.151736 -171.116646 
L 280.431074 -171.088699 
L 283.710413 -171.078405 
L 286.989752 -171.07765 
L 290.269091 -171.085682 
L 293.54843 -171.108875 
L 296.827769 -171.16024 
L 300.107107 -171.256009 
L 303.386446 -171.406558 
L 306.665785 -171.603427 
L 309.945124 -171.810971 
L 313.224463 -171.973051 
L 316.503802 -172.036488 
L 319.78314 -171.978663 
L 323.062479 -171.820231 
L 326.341818 -171.613494 
L 329.621157 -171.415085 
L 332.900496 -171.261928 
L 336.179835 -171.16367 
L 339.459174 -171.110497 
L 342.738512 -171.086051 
L 346.017851 -171.076516 
L 349.29719 -171.073585 
L 352.576529 -171.073787 
L 355.855868 -171.07728 
L 359.135207 -171.087663 
L 362.414545 -171.112401 
L 365.693884 -171.161766 
L 368.973223 -171.243717 
L 372.252562 -171.354803 
L 375.531901 -171.472978 
L 378.81124 -171.561466 
L 382.090579 -171.586388 
L 385.369917 -171.537399 
L 388.649256 -171.434515 
L 391.928595 -171.315104 
L 395.207934 -171.212354 
L 398.487273 -171.141763 
L 398.487273 -171.002237 
L 398.487273 -171.002237 
L 395.207934 -170.931646 
L 391.928595 -170.828896 
L 388.649256 -170.709485 
L 385.369917 -170.606601 
L 382.090579 -170.557612 
L 378.81124 -170.582534 
L 375.531901 -170.671022 
L 372.252562 -170.789197 
L 368.973223 -170.900283 
L 365.693884 -170.982234 
L 362.414545 -171.031599 
L 359.135207 -171.056337 
L 355.855868 -171.06672 
L 352.576529 -171.070213 
L 349.29719 -171.070415 
L 346.017851 -171.067484 
L 342.738512 -171.057949 
L 339.459174 -171.033503 
L 336.179835 -170.98033 
L 332.900496 -170.882072 
L 329.621157 -170.728915 
L 326.341818 -170.530506 
L 323.062479 -170.323769 
L 319.78314 -170.165337 
L 316.503802 -170.107512 
L 313.224463 -170.170949 
L 309.945124 -170.333029 
L 306.665785 -170.540573 
L 303.386446 -170.737442 
L 300.107107 -170.887991 
L 296.827769 -170.98376 
L 293.54843 -171.035125 
L 290.269091 -171.058318 
L 286.989752 -171.06635 
L 283.710413 -171.065595 
L 280.431074 -171.055301 
L 277.151736 -171.027354 
L 273.872397 -170.966284 
L 270.593058 -170.851984 
L 267.313719 -170.667281 
L 264.03438 -170.408878 
L 260.755041 -170.09607 
L 257.475702 -169.771628 
L 254.196364 -169.492942 
L 250.917025 -169.313622 
L 247.637686 -169.256733 
L 244.358347 -169.288903 
L 241.079008 -169.318286 
L 237.799669 -169.236854 
L 234.520331 -168.993118 
L 231.240992 -168.640786 
L 227.961653 -168.312764 
L 224.682314 -168.13099 
L 221.402975 -168.124355 
L 218.123636 -168.220441 
L 214.844298 -168.305537 
L 211.564959 -168.289366 
L 208.28562 -168.124889 
L 205.006281 -167.791952 
L 201.726942 -167.285355 
L 198.447603 -166.625974 
L 195.168264 -165.875312 
L 191.888926 -165.12536 
L 188.609587 -164.460117 
L 185.330248 -163.912712 
L 182.050909 -163.447709 
L 178.77157 -162.977454 
L 175.492231 -162.390311 
L 172.212893 -161.558875 
L 168.933554 -160.32339 
L 165.654215 -158.476314 
L 162.374876 -155.765356 
L 159.095537 -151.900844 
L 155.816198 -146.546262 
L 152.53686 -139.29419 
L 149.257521 -129.680396 
L 145.978182 -117.361066 
L 142.698843 -102.536888 
L 139.419504 -86.401736 
L 136.140165 -71.103768 
L 132.860826 -59.006369 
L 129.581488 -51.787738 
L 126.302149 -50.112 
L 123.02281 -53.881416 
L 119.743471 -62.492391 
L 116.464132 -74.873929 
L 113.184793 -89.61958 
L 109.905455 -105.322454 
L 106.626116 -120.790027 
L 103.346777 -134.987232 
L 100.067438 -146.994135 
L 96.788099 -156.200063 
L 93.50876 -162.539202 
L 90.229421 -166.471039 
L 86.950083 -168.703924 
L 83.670744 -169.896061 
L 80.391405 -170.509963 
L 77.112066 -170.817577 
L 73.832727 -170.965345 
z
" id="m948f88bb85" style="stroke:#262626;stroke-opacity:0.5;stroke-width:1.5;"/>
    </defs>
    <g clip-path="url(#pa5c814d628)">
     <use style="fill:#107010;fill-opacity:0.5;stroke:#262626;stroke-opacity:0.5;stroke-width:1.5;" x="0" xlink:href="#m948f88bb85" y="345.6"/>
    </g>
   </g>
   <g id="matplotlib.axis_1">
    <g id="xtick_1">
     <g id="line2d_1">
      <defs>
       <path d="M 0 0 
L 0 3.5 
" id="m1cf51f82cf" style="stroke:#000000;stroke-width:0.8;"/>
      </defs>
      <g>
       <use style="stroke:#000000;stroke-width:0.8;" x="72.222543" xlink:href="#m1cf51f82cf" y="307.584"/>
      </g>
     </g>
     <g id="text_1">
      <!-- 10 -->
      <defs>
       <path d="M 12.40625 8.296875 
L 28.515625 8.296875 
L 28.515625 63.921875 
L 10.984375 60.40625 
L 10.984375 69.390625 
L 28.421875 72.90625 
L 38.28125 72.90625 
L 38.28125 8.296875 
L 54.390625 8.296875 
L 54.390625 0 
L 12.40625 0 
z
" id="DejaVuSans-49"/>
       <path d="M 31.78125 66.40625 
Q 24.171875 66.40625 20.328125 58.90625 
Q 16.5 51.421875 16.5 36.375 
Q 16.5 21.390625 20.328125 13.890625 
Q 24.171875 6.390625 31.78125 6.390625 
Q 39.453125 6.390625 43.28125 13.890625 
Q 47.125 21.390625 47.125 36.375 
Q 47.125 51.421875 43.28125 58.90625 
Q 39.453125 66.40625 31.78125 66.40625 
z
M 31.78125 74.21875 
Q 44.046875 74.21875 50.515625 64.515625 
Q 56.984375 54.828125 56.984375 36.375 
Q 56.984375 17.96875 50.515625 8.265625 
Q 44.046875 -1.421875 31.78125 -1.421875 
Q 19.53125 -1.421875 13.0625 8.265625 
Q 6.59375 17.96875 6.59375 36.375 
Q 6.59375 54.828125 13.0625 64.515625 
Q 19.53125 74.21875 31.78125 74.21875 
z
" id="DejaVuSans-48"/>
      </defs>
      <g transform="translate(65.860043 322.182437)scale(0.1 -0.1)">
       <use xlink:href="#DejaVuSans-49"/>
       <use x="63.623047" xlink:href="#DejaVuSans-48"/>
      </g>
     </g>
    </g>
    <g id="xtick_2">
     <g id="line2d_2">
      <g>
       <use style="stroke:#000000;stroke-width:0.8;" x="134.085734" xlink:href="#m1cf51f82cf" y="307.584"/>
      </g>
     </g>
     <g id="text_2">
      <!-- 20 -->
      <defs>
       <path d="M 19.1875 8.296875 
L 53.609375 8.296875 
L 53.609375 0 
L 7.328125 0 
L 7.328125 8.296875 
Q 12.9375 14.109375 22.625 23.890625 
Q 32.328125 33.6875 34.8125 36.53125 
Q 39.546875 41.84375 41.421875 45.53125 
Q 43.3125 49.21875 43.3125 52.78125 
Q 43.3125 58.59375 39.234375 62.25 
Q 35.15625 65.921875 28.609375 65.921875 
Q 23.96875 65.921875 18.8125 64.3125 
Q 13.671875 62.703125 7.8125 59.421875 
L 7.8125 69.390625 
Q 13.765625 71.78125 18.9375 73 
Q 24.125 74.21875 28.421875 74.21875 
Q 39.75 74.21875 46.484375 68.546875 
Q 53.21875 62.890625 53.21875 53.421875 
Q 53.21875 48.921875 51.53125 44.890625 
Q 49.859375 40.875 45.40625 35.40625 
Q 44.1875 33.984375 37.640625 27.21875 
Q 31.109375 20.453125 19.1875 8.296875 
z
" id="DejaVuSans-50"/>
      </defs>
      <g transform="translate(127.723234 322.182437)scale(0.1 -0.1)">
       <use xlink:href="#DejaVuSans-50"/>
       <use x="63.623047" xlink:href="#DejaVuSans-48"/>
      </g>
     </g>
    </g>
    <g id="xtick_3">
     <g id="line2d_3">
      <g>
       <use style="stroke:#000000;stroke-width:0.8;" x="195.948926" xlink:href="#m1cf51f82cf" y="307.584"/>
      </g>
     </g>
     <g id="text_3">
      <!-- 30 -->
      <defs>
       <path d="M 40.578125 39.3125 
Q 47.65625 37.796875 51.625 33 
Q 55.609375 28.21875 55.609375 21.1875 
Q 55.609375 10.40625 48.1875 4.484375 
Q 40.765625 -1.421875 27.09375 -1.421875 
Q 22.515625 -1.421875 17.65625 -0.515625 
Q 12.796875 0.390625 7.625 2.203125 
L 7.625 11.71875 
Q 11.71875 9.328125 16.59375 8.109375 
Q 21.484375 6.890625 26.8125 6.890625 
Q 36.078125 6.890625 40.9375 10.546875 
Q 45.796875 14.203125 45.796875 21.1875 
Q 45.796875 27.640625 41.28125 31.265625 
Q 36.765625 34.90625 28.71875 34.90625 
L 20.21875 34.90625 
L 20.21875 43.015625 
L 29.109375 43.015625 
Q 36.375 43.015625 40.234375 45.921875 
Q 44.09375 48.828125 44.09375 54.296875 
Q 44.09375 59.90625 40.109375 62.90625 
Q 36.140625 65.921875 28.71875 65.921875 
Q 24.65625 65.921875 20.015625 65.03125 
Q 15.375 64.15625 9.8125 62.3125 
L 9.8125 71.09375 
Q 15.4375 72.65625 20.34375 73.4375 
Q 25.25 74.21875 29.59375 74.21875 
Q 40.828125 74.21875 47.359375 69.109375 
Q 53.90625 64.015625 53.90625 55.328125 
Q 53.90625 49.265625 50.4375 45.09375 
Q 46.96875 40.921875 40.578125 39.3125 
z
" id="DejaVuSans-51"/>
      </defs>
      <g transform="translate(189.586426 322.182437)scale(0.1 -0.1)">
       <use xlink:href="#DejaVuSans-51"/>
       <use x="63.623047" xlink:href="#DejaVuSans-48"/>
      </g>
     </g>
    </g>
    <g id="xtick_4">
     <g id="line2d_4">
      <g>
       <use style="stroke:#000000;stroke-width:0.8;" x="257.812117" xlink:href="#m1cf51f82cf" y="307.584"/>
      </g>
     </g>
     <g id="text_4">
      <!-- 40 -->
      <defs>
       <path d="M 37.796875 64.3125 
L 12.890625 25.390625 
L 37.796875 25.390625 
z
M 35.203125 72.90625 
L 47.609375 72.90625 
L 47.609375 25.390625 
L 58.015625 25.390625 
L 58.015625 17.1875 
L 47.609375 17.1875 
L 47.609375 0 
L 37.796875 0 
L 37.796875 17.1875 
L 4.890625 17.1875 
L 4.890625 26.703125 
z
" id="DejaVuSans-52"/>
      </defs>
      <g transform="translate(251.449617 322.182437)scale(0.1 -0.1)">
       <use xlink:href="#DejaVuSans-52"/>
       <use x="63.623047" xlink:href="#DejaVuSans-48"/>
      </g>
     </g>
    </g>
    <g id="xtick_5">
     <g id="line2d_5">
      <g>
       <use style="stroke:#000000;stroke-width:0.8;" x="319.675308" xlink:href="#m1cf51f82cf" y="307.584"/>
      </g>
     </g>
     <g id="text_5">
      <!-- 50 -->
      <defs>
       <path d="M 10.796875 72.90625 
L 49.515625 72.90625 
L 49.515625 64.59375 
L 19.828125 64.59375 
L 19.828125 46.734375 
Q 21.96875 47.46875 24.109375 47.828125 
Q 26.265625 48.1875 28.421875 48.1875 
Q 40.625 48.1875 47.75 41.5 
Q 54.890625 34.8125 54.890625 23.390625 
Q 54.890625 11.625 47.5625 5.09375 
Q 40.234375 -1.421875 26.90625 -1.421875 
Q 22.3125 -1.421875 17.546875 -0.640625 
Q 12.796875 0.140625 7.71875 1.703125 
L 7.71875 11.625 
Q 12.109375 9.234375 16.796875 8.0625 
Q 21.484375 6.890625 26.703125 6.890625 
Q 35.15625 6.890625 40.078125 11.328125 
Q 45.015625 15.765625 45.015625 23.390625 
Q 45.015625 31 40.078125 35.4375 
Q 35.15625 39.890625 26.703125 39.890625 
Q 22.75 39.890625 18.8125 39.015625 
Q 14.890625 38.140625 10.796875 36.28125 
z
" id="DejaVuSans-53"/>
      </defs>
      <g transform="translate(313.312808 322.182437)scale(0.1 -0.1)">
       <use xlink:href="#DejaVuSans-53"/>
       <use x="63.623047" xlink:href="#DejaVuSans-48"/>
      </g>
     </g>
    </g>
    <g id="xtick_6">
     <g id="line2d_6">
      <g>
       <use style="stroke:#000000;stroke-width:0.8;" x="381.5385" xlink:href="#m1cf51f82cf" y="307.584"/>
      </g>
     </g>
     <g id="text_6">
      <!-- 60 -->
      <defs>
       <path d="M 33.015625 40.375 
Q 26.375 40.375 22.484375 35.828125 
Q 18.609375 31.296875 18.609375 23.390625 
Q 18.609375 15.53125 22.484375 10.953125 
Q 26.375 6.390625 33.015625 6.390625 
Q 39.65625 6.390625 43.53125 10.953125 
Q 47.40625 15.53125 47.40625 23.390625 
Q 47.40625 31.296875 43.53125 35.828125 
Q 39.65625 40.375 33.015625 40.375 
z
M 52.59375 71.296875 
L 52.59375 62.3125 
Q 48.875 64.0625 45.09375 64.984375 
Q 41.3125 65.921875 37.59375 65.921875 
Q 27.828125 65.921875 22.671875 59.328125 
Q 17.53125 52.734375 16.796875 39.40625 
Q 19.671875 43.65625 24.015625 45.921875 
Q 28.375 48.1875 33.59375 48.1875 
Q 44.578125 48.1875 50.953125 41.515625 
Q 57.328125 34.859375 57.328125 23.390625 
Q 57.328125 12.15625 50.6875 5.359375 
Q 44.046875 -1.421875 33.015625 -1.421875 
Q 20.359375 -1.421875 13.671875 8.265625 
Q 6.984375 17.96875 6.984375 36.375 
Q 6.984375 53.65625 15.1875 63.9375 
Q 23.390625 74.21875 37.203125 74.21875 
Q 40.921875 74.21875 44.703125 73.484375 
Q 48.484375 72.75 52.59375 71.296875 
z
" id="DejaVuSans-54"/>
      </defs>
      <g transform="translate(375.176 322.182437)scale(0.1 -0.1)">
       <use xlink:href="#DejaVuSans-54"/>
       <use x="63.623047" xlink:href="#DejaVuSans-48"/>
      </g>
     </g>
    </g>
    <g id="text_7">
     <!-- rrinitac -->
     <defs>
      <path d="M 41.109375 46.296875 
Q 39.59375 47.171875 37.8125 47.578125 
Q 36.03125 48 33.890625 48 
Q 26.265625 48 22.1875 43.046875 
Q 18.109375 38.09375 18.109375 28.8125 
L 18.109375 0 
L 9.078125 0 
L 9.078125 54.6875 
L 18.109375 54.6875 
L 18.109375 46.1875 
Q 20.953125 51.171875 25.484375 53.578125 
Q 30.03125 56 36.53125 56 
Q 37.453125 56 38.578125 55.875 
Q 39.703125 55.765625 41.0625 55.515625 
z
" id="DejaVuSans-114"/>
      <path d="M 9.421875 54.6875 
L 18.40625 54.6875 
L 18.40625 0 
L 9.421875 0 
z
M 9.421875 75.984375 
L 18.40625 75.984375 
L 18.40625 64.59375 
L 9.421875 64.59375 
z
" id="DejaVuSans-105"/>
      <path d="M 54.890625 33.015625 
L 54.890625 0 
L 45.90625 0 
L 45.90625 32.71875 
Q 45.90625 40.484375 42.875 44.328125 
Q 39.84375 48.1875 33.796875 48.1875 
Q 26.515625 48.1875 22.3125 43.546875 
Q 18.109375 38.921875 18.109375 30.90625 
L 18.109375 0 
L 9.078125 0 
L 9.078125 54.6875 
L 18.109375 54.6875 
L 18.109375 46.1875 
Q 21.34375 51.125 25.703125 53.5625 
Q 30.078125 56 35.796875 56 
Q 45.21875 56 50.046875 50.171875 
Q 54.890625 44.34375 54.890625 33.015625 
z
" id="DejaVuSans-110"/>
      <path d="M 18.3125 70.21875 
L 18.3125 54.6875 
L 36.8125 54.6875 
L 36.8125 47.703125 
L 18.3125 47.703125 
L 18.3125 18.015625 
Q 18.3125 11.328125 20.140625 9.421875 
Q 21.96875 7.515625 27.59375 7.515625 
L 36.8125 7.515625 
L 36.8125 0 
L 27.59375 0 
Q 17.1875 0 13.234375 3.875 
Q 9.28125 7.765625 9.28125 18.015625 
L 9.28125 47.703125 
L 2.6875 47.703125 
L 2.6875 54.6875 
L 9.28125 54.6875 
L 9.28125 70.21875 
z
" id="DejaVuSans-116"/>
      <path d="M 34.28125 27.484375 
Q 23.390625 27.484375 19.1875 25 
Q 14.984375 22.515625 14.984375 16.5 
Q 14.984375 11.71875 18.140625 8.90625 
Q 21.296875 6.109375 26.703125 6.109375 
Q 34.1875 6.109375 38.703125 11.40625 
Q 43.21875 16.703125 43.21875 25.484375 
L 43.21875 27.484375 
z
M 52.203125 31.203125 
L 52.203125 0 
L 43.21875 0 
L 43.21875 8.296875 
Q 40.140625 3.328125 35.546875 0.953125 
Q 30.953125 -1.421875 24.3125 -1.421875 
Q 15.921875 -1.421875 10.953125 3.296875 
Q 6 8.015625 6 15.921875 
Q 6 25.140625 12.171875 29.828125 
Q 18.359375 34.515625 30.609375 34.515625 
L 43.21875 34.515625 
L 43.21875 35.40625 
Q 43.21875 41.609375 39.140625 45 
Q 35.0625 48.390625 27.6875 48.390625 
Q 23 48.390625 18.546875 47.265625 
Q 14.109375 46.140625 10.015625 43.890625 
L 10.015625 52.203125 
Q 14.9375 54.109375 19.578125 55.046875 
Q 24.21875 56 28.609375 56 
Q 40.484375 56 46.34375 49.84375 
Q 52.203125 43.703125 52.203125 31.203125 
z
" id="DejaVuSans-97"/>
      <path d="M 48.78125 52.59375 
L 48.78125 44.1875 
Q 44.96875 46.296875 41.140625 47.34375 
Q 37.3125 48.390625 33.40625 48.390625 
Q 24.65625 48.390625 19.8125 42.84375 
Q 14.984375 37.3125 14.984375 27.296875 
Q 14.984375 17.28125 19.8125 11.734375 
Q 24.65625 6.203125 33.40625 6.203125 
Q 37.3125 6.203125 41.140625 7.25 
Q 44.96875 8.296875 48.78125 10.40625 
L 48.78125 2.09375 
Q 45.015625 0.34375 40.984375 -0.53125 
Q 36.96875 -1.421875 32.421875 -1.421875 
Q 20.0625 -1.421875 12.78125 6.34375 
Q 5.515625 14.109375 5.515625 27.296875 
Q 5.515625 40.671875 12.859375 48.328125 
Q 20.21875 56 33.015625 56 
Q 37.15625 56 41.109375 55.140625 
Q 45.0625 54.296875 48.78125 52.59375 
z
" id="DejaVuSans-99"/>
     </defs>
     <g transform="translate(218.41625 335.860562)scale(0.1 -0.1)">
      <use xlink:href="#DejaVuSans-114"/>
      <use x="39.363281" xlink:href="#DejaVuSans-114"/>
      <use x="80.476562" xlink:href="#DejaVuSans-105"/>
      <use x="108.259766" xlink:href="#DejaVuSans-110"/>
      <use x="171.638672" xlink:href="#DejaVuSans-105"/>
      <use x="199.421875" xlink:href="#DejaVuSans-116"/>
      <use x="238.630859" xlink:href="#DejaVuSans-97"/>
      <use x="299.910156" xlink:href="#DejaVuSans-99"/>
     </g>
    </g>
   </g>
   <g id="matplotlib.axis_2">
    <g id="ytick_1">
     <g id="line2d_7">
      <defs>
       <path d="M 0 0 
L -3.5 0 
" id="m28d3927ae8" style="stroke:#000000;stroke-width:0.8;"/>
      </defs>
      <g>
       <use style="stroke:#000000;stroke-width:0.8;" x="57.6" xlink:href="#m28d3927ae8" y="174.528"/>
      </g>
     </g>
    </g>
   </g>
   <g id="line2d_8">
    <path clip-path="url(#pa5c814d628)" d="M 109.340458 174.528 
L 165.01733 174.528 
" style="fill:none;stroke:#ffa500;stroke-linecap:square;stroke-width:1.5;"/>
   </g>
   <g id="line2d_9">
    <path clip-path="url(#pa5c814d628)" d="M 121.713096 174.528 
L 146.458372 174.528 
" style="fill:none;stroke:#4c4c4c;stroke-linecap:square;stroke-width:4.5;"/>
   </g>
   <g id="line2d_10">
    <path clip-path="url(#pa5c814d628)" d="M 103.154139 174.528 
L 152.644692 174.528 
" style="fill:none;stroke:#008000;stroke-linecap:square;stroke-width:1.5;"/>
   </g>
   <g id="line2d_11">
    <path clip-path="url(#pa5c814d628)" d="M 121.713096 174.528 
L 134.085734 174.528 
" style="fill:none;stroke:#262626;stroke-linecap:square;stroke-width:4.5;"/>
   </g>
   <g id="patch_3">
    <path d="M 57.6 307.584 
L 57.6 41.472 
" style="fill:none;stroke:#000000;stroke-linecap:square;stroke-linejoin:miter;stroke-width:0.8;"/>
   </g>
   <g id="patch_4">
    <path d="M 414.72 307.584 
L 414.72 41.472 
" style="fill:none;stroke:#000000;stroke-linecap:square;stroke-linejoin:miter;stroke-width:0.8;"/>
   </g>
   <g id="patch_5">
    <path d="M 57.6 307.584 
L 414.72 307.584 
" style="fill:none;stroke:#000000;stroke-linecap:square;stroke-linejoin:miter;stroke-width:0.8;"/>
   </g>
   <g id="patch_6">
    <path d="M 57.6 41.472 
L 414.72 41.472 
" style="fill:none;stroke:#000000;stroke-linecap:square;stroke-linejoin:miter;stroke-width:0.8;"/>
   </g>
   <g id="PathCollection_1">
    <defs>
     <path d="M 0 1.5 
C 0.397805 1.5 0.77937 1.341951 1.06066 1.06066 
C 1.341951 0.77937 1.5 0.397805 1.5 0 
C 1.5 -0.397805 1.341951 -0.77937 1.06066 -1.06066 
C 0.77937 -1.341951 0.397805 -1.5 0 -1.5 
C -0.397805 -1.5 -0.77937 -1.341951 -1.06066 -1.06066 
C -1.341951 -0.77937 -1.5 -0.397805 -1.5 0 
C -1.5 0.397805 -1.341951 0.77937 -1.06066 1.06066 
C -0.77937 1.341951 -0.397805 1.5 0 1.5 
z
" id="m66ba2b0c5e" style="stroke:#4c4c4c;stroke-opacity:0.5;"/>
    </defs>
    <g clip-path="url(#pa5c814d628)">
     <use style="fill:#ffffff;fill-opacity:0.5;stroke:#4c4c4c;stroke-opacity:0.5;" x="134.085734" xlink:href="#m66ba2b0c5e" y="174.528"/>
    </g>
   </g>
   <g id="PathCollection_2">
    <defs>
     <path d="M 0 1.5 
C 0.397805 1.5 0.77937 1.341951 1.06066 1.06066 
C 1.341951 0.77937 1.5 0.397805 1.5 0 
C 1.5 -0.397805 1.341951 -0.77937 1.06066 -1.06066 
C 0.77937 -1.341951 0.397805 -1.5 0 -1.5 
C -0.397805 -1.5 -0.77937 -1.341951 -1.06066 -1.06066 
C -1.341951 -0.77937 -1.5 -0.397805 -1.5 0 
C -1.5 0.397805 -1.341951 0.77937 -1.06066 1.06066 
C -0.77937 1.341951 -0.397805 1.5 0 1.5 
z
" id="mdf303c2b94" style="stroke:#262626;stroke-opacity:0.5;"/>
    </defs>
    <g clip-path="url(#pa5c814d628)">
     <use style="fill:#ffffff;fill-opacity:0.5;stroke:#262626;stroke-opacity:0.5;" x="127.899415" xlink:href="#mdf303c2b94" y="174.528"/>
    </g>
   </g>
   <g id="text_8">
    <!-- Association of rrinitac vs. cpap_bpap -->
    <defs>
     <path d="M 34.1875 63.1875 
L 20.796875 26.90625 
L 47.609375 26.90625 
z
M 28.609375 72.90625 
L 39.796875 72.90625 
L 67.578125 0 
L 57.328125 0 
L 50.6875 18.703125 
L 17.828125 18.703125 
L 11.1875 0 
L 0.78125 0 
z
" id="DejaVuSans-65"/>
     <path d="M 44.28125 53.078125 
L 44.28125 44.578125 
Q 40.484375 46.53125 36.375 47.5 
Q 32.28125 48.484375 27.875 48.484375 
Q 21.1875 48.484375 17.84375 46.4375 
Q 14.5 44.390625 14.5 40.28125 
Q 14.5 37.15625 16.890625 35.375 
Q 19.28125 33.59375 26.515625 31.984375 
L 29.59375 31.296875 
Q 39.15625 29.25 43.1875 25.515625 
Q 47.21875 21.78125 47.21875 15.09375 
Q 47.21875 7.46875 41.1875 3.015625 
Q 35.15625 -1.421875 24.609375 -1.421875 
Q 20.21875 -1.421875 15.453125 -0.5625 
Q 10.6875 0.296875 5.421875 2 
L 5.421875 11.28125 
Q 10.40625 8.6875 15.234375 7.390625 
Q 20.0625 6.109375 24.8125 6.109375 
Q 31.15625 6.109375 34.5625 8.28125 
Q 37.984375 10.453125 37.984375 14.40625 
Q 37.984375 18.0625 35.515625 20.015625 
Q 33.0625 21.96875 24.703125 23.78125 
L 21.578125 24.515625 
Q 13.234375 26.265625 9.515625 29.90625 
Q 5.8125 33.546875 5.8125 39.890625 
Q 5.8125 47.609375 11.28125 51.796875 
Q 16.75 56 26.8125 56 
Q 31.78125 56 36.171875 55.265625 
Q 40.578125 54.546875 44.28125 53.078125 
z
" id="DejaVuSans-115"/>
     <path d="M 30.609375 48.390625 
Q 23.390625 48.390625 19.1875 42.75 
Q 14.984375 37.109375 14.984375 27.296875 
Q 14.984375 17.484375 19.15625 11.84375 
Q 23.34375 6.203125 30.609375 6.203125 
Q 37.796875 6.203125 41.984375 11.859375 
Q 46.1875 17.53125 46.1875 27.296875 
Q 46.1875 37.015625 41.984375 42.703125 
Q 37.796875 48.390625 30.609375 48.390625 
z
M 30.609375 56 
Q 42.328125 56 49.015625 48.375 
Q 55.71875 40.765625 55.71875 27.296875 
Q 55.71875 13.875 49.015625 6.21875 
Q 42.328125 -1.421875 30.609375 -1.421875 
Q 18.84375 -1.421875 12.171875 6.21875 
Q 5.515625 13.875 5.515625 27.296875 
Q 5.515625 40.765625 12.171875 48.375 
Q 18.84375 56 30.609375 56 
z
" id="DejaVuSans-111"/>
     <path id="DejaVuSans-32"/>
     <path d="M 37.109375 75.984375 
L 37.109375 68.5 
L 28.515625 68.5 
Q 23.6875 68.5 21.796875 66.546875 
Q 19.921875 64.59375 19.921875 59.515625 
L 19.921875 54.6875 
L 34.71875 54.6875 
L 34.71875 47.703125 
L 19.921875 47.703125 
L 19.921875 0 
L 10.890625 0 
L 10.890625 47.703125 
L 2.296875 47.703125 
L 2.296875 54.6875 
L 10.890625 54.6875 
L 10.890625 58.5 
Q 10.890625 67.625 15.140625 71.796875 
Q 19.390625 75.984375 28.609375 75.984375 
z
" id="DejaVuSans-102"/>
     <path d="M 2.984375 54.6875 
L 12.5 54.6875 
L 29.59375 8.796875 
L 46.6875 54.6875 
L 56.203125 54.6875 
L 35.6875 0 
L 23.484375 0 
z
" id="DejaVuSans-118"/>
     <path d="M 10.6875 12.40625 
L 21 12.40625 
L 21 0 
L 10.6875 0 
z
" id="DejaVuSans-46"/>
     <path d="M 18.109375 8.203125 
L 18.109375 -20.796875 
L 9.078125 -20.796875 
L 9.078125 54.6875 
L 18.109375 54.6875 
L 18.109375 46.390625 
Q 20.953125 51.265625 25.265625 53.625 
Q 29.59375 56 35.59375 56 
Q 45.5625 56 51.78125 48.09375 
Q 58.015625 40.1875 58.015625 27.296875 
Q 58.015625 14.40625 51.78125 6.484375 
Q 45.5625 -1.421875 35.59375 -1.421875 
Q 29.59375 -1.421875 25.265625 0.953125 
Q 20.953125 3.328125 18.109375 8.203125 
z
M 48.6875 27.296875 
Q 48.6875 37.203125 44.609375 42.84375 
Q 40.53125 48.484375 33.40625 48.484375 
Q 26.265625 48.484375 22.1875 42.84375 
Q 18.109375 37.203125 18.109375 27.296875 
Q 18.109375 17.390625 22.1875 11.75 
Q 26.265625 6.109375 33.40625 6.109375 
Q 40.53125 6.109375 44.609375 11.75 
Q 48.6875 17.390625 48.6875 27.296875 
z
" id="DejaVuSans-112"/>
     <path d="M 50.984375 -16.609375 
L 50.984375 -23.578125 
L -0.984375 -23.578125 
L -0.984375 -16.609375 
z
" id="DejaVuSans-95"/>
     <path d="M 48.6875 27.296875 
Q 48.6875 37.203125 44.609375 42.84375 
Q 40.53125 48.484375 33.40625 48.484375 
Q 26.265625 48.484375 22.1875 42.84375 
Q 18.109375 37.203125 18.109375 27.296875 
Q 18.109375 17.390625 22.1875 11.75 
Q 26.265625 6.109375 33.40625 6.109375 
Q 40.53125 6.109375 44.609375 11.75 
Q 48.6875 17.390625 48.6875 27.296875 
z
M 18.109375 46.390625 
Q 20.953125 51.265625 25.265625 53.625 
Q 29.59375 56 35.59375 56 
Q 45.5625 56 51.78125 48.09375 
Q 58.015625 40.1875 58.015625 27.296875 
Q 58.015625 14.40625 51.78125 6.484375 
Q 45.5625 -1.421875 35.59375 -1.421875 
Q 29.59375 -1.421875 25.265625 0.953125 
Q 20.953125 3.328125 18.109375 8.203125 
L 18.109375 0 
L 9.078125 0 
L 9.078125 75.984375 
L 18.109375 75.984375 
z
" id="DejaVuSans-98"/>
    </defs>
    <g transform="translate(126.012187 35.472)scale(0.12 -0.12)">
     <use xlink:href="#DejaVuSans-65"/>
     <use x="68.408203" xlink:href="#DejaVuSans-115"/>
     <use x="120.507812" xlink:href="#DejaVuSans-115"/>
     <use x="172.607422" xlink:href="#DejaVuSans-111"/>
     <use x="233.789062" xlink:href="#DejaVuSans-99"/>
     <use x="288.769531" xlink:href="#DejaVuSans-105"/>
     <use x="316.552734" xlink:href="#DejaVuSans-97"/>
     <use x="377.832031" xlink:href="#DejaVuSans-116"/>
     <use x="417.041016" xlink:href="#DejaVuSans-105"/>
     <use x="444.824219" xlink:href="#DejaVuSans-111"/>
     <use x="506.005859" xlink:href="#DejaVuSans-110"/>
     <use x="569.384766" xlink:href="#DejaVuSans-32"/>
     <use x="601.171875" xlink:href="#DejaVuSans-111"/>
     <use x="662.353516" xlink:href="#DejaVuSans-102"/>
     <use x="697.558594" xlink:href="#DejaVuSans-32"/>
     <use x="729.345703" xlink:href="#DejaVuSans-114"/>
     <use x="768.708984" xlink:href="#DejaVuSans-114"/>
     <use x="809.822266" xlink:href="#DejaVuSans-105"/>
     <use x="837.605469" xlink:href="#DejaVuSans-110"/>
     <use x="900.984375" xlink:href="#DejaVuSans-105"/>
     <use x="928.767578" xlink:href="#DejaVuSans-116"/>
     <use x="967.976562" xlink:href="#DejaVuSans-97"/>
     <use x="1029.255859" xlink:href="#DejaVuSans-99"/>
     <use x="1084.236328" xlink:href="#DejaVuSans-32"/>
     <use x="1116.023438" xlink:href="#DejaVuSans-118"/>
     <use x="1175.203125" xlink:href="#DejaVuSans-115"/>
     <use x="1227.302734" xlink:href="#DejaVuSans-46"/>
     <use x="1259.089844" xlink:href="#DejaVuSans-32"/>
     <use x="1290.876953" xlink:href="#DejaVuSans-99"/>
     <use x="1345.857422" xlink:href="#DejaVuSans-112"/>
     <use x="1409.333984" xlink:href="#DejaVuSans-97"/>
     <use x="1470.613281" xlink:href="#DejaVuSans-112"/>
     <use x="1534.089844" xlink:href="#DejaVuSans-95"/>
     <use x="1584.089844" xlink:href="#DejaVuSans-98"/>
     <use x="1647.566406" xlink:href="#DejaVuSans-112"/>
     <use x="1711.042969" xlink:href="#DejaVuSans-97"/>
     <use x="1772.322266" xlink:href="#DejaVuSans-112"/>
    </g>
   </g>
   <g id="legend_1">
    <g id="patch_7">
     <path d="M 270.455938 79.3845 
L 407.72 79.3845 
Q 409.72 79.3845 409.72 77.3845 
L 409.72 48.472 
Q 409.72 46.472 407.72 46.472 
L 270.455938 46.472 
Q 268.455938 46.472 268.455938 48.472 
L 268.455938 77.3845 
Q 268.455938 79.3845 270.455938 79.3845 
z
" style="fill:#ffffff;opacity:0.8;stroke:#cccccc;stroke-linejoin:miter;"/>
    </g>
    <g id="line2d_12">
     <path d="M 272.455938 54.570438 
L 292.455938 54.570438 
" style="fill:none;stroke:#ffa500;stroke-linecap:square;stroke-width:1.5;"/>
    </g>
    <g id="line2d_13"/>
    <g id="text_9">
     <!-- cpap_bpap (23) -->
     <defs>
      <path d="M 31 75.875 
Q 24.46875 64.65625 21.28125 53.65625 
Q 18.109375 42.671875 18.109375 31.390625 
Q 18.109375 20.125 21.3125 9.0625 
Q 24.515625 -2 31 -13.1875 
L 23.1875 -13.1875 
Q 15.875 -1.703125 12.234375 9.375 
Q 8.59375 20.453125 8.59375 31.390625 
Q 8.59375 42.28125 12.203125 53.3125 
Q 15.828125 64.359375 23.1875 75.875 
z
" id="DejaVuSans-40"/>
      <path d="M 8.015625 75.875 
L 15.828125 75.875 
Q 23.140625 64.359375 26.78125 53.3125 
Q 30.421875 42.28125 30.421875 31.390625 
Q 30.421875 20.453125 26.78125 9.375 
Q 23.140625 -1.703125 15.828125 -13.1875 
L 8.015625 -13.1875 
Q 14.5 -2 17.703125 9.0625 
Q 20.90625 20.125 20.90625 31.390625 
Q 20.90625 42.671875 17.703125 53.65625 
Q 14.5 64.65625 8.015625 75.875 
z
" id="DejaVuSans-41"/>
     </defs>
     <g transform="translate(300.455938 58.070438)scale(0.1 -0.1)">
      <use xlink:href="#DejaVuSans-99"/>
      <use x="54.980469" xlink:href="#DejaVuSans-112"/>
      <use x="118.457031" xlink:href="#DejaVuSans-97"/>
      <use x="179.736328" xlink:href="#DejaVuSans-112"/>
      <use x="243.212891" xlink:href="#DejaVuSans-95"/>
      <use x="293.212891" xlink:href="#DejaVuSans-98"/>
      <use x="356.689453" xlink:href="#DejaVuSans-112"/>
      <use x="420.166016" xlink:href="#DejaVuSans-97"/>
      <use x="481.445312" xlink:href="#DejaVuSans-112"/>
      <use x="544.921875" xlink:href="#DejaVuSans-32"/>
      <use x="576.708984" xlink:href="#DejaVuSans-40"/>
      <use x="615.722656" xlink:href="#DejaVuSans-50"/>
      <use x="679.345703" xlink:href="#DejaVuSans-51"/>
      <use x="742.96875" xlink:href="#DejaVuSans-41"/>
     </g>
    </g>
    <g id="line2d_14">
     <path d="M 272.455938 69.526688 
L 292.455938 69.526688 
" style="fill:none;stroke:#008000;stroke-linecap:square;stroke-width:1.5;"/>
    </g>
    <g id="line2d_15"/>
    <g id="text_10">
     <!-- Not cpap_bpap (463) -->
     <defs>
      <path d="M 9.8125 72.90625 
L 23.09375 72.90625 
L 55.421875 11.921875 
L 55.421875 72.90625 
L 64.984375 72.90625 
L 64.984375 0 
L 51.703125 0 
L 19.390625 60.984375 
L 19.390625 0 
L 9.8125 0 
z
" id="DejaVuSans-78"/>
     </defs>
     <g transform="translate(300.455938 73.026688)scale(0.1 -0.1)">
      <use xlink:href="#DejaVuSans-78"/>
      <use x="74.804688" xlink:href="#DejaVuSans-111"/>
      <use x="135.986328" xlink:href="#DejaVuSans-116"/>
      <use x="175.195312" xlink:href="#DejaVuSans-32"/>
      <use x="206.982422" xlink:href="#DejaVuSans-99"/>
      <use x="261.962891" xlink:href="#DejaVuSans-112"/>
      <use x="325.439453" xlink:href="#DejaVuSans-97"/>
      <use x="386.71875" xlink:href="#DejaVuSans-112"/>
      <use x="450.195312" xlink:href="#DejaVuSans-95"/>
      <use x="500.195312" xlink:href="#DejaVuSans-98"/>
      <use x="563.671875" xlink:href="#DejaVuSans-112"/>
      <use x="627.148438" xlink:href="#DejaVuSans-97"/>
      <use x="688.427734" xlink:href="#DejaVuSans-112"/>
      <use x="751.904297" xlink:href="#DejaVuSans-32"/>
      <use x="783.691406" xlink:href="#DejaVuSans-40"/>
      <use x="822.705078" xlink:href="#DejaVuSans-52"/>
      <use x="886.328125" xlink:href="#DejaVuSans-54"/>
      <use x="949.951172" xlink:href="#DejaVuSans-51"/>
      <use x="1013.574219" xlink:href="#DejaVuSans-41"/>
     </g>
    </g>
   </g>
  </g>
 </g>
 <defs>
  <clipPath id="pa5c814d628">
   <rect height="266.112" width="357.12" x="57.6" y="41.472"/>
  </clipPath>
 </defs>
</svg>
