<?xml version="1.0" encoding="utf-8" standalone="no"?>
<!DOCTYPE svg PUBLIC "-//W3C//DTD SVG 1.1//EN"
  "http://www.w3.org/Graphics/SVG/1.1/DTD/svg11.dtd">
<!-- Created with matplotlib (https://matplotlib.org/) -->
<svg height="1080pt" version="1.1" viewBox="0 0 1080 1080" width="1080pt" xmlns="http://www.w3.org/2000/svg" xmlns:xlink="http://www.w3.org/1999/xlink">
 <defs>
  <style type="text/css">
*{stroke-linecap:butt;stroke-linejoin:round;}
  </style>
 </defs>
 <g id="figure_1">
  <g id="patch_1">
   <path d="M 0 1080 
L 1080 1080 
L 1080 0 
L 0 0 
z
" style="fill:#ffffff;"/>
  </g>
  <g id="axes_1">
   <g id="patch_2">
    <path d="M 135 961.2 
L 972 961.2 
L 972 129.6 
L 135 129.6 
z
" style="fill:#ffffff;"/>
   </g>
   <g id="matplotlib.axis_1">
    <g id="xtick_1">
     <g id="line2d_1">
      <defs>
       <path d="M 0 0 
L 0 3.5 
" id="m51193da5dd" style="stroke:#000000;stroke-width:0.8;"/>
      </defs>
      <g>
       <use style="stroke:#000000;stroke-width:0.8;" x="173.045455" xlink:href="#m51193da5dd" y="961.2"/>
      </g>
     </g>
     <g id="text_1">
      <!-- 0.0 -->
      <defs>
       <path d="M 31.78125 66.40625 
Q 24.171875 66.40625 20.328125 58.90625 
Q 16.5 51.421875 16.5 36.375 
Q 16.5 21.390625 20.328125 13.890625 
Q 24.171875 6.390625 31.78125 6.390625 
Q 39.453125 6.390625 43.28125 13.890625 
Q 47.125 21.390625 47.125 36.375 
Q 47.125 51.421875 43.28125 58.90625 
Q 39.453125 66.40625 31.78125 66.40625 
z
M 31.78125 74.21875 
Q 44.046875 74.21875 50.515625 64.515625 
Q 56.984375 54.828125 56.984375 36.375 
Q 56.984375 17.96875 50.515625 8.265625 
Q 44.046875 -1.421875 31.78125 -1.421875 
Q 19.53125 -1.421875 13.0625 8.265625 
Q 6.59375 17.96875 6.59375 36.375 
Q 6.59375 54.828125 13.0625 64.515625 
Q 19.53125 74.21875 31.78125 74.21875 
z
" id="DejaVuSans-48"/>
       <path d="M 10.6875 12.40625 
L 21 12.40625 
L 21 0 
L 10.6875 0 
z
" id="DejaVuSans-46"/>
      </defs>
      <g transform="translate(165.093892 975.798437)scale(0.1 -0.1)">
       <use xlink:href="#DejaVuSans-48"/>
       <use x="63.623047" xlink:href="#DejaVuSans-46"/>
       <use x="95.410156" xlink:href="#DejaVuSans-48"/>
      </g>
     </g>
    </g>
    <g id="xtick_2">
     <g id="line2d_2">
      <g>
       <use style="stroke:#000000;stroke-width:0.8;" x="325.227273" xlink:href="#m51193da5dd" y="961.2"/>
      </g>
     </g>
     <g id="text_2">
      <!-- 0.2 -->
      <defs>
       <path d="M 19.1875 8.296875 
L 53.609375 8.296875 
L 53.609375 0 
L 7.328125 0 
L 7.328125 8.296875 
Q 12.9375 14.109375 22.625 23.890625 
Q 32.328125 33.6875 34.8125 36.53125 
Q 39.546875 41.84375 41.421875 45.53125 
Q 43.3125 49.21875 43.3125 52.78125 
Q 43.3125 58.59375 39.234375 62.25 
Q 35.15625 65.921875 28.609375 65.921875 
Q 23.96875 65.921875 18.8125 64.3125 
Q 13.671875 62.703125 7.8125 59.421875 
L 7.8125 69.390625 
Q 13.765625 71.78125 18.9375 73 
Q 24.125 74.21875 28.421875 74.21875 
Q 39.75 74.21875 46.484375 68.546875 
Q 53.21875 62.890625 53.21875 53.421875 
Q 53.21875 48.921875 51.53125 44.890625 
Q 49.859375 40.875 45.40625 35.40625 
Q 44.1875 33.984375 37.640625 27.21875 
Q 31.109375 20.453125 19.1875 8.296875 
z
" id="DejaVuSans-50"/>
      </defs>
      <g transform="translate(317.27571 975.798437)scale(0.1 -0.1)">
       <use xlink:href="#DejaVuSans-48"/>
       <use x="63.623047" xlink:href="#DejaVuSans-46"/>
       <use x="95.410156" xlink:href="#DejaVuSans-50"/>
      </g>
     </g>
    </g>
    <g id="xtick_3">
     <g id="line2d_3">
      <g>
       <use style="stroke:#000000;stroke-width:0.8;" x="477.409091" xlink:href="#m51193da5dd" y="961.2"/>
      </g>
     </g>
     <g id="text_3">
      <!-- 0.4 -->
      <defs>
       <path d="M 37.796875 64.3125 
L 12.890625 25.390625 
L 37.796875 25.390625 
z
M 35.203125 72.90625 
L 47.609375 72.90625 
L 47.609375 25.390625 
L 58.015625 25.390625 
L 58.015625 17.1875 
L 47.609375 17.1875 
L 47.609375 0 
L 37.796875 0 
L 37.796875 17.1875 
L 4.890625 17.1875 
L 4.890625 26.703125 
z
" id="DejaVuSans-52"/>
      </defs>
      <g transform="translate(469.457528 975.798437)scale(0.1 -0.1)">
       <use xlink:href="#DejaVuSans-48"/>
       <use x="63.623047" xlink:href="#DejaVuSans-46"/>
       <use x="95.410156" xlink:href="#DejaVuSans-52"/>
      </g>
     </g>
    </g>
    <g id="xtick_4">
     <g id="line2d_4">
      <g>
       <use style="stroke:#000000;stroke-width:0.8;" x="629.590909" xlink:href="#m51193da5dd" y="961.2"/>
      </g>
     </g>
     <g id="text_4">
      <!-- 0.6 -->
      <defs>
       <path d="M 33.015625 40.375 
Q 26.375 40.375 22.484375 35.828125 
Q 18.609375 31.296875 18.609375 23.390625 
Q 18.609375 15.53125 22.484375 10.953125 
Q 26.375 6.390625 33.015625 6.390625 
Q 39.65625 6.390625 43.53125 10.953125 
Q 47.40625 15.53125 47.40625 23.390625 
Q 47.40625 31.296875 43.53125 35.828125 
Q 39.65625 40.375 33.015625 40.375 
z
M 52.59375 71.296875 
L 52.59375 62.3125 
Q 48.875 64.0625 45.09375 64.984375 
Q 41.3125 65.921875 37.59375 65.921875 
Q 27.828125 65.921875 22.671875 59.328125 
Q 17.53125 52.734375 16.796875 39.40625 
Q 19.671875 43.65625 24.015625 45.921875 
Q 28.375 48.1875 33.59375 48.1875 
Q 44.578125 48.1875 50.953125 41.515625 
Q 57.328125 34.859375 57.328125 23.390625 
Q 57.328125 12.15625 50.6875 5.359375 
Q 44.046875 -1.421875 33.015625 -1.421875 
Q 20.359375 -1.421875 13.671875 8.265625 
Q 6.984375 17.96875 6.984375 36.375 
Q 6.984375 53.65625 15.1875 63.9375 
Q 23.390625 74.21875 37.203125 74.21875 
Q 40.921875 74.21875 44.703125 73.484375 
Q 48.484375 72.75 52.59375 71.296875 
z
" id="DejaVuSans-54"/>
      </defs>
      <g transform="translate(621.639347 975.798437)scale(0.1 -0.1)">
       <use xlink:href="#DejaVuSans-48"/>
       <use x="63.623047" xlink:href="#DejaVuSans-46"/>
       <use x="95.410156" xlink:href="#DejaVuSans-54"/>
      </g>
     </g>
    </g>
    <g id="xtick_5">
     <g id="line2d_5">
      <g>
       <use style="stroke:#000000;stroke-width:0.8;" x="781.772727" xlink:href="#m51193da5dd" y="961.2"/>
      </g>
     </g>
     <g id="text_5">
      <!-- 0.8 -->
      <defs>
       <path d="M 31.78125 34.625 
Q 24.75 34.625 20.71875 30.859375 
Q 16.703125 27.09375 16.703125 20.515625 
Q 16.703125 13.921875 20.71875 10.15625 
Q 24.75 6.390625 31.78125 6.390625 
Q 38.8125 6.390625 42.859375 10.171875 
Q 46.921875 13.96875 46.921875 20.515625 
Q 46.921875 27.09375 42.890625 30.859375 
Q 38.875 34.625 31.78125 34.625 
z
M 21.921875 38.8125 
Q 15.578125 40.375 12.03125 44.71875 
Q 8.5 49.078125 8.5 55.328125 
Q 8.5 64.0625 14.71875 69.140625 
Q 20.953125 74.21875 31.78125 74.21875 
Q 42.671875 74.21875 48.875 69.140625 
Q 55.078125 64.0625 55.078125 55.328125 
Q 55.078125 49.078125 51.53125 44.71875 
Q 48 40.375 41.703125 38.8125 
Q 48.828125 37.15625 52.796875 32.3125 
Q 56.78125 27.484375 56.78125 20.515625 
Q 56.78125 9.90625 50.3125 4.234375 
Q 43.84375 -1.421875 31.78125 -1.421875 
Q 19.734375 -1.421875 13.25 4.234375 
Q 6.78125 9.90625 6.78125 20.515625 
Q 6.78125 27.484375 10.78125 32.3125 
Q 14.796875 37.15625 21.921875 38.8125 
z
M 18.3125 54.390625 
Q 18.3125 48.734375 21.84375 45.5625 
Q 25.390625 42.390625 31.78125 42.390625 
Q 38.140625 42.390625 41.71875 45.5625 
Q 45.3125 48.734375 45.3125 54.390625 
Q 45.3125 60.0625 41.71875 63.234375 
Q 38.140625 66.40625 31.78125 66.40625 
Q 25.390625 66.40625 21.84375 63.234375 
Q 18.3125 60.0625 18.3125 54.390625 
z
" id="DejaVuSans-56"/>
      </defs>
      <g transform="translate(773.821165 975.798437)scale(0.1 -0.1)">
       <use xlink:href="#DejaVuSans-48"/>
       <use x="63.623047" xlink:href="#DejaVuSans-46"/>
       <use x="95.410156" xlink:href="#DejaVuSans-56"/>
      </g>
     </g>
    </g>
    <g id="xtick_6">
     <g id="line2d_6">
      <g>
       <use style="stroke:#000000;stroke-width:0.8;" x="933.954545" xlink:href="#m51193da5dd" y="961.2"/>
      </g>
     </g>
     <g id="text_6">
      <!-- 1.0 -->
      <defs>
       <path d="M 12.40625 8.296875 
L 28.515625 8.296875 
L 28.515625 63.921875 
L 10.984375 60.40625 
L 10.984375 69.390625 
L 28.421875 72.90625 
L 38.28125 72.90625 
L 38.28125 8.296875 
L 54.390625 8.296875 
L 54.390625 0 
L 12.40625 0 
z
" id="DejaVuSans-49"/>
      </defs>
      <g transform="translate(926.002983 975.798437)scale(0.1 -0.1)">
       <use xlink:href="#DejaVuSans-49"/>
       <use x="63.623047" xlink:href="#DejaVuSans-46"/>
       <use x="95.410156" xlink:href="#DejaVuSans-48"/>
      </g>
     </g>
    </g>
    <g id="text_7">
     <!-- False Positive Rate -->
     <defs>
      <path d="M 9.8125 72.90625 
L 51.703125 72.90625 
L 51.703125 64.59375 
L 19.671875 64.59375 
L 19.671875 43.109375 
L 48.578125 43.109375 
L 48.578125 34.8125 
L 19.671875 34.8125 
L 19.671875 0 
L 9.8125 0 
z
" id="DejaVuSans-70"/>
      <path d="M 34.28125 27.484375 
Q 23.390625 27.484375 19.1875 25 
Q 14.984375 22.515625 14.984375 16.5 
Q 14.984375 11.71875 18.140625 8.90625 
Q 21.296875 6.109375 26.703125 6.109375 
Q 34.1875 6.109375 38.703125 11.40625 
Q 43.21875 16.703125 43.21875 25.484375 
L 43.21875 27.484375 
z
M 52.203125 31.203125 
L 52.203125 0 
L 43.21875 0 
L 43.21875 8.296875 
Q 40.140625 3.328125 35.546875 0.953125 
Q 30.953125 -1.421875 24.3125 -1.421875 
Q 15.921875 -1.421875 10.953125 3.296875 
Q 6 8.015625 6 15.921875 
Q 6 25.140625 12.171875 29.828125 
Q 18.359375 34.515625 30.609375 34.515625 
L 43.21875 34.515625 
L 43.21875 35.40625 
Q 43.21875 41.609375 39.140625 45 
Q 35.0625 48.390625 27.6875 48.390625 
Q 23 48.390625 18.546875 47.265625 
Q 14.109375 46.140625 10.015625 43.890625 
L 10.015625 52.203125 
Q 14.9375 54.109375 19.578125 55.046875 
Q 24.21875 56 28.609375 56 
Q 40.484375 56 46.34375 49.84375 
Q 52.203125 43.703125 52.203125 31.203125 
z
" id="DejaVuSans-97"/>
      <path d="M 9.421875 75.984375 
L 18.40625 75.984375 
L 18.40625 0 
L 9.421875 0 
z
" id="DejaVuSans-108"/>
      <path d="M 44.28125 53.078125 
L 44.28125 44.578125 
Q 40.484375 46.53125 36.375 47.5 
Q 32.28125 48.484375 27.875 48.484375 
Q 21.1875 48.484375 17.84375 46.4375 
Q 14.5 44.390625 14.5 40.28125 
Q 14.5 37.15625 16.890625 35.375 
Q 19.28125 33.59375 26.515625 31.984375 
L 29.59375 31.296875 
Q 39.15625 29.25 43.1875 25.515625 
Q 47.21875 21.78125 47.21875 15.09375 
Q 47.21875 7.46875 41.1875 3.015625 
Q 35.15625 -1.421875 24.609375 -1.421875 
Q 20.21875 -1.421875 15.453125 -0.5625 
Q 10.6875 0.296875 5.421875 2 
L 5.421875 11.28125 
Q 10.40625 8.6875 15.234375 7.390625 
Q 20.0625 6.109375 24.8125 6.109375 
Q 31.15625 6.109375 34.5625 8.28125 
Q 37.984375 10.453125 37.984375 14.40625 
Q 37.984375 18.0625 35.515625 20.015625 
Q 33.0625 21.96875 24.703125 23.78125 
L 21.578125 24.515625 
Q 13.234375 26.265625 9.515625 29.90625 
Q 5.8125 33.546875 5.8125 39.890625 
Q 5.8125 47.609375 11.28125 51.796875 
Q 16.75 56 26.8125 56 
Q 31.78125 56 36.171875 55.265625 
Q 40.578125 54.546875 44.28125 53.078125 
z
" id="DejaVuSans-115"/>
      <path d="M 56.203125 29.59375 
L 56.203125 25.203125 
L 14.890625 25.203125 
Q 15.484375 15.921875 20.484375 11.0625 
Q 25.484375 6.203125 34.421875 6.203125 
Q 39.59375 6.203125 44.453125 7.46875 
Q 49.3125 8.734375 54.109375 11.28125 
L 54.109375 2.78125 
Q 49.265625 0.734375 44.1875 -0.34375 
Q 39.109375 -1.421875 33.890625 -1.421875 
Q 20.796875 -1.421875 13.15625 6.1875 
Q 5.515625 13.8125 5.515625 26.8125 
Q 5.515625 40.234375 12.765625 48.109375 
Q 20.015625 56 32.328125 56 
Q 43.359375 56 49.78125 48.890625 
Q 56.203125 41.796875 56.203125 29.59375 
z
M 47.21875 32.234375 
Q 47.125 39.59375 43.09375 43.984375 
Q 39.0625 48.390625 32.421875 48.390625 
Q 24.90625 48.390625 20.390625 44.140625 
Q 15.875 39.890625 15.1875 32.171875 
z
" id="DejaVuSans-101"/>
      <path id="DejaVuSans-32"/>
      <path d="M 19.671875 64.796875 
L 19.671875 37.40625 
L 32.078125 37.40625 
Q 38.96875 37.40625 42.71875 40.96875 
Q 46.484375 44.53125 46.484375 51.125 
Q 46.484375 57.671875 42.71875 61.234375 
Q 38.96875 64.796875 32.078125 64.796875 
z
M 9.8125 72.90625 
L 32.078125 72.90625 
Q 44.34375 72.90625 50.609375 67.359375 
Q 56.890625 61.8125 56.890625 51.125 
Q 56.890625 40.328125 50.609375 34.8125 
Q 44.34375 29.296875 32.078125 29.296875 
L 19.671875 29.296875 
L 19.671875 0 
L 9.8125 0 
z
" id="DejaVuSans-80"/>
      <path d="M 30.609375 48.390625 
Q 23.390625 48.390625 19.1875 42.75 
Q 14.984375 37.109375 14.984375 27.296875 
Q 14.984375 17.484375 19.15625 11.84375 
Q 23.34375 6.203125 30.609375 6.203125 
Q 37.796875 6.203125 41.984375 11.859375 
Q 46.1875 17.53125 46.1875 27.296875 
Q 46.1875 37.015625 41.984375 42.703125 
Q 37.796875 48.390625 30.609375 48.390625 
z
M 30.609375 56 
Q 42.328125 56 49.015625 48.375 
Q 55.71875 40.765625 55.71875 27.296875 
Q 55.71875 13.875 49.015625 6.21875 
Q 42.328125 -1.421875 30.609375 -1.421875 
Q 18.84375 -1.421875 12.171875 6.21875 
Q 5.515625 13.875 5.515625 27.296875 
Q 5.515625 40.765625 12.171875 48.375 
Q 18.84375 56 30.609375 56 
z
" id="DejaVuSans-111"/>
      <path d="M 9.421875 54.6875 
L 18.40625 54.6875 
L 18.40625 0 
L 9.421875 0 
z
M 9.421875 75.984375 
L 18.40625 75.984375 
L 18.40625 64.59375 
L 9.421875 64.59375 
z
" id="DejaVuSans-105"/>
      <path d="M 18.3125 70.21875 
L 18.3125 54.6875 
L 36.8125 54.6875 
L 36.8125 47.703125 
L 18.3125 47.703125 
L 18.3125 18.015625 
Q 18.3125 11.328125 20.140625 9.421875 
Q 21.96875 7.515625 27.59375 7.515625 
L 36.8125 7.515625 
L 36.8125 0 
L 27.59375 0 
Q 17.1875 0 13.234375 3.875 
Q 9.28125 7.765625 9.28125 18.015625 
L 9.28125 47.703125 
L 2.6875 47.703125 
L 2.6875 54.6875 
L 9.28125 54.6875 
L 9.28125 70.21875 
z
" id="DejaVuSans-116"/>
      <path d="M 2.984375 54.6875 
L 12.5 54.6875 
L 29.59375 8.796875 
L 46.6875 54.6875 
L 56.203125 54.6875 
L 35.6875 0 
L 23.484375 0 
z
" id="DejaVuSans-118"/>
      <path d="M 44.390625 34.1875 
Q 47.5625 33.109375 50.5625 29.59375 
Q 53.5625 26.078125 56.59375 19.921875 
L 66.609375 0 
L 56 0 
L 46.6875 18.703125 
Q 43.0625 26.03125 39.671875 28.421875 
Q 36.28125 30.8125 30.421875 30.8125 
L 19.671875 30.8125 
L 19.671875 0 
L 9.8125 0 
L 9.8125 72.90625 
L 32.078125 72.90625 
Q 44.578125 72.90625 50.734375 67.671875 
Q 56.890625 62.453125 56.890625 51.90625 
Q 56.890625 45.015625 53.6875 40.46875 
Q 50.484375 35.9375 44.390625 34.1875 
z
M 19.671875 64.796875 
L 19.671875 38.921875 
L 32.078125 38.921875 
Q 39.203125 38.921875 42.84375 42.21875 
Q 46.484375 45.515625 46.484375 51.90625 
Q 46.484375 58.296875 42.84375 61.546875 
Q 39.203125 64.796875 32.078125 64.796875 
z
" id="DejaVuSans-82"/>
     </defs>
     <g transform="translate(507.033594 989.476562)scale(0.1 -0.1)">
      <use xlink:href="#DejaVuSans-70"/>
      <use x="48.394531" xlink:href="#DejaVuSans-97"/>
      <use x="109.673828" xlink:href="#DejaVuSans-108"/>
      <use x="137.457031" xlink:href="#DejaVuSans-115"/>
      <use x="189.556641" xlink:href="#DejaVuSans-101"/>
      <use x="251.080078" xlink:href="#DejaVuSans-32"/>
      <use x="282.867188" xlink:href="#DejaVuSans-80"/>
      <use x="339.544922" xlink:href="#DejaVuSans-111"/>
      <use x="400.726562" xlink:href="#DejaVuSans-115"/>
      <use x="452.826172" xlink:href="#DejaVuSans-105"/>
      <use x="480.609375" xlink:href="#DejaVuSans-116"/>
      <use x="519.818359" xlink:href="#DejaVuSans-105"/>
      <use x="547.601562" xlink:href="#DejaVuSans-118"/>
      <use x="606.78125" xlink:href="#DejaVuSans-101"/>
      <use x="668.304688" xlink:href="#DejaVuSans-32"/>
      <use x="700.091797" xlink:href="#DejaVuSans-82"/>
      <use x="767.324219" xlink:href="#DejaVuSans-97"/>
      <use x="828.603516" xlink:href="#DejaVuSans-116"/>
      <use x="867.8125" xlink:href="#DejaVuSans-101"/>
     </g>
    </g>
   </g>
   <g id="matplotlib.axis_2">
    <g id="ytick_1">
     <g id="line2d_7">
      <defs>
       <path d="M 0 0 
L -3.5 0 
" id="md0b09248dc" style="stroke:#000000;stroke-width:0.8;"/>
      </defs>
      <g>
       <use style="stroke:#000000;stroke-width:0.8;" x="135" xlink:href="#md0b09248dc" y="923.4"/>
      </g>
     </g>
     <g id="text_8">
      <!-- 0.0 -->
      <g transform="translate(112.096875 927.199219)scale(0.1 -0.1)">
       <use xlink:href="#DejaVuSans-48"/>
       <use x="63.623047" xlink:href="#DejaVuSans-46"/>
       <use x="95.410156" xlink:href="#DejaVuSans-48"/>
      </g>
     </g>
    </g>
    <g id="ytick_2">
     <g id="line2d_8">
      <g>
       <use style="stroke:#000000;stroke-width:0.8;" x="135" xlink:href="#md0b09248dc" y="772.2"/>
      </g>
     </g>
     <g id="text_9">
      <!-- 0.2 -->
      <g transform="translate(112.096875 775.999219)scale(0.1 -0.1)">
       <use xlink:href="#DejaVuSans-48"/>
       <use x="63.623047" xlink:href="#DejaVuSans-46"/>
       <use x="95.410156" xlink:href="#DejaVuSans-50"/>
      </g>
     </g>
    </g>
    <g id="ytick_3">
     <g id="line2d_9">
      <g>
       <use style="stroke:#000000;stroke-width:0.8;" x="135" xlink:href="#md0b09248dc" y="621"/>
      </g>
     </g>
     <g id="text_10">
      <!-- 0.4 -->
      <g transform="translate(112.096875 624.799219)scale(0.1 -0.1)">
       <use xlink:href="#DejaVuSans-48"/>
       <use x="63.623047" xlink:href="#DejaVuSans-46"/>
       <use x="95.410156" xlink:href="#DejaVuSans-52"/>
      </g>
     </g>
    </g>
    <g id="ytick_4">
     <g id="line2d_10">
      <g>
       <use style="stroke:#000000;stroke-width:0.8;" x="135" xlink:href="#md0b09248dc" y="469.8"/>
      </g>
     </g>
     <g id="text_11">
      <!-- 0.6 -->
      <g transform="translate(112.096875 473.599219)scale(0.1 -0.1)">
       <use xlink:href="#DejaVuSans-48"/>
       <use x="63.623047" xlink:href="#DejaVuSans-46"/>
       <use x="95.410156" xlink:href="#DejaVuSans-54"/>
      </g>
     </g>
    </g>
    <g id="ytick_5">
     <g id="line2d_11">
      <g>
       <use style="stroke:#000000;stroke-width:0.8;" x="135" xlink:href="#md0b09248dc" y="318.6"/>
      </g>
     </g>
     <g id="text_12">
      <!-- 0.8 -->
      <g transform="translate(112.096875 322.399219)scale(0.1 -0.1)">
       <use xlink:href="#DejaVuSans-48"/>
       <use x="63.623047" xlink:href="#DejaVuSans-46"/>
       <use x="95.410156" xlink:href="#DejaVuSans-56"/>
      </g>
     </g>
    </g>
    <g id="ytick_6">
     <g id="line2d_12">
      <g>
       <use style="stroke:#000000;stroke-width:0.8;" x="135" xlink:href="#md0b09248dc" y="167.4"/>
      </g>
     </g>
     <g id="text_13">
      <!-- 1.0 -->
      <g transform="translate(112.096875 171.199219)scale(0.1 -0.1)">
       <use xlink:href="#DejaVuSans-49"/>
       <use x="63.623047" xlink:href="#DejaVuSans-46"/>
       <use x="95.410156" xlink:href="#DejaVuSans-48"/>
      </g>
     </g>
    </g>
    <g id="text_14">
     <!-- True Positive Rate -->
     <defs>
      <path d="M -0.296875 72.90625 
L 61.375 72.90625 
L 61.375 64.59375 
L 35.5 64.59375 
L 35.5 0 
L 25.59375 0 
L 25.59375 64.59375 
L -0.296875 64.59375 
z
" id="DejaVuSans-84"/>
      <path d="M 41.109375 46.296875 
Q 39.59375 47.171875 37.8125 47.578125 
Q 36.03125 48 33.890625 48 
Q 26.265625 48 22.1875 43.046875 
Q 18.109375 38.09375 18.109375 28.8125 
L 18.109375 0 
L 9.078125 0 
L 9.078125 54.6875 
L 18.109375 54.6875 
L 18.109375 46.1875 
Q 20.953125 51.171875 25.484375 53.578125 
Q 30.03125 56 36.53125 56 
Q 37.453125 56 38.578125 55.875 
Q 39.703125 55.765625 41.0625 55.515625 
z
" id="DejaVuSans-114"/>
      <path d="M 8.5 21.578125 
L 8.5 54.6875 
L 17.484375 54.6875 
L 17.484375 21.921875 
Q 17.484375 14.15625 20.5 10.265625 
Q 23.53125 6.390625 29.59375 6.390625 
Q 36.859375 6.390625 41.078125 11.03125 
Q 45.3125 15.671875 45.3125 23.6875 
L 45.3125 54.6875 
L 54.296875 54.6875 
L 54.296875 0 
L 45.3125 0 
L 45.3125 8.40625 
Q 42.046875 3.421875 37.71875 1 
Q 33.40625 -1.421875 27.6875 -1.421875 
Q 18.265625 -1.421875 13.375 4.4375 
Q 8.5 10.296875 8.5 21.578125 
z
M 31.109375 56 
z
" id="DejaVuSans-117"/>
     </defs>
     <g transform="translate(106.017187 589.929688)rotate(-90)scale(0.1 -0.1)">
      <use xlink:href="#DejaVuSans-84"/>
      <use x="46.333984" xlink:href="#DejaVuSans-114"/>
      <use x="87.447266" xlink:href="#DejaVuSans-117"/>
      <use x="150.826172" xlink:href="#DejaVuSans-101"/>
      <use x="212.349609" xlink:href="#DejaVuSans-32"/>
      <use x="244.136719" xlink:href="#DejaVuSans-80"/>
      <use x="300.814453" xlink:href="#DejaVuSans-111"/>
      <use x="361.996094" xlink:href="#DejaVuSans-115"/>
      <use x="414.095703" xlink:href="#DejaVuSans-105"/>
      <use x="441.878906" xlink:href="#DejaVuSans-116"/>
      <use x="481.087891" xlink:href="#DejaVuSans-105"/>
      <use x="508.871094" xlink:href="#DejaVuSans-118"/>
      <use x="568.050781" xlink:href="#DejaVuSans-101"/>
      <use x="629.574219" xlink:href="#DejaVuSans-32"/>
      <use x="661.361328" xlink:href="#DejaVuSans-82"/>
      <use x="728.59375" xlink:href="#DejaVuSans-97"/>
      <use x="789.873047" xlink:href="#DejaVuSans-116"/>
      <use x="829.082031" xlink:href="#DejaVuSans-101"/>
     </g>
    </g>
   </g>
   <g id="line2d_13">
    <path clip-path="url(#p3c6f1d51a8)" d="M 173.045455 923.4 
L 173.045455 903.505263 
L 183.190909 903.505263 
L 193.336364 903.505263 
L 203.481818 883.610526 
L 213.627273 843.821053 
L 218.7 804.031579 
L 228.845455 764.242105 
L 238.990909 764.242105 
L 244.063636 744.347368 
L 264.354545 724.452632 
L 279.572727 704.557895 
L 294.790909 624.978947 
L 320.154545 624.978947 
L 325.227273 605.084211 
L 335.372727 605.084211 
L 355.663636 605.084211 
L 355.663636 545.4 
L 360.736364 545.4 
L 365.809091 525.505263 
L 370.881818 525.505263 
L 391.172727 525.505263 
L 421.609091 525.505263 
L 436.827273 485.715789 
L 441.9 485.715789 
L 467.263636 465.821053 
L 502.772727 406.136842 
L 517.990909 386.242105 
L 528.136364 346.452632 
L 543.354545 346.452632 
L 563.645455 326.557895 
L 589.009091 286.768421 
L 619.445455 286.768421 
L 649.881818 266.873684 
L 670.172727 266.873684 
L 710.754545 246.978947 
L 756.409091 227.084211 
L 781.772727 207.189474 
L 812.209091 187.294737 
L 847.718182 187.294737 
L 913.663636 167.4 
L 933.954545 167.4 
" style="fill:none;stroke:#1f77b4;stroke-linecap:square;stroke-width:1.5;"/>
   </g>
   <g id="line2d_14">
    <path clip-path="url(#p3c6f1d51a8)" d="M 173.045455 923.4 
L 173.045455 896.4 
L 173.045455 869.4 
L 177.801136 869.4 
L 182.556818 842.4 
L 187.3125 842.4 
L 206.335227 734.4 
L 211.090909 734.4 
L 225.357955 734.4 
L 230.113636 707.4 
L 244.380682 680.4 
L 253.892045 626.4 
L 268.159091 572.4 
L 277.670455 572.4 
L 296.693182 545.4 
L 310.960227 464.4 
L 339.494318 437.4 
L 372.784091 437.4 
L 387.051136 383.4 
L 415.585227 383.4 
L 425.096591 383.4 
L 429.852273 383.4 
L 444.119318 383.4 
L 501.1875 329.4 
L 520.210227 329.4 
L 543.988636 302.4 
L 553.5 302.4 
L 582.034091 302.4 
L 601.056818 302.4 
L 620.079545 275.4 
L 639.102273 275.4 
L 653.369318 248.4 
L 681.903409 248.4 
L 700.926136 248.4 
L 710.4375 221.4 
L 753.238636 194.4 
L 772.261364 167.4 
L 848.352273 167.4 
L 876.886364 167.4 
L 895.909091 167.4 
L 919.6875 167.4 
L 933.954545 167.4 
" style="fill:none;stroke:#ff7f0e;stroke-linecap:square;stroke-width:1.5;"/>
   </g>
   <g id="line2d_15">
    <path clip-path="url(#p3c6f1d51a8)" d="M 173.045455 923.4 
L 177.801136 923.4 
L 177.801136 896.4 
L 196.823864 896.4 
L 215.846591 896.4 
L 230.113636 896.4 
L 268.159091 788.4 
L 272.914773 788.4 
L 282.426136 788.4 
L 296.693182 734.4 
L 325.227273 707.4 
L 325.227273 653.4 
L 344.25 572.4 
L 353.761364 545.4 
L 372.784091 545.4 
L 387.051136 545.4 
L 406.073864 383.4 
L 420.340909 383.4 
L 439.363636 275.4 
L 472.653409 248.4 
L 491.676136 248.4 
L 515.454545 221.4 
L 539.232955 221.4 
L 567.767045 221.4 
L 643.857955 221.4 
L 662.880682 221.4 
L 677.147727 221.4 
L 677.147727 194.4 
L 691.414773 194.4 
L 729.460227 194.4 
L 762.75 167.4 
L 781.772727 167.4 
L 796.039773 167.4 
L 805.551136 167.4 
L 838.840909 167.4 
L 853.107955 167.4 
L 881.642045 167.4 
L 929.198864 167.4 
L 933.954545 167.4 
" style="fill:none;stroke:#2ca02c;stroke-linecap:square;stroke-width:1.5;"/>
   </g>
   <g id="line2d_16">
    <path clip-path="url(#p3c6f1d51a8)" d="M 173.045455 923.4 
L 173.045455 897.331034 
L 182.616638 897.331034 
L 192.187822 897.331034 
L 206.544597 897.331034 
L 211.330189 871.262069 
L 220.901372 871.262069 
L 230.472556 819.124138 
L 235.258148 819.124138 
L 244.829331 793.055172 
L 268.75729 766.986207 
L 297.47084 766.986207 
L 311.827616 740.917241 
L 321.398799 714.848276 
L 335.755575 714.848276 
L 350.11235 688.77931 
L 364.469125 688.77931 
L 378.825901 662.710345 
L 388.397084 584.503448 
L 397.968268 532.365517 
L 412.325043 532.365517 
L 426.681818 506.296552 
L 445.824185 506.296552 
L 450.609777 454.158621 
L 455.395369 375.951724 
L 469.752144 349.882759 
L 488.894511 349.882759 
L 508.036878 323.813793 
L 522.393654 323.813793 
L 551.107204 297.744828 
L 575.035163 297.744828 
L 589.391938 297.744828 
L 594.17753 245.606897 
L 627.676672 219.537931 
L 646.819039 193.468966 
L 675.53259 193.468966 
L 694.674957 193.468966 
L 732.959691 193.468966 
L 747.316467 167.4 
L 756.88765 167.4 
L 790.386792 167.4 
L 809.52916 167.4 
L 833.457118 167.4 
L 886.098628 167.4 
L 905.240995 167.4 
L 929.168954 167.4 
L 933.954545 167.4 
" style="fill:none;stroke:#d62728;stroke-linecap:square;stroke-width:1.5;"/>
   </g>
   <g id="line2d_17">
    <path clip-path="url(#p3c6f1d51a8)" d="M 173.045455 923.4 
L 173.045455 900.490909 
L 173.045455 854.672727 
L 177.954545 831.763636 
L 182.863636 831.763636 
L 192.681818 808.854545 
L 197.590909 808.854545 
L 197.590909 763.036364 
L 217.227273 763.036364 
L 222.136364 763.036364 
L 236.863636 763.036364 
L 251.590909 717.218182 
L 266.318182 694.309091 
L 285.954545 694.309091 
L 290.863636 694.309091 
L 300.681818 648.490909 
L 320.318182 625.581818 
L 335.045455 602.672727 
L 339.954545 579.763636 
L 349.772727 533.945455 
L 359.590909 533.945455 
L 379.227273 511.036364 
L 384.136364 442.309091 
L 408.681818 442.309091 
L 418.5 442.309091 
L 428.318182 419.4 
L 452.863636 419.4 
L 467.590909 419.4 
L 482.318182 327.763636 
L 521.590909 327.763636 
L 555.954545 304.854545 
L 555.954545 259.036364 
L 570.681818 259.036364 
L 580.5 236.127273 
L 600.136364 236.127273 
L 624.681818 213.218182 
L 634.5 213.218182 
L 649.227273 190.309091 
L 693.409091 190.309091 
L 752.318182 190.309091 
L 801.409091 190.309091 
L 821.045455 190.309091 
L 875.045455 167.4 
L 894.681818 167.4 
L 919.227273 167.4 
L 933.954545 167.4 
" style="fill:none;stroke:#9467bd;stroke-linecap:square;stroke-width:1.5;"/>
   </g>
   <g id="line2d_18">
    <path clip-path="url(#p3c6f1d51a8)" d="M 173.045455 923.4 
L 178.018717 923.4 
L 178.018717 901.8 
L 182.991979 858.6 
L 187.965241 858.6 
L 192.938503 837 
L 202.885027 837 
L 207.858289 837 
L 212.831551 793.8 
L 222.778075 793.8 
L 237.697861 772.2 
L 252.617647 729 
L 252.617647 707.4 
L 262.564171 685.8 
L 277.483957 685.8 
L 297.377005 685.8 
L 317.270053 642.6 
L 332.18984 577.8 
L 342.136364 556.2 
L 367.002674 513 
L 381.92246 469.8 
L 411.762032 426.6 
L 431.65508 426.6 
L 431.65508 405 
L 451.548128 405 
L 466.467914 383.4 
L 471.441176 361.8 
L 481.387701 340.2 
L 496.307487 340.2 
L 511.227273 297 
L 536.093583 297 
L 565.933155 275.4 
L 580.852941 275.4 
L 605.719251 232.2 
L 640.532086 189 
L 655.451872 189 
L 680.318182 167.4 
L 730.050802 167.4 
L 739.997326 167.4 
L 799.676471 167.4 
L 824.542781 167.4 
L 854.382353 167.4 
L 879.248663 167.4 
L 909.088235 167.4 
L 933.954545 167.4 
" style="fill:none;stroke:#8c564b;stroke-linecap:square;stroke-width:1.5;"/>
   </g>
   <g id="line2d_19">
    <path clip-path="url(#p3c6f1d51a8)" d="M 173.045455 923.4 
L 177.713608 923.4 
L 182.381762 923.4 
L 187.049916 893.16 
L 187.049916 862.92 
L 191.71807 832.68 
L 205.722532 802.44 
L 210.390686 772.2 
L 219.726994 772.2 
L 224.395148 772.2 
L 233.731456 741.96 
L 243.067764 741.96 
L 247.735917 711.72 
L 257.072225 681.48 
L 266.408533 681.48 
L 280.412995 681.48 
L 317.758226 681.48 
L 322.42638 681.48 
L 331.762688 621 
L 369.10792 560.52 
L 383.112381 560.52 
L 392.448689 560.52 
L 406.453151 530.28 
L 425.125767 500.04 
L 439.130229 500.04 
L 462.470998 469.8 
L 490.479922 469.8 
L 513.820692 439.56 
L 532.493307 409.32 
L 560.502231 409.32 
L 588.511154 379.08 
L 625.856386 348.84 
L 635.192694 227.88 
L 649.197156 197.64 
L 667.869771 167.4 
L 714.551311 167.4 
L 737.89208 167.4 
L 765.901004 167.4 
L 793.909927 167.4 
L 840.591467 167.4 
L 854.595929 167.4 
L 873.268544 167.4 
L 915.28193 167.4 
L 919.950084 167.4 
L 933.954545 167.4 
" style="fill:none;stroke:#e377c2;stroke-linecap:square;stroke-width:1.5;"/>
   </g>
   <g id="line2d_20">
    <path clip-path="url(#p3c6f1d51a8)" d="M 173.045455 923.4 
L 177.954545 923.4 
L 177.954545 877.581818 
L 182.863636 854.672727 
L 192.681818 854.672727 
L 202.5 854.672727 
L 217.227273 854.672727 
L 231.954545 831.763636 
L 236.863636 831.763636 
L 246.681818 808.854545 
L 256.5 808.854545 
L 261.409091 785.945455 
L 266.318182 785.945455 
L 276.136364 785.945455 
L 285.954545 694.309091 
L 300.681818 694.309091 
L 335.045455 648.490909 
L 344.863636 625.581818 
L 369.409091 533.945455 
L 393.954545 511.036364 
L 408.681818 465.218182 
L 428.318182 442.309091 
L 443.045455 419.4 
L 467.590909 419.4 
L 487.227273 396.490909 
L 492.136364 373.581818 
L 511.772727 373.581818 
L 570.681818 327.763636 
L 590.318182 327.763636 
L 609.954545 304.854545 
L 639.409091 281.945455 
L 654.136364 236.127273 
L 659.045455 236.127273 
L 678.681818 213.218182 
L 703.227273 213.218182 
L 717.954545 190.309091 
L 737.590909 190.309091 
L 767.045455 190.309091 
L 845.590909 190.309091 
L 884.863636 167.4 
L 889.772727 167.4 
L 904.5 167.4 
L 933.954545 167.4 
" style="fill:none;stroke:#7f7f7f;stroke-linecap:square;stroke-width:1.5;"/>
   </g>
   <g id="line2d_21">
    <path clip-path="url(#p3c6f1d51a8)" d="M 173.045455 923.4 
L 177.713608 923.4 
L 182.381762 923.4 
L 187.049916 893.16 
L 196.386224 862.92 
L 201.054378 832.68 
L 205.722532 772.2 
L 215.05884 772.2 
L 224.395148 772.2 
L 224.395148 741.96 
L 233.731456 741.96 
L 238.39961 741.96 
L 243.067764 711.72 
L 252.404071 711.72 
L 266.408533 681.48 
L 280.412995 590.76 
L 294.417457 590.76 
L 308.421919 560.52 
L 331.762688 530.28 
L 341.098996 500.04 
L 355.103458 500.04 
L 369.10792 469.8 
L 378.444228 469.8 
L 392.448689 439.56 
L 406.453151 439.56 
L 429.793921 348.84 
L 453.13469 348.84 
L 457.802844 318.6 
L 471.807306 318.6 
L 518.488846 318.6 
L 546.497769 318.6 
L 560.502231 288.36 
L 569.838539 288.36 
L 583.843001 258.12 
L 597.847462 258.12 
L 644.529002 258.12 
L 653.86531 258.12 
L 663.201617 227.88 
L 700.546849 197.64 
L 719.219465 197.64 
L 742.560234 197.64 
L 775.237312 167.4 
L 789.241774 167.4 
L 821.918851 167.4 
L 840.591467 167.4 
L 863.932236 167.4 
L 896.609314 167.4 
L 910.613776 167.4 
L 933.954545 167.4 
" style="fill:none;stroke:#bcbd22;stroke-linecap:square;stroke-width:1.5;"/>
   </g>
   <g id="line2d_22">
    <path clip-path="url(#p3c6f1d51a8)" d="M 173.045455 923.4 
L 177.771598 895.4 
L 196.676172 895.4 
L 206.128458 839.4 
L 210.854602 839.4 
L 229.759176 839.4 
L 248.663749 727.4 
L 267.568323 727.4 
L 272.294466 727.4 
L 300.651327 671.4 
L 319.555901 615.4 
L 333.734331 587.4 
L 352.638905 559.4 
L 362.091191 503.4 
L 366.817335 503.4 
L 380.995765 503.4 
L 399.900339 475.4 
L 414.078769 475.4 
L 418.804912 475.4 
L 432.983343 419.4 
L 442.43563 419.4 
L 466.066347 391.4 
L 480.244777 391.4 
L 499.149351 363.4 
L 513.327781 363.4 
L 536.958498 363.4 
L 565.315359 363.4 
L 593.672219 307.4 
L 622.02908 307.4 
L 640.933653 251.4 
L 674.016657 223.4 
L 702.373518 195.4 
L 740.182665 195.4 
L 754.361095 195.4 
L 773.265669 195.4 
L 806.348673 195.4 
L 844.15782 195.4 
L 872.514681 167.4 
L 891.419255 167.4 
L 919.776115 167.4 
L 933.954545 167.4 
" style="fill:none;stroke:#17becf;stroke-linecap:square;stroke-width:1.5;"/>
   </g>
   <g id="patch_3">
    <path d="M 135 961.2 
L 135 129.6 
" style="fill:none;stroke:#000000;stroke-linecap:square;stroke-linejoin:miter;stroke-width:0.8;"/>
   </g>
   <g id="patch_4">
    <path d="M 972 961.2 
L 972 129.6 
" style="fill:none;stroke:#000000;stroke-linecap:square;stroke-linejoin:miter;stroke-width:0.8;"/>
   </g>
   <g id="patch_5">
    <path d="M 135 961.2 
L 972 961.2 
" style="fill:none;stroke:#000000;stroke-linecap:square;stroke-linejoin:miter;stroke-width:0.8;"/>
   </g>
   <g id="patch_6">
    <path d="M 135 129.6 
L 972 129.6 
" style="fill:none;stroke:#000000;stroke-linecap:square;stroke-linejoin:miter;stroke-width:0.8;"/>
   </g>
   <g id="text_15">
    <!-- ROC for Missing Labs vs. non_rebreather_mask -->
    <defs>
     <path d="M 39.40625 66.21875 
Q 28.65625 66.21875 22.328125 58.203125 
Q 16.015625 50.203125 16.015625 36.375 
Q 16.015625 22.609375 22.328125 14.59375 
Q 28.65625 6.59375 39.40625 6.59375 
Q 50.140625 6.59375 56.421875 14.59375 
Q 62.703125 22.609375 62.703125 36.375 
Q 62.703125 50.203125 56.421875 58.203125 
Q 50.140625 66.21875 39.40625 66.21875 
z
M 39.40625 74.21875 
Q 54.734375 74.21875 63.90625 63.9375 
Q 73.09375 53.65625 73.09375 36.375 
Q 73.09375 19.140625 63.90625 8.859375 
Q 54.734375 -1.421875 39.40625 -1.421875 
Q 24.03125 -1.421875 14.8125 8.828125 
Q 5.609375 19.09375 5.609375 36.375 
Q 5.609375 53.65625 14.8125 63.9375 
Q 24.03125 74.21875 39.40625 74.21875 
z
" id="DejaVuSans-79"/>
     <path d="M 64.40625 67.28125 
L 64.40625 56.890625 
Q 59.421875 61.53125 53.78125 63.8125 
Q 48.140625 66.109375 41.796875 66.109375 
Q 29.296875 66.109375 22.65625 58.46875 
Q 16.015625 50.828125 16.015625 36.375 
Q 16.015625 21.96875 22.65625 14.328125 
Q 29.296875 6.6875 41.796875 6.6875 
Q 48.140625 6.6875 53.78125 8.984375 
Q 59.421875 11.28125 64.40625 15.921875 
L 64.40625 5.609375 
Q 59.234375 2.09375 53.4375 0.328125 
Q 47.65625 -1.421875 41.21875 -1.421875 
Q 24.65625 -1.421875 15.125 8.703125 
Q 5.609375 18.84375 5.609375 36.375 
Q 5.609375 53.953125 15.125 64.078125 
Q 24.65625 74.21875 41.21875 74.21875 
Q 47.75 74.21875 53.53125 72.484375 
Q 59.328125 70.75 64.40625 67.28125 
z
" id="DejaVuSans-67"/>
     <path d="M 37.109375 75.984375 
L 37.109375 68.5 
L 28.515625 68.5 
Q 23.6875 68.5 21.796875 66.546875 
Q 19.921875 64.59375 19.921875 59.515625 
L 19.921875 54.6875 
L 34.71875 54.6875 
L 34.71875 47.703125 
L 19.921875 47.703125 
L 19.921875 0 
L 10.890625 0 
L 10.890625 47.703125 
L 2.296875 47.703125 
L 2.296875 54.6875 
L 10.890625 54.6875 
L 10.890625 58.5 
Q 10.890625 67.625 15.140625 71.796875 
Q 19.390625 75.984375 28.609375 75.984375 
z
" id="DejaVuSans-102"/>
     <path d="M 9.8125 72.90625 
L 24.515625 72.90625 
L 43.109375 23.296875 
L 61.8125 72.90625 
L 76.515625 72.90625 
L 76.515625 0 
L 66.890625 0 
L 66.890625 64.015625 
L 48.09375 14.015625 
L 38.1875 14.015625 
L 19.390625 64.015625 
L 19.390625 0 
L 9.8125 0 
z
" id="DejaVuSans-77"/>
     <path d="M 54.890625 33.015625 
L 54.890625 0 
L 45.90625 0 
L 45.90625 32.71875 
Q 45.90625 40.484375 42.875 44.328125 
Q 39.84375 48.1875 33.796875 48.1875 
Q 26.515625 48.1875 22.3125 43.546875 
Q 18.109375 38.921875 18.109375 30.90625 
L 18.109375 0 
L 9.078125 0 
L 9.078125 54.6875 
L 18.109375 54.6875 
L 18.109375 46.1875 
Q 21.34375 51.125 25.703125 53.5625 
Q 30.078125 56 35.796875 56 
Q 45.21875 56 50.046875 50.171875 
Q 54.890625 44.34375 54.890625 33.015625 
z
" id="DejaVuSans-110"/>
     <path d="M 45.40625 27.984375 
Q 45.40625 37.75 41.375 43.109375 
Q 37.359375 48.484375 30.078125 48.484375 
Q 22.859375 48.484375 18.828125 43.109375 
Q 14.796875 37.75 14.796875 27.984375 
Q 14.796875 18.265625 18.828125 12.890625 
Q 22.859375 7.515625 30.078125 7.515625 
Q 37.359375 7.515625 41.375 12.890625 
Q 45.40625 18.265625 45.40625 27.984375 
z
M 54.390625 6.78125 
Q 54.390625 -7.171875 48.1875 -13.984375 
Q 42 -20.796875 29.203125 -20.796875 
Q 24.46875 -20.796875 20.265625 -20.09375 
Q 16.0625 -19.390625 12.109375 -17.921875 
L 12.109375 -9.1875 
Q 16.0625 -11.328125 19.921875 -12.34375 
Q 23.78125 -13.375 27.78125 -13.375 
Q 36.625 -13.375 41.015625 -8.765625 
Q 45.40625 -4.15625 45.40625 5.171875 
L 45.40625 9.625 
Q 42.625 4.78125 38.28125 2.390625 
Q 33.9375 0 27.875 0 
Q 17.828125 0 11.671875 7.65625 
Q 5.515625 15.328125 5.515625 27.984375 
Q 5.515625 40.671875 11.671875 48.328125 
Q 17.828125 56 27.875 56 
Q 33.9375 56 38.28125 53.609375 
Q 42.625 51.21875 45.40625 46.390625 
L 45.40625 54.6875 
L 54.390625 54.6875 
z
" id="DejaVuSans-103"/>
     <path d="M 9.8125 72.90625 
L 19.671875 72.90625 
L 19.671875 8.296875 
L 55.171875 8.296875 
L 55.171875 0 
L 9.8125 0 
z
" id="DejaVuSans-76"/>
     <path d="M 48.6875 27.296875 
Q 48.6875 37.203125 44.609375 42.84375 
Q 40.53125 48.484375 33.40625 48.484375 
Q 26.265625 48.484375 22.1875 42.84375 
Q 18.109375 37.203125 18.109375 27.296875 
Q 18.109375 17.390625 22.1875 11.75 
Q 26.265625 6.109375 33.40625 6.109375 
Q 40.53125 6.109375 44.609375 11.75 
Q 48.6875 17.390625 48.6875 27.296875 
z
M 18.109375 46.390625 
Q 20.953125 51.265625 25.265625 53.625 
Q 29.59375 56 35.59375 56 
Q 45.5625 56 51.78125 48.09375 
Q 58.015625 40.1875 58.015625 27.296875 
Q 58.015625 14.40625 51.78125 6.484375 
Q 45.5625 -1.421875 35.59375 -1.421875 
Q 29.59375 -1.421875 25.265625 0.953125 
Q 20.953125 3.328125 18.109375 8.203125 
L 18.109375 0 
L 9.078125 0 
L 9.078125 75.984375 
L 18.109375 75.984375 
z
" id="DejaVuSans-98"/>
     <path d="M 50.984375 -16.609375 
L 50.984375 -23.578125 
L -0.984375 -23.578125 
L -0.984375 -16.609375 
z
" id="DejaVuSans-95"/>
     <path d="M 54.890625 33.015625 
L 54.890625 0 
L 45.90625 0 
L 45.90625 32.71875 
Q 45.90625 40.484375 42.875 44.328125 
Q 39.84375 48.1875 33.796875 48.1875 
Q 26.515625 48.1875 22.3125 43.546875 
Q 18.109375 38.921875 18.109375 30.90625 
L 18.109375 0 
L 9.078125 0 
L 9.078125 75.984375 
L 18.109375 75.984375 
L 18.109375 46.1875 
Q 21.34375 51.125 25.703125 53.5625 
Q 30.078125 56 35.796875 56 
Q 45.21875 56 50.046875 50.171875 
Q 54.890625 44.34375 54.890625 33.015625 
z
" id="DejaVuSans-104"/>
     <path d="M 52 44.1875 
Q 55.375 50.25 60.0625 53.125 
Q 64.75 56 71.09375 56 
Q 79.640625 56 84.28125 50.015625 
Q 88.921875 44.046875 88.921875 33.015625 
L 88.921875 0 
L 79.890625 0 
L 79.890625 32.71875 
Q 79.890625 40.578125 77.09375 44.375 
Q 74.3125 48.1875 68.609375 48.1875 
Q 61.625 48.1875 57.5625 43.546875 
Q 53.515625 38.921875 53.515625 30.90625 
L 53.515625 0 
L 44.484375 0 
L 44.484375 32.71875 
Q 44.484375 40.625 41.703125 44.40625 
Q 38.921875 48.1875 33.109375 48.1875 
Q 26.21875 48.1875 22.15625 43.53125 
Q 18.109375 38.875 18.109375 30.90625 
L 18.109375 0 
L 9.078125 0 
L 9.078125 54.6875 
L 18.109375 54.6875 
L 18.109375 46.1875 
Q 21.1875 51.21875 25.484375 53.609375 
Q 29.78125 56 35.6875 56 
Q 41.65625 56 45.828125 52.96875 
Q 50 49.953125 52 44.1875 
z
" id="DejaVuSans-109"/>
     <path d="M 9.078125 75.984375 
L 18.109375 75.984375 
L 18.109375 31.109375 
L 44.921875 54.6875 
L 56.390625 54.6875 
L 27.390625 29.109375 
L 57.625 0 
L 45.90625 0 
L 18.109375 26.703125 
L 18.109375 0 
L 9.078125 0 
z
" id="DejaVuSans-107"/>
    </defs>
    <g transform="translate(412.478438 123.6)scale(0.12 -0.12)">
     <use xlink:href="#DejaVuSans-82"/>
     <use x="69.482422" xlink:href="#DejaVuSans-79"/>
     <use x="148.193359" xlink:href="#DejaVuSans-67"/>
     <use x="218.017578" xlink:href="#DejaVuSans-32"/>
     <use x="249.804688" xlink:href="#DejaVuSans-102"/>
     <use x="285.009766" xlink:href="#DejaVuSans-111"/>
     <use x="346.191406" xlink:href="#DejaVuSans-114"/>
     <use x="387.304688" xlink:href="#DejaVuSans-32"/>
     <use x="419.091797" xlink:href="#DejaVuSans-77"/>
     <use x="505.371094" xlink:href="#DejaVuSans-105"/>
     <use x="533.154297" xlink:href="#DejaVuSans-115"/>
     <use x="585.253906" xlink:href="#DejaVuSans-115"/>
     <use x="637.353516" xlink:href="#DejaVuSans-105"/>
     <use x="665.136719" xlink:href="#DejaVuSans-110"/>
     <use x="728.515625" xlink:href="#DejaVuSans-103"/>
     <use x="791.992188" xlink:href="#DejaVuSans-32"/>
     <use x="823.779297" xlink:href="#DejaVuSans-76"/>
     <use x="879.492188" xlink:href="#DejaVuSans-97"/>
     <use x="940.771484" xlink:href="#DejaVuSans-98"/>
     <use x="1004.248047" xlink:href="#DejaVuSans-115"/>
     <use x="1056.347656" xlink:href="#DejaVuSans-32"/>
     <use x="1088.134766" xlink:href="#DejaVuSans-118"/>
     <use x="1147.314453" xlink:href="#DejaVuSans-115"/>
     <use x="1199.414062" xlink:href="#DejaVuSans-46"/>
     <use x="1231.201172" xlink:href="#DejaVuSans-32"/>
     <use x="1262.988281" xlink:href="#DejaVuSans-110"/>
     <use x="1326.367188" xlink:href="#DejaVuSans-111"/>
     <use x="1387.548828" xlink:href="#DejaVuSans-110"/>
     <use x="1450.927734" xlink:href="#DejaVuSans-95"/>
     <use x="1500.927734" xlink:href="#DejaVuSans-114"/>
     <use x="1539.791016" xlink:href="#DejaVuSans-101"/>
     <use x="1601.314453" xlink:href="#DejaVuSans-98"/>
     <use x="1664.791016" xlink:href="#DejaVuSans-114"/>
     <use x="1703.654297" xlink:href="#DejaVuSans-101"/>
     <use x="1765.177734" xlink:href="#DejaVuSans-97"/>
     <use x="1826.457031" xlink:href="#DejaVuSans-116"/>
     <use x="1865.666016" xlink:href="#DejaVuSans-104"/>
     <use x="1929.044922" xlink:href="#DejaVuSans-101"/>
     <use x="1990.568359" xlink:href="#DejaVuSans-114"/>
     <use x="2031.681641" xlink:href="#DejaVuSans-95"/>
     <use x="2081.681641" xlink:href="#DejaVuSans-109"/>
     <use x="2179.09375" xlink:href="#DejaVuSans-97"/>
     <use x="2240.373047" xlink:href="#DejaVuSans-115"/>
     <use x="2292.472656" xlink:href="#DejaVuSans-107"/>
    </g>
   </g>
   <g id="legend_1">
    <g id="patch_7">
     <path d="M 142 284.38125 
L 225.7875 284.38125 
Q 227.7875 284.38125 227.7875 282.38125 
L 227.7875 136.6 
Q 227.7875 134.6 225.7875 134.6 
L 142 134.6 
Q 140 134.6 140 136.6 
L 140 282.38125 
Q 140 284.38125 142 284.38125 
z
" style="fill:#ffffff;opacity:0.8;stroke:#cccccc;stroke-linejoin:miter;"/>
    </g>
    <g id="line2d_23">
     <path d="M 144 142.698438 
L 164 142.698438 
" style="fill:none;stroke:#1f77b4;stroke-linecap:square;stroke-width:1.5;"/>
    </g>
    <g id="line2d_24"/>
    <g id="text_16">
     <!-- AUC=0.50 -->
     <defs>
      <path d="M 34.1875 63.1875 
L 20.796875 26.90625 
L 47.609375 26.90625 
z
M 28.609375 72.90625 
L 39.796875 72.90625 
L 67.578125 0 
L 57.328125 0 
L 50.6875 18.703125 
L 17.828125 18.703125 
L 11.1875 0 
L 0.78125 0 
z
" id="DejaVuSans-65"/>
      <path d="M 8.6875 72.90625 
L 18.609375 72.90625 
L 18.609375 28.609375 
Q 18.609375 16.890625 22.84375 11.734375 
Q 27.09375 6.59375 36.625 6.59375 
Q 46.09375 6.59375 50.34375 11.734375 
Q 54.59375 16.890625 54.59375 28.609375 
L 54.59375 72.90625 
L 64.5 72.90625 
L 64.5 27.390625 
Q 64.5 13.140625 57.4375 5.859375 
Q 50.390625 -1.421875 36.625 -1.421875 
Q 22.796875 -1.421875 15.734375 5.859375 
Q 8.6875 13.140625 8.6875 27.390625 
z
" id="DejaVuSans-85"/>
      <path d="M 10.59375 45.40625 
L 73.1875 45.40625 
L 73.1875 37.203125 
L 10.59375 37.203125 
z
M 10.59375 25.484375 
L 73.1875 25.484375 
L 73.1875 17.1875 
L 10.59375 17.1875 
z
" id="DejaVuSans-61"/>
      <path d="M 10.796875 72.90625 
L 49.515625 72.90625 
L 49.515625 64.59375 
L 19.828125 64.59375 
L 19.828125 46.734375 
Q 21.96875 47.46875 24.109375 47.828125 
Q 26.265625 48.1875 28.421875 48.1875 
Q 40.625 48.1875 47.75 41.5 
Q 54.890625 34.8125 54.890625 23.390625 
Q 54.890625 11.625 47.5625 5.09375 
Q 40.234375 -1.421875 26.90625 -1.421875 
Q 22.3125 -1.421875 17.546875 -0.640625 
Q 12.796875 0.140625 7.71875 1.703125 
L 7.71875 11.625 
Q 12.109375 9.234375 16.796875 8.0625 
Q 21.484375 6.890625 26.703125 6.890625 
Q 35.15625 6.890625 40.078125 11.328125 
Q 45.015625 15.765625 45.015625 23.390625 
Q 45.015625 31 40.078125 35.4375 
Q 35.15625 39.890625 26.703125 39.890625 
Q 22.75 39.890625 18.8125 39.015625 
Q 14.890625 38.140625 10.796875 36.28125 
z
" id="DejaVuSans-53"/>
     </defs>
     <g transform="translate(172 146.198438)scale(0.1 -0.1)">
      <use xlink:href="#DejaVuSans-65"/>
      <use x="68.408203" xlink:href="#DejaVuSans-85"/>
      <use x="141.601562" xlink:href="#DejaVuSans-67"/>
      <use x="211.425781" xlink:href="#DejaVuSans-61"/>
      <use x="295.214844" xlink:href="#DejaVuSans-48"/>
      <use x="358.837891" xlink:href="#DejaVuSans-46"/>
      <use x="390.625" xlink:href="#DejaVuSans-53"/>
      <use x="454.248047" xlink:href="#DejaVuSans-48"/>
     </g>
    </g>
    <g id="line2d_25">
     <path d="M 144 157.376563 
L 164 157.376563 
" style="fill:none;stroke:#ff7f0e;stroke-linecap:square;stroke-width:1.5;"/>
    </g>
    <g id="line2d_26"/>
    <g id="text_17">
     <!-- AUC=0.54 -->
     <g transform="translate(172 160.876563)scale(0.1 -0.1)">
      <use xlink:href="#DejaVuSans-65"/>
      <use x="68.408203" xlink:href="#DejaVuSans-85"/>
      <use x="141.601562" xlink:href="#DejaVuSans-67"/>
      <use x="211.425781" xlink:href="#DejaVuSans-61"/>
      <use x="295.214844" xlink:href="#DejaVuSans-48"/>
      <use x="358.837891" xlink:href="#DejaVuSans-46"/>
      <use x="390.625" xlink:href="#DejaVuSans-53"/>
      <use x="454.248047" xlink:href="#DejaVuSans-52"/>
     </g>
    </g>
    <g id="line2d_27">
     <path d="M 144 172.054688 
L 164 172.054688 
" style="fill:none;stroke:#2ca02c;stroke-linecap:square;stroke-width:1.5;"/>
    </g>
    <g id="line2d_28"/>
    <g id="text_18">
     <!-- AUC=0.51 -->
     <g transform="translate(172 175.554688)scale(0.1 -0.1)">
      <use xlink:href="#DejaVuSans-65"/>
      <use x="68.408203" xlink:href="#DejaVuSans-85"/>
      <use x="141.601562" xlink:href="#DejaVuSans-67"/>
      <use x="211.425781" xlink:href="#DejaVuSans-61"/>
      <use x="295.214844" xlink:href="#DejaVuSans-48"/>
      <use x="358.837891" xlink:href="#DejaVuSans-46"/>
      <use x="390.625" xlink:href="#DejaVuSans-53"/>
      <use x="454.248047" xlink:href="#DejaVuSans-49"/>
     </g>
    </g>
    <g id="line2d_29">
     <path d="M 144 186.732813 
L 164 186.732813 
" style="fill:none;stroke:#d62728;stroke-linecap:square;stroke-width:1.5;"/>
    </g>
    <g id="line2d_30"/>
    <g id="text_19">
     <!-- AUC=0.51 -->
     <g transform="translate(172 190.232813)scale(0.1 -0.1)">
      <use xlink:href="#DejaVuSans-65"/>
      <use x="68.408203" xlink:href="#DejaVuSans-85"/>
      <use x="141.601562" xlink:href="#DejaVuSans-67"/>
      <use x="211.425781" xlink:href="#DejaVuSans-61"/>
      <use x="295.214844" xlink:href="#DejaVuSans-48"/>
      <use x="358.837891" xlink:href="#DejaVuSans-46"/>
      <use x="390.625" xlink:href="#DejaVuSans-53"/>
      <use x="454.248047" xlink:href="#DejaVuSans-49"/>
     </g>
    </g>
    <g id="line2d_31">
     <path d="M 144 201.410938 
L 164 201.410938 
" style="fill:none;stroke:#9467bd;stroke-linecap:square;stroke-width:1.5;"/>
    </g>
    <g id="line2d_32"/>
    <g id="text_20">
     <!-- AUC=0.52 -->
     <g transform="translate(172 204.910938)scale(0.1 -0.1)">
      <use xlink:href="#DejaVuSans-65"/>
      <use x="68.408203" xlink:href="#DejaVuSans-85"/>
      <use x="141.601562" xlink:href="#DejaVuSans-67"/>
      <use x="211.425781" xlink:href="#DejaVuSans-61"/>
      <use x="295.214844" xlink:href="#DejaVuSans-48"/>
      <use x="358.837891" xlink:href="#DejaVuSans-46"/>
      <use x="390.625" xlink:href="#DejaVuSans-53"/>
      <use x="454.248047" xlink:href="#DejaVuSans-50"/>
     </g>
    </g>
    <g id="line2d_33">
     <path d="M 144 216.089063 
L 164 216.089063 
" style="fill:none;stroke:#8c564b;stroke-linecap:square;stroke-width:1.5;"/>
    </g>
    <g id="line2d_34"/>
    <g id="text_21">
     <!-- AUC=0.50 -->
     <g transform="translate(172 219.589063)scale(0.1 -0.1)">
      <use xlink:href="#DejaVuSans-65"/>
      <use x="68.408203" xlink:href="#DejaVuSans-85"/>
      <use x="141.601562" xlink:href="#DejaVuSans-67"/>
      <use x="211.425781" xlink:href="#DejaVuSans-61"/>
      <use x="295.214844" xlink:href="#DejaVuSans-48"/>
      <use x="358.837891" xlink:href="#DejaVuSans-46"/>
      <use x="390.625" xlink:href="#DejaVuSans-53"/>
      <use x="454.248047" xlink:href="#DejaVuSans-48"/>
     </g>
    </g>
    <g id="line2d_35">
     <path d="M 144 230.767188 
L 164 230.767188 
" style="fill:none;stroke:#e377c2;stroke-linecap:square;stroke-width:1.5;"/>
    </g>
    <g id="line2d_36"/>
    <g id="text_22">
     <!-- AUC=0.49 -->
     <defs>
      <path d="M 10.984375 1.515625 
L 10.984375 10.5 
Q 14.703125 8.734375 18.5 7.8125 
Q 22.3125 6.890625 25.984375 6.890625 
Q 35.75 6.890625 40.890625 13.453125 
Q 46.046875 20.015625 46.78125 33.40625 
Q 43.953125 29.203125 39.59375 26.953125 
Q 35.25 24.703125 29.984375 24.703125 
Q 19.046875 24.703125 12.671875 31.3125 
Q 6.296875 37.9375 6.296875 49.421875 
Q 6.296875 60.640625 12.9375 67.421875 
Q 19.578125 74.21875 30.609375 74.21875 
Q 43.265625 74.21875 49.921875 64.515625 
Q 56.59375 54.828125 56.59375 36.375 
Q 56.59375 19.140625 48.40625 8.859375 
Q 40.234375 -1.421875 26.421875 -1.421875 
Q 22.703125 -1.421875 18.890625 -0.6875 
Q 15.09375 0.046875 10.984375 1.515625 
z
M 30.609375 32.421875 
Q 37.25 32.421875 41.125 36.953125 
Q 45.015625 41.5 45.015625 49.421875 
Q 45.015625 57.28125 41.125 61.84375 
Q 37.25 66.40625 30.609375 66.40625 
Q 23.96875 66.40625 20.09375 61.84375 
Q 16.21875 57.28125 16.21875 49.421875 
Q 16.21875 41.5 20.09375 36.953125 
Q 23.96875 32.421875 30.609375 32.421875 
z
" id="DejaVuSans-57"/>
     </defs>
     <g transform="translate(172 234.267188)scale(0.1 -0.1)">
      <use xlink:href="#DejaVuSans-65"/>
      <use x="68.408203" xlink:href="#DejaVuSans-85"/>
      <use x="141.601562" xlink:href="#DejaVuSans-67"/>
      <use x="211.425781" xlink:href="#DejaVuSans-61"/>
      <use x="295.214844" xlink:href="#DejaVuSans-48"/>
      <use x="358.837891" xlink:href="#DejaVuSans-46"/>
      <use x="390.625" xlink:href="#DejaVuSans-52"/>
      <use x="454.248047" xlink:href="#DejaVuSans-57"/>
     </g>
    </g>
    <g id="line2d_37">
     <path d="M 144 245.445313 
L 164 245.445313 
" style="fill:none;stroke:#7f7f7f;stroke-linecap:square;stroke-width:1.5;"/>
    </g>
    <g id="line2d_38"/>
    <g id="text_23">
     <!-- AUC=0.50 -->
     <g transform="translate(172 248.945313)scale(0.1 -0.1)">
      <use xlink:href="#DejaVuSans-65"/>
      <use x="68.408203" xlink:href="#DejaVuSans-85"/>
      <use x="141.601562" xlink:href="#DejaVuSans-67"/>
      <use x="211.425781" xlink:href="#DejaVuSans-61"/>
      <use x="295.214844" xlink:href="#DejaVuSans-48"/>
      <use x="358.837891" xlink:href="#DejaVuSans-46"/>
      <use x="390.625" xlink:href="#DejaVuSans-53"/>
      <use x="454.248047" xlink:href="#DejaVuSans-48"/>
     </g>
    </g>
    <g id="line2d_39">
     <path d="M 144 260.123438 
L 164 260.123438 
" style="fill:none;stroke:#bcbd22;stroke-linecap:square;stroke-width:1.5;"/>
    </g>
    <g id="line2d_40"/>
    <g id="text_24">
     <!-- AUC=0.51 -->
     <g transform="translate(172 263.623438)scale(0.1 -0.1)">
      <use xlink:href="#DejaVuSans-65"/>
      <use x="68.408203" xlink:href="#DejaVuSans-85"/>
      <use x="141.601562" xlink:href="#DejaVuSans-67"/>
      <use x="211.425781" xlink:href="#DejaVuSans-61"/>
      <use x="295.214844" xlink:href="#DejaVuSans-48"/>
      <use x="358.837891" xlink:href="#DejaVuSans-46"/>
      <use x="390.625" xlink:href="#DejaVuSans-53"/>
      <use x="454.248047" xlink:href="#DejaVuSans-49"/>
     </g>
    </g>
    <g id="line2d_41">
     <path d="M 144 274.801563 
L 164 274.801563 
" style="fill:none;stroke:#17becf;stroke-linecap:square;stroke-width:1.5;"/>
    </g>
    <g id="line2d_42"/>
    <g id="text_25">
     <!-- AUC=0.50 -->
     <g transform="translate(172 278.301563)scale(0.1 -0.1)">
      <use xlink:href="#DejaVuSans-65"/>
      <use x="68.408203" xlink:href="#DejaVuSans-85"/>
      <use x="141.601562" xlink:href="#DejaVuSans-67"/>
      <use x="211.425781" xlink:href="#DejaVuSans-61"/>
      <use x="295.214844" xlink:href="#DejaVuSans-48"/>
      <use x="358.837891" xlink:href="#DejaVuSans-46"/>
      <use x="390.625" xlink:href="#DejaVuSans-53"/>
      <use x="454.248047" xlink:href="#DejaVuSans-48"/>
     </g>
    </g>
   </g>
  </g>
 </g>
 <defs>
  <clipPath id="p3c6f1d51a8">
   <rect height="831.6" width="837" x="135" y="129.6"/>
  </clipPath>
 </defs>
</svg>
