<?xml version="1.0" encoding="utf-8" standalone="no"?>
<!DOCTYPE svg PUBLIC "-//W3C//DTD SVG 1.1//EN"
  "http://www.w3.org/Graphics/SVG/1.1/DTD/svg11.dtd">
<!-- Created with matplotlib (https://matplotlib.org/) -->
<svg height="345.6pt" version="1.1" viewBox="0 0 460.8 345.6" width="460.8pt" xmlns="http://www.w3.org/2000/svg" xmlns:xlink="http://www.w3.org/1999/xlink">
 <defs>
  <style type="text/css">
*{stroke-linecap:butt;stroke-linejoin:round;}
  </style>
 </defs>
 <g id="figure_1">
  <g id="patch_1">
   <path d="M 0 345.6 
L 460.8 345.6 
L 460.8 0 
L 0 0 
z
" style="fill:#ffffff;"/>
  </g>
  <g id="axes_1">
   <g id="patch_2">
    <path d="M 57.6 307.584 
L 414.72 307.584 
L 414.72 41.472 
L 57.6 41.472 
z
" style="fill:#ffffff;"/>
   </g>
   <g id="PolyCollection_1">
    <defs>
     <path d="M 73.832727 -162.283418 
L 73.832727 -179.860582 
L 77.112066 -184.695717 
L 80.391405 -191.341229 
L 83.670744 -200.0215 
L 86.950083 -210.77466 
L 90.229421 -223.372146 
L 93.50876 -237.269504 
L 96.788099 -251.611781 
L 100.067438 -265.306958 
L 103.346777 -277.163693 
L 106.626116 -286.07014 
L 109.905455 -291.175539 
L 113.184793 -292.032 
L 116.464132 -288.662668 
L 119.743471 -281.541858 
L 123.02281 -271.496057 
L 126.302149 -259.553836 
L 129.581488 -246.781927 
L 132.860826 -234.142169 
L 136.140165 -222.392618 
L 139.419504 -212.041085 
L 142.698843 -203.346076 
L 145.978182 -196.351928 
L 149.257521 -190.942543 
L 152.53686 -186.90006 
L 155.816198 -183.95881 
L 159.095537 -181.849081 
L 162.374876 -180.328395 
L 165.654215 -179.200064 
L 168.933554 -178.3201 
L 172.212893 -177.594452 
L 175.492231 -176.969363 
L 178.77157 -176.418179 
L 182.050909 -175.928098 
L 185.330248 -175.489761 
L 188.609587 -175.091462 
L 191.888926 -174.718157 
L 195.168264 -174.354076 
L 198.447603 -173.986847 
L 201.726942 -173.610988 
L 205.006281 -173.2293 
L 208.28562 -172.851737 
L 211.564959 -172.492352 
L 214.844298 -172.165476 
L 218.123636 -171.882385 
L 221.402975 -171.649281 
L 224.682314 -171.466847 
L 227.961653 -171.331109 
L 231.240992 -171.235049 
L 234.520331 -171.170349 
L 237.799669 -171.128849 
L 241.079008 -171.103485 
L 244.358347 -171.088705 
L 247.637686 -171.08049 
L 250.917025 -171.076133 
L 254.196364 -171.073927 
L 257.475702 -171.072861 
L 260.755041 -171.072368 
L 264.03438 -171.072151 
L 267.313719 -171.072059 
L 270.593058 -171.072022 
L 273.872397 -171.072008 
L 277.151736 -171.072003 
L 280.431074 -171.072002 
L 283.710413 -171.072002 
L 286.989752 -171.072006 
L 290.269091 -171.072018 
L 293.54843 -171.072048 
L 296.827769 -171.072123 
L 300.107107 -171.072302 
L 303.386446 -171.072713 
L 306.665785 -171.073612 
L 309.945124 -171.075491 
L 313.224463 -171.079238 
L 316.503802 -171.086374 
L 319.78314 -171.099338 
L 323.062479 -171.121794 
L 326.341818 -171.158862 
L 329.621157 -171.217116 
L 332.900496 -171.304187 
L 336.179835 -171.427792 
L 339.459174 -171.594143 
L 342.738512 -171.80587 
L 346.017851 -172.059834 
L 349.29719 -172.345458 
L 352.576529 -172.644247 
L 355.855868 -172.931057 
L 359.135207 -173.177234 
L 362.414545 -173.355199 
L 365.693884 -173.443498 
L 368.973223 -173.431052 
L 372.252562 -173.319439 
L 375.531901 -173.122567 
L 378.81124 -172.863826 
L 382.090579 -172.571523 
L 385.369917 -172.273839 
L 388.649256 -171.994519 
L 391.928595 -171.750172 
L 395.207934 -171.549463 
L 398.487273 -171.393941 
L 398.487273 -170.750059 
L 398.487273 -170.750059 
L 395.207934 -170.594537 
L 391.928595 -170.393828 
L 388.649256 -170.149481 
L 385.369917 -169.870161 
L 382.090579 -169.572477 
L 378.81124 -169.280174 
L 375.531901 -169.021433 
L 372.252562 -168.824561 
L 368.973223 -168.712948 
L 365.693884 -168.700502 
L 362.414545 -168.788801 
L 359.135207 -168.966766 
L 355.855868 -169.212943 
L 352.576529 -169.499753 
L 349.29719 -169.798542 
L 346.017851 -170.084166 
L 342.738512 -170.33813 
L 339.459174 -170.549857 
L 336.179835 -170.716208 
L 332.900496 -170.839813 
L 329.621157 -170.926884 
L 326.341818 -170.985138 
L 323.062479 -171.022206 
L 319.78314 -171.044662 
L 316.503802 -171.057626 
L 313.224463 -171.064762 
L 309.945124 -171.068509 
L 306.665785 -171.070388 
L 303.386446 -171.071287 
L 300.107107 -171.071698 
L 296.827769 -171.071877 
L 293.54843 -171.071952 
L 290.269091 -171.071982 
L 286.989752 -171.071994 
L 283.710413 -171.071998 
L 280.431074 -171.071998 
L 277.151736 -171.071997 
L 273.872397 -171.071992 
L 270.593058 -171.071978 
L 267.313719 -171.071941 
L 264.03438 -171.071849 
L 260.755041 -171.071632 
L 257.475702 -171.071139 
L 254.196364 -171.070073 
L 250.917025 -171.067867 
L 247.637686 -171.06351 
L 244.358347 -171.055295 
L 241.079008 -171.040515 
L 237.799669 -171.015151 
L 234.520331 -170.973651 
L 231.240992 -170.908951 
L 227.961653 -170.812891 
L 224.682314 -170.677153 
L 221.402975 -170.494719 
L 218.123636 -170.261615 
L 214.844298 -169.978524 
L 211.564959 -169.651648 
L 208.28562 -169.292263 
L 205.006281 -168.9147 
L 201.726942 -168.533012 
L 198.447603 -168.157153 
L 195.168264 -167.789924 
L 191.888926 -167.425843 
L 188.609587 -167.052538 
L 185.330248 -166.654239 
L 182.050909 -166.215902 
L 178.77157 -165.725821 
L 175.492231 -165.174637 
L 172.212893 -164.549548 
L 168.933554 -163.8239 
L 165.654215 -162.943936 
L 162.374876 -161.815605 
L 159.095537 -160.294919 
L 155.816198 -158.18519 
L 152.53686 -155.24394 
L 149.257521 -151.201457 
L 145.978182 -145.792072 
L 142.698843 -138.797924 
L 139.419504 -130.102915 
L 136.140165 -119.751382 
L 132.860826 -108.001831 
L 129.581488 -95.362073 
L 126.302149 -82.590164 
L 123.02281 -70.647943 
L 119.743471 -60.602142 
L 116.464132 -53.481332 
L 113.184793 -50.112 
L 109.905455 -50.968461 
L 106.626116 -56.07386 
L 103.346777 -64.980307 
L 100.067438 -76.837042 
L 96.788099 -90.532219 
L 93.50876 -104.874496 
L 90.229421 -118.771854 
L 86.950083 -131.36934 
L 83.670744 -142.1225 
L 80.391405 -150.802771 
L 77.112066 -157.448283 
L 73.832727 -162.283418 
z
" id="m8545918bab" style="stroke:#4c4c4c;stroke-opacity:0.5;stroke-width:1.5;"/>
    </defs>
    <g clip-path="url(#pd84dd831be)">
     <use style="fill:#df9c20;fill-opacity:0.5;stroke:#4c4c4c;stroke-opacity:0.5;stroke-width:1.5;" x="0" xlink:href="#m8545918bab" y="345.6"/>
    </g>
   </g>
   <g id="PolyCollection_2">
    <defs>
     <path d="M 101.535808 -167.144323 
L 101.535808 -174.999677 
L 101.772576 -176.579662 
L 102.009345 -178.646887 
L 102.246114 -181.291427 
L 102.482882 -184.59868 
L 102.719651 -188.641229 
L 102.95642 -193.46979 
L 103.193188 -199.104132 
L 103.429957 -205.525108 
L 103.666726 -212.669024 
L 103.903494 -220.425451 
L 104.140263 -228.639284 
L 104.377032 -237.117313 
L 104.6138 -245.638958 
L 104.850569 -253.970169 
L 105.087337 -261.878921 
L 105.324106 -269.150482 
L 105.560875 -275.600577 
L 105.797643 -281.084931 
L 106.034412 -285.504259 
L 106.271181 -288.804532 
L 106.507949 -290.973117 
L 106.744718 -292.032 
L 106.981487 -292.029642 
L 107.218255 -291.033048 
L 107.455024 -289.121309 
L 107.691793 -286.381362 
L 107.928561 -282.906071 
L 108.16533 -278.794181 
L 108.402099 -274.151254 
L 108.638867 -269.090571 
L 108.875636 -263.733065 
L 109.112405 -258.205649 
L 109.349173 -252.637749 
L 109.585942 -247.156275 
L 109.822711 -241.879621 
L 110.059479 -236.911498 
L 110.296248 -232.335422 
L 110.533016 -228.210566 
L 110.769785 -224.569445 
L 111.006554 -221.417617 
L 111.243322 -218.735315 
L 111.480091 -216.480724 
L 111.71686 -214.594452 
L 111.953628 -213.004739 
L 112.190397 -211.632936 
L 112.427166 -210.398842 
L 112.663934 -209.225608 
L 112.900703 -208.043956 
L 113.137472 -206.79558 
L 113.37424 -205.435613 
L 113.611009 -203.934152 
L 113.847778 -202.276833 
L 114.084546 -200.46451 
L 114.321315 -198.512138 
L 114.558084 -196.446965 
L 114.794852 -194.306191 
L 115.031621 -192.134246 
L 115.26839 -189.979864 
L 115.505158 -187.893104 
L 115.741927 -185.92248 
L 115.978695 -184.112337 
L 116.215464 -182.500583 
L 116.452233 -181.116863 
L 116.689001 -179.981245 
L 116.92577 -179.103458 
L 117.162539 -178.482675 
L 117.399307 -178.107841 
L 117.636076 -177.958502 
L 117.872845 -178.006082 
L 118.109613 -178.215521 
L 118.346382 -178.547192 
L 118.583151 -178.958989 
L 118.819919 -179.408467 
L 119.056688 -179.854918 
L 119.293457 -180.261259 
L 119.530225 -180.595625 
L 119.766994 -180.832581 
L 120.003763 -180.953885 
L 120.240531 -180.94878 
L 120.4773 -180.813842 
L 120.714068 -180.552414 
L 120.950837 -180.173728 
L 121.187606 -179.691797 
L 121.424374 -179.124187 
L 121.661143 -178.490755 
L 121.897912 -177.812445 
L 122.13468 -177.110174 
L 122.371449 -176.403864 
L 122.608218 -175.711642 
L 122.844986 -175.049205 
L 123.081755 -174.429373 
L 123.318524 -173.861826 
L 123.555292 -173.353026 
L 123.792061 -172.90632 
L 124.02883 -172.522199 
L 124.265598 -172.198697 
L 124.502367 -171.931883 
L 124.739136 -171.716405 
L 124.975904 -171.546033 
L 124.975904 -170.597967 
L 124.975904 -170.597967 
L 124.739136 -170.427595 
L 124.502367 -170.212117 
L 124.265598 -169.945303 
L 124.02883 -169.621801 
L 123.792061 -169.23768 
L 123.555292 -168.790974 
L 123.318524 -168.282174 
L 123.081755 -167.714627 
L 122.844986 -167.094795 
L 122.608218 -166.432358 
L 122.371449 -165.740136 
L 122.13468 -165.033826 
L 121.897912 -164.331555 
L 121.661143 -163.653245 
L 121.424374 -163.019813 
L 121.187606 -162.452203 
L 120.950837 -161.970272 
L 120.714068 -161.591586 
L 120.4773 -161.330158 
L 120.240531 -161.19522 
L 120.003763 -161.190115 
L 119.766994 -161.311419 
L 119.530225 -161.548375 
L 119.293457 -161.882741 
L 119.056688 -162.289082 
L 118.819919 -162.735533 
L 118.583151 -163.185011 
L 118.346382 -163.596808 
L 118.109613 -163.928479 
L 117.872845 -164.137918 
L 117.636076 -164.185498 
L 117.399307 -164.036159 
L 117.162539 -163.661325 
L 116.92577 -163.040542 
L 116.689001 -162.162755 
L 116.452233 -161.027137 
L 116.215464 -159.643417 
L 115.978695 -158.031663 
L 115.741927 -156.22152 
L 115.505158 -154.250896 
L 115.26839 -152.164136 
L 115.031621 -150.009754 
L 114.794852 -147.837809 
L 114.558084 -145.697035 
L 114.321315 -143.631862 
L 114.084546 -141.67949 
L 113.847778 -139.867167 
L 113.611009 -138.209848 
L 113.37424 -136.708387 
L 113.137472 -135.34842 
L 112.900703 -134.100044 
L 112.663934 -132.918392 
L 112.427166 -131.745158 
L 112.190397 -130.511064 
L 111.953628 -129.139261 
L 111.71686 -127.549548 
L 111.480091 -125.663276 
L 111.243322 -123.408685 
L 111.006554 -120.726383 
L 110.769785 -117.574555 
L 110.533016 -113.933434 
L 110.296248 -109.808578 
L 110.059479 -105.232502 
L 109.822711 -100.264379 
L 109.585942 -94.987725 
L 109.349173 -89.506251 
L 109.112405 -83.938351 
L 108.875636 -78.410935 
L 108.638867 -73.053429 
L 108.402099 -67.992746 
L 108.16533 -63.349819 
L 107.928561 -59.237929 
L 107.691793 -55.762638 
L 107.455024 -53.022691 
L 107.218255 -51.110952 
L 106.981487 -50.114358 
L 106.744718 -50.112 
L 106.507949 -51.170883 
L 106.271181 -53.339468 
L 106.034412 -56.639741 
L 105.797643 -61.059069 
L 105.560875 -66.543423 
L 105.324106 -72.993518 
L 105.087337 -80.265079 
L 104.850569 -88.173831 
L 104.6138 -96.505042 
L 104.377032 -105.026687 
L 104.140263 -113.504716 
L 103.903494 -121.718549 
L 103.666726 -129.474976 
L 103.429957 -136.618892 
L 103.193188 -143.039868 
L 102.95642 -148.67421 
L 102.719651 -153.502771 
L 102.482882 -157.54532 
L 102.246114 -160.852573 
L 102.009345 -163.497113 
L 101.772576 -165.564338 
L 101.535808 -167.144323 
z
" id="m6650b4ced2" style="stroke:#262626;stroke-opacity:0.5;stroke-width:1.5;"/>
    </defs>
    <g clip-path="url(#pd84dd831be)">
     <use style="fill:#107010;fill-opacity:0.5;stroke:#262626;stroke-opacity:0.5;stroke-width:1.5;" x="0" xlink:href="#m6650b4ced2" y="345.6"/>
    </g>
   </g>
   <g id="matplotlib.axis_1">
    <g id="xtick_1">
     <g id="line2d_1">
      <defs>
       <path d="M 0 0 
L 0 3.5 
" id="md75ab69008" style="stroke:#000000;stroke-width:0.8;"/>
      </defs>
      <g>
       <use style="stroke:#000000;stroke-width:0.8;" x="63.067312" xlink:href="#md75ab69008" y="307.584"/>
      </g>
     </g>
     <g id="text_1">
      <!-- −10000 -->
      <defs>
       <path d="M 10.59375 35.5 
L 73.1875 35.5 
L 73.1875 27.203125 
L 10.59375 27.203125 
z
" id="DejaVuSans-8722"/>
       <path d="M 12.40625 8.296875 
L 28.515625 8.296875 
L 28.515625 63.921875 
L 10.984375 60.40625 
L 10.984375 69.390625 
L 28.421875 72.90625 
L 38.28125 72.90625 
L 38.28125 8.296875 
L 54.390625 8.296875 
L 54.390625 0 
L 12.40625 0 
z
" id="DejaVuSans-49"/>
       <path d="M 31.78125 66.40625 
Q 24.171875 66.40625 20.328125 58.90625 
Q 16.5 51.421875 16.5 36.375 
Q 16.5 21.390625 20.328125 13.890625 
Q 24.171875 6.390625 31.78125 6.390625 
Q 39.453125 6.390625 43.28125 13.890625 
Q 47.125 21.390625 47.125 36.375 
Q 47.125 51.421875 43.28125 58.90625 
Q 39.453125 66.40625 31.78125 66.40625 
z
M 31.78125 74.21875 
Q 44.046875 74.21875 50.515625 64.515625 
Q 56.984375 54.828125 56.984375 36.375 
Q 56.984375 17.96875 50.515625 8.265625 
Q 44.046875 -1.421875 31.78125 -1.421875 
Q 19.53125 -1.421875 13.0625 8.265625 
Q 6.59375 17.96875 6.59375 36.375 
Q 6.59375 54.828125 13.0625 64.515625 
Q 19.53125 74.21875 31.78125 74.21875 
z
" id="DejaVuSans-48"/>
      </defs>
      <g transform="translate(42.971218 322.182437)scale(0.1 -0.1)">
       <use xlink:href="#DejaVuSans-8722"/>
       <use x="83.789062" xlink:href="#DejaVuSans-49"/>
       <use x="147.412109" xlink:href="#DejaVuSans-48"/>
       <use x="211.035156" xlink:href="#DejaVuSans-48"/>
       <use x="274.658203" xlink:href="#DejaVuSans-48"/>
       <use x="338.28125" xlink:href="#DejaVuSans-48"/>
      </g>
     </g>
    </g>
    <g id="xtick_2">
     <g id="line2d_2">
      <g>
       <use style="stroke:#000000;stroke-width:0.8;" x="104.641653" xlink:href="#md75ab69008" y="307.584"/>
      </g>
     </g>
     <g id="text_2">
      <!-- 0 -->
      <g transform="translate(101.460403 322.182437)scale(0.1 -0.1)">
       <use xlink:href="#DejaVuSans-48"/>
      </g>
     </g>
    </g>
    <g id="xtick_3">
     <g id="line2d_3">
      <g>
       <use style="stroke:#000000;stroke-width:0.8;" x="146.215993" xlink:href="#md75ab69008" y="307.584"/>
      </g>
     </g>
     <g id="text_3">
      <!-- 10000 -->
      <g transform="translate(130.309743 322.182437)scale(0.1 -0.1)">
       <use xlink:href="#DejaVuSans-49"/>
       <use x="63.623047" xlink:href="#DejaVuSans-48"/>
       <use x="127.246094" xlink:href="#DejaVuSans-48"/>
       <use x="190.869141" xlink:href="#DejaVuSans-48"/>
       <use x="254.492188" xlink:href="#DejaVuSans-48"/>
      </g>
     </g>
    </g>
    <g id="xtick_4">
     <g id="line2d_4">
      <g>
       <use style="stroke:#000000;stroke-width:0.8;" x="187.790334" xlink:href="#md75ab69008" y="307.584"/>
      </g>
     </g>
     <g id="text_4">
      <!-- 20000 -->
      <defs>
       <path d="M 19.1875 8.296875 
L 53.609375 8.296875 
L 53.609375 0 
L 7.328125 0 
L 7.328125 8.296875 
Q 12.9375 14.109375 22.625 23.890625 
Q 32.328125 33.6875 34.8125 36.53125 
Q 39.546875 41.84375 41.421875 45.53125 
Q 43.3125 49.21875 43.3125 52.78125 
Q 43.3125 58.59375 39.234375 62.25 
Q 35.15625 65.921875 28.609375 65.921875 
Q 23.96875 65.921875 18.8125 64.3125 
Q 13.671875 62.703125 7.8125 59.421875 
L 7.8125 69.390625 
Q 13.765625 71.78125 18.9375 73 
Q 24.125 74.21875 28.421875 74.21875 
Q 39.75 74.21875 46.484375 68.546875 
Q 53.21875 62.890625 53.21875 53.421875 
Q 53.21875 48.921875 51.53125 44.890625 
Q 49.859375 40.875 45.40625 35.40625 
Q 44.1875 33.984375 37.640625 27.21875 
Q 31.109375 20.453125 19.1875 8.296875 
z
" id="DejaVuSans-50"/>
      </defs>
      <g transform="translate(171.884084 322.182437)scale(0.1 -0.1)">
       <use xlink:href="#DejaVuSans-50"/>
       <use x="63.623047" xlink:href="#DejaVuSans-48"/>
       <use x="127.246094" xlink:href="#DejaVuSans-48"/>
       <use x="190.869141" xlink:href="#DejaVuSans-48"/>
       <use x="254.492188" xlink:href="#DejaVuSans-48"/>
      </g>
     </g>
    </g>
    <g id="xtick_5">
     <g id="line2d_5">
      <g>
       <use style="stroke:#000000;stroke-width:0.8;" x="229.364674" xlink:href="#md75ab69008" y="307.584"/>
      </g>
     </g>
     <g id="text_5">
      <!-- 30000 -->
      <defs>
       <path d="M 40.578125 39.3125 
Q 47.65625 37.796875 51.625 33 
Q 55.609375 28.21875 55.609375 21.1875 
Q 55.609375 10.40625 48.1875 4.484375 
Q 40.765625 -1.421875 27.09375 -1.421875 
Q 22.515625 -1.421875 17.65625 -0.515625 
Q 12.796875 0.390625 7.625 2.203125 
L 7.625 11.71875 
Q 11.71875 9.328125 16.59375 8.109375 
Q 21.484375 6.890625 26.8125 6.890625 
Q 36.078125 6.890625 40.9375 10.546875 
Q 45.796875 14.203125 45.796875 21.1875 
Q 45.796875 27.640625 41.28125 31.265625 
Q 36.765625 34.90625 28.71875 34.90625 
L 20.21875 34.90625 
L 20.21875 43.015625 
L 29.109375 43.015625 
Q 36.375 43.015625 40.234375 45.921875 
Q 44.09375 48.828125 44.09375 54.296875 
Q 44.09375 59.90625 40.109375 62.90625 
Q 36.140625 65.921875 28.71875 65.921875 
Q 24.65625 65.921875 20.015625 65.03125 
Q 15.375 64.15625 9.8125 62.3125 
L 9.8125 71.09375 
Q 15.4375 72.65625 20.34375 73.4375 
Q 25.25 74.21875 29.59375 74.21875 
Q 40.828125 74.21875 47.359375 69.109375 
Q 53.90625 64.015625 53.90625 55.328125 
Q 53.90625 49.265625 50.4375 45.09375 
Q 46.96875 40.921875 40.578125 39.3125 
z
" id="DejaVuSans-51"/>
      </defs>
      <g transform="translate(213.458424 322.182437)scale(0.1 -0.1)">
       <use xlink:href="#DejaVuSans-51"/>
       <use x="63.623047" xlink:href="#DejaVuSans-48"/>
       <use x="127.246094" xlink:href="#DejaVuSans-48"/>
       <use x="190.869141" xlink:href="#DejaVuSans-48"/>
       <use x="254.492188" xlink:href="#DejaVuSans-48"/>
      </g>
     </g>
    </g>
    <g id="xtick_6">
     <g id="line2d_6">
      <g>
       <use style="stroke:#000000;stroke-width:0.8;" x="270.939015" xlink:href="#md75ab69008" y="307.584"/>
      </g>
     </g>
     <g id="text_6">
      <!-- 40000 -->
      <defs>
       <path d="M 37.796875 64.3125 
L 12.890625 25.390625 
L 37.796875 25.390625 
z
M 35.203125 72.90625 
L 47.609375 72.90625 
L 47.609375 25.390625 
L 58.015625 25.390625 
L 58.015625 17.1875 
L 47.609375 17.1875 
L 47.609375 0 
L 37.796875 0 
L 37.796875 17.1875 
L 4.890625 17.1875 
L 4.890625 26.703125 
z
" id="DejaVuSans-52"/>
      </defs>
      <g transform="translate(255.032765 322.182437)scale(0.1 -0.1)">
       <use xlink:href="#DejaVuSans-52"/>
       <use x="63.623047" xlink:href="#DejaVuSans-48"/>
       <use x="127.246094" xlink:href="#DejaVuSans-48"/>
       <use x="190.869141" xlink:href="#DejaVuSans-48"/>
       <use x="254.492188" xlink:href="#DejaVuSans-48"/>
      </g>
     </g>
    </g>
    <g id="xtick_7">
     <g id="line2d_7">
      <g>
       <use style="stroke:#000000;stroke-width:0.8;" x="312.513355" xlink:href="#md75ab69008" y="307.584"/>
      </g>
     </g>
     <g id="text_7">
      <!-- 50000 -->
      <defs>
       <path d="M 10.796875 72.90625 
L 49.515625 72.90625 
L 49.515625 64.59375 
L 19.828125 64.59375 
L 19.828125 46.734375 
Q 21.96875 47.46875 24.109375 47.828125 
Q 26.265625 48.1875 28.421875 48.1875 
Q 40.625 48.1875 47.75 41.5 
Q 54.890625 34.8125 54.890625 23.390625 
Q 54.890625 11.625 47.5625 5.09375 
Q 40.234375 -1.421875 26.90625 -1.421875 
Q 22.3125 -1.421875 17.546875 -0.640625 
Q 12.796875 0.140625 7.71875 1.703125 
L 7.71875 11.625 
Q 12.109375 9.234375 16.796875 8.0625 
Q 21.484375 6.890625 26.703125 6.890625 
Q 35.15625 6.890625 40.078125 11.328125 
Q 45.015625 15.765625 45.015625 23.390625 
Q 45.015625 31 40.078125 35.4375 
Q 35.15625 39.890625 26.703125 39.890625 
Q 22.75 39.890625 18.8125 39.015625 
Q 14.890625 38.140625 10.796875 36.28125 
z
" id="DejaVuSans-53"/>
      </defs>
      <g transform="translate(296.607105 322.182437)scale(0.1 -0.1)">
       <use xlink:href="#DejaVuSans-53"/>
       <use x="63.623047" xlink:href="#DejaVuSans-48"/>
       <use x="127.246094" xlink:href="#DejaVuSans-48"/>
       <use x="190.869141" xlink:href="#DejaVuSans-48"/>
       <use x="254.492188" xlink:href="#DejaVuSans-48"/>
      </g>
     </g>
    </g>
    <g id="xtick_8">
     <g id="line2d_8">
      <g>
       <use style="stroke:#000000;stroke-width:0.8;" x="354.087695" xlink:href="#md75ab69008" y="307.584"/>
      </g>
     </g>
     <g id="text_8">
      <!-- 60000 -->
      <defs>
       <path d="M 33.015625 40.375 
Q 26.375 40.375 22.484375 35.828125 
Q 18.609375 31.296875 18.609375 23.390625 
Q 18.609375 15.53125 22.484375 10.953125 
Q 26.375 6.390625 33.015625 6.390625 
Q 39.65625 6.390625 43.53125 10.953125 
Q 47.40625 15.53125 47.40625 23.390625 
Q 47.40625 31.296875 43.53125 35.828125 
Q 39.65625 40.375 33.015625 40.375 
z
M 52.59375 71.296875 
L 52.59375 62.3125 
Q 48.875 64.0625 45.09375 64.984375 
Q 41.3125 65.921875 37.59375 65.921875 
Q 27.828125 65.921875 22.671875 59.328125 
Q 17.53125 52.734375 16.796875 39.40625 
Q 19.671875 43.65625 24.015625 45.921875 
Q 28.375 48.1875 33.59375 48.1875 
Q 44.578125 48.1875 50.953125 41.515625 
Q 57.328125 34.859375 57.328125 23.390625 
Q 57.328125 12.15625 50.6875 5.359375 
Q 44.046875 -1.421875 33.015625 -1.421875 
Q 20.359375 -1.421875 13.671875 8.265625 
Q 6.984375 17.96875 6.984375 36.375 
Q 6.984375 53.65625 15.1875 63.9375 
Q 23.390625 74.21875 37.203125 74.21875 
Q 40.921875 74.21875 44.703125 73.484375 
Q 48.484375 72.75 52.59375 71.296875 
z
" id="DejaVuSans-54"/>
      </defs>
      <g transform="translate(338.181445 322.182437)scale(0.1 -0.1)">
       <use xlink:href="#DejaVuSans-54"/>
       <use x="63.623047" xlink:href="#DejaVuSans-48"/>
       <use x="127.246094" xlink:href="#DejaVuSans-48"/>
       <use x="190.869141" xlink:href="#DejaVuSans-48"/>
       <use x="254.492188" xlink:href="#DejaVuSans-48"/>
      </g>
     </g>
    </g>
    <g id="xtick_9">
     <g id="line2d_9">
      <g>
       <use style="stroke:#000000;stroke-width:0.8;" x="395.662036" xlink:href="#md75ab69008" y="307.584"/>
      </g>
     </g>
     <g id="text_9">
      <!-- 70000 -->
      <defs>
       <path d="M 8.203125 72.90625 
L 55.078125 72.90625 
L 55.078125 68.703125 
L 28.609375 0 
L 18.3125 0 
L 43.21875 64.59375 
L 8.203125 64.59375 
z
" id="DejaVuSans-55"/>
      </defs>
      <g transform="translate(379.755786 322.182437)scale(0.1 -0.1)">
       <use xlink:href="#DejaVuSans-55"/>
       <use x="63.623047" xlink:href="#DejaVuSans-48"/>
       <use x="127.246094" xlink:href="#DejaVuSans-48"/>
       <use x="190.869141" xlink:href="#DejaVuSans-48"/>
       <use x="254.492188" xlink:href="#DejaVuSans-48"/>
      </g>
     </g>
    </g>
    <g id="text_10">
     <!-- ferritpeakac -->
     <defs>
      <path d="M 37.109375 75.984375 
L 37.109375 68.5 
L 28.515625 68.5 
Q 23.6875 68.5 21.796875 66.546875 
Q 19.921875 64.59375 19.921875 59.515625 
L 19.921875 54.6875 
L 34.71875 54.6875 
L 34.71875 47.703125 
L 19.921875 47.703125 
L 19.921875 0 
L 10.890625 0 
L 10.890625 47.703125 
L 2.296875 47.703125 
L 2.296875 54.6875 
L 10.890625 54.6875 
L 10.890625 58.5 
Q 10.890625 67.625 15.140625 71.796875 
Q 19.390625 75.984375 28.609375 75.984375 
z
" id="DejaVuSans-102"/>
      <path d="M 56.203125 29.59375 
L 56.203125 25.203125 
L 14.890625 25.203125 
Q 15.484375 15.921875 20.484375 11.0625 
Q 25.484375 6.203125 34.421875 6.203125 
Q 39.59375 6.203125 44.453125 7.46875 
Q 49.3125 8.734375 54.109375 11.28125 
L 54.109375 2.78125 
Q 49.265625 0.734375 44.1875 -0.34375 
Q 39.109375 -1.421875 33.890625 -1.421875 
Q 20.796875 -1.421875 13.15625 6.1875 
Q 5.515625 13.8125 5.515625 26.8125 
Q 5.515625 40.234375 12.765625 48.109375 
Q 20.015625 56 32.328125 56 
Q 43.359375 56 49.78125 48.890625 
Q 56.203125 41.796875 56.203125 29.59375 
z
M 47.21875 32.234375 
Q 47.125 39.59375 43.09375 43.984375 
Q 39.0625 48.390625 32.421875 48.390625 
Q 24.90625 48.390625 20.390625 44.140625 
Q 15.875 39.890625 15.1875 32.171875 
z
" id="DejaVuSans-101"/>
      <path d="M 41.109375 46.296875 
Q 39.59375 47.171875 37.8125 47.578125 
Q 36.03125 48 33.890625 48 
Q 26.265625 48 22.1875 43.046875 
Q 18.109375 38.09375 18.109375 28.8125 
L 18.109375 0 
L 9.078125 0 
L 9.078125 54.6875 
L 18.109375 54.6875 
L 18.109375 46.1875 
Q 20.953125 51.171875 25.484375 53.578125 
Q 30.03125 56 36.53125 56 
Q 37.453125 56 38.578125 55.875 
Q 39.703125 55.765625 41.0625 55.515625 
z
" id="DejaVuSans-114"/>
      <path d="M 9.421875 54.6875 
L 18.40625 54.6875 
L 18.40625 0 
L 9.421875 0 
z
M 9.421875 75.984375 
L 18.40625 75.984375 
L 18.40625 64.59375 
L 9.421875 64.59375 
z
" id="DejaVuSans-105"/>
      <path d="M 18.3125 70.21875 
L 18.3125 54.6875 
L 36.8125 54.6875 
L 36.8125 47.703125 
L 18.3125 47.703125 
L 18.3125 18.015625 
Q 18.3125 11.328125 20.140625 9.421875 
Q 21.96875 7.515625 27.59375 7.515625 
L 36.8125 7.515625 
L 36.8125 0 
L 27.59375 0 
Q 17.1875 0 13.234375 3.875 
Q 9.28125 7.765625 9.28125 18.015625 
L 9.28125 47.703125 
L 2.6875 47.703125 
L 2.6875 54.6875 
L 9.28125 54.6875 
L 9.28125 70.21875 
z
" id="DejaVuSans-116"/>
      <path d="M 18.109375 8.203125 
L 18.109375 -20.796875 
L 9.078125 -20.796875 
L 9.078125 54.6875 
L 18.109375 54.6875 
L 18.109375 46.390625 
Q 20.953125 51.265625 25.265625 53.625 
Q 29.59375 56 35.59375 56 
Q 45.5625 56 51.78125 48.09375 
Q 58.015625 40.1875 58.015625 27.296875 
Q 58.015625 14.40625 51.78125 6.484375 
Q 45.5625 -1.421875 35.59375 -1.421875 
Q 29.59375 -1.421875 25.265625 0.953125 
Q 20.953125 3.328125 18.109375 8.203125 
z
M 48.6875 27.296875 
Q 48.6875 37.203125 44.609375 42.84375 
Q 40.53125 48.484375 33.40625 48.484375 
Q 26.265625 48.484375 22.1875 42.84375 
Q 18.109375 37.203125 18.109375 27.296875 
Q 18.109375 17.390625 22.1875 11.75 
Q 26.265625 6.109375 33.40625 6.109375 
Q 40.53125 6.109375 44.609375 11.75 
Q 48.6875 17.390625 48.6875 27.296875 
z
" id="DejaVuSans-112"/>
      <path d="M 34.28125 27.484375 
Q 23.390625 27.484375 19.1875 25 
Q 14.984375 22.515625 14.984375 16.5 
Q 14.984375 11.71875 18.140625 8.90625 
Q 21.296875 6.109375 26.703125 6.109375 
Q 34.1875 6.109375 38.703125 11.40625 
Q 43.21875 16.703125 43.21875 25.484375 
L 43.21875 27.484375 
z
M 52.203125 31.203125 
L 52.203125 0 
L 43.21875 0 
L 43.21875 8.296875 
Q 40.140625 3.328125 35.546875 0.953125 
Q 30.953125 -1.421875 24.3125 -1.421875 
Q 15.921875 -1.421875 10.953125 3.296875 
Q 6 8.015625 6 15.921875 
Q 6 25.140625 12.171875 29.828125 
Q 18.359375 34.515625 30.609375 34.515625 
L 43.21875 34.515625 
L 43.21875 35.40625 
Q 43.21875 41.609375 39.140625 45 
Q 35.0625 48.390625 27.6875 48.390625 
Q 23 48.390625 18.546875 47.265625 
Q 14.109375 46.140625 10.015625 43.890625 
L 10.015625 52.203125 
Q 14.9375 54.109375 19.578125 55.046875 
Q 24.21875 56 28.609375 56 
Q 40.484375 56 46.34375 49.84375 
Q 52.203125 43.703125 52.203125 31.203125 
z
" id="DejaVuSans-97"/>
      <path d="M 9.078125 75.984375 
L 18.109375 75.984375 
L 18.109375 31.109375 
L 44.921875 54.6875 
L 56.390625 54.6875 
L 27.390625 29.109375 
L 57.625 0 
L 45.90625 0 
L 18.109375 26.703125 
L 18.109375 0 
L 9.078125 0 
z
" id="DejaVuSans-107"/>
      <path d="M 48.78125 52.59375 
L 48.78125 44.1875 
Q 44.96875 46.296875 41.140625 47.34375 
Q 37.3125 48.390625 33.40625 48.390625 
Q 24.65625 48.390625 19.8125 42.84375 
Q 14.984375 37.3125 14.984375 27.296875 
Q 14.984375 17.28125 19.8125 11.734375 
Q 24.65625 6.203125 33.40625 6.203125 
Q 37.3125 6.203125 41.140625 7.25 
Q 44.96875 8.296875 48.78125 10.40625 
L 48.78125 2.09375 
Q 45.015625 0.34375 40.984375 -0.53125 
Q 36.96875 -1.421875 32.421875 -1.421875 
Q 20.0625 -1.421875 12.78125 6.34375 
Q 5.515625 14.109375 5.515625 27.296875 
Q 5.515625 40.671875 12.859375 48.328125 
Q 20.21875 56 33.015625 56 
Q 37.15625 56 41.109375 55.140625 
Q 45.0625 54.296875 48.78125 52.59375 
z
" id="DejaVuSans-99"/>
     </defs>
     <g transform="translate(206.014687 335.860562)scale(0.1 -0.1)">
      <use xlink:href="#DejaVuSans-102"/>
      <use x="35.205078" xlink:href="#DejaVuSans-101"/>
      <use x="96.728516" xlink:href="#DejaVuSans-114"/>
      <use x="136.091797" xlink:href="#DejaVuSans-114"/>
      <use x="177.205078" xlink:href="#DejaVuSans-105"/>
      <use x="204.988281" xlink:href="#DejaVuSans-116"/>
      <use x="244.197266" xlink:href="#DejaVuSans-112"/>
      <use x="307.673828" xlink:href="#DejaVuSans-101"/>
      <use x="369.197266" xlink:href="#DejaVuSans-97"/>
      <use x="430.476562" xlink:href="#DejaVuSans-107"/>
      <use x="486.636719" xlink:href="#DejaVuSans-97"/>
      <use x="547.916016" xlink:href="#DejaVuSans-99"/>
     </g>
    </g>
   </g>
   <g id="matplotlib.axis_2">
    <g id="ytick_1">
     <g id="line2d_10">
      <defs>
       <path d="M 0 0 
L -3.5 0 
" id="md45c40ee6d" style="stroke:#000000;stroke-width:0.8;"/>
      </defs>
      <g>
       <use style="stroke:#000000;stroke-width:0.8;" x="57.6" xlink:href="#md45c40ee6d" y="174.528"/>
      </g>
     </g>
    </g>
   </g>
   <g id="line2d_11">
    <path clip-path="url(#pd84dd831be)" d="M 105.385833 174.528 
L 133.30716 174.528 
" style="fill:none;stroke:#ffa500;stroke-linecap:square;stroke-width:1.5;"/>
   </g>
   <g id="line2d_12">
    <path clip-path="url(#pd84dd831be)" d="M 107.842877 174.528 
L 120.227873 174.528 
" style="fill:none;stroke:#4c4c4c;stroke-linecap:square;stroke-width:4.5;"/>
   </g>
   <g id="line2d_13">
    <path clip-path="url(#pd84dd831be)" d="M 104.749746 174.528 
L 115.442666 174.528 
" style="fill:none;stroke:#008000;stroke-linecap:square;stroke-width:1.5;"/>
   </g>
   <g id="line2d_14">
    <path clip-path="url(#pd84dd831be)" d="M 105.863938 174.528 
L 110.723979 174.528 
" style="fill:none;stroke:#262626;stroke-linecap:square;stroke-width:4.5;"/>
   </g>
   <g id="patch_3">
    <path d="M 57.6 307.584 
L 57.6 41.472 
" style="fill:none;stroke:#000000;stroke-linecap:square;stroke-linejoin:miter;stroke-width:0.8;"/>
   </g>
   <g id="patch_4">
    <path d="M 414.72 307.584 
L 414.72 41.472 
" style="fill:none;stroke:#000000;stroke-linecap:square;stroke-linejoin:miter;stroke-width:0.8;"/>
   </g>
   <g id="patch_5">
    <path d="M 57.6 307.584 
L 414.72 307.584 
" style="fill:none;stroke:#000000;stroke-linecap:square;stroke-linejoin:miter;stroke-width:0.8;"/>
   </g>
   <g id="patch_6">
    <path d="M 57.6 41.472 
L 414.72 41.472 
" style="fill:none;stroke:#000000;stroke-linecap:square;stroke-linejoin:miter;stroke-width:0.8;"/>
   </g>
   <g id="PathCollection_1">
    <defs>
     <path d="M 0 1.5 
C 0.397805 1.5 0.77937 1.341951 1.06066 1.06066 
C 1.341951 0.77937 1.5 0.397805 1.5 0 
C 1.5 -0.397805 1.341951 -0.77937 1.06066 -1.06066 
C 0.77937 -1.341951 0.397805 -1.5 0 -1.5 
C -0.397805 -1.5 -0.77937 -1.341951 -1.06066 -1.06066 
C -1.341951 -0.77937 -1.5 -0.397805 -1.5 0 
C -1.5 0.397805 -1.341951 0.77937 -1.06066 1.06066 
C -0.77937 1.341951 -0.397805 1.5 0 1.5 
z
" id="m35e94dfc66" style="stroke:#4c4c4c;stroke-opacity:0.5;"/>
    </defs>
    <g clip-path="url(#pd84dd831be)">
     <use style="fill:#ffffff;fill-opacity:0.5;stroke:#4c4c4c;stroke-opacity:0.5;" x="111.301862" xlink:href="#m35e94dfc66" y="174.528"/>
    </g>
   </g>
   <g id="PathCollection_2">
    <defs>
     <path d="M 0 1.5 
C 0.397805 1.5 0.77937 1.341951 1.06066 1.06066 
C 1.341951 0.77937 1.5 0.397805 1.5 0 
C 1.5 -0.397805 1.341951 -0.77937 1.06066 -1.06066 
C 0.77937 -1.341951 0.397805 -1.5 0 -1.5 
C -0.397805 -1.5 -0.77937 -1.341951 -1.06066 -1.06066 
C -1.341951 -0.77937 -1.5 -0.397805 -1.5 0 
C -1.5 0.397805 -1.341951 0.77937 -1.06066 1.06066 
C -0.77937 1.341951 -0.397805 1.5 0 1.5 
z
" id="m0db158064b" style="stroke:#262626;stroke-opacity:0.5;"/>
    </defs>
    <g clip-path="url(#pd84dd831be)">
     <use style="fill:#ffffff;fill-opacity:0.5;stroke:#262626;stroke-opacity:0.5;" x="107.855349" xlink:href="#m0db158064b" y="174.528"/>
    </g>
   </g>
   <g id="text_11">
    <!-- Association of ferritpeakac vs. ards -->
    <defs>
     <path d="M 34.1875 63.1875 
L 20.796875 26.90625 
L 47.609375 26.90625 
z
M 28.609375 72.90625 
L 39.796875 72.90625 
L 67.578125 0 
L 57.328125 0 
L 50.6875 18.703125 
L 17.828125 18.703125 
L 11.1875 0 
L 0.78125 0 
z
" id="DejaVuSans-65"/>
     <path d="M 44.28125 53.078125 
L 44.28125 44.578125 
Q 40.484375 46.53125 36.375 47.5 
Q 32.28125 48.484375 27.875 48.484375 
Q 21.1875 48.484375 17.84375 46.4375 
Q 14.5 44.390625 14.5 40.28125 
Q 14.5 37.15625 16.890625 35.375 
Q 19.28125 33.59375 26.515625 31.984375 
L 29.59375 31.296875 
Q 39.15625 29.25 43.1875 25.515625 
Q 47.21875 21.78125 47.21875 15.09375 
Q 47.21875 7.46875 41.1875 3.015625 
Q 35.15625 -1.421875 24.609375 -1.421875 
Q 20.21875 -1.421875 15.453125 -0.5625 
Q 10.6875 0.296875 5.421875 2 
L 5.421875 11.28125 
Q 10.40625 8.6875 15.234375 7.390625 
Q 20.0625 6.109375 24.8125 6.109375 
Q 31.15625 6.109375 34.5625 8.28125 
Q 37.984375 10.453125 37.984375 14.40625 
Q 37.984375 18.0625 35.515625 20.015625 
Q 33.0625 21.96875 24.703125 23.78125 
L 21.578125 24.515625 
Q 13.234375 26.265625 9.515625 29.90625 
Q 5.8125 33.546875 5.8125 39.890625 
Q 5.8125 47.609375 11.28125 51.796875 
Q 16.75 56 26.8125 56 
Q 31.78125 56 36.171875 55.265625 
Q 40.578125 54.546875 44.28125 53.078125 
z
" id="DejaVuSans-115"/>
     <path d="M 30.609375 48.390625 
Q 23.390625 48.390625 19.1875 42.75 
Q 14.984375 37.109375 14.984375 27.296875 
Q 14.984375 17.484375 19.15625 11.84375 
Q 23.34375 6.203125 30.609375 6.203125 
Q 37.796875 6.203125 41.984375 11.859375 
Q 46.1875 17.53125 46.1875 27.296875 
Q 46.1875 37.015625 41.984375 42.703125 
Q 37.796875 48.390625 30.609375 48.390625 
z
M 30.609375 56 
Q 42.328125 56 49.015625 48.375 
Q 55.71875 40.765625 55.71875 27.296875 
Q 55.71875 13.875 49.015625 6.21875 
Q 42.328125 -1.421875 30.609375 -1.421875 
Q 18.84375 -1.421875 12.171875 6.21875 
Q 5.515625 13.875 5.515625 27.296875 
Q 5.515625 40.765625 12.171875 48.375 
Q 18.84375 56 30.609375 56 
z
" id="DejaVuSans-111"/>
     <path d="M 54.890625 33.015625 
L 54.890625 0 
L 45.90625 0 
L 45.90625 32.71875 
Q 45.90625 40.484375 42.875 44.328125 
Q 39.84375 48.1875 33.796875 48.1875 
Q 26.515625 48.1875 22.3125 43.546875 
Q 18.109375 38.921875 18.109375 30.90625 
L 18.109375 0 
L 9.078125 0 
L 9.078125 54.6875 
L 18.109375 54.6875 
L 18.109375 46.1875 
Q 21.34375 51.125 25.703125 53.5625 
Q 30.078125 56 35.796875 56 
Q 45.21875 56 50.046875 50.171875 
Q 54.890625 44.34375 54.890625 33.015625 
z
" id="DejaVuSans-110"/>
     <path id="DejaVuSans-32"/>
     <path d="M 2.984375 54.6875 
L 12.5 54.6875 
L 29.59375 8.796875 
L 46.6875 54.6875 
L 56.203125 54.6875 
L 35.6875 0 
L 23.484375 0 
z
" id="DejaVuSans-118"/>
     <path d="M 10.6875 12.40625 
L 21 12.40625 
L 21 0 
L 10.6875 0 
z
" id="DejaVuSans-46"/>
     <path d="M 45.40625 46.390625 
L 45.40625 75.984375 
L 54.390625 75.984375 
L 54.390625 0 
L 45.40625 0 
L 45.40625 8.203125 
Q 42.578125 3.328125 38.25 0.953125 
Q 33.9375 -1.421875 27.875 -1.421875 
Q 17.96875 -1.421875 11.734375 6.484375 
Q 5.515625 14.40625 5.515625 27.296875 
Q 5.515625 40.1875 11.734375 48.09375 
Q 17.96875 56 27.875 56 
Q 33.9375 56 38.25 53.625 
Q 42.578125 51.265625 45.40625 46.390625 
z
M 14.796875 27.296875 
Q 14.796875 17.390625 18.875 11.75 
Q 22.953125 6.109375 30.078125 6.109375 
Q 37.203125 6.109375 41.296875 11.75 
Q 45.40625 17.390625 45.40625 27.296875 
Q 45.40625 37.203125 41.296875 42.84375 
Q 37.203125 48.484375 30.078125 48.484375 
Q 22.953125 48.484375 18.875 42.84375 
Q 14.796875 37.203125 14.796875 27.296875 
z
" id="DejaVuSans-100"/>
    </defs>
    <g transform="translate(130.855312 35.472)scale(0.12 -0.12)">
     <use xlink:href="#DejaVuSans-65"/>
     <use x="68.408203" xlink:href="#DejaVuSans-115"/>
     <use x="120.507812" xlink:href="#DejaVuSans-115"/>
     <use x="172.607422" xlink:href="#DejaVuSans-111"/>
     <use x="233.789062" xlink:href="#DejaVuSans-99"/>
     <use x="288.769531" xlink:href="#DejaVuSans-105"/>
     <use x="316.552734" xlink:href="#DejaVuSans-97"/>
     <use x="377.832031" xlink:href="#DejaVuSans-116"/>
     <use x="417.041016" xlink:href="#DejaVuSans-105"/>
     <use x="444.824219" xlink:href="#DejaVuSans-111"/>
     <use x="506.005859" xlink:href="#DejaVuSans-110"/>
     <use x="569.384766" xlink:href="#DejaVuSans-32"/>
     <use x="601.171875" xlink:href="#DejaVuSans-111"/>
     <use x="662.353516" xlink:href="#DejaVuSans-102"/>
     <use x="697.558594" xlink:href="#DejaVuSans-32"/>
     <use x="729.345703" xlink:href="#DejaVuSans-102"/>
     <use x="764.550781" xlink:href="#DejaVuSans-101"/>
     <use x="826.074219" xlink:href="#DejaVuSans-114"/>
     <use x="865.4375" xlink:href="#DejaVuSans-114"/>
     <use x="906.550781" xlink:href="#DejaVuSans-105"/>
     <use x="934.333984" xlink:href="#DejaVuSans-116"/>
     <use x="973.542969" xlink:href="#DejaVuSans-112"/>
     <use x="1037.019531" xlink:href="#DejaVuSans-101"/>
     <use x="1098.542969" xlink:href="#DejaVuSans-97"/>
     <use x="1159.822266" xlink:href="#DejaVuSans-107"/>
     <use x="1215.982422" xlink:href="#DejaVuSans-97"/>
     <use x="1277.261719" xlink:href="#DejaVuSans-99"/>
     <use x="1332.242188" xlink:href="#DejaVuSans-32"/>
     <use x="1364.029297" xlink:href="#DejaVuSans-118"/>
     <use x="1423.208984" xlink:href="#DejaVuSans-115"/>
     <use x="1475.308594" xlink:href="#DejaVuSans-46"/>
     <use x="1507.095703" xlink:href="#DejaVuSans-32"/>
     <use x="1538.882812" xlink:href="#DejaVuSans-97"/>
     <use x="1600.162109" xlink:href="#DejaVuSans-114"/>
     <use x="1639.525391" xlink:href="#DejaVuSans-100"/>
     <use x="1703.001953" xlink:href="#DejaVuSans-115"/>
    </g>
   </g>
   <g id="legend_1">
    <g id="patch_7">
     <path d="M 309.693438 78.82825 
L 407.72 78.82825 
Q 409.72 78.82825 409.72 76.82825 
L 409.72 48.472 
Q 409.72 46.472 407.72 46.472 
L 309.693438 46.472 
Q 307.693438 46.472 307.693438 48.472 
L 307.693438 76.82825 
Q 307.693438 78.82825 309.693438 78.82825 
z
" style="fill:#ffffff;opacity:0.8;stroke:#cccccc;stroke-linejoin:miter;"/>
    </g>
    <g id="line2d_15">
     <path d="M 311.693438 54.570437 
L 331.693438 54.570437 
" style="fill:none;stroke:#ffa500;stroke-linecap:square;stroke-width:1.5;"/>
    </g>
    <g id="line2d_16"/>
    <g id="text_12">
     <!-- ards (61) -->
     <defs>
      <path d="M 31 75.875 
Q 24.46875 64.65625 21.28125 53.65625 
Q 18.109375 42.671875 18.109375 31.390625 
Q 18.109375 20.125 21.3125 9.0625 
Q 24.515625 -2 31 -13.1875 
L 23.1875 -13.1875 
Q 15.875 -1.703125 12.234375 9.375 
Q 8.59375 20.453125 8.59375 31.390625 
Q 8.59375 42.28125 12.203125 53.3125 
Q 15.828125 64.359375 23.1875 75.875 
z
" id="DejaVuSans-40"/>
      <path d="M 8.015625 75.875 
L 15.828125 75.875 
Q 23.140625 64.359375 26.78125 53.3125 
Q 30.421875 42.28125 30.421875 31.390625 
Q 30.421875 20.453125 26.78125 9.375 
Q 23.140625 -1.703125 15.828125 -13.1875 
L 8.015625 -13.1875 
Q 14.5 -2 17.703125 9.0625 
Q 20.90625 20.125 20.90625 31.390625 
Q 20.90625 42.671875 17.703125 53.65625 
Q 14.5 64.65625 8.015625 75.875 
z
" id="DejaVuSans-41"/>
     </defs>
     <g transform="translate(339.693438 58.070437)scale(0.1 -0.1)">
      <use xlink:href="#DejaVuSans-97"/>
      <use x="61.279297" xlink:href="#DejaVuSans-114"/>
      <use x="100.642578" xlink:href="#DejaVuSans-100"/>
      <use x="164.119141" xlink:href="#DejaVuSans-115"/>
      <use x="216.21875" xlink:href="#DejaVuSans-32"/>
      <use x="248.005859" xlink:href="#DejaVuSans-40"/>
      <use x="287.019531" xlink:href="#DejaVuSans-54"/>
      <use x="350.642578" xlink:href="#DejaVuSans-49"/>
      <use x="414.265625" xlink:href="#DejaVuSans-41"/>
     </g>
    </g>
    <g id="line2d_17">
     <path d="M 311.693438 69.248562 
L 331.693438 69.248562 
" style="fill:none;stroke:#008000;stroke-linecap:square;stroke-width:1.5;"/>
    </g>
    <g id="line2d_18"/>
    <g id="text_13">
     <!-- Not ards (77) -->
     <defs>
      <path d="M 9.8125 72.90625 
L 23.09375 72.90625 
L 55.421875 11.921875 
L 55.421875 72.90625 
L 64.984375 72.90625 
L 64.984375 0 
L 51.703125 0 
L 19.390625 60.984375 
L 19.390625 0 
L 9.8125 0 
z
" id="DejaVuSans-78"/>
     </defs>
     <g transform="translate(339.693438 72.748562)scale(0.1 -0.1)">
      <use xlink:href="#DejaVuSans-78"/>
      <use x="74.804688" xlink:href="#DejaVuSans-111"/>
      <use x="135.986328" xlink:href="#DejaVuSans-116"/>
      <use x="175.195312" xlink:href="#DejaVuSans-32"/>
      <use x="206.982422" xlink:href="#DejaVuSans-97"/>
      <use x="268.261719" xlink:href="#DejaVuSans-114"/>
      <use x="307.625" xlink:href="#DejaVuSans-100"/>
      <use x="371.101562" xlink:href="#DejaVuSans-115"/>
      <use x="423.201172" xlink:href="#DejaVuSans-32"/>
      <use x="454.988281" xlink:href="#DejaVuSans-40"/>
      <use x="494.001953" xlink:href="#DejaVuSans-55"/>
      <use x="557.625" xlink:href="#DejaVuSans-55"/>
      <use x="621.248047" xlink:href="#DejaVuSans-41"/>
     </g>
    </g>
   </g>
  </g>
 </g>
 <defs>
  <clipPath id="pd84dd831be">
   <rect height="266.112" width="357.12" x="57.6" y="41.472"/>
  </clipPath>
 </defs>
</svg>
