<?xml version="1.0" encoding="utf-8" standalone="no"?>
<!DOCTYPE svg PUBLIC "-//W3C//DTD SVG 1.1//EN"
  "http://www.w3.org/Graphics/SVG/1.1/DTD/svg11.dtd">
<!-- Created with matplotlib (https://matplotlib.org/) -->
<svg height="345.6pt" version="1.1" viewBox="0 0 460.8 345.6" width="460.8pt" xmlns="http://www.w3.org/2000/svg" xmlns:xlink="http://www.w3.org/1999/xlink">
 <defs>
  <style type="text/css">
*{stroke-linecap:butt;stroke-linejoin:round;}
  </style>
 </defs>
 <g id="figure_1">
  <g id="patch_1">
   <path d="M 0 345.6 
L 460.8 345.6 
L 460.8 0 
L 0 0 
z
" style="fill:#ffffff;"/>
  </g>
  <g id="axes_1">
   <g id="patch_2">
    <path d="M 57.6 307.584 
L 414.72 307.584 
L 414.72 41.472 
L 57.6 41.472 
z
" style="fill:#ffffff;"/>
   </g>
   <g id="PolyCollection_1">
    <defs>
     <path d="M 86.348963 -161.688093 
L 86.348963 -180.455907 
L 86.488158 -182.254166 
L 86.627353 -184.30364 
L 86.766548 -186.619799 
L 86.905743 -189.215269 
L 87.044938 -192.099102 
L 87.184133 -195.27608 
L 87.323328 -198.746084 
L 87.462523 -202.503568 
L 87.601718 -206.537165 
L 87.740913 -210.829458 
L 87.880108 -215.356935 
L 88.019303 -220.090153 
L 88.158498 -224.994098 
L 88.297693 -230.028748 
L 88.436888 -235.14982 
L 88.576083 -240.309673 
L 88.715278 -245.458334 
L 88.854473 -250.544602 
L 88.993668 -255.517183 
L 89.132863 -260.325825 
L 89.272058 -264.922381 
L 89.411253 -269.261793 
L 89.550448 -273.302937 
L 89.689643 -277.009318 
L 89.828838 -280.349609 
L 89.968033 -283.298009 
L 90.107228 -285.834451 
L 90.246423 -287.944644 
L 90.385618 -289.619998 
L 90.524813 -290.85743 
L 90.664008 -291.659086 
L 90.803203 -292.032 
L 90.942398 -291.98771 
L 91.081593 -291.541849 
L 91.220788 -290.71372 
L 91.359983 -289.525875 
L 91.499178 -288.003684 
L 91.638373 -286.174922 
L 91.777568 -284.069351 
L 91.916763 -281.718311 
L 92.055958 -279.154316 
L 92.195153 -276.410654 
L 92.334348 -273.520994 
L 92.473543 -270.519002 
L 92.612738 -267.437967 
L 92.751933 -264.31044 
L 92.891128 -261.167894 
L 93.030323 -258.0404 
L 93.169518 -254.956323 
L 93.308713 -251.942037 
L 93.447908 -249.021667 
L 93.587103 -246.216834 
L 93.726298 -243.546432 
L 93.865493 -241.026412 
L 94.004688 -238.669581 
L 94.143883 -236.485423 
L 94.283078 -234.479941 
L 94.422273 -232.655531 
L 94.561468 -231.010894 
L 94.700663 -229.540997 
L 94.839858 -228.237107 
L 94.979053 -227.086891 
L 95.118248 -226.074607 
L 95.257443 -225.181396 
L 95.396638 -224.385673 
L 95.535833 -223.663611 
L 95.675028 -222.989739 
L 95.814223 -222.337608 
L 95.953418 -221.680533 
L 96.092613 -220.992371 
L 96.231808 -220.248324 
L 96.371003 -219.425714 
L 96.510198 -218.504716 
L 96.649393 -217.469 
L 96.788588 -216.306272 
L 96.927783 -215.008661 
L 97.066978 -213.572955 
L 97.206173 -212.000662 
L 97.345368 -210.297895 
L 97.484563 -208.475089 
L 97.623758 -206.546554 
L 97.762953 -204.5299 
L 97.902148 -202.445351 
L 98.041343 -200.314985 
L 98.180538 -198.161941 
L 98.319733 -196.009616 
L 98.458928 -193.880906 
L 98.598123 -191.797505 
L 98.737318 -189.7793 
L 98.876513 -187.843876 
L 99.015708 -186.006145 
L 99.154903 -184.278112 
L 99.294098 -182.668759 
L 99.433293 -181.184059 
L 99.572488 -179.827097 
L 99.711683 -178.598276 
L 99.850878 -177.495605 
L 99.990073 -176.51503 
L 100.129268 -175.650793 
L 100.129268 -166.493207 
L 100.129268 -166.493207 
L 99.990073 -165.62897 
L 99.850878 -164.648395 
L 99.711683 -163.545724 
L 99.572488 -162.316903 
L 99.433293 -160.959941 
L 99.294098 -159.475241 
L 99.154903 -157.865888 
L 99.015708 -156.137855 
L 98.876513 -154.300124 
L 98.737318 -152.3647 
L 98.598123 -150.346495 
L 98.458928 -148.263094 
L 98.319733 -146.134384 
L 98.180538 -143.982059 
L 98.041343 -141.829015 
L 97.902148 -139.698649 
L 97.762953 -137.6141 
L 97.623758 -135.597446 
L 97.484563 -133.668911 
L 97.345368 -131.846105 
L 97.206173 -130.143338 
L 97.066978 -128.571045 
L 96.927783 -127.135339 
L 96.788588 -125.837728 
L 96.649393 -124.675 
L 96.510198 -123.639284 
L 96.371003 -122.718286 
L 96.231808 -121.895676 
L 96.092613 -121.151629 
L 95.953418 -120.463467 
L 95.814223 -119.806392 
L 95.675028 -119.154261 
L 95.535833 -118.480389 
L 95.396638 -117.758327 
L 95.257443 -116.962604 
L 95.118248 -116.069393 
L 94.979053 -115.057109 
L 94.839858 -113.906893 
L 94.700663 -112.603003 
L 94.561468 -111.133106 
L 94.422273 -109.488469 
L 94.283078 -107.664059 
L 94.143883 -105.658577 
L 94.004688 -103.474419 
L 93.865493 -101.117588 
L 93.726298 -98.597568 
L 93.587103 -95.927166 
L 93.447908 -93.122333 
L 93.308713 -90.201963 
L 93.169518 -87.187677 
L 93.030323 -84.1036 
L 92.891128 -80.976106 
L 92.751933 -77.83356 
L 92.612738 -74.706033 
L 92.473543 -71.624998 
L 92.334348 -68.623006 
L 92.195153 -65.733346 
L 92.055958 -62.989684 
L 91.916763 -60.425689 
L 91.777568 -58.074649 
L 91.638373 -55.969078 
L 91.499178 -54.140316 
L 91.359983 -52.618125 
L 91.220788 -51.43028 
L 91.081593 -50.602151 
L 90.942398 -50.15629 
L 90.803203 -50.112 
L 90.664008 -50.484914 
L 90.524813 -51.28657 
L 90.385618 -52.524002 
L 90.246423 -54.199356 
L 90.107228 -56.309549 
L 89.968033 -58.845991 
L 89.828838 -61.794391 
L 89.689643 -65.134682 
L 89.550448 -68.841063 
L 89.411253 -72.882207 
L 89.272058 -77.221619 
L 89.132863 -81.818175 
L 88.993668 -86.626817 
L 88.854473 -91.599398 
L 88.715278 -96.685666 
L 88.576083 -101.834327 
L 88.436888 -106.99418 
L 88.297693 -112.115252 
L 88.158498 -117.149902 
L 88.019303 -122.053847 
L 87.880108 -126.787065 
L 87.740913 -131.314542 
L 87.601718 -135.606835 
L 87.462523 -139.640432 
L 87.323328 -143.397916 
L 87.184133 -146.86792 
L 87.044938 -150.044898 
L 86.905743 -152.928731 
L 86.766548 -155.524201 
L 86.627353 -157.84036 
L 86.488158 -159.889834 
L 86.348963 -161.688093 
z
" id="m796d13b6f1" style="stroke:#4c4c4c;stroke-opacity:0.5;stroke-width:1.5;"/>
    </defs>
    <g clip-path="url(#pe7885eda04)">
     <use style="fill:#df9c20;fill-opacity:0.5;stroke:#4c4c4c;stroke-opacity:0.5;stroke-width:1.5;" x="0" xlink:href="#m796d13b6f1" y="345.6"/>
    </g>
   </g>
   <g id="PolyCollection_2">
    <defs>
     <path d="M 73.832727 -163.981735 
L 73.832727 -178.162265 
L 77.112066 -190.112205 
L 80.391405 -212.418862 
L 83.670744 -243.803977 
L 86.950083 -274.966205 
L 90.229421 -292.032 
L 93.50876 -286.528294 
L 96.788099 -262.324496 
L 100.067438 -231.887714 
L 103.346777 -206.448206 
L 106.626116 -190.196676 
L 109.905455 -181.613991 
L 113.184793 -177.500145 
L 116.464132 -175.457924 
L 119.743471 -174.296902 
L 123.02281 -173.569546 
L 126.302149 -173.097632 
L 129.581488 -172.737831 
L 132.860826 -172.37046 
L 136.140165 -171.968697 
L 139.419504 -171.596947 
L 142.698843 -171.329073 
L 145.978182 -171.186751 
L 149.257521 -171.148231 
L 152.53686 -171.183993 
L 155.816198 -171.267284 
L 159.095537 -171.360908 
L 162.374876 -171.416164 
L 165.654215 -171.400133 
L 168.933554 -171.322217 
L 172.212893 -171.224593 
L 175.492231 -171.146422 
L 178.77157 -171.101028 
L 182.050909 -171.081055 
L 185.330248 -171.074259 
L 188.609587 -171.072451 
L 191.888926 -171.072072 
L 195.168264 -171.072009 
L 198.447603 -171.072001 
L 201.726942 -171.072003 
L 205.006281 -171.072026 
L 208.28562 -171.072183 
L 211.564959 -171.073028 
L 214.844298 -171.076615 
L 218.123636 -171.088564 
L 221.402975 -171.119547 
L 224.682314 -171.18115 
L 227.961653 -171.272386 
L 231.240992 -171.366212 
L 234.520331 -171.41746 
L 237.799669 -171.3964 
L 241.079008 -171.315619 
L 244.358347 -171.218314 
L 247.637686 -171.142276 
L 250.917025 -171.098995 
L 254.196364 -171.080293 
L 257.475702 -171.074037 
L 260.755041 -171.0724 
L 264.03438 -171.072063 
L 267.313719 -171.072008 
L 270.593058 -171.072001 
L 273.872397 -171.072 
L 277.151736 -171.072 
L 280.431074 -171.072 
L 283.710413 -171.072 
L 286.989752 -171.072 
L 290.269091 -171.072 
L 293.54843 -171.072 
L 296.827769 -171.072 
L 300.107107 -171.072 
L 303.386446 -171.072 
L 306.665785 -171.072 
L 309.945124 -171.072 
L 313.224463 -171.072 
L 316.503802 -171.072 
L 319.78314 -171.072 
L 323.062479 -171.072 
L 326.341818 -171.072 
L 329.621157 -171.072 
L 332.900496 -171.072 
L 336.179835 -171.072 
L 339.459174 -171.072 
L 342.738512 -171.072 
L 346.017851 -171.072 
L 349.29719 -171.072002 
L 352.576529 -171.072016 
L 355.855868 -171.072129 
L 359.135207 -171.072818 
L 362.414545 -171.076152 
L 365.693884 -171.088854 
L 368.973223 -171.126712 
L 372.252562 -171.214039 
L 375.531901 -171.3669 
L 378.81124 -171.561654 
L 382.090579 -171.722204 
L 385.369917 -171.762487 
L 388.649256 -171.658419 
L 391.928595 -171.470296 
L 395.207934 -171.288347 
L 398.487273 -171.165981 
L 398.487273 -170.978019 
L 398.487273 -170.978019 
L 395.207934 -170.855653 
L 391.928595 -170.673704 
L 388.649256 -170.485581 
L 385.369917 -170.381513 
L 382.090579 -170.421796 
L 378.81124 -170.582346 
L 375.531901 -170.7771 
L 372.252562 -170.929961 
L 368.973223 -171.017288 
L 365.693884 -171.055146 
L 362.414545 -171.067848 
L 359.135207 -171.071182 
L 355.855868 -171.071871 
L 352.576529 -171.071984 
L 349.29719 -171.071998 
L 346.017851 -171.072 
L 342.738512 -171.072 
L 339.459174 -171.072 
L 336.179835 -171.072 
L 332.900496 -171.072 
L 329.621157 -171.072 
L 326.341818 -171.072 
L 323.062479 -171.072 
L 319.78314 -171.072 
L 316.503802 -171.072 
L 313.224463 -171.072 
L 309.945124 -171.072 
L 306.665785 -171.072 
L 303.386446 -171.072 
L 300.107107 -171.072 
L 296.827769 -171.072 
L 293.54843 -171.072 
L 290.269091 -171.072 
L 286.989752 -171.072 
L 283.710413 -171.072 
L 280.431074 -171.072 
L 277.151736 -171.072 
L 273.872397 -171.072 
L 270.593058 -171.071999 
L 267.313719 -171.071992 
L 264.03438 -171.071937 
L 260.755041 -171.0716 
L 257.475702 -171.069963 
L 254.196364 -171.063707 
L 250.917025 -171.045005 
L 247.637686 -171.001724 
L 244.358347 -170.925686 
L 241.079008 -170.828381 
L 237.799669 -170.7476 
L 234.520331 -170.72654 
L 231.240992 -170.777788 
L 227.961653 -170.871614 
L 224.682314 -170.96285 
L 221.402975 -171.024453 
L 218.123636 -171.055436 
L 214.844298 -171.067385 
L 211.564959 -171.070972 
L 208.28562 -171.071817 
L 205.006281 -171.071974 
L 201.726942 -171.071997 
L 198.447603 -171.071999 
L 195.168264 -171.071991 
L 191.888926 -171.071928 
L 188.609587 -171.071549 
L 185.330248 -171.069741 
L 182.050909 -171.062945 
L 178.77157 -171.042972 
L 175.492231 -170.997578 
L 172.212893 -170.919407 
L 168.933554 -170.821783 
L 165.654215 -170.743867 
L 162.374876 -170.727836 
L 159.095537 -170.783092 
L 155.816198 -170.876716 
L 152.53686 -170.960007 
L 149.257521 -170.995769 
L 145.978182 -170.957249 
L 142.698843 -170.814927 
L 139.419504 -170.547053 
L 136.140165 -170.175303 
L 132.860826 -169.77354 
L 129.581488 -169.406169 
L 126.302149 -169.046368 
L 123.02281 -168.574454 
L 119.743471 -167.847098 
L 116.464132 -166.686076 
L 113.184793 -164.643855 
L 109.905455 -160.530009 
L 106.626116 -151.947324 
L 103.346777 -135.695794 
L 100.067438 -110.256286 
L 96.788099 -79.819504 
L 93.50876 -55.615706 
L 90.229421 -50.112 
L 86.950083 -67.177795 
L 83.670744 -98.340023 
L 80.391405 -129.725138 
L 77.112066 -152.031795 
L 73.832727 -163.981735 
z
" id="mafe3b21cb7" style="stroke:#262626;stroke-opacity:0.5;stroke-width:1.5;"/>
    </defs>
    <g clip-path="url(#pe7885eda04)">
     <use style="fill:#107010;fill-opacity:0.5;stroke:#262626;stroke-opacity:0.5;stroke-width:1.5;" x="0" xlink:href="#mafe3b21cb7" y="345.6"/>
    </g>
   </g>
   <g id="matplotlib.axis_1">
    <g id="xtick_1">
     <g id="line2d_1">
      <defs>
       <path d="M 0 0 
L 0 3.5 
" id="m8f259271a2" style="stroke:#000000;stroke-width:0.8;"/>
      </defs>
      <g>
       <use style="stroke:#000000;stroke-width:0.8;" x="71.109573" xlink:href="#m8f259271a2" y="307.584"/>
      </g>
     </g>
     <g id="text_1">
      <!-- 0.0 -->
      <defs>
       <path d="M 31.78125 66.40625 
Q 24.171875 66.40625 20.328125 58.90625 
Q 16.5 51.421875 16.5 36.375 
Q 16.5 21.390625 20.328125 13.890625 
Q 24.171875 6.390625 31.78125 6.390625 
Q 39.453125 6.390625 43.28125 13.890625 
Q 47.125 21.390625 47.125 36.375 
Q 47.125 51.421875 43.28125 58.90625 
Q 39.453125 66.40625 31.78125 66.40625 
z
M 31.78125 74.21875 
Q 44.046875 74.21875 50.515625 64.515625 
Q 56.984375 54.828125 56.984375 36.375 
Q 56.984375 17.96875 50.515625 8.265625 
Q 44.046875 -1.421875 31.78125 -1.421875 
Q 19.53125 -1.421875 13.0625 8.265625 
Q 6.59375 17.96875 6.59375 36.375 
Q 6.59375 54.828125 13.0625 64.515625 
Q 19.53125 74.21875 31.78125 74.21875 
z
" id="DejaVuSans-48"/>
       <path d="M 10.6875 12.40625 
L 21 12.40625 
L 21 0 
L 10.6875 0 
z
" id="DejaVuSans-46"/>
      </defs>
      <g transform="translate(63.158011 322.182437)scale(0.1 -0.1)">
       <use xlink:href="#DejaVuSans-48"/>
       <use x="63.623047" xlink:href="#DejaVuSans-46"/>
       <use x="95.410156" xlink:href="#DejaVuSans-48"/>
      </g>
     </g>
    </g>
    <g id="xtick_2">
     <g id="line2d_2">
      <g>
       <use style="stroke:#000000;stroke-width:0.8;" x="117.212787" xlink:href="#m8f259271a2" y="307.584"/>
      </g>
     </g>
     <g id="text_2">
      <!-- 2.5 -->
      <defs>
       <path d="M 19.1875 8.296875 
L 53.609375 8.296875 
L 53.609375 0 
L 7.328125 0 
L 7.328125 8.296875 
Q 12.9375 14.109375 22.625 23.890625 
Q 32.328125 33.6875 34.8125 36.53125 
Q 39.546875 41.84375 41.421875 45.53125 
Q 43.3125 49.21875 43.3125 52.78125 
Q 43.3125 58.59375 39.234375 62.25 
Q 35.15625 65.921875 28.609375 65.921875 
Q 23.96875 65.921875 18.8125 64.3125 
Q 13.671875 62.703125 7.8125 59.421875 
L 7.8125 69.390625 
Q 13.765625 71.78125 18.9375 73 
Q 24.125 74.21875 28.421875 74.21875 
Q 39.75 74.21875 46.484375 68.546875 
Q 53.21875 62.890625 53.21875 53.421875 
Q 53.21875 48.921875 51.53125 44.890625 
Q 49.859375 40.875 45.40625 35.40625 
Q 44.1875 33.984375 37.640625 27.21875 
Q 31.109375 20.453125 19.1875 8.296875 
z
" id="DejaVuSans-50"/>
       <path d="M 10.796875 72.90625 
L 49.515625 72.90625 
L 49.515625 64.59375 
L 19.828125 64.59375 
L 19.828125 46.734375 
Q 21.96875 47.46875 24.109375 47.828125 
Q 26.265625 48.1875 28.421875 48.1875 
Q 40.625 48.1875 47.75 41.5 
Q 54.890625 34.8125 54.890625 23.390625 
Q 54.890625 11.625 47.5625 5.09375 
Q 40.234375 -1.421875 26.90625 -1.421875 
Q 22.3125 -1.421875 17.546875 -0.640625 
Q 12.796875 0.140625 7.71875 1.703125 
L 7.71875 11.625 
Q 12.109375 9.234375 16.796875 8.0625 
Q 21.484375 6.890625 26.703125 6.890625 
Q 35.15625 6.890625 40.078125 11.328125 
Q 45.015625 15.765625 45.015625 23.390625 
Q 45.015625 31 40.078125 35.4375 
Q 35.15625 39.890625 26.703125 39.890625 
Q 22.75 39.890625 18.8125 39.015625 
Q 14.890625 38.140625 10.796875 36.28125 
z
" id="DejaVuSans-53"/>
      </defs>
      <g transform="translate(109.261224 322.182437)scale(0.1 -0.1)">
       <use xlink:href="#DejaVuSans-50"/>
       <use x="63.623047" xlink:href="#DejaVuSans-46"/>
       <use x="95.410156" xlink:href="#DejaVuSans-53"/>
      </g>
     </g>
    </g>
    <g id="xtick_3">
     <g id="line2d_3">
      <g>
       <use style="stroke:#000000;stroke-width:0.8;" x="163.316" xlink:href="#m8f259271a2" y="307.584"/>
      </g>
     </g>
     <g id="text_3">
      <!-- 5.0 -->
      <g transform="translate(155.364438 322.182437)scale(0.1 -0.1)">
       <use xlink:href="#DejaVuSans-53"/>
       <use x="63.623047" xlink:href="#DejaVuSans-46"/>
       <use x="95.410156" xlink:href="#DejaVuSans-48"/>
      </g>
     </g>
    </g>
    <g id="xtick_4">
     <g id="line2d_4">
      <g>
       <use style="stroke:#000000;stroke-width:0.8;" x="209.419214" xlink:href="#m8f259271a2" y="307.584"/>
      </g>
     </g>
     <g id="text_4">
      <!-- 7.5 -->
      <defs>
       <path d="M 8.203125 72.90625 
L 55.078125 72.90625 
L 55.078125 68.703125 
L 28.609375 0 
L 18.3125 0 
L 43.21875 64.59375 
L 8.203125 64.59375 
z
" id="DejaVuSans-55"/>
      </defs>
      <g transform="translate(201.467652 322.182437)scale(0.1 -0.1)">
       <use xlink:href="#DejaVuSans-55"/>
       <use x="63.623047" xlink:href="#DejaVuSans-46"/>
       <use x="95.410156" xlink:href="#DejaVuSans-53"/>
      </g>
     </g>
    </g>
    <g id="xtick_5">
     <g id="line2d_5">
      <g>
       <use style="stroke:#000000;stroke-width:0.8;" x="255.522428" xlink:href="#m8f259271a2" y="307.584"/>
      </g>
     </g>
     <g id="text_5">
      <!-- 10.0 -->
      <defs>
       <path d="M 12.40625 8.296875 
L 28.515625 8.296875 
L 28.515625 63.921875 
L 10.984375 60.40625 
L 10.984375 69.390625 
L 28.421875 72.90625 
L 38.28125 72.90625 
L 38.28125 8.296875 
L 54.390625 8.296875 
L 54.390625 0 
L 12.40625 0 
z
" id="DejaVuSans-49"/>
      </defs>
      <g transform="translate(244.389615 322.182437)scale(0.1 -0.1)">
       <use xlink:href="#DejaVuSans-49"/>
       <use x="63.623047" xlink:href="#DejaVuSans-48"/>
       <use x="127.246094" xlink:href="#DejaVuSans-46"/>
       <use x="159.033203" xlink:href="#DejaVuSans-48"/>
      </g>
     </g>
    </g>
    <g id="xtick_6">
     <g id="line2d_6">
      <g>
       <use style="stroke:#000000;stroke-width:0.8;" x="301.625641" xlink:href="#m8f259271a2" y="307.584"/>
      </g>
     </g>
     <g id="text_6">
      <!-- 12.5 -->
      <g transform="translate(290.492829 322.182437)scale(0.1 -0.1)">
       <use xlink:href="#DejaVuSans-49"/>
       <use x="63.623047" xlink:href="#DejaVuSans-50"/>
       <use x="127.246094" xlink:href="#DejaVuSans-46"/>
       <use x="159.033203" xlink:href="#DejaVuSans-53"/>
      </g>
     </g>
    </g>
    <g id="xtick_7">
     <g id="line2d_7">
      <g>
       <use style="stroke:#000000;stroke-width:0.8;" x="347.728855" xlink:href="#m8f259271a2" y="307.584"/>
      </g>
     </g>
     <g id="text_7">
      <!-- 15.0 -->
      <g transform="translate(336.596042 322.182437)scale(0.1 -0.1)">
       <use xlink:href="#DejaVuSans-49"/>
       <use x="63.623047" xlink:href="#DejaVuSans-53"/>
       <use x="127.246094" xlink:href="#DejaVuSans-46"/>
       <use x="159.033203" xlink:href="#DejaVuSans-48"/>
      </g>
     </g>
    </g>
    <g id="xtick_8">
     <g id="line2d_8">
      <g>
       <use style="stroke:#000000;stroke-width:0.8;" x="393.832068" xlink:href="#m8f259271a2" y="307.584"/>
      </g>
     </g>
     <g id="text_8">
      <!-- 17.5 -->
      <g transform="translate(382.699256 322.182437)scale(0.1 -0.1)">
       <use xlink:href="#DejaVuSans-49"/>
       <use x="63.623047" xlink:href="#DejaVuSans-55"/>
       <use x="127.246094" xlink:href="#DejaVuSans-46"/>
       <use x="159.033203" xlink:href="#DejaVuSans-53"/>
      </g>
     </g>
    </g>
    <g id="text_9">
     <!-- inradmac -->
     <defs>
      <path d="M 9.421875 54.6875 
L 18.40625 54.6875 
L 18.40625 0 
L 9.421875 0 
z
M 9.421875 75.984375 
L 18.40625 75.984375 
L 18.40625 64.59375 
L 9.421875 64.59375 
z
" id="DejaVuSans-105"/>
      <path d="M 54.890625 33.015625 
L 54.890625 0 
L 45.90625 0 
L 45.90625 32.71875 
Q 45.90625 40.484375 42.875 44.328125 
Q 39.84375 48.1875 33.796875 48.1875 
Q 26.515625 48.1875 22.3125 43.546875 
Q 18.109375 38.921875 18.109375 30.90625 
L 18.109375 0 
L 9.078125 0 
L 9.078125 54.6875 
L 18.109375 54.6875 
L 18.109375 46.1875 
Q 21.34375 51.125 25.703125 53.5625 
Q 30.078125 56 35.796875 56 
Q 45.21875 56 50.046875 50.171875 
Q 54.890625 44.34375 54.890625 33.015625 
z
" id="DejaVuSans-110"/>
      <path d="M 41.109375 46.296875 
Q 39.59375 47.171875 37.8125 47.578125 
Q 36.03125 48 33.890625 48 
Q 26.265625 48 22.1875 43.046875 
Q 18.109375 38.09375 18.109375 28.8125 
L 18.109375 0 
L 9.078125 0 
L 9.078125 54.6875 
L 18.109375 54.6875 
L 18.109375 46.1875 
Q 20.953125 51.171875 25.484375 53.578125 
Q 30.03125 56 36.53125 56 
Q 37.453125 56 38.578125 55.875 
Q 39.703125 55.765625 41.0625 55.515625 
z
" id="DejaVuSans-114"/>
      <path d="M 34.28125 27.484375 
Q 23.390625 27.484375 19.1875 25 
Q 14.984375 22.515625 14.984375 16.5 
Q 14.984375 11.71875 18.140625 8.90625 
Q 21.296875 6.109375 26.703125 6.109375 
Q 34.1875 6.109375 38.703125 11.40625 
Q 43.21875 16.703125 43.21875 25.484375 
L 43.21875 27.484375 
z
M 52.203125 31.203125 
L 52.203125 0 
L 43.21875 0 
L 43.21875 8.296875 
Q 40.140625 3.328125 35.546875 0.953125 
Q 30.953125 -1.421875 24.3125 -1.421875 
Q 15.921875 -1.421875 10.953125 3.296875 
Q 6 8.015625 6 15.921875 
Q 6 25.140625 12.171875 29.828125 
Q 18.359375 34.515625 30.609375 34.515625 
L 43.21875 34.515625 
L 43.21875 35.40625 
Q 43.21875 41.609375 39.140625 45 
Q 35.0625 48.390625 27.6875 48.390625 
Q 23 48.390625 18.546875 47.265625 
Q 14.109375 46.140625 10.015625 43.890625 
L 10.015625 52.203125 
Q 14.9375 54.109375 19.578125 55.046875 
Q 24.21875 56 28.609375 56 
Q 40.484375 56 46.34375 49.84375 
Q 52.203125 43.703125 52.203125 31.203125 
z
" id="DejaVuSans-97"/>
      <path d="M 45.40625 46.390625 
L 45.40625 75.984375 
L 54.390625 75.984375 
L 54.390625 0 
L 45.40625 0 
L 45.40625 8.203125 
Q 42.578125 3.328125 38.25 0.953125 
Q 33.9375 -1.421875 27.875 -1.421875 
Q 17.96875 -1.421875 11.734375 6.484375 
Q 5.515625 14.40625 5.515625 27.296875 
Q 5.515625 40.1875 11.734375 48.09375 
Q 17.96875 56 27.875 56 
Q 33.9375 56 38.25 53.625 
Q 42.578125 51.265625 45.40625 46.390625 
z
M 14.796875 27.296875 
Q 14.796875 17.390625 18.875 11.75 
Q 22.953125 6.109375 30.078125 6.109375 
Q 37.203125 6.109375 41.296875 11.75 
Q 45.40625 17.390625 45.40625 27.296875 
Q 45.40625 37.203125 41.296875 42.84375 
Q 37.203125 48.484375 30.078125 48.484375 
Q 22.953125 48.484375 18.875 42.84375 
Q 14.796875 37.203125 14.796875 27.296875 
z
" id="DejaVuSans-100"/>
      <path d="M 52 44.1875 
Q 55.375 50.25 60.0625 53.125 
Q 64.75 56 71.09375 56 
Q 79.640625 56 84.28125 50.015625 
Q 88.921875 44.046875 88.921875 33.015625 
L 88.921875 0 
L 79.890625 0 
L 79.890625 32.71875 
Q 79.890625 40.578125 77.09375 44.375 
Q 74.3125 48.1875 68.609375 48.1875 
Q 61.625 48.1875 57.5625 43.546875 
Q 53.515625 38.921875 53.515625 30.90625 
L 53.515625 0 
L 44.484375 0 
L 44.484375 32.71875 
Q 44.484375 40.625 41.703125 44.40625 
Q 38.921875 48.1875 33.109375 48.1875 
Q 26.21875 48.1875 22.15625 43.53125 
Q 18.109375 38.875 18.109375 30.90625 
L 18.109375 0 
L 9.078125 0 
L 9.078125 54.6875 
L 18.109375 54.6875 
L 18.109375 46.1875 
Q 21.1875 51.21875 25.484375 53.609375 
Q 29.78125 56 35.6875 56 
Q 41.65625 56 45.828125 52.96875 
Q 50 49.953125 52 44.1875 
z
" id="DejaVuSans-109"/>
      <path d="M 48.78125 52.59375 
L 48.78125 44.1875 
Q 44.96875 46.296875 41.140625 47.34375 
Q 37.3125 48.390625 33.40625 48.390625 
Q 24.65625 48.390625 19.8125 42.84375 
Q 14.984375 37.3125 14.984375 27.296875 
Q 14.984375 17.28125 19.8125 11.734375 
Q 24.65625 6.203125 33.40625 6.203125 
Q 37.3125 6.203125 41.140625 7.25 
Q 44.96875 8.296875 48.78125 10.40625 
L 48.78125 2.09375 
Q 45.015625 0.34375 40.984375 -0.53125 
Q 36.96875 -1.421875 32.421875 -1.421875 
Q 20.0625 -1.421875 12.78125 6.34375 
Q 5.515625 14.109375 5.515625 27.296875 
Q 5.515625 40.671875 12.859375 48.328125 
Q 20.21875 56 33.015625 56 
Q 37.15625 56 41.109375 55.140625 
Q 45.0625 54.296875 48.78125 52.59375 
z
" id="DejaVuSans-99"/>
     </defs>
     <g transform="translate(212.624844 335.860562)scale(0.1 -0.1)">
      <use xlink:href="#DejaVuSans-105"/>
      <use x="27.783203" xlink:href="#DejaVuSans-110"/>
      <use x="91.162109" xlink:href="#DejaVuSans-114"/>
      <use x="132.275391" xlink:href="#DejaVuSans-97"/>
      <use x="193.554688" xlink:href="#DejaVuSans-100"/>
      <use x="257.03125" xlink:href="#DejaVuSans-109"/>
      <use x="354.443359" xlink:href="#DejaVuSans-97"/>
      <use x="415.722656" xlink:href="#DejaVuSans-99"/>
     </g>
    </g>
   </g>
   <g id="matplotlib.axis_2">
    <g id="ytick_1">
     <g id="line2d_9">
      <defs>
       <path d="M 0 0 
L -3.5 0 
" id="md420b45e1d" style="stroke:#000000;stroke-width:0.8;"/>
      </defs>
      <g>
       <use style="stroke:#000000;stroke-width:0.8;" x="57.6" xlink:href="#md420b45e1d" y="174.528"/>
      </g>
     </g>
    </g>
   </g>
   <g id="line2d_10">
    <path clip-path="url(#pe7885eda04)" d="M 89.550859 174.528 
L 96.927373 174.528 
" style="fill:none;stroke:#ffa500;stroke-linecap:square;stroke-width:1.5;"/>
   </g>
   <g id="line2d_11">
    <path clip-path="url(#pe7885eda04)" d="M 89.550859 174.528 
L 93.239116 174.528 
" style="fill:none;stroke:#4c4c4c;stroke-linecap:square;stroke-width:4.5;"/>
   </g>
   <g id="line2d_12">
    <path clip-path="url(#pe7885eda04)" d="M 87.70673 174.528 
L 98.771501 174.528 
" style="fill:none;stroke:#008000;stroke-linecap:square;stroke-width:1.5;"/>
   </g>
   <g id="line2d_13">
    <path clip-path="url(#pe7885eda04)" d="M 89.550859 174.528 
L 93.239116 174.528 
" style="fill:none;stroke:#262626;stroke-linecap:square;stroke-width:4.5;"/>
   </g>
   <g id="patch_3">
    <path d="M 57.6 307.584 
L 57.6 41.472 
" style="fill:none;stroke:#000000;stroke-linecap:square;stroke-linejoin:miter;stroke-width:0.8;"/>
   </g>
   <g id="patch_4">
    <path d="M 414.72 307.584 
L 414.72 41.472 
" style="fill:none;stroke:#000000;stroke-linecap:square;stroke-linejoin:miter;stroke-width:0.8;"/>
   </g>
   <g id="patch_5">
    <path d="M 57.6 307.584 
L 414.72 307.584 
" style="fill:none;stroke:#000000;stroke-linecap:square;stroke-linejoin:miter;stroke-width:0.8;"/>
   </g>
   <g id="patch_6">
    <path d="M 57.6 41.472 
L 414.72 41.472 
" style="fill:none;stroke:#000000;stroke-linecap:square;stroke-linejoin:miter;stroke-width:0.8;"/>
   </g>
   <g id="PathCollection_1">
    <defs>
     <path d="M 0 1.5 
C 0.397805 1.5 0.77937 1.341951 1.06066 1.06066 
C 1.341951 0.77937 1.5 0.397805 1.5 0 
C 1.5 -0.397805 1.341951 -0.77937 1.06066 -1.06066 
C 0.77937 -1.341951 0.397805 -1.5 0 -1.5 
C -0.397805 -1.5 -0.77937 -1.341951 -1.06066 -1.06066 
C -1.341951 -0.77937 -1.5 -0.397805 -1.5 0 
C -1.5 0.397805 -1.341951 0.77937 -1.06066 1.06066 
C -0.77937 1.341951 -0.397805 1.5 0 1.5 
z
" id="mf0481b52ea" style="stroke:#4c4c4c;stroke-opacity:0.5;"/>
    </defs>
    <g clip-path="url(#pe7885eda04)">
     <use style="fill:#ffffff;fill-opacity:0.5;stroke:#4c4c4c;stroke-opacity:0.5;" x="91.394987" xlink:href="#mf0481b52ea" y="174.528"/>
    </g>
   </g>
   <g id="PathCollection_2">
    <defs>
     <path d="M 0 1.5 
C 0.397805 1.5 0.77937 1.341951 1.06066 1.06066 
C 1.341951 0.77937 1.5 0.397805 1.5 0 
C 1.5 -0.397805 1.341951 -0.77937 1.06066 -1.06066 
C 0.77937 -1.341951 0.397805 -1.5 0 -1.5 
C -0.397805 -1.5 -0.77937 -1.341951 -1.06066 -1.06066 
C -1.341951 -0.77937 -1.5 -0.397805 -1.5 0 
C -1.5 0.397805 -1.341951 0.77937 -1.06066 1.06066 
C -0.77937 1.341951 -0.397805 1.5 0 1.5 
z
" id="m1fdf8e35cc" style="stroke:#262626;stroke-opacity:0.5;"/>
    </defs>
    <g clip-path="url(#pe7885eda04)">
     <use style="fill:#ffffff;fill-opacity:0.5;stroke:#262626;stroke-opacity:0.5;" x="91.394987" xlink:href="#m1fdf8e35cc" y="174.528"/>
    </g>
   </g>
   <g id="text_10">
    <!-- Association of inradmac vs. cardiogenic_shock -->
    <defs>
     <path d="M 34.1875 63.1875 
L 20.796875 26.90625 
L 47.609375 26.90625 
z
M 28.609375 72.90625 
L 39.796875 72.90625 
L 67.578125 0 
L 57.328125 0 
L 50.6875 18.703125 
L 17.828125 18.703125 
L 11.1875 0 
L 0.78125 0 
z
" id="DejaVuSans-65"/>
     <path d="M 44.28125 53.078125 
L 44.28125 44.578125 
Q 40.484375 46.53125 36.375 47.5 
Q 32.28125 48.484375 27.875 48.484375 
Q 21.1875 48.484375 17.84375 46.4375 
Q 14.5 44.390625 14.5 40.28125 
Q 14.5 37.15625 16.890625 35.375 
Q 19.28125 33.59375 26.515625 31.984375 
L 29.59375 31.296875 
Q 39.15625 29.25 43.1875 25.515625 
Q 47.21875 21.78125 47.21875 15.09375 
Q 47.21875 7.46875 41.1875 3.015625 
Q 35.15625 -1.421875 24.609375 -1.421875 
Q 20.21875 -1.421875 15.453125 -0.5625 
Q 10.6875 0.296875 5.421875 2 
L 5.421875 11.28125 
Q 10.40625 8.6875 15.234375 7.390625 
Q 20.0625 6.109375 24.8125 6.109375 
Q 31.15625 6.109375 34.5625 8.28125 
Q 37.984375 10.453125 37.984375 14.40625 
Q 37.984375 18.0625 35.515625 20.015625 
Q 33.0625 21.96875 24.703125 23.78125 
L 21.578125 24.515625 
Q 13.234375 26.265625 9.515625 29.90625 
Q 5.8125 33.546875 5.8125 39.890625 
Q 5.8125 47.609375 11.28125 51.796875 
Q 16.75 56 26.8125 56 
Q 31.78125 56 36.171875 55.265625 
Q 40.578125 54.546875 44.28125 53.078125 
z
" id="DejaVuSans-115"/>
     <path d="M 30.609375 48.390625 
Q 23.390625 48.390625 19.1875 42.75 
Q 14.984375 37.109375 14.984375 27.296875 
Q 14.984375 17.484375 19.15625 11.84375 
Q 23.34375 6.203125 30.609375 6.203125 
Q 37.796875 6.203125 41.984375 11.859375 
Q 46.1875 17.53125 46.1875 27.296875 
Q 46.1875 37.015625 41.984375 42.703125 
Q 37.796875 48.390625 30.609375 48.390625 
z
M 30.609375 56 
Q 42.328125 56 49.015625 48.375 
Q 55.71875 40.765625 55.71875 27.296875 
Q 55.71875 13.875 49.015625 6.21875 
Q 42.328125 -1.421875 30.609375 -1.421875 
Q 18.84375 -1.421875 12.171875 6.21875 
Q 5.515625 13.875 5.515625 27.296875 
Q 5.515625 40.765625 12.171875 48.375 
Q 18.84375 56 30.609375 56 
z
" id="DejaVuSans-111"/>
     <path d="M 18.3125 70.21875 
L 18.3125 54.6875 
L 36.8125 54.6875 
L 36.8125 47.703125 
L 18.3125 47.703125 
L 18.3125 18.015625 
Q 18.3125 11.328125 20.140625 9.421875 
Q 21.96875 7.515625 27.59375 7.515625 
L 36.8125 7.515625 
L 36.8125 0 
L 27.59375 0 
Q 17.1875 0 13.234375 3.875 
Q 9.28125 7.765625 9.28125 18.015625 
L 9.28125 47.703125 
L 2.6875 47.703125 
L 2.6875 54.6875 
L 9.28125 54.6875 
L 9.28125 70.21875 
z
" id="DejaVuSans-116"/>
     <path id="DejaVuSans-32"/>
     <path d="M 37.109375 75.984375 
L 37.109375 68.5 
L 28.515625 68.5 
Q 23.6875 68.5 21.796875 66.546875 
Q 19.921875 64.59375 19.921875 59.515625 
L 19.921875 54.6875 
L 34.71875 54.6875 
L 34.71875 47.703125 
L 19.921875 47.703125 
L 19.921875 0 
L 10.890625 0 
L 10.890625 47.703125 
L 2.296875 47.703125 
L 2.296875 54.6875 
L 10.890625 54.6875 
L 10.890625 58.5 
Q 10.890625 67.625 15.140625 71.796875 
Q 19.390625 75.984375 28.609375 75.984375 
z
" id="DejaVuSans-102"/>
     <path d="M 2.984375 54.6875 
L 12.5 54.6875 
L 29.59375 8.796875 
L 46.6875 54.6875 
L 56.203125 54.6875 
L 35.6875 0 
L 23.484375 0 
z
" id="DejaVuSans-118"/>
     <path d="M 45.40625 27.984375 
Q 45.40625 37.75 41.375 43.109375 
Q 37.359375 48.484375 30.078125 48.484375 
Q 22.859375 48.484375 18.828125 43.109375 
Q 14.796875 37.75 14.796875 27.984375 
Q 14.796875 18.265625 18.828125 12.890625 
Q 22.859375 7.515625 30.078125 7.515625 
Q 37.359375 7.515625 41.375 12.890625 
Q 45.40625 18.265625 45.40625 27.984375 
z
M 54.390625 6.78125 
Q 54.390625 -7.171875 48.1875 -13.984375 
Q 42 -20.796875 29.203125 -20.796875 
Q 24.46875 -20.796875 20.265625 -20.09375 
Q 16.0625 -19.390625 12.109375 -17.921875 
L 12.109375 -9.1875 
Q 16.0625 -11.328125 19.921875 -12.34375 
Q 23.78125 -13.375 27.78125 -13.375 
Q 36.625 -13.375 41.015625 -8.765625 
Q 45.40625 -4.15625 45.40625 5.171875 
L 45.40625 9.625 
Q 42.625 4.78125 38.28125 2.390625 
Q 33.9375 0 27.875 0 
Q 17.828125 0 11.671875 7.65625 
Q 5.515625 15.328125 5.515625 27.984375 
Q 5.515625 40.671875 11.671875 48.328125 
Q 17.828125 56 27.875 56 
Q 33.9375 56 38.28125 53.609375 
Q 42.625 51.21875 45.40625 46.390625 
L 45.40625 54.6875 
L 54.390625 54.6875 
z
" id="DejaVuSans-103"/>
     <path d="M 56.203125 29.59375 
L 56.203125 25.203125 
L 14.890625 25.203125 
Q 15.484375 15.921875 20.484375 11.0625 
Q 25.484375 6.203125 34.421875 6.203125 
Q 39.59375 6.203125 44.453125 7.46875 
Q 49.3125 8.734375 54.109375 11.28125 
L 54.109375 2.78125 
Q 49.265625 0.734375 44.1875 -0.34375 
Q 39.109375 -1.421875 33.890625 -1.421875 
Q 20.796875 -1.421875 13.15625 6.1875 
Q 5.515625 13.8125 5.515625 26.8125 
Q 5.515625 40.234375 12.765625 48.109375 
Q 20.015625 56 32.328125 56 
Q 43.359375 56 49.78125 48.890625 
Q 56.203125 41.796875 56.203125 29.59375 
z
M 47.21875 32.234375 
Q 47.125 39.59375 43.09375 43.984375 
Q 39.0625 48.390625 32.421875 48.390625 
Q 24.90625 48.390625 20.390625 44.140625 
Q 15.875 39.890625 15.1875 32.171875 
z
" id="DejaVuSans-101"/>
     <path d="M 50.984375 -16.609375 
L 50.984375 -23.578125 
L -0.984375 -23.578125 
L -0.984375 -16.609375 
z
" id="DejaVuSans-95"/>
     <path d="M 54.890625 33.015625 
L 54.890625 0 
L 45.90625 0 
L 45.90625 32.71875 
Q 45.90625 40.484375 42.875 44.328125 
Q 39.84375 48.1875 33.796875 48.1875 
Q 26.515625 48.1875 22.3125 43.546875 
Q 18.109375 38.921875 18.109375 30.90625 
L 18.109375 0 
L 9.078125 0 
L 9.078125 75.984375 
L 18.109375 75.984375 
L 18.109375 46.1875 
Q 21.34375 51.125 25.703125 53.5625 
Q 30.078125 56 35.796875 56 
Q 45.21875 56 50.046875 50.171875 
Q 54.890625 44.34375 54.890625 33.015625 
z
" id="DejaVuSans-104"/>
     <path d="M 9.078125 75.984375 
L 18.109375 75.984375 
L 18.109375 31.109375 
L 44.921875 54.6875 
L 56.390625 54.6875 
L 27.390625 29.109375 
L 57.625 0 
L 45.90625 0 
L 18.109375 26.703125 
L 18.109375 0 
L 9.078125 0 
z
" id="DejaVuSans-107"/>
    </defs>
    <g transform="translate(96.63375 35.472)scale(0.12 -0.12)">
     <use xlink:href="#DejaVuSans-65"/>
     <use x="68.408203" xlink:href="#DejaVuSans-115"/>
     <use x="120.507812" xlink:href="#DejaVuSans-115"/>
     <use x="172.607422" xlink:href="#DejaVuSans-111"/>
     <use x="233.789062" xlink:href="#DejaVuSans-99"/>
     <use x="288.769531" xlink:href="#DejaVuSans-105"/>
     <use x="316.552734" xlink:href="#DejaVuSans-97"/>
     <use x="377.832031" xlink:href="#DejaVuSans-116"/>
     <use x="417.041016" xlink:href="#DejaVuSans-105"/>
     <use x="444.824219" xlink:href="#DejaVuSans-111"/>
     <use x="506.005859" xlink:href="#DejaVuSans-110"/>
     <use x="569.384766" xlink:href="#DejaVuSans-32"/>
     <use x="601.171875" xlink:href="#DejaVuSans-111"/>
     <use x="662.353516" xlink:href="#DejaVuSans-102"/>
     <use x="697.558594" xlink:href="#DejaVuSans-32"/>
     <use x="729.345703" xlink:href="#DejaVuSans-105"/>
     <use x="757.128906" xlink:href="#DejaVuSans-110"/>
     <use x="820.507812" xlink:href="#DejaVuSans-114"/>
     <use x="861.621094" xlink:href="#DejaVuSans-97"/>
     <use x="922.900391" xlink:href="#DejaVuSans-100"/>
     <use x="986.376953" xlink:href="#DejaVuSans-109"/>
     <use x="1083.789062" xlink:href="#DejaVuSans-97"/>
     <use x="1145.068359" xlink:href="#DejaVuSans-99"/>
     <use x="1200.048828" xlink:href="#DejaVuSans-32"/>
     <use x="1231.835938" xlink:href="#DejaVuSans-118"/>
     <use x="1291.015625" xlink:href="#DejaVuSans-115"/>
     <use x="1343.115234" xlink:href="#DejaVuSans-46"/>
     <use x="1374.902344" xlink:href="#DejaVuSans-32"/>
     <use x="1406.689453" xlink:href="#DejaVuSans-99"/>
     <use x="1461.669922" xlink:href="#DejaVuSans-97"/>
     <use x="1522.949219" xlink:href="#DejaVuSans-114"/>
     <use x="1562.3125" xlink:href="#DejaVuSans-100"/>
     <use x="1625.789062" xlink:href="#DejaVuSans-105"/>
     <use x="1653.572266" xlink:href="#DejaVuSans-111"/>
     <use x="1714.753906" xlink:href="#DejaVuSans-103"/>
     <use x="1778.230469" xlink:href="#DejaVuSans-101"/>
     <use x="1839.753906" xlink:href="#DejaVuSans-110"/>
     <use x="1903.132812" xlink:href="#DejaVuSans-105"/>
     <use x="1930.916016" xlink:href="#DejaVuSans-99"/>
     <use x="1985.896484" xlink:href="#DejaVuSans-95"/>
     <use x="2035.896484" xlink:href="#DejaVuSans-115"/>
     <use x="2087.996094" xlink:href="#DejaVuSans-104"/>
     <use x="2151.375" xlink:href="#DejaVuSans-111"/>
     <use x="2212.556641" xlink:href="#DejaVuSans-99"/>
     <use x="2267.537109" xlink:href="#DejaVuSans-107"/>
    </g>
   </g>
   <g id="legend_1">
    <g id="patch_7">
     <path d="M 233.074687 79.3845 
L 407.72 79.3845 
Q 409.72 79.3845 409.72 77.3845 
L 409.72 48.472 
Q 409.72 46.472 407.72 46.472 
L 233.074687 46.472 
Q 231.074687 46.472 231.074687 48.472 
L 231.074687 77.3845 
Q 231.074687 79.3845 233.074687 79.3845 
z
" style="fill:#ffffff;opacity:0.8;stroke:#cccccc;stroke-linejoin:miter;"/>
    </g>
    <g id="line2d_14">
     <path d="M 235.074687 54.570438 
L 255.074687 54.570438 
" style="fill:none;stroke:#ffa500;stroke-linecap:square;stroke-width:1.5;"/>
    </g>
    <g id="line2d_15"/>
    <g id="text_11">
     <!-- cardiogenic_shock (13) -->
     <defs>
      <path d="M 31 75.875 
Q 24.46875 64.65625 21.28125 53.65625 
Q 18.109375 42.671875 18.109375 31.390625 
Q 18.109375 20.125 21.3125 9.0625 
Q 24.515625 -2 31 -13.1875 
L 23.1875 -13.1875 
Q 15.875 -1.703125 12.234375 9.375 
Q 8.59375 20.453125 8.59375 31.390625 
Q 8.59375 42.28125 12.203125 53.3125 
Q 15.828125 64.359375 23.1875 75.875 
z
" id="DejaVuSans-40"/>
      <path d="M 40.578125 39.3125 
Q 47.65625 37.796875 51.625 33 
Q 55.609375 28.21875 55.609375 21.1875 
Q 55.609375 10.40625 48.1875 4.484375 
Q 40.765625 -1.421875 27.09375 -1.421875 
Q 22.515625 -1.421875 17.65625 -0.515625 
Q 12.796875 0.390625 7.625 2.203125 
L 7.625 11.71875 
Q 11.71875 9.328125 16.59375 8.109375 
Q 21.484375 6.890625 26.8125 6.890625 
Q 36.078125 6.890625 40.9375 10.546875 
Q 45.796875 14.203125 45.796875 21.1875 
Q 45.796875 27.640625 41.28125 31.265625 
Q 36.765625 34.90625 28.71875 34.90625 
L 20.21875 34.90625 
L 20.21875 43.015625 
L 29.109375 43.015625 
Q 36.375 43.015625 40.234375 45.921875 
Q 44.09375 48.828125 44.09375 54.296875 
Q 44.09375 59.90625 40.109375 62.90625 
Q 36.140625 65.921875 28.71875 65.921875 
Q 24.65625 65.921875 20.015625 65.03125 
Q 15.375 64.15625 9.8125 62.3125 
L 9.8125 71.09375 
Q 15.4375 72.65625 20.34375 73.4375 
Q 25.25 74.21875 29.59375 74.21875 
Q 40.828125 74.21875 47.359375 69.109375 
Q 53.90625 64.015625 53.90625 55.328125 
Q 53.90625 49.265625 50.4375 45.09375 
Q 46.96875 40.921875 40.578125 39.3125 
z
" id="DejaVuSans-51"/>
      <path d="M 8.015625 75.875 
L 15.828125 75.875 
Q 23.140625 64.359375 26.78125 53.3125 
Q 30.421875 42.28125 30.421875 31.390625 
Q 30.421875 20.453125 26.78125 9.375 
Q 23.140625 -1.703125 15.828125 -13.1875 
L 8.015625 -13.1875 
Q 14.5 -2 17.703125 9.0625 
Q 20.90625 20.125 20.90625 31.390625 
Q 20.90625 42.671875 17.703125 53.65625 
Q 14.5 64.65625 8.015625 75.875 
z
" id="DejaVuSans-41"/>
     </defs>
     <g transform="translate(263.074687 58.070438)scale(0.1 -0.1)">
      <use xlink:href="#DejaVuSans-99"/>
      <use x="54.980469" xlink:href="#DejaVuSans-97"/>
      <use x="116.259766" xlink:href="#DejaVuSans-114"/>
      <use x="155.623047" xlink:href="#DejaVuSans-100"/>
      <use x="219.099609" xlink:href="#DejaVuSans-105"/>
      <use x="246.882812" xlink:href="#DejaVuSans-111"/>
      <use x="308.064453" xlink:href="#DejaVuSans-103"/>
      <use x="371.541016" xlink:href="#DejaVuSans-101"/>
      <use x="433.064453" xlink:href="#DejaVuSans-110"/>
      <use x="496.443359" xlink:href="#DejaVuSans-105"/>
      <use x="524.226562" xlink:href="#DejaVuSans-99"/>
      <use x="579.207031" xlink:href="#DejaVuSans-95"/>
      <use x="629.207031" xlink:href="#DejaVuSans-115"/>
      <use x="681.306641" xlink:href="#DejaVuSans-104"/>
      <use x="744.685547" xlink:href="#DejaVuSans-111"/>
      <use x="805.867188" xlink:href="#DejaVuSans-99"/>
      <use x="860.847656" xlink:href="#DejaVuSans-107"/>
      <use x="918.757812" xlink:href="#DejaVuSans-32"/>
      <use x="950.544922" xlink:href="#DejaVuSans-40"/>
      <use x="989.558594" xlink:href="#DejaVuSans-49"/>
      <use x="1053.181641" xlink:href="#DejaVuSans-51"/>
      <use x="1116.804688" xlink:href="#DejaVuSans-41"/>
     </g>
    </g>
    <g id="line2d_16">
     <path d="M 235.074687 69.526688 
L 255.074687 69.526688 
" style="fill:none;stroke:#008000;stroke-linecap:square;stroke-width:1.5;"/>
    </g>
    <g id="line2d_17"/>
    <g id="text_12">
     <!-- Not cardiogenic_shock (397) -->
     <defs>
      <path d="M 9.8125 72.90625 
L 23.09375 72.90625 
L 55.421875 11.921875 
L 55.421875 72.90625 
L 64.984375 72.90625 
L 64.984375 0 
L 51.703125 0 
L 19.390625 60.984375 
L 19.390625 0 
L 9.8125 0 
z
" id="DejaVuSans-78"/>
      <path d="M 10.984375 1.515625 
L 10.984375 10.5 
Q 14.703125 8.734375 18.5 7.8125 
Q 22.3125 6.890625 25.984375 6.890625 
Q 35.75 6.890625 40.890625 13.453125 
Q 46.046875 20.015625 46.78125 33.40625 
Q 43.953125 29.203125 39.59375 26.953125 
Q 35.25 24.703125 29.984375 24.703125 
Q 19.046875 24.703125 12.671875 31.3125 
Q 6.296875 37.9375 6.296875 49.421875 
Q 6.296875 60.640625 12.9375 67.421875 
Q 19.578125 74.21875 30.609375 74.21875 
Q 43.265625 74.21875 49.921875 64.515625 
Q 56.59375 54.828125 56.59375 36.375 
Q 56.59375 19.140625 48.40625 8.859375 
Q 40.234375 -1.421875 26.421875 -1.421875 
Q 22.703125 -1.421875 18.890625 -0.6875 
Q 15.09375 0.046875 10.984375 1.515625 
z
M 30.609375 32.421875 
Q 37.25 32.421875 41.125 36.953125 
Q 45.015625 41.5 45.015625 49.421875 
Q 45.015625 57.28125 41.125 61.84375 
Q 37.25 66.40625 30.609375 66.40625 
Q 23.96875 66.40625 20.09375 61.84375 
Q 16.21875 57.28125 16.21875 49.421875 
Q 16.21875 41.5 20.09375 36.953125 
Q 23.96875 32.421875 30.609375 32.421875 
z
" id="DejaVuSans-57"/>
     </defs>
     <g transform="translate(263.074687 73.026688)scale(0.1 -0.1)">
      <use xlink:href="#DejaVuSans-78"/>
      <use x="74.804688" xlink:href="#DejaVuSans-111"/>
      <use x="135.986328" xlink:href="#DejaVuSans-116"/>
      <use x="175.195312" xlink:href="#DejaVuSans-32"/>
      <use x="206.982422" xlink:href="#DejaVuSans-99"/>
      <use x="261.962891" xlink:href="#DejaVuSans-97"/>
      <use x="323.242188" xlink:href="#DejaVuSans-114"/>
      <use x="362.605469" xlink:href="#DejaVuSans-100"/>
      <use x="426.082031" xlink:href="#DejaVuSans-105"/>
      <use x="453.865234" xlink:href="#DejaVuSans-111"/>
      <use x="515.046875" xlink:href="#DejaVuSans-103"/>
      <use x="578.523438" xlink:href="#DejaVuSans-101"/>
      <use x="640.046875" xlink:href="#DejaVuSans-110"/>
      <use x="703.425781" xlink:href="#DejaVuSans-105"/>
      <use x="731.208984" xlink:href="#DejaVuSans-99"/>
      <use x="786.189453" xlink:href="#DejaVuSans-95"/>
      <use x="836.189453" xlink:href="#DejaVuSans-115"/>
      <use x="888.289062" xlink:href="#DejaVuSans-104"/>
      <use x="951.667969" xlink:href="#DejaVuSans-111"/>
      <use x="1012.849609" xlink:href="#DejaVuSans-99"/>
      <use x="1067.830078" xlink:href="#DejaVuSans-107"/>
      <use x="1125.740234" xlink:href="#DejaVuSans-32"/>
      <use x="1157.527344" xlink:href="#DejaVuSans-40"/>
      <use x="1196.541016" xlink:href="#DejaVuSans-51"/>
      <use x="1260.164062" xlink:href="#DejaVuSans-57"/>
      <use x="1323.787109" xlink:href="#DejaVuSans-55"/>
      <use x="1387.410156" xlink:href="#DejaVuSans-41"/>
     </g>
    </g>
   </g>
  </g>
 </g>
 <defs>
  <clipPath id="pe7885eda04">
   <rect height="266.112" width="357.12" x="57.6" y="41.472"/>
  </clipPath>
 </defs>
</svg>
