<?xml version="1.0" encoding="utf-8" standalone="no"?>
<!DOCTYPE svg PUBLIC "-//W3C//DTD SVG 1.1//EN"
  "http://www.w3.org/Graphics/SVG/1.1/DTD/svg11.dtd">
<!-- Created with matplotlib (https://matplotlib.org/) -->
<svg height="345.6pt" version="1.1" viewBox="0 0 460.8 345.6" width="460.8pt" xmlns="http://www.w3.org/2000/svg" xmlns:xlink="http://www.w3.org/1999/xlink">
 <defs>
  <style type="text/css">
*{stroke-linecap:butt;stroke-linejoin:round;}
  </style>
 </defs>
 <g id="figure_1">
  <g id="patch_1">
   <path d="M 0 345.6 
L 460.8 345.6 
L 460.8 0 
L 0 0 
z
" style="fill:#ffffff;"/>
  </g>
  <g id="axes_1">
   <g id="patch_2">
    <path d="M 57.6 307.584 
L 414.72 307.584 
L 414.72 41.472 
L 57.6 41.472 
z
" style="fill:#ffffff;"/>
   </g>
   <g id="PolyCollection_1">
    <defs>
     <path d="M 85.742883 -163.627206 
L 85.742883 -178.516794 
L 85.871836 -179.686082 
L 86.00079 -180.992527 
L 86.129744 -182.44416 
L 86.258698 -184.048201 
L 86.387651 -185.810845 
L 86.516605 -187.737043 
L 86.645559 -189.830299 
L 86.774513 -192.092471 
L 86.903467 -194.523603 
L 87.03242 -197.12178 
L 87.161374 -199.883018 
L 87.290328 -202.801194 
L 87.419282 -205.868027 
L 87.548236 -209.073097 
L 87.677189 -212.403922 
L 87.806143 -215.846088 
L 87.935097 -219.383418 
L 88.064051 -222.9982 
L 88.193004 -226.671444 
L 88.321958 -230.383183 
L 88.450912 -234.112797 
L 88.579866 -237.839353 
L 88.70882 -241.541956 
L 88.837773 -245.200095 
L 88.966727 -248.793982 
L 89.095681 -252.304863 
L 89.224635 -255.715302 
L 89.353589 -259.009428 
L 89.482542 -262.173132 
L 89.611496 -265.194223 
L 89.74045 -268.062523 
L 89.869404 -270.769916 
L 89.998357 -273.310341 
L 90.127311 -275.679734 
L 90.256265 -277.875924 
L 90.385219 -279.898487 
L 90.514173 -281.748566 
L 90.643126 -283.428658 
L 90.77208 -284.942381 
L 90.901034 -286.294227 
L 91.029988 -287.489307 
L 91.158942 -288.533096 
L 91.287895 -289.431183 
L 91.416849 -290.189033 
L 91.545803 -290.811773 
L 91.674757 -291.30399 
L 91.80371 -291.669568 
L 91.932664 -291.911543 
L 92.061618 -292.032 
L 92.190572 -292.032 
L 92.319526 -291.911543 
L 92.448479 -291.669568 
L 92.577433 -291.30399 
L 92.706387 -290.811773 
L 92.835341 -290.189033 
L 92.964295 -289.431183 
L 93.093248 -288.533096 
L 93.222202 -287.489307 
L 93.351156 -286.294227 
L 93.48011 -284.942381 
L 93.609064 -283.428658 
L 93.738017 -281.748566 
L 93.866971 -279.898487 
L 93.995925 -277.875924 
L 94.124879 -275.679734 
L 94.253832 -273.310341 
L 94.382786 -270.769916 
L 94.51174 -268.062523 
L 94.640694 -265.194223 
L 94.769648 -262.173132 
L 94.898601 -259.009428 
L 95.027555 -255.715302 
L 95.156509 -252.304863 
L 95.285463 -248.793982 
L 95.414417 -245.200095 
L 95.54337 -241.541956 
L 95.672324 -237.839353 
L 95.801278 -234.112797 
L 95.930232 -230.383183 
L 96.059185 -226.671444 
L 96.188139 -222.9982 
L 96.317093 -219.383418 
L 96.446047 -215.846088 
L 96.575001 -212.403922 
L 96.703954 -209.073097 
L 96.832908 -205.868027 
L 96.961862 -202.801194 
L 97.090816 -199.883018 
L 97.21977 -197.12178 
L 97.348723 -194.523603 
L 97.477677 -192.092471 
L 97.606631 -189.830299 
L 97.735585 -187.737043 
L 97.864538 -185.810845 
L 97.993492 -184.048201 
L 98.122446 -182.44416 
L 98.2514 -180.992527 
L 98.380354 -179.686082 
L 98.509307 -178.516794 
L 98.509307 -163.627206 
L 98.509307 -163.627206 
L 98.380354 -162.457918 
L 98.2514 -161.151473 
L 98.122446 -159.69984 
L 97.993492 -158.095799 
L 97.864538 -156.333155 
L 97.735585 -154.406957 
L 97.606631 -152.313701 
L 97.477677 -150.051529 
L 97.348723 -147.620397 
L 97.21977 -145.02222 
L 97.090816 -142.260982 
L 96.961862 -139.342806 
L 96.832908 -136.275973 
L 96.703954 -133.070903 
L 96.575001 -129.740078 
L 96.446047 -126.297912 
L 96.317093 -122.760582 
L 96.188139 -119.1458 
L 96.059185 -115.472556 
L 95.930232 -111.760817 
L 95.801278 -108.031203 
L 95.672324 -104.304647 
L 95.54337 -100.602044 
L 95.414417 -96.943905 
L 95.285463 -93.350018 
L 95.156509 -89.839137 
L 95.027555 -86.428698 
L 94.898601 -83.134572 
L 94.769648 -79.970868 
L 94.640694 -76.949777 
L 94.51174 -74.081477 
L 94.382786 -71.374084 
L 94.253832 -68.833659 
L 94.124879 -66.464266 
L 93.995925 -64.268076 
L 93.866971 -62.245513 
L 93.738017 -60.395434 
L 93.609064 -58.715342 
L 93.48011 -57.201619 
L 93.351156 -55.849773 
L 93.222202 -54.654693 
L 93.093248 -53.610904 
L 92.964295 -52.712817 
L 92.835341 -51.954967 
L 92.706387 -51.332227 
L 92.577433 -50.84001 
L 92.448479 -50.474432 
L 92.319526 -50.232457 
L 92.190572 -50.112 
L 92.061618 -50.112 
L 91.932664 -50.232457 
L 91.80371 -50.474432 
L 91.674757 -50.84001 
L 91.545803 -51.332227 
L 91.416849 -51.954967 
L 91.287895 -52.712817 
L 91.158942 -53.610904 
L 91.029988 -54.654693 
L 90.901034 -55.849773 
L 90.77208 -57.201619 
L 90.643126 -58.715342 
L 90.514173 -60.395434 
L 90.385219 -62.245513 
L 90.256265 -64.268076 
L 90.127311 -66.464266 
L 89.998357 -68.833659 
L 89.869404 -71.374084 
L 89.74045 -74.081477 
L 89.611496 -76.949777 
L 89.482542 -79.970868 
L 89.353589 -83.134572 
L 89.224635 -86.428698 
L 89.095681 -89.839137 
L 88.966727 -93.350018 
L 88.837773 -96.943905 
L 88.70882 -100.602044 
L 88.579866 -104.304647 
L 88.450912 -108.031203 
L 88.321958 -111.760817 
L 88.193004 -115.472556 
L 88.064051 -119.1458 
L 87.935097 -122.760582 
L 87.806143 -126.297912 
L 87.677189 -129.740078 
L 87.548236 -133.070903 
L 87.419282 -136.275973 
L 87.290328 -139.342806 
L 87.161374 -142.260982 
L 87.03242 -145.02222 
L 86.903467 -147.620397 
L 86.774513 -150.051529 
L 86.645559 -152.313701 
L 86.516605 -154.406957 
L 86.387651 -156.333155 
L 86.258698 -158.095799 
L 86.129744 -159.69984 
L 86.00079 -161.151473 
L 85.871836 -162.457918 
L 85.742883 -163.627206 
z
" id="m32fed2ba7e" style="stroke:#4c4c4c;stroke-opacity:0.5;stroke-width:1.5;"/>
    </defs>
    <g clip-path="url(#p33159b25b0)">
     <use style="fill:#df9c20;fill-opacity:0.5;stroke:#4c4c4c;stroke-opacity:0.5;stroke-width:1.5;" x="0" xlink:href="#m32fed2ba7e" y="345.6"/>
    </g>
   </g>
   <g id="PolyCollection_2">
    <defs>
     <path d="M 73.832727 -164.126749 
L 73.832727 -178.017251 
L 77.112066 -190.013235 
L 80.391405 -212.60245 
L 83.670744 -244.416862 
L 86.950083 -275.679538 
L 90.229421 -292.032 
L 93.50876 -285.166303 
L 96.788099 -259.77116 
L 100.067438 -228.99198 
L 103.346777 -204.022521 
L 106.626116 -188.553529 
L 109.905455 -180.642914 
L 113.184793 -176.954814 
L 116.464132 -175.138758 
L 119.743471 -174.090487 
L 123.02281 -173.424458 
L 126.302149 -172.991868 
L 129.581488 -172.65769 
L 132.860826 -172.305444 
L 136.140165 -171.914781 
L 139.419504 -171.556014 
L 142.698843 -171.30277 
L 145.978182 -171.172415 
L 149.257521 -171.140511 
L 152.53686 -171.178411 
L 155.816198 -171.261697 
L 159.095537 -171.354473 
L 162.374876 -171.408012 
L 165.654215 -171.389766 
L 168.933554 -171.310789 
L 172.212893 -171.214578 
L 175.492231 -171.139643 
L 178.77157 -171.097499 
L 182.050909 -171.079637 
L 185.330248 -171.073818 
L 188.609587 -171.072344 
L 191.888926 -171.072052 
L 195.168264 -171.072006 
L 198.447603 -171.072001 
L 201.726942 -171.072002 
L 205.006281 -171.072019 
L 208.28562 -171.072144 
L 211.564959 -171.072847 
L 214.844298 -171.07597 
L 218.123636 -171.086788 
L 221.402975 -171.115766 
L 224.682314 -171.174913 
L 227.961653 -171.264281 
L 231.240992 -171.357452 
L 234.520331 -171.408711 
L 237.799669 -171.387581 
L 241.079008 -171.307013 
L 244.358347 -171.211061 
L 247.637686 -171.13738 
L 250.917025 -171.096424 
L 254.196364 -171.07925 
L 257.475702 -171.07371 
L 260.755041 -171.07232 
L 264.03438 -171.072048 
L 267.313719 -171.072006 
L 270.593058 -171.072001 
L 273.872397 -171.072 
L 277.151736 -171.072 
L 280.431074 -171.072 
L 283.710413 -171.072 
L 286.989752 -171.072 
L 290.269091 -171.072 
L 293.54843 -171.072 
L 296.827769 -171.072 
L 300.107107 -171.072 
L 303.386446 -171.072 
L 306.665785 -171.072 
L 309.945124 -171.072 
L 313.224463 -171.072 
L 316.503802 -171.072 
L 319.78314 -171.072 
L 323.062479 -171.072 
L 326.341818 -171.072 
L 329.621157 -171.072 
L 332.900496 -171.072 
L 336.179835 -171.072 
L 339.459174 -171.072 
L 342.738512 -171.072 
L 346.017851 -171.072 
L 349.29719 -171.072001 
L 352.576529 -171.07201 
L 355.855868 -171.072087 
L 359.135207 -171.072589 
L 362.414545 -171.075176 
L 365.693884 -171.085613 
L 368.973223 -171.118362 
L 372.252562 -171.197463 
L 375.531901 -171.34177 
L 378.81124 -171.532895 
L 382.090579 -171.697661 
L 385.369917 -171.746847 
L 388.649256 -171.650362 
L 391.928595 -171.465843 
L 395.207934 -171.285096 
L 398.487273 -171.163613 
L 398.487273 -170.980387 
L 398.487273 -170.980387 
L 395.207934 -170.858904 
L 391.928595 -170.678157 
L 388.649256 -170.493638 
L 385.369917 -170.397153 
L 382.090579 -170.446339 
L 378.81124 -170.611105 
L 375.531901 -170.80223 
L 372.252562 -170.946537 
L 368.973223 -171.025638 
L 365.693884 -171.058387 
L 362.414545 -171.068824 
L 359.135207 -171.071411 
L 355.855868 -171.071913 
L 352.576529 -171.07199 
L 349.29719 -171.071999 
L 346.017851 -171.072 
L 342.738512 -171.072 
L 339.459174 -171.072 
L 336.179835 -171.072 
L 332.900496 -171.072 
L 329.621157 -171.072 
L 326.341818 -171.072 
L 323.062479 -171.072 
L 319.78314 -171.072 
L 316.503802 -171.072 
L 313.224463 -171.072 
L 309.945124 -171.072 
L 306.665785 -171.072 
L 303.386446 -171.072 
L 300.107107 -171.072 
L 296.827769 -171.072 
L 293.54843 -171.072 
L 290.269091 -171.072 
L 286.989752 -171.072 
L 283.710413 -171.072 
L 280.431074 -171.072 
L 277.151736 -171.072 
L 273.872397 -171.072 
L 270.593058 -171.071999 
L 267.313719 -171.071994 
L 264.03438 -171.071952 
L 260.755041 -171.07168 
L 257.475702 -171.07029 
L 254.196364 -171.06475 
L 250.917025 -171.047576 
L 247.637686 -171.00662 
L 244.358347 -170.932939 
L 241.079008 -170.836987 
L 237.799669 -170.756419 
L 234.520331 -170.735289 
L 231.240992 -170.786548 
L 227.961653 -170.879719 
L 224.682314 -170.969087 
L 221.402975 -171.028234 
L 218.123636 -171.057212 
L 214.844298 -171.06803 
L 211.564959 -171.071153 
L 208.28562 -171.071856 
L 205.006281 -171.071981 
L 201.726942 -171.071998 
L 198.447603 -171.071999 
L 195.168264 -171.071994 
L 191.888926 -171.071948 
L 188.609587 -171.071656 
L 185.330248 -171.070182 
L 182.050909 -171.064363 
L 178.77157 -171.046501 
L 175.492231 -171.004357 
L 172.212893 -170.929422 
L 168.933554 -170.833211 
L 165.654215 -170.754234 
L 162.374876 -170.735988 
L 159.095537 -170.789527 
L 155.816198 -170.882303 
L 152.53686 -170.965589 
L 149.257521 -171.003489 
L 145.978182 -170.971585 
L 142.698843 -170.84123 
L 139.419504 -170.587986 
L 136.140165 -170.229219 
L 132.860826 -169.838556 
L 129.581488 -169.48631 
L 126.302149 -169.152132 
L 123.02281 -168.719542 
L 119.743471 -168.053513 
L 116.464132 -167.005242 
L 113.184793 -165.189186 
L 109.905455 -161.501086 
L 106.626116 -153.590471 
L 103.346777 -138.121479 
L 100.067438 -113.15202 
L 96.788099 -82.37284 
L 93.50876 -56.977697 
L 90.229421 -50.112 
L 86.950083 -66.464462 
L 83.670744 -97.727138 
L 80.391405 -129.54155 
L 77.112066 -152.130765 
L 73.832727 -164.126749 
z
" id="m9ccc1e0477" style="stroke:#262626;stroke-opacity:0.5;stroke-width:1.5;"/>
    </defs>
    <g clip-path="url(#p33159b25b0)">
     <use style="fill:#107010;fill-opacity:0.5;stroke:#262626;stroke-opacity:0.5;stroke-width:1.5;" x="0" xlink:href="#m9ccc1e0477" y="345.6"/>
    </g>
   </g>
   <g id="matplotlib.axis_1">
    <g id="xtick_1">
     <g id="line2d_1">
      <defs>
       <path d="M 0 0 
L 0 3.5 
" id="m8ba0f67422" style="stroke:#000000;stroke-width:0.8;"/>
      </defs>
      <g>
       <use style="stroke:#000000;stroke-width:0.8;" x="70.890463" xlink:href="#m8ba0f67422" y="307.584"/>
      </g>
     </g>
     <g id="text_1">
      <!-- 0.0 -->
      <defs>
       <path d="M 31.78125 66.40625 
Q 24.171875 66.40625 20.328125 58.90625 
Q 16.5 51.421875 16.5 36.375 
Q 16.5 21.390625 20.328125 13.890625 
Q 24.171875 6.390625 31.78125 6.390625 
Q 39.453125 6.390625 43.28125 13.890625 
Q 47.125 21.390625 47.125 36.375 
Q 47.125 51.421875 43.28125 58.90625 
Q 39.453125 66.40625 31.78125 66.40625 
z
M 31.78125 74.21875 
Q 44.046875 74.21875 50.515625 64.515625 
Q 56.984375 54.828125 56.984375 36.375 
Q 56.984375 17.96875 50.515625 8.265625 
Q 44.046875 -1.421875 31.78125 -1.421875 
Q 19.53125 -1.421875 13.0625 8.265625 
Q 6.59375 17.96875 6.59375 36.375 
Q 6.59375 54.828125 13.0625 64.515625 
Q 19.53125 74.21875 31.78125 74.21875 
z
" id="DejaVuSans-48"/>
       <path d="M 10.6875 12.40625 
L 21 12.40625 
L 21 0 
L 10.6875 0 
z
" id="DejaVuSans-46"/>
      </defs>
      <g transform="translate(62.938901 322.182437)scale(0.1 -0.1)">
       <use xlink:href="#DejaVuSans-48"/>
       <use x="63.623047" xlink:href="#DejaVuSans-46"/>
       <use x="95.410156" xlink:href="#DejaVuSans-48"/>
      </g>
     </g>
    </g>
    <g id="xtick_2">
     <g id="line2d_2">
      <g>
       <use style="stroke:#000000;stroke-width:0.8;" x="117.05488" xlink:href="#m8ba0f67422" y="307.584"/>
      </g>
     </g>
     <g id="text_2">
      <!-- 2.5 -->
      <defs>
       <path d="M 19.1875 8.296875 
L 53.609375 8.296875 
L 53.609375 0 
L 7.328125 0 
L 7.328125 8.296875 
Q 12.9375 14.109375 22.625 23.890625 
Q 32.328125 33.6875 34.8125 36.53125 
Q 39.546875 41.84375 41.421875 45.53125 
Q 43.3125 49.21875 43.3125 52.78125 
Q 43.3125 58.59375 39.234375 62.25 
Q 35.15625 65.921875 28.609375 65.921875 
Q 23.96875 65.921875 18.8125 64.3125 
Q 13.671875 62.703125 7.8125 59.421875 
L 7.8125 69.390625 
Q 13.765625 71.78125 18.9375 73 
Q 24.125 74.21875 28.421875 74.21875 
Q 39.75 74.21875 46.484375 68.546875 
Q 53.21875 62.890625 53.21875 53.421875 
Q 53.21875 48.921875 51.53125 44.890625 
Q 49.859375 40.875 45.40625 35.40625 
Q 44.1875 33.984375 37.640625 27.21875 
Q 31.109375 20.453125 19.1875 8.296875 
z
" id="DejaVuSans-50"/>
       <path d="M 10.796875 72.90625 
L 49.515625 72.90625 
L 49.515625 64.59375 
L 19.828125 64.59375 
L 19.828125 46.734375 
Q 21.96875 47.46875 24.109375 47.828125 
Q 26.265625 48.1875 28.421875 48.1875 
Q 40.625 48.1875 47.75 41.5 
Q 54.890625 34.8125 54.890625 23.390625 
Q 54.890625 11.625 47.5625 5.09375 
Q 40.234375 -1.421875 26.90625 -1.421875 
Q 22.3125 -1.421875 17.546875 -0.640625 
Q 12.796875 0.140625 7.71875 1.703125 
L 7.71875 11.625 
Q 12.109375 9.234375 16.796875 8.0625 
Q 21.484375 6.890625 26.703125 6.890625 
Q 35.15625 6.890625 40.078125 11.328125 
Q 45.015625 15.765625 45.015625 23.390625 
Q 45.015625 31 40.078125 35.4375 
Q 35.15625 39.890625 26.703125 39.890625 
Q 22.75 39.890625 18.8125 39.015625 
Q 14.890625 38.140625 10.796875 36.28125 
z
" id="DejaVuSans-53"/>
      </defs>
      <g transform="translate(109.103318 322.182437)scale(0.1 -0.1)">
       <use xlink:href="#DejaVuSans-50"/>
       <use x="63.623047" xlink:href="#DejaVuSans-46"/>
       <use x="95.410156" xlink:href="#DejaVuSans-53"/>
      </g>
     </g>
    </g>
    <g id="xtick_3">
     <g id="line2d_3">
      <g>
       <use style="stroke:#000000;stroke-width:0.8;" x="163.219297" xlink:href="#m8ba0f67422" y="307.584"/>
      </g>
     </g>
     <g id="text_3">
      <!-- 5.0 -->
      <g transform="translate(155.267735 322.182437)scale(0.1 -0.1)">
       <use xlink:href="#DejaVuSans-53"/>
       <use x="63.623047" xlink:href="#DejaVuSans-46"/>
       <use x="95.410156" xlink:href="#DejaVuSans-48"/>
      </g>
     </g>
    </g>
    <g id="xtick_4">
     <g id="line2d_4">
      <g>
       <use style="stroke:#000000;stroke-width:0.8;" x="209.383715" xlink:href="#m8ba0f67422" y="307.584"/>
      </g>
     </g>
     <g id="text_4">
      <!-- 7.5 -->
      <defs>
       <path d="M 8.203125 72.90625 
L 55.078125 72.90625 
L 55.078125 68.703125 
L 28.609375 0 
L 18.3125 0 
L 43.21875 64.59375 
L 8.203125 64.59375 
z
" id="DejaVuSans-55"/>
      </defs>
      <g transform="translate(201.432152 322.182437)scale(0.1 -0.1)">
       <use xlink:href="#DejaVuSans-55"/>
       <use x="63.623047" xlink:href="#DejaVuSans-46"/>
       <use x="95.410156" xlink:href="#DejaVuSans-53"/>
      </g>
     </g>
    </g>
    <g id="xtick_5">
     <g id="line2d_5">
      <g>
       <use style="stroke:#000000;stroke-width:0.8;" x="255.548132" xlink:href="#m8ba0f67422" y="307.584"/>
      </g>
     </g>
     <g id="text_5">
      <!-- 10.0 -->
      <defs>
       <path d="M 12.40625 8.296875 
L 28.515625 8.296875 
L 28.515625 63.921875 
L 10.984375 60.40625 
L 10.984375 69.390625 
L 28.421875 72.90625 
L 38.28125 72.90625 
L 38.28125 8.296875 
L 54.390625 8.296875 
L 54.390625 0 
L 12.40625 0 
z
" id="DejaVuSans-49"/>
      </defs>
      <g transform="translate(244.415319 322.182437)scale(0.1 -0.1)">
       <use xlink:href="#DejaVuSans-49"/>
       <use x="63.623047" xlink:href="#DejaVuSans-48"/>
       <use x="127.246094" xlink:href="#DejaVuSans-46"/>
       <use x="159.033203" xlink:href="#DejaVuSans-48"/>
      </g>
     </g>
    </g>
    <g id="xtick_6">
     <g id="line2d_6">
      <g>
       <use style="stroke:#000000;stroke-width:0.8;" x="301.712549" xlink:href="#m8ba0f67422" y="307.584"/>
      </g>
     </g>
     <g id="text_6">
      <!-- 12.5 -->
      <g transform="translate(290.579737 322.182437)scale(0.1 -0.1)">
       <use xlink:href="#DejaVuSans-49"/>
       <use x="63.623047" xlink:href="#DejaVuSans-50"/>
       <use x="127.246094" xlink:href="#DejaVuSans-46"/>
       <use x="159.033203" xlink:href="#DejaVuSans-53"/>
      </g>
     </g>
    </g>
    <g id="xtick_7">
     <g id="line2d_7">
      <g>
       <use style="stroke:#000000;stroke-width:0.8;" x="347.876966" xlink:href="#m8ba0f67422" y="307.584"/>
      </g>
     </g>
     <g id="text_7">
      <!-- 15.0 -->
      <g transform="translate(336.744154 322.182437)scale(0.1 -0.1)">
       <use xlink:href="#DejaVuSans-49"/>
       <use x="63.623047" xlink:href="#DejaVuSans-53"/>
       <use x="127.246094" xlink:href="#DejaVuSans-46"/>
       <use x="159.033203" xlink:href="#DejaVuSans-48"/>
      </g>
     </g>
    </g>
    <g id="xtick_8">
     <g id="line2d_8">
      <g>
       <use style="stroke:#000000;stroke-width:0.8;" x="394.041384" xlink:href="#m8ba0f67422" y="307.584"/>
      </g>
     </g>
     <g id="text_8">
      <!-- 17.5 -->
      <g transform="translate(382.908571 322.182437)scale(0.1 -0.1)">
       <use xlink:href="#DejaVuSans-49"/>
       <use x="63.623047" xlink:href="#DejaVuSans-55"/>
       <use x="127.246094" xlink:href="#DejaVuSans-46"/>
       <use x="159.033203" xlink:href="#DejaVuSans-53"/>
      </g>
     </g>
    </g>
    <g id="text_9">
     <!-- inradmac -->
     <defs>
      <path d="M 9.421875 54.6875 
L 18.40625 54.6875 
L 18.40625 0 
L 9.421875 0 
z
M 9.421875 75.984375 
L 18.40625 75.984375 
L 18.40625 64.59375 
L 9.421875 64.59375 
z
" id="DejaVuSans-105"/>
      <path d="M 54.890625 33.015625 
L 54.890625 0 
L 45.90625 0 
L 45.90625 32.71875 
Q 45.90625 40.484375 42.875 44.328125 
Q 39.84375 48.1875 33.796875 48.1875 
Q 26.515625 48.1875 22.3125 43.546875 
Q 18.109375 38.921875 18.109375 30.90625 
L 18.109375 0 
L 9.078125 0 
L 9.078125 54.6875 
L 18.109375 54.6875 
L 18.109375 46.1875 
Q 21.34375 51.125 25.703125 53.5625 
Q 30.078125 56 35.796875 56 
Q 45.21875 56 50.046875 50.171875 
Q 54.890625 44.34375 54.890625 33.015625 
z
" id="DejaVuSans-110"/>
      <path d="M 41.109375 46.296875 
Q 39.59375 47.171875 37.8125 47.578125 
Q 36.03125 48 33.890625 48 
Q 26.265625 48 22.1875 43.046875 
Q 18.109375 38.09375 18.109375 28.8125 
L 18.109375 0 
L 9.078125 0 
L 9.078125 54.6875 
L 18.109375 54.6875 
L 18.109375 46.1875 
Q 20.953125 51.171875 25.484375 53.578125 
Q 30.03125 56 36.53125 56 
Q 37.453125 56 38.578125 55.875 
Q 39.703125 55.765625 41.0625 55.515625 
z
" id="DejaVuSans-114"/>
      <path d="M 34.28125 27.484375 
Q 23.390625 27.484375 19.1875 25 
Q 14.984375 22.515625 14.984375 16.5 
Q 14.984375 11.71875 18.140625 8.90625 
Q 21.296875 6.109375 26.703125 6.109375 
Q 34.1875 6.109375 38.703125 11.40625 
Q 43.21875 16.703125 43.21875 25.484375 
L 43.21875 27.484375 
z
M 52.203125 31.203125 
L 52.203125 0 
L 43.21875 0 
L 43.21875 8.296875 
Q 40.140625 3.328125 35.546875 0.953125 
Q 30.953125 -1.421875 24.3125 -1.421875 
Q 15.921875 -1.421875 10.953125 3.296875 
Q 6 8.015625 6 15.921875 
Q 6 25.140625 12.171875 29.828125 
Q 18.359375 34.515625 30.609375 34.515625 
L 43.21875 34.515625 
L 43.21875 35.40625 
Q 43.21875 41.609375 39.140625 45 
Q 35.0625 48.390625 27.6875 48.390625 
Q 23 48.390625 18.546875 47.265625 
Q 14.109375 46.140625 10.015625 43.890625 
L 10.015625 52.203125 
Q 14.9375 54.109375 19.578125 55.046875 
Q 24.21875 56 28.609375 56 
Q 40.484375 56 46.34375 49.84375 
Q 52.203125 43.703125 52.203125 31.203125 
z
" id="DejaVuSans-97"/>
      <path d="M 45.40625 46.390625 
L 45.40625 75.984375 
L 54.390625 75.984375 
L 54.390625 0 
L 45.40625 0 
L 45.40625 8.203125 
Q 42.578125 3.328125 38.25 0.953125 
Q 33.9375 -1.421875 27.875 -1.421875 
Q 17.96875 -1.421875 11.734375 6.484375 
Q 5.515625 14.40625 5.515625 27.296875 
Q 5.515625 40.1875 11.734375 48.09375 
Q 17.96875 56 27.875 56 
Q 33.9375 56 38.25 53.625 
Q 42.578125 51.265625 45.40625 46.390625 
z
M 14.796875 27.296875 
Q 14.796875 17.390625 18.875 11.75 
Q 22.953125 6.109375 30.078125 6.109375 
Q 37.203125 6.109375 41.296875 11.75 
Q 45.40625 17.390625 45.40625 27.296875 
Q 45.40625 37.203125 41.296875 42.84375 
Q 37.203125 48.484375 30.078125 48.484375 
Q 22.953125 48.484375 18.875 42.84375 
Q 14.796875 37.203125 14.796875 27.296875 
z
" id="DejaVuSans-100"/>
      <path d="M 52 44.1875 
Q 55.375 50.25 60.0625 53.125 
Q 64.75 56 71.09375 56 
Q 79.640625 56 84.28125 50.015625 
Q 88.921875 44.046875 88.921875 33.015625 
L 88.921875 0 
L 79.890625 0 
L 79.890625 32.71875 
Q 79.890625 40.578125 77.09375 44.375 
Q 74.3125 48.1875 68.609375 48.1875 
Q 61.625 48.1875 57.5625 43.546875 
Q 53.515625 38.921875 53.515625 30.90625 
L 53.515625 0 
L 44.484375 0 
L 44.484375 32.71875 
Q 44.484375 40.625 41.703125 44.40625 
Q 38.921875 48.1875 33.109375 48.1875 
Q 26.21875 48.1875 22.15625 43.53125 
Q 18.109375 38.875 18.109375 30.90625 
L 18.109375 0 
L 9.078125 0 
L 9.078125 54.6875 
L 18.109375 54.6875 
L 18.109375 46.1875 
Q 21.1875 51.21875 25.484375 53.609375 
Q 29.78125 56 35.6875 56 
Q 41.65625 56 45.828125 52.96875 
Q 50 49.953125 52 44.1875 
z
" id="DejaVuSans-109"/>
      <path d="M 48.78125 52.59375 
L 48.78125 44.1875 
Q 44.96875 46.296875 41.140625 47.34375 
Q 37.3125 48.390625 33.40625 48.390625 
Q 24.65625 48.390625 19.8125 42.84375 
Q 14.984375 37.3125 14.984375 27.296875 
Q 14.984375 17.28125 19.8125 11.734375 
Q 24.65625 6.203125 33.40625 6.203125 
Q 37.3125 6.203125 41.140625 7.25 
Q 44.96875 8.296875 48.78125 10.40625 
L 48.78125 2.09375 
Q 45.015625 0.34375 40.984375 -0.53125 
Q 36.96875 -1.421875 32.421875 -1.421875 
Q 20.0625 -1.421875 12.78125 6.34375 
Q 5.515625 14.109375 5.515625 27.296875 
Q 5.515625 40.671875 12.859375 48.328125 
Q 20.21875 56 33.015625 56 
Q 37.15625 56 41.109375 55.140625 
Q 45.0625 54.296875 48.78125 52.59375 
z
" id="DejaVuSans-99"/>
     </defs>
     <g transform="translate(212.624844 335.860562)scale(0.1 -0.1)">
      <use xlink:href="#DejaVuSans-105"/>
      <use x="27.783203" xlink:href="#DejaVuSans-110"/>
      <use x="91.162109" xlink:href="#DejaVuSans-114"/>
      <use x="132.275391" xlink:href="#DejaVuSans-97"/>
      <use x="193.554688" xlink:href="#DejaVuSans-100"/>
      <use x="257.03125" xlink:href="#DejaVuSans-109"/>
      <use x="354.443359" xlink:href="#DejaVuSans-97"/>
      <use x="415.722656" xlink:href="#DejaVuSans-99"/>
     </g>
    </g>
   </g>
   <g id="matplotlib.axis_2">
    <g id="ytick_1">
     <g id="line2d_9">
      <defs>
       <path d="M 0 0 
L -3.5 0 
" id="md745d97315" style="stroke:#000000;stroke-width:0.8;"/>
      </defs>
      <g>
       <use style="stroke:#000000;stroke-width:0.8;" x="57.6" xlink:href="#md745d97315" y="174.528"/>
      </g>
     </g>
    </g>
   </g>
   <g id="line2d_10">
    <path clip-path="url(#p33159b25b0)" d="M 89.35623 174.528 
L 94.89596 174.528 
" style="fill:none;stroke:#ffa500;stroke-linecap:square;stroke-width:1.5;"/>
   </g>
   <g id="line2d_11">
    <path clip-path="url(#p33159b25b0)" d="M 90.741162 174.528 
L 93.511027 174.528 
" style="fill:none;stroke:#4c4c4c;stroke-linecap:square;stroke-width:4.5;"/>
   </g>
   <g id="line2d_12">
    <path clip-path="url(#p33159b25b0)" d="M 87.509653 174.528 
L 98.589113 174.528 
" style="fill:none;stroke:#008000;stroke-linecap:square;stroke-width:1.5;"/>
   </g>
   <g id="line2d_13">
    <path clip-path="url(#p33159b25b0)" d="M 89.35623 174.528 
L 93.049383 174.528 
" style="fill:none;stroke:#262626;stroke-linecap:square;stroke-width:4.5;"/>
   </g>
   <g id="patch_3">
    <path d="M 57.6 307.584 
L 57.6 41.472 
" style="fill:none;stroke:#000000;stroke-linecap:square;stroke-linejoin:miter;stroke-width:0.8;"/>
   </g>
   <g id="patch_4">
    <path d="M 414.72 307.584 
L 414.72 41.472 
" style="fill:none;stroke:#000000;stroke-linecap:square;stroke-linejoin:miter;stroke-width:0.8;"/>
   </g>
   <g id="patch_5">
    <path d="M 57.6 307.584 
L 414.72 307.584 
" style="fill:none;stroke:#000000;stroke-linecap:square;stroke-linejoin:miter;stroke-width:0.8;"/>
   </g>
   <g id="patch_6">
    <path d="M 57.6 41.472 
L 414.72 41.472 
" style="fill:none;stroke:#000000;stroke-linecap:square;stroke-linejoin:miter;stroke-width:0.8;"/>
   </g>
   <g id="PathCollection_1">
    <defs>
     <path d="M 0 1.5 
C 0.397805 1.5 0.77937 1.341951 1.06066 1.06066 
C 1.341951 0.77937 1.5 0.397805 1.5 0 
C 1.5 -0.397805 1.341951 -0.77937 1.06066 -1.06066 
C 0.77937 -1.341951 0.397805 -1.5 0 -1.5 
C -0.397805 -1.5 -0.77937 -1.341951 -1.06066 -1.06066 
C -1.341951 -0.77937 -1.5 -0.397805 -1.5 0 
C -1.5 0.397805 -1.341951 0.77937 -1.06066 1.06066 
C -0.77937 1.341951 -0.397805 1.5 0 1.5 
z
" id="m287c7f81b0" style="stroke:#4c4c4c;stroke-opacity:0.5;"/>
    </defs>
    <g clip-path="url(#p33159b25b0)">
     <use style="fill:#ffffff;fill-opacity:0.5;stroke:#4c4c4c;stroke-opacity:0.5;" x="92.126095" xlink:href="#m287c7f81b0" y="174.528"/>
    </g>
   </g>
   <g id="PathCollection_2">
    <defs>
     <path d="M 0 1.5 
C 0.397805 1.5 0.77937 1.341951 1.06066 1.06066 
C 1.341951 0.77937 1.5 0.397805 1.5 0 
C 1.5 -0.397805 1.341951 -0.77937 1.06066 -1.06066 
C 0.77937 -1.341951 0.397805 -1.5 0 -1.5 
C -0.397805 -1.5 -0.77937 -1.341951 -1.06066 -1.06066 
C -1.341951 -0.77937 -1.5 -0.397805 -1.5 0 
C -1.5 0.397805 -1.341951 0.77937 -1.06066 1.06066 
C -0.77937 1.341951 -0.397805 1.5 0 1.5 
z
" id="m53309f9b55" style="stroke:#262626;stroke-opacity:0.5;"/>
    </defs>
    <g clip-path="url(#p33159b25b0)">
     <use style="fill:#ffffff;fill-opacity:0.5;stroke:#262626;stroke-opacity:0.5;" x="91.202807" xlink:href="#m53309f9b55" y="174.528"/>
    </g>
   </g>
   <g id="text_10">
    <!-- Association of inradmac vs. myocarditis -->
    <defs>
     <path d="M 34.1875 63.1875 
L 20.796875 26.90625 
L 47.609375 26.90625 
z
M 28.609375 72.90625 
L 39.796875 72.90625 
L 67.578125 0 
L 57.328125 0 
L 50.6875 18.703125 
L 17.828125 18.703125 
L 11.1875 0 
L 0.78125 0 
z
" id="DejaVuSans-65"/>
     <path d="M 44.28125 53.078125 
L 44.28125 44.578125 
Q 40.484375 46.53125 36.375 47.5 
Q 32.28125 48.484375 27.875 48.484375 
Q 21.1875 48.484375 17.84375 46.4375 
Q 14.5 44.390625 14.5 40.28125 
Q 14.5 37.15625 16.890625 35.375 
Q 19.28125 33.59375 26.515625 31.984375 
L 29.59375 31.296875 
Q 39.15625 29.25 43.1875 25.515625 
Q 47.21875 21.78125 47.21875 15.09375 
Q 47.21875 7.46875 41.1875 3.015625 
Q 35.15625 -1.421875 24.609375 -1.421875 
Q 20.21875 -1.421875 15.453125 -0.5625 
Q 10.6875 0.296875 5.421875 2 
L 5.421875 11.28125 
Q 10.40625 8.6875 15.234375 7.390625 
Q 20.0625 6.109375 24.8125 6.109375 
Q 31.15625 6.109375 34.5625 8.28125 
Q 37.984375 10.453125 37.984375 14.40625 
Q 37.984375 18.0625 35.515625 20.015625 
Q 33.0625 21.96875 24.703125 23.78125 
L 21.578125 24.515625 
Q 13.234375 26.265625 9.515625 29.90625 
Q 5.8125 33.546875 5.8125 39.890625 
Q 5.8125 47.609375 11.28125 51.796875 
Q 16.75 56 26.8125 56 
Q 31.78125 56 36.171875 55.265625 
Q 40.578125 54.546875 44.28125 53.078125 
z
" id="DejaVuSans-115"/>
     <path d="M 30.609375 48.390625 
Q 23.390625 48.390625 19.1875 42.75 
Q 14.984375 37.109375 14.984375 27.296875 
Q 14.984375 17.484375 19.15625 11.84375 
Q 23.34375 6.203125 30.609375 6.203125 
Q 37.796875 6.203125 41.984375 11.859375 
Q 46.1875 17.53125 46.1875 27.296875 
Q 46.1875 37.015625 41.984375 42.703125 
Q 37.796875 48.390625 30.609375 48.390625 
z
M 30.609375 56 
Q 42.328125 56 49.015625 48.375 
Q 55.71875 40.765625 55.71875 27.296875 
Q 55.71875 13.875 49.015625 6.21875 
Q 42.328125 -1.421875 30.609375 -1.421875 
Q 18.84375 -1.421875 12.171875 6.21875 
Q 5.515625 13.875 5.515625 27.296875 
Q 5.515625 40.765625 12.171875 48.375 
Q 18.84375 56 30.609375 56 
z
" id="DejaVuSans-111"/>
     <path d="M 18.3125 70.21875 
L 18.3125 54.6875 
L 36.8125 54.6875 
L 36.8125 47.703125 
L 18.3125 47.703125 
L 18.3125 18.015625 
Q 18.3125 11.328125 20.140625 9.421875 
Q 21.96875 7.515625 27.59375 7.515625 
L 36.8125 7.515625 
L 36.8125 0 
L 27.59375 0 
Q 17.1875 0 13.234375 3.875 
Q 9.28125 7.765625 9.28125 18.015625 
L 9.28125 47.703125 
L 2.6875 47.703125 
L 2.6875 54.6875 
L 9.28125 54.6875 
L 9.28125 70.21875 
z
" id="DejaVuSans-116"/>
     <path id="DejaVuSans-32"/>
     <path d="M 37.109375 75.984375 
L 37.109375 68.5 
L 28.515625 68.5 
Q 23.6875 68.5 21.796875 66.546875 
Q 19.921875 64.59375 19.921875 59.515625 
L 19.921875 54.6875 
L 34.71875 54.6875 
L 34.71875 47.703125 
L 19.921875 47.703125 
L 19.921875 0 
L 10.890625 0 
L 10.890625 47.703125 
L 2.296875 47.703125 
L 2.296875 54.6875 
L 10.890625 54.6875 
L 10.890625 58.5 
Q 10.890625 67.625 15.140625 71.796875 
Q 19.390625 75.984375 28.609375 75.984375 
z
" id="DejaVuSans-102"/>
     <path d="M 2.984375 54.6875 
L 12.5 54.6875 
L 29.59375 8.796875 
L 46.6875 54.6875 
L 56.203125 54.6875 
L 35.6875 0 
L 23.484375 0 
z
" id="DejaVuSans-118"/>
     <path d="M 32.171875 -5.078125 
Q 28.375 -14.84375 24.75 -17.8125 
Q 21.140625 -20.796875 15.09375 -20.796875 
L 7.90625 -20.796875 
L 7.90625 -13.28125 
L 13.1875 -13.28125 
Q 16.890625 -13.28125 18.9375 -11.515625 
Q 21 -9.765625 23.484375 -3.21875 
L 25.09375 0.875 
L 2.984375 54.6875 
L 12.5 54.6875 
L 29.59375 11.921875 
L 46.6875 54.6875 
L 56.203125 54.6875 
z
" id="DejaVuSans-121"/>
    </defs>
    <g transform="translate(116.735625 35.472)scale(0.12 -0.12)">
     <use xlink:href="#DejaVuSans-65"/>
     <use x="68.408203" xlink:href="#DejaVuSans-115"/>
     <use x="120.507812" xlink:href="#DejaVuSans-115"/>
     <use x="172.607422" xlink:href="#DejaVuSans-111"/>
     <use x="233.789062" xlink:href="#DejaVuSans-99"/>
     <use x="288.769531" xlink:href="#DejaVuSans-105"/>
     <use x="316.552734" xlink:href="#DejaVuSans-97"/>
     <use x="377.832031" xlink:href="#DejaVuSans-116"/>
     <use x="417.041016" xlink:href="#DejaVuSans-105"/>
     <use x="444.824219" xlink:href="#DejaVuSans-111"/>
     <use x="506.005859" xlink:href="#DejaVuSans-110"/>
     <use x="569.384766" xlink:href="#DejaVuSans-32"/>
     <use x="601.171875" xlink:href="#DejaVuSans-111"/>
     <use x="662.353516" xlink:href="#DejaVuSans-102"/>
     <use x="697.558594" xlink:href="#DejaVuSans-32"/>
     <use x="729.345703" xlink:href="#DejaVuSans-105"/>
     <use x="757.128906" xlink:href="#DejaVuSans-110"/>
     <use x="820.507812" xlink:href="#DejaVuSans-114"/>
     <use x="861.621094" xlink:href="#DejaVuSans-97"/>
     <use x="922.900391" xlink:href="#DejaVuSans-100"/>
     <use x="986.376953" xlink:href="#DejaVuSans-109"/>
     <use x="1083.789062" xlink:href="#DejaVuSans-97"/>
     <use x="1145.068359" xlink:href="#DejaVuSans-99"/>
     <use x="1200.048828" xlink:href="#DejaVuSans-32"/>
     <use x="1231.835938" xlink:href="#DejaVuSans-118"/>
     <use x="1291.015625" xlink:href="#DejaVuSans-115"/>
     <use x="1343.115234" xlink:href="#DejaVuSans-46"/>
     <use x="1374.902344" xlink:href="#DejaVuSans-32"/>
     <use x="1406.689453" xlink:href="#DejaVuSans-109"/>
     <use x="1504.101562" xlink:href="#DejaVuSans-121"/>
     <use x="1563.28125" xlink:href="#DejaVuSans-111"/>
     <use x="1624.462891" xlink:href="#DejaVuSans-99"/>
     <use x="1679.443359" xlink:href="#DejaVuSans-97"/>
     <use x="1740.722656" xlink:href="#DejaVuSans-114"/>
     <use x="1780.085938" xlink:href="#DejaVuSans-100"/>
     <use x="1843.5625" xlink:href="#DejaVuSans-105"/>
     <use x="1871.345703" xlink:href="#DejaVuSans-116"/>
     <use x="1910.554688" xlink:href="#DejaVuSans-105"/>
     <use x="1938.337891" xlink:href="#DejaVuSans-115"/>
    </g>
   </g>
   <g id="legend_1">
    <g id="patch_7">
     <path d="M 266.577812 78.82825 
L 407.72 78.82825 
Q 409.72 78.82825 409.72 76.82825 
L 409.72 48.472 
Q 409.72 46.472 407.72 46.472 
L 266.577812 46.472 
Q 264.577812 46.472 264.577812 48.472 
L 264.577812 76.82825 
Q 264.577812 78.82825 266.577812 78.82825 
z
" style="fill:#ffffff;opacity:0.8;stroke:#cccccc;stroke-linejoin:miter;"/>
    </g>
    <g id="line2d_14">
     <path d="M 268.577812 54.570437 
L 288.577812 54.570437 
" style="fill:none;stroke:#ffa500;stroke-linecap:square;stroke-width:1.5;"/>
    </g>
    <g id="line2d_15"/>
    <g id="text_11">
     <!-- myocarditis (4) -->
     <defs>
      <path d="M 31 75.875 
Q 24.46875 64.65625 21.28125 53.65625 
Q 18.109375 42.671875 18.109375 31.390625 
Q 18.109375 20.125 21.3125 9.0625 
Q 24.515625 -2 31 -13.1875 
L 23.1875 -13.1875 
Q 15.875 -1.703125 12.234375 9.375 
Q 8.59375 20.453125 8.59375 31.390625 
Q 8.59375 42.28125 12.203125 53.3125 
Q 15.828125 64.359375 23.1875 75.875 
z
" id="DejaVuSans-40"/>
      <path d="M 37.796875 64.3125 
L 12.890625 25.390625 
L 37.796875 25.390625 
z
M 35.203125 72.90625 
L 47.609375 72.90625 
L 47.609375 25.390625 
L 58.015625 25.390625 
L 58.015625 17.1875 
L 47.609375 17.1875 
L 47.609375 0 
L 37.796875 0 
L 37.796875 17.1875 
L 4.890625 17.1875 
L 4.890625 26.703125 
z
" id="DejaVuSans-52"/>
      <path d="M 8.015625 75.875 
L 15.828125 75.875 
Q 23.140625 64.359375 26.78125 53.3125 
Q 30.421875 42.28125 30.421875 31.390625 
Q 30.421875 20.453125 26.78125 9.375 
Q 23.140625 -1.703125 15.828125 -13.1875 
L 8.015625 -13.1875 
Q 14.5 -2 17.703125 9.0625 
Q 20.90625 20.125 20.90625 31.390625 
Q 20.90625 42.671875 17.703125 53.65625 
Q 14.5 64.65625 8.015625 75.875 
z
" id="DejaVuSans-41"/>
     </defs>
     <g transform="translate(296.577812 58.070437)scale(0.1 -0.1)">
      <use xlink:href="#DejaVuSans-109"/>
      <use x="97.412109" xlink:href="#DejaVuSans-121"/>
      <use x="156.591797" xlink:href="#DejaVuSans-111"/>
      <use x="217.773438" xlink:href="#DejaVuSans-99"/>
      <use x="272.753906" xlink:href="#DejaVuSans-97"/>
      <use x="334.033203" xlink:href="#DejaVuSans-114"/>
      <use x="373.396484" xlink:href="#DejaVuSans-100"/>
      <use x="436.873047" xlink:href="#DejaVuSans-105"/>
      <use x="464.65625" xlink:href="#DejaVuSans-116"/>
      <use x="503.865234" xlink:href="#DejaVuSans-105"/>
      <use x="531.648438" xlink:href="#DejaVuSans-115"/>
      <use x="583.748047" xlink:href="#DejaVuSans-32"/>
      <use x="615.535156" xlink:href="#DejaVuSans-40"/>
      <use x="654.548828" xlink:href="#DejaVuSans-52"/>
      <use x="718.171875" xlink:href="#DejaVuSans-41"/>
     </g>
    </g>
    <g id="line2d_16">
     <path d="M 268.577812 69.248562 
L 288.577812 69.248562 
" style="fill:none;stroke:#008000;stroke-linecap:square;stroke-width:1.5;"/>
    </g>
    <g id="line2d_17"/>
    <g id="text_12">
     <!-- Not myocarditis (406) -->
     <defs>
      <path d="M 9.8125 72.90625 
L 23.09375 72.90625 
L 55.421875 11.921875 
L 55.421875 72.90625 
L 64.984375 72.90625 
L 64.984375 0 
L 51.703125 0 
L 19.390625 60.984375 
L 19.390625 0 
L 9.8125 0 
z
" id="DejaVuSans-78"/>
      <path d="M 33.015625 40.375 
Q 26.375 40.375 22.484375 35.828125 
Q 18.609375 31.296875 18.609375 23.390625 
Q 18.609375 15.53125 22.484375 10.953125 
Q 26.375 6.390625 33.015625 6.390625 
Q 39.65625 6.390625 43.53125 10.953125 
Q 47.40625 15.53125 47.40625 23.390625 
Q 47.40625 31.296875 43.53125 35.828125 
Q 39.65625 40.375 33.015625 40.375 
z
M 52.59375 71.296875 
L 52.59375 62.3125 
Q 48.875 64.0625 45.09375 64.984375 
Q 41.3125 65.921875 37.59375 65.921875 
Q 27.828125 65.921875 22.671875 59.328125 
Q 17.53125 52.734375 16.796875 39.40625 
Q 19.671875 43.65625 24.015625 45.921875 
Q 28.375 48.1875 33.59375 48.1875 
Q 44.578125 48.1875 50.953125 41.515625 
Q 57.328125 34.859375 57.328125 23.390625 
Q 57.328125 12.15625 50.6875 5.359375 
Q 44.046875 -1.421875 33.015625 -1.421875 
Q 20.359375 -1.421875 13.671875 8.265625 
Q 6.984375 17.96875 6.984375 36.375 
Q 6.984375 53.65625 15.1875 63.9375 
Q 23.390625 74.21875 37.203125 74.21875 
Q 40.921875 74.21875 44.703125 73.484375 
Q 48.484375 72.75 52.59375 71.296875 
z
" id="DejaVuSans-54"/>
     </defs>
     <g transform="translate(296.577812 72.748562)scale(0.1 -0.1)">
      <use xlink:href="#DejaVuSans-78"/>
      <use x="74.804688" xlink:href="#DejaVuSans-111"/>
      <use x="135.986328" xlink:href="#DejaVuSans-116"/>
      <use x="175.195312" xlink:href="#DejaVuSans-32"/>
      <use x="206.982422" xlink:href="#DejaVuSans-109"/>
      <use x="304.394531" xlink:href="#DejaVuSans-121"/>
      <use x="363.574219" xlink:href="#DejaVuSans-111"/>
      <use x="424.755859" xlink:href="#DejaVuSans-99"/>
      <use x="479.736328" xlink:href="#DejaVuSans-97"/>
      <use x="541.015625" xlink:href="#DejaVuSans-114"/>
      <use x="580.378906" xlink:href="#DejaVuSans-100"/>
      <use x="643.855469" xlink:href="#DejaVuSans-105"/>
      <use x="671.638672" xlink:href="#DejaVuSans-116"/>
      <use x="710.847656" xlink:href="#DejaVuSans-105"/>
      <use x="738.630859" xlink:href="#DejaVuSans-115"/>
      <use x="790.730469" xlink:href="#DejaVuSans-32"/>
      <use x="822.517578" xlink:href="#DejaVuSans-40"/>
      <use x="861.53125" xlink:href="#DejaVuSans-52"/>
      <use x="925.154297" xlink:href="#DejaVuSans-48"/>
      <use x="988.777344" xlink:href="#DejaVuSans-54"/>
      <use x="1052.400391" xlink:href="#DejaVuSans-41"/>
     </g>
    </g>
   </g>
  </g>
 </g>
 <defs>
  <clipPath id="p33159b25b0">
   <rect height="266.112" width="357.12" x="57.6" y="41.472"/>
  </clipPath>
 </defs>
</svg>
