<?xml version="1.0" encoding="utf-8" standalone="no"?>
<!DOCTYPE svg PUBLIC "-//W3C//DTD SVG 1.1//EN"
  "http://www.w3.org/Graphics/SVG/1.1/DTD/svg11.dtd">
<!-- Created with matplotlib (https://matplotlib.org/) -->
<svg height="345.6pt" version="1.1" viewBox="0 0 460.8 345.6" width="460.8pt" xmlns="http://www.w3.org/2000/svg" xmlns:xlink="http://www.w3.org/1999/xlink">
 <defs>
  <style type="text/css">
*{stroke-linecap:butt;stroke-linejoin:round;}
  </style>
 </defs>
 <g id="figure_1">
  <g id="patch_1">
   <path d="M 0 345.6 
L 460.8 345.6 
L 460.8 0 
L 0 0 
z
" style="fill:#ffffff;"/>
  </g>
  <g id="axes_1">
   <g id="patch_2">
    <path d="M 57.6 307.584 
L 414.72 307.584 
L 414.72 41.472 
L 57.6 41.472 
z
" style="fill:#ffffff;"/>
   </g>
   <g id="PolyCollection_1">
    <defs>
     <path d="M 73.832727 -164.591077 
L 73.832727 -177.552923 
L 76.131737 -178.999081 
L 78.430746 -180.690141 
L 80.729756 -182.649028 
L 83.028765 -184.896826 
L 85.327774 -187.451827 
L 87.626784 -190.328548 
L 89.925793 -193.536749 
L 92.224803 -197.080506 
L 94.523812 -200.957388 
L 96.822822 -205.157787 
L 99.121831 -209.664445 
L 101.42084 -214.452223 
L 103.71985 -219.488138 
L 106.018859 -224.731683 
L 108.317869 -230.13543 
L 110.616878 -235.645903 
L 112.915888 -241.204697 
L 115.214897 -246.749791 
L 117.513906 -252.217011 
L 119.812916 -257.541576 
L 122.111925 -262.65968 
L 124.410935 -267.51003 
L 126.709944 -272.035304 
L 129.008954 -276.183472 
L 131.307963 -279.908956 
L 133.606972 -283.173592 
L 135.905982 -285.947398 
L 138.204991 -288.209138 
L 140.504001 -289.946683 
L 142.80301 -291.157193 
L 145.10202 -291.847111 
L 147.401029 -292.032 
L 149.700038 -291.736199 
L 151.999048 -290.992325 
L 154.298057 -289.840594 
L 156.597067 -288.327967 
L 158.896076 -286.5071 
L 161.195086 -284.435103 
L 163.494095 -282.172103 
L 165.793104 -279.779636 
L 168.092114 -277.318886 
L 170.391123 -274.848827 
L 172.690133 -272.424333 
L 174.989142 -270.094323 
L 177.288151 -267.900053 
L 179.587161 -265.873631 
L 181.88617 -264.036858 
L 184.18518 -262.400484 
L 186.484189 -260.963938 
L 188.783199 -259.715573 
L 191.082208 -258.633447 
L 193.381217 -257.686607 
L 195.680227 -256.836824 
L 197.979236 -256.040683 
L 200.278246 -255.251925 
L 202.577255 -254.42389 
L 204.876265 -253.511931 
L 207.175274 -252.475644 
L 209.474283 -251.280792 
L 211.773293 -249.900819 
L 214.072302 -248.317856 
L 216.371312 -246.523201 
L 218.670321 -244.51726 
L 220.969331 -242.308968 
L 223.26834 -239.914784 
L 225.567349 -237.357335 
L 227.866359 -234.663825 
L 230.165368 -231.864337 
L 232.464378 -228.990145 
L 234.763387 -226.072143 
L 237.062397 -223.139499 
L 239.361406 -220.218573 
L 241.660415 -217.332175 
L 243.959425 -214.499148 
L 246.258434 -211.734271 
L 248.557444 -209.04845 
L 250.856453 -206.44913 
L 253.155463 -203.940869 
L 255.454472 -201.526009 
L 257.753481 -199.205353 
L 260.052491 -196.978818 
L 262.3515 -194.845988 
L 264.65051 -192.806546 
L 266.949519 -190.860565 
L 269.248529 -189.008651 
L 271.547538 -187.251951 
L 273.846547 -185.592051 
L 276.145557 -184.030777 
L 278.444566 -182.569958 
L 280.743576 -181.211153 
L 283.042585 -179.955399 
L 285.341595 -178.802988 
L 287.640604 -177.753297 
L 289.939613 -176.80468 
L 292.238623 -175.954436 
L 294.537632 -175.198837 
L 296.836642 -174.533211 
L 299.135651 -173.952083 
L 301.434661 -173.449342 
L 301.434661 -168.694658 
L 301.434661 -168.694658 
L 299.135651 -168.191917 
L 296.836642 -167.610789 
L 294.537632 -166.945163 
L 292.238623 -166.189564 
L 289.939613 -165.33932 
L 287.640604 -164.390703 
L 285.341595 -163.341012 
L 283.042585 -162.188601 
L 280.743576 -160.932847 
L 278.444566 -159.574042 
L 276.145557 -158.113223 
L 273.846547 -156.551949 
L 271.547538 -154.892049 
L 269.248529 -153.135349 
L 266.949519 -151.283435 
L 264.65051 -149.337454 
L 262.3515 -147.298012 
L 260.052491 -145.165182 
L 257.753481 -142.938647 
L 255.454472 -140.617991 
L 253.155463 -138.203131 
L 250.856453 -135.69487 
L 248.557444 -133.09555 
L 246.258434 -130.409729 
L 243.959425 -127.644852 
L 241.660415 -124.811825 
L 239.361406 -121.925427 
L 237.062397 -119.004501 
L 234.763387 -116.071857 
L 232.464378 -113.153855 
L 230.165368 -110.279663 
L 227.866359 -107.480175 
L 225.567349 -104.786665 
L 223.26834 -102.229216 
L 220.969331 -99.835032 
L 218.670321 -97.62674 
L 216.371312 -95.620799 
L 214.072302 -93.826144 
L 211.773293 -92.243181 
L 209.474283 -90.863208 
L 207.175274 -89.668356 
L 204.876265 -88.632069 
L 202.577255 -87.72011 
L 200.278246 -86.892075 
L 197.979236 -86.103317 
L 195.680227 -85.307176 
L 193.381217 -84.457393 
L 191.082208 -83.510553 
L 188.783199 -82.428427 
L 186.484189 -81.180062 
L 184.18518 -79.743516 
L 181.88617 -78.107142 
L 179.587161 -76.270369 
L 177.288151 -74.243947 
L 174.989142 -72.049677 
L 172.690133 -69.719667 
L 170.391123 -67.295173 
L 168.092114 -64.825114 
L 165.793104 -62.364364 
L 163.494095 -59.971897 
L 161.195086 -57.708897 
L 158.896076 -55.6369 
L 156.597067 -53.816033 
L 154.298057 -52.303406 
L 151.999048 -51.151675 
L 149.700038 -50.407801 
L 147.401029 -50.112 
L 145.10202 -50.296889 
L 142.80301 -50.986807 
L 140.504001 -52.197317 
L 138.204991 -53.934862 
L 135.905982 -56.196602 
L 133.606972 -58.970408 
L 131.307963 -62.235044 
L 129.008954 -65.960528 
L 126.709944 -70.108696 
L 124.410935 -74.63397 
L 122.111925 -79.48432 
L 119.812916 -84.602424 
L 117.513906 -89.926989 
L 115.214897 -95.394209 
L 112.915888 -100.939303 
L 110.616878 -106.498097 
L 108.317869 -112.00857 
L 106.018859 -117.412317 
L 103.71985 -122.655862 
L 101.42084 -127.691777 
L 99.121831 -132.479555 
L 96.822822 -136.986213 
L 94.523812 -141.186612 
L 92.224803 -145.063494 
L 89.925793 -148.607251 
L 87.626784 -151.815452 
L 85.327774 -154.692173 
L 83.028765 -157.247174 
L 80.729756 -159.494972 
L 78.430746 -161.453859 
L 76.131737 -163.144919 
L 73.832727 -164.591077 
z
" id="m7daa7d8e9c" style="stroke:#4c4c4c;stroke-opacity:0.5;stroke-width:1.5;"/>
    </defs>
    <g clip-path="url(#p42941580ad)">
     <use style="fill:#df9c20;fill-opacity:0.5;stroke:#4c4c4c;stroke-opacity:0.5;stroke-width:1.5;" x="0" xlink:href="#m7daa7d8e9c" y="345.6"/>
    </g>
   </g>
   <g id="PolyCollection_2">
    <defs>
     <path d="M 92.250458 -166.802247 
L 92.250458 -175.341753 
L 95.343759 -177.888851 
L 98.43706 -181.536991 
L 101.530362 -186.530467 
L 104.623663 -193.060627 
L 107.716964 -201.216039 
L 110.810265 -210.936185 
L 113.903566 -221.980626 
L 116.996867 -233.924508 
L 120.090169 -246.186613 
L 123.18347 -258.088901 
L 126.276771 -268.938535 
L 129.370072 -278.117231 
L 132.463373 -285.160287 
L 135.556674 -289.809734 
L 138.649975 -292.032 
L 141.743277 -291.998682 
L 144.836578 -290.037178 
L 147.929879 -286.56395 
L 151.02318 -282.015773 
L 154.116481 -276.792904 
L 157.209782 -271.223594 
L 160.303084 -265.55289 
L 163.396385 -259.952316 
L 166.489686 -254.542261 
L 169.582987 -249.416931 
L 172.676288 -244.662713 
L 175.769589 -240.364356 
L 178.862891 -236.598091 
L 181.956192 -233.41551 
L 185.049493 -230.825146 
L 188.142794 -228.779574 
L 191.236095 -227.174105 
L 194.329396 -225.859494 
L 197.422697 -224.666541 
L 200.515999 -223.436602 
L 203.6093 -222.049951 
L 206.702601 -220.444452 
L 209.795902 -218.619843 
L 212.889203 -216.627081 
L 215.982504 -214.546439 
L 219.075806 -212.460858 
L 222.169107 -210.431902 
L 225.262408 -208.484364 
L 228.355709 -206.602747 
L 231.44901 -204.739507 
L 234.542311 -202.831894 
L 237.635613 -200.822344 
L 240.728914 -198.676853 
L 243.822215 -196.396736 
L 246.915516 -194.021231 
L 250.008817 -191.620871 
L 253.102118 -189.283849 
L 256.195419 -187.099052 
L 259.288721 -185.139823 
L 262.382022 -183.451822 
L 265.475323 -182.0471 
L 268.568624 -180.904934 
L 271.661925 -179.978636 
L 274.755226 -179.206547 
L 277.848528 -178.524814 
L 280.941829 -177.879365 
L 284.03513 -177.234717 
L 287.128431 -176.577977 
L 290.221732 -175.917467 
L 293.315033 -175.27672 
L 296.408335 -174.685719 
L 299.501636 -174.171895 
L 302.594937 -173.753209 
L 305.688238 -173.434841 
L 308.781539 -173.209739 
L 311.87484 -173.06207 
L 314.968141 -172.971934 
L 318.061443 -172.919638 
L 321.154744 -172.888426 
L 324.248045 -172.865407 
L 327.341346 -172.841231 
L 330.434647 -172.809381 
L 333.527948 -172.765848 
L 336.62125 -172.709419 
L 339.714551 -172.642222 
L 342.807852 -172.569878 
L 345.901153 -172.500657 
L 348.994454 -172.44348 
L 352.087755 -172.405209 
L 355.181057 -172.388081 
L 358.274358 -172.388253 
L 361.367659 -172.396099 
L 364.46096 -172.398286 
L 367.554261 -172.38107 
L 370.647562 -172.333786 
L 373.740863 -172.251473 
L 376.834165 -172.135928 
L 379.927466 -171.99497 
L 383.020767 -171.840319 
L 386.114068 -171.684837 
L 389.207369 -171.539945 
L 392.30067 -171.413849 
L 395.393972 -171.310838 
L 398.487273 -171.231551 
L 398.487273 -170.912449 
L 398.487273 -170.912449 
L 395.393972 -170.833162 
L 392.30067 -170.730151 
L 389.207369 -170.604055 
L 386.114068 -170.459163 
L 383.020767 -170.303681 
L 379.927466 -170.14903 
L 376.834165 -170.008072 
L 373.740863 -169.892527 
L 370.647562 -169.810214 
L 367.554261 -169.76293 
L 364.46096 -169.745714 
L 361.367659 -169.747901 
L 358.274358 -169.755747 
L 355.181057 -169.755919 
L 352.087755 -169.738791 
L 348.994454 -169.70052 
L 345.901153 -169.643343 
L 342.807852 -169.574122 
L 339.714551 -169.501778 
L 336.62125 -169.434581 
L 333.527948 -169.378152 
L 330.434647 -169.334619 
L 327.341346 -169.302769 
L 324.248045 -169.278593 
L 321.154744 -169.255574 
L 318.061443 -169.224362 
L 314.968141 -169.172066 
L 311.87484 -169.08193 
L 308.781539 -168.934261 
L 305.688238 -168.709159 
L 302.594937 -168.390791 
L 299.501636 -167.972105 
L 296.408335 -167.458281 
L 293.315033 -166.86728 
L 290.221732 -166.226533 
L 287.128431 -165.566023 
L 284.03513 -164.909283 
L 280.941829 -164.264635 
L 277.848528 -163.619186 
L 274.755226 -162.937453 
L 271.661925 -162.165364 
L 268.568624 -161.239066 
L 265.475323 -160.0969 
L 262.382022 -158.692178 
L 259.288721 -157.004177 
L 256.195419 -155.044948 
L 253.102118 -152.860151 
L 250.008817 -150.523129 
L 246.915516 -148.122769 
L 243.822215 -145.747264 
L 240.728914 -143.467147 
L 237.635613 -141.321656 
L 234.542311 -139.312106 
L 231.44901 -137.404493 
L 228.355709 -135.541253 
L 225.262408 -133.659636 
L 222.169107 -131.712098 
L 219.075806 -129.683142 
L 215.982504 -127.597561 
L 212.889203 -125.516919 
L 209.795902 -123.524157 
L 206.702601 -121.699548 
L 203.6093 -120.094049 
L 200.515999 -118.707398 
L 197.422697 -117.477459 
L 194.329396 -116.284506 
L 191.236095 -114.969895 
L 188.142794 -113.364426 
L 185.049493 -111.318854 
L 181.956192 -108.72849 
L 178.862891 -105.545909 
L 175.769589 -101.779644 
L 172.676288 -97.481287 
L 169.582987 -92.727069 
L 166.489686 -87.601739 
L 163.396385 -82.191684 
L 160.303084 -76.59111 
L 157.209782 -70.920406 
L 154.116481 -65.351096 
L 151.02318 -60.128227 
L 147.929879 -55.58005 
L 144.836578 -52.106822 
L 141.743277 -50.145318 
L 138.649975 -50.112 
L 135.556674 -52.334266 
L 132.463373 -56.983713 
L 129.370072 -64.026769 
L 126.276771 -73.205465 
L 123.18347 -84.055099 
L 120.090169 -95.957387 
L 116.996867 -108.219492 
L 113.903566 -120.163374 
L 110.810265 -131.207815 
L 107.716964 -140.927961 
L 104.623663 -149.083373 
L 101.530362 -155.613533 
L 98.43706 -160.607009 
L 95.343759 -164.255149 
L 92.250458 -166.802247 
z
" id="mdb51da536b" style="stroke:#262626;stroke-opacity:0.5;stroke-width:1.5;"/>
    </defs>
    <g clip-path="url(#p42941580ad)">
     <use style="fill:#107010;fill-opacity:0.5;stroke:#262626;stroke-opacity:0.5;stroke-width:1.5;" x="0" xlink:href="#mdb51da536b" y="345.6"/>
    </g>
   </g>
   <g id="matplotlib.axis_1">
    <g id="xtick_1">
     <g id="line2d_1">
      <defs>
       <path d="M 0 0 
L 0 3.5 
" id="m632fb2a775" style="stroke:#000000;stroke-width:0.8;"/>
      </defs>
      <g>
       <use style="stroke:#000000;stroke-width:0.8;" x="119.660402" xlink:href="#m632fb2a775" y="307.584"/>
      </g>
     </g>
     <g id="text_1">
      <!-- 0 -->
      <defs>
       <path d="M 31.78125 66.40625 
Q 24.171875 66.40625 20.328125 58.90625 
Q 16.5 51.421875 16.5 36.375 
Q 16.5 21.390625 20.328125 13.890625 
Q 24.171875 6.390625 31.78125 6.390625 
Q 39.453125 6.390625 43.28125 13.890625 
Q 47.125 21.390625 47.125 36.375 
Q 47.125 51.421875 43.28125 58.90625 
Q 39.453125 66.40625 31.78125 66.40625 
z
M 31.78125 74.21875 
Q 44.046875 74.21875 50.515625 64.515625 
Q 56.984375 54.828125 56.984375 36.375 
Q 56.984375 17.96875 50.515625 8.265625 
Q 44.046875 -1.421875 31.78125 -1.421875 
Q 19.53125 -1.421875 13.0625 8.265625 
Q 6.59375 17.96875 6.59375 36.375 
Q 6.59375 54.828125 13.0625 64.515625 
Q 19.53125 74.21875 31.78125 74.21875 
z
" id="DejaVuSans-48"/>
      </defs>
      <g transform="translate(116.479152 322.182437)scale(0.1 -0.1)">
       <use xlink:href="#DejaVuSans-48"/>
      </g>
     </g>
    </g>
    <g id="xtick_2">
     <g id="line2d_2">
      <g>
       <use style="stroke:#000000;stroke-width:0.8;" x="186.794517" xlink:href="#m632fb2a775" y="307.584"/>
      </g>
     </g>
     <g id="text_2">
      <!-- 20 -->
      <defs>
       <path d="M 19.1875 8.296875 
L 53.609375 8.296875 
L 53.609375 0 
L 7.328125 0 
L 7.328125 8.296875 
Q 12.9375 14.109375 22.625 23.890625 
Q 32.328125 33.6875 34.8125 36.53125 
Q 39.546875 41.84375 41.421875 45.53125 
Q 43.3125 49.21875 43.3125 52.78125 
Q 43.3125 58.59375 39.234375 62.25 
Q 35.15625 65.921875 28.609375 65.921875 
Q 23.96875 65.921875 18.8125 64.3125 
Q 13.671875 62.703125 7.8125 59.421875 
L 7.8125 69.390625 
Q 13.765625 71.78125 18.9375 73 
Q 24.125 74.21875 28.421875 74.21875 
Q 39.75 74.21875 46.484375 68.546875 
Q 53.21875 62.890625 53.21875 53.421875 
Q 53.21875 48.921875 51.53125 44.890625 
Q 49.859375 40.875 45.40625 35.40625 
Q 44.1875 33.984375 37.640625 27.21875 
Q 31.109375 20.453125 19.1875 8.296875 
z
" id="DejaVuSans-50"/>
      </defs>
      <g transform="translate(180.432017 322.182437)scale(0.1 -0.1)">
       <use xlink:href="#DejaVuSans-50"/>
       <use x="63.623047" xlink:href="#DejaVuSans-48"/>
      </g>
     </g>
    </g>
    <g id="xtick_3">
     <g id="line2d_3">
      <g>
       <use style="stroke:#000000;stroke-width:0.8;" x="253.928633" xlink:href="#m632fb2a775" y="307.584"/>
      </g>
     </g>
     <g id="text_3">
      <!-- 40 -->
      <defs>
       <path d="M 37.796875 64.3125 
L 12.890625 25.390625 
L 37.796875 25.390625 
z
M 35.203125 72.90625 
L 47.609375 72.90625 
L 47.609375 25.390625 
L 58.015625 25.390625 
L 58.015625 17.1875 
L 47.609375 17.1875 
L 47.609375 0 
L 37.796875 0 
L 37.796875 17.1875 
L 4.890625 17.1875 
L 4.890625 26.703125 
z
" id="DejaVuSans-52"/>
      </defs>
      <g transform="translate(247.566133 322.182437)scale(0.1 -0.1)">
       <use xlink:href="#DejaVuSans-52"/>
       <use x="63.623047" xlink:href="#DejaVuSans-48"/>
      </g>
     </g>
    </g>
    <g id="xtick_4">
     <g id="line2d_4">
      <g>
       <use style="stroke:#000000;stroke-width:0.8;" x="321.062749" xlink:href="#m632fb2a775" y="307.584"/>
      </g>
     </g>
     <g id="text_4">
      <!-- 60 -->
      <defs>
       <path d="M 33.015625 40.375 
Q 26.375 40.375 22.484375 35.828125 
Q 18.609375 31.296875 18.609375 23.390625 
Q 18.609375 15.53125 22.484375 10.953125 
Q 26.375 6.390625 33.015625 6.390625 
Q 39.65625 6.390625 43.53125 10.953125 
Q 47.40625 15.53125 47.40625 23.390625 
Q 47.40625 31.296875 43.53125 35.828125 
Q 39.65625 40.375 33.015625 40.375 
z
M 52.59375 71.296875 
L 52.59375 62.3125 
Q 48.875 64.0625 45.09375 64.984375 
Q 41.3125 65.921875 37.59375 65.921875 
Q 27.828125 65.921875 22.671875 59.328125 
Q 17.53125 52.734375 16.796875 39.40625 
Q 19.671875 43.65625 24.015625 45.921875 
Q 28.375 48.1875 33.59375 48.1875 
Q 44.578125 48.1875 50.953125 41.515625 
Q 57.328125 34.859375 57.328125 23.390625 
Q 57.328125 12.15625 50.6875 5.359375 
Q 44.046875 -1.421875 33.015625 -1.421875 
Q 20.359375 -1.421875 13.671875 8.265625 
Q 6.984375 17.96875 6.984375 36.375 
Q 6.984375 53.65625 15.1875 63.9375 
Q 23.390625 74.21875 37.203125 74.21875 
Q 40.921875 74.21875 44.703125 73.484375 
Q 48.484375 72.75 52.59375 71.296875 
z
" id="DejaVuSans-54"/>
      </defs>
      <g transform="translate(314.700249 322.182437)scale(0.1 -0.1)">
       <use xlink:href="#DejaVuSans-54"/>
       <use x="63.623047" xlink:href="#DejaVuSans-48"/>
      </g>
     </g>
    </g>
    <g id="xtick_5">
     <g id="line2d_5">
      <g>
       <use style="stroke:#000000;stroke-width:0.8;" x="388.196864" xlink:href="#m632fb2a775" y="307.584"/>
      </g>
     </g>
     <g id="text_5">
      <!-- 80 -->
      <defs>
       <path d="M 31.78125 34.625 
Q 24.75 34.625 20.71875 30.859375 
Q 16.703125 27.09375 16.703125 20.515625 
Q 16.703125 13.921875 20.71875 10.15625 
Q 24.75 6.390625 31.78125 6.390625 
Q 38.8125 6.390625 42.859375 10.171875 
Q 46.921875 13.96875 46.921875 20.515625 
Q 46.921875 27.09375 42.890625 30.859375 
Q 38.875 34.625 31.78125 34.625 
z
M 21.921875 38.8125 
Q 15.578125 40.375 12.03125 44.71875 
Q 8.5 49.078125 8.5 55.328125 
Q 8.5 64.0625 14.71875 69.140625 
Q 20.953125 74.21875 31.78125 74.21875 
Q 42.671875 74.21875 48.875 69.140625 
Q 55.078125 64.0625 55.078125 55.328125 
Q 55.078125 49.078125 51.53125 44.71875 
Q 48 40.375 41.703125 38.8125 
Q 48.828125 37.15625 52.796875 32.3125 
Q 56.78125 27.484375 56.78125 20.515625 
Q 56.78125 9.90625 50.3125 4.234375 
Q 43.84375 -1.421875 31.78125 -1.421875 
Q 19.734375 -1.421875 13.25 4.234375 
Q 6.78125 9.90625 6.78125 20.515625 
Q 6.78125 27.484375 10.78125 32.3125 
Q 14.796875 37.15625 21.921875 38.8125 
z
M 18.3125 54.390625 
Q 18.3125 48.734375 21.84375 45.5625 
Q 25.390625 42.390625 31.78125 42.390625 
Q 38.140625 42.390625 41.71875 45.5625 
Q 45.3125 48.734375 45.3125 54.390625 
Q 45.3125 60.0625 41.71875 63.234375 
Q 38.140625 66.40625 31.78125 66.40625 
Q 25.390625 66.40625 21.84375 63.234375 
Q 18.3125 60.0625 18.3125 54.390625 
z
" id="DejaVuSans-56"/>
      </defs>
      <g transform="translate(381.834364 322.182437)scale(0.1 -0.1)">
       <use xlink:href="#DejaVuSans-56"/>
       <use x="63.623047" xlink:href="#DejaVuSans-48"/>
      </g>
     </g>
    </g>
    <g id="text_6">
     <!-- crppeakac -->
     <defs>
      <path d="M 48.78125 52.59375 
L 48.78125 44.1875 
Q 44.96875 46.296875 41.140625 47.34375 
Q 37.3125 48.390625 33.40625 48.390625 
Q 24.65625 48.390625 19.8125 42.84375 
Q 14.984375 37.3125 14.984375 27.296875 
Q 14.984375 17.28125 19.8125 11.734375 
Q 24.65625 6.203125 33.40625 6.203125 
Q 37.3125 6.203125 41.140625 7.25 
Q 44.96875 8.296875 48.78125 10.40625 
L 48.78125 2.09375 
Q 45.015625 0.34375 40.984375 -0.53125 
Q 36.96875 -1.421875 32.421875 -1.421875 
Q 20.0625 -1.421875 12.78125 6.34375 
Q 5.515625 14.109375 5.515625 27.296875 
Q 5.515625 40.671875 12.859375 48.328125 
Q 20.21875 56 33.015625 56 
Q 37.15625 56 41.109375 55.140625 
Q 45.0625 54.296875 48.78125 52.59375 
z
" id="DejaVuSans-99"/>
      <path d="M 41.109375 46.296875 
Q 39.59375 47.171875 37.8125 47.578125 
Q 36.03125 48 33.890625 48 
Q 26.265625 48 22.1875 43.046875 
Q 18.109375 38.09375 18.109375 28.8125 
L 18.109375 0 
L 9.078125 0 
L 9.078125 54.6875 
L 18.109375 54.6875 
L 18.109375 46.1875 
Q 20.953125 51.171875 25.484375 53.578125 
Q 30.03125 56 36.53125 56 
Q 37.453125 56 38.578125 55.875 
Q 39.703125 55.765625 41.0625 55.515625 
z
" id="DejaVuSans-114"/>
      <path d="M 18.109375 8.203125 
L 18.109375 -20.796875 
L 9.078125 -20.796875 
L 9.078125 54.6875 
L 18.109375 54.6875 
L 18.109375 46.390625 
Q 20.953125 51.265625 25.265625 53.625 
Q 29.59375 56 35.59375 56 
Q 45.5625 56 51.78125 48.09375 
Q 58.015625 40.1875 58.015625 27.296875 
Q 58.015625 14.40625 51.78125 6.484375 
Q 45.5625 -1.421875 35.59375 -1.421875 
Q 29.59375 -1.421875 25.265625 0.953125 
Q 20.953125 3.328125 18.109375 8.203125 
z
M 48.6875 27.296875 
Q 48.6875 37.203125 44.609375 42.84375 
Q 40.53125 48.484375 33.40625 48.484375 
Q 26.265625 48.484375 22.1875 42.84375 
Q 18.109375 37.203125 18.109375 27.296875 
Q 18.109375 17.390625 22.1875 11.75 
Q 26.265625 6.109375 33.40625 6.109375 
Q 40.53125 6.109375 44.609375 11.75 
Q 48.6875 17.390625 48.6875 27.296875 
z
" id="DejaVuSans-112"/>
      <path d="M 56.203125 29.59375 
L 56.203125 25.203125 
L 14.890625 25.203125 
Q 15.484375 15.921875 20.484375 11.0625 
Q 25.484375 6.203125 34.421875 6.203125 
Q 39.59375 6.203125 44.453125 7.46875 
Q 49.3125 8.734375 54.109375 11.28125 
L 54.109375 2.78125 
Q 49.265625 0.734375 44.1875 -0.34375 
Q 39.109375 -1.421875 33.890625 -1.421875 
Q 20.796875 -1.421875 13.15625 6.1875 
Q 5.515625 13.8125 5.515625 26.8125 
Q 5.515625 40.234375 12.765625 48.109375 
Q 20.015625 56 32.328125 56 
Q 43.359375 56 49.78125 48.890625 
Q 56.203125 41.796875 56.203125 29.59375 
z
M 47.21875 32.234375 
Q 47.125 39.59375 43.09375 43.984375 
Q 39.0625 48.390625 32.421875 48.390625 
Q 24.90625 48.390625 20.390625 44.140625 
Q 15.875 39.890625 15.1875 32.171875 
z
" id="DejaVuSans-101"/>
      <path d="M 34.28125 27.484375 
Q 23.390625 27.484375 19.1875 25 
Q 14.984375 22.515625 14.984375 16.5 
Q 14.984375 11.71875 18.140625 8.90625 
Q 21.296875 6.109375 26.703125 6.109375 
Q 34.1875 6.109375 38.703125 11.40625 
Q 43.21875 16.703125 43.21875 25.484375 
L 43.21875 27.484375 
z
M 52.203125 31.203125 
L 52.203125 0 
L 43.21875 0 
L 43.21875 8.296875 
Q 40.140625 3.328125 35.546875 0.953125 
Q 30.953125 -1.421875 24.3125 -1.421875 
Q 15.921875 -1.421875 10.953125 3.296875 
Q 6 8.015625 6 15.921875 
Q 6 25.140625 12.171875 29.828125 
Q 18.359375 34.515625 30.609375 34.515625 
L 43.21875 34.515625 
L 43.21875 35.40625 
Q 43.21875 41.609375 39.140625 45 
Q 35.0625 48.390625 27.6875 48.390625 
Q 23 48.390625 18.546875 47.265625 
Q 14.109375 46.140625 10.015625 43.890625 
L 10.015625 52.203125 
Q 14.9375 54.109375 19.578125 55.046875 
Q 24.21875 56 28.609375 56 
Q 40.484375 56 46.34375 49.84375 
Q 52.203125 43.703125 52.203125 31.203125 
z
" id="DejaVuSans-97"/>
      <path d="M 9.078125 75.984375 
L 18.109375 75.984375 
L 18.109375 31.109375 
L 44.921875 54.6875 
L 56.390625 54.6875 
L 27.390625 29.109375 
L 57.625 0 
L 45.90625 0 
L 18.109375 26.703125 
L 18.109375 0 
L 9.078125 0 
z
" id="DejaVuSans-107"/>
     </defs>
     <g transform="translate(210.245156 335.860562)scale(0.1 -0.1)">
      <use xlink:href="#DejaVuSans-99"/>
      <use x="54.980469" xlink:href="#DejaVuSans-114"/>
      <use x="96.09375" xlink:href="#DejaVuSans-112"/>
      <use x="159.570312" xlink:href="#DejaVuSans-112"/>
      <use x="223.046875" xlink:href="#DejaVuSans-101"/>
      <use x="284.570312" xlink:href="#DejaVuSans-97"/>
      <use x="345.849609" xlink:href="#DejaVuSans-107"/>
      <use x="402.009766" xlink:href="#DejaVuSans-97"/>
      <use x="463.289062" xlink:href="#DejaVuSans-99"/>
     </g>
    </g>
   </g>
   <g id="matplotlib.axis_2">
    <g id="ytick_1">
     <g id="line2d_6">
      <defs>
       <path d="M 0 0 
L -3.5 0 
" id="m9caa52548c" style="stroke:#000000;stroke-width:0.8;"/>
      </defs>
      <g>
       <use style="stroke:#000000;stroke-width:0.8;" x="57.6" xlink:href="#m9caa52548c" y="174.528"/>
      </g>
     </g>
    </g>
   </g>
   <g id="line2d_7">
    <path clip-path="url(#p42941580ad)" d="M 122.345767 174.528 
L 252.921621 174.528 
" style="fill:none;stroke:#ffa500;stroke-linecap:square;stroke-width:1.5;"/>
   </g>
   <g id="line2d_8">
    <path clip-path="url(#p42941580ad)" d="M 141.059401 174.528 
L 206.431246 174.528 
" style="fill:none;stroke:#4c4c4c;stroke-linecap:square;stroke-width:4.5;"/>
   </g>
   <g id="line2d_9">
    <path clip-path="url(#p42941580ad)" d="M 121.338419 174.528 
L 284.138985 174.528 
" style="fill:none;stroke:#008000;stroke-linecap:square;stroke-width:1.5;"/>
   </g>
   <g id="line2d_10">
    <path clip-path="url(#p42941580ad)" d="M 136.443931 174.528 
L 198.878658 174.528 
" style="fill:none;stroke:#262626;stroke-linecap:square;stroke-width:4.5;"/>
   </g>
   <g id="patch_3">
    <path d="M 57.6 307.584 
L 57.6 41.472 
" style="fill:none;stroke:#000000;stroke-linecap:square;stroke-linejoin:miter;stroke-width:0.8;"/>
   </g>
   <g id="patch_4">
    <path d="M 414.72 307.584 
L 414.72 41.472 
" style="fill:none;stroke:#000000;stroke-linecap:square;stroke-linejoin:miter;stroke-width:0.8;"/>
   </g>
   <g id="patch_5">
    <path d="M 57.6 307.584 
L 414.72 307.584 
" style="fill:none;stroke:#000000;stroke-linecap:square;stroke-linejoin:miter;stroke-width:0.8;"/>
   </g>
   <g id="patch_6">
    <path d="M 57.6 41.472 
L 414.72 41.472 
" style="fill:none;stroke:#000000;stroke-linecap:square;stroke-linejoin:miter;stroke-width:0.8;"/>
   </g>
   <g id="PathCollection_1">
    <defs>
     <path d="M 0 1.5 
C 0.397805 1.5 0.77937 1.341951 1.06066 1.06066 
C 1.341951 0.77937 1.5 0.397805 1.5 0 
C 1.5 -0.397805 1.341951 -0.77937 1.06066 -1.06066 
C 0.77937 -1.341951 0.397805 -1.5 0 -1.5 
C -0.397805 -1.5 -0.77937 -1.341951 -1.06066 -1.06066 
C -1.341951 -0.77937 -1.5 -0.397805 -1.5 0 
C -1.5 0.397805 -1.341951 0.77937 -1.06066 1.06066 
C -0.77937 1.341951 -0.397805 1.5 0 1.5 
z
" id="m3a95672d08" style="stroke:#4c4c4c;stroke-opacity:0.5;"/>
    </defs>
    <g clip-path="url(#p42941580ad)">
     <use style="fill:#ffffff;fill-opacity:0.5;stroke:#4c4c4c;stroke-opacity:0.5;" x="162.290565" xlink:href="#m3a95672d08" y="174.528"/>
    </g>
   </g>
   <g id="PathCollection_2">
    <defs>
     <path d="M 0 1.5 
C 0.397805 1.5 0.77937 1.341951 1.06066 1.06066 
C 1.341951 0.77937 1.5 0.397805 1.5 0 
C 1.5 -0.397805 1.341951 -0.77937 1.06066 -1.06066 
C 0.77937 -1.341951 0.397805 -1.5 0 -1.5 
C -0.397805 -1.5 -0.77937 -1.341951 -1.06066 -1.06066 
C -1.341951 -0.77937 -1.5 -0.397805 -1.5 0 
C -1.5 0.397805 -1.341951 0.77937 -1.06066 1.06066 
C -0.77937 1.341951 -0.397805 1.5 0 1.5 
z
" id="m68a04b6135" style="stroke:#262626;stroke-opacity:0.5;"/>
    </defs>
    <g clip-path="url(#p42941580ad)">
     <use style="fill:#ffffff;fill-opacity:0.5;stroke:#262626;stroke-opacity:0.5;" x="157.759013" xlink:href="#m68a04b6135" y="174.528"/>
    </g>
   </g>
   <g id="text_7">
    <!-- Association of crppeakac vs. cpap_bpap -->
    <defs>
     <path d="M 34.1875 63.1875 
L 20.796875 26.90625 
L 47.609375 26.90625 
z
M 28.609375 72.90625 
L 39.796875 72.90625 
L 67.578125 0 
L 57.328125 0 
L 50.6875 18.703125 
L 17.828125 18.703125 
L 11.1875 0 
L 0.78125 0 
z
" id="DejaVuSans-65"/>
     <path d="M 44.28125 53.078125 
L 44.28125 44.578125 
Q 40.484375 46.53125 36.375 47.5 
Q 32.28125 48.484375 27.875 48.484375 
Q 21.1875 48.484375 17.84375 46.4375 
Q 14.5 44.390625 14.5 40.28125 
Q 14.5 37.15625 16.890625 35.375 
Q 19.28125 33.59375 26.515625 31.984375 
L 29.59375 31.296875 
Q 39.15625 29.25 43.1875 25.515625 
Q 47.21875 21.78125 47.21875 15.09375 
Q 47.21875 7.46875 41.1875 3.015625 
Q 35.15625 -1.421875 24.609375 -1.421875 
Q 20.21875 -1.421875 15.453125 -0.5625 
Q 10.6875 0.296875 5.421875 2 
L 5.421875 11.28125 
Q 10.40625 8.6875 15.234375 7.390625 
Q 20.0625 6.109375 24.8125 6.109375 
Q 31.15625 6.109375 34.5625 8.28125 
Q 37.984375 10.453125 37.984375 14.40625 
Q 37.984375 18.0625 35.515625 20.015625 
Q 33.0625 21.96875 24.703125 23.78125 
L 21.578125 24.515625 
Q 13.234375 26.265625 9.515625 29.90625 
Q 5.8125 33.546875 5.8125 39.890625 
Q 5.8125 47.609375 11.28125 51.796875 
Q 16.75 56 26.8125 56 
Q 31.78125 56 36.171875 55.265625 
Q 40.578125 54.546875 44.28125 53.078125 
z
" id="DejaVuSans-115"/>
     <path d="M 30.609375 48.390625 
Q 23.390625 48.390625 19.1875 42.75 
Q 14.984375 37.109375 14.984375 27.296875 
Q 14.984375 17.484375 19.15625 11.84375 
Q 23.34375 6.203125 30.609375 6.203125 
Q 37.796875 6.203125 41.984375 11.859375 
Q 46.1875 17.53125 46.1875 27.296875 
Q 46.1875 37.015625 41.984375 42.703125 
Q 37.796875 48.390625 30.609375 48.390625 
z
M 30.609375 56 
Q 42.328125 56 49.015625 48.375 
Q 55.71875 40.765625 55.71875 27.296875 
Q 55.71875 13.875 49.015625 6.21875 
Q 42.328125 -1.421875 30.609375 -1.421875 
Q 18.84375 -1.421875 12.171875 6.21875 
Q 5.515625 13.875 5.515625 27.296875 
Q 5.515625 40.765625 12.171875 48.375 
Q 18.84375 56 30.609375 56 
z
" id="DejaVuSans-111"/>
     <path d="M 9.421875 54.6875 
L 18.40625 54.6875 
L 18.40625 0 
L 9.421875 0 
z
M 9.421875 75.984375 
L 18.40625 75.984375 
L 18.40625 64.59375 
L 9.421875 64.59375 
z
" id="DejaVuSans-105"/>
     <path d="M 18.3125 70.21875 
L 18.3125 54.6875 
L 36.8125 54.6875 
L 36.8125 47.703125 
L 18.3125 47.703125 
L 18.3125 18.015625 
Q 18.3125 11.328125 20.140625 9.421875 
Q 21.96875 7.515625 27.59375 7.515625 
L 36.8125 7.515625 
L 36.8125 0 
L 27.59375 0 
Q 17.1875 0 13.234375 3.875 
Q 9.28125 7.765625 9.28125 18.015625 
L 9.28125 47.703125 
L 2.6875 47.703125 
L 2.6875 54.6875 
L 9.28125 54.6875 
L 9.28125 70.21875 
z
" id="DejaVuSans-116"/>
     <path d="M 54.890625 33.015625 
L 54.890625 0 
L 45.90625 0 
L 45.90625 32.71875 
Q 45.90625 40.484375 42.875 44.328125 
Q 39.84375 48.1875 33.796875 48.1875 
Q 26.515625 48.1875 22.3125 43.546875 
Q 18.109375 38.921875 18.109375 30.90625 
L 18.109375 0 
L 9.078125 0 
L 9.078125 54.6875 
L 18.109375 54.6875 
L 18.109375 46.1875 
Q 21.34375 51.125 25.703125 53.5625 
Q 30.078125 56 35.796875 56 
Q 45.21875 56 50.046875 50.171875 
Q 54.890625 44.34375 54.890625 33.015625 
z
" id="DejaVuSans-110"/>
     <path id="DejaVuSans-32"/>
     <path d="M 37.109375 75.984375 
L 37.109375 68.5 
L 28.515625 68.5 
Q 23.6875 68.5 21.796875 66.546875 
Q 19.921875 64.59375 19.921875 59.515625 
L 19.921875 54.6875 
L 34.71875 54.6875 
L 34.71875 47.703125 
L 19.921875 47.703125 
L 19.921875 0 
L 10.890625 0 
L 10.890625 47.703125 
L 2.296875 47.703125 
L 2.296875 54.6875 
L 10.890625 54.6875 
L 10.890625 58.5 
Q 10.890625 67.625 15.140625 71.796875 
Q 19.390625 75.984375 28.609375 75.984375 
z
" id="DejaVuSans-102"/>
     <path d="M 2.984375 54.6875 
L 12.5 54.6875 
L 29.59375 8.796875 
L 46.6875 54.6875 
L 56.203125 54.6875 
L 35.6875 0 
L 23.484375 0 
z
" id="DejaVuSans-118"/>
     <path d="M 10.6875 12.40625 
L 21 12.40625 
L 21 0 
L 10.6875 0 
z
" id="DejaVuSans-46"/>
     <path d="M 50.984375 -16.609375 
L 50.984375 -23.578125 
L -0.984375 -23.578125 
L -0.984375 -16.609375 
z
" id="DejaVuSans-95"/>
     <path d="M 48.6875 27.296875 
Q 48.6875 37.203125 44.609375 42.84375 
Q 40.53125 48.484375 33.40625 48.484375 
Q 26.265625 48.484375 22.1875 42.84375 
Q 18.109375 37.203125 18.109375 27.296875 
Q 18.109375 17.390625 22.1875 11.75 
Q 26.265625 6.109375 33.40625 6.109375 
Q 40.53125 6.109375 44.609375 11.75 
Q 48.6875 17.390625 48.6875 27.296875 
z
M 18.109375 46.390625 
Q 20.953125 51.265625 25.265625 53.625 
Q 29.59375 56 35.59375 56 
Q 45.5625 56 51.78125 48.09375 
Q 58.015625 40.1875 58.015625 27.296875 
Q 58.015625 14.40625 51.78125 6.484375 
Q 45.5625 -1.421875 35.59375 -1.421875 
Q 29.59375 -1.421875 25.265625 0.953125 
Q 20.953125 3.328125 18.109375 8.203125 
L 18.109375 0 
L 9.078125 0 
L 9.078125 75.984375 
L 18.109375 75.984375 
z
" id="DejaVuSans-98"/>
    </defs>
    <g transform="translate(116.206875 35.472)scale(0.12 -0.12)">
     <use xlink:href="#DejaVuSans-65"/>
     <use x="68.408203" xlink:href="#DejaVuSans-115"/>
     <use x="120.507812" xlink:href="#DejaVuSans-115"/>
     <use x="172.607422" xlink:href="#DejaVuSans-111"/>
     <use x="233.789062" xlink:href="#DejaVuSans-99"/>
     <use x="288.769531" xlink:href="#DejaVuSans-105"/>
     <use x="316.552734" xlink:href="#DejaVuSans-97"/>
     <use x="377.832031" xlink:href="#DejaVuSans-116"/>
     <use x="417.041016" xlink:href="#DejaVuSans-105"/>
     <use x="444.824219" xlink:href="#DejaVuSans-111"/>
     <use x="506.005859" xlink:href="#DejaVuSans-110"/>
     <use x="569.384766" xlink:href="#DejaVuSans-32"/>
     <use x="601.171875" xlink:href="#DejaVuSans-111"/>
     <use x="662.353516" xlink:href="#DejaVuSans-102"/>
     <use x="697.558594" xlink:href="#DejaVuSans-32"/>
     <use x="729.345703" xlink:href="#DejaVuSans-99"/>
     <use x="784.326172" xlink:href="#DejaVuSans-114"/>
     <use x="825.439453" xlink:href="#DejaVuSans-112"/>
     <use x="888.916016" xlink:href="#DejaVuSans-112"/>
     <use x="952.392578" xlink:href="#DejaVuSans-101"/>
     <use x="1013.916016" xlink:href="#DejaVuSans-97"/>
     <use x="1075.195312" xlink:href="#DejaVuSans-107"/>
     <use x="1131.355469" xlink:href="#DejaVuSans-97"/>
     <use x="1192.634766" xlink:href="#DejaVuSans-99"/>
     <use x="1247.615234" xlink:href="#DejaVuSans-32"/>
     <use x="1279.402344" xlink:href="#DejaVuSans-118"/>
     <use x="1338.582031" xlink:href="#DejaVuSans-115"/>
     <use x="1390.681641" xlink:href="#DejaVuSans-46"/>
     <use x="1422.46875" xlink:href="#DejaVuSans-32"/>
     <use x="1454.255859" xlink:href="#DejaVuSans-99"/>
     <use x="1509.236328" xlink:href="#DejaVuSans-112"/>
     <use x="1572.712891" xlink:href="#DejaVuSans-97"/>
     <use x="1633.992188" xlink:href="#DejaVuSans-112"/>
     <use x="1697.46875" xlink:href="#DejaVuSans-95"/>
     <use x="1747.46875" xlink:href="#DejaVuSans-98"/>
     <use x="1810.945312" xlink:href="#DejaVuSans-112"/>
     <use x="1874.421875" xlink:href="#DejaVuSans-97"/>
     <use x="1935.701172" xlink:href="#DejaVuSans-112"/>
    </g>
   </g>
   <g id="legend_1">
    <g id="patch_7">
     <path d="M 270.455938 79.3845 
L 407.72 79.3845 
Q 409.72 79.3845 409.72 77.3845 
L 409.72 48.472 
Q 409.72 46.472 407.72 46.472 
L 270.455938 46.472 
Q 268.455938 46.472 268.455938 48.472 
L 268.455938 77.3845 
Q 268.455938 79.3845 270.455938 79.3845 
z
" style="fill:#ffffff;opacity:0.8;stroke:#cccccc;stroke-linejoin:miter;"/>
    </g>
    <g id="line2d_11">
     <path d="M 272.455938 54.570438 
L 292.455938 54.570438 
" style="fill:none;stroke:#ffa500;stroke-linecap:square;stroke-width:1.5;"/>
    </g>
    <g id="line2d_12"/>
    <g id="text_8">
     <!-- cpap_bpap (14) -->
     <defs>
      <path d="M 31 75.875 
Q 24.46875 64.65625 21.28125 53.65625 
Q 18.109375 42.671875 18.109375 31.390625 
Q 18.109375 20.125 21.3125 9.0625 
Q 24.515625 -2 31 -13.1875 
L 23.1875 -13.1875 
Q 15.875 -1.703125 12.234375 9.375 
Q 8.59375 20.453125 8.59375 31.390625 
Q 8.59375 42.28125 12.203125 53.3125 
Q 15.828125 64.359375 23.1875 75.875 
z
" id="DejaVuSans-40"/>
      <path d="M 12.40625 8.296875 
L 28.515625 8.296875 
L 28.515625 63.921875 
L 10.984375 60.40625 
L 10.984375 69.390625 
L 28.421875 72.90625 
L 38.28125 72.90625 
L 38.28125 8.296875 
L 54.390625 8.296875 
L 54.390625 0 
L 12.40625 0 
z
" id="DejaVuSans-49"/>
      <path d="M 8.015625 75.875 
L 15.828125 75.875 
Q 23.140625 64.359375 26.78125 53.3125 
Q 30.421875 42.28125 30.421875 31.390625 
Q 30.421875 20.453125 26.78125 9.375 
Q 23.140625 -1.703125 15.828125 -13.1875 
L 8.015625 -13.1875 
Q 14.5 -2 17.703125 9.0625 
Q 20.90625 20.125 20.90625 31.390625 
Q 20.90625 42.671875 17.703125 53.65625 
Q 14.5 64.65625 8.015625 75.875 
z
" id="DejaVuSans-41"/>
     </defs>
     <g transform="translate(300.455938 58.070438)scale(0.1 -0.1)">
      <use xlink:href="#DejaVuSans-99"/>
      <use x="54.980469" xlink:href="#DejaVuSans-112"/>
      <use x="118.457031" xlink:href="#DejaVuSans-97"/>
      <use x="179.736328" xlink:href="#DejaVuSans-112"/>
      <use x="243.212891" xlink:href="#DejaVuSans-95"/>
      <use x="293.212891" xlink:href="#DejaVuSans-98"/>
      <use x="356.689453" xlink:href="#DejaVuSans-112"/>
      <use x="420.166016" xlink:href="#DejaVuSans-97"/>
      <use x="481.445312" xlink:href="#DejaVuSans-112"/>
      <use x="544.921875" xlink:href="#DejaVuSans-32"/>
      <use x="576.708984" xlink:href="#DejaVuSans-40"/>
      <use x="615.722656" xlink:href="#DejaVuSans-49"/>
      <use x="679.345703" xlink:href="#DejaVuSans-52"/>
      <use x="742.96875" xlink:href="#DejaVuSans-41"/>
     </g>
    </g>
    <g id="line2d_13">
     <path d="M 272.455938 69.526688 
L 292.455938 69.526688 
" style="fill:none;stroke:#008000;stroke-linecap:square;stroke-width:1.5;"/>
    </g>
    <g id="line2d_14"/>
    <g id="text_9">
     <!-- Not cpap_bpap (242) -->
     <defs>
      <path d="M 9.8125 72.90625 
L 23.09375 72.90625 
L 55.421875 11.921875 
L 55.421875 72.90625 
L 64.984375 72.90625 
L 64.984375 0 
L 51.703125 0 
L 19.390625 60.984375 
L 19.390625 0 
L 9.8125 0 
z
" id="DejaVuSans-78"/>
     </defs>
     <g transform="translate(300.455938 73.026688)scale(0.1 -0.1)">
      <use xlink:href="#DejaVuSans-78"/>
      <use x="74.804688" xlink:href="#DejaVuSans-111"/>
      <use x="135.986328" xlink:href="#DejaVuSans-116"/>
      <use x="175.195312" xlink:href="#DejaVuSans-32"/>
      <use x="206.982422" xlink:href="#DejaVuSans-99"/>
      <use x="261.962891" xlink:href="#DejaVuSans-112"/>
      <use x="325.439453" xlink:href="#DejaVuSans-97"/>
      <use x="386.71875" xlink:href="#DejaVuSans-112"/>
      <use x="450.195312" xlink:href="#DejaVuSans-95"/>
      <use x="500.195312" xlink:href="#DejaVuSans-98"/>
      <use x="563.671875" xlink:href="#DejaVuSans-112"/>
      <use x="627.148438" xlink:href="#DejaVuSans-97"/>
      <use x="688.427734" xlink:href="#DejaVuSans-112"/>
      <use x="751.904297" xlink:href="#DejaVuSans-32"/>
      <use x="783.691406" xlink:href="#DejaVuSans-40"/>
      <use x="822.705078" xlink:href="#DejaVuSans-50"/>
      <use x="886.328125" xlink:href="#DejaVuSans-52"/>
      <use x="949.951172" xlink:href="#DejaVuSans-50"/>
      <use x="1013.574219" xlink:href="#DejaVuSans-41"/>
     </g>
    </g>
   </g>
  </g>
 </g>
 <defs>
  <clipPath id="p42941580ad">
   <rect height="266.112" width="357.12" x="57.6" y="41.472"/>
  </clipPath>
 </defs>
</svg>
