<?xml version="1.0" encoding="utf-8" standalone="no"?>
<!DOCTYPE svg PUBLIC "-//W3C//DTD SVG 1.1//EN"
  "http://www.w3.org/Graphics/SVG/1.1/DTD/svg11.dtd">
<!-- Created with matplotlib (https://matplotlib.org/) -->
<svg height="345.6pt" version="1.1" viewBox="0 0 460.8 345.6" width="460.8pt" xmlns="http://www.w3.org/2000/svg" xmlns:xlink="http://www.w3.org/1999/xlink">
 <defs>
  <style type="text/css">
*{stroke-linecap:butt;stroke-linejoin:round;}
  </style>
 </defs>
 <g id="figure_1">
  <g id="patch_1">
   <path d="M 0 345.6 
L 460.8 345.6 
L 460.8 0 
L 0 0 
z
" style="fill:#ffffff;"/>
  </g>
  <g id="axes_1">
   <g id="patch_2">
    <path d="M 57.6 307.584 
L 414.72 307.584 
L 414.72 41.472 
L 57.6 41.472 
z
" style="fill:#ffffff;"/>
   </g>
   <g id="PolyCollection_1">
    <defs>
     <path d="M 73.832727 -169.164069 
L 73.832727 -172.979931 
L 77.112066 -173.804105 
L 80.391405 -174.885925 
L 83.670744 -176.263483 
L 86.950083 -177.964542 
L 90.229421 -180.000655 
L 93.50876 -182.362022 
L 96.788099 -185.014254 
L 100.067438 -187.898172 
L 103.346777 -190.933436 
L 106.626116 -194.026231 
L 109.905455 -197.08047 
L 113.184793 -200.011155 
L 116.464132 -202.757909 
L 119.743471 -205.296337 
L 123.02281 -207.64502 
L 126.302149 -209.866537 
L 129.581488 -212.061871 
L 132.860826 -214.358754 
L 136.140165 -216.89557 
L 139.419504 -219.803277 
L 142.698843 -223.188093 
L 145.978182 -227.117508 
L 149.257521 -231.611459 
L 152.53686 -236.639542 
L 155.816198 -242.124034 
L 159.095537 -247.947647 
L 162.374876 -253.964298 
L 165.654215 -260.011082 
L 168.933554 -265.919787 
L 172.212893 -271.526758 
L 175.492231 -276.680485 
L 178.77157 -281.246781 
L 182.050909 -285.111774 
L 185.330248 -288.183172 
L 188.609587 -290.390278 
L 191.888926 -291.683245 
L 195.168264 -292.032 
L 198.447603 -291.425193 
L 201.726942 -289.869504 
L 205.006281 -287.389483 
L 208.28562 -284.027992 
L 211.564959 -279.847066 
L 214.844298 -274.92882 
L 218.123636 -269.375837 
L 221.402975 -263.310388 
L 224.682314 -256.871929 
L 227.961653 -250.212509 
L 231.240992 -243.490075 
L 234.520331 -236.860054 
L 237.799669 -230.46596 
L 241.079008 -224.43009 
L 244.358347 -218.845513 
L 247.637686 -213.770507 
L 250.917025 -209.22636 
L 254.196364 -205.199012 
L 257.475702 -201.644458 
L 260.755041 -198.497239 
L 264.03438 -195.680834 
L 267.313719 -193.118445 
L 270.593058 -190.742603 
L 273.872397 -188.50226 
L 277.151736 -186.366527 
L 280.431074 -184.324824 
L 283.710413 -182.383878 
L 286.989752 -180.562497 
L 290.269091 -178.885341 
L 293.54843 -177.376927 
L 296.827769 -176.056862 
L 300.107107 -174.936901 
L 303.386446 -174.019996 
L 306.665785 -173.301043 
L 309.945124 -172.768814 
L 313.224463 -172.408377 
L 316.503802 -172.203378 
L 319.78314 -172.137671 
L 323.062479 -172.196053 
L 326.341818 -172.364033 
L 329.621157 -172.626852 
L 332.900496 -172.968096 
L 336.179835 -173.368357 
L 339.459174 -173.804383 
L 342.738512 -174.249088 
L 346.017851 -174.672598 
L 349.29719 -175.0443 
L 352.576529 -175.335623 
L 355.855868 -175.523084 
L 359.135207 -175.591054 
L 362.414545 -175.533671 
L 365.693884 -175.355547 
L 368.973223 -175.071077 
L 372.252562 -174.702476 
L 375.531901 -174.276893 
L 378.81124 -173.823117 
L 382.090579 -173.368413 
L 385.369917 -172.935958 
L 388.649256 -172.543186 
L 391.928595 -172.20113 
L 395.207934 -171.914685 
L 398.487273 -171.68355 
L 398.487273 -170.46045 
L 398.487273 -170.46045 
L 395.207934 -170.229315 
L 391.928595 -169.94287 
L 388.649256 -169.600814 
L 385.369917 -169.208042 
L 382.090579 -168.775587 
L 378.81124 -168.320883 
L 375.531901 -167.867107 
L 372.252562 -167.441524 
L 368.973223 -167.072923 
L 365.693884 -166.788453 
L 362.414545 -166.610329 
L 359.135207 -166.552946 
L 355.855868 -166.620916 
L 352.576529 -166.808377 
L 349.29719 -167.0997 
L 346.017851 -167.471402 
L 342.738512 -167.894912 
L 339.459174 -168.339617 
L 336.179835 -168.775643 
L 332.900496 -169.175904 
L 329.621157 -169.517148 
L 326.341818 -169.779967 
L 323.062479 -169.947947 
L 319.78314 -170.006329 
L 316.503802 -169.940622 
L 313.224463 -169.735623 
L 309.945124 -169.375186 
L 306.665785 -168.842957 
L 303.386446 -168.124004 
L 300.107107 -167.207099 
L 296.827769 -166.087138 
L 293.54843 -164.767073 
L 290.269091 -163.258659 
L 286.989752 -161.581503 
L 283.710413 -159.760122 
L 280.431074 -157.819176 
L 277.151736 -155.777473 
L 273.872397 -153.64174 
L 270.593058 -151.401397 
L 267.313719 -149.025555 
L 264.03438 -146.463166 
L 260.755041 -143.646761 
L 257.475702 -140.499542 
L 254.196364 -136.944988 
L 250.917025 -132.91764 
L 247.637686 -128.373493 
L 244.358347 -123.298487 
L 241.079008 -117.71391 
L 237.799669 -111.67804 
L 234.520331 -105.283946 
L 231.240992 -98.653925 
L 227.961653 -91.931491 
L 224.682314 -85.272071 
L 221.402975 -78.833612 
L 218.123636 -72.768163 
L 214.844298 -67.21518 
L 211.564959 -62.296934 
L 208.28562 -58.116008 
L 205.006281 -54.754517 
L 201.726942 -52.274496 
L 198.447603 -50.718807 
L 195.168264 -50.112 
L 191.888926 -50.460755 
L 188.609587 -51.753722 
L 185.330248 -53.960828 
L 182.050909 -57.032226 
L 178.77157 -60.897219 
L 175.492231 -65.463515 
L 172.212893 -70.617242 
L 168.933554 -76.224213 
L 165.654215 -82.132918 
L 162.374876 -88.179702 
L 159.095537 -94.196353 
L 155.816198 -100.019966 
L 152.53686 -105.504458 
L 149.257521 -110.532541 
L 145.978182 -115.026492 
L 142.698843 -118.955907 
L 139.419504 -122.340723 
L 136.140165 -125.24843 
L 132.860826 -127.785246 
L 129.581488 -130.082129 
L 126.302149 -132.277463 
L 123.02281 -134.49898 
L 119.743471 -136.847663 
L 116.464132 -139.386091 
L 113.184793 -142.132845 
L 109.905455 -145.06353 
L 106.626116 -148.117769 
L 103.346777 -151.210564 
L 100.067438 -154.245828 
L 96.788099 -157.129746 
L 93.50876 -159.781978 
L 90.229421 -162.143345 
L 86.950083 -164.179458 
L 83.670744 -165.880517 
L 80.391405 -167.258075 
L 77.112066 -168.339895 
L 73.832727 -169.164069 
z
" id="m85ed0dcb4f" style="stroke:#4c4c4c;stroke-opacity:0.5;stroke-width:1.5;"/>
    </defs>
    <g clip-path="url(#p2b64d44cfc)">
     <use style="fill:#df9c20;fill-opacity:0.5;stroke:#4c4c4c;stroke-opacity:0.5;stroke-width:1.5;" x="0" xlink:href="#m85ed0dcb4f" y="345.6"/>
    </g>
   </g>
   <g id="PolyCollection_2">
    <defs>
     <path d="M 78.890875 -166.367032 
L 78.890875 -175.776968 
L 81.013424 -177.74283 
L 83.135972 -180.320957 
L 85.25852 -183.61561 
L 87.381068 -187.717976 
L 89.503617 -192.694538 
L 91.626165 -198.575212 
L 93.748713 -205.342793 
L 95.871261 -212.925389 
L 97.993809 -221.193351 
L 100.116358 -229.961738 
L 102.238906 -238.998647 
L 104.361454 -248.0389 
L 106.484002 -256.80175 
L 108.60655 -265.010644 
L 110.729099 -272.412775 
L 112.851647 -278.796176 
L 114.974195 -284.002571 
L 117.096743 -287.934822 
L 119.219292 -290.558634 
L 121.34184 -291.898946 
L 123.464388 -292.032 
L 125.586936 -291.074469 
L 127.709484 -289.171095 
L 129.832033 -286.482153 
L 131.954581 -283.171803 
L 134.077129 -279.398051 
L 136.199677 -275.304739 
L 138.322226 -271.015802 
L 140.444774 -266.631863 
L 142.567322 -262.229179 
L 144.68987 -257.860873 
L 146.812418 -253.560291 
L 148.934967 -249.346108 
L 151.057515 -245.228625 
L 153.180063 -241.216404 
L 155.302611 -237.322273 
L 157.425159 -233.56767 
L 159.547708 -229.984499 
L 161.670256 -226.613992 
L 163.792804 -223.502635 
L 165.915352 -220.695722 
L 168.037901 -218.229627 
L 170.160449 -216.124168 
L 172.282997 -214.376519 
L 174.405545 -212.957888 
L 176.528093 -211.813743 
L 178.650642 -210.867782 
L 180.77319 -210.029221 
L 182.895738 -209.202418 
L 185.018286 -208.29752 
L 187.140835 -207.24065 
L 189.263383 -205.982233 
L 191.385931 -204.502383 
L 193.508479 -202.812648 
L 195.631027 -200.953964 
L 197.753576 -198.991111 
L 199.876124 -197.004448 
L 201.998672 -195.079983 
L 204.12122 -193.299047 
L 206.243769 -191.728819 
L 208.366317 -190.414859 
L 210.488865 -189.37647 
L 212.611413 -188.605406 
L 214.733961 -188.067945 
L 216.85651 -187.709958 
L 218.979058 -187.464216 
L 221.101606 -187.258913 
L 223.224154 -187.026248 
L 225.346702 -186.709979 
L 227.469251 -186.271025 
L 229.591799 -185.690513 
L 231.714347 -184.970065 
L 233.836895 -184.129492 
L 235.959444 -183.202416 
L 238.081992 -182.230583 
L 240.20454 -181.257742 
L 242.327088 -180.323935 
L 244.449636 -179.460942 
L 246.572185 -178.689345 
L 248.694733 -178.01744 
L 250.817281 -177.441939 
L 252.939829 -176.950137 
L 255.062378 -176.523078 
L 257.184926 -176.13914 
L 259.307474 -175.777473 
L 261.430022 -175.42082 
L 263.55257 -175.057391 
L 265.675119 -174.681655 
L 267.797667 -174.2941 
L 269.920215 -173.900152 
L 272.042763 -173.508567 
L 274.165312 -173.129619 
L 276.28786 -172.77339 
L 278.410408 -172.448411 
L 280.532956 -172.160767 
L 282.655504 -171.913714 
L 284.778053 -171.707748 
L 286.900601 -171.541005 
L 289.023149 -171.409869 
L 289.023149 -170.734131 
L 289.023149 -170.734131 
L 286.900601 -170.602995 
L 284.778053 -170.436252 
L 282.655504 -170.230286 
L 280.532956 -169.983233 
L 278.410408 -169.695589 
L 276.28786 -169.37061 
L 274.165312 -169.014381 
L 272.042763 -168.635433 
L 269.920215 -168.243848 
L 267.797667 -167.8499 
L 265.675119 -167.462345 
L 263.55257 -167.086609 
L 261.430022 -166.72318 
L 259.307474 -166.366527 
L 257.184926 -166.00486 
L 255.062378 -165.620922 
L 252.939829 -165.193863 
L 250.817281 -164.702061 
L 248.694733 -164.12656 
L 246.572185 -163.454655 
L 244.449636 -162.683058 
L 242.327088 -161.820065 
L 240.20454 -160.886258 
L 238.081992 -159.913417 
L 235.959444 -158.941584 
L 233.836895 -158.014508 
L 231.714347 -157.173935 
L 229.591799 -156.453487 
L 227.469251 -155.872975 
L 225.346702 -155.434021 
L 223.224154 -155.117752 
L 221.101606 -154.885087 
L 218.979058 -154.679784 
L 216.85651 -154.434042 
L 214.733961 -154.076055 
L 212.611413 -153.538594 
L 210.488865 -152.76753 
L 208.366317 -151.729141 
L 206.243769 -150.415181 
L 204.12122 -148.844953 
L 201.998672 -147.064017 
L 199.876124 -145.139552 
L 197.753576 -143.152889 
L 195.631027 -141.190036 
L 193.508479 -139.331352 
L 191.385931 -137.641617 
L 189.263383 -136.161767 
L 187.140835 -134.90335 
L 185.018286 -133.84648 
L 182.895738 -132.941582 
L 180.77319 -132.114779 
L 178.650642 -131.276218 
L 176.528093 -130.330257 
L 174.405545 -129.186112 
L 172.282997 -127.767481 
L 170.160449 -126.019832 
L 168.037901 -123.914373 
L 165.915352 -121.448278 
L 163.792804 -118.641365 
L 161.670256 -115.530008 
L 159.547708 -112.159501 
L 157.425159 -108.57633 
L 155.302611 -104.821727 
L 153.180063 -100.927596 
L 151.057515 -96.915375 
L 148.934967 -92.797892 
L 146.812418 -88.583709 
L 144.68987 -84.283127 
L 142.567322 -79.914821 
L 140.444774 -75.512137 
L 138.322226 -71.128198 
L 136.199677 -66.839261 
L 134.077129 -62.745949 
L 131.954581 -58.972197 
L 129.832033 -55.661847 
L 127.709484 -52.972905 
L 125.586936 -51.069531 
L 123.464388 -50.112 
L 121.34184 -50.245054 
L 119.219292 -51.585366 
L 117.096743 -54.209178 
L 114.974195 -58.141429 
L 112.851647 -63.347824 
L 110.729099 -69.731225 
L 108.60655 -77.133356 
L 106.484002 -85.34225 
L 104.361454 -94.1051 
L 102.238906 -103.145353 
L 100.116358 -112.182262 
L 97.993809 -120.950649 
L 95.871261 -129.218611 
L 93.748713 -136.801207 
L 91.626165 -143.568788 
L 89.503617 -149.449462 
L 87.381068 -154.426024 
L 85.25852 -158.52839 
L 83.135972 -161.823043 
L 81.013424 -164.40117 
L 78.890875 -166.367032 
z
" id="m1dc952f0b4" style="stroke:#262626;stroke-opacity:0.5;stroke-width:1.5;"/>
    </defs>
    <g clip-path="url(#p2b64d44cfc)">
     <use style="fill:#107010;fill-opacity:0.5;stroke:#262626;stroke-opacity:0.5;stroke-width:1.5;" x="0" xlink:href="#m1dc952f0b4" y="345.6"/>
    </g>
   </g>
   <g id="matplotlib.axis_1">
    <g id="xtick_1">
     <g id="line2d_1">
      <defs>
       <path d="M 0 0 
L 0 3.5 
" id="m41d6dfc6b4" style="stroke:#000000;stroke-width:0.8;"/>
      </defs>
      <g>
       <use style="stroke:#000000;stroke-width:0.8;" x="103.764042" xlink:href="#m41d6dfc6b4" y="307.584"/>
      </g>
     </g>
     <g id="text_1">
      <!-- 0 -->
      <defs>
       <path d="M 31.78125 66.40625 
Q 24.171875 66.40625 20.328125 58.90625 
Q 16.5 51.421875 16.5 36.375 
Q 16.5 21.390625 20.328125 13.890625 
Q 24.171875 6.390625 31.78125 6.390625 
Q 39.453125 6.390625 43.28125 13.890625 
Q 47.125 21.390625 47.125 36.375 
Q 47.125 51.421875 43.28125 58.90625 
Q 39.453125 66.40625 31.78125 66.40625 
z
M 31.78125 74.21875 
Q 44.046875 74.21875 50.515625 64.515625 
Q 56.984375 54.828125 56.984375 36.375 
Q 56.984375 17.96875 50.515625 8.265625 
Q 44.046875 -1.421875 31.78125 -1.421875 
Q 19.53125 -1.421875 13.0625 8.265625 
Q 6.59375 17.96875 6.59375 36.375 
Q 6.59375 54.828125 13.0625 64.515625 
Q 19.53125 74.21875 31.78125 74.21875 
z
" id="DejaVuSans-48"/>
      </defs>
      <g transform="translate(100.582792 322.182437)scale(0.1 -0.1)">
       <use xlink:href="#DejaVuSans-48"/>
      </g>
     </g>
    </g>
    <g id="xtick_2">
     <g id="line2d_2">
      <g>
       <use style="stroke:#000000;stroke-width:0.8;" x="172.451958" xlink:href="#m41d6dfc6b4" y="307.584"/>
      </g>
     </g>
     <g id="text_2">
      <!-- 20 -->
      <defs>
       <path d="M 19.1875 8.296875 
L 53.609375 8.296875 
L 53.609375 0 
L 7.328125 0 
L 7.328125 8.296875 
Q 12.9375 14.109375 22.625 23.890625 
Q 32.328125 33.6875 34.8125 36.53125 
Q 39.546875 41.84375 41.421875 45.53125 
Q 43.3125 49.21875 43.3125 52.78125 
Q 43.3125 58.59375 39.234375 62.25 
Q 35.15625 65.921875 28.609375 65.921875 
Q 23.96875 65.921875 18.8125 64.3125 
Q 13.671875 62.703125 7.8125 59.421875 
L 7.8125 69.390625 
Q 13.765625 71.78125 18.9375 73 
Q 24.125 74.21875 28.421875 74.21875 
Q 39.75 74.21875 46.484375 68.546875 
Q 53.21875 62.890625 53.21875 53.421875 
Q 53.21875 48.921875 51.53125 44.890625 
Q 49.859375 40.875 45.40625 35.40625 
Q 44.1875 33.984375 37.640625 27.21875 
Q 31.109375 20.453125 19.1875 8.296875 
z
" id="DejaVuSans-50"/>
      </defs>
      <g transform="translate(166.089458 322.182437)scale(0.1 -0.1)">
       <use xlink:href="#DejaVuSans-50"/>
       <use x="63.623047" xlink:href="#DejaVuSans-48"/>
      </g>
     </g>
    </g>
    <g id="xtick_3">
     <g id="line2d_3">
      <g>
       <use style="stroke:#000000;stroke-width:0.8;" x="241.139874" xlink:href="#m41d6dfc6b4" y="307.584"/>
      </g>
     </g>
     <g id="text_3">
      <!-- 40 -->
      <defs>
       <path d="M 37.796875 64.3125 
L 12.890625 25.390625 
L 37.796875 25.390625 
z
M 35.203125 72.90625 
L 47.609375 72.90625 
L 47.609375 25.390625 
L 58.015625 25.390625 
L 58.015625 17.1875 
L 47.609375 17.1875 
L 47.609375 0 
L 37.796875 0 
L 37.796875 17.1875 
L 4.890625 17.1875 
L 4.890625 26.703125 
z
" id="DejaVuSans-52"/>
      </defs>
      <g transform="translate(234.777374 322.182437)scale(0.1 -0.1)">
       <use xlink:href="#DejaVuSans-52"/>
       <use x="63.623047" xlink:href="#DejaVuSans-48"/>
      </g>
     </g>
    </g>
    <g id="xtick_4">
     <g id="line2d_4">
      <g>
       <use style="stroke:#000000;stroke-width:0.8;" x="309.82779" xlink:href="#m41d6dfc6b4" y="307.584"/>
      </g>
     </g>
     <g id="text_4">
      <!-- 60 -->
      <defs>
       <path d="M 33.015625 40.375 
Q 26.375 40.375 22.484375 35.828125 
Q 18.609375 31.296875 18.609375 23.390625 
Q 18.609375 15.53125 22.484375 10.953125 
Q 26.375 6.390625 33.015625 6.390625 
Q 39.65625 6.390625 43.53125 10.953125 
Q 47.40625 15.53125 47.40625 23.390625 
Q 47.40625 31.296875 43.53125 35.828125 
Q 39.65625 40.375 33.015625 40.375 
z
M 52.59375 71.296875 
L 52.59375 62.3125 
Q 48.875 64.0625 45.09375 64.984375 
Q 41.3125 65.921875 37.59375 65.921875 
Q 27.828125 65.921875 22.671875 59.328125 
Q 17.53125 52.734375 16.796875 39.40625 
Q 19.671875 43.65625 24.015625 45.921875 
Q 28.375 48.1875 33.59375 48.1875 
Q 44.578125 48.1875 50.953125 41.515625 
Q 57.328125 34.859375 57.328125 23.390625 
Q 57.328125 12.15625 50.6875 5.359375 
Q 44.046875 -1.421875 33.015625 -1.421875 
Q 20.359375 -1.421875 13.671875 8.265625 
Q 6.984375 17.96875 6.984375 36.375 
Q 6.984375 53.65625 15.1875 63.9375 
Q 23.390625 74.21875 37.203125 74.21875 
Q 40.921875 74.21875 44.703125 73.484375 
Q 48.484375 72.75 52.59375 71.296875 
z
" id="DejaVuSans-54"/>
      </defs>
      <g transform="translate(303.46529 322.182437)scale(0.1 -0.1)">
       <use xlink:href="#DejaVuSans-54"/>
       <use x="63.623047" xlink:href="#DejaVuSans-48"/>
      </g>
     </g>
    </g>
    <g id="xtick_5">
     <g id="line2d_5">
      <g>
       <use style="stroke:#000000;stroke-width:0.8;" x="378.515706" xlink:href="#m41d6dfc6b4" y="307.584"/>
      </g>
     </g>
     <g id="text_5">
      <!-- 80 -->
      <defs>
       <path d="M 31.78125 34.625 
Q 24.75 34.625 20.71875 30.859375 
Q 16.703125 27.09375 16.703125 20.515625 
Q 16.703125 13.921875 20.71875 10.15625 
Q 24.75 6.390625 31.78125 6.390625 
Q 38.8125 6.390625 42.859375 10.171875 
Q 46.921875 13.96875 46.921875 20.515625 
Q 46.921875 27.09375 42.890625 30.859375 
Q 38.875 34.625 31.78125 34.625 
z
M 21.921875 38.8125 
Q 15.578125 40.375 12.03125 44.71875 
Q 8.5 49.078125 8.5 55.328125 
Q 8.5 64.0625 14.71875 69.140625 
Q 20.953125 74.21875 31.78125 74.21875 
Q 42.671875 74.21875 48.875 69.140625 
Q 55.078125 64.0625 55.078125 55.328125 
Q 55.078125 49.078125 51.53125 44.71875 
Q 48 40.375 41.703125 38.8125 
Q 48.828125 37.15625 52.796875 32.3125 
Q 56.78125 27.484375 56.78125 20.515625 
Q 56.78125 9.90625 50.3125 4.234375 
Q 43.84375 -1.421875 31.78125 -1.421875 
Q 19.734375 -1.421875 13.25 4.234375 
Q 6.78125 9.90625 6.78125 20.515625 
Q 6.78125 27.484375 10.78125 32.3125 
Q 14.796875 37.15625 21.921875 38.8125 
z
M 18.3125 54.390625 
Q 18.3125 48.734375 21.84375 45.5625 
Q 25.390625 42.390625 31.78125 42.390625 
Q 38.140625 42.390625 41.71875 45.5625 
Q 45.3125 48.734375 45.3125 54.390625 
Q 45.3125 60.0625 41.71875 63.234375 
Q 38.140625 66.40625 31.78125 66.40625 
Q 25.390625 66.40625 21.84375 63.234375 
Q 18.3125 60.0625 18.3125 54.390625 
z
" id="DejaVuSans-56"/>
      </defs>
      <g transform="translate(372.153206 322.182437)scale(0.1 -0.1)">
       <use xlink:href="#DejaVuSans-56"/>
       <use x="63.623047" xlink:href="#DejaVuSans-48"/>
      </g>
     </g>
    </g>
    <g id="text_6">
     <!-- crppeakac -->
     <defs>
      <path d="M 48.78125 52.59375 
L 48.78125 44.1875 
Q 44.96875 46.296875 41.140625 47.34375 
Q 37.3125 48.390625 33.40625 48.390625 
Q 24.65625 48.390625 19.8125 42.84375 
Q 14.984375 37.3125 14.984375 27.296875 
Q 14.984375 17.28125 19.8125 11.734375 
Q 24.65625 6.203125 33.40625 6.203125 
Q 37.3125 6.203125 41.140625 7.25 
Q 44.96875 8.296875 48.78125 10.40625 
L 48.78125 2.09375 
Q 45.015625 0.34375 40.984375 -0.53125 
Q 36.96875 -1.421875 32.421875 -1.421875 
Q 20.0625 -1.421875 12.78125 6.34375 
Q 5.515625 14.109375 5.515625 27.296875 
Q 5.515625 40.671875 12.859375 48.328125 
Q 20.21875 56 33.015625 56 
Q 37.15625 56 41.109375 55.140625 
Q 45.0625 54.296875 48.78125 52.59375 
z
" id="DejaVuSans-99"/>
      <path d="M 41.109375 46.296875 
Q 39.59375 47.171875 37.8125 47.578125 
Q 36.03125 48 33.890625 48 
Q 26.265625 48 22.1875 43.046875 
Q 18.109375 38.09375 18.109375 28.8125 
L 18.109375 0 
L 9.078125 0 
L 9.078125 54.6875 
L 18.109375 54.6875 
L 18.109375 46.1875 
Q 20.953125 51.171875 25.484375 53.578125 
Q 30.03125 56 36.53125 56 
Q 37.453125 56 38.578125 55.875 
Q 39.703125 55.765625 41.0625 55.515625 
z
" id="DejaVuSans-114"/>
      <path d="M 18.109375 8.203125 
L 18.109375 -20.796875 
L 9.078125 -20.796875 
L 9.078125 54.6875 
L 18.109375 54.6875 
L 18.109375 46.390625 
Q 20.953125 51.265625 25.265625 53.625 
Q 29.59375 56 35.59375 56 
Q 45.5625 56 51.78125 48.09375 
Q 58.015625 40.1875 58.015625 27.296875 
Q 58.015625 14.40625 51.78125 6.484375 
Q 45.5625 -1.421875 35.59375 -1.421875 
Q 29.59375 -1.421875 25.265625 0.953125 
Q 20.953125 3.328125 18.109375 8.203125 
z
M 48.6875 27.296875 
Q 48.6875 37.203125 44.609375 42.84375 
Q 40.53125 48.484375 33.40625 48.484375 
Q 26.265625 48.484375 22.1875 42.84375 
Q 18.109375 37.203125 18.109375 27.296875 
Q 18.109375 17.390625 22.1875 11.75 
Q 26.265625 6.109375 33.40625 6.109375 
Q 40.53125 6.109375 44.609375 11.75 
Q 48.6875 17.390625 48.6875 27.296875 
z
" id="DejaVuSans-112"/>
      <path d="M 56.203125 29.59375 
L 56.203125 25.203125 
L 14.890625 25.203125 
Q 15.484375 15.921875 20.484375 11.0625 
Q 25.484375 6.203125 34.421875 6.203125 
Q 39.59375 6.203125 44.453125 7.46875 
Q 49.3125 8.734375 54.109375 11.28125 
L 54.109375 2.78125 
Q 49.265625 0.734375 44.1875 -0.34375 
Q 39.109375 -1.421875 33.890625 -1.421875 
Q 20.796875 -1.421875 13.15625 6.1875 
Q 5.515625 13.8125 5.515625 26.8125 
Q 5.515625 40.234375 12.765625 48.109375 
Q 20.015625 56 32.328125 56 
Q 43.359375 56 49.78125 48.890625 
Q 56.203125 41.796875 56.203125 29.59375 
z
M 47.21875 32.234375 
Q 47.125 39.59375 43.09375 43.984375 
Q 39.0625 48.390625 32.421875 48.390625 
Q 24.90625 48.390625 20.390625 44.140625 
Q 15.875 39.890625 15.1875 32.171875 
z
" id="DejaVuSans-101"/>
      <path d="M 34.28125 27.484375 
Q 23.390625 27.484375 19.1875 25 
Q 14.984375 22.515625 14.984375 16.5 
Q 14.984375 11.71875 18.140625 8.90625 
Q 21.296875 6.109375 26.703125 6.109375 
Q 34.1875 6.109375 38.703125 11.40625 
Q 43.21875 16.703125 43.21875 25.484375 
L 43.21875 27.484375 
z
M 52.203125 31.203125 
L 52.203125 0 
L 43.21875 0 
L 43.21875 8.296875 
Q 40.140625 3.328125 35.546875 0.953125 
Q 30.953125 -1.421875 24.3125 -1.421875 
Q 15.921875 -1.421875 10.953125 3.296875 
Q 6 8.015625 6 15.921875 
Q 6 25.140625 12.171875 29.828125 
Q 18.359375 34.515625 30.609375 34.515625 
L 43.21875 34.515625 
L 43.21875 35.40625 
Q 43.21875 41.609375 39.140625 45 
Q 35.0625 48.390625 27.6875 48.390625 
Q 23 48.390625 18.546875 47.265625 
Q 14.109375 46.140625 10.015625 43.890625 
L 10.015625 52.203125 
Q 14.9375 54.109375 19.578125 55.046875 
Q 24.21875 56 28.609375 56 
Q 40.484375 56 46.34375 49.84375 
Q 52.203125 43.703125 52.203125 31.203125 
z
" id="DejaVuSans-97"/>
      <path d="M 9.078125 75.984375 
L 18.109375 75.984375 
L 18.109375 31.109375 
L 44.921875 54.6875 
L 56.390625 54.6875 
L 27.390625 29.109375 
L 57.625 0 
L 45.90625 0 
L 18.109375 26.703125 
L 18.109375 0 
L 9.078125 0 
z
" id="DejaVuSans-107"/>
     </defs>
     <g transform="translate(210.245156 335.860562)scale(0.1 -0.1)">
      <use xlink:href="#DejaVuSans-99"/>
      <use x="54.980469" xlink:href="#DejaVuSans-114"/>
      <use x="96.09375" xlink:href="#DejaVuSans-112"/>
      <use x="159.570312" xlink:href="#DejaVuSans-112"/>
      <use x="223.046875" xlink:href="#DejaVuSans-101"/>
      <use x="284.570312" xlink:href="#DejaVuSans-97"/>
      <use x="345.849609" xlink:href="#DejaVuSans-107"/>
      <use x="402.009766" xlink:href="#DejaVuSans-97"/>
      <use x="463.289062" xlink:href="#DejaVuSans-99"/>
     </g>
    </g>
   </g>
   <g id="matplotlib.axis_2">
    <g id="ytick_1">
     <g id="line2d_6">
      <defs>
       <path d="M 0 0 
L -3.5 0 
" id="m871a5a890e" style="stroke:#000000;stroke-width:0.8;"/>
      </defs>
      <g>
       <use style="stroke:#000000;stroke-width:0.8;" x="57.6" xlink:href="#m871a5a890e" y="174.528"/>
      </g>
     </g>
    </g>
   </g>
   <g id="line2d_7">
    <path clip-path="url(#p2b64d44cfc)" d="M 113.036911 174.528 
L 272.049436 174.528 
" style="fill:none;stroke:#ffa500;stroke-linecap:square;stroke-width:1.5;"/>
   </g>
   <g id="line2d_8">
    <path clip-path="url(#p2b64d44cfc)" d="M 169.532722 174.528 
L 214.351587 174.528 
" style="fill:none;stroke:#4c4c4c;stroke-linecap:square;stroke-width:4.5;"/>
   </g>
   <g id="line2d_9">
    <path clip-path="url(#p2b64d44cfc)" d="M 105.480897 174.528 
L 224.311335 174.528 
" style="fill:none;stroke:#008000;stroke-linecap:square;stroke-width:1.5;"/>
   </g>
   <g id="line2d_10">
    <path clip-path="url(#p2b64d44cfc)" d="M 119.218823 174.528 
L 161.290172 174.528 
" style="fill:none;stroke:#262626;stroke-linecap:square;stroke-width:4.5;"/>
   </g>
   <g id="patch_3">
    <path d="M 57.6 307.584 
L 57.6 41.472 
" style="fill:none;stroke:#000000;stroke-linecap:square;stroke-linejoin:miter;stroke-width:0.8;"/>
   </g>
   <g id="patch_4">
    <path d="M 414.72 307.584 
L 414.72 41.472 
" style="fill:none;stroke:#000000;stroke-linecap:square;stroke-linejoin:miter;stroke-width:0.8;"/>
   </g>
   <g id="patch_5">
    <path d="M 57.6 307.584 
L 414.72 307.584 
" style="fill:none;stroke:#000000;stroke-linecap:square;stroke-linejoin:miter;stroke-width:0.8;"/>
   </g>
   <g id="patch_6">
    <path d="M 57.6 41.472 
L 414.72 41.472 
" style="fill:none;stroke:#000000;stroke-linecap:square;stroke-linejoin:miter;stroke-width:0.8;"/>
   </g>
   <g id="PathCollection_1">
    <defs>
     <path d="M 0 1.5 
C 0.397805 1.5 0.77937 1.341951 1.06066 1.06066 
C 1.341951 0.77937 1.5 0.397805 1.5 0 
C 1.5 -0.397805 1.341951 -0.77937 1.06066 -1.06066 
C 0.77937 -1.341951 0.397805 -1.5 0 -1.5 
C -0.397805 -1.5 -0.77937 -1.341951 -1.06066 -1.06066 
C -1.341951 -0.77937 -1.5 -0.397805 -1.5 0 
C -1.5 0.397805 -1.341951 0.77937 -1.06066 1.06066 
C -0.77937 1.341951 -0.397805 1.5 0 1.5 
z
" id="m194c82c9a1" style="stroke:#4c4c4c;stroke-opacity:0.5;"/>
    </defs>
    <g clip-path="url(#p2b64d44cfc)">
     <use style="fill:#ffffff;fill-opacity:0.5;stroke:#4c4c4c;stroke-opacity:0.5;" x="191.856294" xlink:href="#m194c82c9a1" y="174.528"/>
    </g>
   </g>
   <g id="PathCollection_2">
    <defs>
     <path d="M 0 1.5 
C 0.397805 1.5 0.77937 1.341951 1.06066 1.06066 
C 1.341951 0.77937 1.5 0.397805 1.5 0 
C 1.5 -0.397805 1.341951 -0.77937 1.06066 -1.06066 
C 0.77937 -1.341951 0.397805 -1.5 0 -1.5 
C -0.397805 -1.5 -0.77937 -1.341951 -1.06066 -1.06066 
C -1.341951 -0.77937 -1.5 -0.397805 -1.5 0 
C -1.5 0.397805 -1.341951 0.77937 -1.06066 1.06066 
C -0.77937 1.341951 -0.397805 1.5 0 1.5 
z
" id="m04d8f59b3e" style="stroke:#262626;stroke-opacity:0.5;"/>
    </defs>
    <g clip-path="url(#p2b64d44cfc)">
     <use style="fill:#ffffff;fill-opacity:0.5;stroke:#262626;stroke-opacity:0.5;" x="135.017044" xlink:href="#m04d8f59b3e" y="174.528"/>
    </g>
   </g>
   <g id="text_7">
    <!-- Association of crppeakac vs. intubation -->
    <defs>
     <path d="M 34.1875 63.1875 
L 20.796875 26.90625 
L 47.609375 26.90625 
z
M 28.609375 72.90625 
L 39.796875 72.90625 
L 67.578125 0 
L 57.328125 0 
L 50.6875 18.703125 
L 17.828125 18.703125 
L 11.1875 0 
L 0.78125 0 
z
" id="DejaVuSans-65"/>
     <path d="M 44.28125 53.078125 
L 44.28125 44.578125 
Q 40.484375 46.53125 36.375 47.5 
Q 32.28125 48.484375 27.875 48.484375 
Q 21.1875 48.484375 17.84375 46.4375 
Q 14.5 44.390625 14.5 40.28125 
Q 14.5 37.15625 16.890625 35.375 
Q 19.28125 33.59375 26.515625 31.984375 
L 29.59375 31.296875 
Q 39.15625 29.25 43.1875 25.515625 
Q 47.21875 21.78125 47.21875 15.09375 
Q 47.21875 7.46875 41.1875 3.015625 
Q 35.15625 -1.421875 24.609375 -1.421875 
Q 20.21875 -1.421875 15.453125 -0.5625 
Q 10.6875 0.296875 5.421875 2 
L 5.421875 11.28125 
Q 10.40625 8.6875 15.234375 7.390625 
Q 20.0625 6.109375 24.8125 6.109375 
Q 31.15625 6.109375 34.5625 8.28125 
Q 37.984375 10.453125 37.984375 14.40625 
Q 37.984375 18.0625 35.515625 20.015625 
Q 33.0625 21.96875 24.703125 23.78125 
L 21.578125 24.515625 
Q 13.234375 26.265625 9.515625 29.90625 
Q 5.8125 33.546875 5.8125 39.890625 
Q 5.8125 47.609375 11.28125 51.796875 
Q 16.75 56 26.8125 56 
Q 31.78125 56 36.171875 55.265625 
Q 40.578125 54.546875 44.28125 53.078125 
z
" id="DejaVuSans-115"/>
     <path d="M 30.609375 48.390625 
Q 23.390625 48.390625 19.1875 42.75 
Q 14.984375 37.109375 14.984375 27.296875 
Q 14.984375 17.484375 19.15625 11.84375 
Q 23.34375 6.203125 30.609375 6.203125 
Q 37.796875 6.203125 41.984375 11.859375 
Q 46.1875 17.53125 46.1875 27.296875 
Q 46.1875 37.015625 41.984375 42.703125 
Q 37.796875 48.390625 30.609375 48.390625 
z
M 30.609375 56 
Q 42.328125 56 49.015625 48.375 
Q 55.71875 40.765625 55.71875 27.296875 
Q 55.71875 13.875 49.015625 6.21875 
Q 42.328125 -1.421875 30.609375 -1.421875 
Q 18.84375 -1.421875 12.171875 6.21875 
Q 5.515625 13.875 5.515625 27.296875 
Q 5.515625 40.765625 12.171875 48.375 
Q 18.84375 56 30.609375 56 
z
" id="DejaVuSans-111"/>
     <path d="M 9.421875 54.6875 
L 18.40625 54.6875 
L 18.40625 0 
L 9.421875 0 
z
M 9.421875 75.984375 
L 18.40625 75.984375 
L 18.40625 64.59375 
L 9.421875 64.59375 
z
" id="DejaVuSans-105"/>
     <path d="M 18.3125 70.21875 
L 18.3125 54.6875 
L 36.8125 54.6875 
L 36.8125 47.703125 
L 18.3125 47.703125 
L 18.3125 18.015625 
Q 18.3125 11.328125 20.140625 9.421875 
Q 21.96875 7.515625 27.59375 7.515625 
L 36.8125 7.515625 
L 36.8125 0 
L 27.59375 0 
Q 17.1875 0 13.234375 3.875 
Q 9.28125 7.765625 9.28125 18.015625 
L 9.28125 47.703125 
L 2.6875 47.703125 
L 2.6875 54.6875 
L 9.28125 54.6875 
L 9.28125 70.21875 
z
" id="DejaVuSans-116"/>
     <path d="M 54.890625 33.015625 
L 54.890625 0 
L 45.90625 0 
L 45.90625 32.71875 
Q 45.90625 40.484375 42.875 44.328125 
Q 39.84375 48.1875 33.796875 48.1875 
Q 26.515625 48.1875 22.3125 43.546875 
Q 18.109375 38.921875 18.109375 30.90625 
L 18.109375 0 
L 9.078125 0 
L 9.078125 54.6875 
L 18.109375 54.6875 
L 18.109375 46.1875 
Q 21.34375 51.125 25.703125 53.5625 
Q 30.078125 56 35.796875 56 
Q 45.21875 56 50.046875 50.171875 
Q 54.890625 44.34375 54.890625 33.015625 
z
" id="DejaVuSans-110"/>
     <path id="DejaVuSans-32"/>
     <path d="M 37.109375 75.984375 
L 37.109375 68.5 
L 28.515625 68.5 
Q 23.6875 68.5 21.796875 66.546875 
Q 19.921875 64.59375 19.921875 59.515625 
L 19.921875 54.6875 
L 34.71875 54.6875 
L 34.71875 47.703125 
L 19.921875 47.703125 
L 19.921875 0 
L 10.890625 0 
L 10.890625 47.703125 
L 2.296875 47.703125 
L 2.296875 54.6875 
L 10.890625 54.6875 
L 10.890625 58.5 
Q 10.890625 67.625 15.140625 71.796875 
Q 19.390625 75.984375 28.609375 75.984375 
z
" id="DejaVuSans-102"/>
     <path d="M 2.984375 54.6875 
L 12.5 54.6875 
L 29.59375 8.796875 
L 46.6875 54.6875 
L 56.203125 54.6875 
L 35.6875 0 
L 23.484375 0 
z
" id="DejaVuSans-118"/>
     <path d="M 10.6875 12.40625 
L 21 12.40625 
L 21 0 
L 10.6875 0 
z
" id="DejaVuSans-46"/>
     <path d="M 8.5 21.578125 
L 8.5 54.6875 
L 17.484375 54.6875 
L 17.484375 21.921875 
Q 17.484375 14.15625 20.5 10.265625 
Q 23.53125 6.390625 29.59375 6.390625 
Q 36.859375 6.390625 41.078125 11.03125 
Q 45.3125 15.671875 45.3125 23.6875 
L 45.3125 54.6875 
L 54.296875 54.6875 
L 54.296875 0 
L 45.3125 0 
L 45.3125 8.40625 
Q 42.046875 3.421875 37.71875 1 
Q 33.40625 -1.421875 27.6875 -1.421875 
Q 18.265625 -1.421875 13.375 4.4375 
Q 8.5 10.296875 8.5 21.578125 
z
M 31.109375 56 
z
" id="DejaVuSans-117"/>
     <path d="M 48.6875 27.296875 
Q 48.6875 37.203125 44.609375 42.84375 
Q 40.53125 48.484375 33.40625 48.484375 
Q 26.265625 48.484375 22.1875 42.84375 
Q 18.109375 37.203125 18.109375 27.296875 
Q 18.109375 17.390625 22.1875 11.75 
Q 26.265625 6.109375 33.40625 6.109375 
Q 40.53125 6.109375 44.609375 11.75 
Q 48.6875 17.390625 48.6875 27.296875 
z
M 18.109375 46.390625 
Q 20.953125 51.265625 25.265625 53.625 
Q 29.59375 56 35.59375 56 
Q 45.5625 56 51.78125 48.09375 
Q 58.015625 40.1875 58.015625 27.296875 
Q 58.015625 14.40625 51.78125 6.484375 
Q 45.5625 -1.421875 35.59375 -1.421875 
Q 29.59375 -1.421875 25.265625 0.953125 
Q 20.953125 3.328125 18.109375 8.203125 
L 18.109375 0 
L 9.078125 0 
L 9.078125 75.984375 
L 18.109375 75.984375 
z
" id="DejaVuSans-98"/>
    </defs>
    <g transform="translate(118.302188 35.472)scale(0.12 -0.12)">
     <use xlink:href="#DejaVuSans-65"/>
     <use x="68.408203" xlink:href="#DejaVuSans-115"/>
     <use x="120.507812" xlink:href="#DejaVuSans-115"/>
     <use x="172.607422" xlink:href="#DejaVuSans-111"/>
     <use x="233.789062" xlink:href="#DejaVuSans-99"/>
     <use x="288.769531" xlink:href="#DejaVuSans-105"/>
     <use x="316.552734" xlink:href="#DejaVuSans-97"/>
     <use x="377.832031" xlink:href="#DejaVuSans-116"/>
     <use x="417.041016" xlink:href="#DejaVuSans-105"/>
     <use x="444.824219" xlink:href="#DejaVuSans-111"/>
     <use x="506.005859" xlink:href="#DejaVuSans-110"/>
     <use x="569.384766" xlink:href="#DejaVuSans-32"/>
     <use x="601.171875" xlink:href="#DejaVuSans-111"/>
     <use x="662.353516" xlink:href="#DejaVuSans-102"/>
     <use x="697.558594" xlink:href="#DejaVuSans-32"/>
     <use x="729.345703" xlink:href="#DejaVuSans-99"/>
     <use x="784.326172" xlink:href="#DejaVuSans-114"/>
     <use x="825.439453" xlink:href="#DejaVuSans-112"/>
     <use x="888.916016" xlink:href="#DejaVuSans-112"/>
     <use x="952.392578" xlink:href="#DejaVuSans-101"/>
     <use x="1013.916016" xlink:href="#DejaVuSans-97"/>
     <use x="1075.195312" xlink:href="#DejaVuSans-107"/>
     <use x="1131.355469" xlink:href="#DejaVuSans-97"/>
     <use x="1192.634766" xlink:href="#DejaVuSans-99"/>
     <use x="1247.615234" xlink:href="#DejaVuSans-32"/>
     <use x="1279.402344" xlink:href="#DejaVuSans-118"/>
     <use x="1338.582031" xlink:href="#DejaVuSans-115"/>
     <use x="1390.681641" xlink:href="#DejaVuSans-46"/>
     <use x="1422.46875" xlink:href="#DejaVuSans-32"/>
     <use x="1454.255859" xlink:href="#DejaVuSans-105"/>
     <use x="1482.039062" xlink:href="#DejaVuSans-110"/>
     <use x="1545.417969" xlink:href="#DejaVuSans-116"/>
     <use x="1584.626953" xlink:href="#DejaVuSans-117"/>
     <use x="1648.005859" xlink:href="#DejaVuSans-98"/>
     <use x="1711.482422" xlink:href="#DejaVuSans-97"/>
     <use x="1772.761719" xlink:href="#DejaVuSans-116"/>
     <use x="1811.970703" xlink:href="#DejaVuSans-105"/>
     <use x="1839.753906" xlink:href="#DejaVuSans-111"/>
     <use x="1900.935547" xlink:href="#DejaVuSans-110"/>
    </g>
   </g>
   <g id="legend_1">
    <g id="patch_7">
     <path d="M 273.948125 78.82825 
L 407.72 78.82825 
Q 409.72 78.82825 409.72 76.82825 
L 409.72 48.472 
Q 409.72 46.472 407.72 46.472 
L 273.948125 46.472 
Q 271.948125 46.472 271.948125 48.472 
L 271.948125 76.82825 
Q 271.948125 78.82825 273.948125 78.82825 
z
" style="fill:#ffffff;opacity:0.8;stroke:#cccccc;stroke-linejoin:miter;"/>
    </g>
    <g id="line2d_11">
     <path d="M 275.948125 54.570437 
L 295.948125 54.570437 
" style="fill:none;stroke:#ffa500;stroke-linecap:square;stroke-width:1.5;"/>
    </g>
    <g id="line2d_12"/>
    <g id="text_8">
     <!-- intubation (56) -->
     <defs>
      <path d="M 31 75.875 
Q 24.46875 64.65625 21.28125 53.65625 
Q 18.109375 42.671875 18.109375 31.390625 
Q 18.109375 20.125 21.3125 9.0625 
Q 24.515625 -2 31 -13.1875 
L 23.1875 -13.1875 
Q 15.875 -1.703125 12.234375 9.375 
Q 8.59375 20.453125 8.59375 31.390625 
Q 8.59375 42.28125 12.203125 53.3125 
Q 15.828125 64.359375 23.1875 75.875 
z
" id="DejaVuSans-40"/>
      <path d="M 10.796875 72.90625 
L 49.515625 72.90625 
L 49.515625 64.59375 
L 19.828125 64.59375 
L 19.828125 46.734375 
Q 21.96875 47.46875 24.109375 47.828125 
Q 26.265625 48.1875 28.421875 48.1875 
Q 40.625 48.1875 47.75 41.5 
Q 54.890625 34.8125 54.890625 23.390625 
Q 54.890625 11.625 47.5625 5.09375 
Q 40.234375 -1.421875 26.90625 -1.421875 
Q 22.3125 -1.421875 17.546875 -0.640625 
Q 12.796875 0.140625 7.71875 1.703125 
L 7.71875 11.625 
Q 12.109375 9.234375 16.796875 8.0625 
Q 21.484375 6.890625 26.703125 6.890625 
Q 35.15625 6.890625 40.078125 11.328125 
Q 45.015625 15.765625 45.015625 23.390625 
Q 45.015625 31 40.078125 35.4375 
Q 35.15625 39.890625 26.703125 39.890625 
Q 22.75 39.890625 18.8125 39.015625 
Q 14.890625 38.140625 10.796875 36.28125 
z
" id="DejaVuSans-53"/>
      <path d="M 8.015625 75.875 
L 15.828125 75.875 
Q 23.140625 64.359375 26.78125 53.3125 
Q 30.421875 42.28125 30.421875 31.390625 
Q 30.421875 20.453125 26.78125 9.375 
Q 23.140625 -1.703125 15.828125 -13.1875 
L 8.015625 -13.1875 
Q 14.5 -2 17.703125 9.0625 
Q 20.90625 20.125 20.90625 31.390625 
Q 20.90625 42.671875 17.703125 53.65625 
Q 14.5 64.65625 8.015625 75.875 
z
" id="DejaVuSans-41"/>
     </defs>
     <g transform="translate(303.948125 58.070437)scale(0.1 -0.1)">
      <use xlink:href="#DejaVuSans-105"/>
      <use x="27.783203" xlink:href="#DejaVuSans-110"/>
      <use x="91.162109" xlink:href="#DejaVuSans-116"/>
      <use x="130.371094" xlink:href="#DejaVuSans-117"/>
      <use x="193.75" xlink:href="#DejaVuSans-98"/>
      <use x="257.226562" xlink:href="#DejaVuSans-97"/>
      <use x="318.505859" xlink:href="#DejaVuSans-116"/>
      <use x="357.714844" xlink:href="#DejaVuSans-105"/>
      <use x="385.498047" xlink:href="#DejaVuSans-111"/>
      <use x="446.679688" xlink:href="#DejaVuSans-110"/>
      <use x="510.058594" xlink:href="#DejaVuSans-32"/>
      <use x="541.845703" xlink:href="#DejaVuSans-40"/>
      <use x="580.859375" xlink:href="#DejaVuSans-53"/>
      <use x="644.482422" xlink:href="#DejaVuSans-54"/>
      <use x="708.105469" xlink:href="#DejaVuSans-41"/>
     </g>
    </g>
    <g id="line2d_13">
     <path d="M 275.948125 69.248562 
L 295.948125 69.248562 
" style="fill:none;stroke:#008000;stroke-linecap:square;stroke-width:1.5;"/>
    </g>
    <g id="line2d_14"/>
    <g id="text_9">
     <!-- Not intubation (138) -->
     <defs>
      <path d="M 9.8125 72.90625 
L 23.09375 72.90625 
L 55.421875 11.921875 
L 55.421875 72.90625 
L 64.984375 72.90625 
L 64.984375 0 
L 51.703125 0 
L 19.390625 60.984375 
L 19.390625 0 
L 9.8125 0 
z
" id="DejaVuSans-78"/>
      <path d="M 12.40625 8.296875 
L 28.515625 8.296875 
L 28.515625 63.921875 
L 10.984375 60.40625 
L 10.984375 69.390625 
L 28.421875 72.90625 
L 38.28125 72.90625 
L 38.28125 8.296875 
L 54.390625 8.296875 
L 54.390625 0 
L 12.40625 0 
z
" id="DejaVuSans-49"/>
      <path d="M 40.578125 39.3125 
Q 47.65625 37.796875 51.625 33 
Q 55.609375 28.21875 55.609375 21.1875 
Q 55.609375 10.40625 48.1875 4.484375 
Q 40.765625 -1.421875 27.09375 -1.421875 
Q 22.515625 -1.421875 17.65625 -0.515625 
Q 12.796875 0.390625 7.625 2.203125 
L 7.625 11.71875 
Q 11.71875 9.328125 16.59375 8.109375 
Q 21.484375 6.890625 26.8125 6.890625 
Q 36.078125 6.890625 40.9375 10.546875 
Q 45.796875 14.203125 45.796875 21.1875 
Q 45.796875 27.640625 41.28125 31.265625 
Q 36.765625 34.90625 28.71875 34.90625 
L 20.21875 34.90625 
L 20.21875 43.015625 
L 29.109375 43.015625 
Q 36.375 43.015625 40.234375 45.921875 
Q 44.09375 48.828125 44.09375 54.296875 
Q 44.09375 59.90625 40.109375 62.90625 
Q 36.140625 65.921875 28.71875 65.921875 
Q 24.65625 65.921875 20.015625 65.03125 
Q 15.375 64.15625 9.8125 62.3125 
L 9.8125 71.09375 
Q 15.4375 72.65625 20.34375 73.4375 
Q 25.25 74.21875 29.59375 74.21875 
Q 40.828125 74.21875 47.359375 69.109375 
Q 53.90625 64.015625 53.90625 55.328125 
Q 53.90625 49.265625 50.4375 45.09375 
Q 46.96875 40.921875 40.578125 39.3125 
z
" id="DejaVuSans-51"/>
     </defs>
     <g transform="translate(303.948125 72.748562)scale(0.1 -0.1)">
      <use xlink:href="#DejaVuSans-78"/>
      <use x="74.804688" xlink:href="#DejaVuSans-111"/>
      <use x="135.986328" xlink:href="#DejaVuSans-116"/>
      <use x="175.195312" xlink:href="#DejaVuSans-32"/>
      <use x="206.982422" xlink:href="#DejaVuSans-105"/>
      <use x="234.765625" xlink:href="#DejaVuSans-110"/>
      <use x="298.144531" xlink:href="#DejaVuSans-116"/>
      <use x="337.353516" xlink:href="#DejaVuSans-117"/>
      <use x="400.732422" xlink:href="#DejaVuSans-98"/>
      <use x="464.208984" xlink:href="#DejaVuSans-97"/>
      <use x="525.488281" xlink:href="#DejaVuSans-116"/>
      <use x="564.697266" xlink:href="#DejaVuSans-105"/>
      <use x="592.480469" xlink:href="#DejaVuSans-111"/>
      <use x="653.662109" xlink:href="#DejaVuSans-110"/>
      <use x="717.041016" xlink:href="#DejaVuSans-32"/>
      <use x="748.828125" xlink:href="#DejaVuSans-40"/>
      <use x="787.841797" xlink:href="#DejaVuSans-49"/>
      <use x="851.464844" xlink:href="#DejaVuSans-51"/>
      <use x="915.087891" xlink:href="#DejaVuSans-56"/>
      <use x="978.710938" xlink:href="#DejaVuSans-41"/>
     </g>
    </g>
   </g>
  </g>
 </g>
 <defs>
  <clipPath id="p2b64d44cfc">
   <rect height="266.112" width="357.12" x="57.6" y="41.472"/>
  </clipPath>
 </defs>
</svg>
