<?xml version="1.0" encoding="utf-8" standalone="no"?>
<!DOCTYPE svg PUBLIC "-//W3C//DTD SVG 1.1//EN"
  "http://www.w3.org/Graphics/SVG/1.1/DTD/svg11.dtd">
<!-- Created with matplotlib (https://matplotlib.org/) -->
<svg height="345.6pt" version="1.1" viewBox="0 0 460.8 345.6" width="460.8pt" xmlns="http://www.w3.org/2000/svg" xmlns:xlink="http://www.w3.org/1999/xlink">
 <defs>
  <style type="text/css">
*{stroke-linecap:butt;stroke-linejoin:round;}
  </style>
 </defs>
 <g id="figure_1">
  <g id="patch_1">
   <path d="M 0 345.6 
L 460.8 345.6 
L 460.8 0 
L 0 0 
z
" style="fill:#ffffff;"/>
  </g>
  <g id="axes_1">
   <g id="patch_2">
    <path d="M 57.6 307.584 
L 414.72 307.584 
L 414.72 41.472 
L 57.6 41.472 
z
" style="fill:#ffffff;"/>
   </g>
   <g id="PolyCollection_1">
    <defs>
     <path d="M 73.832727 -168.56792 
L 73.832727 -173.57608 
L 76.87134 -174.680646 
L 79.909953 -176.158597 
L 82.948566 -178.086203 
L 85.987179 -180.536269 
L 89.025791 -183.570396 
L 92.064404 -187.230201 
L 95.103017 -191.528489 
L 98.14163 -196.441629 
L 101.180243 -201.904501 
L 104.218855 -207.809291 
L 107.257468 -214.00904 
L 110.296081 -220.326237 
L 113.334694 -226.565996 
L 116.373307 -232.532603 
L 119.411919 -238.047517 
L 122.450532 -242.966573 
L 125.489145 -247.194077 
L 128.527758 -250.691854 
L 131.566371 -253.482002 
L 134.604983 -255.643011 
L 137.643596 -257.299839 
L 140.682209 -258.609371 
L 143.720822 -259.74322 
L 146.759435 -260.870037 
L 149.798048 -262.139357 
L 152.83666 -263.668549 
L 155.875273 -265.533867 
L 158.913886 -267.765925 
L 161.952499 -270.349398 
L 164.991112 -273.22636 
L 168.029724 -276.302458 
L 171.068337 -279.455126 
L 174.10695 -282.543099 
L 177.145563 -285.416594 
L 180.184176 -287.927606 
L 183.222788 -289.939777 
L 186.261401 -291.337264 
L 189.300014 -292.032 
L 192.338627 -291.968769 
L 195.37724 -291.127622 
L 198.415853 -289.523391 
L 201.454465 -287.20239 
L 204.493078 -284.236733 
L 207.531691 -280.717005 
L 210.570304 -276.744256 
L 213.608917 -272.422288 
L 216.647529 -267.851128 
L 219.686142 -263.122276 
L 222.724755 -258.316003 
L 225.763368 -253.50058 
L 228.801981 -248.733033 
L 231.840593 -244.060795 
L 234.879206 -239.523581 
L 237.917819 -235.154841 
L 240.956432 -230.982388 
L 243.995045 -227.028021 
L 247.033658 -223.306291 
L 250.07227 -219.822808 
L 253.110883 -216.572678 
L 256.149496 -213.539709 
L 259.188109 -210.696898 
L 262.226722 -208.008509 
L 265.265334 -205.433717 
L 268.303947 -202.931403 
L 271.34256 -200.465469 
L 274.381173 -198.009809 
L 277.419786 -195.552115 
L 280.458398 -193.095876 
L 283.497011 -190.660225 
L 286.535624 -188.277654 
L 289.574237 -185.989996 
L 292.61285 -183.843295 
L 295.651462 -181.882345 
L 298.690075 -180.145621 
L 301.728688 -178.661217 
L 304.767301 -177.444147 
L 307.805914 -176.495164 
L 310.844527 -175.801039 
L 313.883139 -175.336068 
L 316.921752 -175.064553 
L 319.960365 -174.943923 
L 322.998978 -174.928196 
L 326.037591 -174.971505 
L 329.076203 -175.0314 
L 332.114816 -175.071696 
L 335.153429 -175.064623 
L 338.192042 -174.992106 
L 341.230655 -174.846084 
L 344.269267 -174.627851 
L 347.30788 -174.346568 
L 350.346493 -174.017133 
L 353.385106 -173.65775 
L 356.423719 -173.287481 
L 359.462332 -172.92412 
L 362.500944 -172.582565 
L 365.539557 -172.273844 
L 368.57817 -172.004772 
L 371.616783 -171.778172 
L 374.655396 -171.593489 
L 374.655396 -170.550511 
L 374.655396 -170.550511 
L 371.616783 -170.365828 
L 368.57817 -170.139228 
L 365.539557 -169.870156 
L 362.500944 -169.561435 
L 359.462332 -169.21988 
L 356.423719 -168.856519 
L 353.385106 -168.48625 
L 350.346493 -168.126867 
L 347.30788 -167.797432 
L 344.269267 -167.516149 
L 341.230655 -167.297916 
L 338.192042 -167.151894 
L 335.153429 -167.079377 
L 332.114816 -167.072304 
L 329.076203 -167.1126 
L 326.037591 -167.172495 
L 322.998978 -167.215804 
L 319.960365 -167.200077 
L 316.921752 -167.079447 
L 313.883139 -166.807932 
L 310.844527 -166.342961 
L 307.805914 -165.648836 
L 304.767301 -164.699853 
L 301.728688 -163.482783 
L 298.690075 -161.998379 
L 295.651462 -160.261655 
L 292.61285 -158.300705 
L 289.574237 -156.154004 
L 286.535624 -153.866346 
L 283.497011 -151.483775 
L 280.458398 -149.048124 
L 277.419786 -146.591885 
L 274.381173 -144.134191 
L 271.34256 -141.678531 
L 268.303947 -139.212597 
L 265.265334 -136.710283 
L 262.226722 -134.135491 
L 259.188109 -131.447102 
L 256.149496 -128.604291 
L 253.110883 -125.571322 
L 250.07227 -122.321192 
L 247.033658 -118.837709 
L 243.995045 -115.115979 
L 240.956432 -111.161612 
L 237.917819 -106.989159 
L 234.879206 -102.620419 
L 231.840593 -98.083205 
L 228.801981 -93.410967 
L 225.763368 -88.64342 
L 222.724755 -83.827997 
L 219.686142 -79.021724 
L 216.647529 -74.292872 
L 213.608917 -69.721712 
L 210.570304 -65.399744 
L 207.531691 -61.426995 
L 204.493078 -57.907267 
L 201.454465 -54.94161 
L 198.415853 -52.620609 
L 195.37724 -51.016378 
L 192.338627 -50.175231 
L 189.300014 -50.112 
L 186.261401 -50.806736 
L 183.222788 -52.204223 
L 180.184176 -54.216394 
L 177.145563 -56.727406 
L 174.10695 -59.600901 
L 171.068337 -62.688874 
L 168.029724 -65.841542 
L 164.991112 -68.91764 
L 161.952499 -71.794602 
L 158.913886 -74.378075 
L 155.875273 -76.610133 
L 152.83666 -78.475451 
L 149.798048 -80.004643 
L 146.759435 -81.273963 
L 143.720822 -82.40078 
L 140.682209 -83.534629 
L 137.643596 -84.844161 
L 134.604983 -86.500989 
L 131.566371 -88.661998 
L 128.527758 -91.452146 
L 125.489145 -94.949923 
L 122.450532 -99.177427 
L 119.411919 -104.096483 
L 116.373307 -109.611397 
L 113.334694 -115.578004 
L 110.296081 -121.817763 
L 107.257468 -128.13496 
L 104.218855 -134.334709 
L 101.180243 -140.239499 
L 98.14163 -145.702371 
L 95.103017 -150.615511 
L 92.064404 -154.913799 
L 89.025791 -158.573604 
L 85.987179 -161.607731 
L 82.948566 -164.057797 
L 79.909953 -165.985403 
L 76.87134 -167.463354 
L 73.832727 -168.56792 
z
" id="m2be9c63974" style="stroke:#4c4c4c;stroke-opacity:0.5;stroke-width:1.5;"/>
    </defs>
    <g clip-path="url(#p789f136b2e)">
     <use style="fill:#df9c20;fill-opacity:0.5;stroke:#4c4c4c;stroke-opacity:0.5;stroke-width:1.5;" x="0" xlink:href="#m2be9c63974" y="345.6"/>
    </g>
   </g>
   <g id="PolyCollection_2">
    <defs>
     <path d="M 81.82086 -166.369739 
L 81.82086 -175.774261 
L 85.019511 -178.630175 
L 88.218162 -182.719789 
L 91.416812 -188.296447 
L 94.615463 -195.53606 
L 97.814114 -204.48 
L 101.012764 -214.988035 
L 104.211415 -226.715776 
L 107.410065 -239.127351 
L 110.608716 -251.546083 
L 113.807367 -263.236071 
L 117.006017 -273.499025 
L 120.204668 -281.766355 
L 123.403319 -287.667608 
L 126.601969 -291.062416 
L 129.80062 -292.032 
L 132.99927 -290.835486 
L 136.197921 -287.843506 
L 139.396572 -283.46536 
L 142.595222 -278.085755 
L 145.793873 -272.023225 
L 148.992524 -265.515706 
L 152.191174 -258.731305 
L 155.389825 -251.79599 
L 158.588475 -244.826351 
L 161.787126 -237.955692 
L 164.985777 -231.345042 
L 168.184427 -225.176068 
L 171.383078 -219.628594 
L 174.581729 -214.84983 
L 177.780379 -210.924601 
L 180.97903 -207.855387 
L 184.177681 -205.558275 
L 187.376331 -203.876776 
L 190.574982 -202.610828 
L 193.773632 -201.554429 
L 196.972283 -200.53303 
L 200.170934 -199.431811 
L 203.369584 -198.208319 
L 206.568235 -196.887052 
L 209.766886 -195.538302 
L 212.965536 -194.247658 
L 216.164187 -193.084744 
L 219.362837 -192.079545 
L 222.561488 -191.212234 
L 225.760139 -190.418336 
L 228.958789 -189.606766 
L 232.15744 -188.684826 
L 235.356091 -187.582685 
L 238.554741 -186.270658 
L 241.753392 -184.76528 
L 244.952042 -183.123821 
L 248.150693 -181.430154 
L 251.349344 -179.776802 
L 254.547994 -178.248003 
L 257.746645 -176.907308 
L 260.945296 -175.791188 
L 264.143946 -174.908408 
L 267.342597 -174.243862 
L 270.541248 -173.765267 
L 273.739898 -173.431239 
L 276.938549 -173.199389 
L 280.137199 -173.033227 
L 283.33585 -172.906716 
L 286.534501 -172.805705 
L 289.733151 -172.72611 
L 292.931802 -172.669573 
L 296.130453 -172.638098 
L 299.329103 -172.62947 
L 302.527754 -172.634972 
L 305.726404 -172.640071 
L 308.925055 -172.627683 
L 312.123706 -172.582734 
L 315.322356 -172.496383 
L 318.521007 -172.368478 
L 321.719658 -172.207631 
L 324.918308 -172.029113 
L 328.116959 -171.85151 
L 331.315609 -171.693263 
L 334.51426 -171.570023 
L 337.712911 -171.493167 
L 340.911561 -171.469311 
L 344.110212 -171.500311 
L 347.308863 -171.58326 
L 350.507513 -171.710305 
L 353.706164 -171.868488 
L 356.904815 -172.040115 
L 360.103465 -172.204163 
L 363.302116 -172.338877 
L 366.500766 -172.42523 
L 369.699417 -172.45042 
L 372.898068 -172.410378 
L 376.096718 -172.310469 
L 379.295369 -172.164112 
L 382.49402 -171.989722 
L 385.69267 -171.806871 
L 388.891321 -171.632745 
L 392.089971 -171.479729 
L 395.288622 -171.354508 
L 398.487273 -171.258527 
L 398.487273 -170.885473 
L 398.487273 -170.885473 
L 395.288622 -170.789492 
L 392.089971 -170.664271 
L 388.891321 -170.511255 
L 385.69267 -170.337129 
L 382.49402 -170.154278 
L 379.295369 -169.979888 
L 376.096718 -169.833531 
L 372.898068 -169.733622 
L 369.699417 -169.69358 
L 366.500766 -169.71877 
L 363.302116 -169.805123 
L 360.103465 -169.939837 
L 356.904815 -170.103885 
L 353.706164 -170.275512 
L 350.507513 -170.433695 
L 347.308863 -170.56074 
L 344.110212 -170.643689 
L 340.911561 -170.674689 
L 337.712911 -170.650833 
L 334.51426 -170.573977 
L 331.315609 -170.450737 
L 328.116959 -170.29249 
L 324.918308 -170.114887 
L 321.719658 -169.936369 
L 318.521007 -169.775522 
L 315.322356 -169.647617 
L 312.123706 -169.561266 
L 308.925055 -169.516317 
L 305.726404 -169.503929 
L 302.527754 -169.509028 
L 299.329103 -169.51453 
L 296.130453 -169.505902 
L 292.931802 -169.474427 
L 289.733151 -169.41789 
L 286.534501 -169.338295 
L 283.33585 -169.237284 
L 280.137199 -169.110773 
L 276.938549 -168.944611 
L 273.739898 -168.712761 
L 270.541248 -168.378733 
L 267.342597 -167.900138 
L 264.143946 -167.235592 
L 260.945296 -166.352812 
L 257.746645 -165.236692 
L 254.547994 -163.895997 
L 251.349344 -162.367198 
L 248.150693 -160.713846 
L 244.952042 -159.020179 
L 241.753392 -157.37872 
L 238.554741 -155.873342 
L 235.356091 -154.561315 
L 232.15744 -153.459174 
L 228.958789 -152.537234 
L 225.760139 -151.725664 
L 222.561488 -150.931766 
L 219.362837 -150.064455 
L 216.164187 -149.059256 
L 212.965536 -147.896342 
L 209.766886 -146.605698 
L 206.568235 -145.256948 
L 203.369584 -143.935681 
L 200.170934 -142.712189 
L 196.972283 -141.61097 
L 193.773632 -140.589571 
L 190.574982 -139.533172 
L 187.376331 -138.267224 
L 184.177681 -136.585725 
L 180.97903 -134.288613 
L 177.780379 -131.219399 
L 174.581729 -127.29417 
L 171.383078 -122.515406 
L 168.184427 -116.967932 
L 164.985777 -110.798958 
L 161.787126 -104.188308 
L 158.588475 -97.317649 
L 155.389825 -90.34801 
L 152.191174 -83.412695 
L 148.992524 -76.628294 
L 145.793873 -70.120775 
L 142.595222 -64.058245 
L 139.396572 -58.67864 
L 136.197921 -54.300494 
L 132.99927 -51.308514 
L 129.80062 -50.112 
L 126.601969 -51.081584 
L 123.403319 -54.476392 
L 120.204668 -60.377645 
L 117.006017 -68.644975 
L 113.807367 -78.907929 
L 110.608716 -90.597917 
L 107.410065 -103.016649 
L 104.211415 -115.428224 
L 101.012764 -127.155965 
L 97.814114 -137.664 
L 94.615463 -146.60794 
L 91.416812 -153.847553 
L 88.218162 -159.424211 
L 85.019511 -163.513825 
L 81.82086 -166.369739 
z
" id="m7b28635c28" style="stroke:#262626;stroke-opacity:0.5;stroke-width:1.5;"/>
    </defs>
    <g clip-path="url(#p789f136b2e)">
     <use style="fill:#107010;fill-opacity:0.5;stroke:#262626;stroke-opacity:0.5;stroke-width:1.5;" x="0" xlink:href="#m7b28635c28" y="345.6"/>
    </g>
   </g>
   <g id="matplotlib.axis_1">
    <g id="xtick_1">
     <g id="line2d_1">
      <defs>
       <path d="M 0 0 
L 0 3.5 
" id="m35d1acf65c" style="stroke:#000000;stroke-width:0.8;"/>
      </defs>
      <g>
       <use style="stroke:#000000;stroke-width:0.8;" x="109.201222" xlink:href="#m35d1acf65c" y="307.584"/>
      </g>
     </g>
     <g id="text_1">
      <!-- 0 -->
      <defs>
       <path d="M 31.78125 66.40625 
Q 24.171875 66.40625 20.328125 58.90625 
Q 16.5 51.421875 16.5 36.375 
Q 16.5 21.390625 20.328125 13.890625 
Q 24.171875 6.390625 31.78125 6.390625 
Q 39.453125 6.390625 43.28125 13.890625 
Q 47.125 21.390625 47.125 36.375 
Q 47.125 51.421875 43.28125 58.90625 
Q 39.453125 66.40625 31.78125 66.40625 
z
M 31.78125 74.21875 
Q 44.046875 74.21875 50.515625 64.515625 
Q 56.984375 54.828125 56.984375 36.375 
Q 56.984375 17.96875 50.515625 8.265625 
Q 44.046875 -1.421875 31.78125 -1.421875 
Q 19.53125 -1.421875 13.0625 8.265625 
Q 6.59375 17.96875 6.59375 36.375 
Q 6.59375 54.828125 13.0625 64.515625 
Q 19.53125 74.21875 31.78125 74.21875 
z
" id="DejaVuSans-48"/>
      </defs>
      <g transform="translate(106.019972 322.182437)scale(0.1 -0.1)">
       <use xlink:href="#DejaVuSans-48"/>
      </g>
     </g>
    </g>
    <g id="xtick_2">
     <g id="line2d_2">
      <g>
       <use style="stroke:#000000;stroke-width:0.8;" x="179.136079" xlink:href="#m35d1acf65c" y="307.584"/>
      </g>
     </g>
     <g id="text_2">
      <!-- 20 -->
      <defs>
       <path d="M 19.1875 8.296875 
L 53.609375 8.296875 
L 53.609375 0 
L 7.328125 0 
L 7.328125 8.296875 
Q 12.9375 14.109375 22.625 23.890625 
Q 32.328125 33.6875 34.8125 36.53125 
Q 39.546875 41.84375 41.421875 45.53125 
Q 43.3125 49.21875 43.3125 52.78125 
Q 43.3125 58.59375 39.234375 62.25 
Q 35.15625 65.921875 28.609375 65.921875 
Q 23.96875 65.921875 18.8125 64.3125 
Q 13.671875 62.703125 7.8125 59.421875 
L 7.8125 69.390625 
Q 13.765625 71.78125 18.9375 73 
Q 24.125 74.21875 28.421875 74.21875 
Q 39.75 74.21875 46.484375 68.546875 
Q 53.21875 62.890625 53.21875 53.421875 
Q 53.21875 48.921875 51.53125 44.890625 
Q 49.859375 40.875 45.40625 35.40625 
Q 44.1875 33.984375 37.640625 27.21875 
Q 31.109375 20.453125 19.1875 8.296875 
z
" id="DejaVuSans-50"/>
      </defs>
      <g transform="translate(172.773579 322.182437)scale(0.1 -0.1)">
       <use xlink:href="#DejaVuSans-50"/>
       <use x="63.623047" xlink:href="#DejaVuSans-48"/>
      </g>
     </g>
    </g>
    <g id="xtick_3">
     <g id="line2d_3">
      <g>
       <use style="stroke:#000000;stroke-width:0.8;" x="249.070936" xlink:href="#m35d1acf65c" y="307.584"/>
      </g>
     </g>
     <g id="text_3">
      <!-- 40 -->
      <defs>
       <path d="M 37.796875 64.3125 
L 12.890625 25.390625 
L 37.796875 25.390625 
z
M 35.203125 72.90625 
L 47.609375 72.90625 
L 47.609375 25.390625 
L 58.015625 25.390625 
L 58.015625 17.1875 
L 47.609375 17.1875 
L 47.609375 0 
L 37.796875 0 
L 37.796875 17.1875 
L 4.890625 17.1875 
L 4.890625 26.703125 
z
" id="DejaVuSans-52"/>
      </defs>
      <g transform="translate(242.708436 322.182437)scale(0.1 -0.1)">
       <use xlink:href="#DejaVuSans-52"/>
       <use x="63.623047" xlink:href="#DejaVuSans-48"/>
      </g>
     </g>
    </g>
    <g id="xtick_4">
     <g id="line2d_4">
      <g>
       <use style="stroke:#000000;stroke-width:0.8;" x="319.005793" xlink:href="#m35d1acf65c" y="307.584"/>
      </g>
     </g>
     <g id="text_4">
      <!-- 60 -->
      <defs>
       <path d="M 33.015625 40.375 
Q 26.375 40.375 22.484375 35.828125 
Q 18.609375 31.296875 18.609375 23.390625 
Q 18.609375 15.53125 22.484375 10.953125 
Q 26.375 6.390625 33.015625 6.390625 
Q 39.65625 6.390625 43.53125 10.953125 
Q 47.40625 15.53125 47.40625 23.390625 
Q 47.40625 31.296875 43.53125 35.828125 
Q 39.65625 40.375 33.015625 40.375 
z
M 52.59375 71.296875 
L 52.59375 62.3125 
Q 48.875 64.0625 45.09375 64.984375 
Q 41.3125 65.921875 37.59375 65.921875 
Q 27.828125 65.921875 22.671875 59.328125 
Q 17.53125 52.734375 16.796875 39.40625 
Q 19.671875 43.65625 24.015625 45.921875 
Q 28.375 48.1875 33.59375 48.1875 
Q 44.578125 48.1875 50.953125 41.515625 
Q 57.328125 34.859375 57.328125 23.390625 
Q 57.328125 12.15625 50.6875 5.359375 
Q 44.046875 -1.421875 33.015625 -1.421875 
Q 20.359375 -1.421875 13.671875 8.265625 
Q 6.984375 17.96875 6.984375 36.375 
Q 6.984375 53.65625 15.1875 63.9375 
Q 23.390625 74.21875 37.203125 74.21875 
Q 40.921875 74.21875 44.703125 73.484375 
Q 48.484375 72.75 52.59375 71.296875 
z
" id="DejaVuSans-54"/>
      </defs>
      <g transform="translate(312.643293 322.182437)scale(0.1 -0.1)">
       <use xlink:href="#DejaVuSans-54"/>
       <use x="63.623047" xlink:href="#DejaVuSans-48"/>
      </g>
     </g>
    </g>
    <g id="xtick_5">
     <g id="line2d_5">
      <g>
       <use style="stroke:#000000;stroke-width:0.8;" x="388.940649" xlink:href="#m35d1acf65c" y="307.584"/>
      </g>
     </g>
     <g id="text_5">
      <!-- 80 -->
      <defs>
       <path d="M 31.78125 34.625 
Q 24.75 34.625 20.71875 30.859375 
Q 16.703125 27.09375 16.703125 20.515625 
Q 16.703125 13.921875 20.71875 10.15625 
Q 24.75 6.390625 31.78125 6.390625 
Q 38.8125 6.390625 42.859375 10.171875 
Q 46.921875 13.96875 46.921875 20.515625 
Q 46.921875 27.09375 42.890625 30.859375 
Q 38.875 34.625 31.78125 34.625 
z
M 21.921875 38.8125 
Q 15.578125 40.375 12.03125 44.71875 
Q 8.5 49.078125 8.5 55.328125 
Q 8.5 64.0625 14.71875 69.140625 
Q 20.953125 74.21875 31.78125 74.21875 
Q 42.671875 74.21875 48.875 69.140625 
Q 55.078125 64.0625 55.078125 55.328125 
Q 55.078125 49.078125 51.53125 44.71875 
Q 48 40.375 41.703125 38.8125 
Q 48.828125 37.15625 52.796875 32.3125 
Q 56.78125 27.484375 56.78125 20.515625 
Q 56.78125 9.90625 50.3125 4.234375 
Q 43.84375 -1.421875 31.78125 -1.421875 
Q 19.734375 -1.421875 13.25 4.234375 
Q 6.78125 9.90625 6.78125 20.515625 
Q 6.78125 27.484375 10.78125 32.3125 
Q 14.796875 37.15625 21.921875 38.8125 
z
M 18.3125 54.390625 
Q 18.3125 48.734375 21.84375 45.5625 
Q 25.390625 42.390625 31.78125 42.390625 
Q 38.140625 42.390625 41.71875 45.5625 
Q 45.3125 48.734375 45.3125 54.390625 
Q 45.3125 60.0625 41.71875 63.234375 
Q 38.140625 66.40625 31.78125 66.40625 
Q 25.390625 66.40625 21.84375 63.234375 
Q 18.3125 60.0625 18.3125 54.390625 
z
" id="DejaVuSans-56"/>
      </defs>
      <g transform="translate(382.578149 322.182437)scale(0.1 -0.1)">
       <use xlink:href="#DejaVuSans-56"/>
       <use x="63.623047" xlink:href="#DejaVuSans-48"/>
      </g>
     </g>
    </g>
    <g id="text_6">
     <!-- crppeakac -->
     <defs>
      <path d="M 48.78125 52.59375 
L 48.78125 44.1875 
Q 44.96875 46.296875 41.140625 47.34375 
Q 37.3125 48.390625 33.40625 48.390625 
Q 24.65625 48.390625 19.8125 42.84375 
Q 14.984375 37.3125 14.984375 27.296875 
Q 14.984375 17.28125 19.8125 11.734375 
Q 24.65625 6.203125 33.40625 6.203125 
Q 37.3125 6.203125 41.140625 7.25 
Q 44.96875 8.296875 48.78125 10.40625 
L 48.78125 2.09375 
Q 45.015625 0.34375 40.984375 -0.53125 
Q 36.96875 -1.421875 32.421875 -1.421875 
Q 20.0625 -1.421875 12.78125 6.34375 
Q 5.515625 14.109375 5.515625 27.296875 
Q 5.515625 40.671875 12.859375 48.328125 
Q 20.21875 56 33.015625 56 
Q 37.15625 56 41.109375 55.140625 
Q 45.0625 54.296875 48.78125 52.59375 
z
" id="DejaVuSans-99"/>
      <path d="M 41.109375 46.296875 
Q 39.59375 47.171875 37.8125 47.578125 
Q 36.03125 48 33.890625 48 
Q 26.265625 48 22.1875 43.046875 
Q 18.109375 38.09375 18.109375 28.8125 
L 18.109375 0 
L 9.078125 0 
L 9.078125 54.6875 
L 18.109375 54.6875 
L 18.109375 46.1875 
Q 20.953125 51.171875 25.484375 53.578125 
Q 30.03125 56 36.53125 56 
Q 37.453125 56 38.578125 55.875 
Q 39.703125 55.765625 41.0625 55.515625 
z
" id="DejaVuSans-114"/>
      <path d="M 18.109375 8.203125 
L 18.109375 -20.796875 
L 9.078125 -20.796875 
L 9.078125 54.6875 
L 18.109375 54.6875 
L 18.109375 46.390625 
Q 20.953125 51.265625 25.265625 53.625 
Q 29.59375 56 35.59375 56 
Q 45.5625 56 51.78125 48.09375 
Q 58.015625 40.1875 58.015625 27.296875 
Q 58.015625 14.40625 51.78125 6.484375 
Q 45.5625 -1.421875 35.59375 -1.421875 
Q 29.59375 -1.421875 25.265625 0.953125 
Q 20.953125 3.328125 18.109375 8.203125 
z
M 48.6875 27.296875 
Q 48.6875 37.203125 44.609375 42.84375 
Q 40.53125 48.484375 33.40625 48.484375 
Q 26.265625 48.484375 22.1875 42.84375 
Q 18.109375 37.203125 18.109375 27.296875 
Q 18.109375 17.390625 22.1875 11.75 
Q 26.265625 6.109375 33.40625 6.109375 
Q 40.53125 6.109375 44.609375 11.75 
Q 48.6875 17.390625 48.6875 27.296875 
z
" id="DejaVuSans-112"/>
      <path d="M 56.203125 29.59375 
L 56.203125 25.203125 
L 14.890625 25.203125 
Q 15.484375 15.921875 20.484375 11.0625 
Q 25.484375 6.203125 34.421875 6.203125 
Q 39.59375 6.203125 44.453125 7.46875 
Q 49.3125 8.734375 54.109375 11.28125 
L 54.109375 2.78125 
Q 49.265625 0.734375 44.1875 -0.34375 
Q 39.109375 -1.421875 33.890625 -1.421875 
Q 20.796875 -1.421875 13.15625 6.1875 
Q 5.515625 13.8125 5.515625 26.8125 
Q 5.515625 40.234375 12.765625 48.109375 
Q 20.015625 56 32.328125 56 
Q 43.359375 56 49.78125 48.890625 
Q 56.203125 41.796875 56.203125 29.59375 
z
M 47.21875 32.234375 
Q 47.125 39.59375 43.09375 43.984375 
Q 39.0625 48.390625 32.421875 48.390625 
Q 24.90625 48.390625 20.390625 44.140625 
Q 15.875 39.890625 15.1875 32.171875 
z
" id="DejaVuSans-101"/>
      <path d="M 34.28125 27.484375 
Q 23.390625 27.484375 19.1875 25 
Q 14.984375 22.515625 14.984375 16.5 
Q 14.984375 11.71875 18.140625 8.90625 
Q 21.296875 6.109375 26.703125 6.109375 
Q 34.1875 6.109375 38.703125 11.40625 
Q 43.21875 16.703125 43.21875 25.484375 
L 43.21875 27.484375 
z
M 52.203125 31.203125 
L 52.203125 0 
L 43.21875 0 
L 43.21875 8.296875 
Q 40.140625 3.328125 35.546875 0.953125 
Q 30.953125 -1.421875 24.3125 -1.421875 
Q 15.921875 -1.421875 10.953125 3.296875 
Q 6 8.015625 6 15.921875 
Q 6 25.140625 12.171875 29.828125 
Q 18.359375 34.515625 30.609375 34.515625 
L 43.21875 34.515625 
L 43.21875 35.40625 
Q 43.21875 41.609375 39.140625 45 
Q 35.0625 48.390625 27.6875 48.390625 
Q 23 48.390625 18.546875 47.265625 
Q 14.109375 46.140625 10.015625 43.890625 
L 10.015625 52.203125 
Q 14.9375 54.109375 19.578125 55.046875 
Q 24.21875 56 28.609375 56 
Q 40.484375 56 46.34375 49.84375 
Q 52.203125 43.703125 52.203125 31.203125 
z
" id="DejaVuSans-97"/>
      <path d="M 9.078125 75.984375 
L 18.109375 75.984375 
L 18.109375 31.109375 
L 44.921875 54.6875 
L 56.390625 54.6875 
L 27.390625 29.109375 
L 57.625 0 
L 45.90625 0 
L 18.109375 26.703125 
L 18.109375 0 
L 9.078125 0 
z
" id="DejaVuSans-107"/>
     </defs>
     <g transform="translate(210.245156 335.860562)scale(0.1 -0.1)">
      <use xlink:href="#DejaVuSans-99"/>
      <use x="54.980469" xlink:href="#DejaVuSans-114"/>
      <use x="96.09375" xlink:href="#DejaVuSans-112"/>
      <use x="159.570312" xlink:href="#DejaVuSans-112"/>
      <use x="223.046875" xlink:href="#DejaVuSans-101"/>
      <use x="284.570312" xlink:href="#DejaVuSans-97"/>
      <use x="345.849609" xlink:href="#DejaVuSans-107"/>
      <use x="402.009766" xlink:href="#DejaVuSans-97"/>
      <use x="463.289062" xlink:href="#DejaVuSans-99"/>
     </g>
    </g>
   </g>
   <g id="matplotlib.axis_2">
    <g id="ytick_1">
     <g id="line2d_6">
      <defs>
       <path d="M 0 0 
L -3.5 0 
" id="m4950e59a3b" style="stroke:#000000;stroke-width:0.8;"/>
      </defs>
      <g>
       <use style="stroke:#000000;stroke-width:0.8;" x="57.6" xlink:href="#m4950e59a3b" y="174.528"/>
      </g>
     </g>
    </g>
   </g>
   <g id="line2d_7">
    <path clip-path="url(#p789f136b2e)" d="M 112.34829 174.528 
L 279.842273 174.528 
" style="fill:none;stroke:#ffa500;stroke-linecap:square;stroke-width:1.5;"/>
   </g>
   <g id="line2d_8">
    <path clip-path="url(#p789f136b2e)" d="M 151.861485 174.528 
L 216.201553 174.528 
" style="fill:none;stroke:#4c4c4c;stroke-linecap:square;stroke-width:4.5;"/>
   </g>
   <g id="line2d_9">
    <path clip-path="url(#p789f136b2e)" d="M 110.949244 174.528 
L 227.39113 174.528 
" style="fill:none;stroke:#008000;stroke-linecap:square;stroke-width:1.5;"/>
   </g>
   <g id="line2d_10">
    <path clip-path="url(#p789f136b2e)" d="M 125.286239 174.528 
L 166.19813 174.528 
" style="fill:none;stroke:#262626;stroke-linecap:square;stroke-width:4.5;"/>
   </g>
   <g id="patch_3">
    <path d="M 57.6 307.584 
L 57.6 41.472 
" style="fill:none;stroke:#000000;stroke-linecap:square;stroke-linejoin:miter;stroke-width:0.8;"/>
   </g>
   <g id="patch_4">
    <path d="M 414.72 307.584 
L 414.72 41.472 
" style="fill:none;stroke:#000000;stroke-linecap:square;stroke-linejoin:miter;stroke-width:0.8;"/>
   </g>
   <g id="patch_5">
    <path d="M 57.6 307.584 
L 414.72 307.584 
" style="fill:none;stroke:#000000;stroke-linecap:square;stroke-linejoin:miter;stroke-width:0.8;"/>
   </g>
   <g id="patch_6">
    <path d="M 57.6 41.472 
L 414.72 41.472 
" style="fill:none;stroke:#000000;stroke-linecap:square;stroke-linejoin:miter;stroke-width:0.8;"/>
   </g>
   <g id="PathCollection_1">
    <defs>
     <path d="M 0 1.5 
C 0.397805 1.5 0.77937 1.341951 1.06066 1.06066 
C 1.341951 0.77937 1.5 0.397805 1.5 0 
C 1.5 -0.397805 1.341951 -0.77937 1.06066 -1.06066 
C 0.77937 -1.341951 0.397805 -1.5 0 -1.5 
C -0.397805 -1.5 -0.77937 -1.341951 -1.06066 -1.06066 
C -1.341951 -0.77937 -1.5 -0.397805 -1.5 0 
C -1.5 0.397805 -1.341951 0.77937 -1.06066 1.06066 
C -0.77937 1.341951 -0.397805 1.5 0 1.5 
z
" id="maf7336c03a" style="stroke:#4c4c4c;stroke-opacity:0.5;"/>
    </defs>
    <g clip-path="url(#p789f136b2e)">
     <use style="fill:#ffffff;fill-opacity:0.5;stroke:#4c4c4c;stroke-opacity:0.5;" x="187.178587" xlink:href="#maf7336c03a" y="174.528"/>
    </g>
   </g>
   <g id="PathCollection_2">
    <defs>
     <path d="M 0 1.5 
C 0.397805 1.5 0.77937 1.341951 1.06066 1.06066 
C 1.341951 0.77937 1.5 0.397805 1.5 0 
C 1.5 -0.397805 1.341951 -0.77937 1.06066 -1.06066 
C 0.77937 -1.341951 0.397805 -1.5 0 -1.5 
C -0.397805 -1.5 -0.77937 -1.341951 -1.06066 -1.06066 
C -1.341951 -0.77937 -1.5 -0.397805 -1.5 0 
C -1.5 0.397805 -1.341951 0.77937 -1.06066 1.06066 
C -0.77937 1.341951 -0.397805 1.5 0 1.5 
z
" id="m78c2cff482" style="stroke:#262626;stroke-opacity:0.5;"/>
    </defs>
    <g clip-path="url(#p789f136b2e)">
     <use style="fill:#ffffff;fill-opacity:0.5;stroke:#262626;stroke-opacity:0.5;" x="141.021582" xlink:href="#m78c2cff482" y="174.528"/>
    </g>
   </g>
   <g id="text_7">
    <!-- Association of crppeakac vs. non_rebreather_mask -->
    <defs>
     <path d="M 34.1875 63.1875 
L 20.796875 26.90625 
L 47.609375 26.90625 
z
M 28.609375 72.90625 
L 39.796875 72.90625 
L 67.578125 0 
L 57.328125 0 
L 50.6875 18.703125 
L 17.828125 18.703125 
L 11.1875 0 
L 0.78125 0 
z
" id="DejaVuSans-65"/>
     <path d="M 44.28125 53.078125 
L 44.28125 44.578125 
Q 40.484375 46.53125 36.375 47.5 
Q 32.28125 48.484375 27.875 48.484375 
Q 21.1875 48.484375 17.84375 46.4375 
Q 14.5 44.390625 14.5 40.28125 
Q 14.5 37.15625 16.890625 35.375 
Q 19.28125 33.59375 26.515625 31.984375 
L 29.59375 31.296875 
Q 39.15625 29.25 43.1875 25.515625 
Q 47.21875 21.78125 47.21875 15.09375 
Q 47.21875 7.46875 41.1875 3.015625 
Q 35.15625 -1.421875 24.609375 -1.421875 
Q 20.21875 -1.421875 15.453125 -0.5625 
Q 10.6875 0.296875 5.421875 2 
L 5.421875 11.28125 
Q 10.40625 8.6875 15.234375 7.390625 
Q 20.0625 6.109375 24.8125 6.109375 
Q 31.15625 6.109375 34.5625 8.28125 
Q 37.984375 10.453125 37.984375 14.40625 
Q 37.984375 18.0625 35.515625 20.015625 
Q 33.0625 21.96875 24.703125 23.78125 
L 21.578125 24.515625 
Q 13.234375 26.265625 9.515625 29.90625 
Q 5.8125 33.546875 5.8125 39.890625 
Q 5.8125 47.609375 11.28125 51.796875 
Q 16.75 56 26.8125 56 
Q 31.78125 56 36.171875 55.265625 
Q 40.578125 54.546875 44.28125 53.078125 
z
" id="DejaVuSans-115"/>
     <path d="M 30.609375 48.390625 
Q 23.390625 48.390625 19.1875 42.75 
Q 14.984375 37.109375 14.984375 27.296875 
Q 14.984375 17.484375 19.15625 11.84375 
Q 23.34375 6.203125 30.609375 6.203125 
Q 37.796875 6.203125 41.984375 11.859375 
Q 46.1875 17.53125 46.1875 27.296875 
Q 46.1875 37.015625 41.984375 42.703125 
Q 37.796875 48.390625 30.609375 48.390625 
z
M 30.609375 56 
Q 42.328125 56 49.015625 48.375 
Q 55.71875 40.765625 55.71875 27.296875 
Q 55.71875 13.875 49.015625 6.21875 
Q 42.328125 -1.421875 30.609375 -1.421875 
Q 18.84375 -1.421875 12.171875 6.21875 
Q 5.515625 13.875 5.515625 27.296875 
Q 5.515625 40.765625 12.171875 48.375 
Q 18.84375 56 30.609375 56 
z
" id="DejaVuSans-111"/>
     <path d="M 9.421875 54.6875 
L 18.40625 54.6875 
L 18.40625 0 
L 9.421875 0 
z
M 9.421875 75.984375 
L 18.40625 75.984375 
L 18.40625 64.59375 
L 9.421875 64.59375 
z
" id="DejaVuSans-105"/>
     <path d="M 18.3125 70.21875 
L 18.3125 54.6875 
L 36.8125 54.6875 
L 36.8125 47.703125 
L 18.3125 47.703125 
L 18.3125 18.015625 
Q 18.3125 11.328125 20.140625 9.421875 
Q 21.96875 7.515625 27.59375 7.515625 
L 36.8125 7.515625 
L 36.8125 0 
L 27.59375 0 
Q 17.1875 0 13.234375 3.875 
Q 9.28125 7.765625 9.28125 18.015625 
L 9.28125 47.703125 
L 2.6875 47.703125 
L 2.6875 54.6875 
L 9.28125 54.6875 
L 9.28125 70.21875 
z
" id="DejaVuSans-116"/>
     <path d="M 54.890625 33.015625 
L 54.890625 0 
L 45.90625 0 
L 45.90625 32.71875 
Q 45.90625 40.484375 42.875 44.328125 
Q 39.84375 48.1875 33.796875 48.1875 
Q 26.515625 48.1875 22.3125 43.546875 
Q 18.109375 38.921875 18.109375 30.90625 
L 18.109375 0 
L 9.078125 0 
L 9.078125 54.6875 
L 18.109375 54.6875 
L 18.109375 46.1875 
Q 21.34375 51.125 25.703125 53.5625 
Q 30.078125 56 35.796875 56 
Q 45.21875 56 50.046875 50.171875 
Q 54.890625 44.34375 54.890625 33.015625 
z
" id="DejaVuSans-110"/>
     <path id="DejaVuSans-32"/>
     <path d="M 37.109375 75.984375 
L 37.109375 68.5 
L 28.515625 68.5 
Q 23.6875 68.5 21.796875 66.546875 
Q 19.921875 64.59375 19.921875 59.515625 
L 19.921875 54.6875 
L 34.71875 54.6875 
L 34.71875 47.703125 
L 19.921875 47.703125 
L 19.921875 0 
L 10.890625 0 
L 10.890625 47.703125 
L 2.296875 47.703125 
L 2.296875 54.6875 
L 10.890625 54.6875 
L 10.890625 58.5 
Q 10.890625 67.625 15.140625 71.796875 
Q 19.390625 75.984375 28.609375 75.984375 
z
" id="DejaVuSans-102"/>
     <path d="M 2.984375 54.6875 
L 12.5 54.6875 
L 29.59375 8.796875 
L 46.6875 54.6875 
L 56.203125 54.6875 
L 35.6875 0 
L 23.484375 0 
z
" id="DejaVuSans-118"/>
     <path d="M 10.6875 12.40625 
L 21 12.40625 
L 21 0 
L 10.6875 0 
z
" id="DejaVuSans-46"/>
     <path d="M 50.984375 -16.609375 
L 50.984375 -23.578125 
L -0.984375 -23.578125 
L -0.984375 -16.609375 
z
" id="DejaVuSans-95"/>
     <path d="M 48.6875 27.296875 
Q 48.6875 37.203125 44.609375 42.84375 
Q 40.53125 48.484375 33.40625 48.484375 
Q 26.265625 48.484375 22.1875 42.84375 
Q 18.109375 37.203125 18.109375 27.296875 
Q 18.109375 17.390625 22.1875 11.75 
Q 26.265625 6.109375 33.40625 6.109375 
Q 40.53125 6.109375 44.609375 11.75 
Q 48.6875 17.390625 48.6875 27.296875 
z
M 18.109375 46.390625 
Q 20.953125 51.265625 25.265625 53.625 
Q 29.59375 56 35.59375 56 
Q 45.5625 56 51.78125 48.09375 
Q 58.015625 40.1875 58.015625 27.296875 
Q 58.015625 14.40625 51.78125 6.484375 
Q 45.5625 -1.421875 35.59375 -1.421875 
Q 29.59375 -1.421875 25.265625 0.953125 
Q 20.953125 3.328125 18.109375 8.203125 
L 18.109375 0 
L 9.078125 0 
L 9.078125 75.984375 
L 18.109375 75.984375 
z
" id="DejaVuSans-98"/>
     <path d="M 54.890625 33.015625 
L 54.890625 0 
L 45.90625 0 
L 45.90625 32.71875 
Q 45.90625 40.484375 42.875 44.328125 
Q 39.84375 48.1875 33.796875 48.1875 
Q 26.515625 48.1875 22.3125 43.546875 
Q 18.109375 38.921875 18.109375 30.90625 
L 18.109375 0 
L 9.078125 0 
L 9.078125 75.984375 
L 18.109375 75.984375 
L 18.109375 46.1875 
Q 21.34375 51.125 25.703125 53.5625 
Q 30.078125 56 35.796875 56 
Q 45.21875 56 50.046875 50.171875 
Q 54.890625 44.34375 54.890625 33.015625 
z
" id="DejaVuSans-104"/>
     <path d="M 52 44.1875 
Q 55.375 50.25 60.0625 53.125 
Q 64.75 56 71.09375 56 
Q 79.640625 56 84.28125 50.015625 
Q 88.921875 44.046875 88.921875 33.015625 
L 88.921875 0 
L 79.890625 0 
L 79.890625 32.71875 
Q 79.890625 40.578125 77.09375 44.375 
Q 74.3125 48.1875 68.609375 48.1875 
Q 61.625 48.1875 57.5625 43.546875 
Q 53.515625 38.921875 53.515625 30.90625 
L 53.515625 0 
L 44.484375 0 
L 44.484375 32.71875 
Q 44.484375 40.625 41.703125 44.40625 
Q 38.921875 48.1875 33.109375 48.1875 
Q 26.21875 48.1875 22.15625 43.53125 
Q 18.109375 38.875 18.109375 30.90625 
L 18.109375 0 
L 9.078125 0 
L 9.078125 54.6875 
L 18.109375 54.6875 
L 18.109375 46.1875 
Q 21.1875 51.21875 25.484375 53.609375 
Q 29.78125 56 35.6875 56 
Q 41.65625 56 45.828125 52.96875 
Q 50 49.953125 52 44.1875 
z
" id="DejaVuSans-109"/>
    </defs>
    <g transform="translate(83.661563 35.472)scale(0.12 -0.12)">
     <use xlink:href="#DejaVuSans-65"/>
     <use x="68.408203" xlink:href="#DejaVuSans-115"/>
     <use x="120.507812" xlink:href="#DejaVuSans-115"/>
     <use x="172.607422" xlink:href="#DejaVuSans-111"/>
     <use x="233.789062" xlink:href="#DejaVuSans-99"/>
     <use x="288.769531" xlink:href="#DejaVuSans-105"/>
     <use x="316.552734" xlink:href="#DejaVuSans-97"/>
     <use x="377.832031" xlink:href="#DejaVuSans-116"/>
     <use x="417.041016" xlink:href="#DejaVuSans-105"/>
     <use x="444.824219" xlink:href="#DejaVuSans-111"/>
     <use x="506.005859" xlink:href="#DejaVuSans-110"/>
     <use x="569.384766" xlink:href="#DejaVuSans-32"/>
     <use x="601.171875" xlink:href="#DejaVuSans-111"/>
     <use x="662.353516" xlink:href="#DejaVuSans-102"/>
     <use x="697.558594" xlink:href="#DejaVuSans-32"/>
     <use x="729.345703" xlink:href="#DejaVuSans-99"/>
     <use x="784.326172" xlink:href="#DejaVuSans-114"/>
     <use x="825.439453" xlink:href="#DejaVuSans-112"/>
     <use x="888.916016" xlink:href="#DejaVuSans-112"/>
     <use x="952.392578" xlink:href="#DejaVuSans-101"/>
     <use x="1013.916016" xlink:href="#DejaVuSans-97"/>
     <use x="1075.195312" xlink:href="#DejaVuSans-107"/>
     <use x="1131.355469" xlink:href="#DejaVuSans-97"/>
     <use x="1192.634766" xlink:href="#DejaVuSans-99"/>
     <use x="1247.615234" xlink:href="#DejaVuSans-32"/>
     <use x="1279.402344" xlink:href="#DejaVuSans-118"/>
     <use x="1338.582031" xlink:href="#DejaVuSans-115"/>
     <use x="1390.681641" xlink:href="#DejaVuSans-46"/>
     <use x="1422.46875" xlink:href="#DejaVuSans-32"/>
     <use x="1454.255859" xlink:href="#DejaVuSans-110"/>
     <use x="1517.634766" xlink:href="#DejaVuSans-111"/>
     <use x="1578.816406" xlink:href="#DejaVuSans-110"/>
     <use x="1642.195312" xlink:href="#DejaVuSans-95"/>
     <use x="1692.195312" xlink:href="#DejaVuSans-114"/>
     <use x="1731.058594" xlink:href="#DejaVuSans-101"/>
     <use x="1792.582031" xlink:href="#DejaVuSans-98"/>
     <use x="1856.058594" xlink:href="#DejaVuSans-114"/>
     <use x="1894.921875" xlink:href="#DejaVuSans-101"/>
     <use x="1956.445312" xlink:href="#DejaVuSans-97"/>
     <use x="2017.724609" xlink:href="#DejaVuSans-116"/>
     <use x="2056.933594" xlink:href="#DejaVuSans-104"/>
     <use x="2120.3125" xlink:href="#DejaVuSans-101"/>
     <use x="2181.835938" xlink:href="#DejaVuSans-114"/>
     <use x="2222.949219" xlink:href="#DejaVuSans-95"/>
     <use x="2272.949219" xlink:href="#DejaVuSans-109"/>
     <use x="2370.361328" xlink:href="#DejaVuSans-97"/>
     <use x="2431.640625" xlink:href="#DejaVuSans-115"/>
     <use x="2483.740234" xlink:href="#DejaVuSans-107"/>
    </g>
   </g>
   <g id="legend_1">
    <g id="patch_7">
     <path d="M 216.21375 79.3845 
L 407.72 79.3845 
Q 409.72 79.3845 409.72 77.3845 
L 409.72 48.472 
Q 409.72 46.472 407.72 46.472 
L 216.21375 46.472 
Q 214.21375 46.472 214.21375 48.472 
L 214.21375 77.3845 
Q 214.21375 79.3845 216.21375 79.3845 
z
" style="fill:#ffffff;opacity:0.8;stroke:#cccccc;stroke-linejoin:miter;"/>
    </g>
    <g id="line2d_11">
     <path d="M 218.21375 54.570438 
L 238.21375 54.570438 
" style="fill:none;stroke:#ffa500;stroke-linecap:square;stroke-width:1.5;"/>
    </g>
    <g id="line2d_12"/>
    <g id="text_8">
     <!-- non_rebreather_mask (81) -->
     <defs>
      <path d="M 31 75.875 
Q 24.46875 64.65625 21.28125 53.65625 
Q 18.109375 42.671875 18.109375 31.390625 
Q 18.109375 20.125 21.3125 9.0625 
Q 24.515625 -2 31 -13.1875 
L 23.1875 -13.1875 
Q 15.875 -1.703125 12.234375 9.375 
Q 8.59375 20.453125 8.59375 31.390625 
Q 8.59375 42.28125 12.203125 53.3125 
Q 15.828125 64.359375 23.1875 75.875 
z
" id="DejaVuSans-40"/>
      <path d="M 12.40625 8.296875 
L 28.515625 8.296875 
L 28.515625 63.921875 
L 10.984375 60.40625 
L 10.984375 69.390625 
L 28.421875 72.90625 
L 38.28125 72.90625 
L 38.28125 8.296875 
L 54.390625 8.296875 
L 54.390625 0 
L 12.40625 0 
z
" id="DejaVuSans-49"/>
      <path d="M 8.015625 75.875 
L 15.828125 75.875 
Q 23.140625 64.359375 26.78125 53.3125 
Q 30.421875 42.28125 30.421875 31.390625 
Q 30.421875 20.453125 26.78125 9.375 
Q 23.140625 -1.703125 15.828125 -13.1875 
L 8.015625 -13.1875 
Q 14.5 -2 17.703125 9.0625 
Q 20.90625 20.125 20.90625 31.390625 
Q 20.90625 42.671875 17.703125 53.65625 
Q 14.5 64.65625 8.015625 75.875 
z
" id="DejaVuSans-41"/>
     </defs>
     <g transform="translate(246.21375 58.070438)scale(0.1 -0.1)">
      <use xlink:href="#DejaVuSans-110"/>
      <use x="63.378906" xlink:href="#DejaVuSans-111"/>
      <use x="124.560547" xlink:href="#DejaVuSans-110"/>
      <use x="187.939453" xlink:href="#DejaVuSans-95"/>
      <use x="237.939453" xlink:href="#DejaVuSans-114"/>
      <use x="276.802734" xlink:href="#DejaVuSans-101"/>
      <use x="338.326172" xlink:href="#DejaVuSans-98"/>
      <use x="401.802734" xlink:href="#DejaVuSans-114"/>
      <use x="440.666016" xlink:href="#DejaVuSans-101"/>
      <use x="502.189453" xlink:href="#DejaVuSans-97"/>
      <use x="563.46875" xlink:href="#DejaVuSans-116"/>
      <use x="602.677734" xlink:href="#DejaVuSans-104"/>
      <use x="666.056641" xlink:href="#DejaVuSans-101"/>
      <use x="727.580078" xlink:href="#DejaVuSans-114"/>
      <use x="768.693359" xlink:href="#DejaVuSans-95"/>
      <use x="818.693359" xlink:href="#DejaVuSans-109"/>
      <use x="916.105469" xlink:href="#DejaVuSans-97"/>
      <use x="977.384766" xlink:href="#DejaVuSans-115"/>
      <use x="1029.484375" xlink:href="#DejaVuSans-107"/>
      <use x="1087.394531" xlink:href="#DejaVuSans-32"/>
      <use x="1119.181641" xlink:href="#DejaVuSans-40"/>
      <use x="1158.195312" xlink:href="#DejaVuSans-56"/>
      <use x="1221.818359" xlink:href="#DejaVuSans-49"/>
      <use x="1285.441406" xlink:href="#DejaVuSans-41"/>
     </g>
    </g>
    <g id="line2d_13">
     <path d="M 218.21375 69.526688 
L 238.21375 69.526688 
" style="fill:none;stroke:#008000;stroke-linecap:square;stroke-width:1.5;"/>
    </g>
    <g id="line2d_14"/>
    <g id="text_9">
     <!-- Not non_rebreather_mask (179) -->
     <defs>
      <path d="M 9.8125 72.90625 
L 23.09375 72.90625 
L 55.421875 11.921875 
L 55.421875 72.90625 
L 64.984375 72.90625 
L 64.984375 0 
L 51.703125 0 
L 19.390625 60.984375 
L 19.390625 0 
L 9.8125 0 
z
" id="DejaVuSans-78"/>
      <path d="M 8.203125 72.90625 
L 55.078125 72.90625 
L 55.078125 68.703125 
L 28.609375 0 
L 18.3125 0 
L 43.21875 64.59375 
L 8.203125 64.59375 
z
" id="DejaVuSans-55"/>
      <path d="M 10.984375 1.515625 
L 10.984375 10.5 
Q 14.703125 8.734375 18.5 7.8125 
Q 22.3125 6.890625 25.984375 6.890625 
Q 35.75 6.890625 40.890625 13.453125 
Q 46.046875 20.015625 46.78125 33.40625 
Q 43.953125 29.203125 39.59375 26.953125 
Q 35.25 24.703125 29.984375 24.703125 
Q 19.046875 24.703125 12.671875 31.3125 
Q 6.296875 37.9375 6.296875 49.421875 
Q 6.296875 60.640625 12.9375 67.421875 
Q 19.578125 74.21875 30.609375 74.21875 
Q 43.265625 74.21875 49.921875 64.515625 
Q 56.59375 54.828125 56.59375 36.375 
Q 56.59375 19.140625 48.40625 8.859375 
Q 40.234375 -1.421875 26.421875 -1.421875 
Q 22.703125 -1.421875 18.890625 -0.6875 
Q 15.09375 0.046875 10.984375 1.515625 
z
M 30.609375 32.421875 
Q 37.25 32.421875 41.125 36.953125 
Q 45.015625 41.5 45.015625 49.421875 
Q 45.015625 57.28125 41.125 61.84375 
Q 37.25 66.40625 30.609375 66.40625 
Q 23.96875 66.40625 20.09375 61.84375 
Q 16.21875 57.28125 16.21875 49.421875 
Q 16.21875 41.5 20.09375 36.953125 
Q 23.96875 32.421875 30.609375 32.421875 
z
" id="DejaVuSans-57"/>
     </defs>
     <g transform="translate(246.21375 73.026688)scale(0.1 -0.1)">
      <use xlink:href="#DejaVuSans-78"/>
      <use x="74.804688" xlink:href="#DejaVuSans-111"/>
      <use x="135.986328" xlink:href="#DejaVuSans-116"/>
      <use x="175.195312" xlink:href="#DejaVuSans-32"/>
      <use x="206.982422" xlink:href="#DejaVuSans-110"/>
      <use x="270.361328" xlink:href="#DejaVuSans-111"/>
      <use x="331.542969" xlink:href="#DejaVuSans-110"/>
      <use x="394.921875" xlink:href="#DejaVuSans-95"/>
      <use x="444.921875" xlink:href="#DejaVuSans-114"/>
      <use x="483.785156" xlink:href="#DejaVuSans-101"/>
      <use x="545.308594" xlink:href="#DejaVuSans-98"/>
      <use x="608.785156" xlink:href="#DejaVuSans-114"/>
      <use x="647.648438" xlink:href="#DejaVuSans-101"/>
      <use x="709.171875" xlink:href="#DejaVuSans-97"/>
      <use x="770.451172" xlink:href="#DejaVuSans-116"/>
      <use x="809.660156" xlink:href="#DejaVuSans-104"/>
      <use x="873.039062" xlink:href="#DejaVuSans-101"/>
      <use x="934.5625" xlink:href="#DejaVuSans-114"/>
      <use x="975.675781" xlink:href="#DejaVuSans-95"/>
      <use x="1025.675781" xlink:href="#DejaVuSans-109"/>
      <use x="1123.087891" xlink:href="#DejaVuSans-97"/>
      <use x="1184.367188" xlink:href="#DejaVuSans-115"/>
      <use x="1236.466797" xlink:href="#DejaVuSans-107"/>
      <use x="1294.376953" xlink:href="#DejaVuSans-32"/>
      <use x="1326.164062" xlink:href="#DejaVuSans-40"/>
      <use x="1365.177734" xlink:href="#DejaVuSans-49"/>
      <use x="1428.800781" xlink:href="#DejaVuSans-55"/>
      <use x="1492.423828" xlink:href="#DejaVuSans-57"/>
      <use x="1556.046875" xlink:href="#DejaVuSans-41"/>
     </g>
    </g>
   </g>
  </g>
 </g>
 <defs>
  <clipPath id="p789f136b2e">
   <rect height="266.112" width="357.12" x="57.6" y="41.472"/>
  </clipPath>
 </defs>
</svg>
