<?xml version="1.0" encoding="utf-8" standalone="no"?>
<!DOCTYPE svg PUBLIC "-//W3C//DTD SVG 1.1//EN"
  "http://www.w3.org/Graphics/SVG/1.1/DTD/svg11.dtd">
<!-- Created with matplotlib (https://matplotlib.org/) -->
<svg height="345.6pt" version="1.1" viewBox="0 0 460.8 345.6" width="460.8pt" xmlns="http://www.w3.org/2000/svg" xmlns:xlink="http://www.w3.org/1999/xlink">
 <defs>
  <style type="text/css">
*{stroke-linecap:butt;stroke-linejoin:round;}
  </style>
 </defs>
 <g id="figure_1">
  <g id="patch_1">
   <path d="M 0 345.6 
L 460.8 345.6 
L 460.8 0 
L 0 0 
z
" style="fill:#ffffff;"/>
  </g>
  <g id="axes_1">
   <g id="patch_2">
    <path d="M 57.6 307.584 
L 414.72 307.584 
L 414.72 41.472 
L 57.6 41.472 
z
" style="fill:#ffffff;"/>
   </g>
   <g id="PolyCollection_1">
    <defs>
     <path d="M 73.832727 -163.13739 
L 73.832727 -179.00661 
L 76.280286 -180.078884 
L 78.727845 -181.254902 
L 81.175405 -182.53824 
L 83.622964 -183.931618 
L 86.070523 -185.436764 
L 88.518082 -187.054282 
L 90.965641 -188.783543 
L 93.4132 -190.622584 
L 95.860759 -192.568031 
L 98.308318 -194.615054 
L 100.755877 -196.757349 
L 103.203436 -198.987154 
L 105.650996 -201.295308 
L 108.098555 -203.671345 
L 110.546114 -206.103633 
L 112.993673 -208.579551 
L 115.441232 -211.085707 
L 117.888791 -213.608189 
L 120.33635 -216.132847 
L 122.783909 -218.645603 
L 125.231468 -221.132777 
L 127.679027 -223.581416 
L 130.126587 -225.979625 
L 132.574146 -228.316892 
L 135.021705 -230.584376 
L 137.469264 -232.775176 
L 139.916823 -234.884544 
L 142.364382 -236.910052 
L 144.811941 -238.851691 
L 147.2595 -240.711905 
L 149.707059 -242.495547 
L 152.154619 -244.209756 
L 154.602178 -245.863765 
L 157.049737 -247.468624 
L 159.497296 -249.036855 
L 161.944855 -250.582047 
L 164.392414 -252.118391 
L 166.839973 -253.660184 
L 169.287532 -255.221292 
L 171.735091 -256.814613 
L 174.18265 -258.451538 
L 176.63021 -260.141434 
L 179.077769 -261.891169 
L 181.525328 -263.704686 
L 183.972887 -265.582654 
L 186.420446 -267.522191 
L 188.868005 -269.516693 
L 191.315564 -271.555753 
L 193.763123 -273.625199 
L 196.210682 -275.707231 
L 198.658241 -277.780672 
L 201.105801 -279.821321 
L 203.55336 -281.802398 
L 206.000919 -283.695077 
L 208.448478 -285.469088 
L 210.896037 -287.093371 
L 213.343596 -288.536773 
L 215.791155 -289.768751 
L 218.238714 -290.760088 
L 220.686273 -291.483572 
L 223.133832 -291.914647 
L 225.581392 -292.032 
L 228.028951 -291.818072 
L 230.47651 -291.25949 
L 232.924069 -290.347391 
L 235.371628 -289.077652 
L 237.819187 -287.450999 
L 240.266746 -285.47301 
L 242.714305 -283.15401 
L 245.161864 -280.508858 
L 247.609423 -277.556642 
L 250.056983 -274.320284 
L 252.504542 -270.826071 
L 254.952101 -267.103137 
L 257.39966 -263.182882 
L 259.847219 -259.098386 
L 262.294778 -254.883787 
L 264.742337 -250.573685 
L 267.189896 -246.202545 
L 269.637455 -241.804143 
L 272.085014 -237.411053 
L 274.532574 -233.054183 
L 276.980133 -228.762372 
L 279.427692 -224.562063 
L 281.875251 -220.47703 
L 284.32281 -216.528191 
L 286.770369 -212.733479 
L 289.217928 -209.107791 
L 291.665487 -205.662996 
L 294.113046 -202.407996 
L 296.560605 -199.348851 
L 299.008165 -196.488933 
L 301.455724 -193.829131 
L 303.903283 -191.368072 
L 306.350842 -189.102367 
L 308.798401 -187.026873 
L 311.24596 -185.134956 
L 313.693519 -183.41875 
L 316.141078 -181.869418 
L 316.141078 -160.274582 
L 316.141078 -160.274582 
L 313.693519 -158.72525 
L 311.24596 -157.009044 
L 308.798401 -155.117127 
L 306.350842 -153.041633 
L 303.903283 -150.775928 
L 301.455724 -148.314869 
L 299.008165 -145.655067 
L 296.560605 -142.795149 
L 294.113046 -139.736004 
L 291.665487 -136.481004 
L 289.217928 -133.036209 
L 286.770369 -129.410521 
L 284.32281 -125.615809 
L 281.875251 -121.66697 
L 279.427692 -117.581937 
L 276.980133 -113.381628 
L 274.532574 -109.089817 
L 272.085014 -104.732947 
L 269.637455 -100.339857 
L 267.189896 -95.941455 
L 264.742337 -91.570315 
L 262.294778 -87.260213 
L 259.847219 -83.045614 
L 257.39966 -78.961118 
L 254.952101 -75.040863 
L 252.504542 -71.317929 
L 250.056983 -67.823716 
L 247.609423 -64.587358 
L 245.161864 -61.635142 
L 242.714305 -58.98999 
L 240.266746 -56.67099 
L 237.819187 -54.693001 
L 235.371628 -53.066348 
L 232.924069 -51.796609 
L 230.47651 -50.88451 
L 228.028951 -50.325928 
L 225.581392 -50.112 
L 223.133832 -50.229353 
L 220.686273 -50.660428 
L 218.238714 -51.383912 
L 215.791155 -52.375249 
L 213.343596 -53.607227 
L 210.896037 -55.050629 
L 208.448478 -56.674912 
L 206.000919 -58.448923 
L 203.55336 -60.341602 
L 201.105801 -62.322679 
L 198.658241 -64.363328 
L 196.210682 -66.436769 
L 193.763123 -68.518801 
L 191.315564 -70.588247 
L 188.868005 -72.627307 
L 186.420446 -74.621809 
L 183.972887 -76.561346 
L 181.525328 -78.439314 
L 179.077769 -80.252831 
L 176.63021 -82.002566 
L 174.18265 -83.692462 
L 171.735091 -85.329387 
L 169.287532 -86.922708 
L 166.839973 -88.483816 
L 164.392414 -90.025609 
L 161.944855 -91.561953 
L 159.497296 -93.107145 
L 157.049737 -94.675376 
L 154.602178 -96.280235 
L 152.154619 -97.934244 
L 149.707059 -99.648453 
L 147.2595 -101.432095 
L 144.811941 -103.292309 
L 142.364382 -105.233948 
L 139.916823 -107.259456 
L 137.469264 -109.368824 
L 135.021705 -111.559624 
L 132.574146 -113.827108 
L 130.126587 -116.164375 
L 127.679027 -118.562584 
L 125.231468 -121.011223 
L 122.783909 -123.498397 
L 120.33635 -126.011153 
L 117.888791 -128.535811 
L 115.441232 -131.058293 
L 112.993673 -133.564449 
L 110.546114 -136.040367 
L 108.098555 -138.472655 
L 105.650996 -140.848692 
L 103.203436 -143.156846 
L 100.755877 -145.386651 
L 98.308318 -147.528946 
L 95.860759 -149.575969 
L 93.4132 -151.521416 
L 90.965641 -153.360457 
L 88.518082 -155.089718 
L 86.070523 -156.707236 
L 83.622964 -158.212382 
L 81.175405 -159.60576 
L 78.727845 -160.889098 
L 76.280286 -162.065116 
L 73.832727 -163.13739 
z
" id="m3485924e2e" style="stroke:#4c4c4c;stroke-opacity:0.5;stroke-width:1.5;"/>
    </defs>
    <g clip-path="url(#pc8eb0b3237)">
     <use style="fill:#df9c20;fill-opacity:0.5;stroke:#4c4c4c;stroke-opacity:0.5;stroke-width:1.5;" x="0" xlink:href="#m3485924e2e" y="345.6"/>
    </g>
   </g>
   <g id="PolyCollection_2">
    <defs>
     <path d="M 106.955297 -170.618943 
L 106.955297 -171.525057 
L 109.900064 -171.907647 
L 112.844832 -172.529762 
L 115.789599 -173.491015 
L 118.734367 -174.913103 
L 121.679134 -176.940688 
L 124.623902 -179.738655 
L 127.568669 -183.480748 
L 130.513436 -188.326286 
L 133.458204 -194.387787 
L 136.402971 -201.699111 
L 139.347739 -210.195501 
L 142.292506 -219.710661 
L 145.237274 -229.986068 
L 148.182041 -240.682791 
L 151.126809 -251.391354 
L 154.071576 -261.646353 
L 157.016343 -270.958503 
L 159.961111 -278.870391 
L 162.905878 -285.026771 
L 165.850646 -289.237416 
L 168.795413 -291.508997 
L 171.740181 -292.032 
L 174.684948 -291.122498 
L 177.629715 -289.131827 
L 180.574483 -286.348775 
L 183.51925 -282.927315 
L 186.464018 -278.871865 
L 189.408785 -274.094408 
L 192.353553 -268.525079 
L 195.29832 -262.225357 
L 198.243087 -255.442643 
L 201.187855 -248.569378 
L 204.132622 -242.019747 
L 207.07739 -236.08417 
L 210.022157 -230.836562 
L 212.966925 -226.141478 
L 215.911692 -221.754397 
L 218.856459 -217.460896 
L 221.801227 -213.185334 
L 224.745994 -209.021502 
L 227.690762 -205.17988 
L 230.635529 -201.884615 
L 233.580297 -199.270913 
L 236.525064 -197.326427 
L 239.469831 -195.895818 
L 242.414599 -194.739046 
L 245.359366 -193.613603 
L 248.304134 -192.346354 
L 251.248901 -190.871267 
L 254.193669 -189.227294 
L 257.138436 -187.525975 
L 260.083203 -185.904967 
L 263.027971 -184.482567 
L 265.972738 -183.32379 
L 268.917506 -182.424463 
L 271.862273 -181.715918 
L 274.807041 -181.088155 
L 277.751808 -180.424042 
L 280.696575 -179.633506 
L 283.641343 -178.677096 
L 286.58611 -177.572624 
L 289.530878 -176.384796 
L 292.475645 -175.203209 
L 295.420413 -174.116953 
L 298.36518 -173.193898 
L 301.309948 -172.470023 
L 304.254715 -171.95008 
L 307.199482 -171.616946 
L 310.14425 -171.444623 
L 313.089017 -171.409467 
L 316.033785 -171.495673 
L 318.978552 -171.693567 
L 321.92332 -171.992043 
L 324.868087 -172.368969 
L 327.812854 -172.784607 
L 330.757622 -173.182394 
L 333.702389 -173.498432 
L 336.647157 -173.676979 
L 339.591924 -173.685977 
L 342.536692 -173.526285 
L 345.481459 -173.231007 
L 348.426226 -172.855638 
L 351.370994 -172.463305 
L 354.315761 -172.110488 
L 357.260529 -171.837175 
L 360.205296 -171.662733 
L 363.150064 -171.586452 
L 366.094831 -171.590921 
L 369.039598 -171.646976 
L 371.984366 -171.719841 
L 374.929133 -171.776325 
L 377.873901 -171.792036 
L 380.818668 -171.756562 
L 383.763436 -171.674562 
L 386.708203 -171.562169 
L 389.65297 -171.440245 
L 392.597738 -171.327418 
L 395.542505 -171.235547 
L 398.487273 -171.168669 
L 398.487273 -170.975331 
L 398.487273 -170.975331 
L 395.542505 -170.908453 
L 392.597738 -170.816582 
L 389.65297 -170.703755 
L 386.708203 -170.581831 
L 383.763436 -170.469438 
L 380.818668 -170.387438 
L 377.873901 -170.351964 
L 374.929133 -170.367675 
L 371.984366 -170.424159 
L 369.039598 -170.497024 
L 366.094831 -170.553079 
L 363.150064 -170.557548 
L 360.205296 -170.481267 
L 357.260529 -170.306825 
L 354.315761 -170.033512 
L 351.370994 -169.680695 
L 348.426226 -169.288362 
L 345.481459 -168.912993 
L 342.536692 -168.617715 
L 339.591924 -168.458023 
L 336.647157 -168.467021 
L 333.702389 -168.645568 
L 330.757622 -168.961606 
L 327.812854 -169.359393 
L 324.868087 -169.775031 
L 321.92332 -170.151957 
L 318.978552 -170.450433 
L 316.033785 -170.648327 
L 313.089017 -170.734533 
L 310.14425 -170.699377 
L 307.199482 -170.527054 
L 304.254715 -170.19392 
L 301.309948 -169.673977 
L 298.36518 -168.950102 
L 295.420413 -168.027047 
L 292.475645 -166.940791 
L 289.530878 -165.759204 
L 286.58611 -164.571376 
L 283.641343 -163.466904 
L 280.696575 -162.510494 
L 277.751808 -161.719958 
L 274.807041 -161.055845 
L 271.862273 -160.428082 
L 268.917506 -159.719537 
L 265.972738 -158.82021 
L 263.027971 -157.661433 
L 260.083203 -156.239033 
L 257.138436 -154.618025 
L 254.193669 -152.916706 
L 251.248901 -151.272733 
L 248.304134 -149.797646 
L 245.359366 -148.530397 
L 242.414599 -147.404954 
L 239.469831 -146.248182 
L 236.525064 -144.817573 
L 233.580297 -142.873087 
L 230.635529 -140.259385 
L 227.690762 -136.96412 
L 224.745994 -133.122498 
L 221.801227 -128.958666 
L 218.856459 -124.683104 
L 215.911692 -120.389603 
L 212.966925 -116.002522 
L 210.022157 -111.307438 
L 207.07739 -106.05983 
L 204.132622 -100.124253 
L 201.187855 -93.574622 
L 198.243087 -86.701357 
L 195.29832 -79.918643 
L 192.353553 -73.618921 
L 189.408785 -68.049592 
L 186.464018 -63.272135 
L 183.51925 -59.216685 
L 180.574483 -55.795225 
L 177.629715 -53.012173 
L 174.684948 -51.021502 
L 171.740181 -50.112 
L 168.795413 -50.635003 
L 165.850646 -52.906584 
L 162.905878 -57.117229 
L 159.961111 -63.273609 
L 157.016343 -71.185497 
L 154.071576 -80.497647 
L 151.126809 -90.752646 
L 148.182041 -101.461209 
L 145.237274 -112.157932 
L 142.292506 -122.433339 
L 139.347739 -131.948499 
L 136.402971 -140.444889 
L 133.458204 -147.756213 
L 130.513436 -153.817714 
L 127.568669 -158.663252 
L 124.623902 -162.405345 
L 121.679134 -165.203312 
L 118.734367 -167.230897 
L 115.789599 -168.652985 
L 112.844832 -169.614238 
L 109.900064 -170.236353 
L 106.955297 -170.618943 
z
" id="md455589095" style="stroke:#262626;stroke-opacity:0.5;stroke-width:1.5;"/>
    </defs>
    <g clip-path="url(#pc8eb0b3237)">
     <use style="fill:#107010;fill-opacity:0.5;stroke:#262626;stroke-opacity:0.5;stroke-width:1.5;" x="0" xlink:href="#md455589095" y="345.6"/>
    </g>
   </g>
   <g id="matplotlib.axis_1">
    <g id="xtick_1">
     <g id="line2d_1">
      <defs>
       <path d="M 0 0 
L 0 3.5 
" id="m1047367c7c" style="stroke:#000000;stroke-width:0.8;"/>
      </defs>
      <g>
       <use style="stroke:#000000;stroke-width:0.8;" x="84.688382" xlink:href="#m1047367c7c" y="307.584"/>
      </g>
     </g>
     <g id="text_1">
      <!-- −2.5 -->
      <defs>
       <path d="M 10.59375 35.5 
L 73.1875 35.5 
L 73.1875 27.203125 
L 10.59375 27.203125 
z
" id="DejaVuSans-8722"/>
       <path d="M 19.1875 8.296875 
L 53.609375 8.296875 
L 53.609375 0 
L 7.328125 0 
L 7.328125 8.296875 
Q 12.9375 14.109375 22.625 23.890625 
Q 32.328125 33.6875 34.8125 36.53125 
Q 39.546875 41.84375 41.421875 45.53125 
Q 43.3125 49.21875 43.3125 52.78125 
Q 43.3125 58.59375 39.234375 62.25 
Q 35.15625 65.921875 28.609375 65.921875 
Q 23.96875 65.921875 18.8125 64.3125 
Q 13.671875 62.703125 7.8125 59.421875 
L 7.8125 69.390625 
Q 13.765625 71.78125 18.9375 73 
Q 24.125 74.21875 28.421875 74.21875 
Q 39.75 74.21875 46.484375 68.546875 
Q 53.21875 62.890625 53.21875 53.421875 
Q 53.21875 48.921875 51.53125 44.890625 
Q 49.859375 40.875 45.40625 35.40625 
Q 44.1875 33.984375 37.640625 27.21875 
Q 31.109375 20.453125 19.1875 8.296875 
z
" id="DejaVuSans-50"/>
       <path d="M 10.6875 12.40625 
L 21 12.40625 
L 21 0 
L 10.6875 0 
z
" id="DejaVuSans-46"/>
       <path d="M 10.796875 72.90625 
L 49.515625 72.90625 
L 49.515625 64.59375 
L 19.828125 64.59375 
L 19.828125 46.734375 
Q 21.96875 47.46875 24.109375 47.828125 
Q 26.265625 48.1875 28.421875 48.1875 
Q 40.625 48.1875 47.75 41.5 
Q 54.890625 34.8125 54.890625 23.390625 
Q 54.890625 11.625 47.5625 5.09375 
Q 40.234375 -1.421875 26.90625 -1.421875 
Q 22.3125 -1.421875 17.546875 -0.640625 
Q 12.796875 0.140625 7.71875 1.703125 
L 7.71875 11.625 
Q 12.109375 9.234375 16.796875 8.0625 
Q 21.484375 6.890625 26.703125 6.890625 
Q 35.15625 6.890625 40.078125 11.328125 
Q 45.015625 15.765625 45.015625 23.390625 
Q 45.015625 31 40.078125 35.4375 
Q 35.15625 39.890625 26.703125 39.890625 
Q 22.75 39.890625 18.8125 39.015625 
Q 14.890625 38.140625 10.796875 36.28125 
z
" id="DejaVuSans-53"/>
      </defs>
      <g transform="translate(72.546975 322.182437)scale(0.1 -0.1)">
       <use xlink:href="#DejaVuSans-8722"/>
       <use x="83.789062" xlink:href="#DejaVuSans-50"/>
       <use x="147.412109" xlink:href="#DejaVuSans-46"/>
       <use x="179.199219" xlink:href="#DejaVuSans-53"/>
      </g>
     </g>
    </g>
    <g id="xtick_2">
     <g id="line2d_2">
      <g>
       <use style="stroke:#000000;stroke-width:0.8;" x="127.773742" xlink:href="#m1047367c7c" y="307.584"/>
      </g>
     </g>
     <g id="text_2">
      <!-- 0.0 -->
      <defs>
       <path d="M 31.78125 66.40625 
Q 24.171875 66.40625 20.328125 58.90625 
Q 16.5 51.421875 16.5 36.375 
Q 16.5 21.390625 20.328125 13.890625 
Q 24.171875 6.390625 31.78125 6.390625 
Q 39.453125 6.390625 43.28125 13.890625 
Q 47.125 21.390625 47.125 36.375 
Q 47.125 51.421875 43.28125 58.90625 
Q 39.453125 66.40625 31.78125 66.40625 
z
M 31.78125 74.21875 
Q 44.046875 74.21875 50.515625 64.515625 
Q 56.984375 54.828125 56.984375 36.375 
Q 56.984375 17.96875 50.515625 8.265625 
Q 44.046875 -1.421875 31.78125 -1.421875 
Q 19.53125 -1.421875 13.0625 8.265625 
Q 6.59375 17.96875 6.59375 36.375 
Q 6.59375 54.828125 13.0625 64.515625 
Q 19.53125 74.21875 31.78125 74.21875 
z
" id="DejaVuSans-48"/>
      </defs>
      <g transform="translate(119.822179 322.182437)scale(0.1 -0.1)">
       <use xlink:href="#DejaVuSans-48"/>
       <use x="63.623047" xlink:href="#DejaVuSans-46"/>
       <use x="95.410156" xlink:href="#DejaVuSans-48"/>
      </g>
     </g>
    </g>
    <g id="xtick_3">
     <g id="line2d_3">
      <g>
       <use style="stroke:#000000;stroke-width:0.8;" x="170.859101" xlink:href="#m1047367c7c" y="307.584"/>
      </g>
     </g>
     <g id="text_3">
      <!-- 2.5 -->
      <g transform="translate(162.907539 322.182437)scale(0.1 -0.1)">
       <use xlink:href="#DejaVuSans-50"/>
       <use x="63.623047" xlink:href="#DejaVuSans-46"/>
       <use x="95.410156" xlink:href="#DejaVuSans-53"/>
      </g>
     </g>
    </g>
    <g id="xtick_4">
     <g id="line2d_4">
      <g>
       <use style="stroke:#000000;stroke-width:0.8;" x="213.944461" xlink:href="#m1047367c7c" y="307.584"/>
      </g>
     </g>
     <g id="text_4">
      <!-- 5.0 -->
      <g transform="translate(205.992899 322.182437)scale(0.1 -0.1)">
       <use xlink:href="#DejaVuSans-53"/>
       <use x="63.623047" xlink:href="#DejaVuSans-46"/>
       <use x="95.410156" xlink:href="#DejaVuSans-48"/>
      </g>
     </g>
    </g>
    <g id="xtick_5">
     <g id="line2d_5">
      <g>
       <use style="stroke:#000000;stroke-width:0.8;" x="257.029821" xlink:href="#m1047367c7c" y="307.584"/>
      </g>
     </g>
     <g id="text_5">
      <!-- 7.5 -->
      <defs>
       <path d="M 8.203125 72.90625 
L 55.078125 72.90625 
L 55.078125 68.703125 
L 28.609375 0 
L 18.3125 0 
L 43.21875 64.59375 
L 8.203125 64.59375 
z
" id="DejaVuSans-55"/>
      </defs>
      <g transform="translate(249.078258 322.182437)scale(0.1 -0.1)">
       <use xlink:href="#DejaVuSans-55"/>
       <use x="63.623047" xlink:href="#DejaVuSans-46"/>
       <use x="95.410156" xlink:href="#DejaVuSans-53"/>
      </g>
     </g>
    </g>
    <g id="xtick_6">
     <g id="line2d_6">
      <g>
       <use style="stroke:#000000;stroke-width:0.8;" x="300.115181" xlink:href="#m1047367c7c" y="307.584"/>
      </g>
     </g>
     <g id="text_6">
      <!-- 10.0 -->
      <defs>
       <path d="M 12.40625 8.296875 
L 28.515625 8.296875 
L 28.515625 63.921875 
L 10.984375 60.40625 
L 10.984375 69.390625 
L 28.421875 72.90625 
L 38.28125 72.90625 
L 38.28125 8.296875 
L 54.390625 8.296875 
L 54.390625 0 
L 12.40625 0 
z
" id="DejaVuSans-49"/>
      </defs>
      <g transform="translate(288.982368 322.182437)scale(0.1 -0.1)">
       <use xlink:href="#DejaVuSans-49"/>
       <use x="63.623047" xlink:href="#DejaVuSans-48"/>
       <use x="127.246094" xlink:href="#DejaVuSans-46"/>
       <use x="159.033203" xlink:href="#DejaVuSans-48"/>
      </g>
     </g>
    </g>
    <g id="xtick_7">
     <g id="line2d_7">
      <g>
       <use style="stroke:#000000;stroke-width:0.8;" x="343.20054" xlink:href="#m1047367c7c" y="307.584"/>
      </g>
     </g>
     <g id="text_7">
      <!-- 12.5 -->
      <g transform="translate(332.067728 322.182437)scale(0.1 -0.1)">
       <use xlink:href="#DejaVuSans-49"/>
       <use x="63.623047" xlink:href="#DejaVuSans-50"/>
       <use x="127.246094" xlink:href="#DejaVuSans-46"/>
       <use x="159.033203" xlink:href="#DejaVuSans-53"/>
      </g>
     </g>
    </g>
    <g id="xtick_8">
     <g id="line2d_8">
      <g>
       <use style="stroke:#000000;stroke-width:0.8;" x="386.2859" xlink:href="#m1047367c7c" y="307.584"/>
      </g>
     </g>
     <g id="text_8">
      <!-- 15.0 -->
      <g transform="translate(375.153088 322.182437)scale(0.1 -0.1)">
       <use xlink:href="#DejaVuSans-49"/>
       <use x="63.623047" xlink:href="#DejaVuSans-53"/>
       <use x="127.246094" xlink:href="#DejaVuSans-46"/>
       <use x="159.033203" xlink:href="#DejaVuSans-48"/>
      </g>
     </g>
    </g>
    <g id="text_9">
     <!-- neutnadirac -->
     <defs>
      <path d="M 54.890625 33.015625 
L 54.890625 0 
L 45.90625 0 
L 45.90625 32.71875 
Q 45.90625 40.484375 42.875 44.328125 
Q 39.84375 48.1875 33.796875 48.1875 
Q 26.515625 48.1875 22.3125 43.546875 
Q 18.109375 38.921875 18.109375 30.90625 
L 18.109375 0 
L 9.078125 0 
L 9.078125 54.6875 
L 18.109375 54.6875 
L 18.109375 46.1875 
Q 21.34375 51.125 25.703125 53.5625 
Q 30.078125 56 35.796875 56 
Q 45.21875 56 50.046875 50.171875 
Q 54.890625 44.34375 54.890625 33.015625 
z
" id="DejaVuSans-110"/>
      <path d="M 56.203125 29.59375 
L 56.203125 25.203125 
L 14.890625 25.203125 
Q 15.484375 15.921875 20.484375 11.0625 
Q 25.484375 6.203125 34.421875 6.203125 
Q 39.59375 6.203125 44.453125 7.46875 
Q 49.3125 8.734375 54.109375 11.28125 
L 54.109375 2.78125 
Q 49.265625 0.734375 44.1875 -0.34375 
Q 39.109375 -1.421875 33.890625 -1.421875 
Q 20.796875 -1.421875 13.15625 6.1875 
Q 5.515625 13.8125 5.515625 26.8125 
Q 5.515625 40.234375 12.765625 48.109375 
Q 20.015625 56 32.328125 56 
Q 43.359375 56 49.78125 48.890625 
Q 56.203125 41.796875 56.203125 29.59375 
z
M 47.21875 32.234375 
Q 47.125 39.59375 43.09375 43.984375 
Q 39.0625 48.390625 32.421875 48.390625 
Q 24.90625 48.390625 20.390625 44.140625 
Q 15.875 39.890625 15.1875 32.171875 
z
" id="DejaVuSans-101"/>
      <path d="M 8.5 21.578125 
L 8.5 54.6875 
L 17.484375 54.6875 
L 17.484375 21.921875 
Q 17.484375 14.15625 20.5 10.265625 
Q 23.53125 6.390625 29.59375 6.390625 
Q 36.859375 6.390625 41.078125 11.03125 
Q 45.3125 15.671875 45.3125 23.6875 
L 45.3125 54.6875 
L 54.296875 54.6875 
L 54.296875 0 
L 45.3125 0 
L 45.3125 8.40625 
Q 42.046875 3.421875 37.71875 1 
Q 33.40625 -1.421875 27.6875 -1.421875 
Q 18.265625 -1.421875 13.375 4.4375 
Q 8.5 10.296875 8.5 21.578125 
z
M 31.109375 56 
z
" id="DejaVuSans-117"/>
      <path d="M 18.3125 70.21875 
L 18.3125 54.6875 
L 36.8125 54.6875 
L 36.8125 47.703125 
L 18.3125 47.703125 
L 18.3125 18.015625 
Q 18.3125 11.328125 20.140625 9.421875 
Q 21.96875 7.515625 27.59375 7.515625 
L 36.8125 7.515625 
L 36.8125 0 
L 27.59375 0 
Q 17.1875 0 13.234375 3.875 
Q 9.28125 7.765625 9.28125 18.015625 
L 9.28125 47.703125 
L 2.6875 47.703125 
L 2.6875 54.6875 
L 9.28125 54.6875 
L 9.28125 70.21875 
z
" id="DejaVuSans-116"/>
      <path d="M 34.28125 27.484375 
Q 23.390625 27.484375 19.1875 25 
Q 14.984375 22.515625 14.984375 16.5 
Q 14.984375 11.71875 18.140625 8.90625 
Q 21.296875 6.109375 26.703125 6.109375 
Q 34.1875 6.109375 38.703125 11.40625 
Q 43.21875 16.703125 43.21875 25.484375 
L 43.21875 27.484375 
z
M 52.203125 31.203125 
L 52.203125 0 
L 43.21875 0 
L 43.21875 8.296875 
Q 40.140625 3.328125 35.546875 0.953125 
Q 30.953125 -1.421875 24.3125 -1.421875 
Q 15.921875 -1.421875 10.953125 3.296875 
Q 6 8.015625 6 15.921875 
Q 6 25.140625 12.171875 29.828125 
Q 18.359375 34.515625 30.609375 34.515625 
L 43.21875 34.515625 
L 43.21875 35.40625 
Q 43.21875 41.609375 39.140625 45 
Q 35.0625 48.390625 27.6875 48.390625 
Q 23 48.390625 18.546875 47.265625 
Q 14.109375 46.140625 10.015625 43.890625 
L 10.015625 52.203125 
Q 14.9375 54.109375 19.578125 55.046875 
Q 24.21875 56 28.609375 56 
Q 40.484375 56 46.34375 49.84375 
Q 52.203125 43.703125 52.203125 31.203125 
z
" id="DejaVuSans-97"/>
      <path d="M 45.40625 46.390625 
L 45.40625 75.984375 
L 54.390625 75.984375 
L 54.390625 0 
L 45.40625 0 
L 45.40625 8.203125 
Q 42.578125 3.328125 38.25 0.953125 
Q 33.9375 -1.421875 27.875 -1.421875 
Q 17.96875 -1.421875 11.734375 6.484375 
Q 5.515625 14.40625 5.515625 27.296875 
Q 5.515625 40.1875 11.734375 48.09375 
Q 17.96875 56 27.875 56 
Q 33.9375 56 38.25 53.625 
Q 42.578125 51.265625 45.40625 46.390625 
z
M 14.796875 27.296875 
Q 14.796875 17.390625 18.875 11.75 
Q 22.953125 6.109375 30.078125 6.109375 
Q 37.203125 6.109375 41.296875 11.75 
Q 45.40625 17.390625 45.40625 27.296875 
Q 45.40625 37.203125 41.296875 42.84375 
Q 37.203125 48.484375 30.078125 48.484375 
Q 22.953125 48.484375 18.875 42.84375 
Q 14.796875 37.203125 14.796875 27.296875 
z
" id="DejaVuSans-100"/>
      <path d="M 9.421875 54.6875 
L 18.40625 54.6875 
L 18.40625 0 
L 9.421875 0 
z
M 9.421875 75.984375 
L 18.40625 75.984375 
L 18.40625 64.59375 
L 9.421875 64.59375 
z
" id="DejaVuSans-105"/>
      <path d="M 41.109375 46.296875 
Q 39.59375 47.171875 37.8125 47.578125 
Q 36.03125 48 33.890625 48 
Q 26.265625 48 22.1875 43.046875 
Q 18.109375 38.09375 18.109375 28.8125 
L 18.109375 0 
L 9.078125 0 
L 9.078125 54.6875 
L 18.109375 54.6875 
L 18.109375 46.1875 
Q 20.953125 51.171875 25.484375 53.578125 
Q 30.03125 56 36.53125 56 
Q 37.453125 56 38.578125 55.875 
Q 39.703125 55.765625 41.0625 55.515625 
z
" id="DejaVuSans-114"/>
      <path d="M 48.78125 52.59375 
L 48.78125 44.1875 
Q 44.96875 46.296875 41.140625 47.34375 
Q 37.3125 48.390625 33.40625 48.390625 
Q 24.65625 48.390625 19.8125 42.84375 
Q 14.984375 37.3125 14.984375 27.296875 
Q 14.984375 17.28125 19.8125 11.734375 
Q 24.65625 6.203125 33.40625 6.203125 
Q 37.3125 6.203125 41.140625 7.25 
Q 44.96875 8.296875 48.78125 10.40625 
L 48.78125 2.09375 
Q 45.015625 0.34375 40.984375 -0.53125 
Q 36.96875 -1.421875 32.421875 -1.421875 
Q 20.0625 -1.421875 12.78125 6.34375 
Q 5.515625 14.109375 5.515625 27.296875 
Q 5.515625 40.671875 12.859375 48.328125 
Q 20.21875 56 33.015625 56 
Q 37.15625 56 41.109375 55.140625 
Q 45.0625 54.296875 48.78125 52.59375 
z
" id="DejaVuSans-99"/>
     </defs>
     <g transform="translate(206.120937 335.860562)scale(0.1 -0.1)">
      <use xlink:href="#DejaVuSans-110"/>
      <use x="63.378906" xlink:href="#DejaVuSans-101"/>
      <use x="124.902344" xlink:href="#DejaVuSans-117"/>
      <use x="188.28125" xlink:href="#DejaVuSans-116"/>
      <use x="227.490234" xlink:href="#DejaVuSans-110"/>
      <use x="290.869141" xlink:href="#DejaVuSans-97"/>
      <use x="352.148438" xlink:href="#DejaVuSans-100"/>
      <use x="415.625" xlink:href="#DejaVuSans-105"/>
      <use x="443.408203" xlink:href="#DejaVuSans-114"/>
      <use x="484.521484" xlink:href="#DejaVuSans-97"/>
      <use x="545.800781" xlink:href="#DejaVuSans-99"/>
     </g>
    </g>
   </g>
   <g id="matplotlib.axis_2">
    <g id="ytick_1">
     <g id="line2d_9">
      <defs>
       <path d="M 0 0 
L -3.5 0 
" id="mec578e466e" style="stroke:#000000;stroke-width:0.8;"/>
      </defs>
      <g>
       <use style="stroke:#000000;stroke-width:0.8;" x="57.6" xlink:href="#mec578e466e" y="174.528"/>
      </g>
     </g>
    </g>
   </g>
   <g id="line2d_10">
    <path clip-path="url(#pc8eb0b3237)" d="M 150.178129 174.528 
L 239.795677 174.528 
" style="fill:none;stroke:#ffa500;stroke-linecap:square;stroke-width:1.5;"/>
   </g>
   <g id="line2d_11">
    <path clip-path="url(#pc8eb0b3237)" d="M 186.369831 174.528 
L 231.178605 174.528 
" style="fill:none;stroke:#4c4c4c;stroke-linecap:square;stroke-width:4.5;"/>
   </g>
   <g id="line2d_12">
    <path clip-path="url(#pc8eb0b3237)" d="M 127.773742 174.528 
L 262.200064 174.528 
" style="fill:none;stroke:#008000;stroke-linecap:square;stroke-width:1.5;"/>
   </g>
   <g id="line2d_13">
    <path clip-path="url(#pc8eb0b3237)" d="M 163.965444 174.528 
L 203.603975 174.528 
" style="fill:none;stroke:#262626;stroke-linecap:square;stroke-width:4.5;"/>
   </g>
   <g id="patch_3">
    <path d="M 57.6 307.584 
L 57.6 41.472 
" style="fill:none;stroke:#000000;stroke-linecap:square;stroke-linejoin:miter;stroke-width:0.8;"/>
   </g>
   <g id="patch_4">
    <path d="M 414.72 307.584 
L 414.72 41.472 
" style="fill:none;stroke:#000000;stroke-linecap:square;stroke-linejoin:miter;stroke-width:0.8;"/>
   </g>
   <g id="patch_5">
    <path d="M 57.6 307.584 
L 414.72 307.584 
" style="fill:none;stroke:#000000;stroke-linecap:square;stroke-linejoin:miter;stroke-width:0.8;"/>
   </g>
   <g id="patch_6">
    <path d="M 57.6 41.472 
L 414.72 41.472 
" style="fill:none;stroke:#000000;stroke-linecap:square;stroke-linejoin:miter;stroke-width:0.8;"/>
   </g>
   <g id="PathCollection_1">
    <defs>
     <path d="M 0 1.5 
C 0.397805 1.5 0.77937 1.341951 1.06066 1.06066 
C 1.341951 0.77937 1.5 0.397805 1.5 0 
C 1.5 -0.397805 1.341951 -0.77937 1.06066 -1.06066 
C 0.77937 -1.341951 0.397805 -1.5 0 -1.5 
C -0.397805 -1.5 -0.77937 -1.341951 -1.06066 -1.06066 
C -1.341951 -0.77937 -1.5 -0.397805 -1.5 0 
C -1.5 0.397805 -1.341951 0.77937 -1.06066 1.06066 
C -0.77937 1.341951 -0.397805 1.5 0 1.5 
z
" id="mc51417a4a3" style="stroke:#4c4c4c;stroke-opacity:0.5;"/>
    </defs>
    <g clip-path="url(#pc8eb0b3237)">
     <use style="fill:#ffffff;fill-opacity:0.5;stroke:#4c4c4c;stroke-opacity:0.5;" x="222.561533" xlink:href="#mc51417a4a3" y="174.528"/>
    </g>
   </g>
   <g id="PathCollection_2">
    <defs>
     <path d="M 0 1.5 
C 0.397805 1.5 0.77937 1.341951 1.06066 1.06066 
C 1.341951 0.77937 1.5 0.397805 1.5 0 
C 1.5 -0.397805 1.341951 -0.77937 1.06066 -1.06066 
C 0.77937 -1.341951 0.397805 -1.5 0 -1.5 
C -0.397805 -1.5 -0.77937 -1.341951 -1.06066 -1.06066 
C -1.341951 -0.77937 -1.5 -0.397805 -1.5 0 
C -1.5 0.397805 -1.341951 0.77937 -1.06066 1.06066 
C -0.77937 1.341951 -0.397805 1.5 0 1.5 
z
" id="mdc157fa2ce" style="stroke:#262626;stroke-opacity:0.5;"/>
    </defs>
    <g clip-path="url(#pc8eb0b3237)">
     <use style="fill:#ffffff;fill-opacity:0.5;stroke:#262626;stroke-opacity:0.5;" x="181.199588" xlink:href="#mdc157fa2ce" y="174.528"/>
    </g>
   </g>
   <g id="text_10">
    <!-- Association of neutnadirac vs. ecmo -->
    <defs>
     <path d="M 34.1875 63.1875 
L 20.796875 26.90625 
L 47.609375 26.90625 
z
M 28.609375 72.90625 
L 39.796875 72.90625 
L 67.578125 0 
L 57.328125 0 
L 50.6875 18.703125 
L 17.828125 18.703125 
L 11.1875 0 
L 0.78125 0 
z
" id="DejaVuSans-65"/>
     <path d="M 44.28125 53.078125 
L 44.28125 44.578125 
Q 40.484375 46.53125 36.375 47.5 
Q 32.28125 48.484375 27.875 48.484375 
Q 21.1875 48.484375 17.84375 46.4375 
Q 14.5 44.390625 14.5 40.28125 
Q 14.5 37.15625 16.890625 35.375 
Q 19.28125 33.59375 26.515625 31.984375 
L 29.59375 31.296875 
Q 39.15625 29.25 43.1875 25.515625 
Q 47.21875 21.78125 47.21875 15.09375 
Q 47.21875 7.46875 41.1875 3.015625 
Q 35.15625 -1.421875 24.609375 -1.421875 
Q 20.21875 -1.421875 15.453125 -0.5625 
Q 10.6875 0.296875 5.421875 2 
L 5.421875 11.28125 
Q 10.40625 8.6875 15.234375 7.390625 
Q 20.0625 6.109375 24.8125 6.109375 
Q 31.15625 6.109375 34.5625 8.28125 
Q 37.984375 10.453125 37.984375 14.40625 
Q 37.984375 18.0625 35.515625 20.015625 
Q 33.0625 21.96875 24.703125 23.78125 
L 21.578125 24.515625 
Q 13.234375 26.265625 9.515625 29.90625 
Q 5.8125 33.546875 5.8125 39.890625 
Q 5.8125 47.609375 11.28125 51.796875 
Q 16.75 56 26.8125 56 
Q 31.78125 56 36.171875 55.265625 
Q 40.578125 54.546875 44.28125 53.078125 
z
" id="DejaVuSans-115"/>
     <path d="M 30.609375 48.390625 
Q 23.390625 48.390625 19.1875 42.75 
Q 14.984375 37.109375 14.984375 27.296875 
Q 14.984375 17.484375 19.15625 11.84375 
Q 23.34375 6.203125 30.609375 6.203125 
Q 37.796875 6.203125 41.984375 11.859375 
Q 46.1875 17.53125 46.1875 27.296875 
Q 46.1875 37.015625 41.984375 42.703125 
Q 37.796875 48.390625 30.609375 48.390625 
z
M 30.609375 56 
Q 42.328125 56 49.015625 48.375 
Q 55.71875 40.765625 55.71875 27.296875 
Q 55.71875 13.875 49.015625 6.21875 
Q 42.328125 -1.421875 30.609375 -1.421875 
Q 18.84375 -1.421875 12.171875 6.21875 
Q 5.515625 13.875 5.515625 27.296875 
Q 5.515625 40.765625 12.171875 48.375 
Q 18.84375 56 30.609375 56 
z
" id="DejaVuSans-111"/>
     <path id="DejaVuSans-32"/>
     <path d="M 37.109375 75.984375 
L 37.109375 68.5 
L 28.515625 68.5 
Q 23.6875 68.5 21.796875 66.546875 
Q 19.921875 64.59375 19.921875 59.515625 
L 19.921875 54.6875 
L 34.71875 54.6875 
L 34.71875 47.703125 
L 19.921875 47.703125 
L 19.921875 0 
L 10.890625 0 
L 10.890625 47.703125 
L 2.296875 47.703125 
L 2.296875 54.6875 
L 10.890625 54.6875 
L 10.890625 58.5 
Q 10.890625 67.625 15.140625 71.796875 
Q 19.390625 75.984375 28.609375 75.984375 
z
" id="DejaVuSans-102"/>
     <path d="M 2.984375 54.6875 
L 12.5 54.6875 
L 29.59375 8.796875 
L 46.6875 54.6875 
L 56.203125 54.6875 
L 35.6875 0 
L 23.484375 0 
z
" id="DejaVuSans-118"/>
     <path d="M 52 44.1875 
Q 55.375 50.25 60.0625 53.125 
Q 64.75 56 71.09375 56 
Q 79.640625 56 84.28125 50.015625 
Q 88.921875 44.046875 88.921875 33.015625 
L 88.921875 0 
L 79.890625 0 
L 79.890625 32.71875 
Q 79.890625 40.578125 77.09375 44.375 
Q 74.3125 48.1875 68.609375 48.1875 
Q 61.625 48.1875 57.5625 43.546875 
Q 53.515625 38.921875 53.515625 30.90625 
L 53.515625 0 
L 44.484375 0 
L 44.484375 32.71875 
Q 44.484375 40.625 41.703125 44.40625 
Q 38.921875 48.1875 33.109375 48.1875 
Q 26.21875 48.1875 22.15625 43.53125 
Q 18.109375 38.875 18.109375 30.90625 
L 18.109375 0 
L 9.078125 0 
L 9.078125 54.6875 
L 18.109375 54.6875 
L 18.109375 46.1875 
Q 21.1875 51.21875 25.484375 53.609375 
Q 29.78125 56 35.6875 56 
Q 41.65625 56 45.828125 52.96875 
Q 50 49.953125 52 44.1875 
z
" id="DejaVuSans-109"/>
    </defs>
    <g transform="translate(127.449375 35.472)scale(0.12 -0.12)">
     <use xlink:href="#DejaVuSans-65"/>
     <use x="68.408203" xlink:href="#DejaVuSans-115"/>
     <use x="120.507812" xlink:href="#DejaVuSans-115"/>
     <use x="172.607422" xlink:href="#DejaVuSans-111"/>
     <use x="233.789062" xlink:href="#DejaVuSans-99"/>
     <use x="288.769531" xlink:href="#DejaVuSans-105"/>
     <use x="316.552734" xlink:href="#DejaVuSans-97"/>
     <use x="377.832031" xlink:href="#DejaVuSans-116"/>
     <use x="417.041016" xlink:href="#DejaVuSans-105"/>
     <use x="444.824219" xlink:href="#DejaVuSans-111"/>
     <use x="506.005859" xlink:href="#DejaVuSans-110"/>
     <use x="569.384766" xlink:href="#DejaVuSans-32"/>
     <use x="601.171875" xlink:href="#DejaVuSans-111"/>
     <use x="662.353516" xlink:href="#DejaVuSans-102"/>
     <use x="697.558594" xlink:href="#DejaVuSans-32"/>
     <use x="729.345703" xlink:href="#DejaVuSans-110"/>
     <use x="792.724609" xlink:href="#DejaVuSans-101"/>
     <use x="854.248047" xlink:href="#DejaVuSans-117"/>
     <use x="917.626953" xlink:href="#DejaVuSans-116"/>
     <use x="956.835938" xlink:href="#DejaVuSans-110"/>
     <use x="1020.214844" xlink:href="#DejaVuSans-97"/>
     <use x="1081.494141" xlink:href="#DejaVuSans-100"/>
     <use x="1144.970703" xlink:href="#DejaVuSans-105"/>
     <use x="1172.753906" xlink:href="#DejaVuSans-114"/>
     <use x="1213.867188" xlink:href="#DejaVuSans-97"/>
     <use x="1275.146484" xlink:href="#DejaVuSans-99"/>
     <use x="1330.126953" xlink:href="#DejaVuSans-32"/>
     <use x="1361.914062" xlink:href="#DejaVuSans-118"/>
     <use x="1421.09375" xlink:href="#DejaVuSans-115"/>
     <use x="1473.193359" xlink:href="#DejaVuSans-46"/>
     <use x="1504.980469" xlink:href="#DejaVuSans-32"/>
     <use x="1536.767578" xlink:href="#DejaVuSans-101"/>
     <use x="1598.291016" xlink:href="#DejaVuSans-99"/>
     <use x="1653.271484" xlink:href="#DejaVuSans-109"/>
     <use x="1750.683594" xlink:href="#DejaVuSans-111"/>
    </g>
   </g>
   <g id="legend_1">
    <g id="patch_7">
     <path d="M 297.441875 78.82825 
L 407.72 78.82825 
Q 409.72 78.82825 409.72 76.82825 
L 409.72 48.472 
Q 409.72 46.472 407.72 46.472 
L 297.441875 46.472 
Q 295.441875 46.472 295.441875 48.472 
L 295.441875 76.82825 
Q 295.441875 78.82825 297.441875 78.82825 
z
" style="fill:#ffffff;opacity:0.8;stroke:#cccccc;stroke-linejoin:miter;"/>
    </g>
    <g id="line2d_14">
     <path d="M 299.441875 54.570437 
L 319.441875 54.570437 
" style="fill:none;stroke:#ffa500;stroke-linecap:square;stroke-width:1.5;"/>
    </g>
    <g id="line2d_15"/>
    <g id="text_11">
     <!-- ecmo (3) -->
     <defs>
      <path d="M 31 75.875 
Q 24.46875 64.65625 21.28125 53.65625 
Q 18.109375 42.671875 18.109375 31.390625 
Q 18.109375 20.125 21.3125 9.0625 
Q 24.515625 -2 31 -13.1875 
L 23.1875 -13.1875 
Q 15.875 -1.703125 12.234375 9.375 
Q 8.59375 20.453125 8.59375 31.390625 
Q 8.59375 42.28125 12.203125 53.3125 
Q 15.828125 64.359375 23.1875 75.875 
z
" id="DejaVuSans-40"/>
      <path d="M 40.578125 39.3125 
Q 47.65625 37.796875 51.625 33 
Q 55.609375 28.21875 55.609375 21.1875 
Q 55.609375 10.40625 48.1875 4.484375 
Q 40.765625 -1.421875 27.09375 -1.421875 
Q 22.515625 -1.421875 17.65625 -0.515625 
Q 12.796875 0.390625 7.625 2.203125 
L 7.625 11.71875 
Q 11.71875 9.328125 16.59375 8.109375 
Q 21.484375 6.890625 26.8125 6.890625 
Q 36.078125 6.890625 40.9375 10.546875 
Q 45.796875 14.203125 45.796875 21.1875 
Q 45.796875 27.640625 41.28125 31.265625 
Q 36.765625 34.90625 28.71875 34.90625 
L 20.21875 34.90625 
L 20.21875 43.015625 
L 29.109375 43.015625 
Q 36.375 43.015625 40.234375 45.921875 
Q 44.09375 48.828125 44.09375 54.296875 
Q 44.09375 59.90625 40.109375 62.90625 
Q 36.140625 65.921875 28.71875 65.921875 
Q 24.65625 65.921875 20.015625 65.03125 
Q 15.375 64.15625 9.8125 62.3125 
L 9.8125 71.09375 
Q 15.4375 72.65625 20.34375 73.4375 
Q 25.25 74.21875 29.59375 74.21875 
Q 40.828125 74.21875 47.359375 69.109375 
Q 53.90625 64.015625 53.90625 55.328125 
Q 53.90625 49.265625 50.4375 45.09375 
Q 46.96875 40.921875 40.578125 39.3125 
z
" id="DejaVuSans-51"/>
      <path d="M 8.015625 75.875 
L 15.828125 75.875 
Q 23.140625 64.359375 26.78125 53.3125 
Q 30.421875 42.28125 30.421875 31.390625 
Q 30.421875 20.453125 26.78125 9.375 
Q 23.140625 -1.703125 15.828125 -13.1875 
L 8.015625 -13.1875 
Q 14.5 -2 17.703125 9.0625 
Q 20.90625 20.125 20.90625 31.390625 
Q 20.90625 42.671875 17.703125 53.65625 
Q 14.5 64.65625 8.015625 75.875 
z
" id="DejaVuSans-41"/>
     </defs>
     <g transform="translate(327.441875 58.070437)scale(0.1 -0.1)">
      <use xlink:href="#DejaVuSans-101"/>
      <use x="61.523438" xlink:href="#DejaVuSans-99"/>
      <use x="116.503906" xlink:href="#DejaVuSans-109"/>
      <use x="213.916016" xlink:href="#DejaVuSans-111"/>
      <use x="275.097656" xlink:href="#DejaVuSans-32"/>
      <use x="306.884766" xlink:href="#DejaVuSans-40"/>
      <use x="345.898438" xlink:href="#DejaVuSans-51"/>
      <use x="409.521484" xlink:href="#DejaVuSans-41"/>
     </g>
    </g>
    <g id="line2d_16">
     <path d="M 299.441875 69.248562 
L 319.441875 69.248562 
" style="fill:none;stroke:#008000;stroke-linecap:square;stroke-width:1.5;"/>
    </g>
    <g id="line2d_17"/>
    <g id="text_12">
     <!-- Not ecmo (482) -->
     <defs>
      <path d="M 9.8125 72.90625 
L 23.09375 72.90625 
L 55.421875 11.921875 
L 55.421875 72.90625 
L 64.984375 72.90625 
L 64.984375 0 
L 51.703125 0 
L 19.390625 60.984375 
L 19.390625 0 
L 9.8125 0 
z
" id="DejaVuSans-78"/>
      <path d="M 37.796875 64.3125 
L 12.890625 25.390625 
L 37.796875 25.390625 
z
M 35.203125 72.90625 
L 47.609375 72.90625 
L 47.609375 25.390625 
L 58.015625 25.390625 
L 58.015625 17.1875 
L 47.609375 17.1875 
L 47.609375 0 
L 37.796875 0 
L 37.796875 17.1875 
L 4.890625 17.1875 
L 4.890625 26.703125 
z
" id="DejaVuSans-52"/>
      <path d="M 31.78125 34.625 
Q 24.75 34.625 20.71875 30.859375 
Q 16.703125 27.09375 16.703125 20.515625 
Q 16.703125 13.921875 20.71875 10.15625 
Q 24.75 6.390625 31.78125 6.390625 
Q 38.8125 6.390625 42.859375 10.171875 
Q 46.921875 13.96875 46.921875 20.515625 
Q 46.921875 27.09375 42.890625 30.859375 
Q 38.875 34.625 31.78125 34.625 
z
M 21.921875 38.8125 
Q 15.578125 40.375 12.03125 44.71875 
Q 8.5 49.078125 8.5 55.328125 
Q 8.5 64.0625 14.71875 69.140625 
Q 20.953125 74.21875 31.78125 74.21875 
Q 42.671875 74.21875 48.875 69.140625 
Q 55.078125 64.0625 55.078125 55.328125 
Q 55.078125 49.078125 51.53125 44.71875 
Q 48 40.375 41.703125 38.8125 
Q 48.828125 37.15625 52.796875 32.3125 
Q 56.78125 27.484375 56.78125 20.515625 
Q 56.78125 9.90625 50.3125 4.234375 
Q 43.84375 -1.421875 31.78125 -1.421875 
Q 19.734375 -1.421875 13.25 4.234375 
Q 6.78125 9.90625 6.78125 20.515625 
Q 6.78125 27.484375 10.78125 32.3125 
Q 14.796875 37.15625 21.921875 38.8125 
z
M 18.3125 54.390625 
Q 18.3125 48.734375 21.84375 45.5625 
Q 25.390625 42.390625 31.78125 42.390625 
Q 38.140625 42.390625 41.71875 45.5625 
Q 45.3125 48.734375 45.3125 54.390625 
Q 45.3125 60.0625 41.71875 63.234375 
Q 38.140625 66.40625 31.78125 66.40625 
Q 25.390625 66.40625 21.84375 63.234375 
Q 18.3125 60.0625 18.3125 54.390625 
z
" id="DejaVuSans-56"/>
     </defs>
     <g transform="translate(327.441875 72.748562)scale(0.1 -0.1)">
      <use xlink:href="#DejaVuSans-78"/>
      <use x="74.804688" xlink:href="#DejaVuSans-111"/>
      <use x="135.986328" xlink:href="#DejaVuSans-116"/>
      <use x="175.195312" xlink:href="#DejaVuSans-32"/>
      <use x="206.982422" xlink:href="#DejaVuSans-101"/>
      <use x="268.505859" xlink:href="#DejaVuSans-99"/>
      <use x="323.486328" xlink:href="#DejaVuSans-109"/>
      <use x="420.898438" xlink:href="#DejaVuSans-111"/>
      <use x="482.080078" xlink:href="#DejaVuSans-32"/>
      <use x="513.867188" xlink:href="#DejaVuSans-40"/>
      <use x="552.880859" xlink:href="#DejaVuSans-52"/>
      <use x="616.503906" xlink:href="#DejaVuSans-56"/>
      <use x="680.126953" xlink:href="#DejaVuSans-50"/>
      <use x="743.75" xlink:href="#DejaVuSans-41"/>
     </g>
    </g>
   </g>
  </g>
 </g>
 <defs>
  <clipPath id="pc8eb0b3237">
   <rect height="266.112" width="357.12" x="57.6" y="41.472"/>
  </clipPath>
 </defs>
</svg>
