<?xml version="1.0" encoding="utf-8" standalone="no"?>
<!DOCTYPE svg PUBLIC "-//W3C//DTD SVG 1.1//EN"
  "http://www.w3.org/Graphics/SVG/1.1/DTD/svg11.dtd">
<!-- Created with matplotlib (https://matplotlib.org/) -->
<svg height="345.6pt" version="1.1" viewBox="0 0 460.8 345.6" width="460.8pt" xmlns="http://www.w3.org/2000/svg" xmlns:xlink="http://www.w3.org/1999/xlink">
 <defs>
  <style type="text/css">
*{stroke-linecap:butt;stroke-linejoin:round;}
  </style>
 </defs>
 <g id="figure_1">
  <g id="patch_1">
   <path d="M 0 345.6 
L 460.8 345.6 
L 460.8 0 
L 0 0 
z
" style="fill:#ffffff;"/>
  </g>
  <g id="axes_1">
   <g id="patch_2">
    <path d="M 57.6 307.584 
L 414.72 307.584 
L 414.72 41.472 
L 57.6 41.472 
z
" style="fill:#ffffff;"/>
   </g>
   <g id="PolyCollection_1">
    <defs>
     <path d="M 73.832727 -170.226491 
L 73.832727 -171.917509 
L 77.112066 -172.458156 
L 80.391405 -173.277305 
L 83.670744 -174.478966 
L 86.950083 -176.186274 
L 90.229421 -178.53618 
L 93.50876 -181.66972 
L 96.788099 -185.717669 
L 100.067438 -190.782155 
L 103.346777 -196.915958 
L 106.626116 -204.102374 
L 109.905455 -212.239539 
L 113.184793 -221.133573 
L 116.464132 -230.504405 
L 119.743471 -240.006438 
L 123.02281 -249.263354 
L 126.302149 -257.912749 
L 129.581488 -265.652921 
L 132.860826 -272.282065 
L 136.140165 -277.720428 
L 139.419504 -282.009049 
L 142.698843 -285.284099 
L 145.978182 -287.732246 
L 149.257521 -289.53781 
L 152.53686 -290.835062 
L 155.816198 -291.677627 
L 159.095537 -292.032 
L 162.374876 -291.795138 
L 165.654215 -290.829421 
L 168.933554 -289.00414 
L 172.212893 -286.232383 
L 175.492231 -282.495325 
L 178.77157 -277.850989 
L 182.050909 -272.429253 
L 185.330248 -266.417641 
L 188.609587 -260.042574 
L 191.888926 -253.549138 
L 195.168264 -247.180454 
L 198.447603 -241.156713 
L 201.726942 -235.654535 
L 205.006281 -230.788861 
L 208.28562 -226.601065 
L 211.564959 -223.057067 
L 214.844298 -220.057568 
L 218.123636 -217.459448 
L 221.402975 -215.104074 
L 224.682314 -212.846037 
L 227.961653 -210.57563 
L 231.240992 -208.230345 
L 234.520331 -205.793983 
L 237.799669 -203.285583 
L 241.079008 -200.742959 
L 244.358347 -198.206443 
L 247.637686 -195.707422 
L 250.917025 -193.263941 
L 254.196364 -190.883018 
L 257.475702 -188.567253 
L 260.755041 -186.322443 
L 264.03438 -184.163278 
L 267.313719 -182.11541 
L 270.593058 -180.21374 
L 273.872397 -178.497995 
L 277.151736 -177.007255 
L 280.431074 -175.774986 
L 283.710413 -174.825533 
L 286.989752 -174.172203 
L 290.269091 -173.816479 
L 293.54843 -173.747601 
L 296.827769 -173.941963 
L 300.107107 -174.362264 
L 303.386446 -174.956975 
L 306.665785 -175.661088 
L 309.945124 -176.399138 
L 313.224463 -177.091039 
L 316.503802 -177.660397 
L 319.78314 -178.044083 
L 323.062479 -178.201088 
L 326.341818 -178.118574 
L 329.621157 -177.81347 
L 332.900496 -177.328955 
L 336.179835 -176.726423 
L 339.459174 -176.074585 
L 342.738512 -175.437988 
L 346.017851 -174.8673 
L 349.29719 -174.39312 
L 352.576529 -174.024226 
L 355.855868 -173.750079 
L 359.135207 -173.546577 
L 362.414545 -173.383442 
L 365.693884 -173.231516 
L 368.973223 -173.068469 
L 372.252562 -172.881994 
L 375.531901 -172.670265 
L 378.81124 -172.440082 
L 382.090579 -172.203582 
L 385.369917 -171.974549 
L 388.649256 -171.765252 
L 391.928595 -171.584368 
L 395.207934 -171.436178 
L 398.487273 -171.320851 
L 398.487273 -170.823149 
L 398.487273 -170.823149 
L 395.207934 -170.707822 
L 391.928595 -170.559632 
L 388.649256 -170.378748 
L 385.369917 -170.169451 
L 382.090579 -169.940418 
L 378.81124 -169.703918 
L 375.531901 -169.473735 
L 372.252562 -169.262006 
L 368.973223 -169.075531 
L 365.693884 -168.912484 
L 362.414545 -168.760558 
L 359.135207 -168.597423 
L 355.855868 -168.393921 
L 352.576529 -168.119774 
L 349.29719 -167.75088 
L 346.017851 -167.2767 
L 342.738512 -166.706012 
L 339.459174 -166.069415 
L 336.179835 -165.417577 
L 332.900496 -164.815045 
L 329.621157 -164.33053 
L 326.341818 -164.025426 
L 323.062479 -163.942912 
L 319.78314 -164.099917 
L 316.503802 -164.483603 
L 313.224463 -165.052961 
L 309.945124 -165.744862 
L 306.665785 -166.482912 
L 303.386446 -167.187025 
L 300.107107 -167.781736 
L 296.827769 -168.202037 
L 293.54843 -168.396399 
L 290.269091 -168.327521 
L 286.989752 -167.971797 
L 283.710413 -167.318467 
L 280.431074 -166.369014 
L 277.151736 -165.136745 
L 273.872397 -163.646005 
L 270.593058 -161.93026 
L 267.313719 -160.02859 
L 264.03438 -157.980722 
L 260.755041 -155.821557 
L 257.475702 -153.576747 
L 254.196364 -151.260982 
L 250.917025 -148.880059 
L 247.637686 -146.436578 
L 244.358347 -143.937557 
L 241.079008 -141.401041 
L 237.799669 -138.858417 
L 234.520331 -136.350017 
L 231.240992 -133.913655 
L 227.961653 -131.56837 
L 224.682314 -129.297963 
L 221.402975 -127.039926 
L 218.123636 -124.684552 
L 214.844298 -122.086432 
L 211.564959 -119.086933 
L 208.28562 -115.542935 
L 205.006281 -111.355139 
L 201.726942 -106.489465 
L 198.447603 -100.987287 
L 195.168264 -94.963546 
L 191.888926 -88.594862 
L 188.609587 -82.101426 
L 185.330248 -75.726359 
L 182.050909 -69.714747 
L 178.77157 -64.293011 
L 175.492231 -59.648675 
L 172.212893 -55.911617 
L 168.933554 -53.13986 
L 165.654215 -51.314579 
L 162.374876 -50.348862 
L 159.095537 -50.112 
L 155.816198 -50.466373 
L 152.53686 -51.308938 
L 149.257521 -52.60619 
L 145.978182 -54.411754 
L 142.698843 -56.859901 
L 139.419504 -60.134951 
L 136.140165 -64.423572 
L 132.860826 -69.861935 
L 129.581488 -76.491079 
L 126.302149 -84.231251 
L 123.02281 -92.880646 
L 119.743471 -102.137562 
L 116.464132 -111.639595 
L 113.184793 -121.010427 
L 109.905455 -129.904461 
L 106.626116 -138.041626 
L 103.346777 -145.228042 
L 100.067438 -151.361845 
L 96.788099 -156.426331 
L 93.50876 -160.47428 
L 90.229421 -163.60782 
L 86.950083 -165.957726 
L 83.670744 -167.665034 
L 80.391405 -168.866695 
L 77.112066 -169.685844 
L 73.832727 -170.226491 
z
" id="mdd0bf86cf3" style="stroke:#4c4c4c;stroke-opacity:0.5;stroke-width:1.5;"/>
    </defs>
    <g clip-path="url(#p351f724af5)">
     <use style="fill:#df9c20;fill-opacity:0.5;stroke:#4c4c4c;stroke-opacity:0.5;stroke-width:1.5;" x="0" xlink:href="#mdd0bf86cf3" y="345.6"/>
    </g>
   </g>
   <g id="PolyCollection_2">
    <defs>
     <path d="M 75.080961 -170.716393 
L 75.080961 -171.427607 
L 77.262136 -171.641676 
L 79.443311 -171.957415 
L 81.624486 -172.410677 
L 83.805661 -173.045995 
L 85.986836 -173.917687 
L 88.168011 -175.090307 
L 90.349187 -176.637585 
L 92.530362 -178.63892 
L 94.711537 -181.172824 
L 96.892712 -184.307556 
L 99.073887 -188.090292 
L 101.255062 -192.537221 
L 103.436237 -197.627282 
L 105.617412 -203.301694 
L 107.798587 -209.46985 
L 109.979762 -216.020217 
L 112.160937 -222.833216 
L 114.342113 -229.792482 
L 116.523288 -236.791697 
L 118.704463 -243.735964 
L 120.885638 -250.538801 
L 123.066813 -257.117189 
L 125.247988 -263.387273 
L 127.429163 -269.262266 
L 129.610338 -274.652685 
L 131.791513 -279.468002 
L 133.972688 -283.618878 
L 136.153864 -287.019919 
L 138.335039 -289.593824 
L 140.516214 -291.277799 
L 142.697389 -292.032 
L 144.878564 -291.848039 
L 147.059739 -290.754289 
L 149.240914 -288.814842 
L 151.422089 -286.120833 
L 153.603264 -282.775702 
L 155.784439 -278.878714 
L 157.965614 -274.512258 
L 160.14679 -269.737646 
L 162.327965 -264.601312 
L 164.50914 -259.149562 
L 166.690315 -253.446715 
L 168.87149 -247.589779 
L 171.052665 -241.713526 
L 173.23384 -235.982698 
L 175.415015 -230.572197 
L 177.59619 -225.640017 
L 179.777365 -221.300068 
L 181.958541 -217.602155 
L 184.139716 -214.524351 
L 186.320891 -211.979556 
L 188.502066 -209.834419 
L 190.683241 -207.935983 
L 192.864416 -206.139997 
L 195.045591 -204.335008 
L 197.226766 -202.457698 
L 199.407941 -200.497088 
L 201.589116 -198.487695 
L 203.770291 -196.493987 
L 205.951467 -194.590303 
L 208.132642 -192.841172 
L 210.313817 -191.286659 
L 212.494992 -189.935777 
L 214.676167 -188.768658 
L 216.857342 -187.745624 
L 219.038517 -186.819564 
L 221.219692 -185.9475 
L 223.400867 -185.098187 
L 225.582042 -184.254537 
L 227.763217 -183.411673 
L 229.944393 -182.572838 
L 232.125568 -181.745596 
L 234.306743 -180.939921 
L 236.487918 -180.168358 
L 238.669093 -179.447144 
L 240.850268 -178.796596 
L 243.031443 -178.239358 
L 245.212618 -177.796124 
L 247.393793 -177.47969 
L 249.574968 -177.28918 
L 251.756144 -177.206522 
L 253.937319 -177.19674 
L 256.118494 -177.212473 
L 258.299669 -177.201786 
L 260.480844 -177.117349 
L 262.662019 -176.924685 
L 264.843194 -176.607543 
L 267.024369 -176.169402 
L 269.205544 -175.631178 
L 271.386719 -175.026106 
L 273.567894 -174.393257 
L 275.74907 -173.771134 
L 277.930245 -173.19251 
L 280.11142 -172.681139 
L 282.292595 -172.250495 
L 284.47377 -171.904304 
L 286.654945 -171.638362 
L 288.83612 -171.443027 
L 291.017295 -171.305812 
L 291.017295 -170.838188 
L 291.017295 -170.838188 
L 288.83612 -170.700973 
L 286.654945 -170.505638 
L 284.47377 -170.239696 
L 282.292595 -169.893505 
L 280.11142 -169.462861 
L 277.930245 -168.95149 
L 275.74907 -168.372866 
L 273.567894 -167.750743 
L 271.386719 -167.117894 
L 269.205544 -166.512822 
L 267.024369 -165.974598 
L 264.843194 -165.536457 
L 262.662019 -165.219315 
L 260.480844 -165.026651 
L 258.299669 -164.942214 
L 256.118494 -164.931527 
L 253.937319 -164.94726 
L 251.756144 -164.937478 
L 249.574968 -164.85482 
L 247.393793 -164.66431 
L 245.212618 -164.347876 
L 243.031443 -163.904642 
L 240.850268 -163.347404 
L 238.669093 -162.696856 
L 236.487918 -161.975642 
L 234.306743 -161.204079 
L 232.125568 -160.398404 
L 229.944393 -159.571162 
L 227.763217 -158.732327 
L 225.582042 -157.889463 
L 223.400867 -157.045813 
L 221.219692 -156.1965 
L 219.038517 -155.324436 
L 216.857342 -154.398376 
L 214.676167 -153.375342 
L 212.494992 -152.208223 
L 210.313817 -150.857341 
L 208.132642 -149.302828 
L 205.951467 -147.553697 
L 203.770291 -145.650013 
L 201.589116 -143.656305 
L 199.407941 -141.646912 
L 197.226766 -139.686302 
L 195.045591 -137.808992 
L 192.864416 -136.004003 
L 190.683241 -134.208017 
L 188.502066 -132.309581 
L 186.320891 -130.164444 
L 184.139716 -127.619649 
L 181.958541 -124.541845 
L 179.777365 -120.843932 
L 177.59619 -116.503983 
L 175.415015 -111.571803 
L 173.23384 -106.161302 
L 171.052665 -100.430474 
L 168.87149 -94.554221 
L 166.690315 -88.697285 
L 164.50914 -82.994438 
L 162.327965 -77.542688 
L 160.14679 -72.406354 
L 157.965614 -67.631742 
L 155.784439 -63.265286 
L 153.603264 -59.368298 
L 151.422089 -56.023167 
L 149.240914 -53.329158 
L 147.059739 -51.389711 
L 144.878564 -50.295961 
L 142.697389 -50.112 
L 140.516214 -50.866201 
L 138.335039 -52.550176 
L 136.153864 -55.124081 
L 133.972688 -58.525122 
L 131.791513 -62.675998 
L 129.610338 -67.491315 
L 127.429163 -72.881734 
L 125.247988 -78.756727 
L 123.066813 -85.026811 
L 120.885638 -91.605199 
L 118.704463 -98.408036 
L 116.523288 -105.352303 
L 114.342113 -112.351518 
L 112.160937 -119.310784 
L 109.979762 -126.123783 
L 107.798587 -132.67415 
L 105.617412 -138.842306 
L 103.436237 -144.516718 
L 101.255062 -149.606779 
L 99.073887 -154.053708 
L 96.892712 -157.836444 
L 94.711537 -160.971176 
L 92.530362 -163.50508 
L 90.349187 -165.506415 
L 88.168011 -167.053693 
L 85.986836 -168.226313 
L 83.805661 -169.098005 
L 81.624486 -169.733323 
L 79.443311 -170.186585 
L 77.262136 -170.502324 
L 75.080961 -170.716393 
z
" id="mea5dee2c7b" style="stroke:#262626;stroke-opacity:0.5;stroke-width:1.5;"/>
    </defs>
    <g clip-path="url(#p351f724af5)">
     <use style="fill:#107010;fill-opacity:0.5;stroke:#262626;stroke-opacity:0.5;stroke-width:1.5;" x="0" xlink:href="#mea5dee2c7b" y="345.6"/>
    </g>
   </g>
   <g id="matplotlib.axis_1">
    <g id="xtick_1">
     <g id="line2d_1">
      <defs>
       <path d="M 0 0 
L 0 3.5 
" id="m1deb20bcc2" style="stroke:#000000;stroke-width:0.8;"/>
      </defs>
      <g>
       <use style="stroke:#000000;stroke-width:0.8;" x="95.462778" xlink:href="#m1deb20bcc2" y="307.584"/>
      </g>
     </g>
     <g id="text_1">
      <!-- 0.0 -->
      <defs>
       <path d="M 31.78125 66.40625 
Q 24.171875 66.40625 20.328125 58.90625 
Q 16.5 51.421875 16.5 36.375 
Q 16.5 21.390625 20.328125 13.890625 
Q 24.171875 6.390625 31.78125 6.390625 
Q 39.453125 6.390625 43.28125 13.890625 
Q 47.125 21.390625 47.125 36.375 
Q 47.125 51.421875 43.28125 58.90625 
Q 39.453125 66.40625 31.78125 66.40625 
z
M 31.78125 74.21875 
Q 44.046875 74.21875 50.515625 64.515625 
Q 56.984375 54.828125 56.984375 36.375 
Q 56.984375 17.96875 50.515625 8.265625 
Q 44.046875 -1.421875 31.78125 -1.421875 
Q 19.53125 -1.421875 13.0625 8.265625 
Q 6.59375 17.96875 6.59375 36.375 
Q 6.59375 54.828125 13.0625 64.515625 
Q 19.53125 74.21875 31.78125 74.21875 
z
" id="DejaVuSans-48"/>
       <path d="M 10.6875 12.40625 
L 21 12.40625 
L 21 0 
L 10.6875 0 
z
" id="DejaVuSans-46"/>
      </defs>
      <g transform="translate(87.511215 322.182437)scale(0.1 -0.1)">
       <use xlink:href="#DejaVuSans-48"/>
       <use x="63.623047" xlink:href="#DejaVuSans-46"/>
       <use x="95.410156" xlink:href="#DejaVuSans-48"/>
      </g>
     </g>
    </g>
    <g id="xtick_2">
     <g id="line2d_2">
      <g>
       <use style="stroke:#000000;stroke-width:0.8;" x="142.051262" xlink:href="#m1deb20bcc2" y="307.584"/>
      </g>
     </g>
     <g id="text_2">
      <!-- 2.5 -->
      <defs>
       <path d="M 19.1875 8.296875 
L 53.609375 8.296875 
L 53.609375 0 
L 7.328125 0 
L 7.328125 8.296875 
Q 12.9375 14.109375 22.625 23.890625 
Q 32.328125 33.6875 34.8125 36.53125 
Q 39.546875 41.84375 41.421875 45.53125 
Q 43.3125 49.21875 43.3125 52.78125 
Q 43.3125 58.59375 39.234375 62.25 
Q 35.15625 65.921875 28.609375 65.921875 
Q 23.96875 65.921875 18.8125 64.3125 
Q 13.671875 62.703125 7.8125 59.421875 
L 7.8125 69.390625 
Q 13.765625 71.78125 18.9375 73 
Q 24.125 74.21875 28.421875 74.21875 
Q 39.75 74.21875 46.484375 68.546875 
Q 53.21875 62.890625 53.21875 53.421875 
Q 53.21875 48.921875 51.53125 44.890625 
Q 49.859375 40.875 45.40625 35.40625 
Q 44.1875 33.984375 37.640625 27.21875 
Q 31.109375 20.453125 19.1875 8.296875 
z
" id="DejaVuSans-50"/>
       <path d="M 10.796875 72.90625 
L 49.515625 72.90625 
L 49.515625 64.59375 
L 19.828125 64.59375 
L 19.828125 46.734375 
Q 21.96875 47.46875 24.109375 47.828125 
Q 26.265625 48.1875 28.421875 48.1875 
Q 40.625 48.1875 47.75 41.5 
Q 54.890625 34.8125 54.890625 23.390625 
Q 54.890625 11.625 47.5625 5.09375 
Q 40.234375 -1.421875 26.90625 -1.421875 
Q 22.3125 -1.421875 17.546875 -0.640625 
Q 12.796875 0.140625 7.71875 1.703125 
L 7.71875 11.625 
Q 12.109375 9.234375 16.796875 8.0625 
Q 21.484375 6.890625 26.703125 6.890625 
Q 35.15625 6.890625 40.078125 11.328125 
Q 45.015625 15.765625 45.015625 23.390625 
Q 45.015625 31 40.078125 35.4375 
Q 35.15625 39.890625 26.703125 39.890625 
Q 22.75 39.890625 18.8125 39.015625 
Q 14.890625 38.140625 10.796875 36.28125 
z
" id="DejaVuSans-53"/>
      </defs>
      <g transform="translate(134.0997 322.182437)scale(0.1 -0.1)">
       <use xlink:href="#DejaVuSans-50"/>
       <use x="63.623047" xlink:href="#DejaVuSans-46"/>
       <use x="95.410156" xlink:href="#DejaVuSans-53"/>
      </g>
     </g>
    </g>
    <g id="xtick_3">
     <g id="line2d_3">
      <g>
       <use style="stroke:#000000;stroke-width:0.8;" x="188.639746" xlink:href="#m1deb20bcc2" y="307.584"/>
      </g>
     </g>
     <g id="text_3">
      <!-- 5.0 -->
      <g transform="translate(180.688184 322.182437)scale(0.1 -0.1)">
       <use xlink:href="#DejaVuSans-53"/>
       <use x="63.623047" xlink:href="#DejaVuSans-46"/>
       <use x="95.410156" xlink:href="#DejaVuSans-48"/>
      </g>
     </g>
    </g>
    <g id="xtick_4">
     <g id="line2d_4">
      <g>
       <use style="stroke:#000000;stroke-width:0.8;" x="235.22823" xlink:href="#m1deb20bcc2" y="307.584"/>
      </g>
     </g>
     <g id="text_4">
      <!-- 7.5 -->
      <defs>
       <path d="M 8.203125 72.90625 
L 55.078125 72.90625 
L 55.078125 68.703125 
L 28.609375 0 
L 18.3125 0 
L 43.21875 64.59375 
L 8.203125 64.59375 
z
" id="DejaVuSans-55"/>
      </defs>
      <g transform="translate(227.276668 322.182437)scale(0.1 -0.1)">
       <use xlink:href="#DejaVuSans-55"/>
       <use x="63.623047" xlink:href="#DejaVuSans-46"/>
       <use x="95.410156" xlink:href="#DejaVuSans-53"/>
      </g>
     </g>
    </g>
    <g id="xtick_5">
     <g id="line2d_5">
      <g>
       <use style="stroke:#000000;stroke-width:0.8;" x="281.816714" xlink:href="#m1deb20bcc2" y="307.584"/>
      </g>
     </g>
     <g id="text_5">
      <!-- 10.0 -->
      <defs>
       <path d="M 12.40625 8.296875 
L 28.515625 8.296875 
L 28.515625 63.921875 
L 10.984375 60.40625 
L 10.984375 69.390625 
L 28.421875 72.90625 
L 38.28125 72.90625 
L 38.28125 8.296875 
L 54.390625 8.296875 
L 54.390625 0 
L 12.40625 0 
z
" id="DejaVuSans-49"/>
      </defs>
      <g transform="translate(270.683902 322.182437)scale(0.1 -0.1)">
       <use xlink:href="#DejaVuSans-49"/>
       <use x="63.623047" xlink:href="#DejaVuSans-48"/>
       <use x="127.246094" xlink:href="#DejaVuSans-46"/>
       <use x="159.033203" xlink:href="#DejaVuSans-48"/>
      </g>
     </g>
    </g>
    <g id="xtick_6">
     <g id="line2d_6">
      <g>
       <use style="stroke:#000000;stroke-width:0.8;" x="328.405199" xlink:href="#m1deb20bcc2" y="307.584"/>
      </g>
     </g>
     <g id="text_6">
      <!-- 12.5 -->
      <g transform="translate(317.272386 322.182437)scale(0.1 -0.1)">
       <use xlink:href="#DejaVuSans-49"/>
       <use x="63.623047" xlink:href="#DejaVuSans-50"/>
       <use x="127.246094" xlink:href="#DejaVuSans-46"/>
       <use x="159.033203" xlink:href="#DejaVuSans-53"/>
      </g>
     </g>
    </g>
    <g id="xtick_7">
     <g id="line2d_7">
      <g>
       <use style="stroke:#000000;stroke-width:0.8;" x="374.993683" xlink:href="#m1deb20bcc2" y="307.584"/>
      </g>
     </g>
     <g id="text_7">
      <!-- 15.0 -->
      <g transform="translate(363.86087 322.182437)scale(0.1 -0.1)">
       <use xlink:href="#DejaVuSans-49"/>
       <use x="63.623047" xlink:href="#DejaVuSans-53"/>
       <use x="127.246094" xlink:href="#DejaVuSans-46"/>
       <use x="159.033203" xlink:href="#DejaVuSans-48"/>
      </g>
     </g>
    </g>
    <g id="text_8">
     <!-- neutnadirac -->
     <defs>
      <path d="M 54.890625 33.015625 
L 54.890625 0 
L 45.90625 0 
L 45.90625 32.71875 
Q 45.90625 40.484375 42.875 44.328125 
Q 39.84375 48.1875 33.796875 48.1875 
Q 26.515625 48.1875 22.3125 43.546875 
Q 18.109375 38.921875 18.109375 30.90625 
L 18.109375 0 
L 9.078125 0 
L 9.078125 54.6875 
L 18.109375 54.6875 
L 18.109375 46.1875 
Q 21.34375 51.125 25.703125 53.5625 
Q 30.078125 56 35.796875 56 
Q 45.21875 56 50.046875 50.171875 
Q 54.890625 44.34375 54.890625 33.015625 
z
" id="DejaVuSans-110"/>
      <path d="M 56.203125 29.59375 
L 56.203125 25.203125 
L 14.890625 25.203125 
Q 15.484375 15.921875 20.484375 11.0625 
Q 25.484375 6.203125 34.421875 6.203125 
Q 39.59375 6.203125 44.453125 7.46875 
Q 49.3125 8.734375 54.109375 11.28125 
L 54.109375 2.78125 
Q 49.265625 0.734375 44.1875 -0.34375 
Q 39.109375 -1.421875 33.890625 -1.421875 
Q 20.796875 -1.421875 13.15625 6.1875 
Q 5.515625 13.8125 5.515625 26.8125 
Q 5.515625 40.234375 12.765625 48.109375 
Q 20.015625 56 32.328125 56 
Q 43.359375 56 49.78125 48.890625 
Q 56.203125 41.796875 56.203125 29.59375 
z
M 47.21875 32.234375 
Q 47.125 39.59375 43.09375 43.984375 
Q 39.0625 48.390625 32.421875 48.390625 
Q 24.90625 48.390625 20.390625 44.140625 
Q 15.875 39.890625 15.1875 32.171875 
z
" id="DejaVuSans-101"/>
      <path d="M 8.5 21.578125 
L 8.5 54.6875 
L 17.484375 54.6875 
L 17.484375 21.921875 
Q 17.484375 14.15625 20.5 10.265625 
Q 23.53125 6.390625 29.59375 6.390625 
Q 36.859375 6.390625 41.078125 11.03125 
Q 45.3125 15.671875 45.3125 23.6875 
L 45.3125 54.6875 
L 54.296875 54.6875 
L 54.296875 0 
L 45.3125 0 
L 45.3125 8.40625 
Q 42.046875 3.421875 37.71875 1 
Q 33.40625 -1.421875 27.6875 -1.421875 
Q 18.265625 -1.421875 13.375 4.4375 
Q 8.5 10.296875 8.5 21.578125 
z
M 31.109375 56 
z
" id="DejaVuSans-117"/>
      <path d="M 18.3125 70.21875 
L 18.3125 54.6875 
L 36.8125 54.6875 
L 36.8125 47.703125 
L 18.3125 47.703125 
L 18.3125 18.015625 
Q 18.3125 11.328125 20.140625 9.421875 
Q 21.96875 7.515625 27.59375 7.515625 
L 36.8125 7.515625 
L 36.8125 0 
L 27.59375 0 
Q 17.1875 0 13.234375 3.875 
Q 9.28125 7.765625 9.28125 18.015625 
L 9.28125 47.703125 
L 2.6875 47.703125 
L 2.6875 54.6875 
L 9.28125 54.6875 
L 9.28125 70.21875 
z
" id="DejaVuSans-116"/>
      <path d="M 34.28125 27.484375 
Q 23.390625 27.484375 19.1875 25 
Q 14.984375 22.515625 14.984375 16.5 
Q 14.984375 11.71875 18.140625 8.90625 
Q 21.296875 6.109375 26.703125 6.109375 
Q 34.1875 6.109375 38.703125 11.40625 
Q 43.21875 16.703125 43.21875 25.484375 
L 43.21875 27.484375 
z
M 52.203125 31.203125 
L 52.203125 0 
L 43.21875 0 
L 43.21875 8.296875 
Q 40.140625 3.328125 35.546875 0.953125 
Q 30.953125 -1.421875 24.3125 -1.421875 
Q 15.921875 -1.421875 10.953125 3.296875 
Q 6 8.015625 6 15.921875 
Q 6 25.140625 12.171875 29.828125 
Q 18.359375 34.515625 30.609375 34.515625 
L 43.21875 34.515625 
L 43.21875 35.40625 
Q 43.21875 41.609375 39.140625 45 
Q 35.0625 48.390625 27.6875 48.390625 
Q 23 48.390625 18.546875 47.265625 
Q 14.109375 46.140625 10.015625 43.890625 
L 10.015625 52.203125 
Q 14.9375 54.109375 19.578125 55.046875 
Q 24.21875 56 28.609375 56 
Q 40.484375 56 46.34375 49.84375 
Q 52.203125 43.703125 52.203125 31.203125 
z
" id="DejaVuSans-97"/>
      <path d="M 45.40625 46.390625 
L 45.40625 75.984375 
L 54.390625 75.984375 
L 54.390625 0 
L 45.40625 0 
L 45.40625 8.203125 
Q 42.578125 3.328125 38.25 0.953125 
Q 33.9375 -1.421875 27.875 -1.421875 
Q 17.96875 -1.421875 11.734375 6.484375 
Q 5.515625 14.40625 5.515625 27.296875 
Q 5.515625 40.1875 11.734375 48.09375 
Q 17.96875 56 27.875 56 
Q 33.9375 56 38.25 53.625 
Q 42.578125 51.265625 45.40625 46.390625 
z
M 14.796875 27.296875 
Q 14.796875 17.390625 18.875 11.75 
Q 22.953125 6.109375 30.078125 6.109375 
Q 37.203125 6.109375 41.296875 11.75 
Q 45.40625 17.390625 45.40625 27.296875 
Q 45.40625 37.203125 41.296875 42.84375 
Q 37.203125 48.484375 30.078125 48.484375 
Q 22.953125 48.484375 18.875 42.84375 
Q 14.796875 37.203125 14.796875 27.296875 
z
" id="DejaVuSans-100"/>
      <path d="M 9.421875 54.6875 
L 18.40625 54.6875 
L 18.40625 0 
L 9.421875 0 
z
M 9.421875 75.984375 
L 18.40625 75.984375 
L 18.40625 64.59375 
L 9.421875 64.59375 
z
" id="DejaVuSans-105"/>
      <path d="M 41.109375 46.296875 
Q 39.59375 47.171875 37.8125 47.578125 
Q 36.03125 48 33.890625 48 
Q 26.265625 48 22.1875 43.046875 
Q 18.109375 38.09375 18.109375 28.8125 
L 18.109375 0 
L 9.078125 0 
L 9.078125 54.6875 
L 18.109375 54.6875 
L 18.109375 46.1875 
Q 20.953125 51.171875 25.484375 53.578125 
Q 30.03125 56 36.53125 56 
Q 37.453125 56 38.578125 55.875 
Q 39.703125 55.765625 41.0625 55.515625 
z
" id="DejaVuSans-114"/>
      <path d="M 48.78125 52.59375 
L 48.78125 44.1875 
Q 44.96875 46.296875 41.140625 47.34375 
Q 37.3125 48.390625 33.40625 48.390625 
Q 24.65625 48.390625 19.8125 42.84375 
Q 14.984375 37.3125 14.984375 27.296875 
Q 14.984375 17.28125 19.8125 11.734375 
Q 24.65625 6.203125 33.40625 6.203125 
Q 37.3125 6.203125 41.140625 7.25 
Q 44.96875 8.296875 48.78125 10.40625 
L 48.78125 2.09375 
Q 45.015625 0.34375 40.984375 -0.53125 
Q 36.96875 -1.421875 32.421875 -1.421875 
Q 20.0625 -1.421875 12.78125 6.34375 
Q 5.515625 14.109375 5.515625 27.296875 
Q 5.515625 40.671875 12.859375 48.328125 
Q 20.21875 56 33.015625 56 
Q 37.15625 56 41.109375 55.140625 
Q 45.0625 54.296875 48.78125 52.59375 
z
" id="DejaVuSans-99"/>
     </defs>
     <g transform="translate(206.120937 335.860562)scale(0.1 -0.1)">
      <use xlink:href="#DejaVuSans-110"/>
      <use x="63.378906" xlink:href="#DejaVuSans-101"/>
      <use x="124.902344" xlink:href="#DejaVuSans-117"/>
      <use x="188.28125" xlink:href="#DejaVuSans-116"/>
      <use x="227.490234" xlink:href="#DejaVuSans-110"/>
      <use x="290.869141" xlink:href="#DejaVuSans-97"/>
      <use x="352.148438" xlink:href="#DejaVuSans-100"/>
      <use x="415.625" xlink:href="#DejaVuSans-105"/>
      <use x="443.408203" xlink:href="#DejaVuSans-114"/>
      <use x="484.521484" xlink:href="#DejaVuSans-97"/>
      <use x="545.800781" xlink:href="#DejaVuSans-99"/>
     </g>
    </g>
   </g>
   <g id="matplotlib.axis_2">
    <g id="ytick_1">
     <g id="line2d_8">
      <defs>
       <path d="M 0 0 
L -3.5 0 
" id="m08cbc8db46" style="stroke:#000000;stroke-width:0.8;"/>
      </defs>
      <g>
       <use style="stroke:#000000;stroke-width:0.8;" x="57.6" xlink:href="#m08cbc8db46" y="174.528"/>
      </g>
     </g>
    </g>
   </g>
   <g id="line2d_9">
    <path clip-path="url(#p351f724af5)" d="M 106.644014 174.528 
L 266.9084 174.528 
" style="fill:none;stroke:#ffa500;stroke-linecap:square;stroke-width:1.5;"/>
   </g>
   <g id="line2d_10">
    <path clip-path="url(#p351f724af5)" d="M 140.187723 174.528 
L 192.366825 174.528 
" style="fill:none;stroke:#4c4c4c;stroke-linecap:square;stroke-width:4.5;"/>
   </g>
   <g id="line2d_11">
    <path clip-path="url(#p351f724af5)" d="M 95.462778 174.528 
L 220.319915 174.528 
" style="fill:none;stroke:#008000;stroke-linecap:square;stroke-width:1.5;"/>
   </g>
   <g id="line2d_12">
    <path clip-path="url(#p351f724af5)" d="M 132.733565 174.528 
L 168.140813 174.528 
" style="fill:none;stroke:#262626;stroke-linecap:square;stroke-width:4.5;"/>
   </g>
   <g id="patch_3">
    <path d="M 57.6 307.584 
L 57.6 41.472 
" style="fill:none;stroke:#000000;stroke-linecap:square;stroke-linejoin:miter;stroke-width:0.8;"/>
   </g>
   <g id="patch_4">
    <path d="M 414.72 307.584 
L 414.72 41.472 
" style="fill:none;stroke:#000000;stroke-linecap:square;stroke-linejoin:miter;stroke-width:0.8;"/>
   </g>
   <g id="patch_5">
    <path d="M 57.6 307.584 
L 414.72 307.584 
" style="fill:none;stroke:#000000;stroke-linecap:square;stroke-linejoin:miter;stroke-width:0.8;"/>
   </g>
   <g id="patch_6">
    <path d="M 57.6 41.472 
L 414.72 41.472 
" style="fill:none;stroke:#000000;stroke-linecap:square;stroke-linejoin:miter;stroke-width:0.8;"/>
   </g>
   <g id="PathCollection_1">
    <defs>
     <path d="M 0 1.5 
C 0.397805 1.5 0.77937 1.341951 1.06066 1.06066 
C 1.341951 0.77937 1.5 0.397805 1.5 0 
C 1.5 -0.397805 1.341951 -0.77937 1.06066 -1.06066 
C 0.77937 -1.341951 0.397805 -1.5 0 -1.5 
C -0.397805 -1.5 -0.77937 -1.341951 -1.06066 -1.06066 
C -1.341951 -0.77937 -1.5 -0.397805 -1.5 0 
C -1.5 0.397805 -1.341951 0.77937 -1.06066 1.06066 
C -0.77937 1.341951 -0.397805 1.5 0 1.5 
z
" id="mfbcebb7057" style="stroke:#4c4c4c;stroke-opacity:0.5;"/>
    </defs>
    <g clip-path="url(#p351f724af5)">
     <use style="fill:#ffffff;fill-opacity:0.5;stroke:#4c4c4c;stroke-opacity:0.5;" x="166.277274" xlink:href="#mfbcebb7057" y="174.528"/>
    </g>
   </g>
   <g id="PathCollection_2">
    <defs>
     <path d="M 0 1.5 
C 0.397805 1.5 0.77937 1.341951 1.06066 1.06066 
C 1.341951 0.77937 1.5 0.397805 1.5 0 
C 1.5 -0.397805 1.341951 -0.77937 1.06066 -1.06066 
C 0.77937 -1.341951 0.397805 -1.5 0 -1.5 
C -0.397805 -1.5 -0.77937 -1.341951 -1.06066 -1.06066 
C -1.341951 -0.77937 -1.5 -0.397805 -1.5 0 
C -1.5 0.397805 -1.341951 0.77937 -1.06066 1.06066 
C -0.77937 1.341951 -0.397805 1.5 0 1.5 
z
" id="m6a468b43ad" style="stroke:#262626;stroke-opacity:0.5;"/>
    </defs>
    <g clip-path="url(#p351f724af5)">
     <use style="fill:#ffffff;fill-opacity:0.5;stroke:#262626;stroke-opacity:0.5;" x="147.64188" xlink:href="#m6a468b43ad" y="174.528"/>
    </g>
   </g>
   <g id="text_9">
    <!-- Association of neutnadirac vs. sepsis -->
    <defs>
     <path d="M 34.1875 63.1875 
L 20.796875 26.90625 
L 47.609375 26.90625 
z
M 28.609375 72.90625 
L 39.796875 72.90625 
L 67.578125 0 
L 57.328125 0 
L 50.6875 18.703125 
L 17.828125 18.703125 
L 11.1875 0 
L 0.78125 0 
z
" id="DejaVuSans-65"/>
     <path d="M 44.28125 53.078125 
L 44.28125 44.578125 
Q 40.484375 46.53125 36.375 47.5 
Q 32.28125 48.484375 27.875 48.484375 
Q 21.1875 48.484375 17.84375 46.4375 
Q 14.5 44.390625 14.5 40.28125 
Q 14.5 37.15625 16.890625 35.375 
Q 19.28125 33.59375 26.515625 31.984375 
L 29.59375 31.296875 
Q 39.15625 29.25 43.1875 25.515625 
Q 47.21875 21.78125 47.21875 15.09375 
Q 47.21875 7.46875 41.1875 3.015625 
Q 35.15625 -1.421875 24.609375 -1.421875 
Q 20.21875 -1.421875 15.453125 -0.5625 
Q 10.6875 0.296875 5.421875 2 
L 5.421875 11.28125 
Q 10.40625 8.6875 15.234375 7.390625 
Q 20.0625 6.109375 24.8125 6.109375 
Q 31.15625 6.109375 34.5625 8.28125 
Q 37.984375 10.453125 37.984375 14.40625 
Q 37.984375 18.0625 35.515625 20.015625 
Q 33.0625 21.96875 24.703125 23.78125 
L 21.578125 24.515625 
Q 13.234375 26.265625 9.515625 29.90625 
Q 5.8125 33.546875 5.8125 39.890625 
Q 5.8125 47.609375 11.28125 51.796875 
Q 16.75 56 26.8125 56 
Q 31.78125 56 36.171875 55.265625 
Q 40.578125 54.546875 44.28125 53.078125 
z
" id="DejaVuSans-115"/>
     <path d="M 30.609375 48.390625 
Q 23.390625 48.390625 19.1875 42.75 
Q 14.984375 37.109375 14.984375 27.296875 
Q 14.984375 17.484375 19.15625 11.84375 
Q 23.34375 6.203125 30.609375 6.203125 
Q 37.796875 6.203125 41.984375 11.859375 
Q 46.1875 17.53125 46.1875 27.296875 
Q 46.1875 37.015625 41.984375 42.703125 
Q 37.796875 48.390625 30.609375 48.390625 
z
M 30.609375 56 
Q 42.328125 56 49.015625 48.375 
Q 55.71875 40.765625 55.71875 27.296875 
Q 55.71875 13.875 49.015625 6.21875 
Q 42.328125 -1.421875 30.609375 -1.421875 
Q 18.84375 -1.421875 12.171875 6.21875 
Q 5.515625 13.875 5.515625 27.296875 
Q 5.515625 40.765625 12.171875 48.375 
Q 18.84375 56 30.609375 56 
z
" id="DejaVuSans-111"/>
     <path id="DejaVuSans-32"/>
     <path d="M 37.109375 75.984375 
L 37.109375 68.5 
L 28.515625 68.5 
Q 23.6875 68.5 21.796875 66.546875 
Q 19.921875 64.59375 19.921875 59.515625 
L 19.921875 54.6875 
L 34.71875 54.6875 
L 34.71875 47.703125 
L 19.921875 47.703125 
L 19.921875 0 
L 10.890625 0 
L 10.890625 47.703125 
L 2.296875 47.703125 
L 2.296875 54.6875 
L 10.890625 54.6875 
L 10.890625 58.5 
Q 10.890625 67.625 15.140625 71.796875 
Q 19.390625 75.984375 28.609375 75.984375 
z
" id="DejaVuSans-102"/>
     <path d="M 2.984375 54.6875 
L 12.5 54.6875 
L 29.59375 8.796875 
L 46.6875 54.6875 
L 56.203125 54.6875 
L 35.6875 0 
L 23.484375 0 
z
" id="DejaVuSans-118"/>
     <path d="M 18.109375 8.203125 
L 18.109375 -20.796875 
L 9.078125 -20.796875 
L 9.078125 54.6875 
L 18.109375 54.6875 
L 18.109375 46.390625 
Q 20.953125 51.265625 25.265625 53.625 
Q 29.59375 56 35.59375 56 
Q 45.5625 56 51.78125 48.09375 
Q 58.015625 40.1875 58.015625 27.296875 
Q 58.015625 14.40625 51.78125 6.484375 
Q 45.5625 -1.421875 35.59375 -1.421875 
Q 29.59375 -1.421875 25.265625 0.953125 
Q 20.953125 3.328125 18.109375 8.203125 
z
M 48.6875 27.296875 
Q 48.6875 37.203125 44.609375 42.84375 
Q 40.53125 48.484375 33.40625 48.484375 
Q 26.265625 48.484375 22.1875 42.84375 
Q 18.109375 37.203125 18.109375 27.296875 
Q 18.109375 17.390625 22.1875 11.75 
Q 26.265625 6.109375 33.40625 6.109375 
Q 40.53125 6.109375 44.609375 11.75 
Q 48.6875 17.390625 48.6875 27.296875 
z
" id="DejaVuSans-112"/>
    </defs>
    <g transform="translate(125.41125 35.472)scale(0.12 -0.12)">
     <use xlink:href="#DejaVuSans-65"/>
     <use x="68.408203" xlink:href="#DejaVuSans-115"/>
     <use x="120.507812" xlink:href="#DejaVuSans-115"/>
     <use x="172.607422" xlink:href="#DejaVuSans-111"/>
     <use x="233.789062" xlink:href="#DejaVuSans-99"/>
     <use x="288.769531" xlink:href="#DejaVuSans-105"/>
     <use x="316.552734" xlink:href="#DejaVuSans-97"/>
     <use x="377.832031" xlink:href="#DejaVuSans-116"/>
     <use x="417.041016" xlink:href="#DejaVuSans-105"/>
     <use x="444.824219" xlink:href="#DejaVuSans-111"/>
     <use x="506.005859" xlink:href="#DejaVuSans-110"/>
     <use x="569.384766" xlink:href="#DejaVuSans-32"/>
     <use x="601.171875" xlink:href="#DejaVuSans-111"/>
     <use x="662.353516" xlink:href="#DejaVuSans-102"/>
     <use x="697.558594" xlink:href="#DejaVuSans-32"/>
     <use x="729.345703" xlink:href="#DejaVuSans-110"/>
     <use x="792.724609" xlink:href="#DejaVuSans-101"/>
     <use x="854.248047" xlink:href="#DejaVuSans-117"/>
     <use x="917.626953" xlink:href="#DejaVuSans-116"/>
     <use x="956.835938" xlink:href="#DejaVuSans-110"/>
     <use x="1020.214844" xlink:href="#DejaVuSans-97"/>
     <use x="1081.494141" xlink:href="#DejaVuSans-100"/>
     <use x="1144.970703" xlink:href="#DejaVuSans-105"/>
     <use x="1172.753906" xlink:href="#DejaVuSans-114"/>
     <use x="1213.867188" xlink:href="#DejaVuSans-97"/>
     <use x="1275.146484" xlink:href="#DejaVuSans-99"/>
     <use x="1330.126953" xlink:href="#DejaVuSans-32"/>
     <use x="1361.914062" xlink:href="#DejaVuSans-118"/>
     <use x="1421.09375" xlink:href="#DejaVuSans-115"/>
     <use x="1473.193359" xlink:href="#DejaVuSans-46"/>
     <use x="1504.980469" xlink:href="#DejaVuSans-32"/>
     <use x="1536.767578" xlink:href="#DejaVuSans-115"/>
     <use x="1588.867188" xlink:href="#DejaVuSans-101"/>
     <use x="1650.390625" xlink:href="#DejaVuSans-112"/>
     <use x="1713.867188" xlink:href="#DejaVuSans-115"/>
     <use x="1765.966797" xlink:href="#DejaVuSans-105"/>
     <use x="1793.75" xlink:href="#DejaVuSans-115"/>
    </g>
   </g>
   <g id="legend_1">
    <g id="patch_7">
     <path d="M 294.045 78.82825 
L 407.72 78.82825 
Q 409.72 78.82825 409.72 76.82825 
L 409.72 48.472 
Q 409.72 46.472 407.72 46.472 
L 294.045 46.472 
Q 292.045 46.472 292.045 48.472 
L 292.045 76.82825 
Q 292.045 78.82825 294.045 78.82825 
z
" style="fill:#ffffff;opacity:0.8;stroke:#cccccc;stroke-linejoin:miter;"/>
    </g>
    <g id="line2d_13">
     <path d="M 296.045 54.570437 
L 316.045 54.570437 
" style="fill:none;stroke:#ffa500;stroke-linecap:square;stroke-width:1.5;"/>
    </g>
    <g id="line2d_14"/>
    <g id="text_10">
     <!-- sepsis (162) -->
     <defs>
      <path d="M 31 75.875 
Q 24.46875 64.65625 21.28125 53.65625 
Q 18.109375 42.671875 18.109375 31.390625 
Q 18.109375 20.125 21.3125 9.0625 
Q 24.515625 -2 31 -13.1875 
L 23.1875 -13.1875 
Q 15.875 -1.703125 12.234375 9.375 
Q 8.59375 20.453125 8.59375 31.390625 
Q 8.59375 42.28125 12.203125 53.3125 
Q 15.828125 64.359375 23.1875 75.875 
z
" id="DejaVuSans-40"/>
      <path d="M 33.015625 40.375 
Q 26.375 40.375 22.484375 35.828125 
Q 18.609375 31.296875 18.609375 23.390625 
Q 18.609375 15.53125 22.484375 10.953125 
Q 26.375 6.390625 33.015625 6.390625 
Q 39.65625 6.390625 43.53125 10.953125 
Q 47.40625 15.53125 47.40625 23.390625 
Q 47.40625 31.296875 43.53125 35.828125 
Q 39.65625 40.375 33.015625 40.375 
z
M 52.59375 71.296875 
L 52.59375 62.3125 
Q 48.875 64.0625 45.09375 64.984375 
Q 41.3125 65.921875 37.59375 65.921875 
Q 27.828125 65.921875 22.671875 59.328125 
Q 17.53125 52.734375 16.796875 39.40625 
Q 19.671875 43.65625 24.015625 45.921875 
Q 28.375 48.1875 33.59375 48.1875 
Q 44.578125 48.1875 50.953125 41.515625 
Q 57.328125 34.859375 57.328125 23.390625 
Q 57.328125 12.15625 50.6875 5.359375 
Q 44.046875 -1.421875 33.015625 -1.421875 
Q 20.359375 -1.421875 13.671875 8.265625 
Q 6.984375 17.96875 6.984375 36.375 
Q 6.984375 53.65625 15.1875 63.9375 
Q 23.390625 74.21875 37.203125 74.21875 
Q 40.921875 74.21875 44.703125 73.484375 
Q 48.484375 72.75 52.59375 71.296875 
z
" id="DejaVuSans-54"/>
      <path d="M 8.015625 75.875 
L 15.828125 75.875 
Q 23.140625 64.359375 26.78125 53.3125 
Q 30.421875 42.28125 30.421875 31.390625 
Q 30.421875 20.453125 26.78125 9.375 
Q 23.140625 -1.703125 15.828125 -13.1875 
L 8.015625 -13.1875 
Q 14.5 -2 17.703125 9.0625 
Q 20.90625 20.125 20.90625 31.390625 
Q 20.90625 42.671875 17.703125 53.65625 
Q 14.5 64.65625 8.015625 75.875 
z
" id="DejaVuSans-41"/>
     </defs>
     <g transform="translate(324.045 58.070437)scale(0.1 -0.1)">
      <use xlink:href="#DejaVuSans-115"/>
      <use x="52.099609" xlink:href="#DejaVuSans-101"/>
      <use x="113.623047" xlink:href="#DejaVuSans-112"/>
      <use x="177.099609" xlink:href="#DejaVuSans-115"/>
      <use x="229.199219" xlink:href="#DejaVuSans-105"/>
      <use x="256.982422" xlink:href="#DejaVuSans-115"/>
      <use x="309.082031" xlink:href="#DejaVuSans-32"/>
      <use x="340.869141" xlink:href="#DejaVuSans-40"/>
      <use x="379.882812" xlink:href="#DejaVuSans-49"/>
      <use x="443.505859" xlink:href="#DejaVuSans-54"/>
      <use x="507.128906" xlink:href="#DejaVuSans-50"/>
      <use x="570.751953" xlink:href="#DejaVuSans-41"/>
     </g>
    </g>
    <g id="line2d_15">
     <path d="M 296.045 69.248562 
L 316.045 69.248562 
" style="fill:none;stroke:#008000;stroke-linecap:square;stroke-width:1.5;"/>
    </g>
    <g id="line2d_16"/>
    <g id="text_11">
     <!-- Not sepsis (327) -->
     <defs>
      <path d="M 9.8125 72.90625 
L 23.09375 72.90625 
L 55.421875 11.921875 
L 55.421875 72.90625 
L 64.984375 72.90625 
L 64.984375 0 
L 51.703125 0 
L 19.390625 60.984375 
L 19.390625 0 
L 9.8125 0 
z
" id="DejaVuSans-78"/>
      <path d="M 40.578125 39.3125 
Q 47.65625 37.796875 51.625 33 
Q 55.609375 28.21875 55.609375 21.1875 
Q 55.609375 10.40625 48.1875 4.484375 
Q 40.765625 -1.421875 27.09375 -1.421875 
Q 22.515625 -1.421875 17.65625 -0.515625 
Q 12.796875 0.390625 7.625 2.203125 
L 7.625 11.71875 
Q 11.71875 9.328125 16.59375 8.109375 
Q 21.484375 6.890625 26.8125 6.890625 
Q 36.078125 6.890625 40.9375 10.546875 
Q 45.796875 14.203125 45.796875 21.1875 
Q 45.796875 27.640625 41.28125 31.265625 
Q 36.765625 34.90625 28.71875 34.90625 
L 20.21875 34.90625 
L 20.21875 43.015625 
L 29.109375 43.015625 
Q 36.375 43.015625 40.234375 45.921875 
Q 44.09375 48.828125 44.09375 54.296875 
Q 44.09375 59.90625 40.109375 62.90625 
Q 36.140625 65.921875 28.71875 65.921875 
Q 24.65625 65.921875 20.015625 65.03125 
Q 15.375 64.15625 9.8125 62.3125 
L 9.8125 71.09375 
Q 15.4375 72.65625 20.34375 73.4375 
Q 25.25 74.21875 29.59375 74.21875 
Q 40.828125 74.21875 47.359375 69.109375 
Q 53.90625 64.015625 53.90625 55.328125 
Q 53.90625 49.265625 50.4375 45.09375 
Q 46.96875 40.921875 40.578125 39.3125 
z
" id="DejaVuSans-51"/>
     </defs>
     <g transform="translate(324.045 72.748562)scale(0.1 -0.1)">
      <use xlink:href="#DejaVuSans-78"/>
      <use x="74.804688" xlink:href="#DejaVuSans-111"/>
      <use x="135.986328" xlink:href="#DejaVuSans-116"/>
      <use x="175.195312" xlink:href="#DejaVuSans-32"/>
      <use x="206.982422" xlink:href="#DejaVuSans-115"/>
      <use x="259.082031" xlink:href="#DejaVuSans-101"/>
      <use x="320.605469" xlink:href="#DejaVuSans-112"/>
      <use x="384.082031" xlink:href="#DejaVuSans-115"/>
      <use x="436.181641" xlink:href="#DejaVuSans-105"/>
      <use x="463.964844" xlink:href="#DejaVuSans-115"/>
      <use x="516.064453" xlink:href="#DejaVuSans-32"/>
      <use x="547.851562" xlink:href="#DejaVuSans-40"/>
      <use x="586.865234" xlink:href="#DejaVuSans-51"/>
      <use x="650.488281" xlink:href="#DejaVuSans-50"/>
      <use x="714.111328" xlink:href="#DejaVuSans-55"/>
      <use x="777.734375" xlink:href="#DejaVuSans-41"/>
     </g>
    </g>
   </g>
  </g>
 </g>
 <defs>
  <clipPath id="p351f724af5">
   <rect height="266.112" width="357.12" x="57.6" y="41.472"/>
  </clipPath>
 </defs>
</svg>
