<?xml version="1.0" encoding="utf-8" standalone="no"?>
<!DOCTYPE svg PUBLIC "-//W3C//DTD SVG 1.1//EN"
  "http://www.w3.org/Graphics/SVG/1.1/DTD/svg11.dtd">
<!-- Created with matplotlib (https://matplotlib.org/) -->
<svg height="345.6pt" version="1.1" viewBox="0 0 460.8 345.6" width="460.8pt" xmlns="http://www.w3.org/2000/svg" xmlns:xlink="http://www.w3.org/1999/xlink">
 <defs>
  <style type="text/css">
*{stroke-linecap:butt;stroke-linejoin:round;}
  </style>
 </defs>
 <g id="figure_1">
  <g id="patch_1">
   <path d="M 0 345.6 
L 460.8 345.6 
L 460.8 0 
L 0 0 
z
" style="fill:#ffffff;"/>
  </g>
  <g id="axes_1">
   <g id="patch_2">
    <path d="M 57.6 307.584 
L 414.72 307.584 
L 414.72 41.472 
L 57.6 41.472 
z
" style="fill:#ffffff;"/>
   </g>
   <g id="PolyCollection_1">
    <defs>
     <path d="M 87.379799 -164.068423 
L 87.379799 -178.075577 
L 88.384654 -179.348296 
L 89.38951 -180.801971 
L 90.394366 -182.452281 
L 91.399222 -184.3144 
L 92.404078 -186.40259 
L 93.408933 -188.729758 
L 94.413789 -191.306976 
L 95.418645 -194.142973 
L 96.423501 -197.243625 
L 97.428357 -200.611439 
L 98.433212 -204.245058 
L 99.438068 -208.138805 
L 100.442924 -212.282279 
L 101.44778 -216.66002 
L 102.452636 -221.251279 
L 103.457491 -226.029882 
L 104.462347 -230.964228 
L 105.467203 -236.017422 
L 106.472059 -241.147559 
L 107.476915 -246.308151 
L 108.48177 -251.448716 
L 109.486626 -256.515507 
L 110.491482 -261.452387 
L 111.496338 -266.201817 
L 112.501193 -270.705951 
L 113.506049 -274.907807 
L 114.510905 -278.752475 
L 115.515761 -282.188352 
L 116.520617 -285.168339 
L 117.525472 -287.65099 
L 118.530328 -289.601558 
L 119.535184 -290.992921 
L 120.54004 -291.806332 
L 121.544896 -292.032 
L 122.549751 -291.669444 
L 123.554607 -290.727638 
L 124.559463 -289.224908 
L 125.564319 -287.188614 
L 126.569175 -284.654589 
L 127.57403 -281.666379 
L 128.578886 -278.274285 
L 129.583742 -274.534245 
L 130.588598 -270.506589 
L 131.593454 -266.254692 
L 132.598309 -261.843577 
L 133.603165 -257.338496 
L 134.608021 -252.803542 
L 135.612877 -248.300315 
L 136.617733 -243.886681 
L 137.622588 -239.615666 
L 138.627444 -235.53449 
L 139.6323 -231.683783 
L 140.637156 -228.096987 
L 141.642012 -224.799944 
L 142.646867 -221.8107 
L 143.651723 -219.139494 
L 144.656579 -216.788939 
L 145.661435 -214.754383 
L 146.666291 -213.02443 
L 147.671146 -211.5816 
L 148.676002 -210.403104 
L 149.680858 -209.461722 
L 150.685714 -208.726737 
L 151.69057 -208.164915 
L 152.695425 -207.741496 
L 153.700281 -207.421174 
L 154.705137 -207.169032 
L 155.709993 -206.951424 
L 156.714849 -206.736769 
L 157.719704 -206.496247 
L 158.72456 -206.204379 
L 159.729416 -205.839484 
L 160.734272 -205.384001 
L 161.739127 -204.82468 
L 162.743983 -204.152638 
L 163.748839 -203.363289 
L 164.753695 -202.456152 
L 165.758551 -201.434564 
L 166.763406 -200.305291 
L 167.768262 -199.078075 
L 168.773118 -197.765124 
L 169.777974 -196.380576 
L 170.78283 -194.939936 
L 171.787685 -193.459533 
L 172.792541 -191.955992 
L 173.797397 -190.445742 
L 174.802253 -188.944582 
L 175.807109 -187.467304 
L 176.811964 -186.027379 
L 177.81682 -184.636722 
L 178.821676 -183.305522 
L 179.826532 -182.042147 
L 180.831388 -180.853109 
L 181.836243 -179.743096 
L 182.841099 -178.715046 
L 183.845955 -177.770266 
L 184.850811 -176.908593 
L 185.855667 -176.128564 
L 186.860522 -175.42761 
L 186.860522 -166.71639 
L 186.860522 -166.71639 
L 185.855667 -166.015436 
L 184.850811 -165.235407 
L 183.845955 -164.373734 
L 182.841099 -163.428954 
L 181.836243 -162.400904 
L 180.831388 -161.290891 
L 179.826532 -160.101853 
L 178.821676 -158.838478 
L 177.81682 -157.507278 
L 176.811964 -156.116621 
L 175.807109 -154.676696 
L 174.802253 -153.199418 
L 173.797397 -151.698258 
L 172.792541 -150.188008 
L 171.787685 -148.684467 
L 170.78283 -147.204064 
L 169.777974 -145.763424 
L 168.773118 -144.378876 
L 167.768262 -143.065925 
L 166.763406 -141.838709 
L 165.758551 -140.709436 
L 164.753695 -139.687848 
L 163.748839 -138.780711 
L 162.743983 -137.991362 
L 161.739127 -137.31932 
L 160.734272 -136.759999 
L 159.729416 -136.304516 
L 158.72456 -135.939621 
L 157.719704 -135.647753 
L 156.714849 -135.407231 
L 155.709993 -135.192576 
L 154.705137 -134.974968 
L 153.700281 -134.722826 
L 152.695425 -134.402504 
L 151.69057 -133.979085 
L 150.685714 -133.417263 
L 149.680858 -132.682278 
L 148.676002 -131.740896 
L 147.671146 -130.5624 
L 146.666291 -129.11957 
L 145.661435 -127.389617 
L 144.656579 -125.355061 
L 143.651723 -123.004506 
L 142.646867 -120.3333 
L 141.642012 -117.344056 
L 140.637156 -114.047013 
L 139.6323 -110.460217 
L 138.627444 -106.60951 
L 137.622588 -102.528334 
L 136.617733 -98.257319 
L 135.612877 -93.843685 
L 134.608021 -89.340458 
L 133.603165 -84.805504 
L 132.598309 -80.300423 
L 131.593454 -75.889308 
L 130.588598 -71.637411 
L 129.583742 -67.609755 
L 128.578886 -63.869715 
L 127.57403 -60.477621 
L 126.569175 -57.489411 
L 125.564319 -54.955386 
L 124.559463 -52.919092 
L 123.554607 -51.416362 
L 122.549751 -50.474556 
L 121.544896 -50.112 
L 120.54004 -50.337668 
L 119.535184 -51.151079 
L 118.530328 -52.542442 
L 117.525472 -54.49301 
L 116.520617 -56.975661 
L 115.515761 -59.955648 
L 114.510905 -63.391525 
L 113.506049 -67.236193 
L 112.501193 -71.438049 
L 111.496338 -75.942183 
L 110.491482 -80.691613 
L 109.486626 -85.628493 
L 108.48177 -90.695284 
L 107.476915 -95.835849 
L 106.472059 -100.996441 
L 105.467203 -106.126578 
L 104.462347 -111.179772 
L 103.457491 -116.114118 
L 102.452636 -120.892721 
L 101.44778 -125.48398 
L 100.442924 -129.861721 
L 99.438068 -134.005195 
L 98.433212 -137.898942 
L 97.428357 -141.532561 
L 96.423501 -144.900375 
L 95.418645 -148.001027 
L 94.413789 -150.837024 
L 93.408933 -153.414242 
L 92.404078 -155.74141 
L 91.399222 -157.8296 
L 90.394366 -159.691719 
L 89.38951 -161.342029 
L 88.384654 -162.795704 
L 87.379799 -164.068423 
z
" id="m829264a8ae" style="stroke:#4c4c4c;stroke-opacity:0.5;stroke-width:1.5;"/>
    </defs>
    <g clip-path="url(#p0fee456c31)">
     <use style="fill:#df9c20;fill-opacity:0.5;stroke:#4c4c4c;stroke-opacity:0.5;stroke-width:1.5;" x="0" xlink:href="#m829264a8ae" y="345.6"/>
    </g>
   </g>
   <g id="PolyCollection_2">
    <defs>
     <path d="M 73.832727 -170.742715 
L 73.832727 -171.401285 
L 77.112066 -171.86872 
L 80.391405 -172.814714 
L 83.670744 -174.557206 
L 86.950083 -177.50839 
L 90.229421 -182.129395 
L 93.50876 -188.819717 
L 96.788099 -197.745939 
L 100.067438 -208.680708 
L 103.346777 -220.968036 
L 106.626116 -233.681699 
L 109.905455 -245.914773 
L 113.184793 -257.042995 
L 116.464132 -266.823863 
L 119.743471 -275.284904 
L 123.02281 -282.449375 
L 126.302149 -288.050991 
L 129.581488 -291.470617 
L 132.860826 -292.032 
L 136.140165 -289.480471 
L 139.419504 -284.233812 
L 142.698843 -277.159713 
L 145.978182 -269.071569 
L 149.257521 -260.378879 
L 152.53686 -251.147117 
L 155.816198 -241.445634 
L 159.095537 -231.654541 
L 162.374876 -222.483981 
L 165.654215 -214.697145 
L 168.933554 -208.734725 
L 172.212893 -204.4994 
L 175.492231 -201.446429 
L 178.77157 -198.91001 
L 182.050909 -196.434007 
L 185.330248 -193.901469 
L 188.609587 -191.432816 
L 191.888926 -189.178392 
L 195.168264 -187.158635 
L 198.447603 -185.240423 
L 201.726942 -183.248623 
L 205.006281 -181.123065 
L 208.28562 -178.990613 
L 211.564959 -177.090409 
L 214.844298 -175.621487 
L 218.123636 -174.638993 
L 221.402975 -174.057689 
L 224.682314 -173.723396 
L 227.961653 -173.48436 
L 231.240992 -173.230871 
L 234.520331 -172.909423 
L 237.799669 -172.523418 
L 241.079008 -172.12153 
L 244.358347 -171.773245 
L 247.637686 -171.541004 
L 250.917025 -171.462088 
L 254.196364 -171.542507 
L 257.475702 -171.75432 
L 260.755041 -172.032924 
L 264.03438 -172.284751 
L 267.313719 -172.416133 
L 270.593058 -172.374437 
L 273.872397 -172.173927 
L 277.151736 -171.885133 
L 280.431074 -171.594589 
L 283.710413 -171.363998 
L 286.989752 -171.213571 
L 290.269091 -171.131441 
L 293.54843 -171.093573 
L 296.827769 -171.078757 
L 300.107107 -171.073824 
L 303.386446 -171.072424 
L 306.665785 -171.072085 
L 309.945124 -171.072015 
L 313.224463 -171.072002 
L 316.503802 -171.072 
L 319.78314 -171.072 
L 323.062479 -171.072 
L 326.341818 -171.072 
L 329.621157 -171.072 
L 332.900496 -171.072 
L 336.179835 -171.072 
L 339.459174 -171.072002 
L 342.738512 -171.072012 
L 346.017851 -171.072072 
L 349.29719 -171.07236 
L 352.576529 -171.073544 
L 355.855868 -171.077669 
L 359.135207 -171.089834 
L 362.414545 -171.120069 
L 365.693884 -171.183005 
L 368.973223 -171.291623 
L 372.252562 -171.44428 
L 375.531901 -171.612652 
L 378.81124 -171.744702 
L 382.090579 -171.789108 
L 385.369917 -171.726942 
L 388.649256 -171.584482 
L 391.928595 -171.415567 
L 395.207934 -171.269333 
L 398.487273 -171.169106 
L 398.487273 -170.974894 
L 398.487273 -170.974894 
L 395.207934 -170.874667 
L 391.928595 -170.728433 
L 388.649256 -170.559518 
L 385.369917 -170.417058 
L 382.090579 -170.354892 
L 378.81124 -170.399298 
L 375.531901 -170.531348 
L 372.252562 -170.69972 
L 368.973223 -170.852377 
L 365.693884 -170.960995 
L 362.414545 -171.023931 
L 359.135207 -171.054166 
L 355.855868 -171.066331 
L 352.576529 -171.070456 
L 349.29719 -171.07164 
L 346.017851 -171.071928 
L 342.738512 -171.071988 
L 339.459174 -171.071998 
L 336.179835 -171.072 
L 332.900496 -171.072 
L 329.621157 -171.072 
L 326.341818 -171.072 
L 323.062479 -171.072 
L 319.78314 -171.072 
L 316.503802 -171.072 
L 313.224463 -171.071998 
L 309.945124 -171.071985 
L 306.665785 -171.071915 
L 303.386446 -171.071576 
L 300.107107 -171.070176 
L 296.827769 -171.065243 
L 293.54843 -171.050427 
L 290.269091 -171.012559 
L 286.989752 -170.930429 
L 283.710413 -170.780002 
L 280.431074 -170.549411 
L 277.151736 -170.258867 
L 273.872397 -169.970073 
L 270.593058 -169.769563 
L 267.313719 -169.727867 
L 264.03438 -169.859249 
L 260.755041 -170.111076 
L 257.475702 -170.38968 
L 254.196364 -170.601493 
L 250.917025 -170.681912 
L 247.637686 -170.602996 
L 244.358347 -170.370755 
L 241.079008 -170.02247 
L 237.799669 -169.620582 
L 234.520331 -169.234577 
L 231.240992 -168.913129 
L 227.961653 -168.65964 
L 224.682314 -168.420604 
L 221.402975 -168.086311 
L 218.123636 -167.505007 
L 214.844298 -166.522513 
L 211.564959 -165.053591 
L 208.28562 -163.153387 
L 205.006281 -161.020935 
L 201.726942 -158.895377 
L 198.447603 -156.903577 
L 195.168264 -154.985365 
L 191.888926 -152.965608 
L 188.609587 -150.711184 
L 185.330248 -148.242531 
L 182.050909 -145.709993 
L 178.77157 -143.23399 
L 175.492231 -140.697571 
L 172.212893 -137.6446 
L 168.933554 -133.409275 
L 165.654215 -127.446855 
L 162.374876 -119.660019 
L 159.095537 -110.489459 
L 155.816198 -100.698366 
L 152.53686 -90.996883 
L 149.257521 -81.765121 
L 145.978182 -73.072431 
L 142.698843 -64.984287 
L 139.419504 -57.910188 
L 136.140165 -52.663529 
L 132.860826 -50.112 
L 129.581488 -50.673383 
L 126.302149 -54.093009 
L 123.02281 -59.694625 
L 119.743471 -66.859096 
L 116.464132 -75.320137 
L 113.184793 -85.101005 
L 109.905455 -96.229227 
L 106.626116 -108.462301 
L 103.346777 -121.175964 
L 100.067438 -133.463292 
L 96.788099 -144.398061 
L 93.50876 -153.324283 
L 90.229421 -160.014605 
L 86.950083 -164.63561 
L 83.670744 -167.586794 
L 80.391405 -169.329286 
L 77.112066 -170.27528 
L 73.832727 -170.742715 
z
" id="mc805feeb9e" style="stroke:#262626;stroke-opacity:0.5;stroke-width:1.5;"/>
    </defs>
    <g clip-path="url(#p0fee456c31)">
     <use style="fill:#107010;fill-opacity:0.5;stroke:#262626;stroke-opacity:0.5;stroke-width:1.5;" x="0" xlink:href="#mc805feeb9e" y="345.6"/>
    </g>
   </g>
   <g id="matplotlib.axis_1">
    <g id="xtick_1">
     <g id="line2d_1">
      <defs>
       <path d="M 0 0 
L 0 3.5 
" id="m6d274886bd" style="stroke:#000000;stroke-width:0.8;"/>
      </defs>
      <g>
       <use style="stroke:#000000;stroke-width:0.8;" x="90.513177" xlink:href="#m6d274886bd" y="307.584"/>
      </g>
     </g>
     <g id="text_1">
      <!-- 0 -->
      <defs>
       <path d="M 31.78125 66.40625 
Q 24.171875 66.40625 20.328125 58.90625 
Q 16.5 51.421875 16.5 36.375 
Q 16.5 21.390625 20.328125 13.890625 
Q 24.171875 6.390625 31.78125 6.390625 
Q 39.453125 6.390625 43.28125 13.890625 
Q 47.125 21.390625 47.125 36.375 
Q 47.125 51.421875 43.28125 58.90625 
Q 39.453125 66.40625 31.78125 66.40625 
z
M 31.78125 74.21875 
Q 44.046875 74.21875 50.515625 64.515625 
Q 56.984375 54.828125 56.984375 36.375 
Q 56.984375 17.96875 50.515625 8.265625 
Q 44.046875 -1.421875 31.78125 -1.421875 
Q 19.53125 -1.421875 13.0625 8.265625 
Q 6.59375 17.96875 6.59375 36.375 
Q 6.59375 54.828125 13.0625 64.515625 
Q 19.53125 74.21875 31.78125 74.21875 
z
" id="DejaVuSans-48"/>
      </defs>
      <g transform="translate(87.331927 322.182437)scale(0.1 -0.1)">
       <use xlink:href="#DejaVuSans-48"/>
      </g>
     </g>
    </g>
    <g id="xtick_2">
     <g id="line2d_2">
      <g>
       <use style="stroke:#000000;stroke-width:0.8;" x="148.771906" xlink:href="#m6d274886bd" y="307.584"/>
      </g>
     </g>
     <g id="text_2">
      <!-- 1 -->
      <defs>
       <path d="M 12.40625 8.296875 
L 28.515625 8.296875 
L 28.515625 63.921875 
L 10.984375 60.40625 
L 10.984375 69.390625 
L 28.421875 72.90625 
L 38.28125 72.90625 
L 38.28125 8.296875 
L 54.390625 8.296875 
L 54.390625 0 
L 12.40625 0 
z
" id="DejaVuSans-49"/>
      </defs>
      <g transform="translate(145.590656 322.182437)scale(0.1 -0.1)">
       <use xlink:href="#DejaVuSans-49"/>
      </g>
     </g>
    </g>
    <g id="xtick_3">
     <g id="line2d_3">
      <g>
       <use style="stroke:#000000;stroke-width:0.8;" x="207.030635" xlink:href="#m6d274886bd" y="307.584"/>
      </g>
     </g>
     <g id="text_3">
      <!-- 2 -->
      <defs>
       <path d="M 19.1875 8.296875 
L 53.609375 8.296875 
L 53.609375 0 
L 7.328125 0 
L 7.328125 8.296875 
Q 12.9375 14.109375 22.625 23.890625 
Q 32.328125 33.6875 34.8125 36.53125 
Q 39.546875 41.84375 41.421875 45.53125 
Q 43.3125 49.21875 43.3125 52.78125 
Q 43.3125 58.59375 39.234375 62.25 
Q 35.15625 65.921875 28.609375 65.921875 
Q 23.96875 65.921875 18.8125 64.3125 
Q 13.671875 62.703125 7.8125 59.421875 
L 7.8125 69.390625 
Q 13.765625 71.78125 18.9375 73 
Q 24.125 74.21875 28.421875 74.21875 
Q 39.75 74.21875 46.484375 68.546875 
Q 53.21875 62.890625 53.21875 53.421875 
Q 53.21875 48.921875 51.53125 44.890625 
Q 49.859375 40.875 45.40625 35.40625 
Q 44.1875 33.984375 37.640625 27.21875 
Q 31.109375 20.453125 19.1875 8.296875 
z
" id="DejaVuSans-50"/>
      </defs>
      <g transform="translate(203.849385 322.182437)scale(0.1 -0.1)">
       <use xlink:href="#DejaVuSans-50"/>
      </g>
     </g>
    </g>
    <g id="xtick_4">
     <g id="line2d_4">
      <g>
       <use style="stroke:#000000;stroke-width:0.8;" x="265.289365" xlink:href="#m6d274886bd" y="307.584"/>
      </g>
     </g>
     <g id="text_4">
      <!-- 3 -->
      <defs>
       <path d="M 40.578125 39.3125 
Q 47.65625 37.796875 51.625 33 
Q 55.609375 28.21875 55.609375 21.1875 
Q 55.609375 10.40625 48.1875 4.484375 
Q 40.765625 -1.421875 27.09375 -1.421875 
Q 22.515625 -1.421875 17.65625 -0.515625 
Q 12.796875 0.390625 7.625 2.203125 
L 7.625 11.71875 
Q 11.71875 9.328125 16.59375 8.109375 
Q 21.484375 6.890625 26.8125 6.890625 
Q 36.078125 6.890625 40.9375 10.546875 
Q 45.796875 14.203125 45.796875 21.1875 
Q 45.796875 27.640625 41.28125 31.265625 
Q 36.765625 34.90625 28.71875 34.90625 
L 20.21875 34.90625 
L 20.21875 43.015625 
L 29.109375 43.015625 
Q 36.375 43.015625 40.234375 45.921875 
Q 44.09375 48.828125 44.09375 54.296875 
Q 44.09375 59.90625 40.109375 62.90625 
Q 36.140625 65.921875 28.71875 65.921875 
Q 24.65625 65.921875 20.015625 65.03125 
Q 15.375 64.15625 9.8125 62.3125 
L 9.8125 71.09375 
Q 15.4375 72.65625 20.34375 73.4375 
Q 25.25 74.21875 29.59375 74.21875 
Q 40.828125 74.21875 47.359375 69.109375 
Q 53.90625 64.015625 53.90625 55.328125 
Q 53.90625 49.265625 50.4375 45.09375 
Q 46.96875 40.921875 40.578125 39.3125 
z
" id="DejaVuSans-51"/>
      </defs>
      <g transform="translate(262.108115 322.182437)scale(0.1 -0.1)">
       <use xlink:href="#DejaVuSans-51"/>
      </g>
     </g>
    </g>
    <g id="xtick_5">
     <g id="line2d_5">
      <g>
       <use style="stroke:#000000;stroke-width:0.8;" x="323.548094" xlink:href="#m6d274886bd" y="307.584"/>
      </g>
     </g>
     <g id="text_5">
      <!-- 4 -->
      <defs>
       <path d="M 37.796875 64.3125 
L 12.890625 25.390625 
L 37.796875 25.390625 
z
M 35.203125 72.90625 
L 47.609375 72.90625 
L 47.609375 25.390625 
L 58.015625 25.390625 
L 58.015625 17.1875 
L 47.609375 17.1875 
L 47.609375 0 
L 37.796875 0 
L 37.796875 17.1875 
L 4.890625 17.1875 
L 4.890625 26.703125 
z
" id="DejaVuSans-52"/>
      </defs>
      <g transform="translate(320.366844 322.182437)scale(0.1 -0.1)">
       <use xlink:href="#DejaVuSans-52"/>
      </g>
     </g>
    </g>
    <g id="xtick_6">
     <g id="line2d_6">
      <g>
       <use style="stroke:#000000;stroke-width:0.8;" x="381.806823" xlink:href="#m6d274886bd" y="307.584"/>
      </g>
     </g>
     <g id="text_6">
      <!-- 5 -->
      <defs>
       <path d="M 10.796875 72.90625 
L 49.515625 72.90625 
L 49.515625 64.59375 
L 19.828125 64.59375 
L 19.828125 46.734375 
Q 21.96875 47.46875 24.109375 47.828125 
Q 26.265625 48.1875 28.421875 48.1875 
Q 40.625 48.1875 47.75 41.5 
Q 54.890625 34.8125 54.890625 23.390625 
Q 54.890625 11.625 47.5625 5.09375 
Q 40.234375 -1.421875 26.90625 -1.421875 
Q 22.3125 -1.421875 17.546875 -0.640625 
Q 12.796875 0.140625 7.71875 1.703125 
L 7.71875 11.625 
Q 12.109375 9.234375 16.796875 8.0625 
Q 21.484375 6.890625 26.703125 6.890625 
Q 35.15625 6.890625 40.078125 11.328125 
Q 45.015625 15.765625 45.015625 23.390625 
Q 45.015625 31 40.078125 35.4375 
Q 35.15625 39.890625 26.703125 39.890625 
Q 22.75 39.890625 18.8125 39.015625 
Q 14.890625 38.140625 10.796875 36.28125 
z
" id="DejaVuSans-53"/>
      </defs>
      <g transform="translate(378.625573 322.182437)scale(0.1 -0.1)">
       <use xlink:href="#DejaVuSans-53"/>
      </g>
     </g>
    </g>
    <g id="text_7">
     <!-- lymphnadirac -->
     <defs>
      <path d="M 9.421875 75.984375 
L 18.40625 75.984375 
L 18.40625 0 
L 9.421875 0 
z
" id="DejaVuSans-108"/>
      <path d="M 32.171875 -5.078125 
Q 28.375 -14.84375 24.75 -17.8125 
Q 21.140625 -20.796875 15.09375 -20.796875 
L 7.90625 -20.796875 
L 7.90625 -13.28125 
L 13.1875 -13.28125 
Q 16.890625 -13.28125 18.9375 -11.515625 
Q 21 -9.765625 23.484375 -3.21875 
L 25.09375 0.875 
L 2.984375 54.6875 
L 12.5 54.6875 
L 29.59375 11.921875 
L 46.6875 54.6875 
L 56.203125 54.6875 
z
" id="DejaVuSans-121"/>
      <path d="M 52 44.1875 
Q 55.375 50.25 60.0625 53.125 
Q 64.75 56 71.09375 56 
Q 79.640625 56 84.28125 50.015625 
Q 88.921875 44.046875 88.921875 33.015625 
L 88.921875 0 
L 79.890625 0 
L 79.890625 32.71875 
Q 79.890625 40.578125 77.09375 44.375 
Q 74.3125 48.1875 68.609375 48.1875 
Q 61.625 48.1875 57.5625 43.546875 
Q 53.515625 38.921875 53.515625 30.90625 
L 53.515625 0 
L 44.484375 0 
L 44.484375 32.71875 
Q 44.484375 40.625 41.703125 44.40625 
Q 38.921875 48.1875 33.109375 48.1875 
Q 26.21875 48.1875 22.15625 43.53125 
Q 18.109375 38.875 18.109375 30.90625 
L 18.109375 0 
L 9.078125 0 
L 9.078125 54.6875 
L 18.109375 54.6875 
L 18.109375 46.1875 
Q 21.1875 51.21875 25.484375 53.609375 
Q 29.78125 56 35.6875 56 
Q 41.65625 56 45.828125 52.96875 
Q 50 49.953125 52 44.1875 
z
" id="DejaVuSans-109"/>
      <path d="M 18.109375 8.203125 
L 18.109375 -20.796875 
L 9.078125 -20.796875 
L 9.078125 54.6875 
L 18.109375 54.6875 
L 18.109375 46.390625 
Q 20.953125 51.265625 25.265625 53.625 
Q 29.59375 56 35.59375 56 
Q 45.5625 56 51.78125 48.09375 
Q 58.015625 40.1875 58.015625 27.296875 
Q 58.015625 14.40625 51.78125 6.484375 
Q 45.5625 -1.421875 35.59375 -1.421875 
Q 29.59375 -1.421875 25.265625 0.953125 
Q 20.953125 3.328125 18.109375 8.203125 
z
M 48.6875 27.296875 
Q 48.6875 37.203125 44.609375 42.84375 
Q 40.53125 48.484375 33.40625 48.484375 
Q 26.265625 48.484375 22.1875 42.84375 
Q 18.109375 37.203125 18.109375 27.296875 
Q 18.109375 17.390625 22.1875 11.75 
Q 26.265625 6.109375 33.40625 6.109375 
Q 40.53125 6.109375 44.609375 11.75 
Q 48.6875 17.390625 48.6875 27.296875 
z
" id="DejaVuSans-112"/>
      <path d="M 54.890625 33.015625 
L 54.890625 0 
L 45.90625 0 
L 45.90625 32.71875 
Q 45.90625 40.484375 42.875 44.328125 
Q 39.84375 48.1875 33.796875 48.1875 
Q 26.515625 48.1875 22.3125 43.546875 
Q 18.109375 38.921875 18.109375 30.90625 
L 18.109375 0 
L 9.078125 0 
L 9.078125 75.984375 
L 18.109375 75.984375 
L 18.109375 46.1875 
Q 21.34375 51.125 25.703125 53.5625 
Q 30.078125 56 35.796875 56 
Q 45.21875 56 50.046875 50.171875 
Q 54.890625 44.34375 54.890625 33.015625 
z
" id="DejaVuSans-104"/>
      <path d="M 54.890625 33.015625 
L 54.890625 0 
L 45.90625 0 
L 45.90625 32.71875 
Q 45.90625 40.484375 42.875 44.328125 
Q 39.84375 48.1875 33.796875 48.1875 
Q 26.515625 48.1875 22.3125 43.546875 
Q 18.109375 38.921875 18.109375 30.90625 
L 18.109375 0 
L 9.078125 0 
L 9.078125 54.6875 
L 18.109375 54.6875 
L 18.109375 46.1875 
Q 21.34375 51.125 25.703125 53.5625 
Q 30.078125 56 35.796875 56 
Q 45.21875 56 50.046875 50.171875 
Q 54.890625 44.34375 54.890625 33.015625 
z
" id="DejaVuSans-110"/>
      <path d="M 34.28125 27.484375 
Q 23.390625 27.484375 19.1875 25 
Q 14.984375 22.515625 14.984375 16.5 
Q 14.984375 11.71875 18.140625 8.90625 
Q 21.296875 6.109375 26.703125 6.109375 
Q 34.1875 6.109375 38.703125 11.40625 
Q 43.21875 16.703125 43.21875 25.484375 
L 43.21875 27.484375 
z
M 52.203125 31.203125 
L 52.203125 0 
L 43.21875 0 
L 43.21875 8.296875 
Q 40.140625 3.328125 35.546875 0.953125 
Q 30.953125 -1.421875 24.3125 -1.421875 
Q 15.921875 -1.421875 10.953125 3.296875 
Q 6 8.015625 6 15.921875 
Q 6 25.140625 12.171875 29.828125 
Q 18.359375 34.515625 30.609375 34.515625 
L 43.21875 34.515625 
L 43.21875 35.40625 
Q 43.21875 41.609375 39.140625 45 
Q 35.0625 48.390625 27.6875 48.390625 
Q 23 48.390625 18.546875 47.265625 
Q 14.109375 46.140625 10.015625 43.890625 
L 10.015625 52.203125 
Q 14.9375 54.109375 19.578125 55.046875 
Q 24.21875 56 28.609375 56 
Q 40.484375 56 46.34375 49.84375 
Q 52.203125 43.703125 52.203125 31.203125 
z
" id="DejaVuSans-97"/>
      <path d="M 45.40625 46.390625 
L 45.40625 75.984375 
L 54.390625 75.984375 
L 54.390625 0 
L 45.40625 0 
L 45.40625 8.203125 
Q 42.578125 3.328125 38.25 0.953125 
Q 33.9375 -1.421875 27.875 -1.421875 
Q 17.96875 -1.421875 11.734375 6.484375 
Q 5.515625 14.40625 5.515625 27.296875 
Q 5.515625 40.1875 11.734375 48.09375 
Q 17.96875 56 27.875 56 
Q 33.9375 56 38.25 53.625 
Q 42.578125 51.265625 45.40625 46.390625 
z
M 14.796875 27.296875 
Q 14.796875 17.390625 18.875 11.75 
Q 22.953125 6.109375 30.078125 6.109375 
Q 37.203125 6.109375 41.296875 11.75 
Q 45.40625 17.390625 45.40625 27.296875 
Q 45.40625 37.203125 41.296875 42.84375 
Q 37.203125 48.484375 30.078125 48.484375 
Q 22.953125 48.484375 18.875 42.84375 
Q 14.796875 37.203125 14.796875 27.296875 
z
" id="DejaVuSans-100"/>
      <path d="M 9.421875 54.6875 
L 18.40625 54.6875 
L 18.40625 0 
L 9.421875 0 
z
M 9.421875 75.984375 
L 18.40625 75.984375 
L 18.40625 64.59375 
L 9.421875 64.59375 
z
" id="DejaVuSans-105"/>
      <path d="M 41.109375 46.296875 
Q 39.59375 47.171875 37.8125 47.578125 
Q 36.03125 48 33.890625 48 
Q 26.265625 48 22.1875 43.046875 
Q 18.109375 38.09375 18.109375 28.8125 
L 18.109375 0 
L 9.078125 0 
L 9.078125 54.6875 
L 18.109375 54.6875 
L 18.109375 46.1875 
Q 20.953125 51.171875 25.484375 53.578125 
Q 30.03125 56 36.53125 56 
Q 37.453125 56 38.578125 55.875 
Q 39.703125 55.765625 41.0625 55.515625 
z
" id="DejaVuSans-114"/>
      <path d="M 48.78125 52.59375 
L 48.78125 44.1875 
Q 44.96875 46.296875 41.140625 47.34375 
Q 37.3125 48.390625 33.40625 48.390625 
Q 24.65625 48.390625 19.8125 42.84375 
Q 14.984375 37.3125 14.984375 27.296875 
Q 14.984375 17.28125 19.8125 11.734375 
Q 24.65625 6.203125 33.40625 6.203125 
Q 37.3125 6.203125 41.140625 7.25 
Q 44.96875 8.296875 48.78125 10.40625 
L 48.78125 2.09375 
Q 45.015625 0.34375 40.984375 -0.53125 
Q 36.96875 -1.421875 32.421875 -1.421875 
Q 20.0625 -1.421875 12.78125 6.34375 
Q 5.515625 14.109375 5.515625 27.296875 
Q 5.515625 40.671875 12.859375 48.328125 
Q 20.21875 56 33.015625 56 
Q 37.15625 56 41.109375 55.140625 
Q 45.0625 54.296875 48.78125 52.59375 
z
" id="DejaVuSans-99"/>
     </defs>
     <g transform="translate(201.933437 335.860562)scale(0.1 -0.1)">
      <use xlink:href="#DejaVuSans-108"/>
      <use x="27.783203" xlink:href="#DejaVuSans-121"/>
      <use x="86.962891" xlink:href="#DejaVuSans-109"/>
      <use x="184.375" xlink:href="#DejaVuSans-112"/>
      <use x="247.851562" xlink:href="#DejaVuSans-104"/>
      <use x="311.230469" xlink:href="#DejaVuSans-110"/>
      <use x="374.609375" xlink:href="#DejaVuSans-97"/>
      <use x="435.888672" xlink:href="#DejaVuSans-100"/>
      <use x="499.365234" xlink:href="#DejaVuSans-105"/>
      <use x="527.148438" xlink:href="#DejaVuSans-114"/>
      <use x="568.261719" xlink:href="#DejaVuSans-97"/>
      <use x="629.541016" xlink:href="#DejaVuSans-99"/>
     </g>
    </g>
   </g>
   <g id="matplotlib.axis_2">
    <g id="ytick_1">
     <g id="line2d_7">
      <defs>
       <path d="M 0 0 
L -3.5 0 
" id="m76ee8a6160" style="stroke:#000000;stroke-width:0.8;"/>
      </defs>
      <g>
       <use style="stroke:#000000;stroke-width:0.8;" x="57.6" xlink:href="#m76ee8a6160" y="174.528"/>
      </g>
     </g>
    </g>
   </g>
   <g id="line2d_8">
    <path clip-path="url(#p0fee456c31)" d="M 113.816669 174.528 
L 125.468415 174.528 
" style="fill:none;stroke:#ffa500;stroke-linecap:square;stroke-width:1.5;"/>
   </g>
   <g id="line2d_9">
    <path clip-path="url(#p0fee456c31)" d="M 119.642542 174.528 
L 125.468415 174.528 
" style="fill:none;stroke:#4c4c4c;stroke-linecap:square;stroke-width:4.5;"/>
   </g>
   <g id="line2d_10">
    <path clip-path="url(#p0fee456c31)" d="M 90.513177 174.528 
L 207.030635 174.528 
" style="fill:none;stroke:#008000;stroke-linecap:square;stroke-width:1.5;"/>
   </g>
   <g id="line2d_11">
    <path clip-path="url(#p0fee456c31)" d="M 119.642542 174.528 
L 154.597779 174.528 
" style="fill:none;stroke:#262626;stroke-linecap:square;stroke-width:4.5;"/>
   </g>
   <g id="patch_3">
    <path d="M 57.6 307.584 
L 57.6 41.472 
" style="fill:none;stroke:#000000;stroke-linecap:square;stroke-linejoin:miter;stroke-width:0.8;"/>
   </g>
   <g id="patch_4">
    <path d="M 414.72 307.584 
L 414.72 41.472 
" style="fill:none;stroke:#000000;stroke-linecap:square;stroke-linejoin:miter;stroke-width:0.8;"/>
   </g>
   <g id="patch_5">
    <path d="M 57.6 307.584 
L 414.72 307.584 
" style="fill:none;stroke:#000000;stroke-linecap:square;stroke-linejoin:miter;stroke-width:0.8;"/>
   </g>
   <g id="patch_6">
    <path d="M 57.6 41.472 
L 414.72 41.472 
" style="fill:none;stroke:#000000;stroke-linecap:square;stroke-linejoin:miter;stroke-width:0.8;"/>
   </g>
   <g id="PathCollection_1">
    <defs>
     <path d="M 0 1.5 
C 0.397805 1.5 0.77937 1.341951 1.06066 1.06066 
C 1.341951 0.77937 1.5 0.397805 1.5 0 
C 1.5 -0.397805 1.341951 -0.77937 1.06066 -1.06066 
C 0.77937 -1.341951 0.397805 -1.5 0 -1.5 
C -0.397805 -1.5 -0.77937 -1.341951 -1.06066 -1.06066 
C -1.341951 -0.77937 -1.5 -0.397805 -1.5 0 
C -1.5 0.397805 -1.341951 0.77937 -1.06066 1.06066 
C -0.77937 1.341951 -0.397805 1.5 0 1.5 
z
" id="m4a04d97327" style="stroke:#4c4c4c;stroke-opacity:0.5;"/>
    </defs>
    <g clip-path="url(#p0fee456c31)">
     <use style="fill:#ffffff;fill-opacity:0.5;stroke:#4c4c4c;stroke-opacity:0.5;" x="125.468415" xlink:href="#m4a04d97327" y="174.528"/>
    </g>
   </g>
   <g id="PathCollection_2">
    <defs>
     <path d="M 0 1.5 
C 0.397805 1.5 0.77937 1.341951 1.06066 1.06066 
C 1.341951 0.77937 1.5 0.397805 1.5 0 
C 1.5 -0.397805 1.341951 -0.77937 1.06066 -1.06066 
C 0.77937 -1.341951 0.397805 -1.5 0 -1.5 
C -0.397805 -1.5 -0.77937 -1.341951 -1.06066 -1.06066 
C -1.341951 -0.77937 -1.5 -0.397805 -1.5 0 
C -1.5 0.397805 -1.341951 0.77937 -1.06066 1.06066 
C -0.77937 1.341951 -0.397805 1.5 0 1.5 
z
" id="mde0155ecc7" style="stroke:#262626;stroke-opacity:0.5;"/>
    </defs>
    <g clip-path="url(#p0fee456c31)">
     <use style="fill:#ffffff;fill-opacity:0.5;stroke:#262626;stroke-opacity:0.5;" x="137.12016" xlink:href="#mde0155ecc7" y="174.528"/>
    </g>
   </g>
   <g id="text_8">
    <!-- Association of lymphnadirac vs. myocarditis -->
    <defs>
     <path d="M 34.1875 63.1875 
L 20.796875 26.90625 
L 47.609375 26.90625 
z
M 28.609375 72.90625 
L 39.796875 72.90625 
L 67.578125 0 
L 57.328125 0 
L 50.6875 18.703125 
L 17.828125 18.703125 
L 11.1875 0 
L 0.78125 0 
z
" id="DejaVuSans-65"/>
     <path d="M 44.28125 53.078125 
L 44.28125 44.578125 
Q 40.484375 46.53125 36.375 47.5 
Q 32.28125 48.484375 27.875 48.484375 
Q 21.1875 48.484375 17.84375 46.4375 
Q 14.5 44.390625 14.5 40.28125 
Q 14.5 37.15625 16.890625 35.375 
Q 19.28125 33.59375 26.515625 31.984375 
L 29.59375 31.296875 
Q 39.15625 29.25 43.1875 25.515625 
Q 47.21875 21.78125 47.21875 15.09375 
Q 47.21875 7.46875 41.1875 3.015625 
Q 35.15625 -1.421875 24.609375 -1.421875 
Q 20.21875 -1.421875 15.453125 -0.5625 
Q 10.6875 0.296875 5.421875 2 
L 5.421875 11.28125 
Q 10.40625 8.6875 15.234375 7.390625 
Q 20.0625 6.109375 24.8125 6.109375 
Q 31.15625 6.109375 34.5625 8.28125 
Q 37.984375 10.453125 37.984375 14.40625 
Q 37.984375 18.0625 35.515625 20.015625 
Q 33.0625 21.96875 24.703125 23.78125 
L 21.578125 24.515625 
Q 13.234375 26.265625 9.515625 29.90625 
Q 5.8125 33.546875 5.8125 39.890625 
Q 5.8125 47.609375 11.28125 51.796875 
Q 16.75 56 26.8125 56 
Q 31.78125 56 36.171875 55.265625 
Q 40.578125 54.546875 44.28125 53.078125 
z
" id="DejaVuSans-115"/>
     <path d="M 30.609375 48.390625 
Q 23.390625 48.390625 19.1875 42.75 
Q 14.984375 37.109375 14.984375 27.296875 
Q 14.984375 17.484375 19.15625 11.84375 
Q 23.34375 6.203125 30.609375 6.203125 
Q 37.796875 6.203125 41.984375 11.859375 
Q 46.1875 17.53125 46.1875 27.296875 
Q 46.1875 37.015625 41.984375 42.703125 
Q 37.796875 48.390625 30.609375 48.390625 
z
M 30.609375 56 
Q 42.328125 56 49.015625 48.375 
Q 55.71875 40.765625 55.71875 27.296875 
Q 55.71875 13.875 49.015625 6.21875 
Q 42.328125 -1.421875 30.609375 -1.421875 
Q 18.84375 -1.421875 12.171875 6.21875 
Q 5.515625 13.875 5.515625 27.296875 
Q 5.515625 40.765625 12.171875 48.375 
Q 18.84375 56 30.609375 56 
z
" id="DejaVuSans-111"/>
     <path d="M 18.3125 70.21875 
L 18.3125 54.6875 
L 36.8125 54.6875 
L 36.8125 47.703125 
L 18.3125 47.703125 
L 18.3125 18.015625 
Q 18.3125 11.328125 20.140625 9.421875 
Q 21.96875 7.515625 27.59375 7.515625 
L 36.8125 7.515625 
L 36.8125 0 
L 27.59375 0 
Q 17.1875 0 13.234375 3.875 
Q 9.28125 7.765625 9.28125 18.015625 
L 9.28125 47.703125 
L 2.6875 47.703125 
L 2.6875 54.6875 
L 9.28125 54.6875 
L 9.28125 70.21875 
z
" id="DejaVuSans-116"/>
     <path id="DejaVuSans-32"/>
     <path d="M 37.109375 75.984375 
L 37.109375 68.5 
L 28.515625 68.5 
Q 23.6875 68.5 21.796875 66.546875 
Q 19.921875 64.59375 19.921875 59.515625 
L 19.921875 54.6875 
L 34.71875 54.6875 
L 34.71875 47.703125 
L 19.921875 47.703125 
L 19.921875 0 
L 10.890625 0 
L 10.890625 47.703125 
L 2.296875 47.703125 
L 2.296875 54.6875 
L 10.890625 54.6875 
L 10.890625 58.5 
Q 10.890625 67.625 15.140625 71.796875 
Q 19.390625 75.984375 28.609375 75.984375 
z
" id="DejaVuSans-102"/>
     <path d="M 2.984375 54.6875 
L 12.5 54.6875 
L 29.59375 8.796875 
L 46.6875 54.6875 
L 56.203125 54.6875 
L 35.6875 0 
L 23.484375 0 
z
" id="DejaVuSans-118"/>
     <path d="M 10.6875 12.40625 
L 21 12.40625 
L 21 0 
L 10.6875 0 
z
" id="DejaVuSans-46"/>
    </defs>
    <g transform="translate(103.905937 35.472)scale(0.12 -0.12)">
     <use xlink:href="#DejaVuSans-65"/>
     <use x="68.408203" xlink:href="#DejaVuSans-115"/>
     <use x="120.507812" xlink:href="#DejaVuSans-115"/>
     <use x="172.607422" xlink:href="#DejaVuSans-111"/>
     <use x="233.789062" xlink:href="#DejaVuSans-99"/>
     <use x="288.769531" xlink:href="#DejaVuSans-105"/>
     <use x="316.552734" xlink:href="#DejaVuSans-97"/>
     <use x="377.832031" xlink:href="#DejaVuSans-116"/>
     <use x="417.041016" xlink:href="#DejaVuSans-105"/>
     <use x="444.824219" xlink:href="#DejaVuSans-111"/>
     <use x="506.005859" xlink:href="#DejaVuSans-110"/>
     <use x="569.384766" xlink:href="#DejaVuSans-32"/>
     <use x="601.171875" xlink:href="#DejaVuSans-111"/>
     <use x="662.353516" xlink:href="#DejaVuSans-102"/>
     <use x="697.558594" xlink:href="#DejaVuSans-32"/>
     <use x="729.345703" xlink:href="#DejaVuSans-108"/>
     <use x="757.128906" xlink:href="#DejaVuSans-121"/>
     <use x="816.308594" xlink:href="#DejaVuSans-109"/>
     <use x="913.720703" xlink:href="#DejaVuSans-112"/>
     <use x="977.197266" xlink:href="#DejaVuSans-104"/>
     <use x="1040.576172" xlink:href="#DejaVuSans-110"/>
     <use x="1103.955078" xlink:href="#DejaVuSans-97"/>
     <use x="1165.234375" xlink:href="#DejaVuSans-100"/>
     <use x="1228.710938" xlink:href="#DejaVuSans-105"/>
     <use x="1256.494141" xlink:href="#DejaVuSans-114"/>
     <use x="1297.607422" xlink:href="#DejaVuSans-97"/>
     <use x="1358.886719" xlink:href="#DejaVuSans-99"/>
     <use x="1413.867188" xlink:href="#DejaVuSans-32"/>
     <use x="1445.654297" xlink:href="#DejaVuSans-118"/>
     <use x="1504.833984" xlink:href="#DejaVuSans-115"/>
     <use x="1556.933594" xlink:href="#DejaVuSans-46"/>
     <use x="1588.720703" xlink:href="#DejaVuSans-32"/>
     <use x="1620.507812" xlink:href="#DejaVuSans-109"/>
     <use x="1717.919922" xlink:href="#DejaVuSans-121"/>
     <use x="1777.099609" xlink:href="#DejaVuSans-111"/>
     <use x="1838.28125" xlink:href="#DejaVuSans-99"/>
     <use x="1893.261719" xlink:href="#DejaVuSans-97"/>
     <use x="1954.541016" xlink:href="#DejaVuSans-114"/>
     <use x="1993.904297" xlink:href="#DejaVuSans-100"/>
     <use x="2057.380859" xlink:href="#DejaVuSans-105"/>
     <use x="2085.164062" xlink:href="#DejaVuSans-116"/>
     <use x="2124.373047" xlink:href="#DejaVuSans-105"/>
     <use x="2152.15625" xlink:href="#DejaVuSans-115"/>
    </g>
   </g>
   <g id="legend_1">
    <g id="patch_7">
     <path d="M 266.577812 78.82825 
L 407.72 78.82825 
Q 409.72 78.82825 409.72 76.82825 
L 409.72 48.472 
Q 409.72 46.472 407.72 46.472 
L 266.577812 46.472 
Q 264.577812 46.472 264.577812 48.472 
L 264.577812 76.82825 
Q 264.577812 78.82825 266.577812 78.82825 
z
" style="fill:#ffffff;opacity:0.8;stroke:#cccccc;stroke-linejoin:miter;"/>
    </g>
    <g id="line2d_12">
     <path d="M 268.577812 54.570437 
L 288.577812 54.570437 
" style="fill:none;stroke:#ffa500;stroke-linecap:square;stroke-width:1.5;"/>
    </g>
    <g id="line2d_13"/>
    <g id="text_9">
     <!-- myocarditis (5) -->
     <defs>
      <path d="M 31 75.875 
Q 24.46875 64.65625 21.28125 53.65625 
Q 18.109375 42.671875 18.109375 31.390625 
Q 18.109375 20.125 21.3125 9.0625 
Q 24.515625 -2 31 -13.1875 
L 23.1875 -13.1875 
Q 15.875 -1.703125 12.234375 9.375 
Q 8.59375 20.453125 8.59375 31.390625 
Q 8.59375 42.28125 12.203125 53.3125 
Q 15.828125 64.359375 23.1875 75.875 
z
" id="DejaVuSans-40"/>
      <path d="M 8.015625 75.875 
L 15.828125 75.875 
Q 23.140625 64.359375 26.78125 53.3125 
Q 30.421875 42.28125 30.421875 31.390625 
Q 30.421875 20.453125 26.78125 9.375 
Q 23.140625 -1.703125 15.828125 -13.1875 
L 8.015625 -13.1875 
Q 14.5 -2 17.703125 9.0625 
Q 20.90625 20.125 20.90625 31.390625 
Q 20.90625 42.671875 17.703125 53.65625 
Q 14.5 64.65625 8.015625 75.875 
z
" id="DejaVuSans-41"/>
     </defs>
     <g transform="translate(296.577812 58.070437)scale(0.1 -0.1)">
      <use xlink:href="#DejaVuSans-109"/>
      <use x="97.412109" xlink:href="#DejaVuSans-121"/>
      <use x="156.591797" xlink:href="#DejaVuSans-111"/>
      <use x="217.773438" xlink:href="#DejaVuSans-99"/>
      <use x="272.753906" xlink:href="#DejaVuSans-97"/>
      <use x="334.033203" xlink:href="#DejaVuSans-114"/>
      <use x="373.396484" xlink:href="#DejaVuSans-100"/>
      <use x="436.873047" xlink:href="#DejaVuSans-105"/>
      <use x="464.65625" xlink:href="#DejaVuSans-116"/>
      <use x="503.865234" xlink:href="#DejaVuSans-105"/>
      <use x="531.648438" xlink:href="#DejaVuSans-115"/>
      <use x="583.748047" xlink:href="#DejaVuSans-32"/>
      <use x="615.535156" xlink:href="#DejaVuSans-40"/>
      <use x="654.548828" xlink:href="#DejaVuSans-53"/>
      <use x="718.171875" xlink:href="#DejaVuSans-41"/>
     </g>
    </g>
    <g id="line2d_14">
     <path d="M 268.577812 69.248562 
L 288.577812 69.248562 
" style="fill:none;stroke:#008000;stroke-linecap:square;stroke-width:1.5;"/>
    </g>
    <g id="line2d_15"/>
    <g id="text_10">
     <!-- Not myocarditis (481) -->
     <defs>
      <path d="M 9.8125 72.90625 
L 23.09375 72.90625 
L 55.421875 11.921875 
L 55.421875 72.90625 
L 64.984375 72.90625 
L 64.984375 0 
L 51.703125 0 
L 19.390625 60.984375 
L 19.390625 0 
L 9.8125 0 
z
" id="DejaVuSans-78"/>
      <path d="M 31.78125 34.625 
Q 24.75 34.625 20.71875 30.859375 
Q 16.703125 27.09375 16.703125 20.515625 
Q 16.703125 13.921875 20.71875 10.15625 
Q 24.75 6.390625 31.78125 6.390625 
Q 38.8125 6.390625 42.859375 10.171875 
Q 46.921875 13.96875 46.921875 20.515625 
Q 46.921875 27.09375 42.890625 30.859375 
Q 38.875 34.625 31.78125 34.625 
z
M 21.921875 38.8125 
Q 15.578125 40.375 12.03125 44.71875 
Q 8.5 49.078125 8.5 55.328125 
Q 8.5 64.0625 14.71875 69.140625 
Q 20.953125 74.21875 31.78125 74.21875 
Q 42.671875 74.21875 48.875 69.140625 
Q 55.078125 64.0625 55.078125 55.328125 
Q 55.078125 49.078125 51.53125 44.71875 
Q 48 40.375 41.703125 38.8125 
Q 48.828125 37.15625 52.796875 32.3125 
Q 56.78125 27.484375 56.78125 20.515625 
Q 56.78125 9.90625 50.3125 4.234375 
Q 43.84375 -1.421875 31.78125 -1.421875 
Q 19.734375 -1.421875 13.25 4.234375 
Q 6.78125 9.90625 6.78125 20.515625 
Q 6.78125 27.484375 10.78125 32.3125 
Q 14.796875 37.15625 21.921875 38.8125 
z
M 18.3125 54.390625 
Q 18.3125 48.734375 21.84375 45.5625 
Q 25.390625 42.390625 31.78125 42.390625 
Q 38.140625 42.390625 41.71875 45.5625 
Q 45.3125 48.734375 45.3125 54.390625 
Q 45.3125 60.0625 41.71875 63.234375 
Q 38.140625 66.40625 31.78125 66.40625 
Q 25.390625 66.40625 21.84375 63.234375 
Q 18.3125 60.0625 18.3125 54.390625 
z
" id="DejaVuSans-56"/>
     </defs>
     <g transform="translate(296.577812 72.748562)scale(0.1 -0.1)">
      <use xlink:href="#DejaVuSans-78"/>
      <use x="74.804688" xlink:href="#DejaVuSans-111"/>
      <use x="135.986328" xlink:href="#DejaVuSans-116"/>
      <use x="175.195312" xlink:href="#DejaVuSans-32"/>
      <use x="206.982422" xlink:href="#DejaVuSans-109"/>
      <use x="304.394531" xlink:href="#DejaVuSans-121"/>
      <use x="363.574219" xlink:href="#DejaVuSans-111"/>
      <use x="424.755859" xlink:href="#DejaVuSans-99"/>
      <use x="479.736328" xlink:href="#DejaVuSans-97"/>
      <use x="541.015625" xlink:href="#DejaVuSans-114"/>
      <use x="580.378906" xlink:href="#DejaVuSans-100"/>
      <use x="643.855469" xlink:href="#DejaVuSans-105"/>
      <use x="671.638672" xlink:href="#DejaVuSans-116"/>
      <use x="710.847656" xlink:href="#DejaVuSans-105"/>
      <use x="738.630859" xlink:href="#DejaVuSans-115"/>
      <use x="790.730469" xlink:href="#DejaVuSans-32"/>
      <use x="822.517578" xlink:href="#DejaVuSans-40"/>
      <use x="861.53125" xlink:href="#DejaVuSans-52"/>
      <use x="925.154297" xlink:href="#DejaVuSans-56"/>
      <use x="988.777344" xlink:href="#DejaVuSans-49"/>
      <use x="1052.400391" xlink:href="#DejaVuSans-41"/>
     </g>
    </g>
   </g>
  </g>
 </g>
 <defs>
  <clipPath id="p0fee456c31">
   <rect height="266.112" width="357.12" x="57.6" y="41.472"/>
  </clipPath>
 </defs>
</svg>
