<?xml version="1.0" encoding="utf-8" standalone="no"?>
<!DOCTYPE svg PUBLIC "-//W3C//DTD SVG 1.1//EN"
  "http://www.w3.org/Graphics/SVG/1.1/DTD/svg11.dtd">
<!-- Created with matplotlib (https://matplotlib.org/) -->
<svg height="345.6pt" version="1.1" viewBox="0 0 460.8 345.6" width="460.8pt" xmlns="http://www.w3.org/2000/svg" xmlns:xlink="http://www.w3.org/1999/xlink">
 <defs>
  <style type="text/css">
*{stroke-linecap:butt;stroke-linejoin:round;}
  </style>
 </defs>
 <g id="figure_1">
  <g id="patch_1">
   <path d="M 0 345.6 
L 460.8 345.6 
L 460.8 0 
L 0 0 
z
" style="fill:#ffffff;"/>
  </g>
  <g id="axes_1">
   <g id="patch_2">
    <path d="M 57.6 307.584 
L 414.72 307.584 
L 414.72 41.472 
L 57.6 41.472 
z
" style="fill:#ffffff;"/>
   </g>
   <g id="PolyCollection_1">
    <defs>
     <path d="M 100.19841 -167.366471 
L 100.19841 -174.777529 
L 101.444708 -175.47975 
L 102.691006 -176.275604 
L 103.937304 -177.16922 
L 105.183602 -178.163261 
L 106.4299 -179.258675 
L 107.676198 -180.45449 
L 108.922496 -181.74769 
L 110.168794 -183.133178 
L 111.415092 -184.603855 
L 112.66139 -186.15083 
L 113.907688 -187.763755 
L 115.153986 -189.431311 
L 116.400284 -191.141808 
L 117.646582 -192.883906 
L 118.89288 -194.647404 
L 120.139178 -196.424082 
L 121.385476 -198.208523 
L 122.631774 -199.998891 
L 123.878072 -201.797567 
L 125.12437 -203.611631 
L 126.370668 -205.453091 
L 127.616966 -207.338842 
L 128.863264 -209.290311 
L 130.109562 -211.332768 
L 131.35586 -213.494296 
L 132.602158 -215.804466 
L 133.848456 -218.292727 
L 135.094754 -220.986608 
L 136.341052 -223.909789 
L 137.58735 -227.080166 
L 138.833648 -230.507995 
L 140.079946 -234.194255 
L 141.326244 -238.129319 
L 142.572542 -242.292047 
L 143.81884 -246.649386 
L 145.065138 -251.156523 
L 146.311436 -255.757637 
L 147.557734 -260.387238 
L 148.804032 -264.972048 
L 150.05033 -269.433362 
L 151.296628 -273.689789 
L 152.542926 -277.660219 
L 153.789224 -281.266901 
L 155.035522 -284.438445 
L 156.28182 -287.112615 
L 157.528118 -289.238745 
L 158.774416 -290.779663 
L 160.020714 -291.713029 
L 161.267012 -292.032 
L 162.51331 -291.745216 
L 163.759608 -290.87611 
L 165.005906 -289.461589 
L 166.252204 -287.550177 
L 167.498502 -285.199724 
L 168.7448 -282.474818 
L 169.991098 -279.44404 
L 171.237396 -276.177205 
L 172.483695 -272.742729 
L 173.729993 -269.205243 
L 174.976291 -265.623551 
L 176.222589 -262.049013 
L 177.468887 -258.524394 
L 178.715185 -255.083202 
L 179.961483 -251.7495 
L 181.207781 -248.538164 
L 182.454079 -245.455531 
L 183.700377 -242.500368 
L 184.946675 -239.665087 
L 186.192973 -236.937121 
L 187.439271 -234.300378 
L 188.685569 -231.736707 
L 189.931867 -229.227286 
L 191.178165 -226.753897 
L 192.424463 -224.300025 
L 193.670761 -221.851749 
L 194.917059 -219.398416 
L 196.163357 -216.933073 
L 197.409655 -214.452673 
L 198.655953 -211.95806 
L 199.902251 -209.45376 
L 201.148549 -206.947607 
L 202.394847 -204.450225 
L 203.641145 -201.974425 
L 204.887443 -199.534533 
L 206.133741 -197.145697 
L 207.380039 -194.823204 
L 208.626337 -192.581846 
L 209.872635 -190.435345 
L 211.118933 -188.395871 
L 212.365231 -186.473669 
L 213.611529 -184.676785 
L 214.857827 -183.010915 
L 216.104125 -181.479355 
L 217.350423 -180.083057 
L 218.596721 -178.820762 
L 219.843019 -177.689213 
L 221.089317 -176.683414 
L 222.335615 -175.796925 
L 223.581913 -175.022178 
L 223.581913 -167.121822 
L 223.581913 -167.121822 
L 222.335615 -166.347075 
L 221.089317 -165.460586 
L 219.843019 -164.454787 
L 218.596721 -163.323238 
L 217.350423 -162.060943 
L 216.104125 -160.664645 
L 214.857827 -159.133085 
L 213.611529 -157.467215 
L 212.365231 -155.670331 
L 211.118933 -153.748129 
L 209.872635 -151.708655 
L 208.626337 -149.562154 
L 207.380039 -147.320796 
L 206.133741 -144.998303 
L 204.887443 -142.609467 
L 203.641145 -140.169575 
L 202.394847 -137.693775 
L 201.148549 -135.196393 
L 199.902251 -132.69024 
L 198.655953 -130.18594 
L 197.409655 -127.691327 
L 196.163357 -125.210927 
L 194.917059 -122.745584 
L 193.670761 -120.292251 
L 192.424463 -117.843975 
L 191.178165 -115.390103 
L 189.931867 -112.916714 
L 188.685569 -110.407293 
L 187.439271 -107.843622 
L 186.192973 -105.206879 
L 184.946675 -102.478913 
L 183.700377 -99.643632 
L 182.454079 -96.688469 
L 181.207781 -93.605836 
L 179.961483 -90.3945 
L 178.715185 -87.060798 
L 177.468887 -83.619606 
L 176.222589 -80.094987 
L 174.976291 -76.520449 
L 173.729993 -72.938757 
L 172.483695 -69.401271 
L 171.237396 -65.966795 
L 169.991098 -62.69996 
L 168.7448 -59.669182 
L 167.498502 -56.944276 
L 166.252204 -54.593823 
L 165.005906 -52.682411 
L 163.759608 -51.26789 
L 162.51331 -50.398784 
L 161.267012 -50.112 
L 160.020714 -50.430971 
L 158.774416 -51.364337 
L 157.528118 -52.905255 
L 156.28182 -55.031385 
L 155.035522 -57.705555 
L 153.789224 -60.877099 
L 152.542926 -64.483781 
L 151.296628 -68.454211 
L 150.05033 -72.710638 
L 148.804032 -77.171952 
L 147.557734 -81.756762 
L 146.311436 -86.386363 
L 145.065138 -90.987477 
L 143.81884 -95.494614 
L 142.572542 -99.851953 
L 141.326244 -104.014681 
L 140.079946 -107.949745 
L 138.833648 -111.636005 
L 137.58735 -115.063834 
L 136.341052 -118.234211 
L 135.094754 -121.157392 
L 133.848456 -123.851273 
L 132.602158 -126.339534 
L 131.35586 -128.649704 
L 130.109562 -130.811232 
L 128.863264 -132.853689 
L 127.616966 -134.805158 
L 126.370668 -136.690909 
L 125.12437 -138.532369 
L 123.878072 -140.346433 
L 122.631774 -142.145109 
L 121.385476 -143.935477 
L 120.139178 -145.719918 
L 118.89288 -147.496596 
L 117.646582 -149.260094 
L 116.400284 -151.002192 
L 115.153986 -152.712689 
L 113.907688 -154.380245 
L 112.66139 -155.99317 
L 111.415092 -157.540145 
L 110.168794 -159.010822 
L 108.922496 -160.39631 
L 107.676198 -161.68951 
L 106.4299 -162.885325 
L 105.183602 -163.980739 
L 103.937304 -164.97478 
L 102.691006 -165.868396 
L 101.444708 -166.66425 
L 100.19841 -167.366471 
z
" id="m5957a43382" style="stroke:#4c4c4c;stroke-opacity:0.5;stroke-width:1.5;"/>
    </defs>
    <g clip-path="url(#p9923302cd4)">
     <use style="fill:#df9c20;fill-opacity:0.5;stroke:#4c4c4c;stroke-opacity:0.5;stroke-width:1.5;" x="0" xlink:href="#m5957a43382" y="345.6"/>
    </g>
   </g>
   <g id="PolyCollection_2">
    <defs>
     <path d="M 73.832727 -170.434143 
L 73.832727 -171.709857 
L 77.112066 -172.024544 
L 80.391405 -172.460847 
L 83.670744 -173.051411 
L 86.950083 -173.833271 
L 90.229421 -174.847926 
L 93.50876 -176.141769 
L 96.788099 -177.76699 
L 100.067438 -179.782825 
L 103.346777 -182.256755 
L 106.626116 -185.264894 
L 109.905455 -188.890545 
L 113.184793 -193.219839 
L 116.464132 -198.333615 
L 119.743471 -204.295305 
L 123.02281 -211.135504 
L 126.302149 -218.834928 
L 129.581488 -227.308459 
L 132.860826 -236.393499 
L 136.140165 -245.845866 
L 139.419504 -255.345717 
L 142.698843 -264.514596 
L 145.978182 -272.94291 
L 149.257521 -280.225234 
L 152.53686 -285.999275 
L 155.816198 -289.983372 
L 159.095537 -292.007309 
L 162.374876 -292.032 
L 165.654215 -290.155089 
L 168.933554 -286.601504 
L 172.212893 -281.700084 
L 175.492231 -275.849293 
L 178.77157 -269.476457 
L 182.050909 -262.99568 
L 185.330248 -256.769615 
L 188.609587 -251.079527 
L 191.888926 -246.106823 
L 195.168264 -241.927545 
L 198.447603 -238.519536 
L 201.726942 -235.780344 
L 205.006281 -233.552628 
L 208.28562 -231.653076 
L 211.564959 -229.900653 
L 214.844298 -228.14047 
L 218.123636 -226.260467 
L 221.402975 -224.199405 
L 224.682314 -221.94608 
L 227.961653 -219.530997 
L 231.240992 -217.012812 
L 234.520331 -214.462452 
L 237.799669 -211.947902 
L 241.079008 -209.52223 
L 244.358347 -207.216558 
L 247.637686 -205.038619 
L 250.917025 -202.976442 
L 254.196364 -201.005781 
L 257.475702 -199.099353 
L 260.755041 -197.235816 
L 264.03438 -195.406658 
L 267.313719 -193.619783 
L 270.593058 -191.899302 
L 273.872397 -190.281826 
L 277.151736 -188.810154 
L 280.431074 -187.525659 
L 283.710413 -186.460797 
L 286.989752 -185.632984 
L 290.269091 -185.040806 
L 293.54843 -184.663047 
L 296.827769 -184.460583 
L 300.107107 -184.380799 
L 303.386446 -184.363861 
L 306.665785 -184.350008 
L 309.945124 -184.286872 
L 313.224463 -184.135879 
L 316.503802 -183.876792 
L 319.78314 -183.509698 
L 323.062479 -183.054001 
L 326.341818 -182.544422 
L 329.621157 -182.024477 
L 332.900496 -181.538392 
L 336.179835 -181.12279 
L 339.459174 -180.799623 
L 342.738512 -180.5717 
L 346.017851 -180.421726 
L 349.29719 -180.315104 
L 352.576529 -180.206001 
L 355.855868 -180.045512 
L 359.135207 -179.790297 
L 362.414545 -179.410022 
L 365.693884 -178.892201 
L 368.973223 -178.243678 
L 372.252562 -177.488683 
L 375.531901 -176.664151 
L 378.81124 -175.813438 
L 382.090579 -174.979792 
L 385.369917 -174.200775 
L 388.649256 -173.504453 
L 391.928595 -172.907696 
L 395.207934 -172.416436 
L 398.487273 -172.027402 
L 398.487273 -170.116598 
L 398.487273 -170.116598 
L 395.207934 -169.727564 
L 391.928595 -169.236304 
L 388.649256 -168.639547 
L 385.369917 -167.943225 
L 382.090579 -167.164208 
L 378.81124 -166.330562 
L 375.531901 -165.479849 
L 372.252562 -164.655317 
L 368.973223 -163.900322 
L 365.693884 -163.251799 
L 362.414545 -162.733978 
L 359.135207 -162.353703 
L 355.855868 -162.098488 
L 352.576529 -161.937999 
L 349.29719 -161.828896 
L 346.017851 -161.722274 
L 342.738512 -161.5723 
L 339.459174 -161.344377 
L 336.179835 -161.02121 
L 332.900496 -160.605608 
L 329.621157 -160.119523 
L 326.341818 -159.599578 
L 323.062479 -159.089999 
L 319.78314 -158.634302 
L 316.503802 -158.267208 
L 313.224463 -158.008121 
L 309.945124 -157.857128 
L 306.665785 -157.793992 
L 303.386446 -157.780139 
L 300.107107 -157.763201 
L 296.827769 -157.683417 
L 293.54843 -157.480953 
L 290.269091 -157.103194 
L 286.989752 -156.511016 
L 283.710413 -155.683203 
L 280.431074 -154.618341 
L 277.151736 -153.333846 
L 273.872397 -151.862174 
L 270.593058 -150.244698 
L 267.313719 -148.524217 
L 264.03438 -146.737342 
L 260.755041 -144.908184 
L 257.475702 -143.044647 
L 254.196364 -141.138219 
L 250.917025 -139.167558 
L 247.637686 -137.105381 
L 244.358347 -134.927442 
L 241.079008 -132.62177 
L 237.799669 -130.196098 
L 234.520331 -127.681548 
L 231.240992 -125.131188 
L 227.961653 -122.613003 
L 224.682314 -120.19792 
L 221.402975 -117.944595 
L 218.123636 -115.883533 
L 214.844298 -114.00353 
L 211.564959 -112.243347 
L 208.28562 -110.490924 
L 205.006281 -108.591372 
L 201.726942 -106.363656 
L 198.447603 -103.624464 
L 195.168264 -100.216455 
L 191.888926 -96.037177 
L 188.609587 -91.064473 
L 185.330248 -85.374385 
L 182.050909 -79.14832 
L 178.77157 -72.667543 
L 175.492231 -66.294707 
L 172.212893 -60.443916 
L 168.933554 -55.542496 
L 165.654215 -51.988911 
L 162.374876 -50.112 
L 159.095537 -50.136691 
L 155.816198 -52.160628 
L 152.53686 -56.144725 
L 149.257521 -61.918766 
L 145.978182 -69.20109 
L 142.698843 -77.629404 
L 139.419504 -86.798283 
L 136.140165 -96.298134 
L 132.860826 -105.750501 
L 129.581488 -114.835541 
L 126.302149 -123.309072 
L 123.02281 -131.008496 
L 119.743471 -137.848695 
L 116.464132 -143.810385 
L 113.184793 -148.924161 
L 109.905455 -153.253455 
L 106.626116 -156.879106 
L 103.346777 -159.887245 
L 100.067438 -162.361175 
L 96.788099 -164.37701 
L 93.50876 -166.002231 
L 90.229421 -167.296074 
L 86.950083 -168.310729 
L 83.670744 -169.092589 
L 80.391405 -169.683153 
L 77.112066 -170.119456 
L 73.832727 -170.434143 
z
" id="m64fbc2f645" style="stroke:#262626;stroke-opacity:0.5;stroke-width:1.5;"/>
    </defs>
    <g clip-path="url(#p9923302cd4)">
     <use style="fill:#107010;fill-opacity:0.5;stroke:#262626;stroke-opacity:0.5;stroke-width:1.5;" x="0" xlink:href="#m64fbc2f645" y="345.6"/>
    </g>
   </g>
   <g id="matplotlib.axis_1">
    <g id="xtick_1">
     <g id="line2d_1">
      <defs>
       <path d="M 0 0 
L 0 3.5 
" id="mb22e3ddf4b" style="stroke:#000000;stroke-width:0.8;"/>
      </defs>
      <g>
       <use style="stroke:#000000;stroke-width:0.8;" x="64.101541" xlink:href="#mb22e3ddf4b" y="307.584"/>
      </g>
     </g>
     <g id="text_1">
      <!-- 2 -->
      <defs>
       <path d="M 19.1875 8.296875 
L 53.609375 8.296875 
L 53.609375 0 
L 7.328125 0 
L 7.328125 8.296875 
Q 12.9375 14.109375 22.625 23.890625 
Q 32.328125 33.6875 34.8125 36.53125 
Q 39.546875 41.84375 41.421875 45.53125 
Q 43.3125 49.21875 43.3125 52.78125 
Q 43.3125 58.59375 39.234375 62.25 
Q 35.15625 65.921875 28.609375 65.921875 
Q 23.96875 65.921875 18.8125 64.3125 
Q 13.671875 62.703125 7.8125 59.421875 
L 7.8125 69.390625 
Q 13.765625 71.78125 18.9375 73 
Q 24.125 74.21875 28.421875 74.21875 
Q 39.75 74.21875 46.484375 68.546875 
Q 53.21875 62.890625 53.21875 53.421875 
Q 53.21875 48.921875 51.53125 44.890625 
Q 49.859375 40.875 45.40625 35.40625 
Q 44.1875 33.984375 37.640625 27.21875 
Q 31.109375 20.453125 19.1875 8.296875 
z
" id="DejaVuSans-50"/>
      </defs>
      <g transform="translate(60.920291 322.182437)scale(0.1 -0.1)">
       <use xlink:href="#DejaVuSans-50"/>
      </g>
     </g>
    </g>
    <g id="xtick_2">
     <g id="line2d_2">
      <g>
       <use style="stroke:#000000;stroke-width:0.8;" x="113.614766" xlink:href="#mb22e3ddf4b" y="307.584"/>
      </g>
     </g>
     <g id="text_2">
      <!-- 4 -->
      <defs>
       <path d="M 37.796875 64.3125 
L 12.890625 25.390625 
L 37.796875 25.390625 
z
M 35.203125 72.90625 
L 47.609375 72.90625 
L 47.609375 25.390625 
L 58.015625 25.390625 
L 58.015625 17.1875 
L 47.609375 17.1875 
L 47.609375 0 
L 37.796875 0 
L 37.796875 17.1875 
L 4.890625 17.1875 
L 4.890625 26.703125 
z
" id="DejaVuSans-52"/>
      </defs>
      <g transform="translate(110.433516 322.182437)scale(0.1 -0.1)">
       <use xlink:href="#DejaVuSans-52"/>
      </g>
     </g>
    </g>
    <g id="xtick_3">
     <g id="line2d_3">
      <g>
       <use style="stroke:#000000;stroke-width:0.8;" x="163.127992" xlink:href="#mb22e3ddf4b" y="307.584"/>
      </g>
     </g>
     <g id="text_3">
      <!-- 6 -->
      <defs>
       <path d="M 33.015625 40.375 
Q 26.375 40.375 22.484375 35.828125 
Q 18.609375 31.296875 18.609375 23.390625 
Q 18.609375 15.53125 22.484375 10.953125 
Q 26.375 6.390625 33.015625 6.390625 
Q 39.65625 6.390625 43.53125 10.953125 
Q 47.40625 15.53125 47.40625 23.390625 
Q 47.40625 31.296875 43.53125 35.828125 
Q 39.65625 40.375 33.015625 40.375 
z
M 52.59375 71.296875 
L 52.59375 62.3125 
Q 48.875 64.0625 45.09375 64.984375 
Q 41.3125 65.921875 37.59375 65.921875 
Q 27.828125 65.921875 22.671875 59.328125 
Q 17.53125 52.734375 16.796875 39.40625 
Q 19.671875 43.65625 24.015625 45.921875 
Q 28.375 48.1875 33.59375 48.1875 
Q 44.578125 48.1875 50.953125 41.515625 
Q 57.328125 34.859375 57.328125 23.390625 
Q 57.328125 12.15625 50.6875 5.359375 
Q 44.046875 -1.421875 33.015625 -1.421875 
Q 20.359375 -1.421875 13.671875 8.265625 
Q 6.984375 17.96875 6.984375 36.375 
Q 6.984375 53.65625 15.1875 63.9375 
Q 23.390625 74.21875 37.203125 74.21875 
Q 40.921875 74.21875 44.703125 73.484375 
Q 48.484375 72.75 52.59375 71.296875 
z
" id="DejaVuSans-54"/>
      </defs>
      <g transform="translate(159.946742 322.182437)scale(0.1 -0.1)">
       <use xlink:href="#DejaVuSans-54"/>
      </g>
     </g>
    </g>
    <g id="xtick_4">
     <g id="line2d_4">
      <g>
       <use style="stroke:#000000;stroke-width:0.8;" x="212.641218" xlink:href="#mb22e3ddf4b" y="307.584"/>
      </g>
     </g>
     <g id="text_4">
      <!-- 8 -->
      <defs>
       <path d="M 31.78125 34.625 
Q 24.75 34.625 20.71875 30.859375 
Q 16.703125 27.09375 16.703125 20.515625 
Q 16.703125 13.921875 20.71875 10.15625 
Q 24.75 6.390625 31.78125 6.390625 
Q 38.8125 6.390625 42.859375 10.171875 
Q 46.921875 13.96875 46.921875 20.515625 
Q 46.921875 27.09375 42.890625 30.859375 
Q 38.875 34.625 31.78125 34.625 
z
M 21.921875 38.8125 
Q 15.578125 40.375 12.03125 44.71875 
Q 8.5 49.078125 8.5 55.328125 
Q 8.5 64.0625 14.71875 69.140625 
Q 20.953125 74.21875 31.78125 74.21875 
Q 42.671875 74.21875 48.875 69.140625 
Q 55.078125 64.0625 55.078125 55.328125 
Q 55.078125 49.078125 51.53125 44.71875 
Q 48 40.375 41.703125 38.8125 
Q 48.828125 37.15625 52.796875 32.3125 
Q 56.78125 27.484375 56.78125 20.515625 
Q 56.78125 9.90625 50.3125 4.234375 
Q 43.84375 -1.421875 31.78125 -1.421875 
Q 19.734375 -1.421875 13.25 4.234375 
Q 6.78125 9.90625 6.78125 20.515625 
Q 6.78125 27.484375 10.78125 32.3125 
Q 14.796875 37.15625 21.921875 38.8125 
z
M 18.3125 54.390625 
Q 18.3125 48.734375 21.84375 45.5625 
Q 25.390625 42.390625 31.78125 42.390625 
Q 38.140625 42.390625 41.71875 45.5625 
Q 45.3125 48.734375 45.3125 54.390625 
Q 45.3125 60.0625 41.71875 63.234375 
Q 38.140625 66.40625 31.78125 66.40625 
Q 25.390625 66.40625 21.84375 63.234375 
Q 18.3125 60.0625 18.3125 54.390625 
z
" id="DejaVuSans-56"/>
      </defs>
      <g transform="translate(209.459968 322.182437)scale(0.1 -0.1)">
       <use xlink:href="#DejaVuSans-56"/>
      </g>
     </g>
    </g>
    <g id="xtick_5">
     <g id="line2d_5">
      <g>
       <use style="stroke:#000000;stroke-width:0.8;" x="262.154443" xlink:href="#mb22e3ddf4b" y="307.584"/>
      </g>
     </g>
     <g id="text_5">
      <!-- 10 -->
      <defs>
       <path d="M 12.40625 8.296875 
L 28.515625 8.296875 
L 28.515625 63.921875 
L 10.984375 60.40625 
L 10.984375 69.390625 
L 28.421875 72.90625 
L 38.28125 72.90625 
L 38.28125 8.296875 
L 54.390625 8.296875 
L 54.390625 0 
L 12.40625 0 
z
" id="DejaVuSans-49"/>
       <path d="M 31.78125 66.40625 
Q 24.171875 66.40625 20.328125 58.90625 
Q 16.5 51.421875 16.5 36.375 
Q 16.5 21.390625 20.328125 13.890625 
Q 24.171875 6.390625 31.78125 6.390625 
Q 39.453125 6.390625 43.28125 13.890625 
Q 47.125 21.390625 47.125 36.375 
Q 47.125 51.421875 43.28125 58.90625 
Q 39.453125 66.40625 31.78125 66.40625 
z
M 31.78125 74.21875 
Q 44.046875 74.21875 50.515625 64.515625 
Q 56.984375 54.828125 56.984375 36.375 
Q 56.984375 17.96875 50.515625 8.265625 
Q 44.046875 -1.421875 31.78125 -1.421875 
Q 19.53125 -1.421875 13.0625 8.265625 
Q 6.59375 17.96875 6.59375 36.375 
Q 6.59375 54.828125 13.0625 64.515625 
Q 19.53125 74.21875 31.78125 74.21875 
z
" id="DejaVuSans-48"/>
      </defs>
      <g transform="translate(255.791943 322.182437)scale(0.1 -0.1)">
       <use xlink:href="#DejaVuSans-49"/>
       <use x="63.623047" xlink:href="#DejaVuSans-48"/>
      </g>
     </g>
    </g>
    <g id="xtick_6">
     <g id="line2d_6">
      <g>
       <use style="stroke:#000000;stroke-width:0.8;" x="311.667669" xlink:href="#mb22e3ddf4b" y="307.584"/>
      </g>
     </g>
     <g id="text_6">
      <!-- 12 -->
      <g transform="translate(305.305169 322.182437)scale(0.1 -0.1)">
       <use xlink:href="#DejaVuSans-49"/>
       <use x="63.623047" xlink:href="#DejaVuSans-50"/>
      </g>
     </g>
    </g>
    <g id="xtick_7">
     <g id="line2d_7">
      <g>
       <use style="stroke:#000000;stroke-width:0.8;" x="361.180895" xlink:href="#mb22e3ddf4b" y="307.584"/>
      </g>
     </g>
     <g id="text_7">
      <!-- 14 -->
      <g transform="translate(354.818395 322.182437)scale(0.1 -0.1)">
       <use xlink:href="#DejaVuSans-49"/>
       <use x="63.623047" xlink:href="#DejaVuSans-52"/>
      </g>
     </g>
    </g>
    <g id="xtick_8">
     <g id="line2d_8">
      <g>
       <use style="stroke:#000000;stroke-width:0.8;" x="410.694121" xlink:href="#mb22e3ddf4b" y="307.584"/>
      </g>
     </g>
     <g id="text_8">
      <!-- 16 -->
      <g transform="translate(404.331621 322.182437)scale(0.1 -0.1)">
       <use xlink:href="#DejaVuSans-49"/>
       <use x="63.623047" xlink:href="#DejaVuSans-54"/>
      </g>
     </g>
    </g>
    <g id="text_9">
     <!-- a1c -->
     <defs>
      <path d="M 34.28125 27.484375 
Q 23.390625 27.484375 19.1875 25 
Q 14.984375 22.515625 14.984375 16.5 
Q 14.984375 11.71875 18.140625 8.90625 
Q 21.296875 6.109375 26.703125 6.109375 
Q 34.1875 6.109375 38.703125 11.40625 
Q 43.21875 16.703125 43.21875 25.484375 
L 43.21875 27.484375 
z
M 52.203125 31.203125 
L 52.203125 0 
L 43.21875 0 
L 43.21875 8.296875 
Q 40.140625 3.328125 35.546875 0.953125 
Q 30.953125 -1.421875 24.3125 -1.421875 
Q 15.921875 -1.421875 10.953125 3.296875 
Q 6 8.015625 6 15.921875 
Q 6 25.140625 12.171875 29.828125 
Q 18.359375 34.515625 30.609375 34.515625 
L 43.21875 34.515625 
L 43.21875 35.40625 
Q 43.21875 41.609375 39.140625 45 
Q 35.0625 48.390625 27.6875 48.390625 
Q 23 48.390625 18.546875 47.265625 
Q 14.109375 46.140625 10.015625 43.890625 
L 10.015625 52.203125 
Q 14.9375 54.109375 19.578125 55.046875 
Q 24.21875 56 28.609375 56 
Q 40.484375 56 46.34375 49.84375 
Q 52.203125 43.703125 52.203125 31.203125 
z
" id="DejaVuSans-97"/>
      <path d="M 48.78125 52.59375 
L 48.78125 44.1875 
Q 44.96875 46.296875 41.140625 47.34375 
Q 37.3125 48.390625 33.40625 48.390625 
Q 24.65625 48.390625 19.8125 42.84375 
Q 14.984375 37.3125 14.984375 27.296875 
Q 14.984375 17.28125 19.8125 11.734375 
Q 24.65625 6.203125 33.40625 6.203125 
Q 37.3125 6.203125 41.140625 7.25 
Q 44.96875 8.296875 48.78125 10.40625 
L 48.78125 2.09375 
Q 45.015625 0.34375 40.984375 -0.53125 
Q 36.96875 -1.421875 32.421875 -1.421875 
Q 20.0625 -1.421875 12.78125 6.34375 
Q 5.515625 14.109375 5.515625 27.296875 
Q 5.515625 40.671875 12.859375 48.328125 
Q 20.21875 56 33.015625 56 
Q 37.15625 56 41.109375 55.140625 
Q 45.0625 54.296875 48.78125 52.59375 
z
" id="DejaVuSans-99"/>
     </defs>
     <g transform="translate(227.165469 335.860562)scale(0.1 -0.1)">
      <use xlink:href="#DejaVuSans-97"/>
      <use x="61.279297" xlink:href="#DejaVuSans-49"/>
      <use x="124.902344" xlink:href="#DejaVuSans-99"/>
     </g>
    </g>
   </g>
   <g id="matplotlib.axis_2">
    <g id="ytick_1">
     <g id="line2d_9">
      <defs>
       <path d="M 0 0 
L -3.5 0 
" id="m6e4b3c753a" style="stroke:#000000;stroke-width:0.8;"/>
      </defs>
      <g>
       <use style="stroke:#000000;stroke-width:0.8;" x="57.6" xlink:href="#m6e4b3c753a" y="174.528"/>
      </g>
     </g>
    </g>
   </g>
   <g id="line2d_10">
    <path clip-path="url(#p9923302cd4)" d="M 158.17667 174.528 
L 180.457621 174.528 
" style="fill:none;stroke:#ffa500;stroke-linecap:square;stroke-width:1.5;"/>
   </g>
   <g id="line2d_11">
    <path clip-path="url(#p9923302cd4)" d="M 158.17667 174.528 
L 171.792807 174.528 
" style="fill:none;stroke:#4c4c4c;stroke-linecap:square;stroke-width:4.5;"/>
   </g>
   <g id="line2d_12">
    <path clip-path="url(#p9923302cd4)" d="M 111.139105 174.528 
L 316.618992 174.528 
" style="fill:none;stroke:#008000;stroke-linecap:square;stroke-width:1.5;"/>
   </g>
   <g id="line2d_13">
    <path clip-path="url(#p9923302cd4)" d="M 155.701008 174.528 
L 220.068202 174.528 
" style="fill:none;stroke:#262626;stroke-linecap:square;stroke-width:4.5;"/>
   </g>
   <g id="patch_3">
    <path d="M 57.6 307.584 
L 57.6 41.472 
" style="fill:none;stroke:#000000;stroke-linecap:square;stroke-linejoin:miter;stroke-width:0.8;"/>
   </g>
   <g id="patch_4">
    <path d="M 414.72 307.584 
L 414.72 41.472 
" style="fill:none;stroke:#000000;stroke-linecap:square;stroke-linejoin:miter;stroke-width:0.8;"/>
   </g>
   <g id="patch_5">
    <path d="M 57.6 307.584 
L 414.72 307.584 
" style="fill:none;stroke:#000000;stroke-linecap:square;stroke-linejoin:miter;stroke-width:0.8;"/>
   </g>
   <g id="patch_6">
    <path d="M 57.6 41.472 
L 414.72 41.472 
" style="fill:none;stroke:#000000;stroke-linecap:square;stroke-linejoin:miter;stroke-width:0.8;"/>
   </g>
   <g id="PathCollection_1">
    <defs>
     <path d="M 0 1.5 
C 0.397805 1.5 0.77937 1.341951 1.06066 1.06066 
C 1.341951 0.77937 1.5 0.397805 1.5 0 
C 1.5 -0.397805 1.341951 -0.77937 1.06066 -1.06066 
C 0.77937 -1.341951 0.397805 -1.5 0 -1.5 
C -0.397805 -1.5 -0.77937 -1.341951 -1.06066 -1.06066 
C -1.341951 -0.77937 -1.5 -0.397805 -1.5 0 
C -1.5 0.397805 -1.341951 0.77937 -1.06066 1.06066 
C -0.77937 1.341951 -0.397805 1.5 0 1.5 
z
" id="m366e5f13b4" style="stroke:#4c4c4c;stroke-opacity:0.5;"/>
    </defs>
    <g clip-path="url(#p9923302cd4)">
     <use style="fill:#ffffff;fill-opacity:0.5;stroke:#4c4c4c;stroke-opacity:0.5;" x="158.17667" xlink:href="#m366e5f13b4" y="174.528"/>
    </g>
   </g>
   <g id="PathCollection_2">
    <defs>
     <path d="M 0 1.5 
C 0.397805 1.5 0.77937 1.341951 1.06066 1.06066 
C 1.341951 0.77937 1.5 0.397805 1.5 0 
C 1.5 -0.397805 1.341951 -0.77937 1.06066 -1.06066 
C 0.77937 -1.341951 0.397805 -1.5 0 -1.5 
C -0.397805 -1.5 -0.77937 -1.341951 -1.06066 -1.06066 
C -1.341951 -0.77937 -1.5 -0.397805 -1.5 0 
C -1.5 0.397805 -1.341951 0.77937 -1.06066 1.06066 
C -0.77937 1.341951 -0.397805 1.5 0 1.5 
z
" id="mc93792b7bb" style="stroke:#262626;stroke-opacity:0.5;"/>
    </defs>
    <g clip-path="url(#p9923302cd4)">
     <use style="fill:#ffffff;fill-opacity:0.5;stroke:#262626;stroke-opacity:0.5;" x="173.030637" xlink:href="#mc93792b7bb" y="174.528"/>
    </g>
   </g>
   <g id="text_10">
    <!-- Association of a1c vs. cardiogenic_shock -->
    <defs>
     <path d="M 34.1875 63.1875 
L 20.796875 26.90625 
L 47.609375 26.90625 
z
M 28.609375 72.90625 
L 39.796875 72.90625 
L 67.578125 0 
L 57.328125 0 
L 50.6875 18.703125 
L 17.828125 18.703125 
L 11.1875 0 
L 0.78125 0 
z
" id="DejaVuSans-65"/>
     <path d="M 44.28125 53.078125 
L 44.28125 44.578125 
Q 40.484375 46.53125 36.375 47.5 
Q 32.28125 48.484375 27.875 48.484375 
Q 21.1875 48.484375 17.84375 46.4375 
Q 14.5 44.390625 14.5 40.28125 
Q 14.5 37.15625 16.890625 35.375 
Q 19.28125 33.59375 26.515625 31.984375 
L 29.59375 31.296875 
Q 39.15625 29.25 43.1875 25.515625 
Q 47.21875 21.78125 47.21875 15.09375 
Q 47.21875 7.46875 41.1875 3.015625 
Q 35.15625 -1.421875 24.609375 -1.421875 
Q 20.21875 -1.421875 15.453125 -0.5625 
Q 10.6875 0.296875 5.421875 2 
L 5.421875 11.28125 
Q 10.40625 8.6875 15.234375 7.390625 
Q 20.0625 6.109375 24.8125 6.109375 
Q 31.15625 6.109375 34.5625 8.28125 
Q 37.984375 10.453125 37.984375 14.40625 
Q 37.984375 18.0625 35.515625 20.015625 
Q 33.0625 21.96875 24.703125 23.78125 
L 21.578125 24.515625 
Q 13.234375 26.265625 9.515625 29.90625 
Q 5.8125 33.546875 5.8125 39.890625 
Q 5.8125 47.609375 11.28125 51.796875 
Q 16.75 56 26.8125 56 
Q 31.78125 56 36.171875 55.265625 
Q 40.578125 54.546875 44.28125 53.078125 
z
" id="DejaVuSans-115"/>
     <path d="M 30.609375 48.390625 
Q 23.390625 48.390625 19.1875 42.75 
Q 14.984375 37.109375 14.984375 27.296875 
Q 14.984375 17.484375 19.15625 11.84375 
Q 23.34375 6.203125 30.609375 6.203125 
Q 37.796875 6.203125 41.984375 11.859375 
Q 46.1875 17.53125 46.1875 27.296875 
Q 46.1875 37.015625 41.984375 42.703125 
Q 37.796875 48.390625 30.609375 48.390625 
z
M 30.609375 56 
Q 42.328125 56 49.015625 48.375 
Q 55.71875 40.765625 55.71875 27.296875 
Q 55.71875 13.875 49.015625 6.21875 
Q 42.328125 -1.421875 30.609375 -1.421875 
Q 18.84375 -1.421875 12.171875 6.21875 
Q 5.515625 13.875 5.515625 27.296875 
Q 5.515625 40.765625 12.171875 48.375 
Q 18.84375 56 30.609375 56 
z
" id="DejaVuSans-111"/>
     <path d="M 9.421875 54.6875 
L 18.40625 54.6875 
L 18.40625 0 
L 9.421875 0 
z
M 9.421875 75.984375 
L 18.40625 75.984375 
L 18.40625 64.59375 
L 9.421875 64.59375 
z
" id="DejaVuSans-105"/>
     <path d="M 18.3125 70.21875 
L 18.3125 54.6875 
L 36.8125 54.6875 
L 36.8125 47.703125 
L 18.3125 47.703125 
L 18.3125 18.015625 
Q 18.3125 11.328125 20.140625 9.421875 
Q 21.96875 7.515625 27.59375 7.515625 
L 36.8125 7.515625 
L 36.8125 0 
L 27.59375 0 
Q 17.1875 0 13.234375 3.875 
Q 9.28125 7.765625 9.28125 18.015625 
L 9.28125 47.703125 
L 2.6875 47.703125 
L 2.6875 54.6875 
L 9.28125 54.6875 
L 9.28125 70.21875 
z
" id="DejaVuSans-116"/>
     <path d="M 54.890625 33.015625 
L 54.890625 0 
L 45.90625 0 
L 45.90625 32.71875 
Q 45.90625 40.484375 42.875 44.328125 
Q 39.84375 48.1875 33.796875 48.1875 
Q 26.515625 48.1875 22.3125 43.546875 
Q 18.109375 38.921875 18.109375 30.90625 
L 18.109375 0 
L 9.078125 0 
L 9.078125 54.6875 
L 18.109375 54.6875 
L 18.109375 46.1875 
Q 21.34375 51.125 25.703125 53.5625 
Q 30.078125 56 35.796875 56 
Q 45.21875 56 50.046875 50.171875 
Q 54.890625 44.34375 54.890625 33.015625 
z
" id="DejaVuSans-110"/>
     <path id="DejaVuSans-32"/>
     <path d="M 37.109375 75.984375 
L 37.109375 68.5 
L 28.515625 68.5 
Q 23.6875 68.5 21.796875 66.546875 
Q 19.921875 64.59375 19.921875 59.515625 
L 19.921875 54.6875 
L 34.71875 54.6875 
L 34.71875 47.703125 
L 19.921875 47.703125 
L 19.921875 0 
L 10.890625 0 
L 10.890625 47.703125 
L 2.296875 47.703125 
L 2.296875 54.6875 
L 10.890625 54.6875 
L 10.890625 58.5 
Q 10.890625 67.625 15.140625 71.796875 
Q 19.390625 75.984375 28.609375 75.984375 
z
" id="DejaVuSans-102"/>
     <path d="M 2.984375 54.6875 
L 12.5 54.6875 
L 29.59375 8.796875 
L 46.6875 54.6875 
L 56.203125 54.6875 
L 35.6875 0 
L 23.484375 0 
z
" id="DejaVuSans-118"/>
     <path d="M 10.6875 12.40625 
L 21 12.40625 
L 21 0 
L 10.6875 0 
z
" id="DejaVuSans-46"/>
     <path d="M 41.109375 46.296875 
Q 39.59375 47.171875 37.8125 47.578125 
Q 36.03125 48 33.890625 48 
Q 26.265625 48 22.1875 43.046875 
Q 18.109375 38.09375 18.109375 28.8125 
L 18.109375 0 
L 9.078125 0 
L 9.078125 54.6875 
L 18.109375 54.6875 
L 18.109375 46.1875 
Q 20.953125 51.171875 25.484375 53.578125 
Q 30.03125 56 36.53125 56 
Q 37.453125 56 38.578125 55.875 
Q 39.703125 55.765625 41.0625 55.515625 
z
" id="DejaVuSans-114"/>
     <path d="M 45.40625 46.390625 
L 45.40625 75.984375 
L 54.390625 75.984375 
L 54.390625 0 
L 45.40625 0 
L 45.40625 8.203125 
Q 42.578125 3.328125 38.25 0.953125 
Q 33.9375 -1.421875 27.875 -1.421875 
Q 17.96875 -1.421875 11.734375 6.484375 
Q 5.515625 14.40625 5.515625 27.296875 
Q 5.515625 40.1875 11.734375 48.09375 
Q 17.96875 56 27.875 56 
Q 33.9375 56 38.25 53.625 
Q 42.578125 51.265625 45.40625 46.390625 
z
M 14.796875 27.296875 
Q 14.796875 17.390625 18.875 11.75 
Q 22.953125 6.109375 30.078125 6.109375 
Q 37.203125 6.109375 41.296875 11.75 
Q 45.40625 17.390625 45.40625 27.296875 
Q 45.40625 37.203125 41.296875 42.84375 
Q 37.203125 48.484375 30.078125 48.484375 
Q 22.953125 48.484375 18.875 42.84375 
Q 14.796875 37.203125 14.796875 27.296875 
z
" id="DejaVuSans-100"/>
     <path d="M 45.40625 27.984375 
Q 45.40625 37.75 41.375 43.109375 
Q 37.359375 48.484375 30.078125 48.484375 
Q 22.859375 48.484375 18.828125 43.109375 
Q 14.796875 37.75 14.796875 27.984375 
Q 14.796875 18.265625 18.828125 12.890625 
Q 22.859375 7.515625 30.078125 7.515625 
Q 37.359375 7.515625 41.375 12.890625 
Q 45.40625 18.265625 45.40625 27.984375 
z
M 54.390625 6.78125 
Q 54.390625 -7.171875 48.1875 -13.984375 
Q 42 -20.796875 29.203125 -20.796875 
Q 24.46875 -20.796875 20.265625 -20.09375 
Q 16.0625 -19.390625 12.109375 -17.921875 
L 12.109375 -9.1875 
Q 16.0625 -11.328125 19.921875 -12.34375 
Q 23.78125 -13.375 27.78125 -13.375 
Q 36.625 -13.375 41.015625 -8.765625 
Q 45.40625 -4.15625 45.40625 5.171875 
L 45.40625 9.625 
Q 42.625 4.78125 38.28125 2.390625 
Q 33.9375 0 27.875 0 
Q 17.828125 0 11.671875 7.65625 
Q 5.515625 15.328125 5.515625 27.984375 
Q 5.515625 40.671875 11.671875 48.328125 
Q 17.828125 56 27.875 56 
Q 33.9375 56 38.28125 53.609375 
Q 42.625 51.21875 45.40625 46.390625 
L 45.40625 54.6875 
L 54.390625 54.6875 
z
" id="DejaVuSans-103"/>
     <path d="M 56.203125 29.59375 
L 56.203125 25.203125 
L 14.890625 25.203125 
Q 15.484375 15.921875 20.484375 11.0625 
Q 25.484375 6.203125 34.421875 6.203125 
Q 39.59375 6.203125 44.453125 7.46875 
Q 49.3125 8.734375 54.109375 11.28125 
L 54.109375 2.78125 
Q 49.265625 0.734375 44.1875 -0.34375 
Q 39.109375 -1.421875 33.890625 -1.421875 
Q 20.796875 -1.421875 13.15625 6.1875 
Q 5.515625 13.8125 5.515625 26.8125 
Q 5.515625 40.234375 12.765625 48.109375 
Q 20.015625 56 32.328125 56 
Q 43.359375 56 49.78125 48.890625 
Q 56.203125 41.796875 56.203125 29.59375 
z
M 47.21875 32.234375 
Q 47.125 39.59375 43.09375 43.984375 
Q 39.0625 48.390625 32.421875 48.390625 
Q 24.90625 48.390625 20.390625 44.140625 
Q 15.875 39.890625 15.1875 32.171875 
z
" id="DejaVuSans-101"/>
     <path d="M 50.984375 -16.609375 
L 50.984375 -23.578125 
L -0.984375 -23.578125 
L -0.984375 -16.609375 
z
" id="DejaVuSans-95"/>
     <path d="M 54.890625 33.015625 
L 54.890625 0 
L 45.90625 0 
L 45.90625 32.71875 
Q 45.90625 40.484375 42.875 44.328125 
Q 39.84375 48.1875 33.796875 48.1875 
Q 26.515625 48.1875 22.3125 43.546875 
Q 18.109375 38.921875 18.109375 30.90625 
L 18.109375 0 
L 9.078125 0 
L 9.078125 75.984375 
L 18.109375 75.984375 
L 18.109375 46.1875 
Q 21.34375 51.125 25.703125 53.5625 
Q 30.078125 56 35.796875 56 
Q 45.21875 56 50.046875 50.171875 
Q 54.890625 44.34375 54.890625 33.015625 
z
" id="DejaVuSans-104"/>
     <path d="M 9.078125 75.984375 
L 18.109375 75.984375 
L 18.109375 31.109375 
L 44.921875 54.6875 
L 56.390625 54.6875 
L 27.390625 29.109375 
L 57.625 0 
L 45.90625 0 
L 18.109375 26.703125 
L 18.109375 0 
L 9.078125 0 
z
" id="DejaVuSans-107"/>
    </defs>
    <g transform="translate(114.0825 35.472)scale(0.12 -0.12)">
     <use xlink:href="#DejaVuSans-65"/>
     <use x="68.408203" xlink:href="#DejaVuSans-115"/>
     <use x="120.507812" xlink:href="#DejaVuSans-115"/>
     <use x="172.607422" xlink:href="#DejaVuSans-111"/>
     <use x="233.789062" xlink:href="#DejaVuSans-99"/>
     <use x="288.769531" xlink:href="#DejaVuSans-105"/>
     <use x="316.552734" xlink:href="#DejaVuSans-97"/>
     <use x="377.832031" xlink:href="#DejaVuSans-116"/>
     <use x="417.041016" xlink:href="#DejaVuSans-105"/>
     <use x="444.824219" xlink:href="#DejaVuSans-111"/>
     <use x="506.005859" xlink:href="#DejaVuSans-110"/>
     <use x="569.384766" xlink:href="#DejaVuSans-32"/>
     <use x="601.171875" xlink:href="#DejaVuSans-111"/>
     <use x="662.353516" xlink:href="#DejaVuSans-102"/>
     <use x="697.558594" xlink:href="#DejaVuSans-32"/>
     <use x="729.345703" xlink:href="#DejaVuSans-97"/>
     <use x="790.625" xlink:href="#DejaVuSans-49"/>
     <use x="854.248047" xlink:href="#DejaVuSans-99"/>
     <use x="909.228516" xlink:href="#DejaVuSans-32"/>
     <use x="941.015625" xlink:href="#DejaVuSans-118"/>
     <use x="1000.195312" xlink:href="#DejaVuSans-115"/>
     <use x="1052.294922" xlink:href="#DejaVuSans-46"/>
     <use x="1084.082031" xlink:href="#DejaVuSans-32"/>
     <use x="1115.869141" xlink:href="#DejaVuSans-99"/>
     <use x="1170.849609" xlink:href="#DejaVuSans-97"/>
     <use x="1232.128906" xlink:href="#DejaVuSans-114"/>
     <use x="1271.492188" xlink:href="#DejaVuSans-100"/>
     <use x="1334.96875" xlink:href="#DejaVuSans-105"/>
     <use x="1362.751953" xlink:href="#DejaVuSans-111"/>
     <use x="1423.933594" xlink:href="#DejaVuSans-103"/>
     <use x="1487.410156" xlink:href="#DejaVuSans-101"/>
     <use x="1548.933594" xlink:href="#DejaVuSans-110"/>
     <use x="1612.3125" xlink:href="#DejaVuSans-105"/>
     <use x="1640.095703" xlink:href="#DejaVuSans-99"/>
     <use x="1695.076172" xlink:href="#DejaVuSans-95"/>
     <use x="1745.076172" xlink:href="#DejaVuSans-115"/>
     <use x="1797.175781" xlink:href="#DejaVuSans-104"/>
     <use x="1860.554688" xlink:href="#DejaVuSans-111"/>
     <use x="1921.736328" xlink:href="#DejaVuSans-99"/>
     <use x="1976.716797" xlink:href="#DejaVuSans-107"/>
    </g>
   </g>
   <g id="legend_1">
    <g id="patch_7">
     <path d="M 233.074687 79.3845 
L 407.72 79.3845 
Q 409.72 79.3845 409.72 77.3845 
L 409.72 48.472 
Q 409.72 46.472 407.72 46.472 
L 233.074687 46.472 
Q 231.074687 46.472 231.074687 48.472 
L 231.074687 77.3845 
Q 231.074687 79.3845 233.074687 79.3845 
z
" style="fill:#ffffff;opacity:0.8;stroke:#cccccc;stroke-linejoin:miter;"/>
    </g>
    <g id="line2d_14">
     <path d="M 235.074687 54.570438 
L 255.074687 54.570438 
" style="fill:none;stroke:#ffa500;stroke-linecap:square;stroke-width:1.5;"/>
    </g>
    <g id="line2d_15"/>
    <g id="text_11">
     <!-- cardiogenic_shock (7) -->
     <defs>
      <path d="M 31 75.875 
Q 24.46875 64.65625 21.28125 53.65625 
Q 18.109375 42.671875 18.109375 31.390625 
Q 18.109375 20.125 21.3125 9.0625 
Q 24.515625 -2 31 -13.1875 
L 23.1875 -13.1875 
Q 15.875 -1.703125 12.234375 9.375 
Q 8.59375 20.453125 8.59375 31.390625 
Q 8.59375 42.28125 12.203125 53.3125 
Q 15.828125 64.359375 23.1875 75.875 
z
" id="DejaVuSans-40"/>
      <path d="M 8.203125 72.90625 
L 55.078125 72.90625 
L 55.078125 68.703125 
L 28.609375 0 
L 18.3125 0 
L 43.21875 64.59375 
L 8.203125 64.59375 
z
" id="DejaVuSans-55"/>
      <path d="M 8.015625 75.875 
L 15.828125 75.875 
Q 23.140625 64.359375 26.78125 53.3125 
Q 30.421875 42.28125 30.421875 31.390625 
Q 30.421875 20.453125 26.78125 9.375 
Q 23.140625 -1.703125 15.828125 -13.1875 
L 8.015625 -13.1875 
Q 14.5 -2 17.703125 9.0625 
Q 20.90625 20.125 20.90625 31.390625 
Q 20.90625 42.671875 17.703125 53.65625 
Q 14.5 64.65625 8.015625 75.875 
z
" id="DejaVuSans-41"/>
     </defs>
     <g transform="translate(263.074687 58.070438)scale(0.1 -0.1)">
      <use xlink:href="#DejaVuSans-99"/>
      <use x="54.980469" xlink:href="#DejaVuSans-97"/>
      <use x="116.259766" xlink:href="#DejaVuSans-114"/>
      <use x="155.623047" xlink:href="#DejaVuSans-100"/>
      <use x="219.099609" xlink:href="#DejaVuSans-105"/>
      <use x="246.882812" xlink:href="#DejaVuSans-111"/>
      <use x="308.064453" xlink:href="#DejaVuSans-103"/>
      <use x="371.541016" xlink:href="#DejaVuSans-101"/>
      <use x="433.064453" xlink:href="#DejaVuSans-110"/>
      <use x="496.443359" xlink:href="#DejaVuSans-105"/>
      <use x="524.226562" xlink:href="#DejaVuSans-99"/>
      <use x="579.207031" xlink:href="#DejaVuSans-95"/>
      <use x="629.207031" xlink:href="#DejaVuSans-115"/>
      <use x="681.306641" xlink:href="#DejaVuSans-104"/>
      <use x="744.685547" xlink:href="#DejaVuSans-111"/>
      <use x="805.867188" xlink:href="#DejaVuSans-99"/>
      <use x="860.847656" xlink:href="#DejaVuSans-107"/>
      <use x="918.757812" xlink:href="#DejaVuSans-32"/>
      <use x="950.544922" xlink:href="#DejaVuSans-40"/>
      <use x="989.558594" xlink:href="#DejaVuSans-55"/>
      <use x="1053.181641" xlink:href="#DejaVuSans-41"/>
     </g>
    </g>
    <g id="line2d_16">
     <path d="M 235.074687 69.526688 
L 255.074687 69.526688 
" style="fill:none;stroke:#008000;stroke-linecap:square;stroke-width:1.5;"/>
    </g>
    <g id="line2d_17"/>
    <g id="text_12">
     <!-- Not cardiogenic_shock (229) -->
     <defs>
      <path d="M 9.8125 72.90625 
L 23.09375 72.90625 
L 55.421875 11.921875 
L 55.421875 72.90625 
L 64.984375 72.90625 
L 64.984375 0 
L 51.703125 0 
L 19.390625 60.984375 
L 19.390625 0 
L 9.8125 0 
z
" id="DejaVuSans-78"/>
      <path d="M 10.984375 1.515625 
L 10.984375 10.5 
Q 14.703125 8.734375 18.5 7.8125 
Q 22.3125 6.890625 25.984375 6.890625 
Q 35.75 6.890625 40.890625 13.453125 
Q 46.046875 20.015625 46.78125 33.40625 
Q 43.953125 29.203125 39.59375 26.953125 
Q 35.25 24.703125 29.984375 24.703125 
Q 19.046875 24.703125 12.671875 31.3125 
Q 6.296875 37.9375 6.296875 49.421875 
Q 6.296875 60.640625 12.9375 67.421875 
Q 19.578125 74.21875 30.609375 74.21875 
Q 43.265625 74.21875 49.921875 64.515625 
Q 56.59375 54.828125 56.59375 36.375 
Q 56.59375 19.140625 48.40625 8.859375 
Q 40.234375 -1.421875 26.421875 -1.421875 
Q 22.703125 -1.421875 18.890625 -0.6875 
Q 15.09375 0.046875 10.984375 1.515625 
z
M 30.609375 32.421875 
Q 37.25 32.421875 41.125 36.953125 
Q 45.015625 41.5 45.015625 49.421875 
Q 45.015625 57.28125 41.125 61.84375 
Q 37.25 66.40625 30.609375 66.40625 
Q 23.96875 66.40625 20.09375 61.84375 
Q 16.21875 57.28125 16.21875 49.421875 
Q 16.21875 41.5 20.09375 36.953125 
Q 23.96875 32.421875 30.609375 32.421875 
z
" id="DejaVuSans-57"/>
     </defs>
     <g transform="translate(263.074687 73.026688)scale(0.1 -0.1)">
      <use xlink:href="#DejaVuSans-78"/>
      <use x="74.804688" xlink:href="#DejaVuSans-111"/>
      <use x="135.986328" xlink:href="#DejaVuSans-116"/>
      <use x="175.195312" xlink:href="#DejaVuSans-32"/>
      <use x="206.982422" xlink:href="#DejaVuSans-99"/>
      <use x="261.962891" xlink:href="#DejaVuSans-97"/>
      <use x="323.242188" xlink:href="#DejaVuSans-114"/>
      <use x="362.605469" xlink:href="#DejaVuSans-100"/>
      <use x="426.082031" xlink:href="#DejaVuSans-105"/>
      <use x="453.865234" xlink:href="#DejaVuSans-111"/>
      <use x="515.046875" xlink:href="#DejaVuSans-103"/>
      <use x="578.523438" xlink:href="#DejaVuSans-101"/>
      <use x="640.046875" xlink:href="#DejaVuSans-110"/>
      <use x="703.425781" xlink:href="#DejaVuSans-105"/>
      <use x="731.208984" xlink:href="#DejaVuSans-99"/>
      <use x="786.189453" xlink:href="#DejaVuSans-95"/>
      <use x="836.189453" xlink:href="#DejaVuSans-115"/>
      <use x="888.289062" xlink:href="#DejaVuSans-104"/>
      <use x="951.667969" xlink:href="#DejaVuSans-111"/>
      <use x="1012.849609" xlink:href="#DejaVuSans-99"/>
      <use x="1067.830078" xlink:href="#DejaVuSans-107"/>
      <use x="1125.740234" xlink:href="#DejaVuSans-32"/>
      <use x="1157.527344" xlink:href="#DejaVuSans-40"/>
      <use x="1196.541016" xlink:href="#DejaVuSans-50"/>
      <use x="1260.164062" xlink:href="#DejaVuSans-50"/>
      <use x="1323.787109" xlink:href="#DejaVuSans-57"/>
      <use x="1387.410156" xlink:href="#DejaVuSans-41"/>
     </g>
    </g>
   </g>
  </g>
 </g>
 <defs>
  <clipPath id="p9923302cd4">
   <rect height="266.112" width="357.12" x="57.6" y="41.472"/>
  </clipPath>
 </defs>
</svg>
