<?xml version="1.0" encoding="utf-8" standalone="no"?>
<!DOCTYPE svg PUBLIC "-//W3C//DTD SVG 1.1//EN"
  "http://www.w3.org/Graphics/SVG/1.1/DTD/svg11.dtd">
<!-- Created with matplotlib (https://matplotlib.org/) -->
<svg height="345.6pt" version="1.1" viewBox="0 0 460.8 345.6" width="460.8pt" xmlns="http://www.w3.org/2000/svg" xmlns:xlink="http://www.w3.org/1999/xlink">
 <defs>
  <style type="text/css">
*{stroke-linecap:butt;stroke-linejoin:round;}
  </style>
 </defs>
 <g id="figure_1">
  <g id="patch_1">
   <path d="M 0 345.6 
L 460.8 345.6 
L 460.8 0 
L 0 0 
z
" style="fill:#ffffff;"/>
  </g>
  <g id="axes_1">
   <g id="patch_2">
    <path d="M 57.6 307.584 
L 414.72 307.584 
L 414.72 41.472 
L 57.6 41.472 
z
" style="fill:#ffffff;"/>
   </g>
   <g id="PolyCollection_1">
    <defs>
     <path d="M 79.306185 -168.985659 
L 79.306185 -173.158341 
L 82.530236 -173.922137 
L 85.754288 -174.910651 
L 88.978339 -176.17063 
L 92.20239 -177.752641 
L 95.426442 -179.709683 
L 98.650493 -182.095254 
L 101.874545 -184.96088 
L 105.098596 -188.353094 
L 108.322647 -192.30994 
L 111.546699 -196.857118 
L 114.77075 -202.003937 
L 117.994802 -207.739362 
L 121.218853 -214.02848 
L 124.442904 -220.809808 
L 127.666956 -227.993863 
L 130.891007 -235.46345 
L 134.115059 -243.076006 
L 137.33911 -250.668217 
L 140.563161 -258.062903 
L 143.787213 -265.077919 
L 147.011264 -271.536502 
L 150.235315 -277.278289 
L 153.459367 -282.169979 
L 156.683418 -286.114555 
L 159.90747 -289.058033 
L 163.131521 -290.992872 
L 166.355572 -291.957522 
L 169.579624 -292.032 
L 172.803675 -291.329844 
L 176.027727 -289.987233 
L 179.251778 -288.150414 
L 182.475829 -285.962793 
L 185.699881 -283.553077 
L 188.923932 -281.025717 
L 192.147984 -278.45462 
L 195.372035 -275.880619 
L 198.596086 -273.312778 
L 201.820138 -270.733094 
L 205.044189 -268.103777 
L 208.268241 -265.376029 
L 211.492292 -262.499148 
L 214.716343 -259.428827 
L 217.940395 -256.133761 
L 221.164446 -252.599969 
L 224.388498 -248.832618 
L 227.612549 -244.85548 
L 230.8366 -240.708462 
L 234.060652 -236.44381 
L 237.284703 -232.121672 
L 240.508754 -227.805642 
L 243.732806 -223.558776 
L 246.956857 -219.440363 
L 250.180909 -215.503568 
L 253.40496 -211.793847 
L 256.629011 -208.347992 
L 259.853063 -205.193578 
L 263.077114 -202.348655 
L 266.301166 -199.82158 
L 269.525217 -197.611015 
L 272.749268 -195.706178 
L 275.97332 -194.087474 
L 279.197371 -192.727667 
L 282.421423 -191.593637 
L 285.645474 -190.648713 
L 288.869525 -189.855419 
L 292.093577 -189.178367 
L 295.317628 -188.586955 
L 298.54168 -188.057504 
L 301.765731 -187.57451 
L 304.989782 -187.130804 
L 308.213834 -186.726553 
L 311.437885 -186.367223 
L 314.661937 -186.060782 
L 317.885988 -185.814556 
L 321.110039 -185.632198 
L 324.334091 -185.511246 
L 327.558142 -185.441642 
L 330.782193 -185.405444 
L 334.006245 -185.377802 
L 337.230296 -185.329044 
L 340.454348 -185.227601 
L 343.678399 -185.043335 
L 346.90245 -184.750826 
L 350.126502 -184.332159 
L 353.350553 -183.778871 
L 356.574605 -183.092814 
L 359.798656 -182.285894 
L 363.022707 -181.378747 
L 366.246759 -180.398611 
L 369.47081 -179.376672 
L 372.694862 -178.34526 
L 375.918913 -177.335209 
L 379.142964 -176.373653 
L 382.367016 -175.482454 
L 385.591067 -174.677314 
L 388.815119 -173.967583 
L 392.03917 -173.356647 
L 395.263221 -172.842752 
L 398.487273 -172.420107 
L 398.487273 -169.723893 
L 398.487273 -169.723893 
L 395.263221 -169.301248 
L 392.03917 -168.787353 
L 388.815119 -168.176417 
L 385.591067 -167.466686 
L 382.367016 -166.661546 
L 379.142964 -165.770347 
L 375.918913 -164.808791 
L 372.694862 -163.79874 
L 369.47081 -162.767328 
L 366.246759 -161.745389 
L 363.022707 -160.765253 
L 359.798656 -159.858106 
L 356.574605 -159.051186 
L 353.350553 -158.365129 
L 350.126502 -157.811841 
L 346.90245 -157.393174 
L 343.678399 -157.100665 
L 340.454348 -156.916399 
L 337.230296 -156.814956 
L 334.006245 -156.766198 
L 330.782193 -156.738556 
L 327.558142 -156.702358 
L 324.334091 -156.632754 
L 321.110039 -156.511802 
L 317.885988 -156.329444 
L 314.661937 -156.083218 
L 311.437885 -155.776777 
L 308.213834 -155.417447 
L 304.989782 -155.013196 
L 301.765731 -154.56949 
L 298.54168 -154.086496 
L 295.317628 -153.557045 
L 292.093577 -152.965633 
L 288.869525 -152.288581 
L 285.645474 -151.495287 
L 282.421423 -150.550363 
L 279.197371 -149.416333 
L 275.97332 -148.056526 
L 272.749268 -146.437822 
L 269.525217 -144.532985 
L 266.301166 -142.32242 
L 263.077114 -139.795345 
L 259.853063 -136.950422 
L 256.629011 -133.796008 
L 253.40496 -130.350153 
L 250.180909 -126.640432 
L 246.956857 -122.703637 
L 243.732806 -118.585224 
L 240.508754 -114.338358 
L 237.284703 -110.022328 
L 234.060652 -105.70019 
L 230.8366 -101.435538 
L 227.612549 -97.28852 
L 224.388498 -93.311382 
L 221.164446 -89.544031 
L 217.940395 -86.010239 
L 214.716343 -82.715173 
L 211.492292 -79.644852 
L 208.268241 -76.767971 
L 205.044189 -74.040223 
L 201.820138 -71.410906 
L 198.596086 -68.831222 
L 195.372035 -66.263381 
L 192.147984 -63.68938 
L 188.923932 -61.118283 
L 185.699881 -58.590923 
L 182.475829 -56.181207 
L 179.251778 -53.993586 
L 176.027727 -52.156767 
L 172.803675 -50.814156 
L 169.579624 -50.112 
L 166.355572 -50.186478 
L 163.131521 -51.151128 
L 159.90747 -53.085967 
L 156.683418 -56.029445 
L 153.459367 -59.974021 
L 150.235315 -64.865711 
L 147.011264 -70.607498 
L 143.787213 -77.066081 
L 140.563161 -84.081097 
L 137.33911 -91.475783 
L 134.115059 -99.067994 
L 130.891007 -106.68055 
L 127.666956 -114.150137 
L 124.442904 -121.334192 
L 121.218853 -128.11552 
L 117.994802 -134.404638 
L 114.77075 -140.140063 
L 111.546699 -145.286882 
L 108.322647 -149.83406 
L 105.098596 -153.790906 
L 101.874545 -157.18312 
L 98.650493 -160.048746 
L 95.426442 -162.434317 
L 92.20239 -164.391359 
L 88.978339 -165.97337 
L 85.754288 -167.233349 
L 82.530236 -168.221863 
L 79.306185 -168.985659 
z
" id="m70adbf3ad8" style="stroke:#4c4c4c;stroke-opacity:0.5;stroke-width:1.5;"/>
    </defs>
    <g clip-path="url(#peca21a92de)">
     <use style="fill:#df9c20;fill-opacity:0.5;stroke:#4c4c4c;stroke-opacity:0.5;stroke-width:1.5;" x="0" xlink:href="#m70adbf3ad8" y="345.6"/>
    </g>
   </g>
   <g id="PolyCollection_2">
    <defs>
     <path d="M 73.832727 -170.323968 
L 73.832727 -171.820032 
L 76.998614 -172.184426 
L 80.164501 -172.686822 
L 83.330387 -173.362583 
L 86.496274 -174.250875 
L 89.662161 -175.394335 
L 92.828047 -176.839116 
L 95.993934 -178.635482 
L 99.159821 -180.838925 
L 102.325707 -183.511415 
L 105.491594 -186.722067 
L 108.657481 -190.546142 
L 111.823368 -195.061242 
L 114.989254 -200.339751 
L 118.155141 -206.437186 
L 121.321028 -213.377064 
L 124.486914 -221.133985 
L 127.652801 -229.61766 
L 130.818688 -238.661203 
L 133.984574 -248.017058 
L 137.150461 -257.363119 
L 140.316348 -266.3202 
L 143.482234 -274.480096 
L 146.648121 -281.441488 
L 149.814008 -286.849286 
L 152.979895 -290.43204 
L 156.145781 -292.032 
L 159.311668 -291.623314 
L 162.477555 -289.315558 
L 165.643441 -285.341969 
L 168.809328 -280.034021 
L 171.975215 -273.78594 
L 175.141101 -267.014064 
L 178.306988 -260.116464 
L 181.472875 -253.437875 
L 184.638761 -247.243903 
L 187.804648 -241.706864 
L 190.970535 -236.903823 
L 194.136421 -232.825682 
L 197.302308 -229.394802 
L 200.468195 -226.487849 
L 203.634082 -223.960236 
L 206.799968 -221.668865 
L 209.965855 -219.49052 
L 213.131742 -217.334223 
L 216.297628 -215.146882 
L 219.463515 -212.912518 
L 222.629402 -210.646162 
L 225.795288 -208.384078 
L 228.961175 -206.172259 
L 232.127062 -204.055179 
L 235.292948 -202.066519 
L 238.458835 -200.223165 
L 241.624722 -198.523135 
L 244.790609 -196.947407 
L 247.956495 -195.464993 
L 251.122382 -194.040079 
L 254.288269 -192.639774 
L 257.454155 -191.241034 
L 260.620042 -189.835528 
L 263.785929 -188.431726 
L 266.951815 -187.053983 
L 270.117702 -185.73892 
L 273.283589 -184.529832 
L 276.449475 -183.470037 
L 279.615362 -182.596187 
L 282.781249 -181.93243 
L 285.947135 -181.486187 
L 289.113022 -181.246054 
L 292.278909 -181.182143 
L 295.444796 -181.248882 
L 298.610682 -181.390055 
L 301.776569 -181.545519 
L 304.942456 -181.658745 
L 308.108342 -181.68408 
L 311.274229 -181.592554 
L 314.440116 -181.37515 
L 317.606002 -181.042871 
L 320.771889 -180.623446 
L 323.937776 -180.155222 
L 327.103662 -179.679357 
L 330.269549 -179.231826 
L 333.435436 -178.836809 
L 336.601323 -178.502752 
L 339.767209 -178.221788 
L 342.933096 -177.972518 
L 346.098983 -177.725367 
L 349.264869 -177.449277 
L 352.430756 -177.118251 
L 355.596643 -176.716395 
L 358.762529 -176.240592 
L 361.928416 -175.700473 
L 365.094303 -175.116027 
L 368.260189 -174.513598 
L 371.426076 -173.921295 
L 374.591963 -173.364763 
L 377.757849 -172.864051 
L 380.923736 -172.431929 
L 384.089623 -172.073657 
L 387.25551 -171.787917 
L 387.25551 -170.356083 
L 387.25551 -170.356083 
L 384.089623 -170.070343 
L 380.923736 -169.712071 
L 377.757849 -169.279949 
L 374.591963 -168.779237 
L 371.426076 -168.222705 
L 368.260189 -167.630402 
L 365.094303 -167.027973 
L 361.928416 -166.443527 
L 358.762529 -165.903408 
L 355.596643 -165.427605 
L 352.430756 -165.025749 
L 349.264869 -164.694723 
L 346.098983 -164.418633 
L 342.933096 -164.171482 
L 339.767209 -163.922212 
L 336.601323 -163.641248 
L 333.435436 -163.307191 
L 330.269549 -162.912174 
L 327.103662 -162.464643 
L 323.937776 -161.988778 
L 320.771889 -161.520554 
L 317.606002 -161.101129 
L 314.440116 -160.76885 
L 311.274229 -160.551446 
L 308.108342 -160.45992 
L 304.942456 -160.485255 
L 301.776569 -160.598481 
L 298.610682 -160.753945 
L 295.444796 -160.895118 
L 292.278909 -160.961857 
L 289.113022 -160.897946 
L 285.947135 -160.657813 
L 282.781249 -160.21157 
L 279.615362 -159.547813 
L 276.449475 -158.673963 
L 273.283589 -157.614168 
L 270.117702 -156.40508 
L 266.951815 -155.090017 
L 263.785929 -153.712274 
L 260.620042 -152.308472 
L 257.454155 -150.902966 
L 254.288269 -149.504226 
L 251.122382 -148.103921 
L 247.956495 -146.679007 
L 244.790609 -145.196593 
L 241.624722 -143.620865 
L 238.458835 -141.920835 
L 235.292948 -140.077481 
L 232.127062 -138.088821 
L 228.961175 -135.971741 
L 225.795288 -133.759922 
L 222.629402 -131.497838 
L 219.463515 -129.231482 
L 216.297628 -126.997118 
L 213.131742 -124.809777 
L 209.965855 -122.65348 
L 206.799968 -120.475135 
L 203.634082 -118.183764 
L 200.468195 -115.656151 
L 197.302308 -112.749198 
L 194.136421 -109.318318 
L 190.970535 -105.240177 
L 187.804648 -100.437136 
L 184.638761 -94.900097 
L 181.472875 -88.706125 
L 178.306988 -82.027536 
L 175.141101 -75.129936 
L 171.975215 -68.35806 
L 168.809328 -62.109979 
L 165.643441 -56.802031 
L 162.477555 -52.828442 
L 159.311668 -50.520686 
L 156.145781 -50.112 
L 152.979895 -51.71196 
L 149.814008 -55.294714 
L 146.648121 -60.702512 
L 143.482234 -67.663904 
L 140.316348 -75.8238 
L 137.150461 -84.780881 
L 133.984574 -94.126942 
L 130.818688 -103.482797 
L 127.652801 -112.52634 
L 124.486914 -121.010015 
L 121.321028 -128.766936 
L 118.155141 -135.706814 
L 114.989254 -141.804249 
L 111.823368 -147.082758 
L 108.657481 -151.597858 
L 105.491594 -155.421933 
L 102.325707 -158.632585 
L 99.159821 -161.305075 
L 95.993934 -163.508518 
L 92.828047 -165.304884 
L 89.662161 -166.749665 
L 86.496274 -167.893125 
L 83.330387 -168.781417 
L 80.164501 -169.457178 
L 76.998614 -169.959574 
L 73.832727 -170.323968 
z
" id="mff7b246f61" style="stroke:#262626;stroke-opacity:0.5;stroke-width:1.5;"/>
    </defs>
    <g clip-path="url(#peca21a92de)">
     <use style="fill:#107010;fill-opacity:0.5;stroke:#262626;stroke-opacity:0.5;stroke-width:1.5;" x="0" xlink:href="#mff7b246f61" y="345.6"/>
    </g>
   </g>
   <g id="matplotlib.axis_1">
    <g id="xtick_1">
     <g id="line2d_1">
      <defs>
       <path d="M 0 0 
L 0 3.5 
" id="mcb87e13003" style="stroke:#000000;stroke-width:0.8;"/>
      </defs>
      <g>
       <use style="stroke:#000000;stroke-width:0.8;" x="64.685141" xlink:href="#mcb87e13003" y="307.584"/>
      </g>
     </g>
     <g id="text_1">
      <!-- 2 -->
      <defs>
       <path d="M 19.1875 8.296875 
L 53.609375 8.296875 
L 53.609375 0 
L 7.328125 0 
L 7.328125 8.296875 
Q 12.9375 14.109375 22.625 23.890625 
Q 32.328125 33.6875 34.8125 36.53125 
Q 39.546875 41.84375 41.421875 45.53125 
Q 43.3125 49.21875 43.3125 52.78125 
Q 43.3125 58.59375 39.234375 62.25 
Q 35.15625 65.921875 28.609375 65.921875 
Q 23.96875 65.921875 18.8125 64.3125 
Q 13.671875 62.703125 7.8125 59.421875 
L 7.8125 69.390625 
Q 13.765625 71.78125 18.9375 73 
Q 24.125 74.21875 28.421875 74.21875 
Q 39.75 74.21875 46.484375 68.546875 
Q 53.21875 62.890625 53.21875 53.421875 
Q 53.21875 48.921875 51.53125 44.890625 
Q 49.859375 40.875 45.40625 35.40625 
Q 44.1875 33.984375 37.640625 27.21875 
Q 31.109375 20.453125 19.1875 8.296875 
z
" id="DejaVuSans-50"/>
      </defs>
      <g transform="translate(61.503891 322.182437)scale(0.1 -0.1)">
       <use xlink:href="#DejaVuSans-50"/>
      </g>
     </g>
    </g>
    <g id="xtick_2">
     <g id="line2d_2">
      <g>
       <use style="stroke:#000000;stroke-width:0.8;" x="112.414343" xlink:href="#mcb87e13003" y="307.584"/>
      </g>
     </g>
     <g id="text_2">
      <!-- 4 -->
      <defs>
       <path d="M 37.796875 64.3125 
L 12.890625 25.390625 
L 37.796875 25.390625 
z
M 35.203125 72.90625 
L 47.609375 72.90625 
L 47.609375 25.390625 
L 58.015625 25.390625 
L 58.015625 17.1875 
L 47.609375 17.1875 
L 47.609375 0 
L 37.796875 0 
L 37.796875 17.1875 
L 4.890625 17.1875 
L 4.890625 26.703125 
z
" id="DejaVuSans-52"/>
      </defs>
      <g transform="translate(109.233093 322.182437)scale(0.1 -0.1)">
       <use xlink:href="#DejaVuSans-52"/>
      </g>
     </g>
    </g>
    <g id="xtick_3">
     <g id="line2d_3">
      <g>
       <use style="stroke:#000000;stroke-width:0.8;" x="160.143545" xlink:href="#mcb87e13003" y="307.584"/>
      </g>
     </g>
     <g id="text_3">
      <!-- 6 -->
      <defs>
       <path d="M 33.015625 40.375 
Q 26.375 40.375 22.484375 35.828125 
Q 18.609375 31.296875 18.609375 23.390625 
Q 18.609375 15.53125 22.484375 10.953125 
Q 26.375 6.390625 33.015625 6.390625 
Q 39.65625 6.390625 43.53125 10.953125 
Q 47.40625 15.53125 47.40625 23.390625 
Q 47.40625 31.296875 43.53125 35.828125 
Q 39.65625 40.375 33.015625 40.375 
z
M 52.59375 71.296875 
L 52.59375 62.3125 
Q 48.875 64.0625 45.09375 64.984375 
Q 41.3125 65.921875 37.59375 65.921875 
Q 27.828125 65.921875 22.671875 59.328125 
Q 17.53125 52.734375 16.796875 39.40625 
Q 19.671875 43.65625 24.015625 45.921875 
Q 28.375 48.1875 33.59375 48.1875 
Q 44.578125 48.1875 50.953125 41.515625 
Q 57.328125 34.859375 57.328125 23.390625 
Q 57.328125 12.15625 50.6875 5.359375 
Q 44.046875 -1.421875 33.015625 -1.421875 
Q 20.359375 -1.421875 13.671875 8.265625 
Q 6.984375 17.96875 6.984375 36.375 
Q 6.984375 53.65625 15.1875 63.9375 
Q 23.390625 74.21875 37.203125 74.21875 
Q 40.921875 74.21875 44.703125 73.484375 
Q 48.484375 72.75 52.59375 71.296875 
z
" id="DejaVuSans-54"/>
      </defs>
      <g transform="translate(156.962295 322.182437)scale(0.1 -0.1)">
       <use xlink:href="#DejaVuSans-54"/>
      </g>
     </g>
    </g>
    <g id="xtick_4">
     <g id="line2d_4">
      <g>
       <use style="stroke:#000000;stroke-width:0.8;" x="207.872747" xlink:href="#mcb87e13003" y="307.584"/>
      </g>
     </g>
     <g id="text_4">
      <!-- 8 -->
      <defs>
       <path d="M 31.78125 34.625 
Q 24.75 34.625 20.71875 30.859375 
Q 16.703125 27.09375 16.703125 20.515625 
Q 16.703125 13.921875 20.71875 10.15625 
Q 24.75 6.390625 31.78125 6.390625 
Q 38.8125 6.390625 42.859375 10.171875 
Q 46.921875 13.96875 46.921875 20.515625 
Q 46.921875 27.09375 42.890625 30.859375 
Q 38.875 34.625 31.78125 34.625 
z
M 21.921875 38.8125 
Q 15.578125 40.375 12.03125 44.71875 
Q 8.5 49.078125 8.5 55.328125 
Q 8.5 64.0625 14.71875 69.140625 
Q 20.953125 74.21875 31.78125 74.21875 
Q 42.671875 74.21875 48.875 69.140625 
Q 55.078125 64.0625 55.078125 55.328125 
Q 55.078125 49.078125 51.53125 44.71875 
Q 48 40.375 41.703125 38.8125 
Q 48.828125 37.15625 52.796875 32.3125 
Q 56.78125 27.484375 56.78125 20.515625 
Q 56.78125 9.90625 50.3125 4.234375 
Q 43.84375 -1.421875 31.78125 -1.421875 
Q 19.734375 -1.421875 13.25 4.234375 
Q 6.78125 9.90625 6.78125 20.515625 
Q 6.78125 27.484375 10.78125 32.3125 
Q 14.796875 37.15625 21.921875 38.8125 
z
M 18.3125 54.390625 
Q 18.3125 48.734375 21.84375 45.5625 
Q 25.390625 42.390625 31.78125 42.390625 
Q 38.140625 42.390625 41.71875 45.5625 
Q 45.3125 48.734375 45.3125 54.390625 
Q 45.3125 60.0625 41.71875 63.234375 
Q 38.140625 66.40625 31.78125 66.40625 
Q 25.390625 66.40625 21.84375 63.234375 
Q 18.3125 60.0625 18.3125 54.390625 
z
" id="DejaVuSans-56"/>
      </defs>
      <g transform="translate(204.691497 322.182437)scale(0.1 -0.1)">
       <use xlink:href="#DejaVuSans-56"/>
      </g>
     </g>
    </g>
    <g id="xtick_5">
     <g id="line2d_5">
      <g>
       <use style="stroke:#000000;stroke-width:0.8;" x="255.601949" xlink:href="#mcb87e13003" y="307.584"/>
      </g>
     </g>
     <g id="text_5">
      <!-- 10 -->
      <defs>
       <path d="M 12.40625 8.296875 
L 28.515625 8.296875 
L 28.515625 63.921875 
L 10.984375 60.40625 
L 10.984375 69.390625 
L 28.421875 72.90625 
L 38.28125 72.90625 
L 38.28125 8.296875 
L 54.390625 8.296875 
L 54.390625 0 
L 12.40625 0 
z
" id="DejaVuSans-49"/>
       <path d="M 31.78125 66.40625 
Q 24.171875 66.40625 20.328125 58.90625 
Q 16.5 51.421875 16.5 36.375 
Q 16.5 21.390625 20.328125 13.890625 
Q 24.171875 6.390625 31.78125 6.390625 
Q 39.453125 6.390625 43.28125 13.890625 
Q 47.125 21.390625 47.125 36.375 
Q 47.125 51.421875 43.28125 58.90625 
Q 39.453125 66.40625 31.78125 66.40625 
z
M 31.78125 74.21875 
Q 44.046875 74.21875 50.515625 64.515625 
Q 56.984375 54.828125 56.984375 36.375 
Q 56.984375 17.96875 50.515625 8.265625 
Q 44.046875 -1.421875 31.78125 -1.421875 
Q 19.53125 -1.421875 13.0625 8.265625 
Q 6.59375 17.96875 6.59375 36.375 
Q 6.59375 54.828125 13.0625 64.515625 
Q 19.53125 74.21875 31.78125 74.21875 
z
" id="DejaVuSans-48"/>
      </defs>
      <g transform="translate(249.239449 322.182437)scale(0.1 -0.1)">
       <use xlink:href="#DejaVuSans-49"/>
       <use x="63.623047" xlink:href="#DejaVuSans-48"/>
      </g>
     </g>
    </g>
    <g id="xtick_6">
     <g id="line2d_6">
      <g>
       <use style="stroke:#000000;stroke-width:0.8;" x="303.331152" xlink:href="#mcb87e13003" y="307.584"/>
      </g>
     </g>
     <g id="text_6">
      <!-- 12 -->
      <g transform="translate(296.968652 322.182437)scale(0.1 -0.1)">
       <use xlink:href="#DejaVuSans-49"/>
       <use x="63.623047" xlink:href="#DejaVuSans-50"/>
      </g>
     </g>
    </g>
    <g id="xtick_7">
     <g id="line2d_7">
      <g>
       <use style="stroke:#000000;stroke-width:0.8;" x="351.060354" xlink:href="#mcb87e13003" y="307.584"/>
      </g>
     </g>
     <g id="text_7">
      <!-- 14 -->
      <g transform="translate(344.697854 322.182437)scale(0.1 -0.1)">
       <use xlink:href="#DejaVuSans-49"/>
       <use x="63.623047" xlink:href="#DejaVuSans-52"/>
      </g>
     </g>
    </g>
    <g id="xtick_8">
     <g id="line2d_8">
      <g>
       <use style="stroke:#000000;stroke-width:0.8;" x="398.789556" xlink:href="#mcb87e13003" y="307.584"/>
      </g>
     </g>
     <g id="text_8">
      <!-- 16 -->
      <g transform="translate(392.427056 322.182437)scale(0.1 -0.1)">
       <use xlink:href="#DejaVuSans-49"/>
       <use x="63.623047" xlink:href="#DejaVuSans-54"/>
      </g>
     </g>
    </g>
    <g id="text_9">
     <!-- a1c -->
     <defs>
      <path d="M 34.28125 27.484375 
Q 23.390625 27.484375 19.1875 25 
Q 14.984375 22.515625 14.984375 16.5 
Q 14.984375 11.71875 18.140625 8.90625 
Q 21.296875 6.109375 26.703125 6.109375 
Q 34.1875 6.109375 38.703125 11.40625 
Q 43.21875 16.703125 43.21875 25.484375 
L 43.21875 27.484375 
z
M 52.203125 31.203125 
L 52.203125 0 
L 43.21875 0 
L 43.21875 8.296875 
Q 40.140625 3.328125 35.546875 0.953125 
Q 30.953125 -1.421875 24.3125 -1.421875 
Q 15.921875 -1.421875 10.953125 3.296875 
Q 6 8.015625 6 15.921875 
Q 6 25.140625 12.171875 29.828125 
Q 18.359375 34.515625 30.609375 34.515625 
L 43.21875 34.515625 
L 43.21875 35.40625 
Q 43.21875 41.609375 39.140625 45 
Q 35.0625 48.390625 27.6875 48.390625 
Q 23 48.390625 18.546875 47.265625 
Q 14.109375 46.140625 10.015625 43.890625 
L 10.015625 52.203125 
Q 14.9375 54.109375 19.578125 55.046875 
Q 24.21875 56 28.609375 56 
Q 40.484375 56 46.34375 49.84375 
Q 52.203125 43.703125 52.203125 31.203125 
z
" id="DejaVuSans-97"/>
      <path d="M 48.78125 52.59375 
L 48.78125 44.1875 
Q 44.96875 46.296875 41.140625 47.34375 
Q 37.3125 48.390625 33.40625 48.390625 
Q 24.65625 48.390625 19.8125 42.84375 
Q 14.984375 37.3125 14.984375 27.296875 
Q 14.984375 17.28125 19.8125 11.734375 
Q 24.65625 6.203125 33.40625 6.203125 
Q 37.3125 6.203125 41.140625 7.25 
Q 44.96875 8.296875 48.78125 10.40625 
L 48.78125 2.09375 
Q 45.015625 0.34375 40.984375 -0.53125 
Q 36.96875 -1.421875 32.421875 -1.421875 
Q 20.0625 -1.421875 12.78125 6.34375 
Q 5.515625 14.109375 5.515625 27.296875 
Q 5.515625 40.671875 12.859375 48.328125 
Q 20.21875 56 33.015625 56 
Q 37.15625 56 41.109375 55.140625 
Q 45.0625 54.296875 48.78125 52.59375 
z
" id="DejaVuSans-99"/>
     </defs>
     <g transform="translate(227.165469 335.860562)scale(0.1 -0.1)">
      <use xlink:href="#DejaVuSans-97"/>
      <use x="61.279297" xlink:href="#DejaVuSans-49"/>
      <use x="124.902344" xlink:href="#DejaVuSans-99"/>
     </g>
    </g>
   </g>
   <g id="matplotlib.axis_2">
    <g id="ytick_1">
     <g id="line2d_9">
      <defs>
       <path d="M 0 0 
L -3.5 0 
" id="m7eaa1c6969" style="stroke:#000000;stroke-width:0.8;"/>
      </defs>
      <g>
       <use style="stroke:#000000;stroke-width:0.8;" x="57.6" xlink:href="#m7eaa1c6969" y="174.528"/>
      </g>
     </g>
    </g>
   </g>
   <g id="line2d_10">
    <path clip-path="url(#peca21a92de)" d="M 126.733104 174.528 
L 300.944691 174.528 
" style="fill:none;stroke:#ffa500;stroke-linecap:square;stroke-width:1.5;"/>
   </g>
   <g id="line2d_11">
    <path clip-path="url(#peca21a92de)" d="M 160.143545 174.528 
L 217.418588 174.528 
" style="fill:none;stroke:#4c4c4c;stroke-linecap:square;stroke-width:4.5;"/>
   </g>
   <g id="line2d_12">
    <path clip-path="url(#peca21a92de)" d="M 110.027883 174.528 
L 289.012391 174.528 
" style="fill:none;stroke:#008000;stroke-linecap:square;stroke-width:1.5;"/>
   </g>
   <g id="line2d_13">
    <path clip-path="url(#peca21a92de)" d="M 150.597705 174.528 
L 207.872747 174.528 
" style="fill:none;stroke:#262626;stroke-linecap:square;stroke-width:4.5;"/>
   </g>
   <g id="patch_3">
    <path d="M 57.6 307.584 
L 57.6 41.472 
" style="fill:none;stroke:#000000;stroke-linecap:square;stroke-linejoin:miter;stroke-width:0.8;"/>
   </g>
   <g id="patch_4">
    <path d="M 414.72 307.584 
L 414.72 41.472 
" style="fill:none;stroke:#000000;stroke-linecap:square;stroke-linejoin:miter;stroke-width:0.8;"/>
   </g>
   <g id="patch_5">
    <path d="M 57.6 307.584 
L 414.72 307.584 
" style="fill:none;stroke:#000000;stroke-linecap:square;stroke-linejoin:miter;stroke-width:0.8;"/>
   </g>
   <g id="patch_6">
    <path d="M 57.6 41.472 
L 414.72 41.472 
" style="fill:none;stroke:#000000;stroke-linecap:square;stroke-linejoin:miter;stroke-width:0.8;"/>
   </g>
   <g id="PathCollection_1">
    <defs>
     <path d="M 0 1.5 
C 0.397805 1.5 0.77937 1.341951 1.06066 1.06066 
C 1.341951 0.77937 1.5 0.397805 1.5 0 
C 1.5 -0.397805 1.341951 -0.77937 1.06066 -1.06066 
C 0.77937 -1.341951 0.397805 -1.5 0 -1.5 
C -0.397805 -1.5 -0.77937 -1.341951 -1.06066 -1.06066 
C -1.341951 -0.77937 -1.5 -0.397805 -1.5 0 
C -1.5 0.397805 -1.341951 0.77937 -1.06066 1.06066 
C -0.77937 1.341951 -0.397805 1.5 0 1.5 
z
" id="mb1f4843958" style="stroke:#4c4c4c;stroke-opacity:0.5;"/>
    </defs>
    <g clip-path="url(#peca21a92de)">
     <use style="fill:#ffffff;fill-opacity:0.5;stroke:#4c4c4c;stroke-opacity:0.5;" x="184.008146" xlink:href="#mb1f4843958" y="174.528"/>
    </g>
   </g>
   <g id="PathCollection_2">
    <defs>
     <path d="M 0 1.5 
C 0.397805 1.5 0.77937 1.341951 1.06066 1.06066 
C 1.341951 0.77937 1.5 0.397805 1.5 0 
C 1.5 -0.397805 1.341951 -0.77937 1.06066 -1.06066 
C 0.77937 -1.341951 0.397805 -1.5 0 -1.5 
C -0.397805 -1.5 -0.77937 -1.341951 -1.06066 -1.06066 
C -1.341951 -0.77937 -1.5 -0.397805 -1.5 0 
C -1.5 0.397805 -1.341951 0.77937 -1.06066 1.06066 
C -0.77937 1.341951 -0.397805 1.5 0 1.5 
z
" id="mb8a2c333d3" style="stroke:#262626;stroke-opacity:0.5;"/>
    </defs>
    <g clip-path="url(#peca21a92de)">
     <use style="fill:#ffffff;fill-opacity:0.5;stroke:#262626;stroke-opacity:0.5;" x="164.916466" xlink:href="#mb8a2c333d3" y="174.528"/>
    </g>
   </g>
   <g id="text_10">
    <!-- Association of a1c vs. non_rebreather_mask -->
    <defs>
     <path d="M 34.1875 63.1875 
L 20.796875 26.90625 
L 47.609375 26.90625 
z
M 28.609375 72.90625 
L 39.796875 72.90625 
L 67.578125 0 
L 57.328125 0 
L 50.6875 18.703125 
L 17.828125 18.703125 
L 11.1875 0 
L 0.78125 0 
z
" id="DejaVuSans-65"/>
     <path d="M 44.28125 53.078125 
L 44.28125 44.578125 
Q 40.484375 46.53125 36.375 47.5 
Q 32.28125 48.484375 27.875 48.484375 
Q 21.1875 48.484375 17.84375 46.4375 
Q 14.5 44.390625 14.5 40.28125 
Q 14.5 37.15625 16.890625 35.375 
Q 19.28125 33.59375 26.515625 31.984375 
L 29.59375 31.296875 
Q 39.15625 29.25 43.1875 25.515625 
Q 47.21875 21.78125 47.21875 15.09375 
Q 47.21875 7.46875 41.1875 3.015625 
Q 35.15625 -1.421875 24.609375 -1.421875 
Q 20.21875 -1.421875 15.453125 -0.5625 
Q 10.6875 0.296875 5.421875 2 
L 5.421875 11.28125 
Q 10.40625 8.6875 15.234375 7.390625 
Q 20.0625 6.109375 24.8125 6.109375 
Q 31.15625 6.109375 34.5625 8.28125 
Q 37.984375 10.453125 37.984375 14.40625 
Q 37.984375 18.0625 35.515625 20.015625 
Q 33.0625 21.96875 24.703125 23.78125 
L 21.578125 24.515625 
Q 13.234375 26.265625 9.515625 29.90625 
Q 5.8125 33.546875 5.8125 39.890625 
Q 5.8125 47.609375 11.28125 51.796875 
Q 16.75 56 26.8125 56 
Q 31.78125 56 36.171875 55.265625 
Q 40.578125 54.546875 44.28125 53.078125 
z
" id="DejaVuSans-115"/>
     <path d="M 30.609375 48.390625 
Q 23.390625 48.390625 19.1875 42.75 
Q 14.984375 37.109375 14.984375 27.296875 
Q 14.984375 17.484375 19.15625 11.84375 
Q 23.34375 6.203125 30.609375 6.203125 
Q 37.796875 6.203125 41.984375 11.859375 
Q 46.1875 17.53125 46.1875 27.296875 
Q 46.1875 37.015625 41.984375 42.703125 
Q 37.796875 48.390625 30.609375 48.390625 
z
M 30.609375 56 
Q 42.328125 56 49.015625 48.375 
Q 55.71875 40.765625 55.71875 27.296875 
Q 55.71875 13.875 49.015625 6.21875 
Q 42.328125 -1.421875 30.609375 -1.421875 
Q 18.84375 -1.421875 12.171875 6.21875 
Q 5.515625 13.875 5.515625 27.296875 
Q 5.515625 40.765625 12.171875 48.375 
Q 18.84375 56 30.609375 56 
z
" id="DejaVuSans-111"/>
     <path d="M 9.421875 54.6875 
L 18.40625 54.6875 
L 18.40625 0 
L 9.421875 0 
z
M 9.421875 75.984375 
L 18.40625 75.984375 
L 18.40625 64.59375 
L 9.421875 64.59375 
z
" id="DejaVuSans-105"/>
     <path d="M 18.3125 70.21875 
L 18.3125 54.6875 
L 36.8125 54.6875 
L 36.8125 47.703125 
L 18.3125 47.703125 
L 18.3125 18.015625 
Q 18.3125 11.328125 20.140625 9.421875 
Q 21.96875 7.515625 27.59375 7.515625 
L 36.8125 7.515625 
L 36.8125 0 
L 27.59375 0 
Q 17.1875 0 13.234375 3.875 
Q 9.28125 7.765625 9.28125 18.015625 
L 9.28125 47.703125 
L 2.6875 47.703125 
L 2.6875 54.6875 
L 9.28125 54.6875 
L 9.28125 70.21875 
z
" id="DejaVuSans-116"/>
     <path d="M 54.890625 33.015625 
L 54.890625 0 
L 45.90625 0 
L 45.90625 32.71875 
Q 45.90625 40.484375 42.875 44.328125 
Q 39.84375 48.1875 33.796875 48.1875 
Q 26.515625 48.1875 22.3125 43.546875 
Q 18.109375 38.921875 18.109375 30.90625 
L 18.109375 0 
L 9.078125 0 
L 9.078125 54.6875 
L 18.109375 54.6875 
L 18.109375 46.1875 
Q 21.34375 51.125 25.703125 53.5625 
Q 30.078125 56 35.796875 56 
Q 45.21875 56 50.046875 50.171875 
Q 54.890625 44.34375 54.890625 33.015625 
z
" id="DejaVuSans-110"/>
     <path id="DejaVuSans-32"/>
     <path d="M 37.109375 75.984375 
L 37.109375 68.5 
L 28.515625 68.5 
Q 23.6875 68.5 21.796875 66.546875 
Q 19.921875 64.59375 19.921875 59.515625 
L 19.921875 54.6875 
L 34.71875 54.6875 
L 34.71875 47.703125 
L 19.921875 47.703125 
L 19.921875 0 
L 10.890625 0 
L 10.890625 47.703125 
L 2.296875 47.703125 
L 2.296875 54.6875 
L 10.890625 54.6875 
L 10.890625 58.5 
Q 10.890625 67.625 15.140625 71.796875 
Q 19.390625 75.984375 28.609375 75.984375 
z
" id="DejaVuSans-102"/>
     <path d="M 2.984375 54.6875 
L 12.5 54.6875 
L 29.59375 8.796875 
L 46.6875 54.6875 
L 56.203125 54.6875 
L 35.6875 0 
L 23.484375 0 
z
" id="DejaVuSans-118"/>
     <path d="M 10.6875 12.40625 
L 21 12.40625 
L 21 0 
L 10.6875 0 
z
" id="DejaVuSans-46"/>
     <path d="M 50.984375 -16.609375 
L 50.984375 -23.578125 
L -0.984375 -23.578125 
L -0.984375 -16.609375 
z
" id="DejaVuSans-95"/>
     <path d="M 41.109375 46.296875 
Q 39.59375 47.171875 37.8125 47.578125 
Q 36.03125 48 33.890625 48 
Q 26.265625 48 22.1875 43.046875 
Q 18.109375 38.09375 18.109375 28.8125 
L 18.109375 0 
L 9.078125 0 
L 9.078125 54.6875 
L 18.109375 54.6875 
L 18.109375 46.1875 
Q 20.953125 51.171875 25.484375 53.578125 
Q 30.03125 56 36.53125 56 
Q 37.453125 56 38.578125 55.875 
Q 39.703125 55.765625 41.0625 55.515625 
z
" id="DejaVuSans-114"/>
     <path d="M 56.203125 29.59375 
L 56.203125 25.203125 
L 14.890625 25.203125 
Q 15.484375 15.921875 20.484375 11.0625 
Q 25.484375 6.203125 34.421875 6.203125 
Q 39.59375 6.203125 44.453125 7.46875 
Q 49.3125 8.734375 54.109375 11.28125 
L 54.109375 2.78125 
Q 49.265625 0.734375 44.1875 -0.34375 
Q 39.109375 -1.421875 33.890625 -1.421875 
Q 20.796875 -1.421875 13.15625 6.1875 
Q 5.515625 13.8125 5.515625 26.8125 
Q 5.515625 40.234375 12.765625 48.109375 
Q 20.015625 56 32.328125 56 
Q 43.359375 56 49.78125 48.890625 
Q 56.203125 41.796875 56.203125 29.59375 
z
M 47.21875 32.234375 
Q 47.125 39.59375 43.09375 43.984375 
Q 39.0625 48.390625 32.421875 48.390625 
Q 24.90625 48.390625 20.390625 44.140625 
Q 15.875 39.890625 15.1875 32.171875 
z
" id="DejaVuSans-101"/>
     <path d="M 48.6875 27.296875 
Q 48.6875 37.203125 44.609375 42.84375 
Q 40.53125 48.484375 33.40625 48.484375 
Q 26.265625 48.484375 22.1875 42.84375 
Q 18.109375 37.203125 18.109375 27.296875 
Q 18.109375 17.390625 22.1875 11.75 
Q 26.265625 6.109375 33.40625 6.109375 
Q 40.53125 6.109375 44.609375 11.75 
Q 48.6875 17.390625 48.6875 27.296875 
z
M 18.109375 46.390625 
Q 20.953125 51.265625 25.265625 53.625 
Q 29.59375 56 35.59375 56 
Q 45.5625 56 51.78125 48.09375 
Q 58.015625 40.1875 58.015625 27.296875 
Q 58.015625 14.40625 51.78125 6.484375 
Q 45.5625 -1.421875 35.59375 -1.421875 
Q 29.59375 -1.421875 25.265625 0.953125 
Q 20.953125 3.328125 18.109375 8.203125 
L 18.109375 0 
L 9.078125 0 
L 9.078125 75.984375 
L 18.109375 75.984375 
z
" id="DejaVuSans-98"/>
     <path d="M 54.890625 33.015625 
L 54.890625 0 
L 45.90625 0 
L 45.90625 32.71875 
Q 45.90625 40.484375 42.875 44.328125 
Q 39.84375 48.1875 33.796875 48.1875 
Q 26.515625 48.1875 22.3125 43.546875 
Q 18.109375 38.921875 18.109375 30.90625 
L 18.109375 0 
L 9.078125 0 
L 9.078125 75.984375 
L 18.109375 75.984375 
L 18.109375 46.1875 
Q 21.34375 51.125 25.703125 53.5625 
Q 30.078125 56 35.796875 56 
Q 45.21875 56 50.046875 50.171875 
Q 54.890625 44.34375 54.890625 33.015625 
z
" id="DejaVuSans-104"/>
     <path d="M 52 44.1875 
Q 55.375 50.25 60.0625 53.125 
Q 64.75 56 71.09375 56 
Q 79.640625 56 84.28125 50.015625 
Q 88.921875 44.046875 88.921875 33.015625 
L 88.921875 0 
L 79.890625 0 
L 79.890625 32.71875 
Q 79.890625 40.578125 77.09375 44.375 
Q 74.3125 48.1875 68.609375 48.1875 
Q 61.625 48.1875 57.5625 43.546875 
Q 53.515625 38.921875 53.515625 30.90625 
L 53.515625 0 
L 44.484375 0 
L 44.484375 32.71875 
Q 44.484375 40.625 41.703125 44.40625 
Q 38.921875 48.1875 33.109375 48.1875 
Q 26.21875 48.1875 22.15625 43.53125 
Q 18.109375 38.875 18.109375 30.90625 
L 18.109375 0 
L 9.078125 0 
L 9.078125 54.6875 
L 18.109375 54.6875 
L 18.109375 46.1875 
Q 21.1875 51.21875 25.484375 53.609375 
Q 29.78125 56 35.6875 56 
Q 41.65625 56 45.828125 52.96875 
Q 50 49.953125 52 44.1875 
z
" id="DejaVuSans-109"/>
     <path d="M 9.078125 75.984375 
L 18.109375 75.984375 
L 18.109375 31.109375 
L 44.921875 54.6875 
L 56.390625 54.6875 
L 27.390625 29.109375 
L 57.625 0 
L 45.90625 0 
L 18.109375 26.703125 
L 18.109375 0 
L 9.078125 0 
z
" id="DejaVuSans-107"/>
    </defs>
    <g transform="translate(103.965937 35.472)scale(0.12 -0.12)">
     <use xlink:href="#DejaVuSans-65"/>
     <use x="68.408203" xlink:href="#DejaVuSans-115"/>
     <use x="120.507812" xlink:href="#DejaVuSans-115"/>
     <use x="172.607422" xlink:href="#DejaVuSans-111"/>
     <use x="233.789062" xlink:href="#DejaVuSans-99"/>
     <use x="288.769531" xlink:href="#DejaVuSans-105"/>
     <use x="316.552734" xlink:href="#DejaVuSans-97"/>
     <use x="377.832031" xlink:href="#DejaVuSans-116"/>
     <use x="417.041016" xlink:href="#DejaVuSans-105"/>
     <use x="444.824219" xlink:href="#DejaVuSans-111"/>
     <use x="506.005859" xlink:href="#DejaVuSans-110"/>
     <use x="569.384766" xlink:href="#DejaVuSans-32"/>
     <use x="601.171875" xlink:href="#DejaVuSans-111"/>
     <use x="662.353516" xlink:href="#DejaVuSans-102"/>
     <use x="697.558594" xlink:href="#DejaVuSans-32"/>
     <use x="729.345703" xlink:href="#DejaVuSans-97"/>
     <use x="790.625" xlink:href="#DejaVuSans-49"/>
     <use x="854.248047" xlink:href="#DejaVuSans-99"/>
     <use x="909.228516" xlink:href="#DejaVuSans-32"/>
     <use x="941.015625" xlink:href="#DejaVuSans-118"/>
     <use x="1000.195312" xlink:href="#DejaVuSans-115"/>
     <use x="1052.294922" xlink:href="#DejaVuSans-46"/>
     <use x="1084.082031" xlink:href="#DejaVuSans-32"/>
     <use x="1115.869141" xlink:href="#DejaVuSans-110"/>
     <use x="1179.248047" xlink:href="#DejaVuSans-111"/>
     <use x="1240.429688" xlink:href="#DejaVuSans-110"/>
     <use x="1303.808594" xlink:href="#DejaVuSans-95"/>
     <use x="1353.808594" xlink:href="#DejaVuSans-114"/>
     <use x="1392.671875" xlink:href="#DejaVuSans-101"/>
     <use x="1454.195312" xlink:href="#DejaVuSans-98"/>
     <use x="1517.671875" xlink:href="#DejaVuSans-114"/>
     <use x="1556.535156" xlink:href="#DejaVuSans-101"/>
     <use x="1618.058594" xlink:href="#DejaVuSans-97"/>
     <use x="1679.337891" xlink:href="#DejaVuSans-116"/>
     <use x="1718.546875" xlink:href="#DejaVuSans-104"/>
     <use x="1781.925781" xlink:href="#DejaVuSans-101"/>
     <use x="1843.449219" xlink:href="#DejaVuSans-114"/>
     <use x="1884.5625" xlink:href="#DejaVuSans-95"/>
     <use x="1934.5625" xlink:href="#DejaVuSans-109"/>
     <use x="2031.974609" xlink:href="#DejaVuSans-97"/>
     <use x="2093.253906" xlink:href="#DejaVuSans-115"/>
     <use x="2145.353516" xlink:href="#DejaVuSans-107"/>
    </g>
   </g>
   <g id="legend_1">
    <g id="patch_7">
     <path d="M 216.21375 79.3845 
L 407.72 79.3845 
Q 409.72 79.3845 409.72 77.3845 
L 409.72 48.472 
Q 409.72 46.472 407.72 46.472 
L 216.21375 46.472 
Q 214.21375 46.472 214.21375 48.472 
L 214.21375 77.3845 
Q 214.21375 79.3845 216.21375 79.3845 
z
" style="fill:#ffffff;opacity:0.8;stroke:#cccccc;stroke-linejoin:miter;"/>
    </g>
    <g id="line2d_14">
     <path d="M 218.21375 54.570438 
L 238.21375 54.570438 
" style="fill:none;stroke:#ffa500;stroke-linecap:square;stroke-width:1.5;"/>
    </g>
    <g id="line2d_15"/>
    <g id="text_11">
     <!-- non_rebreather_mask (60) -->
     <defs>
      <path d="M 31 75.875 
Q 24.46875 64.65625 21.28125 53.65625 
Q 18.109375 42.671875 18.109375 31.390625 
Q 18.109375 20.125 21.3125 9.0625 
Q 24.515625 -2 31 -13.1875 
L 23.1875 -13.1875 
Q 15.875 -1.703125 12.234375 9.375 
Q 8.59375 20.453125 8.59375 31.390625 
Q 8.59375 42.28125 12.203125 53.3125 
Q 15.828125 64.359375 23.1875 75.875 
z
" id="DejaVuSans-40"/>
      <path d="M 8.015625 75.875 
L 15.828125 75.875 
Q 23.140625 64.359375 26.78125 53.3125 
Q 30.421875 42.28125 30.421875 31.390625 
Q 30.421875 20.453125 26.78125 9.375 
Q 23.140625 -1.703125 15.828125 -13.1875 
L 8.015625 -13.1875 
Q 14.5 -2 17.703125 9.0625 
Q 20.90625 20.125 20.90625 31.390625 
Q 20.90625 42.671875 17.703125 53.65625 
Q 14.5 64.65625 8.015625 75.875 
z
" id="DejaVuSans-41"/>
     </defs>
     <g transform="translate(246.21375 58.070438)scale(0.1 -0.1)">
      <use xlink:href="#DejaVuSans-110"/>
      <use x="63.378906" xlink:href="#DejaVuSans-111"/>
      <use x="124.560547" xlink:href="#DejaVuSans-110"/>
      <use x="187.939453" xlink:href="#DejaVuSans-95"/>
      <use x="237.939453" xlink:href="#DejaVuSans-114"/>
      <use x="276.802734" xlink:href="#DejaVuSans-101"/>
      <use x="338.326172" xlink:href="#DejaVuSans-98"/>
      <use x="401.802734" xlink:href="#DejaVuSans-114"/>
      <use x="440.666016" xlink:href="#DejaVuSans-101"/>
      <use x="502.189453" xlink:href="#DejaVuSans-97"/>
      <use x="563.46875" xlink:href="#DejaVuSans-116"/>
      <use x="602.677734" xlink:href="#DejaVuSans-104"/>
      <use x="666.056641" xlink:href="#DejaVuSans-101"/>
      <use x="727.580078" xlink:href="#DejaVuSans-114"/>
      <use x="768.693359" xlink:href="#DejaVuSans-95"/>
      <use x="818.693359" xlink:href="#DejaVuSans-109"/>
      <use x="916.105469" xlink:href="#DejaVuSans-97"/>
      <use x="977.384766" xlink:href="#DejaVuSans-115"/>
      <use x="1029.484375" xlink:href="#DejaVuSans-107"/>
      <use x="1087.394531" xlink:href="#DejaVuSans-32"/>
      <use x="1119.181641" xlink:href="#DejaVuSans-40"/>
      <use x="1158.195312" xlink:href="#DejaVuSans-54"/>
      <use x="1221.818359" xlink:href="#DejaVuSans-48"/>
      <use x="1285.441406" xlink:href="#DejaVuSans-41"/>
     </g>
    </g>
    <g id="line2d_16">
     <path d="M 218.21375 69.526688 
L 238.21375 69.526688 
" style="fill:none;stroke:#008000;stroke-linecap:square;stroke-width:1.5;"/>
    </g>
    <g id="line2d_17"/>
    <g id="text_12">
     <!-- Not non_rebreather_mask (181) -->
     <defs>
      <path d="M 9.8125 72.90625 
L 23.09375 72.90625 
L 55.421875 11.921875 
L 55.421875 72.90625 
L 64.984375 72.90625 
L 64.984375 0 
L 51.703125 0 
L 19.390625 60.984375 
L 19.390625 0 
L 9.8125 0 
z
" id="DejaVuSans-78"/>
     </defs>
     <g transform="translate(246.21375 73.026688)scale(0.1 -0.1)">
      <use xlink:href="#DejaVuSans-78"/>
      <use x="74.804688" xlink:href="#DejaVuSans-111"/>
      <use x="135.986328" xlink:href="#DejaVuSans-116"/>
      <use x="175.195312" xlink:href="#DejaVuSans-32"/>
      <use x="206.982422" xlink:href="#DejaVuSans-110"/>
      <use x="270.361328" xlink:href="#DejaVuSans-111"/>
      <use x="331.542969" xlink:href="#DejaVuSans-110"/>
      <use x="394.921875" xlink:href="#DejaVuSans-95"/>
      <use x="444.921875" xlink:href="#DejaVuSans-114"/>
      <use x="483.785156" xlink:href="#DejaVuSans-101"/>
      <use x="545.308594" xlink:href="#DejaVuSans-98"/>
      <use x="608.785156" xlink:href="#DejaVuSans-114"/>
      <use x="647.648438" xlink:href="#DejaVuSans-101"/>
      <use x="709.171875" xlink:href="#DejaVuSans-97"/>
      <use x="770.451172" xlink:href="#DejaVuSans-116"/>
      <use x="809.660156" xlink:href="#DejaVuSans-104"/>
      <use x="873.039062" xlink:href="#DejaVuSans-101"/>
      <use x="934.5625" xlink:href="#DejaVuSans-114"/>
      <use x="975.675781" xlink:href="#DejaVuSans-95"/>
      <use x="1025.675781" xlink:href="#DejaVuSans-109"/>
      <use x="1123.087891" xlink:href="#DejaVuSans-97"/>
      <use x="1184.367188" xlink:href="#DejaVuSans-115"/>
      <use x="1236.466797" xlink:href="#DejaVuSans-107"/>
      <use x="1294.376953" xlink:href="#DejaVuSans-32"/>
      <use x="1326.164062" xlink:href="#DejaVuSans-40"/>
      <use x="1365.177734" xlink:href="#DejaVuSans-49"/>
      <use x="1428.800781" xlink:href="#DejaVuSans-56"/>
      <use x="1492.423828" xlink:href="#DejaVuSans-49"/>
      <use x="1556.046875" xlink:href="#DejaVuSans-41"/>
     </g>
    </g>
   </g>
  </g>
 </g>
 <defs>
  <clipPath id="peca21a92de">
   <rect height="266.112" width="357.12" x="57.6" y="41.472"/>
  </clipPath>
 </defs>
</svg>
