<?xml version="1.0" encoding="utf-8" standalone="no"?>
<!DOCTYPE svg PUBLIC "-//W3C//DTD SVG 1.1//EN"
  "http://www.w3.org/Graphics/SVG/1.1/DTD/svg11.dtd">
<!-- Created with matplotlib (https://matplotlib.org/) -->
<svg height="345.6pt" version="1.1" viewBox="0 0 460.8 345.6" width="460.8pt" xmlns="http://www.w3.org/2000/svg" xmlns:xlink="http://www.w3.org/1999/xlink">
 <defs>
  <style type="text/css">
*{stroke-linecap:butt;stroke-linejoin:round;}
  </style>
 </defs>
 <g id="figure_1">
  <g id="patch_1">
   <path d="M 0 345.6 
L 460.8 345.6 
L 460.8 0 
L 0 0 
z
" style="fill:#ffffff;"/>
  </g>
  <g id="axes_1">
   <g id="patch_2">
    <path d="M 57.6 307.584 
L 414.72 307.584 
L 414.72 41.472 
L 57.6 41.472 
z
" style="fill:#ffffff;"/>
   </g>
   <g id="PolyCollection_1">
    <defs>
     <path d="M 73.832727 -170.381147 
L 73.832727 -171.762853 
L 77.112066 -172.045166 
L 80.391405 -172.425028 
L 83.670744 -172.929984 
L 86.950083 -173.593547 
L 90.229421 -174.455923 
L 93.50876 -175.564558 
L 96.788099 -176.974319 
L 100.067438 -178.747053 
L 103.346777 -180.950273 
L 106.626116 -183.654682 
L 109.905455 -186.930328 
L 113.184793 -190.841307 
L 116.464132 -195.439128 
L 119.743471 -200.755117 
L 123.02281 -206.792502 
L 126.302149 -213.519091 
L 129.581488 -220.861604 
L 132.860826 -228.702776 
L 136.140165 -236.882194 
L 139.419504 -245.201482 
L 142.698843 -253.434002 
L 145.978182 -261.33859 
L 149.257521 -268.676276 
L 152.53686 -275.228377 
L 155.816198 -280.814048 
L 159.095537 -285.305224 
L 162.374876 -288.637147 
L 165.654215 -290.81305 
L 168.933554 -291.902295 
L 172.212893 -292.032 
L 175.492231 -291.373003 
L 178.77157 -290.121679 
L 182.050909 -288.479637 
L 185.330248 -286.633578 
L 188.609587 -284.737546 
L 191.888926 -282.899528 
L 195.168264 -281.173832 
L 198.447603 -279.559951 
L 201.726942 -278.007879 
L 205.006281 -276.429053 
L 208.28562 -274.71143 
L 211.564959 -272.736733 
L 214.844298 -270.397663 
L 218.123636 -267.612941 
L 221.402975 -264.338384 
L 224.682314 -260.572803 
L 227.961653 -256.358253 
L 231.240992 -251.774974 
L 234.520331 -246.932034 
L 237.799669 -241.955272 
L 241.079008 -236.974349 
L 244.358347 -232.110707 
L 247.637686 -227.467926 
L 250.917025 -223.125437 
L 254.196364 -219.135918 
L 257.475702 -215.526139 
L 260.755041 -212.300466 
L 264.03438 -209.446005 
L 267.313719 -206.938269 
L 270.593058 -204.746396 
L 273.872397 -202.837243 
L 277.151736 -201.178061 
L 280.431074 -199.737797 
L 283.710413 -198.487356 
L 286.989752 -197.399304 
L 290.269091 -196.447513 
L 293.54843 -195.607105 
L 296.827769 -194.854895 
L 300.107107 -194.170282 
L 303.386446 -193.536371 
L 306.665785 -192.940964 
L 309.945124 -192.377063 
L 313.224463 -191.842609 
L 316.503802 -191.339313 
L 319.78314 -190.870686 
L 323.062479 -190.439543 
L 326.341818 -190.045412 
L 329.621157 -189.68237 
L 332.900496 -189.337754 
L 336.179835 -188.992088 
L 339.459174 -188.620344 
L 342.738512 -188.194419 
L 346.017851 -187.686457 
L 349.29719 -187.072516 
L 352.576529 -186.335975 
L 355.855868 -185.470123 
L 359.135207 -184.479532 
L 362.414545 -183.379995 
L 365.693884 -182.197067 
L 368.973223 -180.963471 
L 372.252562 -179.715779 
L 375.531901 -178.490871 
L 378.81124 -177.32265 
L 382.090579 -176.239411 
L 385.369917 -175.262113 
L 388.649256 -174.40364 
L 391.928595 -173.66898 
L 395.207934 -173.056155 
L 398.487273 -172.557636 
L 398.487273 -169.586364 
L 398.487273 -169.586364 
L 395.207934 -169.087845 
L 391.928595 -168.47502 
L 388.649256 -167.74036 
L 385.369917 -166.881887 
L 382.090579 -165.904589 
L 378.81124 -164.82135 
L 375.531901 -163.653129 
L 372.252562 -162.428221 
L 368.973223 -161.180529 
L 365.693884 -159.946933 
L 362.414545 -158.764005 
L 359.135207 -157.664468 
L 355.855868 -156.673877 
L 352.576529 -155.808025 
L 349.29719 -155.071484 
L 346.017851 -154.457543 
L 342.738512 -153.949581 
L 339.459174 -153.523656 
L 336.179835 -153.151912 
L 332.900496 -152.806246 
L 329.621157 -152.46163 
L 326.341818 -152.098588 
L 323.062479 -151.704457 
L 319.78314 -151.273314 
L 316.503802 -150.804687 
L 313.224463 -150.301391 
L 309.945124 -149.766937 
L 306.665785 -149.203036 
L 303.386446 -148.607629 
L 300.107107 -147.973718 
L 296.827769 -147.289105 
L 293.54843 -146.536895 
L 290.269091 -145.696487 
L 286.989752 -144.744696 
L 283.710413 -143.656644 
L 280.431074 -142.406203 
L 277.151736 -140.965939 
L 273.872397 -139.306757 
L 270.593058 -137.397604 
L 267.313719 -135.205731 
L 264.03438 -132.697995 
L 260.755041 -129.843534 
L 257.475702 -126.617861 
L 254.196364 -123.008082 
L 250.917025 -119.018563 
L 247.637686 -114.676074 
L 244.358347 -110.033293 
L 241.079008 -105.169651 
L 237.799669 -100.188728 
L 234.520331 -95.211966 
L 231.240992 -90.369026 
L 227.961653 -85.785747 
L 224.682314 -81.571197 
L 221.402975 -77.805616 
L 218.123636 -74.531059 
L 214.844298 -71.746337 
L 211.564959 -69.407267 
L 208.28562 -67.43257 
L 205.006281 -65.714947 
L 201.726942 -64.136121 
L 198.447603 -62.584049 
L 195.168264 -60.970168 
L 191.888926 -59.244472 
L 188.609587 -57.406454 
L 185.330248 -55.510422 
L 182.050909 -53.664363 
L 178.77157 -52.022321 
L 175.492231 -50.770997 
L 172.212893 -50.112 
L 168.933554 -50.241705 
L 165.654215 -51.33095 
L 162.374876 -53.506853 
L 159.095537 -56.838776 
L 155.816198 -61.329952 
L 152.53686 -66.915623 
L 149.257521 -73.467724 
L 145.978182 -80.80541 
L 142.698843 -88.709998 
L 139.419504 -96.942518 
L 136.140165 -105.261806 
L 132.860826 -113.441224 
L 129.581488 -121.282396 
L 126.302149 -128.624909 
L 123.02281 -135.351498 
L 119.743471 -141.388883 
L 116.464132 -146.704872 
L 113.184793 -151.302693 
L 109.905455 -155.213672 
L 106.626116 -158.489318 
L 103.346777 -161.193727 
L 100.067438 -163.396947 
L 96.788099 -165.169681 
L 93.50876 -166.579442 
L 90.229421 -167.688077 
L 86.950083 -168.550453 
L 83.670744 -169.214016 
L 80.391405 -169.718972 
L 77.112066 -170.098834 
L 73.832727 -170.381147 
z
" id="ma09d105afe" style="stroke:#4c4c4c;stroke-opacity:0.5;stroke-width:1.5;"/>
    </defs>
    <g clip-path="url(#p07525185e7)">
     <use style="fill:#df9c20;fill-opacity:0.5;stroke:#4c4c4c;stroke-opacity:0.5;stroke-width:1.5;" x="0" xlink:href="#ma09d105afe" y="345.6"/>
    </g>
   </g>
   <g id="PolyCollection_2">
    <defs>
     <path d="M 81.720888 -170.414779 
L 81.720888 -171.729221 
L 84.817196 -172.060772 
L 87.913505 -172.523518 
L 91.009813 -173.153268 
L 94.106121 -173.9902 
L 97.20243 -175.078353 
L 100.298738 -176.465314 
L 103.395046 -178.202294 
L 106.491355 -180.344651 
L 109.587663 -182.952676 
L 112.683971 -186.092103 
L 115.780279 -189.833497 
L 118.876588 -194.249487 
L 121.972896 -199.40884 
L 125.069204 -205.366817 
L 128.165513 -212.151919 
L 131.261821 -219.750173 
L 134.358129 -228.089087 
L 137.454438 -237.024237 
L 140.550746 -246.331838 
L 143.647054 -255.710296 
L 146.743363 -264.792755 
L 149.839671 -273.170969 
L 152.935979 -280.428842 
L 156.032288 -286.181964 
L 159.128596 -290.117995 
L 162.224904 -292.032 
L 165.321212 -291.851234 
L 168.417521 -289.645224 
L 171.513829 -285.619237 
L 174.610137 -280.09182 
L 177.706446 -273.459659 
L 180.802754 -266.154917 
L 183.899062 -258.601281 
L 186.995371 -251.174789 
L 190.091679 -244.17444 
L 193.187987 -237.805645 
L 196.284296 -232.177343 
L 199.380604 -227.31138 
L 202.476912 -223.161047 
L 205.573221 -219.634611 
L 208.669529 -216.619498 
L 211.765837 -214.003298 
L 214.862145 -211.688891 
L 217.958454 -209.602425 
L 221.054762 -207.694333 
L 224.15107 -205.934817 
L 227.247379 -204.306043 
L 230.343687 -202.793565 
L 233.439995 -201.379245 
L 236.536304 -200.03726 
L 239.632612 -198.733856 
L 242.72892 -197.430568 
L 245.825229 -196.089838 
L 248.921537 -194.681557 
L 252.017845 -193.188952 
L 255.114154 -191.612557 
L 258.210462 -189.971476 
L 261.30677 -188.301758 
L 264.403078 -186.652244 
L 267.499387 -185.07864 
L 270.595695 -183.636789 
L 273.692003 -182.376127 
L 276.788312 -181.334153 
L 279.88462 -180.532522 
L 282.980928 -179.975047 
L 286.077237 -179.647637 
L 289.173545 -179.519988 
L 292.269853 -179.548702 
L 295.366162 -179.681466 
L 298.46247 -179.861923 
L 301.558778 -180.03489 
L 304.655087 -180.151512 
L 307.751395 -180.173946 
L 310.847703 -180.079041 
L 313.944011 -179.860486 
L 317.04032 -179.528953 
L 320.136628 -179.109983 
L 323.232936 -178.639709 
L 326.329245 -178.158911 
L 329.425553 -177.706318 
L 332.521861 -177.312263 
L 335.61817 -176.993875 
L 338.714478 -176.752691 
L 341.810786 -176.575162 
L 344.907095 -176.435898 
L 348.003403 -176.302971 
L 351.099711 -176.144155 
L 354.19602 -175.932851 
L 357.292328 -175.652551 
L 360.388636 -175.299087 
L 363.484944 -174.880443 
L 366.581253 -174.414432 
L 369.677561 -173.924936 
L 372.773869 -173.437637 
L 375.870178 -172.97611 
L 378.966486 -172.558925 
L 382.062794 -172.198102 
L 385.159103 -171.898889 
L 388.255411 -171.660601 
L 388.255411 -170.483399 
L 388.255411 -170.483399 
L 385.159103 -170.245111 
L 382.062794 -169.945898 
L 378.966486 -169.585075 
L 375.870178 -169.16789 
L 372.773869 -168.706363 
L 369.677561 -168.219064 
L 366.581253 -167.729568 
L 363.484944 -167.263557 
L 360.388636 -166.844913 
L 357.292328 -166.491449 
L 354.19602 -166.211149 
L 351.099711 -165.999845 
L 348.003403 -165.841029 
L 344.907095 -165.708102 
L 341.810786 -165.568838 
L 338.714478 -165.391309 
L 335.61817 -165.150125 
L 332.521861 -164.831737 
L 329.425553 -164.437682 
L 326.329245 -163.985089 
L 323.232936 -163.504291 
L 320.136628 -163.034017 
L 317.04032 -162.615047 
L 313.944011 -162.283514 
L 310.847703 -162.064959 
L 307.751395 -161.970054 
L 304.655087 -161.992488 
L 301.558778 -162.10911 
L 298.46247 -162.282077 
L 295.366162 -162.462534 
L 292.269853 -162.595298 
L 289.173545 -162.624012 
L 286.077237 -162.496363 
L 282.980928 -162.168953 
L 279.88462 -161.611478 
L 276.788312 -160.809847 
L 273.692003 -159.767873 
L 270.595695 -158.507211 
L 267.499387 -157.06536 
L 264.403078 -155.491756 
L 261.30677 -153.842242 
L 258.210462 -152.172524 
L 255.114154 -150.531443 
L 252.017845 -148.955048 
L 248.921537 -147.462443 
L 245.825229 -146.054162 
L 242.72892 -144.713432 
L 239.632612 -143.410144 
L 236.536304 -142.10674 
L 233.439995 -140.764755 
L 230.343687 -139.350435 
L 227.247379 -137.837957 
L 224.15107 -136.209183 
L 221.054762 -134.449667 
L 217.958454 -132.541575 
L 214.862145 -130.455109 
L 211.765837 -128.140702 
L 208.669529 -125.524502 
L 205.573221 -122.509389 
L 202.476912 -118.982953 
L 199.380604 -114.83262 
L 196.284296 -109.966657 
L 193.187987 -104.338355 
L 190.091679 -97.96956 
L 186.995371 -90.969211 
L 183.899062 -83.542719 
L 180.802754 -75.989083 
L 177.706446 -68.684341 
L 174.610137 -62.05218 
L 171.513829 -56.524763 
L 168.417521 -52.498776 
L 165.321212 -50.292766 
L 162.224904 -50.112 
L 159.128596 -52.026005 
L 156.032288 -55.962036 
L 152.935979 -61.715158 
L 149.839671 -68.973031 
L 146.743363 -77.351245 
L 143.647054 -86.433704 
L 140.550746 -95.812162 
L 137.454438 -105.119763 
L 134.358129 -114.054913 
L 131.261821 -122.393827 
L 128.165513 -129.992081 
L 125.069204 -136.777183 
L 121.972896 -142.73516 
L 118.876588 -147.894513 
L 115.780279 -152.310503 
L 112.683971 -156.051897 
L 109.587663 -159.191324 
L 106.491355 -161.799349 
L 103.395046 -163.941706 
L 100.298738 -165.678686 
L 97.20243 -167.065647 
L 94.106121 -168.1538 
L 91.009813 -168.990732 
L 87.913505 -169.620482 
L 84.817196 -170.083228 
L 81.720888 -170.414779 
z
" id="m1a985d9971" style="stroke:#262626;stroke-opacity:0.5;stroke-width:1.5;"/>
    </defs>
    <g clip-path="url(#p07525185e7)">
     <use style="fill:#107010;fill-opacity:0.5;stroke:#262626;stroke-opacity:0.5;stroke-width:1.5;" x="0" xlink:href="#m1a985d9971" y="345.6"/>
    </g>
   </g>
   <g id="matplotlib.axis_1">
    <g id="xtick_1">
     <g id="line2d_1">
      <defs>
       <path d="M 0 0 
L 0 3.5 
" id="m50fd85b3d6" style="stroke:#000000;stroke-width:0.8;"/>
      </defs>
      <g>
       <use style="stroke:#000000;stroke-width:0.8;" x="72.10093" xlink:href="#m50fd85b3d6" y="307.584"/>
      </g>
     </g>
     <g id="text_1">
      <!-- 2 -->
      <defs>
       <path d="M 19.1875 8.296875 
L 53.609375 8.296875 
L 53.609375 0 
L 7.328125 0 
L 7.328125 8.296875 
Q 12.9375 14.109375 22.625 23.890625 
Q 32.328125 33.6875 34.8125 36.53125 
Q 39.546875 41.84375 41.421875 45.53125 
Q 43.3125 49.21875 43.3125 52.78125 
Q 43.3125 58.59375 39.234375 62.25 
Q 35.15625 65.921875 28.609375 65.921875 
Q 23.96875 65.921875 18.8125 64.3125 
Q 13.671875 62.703125 7.8125 59.421875 
L 7.8125 69.390625 
Q 13.765625 71.78125 18.9375 73 
Q 24.125 74.21875 28.421875 74.21875 
Q 39.75 74.21875 46.484375 68.546875 
Q 53.21875 62.890625 53.21875 53.421875 
Q 53.21875 48.921875 51.53125 44.890625 
Q 49.859375 40.875 45.40625 35.40625 
Q 44.1875 33.984375 37.640625 27.21875 
Q 31.109375 20.453125 19.1875 8.296875 
z
" id="DejaVuSans-50"/>
      </defs>
      <g transform="translate(68.91968 322.182437)scale(0.1 -0.1)">
       <use xlink:href="#DejaVuSans-50"/>
      </g>
     </g>
    </g>
    <g id="xtick_2">
     <g id="line2d_2">
      <g>
       <use style="stroke:#000000;stroke-width:0.8;" x="118.97495" xlink:href="#m50fd85b3d6" y="307.584"/>
      </g>
     </g>
     <g id="text_2">
      <!-- 4 -->
      <defs>
       <path d="M 37.796875 64.3125 
L 12.890625 25.390625 
L 37.796875 25.390625 
z
M 35.203125 72.90625 
L 47.609375 72.90625 
L 47.609375 25.390625 
L 58.015625 25.390625 
L 58.015625 17.1875 
L 47.609375 17.1875 
L 47.609375 0 
L 37.796875 0 
L 37.796875 17.1875 
L 4.890625 17.1875 
L 4.890625 26.703125 
z
" id="DejaVuSans-52"/>
      </defs>
      <g transform="translate(115.7937 322.182437)scale(0.1 -0.1)">
       <use xlink:href="#DejaVuSans-52"/>
      </g>
     </g>
    </g>
    <g id="xtick_3">
     <g id="line2d_3">
      <g>
       <use style="stroke:#000000;stroke-width:0.8;" x="165.84897" xlink:href="#m50fd85b3d6" y="307.584"/>
      </g>
     </g>
     <g id="text_3">
      <!-- 6 -->
      <defs>
       <path d="M 33.015625 40.375 
Q 26.375 40.375 22.484375 35.828125 
Q 18.609375 31.296875 18.609375 23.390625 
Q 18.609375 15.53125 22.484375 10.953125 
Q 26.375 6.390625 33.015625 6.390625 
Q 39.65625 6.390625 43.53125 10.953125 
Q 47.40625 15.53125 47.40625 23.390625 
Q 47.40625 31.296875 43.53125 35.828125 
Q 39.65625 40.375 33.015625 40.375 
z
M 52.59375 71.296875 
L 52.59375 62.3125 
Q 48.875 64.0625 45.09375 64.984375 
Q 41.3125 65.921875 37.59375 65.921875 
Q 27.828125 65.921875 22.671875 59.328125 
Q 17.53125 52.734375 16.796875 39.40625 
Q 19.671875 43.65625 24.015625 45.921875 
Q 28.375 48.1875 33.59375 48.1875 
Q 44.578125 48.1875 50.953125 41.515625 
Q 57.328125 34.859375 57.328125 23.390625 
Q 57.328125 12.15625 50.6875 5.359375 
Q 44.046875 -1.421875 33.015625 -1.421875 
Q 20.359375 -1.421875 13.671875 8.265625 
Q 6.984375 17.96875 6.984375 36.375 
Q 6.984375 53.65625 15.1875 63.9375 
Q 23.390625 74.21875 37.203125 74.21875 
Q 40.921875 74.21875 44.703125 73.484375 
Q 48.484375 72.75 52.59375 71.296875 
z
" id="DejaVuSans-54"/>
      </defs>
      <g transform="translate(162.66772 322.182437)scale(0.1 -0.1)">
       <use xlink:href="#DejaVuSans-54"/>
      </g>
     </g>
    </g>
    <g id="xtick_4">
     <g id="line2d_4">
      <g>
       <use style="stroke:#000000;stroke-width:0.8;" x="212.72299" xlink:href="#m50fd85b3d6" y="307.584"/>
      </g>
     </g>
     <g id="text_4">
      <!-- 8 -->
      <defs>
       <path d="M 31.78125 34.625 
Q 24.75 34.625 20.71875 30.859375 
Q 16.703125 27.09375 16.703125 20.515625 
Q 16.703125 13.921875 20.71875 10.15625 
Q 24.75 6.390625 31.78125 6.390625 
Q 38.8125 6.390625 42.859375 10.171875 
Q 46.921875 13.96875 46.921875 20.515625 
Q 46.921875 27.09375 42.890625 30.859375 
Q 38.875 34.625 31.78125 34.625 
z
M 21.921875 38.8125 
Q 15.578125 40.375 12.03125 44.71875 
Q 8.5 49.078125 8.5 55.328125 
Q 8.5 64.0625 14.71875 69.140625 
Q 20.953125 74.21875 31.78125 74.21875 
Q 42.671875 74.21875 48.875 69.140625 
Q 55.078125 64.0625 55.078125 55.328125 
Q 55.078125 49.078125 51.53125 44.71875 
Q 48 40.375 41.703125 38.8125 
Q 48.828125 37.15625 52.796875 32.3125 
Q 56.78125 27.484375 56.78125 20.515625 
Q 56.78125 9.90625 50.3125 4.234375 
Q 43.84375 -1.421875 31.78125 -1.421875 
Q 19.734375 -1.421875 13.25 4.234375 
Q 6.78125 9.90625 6.78125 20.515625 
Q 6.78125 27.484375 10.78125 32.3125 
Q 14.796875 37.15625 21.921875 38.8125 
z
M 18.3125 54.390625 
Q 18.3125 48.734375 21.84375 45.5625 
Q 25.390625 42.390625 31.78125 42.390625 
Q 38.140625 42.390625 41.71875 45.5625 
Q 45.3125 48.734375 45.3125 54.390625 
Q 45.3125 60.0625 41.71875 63.234375 
Q 38.140625 66.40625 31.78125 66.40625 
Q 25.390625 66.40625 21.84375 63.234375 
Q 18.3125 60.0625 18.3125 54.390625 
z
" id="DejaVuSans-56"/>
      </defs>
      <g transform="translate(209.54174 322.182437)scale(0.1 -0.1)">
       <use xlink:href="#DejaVuSans-56"/>
      </g>
     </g>
    </g>
    <g id="xtick_5">
     <g id="line2d_5">
      <g>
       <use style="stroke:#000000;stroke-width:0.8;" x="259.59701" xlink:href="#m50fd85b3d6" y="307.584"/>
      </g>
     </g>
     <g id="text_5">
      <!-- 10 -->
      <defs>
       <path d="M 12.40625 8.296875 
L 28.515625 8.296875 
L 28.515625 63.921875 
L 10.984375 60.40625 
L 10.984375 69.390625 
L 28.421875 72.90625 
L 38.28125 72.90625 
L 38.28125 8.296875 
L 54.390625 8.296875 
L 54.390625 0 
L 12.40625 0 
z
" id="DejaVuSans-49"/>
       <path d="M 31.78125 66.40625 
Q 24.171875 66.40625 20.328125 58.90625 
Q 16.5 51.421875 16.5 36.375 
Q 16.5 21.390625 20.328125 13.890625 
Q 24.171875 6.390625 31.78125 6.390625 
Q 39.453125 6.390625 43.28125 13.890625 
Q 47.125 21.390625 47.125 36.375 
Q 47.125 51.421875 43.28125 58.90625 
Q 39.453125 66.40625 31.78125 66.40625 
z
M 31.78125 74.21875 
Q 44.046875 74.21875 50.515625 64.515625 
Q 56.984375 54.828125 56.984375 36.375 
Q 56.984375 17.96875 50.515625 8.265625 
Q 44.046875 -1.421875 31.78125 -1.421875 
Q 19.53125 -1.421875 13.0625 8.265625 
Q 6.59375 17.96875 6.59375 36.375 
Q 6.59375 54.828125 13.0625 64.515625 
Q 19.53125 74.21875 31.78125 74.21875 
z
" id="DejaVuSans-48"/>
      </defs>
      <g transform="translate(253.23451 322.182437)scale(0.1 -0.1)">
       <use xlink:href="#DejaVuSans-49"/>
       <use x="63.623047" xlink:href="#DejaVuSans-48"/>
      </g>
     </g>
    </g>
    <g id="xtick_6">
     <g id="line2d_6">
      <g>
       <use style="stroke:#000000;stroke-width:0.8;" x="306.47103" xlink:href="#m50fd85b3d6" y="307.584"/>
      </g>
     </g>
     <g id="text_6">
      <!-- 12 -->
      <g transform="translate(300.10853 322.182437)scale(0.1 -0.1)">
       <use xlink:href="#DejaVuSans-49"/>
       <use x="63.623047" xlink:href="#DejaVuSans-50"/>
      </g>
     </g>
    </g>
    <g id="xtick_7">
     <g id="line2d_7">
      <g>
       <use style="stroke:#000000;stroke-width:0.8;" x="353.34505" xlink:href="#m50fd85b3d6" y="307.584"/>
      </g>
     </g>
     <g id="text_7">
      <!-- 14 -->
      <g transform="translate(346.98255 322.182437)scale(0.1 -0.1)">
       <use xlink:href="#DejaVuSans-49"/>
       <use x="63.623047" xlink:href="#DejaVuSans-52"/>
      </g>
     </g>
    </g>
    <g id="xtick_8">
     <g id="line2d_8">
      <g>
       <use style="stroke:#000000;stroke-width:0.8;" x="400.21907" xlink:href="#m50fd85b3d6" y="307.584"/>
      </g>
     </g>
     <g id="text_8">
      <!-- 16 -->
      <g transform="translate(393.85657 322.182437)scale(0.1 -0.1)">
       <use xlink:href="#DejaVuSans-49"/>
       <use x="63.623047" xlink:href="#DejaVuSans-54"/>
      </g>
     </g>
    </g>
    <g id="text_9">
     <!-- a1c -->
     <defs>
      <path d="M 34.28125 27.484375 
Q 23.390625 27.484375 19.1875 25 
Q 14.984375 22.515625 14.984375 16.5 
Q 14.984375 11.71875 18.140625 8.90625 
Q 21.296875 6.109375 26.703125 6.109375 
Q 34.1875 6.109375 38.703125 11.40625 
Q 43.21875 16.703125 43.21875 25.484375 
L 43.21875 27.484375 
z
M 52.203125 31.203125 
L 52.203125 0 
L 43.21875 0 
L 43.21875 8.296875 
Q 40.140625 3.328125 35.546875 0.953125 
Q 30.953125 -1.421875 24.3125 -1.421875 
Q 15.921875 -1.421875 10.953125 3.296875 
Q 6 8.015625 6 15.921875 
Q 6 25.140625 12.171875 29.828125 
Q 18.359375 34.515625 30.609375 34.515625 
L 43.21875 34.515625 
L 43.21875 35.40625 
Q 43.21875 41.609375 39.140625 45 
Q 35.0625 48.390625 27.6875 48.390625 
Q 23 48.390625 18.546875 47.265625 
Q 14.109375 46.140625 10.015625 43.890625 
L 10.015625 52.203125 
Q 14.9375 54.109375 19.578125 55.046875 
Q 24.21875 56 28.609375 56 
Q 40.484375 56 46.34375 49.84375 
Q 52.203125 43.703125 52.203125 31.203125 
z
" id="DejaVuSans-97"/>
      <path d="M 48.78125 52.59375 
L 48.78125 44.1875 
Q 44.96875 46.296875 41.140625 47.34375 
Q 37.3125 48.390625 33.40625 48.390625 
Q 24.65625 48.390625 19.8125 42.84375 
Q 14.984375 37.3125 14.984375 27.296875 
Q 14.984375 17.28125 19.8125 11.734375 
Q 24.65625 6.203125 33.40625 6.203125 
Q 37.3125 6.203125 41.140625 7.25 
Q 44.96875 8.296875 48.78125 10.40625 
L 48.78125 2.09375 
Q 45.015625 0.34375 40.984375 -0.53125 
Q 36.96875 -1.421875 32.421875 -1.421875 
Q 20.0625 -1.421875 12.78125 6.34375 
Q 5.515625 14.109375 5.515625 27.296875 
Q 5.515625 40.671875 12.859375 48.328125 
Q 20.21875 56 33.015625 56 
Q 37.15625 56 41.109375 55.140625 
Q 45.0625 54.296875 48.78125 52.59375 
z
" id="DejaVuSans-99"/>
     </defs>
     <g transform="translate(227.165469 335.860562)scale(0.1 -0.1)">
      <use xlink:href="#DejaVuSans-97"/>
      <use x="61.279297" xlink:href="#DejaVuSans-49"/>
      <use x="124.902344" xlink:href="#DejaVuSans-99"/>
     </g>
    </g>
   </g>
   <g id="matplotlib.axis_2">
    <g id="ytick_1">
     <g id="line2d_9">
      <defs>
       <path d="M 0 0 
L -3.5 0 
" id="m19b8382536" style="stroke:#000000;stroke-width:0.8;"/>
      </defs>
      <g>
       <use style="stroke:#000000;stroke-width:0.8;" x="57.6" xlink:href="#m19b8382536" y="174.528"/>
      </g>
     </g>
    </g>
   </g>
   <g id="line2d_10">
    <path clip-path="url(#p07525185e7)" d="M 118.97495 174.528 
L 320.533236 174.528 
" style="fill:none;stroke:#ffa500;stroke-linecap:square;stroke-width:1.5;"/>
   </g>
   <g id="line2d_11">
    <path clip-path="url(#p07525185e7)" d="M 161.161568 174.528 
L 226.785196 174.528 
" style="fill:none;stroke:#4c4c4c;stroke-linecap:square;stroke-width:4.5;"/>
   </g>
   <g id="line2d_12">
    <path clip-path="url(#p07525185e7)" d="M 116.631249 174.528 
L 268.971814 174.528 
" style="fill:none;stroke:#008000;stroke-linecap:square;stroke-width:1.5;"/>
   </g>
   <g id="line2d_13">
    <path clip-path="url(#p07525185e7)" d="M 158.817867 174.528 
L 208.035588 174.528 
" style="fill:none;stroke:#262626;stroke-linecap:square;stroke-width:4.5;"/>
   </g>
   <g id="patch_3">
    <path d="M 57.6 307.584 
L 57.6 41.472 
" style="fill:none;stroke:#000000;stroke-linecap:square;stroke-linejoin:miter;stroke-width:0.8;"/>
   </g>
   <g id="patch_4">
    <path d="M 414.72 307.584 
L 414.72 41.472 
" style="fill:none;stroke:#000000;stroke-linecap:square;stroke-linejoin:miter;stroke-width:0.8;"/>
   </g>
   <g id="patch_5">
    <path d="M 57.6 307.584 
L 414.72 307.584 
" style="fill:none;stroke:#000000;stroke-linecap:square;stroke-linejoin:miter;stroke-width:0.8;"/>
   </g>
   <g id="patch_6">
    <path d="M 57.6 41.472 
L 414.72 41.472 
" style="fill:none;stroke:#000000;stroke-linecap:square;stroke-linejoin:miter;stroke-width:0.8;"/>
   </g>
   <g id="PathCollection_1">
    <defs>
     <path d="M 0 1.5 
C 0.397805 1.5 0.77937 1.341951 1.06066 1.06066 
C 1.341951 0.77937 1.5 0.397805 1.5 0 
C 1.5 -0.397805 1.341951 -0.77937 1.06066 -1.06066 
C 0.77937 -1.341951 0.397805 -1.5 0 -1.5 
C -0.397805 -1.5 -0.77937 -1.341951 -1.06066 -1.06066 
C -1.341951 -0.77937 -1.5 -0.397805 -1.5 0 
C -1.5 0.397805 -1.341951 0.77937 -1.06066 1.06066 
C -0.77937 1.341951 -0.397805 1.5 0 1.5 
z
" id="mb6b0a077c4" style="stroke:#4c4c4c;stroke-opacity:0.5;"/>
    </defs>
    <g clip-path="url(#p07525185e7)">
     <use style="fill:#ffffff;fill-opacity:0.5;stroke:#4c4c4c;stroke-opacity:0.5;" x="198.660784" xlink:href="#mb6b0a077c4" y="174.528"/>
    </g>
   </g>
   <g id="PathCollection_2">
    <defs>
     <path d="M 0 1.5 
C 0.397805 1.5 0.77937 1.341951 1.06066 1.06066 
C 1.341951 0.77937 1.5 0.397805 1.5 0 
C 1.5 -0.397805 1.341951 -0.77937 1.06066 -1.06066 
C 0.77937 -1.341951 0.397805 -1.5 0 -1.5 
C -0.397805 -1.5 -0.77937 -1.341951 -1.06066 -1.06066 
C -1.341951 -0.77937 -1.5 -0.397805 -1.5 0 
C -1.5 0.397805 -1.341951 0.77937 -1.06066 1.06066 
C -0.77937 1.341951 -0.397805 1.5 0 1.5 
z
" id="m6a2457874d" style="stroke:#262626;stroke-opacity:0.5;"/>
    </defs>
    <g clip-path="url(#p07525185e7)">
     <use style="fill:#ffffff;fill-opacity:0.5;stroke:#262626;stroke-opacity:0.5;" x="170.536372" xlink:href="#m6a2457874d" y="174.528"/>
    </g>
   </g>
   <g id="text_10">
    <!-- Association of a1c vs. sepsis -->
    <defs>
     <path d="M 34.1875 63.1875 
L 20.796875 26.90625 
L 47.609375 26.90625 
z
M 28.609375 72.90625 
L 39.796875 72.90625 
L 67.578125 0 
L 57.328125 0 
L 50.6875 18.703125 
L 17.828125 18.703125 
L 11.1875 0 
L 0.78125 0 
z
" id="DejaVuSans-65"/>
     <path d="M 44.28125 53.078125 
L 44.28125 44.578125 
Q 40.484375 46.53125 36.375 47.5 
Q 32.28125 48.484375 27.875 48.484375 
Q 21.1875 48.484375 17.84375 46.4375 
Q 14.5 44.390625 14.5 40.28125 
Q 14.5 37.15625 16.890625 35.375 
Q 19.28125 33.59375 26.515625 31.984375 
L 29.59375 31.296875 
Q 39.15625 29.25 43.1875 25.515625 
Q 47.21875 21.78125 47.21875 15.09375 
Q 47.21875 7.46875 41.1875 3.015625 
Q 35.15625 -1.421875 24.609375 -1.421875 
Q 20.21875 -1.421875 15.453125 -0.5625 
Q 10.6875 0.296875 5.421875 2 
L 5.421875 11.28125 
Q 10.40625 8.6875 15.234375 7.390625 
Q 20.0625 6.109375 24.8125 6.109375 
Q 31.15625 6.109375 34.5625 8.28125 
Q 37.984375 10.453125 37.984375 14.40625 
Q 37.984375 18.0625 35.515625 20.015625 
Q 33.0625 21.96875 24.703125 23.78125 
L 21.578125 24.515625 
Q 13.234375 26.265625 9.515625 29.90625 
Q 5.8125 33.546875 5.8125 39.890625 
Q 5.8125 47.609375 11.28125 51.796875 
Q 16.75 56 26.8125 56 
Q 31.78125 56 36.171875 55.265625 
Q 40.578125 54.546875 44.28125 53.078125 
z
" id="DejaVuSans-115"/>
     <path d="M 30.609375 48.390625 
Q 23.390625 48.390625 19.1875 42.75 
Q 14.984375 37.109375 14.984375 27.296875 
Q 14.984375 17.484375 19.15625 11.84375 
Q 23.34375 6.203125 30.609375 6.203125 
Q 37.796875 6.203125 41.984375 11.859375 
Q 46.1875 17.53125 46.1875 27.296875 
Q 46.1875 37.015625 41.984375 42.703125 
Q 37.796875 48.390625 30.609375 48.390625 
z
M 30.609375 56 
Q 42.328125 56 49.015625 48.375 
Q 55.71875 40.765625 55.71875 27.296875 
Q 55.71875 13.875 49.015625 6.21875 
Q 42.328125 -1.421875 30.609375 -1.421875 
Q 18.84375 -1.421875 12.171875 6.21875 
Q 5.515625 13.875 5.515625 27.296875 
Q 5.515625 40.765625 12.171875 48.375 
Q 18.84375 56 30.609375 56 
z
" id="DejaVuSans-111"/>
     <path d="M 9.421875 54.6875 
L 18.40625 54.6875 
L 18.40625 0 
L 9.421875 0 
z
M 9.421875 75.984375 
L 18.40625 75.984375 
L 18.40625 64.59375 
L 9.421875 64.59375 
z
" id="DejaVuSans-105"/>
     <path d="M 18.3125 70.21875 
L 18.3125 54.6875 
L 36.8125 54.6875 
L 36.8125 47.703125 
L 18.3125 47.703125 
L 18.3125 18.015625 
Q 18.3125 11.328125 20.140625 9.421875 
Q 21.96875 7.515625 27.59375 7.515625 
L 36.8125 7.515625 
L 36.8125 0 
L 27.59375 0 
Q 17.1875 0 13.234375 3.875 
Q 9.28125 7.765625 9.28125 18.015625 
L 9.28125 47.703125 
L 2.6875 47.703125 
L 2.6875 54.6875 
L 9.28125 54.6875 
L 9.28125 70.21875 
z
" id="DejaVuSans-116"/>
     <path d="M 54.890625 33.015625 
L 54.890625 0 
L 45.90625 0 
L 45.90625 32.71875 
Q 45.90625 40.484375 42.875 44.328125 
Q 39.84375 48.1875 33.796875 48.1875 
Q 26.515625 48.1875 22.3125 43.546875 
Q 18.109375 38.921875 18.109375 30.90625 
L 18.109375 0 
L 9.078125 0 
L 9.078125 54.6875 
L 18.109375 54.6875 
L 18.109375 46.1875 
Q 21.34375 51.125 25.703125 53.5625 
Q 30.078125 56 35.796875 56 
Q 45.21875 56 50.046875 50.171875 
Q 54.890625 44.34375 54.890625 33.015625 
z
" id="DejaVuSans-110"/>
     <path id="DejaVuSans-32"/>
     <path d="M 37.109375 75.984375 
L 37.109375 68.5 
L 28.515625 68.5 
Q 23.6875 68.5 21.796875 66.546875 
Q 19.921875 64.59375 19.921875 59.515625 
L 19.921875 54.6875 
L 34.71875 54.6875 
L 34.71875 47.703125 
L 19.921875 47.703125 
L 19.921875 0 
L 10.890625 0 
L 10.890625 47.703125 
L 2.296875 47.703125 
L 2.296875 54.6875 
L 10.890625 54.6875 
L 10.890625 58.5 
Q 10.890625 67.625 15.140625 71.796875 
Q 19.390625 75.984375 28.609375 75.984375 
z
" id="DejaVuSans-102"/>
     <path d="M 2.984375 54.6875 
L 12.5 54.6875 
L 29.59375 8.796875 
L 46.6875 54.6875 
L 56.203125 54.6875 
L 35.6875 0 
L 23.484375 0 
z
" id="DejaVuSans-118"/>
     <path d="M 10.6875 12.40625 
L 21 12.40625 
L 21 0 
L 10.6875 0 
z
" id="DejaVuSans-46"/>
     <path d="M 56.203125 29.59375 
L 56.203125 25.203125 
L 14.890625 25.203125 
Q 15.484375 15.921875 20.484375 11.0625 
Q 25.484375 6.203125 34.421875 6.203125 
Q 39.59375 6.203125 44.453125 7.46875 
Q 49.3125 8.734375 54.109375 11.28125 
L 54.109375 2.78125 
Q 49.265625 0.734375 44.1875 -0.34375 
Q 39.109375 -1.421875 33.890625 -1.421875 
Q 20.796875 -1.421875 13.15625 6.1875 
Q 5.515625 13.8125 5.515625 26.8125 
Q 5.515625 40.234375 12.765625 48.109375 
Q 20.015625 56 32.328125 56 
Q 43.359375 56 49.78125 48.890625 
Q 56.203125 41.796875 56.203125 29.59375 
z
M 47.21875 32.234375 
Q 47.125 39.59375 43.09375 43.984375 
Q 39.0625 48.390625 32.421875 48.390625 
Q 24.90625 48.390625 20.390625 44.140625 
Q 15.875 39.890625 15.1875 32.171875 
z
" id="DejaVuSans-101"/>
     <path d="M 18.109375 8.203125 
L 18.109375 -20.796875 
L 9.078125 -20.796875 
L 9.078125 54.6875 
L 18.109375 54.6875 
L 18.109375 46.390625 
Q 20.953125 51.265625 25.265625 53.625 
Q 29.59375 56 35.59375 56 
Q 45.5625 56 51.78125 48.09375 
Q 58.015625 40.1875 58.015625 27.296875 
Q 58.015625 14.40625 51.78125 6.484375 
Q 45.5625 -1.421875 35.59375 -1.421875 
Q 29.59375 -1.421875 25.265625 0.953125 
Q 20.953125 3.328125 18.109375 8.203125 
z
M 48.6875 27.296875 
Q 48.6875 37.203125 44.609375 42.84375 
Q 40.53125 48.484375 33.40625 48.484375 
Q 26.265625 48.484375 22.1875 42.84375 
Q 18.109375 37.203125 18.109375 27.296875 
Q 18.109375 17.390625 22.1875 11.75 
Q 26.265625 6.109375 33.40625 6.109375 
Q 40.53125 6.109375 44.609375 11.75 
Q 48.6875 17.390625 48.6875 27.296875 
z
" id="DejaVuSans-112"/>
    </defs>
    <g transform="translate(150.664688 35.472)scale(0.12 -0.12)">
     <use xlink:href="#DejaVuSans-65"/>
     <use x="68.408203" xlink:href="#DejaVuSans-115"/>
     <use x="120.507812" xlink:href="#DejaVuSans-115"/>
     <use x="172.607422" xlink:href="#DejaVuSans-111"/>
     <use x="233.789062" xlink:href="#DejaVuSans-99"/>
     <use x="288.769531" xlink:href="#DejaVuSans-105"/>
     <use x="316.552734" xlink:href="#DejaVuSans-97"/>
     <use x="377.832031" xlink:href="#DejaVuSans-116"/>
     <use x="417.041016" xlink:href="#DejaVuSans-105"/>
     <use x="444.824219" xlink:href="#DejaVuSans-111"/>
     <use x="506.005859" xlink:href="#DejaVuSans-110"/>
     <use x="569.384766" xlink:href="#DejaVuSans-32"/>
     <use x="601.171875" xlink:href="#DejaVuSans-111"/>
     <use x="662.353516" xlink:href="#DejaVuSans-102"/>
     <use x="697.558594" xlink:href="#DejaVuSans-32"/>
     <use x="729.345703" xlink:href="#DejaVuSans-97"/>
     <use x="790.625" xlink:href="#DejaVuSans-49"/>
     <use x="854.248047" xlink:href="#DejaVuSans-99"/>
     <use x="909.228516" xlink:href="#DejaVuSans-32"/>
     <use x="941.015625" xlink:href="#DejaVuSans-118"/>
     <use x="1000.195312" xlink:href="#DejaVuSans-115"/>
     <use x="1052.294922" xlink:href="#DejaVuSans-46"/>
     <use x="1084.082031" xlink:href="#DejaVuSans-32"/>
     <use x="1115.869141" xlink:href="#DejaVuSans-115"/>
     <use x="1167.96875" xlink:href="#DejaVuSans-101"/>
     <use x="1229.492188" xlink:href="#DejaVuSans-112"/>
     <use x="1292.96875" xlink:href="#DejaVuSans-115"/>
     <use x="1345.068359" xlink:href="#DejaVuSans-105"/>
     <use x="1372.851562" xlink:href="#DejaVuSans-115"/>
    </g>
   </g>
   <g id="legend_1">
    <g id="patch_7">
     <path d="M 294.045 78.82825 
L 407.72 78.82825 
Q 409.72 78.82825 409.72 76.82825 
L 409.72 48.472 
Q 409.72 46.472 407.72 46.472 
L 294.045 46.472 
Q 292.045 46.472 292.045 48.472 
L 292.045 76.82825 
Q 292.045 78.82825 294.045 78.82825 
z
" style="fill:#ffffff;opacity:0.8;stroke:#cccccc;stroke-linejoin:miter;"/>
    </g>
    <g id="line2d_14">
     <path d="M 296.045 54.570437 
L 316.045 54.570437 
" style="fill:none;stroke:#ffa500;stroke-linecap:square;stroke-width:1.5;"/>
    </g>
    <g id="line2d_15"/>
    <g id="text_11">
     <!-- sepsis (85) -->
     <defs>
      <path d="M 31 75.875 
Q 24.46875 64.65625 21.28125 53.65625 
Q 18.109375 42.671875 18.109375 31.390625 
Q 18.109375 20.125 21.3125 9.0625 
Q 24.515625 -2 31 -13.1875 
L 23.1875 -13.1875 
Q 15.875 -1.703125 12.234375 9.375 
Q 8.59375 20.453125 8.59375 31.390625 
Q 8.59375 42.28125 12.203125 53.3125 
Q 15.828125 64.359375 23.1875 75.875 
z
" id="DejaVuSans-40"/>
      <path d="M 10.796875 72.90625 
L 49.515625 72.90625 
L 49.515625 64.59375 
L 19.828125 64.59375 
L 19.828125 46.734375 
Q 21.96875 47.46875 24.109375 47.828125 
Q 26.265625 48.1875 28.421875 48.1875 
Q 40.625 48.1875 47.75 41.5 
Q 54.890625 34.8125 54.890625 23.390625 
Q 54.890625 11.625 47.5625 5.09375 
Q 40.234375 -1.421875 26.90625 -1.421875 
Q 22.3125 -1.421875 17.546875 -0.640625 
Q 12.796875 0.140625 7.71875 1.703125 
L 7.71875 11.625 
Q 12.109375 9.234375 16.796875 8.0625 
Q 21.484375 6.890625 26.703125 6.890625 
Q 35.15625 6.890625 40.078125 11.328125 
Q 45.015625 15.765625 45.015625 23.390625 
Q 45.015625 31 40.078125 35.4375 
Q 35.15625 39.890625 26.703125 39.890625 
Q 22.75 39.890625 18.8125 39.015625 
Q 14.890625 38.140625 10.796875 36.28125 
z
" id="DejaVuSans-53"/>
      <path d="M 8.015625 75.875 
L 15.828125 75.875 
Q 23.140625 64.359375 26.78125 53.3125 
Q 30.421875 42.28125 30.421875 31.390625 
Q 30.421875 20.453125 26.78125 9.375 
Q 23.140625 -1.703125 15.828125 -13.1875 
L 8.015625 -13.1875 
Q 14.5 -2 17.703125 9.0625 
Q 20.90625 20.125 20.90625 31.390625 
Q 20.90625 42.671875 17.703125 53.65625 
Q 14.5 64.65625 8.015625 75.875 
z
" id="DejaVuSans-41"/>
     </defs>
     <g transform="translate(324.045 58.070437)scale(0.1 -0.1)">
      <use xlink:href="#DejaVuSans-115"/>
      <use x="52.099609" xlink:href="#DejaVuSans-101"/>
      <use x="113.623047" xlink:href="#DejaVuSans-112"/>
      <use x="177.099609" xlink:href="#DejaVuSans-115"/>
      <use x="229.199219" xlink:href="#DejaVuSans-105"/>
      <use x="256.982422" xlink:href="#DejaVuSans-115"/>
      <use x="309.082031" xlink:href="#DejaVuSans-32"/>
      <use x="340.869141" xlink:href="#DejaVuSans-40"/>
      <use x="379.882812" xlink:href="#DejaVuSans-56"/>
      <use x="443.505859" xlink:href="#DejaVuSans-53"/>
      <use x="507.128906" xlink:href="#DejaVuSans-41"/>
     </g>
    </g>
    <g id="line2d_16">
     <path d="M 296.045 69.248562 
L 316.045 69.248562 
" style="fill:none;stroke:#008000;stroke-linecap:square;stroke-width:1.5;"/>
    </g>
    <g id="line2d_17"/>
    <g id="text_12">
     <!-- Not sepsis (157) -->
     <defs>
      <path d="M 9.8125 72.90625 
L 23.09375 72.90625 
L 55.421875 11.921875 
L 55.421875 72.90625 
L 64.984375 72.90625 
L 64.984375 0 
L 51.703125 0 
L 19.390625 60.984375 
L 19.390625 0 
L 9.8125 0 
z
" id="DejaVuSans-78"/>
      <path d="M 8.203125 72.90625 
L 55.078125 72.90625 
L 55.078125 68.703125 
L 28.609375 0 
L 18.3125 0 
L 43.21875 64.59375 
L 8.203125 64.59375 
z
" id="DejaVuSans-55"/>
     </defs>
     <g transform="translate(324.045 72.748562)scale(0.1 -0.1)">
      <use xlink:href="#DejaVuSans-78"/>
      <use x="74.804688" xlink:href="#DejaVuSans-111"/>
      <use x="135.986328" xlink:href="#DejaVuSans-116"/>
      <use x="175.195312" xlink:href="#DejaVuSans-32"/>
      <use x="206.982422" xlink:href="#DejaVuSans-115"/>
      <use x="259.082031" xlink:href="#DejaVuSans-101"/>
      <use x="320.605469" xlink:href="#DejaVuSans-112"/>
      <use x="384.082031" xlink:href="#DejaVuSans-115"/>
      <use x="436.181641" xlink:href="#DejaVuSans-105"/>
      <use x="463.964844" xlink:href="#DejaVuSans-115"/>
      <use x="516.064453" xlink:href="#DejaVuSans-32"/>
      <use x="547.851562" xlink:href="#DejaVuSans-40"/>
      <use x="586.865234" xlink:href="#DejaVuSans-49"/>
      <use x="650.488281" xlink:href="#DejaVuSans-53"/>
      <use x="714.111328" xlink:href="#DejaVuSans-55"/>
      <use x="777.734375" xlink:href="#DejaVuSans-41"/>
     </g>
    </g>
   </g>
  </g>
 </g>
 <defs>
  <clipPath id="p07525185e7">
   <rect height="266.112" width="357.12" x="57.6" y="41.472"/>
  </clipPath>
 </defs>
</svg>
