<?xml version="1.0" encoding="utf-8" standalone="no"?>
<!DOCTYPE svg PUBLIC "-//W3C//DTD SVG 1.1//EN"
  "http://www.w3.org/Graphics/SVG/1.1/DTD/svg11.dtd">
<!-- Created with matplotlib (https://matplotlib.org/) -->
<svg height="345.6pt" version="1.1" viewBox="0 0 460.8 345.6" width="460.8pt" xmlns="http://www.w3.org/2000/svg" xmlns:xlink="http://www.w3.org/1999/xlink">
 <defs>
  <style type="text/css">
*{stroke-linecap:butt;stroke-linejoin:round;}
  </style>
 </defs>
 <g id="figure_1">
  <g id="patch_1">
   <path d="M 0 345.6 
L 460.8 345.6 
L 460.8 0 
L 0 0 
z
" style="fill:#ffffff;"/>
  </g>
  <g id="axes_1">
   <g id="patch_2">
    <path d="M 57.6 307.584 
L 414.72 307.584 
L 414.72 41.472 
L 57.6 41.472 
z
" style="fill:#ffffff;"/>
   </g>
   <g id="PolyCollection_1">
    <defs>
     <path d="M 75.211384 -156.045236 
L 75.211384 -186.098764 
L 78.462872 -192.141528 
L 81.714359 -199.716551 
L 84.965846 -208.835706 
L 88.217333 -219.357756 
L 91.46882 -230.963887 
L 94.720307 -243.157944 
L 97.971795 -255.297942 
L 101.223282 -266.6595 
L 104.474769 -276.524119 
L 107.726256 -284.277911 
L 110.977743 -289.501559 
L 114.229231 -292.032 
L 117.480718 -291.981178 
L 120.732205 -289.706497 
L 123.983692 -285.738883 
L 127.235179 -280.684584 
L 130.486667 -275.122961 
L 133.738154 -269.522724 
L 136.989641 -264.193295 
L 140.241128 -259.278002 
L 143.492615 -254.784606 
L 146.744102 -250.63955 
L 149.99559 -246.747709 
L 153.247077 -243.040392 
L 156.498564 -239.500119 
L 159.750051 -236.159113 
L 163.001538 -233.076822 
L 166.253026 -230.307581 
L 169.504513 -227.871232 
L 172.756 -225.737077 
L 176.007487 -223.826074 
L 179.258974 -222.029674 
L 182.510461 -220.238347 
L 185.761949 -218.370122 
L 189.013436 -216.390087 
L 192.264923 -214.315225 
L 195.51641 -212.203911 
L 198.767897 -210.134207 
L 202.019385 -208.178231 
L 205.270872 -206.380552 
L 208.522359 -204.746745 
L 211.773846 -203.244678 
L 215.025333 -201.817111 
L 218.27682 -200.400886 
L 221.528308 -198.946547 
L 224.779795 -197.432626 
L 228.031282 -195.871067 
L 231.282769 -194.303214 
L 234.534256 -192.788655 
L 237.785744 -191.391036 
L 241.037231 -190.16528 
L 244.288718 -189.149576 
L 247.540205 -188.363472 
L 250.791692 -187.811185 
L 254.04318 -187.487566 
L 257.294667 -187.383545 
L 260.546154 -187.488434 
L 263.797641 -187.787935 
L 267.049128 -188.258585 
L 270.300615 -188.860924 
L 273.552103 -189.534456 
L 276.80359 -190.197215 
L 280.055077 -190.751414 
L 283.306564 -191.094882 
L 286.558051 -191.136111 
L 289.809539 -190.809534 
L 293.061026 -190.087363 
L 296.312513 -188.985126 
L 299.564 -187.559596 
L 302.815487 -185.899689 
L 306.066974 -184.112534 
L 309.318462 -182.307865 
L 312.569949 -180.583927 
L 315.821436 -179.017359 
L 319.072923 -177.658235 
L 322.32441 -176.530136 
L 325.575898 -175.634047 
L 328.827385 -174.954307 
L 332.078872 -174.464883 
L 335.330359 -174.134653 
L 338.581846 -173.931075 
L 341.833333 -173.82224 
L 345.084821 -173.777804 
L 348.336308 -173.769422 
L 351.587795 -173.771254 
L 354.839282 -173.760814 
L 358.090769 -173.720137 
L 361.342257 -173.636985 
L 364.593744 -173.505692 
L 367.845231 -173.327327 
L 371.096718 -173.108992 
L 374.348205 -172.862339 
L 377.599693 -172.601558 
L 380.85118 -172.34122 
L 384.102667 -172.094353 
L 387.354154 -171.871065 
L 390.605641 -171.677835 
L 393.857128 -171.517481 
L 397.108616 -171.389644 
L 397.108616 -170.754356 
L 397.108616 -170.754356 
L 393.857128 -170.626519 
L 390.605641 -170.466165 
L 387.354154 -170.272935 
L 384.102667 -170.049647 
L 380.85118 -169.80278 
L 377.599693 -169.542442 
L 374.348205 -169.281661 
L 371.096718 -169.035008 
L 367.845231 -168.816673 
L 364.593744 -168.638308 
L 361.342257 -168.507015 
L 358.090769 -168.423863 
L 354.839282 -168.383186 
L 351.587795 -168.372746 
L 348.336308 -168.374578 
L 345.084821 -168.366196 
L 341.833333 -168.32176 
L 338.581846 -168.212925 
L 335.330359 -168.009347 
L 332.078872 -167.679117 
L 328.827385 -167.189693 
L 325.575898 -166.509953 
L 322.32441 -165.613864 
L 319.072923 -164.485765 
L 315.821436 -163.126641 
L 312.569949 -161.560073 
L 309.318462 -159.836135 
L 306.066974 -158.031466 
L 302.815487 -156.244311 
L 299.564 -154.584404 
L 296.312513 -153.158874 
L 293.061026 -152.056637 
L 289.809539 -151.334466 
L 286.558051 -151.007889 
L 283.306564 -151.049118 
L 280.055077 -151.392586 
L 276.80359 -151.946785 
L 273.552103 -152.609544 
L 270.300615 -153.283076 
L 267.049128 -153.885415 
L 263.797641 -154.356065 
L 260.546154 -154.655566 
L 257.294667 -154.760455 
L 254.04318 -154.656434 
L 250.791692 -154.332815 
L 247.540205 -153.780528 
L 244.288718 -152.994424 
L 241.037231 -151.97872 
L 237.785744 -150.752964 
L 234.534256 -149.355345 
L 231.282769 -147.840786 
L 228.031282 -146.272933 
L 224.779795 -144.711374 
L 221.528308 -143.197453 
L 218.27682 -141.743114 
L 215.025333 -140.326889 
L 211.773846 -138.899322 
L 208.522359 -137.397255 
L 205.270872 -135.763448 
L 202.019385 -133.965769 
L 198.767897 -132.009793 
L 195.51641 -129.940089 
L 192.264923 -127.828775 
L 189.013436 -125.753913 
L 185.761949 -123.773878 
L 182.510461 -121.905653 
L 179.258974 -120.114326 
L 176.007487 -118.317926 
L 172.756 -116.406923 
L 169.504513 -114.272768 
L 166.253026 -111.836419 
L 163.001538 -109.067178 
L 159.750051 -105.984887 
L 156.498564 -102.643881 
L 153.247077 -99.103608 
L 149.99559 -95.396291 
L 146.744102 -91.50445 
L 143.492615 -87.359394 
L 140.241128 -82.865998 
L 136.989641 -77.950705 
L 133.738154 -72.621276 
L 130.486667 -67.021039 
L 127.235179 -61.459416 
L 123.983692 -56.405117 
L 120.732205 -52.437503 
L 117.480718 -50.162822 
L 114.229231 -50.112 
L 110.977743 -52.642441 
L 107.726256 -57.866089 
L 104.474769 -65.619881 
L 101.223282 -75.4845 
L 97.971795 -86.846058 
L 94.720307 -98.986056 
L 91.46882 -111.180113 
L 88.217333 -122.786244 
L 84.965846 -133.308294 
L 81.714359 -142.427449 
L 78.462872 -150.002472 
L 75.211384 -156.045236 
z
" id="mf35ef72a94" style="stroke:#4c4c4c;stroke-opacity:0.5;stroke-width:1.5;"/>
    </defs>
    <g clip-path="url(#p9d30f7296a)">
     <use style="fill:#df9c20;fill-opacity:0.5;stroke:#4c4c4c;stroke-opacity:0.5;stroke-width:1.5;" x="0" xlink:href="#mf35ef72a94" y="345.6"/>
    </g>
   </g>
   <g id="PolyCollection_2">
    <defs>
     <path d="M 73.832727 -156.156883 
L 73.832727 -185.987117 
L 77.112066 -191.80044 
L 80.391405 -199.052286 
L 83.670744 -207.760476 
L 86.950083 -217.809192 
L 90.229421 -228.926563 
L 93.50876 -240.682168 
L 96.788099 -252.510175 
L 100.067438 -263.759291 
L 103.346777 -273.764783 
L 106.626116 -281.93188 
L 109.905455 -287.815632 
L 113.184793 -291.181265 
L 116.464132 -292.032 
L 119.743471 -290.597779 
L 123.02281 -287.286952 
L 126.302149 -282.611347 
L 129.581488 -277.101092 
L 132.860826 -271.227253 
L 136.140165 -265.347502 
L 139.419504 -259.683353 
L 142.698843 -254.329182 
L 145.978182 -249.285456 
L 149.257521 -244.503693 
L 152.53686 -239.929534 
L 155.816198 -235.533087 
L 159.095537 -231.32103 
L 162.374876 -227.331112 
L 165.654215 -223.614717 
L 168.933554 -220.215753 
L 172.212893 -217.153837 
L 175.492231 -214.417061 
L 178.77157 -211.965656 
L 182.050909 -209.744091 
L 185.330248 -207.696612 
L 188.609587 -205.780711 
L 191.888926 -203.974291 
L 195.168264 -202.274874 
L 198.447603 -200.691984 
L 201.726942 -199.236019 
L 205.006281 -197.907764 
L 208.28562 -196.69214 
L 211.564959 -195.558107 
L 214.844298 -194.464496 
L 218.123636 -193.369646 
L 221.402975 -192.2417 
L 224.682314 -191.066407 
L 227.961653 -189.850303 
L 231.240992 -188.618683 
L 234.520331 -187.40936 
L 237.799669 -186.26431 
L 241.079008 -185.221644 
L 244.358347 -184.309891 
L 247.637686 -183.545614 
L 250.917025 -182.934145 
L 254.196364 -182.472339 
L 257.475702 -182.151754 
L 260.755041 -181.960831 
L 264.03438 -181.8853 
L 267.313719 -181.906903 
L 270.593058 -182.001287 
L 273.872397 -182.13637 
L 277.151736 -182.272399 
L 280.431074 -182.364405 
L 283.710413 -182.366961 
L 286.989752 -182.240396 
L 290.269091 -181.95703 
L 293.54843 -181.50592 
L 296.827769 -180.894924 
L 300.107107 -180.149553 
L 303.386446 -179.308894 
L 306.665785 -178.419542 
L 309.945124 -177.528884 
L 313.224463 -176.679104 
L 316.503802 -175.902916 
L 319.78314 -175.221534 
L 323.062479 -174.644788 
L 326.341818 -174.172852 
L 329.621157 -173.798823 
L 332.900496 -173.511387 
L 336.179835 -173.297043 
L 339.459174 -173.141605 
L 342.738512 -173.03103 
L 346.017851 -172.951789 
L 349.29719 -172.89108 
L 352.576529 -172.83711 
L 355.855868 -172.779559 
L 359.135207 -172.710192 
L 362.414545 -172.623464 
L 365.693884 -172.516929 
L 368.973223 -172.391308 
L 372.252562 -172.250142 
L 375.531901 -172.099069 
L 378.81124 -171.944862 
L 382.090579 -171.794407 
L 385.369917 -171.653796 
L 388.649256 -171.527682 
L 391.928595 -171.418955 
L 395.207934 -171.328726 
L 398.487273 -171.256566 
L 398.487273 -170.887434 
L 398.487273 -170.887434 
L 395.207934 -170.815274 
L 391.928595 -170.725045 
L 388.649256 -170.616318 
L 385.369917 -170.490204 
L 382.090579 -170.349593 
L 378.81124 -170.199138 
L 375.531901 -170.044931 
L 372.252562 -169.893858 
L 368.973223 -169.752692 
L 365.693884 -169.627071 
L 362.414545 -169.520536 
L 359.135207 -169.433808 
L 355.855868 -169.364441 
L 352.576529 -169.30689 
L 349.29719 -169.25292 
L 346.017851 -169.192211 
L 342.738512 -169.11297 
L 339.459174 -169.002395 
L 336.179835 -168.846957 
L 332.900496 -168.632613 
L 329.621157 -168.345177 
L 326.341818 -167.971148 
L 323.062479 -167.499212 
L 319.78314 -166.922466 
L 316.503802 -166.241084 
L 313.224463 -165.464896 
L 309.945124 -164.615116 
L 306.665785 -163.724458 
L 303.386446 -162.835106 
L 300.107107 -161.994447 
L 296.827769 -161.249076 
L 293.54843 -160.63808 
L 290.269091 -160.18697 
L 286.989752 -159.903604 
L 283.710413 -159.777039 
L 280.431074 -159.779595 
L 277.151736 -159.871601 
L 273.872397 -160.00763 
L 270.593058 -160.142713 
L 267.313719 -160.237097 
L 264.03438 -160.2587 
L 260.755041 -160.183169 
L 257.475702 -159.992246 
L 254.196364 -159.671661 
L 250.917025 -159.209855 
L 247.637686 -158.598386 
L 244.358347 -157.834109 
L 241.079008 -156.922356 
L 237.799669 -155.87969 
L 234.520331 -154.73464 
L 231.240992 -153.525317 
L 227.961653 -152.293697 
L 224.682314 -151.077593 
L 221.402975 -149.9023 
L 218.123636 -148.774354 
L 214.844298 -147.679504 
L 211.564959 -146.585893 
L 208.28562 -145.45186 
L 205.006281 -144.236236 
L 201.726942 -142.907981 
L 198.447603 -141.452016 
L 195.168264 -139.869126 
L 191.888926 -138.169709 
L 188.609587 -136.363289 
L 185.330248 -134.447388 
L 182.050909 -132.399909 
L 178.77157 -130.178344 
L 175.492231 -127.726939 
L 172.212893 -124.990163 
L 168.933554 -121.928247 
L 165.654215 -118.529283 
L 162.374876 -114.812888 
L 159.095537 -110.82297 
L 155.816198 -106.610913 
L 152.53686 -102.214466 
L 149.257521 -97.640307 
L 145.978182 -92.858544 
L 142.698843 -87.814818 
L 139.419504 -82.460647 
L 136.140165 -76.796498 
L 132.860826 -70.916747 
L 129.581488 -65.042908 
L 126.302149 -59.532653 
L 123.02281 -54.857048 
L 119.743471 -51.546221 
L 116.464132 -50.112 
L 113.184793 -50.962735 
L 109.905455 -54.328368 
L 106.626116 -60.21212 
L 103.346777 -68.379217 
L 100.067438 -78.384709 
L 96.788099 -89.633825 
L 93.50876 -101.461832 
L 90.229421 -113.217437 
L 86.950083 -124.334808 
L 83.670744 -134.383524 
L 80.391405 -143.091714 
L 77.112066 -150.34356 
L 73.832727 -156.156883 
z
" id="m35fb6c8bb6" style="stroke:#262626;stroke-opacity:0.5;stroke-width:1.5;"/>
    </defs>
    <g clip-path="url(#p9d30f7296a)">
     <use style="fill:#107010;fill-opacity:0.5;stroke:#262626;stroke-opacity:0.5;stroke-width:1.5;" x="0" xlink:href="#m35fb6c8bb6" y="345.6"/>
    </g>
   </g>
   <g id="matplotlib.axis_1">
    <g id="xtick_1">
     <g id="line2d_1">
      <defs>
       <path d="M 0 0 
L 0 3.5 
" id="m8632003343" style="stroke:#000000;stroke-width:0.8;"/>
      </defs>
      <g>
       <use style="stroke:#000000;stroke-width:0.8;" x="112.067422" xlink:href="#m8632003343" y="307.584"/>
      </g>
     </g>
     <g id="text_1">
      <!-- 0 -->
      <defs>
       <path d="M 31.78125 66.40625 
Q 24.171875 66.40625 20.328125 58.90625 
Q 16.5 51.421875 16.5 36.375 
Q 16.5 21.390625 20.328125 13.890625 
Q 24.171875 6.390625 31.78125 6.390625 
Q 39.453125 6.390625 43.28125 13.890625 
Q 47.125 21.390625 47.125 36.375 
Q 47.125 51.421875 43.28125 58.90625 
Q 39.453125 66.40625 31.78125 66.40625 
z
M 31.78125 74.21875 
Q 44.046875 74.21875 50.515625 64.515625 
Q 56.984375 54.828125 56.984375 36.375 
Q 56.984375 17.96875 50.515625 8.265625 
Q 44.046875 -1.421875 31.78125 -1.421875 
Q 19.53125 -1.421875 13.0625 8.265625 
Q 6.59375 17.96875 6.59375 36.375 
Q 6.59375 54.828125 13.0625 64.515625 
Q 19.53125 74.21875 31.78125 74.21875 
z
" id="DejaVuSans-48"/>
      </defs>
      <g transform="translate(108.886172 322.182437)scale(0.1 -0.1)">
       <use xlink:href="#DejaVuSans-48"/>
      </g>
     </g>
    </g>
    <g id="xtick_2">
     <g id="line2d_2">
      <g>
       <use style="stroke:#000000;stroke-width:0.8;" x="182.977466" xlink:href="#m8632003343" y="307.584"/>
      </g>
     </g>
     <g id="text_2">
      <!-- 2 -->
      <defs>
       <path d="M 19.1875 8.296875 
L 53.609375 8.296875 
L 53.609375 0 
L 7.328125 0 
L 7.328125 8.296875 
Q 12.9375 14.109375 22.625 23.890625 
Q 32.328125 33.6875 34.8125 36.53125 
Q 39.546875 41.84375 41.421875 45.53125 
Q 43.3125 49.21875 43.3125 52.78125 
Q 43.3125 58.59375 39.234375 62.25 
Q 35.15625 65.921875 28.609375 65.921875 
Q 23.96875 65.921875 18.8125 64.3125 
Q 13.671875 62.703125 7.8125 59.421875 
L 7.8125 69.390625 
Q 13.765625 71.78125 18.9375 73 
Q 24.125 74.21875 28.421875 74.21875 
Q 39.75 74.21875 46.484375 68.546875 
Q 53.21875 62.890625 53.21875 53.421875 
Q 53.21875 48.921875 51.53125 44.890625 
Q 49.859375 40.875 45.40625 35.40625 
Q 44.1875 33.984375 37.640625 27.21875 
Q 31.109375 20.453125 19.1875 8.296875 
z
" id="DejaVuSans-50"/>
      </defs>
      <g transform="translate(179.796216 322.182437)scale(0.1 -0.1)">
       <use xlink:href="#DejaVuSans-50"/>
      </g>
     </g>
    </g>
    <g id="xtick_3">
     <g id="line2d_3">
      <g>
       <use style="stroke:#000000;stroke-width:0.8;" x="253.887511" xlink:href="#m8632003343" y="307.584"/>
      </g>
     </g>
     <g id="text_3">
      <!-- 4 -->
      <defs>
       <path d="M 37.796875 64.3125 
L 12.890625 25.390625 
L 37.796875 25.390625 
z
M 35.203125 72.90625 
L 47.609375 72.90625 
L 47.609375 25.390625 
L 58.015625 25.390625 
L 58.015625 17.1875 
L 47.609375 17.1875 
L 47.609375 0 
L 37.796875 0 
L 37.796875 17.1875 
L 4.890625 17.1875 
L 4.890625 26.703125 
z
" id="DejaVuSans-52"/>
      </defs>
      <g transform="translate(250.706261 322.182437)scale(0.1 -0.1)">
       <use xlink:href="#DejaVuSans-52"/>
      </g>
     </g>
    </g>
    <g id="xtick_4">
     <g id="line2d_4">
      <g>
       <use style="stroke:#000000;stroke-width:0.8;" x="324.797556" xlink:href="#m8632003343" y="307.584"/>
      </g>
     </g>
     <g id="text_4">
      <!-- 6 -->
      <defs>
       <path d="M 33.015625 40.375 
Q 26.375 40.375 22.484375 35.828125 
Q 18.609375 31.296875 18.609375 23.390625 
Q 18.609375 15.53125 22.484375 10.953125 
Q 26.375 6.390625 33.015625 6.390625 
Q 39.65625 6.390625 43.53125 10.953125 
Q 47.40625 15.53125 47.40625 23.390625 
Q 47.40625 31.296875 43.53125 35.828125 
Q 39.65625 40.375 33.015625 40.375 
z
M 52.59375 71.296875 
L 52.59375 62.3125 
Q 48.875 64.0625 45.09375 64.984375 
Q 41.3125 65.921875 37.59375 65.921875 
Q 27.828125 65.921875 22.671875 59.328125 
Q 17.53125 52.734375 16.796875 39.40625 
Q 19.671875 43.65625 24.015625 45.921875 
Q 28.375 48.1875 33.59375 48.1875 
Q 44.578125 48.1875 50.953125 41.515625 
Q 57.328125 34.859375 57.328125 23.390625 
Q 57.328125 12.15625 50.6875 5.359375 
Q 44.046875 -1.421875 33.015625 -1.421875 
Q 20.359375 -1.421875 13.671875 8.265625 
Q 6.984375 17.96875 6.984375 36.375 
Q 6.984375 53.65625 15.1875 63.9375 
Q 23.390625 74.21875 37.203125 74.21875 
Q 40.921875 74.21875 44.703125 73.484375 
Q 48.484375 72.75 52.59375 71.296875 
z
" id="DejaVuSans-54"/>
      </defs>
      <g transform="translate(321.616306 322.182437)scale(0.1 -0.1)">
       <use xlink:href="#DejaVuSans-54"/>
      </g>
     </g>
    </g>
    <g id="xtick_5">
     <g id="line2d_5">
      <g>
       <use style="stroke:#000000;stroke-width:0.8;" x="395.707601" xlink:href="#m8632003343" y="307.584"/>
      </g>
     </g>
     <g id="text_5">
      <!-- 8 -->
      <defs>
       <path d="M 31.78125 34.625 
Q 24.75 34.625 20.71875 30.859375 
Q 16.703125 27.09375 16.703125 20.515625 
Q 16.703125 13.921875 20.71875 10.15625 
Q 24.75 6.390625 31.78125 6.390625 
Q 38.8125 6.390625 42.859375 10.171875 
Q 46.921875 13.96875 46.921875 20.515625 
Q 46.921875 27.09375 42.890625 30.859375 
Q 38.875 34.625 31.78125 34.625 
z
M 21.921875 38.8125 
Q 15.578125 40.375 12.03125 44.71875 
Q 8.5 49.078125 8.5 55.328125 
Q 8.5 64.0625 14.71875 69.140625 
Q 20.953125 74.21875 31.78125 74.21875 
Q 42.671875 74.21875 48.875 69.140625 
Q 55.078125 64.0625 55.078125 55.328125 
Q 55.078125 49.078125 51.53125 44.71875 
Q 48 40.375 41.703125 38.8125 
Q 48.828125 37.15625 52.796875 32.3125 
Q 56.78125 27.484375 56.78125 20.515625 
Q 56.78125 9.90625 50.3125 4.234375 
Q 43.84375 -1.421875 31.78125 -1.421875 
Q 19.734375 -1.421875 13.25 4.234375 
Q 6.78125 9.90625 6.78125 20.515625 
Q 6.78125 27.484375 10.78125 32.3125 
Q 14.796875 37.15625 21.921875 38.8125 
z
M 18.3125 54.390625 
Q 18.3125 48.734375 21.84375 45.5625 
Q 25.390625 42.390625 31.78125 42.390625 
Q 38.140625 42.390625 41.71875 45.5625 
Q 45.3125 48.734375 45.3125 54.390625 
Q 45.3125 60.0625 41.71875 63.234375 
Q 38.140625 66.40625 31.78125 66.40625 
Q 25.390625 66.40625 21.84375 63.234375 
Q 18.3125 60.0625 18.3125 54.390625 
z
" id="DejaVuSans-56"/>
      </defs>
      <g transform="translate(392.526351 322.182437)scale(0.1 -0.1)">
       <use xlink:href="#DejaVuSans-56"/>
      </g>
     </g>
    </g>
    <g id="text_6">
     <!-- azithromycin_days -->
     <defs>
      <path d="M 34.28125 27.484375 
Q 23.390625 27.484375 19.1875 25 
Q 14.984375 22.515625 14.984375 16.5 
Q 14.984375 11.71875 18.140625 8.90625 
Q 21.296875 6.109375 26.703125 6.109375 
Q 34.1875 6.109375 38.703125 11.40625 
Q 43.21875 16.703125 43.21875 25.484375 
L 43.21875 27.484375 
z
M 52.203125 31.203125 
L 52.203125 0 
L 43.21875 0 
L 43.21875 8.296875 
Q 40.140625 3.328125 35.546875 0.953125 
Q 30.953125 -1.421875 24.3125 -1.421875 
Q 15.921875 -1.421875 10.953125 3.296875 
Q 6 8.015625 6 15.921875 
Q 6 25.140625 12.171875 29.828125 
Q 18.359375 34.515625 30.609375 34.515625 
L 43.21875 34.515625 
L 43.21875 35.40625 
Q 43.21875 41.609375 39.140625 45 
Q 35.0625 48.390625 27.6875 48.390625 
Q 23 48.390625 18.546875 47.265625 
Q 14.109375 46.140625 10.015625 43.890625 
L 10.015625 52.203125 
Q 14.9375 54.109375 19.578125 55.046875 
Q 24.21875 56 28.609375 56 
Q 40.484375 56 46.34375 49.84375 
Q 52.203125 43.703125 52.203125 31.203125 
z
" id="DejaVuSans-97"/>
      <path d="M 5.515625 54.6875 
L 48.1875 54.6875 
L 48.1875 46.484375 
L 14.40625 7.171875 
L 48.1875 7.171875 
L 48.1875 0 
L 4.296875 0 
L 4.296875 8.203125 
L 38.09375 47.515625 
L 5.515625 47.515625 
z
" id="DejaVuSans-122"/>
      <path d="M 9.421875 54.6875 
L 18.40625 54.6875 
L 18.40625 0 
L 9.421875 0 
z
M 9.421875 75.984375 
L 18.40625 75.984375 
L 18.40625 64.59375 
L 9.421875 64.59375 
z
" id="DejaVuSans-105"/>
      <path d="M 18.3125 70.21875 
L 18.3125 54.6875 
L 36.8125 54.6875 
L 36.8125 47.703125 
L 18.3125 47.703125 
L 18.3125 18.015625 
Q 18.3125 11.328125 20.140625 9.421875 
Q 21.96875 7.515625 27.59375 7.515625 
L 36.8125 7.515625 
L 36.8125 0 
L 27.59375 0 
Q 17.1875 0 13.234375 3.875 
Q 9.28125 7.765625 9.28125 18.015625 
L 9.28125 47.703125 
L 2.6875 47.703125 
L 2.6875 54.6875 
L 9.28125 54.6875 
L 9.28125 70.21875 
z
" id="DejaVuSans-116"/>
      <path d="M 54.890625 33.015625 
L 54.890625 0 
L 45.90625 0 
L 45.90625 32.71875 
Q 45.90625 40.484375 42.875 44.328125 
Q 39.84375 48.1875 33.796875 48.1875 
Q 26.515625 48.1875 22.3125 43.546875 
Q 18.109375 38.921875 18.109375 30.90625 
L 18.109375 0 
L 9.078125 0 
L 9.078125 75.984375 
L 18.109375 75.984375 
L 18.109375 46.1875 
Q 21.34375 51.125 25.703125 53.5625 
Q 30.078125 56 35.796875 56 
Q 45.21875 56 50.046875 50.171875 
Q 54.890625 44.34375 54.890625 33.015625 
z
" id="DejaVuSans-104"/>
      <path d="M 41.109375 46.296875 
Q 39.59375 47.171875 37.8125 47.578125 
Q 36.03125 48 33.890625 48 
Q 26.265625 48 22.1875 43.046875 
Q 18.109375 38.09375 18.109375 28.8125 
L 18.109375 0 
L 9.078125 0 
L 9.078125 54.6875 
L 18.109375 54.6875 
L 18.109375 46.1875 
Q 20.953125 51.171875 25.484375 53.578125 
Q 30.03125 56 36.53125 56 
Q 37.453125 56 38.578125 55.875 
Q 39.703125 55.765625 41.0625 55.515625 
z
" id="DejaVuSans-114"/>
      <path d="M 30.609375 48.390625 
Q 23.390625 48.390625 19.1875 42.75 
Q 14.984375 37.109375 14.984375 27.296875 
Q 14.984375 17.484375 19.15625 11.84375 
Q 23.34375 6.203125 30.609375 6.203125 
Q 37.796875 6.203125 41.984375 11.859375 
Q 46.1875 17.53125 46.1875 27.296875 
Q 46.1875 37.015625 41.984375 42.703125 
Q 37.796875 48.390625 30.609375 48.390625 
z
M 30.609375 56 
Q 42.328125 56 49.015625 48.375 
Q 55.71875 40.765625 55.71875 27.296875 
Q 55.71875 13.875 49.015625 6.21875 
Q 42.328125 -1.421875 30.609375 -1.421875 
Q 18.84375 -1.421875 12.171875 6.21875 
Q 5.515625 13.875 5.515625 27.296875 
Q 5.515625 40.765625 12.171875 48.375 
Q 18.84375 56 30.609375 56 
z
" id="DejaVuSans-111"/>
      <path d="M 52 44.1875 
Q 55.375 50.25 60.0625 53.125 
Q 64.75 56 71.09375 56 
Q 79.640625 56 84.28125 50.015625 
Q 88.921875 44.046875 88.921875 33.015625 
L 88.921875 0 
L 79.890625 0 
L 79.890625 32.71875 
Q 79.890625 40.578125 77.09375 44.375 
Q 74.3125 48.1875 68.609375 48.1875 
Q 61.625 48.1875 57.5625 43.546875 
Q 53.515625 38.921875 53.515625 30.90625 
L 53.515625 0 
L 44.484375 0 
L 44.484375 32.71875 
Q 44.484375 40.625 41.703125 44.40625 
Q 38.921875 48.1875 33.109375 48.1875 
Q 26.21875 48.1875 22.15625 43.53125 
Q 18.109375 38.875 18.109375 30.90625 
L 18.109375 0 
L 9.078125 0 
L 9.078125 54.6875 
L 18.109375 54.6875 
L 18.109375 46.1875 
Q 21.1875 51.21875 25.484375 53.609375 
Q 29.78125 56 35.6875 56 
Q 41.65625 56 45.828125 52.96875 
Q 50 49.953125 52 44.1875 
z
" id="DejaVuSans-109"/>
      <path d="M 32.171875 -5.078125 
Q 28.375 -14.84375 24.75 -17.8125 
Q 21.140625 -20.796875 15.09375 -20.796875 
L 7.90625 -20.796875 
L 7.90625 -13.28125 
L 13.1875 -13.28125 
Q 16.890625 -13.28125 18.9375 -11.515625 
Q 21 -9.765625 23.484375 -3.21875 
L 25.09375 0.875 
L 2.984375 54.6875 
L 12.5 54.6875 
L 29.59375 11.921875 
L 46.6875 54.6875 
L 56.203125 54.6875 
z
" id="DejaVuSans-121"/>
      <path d="M 48.78125 52.59375 
L 48.78125 44.1875 
Q 44.96875 46.296875 41.140625 47.34375 
Q 37.3125 48.390625 33.40625 48.390625 
Q 24.65625 48.390625 19.8125 42.84375 
Q 14.984375 37.3125 14.984375 27.296875 
Q 14.984375 17.28125 19.8125 11.734375 
Q 24.65625 6.203125 33.40625 6.203125 
Q 37.3125 6.203125 41.140625 7.25 
Q 44.96875 8.296875 48.78125 10.40625 
L 48.78125 2.09375 
Q 45.015625 0.34375 40.984375 -0.53125 
Q 36.96875 -1.421875 32.421875 -1.421875 
Q 20.0625 -1.421875 12.78125 6.34375 
Q 5.515625 14.109375 5.515625 27.296875 
Q 5.515625 40.671875 12.859375 48.328125 
Q 20.21875 56 33.015625 56 
Q 37.15625 56 41.109375 55.140625 
Q 45.0625 54.296875 48.78125 52.59375 
z
" id="DejaVuSans-99"/>
      <path d="M 54.890625 33.015625 
L 54.890625 0 
L 45.90625 0 
L 45.90625 32.71875 
Q 45.90625 40.484375 42.875 44.328125 
Q 39.84375 48.1875 33.796875 48.1875 
Q 26.515625 48.1875 22.3125 43.546875 
Q 18.109375 38.921875 18.109375 30.90625 
L 18.109375 0 
L 9.078125 0 
L 9.078125 54.6875 
L 18.109375 54.6875 
L 18.109375 46.1875 
Q 21.34375 51.125 25.703125 53.5625 
Q 30.078125 56 35.796875 56 
Q 45.21875 56 50.046875 50.171875 
Q 54.890625 44.34375 54.890625 33.015625 
z
" id="DejaVuSans-110"/>
      <path d="M 50.984375 -16.609375 
L 50.984375 -23.578125 
L -0.984375 -23.578125 
L -0.984375 -16.609375 
z
" id="DejaVuSans-95"/>
      <path d="M 45.40625 46.390625 
L 45.40625 75.984375 
L 54.390625 75.984375 
L 54.390625 0 
L 45.40625 0 
L 45.40625 8.203125 
Q 42.578125 3.328125 38.25 0.953125 
Q 33.9375 -1.421875 27.875 -1.421875 
Q 17.96875 -1.421875 11.734375 6.484375 
Q 5.515625 14.40625 5.515625 27.296875 
Q 5.515625 40.1875 11.734375 48.09375 
Q 17.96875 56 27.875 56 
Q 33.9375 56 38.25 53.625 
Q 42.578125 51.265625 45.40625 46.390625 
z
M 14.796875 27.296875 
Q 14.796875 17.390625 18.875 11.75 
Q 22.953125 6.109375 30.078125 6.109375 
Q 37.203125 6.109375 41.296875 11.75 
Q 45.40625 17.390625 45.40625 27.296875 
Q 45.40625 37.203125 41.296875 42.84375 
Q 37.203125 48.484375 30.078125 48.484375 
Q 22.953125 48.484375 18.875 42.84375 
Q 14.796875 37.203125 14.796875 27.296875 
z
" id="DejaVuSans-100"/>
      <path d="M 44.28125 53.078125 
L 44.28125 44.578125 
Q 40.484375 46.53125 36.375 47.5 
Q 32.28125 48.484375 27.875 48.484375 
Q 21.1875 48.484375 17.84375 46.4375 
Q 14.5 44.390625 14.5 40.28125 
Q 14.5 37.15625 16.890625 35.375 
Q 19.28125 33.59375 26.515625 31.984375 
L 29.59375 31.296875 
Q 39.15625 29.25 43.1875 25.515625 
Q 47.21875 21.78125 47.21875 15.09375 
Q 47.21875 7.46875 41.1875 3.015625 
Q 35.15625 -1.421875 24.609375 -1.421875 
Q 20.21875 -1.421875 15.453125 -0.5625 
Q 10.6875 0.296875 5.421875 2 
L 5.421875 11.28125 
Q 10.40625 8.6875 15.234375 7.390625 
Q 20.0625 6.109375 24.8125 6.109375 
Q 31.15625 6.109375 34.5625 8.28125 
Q 37.984375 10.453125 37.984375 14.40625 
Q 37.984375 18.0625 35.515625 20.015625 
Q 33.0625 21.96875 24.703125 23.78125 
L 21.578125 24.515625 
Q 13.234375 26.265625 9.515625 29.90625 
Q 5.8125 33.546875 5.8125 39.890625 
Q 5.8125 47.609375 11.28125 51.796875 
Q 16.75 56 26.8125 56 
Q 31.78125 56 36.171875 55.265625 
Q 40.578125 54.546875 44.28125 53.078125 
z
" id="DejaVuSans-115"/>
     </defs>
     <g transform="translate(189.512344 335.860562)scale(0.1 -0.1)">
      <use xlink:href="#DejaVuSans-97"/>
      <use x="61.279297" xlink:href="#DejaVuSans-122"/>
      <use x="113.769531" xlink:href="#DejaVuSans-105"/>
      <use x="141.552734" xlink:href="#DejaVuSans-116"/>
      <use x="180.761719" xlink:href="#DejaVuSans-104"/>
      <use x="244.140625" xlink:href="#DejaVuSans-114"/>
      <use x="283.003906" xlink:href="#DejaVuSans-111"/>
      <use x="344.185547" xlink:href="#DejaVuSans-109"/>
      <use x="441.597656" xlink:href="#DejaVuSans-121"/>
      <use x="500.777344" xlink:href="#DejaVuSans-99"/>
      <use x="555.757812" xlink:href="#DejaVuSans-105"/>
      <use x="583.541016" xlink:href="#DejaVuSans-110"/>
      <use x="646.919922" xlink:href="#DejaVuSans-95"/>
      <use x="696.919922" xlink:href="#DejaVuSans-100"/>
      <use x="760.396484" xlink:href="#DejaVuSans-97"/>
      <use x="821.675781" xlink:href="#DejaVuSans-121"/>
      <use x="880.855469" xlink:href="#DejaVuSans-115"/>
     </g>
    </g>
   </g>
   <g id="matplotlib.axis_2">
    <g id="ytick_1">
     <g id="line2d_6">
      <defs>
       <path d="M 0 0 
L -3.5 0 
" id="m4f3a56bc9f" style="stroke:#000000;stroke-width:0.8;"/>
      </defs>
      <g>
       <use style="stroke:#000000;stroke-width:0.8;" x="57.6" xlink:href="#m4f3a56bc9f" y="174.528"/>
      </g>
     </g>
    </g>
   </g>
   <g id="line2d_7">
    <path clip-path="url(#p9d30f7296a)" d="M 112.067422 174.528 
L 289.342534 174.528 
" style="fill:none;stroke:#ffa500;stroke-linecap:square;stroke-width:1.5;"/>
   </g>
   <g id="line2d_8">
    <path clip-path="url(#p9d30f7296a)" d="M 112.067422 174.528 
L 182.977466 174.528 
" style="fill:none;stroke:#4c4c4c;stroke-linecap:square;stroke-width:4.5;"/>
   </g>
   <g id="line2d_9">
    <path clip-path="url(#p9d30f7296a)" d="M 112.067422 174.528 
L 289.342534 174.528 
" style="fill:none;stroke:#008000;stroke-linecap:square;stroke-width:1.5;"/>
   </g>
   <g id="line2d_10">
    <path clip-path="url(#p9d30f7296a)" d="M 112.067422 174.528 
L 182.977466 174.528 
" style="fill:none;stroke:#262626;stroke-linecap:square;stroke-width:4.5;"/>
   </g>
   <g id="patch_3">
    <path d="M 57.6 307.584 
L 57.6 41.472 
" style="fill:none;stroke:#000000;stroke-linecap:square;stroke-linejoin:miter;stroke-width:0.8;"/>
   </g>
   <g id="patch_4">
    <path d="M 414.72 307.584 
L 414.72 41.472 
" style="fill:none;stroke:#000000;stroke-linecap:square;stroke-linejoin:miter;stroke-width:0.8;"/>
   </g>
   <g id="patch_5">
    <path d="M 57.6 307.584 
L 414.72 307.584 
" style="fill:none;stroke:#000000;stroke-linecap:square;stroke-linejoin:miter;stroke-width:0.8;"/>
   </g>
   <g id="patch_6">
    <path d="M 57.6 41.472 
L 414.72 41.472 
" style="fill:none;stroke:#000000;stroke-linecap:square;stroke-linejoin:miter;stroke-width:0.8;"/>
   </g>
   <g id="PathCollection_1">
    <defs>
     <path d="M 0 1.5 
C 0.397805 1.5 0.77937 1.341951 1.06066 1.06066 
C 1.341951 0.77937 1.5 0.397805 1.5 0 
C 1.5 -0.397805 1.341951 -0.77937 1.06066 -1.06066 
C 0.77937 -1.341951 0.397805 -1.5 0 -1.5 
C -0.397805 -1.5 -0.77937 -1.341951 -1.06066 -1.06066 
C -1.341951 -0.77937 -1.5 -0.397805 -1.5 0 
C -1.5 0.397805 -1.341951 0.77937 -1.06066 1.06066 
C -0.77937 1.341951 -0.397805 1.5 0 1.5 
z
" id="m6f3cf6b080" style="stroke:#4c4c4c;stroke-opacity:0.5;"/>
    </defs>
    <g clip-path="url(#p9d30f7296a)">
     <use style="fill:#ffffff;fill-opacity:0.5;stroke:#4c4c4c;stroke-opacity:0.5;" x="147.522444" xlink:href="#m6f3cf6b080" y="174.528"/>
    </g>
   </g>
   <g id="PathCollection_2">
    <defs>
     <path d="M 0 1.5 
C 0.397805 1.5 0.77937 1.341951 1.06066 1.06066 
C 1.341951 0.77937 1.5 0.397805 1.5 0 
C 1.5 -0.397805 1.341951 -0.77937 1.06066 -1.06066 
C 0.77937 -1.341951 0.397805 -1.5 0 -1.5 
C -0.397805 -1.5 -0.77937 -1.341951 -1.06066 -1.06066 
C -1.341951 -0.77937 -1.5 -0.397805 -1.5 0 
C -1.5 0.397805 -1.341951 0.77937 -1.06066 1.06066 
C -0.77937 1.341951 -0.397805 1.5 0 1.5 
z
" id="m62812fbe78" style="stroke:#262626;stroke-opacity:0.5;"/>
    </defs>
    <g clip-path="url(#p9d30f7296a)">
     <use style="fill:#ffffff;fill-opacity:0.5;stroke:#262626;stroke-opacity:0.5;" x="147.522444" xlink:href="#m62812fbe78" y="174.528"/>
    </g>
   </g>
   <g id="text_7">
    <!-- Association of azithromycin_days vs. nasal_cannula -->
    <defs>
     <path d="M 34.1875 63.1875 
L 20.796875 26.90625 
L 47.609375 26.90625 
z
M 28.609375 72.90625 
L 39.796875 72.90625 
L 67.578125 0 
L 57.328125 0 
L 50.6875 18.703125 
L 17.828125 18.703125 
L 11.1875 0 
L 0.78125 0 
z
" id="DejaVuSans-65"/>
     <path id="DejaVuSans-32"/>
     <path d="M 37.109375 75.984375 
L 37.109375 68.5 
L 28.515625 68.5 
Q 23.6875 68.5 21.796875 66.546875 
Q 19.921875 64.59375 19.921875 59.515625 
L 19.921875 54.6875 
L 34.71875 54.6875 
L 34.71875 47.703125 
L 19.921875 47.703125 
L 19.921875 0 
L 10.890625 0 
L 10.890625 47.703125 
L 2.296875 47.703125 
L 2.296875 54.6875 
L 10.890625 54.6875 
L 10.890625 58.5 
Q 10.890625 67.625 15.140625 71.796875 
Q 19.390625 75.984375 28.609375 75.984375 
z
" id="DejaVuSans-102"/>
     <path d="M 2.984375 54.6875 
L 12.5 54.6875 
L 29.59375 8.796875 
L 46.6875 54.6875 
L 56.203125 54.6875 
L 35.6875 0 
L 23.484375 0 
z
" id="DejaVuSans-118"/>
     <path d="M 10.6875 12.40625 
L 21 12.40625 
L 21 0 
L 10.6875 0 
z
" id="DejaVuSans-46"/>
     <path d="M 9.421875 75.984375 
L 18.40625 75.984375 
L 18.40625 0 
L 9.421875 0 
z
" id="DejaVuSans-108"/>
     <path d="M 8.5 21.578125 
L 8.5 54.6875 
L 17.484375 54.6875 
L 17.484375 21.921875 
Q 17.484375 14.15625 20.5 10.265625 
Q 23.53125 6.390625 29.59375 6.390625 
Q 36.859375 6.390625 41.078125 11.03125 
Q 45.3125 15.671875 45.3125 23.6875 
L 45.3125 54.6875 
L 54.296875 54.6875 
L 54.296875 0 
L 45.3125 0 
L 45.3125 8.40625 
Q 42.046875 3.421875 37.71875 1 
Q 33.40625 -1.421875 27.6875 -1.421875 
Q 18.265625 -1.421875 13.375 4.4375 
Q 8.5 10.296875 8.5 21.578125 
z
M 31.109375 56 
z
" id="DejaVuSans-117"/>
    </defs>
    <g transform="translate(81.349688 35.472)scale(0.12 -0.12)">
     <use xlink:href="#DejaVuSans-65"/>
     <use x="68.408203" xlink:href="#DejaVuSans-115"/>
     <use x="120.507812" xlink:href="#DejaVuSans-115"/>
     <use x="172.607422" xlink:href="#DejaVuSans-111"/>
     <use x="233.789062" xlink:href="#DejaVuSans-99"/>
     <use x="288.769531" xlink:href="#DejaVuSans-105"/>
     <use x="316.552734" xlink:href="#DejaVuSans-97"/>
     <use x="377.832031" xlink:href="#DejaVuSans-116"/>
     <use x="417.041016" xlink:href="#DejaVuSans-105"/>
     <use x="444.824219" xlink:href="#DejaVuSans-111"/>
     <use x="506.005859" xlink:href="#DejaVuSans-110"/>
     <use x="569.384766" xlink:href="#DejaVuSans-32"/>
     <use x="601.171875" xlink:href="#DejaVuSans-111"/>
     <use x="662.353516" xlink:href="#DejaVuSans-102"/>
     <use x="697.558594" xlink:href="#DejaVuSans-32"/>
     <use x="729.345703" xlink:href="#DejaVuSans-97"/>
     <use x="790.625" xlink:href="#DejaVuSans-122"/>
     <use x="843.115234" xlink:href="#DejaVuSans-105"/>
     <use x="870.898438" xlink:href="#DejaVuSans-116"/>
     <use x="910.107422" xlink:href="#DejaVuSans-104"/>
     <use x="973.486328" xlink:href="#DejaVuSans-114"/>
     <use x="1012.349609" xlink:href="#DejaVuSans-111"/>
     <use x="1073.53125" xlink:href="#DejaVuSans-109"/>
     <use x="1170.943359" xlink:href="#DejaVuSans-121"/>
     <use x="1230.123047" xlink:href="#DejaVuSans-99"/>
     <use x="1285.103516" xlink:href="#DejaVuSans-105"/>
     <use x="1312.886719" xlink:href="#DejaVuSans-110"/>
     <use x="1376.265625" xlink:href="#DejaVuSans-95"/>
     <use x="1426.265625" xlink:href="#DejaVuSans-100"/>
     <use x="1489.742188" xlink:href="#DejaVuSans-97"/>
     <use x="1551.021484" xlink:href="#DejaVuSans-121"/>
     <use x="1610.201172" xlink:href="#DejaVuSans-115"/>
     <use x="1662.300781" xlink:href="#DejaVuSans-32"/>
     <use x="1694.087891" xlink:href="#DejaVuSans-118"/>
     <use x="1753.267578" xlink:href="#DejaVuSans-115"/>
     <use x="1805.367188" xlink:href="#DejaVuSans-46"/>
     <use x="1837.154297" xlink:href="#DejaVuSans-32"/>
     <use x="1868.941406" xlink:href="#DejaVuSans-110"/>
     <use x="1932.320312" xlink:href="#DejaVuSans-97"/>
     <use x="1993.599609" xlink:href="#DejaVuSans-115"/>
     <use x="2045.699219" xlink:href="#DejaVuSans-97"/>
     <use x="2106.978516" xlink:href="#DejaVuSans-108"/>
     <use x="2134.761719" xlink:href="#DejaVuSans-95"/>
     <use x="2184.761719" xlink:href="#DejaVuSans-99"/>
     <use x="2239.742188" xlink:href="#DejaVuSans-97"/>
     <use x="2301.021484" xlink:href="#DejaVuSans-110"/>
     <use x="2364.400391" xlink:href="#DejaVuSans-110"/>
     <use x="2427.779297" xlink:href="#DejaVuSans-117"/>
     <use x="2491.158203" xlink:href="#DejaVuSans-108"/>
     <use x="2518.941406" xlink:href="#DejaVuSans-97"/>
    </g>
   </g>
   <g id="legend_1">
    <g id="patch_7">
     <path d="M 253.82625 79.3845 
L 407.72 79.3845 
Q 409.72 79.3845 409.72 77.3845 
L 409.72 48.472 
Q 409.72 46.472 407.72 46.472 
L 253.82625 46.472 
Q 251.82625 46.472 251.82625 48.472 
L 251.82625 77.3845 
Q 251.82625 79.3845 253.82625 79.3845 
z
" style="fill:#ffffff;opacity:0.8;stroke:#cccccc;stroke-linejoin:miter;"/>
    </g>
    <g id="line2d_11">
     <path d="M 255.82625 54.570438 
L 275.82625 54.570438 
" style="fill:none;stroke:#ffa500;stroke-linecap:square;stroke-width:1.5;"/>
    </g>
    <g id="line2d_12"/>
    <g id="text_8">
     <!-- nasal_cannula (329) -->
     <defs>
      <path d="M 31 75.875 
Q 24.46875 64.65625 21.28125 53.65625 
Q 18.109375 42.671875 18.109375 31.390625 
Q 18.109375 20.125 21.3125 9.0625 
Q 24.515625 -2 31 -13.1875 
L 23.1875 -13.1875 
Q 15.875 -1.703125 12.234375 9.375 
Q 8.59375 20.453125 8.59375 31.390625 
Q 8.59375 42.28125 12.203125 53.3125 
Q 15.828125 64.359375 23.1875 75.875 
z
" id="DejaVuSans-40"/>
      <path d="M 40.578125 39.3125 
Q 47.65625 37.796875 51.625 33 
Q 55.609375 28.21875 55.609375 21.1875 
Q 55.609375 10.40625 48.1875 4.484375 
Q 40.765625 -1.421875 27.09375 -1.421875 
Q 22.515625 -1.421875 17.65625 -0.515625 
Q 12.796875 0.390625 7.625 2.203125 
L 7.625 11.71875 
Q 11.71875 9.328125 16.59375 8.109375 
Q 21.484375 6.890625 26.8125 6.890625 
Q 36.078125 6.890625 40.9375 10.546875 
Q 45.796875 14.203125 45.796875 21.1875 
Q 45.796875 27.640625 41.28125 31.265625 
Q 36.765625 34.90625 28.71875 34.90625 
L 20.21875 34.90625 
L 20.21875 43.015625 
L 29.109375 43.015625 
Q 36.375 43.015625 40.234375 45.921875 
Q 44.09375 48.828125 44.09375 54.296875 
Q 44.09375 59.90625 40.109375 62.90625 
Q 36.140625 65.921875 28.71875 65.921875 
Q 24.65625 65.921875 20.015625 65.03125 
Q 15.375 64.15625 9.8125 62.3125 
L 9.8125 71.09375 
Q 15.4375 72.65625 20.34375 73.4375 
Q 25.25 74.21875 29.59375 74.21875 
Q 40.828125 74.21875 47.359375 69.109375 
Q 53.90625 64.015625 53.90625 55.328125 
Q 53.90625 49.265625 50.4375 45.09375 
Q 46.96875 40.921875 40.578125 39.3125 
z
" id="DejaVuSans-51"/>
      <path d="M 10.984375 1.515625 
L 10.984375 10.5 
Q 14.703125 8.734375 18.5 7.8125 
Q 22.3125 6.890625 25.984375 6.890625 
Q 35.75 6.890625 40.890625 13.453125 
Q 46.046875 20.015625 46.78125 33.40625 
Q 43.953125 29.203125 39.59375 26.953125 
Q 35.25 24.703125 29.984375 24.703125 
Q 19.046875 24.703125 12.671875 31.3125 
Q 6.296875 37.9375 6.296875 49.421875 
Q 6.296875 60.640625 12.9375 67.421875 
Q 19.578125 74.21875 30.609375 74.21875 
Q 43.265625 74.21875 49.921875 64.515625 
Q 56.59375 54.828125 56.59375 36.375 
Q 56.59375 19.140625 48.40625 8.859375 
Q 40.234375 -1.421875 26.421875 -1.421875 
Q 22.703125 -1.421875 18.890625 -0.6875 
Q 15.09375 0.046875 10.984375 1.515625 
z
M 30.609375 32.421875 
Q 37.25 32.421875 41.125 36.953125 
Q 45.015625 41.5 45.015625 49.421875 
Q 45.015625 57.28125 41.125 61.84375 
Q 37.25 66.40625 30.609375 66.40625 
Q 23.96875 66.40625 20.09375 61.84375 
Q 16.21875 57.28125 16.21875 49.421875 
Q 16.21875 41.5 20.09375 36.953125 
Q 23.96875 32.421875 30.609375 32.421875 
z
" id="DejaVuSans-57"/>
      <path d="M 8.015625 75.875 
L 15.828125 75.875 
Q 23.140625 64.359375 26.78125 53.3125 
Q 30.421875 42.28125 30.421875 31.390625 
Q 30.421875 20.453125 26.78125 9.375 
Q 23.140625 -1.703125 15.828125 -13.1875 
L 8.015625 -13.1875 
Q 14.5 -2 17.703125 9.0625 
Q 20.90625 20.125 20.90625 31.390625 
Q 20.90625 42.671875 17.703125 53.65625 
Q 14.5 64.65625 8.015625 75.875 
z
" id="DejaVuSans-41"/>
     </defs>
     <g transform="translate(283.82625 58.070438)scale(0.1 -0.1)">
      <use xlink:href="#DejaVuSans-110"/>
      <use x="63.378906" xlink:href="#DejaVuSans-97"/>
      <use x="124.658203" xlink:href="#DejaVuSans-115"/>
      <use x="176.757812" xlink:href="#DejaVuSans-97"/>
      <use x="238.037109" xlink:href="#DejaVuSans-108"/>
      <use x="265.820312" xlink:href="#DejaVuSans-95"/>
      <use x="315.820312" xlink:href="#DejaVuSans-99"/>
      <use x="370.800781" xlink:href="#DejaVuSans-97"/>
      <use x="432.080078" xlink:href="#DejaVuSans-110"/>
      <use x="495.458984" xlink:href="#DejaVuSans-110"/>
      <use x="558.837891" xlink:href="#DejaVuSans-117"/>
      <use x="622.216797" xlink:href="#DejaVuSans-108"/>
      <use x="650" xlink:href="#DejaVuSans-97"/>
      <use x="711.279297" xlink:href="#DejaVuSans-32"/>
      <use x="743.066406" xlink:href="#DejaVuSans-40"/>
      <use x="782.080078" xlink:href="#DejaVuSans-51"/>
      <use x="845.703125" xlink:href="#DejaVuSans-50"/>
      <use x="909.326172" xlink:href="#DejaVuSans-57"/>
      <use x="972.949219" xlink:href="#DejaVuSans-41"/>
     </g>
    </g>
    <g id="line2d_13">
     <path d="M 255.82625 69.526688 
L 275.82625 69.526688 
" style="fill:none;stroke:#008000;stroke-linecap:square;stroke-width:1.5;"/>
    </g>
    <g id="line2d_14"/>
    <g id="text_9">
     <!-- Not nasal_cannula (164) -->
     <defs>
      <path d="M 9.8125 72.90625 
L 23.09375 72.90625 
L 55.421875 11.921875 
L 55.421875 72.90625 
L 64.984375 72.90625 
L 64.984375 0 
L 51.703125 0 
L 19.390625 60.984375 
L 19.390625 0 
L 9.8125 0 
z
" id="DejaVuSans-78"/>
      <path d="M 12.40625 8.296875 
L 28.515625 8.296875 
L 28.515625 63.921875 
L 10.984375 60.40625 
L 10.984375 69.390625 
L 28.421875 72.90625 
L 38.28125 72.90625 
L 38.28125 8.296875 
L 54.390625 8.296875 
L 54.390625 0 
L 12.40625 0 
z
" id="DejaVuSans-49"/>
     </defs>
     <g transform="translate(283.82625 73.026688)scale(0.1 -0.1)">
      <use xlink:href="#DejaVuSans-78"/>
      <use x="74.804688" xlink:href="#DejaVuSans-111"/>
      <use x="135.986328" xlink:href="#DejaVuSans-116"/>
      <use x="175.195312" xlink:href="#DejaVuSans-32"/>
      <use x="206.982422" xlink:href="#DejaVuSans-110"/>
      <use x="270.361328" xlink:href="#DejaVuSans-97"/>
      <use x="331.640625" xlink:href="#DejaVuSans-115"/>
      <use x="383.740234" xlink:href="#DejaVuSans-97"/>
      <use x="445.019531" xlink:href="#DejaVuSans-108"/>
      <use x="472.802734" xlink:href="#DejaVuSans-95"/>
      <use x="522.802734" xlink:href="#DejaVuSans-99"/>
      <use x="577.783203" xlink:href="#DejaVuSans-97"/>
      <use x="639.0625" xlink:href="#DejaVuSans-110"/>
      <use x="702.441406" xlink:href="#DejaVuSans-110"/>
      <use x="765.820312" xlink:href="#DejaVuSans-117"/>
      <use x="829.199219" xlink:href="#DejaVuSans-108"/>
      <use x="856.982422" xlink:href="#DejaVuSans-97"/>
      <use x="918.261719" xlink:href="#DejaVuSans-32"/>
      <use x="950.048828" xlink:href="#DejaVuSans-40"/>
      <use x="989.0625" xlink:href="#DejaVuSans-49"/>
      <use x="1052.685547" xlink:href="#DejaVuSans-54"/>
      <use x="1116.308594" xlink:href="#DejaVuSans-52"/>
      <use x="1179.931641" xlink:href="#DejaVuSans-41"/>
     </g>
    </g>
   </g>
  </g>
 </g>
 <defs>
  <clipPath id="p9d30f7296a">
   <rect height="266.112" width="357.12" x="57.6" y="41.472"/>
  </clipPath>
 </defs>
</svg>
