<?xml version="1.0" encoding="utf-8" standalone="no"?>
<!DOCTYPE svg PUBLIC "-//W3C//DTD SVG 1.1//EN"
  "http://www.w3.org/Graphics/SVG/1.1/DTD/svg11.dtd">
<!-- Created with matplotlib (https://matplotlib.org/) -->
<svg height="345.6pt" version="1.1" viewBox="0 0 460.8 345.6" width="460.8pt" xmlns="http://www.w3.org/2000/svg" xmlns:xlink="http://www.w3.org/1999/xlink">
 <defs>
  <style type="text/css">
*{stroke-linecap:butt;stroke-linejoin:round;}
  </style>
 </defs>
 <g id="figure_1">
  <g id="patch_1">
   <path d="M 0 345.6 
L 460.8 345.6 
L 460.8 0 
L 0 0 
z
" style="fill:#ffffff;"/>
  </g>
  <g id="axes_1">
   <g id="patch_2">
    <path d="M 57.6 307.584 
L 414.72 307.584 
L 414.72 41.472 
L 57.6 41.472 
z
" style="fill:#ffffff;"/>
   </g>
   <g id="PolyCollection_1">
    <defs>
     <path d="M 73.832727 -158.299665 
L 73.832727 -183.844335 
L 77.112066 -188.395662 
L 80.391405 -194.007237 
L 83.670744 -200.716242 
L 86.950083 -208.487631 
L 90.229421 -217.200769 
L 93.50876 -226.644866 
L 96.788099 -236.525991 
L 100.067438 -246.486722 
L 103.346777 -256.137173 
L 106.626116 -265.093642 
L 109.905455 -273.019037 
L 113.184793 -279.658251 
L 116.464132 -284.862071 
L 119.743471 -288.59517 
L 123.02281 -290.926873 
L 126.302149 -292.006968 
L 129.581488 -292.032 
L 132.860826 -291.209345 
L 136.140165 -289.726488 
L 139.419504 -287.731166 
L 142.698843 -285.325003 
L 145.978182 -282.569714 
L 149.257521 -279.501929 
L 152.53686 -276.150976 
L 155.816198 -272.553922 
L 159.095537 -268.763801 
L 162.374876 -264.84946 
L 165.654215 -260.888247 
L 168.933554 -256.954777 
L 172.212893 -253.109897 
L 175.492231 -249.3934 
L 178.77157 -245.8225 
L 182.050909 -242.396005 
L 185.330248 -239.102363 
L 188.609587 -235.928693 
L 191.888926 -232.867947 
L 195.168264 -229.922278 
L 198.447603 -227.102126 
L 201.726942 -224.421983 
L 205.006281 -221.894796 
L 208.28562 -219.527139 
L 211.564959 -217.316836 
L 214.844298 -215.253655 
L 218.123636 -213.322588 
L 221.402975 -211.508426 
L 224.682314 -209.799971 
L 227.961653 -208.192558 
L 231.240992 -206.688208 
L 234.520331 -205.293627 
L 237.799669 -204.016914 
L 241.079008 -202.864191 
L 244.358347 -201.837179 
L 247.637686 -200.932311 
L 250.917025 -200.141266 
L 254.196364 -199.452324 
L 257.475702 -198.851662 
L 260.755041 -198.323853 
L 264.03438 -197.851246 
L 267.313719 -197.412495 
L 270.593058 -196.980944 
L 273.872397 -196.523847 
L 277.151736 -196.003231 
L 280.431074 -195.378804 
L 283.710413 -194.612658 
L 286.989752 -193.674974 
L 290.269091 -192.549508 
L 293.54843 -191.237613 
L 296.827769 -189.759823 
L 300.107107 -188.154561 
L 303.386446 -186.474172 
L 306.665785 -184.779019 
L 309.945124 -183.130735 
L 313.224463 -181.585771 
L 316.503802 -180.190207 
L 319.78314 -178.976393 
L 323.062479 -177.96159 
L 326.341818 -177.148391 
L 329.621157 -176.526483 
L 332.900496 -176.075229 
L 336.179835 -175.766592 
L 339.459174 -175.568065 
L 342.738512 -175.445417 
L 346.017851 -175.365171 
L 349.29719 -175.29677 
L 352.576529 -175.2144 
L 355.855868 -175.098391 
L 359.135207 -174.936108 
L 362.414545 -174.72222 
L 365.693884 -174.458318 
L 368.973223 -174.151893 
L 372.252562 -173.814811 
L 375.531901 -173.461481 
L 378.81124 -173.106969 
L 382.090579 -172.765302 
L 385.369917 -172.448148 
L 388.649256 -172.164001 
L 391.928595 -171.917886 
L 395.207934 -171.711528 
L 398.487273 -171.543857 
L 398.487273 -170.600143 
L 398.487273 -170.600143 
L 395.207934 -170.432472 
L 391.928595 -170.226114 
L 388.649256 -169.979999 
L 385.369917 -169.695852 
L 382.090579 -169.378698 
L 378.81124 -169.037031 
L 375.531901 -168.682519 
L 372.252562 -168.329189 
L 368.973223 -167.992107 
L 365.693884 -167.685682 
L 362.414545 -167.42178 
L 359.135207 -167.207892 
L 355.855868 -167.045609 
L 352.576529 -166.9296 
L 349.29719 -166.84723 
L 346.017851 -166.778829 
L 342.738512 -166.698583 
L 339.459174 -166.575935 
L 336.179835 -166.377408 
L 332.900496 -166.068771 
L 329.621157 -165.617517 
L 326.341818 -164.995609 
L 323.062479 -164.18241 
L 319.78314 -163.167607 
L 316.503802 -161.953793 
L 313.224463 -160.558229 
L 309.945124 -159.013265 
L 306.665785 -157.364981 
L 303.386446 -155.669828 
L 300.107107 -153.989439 
L 296.827769 -152.384177 
L 293.54843 -150.906387 
L 290.269091 -149.594492 
L 286.989752 -148.469026 
L 283.710413 -147.531342 
L 280.431074 -146.765196 
L 277.151736 -146.140769 
L 273.872397 -145.620153 
L 270.593058 -145.163056 
L 267.313719 -144.731505 
L 264.03438 -144.292754 
L 260.755041 -143.820147 
L 257.475702 -143.292338 
L 254.196364 -142.691676 
L 250.917025 -142.002734 
L 247.637686 -141.211689 
L 244.358347 -140.306821 
L 241.079008 -139.279809 
L 237.799669 -138.127086 
L 234.520331 -136.850373 
L 231.240992 -135.455792 
L 227.961653 -133.951442 
L 224.682314 -132.344029 
L 221.402975 -130.635574 
L 218.123636 -128.821412 
L 214.844298 -126.890345 
L 211.564959 -124.827164 
L 208.28562 -122.616861 
L 205.006281 -120.249204 
L 201.726942 -117.722017 
L 198.447603 -115.041874 
L 195.168264 -112.221722 
L 191.888926 -109.276053 
L 188.609587 -106.215307 
L 185.330248 -103.041637 
L 182.050909 -99.747995 
L 178.77157 -96.3215 
L 175.492231 -92.7506 
L 172.212893 -89.034103 
L 168.933554 -85.189223 
L 165.654215 -81.255753 
L 162.374876 -77.29454 
L 159.095537 -73.380199 
L 155.816198 -69.590078 
L 152.53686 -65.993024 
L 149.257521 -62.642071 
L 145.978182 -59.574286 
L 142.698843 -56.818997 
L 139.419504 -54.412834 
L 136.140165 -52.417512 
L 132.860826 -50.934655 
L 129.581488 -50.112 
L 126.302149 -50.137032 
L 123.02281 -51.217127 
L 119.743471 -53.54883 
L 116.464132 -57.281929 
L 113.184793 -62.485749 
L 109.905455 -69.124963 
L 106.626116 -77.050358 
L 103.346777 -86.006827 
L 100.067438 -95.657278 
L 96.788099 -105.618009 
L 93.50876 -115.499134 
L 90.229421 -124.943231 
L 86.950083 -133.656369 
L 83.670744 -141.427758 
L 80.391405 -148.136763 
L 77.112066 -153.748338 
L 73.832727 -158.299665 
z
" id="ma1d9a67dfb" style="stroke:#4c4c4c;stroke-opacity:0.5;stroke-width:1.5;"/>
    </defs>
    <g clip-path="url(#p38df96bb69)">
     <use style="fill:#df9c20;fill-opacity:0.5;stroke:#4c4c4c;stroke-opacity:0.5;stroke-width:1.5;" x="0" xlink:href="#ma1d9a67dfb" y="345.6"/>
    </g>
   </g>
   <g id="PolyCollection_2">
    <defs>
     <path d="M 81.167147 -155.625635 
L 81.167147 -186.518365 
L 84.298316 -192.96817 
L 87.429485 -201.099213 
L 90.560654 -210.91057 
L 93.691822 -222.215139 
L 96.822991 -234.611268 
L 99.95416 -247.486834 
L 103.085329 -260.063868 
L 106.216497 -271.483462 
L 109.347666 -280.920145 
L 112.478835 -287.705421 
L 115.610004 -291.434584 
L 118.741172 -292.032 
L 121.872341 -289.758101 
L 125.00351 -285.154761 
L 128.134679 -278.940843 
L 131.265847 -271.882028 
L 134.397016 -264.664905 
L 137.528185 -257.802915 
L 140.659353 -251.592012 
L 143.790522 -246.119839 
L 146.921691 -241.318231 
L 150.05286 -237.038833 
L 153.184028 -233.128225 
L 156.315197 -229.482514 
L 159.446366 -226.070098 
L 162.577535 -222.922241 
L 165.708703 -220.100669 
L 168.839872 -217.657032 
L 171.971041 -215.59951 
L 175.10221 -213.877567 
L 178.233378 -212.388672 
L 181.364547 -211.003255 
L 184.495716 -209.598548 
L 187.626885 -208.089839 
L 190.758053 -206.449345 
L 193.889222 -204.707494 
L 197.020391 -202.937241 
L 200.15156 -201.227218 
L 203.282728 -199.652504 
L 206.413897 -198.25183 
L 209.545066 -197.017468 
L 212.676234 -195.899745 
L 215.807403 -194.82368 
L 218.938572 -193.71191 
L 222.069741 -192.506796 
L 225.200909 -191.18557 
L 228.332078 -189.765009 
L 231.463247 -188.295565 
L 234.594416 -186.847882 
L 237.725584 -185.496425 
L 240.856753 -184.305136 
L 243.987922 -183.318661 
L 247.119091 -182.560452 
L 250.250259 -182.036669 
L 253.381428 -181.743072 
L 256.512597 -181.671452 
L 259.643766 -181.812772 
L 262.774934 -182.15571 
L 265.906103 -182.681227 
L 269.037272 -183.355448 
L 272.16844 -184.123995 
L 275.299609 -184.910715 
L 278.430778 -185.622506 
L 281.561947 -186.160105 
L 284.693115 -186.432779 
L 287.824284 -186.373561 
L 290.955453 -185.951265 
L 294.086622 -185.176292 
L 297.21779 -184.098792 
L 300.348959 -182.799732 
L 303.480128 -181.377097 
L 306.611297 -179.930489 
L 309.742465 -178.547441 
L 312.873634 -177.293942 
L 316.004803 -176.210345 
L 319.135972 -175.312406 
L 322.26714 -174.596068 
L 325.398309 -174.044058 
L 328.529478 -173.63243 
L 331.660647 -173.335684 
L 334.791815 -173.129846 
L 337.922984 -172.993623 
L 341.054153 -172.908216 
L 344.185321 -172.8566 
L 347.31649 -172.822952 
L 350.447659 -172.792654 
L 353.578828 -172.752904 
L 356.709996 -172.693724 
L 359.841165 -172.608952 
L 362.972334 -172.496836 
L 366.103503 -172.359978 
L 369.234671 -172.204589 
L 372.36584 -172.039209 
L 375.497009 -171.873172 
L 378.628178 -171.715156 
L 381.759346 -171.572069 
L 384.890515 -171.44843 
L 388.021684 -171.346253 
L 391.152853 -171.265349 
L 391.152853 -170.878651 
L 391.152853 -170.878651 
L 388.021684 -170.797747 
L 384.890515 -170.69557 
L 381.759346 -170.571931 
L 378.628178 -170.428844 
L 375.497009 -170.270828 
L 372.36584 -170.104791 
L 369.234671 -169.939411 
L 366.103503 -169.784022 
L 362.972334 -169.647164 
L 359.841165 -169.535048 
L 356.709996 -169.450276 
L 353.578828 -169.391096 
L 350.447659 -169.351346 
L 347.31649 -169.321048 
L 344.185321 -169.2874 
L 341.054153 -169.235784 
L 337.922984 -169.150377 
L 334.791815 -169.014154 
L 331.660647 -168.808316 
L 328.529478 -168.51157 
L 325.398309 -168.099942 
L 322.26714 -167.547932 
L 319.135972 -166.831594 
L 316.004803 -165.933655 
L 312.873634 -164.850058 
L 309.742465 -163.596559 
L 306.611297 -162.213511 
L 303.480128 -160.766903 
L 300.348959 -159.344268 
L 297.21779 -158.045208 
L 294.086622 -156.967708 
L 290.955453 -156.192735 
L 287.824284 -155.770439 
L 284.693115 -155.711221 
L 281.561947 -155.983895 
L 278.430778 -156.521494 
L 275.299609 -157.233285 
L 272.16844 -158.020005 
L 269.037272 -158.788552 
L 265.906103 -159.462773 
L 262.774934 -159.98829 
L 259.643766 -160.331228 
L 256.512597 -160.472548 
L 253.381428 -160.400928 
L 250.250259 -160.107331 
L 247.119091 -159.583548 
L 243.987922 -158.825339 
L 240.856753 -157.838864 
L 237.725584 -156.647575 
L 234.594416 -155.296118 
L 231.463247 -153.848435 
L 228.332078 -152.378991 
L 225.200909 -150.95843 
L 222.069741 -149.637204 
L 218.938572 -148.43209 
L 215.807403 -147.32032 
L 212.676234 -146.244255 
L 209.545066 -145.126532 
L 206.413897 -143.89217 
L 203.282728 -142.491496 
L 200.15156 -140.916782 
L 197.020391 -139.206759 
L 193.889222 -137.436506 
L 190.758053 -135.694655 
L 187.626885 -134.054161 
L 184.495716 -132.545452 
L 181.364547 -131.140745 
L 178.233378 -129.755328 
L 175.10221 -128.266433 
L 171.971041 -126.54449 
L 168.839872 -124.486968 
L 165.708703 -122.043331 
L 162.577535 -119.221759 
L 159.446366 -116.073902 
L 156.315197 -112.661486 
L 153.184028 -109.015775 
L 150.05286 -105.105167 
L 146.921691 -100.825769 
L 143.790522 -96.024161 
L 140.659353 -90.551988 
L 137.528185 -84.341085 
L 134.397016 -77.479095 
L 131.265847 -70.261972 
L 128.134679 -63.203157 
L 125.00351 -56.989239 
L 121.872341 -52.385899 
L 118.741172 -50.112 
L 115.610004 -50.709416 
L 112.478835 -54.438579 
L 109.347666 -61.223855 
L 106.216497 -70.660538 
L 103.085329 -82.080132 
L 99.95416 -94.657166 
L 96.822991 -107.532732 
L 93.691822 -119.928861 
L 90.560654 -131.23343 
L 87.429485 -141.044787 
L 84.298316 -149.17583 
L 81.167147 -155.625635 
z
" id="m28b57087b5" style="stroke:#262626;stroke-opacity:0.5;stroke-width:1.5;"/>
    </defs>
    <g clip-path="url(#p38df96bb69)">
     <use style="fill:#107010;fill-opacity:0.5;stroke:#262626;stroke-opacity:0.5;stroke-width:1.5;" x="0" xlink:href="#m28b57087b5" y="345.6"/>
    </g>
   </g>
   <g id="matplotlib.axis_1">
    <g id="xtick_1">
     <g id="line2d_1">
      <defs>
       <path d="M 0 0 
L 0 3.5 
" id="mdca1eab825" style="stroke:#000000;stroke-width:0.8;"/>
      </defs>
      <g>
       <use style="stroke:#000000;stroke-width:0.8;" x="115.46505" xlink:href="#mdca1eab825" y="307.584"/>
      </g>
     </g>
     <g id="text_1">
      <!-- 0 -->
      <defs>
       <path d="M 31.78125 66.40625 
Q 24.171875 66.40625 20.328125 58.90625 
Q 16.5 51.421875 16.5 36.375 
Q 16.5 21.390625 20.328125 13.890625 
Q 24.171875 6.390625 31.78125 6.390625 
Q 39.453125 6.390625 43.28125 13.890625 
Q 47.125 21.390625 47.125 36.375 
Q 47.125 51.421875 43.28125 58.90625 
Q 39.453125 66.40625 31.78125 66.40625 
z
M 31.78125 74.21875 
Q 44.046875 74.21875 50.515625 64.515625 
Q 56.984375 54.828125 56.984375 36.375 
Q 56.984375 17.96875 50.515625 8.265625 
Q 44.046875 -1.421875 31.78125 -1.421875 
Q 19.53125 -1.421875 13.0625 8.265625 
Q 6.59375 17.96875 6.59375 36.375 
Q 6.59375 54.828125 13.0625 64.515625 
Q 19.53125 74.21875 31.78125 74.21875 
z
" id="DejaVuSans-48"/>
      </defs>
      <g transform="translate(112.2838 322.182437)scale(0.1 -0.1)">
       <use xlink:href="#DejaVuSans-48"/>
      </g>
     </g>
    </g>
    <g id="xtick_2">
     <g id="line2d_2">
      <g>
       <use style="stroke:#000000;stroke-width:0.8;" x="184.433593" xlink:href="#mdca1eab825" y="307.584"/>
      </g>
     </g>
     <g id="text_2">
      <!-- 2 -->
      <defs>
       <path d="M 19.1875 8.296875 
L 53.609375 8.296875 
L 53.609375 0 
L 7.328125 0 
L 7.328125 8.296875 
Q 12.9375 14.109375 22.625 23.890625 
Q 32.328125 33.6875 34.8125 36.53125 
Q 39.546875 41.84375 41.421875 45.53125 
Q 43.3125 49.21875 43.3125 52.78125 
Q 43.3125 58.59375 39.234375 62.25 
Q 35.15625 65.921875 28.609375 65.921875 
Q 23.96875 65.921875 18.8125 64.3125 
Q 13.671875 62.703125 7.8125 59.421875 
L 7.8125 69.390625 
Q 13.765625 71.78125 18.9375 73 
Q 24.125 74.21875 28.421875 74.21875 
Q 39.75 74.21875 46.484375 68.546875 
Q 53.21875 62.890625 53.21875 53.421875 
Q 53.21875 48.921875 51.53125 44.890625 
Q 49.859375 40.875 45.40625 35.40625 
Q 44.1875 33.984375 37.640625 27.21875 
Q 31.109375 20.453125 19.1875 8.296875 
z
" id="DejaVuSans-50"/>
      </defs>
      <g transform="translate(181.252343 322.182437)scale(0.1 -0.1)">
       <use xlink:href="#DejaVuSans-50"/>
      </g>
     </g>
    </g>
    <g id="xtick_3">
     <g id="line2d_3">
      <g>
       <use style="stroke:#000000;stroke-width:0.8;" x="253.402136" xlink:href="#mdca1eab825" y="307.584"/>
      </g>
     </g>
     <g id="text_3">
      <!-- 4 -->
      <defs>
       <path d="M 37.796875 64.3125 
L 12.890625 25.390625 
L 37.796875 25.390625 
z
M 35.203125 72.90625 
L 47.609375 72.90625 
L 47.609375 25.390625 
L 58.015625 25.390625 
L 58.015625 17.1875 
L 47.609375 17.1875 
L 47.609375 0 
L 37.796875 0 
L 37.796875 17.1875 
L 4.890625 17.1875 
L 4.890625 26.703125 
z
" id="DejaVuSans-52"/>
      </defs>
      <g transform="translate(250.220886 322.182437)scale(0.1 -0.1)">
       <use xlink:href="#DejaVuSans-52"/>
      </g>
     </g>
    </g>
    <g id="xtick_4">
     <g id="line2d_4">
      <g>
       <use style="stroke:#000000;stroke-width:0.8;" x="322.370679" xlink:href="#mdca1eab825" y="307.584"/>
      </g>
     </g>
     <g id="text_4">
      <!-- 6 -->
      <defs>
       <path d="M 33.015625 40.375 
Q 26.375 40.375 22.484375 35.828125 
Q 18.609375 31.296875 18.609375 23.390625 
Q 18.609375 15.53125 22.484375 10.953125 
Q 26.375 6.390625 33.015625 6.390625 
Q 39.65625 6.390625 43.53125 10.953125 
Q 47.40625 15.53125 47.40625 23.390625 
Q 47.40625 31.296875 43.53125 35.828125 
Q 39.65625 40.375 33.015625 40.375 
z
M 52.59375 71.296875 
L 52.59375 62.3125 
Q 48.875 64.0625 45.09375 64.984375 
Q 41.3125 65.921875 37.59375 65.921875 
Q 27.828125 65.921875 22.671875 59.328125 
Q 17.53125 52.734375 16.796875 39.40625 
Q 19.671875 43.65625 24.015625 45.921875 
Q 28.375 48.1875 33.59375 48.1875 
Q 44.578125 48.1875 50.953125 41.515625 
Q 57.328125 34.859375 57.328125 23.390625 
Q 57.328125 12.15625 50.6875 5.359375 
Q 44.046875 -1.421875 33.015625 -1.421875 
Q 20.359375 -1.421875 13.671875 8.265625 
Q 6.984375 17.96875 6.984375 36.375 
Q 6.984375 53.65625 15.1875 63.9375 
Q 23.390625 74.21875 37.203125 74.21875 
Q 40.921875 74.21875 44.703125 73.484375 
Q 48.484375 72.75 52.59375 71.296875 
z
" id="DejaVuSans-54"/>
      </defs>
      <g transform="translate(319.189429 322.182437)scale(0.1 -0.1)">
       <use xlink:href="#DejaVuSans-54"/>
      </g>
     </g>
    </g>
    <g id="xtick_5">
     <g id="line2d_5">
      <g>
       <use style="stroke:#000000;stroke-width:0.8;" x="391.339222" xlink:href="#mdca1eab825" y="307.584"/>
      </g>
     </g>
     <g id="text_5">
      <!-- 8 -->
      <defs>
       <path d="M 31.78125 34.625 
Q 24.75 34.625 20.71875 30.859375 
Q 16.703125 27.09375 16.703125 20.515625 
Q 16.703125 13.921875 20.71875 10.15625 
Q 24.75 6.390625 31.78125 6.390625 
Q 38.8125 6.390625 42.859375 10.171875 
Q 46.921875 13.96875 46.921875 20.515625 
Q 46.921875 27.09375 42.890625 30.859375 
Q 38.875 34.625 31.78125 34.625 
z
M 21.921875 38.8125 
Q 15.578125 40.375 12.03125 44.71875 
Q 8.5 49.078125 8.5 55.328125 
Q 8.5 64.0625 14.71875 69.140625 
Q 20.953125 74.21875 31.78125 74.21875 
Q 42.671875 74.21875 48.875 69.140625 
Q 55.078125 64.0625 55.078125 55.328125 
Q 55.078125 49.078125 51.53125 44.71875 
Q 48 40.375 41.703125 38.8125 
Q 48.828125 37.15625 52.796875 32.3125 
Q 56.78125 27.484375 56.78125 20.515625 
Q 56.78125 9.90625 50.3125 4.234375 
Q 43.84375 -1.421875 31.78125 -1.421875 
Q 19.734375 -1.421875 13.25 4.234375 
Q 6.78125 9.90625 6.78125 20.515625 
Q 6.78125 27.484375 10.78125 32.3125 
Q 14.796875 37.15625 21.921875 38.8125 
z
M 18.3125 54.390625 
Q 18.3125 48.734375 21.84375 45.5625 
Q 25.390625 42.390625 31.78125 42.390625 
Q 38.140625 42.390625 41.71875 45.5625 
Q 45.3125 48.734375 45.3125 54.390625 
Q 45.3125 60.0625 41.71875 63.234375 
Q 38.140625 66.40625 31.78125 66.40625 
Q 25.390625 66.40625 21.84375 63.234375 
Q 18.3125 60.0625 18.3125 54.390625 
z
" id="DejaVuSans-56"/>
      </defs>
      <g transform="translate(388.157972 322.182437)scale(0.1 -0.1)">
       <use xlink:href="#DejaVuSans-56"/>
      </g>
     </g>
    </g>
    <g id="text_6">
     <!-- azithromycin_days -->
     <defs>
      <path d="M 34.28125 27.484375 
Q 23.390625 27.484375 19.1875 25 
Q 14.984375 22.515625 14.984375 16.5 
Q 14.984375 11.71875 18.140625 8.90625 
Q 21.296875 6.109375 26.703125 6.109375 
Q 34.1875 6.109375 38.703125 11.40625 
Q 43.21875 16.703125 43.21875 25.484375 
L 43.21875 27.484375 
z
M 52.203125 31.203125 
L 52.203125 0 
L 43.21875 0 
L 43.21875 8.296875 
Q 40.140625 3.328125 35.546875 0.953125 
Q 30.953125 -1.421875 24.3125 -1.421875 
Q 15.921875 -1.421875 10.953125 3.296875 
Q 6 8.015625 6 15.921875 
Q 6 25.140625 12.171875 29.828125 
Q 18.359375 34.515625 30.609375 34.515625 
L 43.21875 34.515625 
L 43.21875 35.40625 
Q 43.21875 41.609375 39.140625 45 
Q 35.0625 48.390625 27.6875 48.390625 
Q 23 48.390625 18.546875 47.265625 
Q 14.109375 46.140625 10.015625 43.890625 
L 10.015625 52.203125 
Q 14.9375 54.109375 19.578125 55.046875 
Q 24.21875 56 28.609375 56 
Q 40.484375 56 46.34375 49.84375 
Q 52.203125 43.703125 52.203125 31.203125 
z
" id="DejaVuSans-97"/>
      <path d="M 5.515625 54.6875 
L 48.1875 54.6875 
L 48.1875 46.484375 
L 14.40625 7.171875 
L 48.1875 7.171875 
L 48.1875 0 
L 4.296875 0 
L 4.296875 8.203125 
L 38.09375 47.515625 
L 5.515625 47.515625 
z
" id="DejaVuSans-122"/>
      <path d="M 9.421875 54.6875 
L 18.40625 54.6875 
L 18.40625 0 
L 9.421875 0 
z
M 9.421875 75.984375 
L 18.40625 75.984375 
L 18.40625 64.59375 
L 9.421875 64.59375 
z
" id="DejaVuSans-105"/>
      <path d="M 18.3125 70.21875 
L 18.3125 54.6875 
L 36.8125 54.6875 
L 36.8125 47.703125 
L 18.3125 47.703125 
L 18.3125 18.015625 
Q 18.3125 11.328125 20.140625 9.421875 
Q 21.96875 7.515625 27.59375 7.515625 
L 36.8125 7.515625 
L 36.8125 0 
L 27.59375 0 
Q 17.1875 0 13.234375 3.875 
Q 9.28125 7.765625 9.28125 18.015625 
L 9.28125 47.703125 
L 2.6875 47.703125 
L 2.6875 54.6875 
L 9.28125 54.6875 
L 9.28125 70.21875 
z
" id="DejaVuSans-116"/>
      <path d="M 54.890625 33.015625 
L 54.890625 0 
L 45.90625 0 
L 45.90625 32.71875 
Q 45.90625 40.484375 42.875 44.328125 
Q 39.84375 48.1875 33.796875 48.1875 
Q 26.515625 48.1875 22.3125 43.546875 
Q 18.109375 38.921875 18.109375 30.90625 
L 18.109375 0 
L 9.078125 0 
L 9.078125 75.984375 
L 18.109375 75.984375 
L 18.109375 46.1875 
Q 21.34375 51.125 25.703125 53.5625 
Q 30.078125 56 35.796875 56 
Q 45.21875 56 50.046875 50.171875 
Q 54.890625 44.34375 54.890625 33.015625 
z
" id="DejaVuSans-104"/>
      <path d="M 41.109375 46.296875 
Q 39.59375 47.171875 37.8125 47.578125 
Q 36.03125 48 33.890625 48 
Q 26.265625 48 22.1875 43.046875 
Q 18.109375 38.09375 18.109375 28.8125 
L 18.109375 0 
L 9.078125 0 
L 9.078125 54.6875 
L 18.109375 54.6875 
L 18.109375 46.1875 
Q 20.953125 51.171875 25.484375 53.578125 
Q 30.03125 56 36.53125 56 
Q 37.453125 56 38.578125 55.875 
Q 39.703125 55.765625 41.0625 55.515625 
z
" id="DejaVuSans-114"/>
      <path d="M 30.609375 48.390625 
Q 23.390625 48.390625 19.1875 42.75 
Q 14.984375 37.109375 14.984375 27.296875 
Q 14.984375 17.484375 19.15625 11.84375 
Q 23.34375 6.203125 30.609375 6.203125 
Q 37.796875 6.203125 41.984375 11.859375 
Q 46.1875 17.53125 46.1875 27.296875 
Q 46.1875 37.015625 41.984375 42.703125 
Q 37.796875 48.390625 30.609375 48.390625 
z
M 30.609375 56 
Q 42.328125 56 49.015625 48.375 
Q 55.71875 40.765625 55.71875 27.296875 
Q 55.71875 13.875 49.015625 6.21875 
Q 42.328125 -1.421875 30.609375 -1.421875 
Q 18.84375 -1.421875 12.171875 6.21875 
Q 5.515625 13.875 5.515625 27.296875 
Q 5.515625 40.765625 12.171875 48.375 
Q 18.84375 56 30.609375 56 
z
" id="DejaVuSans-111"/>
      <path d="M 52 44.1875 
Q 55.375 50.25 60.0625 53.125 
Q 64.75 56 71.09375 56 
Q 79.640625 56 84.28125 50.015625 
Q 88.921875 44.046875 88.921875 33.015625 
L 88.921875 0 
L 79.890625 0 
L 79.890625 32.71875 
Q 79.890625 40.578125 77.09375 44.375 
Q 74.3125 48.1875 68.609375 48.1875 
Q 61.625 48.1875 57.5625 43.546875 
Q 53.515625 38.921875 53.515625 30.90625 
L 53.515625 0 
L 44.484375 0 
L 44.484375 32.71875 
Q 44.484375 40.625 41.703125 44.40625 
Q 38.921875 48.1875 33.109375 48.1875 
Q 26.21875 48.1875 22.15625 43.53125 
Q 18.109375 38.875 18.109375 30.90625 
L 18.109375 0 
L 9.078125 0 
L 9.078125 54.6875 
L 18.109375 54.6875 
L 18.109375 46.1875 
Q 21.1875 51.21875 25.484375 53.609375 
Q 29.78125 56 35.6875 56 
Q 41.65625 56 45.828125 52.96875 
Q 50 49.953125 52 44.1875 
z
" id="DejaVuSans-109"/>
      <path d="M 32.171875 -5.078125 
Q 28.375 -14.84375 24.75 -17.8125 
Q 21.140625 -20.796875 15.09375 -20.796875 
L 7.90625 -20.796875 
L 7.90625 -13.28125 
L 13.1875 -13.28125 
Q 16.890625 -13.28125 18.9375 -11.515625 
Q 21 -9.765625 23.484375 -3.21875 
L 25.09375 0.875 
L 2.984375 54.6875 
L 12.5 54.6875 
L 29.59375 11.921875 
L 46.6875 54.6875 
L 56.203125 54.6875 
z
" id="DejaVuSans-121"/>
      <path d="M 48.78125 52.59375 
L 48.78125 44.1875 
Q 44.96875 46.296875 41.140625 47.34375 
Q 37.3125 48.390625 33.40625 48.390625 
Q 24.65625 48.390625 19.8125 42.84375 
Q 14.984375 37.3125 14.984375 27.296875 
Q 14.984375 17.28125 19.8125 11.734375 
Q 24.65625 6.203125 33.40625 6.203125 
Q 37.3125 6.203125 41.140625 7.25 
Q 44.96875 8.296875 48.78125 10.40625 
L 48.78125 2.09375 
Q 45.015625 0.34375 40.984375 -0.53125 
Q 36.96875 -1.421875 32.421875 -1.421875 
Q 20.0625 -1.421875 12.78125 6.34375 
Q 5.515625 14.109375 5.515625 27.296875 
Q 5.515625 40.671875 12.859375 48.328125 
Q 20.21875 56 33.015625 56 
Q 37.15625 56 41.109375 55.140625 
Q 45.0625 54.296875 48.78125 52.59375 
z
" id="DejaVuSans-99"/>
      <path d="M 54.890625 33.015625 
L 54.890625 0 
L 45.90625 0 
L 45.90625 32.71875 
Q 45.90625 40.484375 42.875 44.328125 
Q 39.84375 48.1875 33.796875 48.1875 
Q 26.515625 48.1875 22.3125 43.546875 
Q 18.109375 38.921875 18.109375 30.90625 
L 18.109375 0 
L 9.078125 0 
L 9.078125 54.6875 
L 18.109375 54.6875 
L 18.109375 46.1875 
Q 21.34375 51.125 25.703125 53.5625 
Q 30.078125 56 35.796875 56 
Q 45.21875 56 50.046875 50.171875 
Q 54.890625 44.34375 54.890625 33.015625 
z
" id="DejaVuSans-110"/>
      <path d="M 50.984375 -16.609375 
L 50.984375 -23.578125 
L -0.984375 -23.578125 
L -0.984375 -16.609375 
z
" id="DejaVuSans-95"/>
      <path d="M 45.40625 46.390625 
L 45.40625 75.984375 
L 54.390625 75.984375 
L 54.390625 0 
L 45.40625 0 
L 45.40625 8.203125 
Q 42.578125 3.328125 38.25 0.953125 
Q 33.9375 -1.421875 27.875 -1.421875 
Q 17.96875 -1.421875 11.734375 6.484375 
Q 5.515625 14.40625 5.515625 27.296875 
Q 5.515625 40.1875 11.734375 48.09375 
Q 17.96875 56 27.875 56 
Q 33.9375 56 38.25 53.625 
Q 42.578125 51.265625 45.40625 46.390625 
z
M 14.796875 27.296875 
Q 14.796875 17.390625 18.875 11.75 
Q 22.953125 6.109375 30.078125 6.109375 
Q 37.203125 6.109375 41.296875 11.75 
Q 45.40625 17.390625 45.40625 27.296875 
Q 45.40625 37.203125 41.296875 42.84375 
Q 37.203125 48.484375 30.078125 48.484375 
Q 22.953125 48.484375 18.875 42.84375 
Q 14.796875 37.203125 14.796875 27.296875 
z
" id="DejaVuSans-100"/>
      <path d="M 44.28125 53.078125 
L 44.28125 44.578125 
Q 40.484375 46.53125 36.375 47.5 
Q 32.28125 48.484375 27.875 48.484375 
Q 21.1875 48.484375 17.84375 46.4375 
Q 14.5 44.390625 14.5 40.28125 
Q 14.5 37.15625 16.890625 35.375 
Q 19.28125 33.59375 26.515625 31.984375 
L 29.59375 31.296875 
Q 39.15625 29.25 43.1875 25.515625 
Q 47.21875 21.78125 47.21875 15.09375 
Q 47.21875 7.46875 41.1875 3.015625 
Q 35.15625 -1.421875 24.609375 -1.421875 
Q 20.21875 -1.421875 15.453125 -0.5625 
Q 10.6875 0.296875 5.421875 2 
L 5.421875 11.28125 
Q 10.40625 8.6875 15.234375 7.390625 
Q 20.0625 6.109375 24.8125 6.109375 
Q 31.15625 6.109375 34.5625 8.28125 
Q 37.984375 10.453125 37.984375 14.40625 
Q 37.984375 18.0625 35.515625 20.015625 
Q 33.0625 21.96875 24.703125 23.78125 
L 21.578125 24.515625 
Q 13.234375 26.265625 9.515625 29.90625 
Q 5.8125 33.546875 5.8125 39.890625 
Q 5.8125 47.609375 11.28125 51.796875 
Q 16.75 56 26.8125 56 
Q 31.78125 56 36.171875 55.265625 
Q 40.578125 54.546875 44.28125 53.078125 
z
" id="DejaVuSans-115"/>
     </defs>
     <g transform="translate(189.512344 335.860562)scale(0.1 -0.1)">
      <use xlink:href="#DejaVuSans-97"/>
      <use x="61.279297" xlink:href="#DejaVuSans-122"/>
      <use x="113.769531" xlink:href="#DejaVuSans-105"/>
      <use x="141.552734" xlink:href="#DejaVuSans-116"/>
      <use x="180.761719" xlink:href="#DejaVuSans-104"/>
      <use x="244.140625" xlink:href="#DejaVuSans-114"/>
      <use x="283.003906" xlink:href="#DejaVuSans-111"/>
      <use x="344.185547" xlink:href="#DejaVuSans-109"/>
      <use x="441.597656" xlink:href="#DejaVuSans-121"/>
      <use x="500.777344" xlink:href="#DejaVuSans-99"/>
      <use x="555.757812" xlink:href="#DejaVuSans-105"/>
      <use x="583.541016" xlink:href="#DejaVuSans-110"/>
      <use x="646.919922" xlink:href="#DejaVuSans-95"/>
      <use x="696.919922" xlink:href="#DejaVuSans-100"/>
      <use x="760.396484" xlink:href="#DejaVuSans-97"/>
      <use x="821.675781" xlink:href="#DejaVuSans-121"/>
      <use x="880.855469" xlink:href="#DejaVuSans-115"/>
     </g>
    </g>
   </g>
   <g id="matplotlib.axis_2">
    <g id="ytick_1">
     <g id="line2d_6">
      <defs>
       <path d="M 0 0 
L -3.5 0 
" id="m3189d85c56" style="stroke:#000000;stroke-width:0.8;"/>
      </defs>
      <g>
       <use style="stroke:#000000;stroke-width:0.8;" x="57.6" xlink:href="#m3189d85c56" y="174.528"/>
      </g>
     </g>
    </g>
   </g>
   <g id="line2d_7">
    <path clip-path="url(#p38df96bb69)" d="M 115.46505 174.528 
L 287.886407 174.528 
" style="fill:none;stroke:#ffa500;stroke-linecap:square;stroke-width:1.5;"/>
   </g>
   <g id="line2d_8">
    <path clip-path="url(#p38df96bb69)" d="M 115.46505 174.528 
L 184.433593 174.528 
" style="fill:none;stroke:#4c4c4c;stroke-linecap:square;stroke-width:4.5;"/>
   </g>
   <g id="line2d_9">
    <path clip-path="url(#p38df96bb69)" d="M 115.46505 174.528 
L 287.886407 174.528 
" style="fill:none;stroke:#008000;stroke-linecap:square;stroke-width:1.5;"/>
   </g>
   <g id="line2d_10">
    <path clip-path="url(#p38df96bb69)" d="M 115.46505 174.528 
L 184.433593 174.528 
" style="fill:none;stroke:#262626;stroke-linecap:square;stroke-width:4.5;"/>
   </g>
   <g id="patch_3">
    <path d="M 57.6 307.584 
L 57.6 41.472 
" style="fill:none;stroke:#000000;stroke-linecap:square;stroke-linejoin:miter;stroke-width:0.8;"/>
   </g>
   <g id="patch_4">
    <path d="M 414.72 307.584 
L 414.72 41.472 
" style="fill:none;stroke:#000000;stroke-linecap:square;stroke-linejoin:miter;stroke-width:0.8;"/>
   </g>
   <g id="patch_5">
    <path d="M 57.6 307.584 
L 414.72 307.584 
" style="fill:none;stroke:#000000;stroke-linecap:square;stroke-linejoin:miter;stroke-width:0.8;"/>
   </g>
   <g id="patch_6">
    <path d="M 57.6 41.472 
L 414.72 41.472 
" style="fill:none;stroke:#000000;stroke-linecap:square;stroke-linejoin:miter;stroke-width:0.8;"/>
   </g>
   <g id="PathCollection_1">
    <defs>
     <path d="M 0 1.5 
C 0.397805 1.5 0.77937 1.341951 1.06066 1.06066 
C 1.341951 0.77937 1.5 0.397805 1.5 0 
C 1.5 -0.397805 1.341951 -0.77937 1.06066 -1.06066 
C 0.77937 -1.341951 0.397805 -1.5 0 -1.5 
C -0.397805 -1.5 -0.77937 -1.341951 -1.06066 -1.06066 
C -1.341951 -0.77937 -1.5 -0.397805 -1.5 0 
C -1.5 0.397805 -1.341951 0.77937 -1.06066 1.06066 
C -0.77937 1.341951 -0.397805 1.5 0 1.5 
z
" id="m1bec58ee2c" style="stroke:#4c4c4c;stroke-opacity:0.5;"/>
    </defs>
    <g clip-path="url(#p38df96bb69)">
     <use style="fill:#ffffff;fill-opacity:0.5;stroke:#4c4c4c;stroke-opacity:0.5;" x="149.949321" xlink:href="#m1bec58ee2c" y="174.528"/>
    </g>
   </g>
   <g id="PathCollection_2">
    <defs>
     <path d="M 0 1.5 
C 0.397805 1.5 0.77937 1.341951 1.06066 1.06066 
C 1.341951 0.77937 1.5 0.397805 1.5 0 
C 1.5 -0.397805 1.341951 -0.77937 1.06066 -1.06066 
C 0.77937 -1.341951 0.397805 -1.5 0 -1.5 
C -0.397805 -1.5 -0.77937 -1.341951 -1.06066 -1.06066 
C -1.341951 -0.77937 -1.5 -0.397805 -1.5 0 
C -1.5 0.397805 -1.341951 0.77937 -1.06066 1.06066 
C -0.77937 1.341951 -0.397805 1.5 0 1.5 
z
" id="m2cb3560203" style="stroke:#262626;stroke-opacity:0.5;"/>
    </defs>
    <g clip-path="url(#p38df96bb69)">
     <use style="fill:#ffffff;fill-opacity:0.5;stroke:#262626;stroke-opacity:0.5;" x="149.949321" xlink:href="#m2cb3560203" y="174.528"/>
    </g>
   </g>
   <g id="text_7">
    <!-- Association of azithromycin_days vs. sepsis -->
    <defs>
     <path d="M 34.1875 63.1875 
L 20.796875 26.90625 
L 47.609375 26.90625 
z
M 28.609375 72.90625 
L 39.796875 72.90625 
L 67.578125 0 
L 57.328125 0 
L 50.6875 18.703125 
L 17.828125 18.703125 
L 11.1875 0 
L 0.78125 0 
z
" id="DejaVuSans-65"/>
     <path id="DejaVuSans-32"/>
     <path d="M 37.109375 75.984375 
L 37.109375 68.5 
L 28.515625 68.5 
Q 23.6875 68.5 21.796875 66.546875 
Q 19.921875 64.59375 19.921875 59.515625 
L 19.921875 54.6875 
L 34.71875 54.6875 
L 34.71875 47.703125 
L 19.921875 47.703125 
L 19.921875 0 
L 10.890625 0 
L 10.890625 47.703125 
L 2.296875 47.703125 
L 2.296875 54.6875 
L 10.890625 54.6875 
L 10.890625 58.5 
Q 10.890625 67.625 15.140625 71.796875 
Q 19.390625 75.984375 28.609375 75.984375 
z
" id="DejaVuSans-102"/>
     <path d="M 2.984375 54.6875 
L 12.5 54.6875 
L 29.59375 8.796875 
L 46.6875 54.6875 
L 56.203125 54.6875 
L 35.6875 0 
L 23.484375 0 
z
" id="DejaVuSans-118"/>
     <path d="M 10.6875 12.40625 
L 21 12.40625 
L 21 0 
L 10.6875 0 
z
" id="DejaVuSans-46"/>
     <path d="M 56.203125 29.59375 
L 56.203125 25.203125 
L 14.890625 25.203125 
Q 15.484375 15.921875 20.484375 11.0625 
Q 25.484375 6.203125 34.421875 6.203125 
Q 39.59375 6.203125 44.453125 7.46875 
Q 49.3125 8.734375 54.109375 11.28125 
L 54.109375 2.78125 
Q 49.265625 0.734375 44.1875 -0.34375 
Q 39.109375 -1.421875 33.890625 -1.421875 
Q 20.796875 -1.421875 13.15625 6.1875 
Q 5.515625 13.8125 5.515625 26.8125 
Q 5.515625 40.234375 12.765625 48.109375 
Q 20.015625 56 32.328125 56 
Q 43.359375 56 49.78125 48.890625 
Q 56.203125 41.796875 56.203125 29.59375 
z
M 47.21875 32.234375 
Q 47.125 39.59375 43.09375 43.984375 
Q 39.0625 48.390625 32.421875 48.390625 
Q 24.90625 48.390625 20.390625 44.140625 
Q 15.875 39.890625 15.1875 32.171875 
z
" id="DejaVuSans-101"/>
     <path d="M 18.109375 8.203125 
L 18.109375 -20.796875 
L 9.078125 -20.796875 
L 9.078125 54.6875 
L 18.109375 54.6875 
L 18.109375 46.390625 
Q 20.953125 51.265625 25.265625 53.625 
Q 29.59375 56 35.59375 56 
Q 45.5625 56 51.78125 48.09375 
Q 58.015625 40.1875 58.015625 27.296875 
Q 58.015625 14.40625 51.78125 6.484375 
Q 45.5625 -1.421875 35.59375 -1.421875 
Q 29.59375 -1.421875 25.265625 0.953125 
Q 20.953125 3.328125 18.109375 8.203125 
z
M 48.6875 27.296875 
Q 48.6875 37.203125 44.609375 42.84375 
Q 40.53125 48.484375 33.40625 48.484375 
Q 26.265625 48.484375 22.1875 42.84375 
Q 18.109375 37.203125 18.109375 27.296875 
Q 18.109375 17.390625 22.1875 11.75 
Q 26.265625 6.109375 33.40625 6.109375 
Q 40.53125 6.109375 44.609375 11.75 
Q 48.6875 17.390625 48.6875 27.296875 
z
" id="DejaVuSans-112"/>
    </defs>
    <g transform="translate(105.480938 35.472)scale(0.12 -0.12)">
     <use xlink:href="#DejaVuSans-65"/>
     <use x="68.408203" xlink:href="#DejaVuSans-115"/>
     <use x="120.507812" xlink:href="#DejaVuSans-115"/>
     <use x="172.607422" xlink:href="#DejaVuSans-111"/>
     <use x="233.789062" xlink:href="#DejaVuSans-99"/>
     <use x="288.769531" xlink:href="#DejaVuSans-105"/>
     <use x="316.552734" xlink:href="#DejaVuSans-97"/>
     <use x="377.832031" xlink:href="#DejaVuSans-116"/>
     <use x="417.041016" xlink:href="#DejaVuSans-105"/>
     <use x="444.824219" xlink:href="#DejaVuSans-111"/>
     <use x="506.005859" xlink:href="#DejaVuSans-110"/>
     <use x="569.384766" xlink:href="#DejaVuSans-32"/>
     <use x="601.171875" xlink:href="#DejaVuSans-111"/>
     <use x="662.353516" xlink:href="#DejaVuSans-102"/>
     <use x="697.558594" xlink:href="#DejaVuSans-32"/>
     <use x="729.345703" xlink:href="#DejaVuSans-97"/>
     <use x="790.625" xlink:href="#DejaVuSans-122"/>
     <use x="843.115234" xlink:href="#DejaVuSans-105"/>
     <use x="870.898438" xlink:href="#DejaVuSans-116"/>
     <use x="910.107422" xlink:href="#DejaVuSans-104"/>
     <use x="973.486328" xlink:href="#DejaVuSans-114"/>
     <use x="1012.349609" xlink:href="#DejaVuSans-111"/>
     <use x="1073.53125" xlink:href="#DejaVuSans-109"/>
     <use x="1170.943359" xlink:href="#DejaVuSans-121"/>
     <use x="1230.123047" xlink:href="#DejaVuSans-99"/>
     <use x="1285.103516" xlink:href="#DejaVuSans-105"/>
     <use x="1312.886719" xlink:href="#DejaVuSans-110"/>
     <use x="1376.265625" xlink:href="#DejaVuSans-95"/>
     <use x="1426.265625" xlink:href="#DejaVuSans-100"/>
     <use x="1489.742188" xlink:href="#DejaVuSans-97"/>
     <use x="1551.021484" xlink:href="#DejaVuSans-121"/>
     <use x="1610.201172" xlink:href="#DejaVuSans-115"/>
     <use x="1662.300781" xlink:href="#DejaVuSans-32"/>
     <use x="1694.087891" xlink:href="#DejaVuSans-118"/>
     <use x="1753.267578" xlink:href="#DejaVuSans-115"/>
     <use x="1805.367188" xlink:href="#DejaVuSans-46"/>
     <use x="1837.154297" xlink:href="#DejaVuSans-32"/>
     <use x="1868.941406" xlink:href="#DejaVuSans-115"/>
     <use x="1921.041016" xlink:href="#DejaVuSans-101"/>
     <use x="1982.564453" xlink:href="#DejaVuSans-112"/>
     <use x="2046.041016" xlink:href="#DejaVuSans-115"/>
     <use x="2098.140625" xlink:href="#DejaVuSans-105"/>
     <use x="2125.923828" xlink:href="#DejaVuSans-115"/>
    </g>
   </g>
   <g id="legend_1">
    <g id="patch_7">
     <path d="M 294.045 78.82825 
L 407.72 78.82825 
Q 409.72 78.82825 409.72 76.82825 
L 409.72 48.472 
Q 409.72 46.472 407.72 46.472 
L 294.045 46.472 
Q 292.045 46.472 292.045 48.472 
L 292.045 76.82825 
Q 292.045 78.82825 294.045 78.82825 
z
" style="fill:#ffffff;opacity:0.8;stroke:#cccccc;stroke-linejoin:miter;"/>
    </g>
    <g id="line2d_11">
     <path d="M 296.045 54.570437 
L 316.045 54.570437 
" style="fill:none;stroke:#ffa500;stroke-linecap:square;stroke-width:1.5;"/>
    </g>
    <g id="line2d_12"/>
    <g id="text_8">
     <!-- sepsis (159) -->
     <defs>
      <path d="M 31 75.875 
Q 24.46875 64.65625 21.28125 53.65625 
Q 18.109375 42.671875 18.109375 31.390625 
Q 18.109375 20.125 21.3125 9.0625 
Q 24.515625 -2 31 -13.1875 
L 23.1875 -13.1875 
Q 15.875 -1.703125 12.234375 9.375 
Q 8.59375 20.453125 8.59375 31.390625 
Q 8.59375 42.28125 12.203125 53.3125 
Q 15.828125 64.359375 23.1875 75.875 
z
" id="DejaVuSans-40"/>
      <path d="M 12.40625 8.296875 
L 28.515625 8.296875 
L 28.515625 63.921875 
L 10.984375 60.40625 
L 10.984375 69.390625 
L 28.421875 72.90625 
L 38.28125 72.90625 
L 38.28125 8.296875 
L 54.390625 8.296875 
L 54.390625 0 
L 12.40625 0 
z
" id="DejaVuSans-49"/>
      <path d="M 10.796875 72.90625 
L 49.515625 72.90625 
L 49.515625 64.59375 
L 19.828125 64.59375 
L 19.828125 46.734375 
Q 21.96875 47.46875 24.109375 47.828125 
Q 26.265625 48.1875 28.421875 48.1875 
Q 40.625 48.1875 47.75 41.5 
Q 54.890625 34.8125 54.890625 23.390625 
Q 54.890625 11.625 47.5625 5.09375 
Q 40.234375 -1.421875 26.90625 -1.421875 
Q 22.3125 -1.421875 17.546875 -0.640625 
Q 12.796875 0.140625 7.71875 1.703125 
L 7.71875 11.625 
Q 12.109375 9.234375 16.796875 8.0625 
Q 21.484375 6.890625 26.703125 6.890625 
Q 35.15625 6.890625 40.078125 11.328125 
Q 45.015625 15.765625 45.015625 23.390625 
Q 45.015625 31 40.078125 35.4375 
Q 35.15625 39.890625 26.703125 39.890625 
Q 22.75 39.890625 18.8125 39.015625 
Q 14.890625 38.140625 10.796875 36.28125 
z
" id="DejaVuSans-53"/>
      <path d="M 10.984375 1.515625 
L 10.984375 10.5 
Q 14.703125 8.734375 18.5 7.8125 
Q 22.3125 6.890625 25.984375 6.890625 
Q 35.75 6.890625 40.890625 13.453125 
Q 46.046875 20.015625 46.78125 33.40625 
Q 43.953125 29.203125 39.59375 26.953125 
Q 35.25 24.703125 29.984375 24.703125 
Q 19.046875 24.703125 12.671875 31.3125 
Q 6.296875 37.9375 6.296875 49.421875 
Q 6.296875 60.640625 12.9375 67.421875 
Q 19.578125 74.21875 30.609375 74.21875 
Q 43.265625 74.21875 49.921875 64.515625 
Q 56.59375 54.828125 56.59375 36.375 
Q 56.59375 19.140625 48.40625 8.859375 
Q 40.234375 -1.421875 26.421875 -1.421875 
Q 22.703125 -1.421875 18.890625 -0.6875 
Q 15.09375 0.046875 10.984375 1.515625 
z
M 30.609375 32.421875 
Q 37.25 32.421875 41.125 36.953125 
Q 45.015625 41.5 45.015625 49.421875 
Q 45.015625 57.28125 41.125 61.84375 
Q 37.25 66.40625 30.609375 66.40625 
Q 23.96875 66.40625 20.09375 61.84375 
Q 16.21875 57.28125 16.21875 49.421875 
Q 16.21875 41.5 20.09375 36.953125 
Q 23.96875 32.421875 30.609375 32.421875 
z
" id="DejaVuSans-57"/>
      <path d="M 8.015625 75.875 
L 15.828125 75.875 
Q 23.140625 64.359375 26.78125 53.3125 
Q 30.421875 42.28125 30.421875 31.390625 
Q 30.421875 20.453125 26.78125 9.375 
Q 23.140625 -1.703125 15.828125 -13.1875 
L 8.015625 -13.1875 
Q 14.5 -2 17.703125 9.0625 
Q 20.90625 20.125 20.90625 31.390625 
Q 20.90625 42.671875 17.703125 53.65625 
Q 14.5 64.65625 8.015625 75.875 
z
" id="DejaVuSans-41"/>
     </defs>
     <g transform="translate(324.045 58.070437)scale(0.1 -0.1)">
      <use xlink:href="#DejaVuSans-115"/>
      <use x="52.099609" xlink:href="#DejaVuSans-101"/>
      <use x="113.623047" xlink:href="#DejaVuSans-112"/>
      <use x="177.099609" xlink:href="#DejaVuSans-115"/>
      <use x="229.199219" xlink:href="#DejaVuSans-105"/>
      <use x="256.982422" xlink:href="#DejaVuSans-115"/>
      <use x="309.082031" xlink:href="#DejaVuSans-32"/>
      <use x="340.869141" xlink:href="#DejaVuSans-40"/>
      <use x="379.882812" xlink:href="#DejaVuSans-49"/>
      <use x="443.505859" xlink:href="#DejaVuSans-53"/>
      <use x="507.128906" xlink:href="#DejaVuSans-57"/>
      <use x="570.751953" xlink:href="#DejaVuSans-41"/>
     </g>
    </g>
    <g id="line2d_13">
     <path d="M 296.045 69.248562 
L 316.045 69.248562 
" style="fill:none;stroke:#008000;stroke-linecap:square;stroke-width:1.5;"/>
    </g>
    <g id="line2d_14"/>
    <g id="text_9">
     <!-- Not sepsis (326) -->
     <defs>
      <path d="M 9.8125 72.90625 
L 23.09375 72.90625 
L 55.421875 11.921875 
L 55.421875 72.90625 
L 64.984375 72.90625 
L 64.984375 0 
L 51.703125 0 
L 19.390625 60.984375 
L 19.390625 0 
L 9.8125 0 
z
" id="DejaVuSans-78"/>
      <path d="M 40.578125 39.3125 
Q 47.65625 37.796875 51.625 33 
Q 55.609375 28.21875 55.609375 21.1875 
Q 55.609375 10.40625 48.1875 4.484375 
Q 40.765625 -1.421875 27.09375 -1.421875 
Q 22.515625 -1.421875 17.65625 -0.515625 
Q 12.796875 0.390625 7.625 2.203125 
L 7.625 11.71875 
Q 11.71875 9.328125 16.59375 8.109375 
Q 21.484375 6.890625 26.8125 6.890625 
Q 36.078125 6.890625 40.9375 10.546875 
Q 45.796875 14.203125 45.796875 21.1875 
Q 45.796875 27.640625 41.28125 31.265625 
Q 36.765625 34.90625 28.71875 34.90625 
L 20.21875 34.90625 
L 20.21875 43.015625 
L 29.109375 43.015625 
Q 36.375 43.015625 40.234375 45.921875 
Q 44.09375 48.828125 44.09375 54.296875 
Q 44.09375 59.90625 40.109375 62.90625 
Q 36.140625 65.921875 28.71875 65.921875 
Q 24.65625 65.921875 20.015625 65.03125 
Q 15.375 64.15625 9.8125 62.3125 
L 9.8125 71.09375 
Q 15.4375 72.65625 20.34375 73.4375 
Q 25.25 74.21875 29.59375 74.21875 
Q 40.828125 74.21875 47.359375 69.109375 
Q 53.90625 64.015625 53.90625 55.328125 
Q 53.90625 49.265625 50.4375 45.09375 
Q 46.96875 40.921875 40.578125 39.3125 
z
" id="DejaVuSans-51"/>
     </defs>
     <g transform="translate(324.045 72.748562)scale(0.1 -0.1)">
      <use xlink:href="#DejaVuSans-78"/>
      <use x="74.804688" xlink:href="#DejaVuSans-111"/>
      <use x="135.986328" xlink:href="#DejaVuSans-116"/>
      <use x="175.195312" xlink:href="#DejaVuSans-32"/>
      <use x="206.982422" xlink:href="#DejaVuSans-115"/>
      <use x="259.082031" xlink:href="#DejaVuSans-101"/>
      <use x="320.605469" xlink:href="#DejaVuSans-112"/>
      <use x="384.082031" xlink:href="#DejaVuSans-115"/>
      <use x="436.181641" xlink:href="#DejaVuSans-105"/>
      <use x="463.964844" xlink:href="#DejaVuSans-115"/>
      <use x="516.064453" xlink:href="#DejaVuSans-32"/>
      <use x="547.851562" xlink:href="#DejaVuSans-40"/>
      <use x="586.865234" xlink:href="#DejaVuSans-51"/>
      <use x="650.488281" xlink:href="#DejaVuSans-50"/>
      <use x="714.111328" xlink:href="#DejaVuSans-54"/>
      <use x="777.734375" xlink:href="#DejaVuSans-41"/>
     </g>
    </g>
   </g>
  </g>
 </g>
 <defs>
  <clipPath id="p38df96bb69">
   <rect height="266.112" width="357.12" x="57.6" y="41.472"/>
  </clipPath>
 </defs>
</svg>
