<?xml version="1.0" encoding="utf-8" standalone="no"?>
<!DOCTYPE svg PUBLIC "-//W3C//DTD SVG 1.1//EN"
  "http://www.w3.org/Graphics/SVG/1.1/DTD/svg11.dtd">
<!-- Created with matplotlib (https://matplotlib.org/) -->
<svg height="345.6pt" version="1.1" viewBox="0 0 460.8 345.6" width="460.8pt" xmlns="http://www.w3.org/2000/svg" xmlns:xlink="http://www.w3.org/1999/xlink">
 <defs>
  <style type="text/css">
*{stroke-linecap:butt;stroke-linejoin:round;}
  </style>
 </defs>
 <g id="figure_1">
  <g id="patch_1">
   <path d="M 0 345.6 
L 460.8 345.6 
L 460.8 0 
L 0 0 
z
" style="fill:#ffffff;"/>
  </g>
  <g id="axes_1">
   <g id="patch_2">
    <path d="M 57.6 307.584 
L 414.72 307.584 
L 414.72 41.472 
L 57.6 41.472 
z
" style="fill:#ffffff;"/>
   </g>
   <g id="PolyCollection_1">
    <defs>
     <path d="M 97.99237 -169.972099 
L 97.99237 -172.171901 
L 101.011896 -172.7539 
L 104.031422 -173.568729 
L 107.050947 -174.673375 
L 110.070473 -176.124913 
L 113.089999 -177.975916 
L 116.109524 -180.269815 
L 119.12905 -183.037018 
L 122.148576 -186.292443 
L 125.168101 -190.034806 
L 128.187627 -194.247541 
L 131.207153 -198.900779 
L 134.226678 -203.953518 
L 137.246204 -209.355156 
L 140.26573 -215.045833 
L 143.285255 -220.955635 
L 146.304781 -227.003286 
L 149.324307 -233.095437 
L 152.343832 -239.127767 
L 155.363358 -244.988808 
L 158.382884 -250.566684 
L 161.402409 -255.758117 
L 164.421935 -260.478253 
L 167.441461 -264.669447 
L 170.460986 -268.307276 
L 173.480512 -271.40262 
L 176.500038 -273.999527 
L 179.519563 -276.169391 
L 182.539089 -278.002454 
L 185.558615 -279.597775 
L 188.57814 -281.052536 
L 191.597666 -282.451333 
L 194.617192 -283.856029 
L 197.636717 -285.297033 
L 200.656243 -286.767366 
L 203.675769 -288.22121 
L 206.695294 -289.578513 
L 209.71482 -290.736301 
L 212.734346 -291.585719 
L 215.753871 -292.032 
L 218.773397 -292.013025 
L 221.792923 -291.51167 
L 224.812448 -290.558082 
L 227.831974 -289.22028 
L 230.8515 -287.584513 
L 233.871025 -285.729756 
L 236.890551 -283.702652 
L 239.910077 -281.499458 
L 242.929602 -279.060093 
L 245.949128 -276.276473 
L 248.968654 -273.013819 
L 251.988179 -269.140511 
L 255.007705 -264.559989 
L 258.027231 -259.237769 
L 261.046756 -253.217787 
L 264.066282 -246.62466 
L 267.085808 -239.651561 
L 270.105333 -232.536336 
L 273.124859 -225.530777 
L 276.144385 -218.869048 
L 279.16391 -212.740946 
L 282.183436 -207.27425 
L 285.202962 -202.528177 
L 288.222487 -198.497614 
L 291.242013 -195.125807 
L 294.261539 -192.321989 
L 297.281064 -189.980173 
L 300.30059 -187.995807 
L 303.320116 -186.278095 
L 306.339641 -184.757011 
L 309.359167 -183.385222 
L 312.378693 -182.13599 
L 315.398218 -180.99858 
L 318.417744 -179.972721 
L 321.43727 -179.063352 
L 324.456795 -178.276406 
L 327.476321 -177.615859 
L 330.495847 -177.081898 
L 333.515372 -176.669881 
L 336.534898 -176.369828 
L 339.554424 -176.166291 
L 342.573949 -176.038681 
L 345.593475 -175.962175 
L 348.613001 -175.90931 
L 351.632526 -175.852221 
L 354.652052 -175.765285 
L 357.671578 -175.627791 
L 360.691103 -175.426179 
L 363.710629 -175.155436 
L 366.730155 -174.819381 
L 369.74968 -174.429761 
L 372.769206 -174.004306 
L 375.788732 -173.564079 
L 378.808257 -173.130581 
L 381.827783 -172.723085 
L 384.847309 -172.356611 
L 387.866834 -172.040797 
L 390.88636 -171.779708 
L 393.905886 -171.572467 
L 396.925411 -171.414427 
L 396.925411 -170.729573 
L 396.925411 -170.729573 
L 393.905886 -170.571533 
L 390.88636 -170.364292 
L 387.866834 -170.103203 
L 384.847309 -169.787389 
L 381.827783 -169.420915 
L 378.808257 -169.013419 
L 375.788732 -168.579921 
L 372.769206 -168.139694 
L 369.74968 -167.714239 
L 366.730155 -167.324619 
L 363.710629 -166.988564 
L 360.691103 -166.717821 
L 357.671578 -166.516209 
L 354.652052 -166.378715 
L 351.632526 -166.291779 
L 348.613001 -166.23469 
L 345.593475 -166.181825 
L 342.573949 -166.105319 
L 339.554424 -165.977709 
L 336.534898 -165.774172 
L 333.515372 -165.474119 
L 330.495847 -165.062102 
L 327.476321 -164.528141 
L 324.456795 -163.867594 
L 321.43727 -163.080648 
L 318.417744 -162.171279 
L 315.398218 -161.14542 
L 312.378693 -160.00801 
L 309.359167 -158.758778 
L 306.339641 -157.386989 
L 303.320116 -155.865905 
L 300.30059 -154.148193 
L 297.281064 -152.163827 
L 294.261539 -149.822011 
L 291.242013 -147.018193 
L 288.222487 -143.646386 
L 285.202962 -139.615823 
L 282.183436 -134.86975 
L 279.16391 -129.403054 
L 276.144385 -123.274952 
L 273.124859 -116.613223 
L 270.105333 -109.607664 
L 267.085808 -102.492439 
L 264.066282 -95.51934 
L 261.046756 -88.926213 
L 258.027231 -82.906231 
L 255.007705 -77.584011 
L 251.988179 -73.003489 
L 248.968654 -69.130181 
L 245.949128 -65.867527 
L 242.929602 -63.083907 
L 239.910077 -60.644542 
L 236.890551 -58.441348 
L 233.871025 -56.414244 
L 230.8515 -54.559487 
L 227.831974 -52.92372 
L 224.812448 -51.585918 
L 221.792923 -50.63233 
L 218.773397 -50.130975 
L 215.753871 -50.112 
L 212.734346 -50.558281 
L 209.71482 -51.407699 
L 206.695294 -52.565487 
L 203.675769 -53.92279 
L 200.656243 -55.376634 
L 197.636717 -56.846967 
L 194.617192 -58.287971 
L 191.597666 -59.692667 
L 188.57814 -61.091464 
L 185.558615 -62.546225 
L 182.539089 -64.141546 
L 179.519563 -65.974609 
L 176.500038 -68.144473 
L 173.480512 -70.74138 
L 170.460986 -73.836724 
L 167.441461 -77.474553 
L 164.421935 -81.665747 
L 161.402409 -86.385883 
L 158.382884 -91.577316 
L 155.363358 -97.155192 
L 152.343832 -103.016233 
L 149.324307 -109.048563 
L 146.304781 -115.140714 
L 143.285255 -121.188365 
L 140.26573 -127.098167 
L 137.246204 -132.788844 
L 134.226678 -138.190482 
L 131.207153 -143.243221 
L 128.187627 -147.896459 
L 125.168101 -152.109194 
L 122.148576 -155.851557 
L 119.12905 -159.106982 
L 116.109524 -161.874185 
L 113.089999 -164.168084 
L 110.070473 -166.019087 
L 107.050947 -167.470625 
L 104.031422 -168.575271 
L 101.011896 -169.3901 
L 97.99237 -169.972099 
z
" id="m815af767c7" style="stroke:#4c4c4c;stroke-opacity:0.5;stroke-width:1.5;"/>
    </defs>
    <g clip-path="url(#p3c79d92d9b)">
     <use style="fill:#df9c20;fill-opacity:0.5;stroke:#4c4c4c;stroke-opacity:0.5;stroke-width:1.5;" x="0" xlink:href="#m815af767c7" y="345.6"/>
    </g>
   </g>
   <g id="PolyCollection_2">
    <defs>
     <path d="M 73.832727 -170.883819 
L 73.832727 -171.260181 
L 77.112066 -171.373995 
L 80.391405 -171.532762 
L 83.670744 -171.74124 
L 86.950083 -171.999045 
L 90.229421 -172.299835 
L 93.50876 -172.632648 
L 96.788099 -172.986005 
L 100.067438 -173.354583 
L 103.346777 -173.747199 
L 106.626116 -174.193798 
L 109.905455 -174.748671 
L 113.184793 -175.487498 
L 116.464132 -176.49731 
L 119.743471 -177.860834 
L 123.02281 -179.639287 
L 126.302149 -181.859338 
L 129.581488 -184.509639 
L 132.860826 -187.549502 
L 136.140165 -190.927742 
L 139.419504 -194.605183 
L 142.698843 -198.57214 
L 145.978182 -202.853644 
L 149.257521 -207.499956 
L 152.53686 -212.565851 
L 155.816198 -218.086404 
L 159.095537 -224.05786 
L 162.374876 -230.429387 
L 165.654215 -237.106943 
L 168.933554 -243.966179 
L 172.212893 -250.868747 
L 175.492231 -257.676033 
L 178.77157 -264.255783 
L 182.050909 -270.479878 
L 185.330248 -276.215213 
L 188.609587 -281.313319 
L 191.888926 -285.606721 
L 195.168264 -288.919361 
L 198.447603 -291.093962 
L 201.726942 -292.032 
L 205.006281 -291.734844 
L 208.28562 -290.331104 
L 211.564959 -288.077626 
L 214.844298 -285.329438 
L 218.123636 -282.484117 
L 221.402975 -279.914177 
L 224.682314 -277.903779 
L 227.961653 -276.602879 
L 231.240992 -276.005338 
L 234.520331 -275.951201 
L 237.799669 -276.150121 
L 241.079008 -276.222496 
L 244.358347 -275.755224 
L 247.637686 -274.367405 
L 250.917025 -271.777323 
L 254.196364 -267.857721 
L 257.475702 -262.665043 
L 260.755041 -256.432449 
L 264.03438 -249.525458 
L 267.313719 -242.369998 
L 270.593058 -235.37113 
L 273.872397 -228.843402 
L 277.151736 -222.969721 
L 280.431074 -217.796467 
L 283.710413 -213.26161 
L 286.989752 -209.243553 
L 290.269091 -205.613948 
L 293.54843 -202.278825 
L 296.827769 -199.198051 
L 300.107107 -196.381145 
L 303.386446 -193.865166 
L 306.665785 -191.685218 
L 309.945124 -189.849032 
L 313.224463 -188.32405 
L 316.503802 -187.039995 
L 319.78314 -185.904242 
L 323.062479 -184.8234 
L 326.341818 -183.723516 
L 329.621157 -182.563083 
L 332.900496 -181.336405 
L 336.179835 -180.068303 
L 339.459174 -178.803421 
L 342.738512 -177.593945 
L 346.017851 -176.488727 
L 349.29719 -175.525339 
L 352.576529 -174.725314 
L 355.855868 -174.092274 
L 359.135207 -173.612665 
L 362.414545 -173.258986 
L 365.693884 -172.995317 
L 368.973223 -172.784308 
L 372.252562 -172.594165 
L 375.531901 -172.403817 
L 378.81124 -172.204902 
L 382.090579 -172.000274 
L 385.369917 -171.79991 
L 388.649256 -171.615894 
L 391.928595 -171.458153 
L 395.207934 -171.33203 
L 398.487273 -171.237884 
L 398.487273 -170.906116 
L 398.487273 -170.906116 
L 395.207934 -170.81197 
L 391.928595 -170.685847 
L 388.649256 -170.528106 
L 385.369917 -170.34409 
L 382.090579 -170.143726 
L 378.81124 -169.939098 
L 375.531901 -169.740183 
L 372.252562 -169.549835 
L 368.973223 -169.359692 
L 365.693884 -169.148683 
L 362.414545 -168.885014 
L 359.135207 -168.531335 
L 355.855868 -168.051726 
L 352.576529 -167.418686 
L 349.29719 -166.618661 
L 346.017851 -165.655273 
L 342.738512 -164.550055 
L 339.459174 -163.340579 
L 336.179835 -162.075697 
L 332.900496 -160.807595 
L 329.621157 -159.580917 
L 326.341818 -158.420484 
L 323.062479 -157.3206 
L 319.78314 -156.239758 
L 316.503802 -155.104005 
L 313.224463 -153.81995 
L 309.945124 -152.294968 
L 306.665785 -150.458782 
L 303.386446 -148.278834 
L 300.107107 -145.762855 
L 296.827769 -142.945949 
L 293.54843 -139.865175 
L 290.269091 -136.530052 
L 286.989752 -132.900447 
L 283.710413 -128.88239 
L 280.431074 -124.347533 
L 277.151736 -119.174279 
L 273.872397 -113.300598 
L 270.593058 -106.77287 
L 267.313719 -99.774002 
L 264.03438 -92.618542 
L 260.755041 -85.711551 
L 257.475702 -79.478957 
L 254.196364 -74.286279 
L 250.917025 -70.366677 
L 247.637686 -67.776595 
L 244.358347 -66.388776 
L 241.079008 -65.921504 
L 237.799669 -65.993879 
L 234.520331 -66.192799 
L 231.240992 -66.138662 
L 227.961653 -65.541121 
L 224.682314 -64.240221 
L 221.402975 -62.229823 
L 218.123636 -59.659883 
L 214.844298 -56.814562 
L 211.564959 -54.066374 
L 208.28562 -51.812896 
L 205.006281 -50.409156 
L 201.726942 -50.112 
L 198.447603 -51.050038 
L 195.168264 -53.224639 
L 191.888926 -56.537279 
L 188.609587 -60.830681 
L 185.330248 -65.928787 
L 182.050909 -71.664122 
L 178.77157 -77.888217 
L 175.492231 -84.467967 
L 172.212893 -91.275253 
L 168.933554 -98.177821 
L 165.654215 -105.037057 
L 162.374876 -111.714613 
L 159.095537 -118.08614 
L 155.816198 -124.057596 
L 152.53686 -129.578149 
L 149.257521 -134.644044 
L 145.978182 -139.290356 
L 142.698843 -143.57186 
L 139.419504 -147.538817 
L 136.140165 -151.216258 
L 132.860826 -154.594498 
L 129.581488 -157.634361 
L 126.302149 -160.284662 
L 123.02281 -162.504713 
L 119.743471 -164.283166 
L 116.464132 -165.64669 
L 113.184793 -166.656502 
L 109.905455 -167.395329 
L 106.626116 -167.950202 
L 103.346777 -168.396801 
L 100.067438 -168.789417 
L 96.788099 -169.157995 
L 93.50876 -169.511352 
L 90.229421 -169.844165 
L 86.950083 -170.144955 
L 83.670744 -170.40276 
L 80.391405 -170.611238 
L 77.112066 -170.770005 
L 73.832727 -170.883819 
z
" id="m3395b52989" style="stroke:#262626;stroke-opacity:0.5;stroke-width:1.5;"/>
    </defs>
    <g clip-path="url(#p3c79d92d9b)">
     <use style="fill:#107010;fill-opacity:0.5;stroke:#262626;stroke-opacity:0.5;stroke-width:1.5;" x="0" xlink:href="#m3395b52989" y="345.6"/>
    </g>
   </g>
   <g id="matplotlib.axis_1">
    <g id="xtick_1">
     <g id="line2d_1">
      <defs>
       <path d="M 0 0 
L 0 3.5 
" id="mc5d49fbffa" style="stroke:#000000;stroke-width:0.8;"/>
      </defs>
      <g>
       <use style="stroke:#000000;stroke-width:0.8;" x="60.085619" xlink:href="#mc5d49fbffa" y="307.584"/>
      </g>
     </g>
     <g id="text_1">
      <!-- 50 -->
      <defs>
       <path d="M 10.796875 72.90625 
L 49.515625 72.90625 
L 49.515625 64.59375 
L 19.828125 64.59375 
L 19.828125 46.734375 
Q 21.96875 47.46875 24.109375 47.828125 
Q 26.265625 48.1875 28.421875 48.1875 
Q 40.625 48.1875 47.75 41.5 
Q 54.890625 34.8125 54.890625 23.390625 
Q 54.890625 11.625 47.5625 5.09375 
Q 40.234375 -1.421875 26.90625 -1.421875 
Q 22.3125 -1.421875 17.546875 -0.640625 
Q 12.796875 0.140625 7.71875 1.703125 
L 7.71875 11.625 
Q 12.109375 9.234375 16.796875 8.0625 
Q 21.484375 6.890625 26.703125 6.890625 
Q 35.15625 6.890625 40.078125 11.328125 
Q 45.015625 15.765625 45.015625 23.390625 
Q 45.015625 31 40.078125 35.4375 
Q 35.15625 39.890625 26.703125 39.890625 
Q 22.75 39.890625 18.8125 39.015625 
Q 14.890625 38.140625 10.796875 36.28125 
z
" id="DejaVuSans-53"/>
       <path d="M 31.78125 66.40625 
Q 24.171875 66.40625 20.328125 58.90625 
Q 16.5 51.421875 16.5 36.375 
Q 16.5 21.390625 20.328125 13.890625 
Q 24.171875 6.390625 31.78125 6.390625 
Q 39.453125 6.390625 43.28125 13.890625 
Q 47.125 21.390625 47.125 36.375 
Q 47.125 51.421875 43.28125 58.90625 
Q 39.453125 66.40625 31.78125 66.40625 
z
M 31.78125 74.21875 
Q 44.046875 74.21875 50.515625 64.515625 
Q 56.984375 54.828125 56.984375 36.375 
Q 56.984375 17.96875 50.515625 8.265625 
Q 44.046875 -1.421875 31.78125 -1.421875 
Q 19.53125 -1.421875 13.0625 8.265625 
Q 6.59375 17.96875 6.59375 36.375 
Q 6.59375 54.828125 13.0625 64.515625 
Q 19.53125 74.21875 31.78125 74.21875 
z
" id="DejaVuSans-48"/>
      </defs>
      <g transform="translate(53.723119 322.182437)scale(0.1 -0.1)">
       <use xlink:href="#DejaVuSans-53"/>
       <use x="63.623047" xlink:href="#DejaVuSans-48"/>
      </g>
     </g>
    </g>
    <g id="xtick_2">
     <g id="line2d_2">
      <g>
       <use style="stroke:#000000;stroke-width:0.8;" x="107.164331" xlink:href="#mc5d49fbffa" y="307.584"/>
      </g>
     </g>
     <g id="text_2">
      <!-- 75 -->
      <defs>
       <path d="M 8.203125 72.90625 
L 55.078125 72.90625 
L 55.078125 68.703125 
L 28.609375 0 
L 18.3125 0 
L 43.21875 64.59375 
L 8.203125 64.59375 
z
" id="DejaVuSans-55"/>
      </defs>
      <g transform="translate(100.801831 322.182437)scale(0.1 -0.1)">
       <use xlink:href="#DejaVuSans-55"/>
       <use x="63.623047" xlink:href="#DejaVuSans-53"/>
      </g>
     </g>
    </g>
    <g id="xtick_3">
     <g id="line2d_3">
      <g>
       <use style="stroke:#000000;stroke-width:0.8;" x="154.243042" xlink:href="#mc5d49fbffa" y="307.584"/>
      </g>
     </g>
     <g id="text_3">
      <!-- 100 -->
      <defs>
       <path d="M 12.40625 8.296875 
L 28.515625 8.296875 
L 28.515625 63.921875 
L 10.984375 60.40625 
L 10.984375 69.390625 
L 28.421875 72.90625 
L 38.28125 72.90625 
L 38.28125 8.296875 
L 54.390625 8.296875 
L 54.390625 0 
L 12.40625 0 
z
" id="DejaVuSans-49"/>
      </defs>
      <g transform="translate(144.699292 322.182437)scale(0.1 -0.1)">
       <use xlink:href="#DejaVuSans-49"/>
       <use x="63.623047" xlink:href="#DejaVuSans-48"/>
       <use x="127.246094" xlink:href="#DejaVuSans-48"/>
      </g>
     </g>
    </g>
    <g id="xtick_4">
     <g id="line2d_4">
      <g>
       <use style="stroke:#000000;stroke-width:0.8;" x="201.321754" xlink:href="#mc5d49fbffa" y="307.584"/>
      </g>
     </g>
     <g id="text_4">
      <!-- 125 -->
      <defs>
       <path d="M 19.1875 8.296875 
L 53.609375 8.296875 
L 53.609375 0 
L 7.328125 0 
L 7.328125 8.296875 
Q 12.9375 14.109375 22.625 23.890625 
Q 32.328125 33.6875 34.8125 36.53125 
Q 39.546875 41.84375 41.421875 45.53125 
Q 43.3125 49.21875 43.3125 52.78125 
Q 43.3125 58.59375 39.234375 62.25 
Q 35.15625 65.921875 28.609375 65.921875 
Q 23.96875 65.921875 18.8125 64.3125 
Q 13.671875 62.703125 7.8125 59.421875 
L 7.8125 69.390625 
Q 13.765625 71.78125 18.9375 73 
Q 24.125 74.21875 28.421875 74.21875 
Q 39.75 74.21875 46.484375 68.546875 
Q 53.21875 62.890625 53.21875 53.421875 
Q 53.21875 48.921875 51.53125 44.890625 
Q 49.859375 40.875 45.40625 35.40625 
Q 44.1875 33.984375 37.640625 27.21875 
Q 31.109375 20.453125 19.1875 8.296875 
z
" id="DejaVuSans-50"/>
      </defs>
      <g transform="translate(191.778004 322.182437)scale(0.1 -0.1)">
       <use xlink:href="#DejaVuSans-49"/>
       <use x="63.623047" xlink:href="#DejaVuSans-50"/>
       <use x="127.246094" xlink:href="#DejaVuSans-53"/>
      </g>
     </g>
    </g>
    <g id="xtick_5">
     <g id="line2d_5">
      <g>
       <use style="stroke:#000000;stroke-width:0.8;" x="248.400465" xlink:href="#mc5d49fbffa" y="307.584"/>
      </g>
     </g>
     <g id="text_5">
      <!-- 150 -->
      <g transform="translate(238.856715 322.182437)scale(0.1 -0.1)">
       <use xlink:href="#DejaVuSans-49"/>
       <use x="63.623047" xlink:href="#DejaVuSans-53"/>
       <use x="127.246094" xlink:href="#DejaVuSans-48"/>
      </g>
     </g>
    </g>
    <g id="xtick_6">
     <g id="line2d_6">
      <g>
       <use style="stroke:#000000;stroke-width:0.8;" x="295.479176" xlink:href="#mc5d49fbffa" y="307.584"/>
      </g>
     </g>
     <g id="text_6">
      <!-- 175 -->
      <g transform="translate(285.935426 322.182437)scale(0.1 -0.1)">
       <use xlink:href="#DejaVuSans-49"/>
       <use x="63.623047" xlink:href="#DejaVuSans-55"/>
       <use x="127.246094" xlink:href="#DejaVuSans-53"/>
      </g>
     </g>
    </g>
    <g id="xtick_7">
     <g id="line2d_7">
      <g>
       <use style="stroke:#000000;stroke-width:0.8;" x="342.557888" xlink:href="#mc5d49fbffa" y="307.584"/>
      </g>
     </g>
     <g id="text_7">
      <!-- 200 -->
      <g transform="translate(333.014138 322.182437)scale(0.1 -0.1)">
       <use xlink:href="#DejaVuSans-50"/>
       <use x="63.623047" xlink:href="#DejaVuSans-48"/>
       <use x="127.246094" xlink:href="#DejaVuSans-48"/>
      </g>
     </g>
    </g>
    <g id="xtick_8">
     <g id="line2d_8">
      <g>
       <use style="stroke:#000000;stroke-width:0.8;" x="389.636599" xlink:href="#mc5d49fbffa" y="307.584"/>
      </g>
     </g>
     <g id="text_8">
      <!-- 225 -->
      <g transform="translate(380.092849 322.182437)scale(0.1 -0.1)">
       <use xlink:href="#DejaVuSans-50"/>
       <use x="63.623047" xlink:href="#DejaVuSans-50"/>
       <use x="127.246094" xlink:href="#DejaVuSans-53"/>
      </g>
     </g>
    </g>
    <g id="text_9">
     <!-- systolic_bp -->
     <defs>
      <path d="M 44.28125 53.078125 
L 44.28125 44.578125 
Q 40.484375 46.53125 36.375 47.5 
Q 32.28125 48.484375 27.875 48.484375 
Q 21.1875 48.484375 17.84375 46.4375 
Q 14.5 44.390625 14.5 40.28125 
Q 14.5 37.15625 16.890625 35.375 
Q 19.28125 33.59375 26.515625 31.984375 
L 29.59375 31.296875 
Q 39.15625 29.25 43.1875 25.515625 
Q 47.21875 21.78125 47.21875 15.09375 
Q 47.21875 7.46875 41.1875 3.015625 
Q 35.15625 -1.421875 24.609375 -1.421875 
Q 20.21875 -1.421875 15.453125 -0.5625 
Q 10.6875 0.296875 5.421875 2 
L 5.421875 11.28125 
Q 10.40625 8.6875 15.234375 7.390625 
Q 20.0625 6.109375 24.8125 6.109375 
Q 31.15625 6.109375 34.5625 8.28125 
Q 37.984375 10.453125 37.984375 14.40625 
Q 37.984375 18.0625 35.515625 20.015625 
Q 33.0625 21.96875 24.703125 23.78125 
L 21.578125 24.515625 
Q 13.234375 26.265625 9.515625 29.90625 
Q 5.8125 33.546875 5.8125 39.890625 
Q 5.8125 47.609375 11.28125 51.796875 
Q 16.75 56 26.8125 56 
Q 31.78125 56 36.171875 55.265625 
Q 40.578125 54.546875 44.28125 53.078125 
z
" id="DejaVuSans-115"/>
      <path d="M 32.171875 -5.078125 
Q 28.375 -14.84375 24.75 -17.8125 
Q 21.140625 -20.796875 15.09375 -20.796875 
L 7.90625 -20.796875 
L 7.90625 -13.28125 
L 13.1875 -13.28125 
Q 16.890625 -13.28125 18.9375 -11.515625 
Q 21 -9.765625 23.484375 -3.21875 
L 25.09375 0.875 
L 2.984375 54.6875 
L 12.5 54.6875 
L 29.59375 11.921875 
L 46.6875 54.6875 
L 56.203125 54.6875 
z
" id="DejaVuSans-121"/>
      <path d="M 18.3125 70.21875 
L 18.3125 54.6875 
L 36.8125 54.6875 
L 36.8125 47.703125 
L 18.3125 47.703125 
L 18.3125 18.015625 
Q 18.3125 11.328125 20.140625 9.421875 
Q 21.96875 7.515625 27.59375 7.515625 
L 36.8125 7.515625 
L 36.8125 0 
L 27.59375 0 
Q 17.1875 0 13.234375 3.875 
Q 9.28125 7.765625 9.28125 18.015625 
L 9.28125 47.703125 
L 2.6875 47.703125 
L 2.6875 54.6875 
L 9.28125 54.6875 
L 9.28125 70.21875 
z
" id="DejaVuSans-116"/>
      <path d="M 30.609375 48.390625 
Q 23.390625 48.390625 19.1875 42.75 
Q 14.984375 37.109375 14.984375 27.296875 
Q 14.984375 17.484375 19.15625 11.84375 
Q 23.34375 6.203125 30.609375 6.203125 
Q 37.796875 6.203125 41.984375 11.859375 
Q 46.1875 17.53125 46.1875 27.296875 
Q 46.1875 37.015625 41.984375 42.703125 
Q 37.796875 48.390625 30.609375 48.390625 
z
M 30.609375 56 
Q 42.328125 56 49.015625 48.375 
Q 55.71875 40.765625 55.71875 27.296875 
Q 55.71875 13.875 49.015625 6.21875 
Q 42.328125 -1.421875 30.609375 -1.421875 
Q 18.84375 -1.421875 12.171875 6.21875 
Q 5.515625 13.875 5.515625 27.296875 
Q 5.515625 40.765625 12.171875 48.375 
Q 18.84375 56 30.609375 56 
z
" id="DejaVuSans-111"/>
      <path d="M 9.421875 75.984375 
L 18.40625 75.984375 
L 18.40625 0 
L 9.421875 0 
z
" id="DejaVuSans-108"/>
      <path d="M 9.421875 54.6875 
L 18.40625 54.6875 
L 18.40625 0 
L 9.421875 0 
z
M 9.421875 75.984375 
L 18.40625 75.984375 
L 18.40625 64.59375 
L 9.421875 64.59375 
z
" id="DejaVuSans-105"/>
      <path d="M 48.78125 52.59375 
L 48.78125 44.1875 
Q 44.96875 46.296875 41.140625 47.34375 
Q 37.3125 48.390625 33.40625 48.390625 
Q 24.65625 48.390625 19.8125 42.84375 
Q 14.984375 37.3125 14.984375 27.296875 
Q 14.984375 17.28125 19.8125 11.734375 
Q 24.65625 6.203125 33.40625 6.203125 
Q 37.3125 6.203125 41.140625 7.25 
Q 44.96875 8.296875 48.78125 10.40625 
L 48.78125 2.09375 
Q 45.015625 0.34375 40.984375 -0.53125 
Q 36.96875 -1.421875 32.421875 -1.421875 
Q 20.0625 -1.421875 12.78125 6.34375 
Q 5.515625 14.109375 5.515625 27.296875 
Q 5.515625 40.671875 12.859375 48.328125 
Q 20.21875 56 33.015625 56 
Q 37.15625 56 41.109375 55.140625 
Q 45.0625 54.296875 48.78125 52.59375 
z
" id="DejaVuSans-99"/>
      <path d="M 50.984375 -16.609375 
L 50.984375 -23.578125 
L -0.984375 -23.578125 
L -0.984375 -16.609375 
z
" id="DejaVuSans-95"/>
      <path d="M 48.6875 27.296875 
Q 48.6875 37.203125 44.609375 42.84375 
Q 40.53125 48.484375 33.40625 48.484375 
Q 26.265625 48.484375 22.1875 42.84375 
Q 18.109375 37.203125 18.109375 27.296875 
Q 18.109375 17.390625 22.1875 11.75 
Q 26.265625 6.109375 33.40625 6.109375 
Q 40.53125 6.109375 44.609375 11.75 
Q 48.6875 17.390625 48.6875 27.296875 
z
M 18.109375 46.390625 
Q 20.953125 51.265625 25.265625 53.625 
Q 29.59375 56 35.59375 56 
Q 45.5625 56 51.78125 48.09375 
Q 58.015625 40.1875 58.015625 27.296875 
Q 58.015625 14.40625 51.78125 6.484375 
Q 45.5625 -1.421875 35.59375 -1.421875 
Q 29.59375 -1.421875 25.265625 0.953125 
Q 20.953125 3.328125 18.109375 8.203125 
L 18.109375 0 
L 9.078125 0 
L 9.078125 75.984375 
L 18.109375 75.984375 
z
" id="DejaVuSans-98"/>
      <path d="M 18.109375 8.203125 
L 18.109375 -20.796875 
L 9.078125 -20.796875 
L 9.078125 54.6875 
L 18.109375 54.6875 
L 18.109375 46.390625 
Q 20.953125 51.265625 25.265625 53.625 
Q 29.59375 56 35.59375 56 
Q 45.5625 56 51.78125 48.09375 
Q 58.015625 40.1875 58.015625 27.296875 
Q 58.015625 14.40625 51.78125 6.484375 
Q 45.5625 -1.421875 35.59375 -1.421875 
Q 29.59375 -1.421875 25.265625 0.953125 
Q 20.953125 3.328125 18.109375 8.203125 
z
M 48.6875 27.296875 
Q 48.6875 37.203125 44.609375 42.84375 
Q 40.53125 48.484375 33.40625 48.484375 
Q 26.265625 48.484375 22.1875 42.84375 
Q 18.109375 37.203125 18.109375 27.296875 
Q 18.109375 17.390625 22.1875 11.75 
Q 26.265625 6.109375 33.40625 6.109375 
Q 40.53125 6.109375 44.609375 11.75 
Q 48.6875 17.390625 48.6875 27.296875 
z
" id="DejaVuSans-112"/>
     </defs>
     <g transform="translate(208.595937 335.860562)scale(0.1 -0.1)">
      <use xlink:href="#DejaVuSans-115"/>
      <use x="52.099609" xlink:href="#DejaVuSans-121"/>
      <use x="111.279297" xlink:href="#DejaVuSans-115"/>
      <use x="163.378906" xlink:href="#DejaVuSans-116"/>
      <use x="202.587891" xlink:href="#DejaVuSans-111"/>
      <use x="263.769531" xlink:href="#DejaVuSans-108"/>
      <use x="291.552734" xlink:href="#DejaVuSans-105"/>
      <use x="319.335938" xlink:href="#DejaVuSans-99"/>
      <use x="374.316406" xlink:href="#DejaVuSans-95"/>
      <use x="424.316406" xlink:href="#DejaVuSans-98"/>
      <use x="487.792969" xlink:href="#DejaVuSans-112"/>
     </g>
    </g>
   </g>
   <g id="matplotlib.axis_2">
    <g id="ytick_1">
     <g id="line2d_9">
      <defs>
       <path d="M 0 0 
L -3.5 0 
" id="ma39ec714cf" style="stroke:#000000;stroke-width:0.8;"/>
      </defs>
      <g>
       <use style="stroke:#000000;stroke-width:0.8;" x="57.6" xlink:href="#ma39ec714cf" y="174.528"/>
      </g>
     </g>
    </g>
   </g>
   <g id="line2d_10">
    <path clip-path="url(#p3c79d92d9b)" d="M 129.762112 174.528 
L 327.4927 174.528 
" style="fill:none;stroke:#ffa500;stroke-linecap:square;stroke-width:1.5;"/>
   </g>
   <g id="line2d_11">
    <path clip-path="url(#p3c79d92d9b)" d="M 180.607121 174.528 
L 245.104955 174.528 
" style="fill:none;stroke:#4c4c4c;stroke-linecap:square;stroke-width:4.5;"/>
   </g>
   <g id="line2d_12">
    <path clip-path="url(#p3c79d92d9b)" d="M 101.514885 174.528 
L 338.791591 174.528 
" style="fill:none;stroke:#008000;stroke-linecap:square;stroke-width:1.5;"/>
   </g>
   <g id="line2d_13">
    <path clip-path="url(#p3c79d92d9b)" d="M 190.49365 174.528 
L 250.283613 174.528 
" style="fill:none;stroke:#262626;stroke-linecap:square;stroke-width:4.5;"/>
   </g>
   <g id="patch_3">
    <path d="M 57.6 307.584 
L 57.6 41.472 
" style="fill:none;stroke:#000000;stroke-linecap:square;stroke-linejoin:miter;stroke-width:0.8;"/>
   </g>
   <g id="patch_4">
    <path d="M 414.72 307.584 
L 414.72 41.472 
" style="fill:none;stroke:#000000;stroke-linecap:square;stroke-linejoin:miter;stroke-width:0.8;"/>
   </g>
   <g id="patch_5">
    <path d="M 57.6 307.584 
L 414.72 307.584 
" style="fill:none;stroke:#000000;stroke-linecap:square;stroke-linejoin:miter;stroke-width:0.8;"/>
   </g>
   <g id="patch_6">
    <path d="M 57.6 41.472 
L 414.72 41.472 
" style="fill:none;stroke:#000000;stroke-linecap:square;stroke-linejoin:miter;stroke-width:0.8;"/>
   </g>
   <g id="PathCollection_1">
    <defs>
     <path d="M 0 1.5 
C 0.397805 1.5 0.77937 1.341951 1.06066 1.06066 
C 1.341951 0.77937 1.5 0.397805 1.5 0 
C 1.5 -0.397805 1.341951 -0.77937 1.06066 -1.06066 
C 0.77937 -1.341951 0.397805 -1.5 0 -1.5 
C -0.397805 -1.5 -0.77937 -1.341951 -1.06066 -1.06066 
C -1.341951 -0.77937 -1.5 -0.397805 -1.5 0 
C -1.5 0.397805 -1.341951 0.77937 -1.06066 1.06066 
C -0.77937 1.341951 -0.397805 1.5 0 1.5 
z
" id="ma9ed224676" style="stroke:#4c4c4c;stroke-opacity:0.5;"/>
    </defs>
    <g clip-path="url(#p3c79d92d9b)">
     <use style="fill:#ffffff;fill-opacity:0.5;stroke:#4c4c4c;stroke-opacity:0.5;" x="213.562219" xlink:href="#ma9ed224676" y="174.528"/>
    </g>
   </g>
   <g id="PathCollection_2">
    <defs>
     <path d="M 0 1.5 
C 0.397805 1.5 0.77937 1.341951 1.06066 1.06066 
C 1.341951 0.77937 1.5 0.397805 1.5 0 
C 1.5 -0.397805 1.341951 -0.77937 1.06066 -1.06066 
C 0.77937 -1.341951 0.397805 -1.5 0 -1.5 
C -0.397805 -1.5 -0.77937 -1.341951 -1.06066 -1.06066 
C -1.341951 -0.77937 -1.5 -0.397805 -1.5 0 
C -1.5 0.397805 -1.341951 0.77937 -1.06066 1.06066 
C -0.77937 1.341951 -0.397805 1.5 0 1.5 
z
" id="m59220ac657" style="stroke:#262626;stroke-opacity:0.5;"/>
    </defs>
    <g clip-path="url(#p3c79d92d9b)">
     <use style="fill:#ffffff;fill-opacity:0.5;stroke:#262626;stroke-opacity:0.5;" x="216.386941" xlink:href="#m59220ac657" y="174.528"/>
    </g>
   </g>
   <g id="text_10">
    <!-- Association of systolic_bp vs. sepsis -->
    <defs>
     <path d="M 34.1875 63.1875 
L 20.796875 26.90625 
L 47.609375 26.90625 
z
M 28.609375 72.90625 
L 39.796875 72.90625 
L 67.578125 0 
L 57.328125 0 
L 50.6875 18.703125 
L 17.828125 18.703125 
L 11.1875 0 
L 0.78125 0 
z
" id="DejaVuSans-65"/>
     <path d="M 34.28125 27.484375 
Q 23.390625 27.484375 19.1875 25 
Q 14.984375 22.515625 14.984375 16.5 
Q 14.984375 11.71875 18.140625 8.90625 
Q 21.296875 6.109375 26.703125 6.109375 
Q 34.1875 6.109375 38.703125 11.40625 
Q 43.21875 16.703125 43.21875 25.484375 
L 43.21875 27.484375 
z
M 52.203125 31.203125 
L 52.203125 0 
L 43.21875 0 
L 43.21875 8.296875 
Q 40.140625 3.328125 35.546875 0.953125 
Q 30.953125 -1.421875 24.3125 -1.421875 
Q 15.921875 -1.421875 10.953125 3.296875 
Q 6 8.015625 6 15.921875 
Q 6 25.140625 12.171875 29.828125 
Q 18.359375 34.515625 30.609375 34.515625 
L 43.21875 34.515625 
L 43.21875 35.40625 
Q 43.21875 41.609375 39.140625 45 
Q 35.0625 48.390625 27.6875 48.390625 
Q 23 48.390625 18.546875 47.265625 
Q 14.109375 46.140625 10.015625 43.890625 
L 10.015625 52.203125 
Q 14.9375 54.109375 19.578125 55.046875 
Q 24.21875 56 28.609375 56 
Q 40.484375 56 46.34375 49.84375 
Q 52.203125 43.703125 52.203125 31.203125 
z
" id="DejaVuSans-97"/>
     <path d="M 54.890625 33.015625 
L 54.890625 0 
L 45.90625 0 
L 45.90625 32.71875 
Q 45.90625 40.484375 42.875 44.328125 
Q 39.84375 48.1875 33.796875 48.1875 
Q 26.515625 48.1875 22.3125 43.546875 
Q 18.109375 38.921875 18.109375 30.90625 
L 18.109375 0 
L 9.078125 0 
L 9.078125 54.6875 
L 18.109375 54.6875 
L 18.109375 46.1875 
Q 21.34375 51.125 25.703125 53.5625 
Q 30.078125 56 35.796875 56 
Q 45.21875 56 50.046875 50.171875 
Q 54.890625 44.34375 54.890625 33.015625 
z
" id="DejaVuSans-110"/>
     <path id="DejaVuSans-32"/>
     <path d="M 37.109375 75.984375 
L 37.109375 68.5 
L 28.515625 68.5 
Q 23.6875 68.5 21.796875 66.546875 
Q 19.921875 64.59375 19.921875 59.515625 
L 19.921875 54.6875 
L 34.71875 54.6875 
L 34.71875 47.703125 
L 19.921875 47.703125 
L 19.921875 0 
L 10.890625 0 
L 10.890625 47.703125 
L 2.296875 47.703125 
L 2.296875 54.6875 
L 10.890625 54.6875 
L 10.890625 58.5 
Q 10.890625 67.625 15.140625 71.796875 
Q 19.390625 75.984375 28.609375 75.984375 
z
" id="DejaVuSans-102"/>
     <path d="M 2.984375 54.6875 
L 12.5 54.6875 
L 29.59375 8.796875 
L 46.6875 54.6875 
L 56.203125 54.6875 
L 35.6875 0 
L 23.484375 0 
z
" id="DejaVuSans-118"/>
     <path d="M 10.6875 12.40625 
L 21 12.40625 
L 21 0 
L 10.6875 0 
z
" id="DejaVuSans-46"/>
     <path d="M 56.203125 29.59375 
L 56.203125 25.203125 
L 14.890625 25.203125 
Q 15.484375 15.921875 20.484375 11.0625 
Q 25.484375 6.203125 34.421875 6.203125 
Q 39.59375 6.203125 44.453125 7.46875 
Q 49.3125 8.734375 54.109375 11.28125 
L 54.109375 2.78125 
Q 49.265625 0.734375 44.1875 -0.34375 
Q 39.109375 -1.421875 33.890625 -1.421875 
Q 20.796875 -1.421875 13.15625 6.1875 
Q 5.515625 13.8125 5.515625 26.8125 
Q 5.515625 40.234375 12.765625 48.109375 
Q 20.015625 56 32.328125 56 
Q 43.359375 56 49.78125 48.890625 
Q 56.203125 41.796875 56.203125 29.59375 
z
M 47.21875 32.234375 
Q 47.125 39.59375 43.09375 43.984375 
Q 39.0625 48.390625 32.421875 48.390625 
Q 24.90625 48.390625 20.390625 44.140625 
Q 15.875 39.890625 15.1875 32.171875 
z
" id="DejaVuSans-101"/>
    </defs>
    <g transform="translate(128.38125 35.472)scale(0.12 -0.12)">
     <use xlink:href="#DejaVuSans-65"/>
     <use x="68.408203" xlink:href="#DejaVuSans-115"/>
     <use x="120.507812" xlink:href="#DejaVuSans-115"/>
     <use x="172.607422" xlink:href="#DejaVuSans-111"/>
     <use x="233.789062" xlink:href="#DejaVuSans-99"/>
     <use x="288.769531" xlink:href="#DejaVuSans-105"/>
     <use x="316.552734" xlink:href="#DejaVuSans-97"/>
     <use x="377.832031" xlink:href="#DejaVuSans-116"/>
     <use x="417.041016" xlink:href="#DejaVuSans-105"/>
     <use x="444.824219" xlink:href="#DejaVuSans-111"/>
     <use x="506.005859" xlink:href="#DejaVuSans-110"/>
     <use x="569.384766" xlink:href="#DejaVuSans-32"/>
     <use x="601.171875" xlink:href="#DejaVuSans-111"/>
     <use x="662.353516" xlink:href="#DejaVuSans-102"/>
     <use x="697.558594" xlink:href="#DejaVuSans-32"/>
     <use x="729.345703" xlink:href="#DejaVuSans-115"/>
     <use x="781.445312" xlink:href="#DejaVuSans-121"/>
     <use x="840.625" xlink:href="#DejaVuSans-115"/>
     <use x="892.724609" xlink:href="#DejaVuSans-116"/>
     <use x="931.933594" xlink:href="#DejaVuSans-111"/>
     <use x="993.115234" xlink:href="#DejaVuSans-108"/>
     <use x="1020.898438" xlink:href="#DejaVuSans-105"/>
     <use x="1048.681641" xlink:href="#DejaVuSans-99"/>
     <use x="1103.662109" xlink:href="#DejaVuSans-95"/>
     <use x="1153.662109" xlink:href="#DejaVuSans-98"/>
     <use x="1217.138672" xlink:href="#DejaVuSans-112"/>
     <use x="1280.615234" xlink:href="#DejaVuSans-32"/>
     <use x="1312.402344" xlink:href="#DejaVuSans-118"/>
     <use x="1371.582031" xlink:href="#DejaVuSans-115"/>
     <use x="1423.681641" xlink:href="#DejaVuSans-46"/>
     <use x="1455.46875" xlink:href="#DejaVuSans-32"/>
     <use x="1487.255859" xlink:href="#DejaVuSans-115"/>
     <use x="1539.355469" xlink:href="#DejaVuSans-101"/>
     <use x="1600.878906" xlink:href="#DejaVuSans-112"/>
     <use x="1664.355469" xlink:href="#DejaVuSans-115"/>
     <use x="1716.455078" xlink:href="#DejaVuSans-105"/>
     <use x="1744.238281" xlink:href="#DejaVuSans-115"/>
    </g>
   </g>
   <g id="legend_1">
    <g id="patch_7">
     <path d="M 294.045 78.82825 
L 407.72 78.82825 
Q 409.72 78.82825 409.72 76.82825 
L 409.72 48.472 
Q 409.72 46.472 407.72 46.472 
L 294.045 46.472 
Q 292.045 46.472 292.045 48.472 
L 292.045 76.82825 
Q 292.045 78.82825 294.045 78.82825 
z
" style="fill:#ffffff;opacity:0.8;stroke:#cccccc;stroke-linejoin:miter;"/>
    </g>
    <g id="line2d_14">
     <path d="M 296.045 54.570437 
L 316.045 54.570437 
" style="fill:none;stroke:#ffa500;stroke-linecap:square;stroke-width:1.5;"/>
    </g>
    <g id="line2d_15"/>
    <g id="text_11">
     <!-- sepsis (164) -->
     <defs>
      <path d="M 31 75.875 
Q 24.46875 64.65625 21.28125 53.65625 
Q 18.109375 42.671875 18.109375 31.390625 
Q 18.109375 20.125 21.3125 9.0625 
Q 24.515625 -2 31 -13.1875 
L 23.1875 -13.1875 
Q 15.875 -1.703125 12.234375 9.375 
Q 8.59375 20.453125 8.59375 31.390625 
Q 8.59375 42.28125 12.203125 53.3125 
Q 15.828125 64.359375 23.1875 75.875 
z
" id="DejaVuSans-40"/>
      <path d="M 33.015625 40.375 
Q 26.375 40.375 22.484375 35.828125 
Q 18.609375 31.296875 18.609375 23.390625 
Q 18.609375 15.53125 22.484375 10.953125 
Q 26.375 6.390625 33.015625 6.390625 
Q 39.65625 6.390625 43.53125 10.953125 
Q 47.40625 15.53125 47.40625 23.390625 
Q 47.40625 31.296875 43.53125 35.828125 
Q 39.65625 40.375 33.015625 40.375 
z
M 52.59375 71.296875 
L 52.59375 62.3125 
Q 48.875 64.0625 45.09375 64.984375 
Q 41.3125 65.921875 37.59375 65.921875 
Q 27.828125 65.921875 22.671875 59.328125 
Q 17.53125 52.734375 16.796875 39.40625 
Q 19.671875 43.65625 24.015625 45.921875 
Q 28.375 48.1875 33.59375 48.1875 
Q 44.578125 48.1875 50.953125 41.515625 
Q 57.328125 34.859375 57.328125 23.390625 
Q 57.328125 12.15625 50.6875 5.359375 
Q 44.046875 -1.421875 33.015625 -1.421875 
Q 20.359375 -1.421875 13.671875 8.265625 
Q 6.984375 17.96875 6.984375 36.375 
Q 6.984375 53.65625 15.1875 63.9375 
Q 23.390625 74.21875 37.203125 74.21875 
Q 40.921875 74.21875 44.703125 73.484375 
Q 48.484375 72.75 52.59375 71.296875 
z
" id="DejaVuSans-54"/>
      <path d="M 37.796875 64.3125 
L 12.890625 25.390625 
L 37.796875 25.390625 
z
M 35.203125 72.90625 
L 47.609375 72.90625 
L 47.609375 25.390625 
L 58.015625 25.390625 
L 58.015625 17.1875 
L 47.609375 17.1875 
L 47.609375 0 
L 37.796875 0 
L 37.796875 17.1875 
L 4.890625 17.1875 
L 4.890625 26.703125 
z
" id="DejaVuSans-52"/>
      <path d="M 8.015625 75.875 
L 15.828125 75.875 
Q 23.140625 64.359375 26.78125 53.3125 
Q 30.421875 42.28125 30.421875 31.390625 
Q 30.421875 20.453125 26.78125 9.375 
Q 23.140625 -1.703125 15.828125 -13.1875 
L 8.015625 -13.1875 
Q 14.5 -2 17.703125 9.0625 
Q 20.90625 20.125 20.90625 31.390625 
Q 20.90625 42.671875 17.703125 53.65625 
Q 14.5 64.65625 8.015625 75.875 
z
" id="DejaVuSans-41"/>
     </defs>
     <g transform="translate(324.045 58.070437)scale(0.1 -0.1)">
      <use xlink:href="#DejaVuSans-115"/>
      <use x="52.099609" xlink:href="#DejaVuSans-101"/>
      <use x="113.623047" xlink:href="#DejaVuSans-112"/>
      <use x="177.099609" xlink:href="#DejaVuSans-115"/>
      <use x="229.199219" xlink:href="#DejaVuSans-105"/>
      <use x="256.982422" xlink:href="#DejaVuSans-115"/>
      <use x="309.082031" xlink:href="#DejaVuSans-32"/>
      <use x="340.869141" xlink:href="#DejaVuSans-40"/>
      <use x="379.882812" xlink:href="#DejaVuSans-49"/>
      <use x="443.505859" xlink:href="#DejaVuSans-54"/>
      <use x="507.128906" xlink:href="#DejaVuSans-52"/>
      <use x="570.751953" xlink:href="#DejaVuSans-41"/>
     </g>
    </g>
    <g id="line2d_16">
     <path d="M 296.045 69.248562 
L 316.045 69.248562 
" style="fill:none;stroke:#008000;stroke-linecap:square;stroke-width:1.5;"/>
    </g>
    <g id="line2d_17"/>
    <g id="text_12">
     <!-- Not sepsis (334) -->
     <defs>
      <path d="M 9.8125 72.90625 
L 23.09375 72.90625 
L 55.421875 11.921875 
L 55.421875 72.90625 
L 64.984375 72.90625 
L 64.984375 0 
L 51.703125 0 
L 19.390625 60.984375 
L 19.390625 0 
L 9.8125 0 
z
" id="DejaVuSans-78"/>
      <path d="M 40.578125 39.3125 
Q 47.65625 37.796875 51.625 33 
Q 55.609375 28.21875 55.609375 21.1875 
Q 55.609375 10.40625 48.1875 4.484375 
Q 40.765625 -1.421875 27.09375 -1.421875 
Q 22.515625 -1.421875 17.65625 -0.515625 
Q 12.796875 0.390625 7.625 2.203125 
L 7.625 11.71875 
Q 11.71875 9.328125 16.59375 8.109375 
Q 21.484375 6.890625 26.8125 6.890625 
Q 36.078125 6.890625 40.9375 10.546875 
Q 45.796875 14.203125 45.796875 21.1875 
Q 45.796875 27.640625 41.28125 31.265625 
Q 36.765625 34.90625 28.71875 34.90625 
L 20.21875 34.90625 
L 20.21875 43.015625 
L 29.109375 43.015625 
Q 36.375 43.015625 40.234375 45.921875 
Q 44.09375 48.828125 44.09375 54.296875 
Q 44.09375 59.90625 40.109375 62.90625 
Q 36.140625 65.921875 28.71875 65.921875 
Q 24.65625 65.921875 20.015625 65.03125 
Q 15.375 64.15625 9.8125 62.3125 
L 9.8125 71.09375 
Q 15.4375 72.65625 20.34375 73.4375 
Q 25.25 74.21875 29.59375 74.21875 
Q 40.828125 74.21875 47.359375 69.109375 
Q 53.90625 64.015625 53.90625 55.328125 
Q 53.90625 49.265625 50.4375 45.09375 
Q 46.96875 40.921875 40.578125 39.3125 
z
" id="DejaVuSans-51"/>
     </defs>
     <g transform="translate(324.045 72.748562)scale(0.1 -0.1)">
      <use xlink:href="#DejaVuSans-78"/>
      <use x="74.804688" xlink:href="#DejaVuSans-111"/>
      <use x="135.986328" xlink:href="#DejaVuSans-116"/>
      <use x="175.195312" xlink:href="#DejaVuSans-32"/>
      <use x="206.982422" xlink:href="#DejaVuSans-115"/>
      <use x="259.082031" xlink:href="#DejaVuSans-101"/>
      <use x="320.605469" xlink:href="#DejaVuSans-112"/>
      <use x="384.082031" xlink:href="#DejaVuSans-115"/>
      <use x="436.181641" xlink:href="#DejaVuSans-105"/>
      <use x="463.964844" xlink:href="#DejaVuSans-115"/>
      <use x="516.064453" xlink:href="#DejaVuSans-32"/>
      <use x="547.851562" xlink:href="#DejaVuSans-40"/>
      <use x="586.865234" xlink:href="#DejaVuSans-51"/>
      <use x="650.488281" xlink:href="#DejaVuSans-51"/>
      <use x="714.111328" xlink:href="#DejaVuSans-52"/>
      <use x="777.734375" xlink:href="#DejaVuSans-41"/>
     </g>
    </g>
   </g>
  </g>
 </g>
 <defs>
  <clipPath id="p3c79d92d9b">
   <rect height="266.112" width="357.12" x="57.6" y="41.472"/>
  </clipPath>
 </defs>
</svg>
