<?xml version="1.0" encoding="utf-8" standalone="no"?>
<!DOCTYPE svg PUBLIC "-//W3C//DTD SVG 1.1//EN"
  "http://www.w3.org/Graphics/SVG/1.1/DTD/svg11.dtd">
<!-- Created with matplotlib (https://matplotlib.org/) -->
<svg height="345.6pt" version="1.1" viewBox="0 0 460.8 345.6" width="460.8pt" xmlns="http://www.w3.org/2000/svg" xmlns:xlink="http://www.w3.org/1999/xlink">
 <defs>
  <style type="text/css">
*{stroke-linecap:butt;stroke-linejoin:round;}
  </style>
 </defs>
 <g id="figure_1">
  <g id="patch_1">
   <path d="M 0 345.6 
L 460.8 345.6 
L 460.8 0 
L 0 0 
z
" style="fill:#ffffff;"/>
  </g>
  <g id="axes_1">
   <g id="patch_2">
    <path d="M 57.6 307.584 
L 414.72 307.584 
L 414.72 41.472 
L 57.6 41.472 
z
" style="fill:#ffffff;"/>
   </g>
   <g id="PolyCollection_1">
    <defs>
     <path d="M 84.335088 -165.770896 
L 84.335088 -176.373104 
L 85.270435 -177.289605 
L 86.205783 -178.323045 
L 87.141131 -179.480617 
L 88.076478 -180.768697 
L 89.011826 -182.192644 
L 89.947174 -183.75663 
L 90.882521 -185.463492 
L 91.817869 -187.31462 
L 92.753217 -189.309888 
L 93.688564 -191.447643 
L 94.623912 -193.724742 
L 95.55926 -196.136647 
L 96.494607 -198.677576 
L 97.429955 -201.340699 
L 98.365303 -204.118375 
L 99.30065 -207.002412 
L 100.235998 -209.984337 
L 101.171346 -213.055658 
L 102.106693 -216.208098 
L 103.042041 -219.433776 
L 103.977388 -222.725329 
L 104.912736 -226.075953 
L 105.848084 -229.479341 
L 106.783431 -232.92954 
L 107.718779 -236.420695 
L 108.654127 -239.946716 
L 109.589474 -243.500865 
L 110.524822 -247.075285 
L 111.46017 -250.660515 
L 112.395517 -254.244997 
L 113.330865 -257.81464 
L 114.266213 -261.35245 
L 115.20156 -264.838276 
L 116.136908 -268.248707 
L 117.072256 -271.557127 
L 118.007603 -274.733969 
L 118.942951 -277.747155 
L 119.878299 -280.562731 
L 120.813646 -283.145683 
L 121.748994 -285.460898 
L 122.684341 -287.474244 
L 123.619689 -289.153728 
L 124.555037 -290.470661 
L 125.490384 -291.400794 
L 126.425732 -291.925368 
L 127.36108 -292.032 
L 128.296427 -291.715392 
L 129.231775 -290.977788 
L 130.167123 -289.829169 
L 131.10247 -288.287164 
L 132.037818 -286.376662 
L 132.973166 -284.129156 
L 133.908513 -281.581823 
L 134.843861 -278.776388 
L 135.779209 -275.757816 
L 136.714556 -272.572898 
L 137.649904 -269.268775 
L 138.585252 -265.891486 
L 139.520599 -262.484585 
L 140.455947 -259.087901 
L 141.391294 -255.736479 
L 142.326642 -252.459757 
L 143.26199 -249.280997 
L 144.197337 -246.216991 
L 145.132685 -243.278047 
L 146.068033 -240.468241 
L 147.00338 -237.785909 
L 147.938728 -235.224354 
L 148.874076 -232.77271 
L 149.809423 -230.416931 
L 150.744771 -228.140842 
L 151.680119 -225.927201 
L 152.615466 -223.758728 
L 153.550814 -221.619045 
L 154.486162 -219.4935 
L 155.421509 -217.36984 
L 156.356857 -215.238711 
L 157.292205 -213.093978 
L 158.227552 -210.932866 
L 159.1629 -208.755922 
L 160.098247 -206.566822 
L 161.033595 -204.372048 
L 161.968943 -202.180454 
L 162.90429 -200.002751 
L 163.839638 -197.850957 
L 164.774986 -195.737822 
L 165.710333 -193.676267 
L 166.645681 -191.678871 
L 167.581029 -189.757396 
L 168.516376 -187.922406 
L 169.451724 -186.182954 
L 170.387072 -184.546363 
L 171.322419 -183.018095 
L 172.257767 -181.6017 
L 173.193115 -180.298845 
L 174.128462 -179.109406 
L 175.06381 -178.031617 
L 175.999158 -177.062256 
L 176.934505 -176.19686 
L 176.934505 -165.94714 
L 176.934505 -165.94714 
L 175.999158 -165.081744 
L 175.06381 -164.112383 
L 174.128462 -163.034594 
L 173.193115 -161.845155 
L 172.257767 -160.5423 
L 171.322419 -159.125905 
L 170.387072 -157.597637 
L 169.451724 -155.961046 
L 168.516376 -154.221594 
L 167.581029 -152.386604 
L 166.645681 -150.465129 
L 165.710333 -148.467733 
L 164.774986 -146.406178 
L 163.839638 -144.293043 
L 162.90429 -142.141249 
L 161.968943 -139.963546 
L 161.033595 -137.771952 
L 160.098247 -135.577178 
L 159.1629 -133.388078 
L 158.227552 -131.211134 
L 157.292205 -129.050022 
L 156.356857 -126.905289 
L 155.421509 -124.77416 
L 154.486162 -122.6505 
L 153.550814 -120.524955 
L 152.615466 -118.385272 
L 151.680119 -116.216799 
L 150.744771 -114.003158 
L 149.809423 -111.727069 
L 148.874076 -109.37129 
L 147.938728 -106.919646 
L 147.00338 -104.358091 
L 146.068033 -101.675759 
L 145.132685 -98.865953 
L 144.197337 -95.927009 
L 143.26199 -92.863003 
L 142.326642 -89.684243 
L 141.391294 -86.407521 
L 140.455947 -83.056099 
L 139.520599 -79.659415 
L 138.585252 -76.252514 
L 137.649904 -72.875225 
L 136.714556 -69.571102 
L 135.779209 -66.386184 
L 134.843861 -63.367612 
L 133.908513 -60.562177 
L 132.973166 -58.014844 
L 132.037818 -55.767338 
L 131.10247 -53.856836 
L 130.167123 -52.314831 
L 129.231775 -51.166212 
L 128.296427 -50.428608 
L 127.36108 -50.112 
L 126.425732 -50.218632 
L 125.490384 -50.743206 
L 124.555037 -51.673339 
L 123.619689 -52.990272 
L 122.684341 -54.669756 
L 121.748994 -56.683102 
L 120.813646 -58.998317 
L 119.878299 -61.581269 
L 118.942951 -64.396845 
L 118.007603 -67.410031 
L 117.072256 -70.586873 
L 116.136908 -73.895293 
L 115.20156 -77.305724 
L 114.266213 -80.79155 
L 113.330865 -84.32936 
L 112.395517 -87.899003 
L 111.46017 -91.483485 
L 110.524822 -95.068715 
L 109.589474 -98.643135 
L 108.654127 -102.197284 
L 107.718779 -105.723305 
L 106.783431 -109.21446 
L 105.848084 -112.664659 
L 104.912736 -116.068047 
L 103.977388 -119.418671 
L 103.042041 -122.710224 
L 102.106693 -125.935902 
L 101.171346 -129.088342 
L 100.235998 -132.159663 
L 99.30065 -135.141588 
L 98.365303 -138.025625 
L 97.429955 -140.803301 
L 96.494607 -143.466424 
L 95.55926 -146.007353 
L 94.623912 -148.419258 
L 93.688564 -150.696357 
L 92.753217 -152.834112 
L 91.817869 -154.82938 
L 90.882521 -156.680508 
L 89.947174 -158.38737 
L 89.011826 -159.951356 
L 88.076478 -161.375303 
L 87.141131 -162.663383 
L 86.205783 -163.820955 
L 85.270435 -164.854395 
L 84.335088 -165.770896 
z
" id="mdb3ac2e30b" style="stroke:#4c4c4c;stroke-opacity:0.5;stroke-width:1.5;"/>
    </defs>
    <g clip-path="url(#pb47bae80b0)">
     <use style="fill:#df9c20;fill-opacity:0.5;stroke:#4c4c4c;stroke-opacity:0.5;stroke-width:1.5;" x="0" xlink:href="#mdb3ac2e30b" y="345.6"/>
    </g>
   </g>
   <g id="PolyCollection_2">
    <defs>
     <path d="M 73.832727 -171.001391 
L 73.832727 -171.142609 
L 77.112066 -171.208205 
L 80.391405 -171.310867 
L 83.670744 -171.459225 
L 86.950083 -171.667863 
L 90.229421 -171.974936 
L 93.50876 -172.471964 
L 96.788099 -173.340943 
L 100.067438 -174.886031 
L 103.346777 -177.535302 
L 106.626116 -181.778846 
L 109.905455 -188.026797 
L 113.184793 -196.433812 
L 116.464132 -206.806805 
L 119.743471 -218.692106 
L 123.02281 -231.582683 
L 126.302149 -245.0297 
L 129.581488 -258.505281 
L 132.860826 -271.150846 
L 136.140165 -281.739576 
L 139.419504 -288.996493 
L 142.698843 -292.032 
L 145.978182 -290.536408 
L 149.257521 -284.696495 
L 152.53686 -275.101328 
L 155.816198 -262.787606 
L 159.095537 -249.229053 
L 162.374876 -236.02635 
L 165.654215 -224.40073 
L 168.933554 -214.87055 
L 172.212893 -207.331676 
L 175.492231 -201.385115 
L 178.77157 -196.610061 
L 182.050909 -192.66011 
L 185.330248 -189.270923 
L 188.609587 -186.279186 
L 191.888926 -183.644436 
L 195.168264 -181.421846 
L 198.447603 -179.687476 
L 201.726942 -178.467332 
L 205.006281 -177.707857 
L 208.28562 -177.285675 
L 211.564959 -177.038663 
L 214.844298 -176.807459 
L 218.123636 -176.478914 
L 221.402975 -176.01538 
L 224.682314 -175.45319 
L 227.961653 -174.869453 
L 231.240992 -174.336779 
L 234.520331 -173.892353 
L 237.799669 -173.535359 
L 241.079008 -173.246628 
L 244.358347 -173.012618 
L 247.637686 -172.838361 
L 250.917025 -172.743856 
L 254.196364 -172.747014 
L 257.475702 -172.841895 
L 260.755041 -172.98509 
L 264.03438 -173.102284 
L 267.313719 -173.116532 
L 270.593058 -172.983932 
L 273.872397 -172.714859 
L 277.151736 -172.368363 
L 280.431074 -172.025708 
L 283.710413 -171.760348 
L 286.989752 -171.618005 
L 290.269091 -171.609191 
L 293.54843 -171.709631 
L 296.827769 -171.866073 
L 300.107107 -172.009694 
L 303.386446 -172.078036 
L 306.665785 -172.038292 
L 309.945124 -171.898919 
L 313.224463 -171.701516 
L 316.503802 -171.498115 
L 319.78314 -171.328434 
L 323.062479 -171.209257 
L 326.341818 -171.137608 
L 329.621157 -171.10099 
L 332.900496 -171.087036 
L 336.179835 -171.089192 
L 339.459174 -171.108972 
L 342.738512 -171.156231 
L 346.017851 -171.24729 
L 349.29719 -171.399329 
L 352.576529 -171.62053 
L 355.855868 -171.899298 
L 359.135207 -172.199592 
L 362.414545 -172.468197 
L 365.693884 -172.65245 
L 368.973223 -172.718904 
L 372.252562 -172.662423 
L 375.531901 -172.502668 
L 378.81124 -172.273531 
L 382.090579 -172.012954 
L 385.369917 -171.756136 
L 388.649256 -171.530877 
L 391.928595 -171.353967 
L 395.207934 -171.229689 
L 398.487273 -171.151813 
L 398.487273 -170.992187 
L 398.487273 -170.992187 
L 395.207934 -170.914311 
L 391.928595 -170.790033 
L 388.649256 -170.613123 
L 385.369917 -170.387864 
L 382.090579 -170.131046 
L 378.81124 -169.870469 
L 375.531901 -169.641332 
L 372.252562 -169.481577 
L 368.973223 -169.425096 
L 365.693884 -169.49155 
L 362.414545 -169.675803 
L 359.135207 -169.944408 
L 355.855868 -170.244702 
L 352.576529 -170.52347 
L 349.29719 -170.744671 
L 346.017851 -170.89671 
L 342.738512 -170.987769 
L 339.459174 -171.035028 
L 336.179835 -171.054808 
L 332.900496 -171.056964 
L 329.621157 -171.04301 
L 326.341818 -171.006392 
L 323.062479 -170.934743 
L 319.78314 -170.815566 
L 316.503802 -170.645885 
L 313.224463 -170.442484 
L 309.945124 -170.245081 
L 306.665785 -170.105708 
L 303.386446 -170.065964 
L 300.107107 -170.134306 
L 296.827769 -170.277927 
L 293.54843 -170.434369 
L 290.269091 -170.534809 
L 286.989752 -170.525995 
L 283.710413 -170.383652 
L 280.431074 -170.118292 
L 277.151736 -169.775637 
L 273.872397 -169.429141 
L 270.593058 -169.160068 
L 267.313719 -169.027468 
L 264.03438 -169.041716 
L 260.755041 -169.15891 
L 257.475702 -169.302105 
L 254.196364 -169.396986 
L 250.917025 -169.400144 
L 247.637686 -169.305639 
L 244.358347 -169.131382 
L 241.079008 -168.897372 
L 237.799669 -168.608641 
L 234.520331 -168.251647 
L 231.240992 -167.807221 
L 227.961653 -167.274547 
L 224.682314 -166.69081 
L 221.402975 -166.12862 
L 218.123636 -165.665086 
L 214.844298 -165.336541 
L 211.564959 -165.105337 
L 208.28562 -164.858325 
L 205.006281 -164.436143 
L 201.726942 -163.676668 
L 198.447603 -162.456524 
L 195.168264 -160.722154 
L 191.888926 -158.499564 
L 188.609587 -155.864814 
L 185.330248 -152.873077 
L 182.050909 -149.48389 
L 178.77157 -145.533939 
L 175.492231 -140.758885 
L 172.212893 -134.812324 
L 168.933554 -127.27345 
L 165.654215 -117.74327 
L 162.374876 -106.11765 
L 159.095537 -92.914947 
L 155.816198 -79.356394 
L 152.53686 -67.042672 
L 149.257521 -57.447505 
L 145.978182 -51.607592 
L 142.698843 -50.112 
L 139.419504 -53.147507 
L 136.140165 -60.404424 
L 132.860826 -70.993154 
L 129.581488 -83.638719 
L 126.302149 -97.1143 
L 123.02281 -110.561317 
L 119.743471 -123.451894 
L 116.464132 -135.337195 
L 113.184793 -145.710188 
L 109.905455 -154.117203 
L 106.626116 -160.365154 
L 103.346777 -164.608698 
L 100.067438 -167.257969 
L 96.788099 -168.803057 
L 93.50876 -169.672036 
L 90.229421 -170.169064 
L 86.950083 -170.476137 
L 83.670744 -170.684775 
L 80.391405 -170.833133 
L 77.112066 -170.935795 
L 73.832727 -171.001391 
z
" id="mfdc00a8eb1" style="stroke:#262626;stroke-opacity:0.5;stroke-width:1.5;"/>
    </defs>
    <g clip-path="url(#pb47bae80b0)">
     <use style="fill:#107010;fill-opacity:0.5;stroke:#262626;stroke-opacity:0.5;stroke-width:1.5;" x="0" xlink:href="#mfdc00a8eb1" y="345.6"/>
    </g>
   </g>
   <g id="matplotlib.axis_1">
    <g id="xtick_1">
     <g id="line2d_1">
      <defs>
       <path d="M 0 0 
L 0 3.5 
" id="m85e1f79be8" style="stroke:#000000;stroke-width:0.8;"/>
      </defs>
      <g>
       <use style="stroke:#000000;stroke-width:0.8;" x="77.872195" xlink:href="#m85e1f79be8" y="307.584"/>
      </g>
     </g>
     <g id="text_1">
      <!-- 10 -->
      <defs>
       <path d="M 12.40625 8.296875 
L 28.515625 8.296875 
L 28.515625 63.921875 
L 10.984375 60.40625 
L 10.984375 69.390625 
L 28.421875 72.90625 
L 38.28125 72.90625 
L 38.28125 8.296875 
L 54.390625 8.296875 
L 54.390625 0 
L 12.40625 0 
z
" id="DejaVuSans-49"/>
       <path d="M 31.78125 66.40625 
Q 24.171875 66.40625 20.328125 58.90625 
Q 16.5 51.421875 16.5 36.375 
Q 16.5 21.390625 20.328125 13.890625 
Q 24.171875 6.390625 31.78125 6.390625 
Q 39.453125 6.390625 43.28125 13.890625 
Q 47.125 21.390625 47.125 36.375 
Q 47.125 51.421875 43.28125 58.90625 
Q 39.453125 66.40625 31.78125 66.40625 
z
M 31.78125 74.21875 
Q 44.046875 74.21875 50.515625 64.515625 
Q 56.984375 54.828125 56.984375 36.375 
Q 56.984375 17.96875 50.515625 8.265625 
Q 44.046875 -1.421875 31.78125 -1.421875 
Q 19.53125 -1.421875 13.0625 8.265625 
Q 6.59375 17.96875 6.59375 36.375 
Q 6.59375 54.828125 13.0625 64.515625 
Q 19.53125 74.21875 31.78125 74.21875 
z
" id="DejaVuSans-48"/>
      </defs>
      <g transform="translate(71.509695 322.182437)scale(0.1 -0.1)">
       <use xlink:href="#DejaVuSans-49"/>
       <use x="63.623047" xlink:href="#DejaVuSans-48"/>
      </g>
     </g>
    </g>
    <g id="xtick_2">
     <g id="line2d_2">
      <g>
       <use style="stroke:#000000;stroke-width:0.8;" x="153.24734" xlink:href="#m85e1f79be8" y="307.584"/>
      </g>
     </g>
     <g id="text_2">
      <!-- 20 -->
      <defs>
       <path d="M 19.1875 8.296875 
L 53.609375 8.296875 
L 53.609375 0 
L 7.328125 0 
L 7.328125 8.296875 
Q 12.9375 14.109375 22.625 23.890625 
Q 32.328125 33.6875 34.8125 36.53125 
Q 39.546875 41.84375 41.421875 45.53125 
Q 43.3125 49.21875 43.3125 52.78125 
Q 43.3125 58.59375 39.234375 62.25 
Q 35.15625 65.921875 28.609375 65.921875 
Q 23.96875 65.921875 18.8125 64.3125 
Q 13.671875 62.703125 7.8125 59.421875 
L 7.8125 69.390625 
Q 13.765625 71.78125 18.9375 73 
Q 24.125 74.21875 28.421875 74.21875 
Q 39.75 74.21875 46.484375 68.546875 
Q 53.21875 62.890625 53.21875 53.421875 
Q 53.21875 48.921875 51.53125 44.890625 
Q 49.859375 40.875 45.40625 35.40625 
Q 44.1875 33.984375 37.640625 27.21875 
Q 31.109375 20.453125 19.1875 8.296875 
z
" id="DejaVuSans-50"/>
      </defs>
      <g transform="translate(146.88484 322.182437)scale(0.1 -0.1)">
       <use xlink:href="#DejaVuSans-50"/>
       <use x="63.623047" xlink:href="#DejaVuSans-48"/>
      </g>
     </g>
    </g>
    <g id="xtick_3">
     <g id="line2d_3">
      <g>
       <use style="stroke:#000000;stroke-width:0.8;" x="228.622485" xlink:href="#m85e1f79be8" y="307.584"/>
      </g>
     </g>
     <g id="text_3">
      <!-- 30 -->
      <defs>
       <path d="M 40.578125 39.3125 
Q 47.65625 37.796875 51.625 33 
Q 55.609375 28.21875 55.609375 21.1875 
Q 55.609375 10.40625 48.1875 4.484375 
Q 40.765625 -1.421875 27.09375 -1.421875 
Q 22.515625 -1.421875 17.65625 -0.515625 
Q 12.796875 0.390625 7.625 2.203125 
L 7.625 11.71875 
Q 11.71875 9.328125 16.59375 8.109375 
Q 21.484375 6.890625 26.8125 6.890625 
Q 36.078125 6.890625 40.9375 10.546875 
Q 45.796875 14.203125 45.796875 21.1875 
Q 45.796875 27.640625 41.28125 31.265625 
Q 36.765625 34.90625 28.71875 34.90625 
L 20.21875 34.90625 
L 20.21875 43.015625 
L 29.109375 43.015625 
Q 36.375 43.015625 40.234375 45.921875 
Q 44.09375 48.828125 44.09375 54.296875 
Q 44.09375 59.90625 40.109375 62.90625 
Q 36.140625 65.921875 28.71875 65.921875 
Q 24.65625 65.921875 20.015625 65.03125 
Q 15.375 64.15625 9.8125 62.3125 
L 9.8125 71.09375 
Q 15.4375 72.65625 20.34375 73.4375 
Q 25.25 74.21875 29.59375 74.21875 
Q 40.828125 74.21875 47.359375 69.109375 
Q 53.90625 64.015625 53.90625 55.328125 
Q 53.90625 49.265625 50.4375 45.09375 
Q 46.96875 40.921875 40.578125 39.3125 
z
" id="DejaVuSans-51"/>
      </defs>
      <g transform="translate(222.259985 322.182437)scale(0.1 -0.1)">
       <use xlink:href="#DejaVuSans-51"/>
       <use x="63.623047" xlink:href="#DejaVuSans-48"/>
      </g>
     </g>
    </g>
    <g id="xtick_4">
     <g id="line2d_4">
      <g>
       <use style="stroke:#000000;stroke-width:0.8;" x="303.997631" xlink:href="#m85e1f79be8" y="307.584"/>
      </g>
     </g>
     <g id="text_4">
      <!-- 40 -->
      <defs>
       <path d="M 37.796875 64.3125 
L 12.890625 25.390625 
L 37.796875 25.390625 
z
M 35.203125 72.90625 
L 47.609375 72.90625 
L 47.609375 25.390625 
L 58.015625 25.390625 
L 58.015625 17.1875 
L 47.609375 17.1875 
L 47.609375 0 
L 37.796875 0 
L 37.796875 17.1875 
L 4.890625 17.1875 
L 4.890625 26.703125 
z
" id="DejaVuSans-52"/>
      </defs>
      <g transform="translate(297.635131 322.182437)scale(0.1 -0.1)">
       <use xlink:href="#DejaVuSans-52"/>
       <use x="63.623047" xlink:href="#DejaVuSans-48"/>
      </g>
     </g>
    </g>
    <g id="xtick_5">
     <g id="line2d_5">
      <g>
       <use style="stroke:#000000;stroke-width:0.8;" x="379.372776" xlink:href="#m85e1f79be8" y="307.584"/>
      </g>
     </g>
     <g id="text_5">
      <!-- 50 -->
      <defs>
       <path d="M 10.796875 72.90625 
L 49.515625 72.90625 
L 49.515625 64.59375 
L 19.828125 64.59375 
L 19.828125 46.734375 
Q 21.96875 47.46875 24.109375 47.828125 
Q 26.265625 48.1875 28.421875 48.1875 
Q 40.625 48.1875 47.75 41.5 
Q 54.890625 34.8125 54.890625 23.390625 
Q 54.890625 11.625 47.5625 5.09375 
Q 40.234375 -1.421875 26.90625 -1.421875 
Q 22.3125 -1.421875 17.546875 -0.640625 
Q 12.796875 0.140625 7.71875 1.703125 
L 7.71875 11.625 
Q 12.109375 9.234375 16.796875 8.0625 
Q 21.484375 6.890625 26.703125 6.890625 
Q 35.15625 6.890625 40.078125 11.328125 
Q 45.015625 15.765625 45.015625 23.390625 
Q 45.015625 31 40.078125 35.4375 
Q 35.15625 39.890625 26.703125 39.890625 
Q 22.75 39.890625 18.8125 39.015625 
Q 14.890625 38.140625 10.796875 36.28125 
z
" id="DejaVuSans-53"/>
      </defs>
      <g transform="translate(373.010276 322.182437)scale(0.1 -0.1)">
       <use xlink:href="#DejaVuSans-53"/>
       <use x="63.623047" xlink:href="#DejaVuSans-48"/>
      </g>
     </g>
    </g>
    <g id="text_6">
     <!-- initial_rr -->
     <defs>
      <path d="M 9.421875 54.6875 
L 18.40625 54.6875 
L 18.40625 0 
L 9.421875 0 
z
M 9.421875 75.984375 
L 18.40625 75.984375 
L 18.40625 64.59375 
L 9.421875 64.59375 
z
" id="DejaVuSans-105"/>
      <path d="M 54.890625 33.015625 
L 54.890625 0 
L 45.90625 0 
L 45.90625 32.71875 
Q 45.90625 40.484375 42.875 44.328125 
Q 39.84375 48.1875 33.796875 48.1875 
Q 26.515625 48.1875 22.3125 43.546875 
Q 18.109375 38.921875 18.109375 30.90625 
L 18.109375 0 
L 9.078125 0 
L 9.078125 54.6875 
L 18.109375 54.6875 
L 18.109375 46.1875 
Q 21.34375 51.125 25.703125 53.5625 
Q 30.078125 56 35.796875 56 
Q 45.21875 56 50.046875 50.171875 
Q 54.890625 44.34375 54.890625 33.015625 
z
" id="DejaVuSans-110"/>
      <path d="M 18.3125 70.21875 
L 18.3125 54.6875 
L 36.8125 54.6875 
L 36.8125 47.703125 
L 18.3125 47.703125 
L 18.3125 18.015625 
Q 18.3125 11.328125 20.140625 9.421875 
Q 21.96875 7.515625 27.59375 7.515625 
L 36.8125 7.515625 
L 36.8125 0 
L 27.59375 0 
Q 17.1875 0 13.234375 3.875 
Q 9.28125 7.765625 9.28125 18.015625 
L 9.28125 47.703125 
L 2.6875 47.703125 
L 2.6875 54.6875 
L 9.28125 54.6875 
L 9.28125 70.21875 
z
" id="DejaVuSans-116"/>
      <path d="M 34.28125 27.484375 
Q 23.390625 27.484375 19.1875 25 
Q 14.984375 22.515625 14.984375 16.5 
Q 14.984375 11.71875 18.140625 8.90625 
Q 21.296875 6.109375 26.703125 6.109375 
Q 34.1875 6.109375 38.703125 11.40625 
Q 43.21875 16.703125 43.21875 25.484375 
L 43.21875 27.484375 
z
M 52.203125 31.203125 
L 52.203125 0 
L 43.21875 0 
L 43.21875 8.296875 
Q 40.140625 3.328125 35.546875 0.953125 
Q 30.953125 -1.421875 24.3125 -1.421875 
Q 15.921875 -1.421875 10.953125 3.296875 
Q 6 8.015625 6 15.921875 
Q 6 25.140625 12.171875 29.828125 
Q 18.359375 34.515625 30.609375 34.515625 
L 43.21875 34.515625 
L 43.21875 35.40625 
Q 43.21875 41.609375 39.140625 45 
Q 35.0625 48.390625 27.6875 48.390625 
Q 23 48.390625 18.546875 47.265625 
Q 14.109375 46.140625 10.015625 43.890625 
L 10.015625 52.203125 
Q 14.9375 54.109375 19.578125 55.046875 
Q 24.21875 56 28.609375 56 
Q 40.484375 56 46.34375 49.84375 
Q 52.203125 43.703125 52.203125 31.203125 
z
" id="DejaVuSans-97"/>
      <path d="M 9.421875 75.984375 
L 18.40625 75.984375 
L 18.40625 0 
L 9.421875 0 
z
" id="DejaVuSans-108"/>
      <path d="M 50.984375 -16.609375 
L 50.984375 -23.578125 
L -0.984375 -23.578125 
L -0.984375 -16.609375 
z
" id="DejaVuSans-95"/>
      <path d="M 41.109375 46.296875 
Q 39.59375 47.171875 37.8125 47.578125 
Q 36.03125 48 33.890625 48 
Q 26.265625 48 22.1875 43.046875 
Q 18.109375 38.09375 18.109375 28.8125 
L 18.109375 0 
L 9.078125 0 
L 9.078125 54.6875 
L 18.109375 54.6875 
L 18.109375 46.1875 
Q 20.953125 51.171875 25.484375 53.578125 
Q 30.03125 56 36.53125 56 
Q 37.453125 56 38.578125 55.875 
Q 39.703125 55.765625 41.0625 55.515625 
z
" id="DejaVuSans-114"/>
     </defs>
     <g transform="translate(215.887344 335.860562)scale(0.1 -0.1)">
      <use xlink:href="#DejaVuSans-105"/>
      <use x="27.783203" xlink:href="#DejaVuSans-110"/>
      <use x="91.162109" xlink:href="#DejaVuSans-105"/>
      <use x="118.945312" xlink:href="#DejaVuSans-116"/>
      <use x="158.154297" xlink:href="#DejaVuSans-105"/>
      <use x="185.9375" xlink:href="#DejaVuSans-97"/>
      <use x="247.216797" xlink:href="#DejaVuSans-108"/>
      <use x="275" xlink:href="#DejaVuSans-95"/>
      <use x="325" xlink:href="#DejaVuSans-114"/>
      <use x="364.363281" xlink:href="#DejaVuSans-114"/>
     </g>
    </g>
   </g>
   <g id="matplotlib.axis_2">
    <g id="ytick_1">
     <g id="line2d_6">
      <defs>
       <path d="M 0 0 
L -3.5 0 
" id="ma49805df8f" style="stroke:#000000;stroke-width:0.8;"/>
      </defs>
      <g>
       <use style="stroke:#000000;stroke-width:0.8;" x="57.6" xlink:href="#ma49805df8f" y="174.528"/>
      </g>
     </g>
    </g>
   </g>
   <g id="line2d_7">
    <path clip-path="url(#pb47bae80b0)" d="M 123.097282 174.528 
L 130.634796 174.528 
" style="fill:none;stroke:#ffa500;stroke-linecap:square;stroke-width:1.5;"/>
   </g>
   <g id="line2d_8">
    <path clip-path="url(#pb47bae80b0)" d="M 123.097282 174.528 
L 130.634796 174.528 
" style="fill:none;stroke:#4c4c4c;stroke-linecap:square;stroke-width:4.5;"/>
   </g>
   <g id="line2d_9">
    <path clip-path="url(#pb47bae80b0)" d="M 115.559767 174.528 
L 175.859884 174.528 
" style="fill:none;stroke:#008000;stroke-linecap:square;stroke-width:1.5;"/>
   </g>
   <g id="line2d_10">
    <path clip-path="url(#pb47bae80b0)" d="M 138.172311 174.528 
L 153.24734 174.528 
" style="fill:none;stroke:#262626;stroke-linecap:square;stroke-width:4.5;"/>
   </g>
   <g id="patch_3">
    <path d="M 57.6 307.584 
L 57.6 41.472 
" style="fill:none;stroke:#000000;stroke-linecap:square;stroke-linejoin:miter;stroke-width:0.8;"/>
   </g>
   <g id="patch_4">
    <path d="M 414.72 307.584 
L 414.72 41.472 
" style="fill:none;stroke:#000000;stroke-linecap:square;stroke-linejoin:miter;stroke-width:0.8;"/>
   </g>
   <g id="patch_5">
    <path d="M 57.6 307.584 
L 414.72 307.584 
" style="fill:none;stroke:#000000;stroke-linecap:square;stroke-linejoin:miter;stroke-width:0.8;"/>
   </g>
   <g id="patch_6">
    <path d="M 57.6 41.472 
L 414.72 41.472 
" style="fill:none;stroke:#000000;stroke-linecap:square;stroke-linejoin:miter;stroke-width:0.8;"/>
   </g>
   <g id="PathCollection_1">
    <defs>
     <path d="M 0 1.5 
C 0.397805 1.5 0.77937 1.341951 1.06066 1.06066 
C 1.341951 0.77937 1.5 0.397805 1.5 0 
C 1.5 -0.397805 1.341951 -0.77937 1.06066 -1.06066 
C 0.77937 -1.341951 0.397805 -1.5 0 -1.5 
C -0.397805 -1.5 -0.77937 -1.341951 -1.06066 -1.06066 
C -1.341951 -0.77937 -1.5 -0.397805 -1.5 0 
C -1.5 0.397805 -1.341951 0.77937 -1.06066 1.06066 
C -0.77937 1.341951 -0.397805 1.5 0 1.5 
z
" id="m5273f0c57a" style="stroke:#4c4c4c;stroke-opacity:0.5;"/>
    </defs>
    <g clip-path="url(#pb47bae80b0)">
     <use style="fill:#ffffff;fill-opacity:0.5;stroke:#4c4c4c;stroke-opacity:0.5;" x="130.634796" xlink:href="#m5273f0c57a" y="174.528"/>
    </g>
   </g>
   <g id="PathCollection_2">
    <defs>
     <path d="M 0 1.5 
C 0.397805 1.5 0.77937 1.341951 1.06066 1.06066 
C 1.341951 0.77937 1.5 0.397805 1.5 0 
C 1.5 -0.397805 1.341951 -0.77937 1.06066 -1.06066 
C 0.77937 -1.341951 0.397805 -1.5 0 -1.5 
C -0.397805 -1.5 -0.77937 -1.341951 -1.06066 -1.06066 
C -1.341951 -0.77937 -1.5 -0.397805 -1.5 0 
C -1.5 0.397805 -1.341951 0.77937 -1.06066 1.06066 
C -0.77937 1.341951 -0.397805 1.5 0 1.5 
z
" id="m985821fcdd" style="stroke:#262626;stroke-opacity:0.5;"/>
    </defs>
    <g clip-path="url(#pb47bae80b0)">
     <use style="fill:#ffffff;fill-opacity:0.5;stroke:#262626;stroke-opacity:0.5;" x="145.709826" xlink:href="#m985821fcdd" y="174.528"/>
    </g>
   </g>
   <g id="text_7">
    <!-- Association of initial_rr vs. myocarditis -->
    <defs>
     <path d="M 34.1875 63.1875 
L 20.796875 26.90625 
L 47.609375 26.90625 
z
M 28.609375 72.90625 
L 39.796875 72.90625 
L 67.578125 0 
L 57.328125 0 
L 50.6875 18.703125 
L 17.828125 18.703125 
L 11.1875 0 
L 0.78125 0 
z
" id="DejaVuSans-65"/>
     <path d="M 44.28125 53.078125 
L 44.28125 44.578125 
Q 40.484375 46.53125 36.375 47.5 
Q 32.28125 48.484375 27.875 48.484375 
Q 21.1875 48.484375 17.84375 46.4375 
Q 14.5 44.390625 14.5 40.28125 
Q 14.5 37.15625 16.890625 35.375 
Q 19.28125 33.59375 26.515625 31.984375 
L 29.59375 31.296875 
Q 39.15625 29.25 43.1875 25.515625 
Q 47.21875 21.78125 47.21875 15.09375 
Q 47.21875 7.46875 41.1875 3.015625 
Q 35.15625 -1.421875 24.609375 -1.421875 
Q 20.21875 -1.421875 15.453125 -0.5625 
Q 10.6875 0.296875 5.421875 2 
L 5.421875 11.28125 
Q 10.40625 8.6875 15.234375 7.390625 
Q 20.0625 6.109375 24.8125 6.109375 
Q 31.15625 6.109375 34.5625 8.28125 
Q 37.984375 10.453125 37.984375 14.40625 
Q 37.984375 18.0625 35.515625 20.015625 
Q 33.0625 21.96875 24.703125 23.78125 
L 21.578125 24.515625 
Q 13.234375 26.265625 9.515625 29.90625 
Q 5.8125 33.546875 5.8125 39.890625 
Q 5.8125 47.609375 11.28125 51.796875 
Q 16.75 56 26.8125 56 
Q 31.78125 56 36.171875 55.265625 
Q 40.578125 54.546875 44.28125 53.078125 
z
" id="DejaVuSans-115"/>
     <path d="M 30.609375 48.390625 
Q 23.390625 48.390625 19.1875 42.75 
Q 14.984375 37.109375 14.984375 27.296875 
Q 14.984375 17.484375 19.15625 11.84375 
Q 23.34375 6.203125 30.609375 6.203125 
Q 37.796875 6.203125 41.984375 11.859375 
Q 46.1875 17.53125 46.1875 27.296875 
Q 46.1875 37.015625 41.984375 42.703125 
Q 37.796875 48.390625 30.609375 48.390625 
z
M 30.609375 56 
Q 42.328125 56 49.015625 48.375 
Q 55.71875 40.765625 55.71875 27.296875 
Q 55.71875 13.875 49.015625 6.21875 
Q 42.328125 -1.421875 30.609375 -1.421875 
Q 18.84375 -1.421875 12.171875 6.21875 
Q 5.515625 13.875 5.515625 27.296875 
Q 5.515625 40.765625 12.171875 48.375 
Q 18.84375 56 30.609375 56 
z
" id="DejaVuSans-111"/>
     <path d="M 48.78125 52.59375 
L 48.78125 44.1875 
Q 44.96875 46.296875 41.140625 47.34375 
Q 37.3125 48.390625 33.40625 48.390625 
Q 24.65625 48.390625 19.8125 42.84375 
Q 14.984375 37.3125 14.984375 27.296875 
Q 14.984375 17.28125 19.8125 11.734375 
Q 24.65625 6.203125 33.40625 6.203125 
Q 37.3125 6.203125 41.140625 7.25 
Q 44.96875 8.296875 48.78125 10.40625 
L 48.78125 2.09375 
Q 45.015625 0.34375 40.984375 -0.53125 
Q 36.96875 -1.421875 32.421875 -1.421875 
Q 20.0625 -1.421875 12.78125 6.34375 
Q 5.515625 14.109375 5.515625 27.296875 
Q 5.515625 40.671875 12.859375 48.328125 
Q 20.21875 56 33.015625 56 
Q 37.15625 56 41.109375 55.140625 
Q 45.0625 54.296875 48.78125 52.59375 
z
" id="DejaVuSans-99"/>
     <path id="DejaVuSans-32"/>
     <path d="M 37.109375 75.984375 
L 37.109375 68.5 
L 28.515625 68.5 
Q 23.6875 68.5 21.796875 66.546875 
Q 19.921875 64.59375 19.921875 59.515625 
L 19.921875 54.6875 
L 34.71875 54.6875 
L 34.71875 47.703125 
L 19.921875 47.703125 
L 19.921875 0 
L 10.890625 0 
L 10.890625 47.703125 
L 2.296875 47.703125 
L 2.296875 54.6875 
L 10.890625 54.6875 
L 10.890625 58.5 
Q 10.890625 67.625 15.140625 71.796875 
Q 19.390625 75.984375 28.609375 75.984375 
z
" id="DejaVuSans-102"/>
     <path d="M 2.984375 54.6875 
L 12.5 54.6875 
L 29.59375 8.796875 
L 46.6875 54.6875 
L 56.203125 54.6875 
L 35.6875 0 
L 23.484375 0 
z
" id="DejaVuSans-118"/>
     <path d="M 10.6875 12.40625 
L 21 12.40625 
L 21 0 
L 10.6875 0 
z
" id="DejaVuSans-46"/>
     <path d="M 52 44.1875 
Q 55.375 50.25 60.0625 53.125 
Q 64.75 56 71.09375 56 
Q 79.640625 56 84.28125 50.015625 
Q 88.921875 44.046875 88.921875 33.015625 
L 88.921875 0 
L 79.890625 0 
L 79.890625 32.71875 
Q 79.890625 40.578125 77.09375 44.375 
Q 74.3125 48.1875 68.609375 48.1875 
Q 61.625 48.1875 57.5625 43.546875 
Q 53.515625 38.921875 53.515625 30.90625 
L 53.515625 0 
L 44.484375 0 
L 44.484375 32.71875 
Q 44.484375 40.625 41.703125 44.40625 
Q 38.921875 48.1875 33.109375 48.1875 
Q 26.21875 48.1875 22.15625 43.53125 
Q 18.109375 38.875 18.109375 30.90625 
L 18.109375 0 
L 9.078125 0 
L 9.078125 54.6875 
L 18.109375 54.6875 
L 18.109375 46.1875 
Q 21.1875 51.21875 25.484375 53.609375 
Q 29.78125 56 35.6875 56 
Q 41.65625 56 45.828125 52.96875 
Q 50 49.953125 52 44.1875 
z
" id="DejaVuSans-109"/>
     <path d="M 32.171875 -5.078125 
Q 28.375 -14.84375 24.75 -17.8125 
Q 21.140625 -20.796875 15.09375 -20.796875 
L 7.90625 -20.796875 
L 7.90625 -13.28125 
L 13.1875 -13.28125 
Q 16.890625 -13.28125 18.9375 -11.515625 
Q 21 -9.765625 23.484375 -3.21875 
L 25.09375 0.875 
L 2.984375 54.6875 
L 12.5 54.6875 
L 29.59375 11.921875 
L 46.6875 54.6875 
L 56.203125 54.6875 
z
" id="DejaVuSans-121"/>
     <path d="M 45.40625 46.390625 
L 45.40625 75.984375 
L 54.390625 75.984375 
L 54.390625 0 
L 45.40625 0 
L 45.40625 8.203125 
Q 42.578125 3.328125 38.25 0.953125 
Q 33.9375 -1.421875 27.875 -1.421875 
Q 17.96875 -1.421875 11.734375 6.484375 
Q 5.515625 14.40625 5.515625 27.296875 
Q 5.515625 40.1875 11.734375 48.09375 
Q 17.96875 56 27.875 56 
Q 33.9375 56 38.25 53.625 
Q 42.578125 51.265625 45.40625 46.390625 
z
M 14.796875 27.296875 
Q 14.796875 17.390625 18.875 11.75 
Q 22.953125 6.109375 30.078125 6.109375 
Q 37.203125 6.109375 41.296875 11.75 
Q 45.40625 17.390625 45.40625 27.296875 
Q 45.40625 37.203125 41.296875 42.84375 
Q 37.203125 48.484375 30.078125 48.484375 
Q 22.953125 48.484375 18.875 42.84375 
Q 14.796875 37.203125 14.796875 27.296875 
z
" id="DejaVuSans-100"/>
    </defs>
    <g transform="translate(120.650625 35.472)scale(0.12 -0.12)">
     <use xlink:href="#DejaVuSans-65"/>
     <use x="68.408203" xlink:href="#DejaVuSans-115"/>
     <use x="120.507812" xlink:href="#DejaVuSans-115"/>
     <use x="172.607422" xlink:href="#DejaVuSans-111"/>
     <use x="233.789062" xlink:href="#DejaVuSans-99"/>
     <use x="288.769531" xlink:href="#DejaVuSans-105"/>
     <use x="316.552734" xlink:href="#DejaVuSans-97"/>
     <use x="377.832031" xlink:href="#DejaVuSans-116"/>
     <use x="417.041016" xlink:href="#DejaVuSans-105"/>
     <use x="444.824219" xlink:href="#DejaVuSans-111"/>
     <use x="506.005859" xlink:href="#DejaVuSans-110"/>
     <use x="569.384766" xlink:href="#DejaVuSans-32"/>
     <use x="601.171875" xlink:href="#DejaVuSans-111"/>
     <use x="662.353516" xlink:href="#DejaVuSans-102"/>
     <use x="697.558594" xlink:href="#DejaVuSans-32"/>
     <use x="729.345703" xlink:href="#DejaVuSans-105"/>
     <use x="757.128906" xlink:href="#DejaVuSans-110"/>
     <use x="820.507812" xlink:href="#DejaVuSans-105"/>
     <use x="848.291016" xlink:href="#DejaVuSans-116"/>
     <use x="887.5" xlink:href="#DejaVuSans-105"/>
     <use x="915.283203" xlink:href="#DejaVuSans-97"/>
     <use x="976.5625" xlink:href="#DejaVuSans-108"/>
     <use x="1004.345703" xlink:href="#DejaVuSans-95"/>
     <use x="1054.345703" xlink:href="#DejaVuSans-114"/>
     <use x="1093.708984" xlink:href="#DejaVuSans-114"/>
     <use x="1134.822266" xlink:href="#DejaVuSans-32"/>
     <use x="1166.609375" xlink:href="#DejaVuSans-118"/>
     <use x="1225.789062" xlink:href="#DejaVuSans-115"/>
     <use x="1277.888672" xlink:href="#DejaVuSans-46"/>
     <use x="1309.675781" xlink:href="#DejaVuSans-32"/>
     <use x="1341.462891" xlink:href="#DejaVuSans-109"/>
     <use x="1438.875" xlink:href="#DejaVuSans-121"/>
     <use x="1498.054688" xlink:href="#DejaVuSans-111"/>
     <use x="1559.236328" xlink:href="#DejaVuSans-99"/>
     <use x="1614.216797" xlink:href="#DejaVuSans-97"/>
     <use x="1675.496094" xlink:href="#DejaVuSans-114"/>
     <use x="1714.859375" xlink:href="#DejaVuSans-100"/>
     <use x="1778.335938" xlink:href="#DejaVuSans-105"/>
     <use x="1806.119141" xlink:href="#DejaVuSans-116"/>
     <use x="1845.328125" xlink:href="#DejaVuSans-105"/>
     <use x="1873.111328" xlink:href="#DejaVuSans-115"/>
    </g>
   </g>
   <g id="legend_1">
    <g id="patch_7">
     <path d="M 266.577812 78.82825 
L 407.72 78.82825 
Q 409.72 78.82825 409.72 76.82825 
L 409.72 48.472 
Q 409.72 46.472 407.72 46.472 
L 266.577812 46.472 
Q 264.577812 46.472 264.577812 48.472 
L 264.577812 76.82825 
Q 264.577812 78.82825 266.577812 78.82825 
z
" style="fill:#ffffff;opacity:0.8;stroke:#cccccc;stroke-linejoin:miter;"/>
    </g>
    <g id="line2d_11">
     <path d="M 268.577812 54.570437 
L 288.577812 54.570437 
" style="fill:none;stroke:#ffa500;stroke-linecap:square;stroke-width:1.5;"/>
    </g>
    <g id="line2d_12"/>
    <g id="text_8">
     <!-- myocarditis (5) -->
     <defs>
      <path d="M 31 75.875 
Q 24.46875 64.65625 21.28125 53.65625 
Q 18.109375 42.671875 18.109375 31.390625 
Q 18.109375 20.125 21.3125 9.0625 
Q 24.515625 -2 31 -13.1875 
L 23.1875 -13.1875 
Q 15.875 -1.703125 12.234375 9.375 
Q 8.59375 20.453125 8.59375 31.390625 
Q 8.59375 42.28125 12.203125 53.3125 
Q 15.828125 64.359375 23.1875 75.875 
z
" id="DejaVuSans-40"/>
      <path d="M 8.015625 75.875 
L 15.828125 75.875 
Q 23.140625 64.359375 26.78125 53.3125 
Q 30.421875 42.28125 30.421875 31.390625 
Q 30.421875 20.453125 26.78125 9.375 
Q 23.140625 -1.703125 15.828125 -13.1875 
L 8.015625 -13.1875 
Q 14.5 -2 17.703125 9.0625 
Q 20.90625 20.125 20.90625 31.390625 
Q 20.90625 42.671875 17.703125 53.65625 
Q 14.5 64.65625 8.015625 75.875 
z
" id="DejaVuSans-41"/>
     </defs>
     <g transform="translate(296.577812 58.070437)scale(0.1 -0.1)">
      <use xlink:href="#DejaVuSans-109"/>
      <use x="97.412109" xlink:href="#DejaVuSans-121"/>
      <use x="156.591797" xlink:href="#DejaVuSans-111"/>
      <use x="217.773438" xlink:href="#DejaVuSans-99"/>
      <use x="272.753906" xlink:href="#DejaVuSans-97"/>
      <use x="334.033203" xlink:href="#DejaVuSans-114"/>
      <use x="373.396484" xlink:href="#DejaVuSans-100"/>
      <use x="436.873047" xlink:href="#DejaVuSans-105"/>
      <use x="464.65625" xlink:href="#DejaVuSans-116"/>
      <use x="503.865234" xlink:href="#DejaVuSans-105"/>
      <use x="531.648438" xlink:href="#DejaVuSans-115"/>
      <use x="583.748047" xlink:href="#DejaVuSans-32"/>
      <use x="615.535156" xlink:href="#DejaVuSans-40"/>
      <use x="654.548828" xlink:href="#DejaVuSans-53"/>
      <use x="718.171875" xlink:href="#DejaVuSans-41"/>
     </g>
    </g>
    <g id="line2d_13">
     <path d="M 268.577812 69.248562 
L 288.577812 69.248562 
" style="fill:none;stroke:#008000;stroke-linecap:square;stroke-width:1.5;"/>
    </g>
    <g id="line2d_14"/>
    <g id="text_9">
     <!-- Not myocarditis (485) -->
     <defs>
      <path d="M 9.8125 72.90625 
L 23.09375 72.90625 
L 55.421875 11.921875 
L 55.421875 72.90625 
L 64.984375 72.90625 
L 64.984375 0 
L 51.703125 0 
L 19.390625 60.984375 
L 19.390625 0 
L 9.8125 0 
z
" id="DejaVuSans-78"/>
      <path d="M 31.78125 34.625 
Q 24.75 34.625 20.71875 30.859375 
Q 16.703125 27.09375 16.703125 20.515625 
Q 16.703125 13.921875 20.71875 10.15625 
Q 24.75 6.390625 31.78125 6.390625 
Q 38.8125 6.390625 42.859375 10.171875 
Q 46.921875 13.96875 46.921875 20.515625 
Q 46.921875 27.09375 42.890625 30.859375 
Q 38.875 34.625 31.78125 34.625 
z
M 21.921875 38.8125 
Q 15.578125 40.375 12.03125 44.71875 
Q 8.5 49.078125 8.5 55.328125 
Q 8.5 64.0625 14.71875 69.140625 
Q 20.953125 74.21875 31.78125 74.21875 
Q 42.671875 74.21875 48.875 69.140625 
Q 55.078125 64.0625 55.078125 55.328125 
Q 55.078125 49.078125 51.53125 44.71875 
Q 48 40.375 41.703125 38.8125 
Q 48.828125 37.15625 52.796875 32.3125 
Q 56.78125 27.484375 56.78125 20.515625 
Q 56.78125 9.90625 50.3125 4.234375 
Q 43.84375 -1.421875 31.78125 -1.421875 
Q 19.734375 -1.421875 13.25 4.234375 
Q 6.78125 9.90625 6.78125 20.515625 
Q 6.78125 27.484375 10.78125 32.3125 
Q 14.796875 37.15625 21.921875 38.8125 
z
M 18.3125 54.390625 
Q 18.3125 48.734375 21.84375 45.5625 
Q 25.390625 42.390625 31.78125 42.390625 
Q 38.140625 42.390625 41.71875 45.5625 
Q 45.3125 48.734375 45.3125 54.390625 
Q 45.3125 60.0625 41.71875 63.234375 
Q 38.140625 66.40625 31.78125 66.40625 
Q 25.390625 66.40625 21.84375 63.234375 
Q 18.3125 60.0625 18.3125 54.390625 
z
" id="DejaVuSans-56"/>
     </defs>
     <g transform="translate(296.577812 72.748562)scale(0.1 -0.1)">
      <use xlink:href="#DejaVuSans-78"/>
      <use x="74.804688" xlink:href="#DejaVuSans-111"/>
      <use x="135.986328" xlink:href="#DejaVuSans-116"/>
      <use x="175.195312" xlink:href="#DejaVuSans-32"/>
      <use x="206.982422" xlink:href="#DejaVuSans-109"/>
      <use x="304.394531" xlink:href="#DejaVuSans-121"/>
      <use x="363.574219" xlink:href="#DejaVuSans-111"/>
      <use x="424.755859" xlink:href="#DejaVuSans-99"/>
      <use x="479.736328" xlink:href="#DejaVuSans-97"/>
      <use x="541.015625" xlink:href="#DejaVuSans-114"/>
      <use x="580.378906" xlink:href="#DejaVuSans-100"/>
      <use x="643.855469" xlink:href="#DejaVuSans-105"/>
      <use x="671.638672" xlink:href="#DejaVuSans-116"/>
      <use x="710.847656" xlink:href="#DejaVuSans-105"/>
      <use x="738.630859" xlink:href="#DejaVuSans-115"/>
      <use x="790.730469" xlink:href="#DejaVuSans-32"/>
      <use x="822.517578" xlink:href="#DejaVuSans-40"/>
      <use x="861.53125" xlink:href="#DejaVuSans-52"/>
      <use x="925.154297" xlink:href="#DejaVuSans-56"/>
      <use x="988.777344" xlink:href="#DejaVuSans-53"/>
      <use x="1052.400391" xlink:href="#DejaVuSans-41"/>
     </g>
    </g>
   </g>
  </g>
 </g>
 <defs>
  <clipPath id="pb47bae80b0">
   <rect height="266.112" width="357.12" x="57.6" y="41.472"/>
  </clipPath>
 </defs>
</svg>
