<?xml version="1.0" encoding="utf-8" standalone="no"?>
<!DOCTYPE svg PUBLIC "-//W3C//DTD SVG 1.1//EN"
  "http://www.w3.org/Graphics/SVG/1.1/DTD/svg11.dtd">
<!-- Created with matplotlib (https://matplotlib.org/) -->
<svg height="345.6pt" version="1.1" viewBox="0 0 460.8 345.6" width="460.8pt" xmlns="http://www.w3.org/2000/svg" xmlns:xlink="http://www.w3.org/1999/xlink">
 <defs>
  <style type="text/css">
*{stroke-linecap:butt;stroke-linejoin:round;}
  </style>
 </defs>
 <g id="figure_1">
  <g id="patch_1">
   <path d="M 0 345.6 
L 460.8 345.6 
L 460.8 0 
L 0 0 
z
" style="fill:#ffffff;"/>
  </g>
  <g id="axes_1">
   <g id="patch_2">
    <path d="M 57.6 307.584 
L 414.72 307.584 
L 414.72 41.472 
L 57.6 41.472 
z
" style="fill:#ffffff;"/>
   </g>
   <g id="PolyCollection_1">
    <defs>
     <path d="M 73.832727 -169.462448 
L 73.832727 -172.681552 
L 77.112066 -174.367806 
L 80.391405 -177.368301 
L 83.670744 -182.311067 
L 86.950083 -189.844647 
L 90.229421 -200.452563 
L 93.50876 -214.211511 
L 96.788099 -230.5656 
L 100.067438 -248.220042 
L 103.346777 -265.247309 
L 106.626116 -279.432938 
L 109.905455 -288.784075 
L 113.184793 -292.032 
L 116.464132 -288.939377 
L 119.743471 -280.298738 
L 123.02281 -267.644624 
L 126.302149 -252.818551 
L 129.581488 -237.557891 
L 132.860826 -223.223304 
L 136.140165 -210.688986 
L 139.419504 -200.357598 
L 142.698843 -192.248412 
L 145.978182 -186.120872 
L 149.257521 -181.606771 
L 152.53686 -178.325085 
L 155.816198 -175.956466 
L 159.095537 -174.268892 
L 162.374876 -173.105586 
L 165.654215 -172.35746 
L 168.933554 -171.938853 
L 172.212893 -171.773699 
L 175.492231 -171.789766 
L 178.77157 -171.916724 
L 182.050909 -172.087019 
L 185.330248 -172.241159 
L 188.609587 -172.337803 
L 191.888926 -172.36506 
L 195.168264 -172.346464 
L 198.447603 -172.336016 
L 201.726942 -172.401132 
L 205.006281 -172.597752 
L 208.28562 -172.945671 
L 211.564959 -173.413164 
L 214.844298 -173.918126 
L 218.123636 -174.348088 
L 221.402975 -174.594137 
L 224.682314 -174.586661 
L 227.961653 -174.318232 
L 231.240992 -173.843732 
L 234.520331 -173.258406 
L 237.799669 -172.664785 
L 241.079008 -172.143282 
L 244.358347 -171.737044 
L 247.637686 -171.452955 
L 250.917025 -171.273301 
L 254.196364 -171.170092 
L 257.475702 -171.116066 
L 260.755041 -171.090244 
L 264.03438 -171.078959 
L 267.313719 -171.074445 
L 270.593058 -171.072791 
L 273.872397 -171.072236 
L 277.151736 -171.072065 
L 280.431074 -171.072016 
L 283.710413 -171.072004 
L 286.989752 -171.072001 
L 290.269091 -171.072 
L 293.54843 -171.072 
L 296.827769 -171.072 
L 300.107107 -171.072 
L 303.386446 -171.072 
L 306.665785 -171.072 
L 309.945124 -171.072 
L 313.224463 -171.072 
L 316.503802 -171.072001 
L 319.78314 -171.072004 
L 323.062479 -171.072017 
L 326.341818 -171.072065 
L 329.621157 -171.072229 
L 332.900496 -171.072737 
L 336.179835 -171.074178 
L 339.459174 -171.07791 
L 342.738512 -171.08672 
L 346.017851 -171.105658 
L 349.29719 -171.142646 
L 352.576529 -171.208119 
L 355.855868 -171.31276 
L 359.135207 -171.462914 
L 362.414545 -171.654654 
L 365.693884 -171.869209 
L 368.973223 -172.073304 
L 372.252562 -172.226494 
L 375.531901 -172.29394 
L 378.81124 -172.259244 
L 382.090579 -172.130918 
L 385.369917 -171.938996 
L 388.649256 -171.723634 
L 391.928595 -171.521596 
L 395.207934 -171.356757 
L 398.487273 -171.237561 
L 398.487273 -170.906439 
L 398.487273 -170.906439 
L 395.207934 -170.787243 
L 391.928595 -170.622404 
L 388.649256 -170.420366 
L 385.369917 -170.205004 
L 382.090579 -170.013082 
L 378.81124 -169.884756 
L 375.531901 -169.85006 
L 372.252562 -169.917506 
L 368.973223 -170.070696 
L 365.693884 -170.274791 
L 362.414545 -170.489346 
L 359.135207 -170.681086 
L 355.855868 -170.83124 
L 352.576529 -170.935881 
L 349.29719 -171.001354 
L 346.017851 -171.038342 
L 342.738512 -171.05728 
L 339.459174 -171.06609 
L 336.179835 -171.069822 
L 332.900496 -171.071263 
L 329.621157 -171.071771 
L 326.341818 -171.071935 
L 323.062479 -171.071983 
L 319.78314 -171.071996 
L 316.503802 -171.071999 
L 313.224463 -171.072 
L 309.945124 -171.072 
L 306.665785 -171.072 
L 303.386446 -171.072 
L 300.107107 -171.072 
L 296.827769 -171.072 
L 293.54843 -171.072 
L 290.269091 -171.072 
L 286.989752 -171.071999 
L 283.710413 -171.071996 
L 280.431074 -171.071984 
L 277.151736 -171.071935 
L 273.872397 -171.071764 
L 270.593058 -171.071209 
L 267.313719 -171.069555 
L 264.03438 -171.065041 
L 260.755041 -171.053756 
L 257.475702 -171.027934 
L 254.196364 -170.973908 
L 250.917025 -170.870699 
L 247.637686 -170.691045 
L 244.358347 -170.406956 
L 241.079008 -170.000718 
L 237.799669 -169.479215 
L 234.520331 -168.885594 
L 231.240992 -168.300268 
L 227.961653 -167.825768 
L 224.682314 -167.557339 
L 221.402975 -167.549863 
L 218.123636 -167.795912 
L 214.844298 -168.225874 
L 211.564959 -168.730836 
L 208.28562 -169.198329 
L 205.006281 -169.546248 
L 201.726942 -169.742868 
L 198.447603 -169.807984 
L 195.168264 -169.797536 
L 191.888926 -169.77894 
L 188.609587 -169.806197 
L 185.330248 -169.902841 
L 182.050909 -170.056981 
L 178.77157 -170.227276 
L 175.492231 -170.354234 
L 172.212893 -170.370301 
L 168.933554 -170.205147 
L 165.654215 -169.78654 
L 162.374876 -169.038414 
L 159.095537 -167.875108 
L 155.816198 -166.187534 
L 152.53686 -163.818915 
L 149.257521 -160.537229 
L 145.978182 -156.023128 
L 142.698843 -149.895588 
L 139.419504 -141.786402 
L 136.140165 -131.455014 
L 132.860826 -118.920696 
L 129.581488 -104.586109 
L 126.302149 -89.325449 
L 123.02281 -74.499376 
L 119.743471 -61.845262 
L 116.464132 -53.204623 
L 113.184793 -50.112 
L 109.905455 -53.359925 
L 106.626116 -62.711062 
L 103.346777 -76.896691 
L 100.067438 -93.923958 
L 96.788099 -111.5784 
L 93.50876 -127.932489 
L 90.229421 -141.691437 
L 86.950083 -152.299353 
L 83.670744 -159.832933 
L 80.391405 -164.775699 
L 77.112066 -167.776194 
L 73.832727 -169.462448 
z
" id="mecae95193a" style="stroke:#4c4c4c;stroke-opacity:0.5;stroke-width:1.5;"/>
    </defs>
    <g clip-path="url(#p8339755178)">
     <use style="fill:#df9c20;fill-opacity:0.5;stroke:#4c4c4c;stroke-opacity:0.5;stroke-width:1.5;" x="0" xlink:href="#mecae95193a" y="345.6"/>
    </g>
   </g>
   <g id="PolyCollection_2">
    <defs>
     <path d="M 76.212637 -170.976731 
L 76.212637 -171.167269 
L 77.748045 -171.257517 
L 79.283452 -171.400183 
L 80.81886 -171.608069 
L 82.354267 -171.899578 
L 83.889674 -172.314057 
L 85.425082 -172.932874 
L 86.960489 -173.901395 
L 88.495897 -175.452488 
L 90.031304 -177.931176 
L 91.566712 -181.795266 
L 93.102119 -187.536467 
L 94.637526 -195.492483 
L 96.172934 -205.632202 
L 97.708341 -217.495397 
L 99.243749 -230.389663 
L 100.779156 -243.688211 
L 102.314564 -256.908039 
L 103.849971 -269.451549 
L 105.385378 -280.315679 
L 106.920786 -288.199302 
L 108.456193 -292.032 
L 109.991601 -291.447157 
L 111.527008 -286.762686 
L 113.062416 -278.594107 
L 114.597823 -267.606237 
L 116.13323 -254.637313 
L 117.668638 -240.884128 
L 119.204045 -227.735179 
L 120.739453 -216.28636 
L 122.27486 -206.975105 
L 123.810268 -199.644404 
L 125.345675 -193.905332 
L 126.881082 -189.440831 
L 128.41649 -186.064435 
L 129.951897 -183.626982 
L 131.487305 -181.944195 
L 133.022712 -180.805008 
L 134.55812 -180.011704 
L 136.093527 -179.402595 
L 137.628934 -178.858218 
L 139.164342 -178.308936 
L 140.699749 -177.740965 
L 142.235157 -177.184271 
L 143.770564 -176.680084 
L 145.305972 -176.247779 
L 146.841379 -175.874253 
L 148.376786 -175.530363 
L 149.912194 -175.196749 
L 151.447601 -174.8756 
L 152.983009 -174.580325 
L 154.518416 -174.31638 
L 156.053824 -174.072968 
L 157.589231 -173.832555 
L 159.124638 -173.588473 
L 160.660046 -173.356585 
L 162.195453 -173.174486 
L 163.730861 -173.088735 
L 165.266268 -173.132552 
L 166.801676 -173.299873 
L 168.337083 -173.529818 
L 169.87249 -173.718224 
L 171.407898 -173.758673 
L 172.943305 -173.592108 
L 174.478713 -173.233962 
L 176.01412 -172.762908 
L 177.549528 -172.282292 
L 179.084935 -171.880183 
L 180.620342 -171.607459 
L 182.15575 -171.476015 
L 183.691157 -171.467257 
L 185.226565 -171.541482 
L 186.761972 -171.646385 
L 188.29738 -171.728378 
L 189.832787 -171.74776 
L 191.368194 -171.691739 
L 192.903602 -171.576579 
L 194.439009 -171.436346 
L 195.974417 -171.305255 
L 197.509824 -171.204389 
L 199.045232 -171.138626 
L 200.580639 -171.101791 
L 202.116046 -171.084083 
L 203.651454 -171.07734 
L 205.186861 -171.077231 
L 206.722269 -171.083677 
L 208.257676 -171.100855 
L 209.793083 -171.136806 
L 211.328491 -171.201343 
L 212.863898 -171.300903 
L 214.399306 -171.431124 
L 215.934713 -171.571475 
L 217.470121 -171.687826 
L 219.005528 -171.745097 
L 220.540935 -171.724187 
L 222.076343 -171.632198 
L 223.61175 -171.498566 
L 225.147158 -171.359943 
L 226.682565 -171.244306 
L 228.217973 -171.163405 
L 228.217973 -170.980595 
L 228.217973 -170.980595 
L 226.682565 -170.899694 
L 225.147158 -170.784057 
L 223.61175 -170.645434 
L 222.076343 -170.511802 
L 220.540935 -170.419813 
L 219.005528 -170.398903 
L 217.470121 -170.456174 
L 215.934713 -170.572525 
L 214.399306 -170.712876 
L 212.863898 -170.843097 
L 211.328491 -170.942657 
L 209.793083 -171.007194 
L 208.257676 -171.043145 
L 206.722269 -171.060323 
L 205.186861 -171.066769 
L 203.651454 -171.06666 
L 202.116046 -171.059917 
L 200.580639 -171.042209 
L 199.045232 -171.005374 
L 197.509824 -170.939611 
L 195.974417 -170.838745 
L 194.439009 -170.707654 
L 192.903602 -170.567421 
L 191.368194 -170.452261 
L 189.832787 -170.39624 
L 188.29738 -170.415622 
L 186.761972 -170.497615 
L 185.226565 -170.602518 
L 183.691157 -170.676743 
L 182.15575 -170.667985 
L 180.620342 -170.536541 
L 179.084935 -170.263817 
L 177.549528 -169.861708 
L 176.01412 -169.381092 
L 174.478713 -168.910038 
L 172.943305 -168.551892 
L 171.407898 -168.385327 
L 169.87249 -168.425776 
L 168.337083 -168.614182 
L 166.801676 -168.844127 
L 165.266268 -169.011448 
L 163.730861 -169.055265 
L 162.195453 -168.969514 
L 160.660046 -168.787415 
L 159.124638 -168.555527 
L 157.589231 -168.311445 
L 156.053824 -168.071032 
L 154.518416 -167.82762 
L 152.983009 -167.563675 
L 151.447601 -167.2684 
L 149.912194 -166.947251 
L 148.376786 -166.613637 
L 146.841379 -166.269747 
L 145.305972 -165.896221 
L 143.770564 -165.463916 
L 142.235157 -164.959729 
L 140.699749 -164.403035 
L 139.164342 -163.835064 
L 137.628934 -163.285782 
L 136.093527 -162.741405 
L 134.55812 -162.132296 
L 133.022712 -161.338992 
L 131.487305 -160.199805 
L 129.951897 -158.517018 
L 128.41649 -156.079565 
L 126.881082 -152.703169 
L 125.345675 -148.238668 
L 123.810268 -142.499596 
L 122.27486 -135.168895 
L 120.739453 -125.85764 
L 119.204045 -114.408821 
L 117.668638 -101.259872 
L 116.13323 -87.506687 
L 114.597823 -74.537763 
L 113.062416 -63.549893 
L 111.527008 -55.381314 
L 109.991601 -50.696843 
L 108.456193 -50.112 
L 106.920786 -53.944698 
L 105.385378 -61.828321 
L 103.849971 -72.692451 
L 102.314564 -85.235961 
L 100.779156 -98.455789 
L 99.243749 -111.754337 
L 97.708341 -124.648603 
L 96.172934 -136.511798 
L 94.637526 -146.651517 
L 93.102119 -154.607533 
L 91.566712 -160.348734 
L 90.031304 -164.212824 
L 88.495897 -166.691512 
L 86.960489 -168.242605 
L 85.425082 -169.211126 
L 83.889674 -169.829943 
L 82.354267 -170.244422 
L 80.81886 -170.535931 
L 79.283452 -170.743817 
L 77.748045 -170.886483 
L 76.212637 -170.976731 
z
" id="maf17cc6762" style="stroke:#262626;stroke-opacity:0.5;stroke-width:1.5;"/>
    </defs>
    <g clip-path="url(#p8339755178)">
     <use style="fill:#107010;fill-opacity:0.5;stroke:#262626;stroke-opacity:0.5;stroke-width:1.5;" x="0" xlink:href="#maf17cc6762" y="345.6"/>
    </g>
   </g>
   <g id="matplotlib.axis_1">
    <g id="xtick_1">
     <g id="line2d_1">
      <defs>
       <path d="M 0 0 
L 0 3.5 
" id="ma5c77b123e" style="stroke:#000000;stroke-width:0.8;"/>
      </defs>
      <g>
       <use style="stroke:#000000;stroke-width:0.8;" x="114.906552" xlink:href="#ma5c77b123e" y="307.584"/>
      </g>
     </g>
     <g id="text_1">
      <!-- 20 -->
      <defs>
       <path d="M 19.1875 8.296875 
L 53.609375 8.296875 
L 53.609375 0 
L 7.328125 0 
L 7.328125 8.296875 
Q 12.9375 14.109375 22.625 23.890625 
Q 32.328125 33.6875 34.8125 36.53125 
Q 39.546875 41.84375 41.421875 45.53125 
Q 43.3125 49.21875 43.3125 52.78125 
Q 43.3125 58.59375 39.234375 62.25 
Q 35.15625 65.921875 28.609375 65.921875 
Q 23.96875 65.921875 18.8125 64.3125 
Q 13.671875 62.703125 7.8125 59.421875 
L 7.8125 69.390625 
Q 13.765625 71.78125 18.9375 73 
Q 24.125 74.21875 28.421875 74.21875 
Q 39.75 74.21875 46.484375 68.546875 
Q 53.21875 62.890625 53.21875 53.421875 
Q 53.21875 48.921875 51.53125 44.890625 
Q 49.859375 40.875 45.40625 35.40625 
Q 44.1875 33.984375 37.640625 27.21875 
Q 31.109375 20.453125 19.1875 8.296875 
z
" id="DejaVuSans-50"/>
       <path d="M 31.78125 66.40625 
Q 24.171875 66.40625 20.328125 58.90625 
Q 16.5 51.421875 16.5 36.375 
Q 16.5 21.390625 20.328125 13.890625 
Q 24.171875 6.390625 31.78125 6.390625 
Q 39.453125 6.390625 43.28125 13.890625 
Q 47.125 21.390625 47.125 36.375 
Q 47.125 51.421875 43.28125 58.90625 
Q 39.453125 66.40625 31.78125 66.40625 
z
M 31.78125 74.21875 
Q 44.046875 74.21875 50.515625 64.515625 
Q 56.984375 54.828125 56.984375 36.375 
Q 56.984375 17.96875 50.515625 8.265625 
Q 44.046875 -1.421875 31.78125 -1.421875 
Q 19.53125 -1.421875 13.0625 8.265625 
Q 6.59375 17.96875 6.59375 36.375 
Q 6.59375 54.828125 13.0625 64.515625 
Q 19.53125 74.21875 31.78125 74.21875 
z
" id="DejaVuSans-48"/>
      </defs>
      <g transform="translate(108.544052 322.182437)scale(0.1 -0.1)">
       <use xlink:href="#DejaVuSans-50"/>
       <use x="63.623047" xlink:href="#DejaVuSans-48"/>
      </g>
     </g>
    </g>
    <g id="xtick_2">
     <g id="line2d_2">
      <g>
       <use style="stroke:#000000;stroke-width:0.8;" x="189.524058" xlink:href="#ma5c77b123e" y="307.584"/>
      </g>
     </g>
     <g id="text_2">
      <!-- 40 -->
      <defs>
       <path d="M 37.796875 64.3125 
L 12.890625 25.390625 
L 37.796875 25.390625 
z
M 35.203125 72.90625 
L 47.609375 72.90625 
L 47.609375 25.390625 
L 58.015625 25.390625 
L 58.015625 17.1875 
L 47.609375 17.1875 
L 47.609375 0 
L 37.796875 0 
L 37.796875 17.1875 
L 4.890625 17.1875 
L 4.890625 26.703125 
z
" id="DejaVuSans-52"/>
      </defs>
      <g transform="translate(183.161558 322.182437)scale(0.1 -0.1)">
       <use xlink:href="#DejaVuSans-52"/>
       <use x="63.623047" xlink:href="#DejaVuSans-48"/>
      </g>
     </g>
    </g>
    <g id="xtick_3">
     <g id="line2d_3">
      <g>
       <use style="stroke:#000000;stroke-width:0.8;" x="264.141565" xlink:href="#ma5c77b123e" y="307.584"/>
      </g>
     </g>
     <g id="text_3">
      <!-- 60 -->
      <defs>
       <path d="M 33.015625 40.375 
Q 26.375 40.375 22.484375 35.828125 
Q 18.609375 31.296875 18.609375 23.390625 
Q 18.609375 15.53125 22.484375 10.953125 
Q 26.375 6.390625 33.015625 6.390625 
Q 39.65625 6.390625 43.53125 10.953125 
Q 47.40625 15.53125 47.40625 23.390625 
Q 47.40625 31.296875 43.53125 35.828125 
Q 39.65625 40.375 33.015625 40.375 
z
M 52.59375 71.296875 
L 52.59375 62.3125 
Q 48.875 64.0625 45.09375 64.984375 
Q 41.3125 65.921875 37.59375 65.921875 
Q 27.828125 65.921875 22.671875 59.328125 
Q 17.53125 52.734375 16.796875 39.40625 
Q 19.671875 43.65625 24.015625 45.921875 
Q 28.375 48.1875 33.59375 48.1875 
Q 44.578125 48.1875 50.953125 41.515625 
Q 57.328125 34.859375 57.328125 23.390625 
Q 57.328125 12.15625 50.6875 5.359375 
Q 44.046875 -1.421875 33.015625 -1.421875 
Q 20.359375 -1.421875 13.671875 8.265625 
Q 6.984375 17.96875 6.984375 36.375 
Q 6.984375 53.65625 15.1875 63.9375 
Q 23.390625 74.21875 37.203125 74.21875 
Q 40.921875 74.21875 44.703125 73.484375 
Q 48.484375 72.75 52.59375 71.296875 
z
" id="DejaVuSans-54"/>
      </defs>
      <g transform="translate(257.779065 322.182437)scale(0.1 -0.1)">
       <use xlink:href="#DejaVuSans-54"/>
       <use x="63.623047" xlink:href="#DejaVuSans-48"/>
      </g>
     </g>
    </g>
    <g id="xtick_4">
     <g id="line2d_4">
      <g>
       <use style="stroke:#000000;stroke-width:0.8;" x="338.759072" xlink:href="#ma5c77b123e" y="307.584"/>
      </g>
     </g>
     <g id="text_4">
      <!-- 80 -->
      <defs>
       <path d="M 31.78125 34.625 
Q 24.75 34.625 20.71875 30.859375 
Q 16.703125 27.09375 16.703125 20.515625 
Q 16.703125 13.921875 20.71875 10.15625 
Q 24.75 6.390625 31.78125 6.390625 
Q 38.8125 6.390625 42.859375 10.171875 
Q 46.921875 13.96875 46.921875 20.515625 
Q 46.921875 27.09375 42.890625 30.859375 
Q 38.875 34.625 31.78125 34.625 
z
M 21.921875 38.8125 
Q 15.578125 40.375 12.03125 44.71875 
Q 8.5 49.078125 8.5 55.328125 
Q 8.5 64.0625 14.71875 69.140625 
Q 20.953125 74.21875 31.78125 74.21875 
Q 42.671875 74.21875 48.875 69.140625 
Q 55.078125 64.0625 55.078125 55.328125 
Q 55.078125 49.078125 51.53125 44.71875 
Q 48 40.375 41.703125 38.8125 
Q 48.828125 37.15625 52.796875 32.3125 
Q 56.78125 27.484375 56.78125 20.515625 
Q 56.78125 9.90625 50.3125 4.234375 
Q 43.84375 -1.421875 31.78125 -1.421875 
Q 19.734375 -1.421875 13.25 4.234375 
Q 6.78125 9.90625 6.78125 20.515625 
Q 6.78125 27.484375 10.78125 32.3125 
Q 14.796875 37.15625 21.921875 38.8125 
z
M 18.3125 54.390625 
Q 18.3125 48.734375 21.84375 45.5625 
Q 25.390625 42.390625 31.78125 42.390625 
Q 38.140625 42.390625 41.71875 45.5625 
Q 45.3125 48.734375 45.3125 54.390625 
Q 45.3125 60.0625 41.71875 63.234375 
Q 38.140625 66.40625 31.78125 66.40625 
Q 25.390625 66.40625 21.84375 63.234375 
Q 18.3125 60.0625 18.3125 54.390625 
z
" id="DejaVuSans-56"/>
      </defs>
      <g transform="translate(332.396572 322.182437)scale(0.1 -0.1)">
       <use xlink:href="#DejaVuSans-56"/>
       <use x="63.623047" xlink:href="#DejaVuSans-48"/>
      </g>
     </g>
    </g>
    <g id="xtick_5">
     <g id="line2d_5">
      <g>
       <use style="stroke:#000000;stroke-width:0.8;" x="413.376578" xlink:href="#ma5c77b123e" y="307.584"/>
      </g>
     </g>
     <g id="text_5">
      <!-- 100 -->
      <defs>
       <path d="M 12.40625 8.296875 
L 28.515625 8.296875 
L 28.515625 63.921875 
L 10.984375 60.40625 
L 10.984375 69.390625 
L 28.421875 72.90625 
L 38.28125 72.90625 
L 38.28125 8.296875 
L 54.390625 8.296875 
L 54.390625 0 
L 12.40625 0 
z
" id="DejaVuSans-49"/>
      </defs>
      <g transform="translate(403.832828 322.182437)scale(0.1 -0.1)">
       <use xlink:href="#DejaVuSans-49"/>
       <use x="63.623047" xlink:href="#DejaVuSans-48"/>
       <use x="127.246094" xlink:href="#DejaVuSans-48"/>
      </g>
     </g>
    </g>
    <g id="text_6">
     <!-- initial_rr -->
     <defs>
      <path d="M 9.421875 54.6875 
L 18.40625 54.6875 
L 18.40625 0 
L 9.421875 0 
z
M 9.421875 75.984375 
L 18.40625 75.984375 
L 18.40625 64.59375 
L 9.421875 64.59375 
z
" id="DejaVuSans-105"/>
      <path d="M 54.890625 33.015625 
L 54.890625 0 
L 45.90625 0 
L 45.90625 32.71875 
Q 45.90625 40.484375 42.875 44.328125 
Q 39.84375 48.1875 33.796875 48.1875 
Q 26.515625 48.1875 22.3125 43.546875 
Q 18.109375 38.921875 18.109375 30.90625 
L 18.109375 0 
L 9.078125 0 
L 9.078125 54.6875 
L 18.109375 54.6875 
L 18.109375 46.1875 
Q 21.34375 51.125 25.703125 53.5625 
Q 30.078125 56 35.796875 56 
Q 45.21875 56 50.046875 50.171875 
Q 54.890625 44.34375 54.890625 33.015625 
z
" id="DejaVuSans-110"/>
      <path d="M 18.3125 70.21875 
L 18.3125 54.6875 
L 36.8125 54.6875 
L 36.8125 47.703125 
L 18.3125 47.703125 
L 18.3125 18.015625 
Q 18.3125 11.328125 20.140625 9.421875 
Q 21.96875 7.515625 27.59375 7.515625 
L 36.8125 7.515625 
L 36.8125 0 
L 27.59375 0 
Q 17.1875 0 13.234375 3.875 
Q 9.28125 7.765625 9.28125 18.015625 
L 9.28125 47.703125 
L 2.6875 47.703125 
L 2.6875 54.6875 
L 9.28125 54.6875 
L 9.28125 70.21875 
z
" id="DejaVuSans-116"/>
      <path d="M 34.28125 27.484375 
Q 23.390625 27.484375 19.1875 25 
Q 14.984375 22.515625 14.984375 16.5 
Q 14.984375 11.71875 18.140625 8.90625 
Q 21.296875 6.109375 26.703125 6.109375 
Q 34.1875 6.109375 38.703125 11.40625 
Q 43.21875 16.703125 43.21875 25.484375 
L 43.21875 27.484375 
z
M 52.203125 31.203125 
L 52.203125 0 
L 43.21875 0 
L 43.21875 8.296875 
Q 40.140625 3.328125 35.546875 0.953125 
Q 30.953125 -1.421875 24.3125 -1.421875 
Q 15.921875 -1.421875 10.953125 3.296875 
Q 6 8.015625 6 15.921875 
Q 6 25.140625 12.171875 29.828125 
Q 18.359375 34.515625 30.609375 34.515625 
L 43.21875 34.515625 
L 43.21875 35.40625 
Q 43.21875 41.609375 39.140625 45 
Q 35.0625 48.390625 27.6875 48.390625 
Q 23 48.390625 18.546875 47.265625 
Q 14.109375 46.140625 10.015625 43.890625 
L 10.015625 52.203125 
Q 14.9375 54.109375 19.578125 55.046875 
Q 24.21875 56 28.609375 56 
Q 40.484375 56 46.34375 49.84375 
Q 52.203125 43.703125 52.203125 31.203125 
z
" id="DejaVuSans-97"/>
      <path d="M 9.421875 75.984375 
L 18.40625 75.984375 
L 18.40625 0 
L 9.421875 0 
z
" id="DejaVuSans-108"/>
      <path d="M 50.984375 -16.609375 
L 50.984375 -23.578125 
L -0.984375 -23.578125 
L -0.984375 -16.609375 
z
" id="DejaVuSans-95"/>
      <path d="M 41.109375 46.296875 
Q 39.59375 47.171875 37.8125 47.578125 
Q 36.03125 48 33.890625 48 
Q 26.265625 48 22.1875 43.046875 
Q 18.109375 38.09375 18.109375 28.8125 
L 18.109375 0 
L 9.078125 0 
L 9.078125 54.6875 
L 18.109375 54.6875 
L 18.109375 46.1875 
Q 20.953125 51.171875 25.484375 53.578125 
Q 30.03125 56 36.53125 56 
Q 37.453125 56 38.578125 55.875 
Q 39.703125 55.765625 41.0625 55.515625 
z
" id="DejaVuSans-114"/>
     </defs>
     <g transform="translate(215.887344 335.860562)scale(0.1 -0.1)">
      <use xlink:href="#DejaVuSans-105"/>
      <use x="27.783203" xlink:href="#DejaVuSans-110"/>
      <use x="91.162109" xlink:href="#DejaVuSans-105"/>
      <use x="118.945312" xlink:href="#DejaVuSans-116"/>
      <use x="158.154297" xlink:href="#DejaVuSans-105"/>
      <use x="185.9375" xlink:href="#DejaVuSans-97"/>
      <use x="247.216797" xlink:href="#DejaVuSans-108"/>
      <use x="275" xlink:href="#DejaVuSans-95"/>
      <use x="325" xlink:href="#DejaVuSans-114"/>
      <use x="364.363281" xlink:href="#DejaVuSans-114"/>
     </g>
    </g>
   </g>
   <g id="matplotlib.axis_2">
    <g id="ytick_1">
     <g id="line2d_6">
      <defs>
       <path d="M 0 0 
L -3.5 0 
" id="ma80cb550ed" style="stroke:#000000;stroke-width:0.8;"/>
      </defs>
      <g>
       <use style="stroke:#000000;stroke-width:0.8;" x="57.6" xlink:href="#ma80cb550ed" y="174.528"/>
      </g>
     </g>
    </g>
   </g>
   <g id="line2d_7">
    <path clip-path="url(#p8339755178)" d="M 96.252175 174.528 
L 144.753554 174.528 
" style="fill:none;stroke:#ffa500;stroke-linecap:square;stroke-width:1.5;"/>
   </g>
   <g id="line2d_8">
    <path clip-path="url(#p8339755178)" d="M 107.444801 174.528 
L 122.368302 174.528 
" style="fill:none;stroke:#4c4c4c;stroke-linecap:square;stroke-width:4.5;"/>
   </g>
   <g id="line2d_9">
    <path clip-path="url(#p8339755178)" d="M 96.252175 174.528 
L 126.099178 174.528 
" style="fill:none;stroke:#008000;stroke-linecap:square;stroke-width:1.5;"/>
   </g>
   <g id="line2d_10">
    <path clip-path="url(#p8339755178)" d="M 107.444801 174.528 
L 114.906552 174.528 
" style="fill:none;stroke:#262626;stroke-linecap:square;stroke-width:4.5;"/>
   </g>
   <g id="patch_3">
    <path d="M 57.6 307.584 
L 57.6 41.472 
" style="fill:none;stroke:#000000;stroke-linecap:square;stroke-linejoin:miter;stroke-width:0.8;"/>
   </g>
   <g id="patch_4">
    <path d="M 414.72 307.584 
L 414.72 41.472 
" style="fill:none;stroke:#000000;stroke-linecap:square;stroke-linejoin:miter;stroke-width:0.8;"/>
   </g>
   <g id="patch_5">
    <path d="M 57.6 307.584 
L 414.72 307.584 
" style="fill:none;stroke:#000000;stroke-linecap:square;stroke-linejoin:miter;stroke-width:0.8;"/>
   </g>
   <g id="patch_6">
    <path d="M 57.6 41.472 
L 414.72 41.472 
" style="fill:none;stroke:#000000;stroke-linecap:square;stroke-linejoin:miter;stroke-width:0.8;"/>
   </g>
   <g id="PathCollection_1">
    <defs>
     <path d="M 0 1.5 
C 0.397805 1.5 0.77937 1.341951 1.06066 1.06066 
C 1.341951 0.77937 1.5 0.397805 1.5 0 
C 1.5 -0.397805 1.341951 -0.77937 1.06066 -1.06066 
C 0.77937 -1.341951 0.397805 -1.5 0 -1.5 
C -0.397805 -1.5 -0.77937 -1.341951 -1.06066 -1.06066 
C -1.341951 -0.77937 -1.5 -0.397805 -1.5 0 
C -1.5 0.397805 -1.341951 0.77937 -1.06066 1.06066 
C -0.77937 1.341951 -0.397805 1.5 0 1.5 
z
" id="mc9e81f4c52" style="stroke:#4c4c4c;stroke-opacity:0.5;"/>
    </defs>
    <g clip-path="url(#p8339755178)">
     <use style="fill:#ffffff;fill-opacity:0.5;stroke:#4c4c4c;stroke-opacity:0.5;" x="114.906552" xlink:href="#mc9e81f4c52" y="174.528"/>
    </g>
   </g>
   <g id="PathCollection_2">
    <defs>
     <path d="M 0 1.5 
C 0.397805 1.5 0.77937 1.341951 1.06066 1.06066 
C 1.341951 0.77937 1.5 0.397805 1.5 0 
C 1.5 -0.397805 1.341951 -0.77937 1.06066 -1.06066 
C 0.77937 -1.341951 0.397805 -1.5 0 -1.5 
C -0.397805 -1.5 -0.77937 -1.341951 -1.06066 -1.06066 
C -1.341951 -0.77937 -1.5 -0.397805 -1.5 0 
C -1.5 0.397805 -1.341951 0.77937 -1.06066 1.06066 
C -0.77937 1.341951 -0.397805 1.5 0 1.5 
z
" id="m5fea2e1d5a" style="stroke:#262626;stroke-opacity:0.5;"/>
    </defs>
    <g clip-path="url(#p8339755178)">
     <use style="fill:#ffffff;fill-opacity:0.5;stroke:#262626;stroke-opacity:0.5;" x="107.444801" xlink:href="#m5fea2e1d5a" y="174.528"/>
    </g>
   </g>
   <g id="text_7">
    <!-- Association of initial_rr vs. non_rebreather_mask -->
    <defs>
     <path d="M 34.1875 63.1875 
L 20.796875 26.90625 
L 47.609375 26.90625 
z
M 28.609375 72.90625 
L 39.796875 72.90625 
L 67.578125 0 
L 57.328125 0 
L 50.6875 18.703125 
L 17.828125 18.703125 
L 11.1875 0 
L 0.78125 0 
z
" id="DejaVuSans-65"/>
     <path d="M 44.28125 53.078125 
L 44.28125 44.578125 
Q 40.484375 46.53125 36.375 47.5 
Q 32.28125 48.484375 27.875 48.484375 
Q 21.1875 48.484375 17.84375 46.4375 
Q 14.5 44.390625 14.5 40.28125 
Q 14.5 37.15625 16.890625 35.375 
Q 19.28125 33.59375 26.515625 31.984375 
L 29.59375 31.296875 
Q 39.15625 29.25 43.1875 25.515625 
Q 47.21875 21.78125 47.21875 15.09375 
Q 47.21875 7.46875 41.1875 3.015625 
Q 35.15625 -1.421875 24.609375 -1.421875 
Q 20.21875 -1.421875 15.453125 -0.5625 
Q 10.6875 0.296875 5.421875 2 
L 5.421875 11.28125 
Q 10.40625 8.6875 15.234375 7.390625 
Q 20.0625 6.109375 24.8125 6.109375 
Q 31.15625 6.109375 34.5625 8.28125 
Q 37.984375 10.453125 37.984375 14.40625 
Q 37.984375 18.0625 35.515625 20.015625 
Q 33.0625 21.96875 24.703125 23.78125 
L 21.578125 24.515625 
Q 13.234375 26.265625 9.515625 29.90625 
Q 5.8125 33.546875 5.8125 39.890625 
Q 5.8125 47.609375 11.28125 51.796875 
Q 16.75 56 26.8125 56 
Q 31.78125 56 36.171875 55.265625 
Q 40.578125 54.546875 44.28125 53.078125 
z
" id="DejaVuSans-115"/>
     <path d="M 30.609375 48.390625 
Q 23.390625 48.390625 19.1875 42.75 
Q 14.984375 37.109375 14.984375 27.296875 
Q 14.984375 17.484375 19.15625 11.84375 
Q 23.34375 6.203125 30.609375 6.203125 
Q 37.796875 6.203125 41.984375 11.859375 
Q 46.1875 17.53125 46.1875 27.296875 
Q 46.1875 37.015625 41.984375 42.703125 
Q 37.796875 48.390625 30.609375 48.390625 
z
M 30.609375 56 
Q 42.328125 56 49.015625 48.375 
Q 55.71875 40.765625 55.71875 27.296875 
Q 55.71875 13.875 49.015625 6.21875 
Q 42.328125 -1.421875 30.609375 -1.421875 
Q 18.84375 -1.421875 12.171875 6.21875 
Q 5.515625 13.875 5.515625 27.296875 
Q 5.515625 40.765625 12.171875 48.375 
Q 18.84375 56 30.609375 56 
z
" id="DejaVuSans-111"/>
     <path d="M 48.78125 52.59375 
L 48.78125 44.1875 
Q 44.96875 46.296875 41.140625 47.34375 
Q 37.3125 48.390625 33.40625 48.390625 
Q 24.65625 48.390625 19.8125 42.84375 
Q 14.984375 37.3125 14.984375 27.296875 
Q 14.984375 17.28125 19.8125 11.734375 
Q 24.65625 6.203125 33.40625 6.203125 
Q 37.3125 6.203125 41.140625 7.25 
Q 44.96875 8.296875 48.78125 10.40625 
L 48.78125 2.09375 
Q 45.015625 0.34375 40.984375 -0.53125 
Q 36.96875 -1.421875 32.421875 -1.421875 
Q 20.0625 -1.421875 12.78125 6.34375 
Q 5.515625 14.109375 5.515625 27.296875 
Q 5.515625 40.671875 12.859375 48.328125 
Q 20.21875 56 33.015625 56 
Q 37.15625 56 41.109375 55.140625 
Q 45.0625 54.296875 48.78125 52.59375 
z
" id="DejaVuSans-99"/>
     <path id="DejaVuSans-32"/>
     <path d="M 37.109375 75.984375 
L 37.109375 68.5 
L 28.515625 68.5 
Q 23.6875 68.5 21.796875 66.546875 
Q 19.921875 64.59375 19.921875 59.515625 
L 19.921875 54.6875 
L 34.71875 54.6875 
L 34.71875 47.703125 
L 19.921875 47.703125 
L 19.921875 0 
L 10.890625 0 
L 10.890625 47.703125 
L 2.296875 47.703125 
L 2.296875 54.6875 
L 10.890625 54.6875 
L 10.890625 58.5 
Q 10.890625 67.625 15.140625 71.796875 
Q 19.390625 75.984375 28.609375 75.984375 
z
" id="DejaVuSans-102"/>
     <path d="M 2.984375 54.6875 
L 12.5 54.6875 
L 29.59375 8.796875 
L 46.6875 54.6875 
L 56.203125 54.6875 
L 35.6875 0 
L 23.484375 0 
z
" id="DejaVuSans-118"/>
     <path d="M 10.6875 12.40625 
L 21 12.40625 
L 21 0 
L 10.6875 0 
z
" id="DejaVuSans-46"/>
     <path d="M 56.203125 29.59375 
L 56.203125 25.203125 
L 14.890625 25.203125 
Q 15.484375 15.921875 20.484375 11.0625 
Q 25.484375 6.203125 34.421875 6.203125 
Q 39.59375 6.203125 44.453125 7.46875 
Q 49.3125 8.734375 54.109375 11.28125 
L 54.109375 2.78125 
Q 49.265625 0.734375 44.1875 -0.34375 
Q 39.109375 -1.421875 33.890625 -1.421875 
Q 20.796875 -1.421875 13.15625 6.1875 
Q 5.515625 13.8125 5.515625 26.8125 
Q 5.515625 40.234375 12.765625 48.109375 
Q 20.015625 56 32.328125 56 
Q 43.359375 56 49.78125 48.890625 
Q 56.203125 41.796875 56.203125 29.59375 
z
M 47.21875 32.234375 
Q 47.125 39.59375 43.09375 43.984375 
Q 39.0625 48.390625 32.421875 48.390625 
Q 24.90625 48.390625 20.390625 44.140625 
Q 15.875 39.890625 15.1875 32.171875 
z
" id="DejaVuSans-101"/>
     <path d="M 48.6875 27.296875 
Q 48.6875 37.203125 44.609375 42.84375 
Q 40.53125 48.484375 33.40625 48.484375 
Q 26.265625 48.484375 22.1875 42.84375 
Q 18.109375 37.203125 18.109375 27.296875 
Q 18.109375 17.390625 22.1875 11.75 
Q 26.265625 6.109375 33.40625 6.109375 
Q 40.53125 6.109375 44.609375 11.75 
Q 48.6875 17.390625 48.6875 27.296875 
z
M 18.109375 46.390625 
Q 20.953125 51.265625 25.265625 53.625 
Q 29.59375 56 35.59375 56 
Q 45.5625 56 51.78125 48.09375 
Q 58.015625 40.1875 58.015625 27.296875 
Q 58.015625 14.40625 51.78125 6.484375 
Q 45.5625 -1.421875 35.59375 -1.421875 
Q 29.59375 -1.421875 25.265625 0.953125 
Q 20.953125 3.328125 18.109375 8.203125 
L 18.109375 0 
L 9.078125 0 
L 9.078125 75.984375 
L 18.109375 75.984375 
z
" id="DejaVuSans-98"/>
     <path d="M 54.890625 33.015625 
L 54.890625 0 
L 45.90625 0 
L 45.90625 32.71875 
Q 45.90625 40.484375 42.875 44.328125 
Q 39.84375 48.1875 33.796875 48.1875 
Q 26.515625 48.1875 22.3125 43.546875 
Q 18.109375 38.921875 18.109375 30.90625 
L 18.109375 0 
L 9.078125 0 
L 9.078125 75.984375 
L 18.109375 75.984375 
L 18.109375 46.1875 
Q 21.34375 51.125 25.703125 53.5625 
Q 30.078125 56 35.796875 56 
Q 45.21875 56 50.046875 50.171875 
Q 54.890625 44.34375 54.890625 33.015625 
z
" id="DejaVuSans-104"/>
     <path d="M 52 44.1875 
Q 55.375 50.25 60.0625 53.125 
Q 64.75 56 71.09375 56 
Q 79.640625 56 84.28125 50.015625 
Q 88.921875 44.046875 88.921875 33.015625 
L 88.921875 0 
L 79.890625 0 
L 79.890625 32.71875 
Q 79.890625 40.578125 77.09375 44.375 
Q 74.3125 48.1875 68.609375 48.1875 
Q 61.625 48.1875 57.5625 43.546875 
Q 53.515625 38.921875 53.515625 30.90625 
L 53.515625 0 
L 44.484375 0 
L 44.484375 32.71875 
Q 44.484375 40.625 41.703125 44.40625 
Q 38.921875 48.1875 33.109375 48.1875 
Q 26.21875 48.1875 22.15625 43.53125 
Q 18.109375 38.875 18.109375 30.90625 
L 18.109375 0 
L 9.078125 0 
L 9.078125 54.6875 
L 18.109375 54.6875 
L 18.109375 46.1875 
Q 21.1875 51.21875 25.484375 53.609375 
Q 29.78125 56 35.6875 56 
Q 41.65625 56 45.828125 52.96875 
Q 50 49.953125 52 44.1875 
z
" id="DejaVuSans-109"/>
     <path d="M 9.078125 75.984375 
L 18.109375 75.984375 
L 18.109375 31.109375 
L 44.921875 54.6875 
L 56.390625 54.6875 
L 27.390625 29.109375 
L 57.625 0 
L 45.90625 0 
L 18.109375 26.703125 
L 18.109375 0 
L 9.078125 0 
z
" id="DejaVuSans-107"/>
    </defs>
    <g transform="translate(90.432187 35.472)scale(0.12 -0.12)">
     <use xlink:href="#DejaVuSans-65"/>
     <use x="68.408203" xlink:href="#DejaVuSans-115"/>
     <use x="120.507812" xlink:href="#DejaVuSans-115"/>
     <use x="172.607422" xlink:href="#DejaVuSans-111"/>
     <use x="233.789062" xlink:href="#DejaVuSans-99"/>
     <use x="288.769531" xlink:href="#DejaVuSans-105"/>
     <use x="316.552734" xlink:href="#DejaVuSans-97"/>
     <use x="377.832031" xlink:href="#DejaVuSans-116"/>
     <use x="417.041016" xlink:href="#DejaVuSans-105"/>
     <use x="444.824219" xlink:href="#DejaVuSans-111"/>
     <use x="506.005859" xlink:href="#DejaVuSans-110"/>
     <use x="569.384766" xlink:href="#DejaVuSans-32"/>
     <use x="601.171875" xlink:href="#DejaVuSans-111"/>
     <use x="662.353516" xlink:href="#DejaVuSans-102"/>
     <use x="697.558594" xlink:href="#DejaVuSans-32"/>
     <use x="729.345703" xlink:href="#DejaVuSans-105"/>
     <use x="757.128906" xlink:href="#DejaVuSans-110"/>
     <use x="820.507812" xlink:href="#DejaVuSans-105"/>
     <use x="848.291016" xlink:href="#DejaVuSans-116"/>
     <use x="887.5" xlink:href="#DejaVuSans-105"/>
     <use x="915.283203" xlink:href="#DejaVuSans-97"/>
     <use x="976.5625" xlink:href="#DejaVuSans-108"/>
     <use x="1004.345703" xlink:href="#DejaVuSans-95"/>
     <use x="1054.345703" xlink:href="#DejaVuSans-114"/>
     <use x="1093.708984" xlink:href="#DejaVuSans-114"/>
     <use x="1134.822266" xlink:href="#DejaVuSans-32"/>
     <use x="1166.609375" xlink:href="#DejaVuSans-118"/>
     <use x="1225.789062" xlink:href="#DejaVuSans-115"/>
     <use x="1277.888672" xlink:href="#DejaVuSans-46"/>
     <use x="1309.675781" xlink:href="#DejaVuSans-32"/>
     <use x="1341.462891" xlink:href="#DejaVuSans-110"/>
     <use x="1404.841797" xlink:href="#DejaVuSans-111"/>
     <use x="1466.023438" xlink:href="#DejaVuSans-110"/>
     <use x="1529.402344" xlink:href="#DejaVuSans-95"/>
     <use x="1579.402344" xlink:href="#DejaVuSans-114"/>
     <use x="1618.265625" xlink:href="#DejaVuSans-101"/>
     <use x="1679.789062" xlink:href="#DejaVuSans-98"/>
     <use x="1743.265625" xlink:href="#DejaVuSans-114"/>
     <use x="1782.128906" xlink:href="#DejaVuSans-101"/>
     <use x="1843.652344" xlink:href="#DejaVuSans-97"/>
     <use x="1904.931641" xlink:href="#DejaVuSans-116"/>
     <use x="1944.140625" xlink:href="#DejaVuSans-104"/>
     <use x="2007.519531" xlink:href="#DejaVuSans-101"/>
     <use x="2069.042969" xlink:href="#DejaVuSans-114"/>
     <use x="2110.15625" xlink:href="#DejaVuSans-95"/>
     <use x="2160.15625" xlink:href="#DejaVuSans-109"/>
     <use x="2257.568359" xlink:href="#DejaVuSans-97"/>
     <use x="2318.847656" xlink:href="#DejaVuSans-115"/>
     <use x="2370.947266" xlink:href="#DejaVuSans-107"/>
    </g>
   </g>
   <g id="legend_1">
    <g id="patch_7">
     <path d="M 216.21375 79.3845 
L 407.72 79.3845 
Q 409.72 79.3845 409.72 77.3845 
L 409.72 48.472 
Q 409.72 46.472 407.72 46.472 
L 216.21375 46.472 
Q 214.21375 46.472 214.21375 48.472 
L 214.21375 77.3845 
Q 214.21375 79.3845 216.21375 79.3845 
z
" style="fill:#ffffff;opacity:0.8;stroke:#cccccc;stroke-linejoin:miter;"/>
    </g>
    <g id="line2d_11">
     <path d="M 218.21375 54.570438 
L 238.21375 54.570438 
" style="fill:none;stroke:#ffa500;stroke-linecap:square;stroke-width:1.5;"/>
    </g>
    <g id="line2d_12"/>
    <g id="text_8">
     <!-- non_rebreather_mask (134) -->
     <defs>
      <path d="M 31 75.875 
Q 24.46875 64.65625 21.28125 53.65625 
Q 18.109375 42.671875 18.109375 31.390625 
Q 18.109375 20.125 21.3125 9.0625 
Q 24.515625 -2 31 -13.1875 
L 23.1875 -13.1875 
Q 15.875 -1.703125 12.234375 9.375 
Q 8.59375 20.453125 8.59375 31.390625 
Q 8.59375 42.28125 12.203125 53.3125 
Q 15.828125 64.359375 23.1875 75.875 
z
" id="DejaVuSans-40"/>
      <path d="M 40.578125 39.3125 
Q 47.65625 37.796875 51.625 33 
Q 55.609375 28.21875 55.609375 21.1875 
Q 55.609375 10.40625 48.1875 4.484375 
Q 40.765625 -1.421875 27.09375 -1.421875 
Q 22.515625 -1.421875 17.65625 -0.515625 
Q 12.796875 0.390625 7.625 2.203125 
L 7.625 11.71875 
Q 11.71875 9.328125 16.59375 8.109375 
Q 21.484375 6.890625 26.8125 6.890625 
Q 36.078125 6.890625 40.9375 10.546875 
Q 45.796875 14.203125 45.796875 21.1875 
Q 45.796875 27.640625 41.28125 31.265625 
Q 36.765625 34.90625 28.71875 34.90625 
L 20.21875 34.90625 
L 20.21875 43.015625 
L 29.109375 43.015625 
Q 36.375 43.015625 40.234375 45.921875 
Q 44.09375 48.828125 44.09375 54.296875 
Q 44.09375 59.90625 40.109375 62.90625 
Q 36.140625 65.921875 28.71875 65.921875 
Q 24.65625 65.921875 20.015625 65.03125 
Q 15.375 64.15625 9.8125 62.3125 
L 9.8125 71.09375 
Q 15.4375 72.65625 20.34375 73.4375 
Q 25.25 74.21875 29.59375 74.21875 
Q 40.828125 74.21875 47.359375 69.109375 
Q 53.90625 64.015625 53.90625 55.328125 
Q 53.90625 49.265625 50.4375 45.09375 
Q 46.96875 40.921875 40.578125 39.3125 
z
" id="DejaVuSans-51"/>
      <path d="M 8.015625 75.875 
L 15.828125 75.875 
Q 23.140625 64.359375 26.78125 53.3125 
Q 30.421875 42.28125 30.421875 31.390625 
Q 30.421875 20.453125 26.78125 9.375 
Q 23.140625 -1.703125 15.828125 -13.1875 
L 8.015625 -13.1875 
Q 14.5 -2 17.703125 9.0625 
Q 20.90625 20.125 20.90625 31.390625 
Q 20.90625 42.671875 17.703125 53.65625 
Q 14.5 64.65625 8.015625 75.875 
z
" id="DejaVuSans-41"/>
     </defs>
     <g transform="translate(246.21375 58.070438)scale(0.1 -0.1)">
      <use xlink:href="#DejaVuSans-110"/>
      <use x="63.378906" xlink:href="#DejaVuSans-111"/>
      <use x="124.560547" xlink:href="#DejaVuSans-110"/>
      <use x="187.939453" xlink:href="#DejaVuSans-95"/>
      <use x="237.939453" xlink:href="#DejaVuSans-114"/>
      <use x="276.802734" xlink:href="#DejaVuSans-101"/>
      <use x="338.326172" xlink:href="#DejaVuSans-98"/>
      <use x="401.802734" xlink:href="#DejaVuSans-114"/>
      <use x="440.666016" xlink:href="#DejaVuSans-101"/>
      <use x="502.189453" xlink:href="#DejaVuSans-97"/>
      <use x="563.46875" xlink:href="#DejaVuSans-116"/>
      <use x="602.677734" xlink:href="#DejaVuSans-104"/>
      <use x="666.056641" xlink:href="#DejaVuSans-101"/>
      <use x="727.580078" xlink:href="#DejaVuSans-114"/>
      <use x="768.693359" xlink:href="#DejaVuSans-95"/>
      <use x="818.693359" xlink:href="#DejaVuSans-109"/>
      <use x="916.105469" xlink:href="#DejaVuSans-97"/>
      <use x="977.384766" xlink:href="#DejaVuSans-115"/>
      <use x="1029.484375" xlink:href="#DejaVuSans-107"/>
      <use x="1087.394531" xlink:href="#DejaVuSans-32"/>
      <use x="1119.181641" xlink:href="#DejaVuSans-40"/>
      <use x="1158.195312" xlink:href="#DejaVuSans-49"/>
      <use x="1221.818359" xlink:href="#DejaVuSans-51"/>
      <use x="1285.441406" xlink:href="#DejaVuSans-52"/>
      <use x="1349.064453" xlink:href="#DejaVuSans-41"/>
     </g>
    </g>
    <g id="line2d_13">
     <path d="M 218.21375 69.526688 
L 238.21375 69.526688 
" style="fill:none;stroke:#008000;stroke-linecap:square;stroke-width:1.5;"/>
    </g>
    <g id="line2d_14"/>
    <g id="text_9">
     <!-- Not non_rebreather_mask (367) -->
     <defs>
      <path d="M 9.8125 72.90625 
L 23.09375 72.90625 
L 55.421875 11.921875 
L 55.421875 72.90625 
L 64.984375 72.90625 
L 64.984375 0 
L 51.703125 0 
L 19.390625 60.984375 
L 19.390625 0 
L 9.8125 0 
z
" id="DejaVuSans-78"/>
      <path d="M 8.203125 72.90625 
L 55.078125 72.90625 
L 55.078125 68.703125 
L 28.609375 0 
L 18.3125 0 
L 43.21875 64.59375 
L 8.203125 64.59375 
z
" id="DejaVuSans-55"/>
     </defs>
     <g transform="translate(246.21375 73.026688)scale(0.1 -0.1)">
      <use xlink:href="#DejaVuSans-78"/>
      <use x="74.804688" xlink:href="#DejaVuSans-111"/>
      <use x="135.986328" xlink:href="#DejaVuSans-116"/>
      <use x="175.195312" xlink:href="#DejaVuSans-32"/>
      <use x="206.982422" xlink:href="#DejaVuSans-110"/>
      <use x="270.361328" xlink:href="#DejaVuSans-111"/>
      <use x="331.542969" xlink:href="#DejaVuSans-110"/>
      <use x="394.921875" xlink:href="#DejaVuSans-95"/>
      <use x="444.921875" xlink:href="#DejaVuSans-114"/>
      <use x="483.785156" xlink:href="#DejaVuSans-101"/>
      <use x="545.308594" xlink:href="#DejaVuSans-98"/>
      <use x="608.785156" xlink:href="#DejaVuSans-114"/>
      <use x="647.648438" xlink:href="#DejaVuSans-101"/>
      <use x="709.171875" xlink:href="#DejaVuSans-97"/>
      <use x="770.451172" xlink:href="#DejaVuSans-116"/>
      <use x="809.660156" xlink:href="#DejaVuSans-104"/>
      <use x="873.039062" xlink:href="#DejaVuSans-101"/>
      <use x="934.5625" xlink:href="#DejaVuSans-114"/>
      <use x="975.675781" xlink:href="#DejaVuSans-95"/>
      <use x="1025.675781" xlink:href="#DejaVuSans-109"/>
      <use x="1123.087891" xlink:href="#DejaVuSans-97"/>
      <use x="1184.367188" xlink:href="#DejaVuSans-115"/>
      <use x="1236.466797" xlink:href="#DejaVuSans-107"/>
      <use x="1294.376953" xlink:href="#DejaVuSans-32"/>
      <use x="1326.164062" xlink:href="#DejaVuSans-40"/>
      <use x="1365.177734" xlink:href="#DejaVuSans-51"/>
      <use x="1428.800781" xlink:href="#DejaVuSans-54"/>
      <use x="1492.423828" xlink:href="#DejaVuSans-55"/>
      <use x="1556.046875" xlink:href="#DejaVuSans-41"/>
     </g>
    </g>
   </g>
  </g>
 </g>
 <defs>
  <clipPath id="p8339755178">
   <rect height="266.112" width="357.12" x="57.6" y="41.472"/>
  </clipPath>
 </defs>
</svg>
