<?xml version="1.0" encoding="utf-8" standalone="no"?>
<!DOCTYPE svg PUBLIC "-//W3C//DTD SVG 1.1//EN"
  "http://www.w3.org/Graphics/SVG/1.1/DTD/svg11.dtd">
<!-- Created with matplotlib (https://matplotlib.org/) -->
<svg height="345.6pt" version="1.1" viewBox="0 0 460.8 345.6" width="460.8pt" xmlns="http://www.w3.org/2000/svg" xmlns:xlink="http://www.w3.org/1999/xlink">
 <defs>
  <style type="text/css">
*{stroke-linecap:butt;stroke-linejoin:round;}
  </style>
 </defs>
 <g id="figure_1">
  <g id="patch_1">
   <path d="M 0 345.6 
L 460.8 345.6 
L 460.8 0 
L 0 0 
z
" style="fill:#ffffff;"/>
  </g>
  <g id="axes_1">
   <g id="patch_2">
    <path d="M 57.6 307.584 
L 414.72 307.584 
L 414.72 41.472 
L 57.6 41.472 
z
" style="fill:#ffffff;"/>
   </g>
   <g id="PolyCollection_1">
    <defs>
     <path d="M 73.832727 -170.880771 
L 73.832727 -171.263229 
L 77.112066 -171.383196 
L 80.391405 -171.559676 
L 83.670744 -171.812591 
L 86.950083 -172.170215 
L 90.229421 -172.675485 
L 93.50876 -173.395013 
L 96.788099 -174.429302 
L 100.067438 -175.920974 
L 103.346777 -178.056543 
L 106.626116 -181.057349 
L 109.905455 -185.157174 
L 113.184793 -190.567599 
L 116.464132 -197.436127 
L 119.743471 -205.80499 
L 123.02281 -215.579089 
L 126.302149 -226.509587 
L 129.581488 -238.196258 
L 132.860826 -250.10849 
L 136.140165 -261.622816 
L 139.419504 -272.074156 
L 142.698843 -280.817397 
L 145.978182 -287.294515 
L 149.257521 -291.099702 
L 152.53686 -292.032 
L 155.816198 -290.123645 
L 159.095537 -285.63473 
L 162.374876 -279.011496 
L 165.654215 -270.815161 
L 168.933554 -261.637139 
L 172.212893 -252.020885 
L 175.492231 -242.408078 
L 178.77157 -233.118167 
L 182.050909 -224.359051 
L 185.330248 -216.2574 
L 188.609587 -208.893095 
L 191.888926 -202.324387 
L 195.168264 -196.596882 
L 198.447603 -191.737432 
L 201.726942 -187.74035 
L 205.006281 -184.555819 
L 208.28562 -182.088438 
L 211.564959 -180.208694 
L 214.844298 -178.774235 
L 218.123636 -177.653762 
L 221.402975 -176.745704 
L 224.682314 -175.986554 
L 227.961653 -175.348161 
L 231.240992 -174.827229 
L 234.520331 -174.432213 
L 237.799669 -174.172101 
L 241.079008 -174.049304 
L 244.358347 -174.056384 
L 247.637686 -174.174999 
L 250.917025 -174.375732 
L 254.196364 -174.618748 
L 257.475702 -174.856374 
L 260.755041 -175.038771 
L 264.03438 -175.122533 
L 267.313719 -175.080221 
L 270.593058 -174.907507 
L 273.872397 -174.62484 
L 277.151736 -174.272278 
L 280.431074 -173.898774 
L 283.710413 -173.549296 
L 286.989752 -173.254014 
L 290.269091 -173.022844 
L 293.54843 -172.846615 
L 296.827769 -172.703704 
L 300.107107 -172.569305 
L 303.386446 -172.423997 
L 306.665785 -172.259055 
L 309.945124 -172.077509 
L 313.224463 -171.891638 
L 316.503802 -171.718655 
L 319.78314 -171.576545 
L 323.062479 -171.481379 
L 326.341818 -171.446421 
L 329.621157 -171.482357 
L 332.900496 -171.597543 
L 336.179835 -171.797281 
L 339.459174 -172.081722 
L 342.738512 -172.442871 
L 346.017851 -172.861831 
L 349.29719 -173.307728 
L 352.576529 -173.739468 
L 355.855868 -174.110677 
L 359.135207 -174.377097 
L 362.414545 -174.504755 
L 365.693884 -174.476754 
L 368.973223 -174.296768 
L 372.252562 -173.988224 
L 375.531901 -173.589376 
L 378.81124 -173.145646 
L 382.090579 -172.701304 
L 385.369917 -172.292524 
L 388.649256 -171.943258 
L 391.928595 -171.664343 
L 395.207934 -171.455348 
L 398.487273 -171.308037 
L 398.487273 -170.835963 
L 398.487273 -170.835963 
L 395.207934 -170.688652 
L 391.928595 -170.479657 
L 388.649256 -170.200742 
L 385.369917 -169.851476 
L 382.090579 -169.442696 
L 378.81124 -168.998354 
L 375.531901 -168.554624 
L 372.252562 -168.155776 
L 368.973223 -167.847232 
L 365.693884 -167.667246 
L 362.414545 -167.639245 
L 359.135207 -167.766903 
L 355.855868 -168.033323 
L 352.576529 -168.404532 
L 349.29719 -168.836272 
L 346.017851 -169.282169 
L 342.738512 -169.701129 
L 339.459174 -170.062278 
L 336.179835 -170.346719 
L 332.900496 -170.546457 
L 329.621157 -170.661643 
L 326.341818 -170.697579 
L 323.062479 -170.662621 
L 319.78314 -170.567455 
L 316.503802 -170.425345 
L 313.224463 -170.252362 
L 309.945124 -170.066491 
L 306.665785 -169.884945 
L 303.386446 -169.720003 
L 300.107107 -169.574695 
L 296.827769 -169.440296 
L 293.54843 -169.297385 
L 290.269091 -169.121156 
L 286.989752 -168.889986 
L 283.710413 -168.594704 
L 280.431074 -168.245226 
L 277.151736 -167.871722 
L 273.872397 -167.51916 
L 270.593058 -167.236493 
L 267.313719 -167.063779 
L 264.03438 -167.021467 
L 260.755041 -167.105229 
L 257.475702 -167.287626 
L 254.196364 -167.525252 
L 250.917025 -167.768268 
L 247.637686 -167.969001 
L 244.358347 -168.087616 
L 241.079008 -168.094696 
L 237.799669 -167.971899 
L 234.520331 -167.711787 
L 231.240992 -167.316771 
L 227.961653 -166.795839 
L 224.682314 -166.157446 
L 221.402975 -165.398296 
L 218.123636 -164.490238 
L 214.844298 -163.369765 
L 211.564959 -161.935306 
L 208.28562 -160.055562 
L 205.006281 -157.588181 
L 201.726942 -154.40365 
L 198.447603 -150.406568 
L 195.168264 -145.547118 
L 191.888926 -139.819613 
L 188.609587 -133.250905 
L 185.330248 -125.8866 
L 182.050909 -117.784949 
L 178.77157 -109.025833 
L 175.492231 -99.735922 
L 172.212893 -90.123115 
L 168.933554 -80.506861 
L 165.654215 -71.328839 
L 162.374876 -63.132504 
L 159.095537 -56.50927 
L 155.816198 -52.020355 
L 152.53686 -50.112 
L 149.257521 -51.044298 
L 145.978182 -54.849485 
L 142.698843 -61.326603 
L 139.419504 -70.069844 
L 136.140165 -80.521184 
L 132.860826 -92.03551 
L 129.581488 -103.947742 
L 126.302149 -115.634413 
L 123.02281 -126.564911 
L 119.743471 -136.33901 
L 116.464132 -144.707873 
L 113.184793 -151.576401 
L 109.905455 -156.986826 
L 106.626116 -161.086651 
L 103.346777 -164.087457 
L 100.067438 -166.223026 
L 96.788099 -167.714698 
L 93.50876 -168.748987 
L 90.229421 -169.468515 
L 86.950083 -169.973785 
L 83.670744 -170.331409 
L 80.391405 -170.584324 
L 77.112066 -170.760804 
L 73.832727 -170.880771 
z
" id="m58b8a6ea4c" style="stroke:#4c4c4c;stroke-opacity:0.5;stroke-width:1.5;"/>
    </defs>
    <g clip-path="url(#p0f604fc22c)">
     <use style="fill:#df9c20;fill-opacity:0.5;stroke:#4c4c4c;stroke-opacity:0.5;stroke-width:1.5;" x="0" xlink:href="#m58b8a6ea4c" y="345.6"/>
    </g>
   </g>
   <g id="PolyCollection_2">
    <defs>
     <path d="M 99.919165 -170.58497 
L 99.919165 -171.55903 
L 102.671505 -172.063101 
L 105.423845 -172.936832 
L 108.176185 -174.366155 
L 110.928525 -176.617265 
L 113.680865 -180.05713 
L 116.433205 -185.109042 
L 119.185546 -192.096046 
L 121.937886 -201.022065 
L 124.690226 -211.465687 
L 127.442566 -222.752279 
L 130.194906 -234.336809 
L 132.947246 -246.053076 
L 135.699586 -257.914413 
L 138.451926 -269.58136 
L 141.204266 -280.033129 
L 143.956607 -287.860444 
L 146.708947 -291.96934 
L 149.461287 -292.032 
L 152.213627 -288.300524 
L 154.965967 -281.115594 
L 157.718307 -270.748402 
L 160.470647 -257.749273 
L 163.222987 -243.316173 
L 165.975327 -229.1349 
L 168.727667 -216.726088 
L 171.480008 -206.856437 
L 174.232348 -199.469453 
L 176.984688 -194.06369 
L 179.737028 -190.107143 
L 182.489368 -187.204372 
L 185.241708 -185.059804 
L 187.994048 -183.424569 
L 190.746388 -182.110798 
L 193.498728 -181.018727 
L 196.251068 -180.114286 
L 199.003409 -179.375428 
L 201.755749 -178.764871 
L 204.508089 -178.245976 
L 207.260429 -177.805599 
L 210.012769 -177.447973 
L 212.765109 -177.165062 
L 215.517449 -176.916875 
L 218.269789 -176.6433 
L 221.022129 -176.297355 
L 223.77447 -175.871427 
L 226.52681 -175.396016 
L 229.27915 -174.914092 
L 232.03149 -174.453379 
L 234.78383 -174.018547 
L 237.53617 -173.605764 
L 240.28851 -173.22147 
L 243.04085 -172.885622 
L 245.79319 -172.618037 
L 248.54553 -172.423978 
L 251.297871 -172.293037 
L 254.050211 -172.208498 
L 256.802551 -172.153954 
L 259.554891 -172.111239 
L 262.307231 -172.057197 
L 265.059571 -171.968974 
L 267.811911 -171.836409 
L 270.564251 -171.670219 
L 273.316591 -171.497761 
L 276.068932 -171.34978 
L 278.821272 -171.248713 
L 281.573612 -171.205522 
L 284.325952 -171.223143 
L 287.078292 -171.29945 
L 289.830632 -171.424986 
L 292.582972 -171.577513 
L 295.335312 -171.720709 
L 298.087652 -171.812959 
L 300.839992 -171.824182 
L 303.592333 -171.750414 
L 306.344673 -171.6156 
L 309.097013 -171.458963 
L 311.849353 -171.316717 
L 314.601693 -171.209488 
L 317.354033 -171.140628 
L 320.106373 -171.102454 
L 322.858713 -171.084102 
L 325.611053 -171.076656 
L 328.363393 -171.074939 
L 331.115734 -171.077504 
L 333.868074 -171.086467 
L 336.620414 -171.107727 
L 339.372754 -171.150783 
L 342.125094 -171.226406 
L 344.877434 -171.340854 
L 347.629774 -171.487887 
L 350.382114 -171.643528 
L 353.134454 -171.769756 
L 355.886795 -171.828786 
L 358.639135 -171.801201 
L 361.391475 -171.696202 
L 364.143815 -171.546686 
L 366.896155 -171.392695 
L 369.648495 -171.264478 
L 372.400835 -171.17463 
L 372.400835 -170.96937 
L 372.400835 -170.96937 
L 369.648495 -170.879522 
L 366.896155 -170.751305 
L 364.143815 -170.597314 
L 361.391475 -170.447798 
L 358.639135 -170.342799 
L 355.886795 -170.315214 
L 353.134454 -170.374244 
L 350.382114 -170.500472 
L 347.629774 -170.656113 
L 344.877434 -170.803146 
L 342.125094 -170.917594 
L 339.372754 -170.993217 
L 336.620414 -171.036273 
L 333.868074 -171.057533 
L 331.115734 -171.066496 
L 328.363393 -171.069061 
L 325.611053 -171.067344 
L 322.858713 -171.059898 
L 320.106373 -171.041546 
L 317.354033 -171.003372 
L 314.601693 -170.934512 
L 311.849353 -170.827283 
L 309.097013 -170.685037 
L 306.344673 -170.5284 
L 303.592333 -170.393586 
L 300.839992 -170.319818 
L 298.087652 -170.331041 
L 295.335312 -170.423291 
L 292.582972 -170.566487 
L 289.830632 -170.719014 
L 287.078292 -170.84455 
L 284.325952 -170.920857 
L 281.573612 -170.938478 
L 278.821272 -170.895287 
L 276.068932 -170.79422 
L 273.316591 -170.646239 
L 270.564251 -170.473781 
L 267.811911 -170.307591 
L 265.059571 -170.175026 
L 262.307231 -170.086803 
L 259.554891 -170.032761 
L 256.802551 -169.990046 
L 254.050211 -169.935502 
L 251.297871 -169.850963 
L 248.54553 -169.720022 
L 245.79319 -169.525963 
L 243.04085 -169.258378 
L 240.28851 -168.92253 
L 237.53617 -168.538236 
L 234.78383 -168.125453 
L 232.03149 -167.690621 
L 229.27915 -167.229908 
L 226.52681 -166.747984 
L 223.77447 -166.272573 
L 221.022129 -165.846645 
L 218.269789 -165.5007 
L 215.517449 -165.227125 
L 212.765109 -164.978938 
L 210.012769 -164.696027 
L 207.260429 -164.338401 
L 204.508089 -163.898024 
L 201.755749 -163.379129 
L 199.003409 -162.768572 
L 196.251068 -162.029714 
L 193.498728 -161.125273 
L 190.746388 -160.033202 
L 187.994048 -158.719431 
L 185.241708 -157.084196 
L 182.489368 -154.939628 
L 179.737028 -152.036857 
L 176.984688 -148.08031 
L 174.232348 -142.674547 
L 171.480008 -135.287563 
L 168.727667 -125.417912 
L 165.975327 -113.0091 
L 163.222987 -98.827827 
L 160.470647 -84.394727 
L 157.718307 -71.395598 
L 154.965967 -61.028406 
L 152.213627 -53.843476 
L 149.461287 -50.112 
L 146.708947 -50.17466 
L 143.956607 -54.283556 
L 141.204266 -62.110871 
L 138.451926 -72.56264 
L 135.699586 -84.229587 
L 132.947246 -96.090924 
L 130.194906 -107.807191 
L 127.442566 -119.391721 
L 124.690226 -130.678313 
L 121.937886 -141.121935 
L 119.185546 -150.047954 
L 116.433205 -157.034958 
L 113.680865 -162.08687 
L 110.928525 -165.526735 
L 108.176185 -167.777845 
L 105.423845 -169.207168 
L 102.671505 -170.080899 
L 99.919165 -170.58497 
z
" id="m6298bdf93c" style="stroke:#262626;stroke-opacity:0.5;stroke-width:1.5;"/>
    </defs>
    <g clip-path="url(#p0f604fc22c)">
     <use style="fill:#107010;fill-opacity:0.5;stroke:#262626;stroke-opacity:0.5;stroke-width:1.5;" x="0" xlink:href="#m6298bdf93c" y="345.6"/>
    </g>
   </g>
   <g id="matplotlib.axis_1">
    <g id="xtick_1">
     <g id="line2d_1">
      <defs>
       <path d="M 0 0 
L 0 3.5 
" id="m6dae25df25" style="stroke:#000000;stroke-width:0.8;"/>
      </defs>
      <g>
       <use style="stroke:#000000;stroke-width:0.8;" x="87.628993" xlink:href="#m6dae25df25" y="307.584"/>
      </g>
     </g>
     <g id="text_1">
      <!-- 10 -->
      <defs>
       <path d="M 12.40625 8.296875 
L 28.515625 8.296875 
L 28.515625 63.921875 
L 10.984375 60.40625 
L 10.984375 69.390625 
L 28.421875 72.90625 
L 38.28125 72.90625 
L 38.28125 8.296875 
L 54.390625 8.296875 
L 54.390625 0 
L 12.40625 0 
z
" id="DejaVuSans-49"/>
       <path d="M 31.78125 66.40625 
Q 24.171875 66.40625 20.328125 58.90625 
Q 16.5 51.421875 16.5 36.375 
Q 16.5 21.390625 20.328125 13.890625 
Q 24.171875 6.390625 31.78125 6.390625 
Q 39.453125 6.390625 43.28125 13.890625 
Q 47.125 21.390625 47.125 36.375 
Q 47.125 51.421875 43.28125 58.90625 
Q 39.453125 66.40625 31.78125 66.40625 
z
M 31.78125 74.21875 
Q 44.046875 74.21875 50.515625 64.515625 
Q 56.984375 54.828125 56.984375 36.375 
Q 56.984375 17.96875 50.515625 8.265625 
Q 44.046875 -1.421875 31.78125 -1.421875 
Q 19.53125 -1.421875 13.0625 8.265625 
Q 6.59375 17.96875 6.59375 36.375 
Q 6.59375 54.828125 13.0625 64.515625 
Q 19.53125 74.21875 31.78125 74.21875 
z
" id="DejaVuSans-48"/>
      </defs>
      <g transform="translate(81.266493 322.182437)scale(0.1 -0.1)">
       <use xlink:href="#DejaVuSans-49"/>
       <use x="63.623047" xlink:href="#DejaVuSans-48"/>
      </g>
     </g>
    </g>
    <g id="xtick_2">
     <g id="line2d_2">
      <g>
       <use style="stroke:#000000;stroke-width:0.8;" x="158.358044" xlink:href="#m6dae25df25" y="307.584"/>
      </g>
     </g>
     <g id="text_2">
      <!-- 20 -->
      <defs>
       <path d="M 19.1875 8.296875 
L 53.609375 8.296875 
L 53.609375 0 
L 7.328125 0 
L 7.328125 8.296875 
Q 12.9375 14.109375 22.625 23.890625 
Q 32.328125 33.6875 34.8125 36.53125 
Q 39.546875 41.84375 41.421875 45.53125 
Q 43.3125 49.21875 43.3125 52.78125 
Q 43.3125 58.59375 39.234375 62.25 
Q 35.15625 65.921875 28.609375 65.921875 
Q 23.96875 65.921875 18.8125 64.3125 
Q 13.671875 62.703125 7.8125 59.421875 
L 7.8125 69.390625 
Q 13.765625 71.78125 18.9375 73 
Q 24.125 74.21875 28.421875 74.21875 
Q 39.75 74.21875 46.484375 68.546875 
Q 53.21875 62.890625 53.21875 53.421875 
Q 53.21875 48.921875 51.53125 44.890625 
Q 49.859375 40.875 45.40625 35.40625 
Q 44.1875 33.984375 37.640625 27.21875 
Q 31.109375 20.453125 19.1875 8.296875 
z
" id="DejaVuSans-50"/>
      </defs>
      <g transform="translate(151.995544 322.182437)scale(0.1 -0.1)">
       <use xlink:href="#DejaVuSans-50"/>
       <use x="63.623047" xlink:href="#DejaVuSans-48"/>
      </g>
     </g>
    </g>
    <g id="xtick_3">
     <g id="line2d_3">
      <g>
       <use style="stroke:#000000;stroke-width:0.8;" x="229.087095" xlink:href="#m6dae25df25" y="307.584"/>
      </g>
     </g>
     <g id="text_3">
      <!-- 30 -->
      <defs>
       <path d="M 40.578125 39.3125 
Q 47.65625 37.796875 51.625 33 
Q 55.609375 28.21875 55.609375 21.1875 
Q 55.609375 10.40625 48.1875 4.484375 
Q 40.765625 -1.421875 27.09375 -1.421875 
Q 22.515625 -1.421875 17.65625 -0.515625 
Q 12.796875 0.390625 7.625 2.203125 
L 7.625 11.71875 
Q 11.71875 9.328125 16.59375 8.109375 
Q 21.484375 6.890625 26.8125 6.890625 
Q 36.078125 6.890625 40.9375 10.546875 
Q 45.796875 14.203125 45.796875 21.1875 
Q 45.796875 27.640625 41.28125 31.265625 
Q 36.765625 34.90625 28.71875 34.90625 
L 20.21875 34.90625 
L 20.21875 43.015625 
L 29.109375 43.015625 
Q 36.375 43.015625 40.234375 45.921875 
Q 44.09375 48.828125 44.09375 54.296875 
Q 44.09375 59.90625 40.109375 62.90625 
Q 36.140625 65.921875 28.71875 65.921875 
Q 24.65625 65.921875 20.015625 65.03125 
Q 15.375 64.15625 9.8125 62.3125 
L 9.8125 71.09375 
Q 15.4375 72.65625 20.34375 73.4375 
Q 25.25 74.21875 29.59375 74.21875 
Q 40.828125 74.21875 47.359375 69.109375 
Q 53.90625 64.015625 53.90625 55.328125 
Q 53.90625 49.265625 50.4375 45.09375 
Q 46.96875 40.921875 40.578125 39.3125 
z
" id="DejaVuSans-51"/>
      </defs>
      <g transform="translate(222.724595 322.182437)scale(0.1 -0.1)">
       <use xlink:href="#DejaVuSans-51"/>
       <use x="63.623047" xlink:href="#DejaVuSans-48"/>
      </g>
     </g>
    </g>
    <g id="xtick_4">
     <g id="line2d_4">
      <g>
       <use style="stroke:#000000;stroke-width:0.8;" x="299.816146" xlink:href="#m6dae25df25" y="307.584"/>
      </g>
     </g>
     <g id="text_4">
      <!-- 40 -->
      <defs>
       <path d="M 37.796875 64.3125 
L 12.890625 25.390625 
L 37.796875 25.390625 
z
M 35.203125 72.90625 
L 47.609375 72.90625 
L 47.609375 25.390625 
L 58.015625 25.390625 
L 58.015625 17.1875 
L 47.609375 17.1875 
L 47.609375 0 
L 37.796875 0 
L 37.796875 17.1875 
L 4.890625 17.1875 
L 4.890625 26.703125 
z
" id="DejaVuSans-52"/>
      </defs>
      <g transform="translate(293.453646 322.182437)scale(0.1 -0.1)">
       <use xlink:href="#DejaVuSans-52"/>
       <use x="63.623047" xlink:href="#DejaVuSans-48"/>
      </g>
     </g>
    </g>
    <g id="xtick_5">
     <g id="line2d_5">
      <g>
       <use style="stroke:#000000;stroke-width:0.8;" x="370.545197" xlink:href="#m6dae25df25" y="307.584"/>
      </g>
     </g>
     <g id="text_5">
      <!-- 50 -->
      <defs>
       <path d="M 10.796875 72.90625 
L 49.515625 72.90625 
L 49.515625 64.59375 
L 19.828125 64.59375 
L 19.828125 46.734375 
Q 21.96875 47.46875 24.109375 47.828125 
Q 26.265625 48.1875 28.421875 48.1875 
Q 40.625 48.1875 47.75 41.5 
Q 54.890625 34.8125 54.890625 23.390625 
Q 54.890625 11.625 47.5625 5.09375 
Q 40.234375 -1.421875 26.90625 -1.421875 
Q 22.3125 -1.421875 17.546875 -0.640625 
Q 12.796875 0.140625 7.71875 1.703125 
L 7.71875 11.625 
Q 12.109375 9.234375 16.796875 8.0625 
Q 21.484375 6.890625 26.703125 6.890625 
Q 35.15625 6.890625 40.078125 11.328125 
Q 45.015625 15.765625 45.015625 23.390625 
Q 45.015625 31 40.078125 35.4375 
Q 35.15625 39.890625 26.703125 39.890625 
Q 22.75 39.890625 18.8125 39.015625 
Q 14.890625 38.140625 10.796875 36.28125 
z
" id="DejaVuSans-53"/>
      </defs>
      <g transform="translate(364.182697 322.182437)scale(0.1 -0.1)">
       <use xlink:href="#DejaVuSans-53"/>
       <use x="63.623047" xlink:href="#DejaVuSans-48"/>
      </g>
     </g>
    </g>
    <g id="text_6">
     <!-- initial_rr -->
     <defs>
      <path d="M 9.421875 54.6875 
L 18.40625 54.6875 
L 18.40625 0 
L 9.421875 0 
z
M 9.421875 75.984375 
L 18.40625 75.984375 
L 18.40625 64.59375 
L 9.421875 64.59375 
z
" id="DejaVuSans-105"/>
      <path d="M 54.890625 33.015625 
L 54.890625 0 
L 45.90625 0 
L 45.90625 32.71875 
Q 45.90625 40.484375 42.875 44.328125 
Q 39.84375 48.1875 33.796875 48.1875 
Q 26.515625 48.1875 22.3125 43.546875 
Q 18.109375 38.921875 18.109375 30.90625 
L 18.109375 0 
L 9.078125 0 
L 9.078125 54.6875 
L 18.109375 54.6875 
L 18.109375 46.1875 
Q 21.34375 51.125 25.703125 53.5625 
Q 30.078125 56 35.796875 56 
Q 45.21875 56 50.046875 50.171875 
Q 54.890625 44.34375 54.890625 33.015625 
z
" id="DejaVuSans-110"/>
      <path d="M 18.3125 70.21875 
L 18.3125 54.6875 
L 36.8125 54.6875 
L 36.8125 47.703125 
L 18.3125 47.703125 
L 18.3125 18.015625 
Q 18.3125 11.328125 20.140625 9.421875 
Q 21.96875 7.515625 27.59375 7.515625 
L 36.8125 7.515625 
L 36.8125 0 
L 27.59375 0 
Q 17.1875 0 13.234375 3.875 
Q 9.28125 7.765625 9.28125 18.015625 
L 9.28125 47.703125 
L 2.6875 47.703125 
L 2.6875 54.6875 
L 9.28125 54.6875 
L 9.28125 70.21875 
z
" id="DejaVuSans-116"/>
      <path d="M 34.28125 27.484375 
Q 23.390625 27.484375 19.1875 25 
Q 14.984375 22.515625 14.984375 16.5 
Q 14.984375 11.71875 18.140625 8.90625 
Q 21.296875 6.109375 26.703125 6.109375 
Q 34.1875 6.109375 38.703125 11.40625 
Q 43.21875 16.703125 43.21875 25.484375 
L 43.21875 27.484375 
z
M 52.203125 31.203125 
L 52.203125 0 
L 43.21875 0 
L 43.21875 8.296875 
Q 40.140625 3.328125 35.546875 0.953125 
Q 30.953125 -1.421875 24.3125 -1.421875 
Q 15.921875 -1.421875 10.953125 3.296875 
Q 6 8.015625 6 15.921875 
Q 6 25.140625 12.171875 29.828125 
Q 18.359375 34.515625 30.609375 34.515625 
L 43.21875 34.515625 
L 43.21875 35.40625 
Q 43.21875 41.609375 39.140625 45 
Q 35.0625 48.390625 27.6875 48.390625 
Q 23 48.390625 18.546875 47.265625 
Q 14.109375 46.140625 10.015625 43.890625 
L 10.015625 52.203125 
Q 14.9375 54.109375 19.578125 55.046875 
Q 24.21875 56 28.609375 56 
Q 40.484375 56 46.34375 49.84375 
Q 52.203125 43.703125 52.203125 31.203125 
z
" id="DejaVuSans-97"/>
      <path d="M 9.421875 75.984375 
L 18.40625 75.984375 
L 18.40625 0 
L 9.421875 0 
z
" id="DejaVuSans-108"/>
      <path d="M 50.984375 -16.609375 
L 50.984375 -23.578125 
L -0.984375 -23.578125 
L -0.984375 -16.609375 
z
" id="DejaVuSans-95"/>
      <path d="M 41.109375 46.296875 
Q 39.59375 47.171875 37.8125 47.578125 
Q 36.03125 48 33.890625 48 
Q 26.265625 48 22.1875 43.046875 
Q 18.109375 38.09375 18.109375 28.8125 
L 18.109375 0 
L 9.078125 0 
L 9.078125 54.6875 
L 18.109375 54.6875 
L 18.109375 46.1875 
Q 20.953125 51.171875 25.484375 53.578125 
Q 30.03125 56 36.53125 56 
Q 37.453125 56 38.578125 55.875 
Q 39.703125 55.765625 41.0625 55.515625 
z
" id="DejaVuSans-114"/>
     </defs>
     <g transform="translate(215.887344 335.860562)scale(0.1 -0.1)">
      <use xlink:href="#DejaVuSans-105"/>
      <use x="27.783203" xlink:href="#DejaVuSans-110"/>
      <use x="91.162109" xlink:href="#DejaVuSans-105"/>
      <use x="118.945312" xlink:href="#DejaVuSans-116"/>
      <use x="158.154297" xlink:href="#DejaVuSans-105"/>
      <use x="185.9375" xlink:href="#DejaVuSans-97"/>
      <use x="247.216797" xlink:href="#DejaVuSans-108"/>
      <use x="275" xlink:href="#DejaVuSans-95"/>
      <use x="325" xlink:href="#DejaVuSans-114"/>
      <use x="364.363281" xlink:href="#DejaVuSans-114"/>
     </g>
    </g>
   </g>
   <g id="matplotlib.axis_2">
    <g id="ytick_1">
     <g id="line2d_6">
      <defs>
       <path d="M 0 0 
L -3.5 0 
" id="mdd1550a30e" style="stroke:#000000;stroke-width:0.8;"/>
      </defs>
      <g>
       <use style="stroke:#000000;stroke-width:0.8;" x="57.6" xlink:href="#mdd1550a30e" y="174.528"/>
      </g>
     </g>
    </g>
   </g>
   <g id="line2d_7">
    <path clip-path="url(#p0f604fc22c)" d="M 101.774803 174.528 
L 214.941285 174.528 
" style="fill:none;stroke:#ffa500;stroke-linecap:square;stroke-width:1.5;"/>
   </g>
   <g id="line2d_8">
    <path clip-path="url(#p0f604fc22c)" d="M 144.212234 174.528 
L 172.503854 174.528 
" style="fill:none;stroke:#4c4c4c;stroke-linecap:square;stroke-width:4.5;"/>
   </g>
   <g id="line2d_9">
    <path clip-path="url(#p0f604fc22c)" d="M 122.993519 174.528 
L 179.576759 174.528 
" style="fill:none;stroke:#008000;stroke-linecap:square;stroke-width:1.5;"/>
   </g>
   <g id="line2d_10">
    <path clip-path="url(#p0f604fc22c)" d="M 144.212234 174.528 
L 158.358044 174.528 
" style="fill:none;stroke:#262626;stroke-linecap:square;stroke-width:4.5;"/>
   </g>
   <g id="patch_3">
    <path d="M 57.6 307.584 
L 57.6 41.472 
" style="fill:none;stroke:#000000;stroke-linecap:square;stroke-linejoin:miter;stroke-width:0.8;"/>
   </g>
   <g id="patch_4">
    <path d="M 414.72 307.584 
L 414.72 41.472 
" style="fill:none;stroke:#000000;stroke-linecap:square;stroke-linejoin:miter;stroke-width:0.8;"/>
   </g>
   <g id="patch_5">
    <path d="M 57.6 307.584 
L 414.72 307.584 
" style="fill:none;stroke:#000000;stroke-linecap:square;stroke-linejoin:miter;stroke-width:0.8;"/>
   </g>
   <g id="patch_6">
    <path d="M 57.6 41.472 
L 414.72 41.472 
" style="fill:none;stroke:#000000;stroke-linecap:square;stroke-linejoin:miter;stroke-width:0.8;"/>
   </g>
   <g id="PathCollection_1">
    <defs>
     <path d="M 0 1.5 
C 0.397805 1.5 0.77937 1.341951 1.06066 1.06066 
C 1.341951 0.77937 1.5 0.397805 1.5 0 
C 1.5 -0.397805 1.341951 -0.77937 1.06066 -1.06066 
C 0.77937 -1.341951 0.397805 -1.5 0 -1.5 
C -0.397805 -1.5 -0.77937 -1.341951 -1.06066 -1.06066 
C -1.341951 -0.77937 -1.5 -0.397805 -1.5 0 
C -1.5 0.397805 -1.341951 0.77937 -1.06066 1.06066 
C -0.77937 1.341951 -0.397805 1.5 0 1.5 
z
" id="mbdc8b90ba1" style="stroke:#4c4c4c;stroke-opacity:0.5;"/>
    </defs>
    <g clip-path="url(#p0f604fc22c)">
     <use style="fill:#ffffff;fill-opacity:0.5;stroke:#4c4c4c;stroke-opacity:0.5;" x="158.358044" xlink:href="#mbdc8b90ba1" y="174.528"/>
    </g>
   </g>
   <g id="PathCollection_2">
    <defs>
     <path d="M 0 1.5 
C 0.397805 1.5 0.77937 1.341951 1.06066 1.06066 
C 1.341951 0.77937 1.5 0.397805 1.5 0 
C 1.5 -0.397805 1.341951 -0.77937 1.06066 -1.06066 
C 0.77937 -1.341951 0.397805 -1.5 0 -1.5 
C -0.397805 -1.5 -0.77937 -1.341951 -1.06066 -1.06066 
C -1.341951 -0.77937 -1.5 -0.397805 -1.5 0 
C -1.5 0.397805 -1.341951 0.77937 -1.06066 1.06066 
C -0.77937 1.341951 -0.397805 1.5 0 1.5 
z
" id="meba929ad2a" style="stroke:#262626;stroke-opacity:0.5;"/>
    </defs>
    <g clip-path="url(#p0f604fc22c)">
     <use style="fill:#ffffff;fill-opacity:0.5;stroke:#262626;stroke-opacity:0.5;" x="151.285139" xlink:href="#meba929ad2a" y="174.528"/>
    </g>
   </g>
   <g id="text_7">
    <!-- Association of initial_rr vs. sepsis -->
    <defs>
     <path d="M 34.1875 63.1875 
L 20.796875 26.90625 
L 47.609375 26.90625 
z
M 28.609375 72.90625 
L 39.796875 72.90625 
L 67.578125 0 
L 57.328125 0 
L 50.6875 18.703125 
L 17.828125 18.703125 
L 11.1875 0 
L 0.78125 0 
z
" id="DejaVuSans-65"/>
     <path d="M 44.28125 53.078125 
L 44.28125 44.578125 
Q 40.484375 46.53125 36.375 47.5 
Q 32.28125 48.484375 27.875 48.484375 
Q 21.1875 48.484375 17.84375 46.4375 
Q 14.5 44.390625 14.5 40.28125 
Q 14.5 37.15625 16.890625 35.375 
Q 19.28125 33.59375 26.515625 31.984375 
L 29.59375 31.296875 
Q 39.15625 29.25 43.1875 25.515625 
Q 47.21875 21.78125 47.21875 15.09375 
Q 47.21875 7.46875 41.1875 3.015625 
Q 35.15625 -1.421875 24.609375 -1.421875 
Q 20.21875 -1.421875 15.453125 -0.5625 
Q 10.6875 0.296875 5.421875 2 
L 5.421875 11.28125 
Q 10.40625 8.6875 15.234375 7.390625 
Q 20.0625 6.109375 24.8125 6.109375 
Q 31.15625 6.109375 34.5625 8.28125 
Q 37.984375 10.453125 37.984375 14.40625 
Q 37.984375 18.0625 35.515625 20.015625 
Q 33.0625 21.96875 24.703125 23.78125 
L 21.578125 24.515625 
Q 13.234375 26.265625 9.515625 29.90625 
Q 5.8125 33.546875 5.8125 39.890625 
Q 5.8125 47.609375 11.28125 51.796875 
Q 16.75 56 26.8125 56 
Q 31.78125 56 36.171875 55.265625 
Q 40.578125 54.546875 44.28125 53.078125 
z
" id="DejaVuSans-115"/>
     <path d="M 30.609375 48.390625 
Q 23.390625 48.390625 19.1875 42.75 
Q 14.984375 37.109375 14.984375 27.296875 
Q 14.984375 17.484375 19.15625 11.84375 
Q 23.34375 6.203125 30.609375 6.203125 
Q 37.796875 6.203125 41.984375 11.859375 
Q 46.1875 17.53125 46.1875 27.296875 
Q 46.1875 37.015625 41.984375 42.703125 
Q 37.796875 48.390625 30.609375 48.390625 
z
M 30.609375 56 
Q 42.328125 56 49.015625 48.375 
Q 55.71875 40.765625 55.71875 27.296875 
Q 55.71875 13.875 49.015625 6.21875 
Q 42.328125 -1.421875 30.609375 -1.421875 
Q 18.84375 -1.421875 12.171875 6.21875 
Q 5.515625 13.875 5.515625 27.296875 
Q 5.515625 40.765625 12.171875 48.375 
Q 18.84375 56 30.609375 56 
z
" id="DejaVuSans-111"/>
     <path d="M 48.78125 52.59375 
L 48.78125 44.1875 
Q 44.96875 46.296875 41.140625 47.34375 
Q 37.3125 48.390625 33.40625 48.390625 
Q 24.65625 48.390625 19.8125 42.84375 
Q 14.984375 37.3125 14.984375 27.296875 
Q 14.984375 17.28125 19.8125 11.734375 
Q 24.65625 6.203125 33.40625 6.203125 
Q 37.3125 6.203125 41.140625 7.25 
Q 44.96875 8.296875 48.78125 10.40625 
L 48.78125 2.09375 
Q 45.015625 0.34375 40.984375 -0.53125 
Q 36.96875 -1.421875 32.421875 -1.421875 
Q 20.0625 -1.421875 12.78125 6.34375 
Q 5.515625 14.109375 5.515625 27.296875 
Q 5.515625 40.671875 12.859375 48.328125 
Q 20.21875 56 33.015625 56 
Q 37.15625 56 41.109375 55.140625 
Q 45.0625 54.296875 48.78125 52.59375 
z
" id="DejaVuSans-99"/>
     <path id="DejaVuSans-32"/>
     <path d="M 37.109375 75.984375 
L 37.109375 68.5 
L 28.515625 68.5 
Q 23.6875 68.5 21.796875 66.546875 
Q 19.921875 64.59375 19.921875 59.515625 
L 19.921875 54.6875 
L 34.71875 54.6875 
L 34.71875 47.703125 
L 19.921875 47.703125 
L 19.921875 0 
L 10.890625 0 
L 10.890625 47.703125 
L 2.296875 47.703125 
L 2.296875 54.6875 
L 10.890625 54.6875 
L 10.890625 58.5 
Q 10.890625 67.625 15.140625 71.796875 
Q 19.390625 75.984375 28.609375 75.984375 
z
" id="DejaVuSans-102"/>
     <path d="M 2.984375 54.6875 
L 12.5 54.6875 
L 29.59375 8.796875 
L 46.6875 54.6875 
L 56.203125 54.6875 
L 35.6875 0 
L 23.484375 0 
z
" id="DejaVuSans-118"/>
     <path d="M 10.6875 12.40625 
L 21 12.40625 
L 21 0 
L 10.6875 0 
z
" id="DejaVuSans-46"/>
     <path d="M 56.203125 29.59375 
L 56.203125 25.203125 
L 14.890625 25.203125 
Q 15.484375 15.921875 20.484375 11.0625 
Q 25.484375 6.203125 34.421875 6.203125 
Q 39.59375 6.203125 44.453125 7.46875 
Q 49.3125 8.734375 54.109375 11.28125 
L 54.109375 2.78125 
Q 49.265625 0.734375 44.1875 -0.34375 
Q 39.109375 -1.421875 33.890625 -1.421875 
Q 20.796875 -1.421875 13.15625 6.1875 
Q 5.515625 13.8125 5.515625 26.8125 
Q 5.515625 40.234375 12.765625 48.109375 
Q 20.015625 56 32.328125 56 
Q 43.359375 56 49.78125 48.890625 
Q 56.203125 41.796875 56.203125 29.59375 
z
M 47.21875 32.234375 
Q 47.125 39.59375 43.09375 43.984375 
Q 39.0625 48.390625 32.421875 48.390625 
Q 24.90625 48.390625 20.390625 44.140625 
Q 15.875 39.890625 15.1875 32.171875 
z
" id="DejaVuSans-101"/>
     <path d="M 18.109375 8.203125 
L 18.109375 -20.796875 
L 9.078125 -20.796875 
L 9.078125 54.6875 
L 18.109375 54.6875 
L 18.109375 46.390625 
Q 20.953125 51.265625 25.265625 53.625 
Q 29.59375 56 35.59375 56 
Q 45.5625 56 51.78125 48.09375 
Q 58.015625 40.1875 58.015625 27.296875 
Q 58.015625 14.40625 51.78125 6.484375 
Q 45.5625 -1.421875 35.59375 -1.421875 
Q 29.59375 -1.421875 25.265625 0.953125 
Q 20.953125 3.328125 18.109375 8.203125 
z
M 48.6875 27.296875 
Q 48.6875 37.203125 44.609375 42.84375 
Q 40.53125 48.484375 33.40625 48.484375 
Q 26.265625 48.484375 22.1875 42.84375 
Q 18.109375 37.203125 18.109375 27.296875 
Q 18.109375 17.390625 22.1875 11.75 
Q 26.265625 6.109375 33.40625 6.109375 
Q 40.53125 6.109375 44.609375 11.75 
Q 48.6875 17.390625 48.6875 27.296875 
z
" id="DejaVuSans-112"/>
    </defs>
    <g transform="translate(137.130938 35.472)scale(0.12 -0.12)">
     <use xlink:href="#DejaVuSans-65"/>
     <use x="68.408203" xlink:href="#DejaVuSans-115"/>
     <use x="120.507812" xlink:href="#DejaVuSans-115"/>
     <use x="172.607422" xlink:href="#DejaVuSans-111"/>
     <use x="233.789062" xlink:href="#DejaVuSans-99"/>
     <use x="288.769531" xlink:href="#DejaVuSans-105"/>
     <use x="316.552734" xlink:href="#DejaVuSans-97"/>
     <use x="377.832031" xlink:href="#DejaVuSans-116"/>
     <use x="417.041016" xlink:href="#DejaVuSans-105"/>
     <use x="444.824219" xlink:href="#DejaVuSans-111"/>
     <use x="506.005859" xlink:href="#DejaVuSans-110"/>
     <use x="569.384766" xlink:href="#DejaVuSans-32"/>
     <use x="601.171875" xlink:href="#DejaVuSans-111"/>
     <use x="662.353516" xlink:href="#DejaVuSans-102"/>
     <use x="697.558594" xlink:href="#DejaVuSans-32"/>
     <use x="729.345703" xlink:href="#DejaVuSans-105"/>
     <use x="757.128906" xlink:href="#DejaVuSans-110"/>
     <use x="820.507812" xlink:href="#DejaVuSans-105"/>
     <use x="848.291016" xlink:href="#DejaVuSans-116"/>
     <use x="887.5" xlink:href="#DejaVuSans-105"/>
     <use x="915.283203" xlink:href="#DejaVuSans-97"/>
     <use x="976.5625" xlink:href="#DejaVuSans-108"/>
     <use x="1004.345703" xlink:href="#DejaVuSans-95"/>
     <use x="1054.345703" xlink:href="#DejaVuSans-114"/>
     <use x="1093.708984" xlink:href="#DejaVuSans-114"/>
     <use x="1134.822266" xlink:href="#DejaVuSans-32"/>
     <use x="1166.609375" xlink:href="#DejaVuSans-118"/>
     <use x="1225.789062" xlink:href="#DejaVuSans-115"/>
     <use x="1277.888672" xlink:href="#DejaVuSans-46"/>
     <use x="1309.675781" xlink:href="#DejaVuSans-32"/>
     <use x="1341.462891" xlink:href="#DejaVuSans-115"/>
     <use x="1393.5625" xlink:href="#DejaVuSans-101"/>
     <use x="1455.085938" xlink:href="#DejaVuSans-112"/>
     <use x="1518.5625" xlink:href="#DejaVuSans-115"/>
     <use x="1570.662109" xlink:href="#DejaVuSans-105"/>
     <use x="1598.445312" xlink:href="#DejaVuSans-115"/>
    </g>
   </g>
   <g id="legend_1">
    <g id="patch_7">
     <path d="M 294.045 78.82825 
L 407.72 78.82825 
Q 409.72 78.82825 409.72 76.82825 
L 409.72 48.472 
Q 409.72 46.472 407.72 46.472 
L 294.045 46.472 
Q 292.045 46.472 292.045 48.472 
L 292.045 76.82825 
Q 292.045 78.82825 294.045 78.82825 
z
" style="fill:#ffffff;opacity:0.8;stroke:#cccccc;stroke-linejoin:miter;"/>
    </g>
    <g id="line2d_11">
     <path d="M 296.045 54.570437 
L 316.045 54.570437 
" style="fill:none;stroke:#ffa500;stroke-linecap:square;stroke-width:1.5;"/>
    </g>
    <g id="line2d_12"/>
    <g id="text_8">
     <!-- sepsis (164) -->
     <defs>
      <path d="M 31 75.875 
Q 24.46875 64.65625 21.28125 53.65625 
Q 18.109375 42.671875 18.109375 31.390625 
Q 18.109375 20.125 21.3125 9.0625 
Q 24.515625 -2 31 -13.1875 
L 23.1875 -13.1875 
Q 15.875 -1.703125 12.234375 9.375 
Q 8.59375 20.453125 8.59375 31.390625 
Q 8.59375 42.28125 12.203125 53.3125 
Q 15.828125 64.359375 23.1875 75.875 
z
" id="DejaVuSans-40"/>
      <path d="M 33.015625 40.375 
Q 26.375 40.375 22.484375 35.828125 
Q 18.609375 31.296875 18.609375 23.390625 
Q 18.609375 15.53125 22.484375 10.953125 
Q 26.375 6.390625 33.015625 6.390625 
Q 39.65625 6.390625 43.53125 10.953125 
Q 47.40625 15.53125 47.40625 23.390625 
Q 47.40625 31.296875 43.53125 35.828125 
Q 39.65625 40.375 33.015625 40.375 
z
M 52.59375 71.296875 
L 52.59375 62.3125 
Q 48.875 64.0625 45.09375 64.984375 
Q 41.3125 65.921875 37.59375 65.921875 
Q 27.828125 65.921875 22.671875 59.328125 
Q 17.53125 52.734375 16.796875 39.40625 
Q 19.671875 43.65625 24.015625 45.921875 
Q 28.375 48.1875 33.59375 48.1875 
Q 44.578125 48.1875 50.953125 41.515625 
Q 57.328125 34.859375 57.328125 23.390625 
Q 57.328125 12.15625 50.6875 5.359375 
Q 44.046875 -1.421875 33.015625 -1.421875 
Q 20.359375 -1.421875 13.671875 8.265625 
Q 6.984375 17.96875 6.984375 36.375 
Q 6.984375 53.65625 15.1875 63.9375 
Q 23.390625 74.21875 37.203125 74.21875 
Q 40.921875 74.21875 44.703125 73.484375 
Q 48.484375 72.75 52.59375 71.296875 
z
" id="DejaVuSans-54"/>
      <path d="M 8.015625 75.875 
L 15.828125 75.875 
Q 23.140625 64.359375 26.78125 53.3125 
Q 30.421875 42.28125 30.421875 31.390625 
Q 30.421875 20.453125 26.78125 9.375 
Q 23.140625 -1.703125 15.828125 -13.1875 
L 8.015625 -13.1875 
Q 14.5 -2 17.703125 9.0625 
Q 20.90625 20.125 20.90625 31.390625 
Q 20.90625 42.671875 17.703125 53.65625 
Q 14.5 64.65625 8.015625 75.875 
z
" id="DejaVuSans-41"/>
     </defs>
     <g transform="translate(324.045 58.070437)scale(0.1 -0.1)">
      <use xlink:href="#DejaVuSans-115"/>
      <use x="52.099609" xlink:href="#DejaVuSans-101"/>
      <use x="113.623047" xlink:href="#DejaVuSans-112"/>
      <use x="177.099609" xlink:href="#DejaVuSans-115"/>
      <use x="229.199219" xlink:href="#DejaVuSans-105"/>
      <use x="256.982422" xlink:href="#DejaVuSans-115"/>
      <use x="309.082031" xlink:href="#DejaVuSans-32"/>
      <use x="340.869141" xlink:href="#DejaVuSans-40"/>
      <use x="379.882812" xlink:href="#DejaVuSans-49"/>
      <use x="443.505859" xlink:href="#DejaVuSans-54"/>
      <use x="507.128906" xlink:href="#DejaVuSans-52"/>
      <use x="570.751953" xlink:href="#DejaVuSans-41"/>
     </g>
    </g>
    <g id="line2d_13">
     <path d="M 296.045 69.248562 
L 316.045 69.248562 
" style="fill:none;stroke:#008000;stroke-linecap:square;stroke-width:1.5;"/>
    </g>
    <g id="line2d_14"/>
    <g id="text_9">
     <!-- Not sepsis (334) -->
     <defs>
      <path d="M 9.8125 72.90625 
L 23.09375 72.90625 
L 55.421875 11.921875 
L 55.421875 72.90625 
L 64.984375 72.90625 
L 64.984375 0 
L 51.703125 0 
L 19.390625 60.984375 
L 19.390625 0 
L 9.8125 0 
z
" id="DejaVuSans-78"/>
     </defs>
     <g transform="translate(324.045 72.748562)scale(0.1 -0.1)">
      <use xlink:href="#DejaVuSans-78"/>
      <use x="74.804688" xlink:href="#DejaVuSans-111"/>
      <use x="135.986328" xlink:href="#DejaVuSans-116"/>
      <use x="175.195312" xlink:href="#DejaVuSans-32"/>
      <use x="206.982422" xlink:href="#DejaVuSans-115"/>
      <use x="259.082031" xlink:href="#DejaVuSans-101"/>
      <use x="320.605469" xlink:href="#DejaVuSans-112"/>
      <use x="384.082031" xlink:href="#DejaVuSans-115"/>
      <use x="436.181641" xlink:href="#DejaVuSans-105"/>
      <use x="463.964844" xlink:href="#DejaVuSans-115"/>
      <use x="516.064453" xlink:href="#DejaVuSans-32"/>
      <use x="547.851562" xlink:href="#DejaVuSans-40"/>
      <use x="586.865234" xlink:href="#DejaVuSans-51"/>
      <use x="650.488281" xlink:href="#DejaVuSans-51"/>
      <use x="714.111328" xlink:href="#DejaVuSans-52"/>
      <use x="777.734375" xlink:href="#DejaVuSans-41"/>
     </g>
    </g>
   </g>
  </g>
 </g>
 <defs>
  <clipPath id="p0f604fc22c">
   <rect height="266.112" width="357.12" x="57.6" y="41.472"/>
  </clipPath>
 </defs>
</svg>
