<?xml version="1.0" encoding="utf-8" standalone="no"?>
<!DOCTYPE svg PUBLIC "-//W3C//DTD SVG 1.1//EN"
  "http://www.w3.org/Graphics/SVG/1.1/DTD/svg11.dtd">
<!-- Created with matplotlib (https://matplotlib.org/) -->
<svg height="345.6pt" version="1.1" viewBox="0 0 460.8 345.6" width="460.8pt" xmlns="http://www.w3.org/2000/svg" xmlns:xlink="http://www.w3.org/1999/xlink">
 <defs>
  <style type="text/css">
*{stroke-linecap:butt;stroke-linejoin:round;}
  </style>
 </defs>
 <g id="figure_1">
  <g id="patch_1">
   <path d="M 0 345.6 
L 460.8 345.6 
L 460.8 0 
L 0 0 
z
" style="fill:#ffffff;"/>
  </g>
  <g id="axes_1">
   <g id="patch_2">
    <path d="M 57.6 307.584 
L 414.72 307.584 
L 414.72 41.472 
L 57.6 41.472 
z
" style="fill:#ffffff;"/>
   </g>
   <g id="PolyCollection_1">
    <defs>
     <path d="M 73.832727 -170.167455 
L 73.832727 -171.976545 
L 77.112066 -172.359724 
L 80.391405 -172.857087 
L 83.670744 -173.482869 
L 86.950083 -174.246408 
L 90.229421 -175.150571 
L 93.50876 -176.191189 
L 96.788099 -177.358012 
L 100.067438 -178.637518 
L 103.346777 -180.017564 
L 106.626116 -181.493409 
L 109.905455 -183.074168 
L 113.184793 -184.788374 
L 116.464132 -186.687199 
L 119.743471 -188.844035 
L 123.02281 -191.349675 
L 126.302149 -194.303153 
L 129.581488 -197.799243 
L 132.860826 -201.91445 
L 136.140165 -206.69389 
L 139.419504 -212.141439 
L 142.698843 -218.215004 
L 145.978182 -224.827736 
L 149.257521 -231.854745 
L 152.53686 -239.143699 
L 155.816198 -246.526977 
L 159.095537 -253.832932 
L 162.374876 -260.894395 
L 165.654215 -267.553625 
L 168.933554 -273.664046 
L 172.212893 -279.090084 
L 175.492231 -283.706712 
L 178.77157 -287.400123 
L 182.050909 -290.070152 
L 185.330248 -291.634232 
L 188.609587 -292.032 
L 191.888926 -291.229467 
L 195.168264 -289.221966 
L 198.447603 -286.035655 
L 201.726942 -281.727915 
L 205.006281 -276.387193 
L 208.28562 -270.132649 
L 211.564959 -263.113422 
L 214.844298 -255.506707 
L 218.123636 -247.513513 
L 221.402975 -239.351135 
L 224.682314 -231.24202 
L 227.961653 -223.399779 
L 231.240992 -216.014052 
L 234.520331 -209.236626 
L 237.799669 -203.171244 
L 241.079008 -197.868948 
L 244.358347 -193.329761 
L 247.637686 -189.510216 
L 250.917025 -186.335177 
L 254.196364 -183.711667 
L 257.475702 -181.542318 
L 260.755041 -179.73641 
L 264.03438 -178.217239 
L 267.313719 -176.925461 
L 270.593058 -175.818843 
L 273.872397 -174.869459 
L 277.151736 -174.059557 
L 280.431074 -173.37729 
L 283.710413 -172.813165 
L 286.989752 -172.357696 
L 290.269091 -172.000329 
L 293.54843 -171.729471 
L 296.827769 -171.533234 
L 300.107107 -171.400548 
L 303.386446 -171.322291 
L 306.665785 -171.292214 
L 309.945124 -171.307512 
L 313.224463 -171.368948 
L 316.503802 -171.480497 
L 319.78314 -171.648472 
L 323.062479 -171.880123 
L 326.341818 -172.181791 
L 329.621157 -172.556731 
L 332.900496 -173.002888 
L 336.179835 -173.510982 
L 339.459174 -174.063329 
L 342.738512 -174.633816 
L 346.017851 -175.189279 
L 349.29719 -175.692329 
L 352.576529 -176.105344 
L 355.855868 -176.395045 
L 359.135207 -176.536912 
L 362.414545 -176.518599 
L 365.693884 -176.341713 
L 368.973223 -176.021572 
L 372.252562 -175.585023 
L 375.531901 -175.066723 
L 378.81124 -174.504614 
L 382.090579 -173.935403 
L 385.369917 -173.390778 
L 388.649256 -172.894867 
L 391.928595 -172.463138 
L 395.207934 -172.102634 
L 398.487273 -171.813238 
L 398.487273 -170.330762 
L 398.487273 -170.330762 
L 395.207934 -170.041366 
L 391.928595 -169.680862 
L 388.649256 -169.249133 
L 385.369917 -168.753222 
L 382.090579 -168.208597 
L 378.81124 -167.639386 
L 375.531901 -167.077277 
L 372.252562 -166.558977 
L 368.973223 -166.122428 
L 365.693884 -165.802287 
L 362.414545 -165.625401 
L 359.135207 -165.607088 
L 355.855868 -165.748955 
L 352.576529 -166.038656 
L 349.29719 -166.451671 
L 346.017851 -166.954721 
L 342.738512 -167.510184 
L 339.459174 -168.080671 
L 336.179835 -168.633018 
L 332.900496 -169.141112 
L 329.621157 -169.587269 
L 326.341818 -169.962209 
L 323.062479 -170.263877 
L 319.78314 -170.495528 
L 316.503802 -170.663503 
L 313.224463 -170.775052 
L 309.945124 -170.836488 
L 306.665785 -170.851786 
L 303.386446 -170.821709 
L 300.107107 -170.743452 
L 296.827769 -170.610766 
L 293.54843 -170.414529 
L 290.269091 -170.143671 
L 286.989752 -169.786304 
L 283.710413 -169.330835 
L 280.431074 -168.76671 
L 277.151736 -168.084443 
L 273.872397 -167.274541 
L 270.593058 -166.325157 
L 267.313719 -165.218539 
L 264.03438 -163.926761 
L 260.755041 -162.40759 
L 257.475702 -160.601682 
L 254.196364 -158.432333 
L 250.917025 -155.808823 
L 247.637686 -152.633784 
L 244.358347 -148.814239 
L 241.079008 -144.275052 
L 237.799669 -138.972756 
L 234.520331 -132.907374 
L 231.240992 -126.129948 
L 227.961653 -118.744221 
L 224.682314 -110.90198 
L 221.402975 -102.792865 
L 218.123636 -94.630487 
L 214.844298 -86.637293 
L 211.564959 -79.030578 
L 208.28562 -72.011351 
L 205.006281 -65.756807 
L 201.726942 -60.416085 
L 198.447603 -56.108345 
L 195.168264 -52.922034 
L 191.888926 -50.914533 
L 188.609587 -50.112 
L 185.330248 -50.509768 
L 182.050909 -52.073848 
L 178.77157 -54.743877 
L 175.492231 -58.437288 
L 172.212893 -63.053916 
L 168.933554 -68.479954 
L 165.654215 -74.590375 
L 162.374876 -81.249605 
L 159.095537 -88.311068 
L 155.816198 -95.617023 
L 152.53686 -103.000301 
L 149.257521 -110.289255 
L 145.978182 -117.316264 
L 142.698843 -123.928996 
L 139.419504 -130.002561 
L 136.140165 -135.45011 
L 132.860826 -140.22955 
L 129.581488 -144.344757 
L 126.302149 -147.840847 
L 123.02281 -150.794325 
L 119.743471 -153.299965 
L 116.464132 -155.456801 
L 113.184793 -157.355626 
L 109.905455 -159.069832 
L 106.626116 -160.650591 
L 103.346777 -162.126436 
L 100.067438 -163.506482 
L 96.788099 -164.785988 
L 93.50876 -165.952811 
L 90.229421 -166.993429 
L 86.950083 -167.897592 
L 83.670744 -168.661131 
L 80.391405 -169.286913 
L 77.112066 -169.784276 
L 73.832727 -170.167455 
z
" id="m84f3bd0eb0" style="stroke:#4c4c4c;stroke-opacity:0.5;stroke-width:1.5;"/>
    </defs>
    <g clip-path="url(#p0335b0721c)">
     <use style="fill:#df9c20;fill-opacity:0.5;stroke:#4c4c4c;stroke-opacity:0.5;stroke-width:1.5;" x="0" xlink:href="#m84f3bd0eb0" y="345.6"/>
    </g>
   </g>
   <g id="PolyCollection_2">
    <defs>
     <path d="M 75.519526 -169.336054 
L 75.519526 -172.807946 
L 77.577574 -173.326749 
L 79.635623 -173.964554 
L 81.693671 -174.738119 
L 83.75172 -175.66405 
L 85.809768 -176.758265 
L 87.867817 -178.035474 
L 89.925865 -179.508707 
L 91.983914 -181.18893 
L 94.041962 -183.084772 
L 96.100011 -185.202373 
L 98.158059 -187.545353 
L 100.216108 -190.114864 
L 102.274156 -192.909713 
L 104.332205 -195.926494 
L 106.390254 -199.159723 
L 108.448302 -202.601933 
L 110.506351 -206.243732 
L 112.564399 -210.073839 
L 114.622448 -214.079123 
L 116.680496 -218.244652 
L 118.738545 -222.553791 
L 120.796593 -226.988322 
L 122.854642 -231.528563 
L 124.91269 -236.153411 
L 126.970739 -240.84025 
L 129.028787 -245.564626 
L 131.086836 -250.299654 
L 133.144884 -255.015151 
L 135.202933 -259.676567 
L 137.260981 -264.243867 
L 139.31903 -268.670566 
L 141.377078 -272.903203 
L 143.435127 -276.881481 
L 145.493175 -280.53932 
L 147.551224 -283.806918 
L 149.609273 -286.613817 
L 151.667321 -288.892808 
L 153.72537 -290.584352 
L 155.783418 -291.641096 
L 157.841467 -292.032 
L 159.899515 -291.745571 
L 161.957564 -290.791825 
L 164.015612 -289.202685 
L 166.073661 -287.030731 
L 168.131709 -284.346392 
L 170.189758 -281.233858 
L 172.247806 -277.786107 
L 174.305855 -274.099533 
L 176.363903 -270.268668 
L 178.421952 -266.381443 
L 180.48 -262.515335 
L 182.538049 -258.73462 
L 184.596097 -255.088838 
L 186.654146 -251.612411 
L 188.712194 -248.325309 
L 190.770243 -245.234552 
L 192.828291 -242.336314 
L 194.88634 -239.618391 
L 196.944389 -237.062802 
L 199.002437 -234.648323 
L 201.060486 -232.352775 
L 203.118534 -230.154944 
L 205.176583 -228.036026 
L 207.234631 -225.980551 
L 209.29268 -223.976764 
L 211.350728 -222.016508 
L 213.408777 -220.094669 
L 215.466825 -218.208315 
L 217.524874 -216.355651 
L 219.582922 -214.534977 
L 221.640971 -212.74377 
L 223.699019 -210.978045 
L 225.757068 -209.232068 
L 227.815116 -207.498472 
L 229.873165 -205.76874 
L 231.931213 -204.034001 
L 233.989262 -202.286015 
L 236.04731 -200.518225 
L 238.105359 -198.726722 
L 240.163408 -196.911012 
L 242.221456 -195.074478 
L 244.279505 -193.224503 
L 246.337553 -191.372209 
L 248.395602 -189.531889 
L 250.45365 -187.720145 
L 252.511699 -185.954873 
L 254.569747 -184.254153 
L 256.627796 -182.635166 
L 258.685844 -181.113229 
L 260.743893 -179.701003 
L 262.801941 -178.407937 
L 264.85999 -177.239959 
L 266.918038 -176.199415 
L 268.976087 -175.285243 
L 271.034135 -174.49332 
L 273.092184 -173.816958 
L 275.150232 -173.247478 
L 277.208281 -172.774822 
L 279.266329 -172.388142 
L 279.266329 -169.755858 
L 279.266329 -169.755858 
L 277.208281 -169.369178 
L 275.150232 -168.896522 
L 273.092184 -168.327042 
L 271.034135 -167.65068 
L 268.976087 -166.858757 
L 266.918038 -165.944585 
L 264.85999 -164.904041 
L 262.801941 -163.736063 
L 260.743893 -162.442997 
L 258.685844 -161.030771 
L 256.627796 -159.508834 
L 254.569747 -157.889847 
L 252.511699 -156.189127 
L 250.45365 -154.423855 
L 248.395602 -152.612111 
L 246.337553 -150.771791 
L 244.279505 -148.919497 
L 242.221456 -147.069522 
L 240.163408 -145.232988 
L 238.105359 -143.417278 
L 236.04731 -141.625775 
L 233.989262 -139.857985 
L 231.931213 -138.109999 
L 229.873165 -136.37526 
L 227.815116 -134.645528 
L 225.757068 -132.911932 
L 223.699019 -131.165955 
L 221.640971 -129.40023 
L 219.582922 -127.609023 
L 217.524874 -125.788349 
L 215.466825 -123.935685 
L 213.408777 -122.049331 
L 211.350728 -120.127492 
L 209.29268 -118.167236 
L 207.234631 -116.163449 
L 205.176583 -114.107974 
L 203.118534 -111.989056 
L 201.060486 -109.791225 
L 199.002437 -107.495677 
L 196.944389 -105.081198 
L 194.88634 -102.525609 
L 192.828291 -99.807686 
L 190.770243 -96.909448 
L 188.712194 -93.818691 
L 186.654146 -90.531589 
L 184.596097 -87.055162 
L 182.538049 -83.40938 
L 180.48 -79.628665 
L 178.421952 -75.762557 
L 176.363903 -71.875332 
L 174.305855 -68.044467 
L 172.247806 -64.357893 
L 170.189758 -60.910142 
L 168.131709 -57.797608 
L 166.073661 -55.113269 
L 164.015612 -52.941315 
L 161.957564 -51.352175 
L 159.899515 -50.398429 
L 157.841467 -50.112 
L 155.783418 -50.502904 
L 153.72537 -51.559648 
L 151.667321 -53.251192 
L 149.609273 -55.530183 
L 147.551224 -58.337082 
L 145.493175 -61.60468 
L 143.435127 -65.262519 
L 141.377078 -69.240797 
L 139.31903 -73.473434 
L 137.260981 -77.900133 
L 135.202933 -82.467433 
L 133.144884 -87.128849 
L 131.086836 -91.844346 
L 129.028787 -96.579374 
L 126.970739 -101.30375 
L 124.91269 -105.990589 
L 122.854642 -110.615437 
L 120.796593 -115.155678 
L 118.738545 -119.590209 
L 116.680496 -123.899348 
L 114.622448 -128.064877 
L 112.564399 -132.070161 
L 110.506351 -135.900268 
L 108.448302 -139.542067 
L 106.390254 -142.984277 
L 104.332205 -146.217506 
L 102.274156 -149.234287 
L 100.216108 -152.029136 
L 98.158059 -154.598647 
L 96.100011 -156.941627 
L 94.041962 -159.059228 
L 91.983914 -160.95507 
L 89.925865 -162.635293 
L 87.867817 -164.108526 
L 85.809768 -165.385735 
L 83.75172 -166.47995 
L 81.693671 -167.405881 
L 79.635623 -168.179446 
L 77.577574 -168.817251 
L 75.519526 -169.336054 
z
" id="m8d56927498" style="stroke:#262626;stroke-opacity:0.5;stroke-width:1.5;"/>
    </defs>
    <g clip-path="url(#p0335b0721c)">
     <use style="fill:#107010;fill-opacity:0.5;stroke:#262626;stroke-opacity:0.5;stroke-width:1.5;" x="0" xlink:href="#m8d56927498" y="345.6"/>
    </g>
   </g>
   <g id="matplotlib.axis_1">
    <g id="xtick_1">
     <g id="line2d_1">
      <defs>
       <path d="M 0 0 
L 0 3.5 
" id="m794e3ae19a" style="stroke:#000000;stroke-width:0.8;"/>
      </defs>
      <g>
       <use style="stroke:#000000;stroke-width:0.8;" x="82.764059" xlink:href="#m794e3ae19a" y="307.584"/>
      </g>
     </g>
     <g id="text_1">
      <!-- 0 -->
      <defs>
       <path d="M 31.78125 66.40625 
Q 24.171875 66.40625 20.328125 58.90625 
Q 16.5 51.421875 16.5 36.375 
Q 16.5 21.390625 20.328125 13.890625 
Q 24.171875 6.390625 31.78125 6.390625 
Q 39.453125 6.390625 43.28125 13.890625 
Q 47.125 21.390625 47.125 36.375 
Q 47.125 51.421875 43.28125 58.90625 
Q 39.453125 66.40625 31.78125 66.40625 
z
M 31.78125 74.21875 
Q 44.046875 74.21875 50.515625 64.515625 
Q 56.984375 54.828125 56.984375 36.375 
Q 56.984375 17.96875 50.515625 8.265625 
Q 44.046875 -1.421875 31.78125 -1.421875 
Q 19.53125 -1.421875 13.0625 8.265625 
Q 6.59375 17.96875 6.59375 36.375 
Q 6.59375 54.828125 13.0625 64.515625 
Q 19.53125 74.21875 31.78125 74.21875 
z
" id="DejaVuSans-48"/>
      </defs>
      <g transform="translate(79.582809 322.182437)scale(0.1 -0.1)">
       <use xlink:href="#DejaVuSans-48"/>
      </g>
     </g>
    </g>
    <g id="xtick_2">
     <g id="line2d_2">
      <g>
       <use style="stroke:#000000;stroke-width:0.8;" x="159.886201" xlink:href="#m794e3ae19a" y="307.584"/>
      </g>
     </g>
     <g id="text_2">
      <!-- 500 -->
      <defs>
       <path d="M 10.796875 72.90625 
L 49.515625 72.90625 
L 49.515625 64.59375 
L 19.828125 64.59375 
L 19.828125 46.734375 
Q 21.96875 47.46875 24.109375 47.828125 
Q 26.265625 48.1875 28.421875 48.1875 
Q 40.625 48.1875 47.75 41.5 
Q 54.890625 34.8125 54.890625 23.390625 
Q 54.890625 11.625 47.5625 5.09375 
Q 40.234375 -1.421875 26.90625 -1.421875 
Q 22.3125 -1.421875 17.546875 -0.640625 
Q 12.796875 0.140625 7.71875 1.703125 
L 7.71875 11.625 
Q 12.109375 9.234375 16.796875 8.0625 
Q 21.484375 6.890625 26.703125 6.890625 
Q 35.15625 6.890625 40.078125 11.328125 
Q 45.015625 15.765625 45.015625 23.390625 
Q 45.015625 31 40.078125 35.4375 
Q 35.15625 39.890625 26.703125 39.890625 
Q 22.75 39.890625 18.8125 39.015625 
Q 14.890625 38.140625 10.796875 36.28125 
z
" id="DejaVuSans-53"/>
      </defs>
      <g transform="translate(150.342451 322.182437)scale(0.1 -0.1)">
       <use xlink:href="#DejaVuSans-53"/>
       <use x="63.623047" xlink:href="#DejaVuSans-48"/>
       <use x="127.246094" xlink:href="#DejaVuSans-48"/>
      </g>
     </g>
    </g>
    <g id="xtick_3">
     <g id="line2d_3">
      <g>
       <use style="stroke:#000000;stroke-width:0.8;" x="237.008344" xlink:href="#m794e3ae19a" y="307.584"/>
      </g>
     </g>
     <g id="text_3">
      <!-- 1000 -->
      <defs>
       <path d="M 12.40625 8.296875 
L 28.515625 8.296875 
L 28.515625 63.921875 
L 10.984375 60.40625 
L 10.984375 69.390625 
L 28.421875 72.90625 
L 38.28125 72.90625 
L 38.28125 8.296875 
L 54.390625 8.296875 
L 54.390625 0 
L 12.40625 0 
z
" id="DejaVuSans-49"/>
      </defs>
      <g transform="translate(224.283344 322.182437)scale(0.1 -0.1)">
       <use xlink:href="#DejaVuSans-49"/>
       <use x="63.623047" xlink:href="#DejaVuSans-48"/>
       <use x="127.246094" xlink:href="#DejaVuSans-48"/>
       <use x="190.869141" xlink:href="#DejaVuSans-48"/>
      </g>
     </g>
    </g>
    <g id="xtick_4">
     <g id="line2d_4">
      <g>
       <use style="stroke:#000000;stroke-width:0.8;" x="314.130486" xlink:href="#m794e3ae19a" y="307.584"/>
      </g>
     </g>
     <g id="text_4">
      <!-- 1500 -->
      <g transform="translate(301.405486 322.182437)scale(0.1 -0.1)">
       <use xlink:href="#DejaVuSans-49"/>
       <use x="63.623047" xlink:href="#DejaVuSans-53"/>
       <use x="127.246094" xlink:href="#DejaVuSans-48"/>
       <use x="190.869141" xlink:href="#DejaVuSans-48"/>
      </g>
     </g>
    </g>
    <g id="xtick_5">
     <g id="line2d_5">
      <g>
       <use style="stroke:#000000;stroke-width:0.8;" x="391.252628" xlink:href="#m794e3ae19a" y="307.584"/>
      </g>
     </g>
     <g id="text_5">
      <!-- 2000 -->
      <defs>
       <path d="M 19.1875 8.296875 
L 53.609375 8.296875 
L 53.609375 0 
L 7.328125 0 
L 7.328125 8.296875 
Q 12.9375 14.109375 22.625 23.890625 
Q 32.328125 33.6875 34.8125 36.53125 
Q 39.546875 41.84375 41.421875 45.53125 
Q 43.3125 49.21875 43.3125 52.78125 
Q 43.3125 58.59375 39.234375 62.25 
Q 35.15625 65.921875 28.609375 65.921875 
Q 23.96875 65.921875 18.8125 64.3125 
Q 13.671875 62.703125 7.8125 59.421875 
L 7.8125 69.390625 
Q 13.765625 71.78125 18.9375 73 
Q 24.125 74.21875 28.421875 74.21875 
Q 39.75 74.21875 46.484375 68.546875 
Q 53.21875 62.890625 53.21875 53.421875 
Q 53.21875 48.921875 51.53125 44.890625 
Q 49.859375 40.875 45.40625 35.40625 
Q 44.1875 33.984375 37.640625 27.21875 
Q 31.109375 20.453125 19.1875 8.296875 
z
" id="DejaVuSans-50"/>
      </defs>
      <g transform="translate(378.527628 322.182437)scale(0.1 -0.1)">
       <use xlink:href="#DejaVuSans-50"/>
       <use x="63.623047" xlink:href="#DejaVuSans-48"/>
       <use x="127.246094" xlink:href="#DejaVuSans-48"/>
       <use x="190.869141" xlink:href="#DejaVuSans-48"/>
      </g>
     </g>
    </g>
    <g id="text_6">
     <!-- fibrinopeakac -->
     <defs>
      <path d="M 37.109375 75.984375 
L 37.109375 68.5 
L 28.515625 68.5 
Q 23.6875 68.5 21.796875 66.546875 
Q 19.921875 64.59375 19.921875 59.515625 
L 19.921875 54.6875 
L 34.71875 54.6875 
L 34.71875 47.703125 
L 19.921875 47.703125 
L 19.921875 0 
L 10.890625 0 
L 10.890625 47.703125 
L 2.296875 47.703125 
L 2.296875 54.6875 
L 10.890625 54.6875 
L 10.890625 58.5 
Q 10.890625 67.625 15.140625 71.796875 
Q 19.390625 75.984375 28.609375 75.984375 
z
" id="DejaVuSans-102"/>
      <path d="M 9.421875 54.6875 
L 18.40625 54.6875 
L 18.40625 0 
L 9.421875 0 
z
M 9.421875 75.984375 
L 18.40625 75.984375 
L 18.40625 64.59375 
L 9.421875 64.59375 
z
" id="DejaVuSans-105"/>
      <path d="M 48.6875 27.296875 
Q 48.6875 37.203125 44.609375 42.84375 
Q 40.53125 48.484375 33.40625 48.484375 
Q 26.265625 48.484375 22.1875 42.84375 
Q 18.109375 37.203125 18.109375 27.296875 
Q 18.109375 17.390625 22.1875 11.75 
Q 26.265625 6.109375 33.40625 6.109375 
Q 40.53125 6.109375 44.609375 11.75 
Q 48.6875 17.390625 48.6875 27.296875 
z
M 18.109375 46.390625 
Q 20.953125 51.265625 25.265625 53.625 
Q 29.59375 56 35.59375 56 
Q 45.5625 56 51.78125 48.09375 
Q 58.015625 40.1875 58.015625 27.296875 
Q 58.015625 14.40625 51.78125 6.484375 
Q 45.5625 -1.421875 35.59375 -1.421875 
Q 29.59375 -1.421875 25.265625 0.953125 
Q 20.953125 3.328125 18.109375 8.203125 
L 18.109375 0 
L 9.078125 0 
L 9.078125 75.984375 
L 18.109375 75.984375 
z
" id="DejaVuSans-98"/>
      <path d="M 41.109375 46.296875 
Q 39.59375 47.171875 37.8125 47.578125 
Q 36.03125 48 33.890625 48 
Q 26.265625 48 22.1875 43.046875 
Q 18.109375 38.09375 18.109375 28.8125 
L 18.109375 0 
L 9.078125 0 
L 9.078125 54.6875 
L 18.109375 54.6875 
L 18.109375 46.1875 
Q 20.953125 51.171875 25.484375 53.578125 
Q 30.03125 56 36.53125 56 
Q 37.453125 56 38.578125 55.875 
Q 39.703125 55.765625 41.0625 55.515625 
z
" id="DejaVuSans-114"/>
      <path d="M 54.890625 33.015625 
L 54.890625 0 
L 45.90625 0 
L 45.90625 32.71875 
Q 45.90625 40.484375 42.875 44.328125 
Q 39.84375 48.1875 33.796875 48.1875 
Q 26.515625 48.1875 22.3125 43.546875 
Q 18.109375 38.921875 18.109375 30.90625 
L 18.109375 0 
L 9.078125 0 
L 9.078125 54.6875 
L 18.109375 54.6875 
L 18.109375 46.1875 
Q 21.34375 51.125 25.703125 53.5625 
Q 30.078125 56 35.796875 56 
Q 45.21875 56 50.046875 50.171875 
Q 54.890625 44.34375 54.890625 33.015625 
z
" id="DejaVuSans-110"/>
      <path d="M 30.609375 48.390625 
Q 23.390625 48.390625 19.1875 42.75 
Q 14.984375 37.109375 14.984375 27.296875 
Q 14.984375 17.484375 19.15625 11.84375 
Q 23.34375 6.203125 30.609375 6.203125 
Q 37.796875 6.203125 41.984375 11.859375 
Q 46.1875 17.53125 46.1875 27.296875 
Q 46.1875 37.015625 41.984375 42.703125 
Q 37.796875 48.390625 30.609375 48.390625 
z
M 30.609375 56 
Q 42.328125 56 49.015625 48.375 
Q 55.71875 40.765625 55.71875 27.296875 
Q 55.71875 13.875 49.015625 6.21875 
Q 42.328125 -1.421875 30.609375 -1.421875 
Q 18.84375 -1.421875 12.171875 6.21875 
Q 5.515625 13.875 5.515625 27.296875 
Q 5.515625 40.765625 12.171875 48.375 
Q 18.84375 56 30.609375 56 
z
" id="DejaVuSans-111"/>
      <path d="M 18.109375 8.203125 
L 18.109375 -20.796875 
L 9.078125 -20.796875 
L 9.078125 54.6875 
L 18.109375 54.6875 
L 18.109375 46.390625 
Q 20.953125 51.265625 25.265625 53.625 
Q 29.59375 56 35.59375 56 
Q 45.5625 56 51.78125 48.09375 
Q 58.015625 40.1875 58.015625 27.296875 
Q 58.015625 14.40625 51.78125 6.484375 
Q 45.5625 -1.421875 35.59375 -1.421875 
Q 29.59375 -1.421875 25.265625 0.953125 
Q 20.953125 3.328125 18.109375 8.203125 
z
M 48.6875 27.296875 
Q 48.6875 37.203125 44.609375 42.84375 
Q 40.53125 48.484375 33.40625 48.484375 
Q 26.265625 48.484375 22.1875 42.84375 
Q 18.109375 37.203125 18.109375 27.296875 
Q 18.109375 17.390625 22.1875 11.75 
Q 26.265625 6.109375 33.40625 6.109375 
Q 40.53125 6.109375 44.609375 11.75 
Q 48.6875 17.390625 48.6875 27.296875 
z
" id="DejaVuSans-112"/>
      <path d="M 56.203125 29.59375 
L 56.203125 25.203125 
L 14.890625 25.203125 
Q 15.484375 15.921875 20.484375 11.0625 
Q 25.484375 6.203125 34.421875 6.203125 
Q 39.59375 6.203125 44.453125 7.46875 
Q 49.3125 8.734375 54.109375 11.28125 
L 54.109375 2.78125 
Q 49.265625 0.734375 44.1875 -0.34375 
Q 39.109375 -1.421875 33.890625 -1.421875 
Q 20.796875 -1.421875 13.15625 6.1875 
Q 5.515625 13.8125 5.515625 26.8125 
Q 5.515625 40.234375 12.765625 48.109375 
Q 20.015625 56 32.328125 56 
Q 43.359375 56 49.78125 48.890625 
Q 56.203125 41.796875 56.203125 29.59375 
z
M 47.21875 32.234375 
Q 47.125 39.59375 43.09375 43.984375 
Q 39.0625 48.390625 32.421875 48.390625 
Q 24.90625 48.390625 20.390625 44.140625 
Q 15.875 39.890625 15.1875 32.171875 
z
" id="DejaVuSans-101"/>
      <path d="M 34.28125 27.484375 
Q 23.390625 27.484375 19.1875 25 
Q 14.984375 22.515625 14.984375 16.5 
Q 14.984375 11.71875 18.140625 8.90625 
Q 21.296875 6.109375 26.703125 6.109375 
Q 34.1875 6.109375 38.703125 11.40625 
Q 43.21875 16.703125 43.21875 25.484375 
L 43.21875 27.484375 
z
M 52.203125 31.203125 
L 52.203125 0 
L 43.21875 0 
L 43.21875 8.296875 
Q 40.140625 3.328125 35.546875 0.953125 
Q 30.953125 -1.421875 24.3125 -1.421875 
Q 15.921875 -1.421875 10.953125 3.296875 
Q 6 8.015625 6 15.921875 
Q 6 25.140625 12.171875 29.828125 
Q 18.359375 34.515625 30.609375 34.515625 
L 43.21875 34.515625 
L 43.21875 35.40625 
Q 43.21875 41.609375 39.140625 45 
Q 35.0625 48.390625 27.6875 48.390625 
Q 23 48.390625 18.546875 47.265625 
Q 14.109375 46.140625 10.015625 43.890625 
L 10.015625 52.203125 
Q 14.9375 54.109375 19.578125 55.046875 
Q 24.21875 56 28.609375 56 
Q 40.484375 56 46.34375 49.84375 
Q 52.203125 43.703125 52.203125 31.203125 
z
" id="DejaVuSans-97"/>
      <path d="M 9.078125 75.984375 
L 18.109375 75.984375 
L 18.109375 31.109375 
L 44.921875 54.6875 
L 56.390625 54.6875 
L 27.390625 29.109375 
L 57.625 0 
L 45.90625 0 
L 18.109375 26.703125 
L 18.109375 0 
L 9.078125 0 
z
" id="DejaVuSans-107"/>
      <path d="M 48.78125 52.59375 
L 48.78125 44.1875 
Q 44.96875 46.296875 41.140625 47.34375 
Q 37.3125 48.390625 33.40625 48.390625 
Q 24.65625 48.390625 19.8125 42.84375 
Q 14.984375 37.3125 14.984375 27.296875 
Q 14.984375 17.28125 19.8125 11.734375 
Q 24.65625 6.203125 33.40625 6.203125 
Q 37.3125 6.203125 41.140625 7.25 
Q 44.96875 8.296875 48.78125 10.40625 
L 48.78125 2.09375 
Q 45.015625 0.34375 40.984375 -0.53125 
Q 36.96875 -1.421875 32.421875 -1.421875 
Q 20.0625 -1.421875 12.78125 6.34375 
Q 5.515625 14.109375 5.515625 27.296875 
Q 5.515625 40.671875 12.859375 48.328125 
Q 20.21875 56 33.015625 56 
Q 37.15625 56 41.109375 55.140625 
Q 45.0625 54.296875 48.78125 52.59375 
z
" id="DejaVuSans-99"/>
     </defs>
     <g transform="translate(202.227969 335.860562)scale(0.1 -0.1)">
      <use xlink:href="#DejaVuSans-102"/>
      <use x="35.205078" xlink:href="#DejaVuSans-105"/>
      <use x="62.988281" xlink:href="#DejaVuSans-98"/>
      <use x="126.464844" xlink:href="#DejaVuSans-114"/>
      <use x="167.578125" xlink:href="#DejaVuSans-105"/>
      <use x="195.361328" xlink:href="#DejaVuSans-110"/>
      <use x="258.740234" xlink:href="#DejaVuSans-111"/>
      <use x="319.921875" xlink:href="#DejaVuSans-112"/>
      <use x="383.398438" xlink:href="#DejaVuSans-101"/>
      <use x="444.921875" xlink:href="#DejaVuSans-97"/>
      <use x="506.201172" xlink:href="#DejaVuSans-107"/>
      <use x="562.361328" xlink:href="#DejaVuSans-97"/>
      <use x="623.640625" xlink:href="#DejaVuSans-99"/>
     </g>
    </g>
   </g>
   <g id="matplotlib.axis_2">
    <g id="ytick_1">
     <g id="line2d_6">
      <defs>
       <path d="M 0 0 
L -3.5 0 
" id="mf8173aaf0a" style="stroke:#000000;stroke-width:0.8;"/>
      </defs>
      <g>
       <use style="stroke:#000000;stroke-width:0.8;" x="57.6" xlink:href="#mf8173aaf0a" y="174.528"/>
      </g>
     </g>
    </g>
   </g>
   <g id="line2d_7">
    <path clip-path="url(#p0335b0721c)" d="M 111.916229 174.528 
L 253.820971 174.528 
" style="fill:none;stroke:#ffa500;stroke-linecap:square;stroke-width:1.5;"/>
   </g>
   <g id="line2d_8">
    <path clip-path="url(#p0335b0721c)" d="M 166.055973 174.528 
L 208.473151 174.528 
" style="fill:none;stroke:#4c4c4c;stroke-linecap:square;stroke-width:4.5;"/>
   </g>
   <g id="line2d_9">
    <path clip-path="url(#p0335b0721c)" d="M 109.44832 174.528 
L 245.337535 174.528 
" style="fill:none;stroke:#008000;stroke-linecap:square;stroke-width:1.5;"/>
   </g>
   <g id="line2d_10">
    <path clip-path="url(#p0335b0721c)" d="M 148.626368 174.528 
L 187.457367 174.528 
" style="fill:none;stroke:#262626;stroke-linecap:square;stroke-width:4.5;"/>
   </g>
   <g id="patch_3">
    <path d="M 57.6 307.584 
L 57.6 41.472 
" style="fill:none;stroke:#000000;stroke-linecap:square;stroke-linejoin:miter;stroke-width:0.8;"/>
   </g>
   <g id="patch_4">
    <path d="M 414.72 307.584 
L 414.72 41.472 
" style="fill:none;stroke:#000000;stroke-linecap:square;stroke-linejoin:miter;stroke-width:0.8;"/>
   </g>
   <g id="patch_5">
    <path d="M 57.6 307.584 
L 414.72 307.584 
" style="fill:none;stroke:#000000;stroke-linecap:square;stroke-linejoin:miter;stroke-width:0.8;"/>
   </g>
   <g id="patch_6">
    <path d="M 57.6 41.472 
L 414.72 41.472 
" style="fill:none;stroke:#000000;stroke-linecap:square;stroke-linejoin:miter;stroke-width:0.8;"/>
   </g>
   <g id="PathCollection_1">
    <defs>
     <path d="M 0 1.5 
C 0.397805 1.5 0.77937 1.341951 1.06066 1.06066 
C 1.341951 0.77937 1.5 0.397805 1.5 0 
C 1.5 -0.397805 1.341951 -0.77937 1.06066 -1.06066 
C 0.77937 -1.341951 0.397805 -1.5 0 -1.5 
C -0.397805 -1.5 -0.77937 -1.341951 -1.06066 -1.06066 
C -1.341951 -0.77937 -1.5 -0.397805 -1.5 0 
C -1.5 0.397805 -1.341951 0.77937 -1.06066 1.06066 
C -0.77937 1.341951 -0.397805 1.5 0 1.5 
z
" id="m145147653d" style="stroke:#4c4c4c;stroke-opacity:0.5;"/>
    </defs>
    <g clip-path="url(#p0335b0721c)">
     <use style="fill:#ffffff;fill-opacity:0.5;stroke:#4c4c4c;stroke-opacity:0.5;" x="186.416218" xlink:href="#m145147653d" y="174.528"/>
    </g>
   </g>
   <g id="PathCollection_2">
    <defs>
     <path d="M 0 1.5 
C 0.397805 1.5 0.77937 1.341951 1.06066 1.06066 
C 1.341951 0.77937 1.5 0.397805 1.5 0 
C 1.5 -0.397805 1.341951 -0.77937 1.06066 -1.06066 
C 0.77937 -1.341951 0.397805 -1.5 0 -1.5 
C -0.397805 -1.5 -0.77937 -1.341951 -1.06066 -1.06066 
C -1.341951 -0.77937 -1.5 -0.397805 -1.5 0 
C -1.5 0.397805 -1.341951 0.77937 -1.06066 1.06066 
C -0.77937 1.341951 -0.397805 1.5 0 1.5 
z
" id="m361ac796cf" style="stroke:#262626;stroke-opacity:0.5;"/>
    </defs>
    <g clip-path="url(#p0335b0721c)">
     <use style="fill:#ffffff;fill-opacity:0.5;stroke:#262626;stroke-opacity:0.5;" x="161.660011" xlink:href="#m361ac796cf" y="174.528"/>
    </g>
   </g>
   <g id="text_7">
    <!-- Association of fibrinopeakac vs. ards -->
    <defs>
     <path d="M 34.1875 63.1875 
L 20.796875 26.90625 
L 47.609375 26.90625 
z
M 28.609375 72.90625 
L 39.796875 72.90625 
L 67.578125 0 
L 57.328125 0 
L 50.6875 18.703125 
L 17.828125 18.703125 
L 11.1875 0 
L 0.78125 0 
z
" id="DejaVuSans-65"/>
     <path d="M 44.28125 53.078125 
L 44.28125 44.578125 
Q 40.484375 46.53125 36.375 47.5 
Q 32.28125 48.484375 27.875 48.484375 
Q 21.1875 48.484375 17.84375 46.4375 
Q 14.5 44.390625 14.5 40.28125 
Q 14.5 37.15625 16.890625 35.375 
Q 19.28125 33.59375 26.515625 31.984375 
L 29.59375 31.296875 
Q 39.15625 29.25 43.1875 25.515625 
Q 47.21875 21.78125 47.21875 15.09375 
Q 47.21875 7.46875 41.1875 3.015625 
Q 35.15625 -1.421875 24.609375 -1.421875 
Q 20.21875 -1.421875 15.453125 -0.5625 
Q 10.6875 0.296875 5.421875 2 
L 5.421875 11.28125 
Q 10.40625 8.6875 15.234375 7.390625 
Q 20.0625 6.109375 24.8125 6.109375 
Q 31.15625 6.109375 34.5625 8.28125 
Q 37.984375 10.453125 37.984375 14.40625 
Q 37.984375 18.0625 35.515625 20.015625 
Q 33.0625 21.96875 24.703125 23.78125 
L 21.578125 24.515625 
Q 13.234375 26.265625 9.515625 29.90625 
Q 5.8125 33.546875 5.8125 39.890625 
Q 5.8125 47.609375 11.28125 51.796875 
Q 16.75 56 26.8125 56 
Q 31.78125 56 36.171875 55.265625 
Q 40.578125 54.546875 44.28125 53.078125 
z
" id="DejaVuSans-115"/>
     <path d="M 18.3125 70.21875 
L 18.3125 54.6875 
L 36.8125 54.6875 
L 36.8125 47.703125 
L 18.3125 47.703125 
L 18.3125 18.015625 
Q 18.3125 11.328125 20.140625 9.421875 
Q 21.96875 7.515625 27.59375 7.515625 
L 36.8125 7.515625 
L 36.8125 0 
L 27.59375 0 
Q 17.1875 0 13.234375 3.875 
Q 9.28125 7.765625 9.28125 18.015625 
L 9.28125 47.703125 
L 2.6875 47.703125 
L 2.6875 54.6875 
L 9.28125 54.6875 
L 9.28125 70.21875 
z
" id="DejaVuSans-116"/>
     <path id="DejaVuSans-32"/>
     <path d="M 2.984375 54.6875 
L 12.5 54.6875 
L 29.59375 8.796875 
L 46.6875 54.6875 
L 56.203125 54.6875 
L 35.6875 0 
L 23.484375 0 
z
" id="DejaVuSans-118"/>
     <path d="M 10.6875 12.40625 
L 21 12.40625 
L 21 0 
L 10.6875 0 
z
" id="DejaVuSans-46"/>
     <path d="M 45.40625 46.390625 
L 45.40625 75.984375 
L 54.390625 75.984375 
L 54.390625 0 
L 45.40625 0 
L 45.40625 8.203125 
Q 42.578125 3.328125 38.25 0.953125 
Q 33.9375 -1.421875 27.875 -1.421875 
Q 17.96875 -1.421875 11.734375 6.484375 
Q 5.515625 14.40625 5.515625 27.296875 
Q 5.515625 40.1875 11.734375 48.09375 
Q 17.96875 56 27.875 56 
Q 33.9375 56 38.25 53.625 
Q 42.578125 51.265625 45.40625 46.390625 
z
M 14.796875 27.296875 
Q 14.796875 17.390625 18.875 11.75 
Q 22.953125 6.109375 30.078125 6.109375 
Q 37.203125 6.109375 41.296875 11.75 
Q 45.40625 17.390625 45.40625 27.296875 
Q 45.40625 37.203125 41.296875 42.84375 
Q 37.203125 48.484375 30.078125 48.484375 
Q 22.953125 48.484375 18.875 42.84375 
Q 14.796875 37.203125 14.796875 27.296875 
z
" id="DejaVuSans-100"/>
    </defs>
    <g transform="translate(126.31125 35.472)scale(0.12 -0.12)">
     <use xlink:href="#DejaVuSans-65"/>
     <use x="68.408203" xlink:href="#DejaVuSans-115"/>
     <use x="120.507812" xlink:href="#DejaVuSans-115"/>
     <use x="172.607422" xlink:href="#DejaVuSans-111"/>
     <use x="233.789062" xlink:href="#DejaVuSans-99"/>
     <use x="288.769531" xlink:href="#DejaVuSans-105"/>
     <use x="316.552734" xlink:href="#DejaVuSans-97"/>
     <use x="377.832031" xlink:href="#DejaVuSans-116"/>
     <use x="417.041016" xlink:href="#DejaVuSans-105"/>
     <use x="444.824219" xlink:href="#DejaVuSans-111"/>
     <use x="506.005859" xlink:href="#DejaVuSans-110"/>
     <use x="569.384766" xlink:href="#DejaVuSans-32"/>
     <use x="601.171875" xlink:href="#DejaVuSans-111"/>
     <use x="662.353516" xlink:href="#DejaVuSans-102"/>
     <use x="697.558594" xlink:href="#DejaVuSans-32"/>
     <use x="729.345703" xlink:href="#DejaVuSans-102"/>
     <use x="764.550781" xlink:href="#DejaVuSans-105"/>
     <use x="792.333984" xlink:href="#DejaVuSans-98"/>
     <use x="855.810547" xlink:href="#DejaVuSans-114"/>
     <use x="896.923828" xlink:href="#DejaVuSans-105"/>
     <use x="924.707031" xlink:href="#DejaVuSans-110"/>
     <use x="988.085938" xlink:href="#DejaVuSans-111"/>
     <use x="1049.267578" xlink:href="#DejaVuSans-112"/>
     <use x="1112.744141" xlink:href="#DejaVuSans-101"/>
     <use x="1174.267578" xlink:href="#DejaVuSans-97"/>
     <use x="1235.546875" xlink:href="#DejaVuSans-107"/>
     <use x="1291.707031" xlink:href="#DejaVuSans-97"/>
     <use x="1352.986328" xlink:href="#DejaVuSans-99"/>
     <use x="1407.966797" xlink:href="#DejaVuSans-32"/>
     <use x="1439.753906" xlink:href="#DejaVuSans-118"/>
     <use x="1498.933594" xlink:href="#DejaVuSans-115"/>
     <use x="1551.033203" xlink:href="#DejaVuSans-46"/>
     <use x="1582.820312" xlink:href="#DejaVuSans-32"/>
     <use x="1614.607422" xlink:href="#DejaVuSans-97"/>
     <use x="1675.886719" xlink:href="#DejaVuSans-114"/>
     <use x="1715.25" xlink:href="#DejaVuSans-100"/>
     <use x="1778.726562" xlink:href="#DejaVuSans-115"/>
    </g>
   </g>
   <g id="legend_1">
    <g id="patch_7">
     <path d="M 309.693438 78.82825 
L 407.72 78.82825 
Q 409.72 78.82825 409.72 76.82825 
L 409.72 48.472 
Q 409.72 46.472 407.72 46.472 
L 309.693438 46.472 
Q 307.693438 46.472 307.693438 48.472 
L 307.693438 76.82825 
Q 307.693438 78.82825 309.693438 78.82825 
z
" style="fill:#ffffff;opacity:0.8;stroke:#cccccc;stroke-linejoin:miter;"/>
    </g>
    <g id="line2d_11">
     <path d="M 311.693438 54.570437 
L 331.693438 54.570437 
" style="fill:none;stroke:#ffa500;stroke-linecap:square;stroke-width:1.5;"/>
    </g>
    <g id="line2d_12"/>
    <g id="text_8">
     <!-- ards (39) -->
     <defs>
      <path d="M 31 75.875 
Q 24.46875 64.65625 21.28125 53.65625 
Q 18.109375 42.671875 18.109375 31.390625 
Q 18.109375 20.125 21.3125 9.0625 
Q 24.515625 -2 31 -13.1875 
L 23.1875 -13.1875 
Q 15.875 -1.703125 12.234375 9.375 
Q 8.59375 20.453125 8.59375 31.390625 
Q 8.59375 42.28125 12.203125 53.3125 
Q 15.828125 64.359375 23.1875 75.875 
z
" id="DejaVuSans-40"/>
      <path d="M 40.578125 39.3125 
Q 47.65625 37.796875 51.625 33 
Q 55.609375 28.21875 55.609375 21.1875 
Q 55.609375 10.40625 48.1875 4.484375 
Q 40.765625 -1.421875 27.09375 -1.421875 
Q 22.515625 -1.421875 17.65625 -0.515625 
Q 12.796875 0.390625 7.625 2.203125 
L 7.625 11.71875 
Q 11.71875 9.328125 16.59375 8.109375 
Q 21.484375 6.890625 26.8125 6.890625 
Q 36.078125 6.890625 40.9375 10.546875 
Q 45.796875 14.203125 45.796875 21.1875 
Q 45.796875 27.640625 41.28125 31.265625 
Q 36.765625 34.90625 28.71875 34.90625 
L 20.21875 34.90625 
L 20.21875 43.015625 
L 29.109375 43.015625 
Q 36.375 43.015625 40.234375 45.921875 
Q 44.09375 48.828125 44.09375 54.296875 
Q 44.09375 59.90625 40.109375 62.90625 
Q 36.140625 65.921875 28.71875 65.921875 
Q 24.65625 65.921875 20.015625 65.03125 
Q 15.375 64.15625 9.8125 62.3125 
L 9.8125 71.09375 
Q 15.4375 72.65625 20.34375 73.4375 
Q 25.25 74.21875 29.59375 74.21875 
Q 40.828125 74.21875 47.359375 69.109375 
Q 53.90625 64.015625 53.90625 55.328125 
Q 53.90625 49.265625 50.4375 45.09375 
Q 46.96875 40.921875 40.578125 39.3125 
z
" id="DejaVuSans-51"/>
      <path d="M 10.984375 1.515625 
L 10.984375 10.5 
Q 14.703125 8.734375 18.5 7.8125 
Q 22.3125 6.890625 25.984375 6.890625 
Q 35.75 6.890625 40.890625 13.453125 
Q 46.046875 20.015625 46.78125 33.40625 
Q 43.953125 29.203125 39.59375 26.953125 
Q 35.25 24.703125 29.984375 24.703125 
Q 19.046875 24.703125 12.671875 31.3125 
Q 6.296875 37.9375 6.296875 49.421875 
Q 6.296875 60.640625 12.9375 67.421875 
Q 19.578125 74.21875 30.609375 74.21875 
Q 43.265625 74.21875 49.921875 64.515625 
Q 56.59375 54.828125 56.59375 36.375 
Q 56.59375 19.140625 48.40625 8.859375 
Q 40.234375 -1.421875 26.421875 -1.421875 
Q 22.703125 -1.421875 18.890625 -0.6875 
Q 15.09375 0.046875 10.984375 1.515625 
z
M 30.609375 32.421875 
Q 37.25 32.421875 41.125 36.953125 
Q 45.015625 41.5 45.015625 49.421875 
Q 45.015625 57.28125 41.125 61.84375 
Q 37.25 66.40625 30.609375 66.40625 
Q 23.96875 66.40625 20.09375 61.84375 
Q 16.21875 57.28125 16.21875 49.421875 
Q 16.21875 41.5 20.09375 36.953125 
Q 23.96875 32.421875 30.609375 32.421875 
z
" id="DejaVuSans-57"/>
      <path d="M 8.015625 75.875 
L 15.828125 75.875 
Q 23.140625 64.359375 26.78125 53.3125 
Q 30.421875 42.28125 30.421875 31.390625 
Q 30.421875 20.453125 26.78125 9.375 
Q 23.140625 -1.703125 15.828125 -13.1875 
L 8.015625 -13.1875 
Q 14.5 -2 17.703125 9.0625 
Q 20.90625 20.125 20.90625 31.390625 
Q 20.90625 42.671875 17.703125 53.65625 
Q 14.5 64.65625 8.015625 75.875 
z
" id="DejaVuSans-41"/>
     </defs>
     <g transform="translate(339.693438 58.070437)scale(0.1 -0.1)">
      <use xlink:href="#DejaVuSans-97"/>
      <use x="61.279297" xlink:href="#DejaVuSans-114"/>
      <use x="100.642578" xlink:href="#DejaVuSans-100"/>
      <use x="164.119141" xlink:href="#DejaVuSans-115"/>
      <use x="216.21875" xlink:href="#DejaVuSans-32"/>
      <use x="248.005859" xlink:href="#DejaVuSans-40"/>
      <use x="287.019531" xlink:href="#DejaVuSans-51"/>
      <use x="350.642578" xlink:href="#DejaVuSans-57"/>
      <use x="414.265625" xlink:href="#DejaVuSans-41"/>
     </g>
    </g>
    <g id="line2d_13">
     <path d="M 311.693438 69.248562 
L 331.693438 69.248562 
" style="fill:none;stroke:#008000;stroke-linecap:square;stroke-width:1.5;"/>
    </g>
    <g id="line2d_14"/>
    <g id="text_9">
     <!-- Not ards (32) -->
     <defs>
      <path d="M 9.8125 72.90625 
L 23.09375 72.90625 
L 55.421875 11.921875 
L 55.421875 72.90625 
L 64.984375 72.90625 
L 64.984375 0 
L 51.703125 0 
L 19.390625 60.984375 
L 19.390625 0 
L 9.8125 0 
z
" id="DejaVuSans-78"/>
     </defs>
     <g transform="translate(339.693438 72.748562)scale(0.1 -0.1)">
      <use xlink:href="#DejaVuSans-78"/>
      <use x="74.804688" xlink:href="#DejaVuSans-111"/>
      <use x="135.986328" xlink:href="#DejaVuSans-116"/>
      <use x="175.195312" xlink:href="#DejaVuSans-32"/>
      <use x="206.982422" xlink:href="#DejaVuSans-97"/>
      <use x="268.261719" xlink:href="#DejaVuSans-114"/>
      <use x="307.625" xlink:href="#DejaVuSans-100"/>
      <use x="371.101562" xlink:href="#DejaVuSans-115"/>
      <use x="423.201172" xlink:href="#DejaVuSans-32"/>
      <use x="454.988281" xlink:href="#DejaVuSans-40"/>
      <use x="494.001953" xlink:href="#DejaVuSans-51"/>
      <use x="557.625" xlink:href="#DejaVuSans-50"/>
      <use x="621.248047" xlink:href="#DejaVuSans-41"/>
     </g>
    </g>
   </g>
  </g>
 </g>
 <defs>
  <clipPath id="p0335b0721c">
   <rect height="266.112" width="357.12" x="57.6" y="41.472"/>
  </clipPath>
 </defs>
</svg>
