<?xml version="1.0" encoding="utf-8" standalone="no"?>
<!DOCTYPE svg PUBLIC "-//W3C//DTD SVG 1.1//EN"
  "http://www.w3.org/Graphics/SVG/1.1/DTD/svg11.dtd">
<!-- Created with matplotlib (https://matplotlib.org/) -->
<svg height="345.6pt" version="1.1" viewBox="0 0 460.8 345.6" width="460.8pt" xmlns="http://www.w3.org/2000/svg" xmlns:xlink="http://www.w3.org/1999/xlink">
 <defs>
  <style type="text/css">
*{stroke-linecap:butt;stroke-linejoin:round;}
  </style>
 </defs>
 <g id="figure_1">
  <g id="patch_1">
   <path d="M 0 345.6 
L 460.8 345.6 
L 460.8 0 
L 0 0 
z
" style="fill:#ffffff;"/>
  </g>
  <g id="axes_1">
   <g id="patch_2">
    <path d="M 57.6 307.584 
L 414.72 307.584 
L 414.72 41.472 
L 57.6 41.472 
z
" style="fill:#ffffff;"/>
   </g>
   <g id="PolyCollection_1">
    <defs>
     <path d="M 91.673042 -167.09895 
L 91.673042 -175.04505 
L 93.06005 -175.779553 
L 94.447058 -176.610956 
L 95.834066 -177.54413 
L 97.221074 -178.582732 
L 98.608082 -179.72899 
L 99.99509 -180.983531 
L 101.382098 -182.345257 
L 102.769106 -183.811309 
L 104.156114 -185.377111 
L 105.543122 -187.036517 
L 106.93013 -188.782056 
L 108.317138 -190.605294 
L 109.704146 -192.497276 
L 111.091154 -194.449063 
L 112.478163 -196.452316 
L 113.865171 -198.49991 
L 115.252179 -200.586544 
L 116.639187 -202.709285 
L 118.026195 -204.868034 
L 119.413203 -207.065848 
L 120.800211 -209.30908 
L 122.187219 -211.607327 
L 123.574227 -213.973133 
L 124.961235 -216.421464 
L 126.348243 -218.968941 
L 127.735251 -221.632867 
L 129.122259 -224.430074 
L 130.509267 -227.375636 
L 131.896275 -230.481535 
L 133.283283 -233.755321 
L 134.670291 -237.198874 
L 136.057299 -240.80733 
L 137.444308 -244.568249 
L 138.831316 -248.461105 
L 140.218324 -252.45713 
L 141.605332 -256.519557 
L 142.99234 -260.604287 
L 144.379348 -264.660941 
L 145.766356 -268.634292 
L 147.153364 -272.46601 
L 148.540372 -276.096633 
L 149.92738 -279.467699 
L 151.314388 -282.523906 
L 152.701396 -285.215216 
L 154.088404 -287.498775 
L 155.475412 -289.340573 
L 156.86242 -290.716731 
L 158.249428 -291.61437 
L 159.636436 -292.032 
L 161.023444 -291.979417 
L 162.410453 -291.477111 
L 163.797461 -290.555221 
L 165.184469 -289.252083 
L 166.571477 -287.612461 
L 167.958485 -285.685546 
L 169.345493 -283.522825 
L 170.732501 -281.175933 
L 172.119509 -278.694592 
L 173.506517 -276.124743 
L 174.893525 -273.506938 
L 176.280533 -270.875092 
L 177.667541 -268.255614 
L 179.054549 -265.666964 
L 180.441557 -263.119628 
L 181.828565 -260.616495 
L 183.215573 -258.153602 
L 184.602581 -255.721177 
L 185.989589 -253.304918 
L 187.376598 -250.887436 
L 188.763606 -248.449753 
L 190.150614 -245.9728 
L 191.537622 -243.438826 
L 192.92463 -240.832637 
L 194.311638 -238.142639 
L 195.698646 -235.361613 
L 197.085654 -232.487218 
L 198.472662 -229.522207 
L 199.85967 -226.474364 
L 201.246678 -223.356186 
L 202.633686 -220.18434 
L 204.020694 -216.978946 
L 205.407702 -213.762728 
L 206.79471 -210.560086 
L 208.181718 -207.396145 
L 209.568726 -204.295831 
L 210.955734 -201.283 
L 212.342743 -198.379686 
L 213.729751 -195.605459 
L 215.116759 -192.976946 
L 216.503767 -190.507494 
L 217.890775 -188.206989 
L 219.277783 -186.08183 
L 220.664791 -184.135019 
L 222.051799 -182.366379 
L 223.438807 -180.772852 
L 224.825815 -179.348872 
L 226.212823 -178.086767 
L 227.599831 -176.9772 
L 228.986839 -176.009596 
L 228.986839 -166.134404 
L 228.986839 -166.134404 
L 227.599831 -165.1668 
L 226.212823 -164.057233 
L 224.825815 -162.795128 
L 223.438807 -161.371148 
L 222.051799 -159.777621 
L 220.664791 -158.008981 
L 219.277783 -156.06217 
L 217.890775 -153.937011 
L 216.503767 -151.636506 
L 215.116759 -149.167054 
L 213.729751 -146.538541 
L 212.342743 -143.764314 
L 210.955734 -140.861 
L 209.568726 -137.848169 
L 208.181718 -134.747855 
L 206.79471 -131.583914 
L 205.407702 -128.381272 
L 204.020694 -125.165054 
L 202.633686 -121.95966 
L 201.246678 -118.787814 
L 199.85967 -115.669636 
L 198.472662 -112.621793 
L 197.085654 -109.656782 
L 195.698646 -106.782387 
L 194.311638 -104.001361 
L 192.92463 -101.311363 
L 191.537622 -98.705174 
L 190.150614 -96.1712 
L 188.763606 -93.694247 
L 187.376598 -91.256564 
L 185.989589 -88.839082 
L 184.602581 -86.422823 
L 183.215573 -83.990398 
L 181.828565 -81.527505 
L 180.441557 -79.024372 
L 179.054549 -76.477036 
L 177.667541 -73.888386 
L 176.280533 -71.268908 
L 174.893525 -68.637062 
L 173.506517 -66.019257 
L 172.119509 -63.449408 
L 170.732501 -60.968067 
L 169.345493 -58.621175 
L 167.958485 -56.458454 
L 166.571477 -54.531539 
L 165.184469 -52.891917 
L 163.797461 -51.588779 
L 162.410453 -50.666889 
L 161.023444 -50.164583 
L 159.636436 -50.112 
L 158.249428 -50.52963 
L 156.86242 -51.427269 
L 155.475412 -52.803427 
L 154.088404 -54.645225 
L 152.701396 -56.928784 
L 151.314388 -59.620094 
L 149.92738 -62.676301 
L 148.540372 -66.047367 
L 147.153364 -69.67799 
L 145.766356 -73.509708 
L 144.379348 -77.483059 
L 142.99234 -81.539713 
L 141.605332 -85.624443 
L 140.218324 -89.68687 
L 138.831316 -93.682895 
L 137.444308 -97.575751 
L 136.057299 -101.33667 
L 134.670291 -104.945126 
L 133.283283 -108.388679 
L 131.896275 -111.662465 
L 130.509267 -114.768364 
L 129.122259 -117.713926 
L 127.735251 -120.511133 
L 126.348243 -123.175059 
L 124.961235 -125.722536 
L 123.574227 -128.170867 
L 122.187219 -130.536673 
L 120.800211 -132.83492 
L 119.413203 -135.078152 
L 118.026195 -137.275966 
L 116.639187 -139.434715 
L 115.252179 -141.557456 
L 113.865171 -143.64409 
L 112.478163 -145.691684 
L 111.091154 -147.694937 
L 109.704146 -149.646724 
L 108.317138 -151.538706 
L 106.93013 -153.361944 
L 105.543122 -155.107483 
L 104.156114 -156.766889 
L 102.769106 -158.332691 
L 101.382098 -159.798743 
L 99.99509 -161.160469 
L 98.608082 -162.41501 
L 97.221074 -163.561268 
L 95.834066 -164.59987 
L 94.447058 -165.533044 
L 93.06005 -166.364447 
L 91.673042 -167.09895 
z
" id="m44e45e7b66" style="stroke:#4c4c4c;stroke-opacity:0.5;stroke-width:1.5;"/>
    </defs>
    <g clip-path="url(#p45b32dc628)">
     <use style="fill:#df9c20;fill-opacity:0.5;stroke:#4c4c4c;stroke-opacity:0.5;stroke-width:1.5;" x="0" xlink:href="#m44e45e7b66" y="345.6"/>
    </g>
   </g>
   <g id="PolyCollection_2">
    <defs>
     <path d="M 73.832727 -169.661012 
L 73.832727 -172.482988 
L 77.112066 -173.169071 
L 80.391405 -174.093643 
L 83.670744 -175.296852 
L 86.950083 -176.810473 
L 90.229421 -178.653705 
L 93.50876 -180.830663 
L 96.788099 -183.330454 
L 100.067438 -186.130147 
L 103.346777 -189.200209 
L 106.626116 -192.511298 
L 109.905455 -196.040922 
L 113.184793 -199.778493 
L 116.464132 -203.727731 
L 119.743471 -207.905952 
L 123.02281 -212.340324 
L 126.302149 -217.061481 
L 129.581488 -222.09505 
L 132.860826 -227.451824 
L 136.140165 -233.117695 
L 139.419504 -239.045072 
L 142.698843 -245.148067 
L 145.978182 -251.30379 
L 149.257521 -257.361241 
L 152.53686 -263.157505 
L 155.816198 -268.538676 
L 159.095537 -273.380985 
L 162.374876 -277.606833 
L 165.654215 -281.191434 
L 168.933554 -284.158197 
L 172.212893 -286.56414 
L 175.492231 -288.479329 
L 178.77157 -289.965565 
L 182.050909 -291.059127 
L 185.330248 -291.760519 
L 188.609587 -292.032 
L 191.888926 -291.801838 
L 195.168264 -290.97354 
L 198.447603 -289.438397 
L 201.726942 -287.09022 
L 205.006281 -283.841419 
L 208.28562 -279.639234 
L 211.564959 -274.480238 
L 214.844298 -268.420502 
L 218.123636 -261.578827 
L 221.402975 -254.13131 
L 224.682314 -246.297209 
L 227.961653 -238.318037 
L 231.240992 -230.433441 
L 234.520331 -222.858115 
L 237.799669 -215.763695 
L 241.079008 -209.268281 
L 244.358347 -203.434523 
L 247.637686 -198.275385 
L 250.917025 -193.765379 
L 254.196364 -189.854327 
L 257.475702 -186.480755 
L 260.755041 -183.582621 
L 264.03438 -181.104147 
L 267.313719 -178.998563 
L 270.593058 -177.227568 
L 273.872397 -175.758786 
L 277.151736 -174.562647 
L 280.431074 -173.609831 
L 283.710413 -172.869913 
L 286.989752 -172.311328 
L 290.269091 -171.902355 
L 293.54843 -171.612636 
L 296.827769 -171.414723 
L 300.107107 -171.285301 
L 303.386446 -171.205917 
L 306.665785 -171.163247 
L 309.945124 -171.14899 
L 313.224463 -171.159559 
L 316.503802 -171.195649 
L 319.78314 -171.261686 
L 323.062479 -171.365088 
L 326.341818 -171.515175 
L 329.621157 -171.721615 
L 332.900496 -171.992349 
L 336.179835 -172.331112 
L 339.459174 -172.734914 
L 342.738512 -173.191974 
L 346.017851 -173.680765 
L 349.29719 -174.170701 
L 352.576529 -174.624739 
L 355.855868 -175.003748 
L 359.135207 -175.271974 
L 362.414545 -175.402581 
L 365.693884 -175.382069 
L 368.973223 -175.212576 
L 372.252562 -174.911511 
L 375.531901 -174.508605 
L 378.81124 -174.04108 
L 382.090579 -173.548012 
L 385.369917 -173.065068 
L 388.649256 -172.620567 
L 391.928595 -172.233385 
L 395.207934 -171.912739 
L 398.487273 -171.659469 
L 398.487273 -170.484531 
L 398.487273 -170.484531 
L 395.207934 -170.231261 
L 391.928595 -169.910615 
L 388.649256 -169.523433 
L 385.369917 -169.078932 
L 382.090579 -168.595988 
L 378.81124 -168.10292 
L 375.531901 -167.635395 
L 372.252562 -167.232489 
L 368.973223 -166.931424 
L 365.693884 -166.761931 
L 362.414545 -166.741419 
L 359.135207 -166.872026 
L 355.855868 -167.140252 
L 352.576529 -167.519261 
L 349.29719 -167.973299 
L 346.017851 -168.463235 
L 342.738512 -168.952026 
L 339.459174 -169.409086 
L 336.179835 -169.812888 
L 332.900496 -170.151651 
L 329.621157 -170.422385 
L 326.341818 -170.628825 
L 323.062479 -170.778912 
L 319.78314 -170.882314 
L 316.503802 -170.948351 
L 313.224463 -170.984441 
L 309.945124 -170.99501 
L 306.665785 -170.980753 
L 303.386446 -170.938083 
L 300.107107 -170.858699 
L 296.827769 -170.729277 
L 293.54843 -170.531364 
L 290.269091 -170.241645 
L 286.989752 -169.832672 
L 283.710413 -169.274087 
L 280.431074 -168.534169 
L 277.151736 -167.581353 
L 273.872397 -166.385214 
L 270.593058 -164.916432 
L 267.313719 -163.145437 
L 264.03438 -161.039853 
L 260.755041 -158.561379 
L 257.475702 -155.663245 
L 254.196364 -152.289673 
L 250.917025 -148.378621 
L 247.637686 -143.868615 
L 244.358347 -138.709477 
L 241.079008 -132.875719 
L 237.799669 -126.380305 
L 234.520331 -119.285885 
L 231.240992 -111.710559 
L 227.961653 -103.825963 
L 224.682314 -95.846791 
L 221.402975 -88.01269 
L 218.123636 -80.565173 
L 214.844298 -73.723498 
L 211.564959 -67.663762 
L 208.28562 -62.504766 
L 205.006281 -58.302581 
L 201.726942 -55.05378 
L 198.447603 -52.705603 
L 195.168264 -51.17046 
L 191.888926 -50.342162 
L 188.609587 -50.112 
L 185.330248 -50.383481 
L 182.050909 -51.084873 
L 178.77157 -52.178435 
L 175.492231 -53.664671 
L 172.212893 -55.57986 
L 168.933554 -57.985803 
L 165.654215 -60.952566 
L 162.374876 -64.537167 
L 159.095537 -68.763015 
L 155.816198 -73.605324 
L 152.53686 -78.986495 
L 149.257521 -84.782759 
L 145.978182 -90.84021 
L 142.698843 -96.995933 
L 139.419504 -103.098928 
L 136.140165 -109.026305 
L 132.860826 -114.692176 
L 129.581488 -120.04895 
L 126.302149 -125.082519 
L 123.02281 -129.803676 
L 119.743471 -134.238048 
L 116.464132 -138.416269 
L 113.184793 -142.365507 
L 109.905455 -146.103078 
L 106.626116 -149.632702 
L 103.346777 -152.943791 
L 100.067438 -156.013853 
L 96.788099 -158.813546 
L 93.50876 -161.313337 
L 90.229421 -163.490295 
L 86.950083 -165.333527 
L 83.670744 -166.847148 
L 80.391405 -168.050357 
L 77.112066 -168.974929 
L 73.832727 -169.661012 
z
" id="m191ba61f0a" style="stroke:#262626;stroke-opacity:0.5;stroke-width:1.5;"/>
    </defs>
    <g clip-path="url(#p45b32dc628)">
     <use style="fill:#107010;fill-opacity:0.5;stroke:#262626;stroke-opacity:0.5;stroke-width:1.5;" x="0" xlink:href="#m191ba61f0a" y="345.6"/>
    </g>
   </g>
   <g id="matplotlib.axis_1">
    <g id="xtick_1">
     <g id="line2d_1">
      <defs>
       <path d="M 0 0 
L 0 3.5 
" id="m92c63006bf" style="stroke:#000000;stroke-width:0.8;"/>
      </defs>
      <g>
       <use style="stroke:#000000;stroke-width:0.8;" x="81.601418" xlink:href="#m92c63006bf" y="307.584"/>
      </g>
     </g>
     <g id="text_1">
      <!-- 0 -->
      <defs>
       <path d="M 31.78125 66.40625 
Q 24.171875 66.40625 20.328125 58.90625 
Q 16.5 51.421875 16.5 36.375 
Q 16.5 21.390625 20.328125 13.890625 
Q 24.171875 6.390625 31.78125 6.390625 
Q 39.453125 6.390625 43.28125 13.890625 
Q 47.125 21.390625 47.125 36.375 
Q 47.125 51.421875 43.28125 58.90625 
Q 39.453125 66.40625 31.78125 66.40625 
z
M 31.78125 74.21875 
Q 44.046875 74.21875 50.515625 64.515625 
Q 56.984375 54.828125 56.984375 36.375 
Q 56.984375 17.96875 50.515625 8.265625 
Q 44.046875 -1.421875 31.78125 -1.421875 
Q 19.53125 -1.421875 13.0625 8.265625 
Q 6.59375 17.96875 6.59375 36.375 
Q 6.59375 54.828125 13.0625 64.515625 
Q 19.53125 74.21875 31.78125 74.21875 
z
" id="DejaVuSans-48"/>
      </defs>
      <g transform="translate(78.420168 322.182437)scale(0.1 -0.1)">
       <use xlink:href="#DejaVuSans-48"/>
      </g>
     </g>
    </g>
    <g id="xtick_2">
     <g id="line2d_2">
      <g>
       <use style="stroke:#000000;stroke-width:0.8;" x="159.938256" xlink:href="#m92c63006bf" y="307.584"/>
      </g>
     </g>
     <g id="text_2">
      <!-- 500 -->
      <defs>
       <path d="M 10.796875 72.90625 
L 49.515625 72.90625 
L 49.515625 64.59375 
L 19.828125 64.59375 
L 19.828125 46.734375 
Q 21.96875 47.46875 24.109375 47.828125 
Q 26.265625 48.1875 28.421875 48.1875 
Q 40.625 48.1875 47.75 41.5 
Q 54.890625 34.8125 54.890625 23.390625 
Q 54.890625 11.625 47.5625 5.09375 
Q 40.234375 -1.421875 26.90625 -1.421875 
Q 22.3125 -1.421875 17.546875 -0.640625 
Q 12.796875 0.140625 7.71875 1.703125 
L 7.71875 11.625 
Q 12.109375 9.234375 16.796875 8.0625 
Q 21.484375 6.890625 26.703125 6.890625 
Q 35.15625 6.890625 40.078125 11.328125 
Q 45.015625 15.765625 45.015625 23.390625 
Q 45.015625 31 40.078125 35.4375 
Q 35.15625 39.890625 26.703125 39.890625 
Q 22.75 39.890625 18.8125 39.015625 
Q 14.890625 38.140625 10.796875 36.28125 
z
" id="DejaVuSans-53"/>
      </defs>
      <g transform="translate(150.394506 322.182437)scale(0.1 -0.1)">
       <use xlink:href="#DejaVuSans-53"/>
       <use x="63.623047" xlink:href="#DejaVuSans-48"/>
       <use x="127.246094" xlink:href="#DejaVuSans-48"/>
      </g>
     </g>
    </g>
    <g id="xtick_3">
     <g id="line2d_3">
      <g>
       <use style="stroke:#000000;stroke-width:0.8;" x="238.275095" xlink:href="#m92c63006bf" y="307.584"/>
      </g>
     </g>
     <g id="text_3">
      <!-- 1000 -->
      <defs>
       <path d="M 12.40625 8.296875 
L 28.515625 8.296875 
L 28.515625 63.921875 
L 10.984375 60.40625 
L 10.984375 69.390625 
L 28.421875 72.90625 
L 38.28125 72.90625 
L 38.28125 8.296875 
L 54.390625 8.296875 
L 54.390625 0 
L 12.40625 0 
z
" id="DejaVuSans-49"/>
      </defs>
      <g transform="translate(225.550095 322.182437)scale(0.1 -0.1)">
       <use xlink:href="#DejaVuSans-49"/>
       <use x="63.623047" xlink:href="#DejaVuSans-48"/>
       <use x="127.246094" xlink:href="#DejaVuSans-48"/>
       <use x="190.869141" xlink:href="#DejaVuSans-48"/>
      </g>
     </g>
    </g>
    <g id="xtick_4">
     <g id="line2d_4">
      <g>
       <use style="stroke:#000000;stroke-width:0.8;" x="316.611933" xlink:href="#m92c63006bf" y="307.584"/>
      </g>
     </g>
     <g id="text_4">
      <!-- 1500 -->
      <g transform="translate(303.886933 322.182437)scale(0.1 -0.1)">
       <use xlink:href="#DejaVuSans-49"/>
       <use x="63.623047" xlink:href="#DejaVuSans-53"/>
       <use x="127.246094" xlink:href="#DejaVuSans-48"/>
       <use x="190.869141" xlink:href="#DejaVuSans-48"/>
      </g>
     </g>
    </g>
    <g id="xtick_5">
     <g id="line2d_5">
      <g>
       <use style="stroke:#000000;stroke-width:0.8;" x="394.948771" xlink:href="#m92c63006bf" y="307.584"/>
      </g>
     </g>
     <g id="text_5">
      <!-- 2000 -->
      <defs>
       <path d="M 19.1875 8.296875 
L 53.609375 8.296875 
L 53.609375 0 
L 7.328125 0 
L 7.328125 8.296875 
Q 12.9375 14.109375 22.625 23.890625 
Q 32.328125 33.6875 34.8125 36.53125 
Q 39.546875 41.84375 41.421875 45.53125 
Q 43.3125 49.21875 43.3125 52.78125 
Q 43.3125 58.59375 39.234375 62.25 
Q 35.15625 65.921875 28.609375 65.921875 
Q 23.96875 65.921875 18.8125 64.3125 
Q 13.671875 62.703125 7.8125 59.421875 
L 7.8125 69.390625 
Q 13.765625 71.78125 18.9375 73 
Q 24.125 74.21875 28.421875 74.21875 
Q 39.75 74.21875 46.484375 68.546875 
Q 53.21875 62.890625 53.21875 53.421875 
Q 53.21875 48.921875 51.53125 44.890625 
Q 49.859375 40.875 45.40625 35.40625 
Q 44.1875 33.984375 37.640625 27.21875 
Q 31.109375 20.453125 19.1875 8.296875 
z
" id="DejaVuSans-50"/>
      </defs>
      <g transform="translate(382.223771 322.182437)scale(0.1 -0.1)">
       <use xlink:href="#DejaVuSans-50"/>
       <use x="63.623047" xlink:href="#DejaVuSans-48"/>
       <use x="127.246094" xlink:href="#DejaVuSans-48"/>
       <use x="190.869141" xlink:href="#DejaVuSans-48"/>
      </g>
     </g>
    </g>
    <g id="text_6">
     <!-- fibrinopeakac -->
     <defs>
      <path d="M 37.109375 75.984375 
L 37.109375 68.5 
L 28.515625 68.5 
Q 23.6875 68.5 21.796875 66.546875 
Q 19.921875 64.59375 19.921875 59.515625 
L 19.921875 54.6875 
L 34.71875 54.6875 
L 34.71875 47.703125 
L 19.921875 47.703125 
L 19.921875 0 
L 10.890625 0 
L 10.890625 47.703125 
L 2.296875 47.703125 
L 2.296875 54.6875 
L 10.890625 54.6875 
L 10.890625 58.5 
Q 10.890625 67.625 15.140625 71.796875 
Q 19.390625 75.984375 28.609375 75.984375 
z
" id="DejaVuSans-102"/>
      <path d="M 9.421875 54.6875 
L 18.40625 54.6875 
L 18.40625 0 
L 9.421875 0 
z
M 9.421875 75.984375 
L 18.40625 75.984375 
L 18.40625 64.59375 
L 9.421875 64.59375 
z
" id="DejaVuSans-105"/>
      <path d="M 48.6875 27.296875 
Q 48.6875 37.203125 44.609375 42.84375 
Q 40.53125 48.484375 33.40625 48.484375 
Q 26.265625 48.484375 22.1875 42.84375 
Q 18.109375 37.203125 18.109375 27.296875 
Q 18.109375 17.390625 22.1875 11.75 
Q 26.265625 6.109375 33.40625 6.109375 
Q 40.53125 6.109375 44.609375 11.75 
Q 48.6875 17.390625 48.6875 27.296875 
z
M 18.109375 46.390625 
Q 20.953125 51.265625 25.265625 53.625 
Q 29.59375 56 35.59375 56 
Q 45.5625 56 51.78125 48.09375 
Q 58.015625 40.1875 58.015625 27.296875 
Q 58.015625 14.40625 51.78125 6.484375 
Q 45.5625 -1.421875 35.59375 -1.421875 
Q 29.59375 -1.421875 25.265625 0.953125 
Q 20.953125 3.328125 18.109375 8.203125 
L 18.109375 0 
L 9.078125 0 
L 9.078125 75.984375 
L 18.109375 75.984375 
z
" id="DejaVuSans-98"/>
      <path d="M 41.109375 46.296875 
Q 39.59375 47.171875 37.8125 47.578125 
Q 36.03125 48 33.890625 48 
Q 26.265625 48 22.1875 43.046875 
Q 18.109375 38.09375 18.109375 28.8125 
L 18.109375 0 
L 9.078125 0 
L 9.078125 54.6875 
L 18.109375 54.6875 
L 18.109375 46.1875 
Q 20.953125 51.171875 25.484375 53.578125 
Q 30.03125 56 36.53125 56 
Q 37.453125 56 38.578125 55.875 
Q 39.703125 55.765625 41.0625 55.515625 
z
" id="DejaVuSans-114"/>
      <path d="M 54.890625 33.015625 
L 54.890625 0 
L 45.90625 0 
L 45.90625 32.71875 
Q 45.90625 40.484375 42.875 44.328125 
Q 39.84375 48.1875 33.796875 48.1875 
Q 26.515625 48.1875 22.3125 43.546875 
Q 18.109375 38.921875 18.109375 30.90625 
L 18.109375 0 
L 9.078125 0 
L 9.078125 54.6875 
L 18.109375 54.6875 
L 18.109375 46.1875 
Q 21.34375 51.125 25.703125 53.5625 
Q 30.078125 56 35.796875 56 
Q 45.21875 56 50.046875 50.171875 
Q 54.890625 44.34375 54.890625 33.015625 
z
" id="DejaVuSans-110"/>
      <path d="M 30.609375 48.390625 
Q 23.390625 48.390625 19.1875 42.75 
Q 14.984375 37.109375 14.984375 27.296875 
Q 14.984375 17.484375 19.15625 11.84375 
Q 23.34375 6.203125 30.609375 6.203125 
Q 37.796875 6.203125 41.984375 11.859375 
Q 46.1875 17.53125 46.1875 27.296875 
Q 46.1875 37.015625 41.984375 42.703125 
Q 37.796875 48.390625 30.609375 48.390625 
z
M 30.609375 56 
Q 42.328125 56 49.015625 48.375 
Q 55.71875 40.765625 55.71875 27.296875 
Q 55.71875 13.875 49.015625 6.21875 
Q 42.328125 -1.421875 30.609375 -1.421875 
Q 18.84375 -1.421875 12.171875 6.21875 
Q 5.515625 13.875 5.515625 27.296875 
Q 5.515625 40.765625 12.171875 48.375 
Q 18.84375 56 30.609375 56 
z
" id="DejaVuSans-111"/>
      <path d="M 18.109375 8.203125 
L 18.109375 -20.796875 
L 9.078125 -20.796875 
L 9.078125 54.6875 
L 18.109375 54.6875 
L 18.109375 46.390625 
Q 20.953125 51.265625 25.265625 53.625 
Q 29.59375 56 35.59375 56 
Q 45.5625 56 51.78125 48.09375 
Q 58.015625 40.1875 58.015625 27.296875 
Q 58.015625 14.40625 51.78125 6.484375 
Q 45.5625 -1.421875 35.59375 -1.421875 
Q 29.59375 -1.421875 25.265625 0.953125 
Q 20.953125 3.328125 18.109375 8.203125 
z
M 48.6875 27.296875 
Q 48.6875 37.203125 44.609375 42.84375 
Q 40.53125 48.484375 33.40625 48.484375 
Q 26.265625 48.484375 22.1875 42.84375 
Q 18.109375 37.203125 18.109375 27.296875 
Q 18.109375 17.390625 22.1875 11.75 
Q 26.265625 6.109375 33.40625 6.109375 
Q 40.53125 6.109375 44.609375 11.75 
Q 48.6875 17.390625 48.6875 27.296875 
z
" id="DejaVuSans-112"/>
      <path d="M 56.203125 29.59375 
L 56.203125 25.203125 
L 14.890625 25.203125 
Q 15.484375 15.921875 20.484375 11.0625 
Q 25.484375 6.203125 34.421875 6.203125 
Q 39.59375 6.203125 44.453125 7.46875 
Q 49.3125 8.734375 54.109375 11.28125 
L 54.109375 2.78125 
Q 49.265625 0.734375 44.1875 -0.34375 
Q 39.109375 -1.421875 33.890625 -1.421875 
Q 20.796875 -1.421875 13.15625 6.1875 
Q 5.515625 13.8125 5.515625 26.8125 
Q 5.515625 40.234375 12.765625 48.109375 
Q 20.015625 56 32.328125 56 
Q 43.359375 56 49.78125 48.890625 
Q 56.203125 41.796875 56.203125 29.59375 
z
M 47.21875 32.234375 
Q 47.125 39.59375 43.09375 43.984375 
Q 39.0625 48.390625 32.421875 48.390625 
Q 24.90625 48.390625 20.390625 44.140625 
Q 15.875 39.890625 15.1875 32.171875 
z
" id="DejaVuSans-101"/>
      <path d="M 34.28125 27.484375 
Q 23.390625 27.484375 19.1875 25 
Q 14.984375 22.515625 14.984375 16.5 
Q 14.984375 11.71875 18.140625 8.90625 
Q 21.296875 6.109375 26.703125 6.109375 
Q 34.1875 6.109375 38.703125 11.40625 
Q 43.21875 16.703125 43.21875 25.484375 
L 43.21875 27.484375 
z
M 52.203125 31.203125 
L 52.203125 0 
L 43.21875 0 
L 43.21875 8.296875 
Q 40.140625 3.328125 35.546875 0.953125 
Q 30.953125 -1.421875 24.3125 -1.421875 
Q 15.921875 -1.421875 10.953125 3.296875 
Q 6 8.015625 6 15.921875 
Q 6 25.140625 12.171875 29.828125 
Q 18.359375 34.515625 30.609375 34.515625 
L 43.21875 34.515625 
L 43.21875 35.40625 
Q 43.21875 41.609375 39.140625 45 
Q 35.0625 48.390625 27.6875 48.390625 
Q 23 48.390625 18.546875 47.265625 
Q 14.109375 46.140625 10.015625 43.890625 
L 10.015625 52.203125 
Q 14.9375 54.109375 19.578125 55.046875 
Q 24.21875 56 28.609375 56 
Q 40.484375 56 46.34375 49.84375 
Q 52.203125 43.703125 52.203125 31.203125 
z
" id="DejaVuSans-97"/>
      <path d="M 9.078125 75.984375 
L 18.109375 75.984375 
L 18.109375 31.109375 
L 44.921875 54.6875 
L 56.390625 54.6875 
L 27.390625 29.109375 
L 57.625 0 
L 45.90625 0 
L 18.109375 26.703125 
L 18.109375 0 
L 9.078125 0 
z
" id="DejaVuSans-107"/>
      <path d="M 48.78125 52.59375 
L 48.78125 44.1875 
Q 44.96875 46.296875 41.140625 47.34375 
Q 37.3125 48.390625 33.40625 48.390625 
Q 24.65625 48.390625 19.8125 42.84375 
Q 14.984375 37.3125 14.984375 27.296875 
Q 14.984375 17.28125 19.8125 11.734375 
Q 24.65625 6.203125 33.40625 6.203125 
Q 37.3125 6.203125 41.140625 7.25 
Q 44.96875 8.296875 48.78125 10.40625 
L 48.78125 2.09375 
Q 45.015625 0.34375 40.984375 -0.53125 
Q 36.96875 -1.421875 32.421875 -1.421875 
Q 20.0625 -1.421875 12.78125 6.34375 
Q 5.515625 14.109375 5.515625 27.296875 
Q 5.515625 40.671875 12.859375 48.328125 
Q 20.21875 56 33.015625 56 
Q 37.15625 56 41.109375 55.140625 
Q 45.0625 54.296875 48.78125 52.59375 
z
" id="DejaVuSans-99"/>
     </defs>
     <g transform="translate(202.227969 335.860562)scale(0.1 -0.1)">
      <use xlink:href="#DejaVuSans-102"/>
      <use x="35.205078" xlink:href="#DejaVuSans-105"/>
      <use x="62.988281" xlink:href="#DejaVuSans-98"/>
      <use x="126.464844" xlink:href="#DejaVuSans-114"/>
      <use x="167.578125" xlink:href="#DejaVuSans-105"/>
      <use x="195.361328" xlink:href="#DejaVuSans-110"/>
      <use x="258.740234" xlink:href="#DejaVuSans-111"/>
      <use x="319.921875" xlink:href="#DejaVuSans-112"/>
      <use x="383.398438" xlink:href="#DejaVuSans-101"/>
      <use x="444.921875" xlink:href="#DejaVuSans-97"/>
      <use x="506.201172" xlink:href="#DejaVuSans-107"/>
      <use x="562.361328" xlink:href="#DejaVuSans-97"/>
      <use x="623.640625" xlink:href="#DejaVuSans-99"/>
     </g>
    </g>
   </g>
   <g id="matplotlib.axis_2">
    <g id="ytick_1">
     <g id="line2d_6">
      <defs>
       <path d="M 0 0 
L -3.5 0 
" id="m56380ccace" style="stroke:#000000;stroke-width:0.8;"/>
      </defs>
      <g>
       <use style="stroke:#000000;stroke-width:0.8;" x="57.6" xlink:href="#m56380ccace" y="174.528"/>
      </g>
     </g>
    </g>
   </g>
   <g id="line2d_7">
    <path clip-path="url(#p45b32dc628)" d="M 124.059984 174.528 
L 196.599897 174.528 
" style="fill:none;stroke:#ffa500;stroke-linecap:square;stroke-width:1.5;"/>
   </g>
   <g id="line2d_8">
    <path clip-path="url(#p45b32dc628)" d="M 153.749646 174.528 
L 176.93735 174.528 
" style="fill:none;stroke:#4c4c4c;stroke-linecap:square;stroke-width:4.5;"/>
   </g>
   <g id="line2d_9">
    <path clip-path="url(#p45b32dc628)" d="M 108.705964 174.528 
L 255.352525 174.528 
" style="fill:none;stroke:#008000;stroke-linecap:square;stroke-width:1.5;"/>
   </g>
   <g id="line2d_10">
    <path clip-path="url(#p45b32dc628)" d="M 160.251604 174.528 
L 208.350422 174.528 
" style="fill:none;stroke:#262626;stroke-linecap:square;stroke-width:4.5;"/>
   </g>
   <g id="patch_3">
    <path d="M 57.6 307.584 
L 57.6 41.472 
" style="fill:none;stroke:#000000;stroke-linecap:square;stroke-linejoin:miter;stroke-width:0.8;"/>
   </g>
   <g id="patch_4">
    <path d="M 414.72 307.584 
L 414.72 41.472 
" style="fill:none;stroke:#000000;stroke-linecap:square;stroke-linejoin:miter;stroke-width:0.8;"/>
   </g>
   <g id="patch_5">
    <path d="M 57.6 307.584 
L 414.72 307.584 
" style="fill:none;stroke:#000000;stroke-linecap:square;stroke-linejoin:miter;stroke-width:0.8;"/>
   </g>
   <g id="patch_6">
    <path d="M 57.6 41.472 
L 414.72 41.472 
" style="fill:none;stroke:#000000;stroke-linecap:square;stroke-linejoin:miter;stroke-width:0.8;"/>
   </g>
   <g id="PathCollection_1">
    <defs>
     <path d="M 0 1.5 
C 0.397805 1.5 0.77937 1.341951 1.06066 1.06066 
C 1.341951 0.77937 1.5 0.397805 1.5 0 
C 1.5 -0.397805 1.341951 -0.77937 1.06066 -1.06066 
C 0.77937 -1.341951 0.397805 -1.5 0 -1.5 
C -0.397805 -1.5 -0.77937 -1.341951 -1.06066 -1.06066 
C -1.341951 -0.77937 -1.5 -0.397805 -1.5 0 
C -1.5 0.397805 -1.341951 0.77937 -1.06066 1.06066 
C -0.77937 1.341951 -0.397805 1.5 0 1.5 
z
" id="m535ac858c6" style="stroke:#4c4c4c;stroke-opacity:0.5;"/>
    </defs>
    <g clip-path="url(#p45b32dc628)">
     <use style="fill:#ffffff;fill-opacity:0.5;stroke:#4c4c4c;stroke-opacity:0.5;" x="158.841541" xlink:href="#m535ac858c6" y="174.528"/>
    </g>
   </g>
   <g id="PathCollection_2">
    <defs>
     <path d="M 0 1.5 
C 0.397805 1.5 0.77937 1.341951 1.06066 1.06066 
C 1.341951 0.77937 1.5 0.397805 1.5 0 
C 1.5 -0.397805 1.341951 -0.77937 1.06066 -1.06066 
C 0.77937 -1.341951 0.397805 -1.5 0 -1.5 
C -0.397805 -1.5 -0.77937 -1.341951 -1.06066 -1.06066 
C -1.341951 -0.77937 -1.5 -0.397805 -1.5 0 
C -1.5 0.397805 -1.341951 0.77937 -1.06066 1.06066 
C -0.77937 1.341951 -0.397805 1.5 0 1.5 
z
" id="m05bda6918a" style="stroke:#262626;stroke-opacity:0.5;"/>
    </defs>
    <g clip-path="url(#p45b32dc628)">
     <use style="fill:#ffffff;fill-opacity:0.5;stroke:#262626;stroke-opacity:0.5;" x="184.066002" xlink:href="#m05bda6918a" y="174.528"/>
    </g>
   </g>
   <g id="text_7">
    <!-- Association of fibrinopeakac vs. cpap_bpap -->
    <defs>
     <path d="M 34.1875 63.1875 
L 20.796875 26.90625 
L 47.609375 26.90625 
z
M 28.609375 72.90625 
L 39.796875 72.90625 
L 67.578125 0 
L 57.328125 0 
L 50.6875 18.703125 
L 17.828125 18.703125 
L 11.1875 0 
L 0.78125 0 
z
" id="DejaVuSans-65"/>
     <path d="M 44.28125 53.078125 
L 44.28125 44.578125 
Q 40.484375 46.53125 36.375 47.5 
Q 32.28125 48.484375 27.875 48.484375 
Q 21.1875 48.484375 17.84375 46.4375 
Q 14.5 44.390625 14.5 40.28125 
Q 14.5 37.15625 16.890625 35.375 
Q 19.28125 33.59375 26.515625 31.984375 
L 29.59375 31.296875 
Q 39.15625 29.25 43.1875 25.515625 
Q 47.21875 21.78125 47.21875 15.09375 
Q 47.21875 7.46875 41.1875 3.015625 
Q 35.15625 -1.421875 24.609375 -1.421875 
Q 20.21875 -1.421875 15.453125 -0.5625 
Q 10.6875 0.296875 5.421875 2 
L 5.421875 11.28125 
Q 10.40625 8.6875 15.234375 7.390625 
Q 20.0625 6.109375 24.8125 6.109375 
Q 31.15625 6.109375 34.5625 8.28125 
Q 37.984375 10.453125 37.984375 14.40625 
Q 37.984375 18.0625 35.515625 20.015625 
Q 33.0625 21.96875 24.703125 23.78125 
L 21.578125 24.515625 
Q 13.234375 26.265625 9.515625 29.90625 
Q 5.8125 33.546875 5.8125 39.890625 
Q 5.8125 47.609375 11.28125 51.796875 
Q 16.75 56 26.8125 56 
Q 31.78125 56 36.171875 55.265625 
Q 40.578125 54.546875 44.28125 53.078125 
z
" id="DejaVuSans-115"/>
     <path d="M 18.3125 70.21875 
L 18.3125 54.6875 
L 36.8125 54.6875 
L 36.8125 47.703125 
L 18.3125 47.703125 
L 18.3125 18.015625 
Q 18.3125 11.328125 20.140625 9.421875 
Q 21.96875 7.515625 27.59375 7.515625 
L 36.8125 7.515625 
L 36.8125 0 
L 27.59375 0 
Q 17.1875 0 13.234375 3.875 
Q 9.28125 7.765625 9.28125 18.015625 
L 9.28125 47.703125 
L 2.6875 47.703125 
L 2.6875 54.6875 
L 9.28125 54.6875 
L 9.28125 70.21875 
z
" id="DejaVuSans-116"/>
     <path id="DejaVuSans-32"/>
     <path d="M 2.984375 54.6875 
L 12.5 54.6875 
L 29.59375 8.796875 
L 46.6875 54.6875 
L 56.203125 54.6875 
L 35.6875 0 
L 23.484375 0 
z
" id="DejaVuSans-118"/>
     <path d="M 10.6875 12.40625 
L 21 12.40625 
L 21 0 
L 10.6875 0 
z
" id="DejaVuSans-46"/>
     <path d="M 50.984375 -16.609375 
L 50.984375 -23.578125 
L -0.984375 -23.578125 
L -0.984375 -16.609375 
z
" id="DejaVuSans-95"/>
    </defs>
    <g transform="translate(106.58625 35.472)scale(0.12 -0.12)">
     <use xlink:href="#DejaVuSans-65"/>
     <use x="68.408203" xlink:href="#DejaVuSans-115"/>
     <use x="120.507812" xlink:href="#DejaVuSans-115"/>
     <use x="172.607422" xlink:href="#DejaVuSans-111"/>
     <use x="233.789062" xlink:href="#DejaVuSans-99"/>
     <use x="288.769531" xlink:href="#DejaVuSans-105"/>
     <use x="316.552734" xlink:href="#DejaVuSans-97"/>
     <use x="377.832031" xlink:href="#DejaVuSans-116"/>
     <use x="417.041016" xlink:href="#DejaVuSans-105"/>
     <use x="444.824219" xlink:href="#DejaVuSans-111"/>
     <use x="506.005859" xlink:href="#DejaVuSans-110"/>
     <use x="569.384766" xlink:href="#DejaVuSans-32"/>
     <use x="601.171875" xlink:href="#DejaVuSans-111"/>
     <use x="662.353516" xlink:href="#DejaVuSans-102"/>
     <use x="697.558594" xlink:href="#DejaVuSans-32"/>
     <use x="729.345703" xlink:href="#DejaVuSans-102"/>
     <use x="764.550781" xlink:href="#DejaVuSans-105"/>
     <use x="792.333984" xlink:href="#DejaVuSans-98"/>
     <use x="855.810547" xlink:href="#DejaVuSans-114"/>
     <use x="896.923828" xlink:href="#DejaVuSans-105"/>
     <use x="924.707031" xlink:href="#DejaVuSans-110"/>
     <use x="988.085938" xlink:href="#DejaVuSans-111"/>
     <use x="1049.267578" xlink:href="#DejaVuSans-112"/>
     <use x="1112.744141" xlink:href="#DejaVuSans-101"/>
     <use x="1174.267578" xlink:href="#DejaVuSans-97"/>
     <use x="1235.546875" xlink:href="#DejaVuSans-107"/>
     <use x="1291.707031" xlink:href="#DejaVuSans-97"/>
     <use x="1352.986328" xlink:href="#DejaVuSans-99"/>
     <use x="1407.966797" xlink:href="#DejaVuSans-32"/>
     <use x="1439.753906" xlink:href="#DejaVuSans-118"/>
     <use x="1498.933594" xlink:href="#DejaVuSans-115"/>
     <use x="1551.033203" xlink:href="#DejaVuSans-46"/>
     <use x="1582.820312" xlink:href="#DejaVuSans-32"/>
     <use x="1614.607422" xlink:href="#DejaVuSans-99"/>
     <use x="1669.587891" xlink:href="#DejaVuSans-112"/>
     <use x="1733.064453" xlink:href="#DejaVuSans-97"/>
     <use x="1794.34375" xlink:href="#DejaVuSans-112"/>
     <use x="1857.820312" xlink:href="#DejaVuSans-95"/>
     <use x="1907.820312" xlink:href="#DejaVuSans-98"/>
     <use x="1971.296875" xlink:href="#DejaVuSans-112"/>
     <use x="2034.773438" xlink:href="#DejaVuSans-97"/>
     <use x="2096.052734" xlink:href="#DejaVuSans-112"/>
    </g>
   </g>
   <g id="legend_1">
    <g id="patch_7">
     <path d="M 276.818438 79.3845 
L 407.72 79.3845 
Q 409.72 79.3845 409.72 77.3845 
L 409.72 48.472 
Q 409.72 46.472 407.72 46.472 
L 276.818438 46.472 
Q 274.818438 46.472 274.818438 48.472 
L 274.818438 77.3845 
Q 274.818438 79.3845 276.818438 79.3845 
z
" style="fill:#ffffff;opacity:0.8;stroke:#cccccc;stroke-linejoin:miter;"/>
    </g>
    <g id="line2d_11">
     <path d="M 278.818438 54.570438 
L 298.818438 54.570438 
" style="fill:none;stroke:#ffa500;stroke-linecap:square;stroke-width:1.5;"/>
    </g>
    <g id="line2d_12"/>
    <g id="text_8">
     <!-- cpap_bpap (7) -->
     <defs>
      <path d="M 31 75.875 
Q 24.46875 64.65625 21.28125 53.65625 
Q 18.109375 42.671875 18.109375 31.390625 
Q 18.109375 20.125 21.3125 9.0625 
Q 24.515625 -2 31 -13.1875 
L 23.1875 -13.1875 
Q 15.875 -1.703125 12.234375 9.375 
Q 8.59375 20.453125 8.59375 31.390625 
Q 8.59375 42.28125 12.203125 53.3125 
Q 15.828125 64.359375 23.1875 75.875 
z
" id="DejaVuSans-40"/>
      <path d="M 8.203125 72.90625 
L 55.078125 72.90625 
L 55.078125 68.703125 
L 28.609375 0 
L 18.3125 0 
L 43.21875 64.59375 
L 8.203125 64.59375 
z
" id="DejaVuSans-55"/>
      <path d="M 8.015625 75.875 
L 15.828125 75.875 
Q 23.140625 64.359375 26.78125 53.3125 
Q 30.421875 42.28125 30.421875 31.390625 
Q 30.421875 20.453125 26.78125 9.375 
Q 23.140625 -1.703125 15.828125 -13.1875 
L 8.015625 -13.1875 
Q 14.5 -2 17.703125 9.0625 
Q 20.90625 20.125 20.90625 31.390625 
Q 20.90625 42.671875 17.703125 53.65625 
Q 14.5 64.65625 8.015625 75.875 
z
" id="DejaVuSans-41"/>
     </defs>
     <g transform="translate(306.818438 58.070438)scale(0.1 -0.1)">
      <use xlink:href="#DejaVuSans-99"/>
      <use x="54.980469" xlink:href="#DejaVuSans-112"/>
      <use x="118.457031" xlink:href="#DejaVuSans-97"/>
      <use x="179.736328" xlink:href="#DejaVuSans-112"/>
      <use x="243.212891" xlink:href="#DejaVuSans-95"/>
      <use x="293.212891" xlink:href="#DejaVuSans-98"/>
      <use x="356.689453" xlink:href="#DejaVuSans-112"/>
      <use x="420.166016" xlink:href="#DejaVuSans-97"/>
      <use x="481.445312" xlink:href="#DejaVuSans-112"/>
      <use x="544.921875" xlink:href="#DejaVuSans-32"/>
      <use x="576.708984" xlink:href="#DejaVuSans-40"/>
      <use x="615.722656" xlink:href="#DejaVuSans-55"/>
      <use x="679.345703" xlink:href="#DejaVuSans-41"/>
     </g>
    </g>
    <g id="line2d_13">
     <path d="M 278.818438 69.526688 
L 298.818438 69.526688 
" style="fill:none;stroke:#008000;stroke-linecap:square;stroke-width:1.5;"/>
    </g>
    <g id="line2d_14"/>
    <g id="text_9">
     <!-- Not cpap_bpap (65) -->
     <defs>
      <path d="M 9.8125 72.90625 
L 23.09375 72.90625 
L 55.421875 11.921875 
L 55.421875 72.90625 
L 64.984375 72.90625 
L 64.984375 0 
L 51.703125 0 
L 19.390625 60.984375 
L 19.390625 0 
L 9.8125 0 
z
" id="DejaVuSans-78"/>
      <path d="M 33.015625 40.375 
Q 26.375 40.375 22.484375 35.828125 
Q 18.609375 31.296875 18.609375 23.390625 
Q 18.609375 15.53125 22.484375 10.953125 
Q 26.375 6.390625 33.015625 6.390625 
Q 39.65625 6.390625 43.53125 10.953125 
Q 47.40625 15.53125 47.40625 23.390625 
Q 47.40625 31.296875 43.53125 35.828125 
Q 39.65625 40.375 33.015625 40.375 
z
M 52.59375 71.296875 
L 52.59375 62.3125 
Q 48.875 64.0625 45.09375 64.984375 
Q 41.3125 65.921875 37.59375 65.921875 
Q 27.828125 65.921875 22.671875 59.328125 
Q 17.53125 52.734375 16.796875 39.40625 
Q 19.671875 43.65625 24.015625 45.921875 
Q 28.375 48.1875 33.59375 48.1875 
Q 44.578125 48.1875 50.953125 41.515625 
Q 57.328125 34.859375 57.328125 23.390625 
Q 57.328125 12.15625 50.6875 5.359375 
Q 44.046875 -1.421875 33.015625 -1.421875 
Q 20.359375 -1.421875 13.671875 8.265625 
Q 6.984375 17.96875 6.984375 36.375 
Q 6.984375 53.65625 15.1875 63.9375 
Q 23.390625 74.21875 37.203125 74.21875 
Q 40.921875 74.21875 44.703125 73.484375 
Q 48.484375 72.75 52.59375 71.296875 
z
" id="DejaVuSans-54"/>
     </defs>
     <g transform="translate(306.818438 73.026688)scale(0.1 -0.1)">
      <use xlink:href="#DejaVuSans-78"/>
      <use x="74.804688" xlink:href="#DejaVuSans-111"/>
      <use x="135.986328" xlink:href="#DejaVuSans-116"/>
      <use x="175.195312" xlink:href="#DejaVuSans-32"/>
      <use x="206.982422" xlink:href="#DejaVuSans-99"/>
      <use x="261.962891" xlink:href="#DejaVuSans-112"/>
      <use x="325.439453" xlink:href="#DejaVuSans-97"/>
      <use x="386.71875" xlink:href="#DejaVuSans-112"/>
      <use x="450.195312" xlink:href="#DejaVuSans-95"/>
      <use x="500.195312" xlink:href="#DejaVuSans-98"/>
      <use x="563.671875" xlink:href="#DejaVuSans-112"/>
      <use x="627.148438" xlink:href="#DejaVuSans-97"/>
      <use x="688.427734" xlink:href="#DejaVuSans-112"/>
      <use x="751.904297" xlink:href="#DejaVuSans-32"/>
      <use x="783.691406" xlink:href="#DejaVuSans-40"/>
      <use x="822.705078" xlink:href="#DejaVuSans-54"/>
      <use x="886.328125" xlink:href="#DejaVuSans-53"/>
      <use x="949.951172" xlink:href="#DejaVuSans-41"/>
     </g>
    </g>
   </g>
  </g>
 </g>
 <defs>
  <clipPath id="p45b32dc628">
   <rect height="266.112" width="357.12" x="57.6" y="41.472"/>
  </clipPath>
 </defs>
</svg>
