<?xml version="1.0" encoding="utf-8" standalone="no"?>
<!DOCTYPE svg PUBLIC "-//W3C//DTD SVG 1.1//EN"
  "http://www.w3.org/Graphics/SVG/1.1/DTD/svg11.dtd">
<!-- Created with matplotlib (https://matplotlib.org/) -->
<svg height="345.6pt" version="1.1" viewBox="0 0 460.8 345.6" width="460.8pt" xmlns="http://www.w3.org/2000/svg" xmlns:xlink="http://www.w3.org/1999/xlink">
 <defs>
  <style type="text/css">
*{stroke-linecap:butt;stroke-linejoin:round;}
  </style>
 </defs>
 <g id="figure_1">
  <g id="patch_1">
   <path d="M 0 345.6 
L 460.8 345.6 
L 460.8 0 
L 0 0 
z
" style="fill:#ffffff;"/>
  </g>
  <g id="axes_1">
   <g id="patch_2">
    <path d="M 57.6 307.584 
L 414.72 307.584 
L 414.72 41.472 
L 57.6 41.472 
z
" style="fill:#ffffff;"/>
   </g>
   <g id="PolyCollection_1">
    <defs>
     <path d="M 73.832727 -170.093029 
L 73.832727 -172.050971 
L 77.112066 -172.390548 
L 80.391405 -172.809887 
L 83.670744 -173.314705 
L 86.950083 -173.907602 
L 90.229421 -174.587855 
L 93.50876 -175.351928 
L 96.788099 -176.194851 
L 100.067438 -177.112502 
L 103.346777 -178.104659 
L 106.626116 -179.178438 
L 109.905455 -180.351606 
L 113.184793 -181.655085 
L 116.464132 -183.13399 
L 119.743471 -184.846641 
L 123.02281 -186.861284 
L 126.302149 -189.250597 
L 129.581488 -192.08448 
L 132.860826 -195.422015 
L 136.140165 -199.30372 
L 139.419504 -203.745289 
L 142.698843 -208.733858 
L 145.978182 -214.227437 
L 149.257521 -220.157626 
L 152.53686 -226.435115 
L 155.816198 -232.956944 
L 159.095537 -239.61414 
L 162.374876 -246.298245 
L 165.654215 -252.905522 
L 168.933554 -259.338058 
L 172.212893 -265.501765 
L 175.492231 -271.301946 
L 178.77157 -276.637795 
L 182.050909 -281.397542 
L 185.330248 -285.456008 
L 188.609587 -288.676 
L 191.888926 -290.914281 
L 195.168264 -292.032 
L 198.447603 -291.908529 
L 201.726942 -290.456871 
L 205.006281 -287.638304 
L 208.28562 -283.473832 
L 211.564959 -278.050329 
L 214.844298 -271.519996 
L 218.123636 -264.092697 
L 221.402975 -256.021839 
L 224.682314 -247.585428 
L 227.961653 -239.064659 
L 231.240992 -230.722743 
L 234.520331 -222.78655 
L 237.799669 -215.433168 
L 241.079008 -208.782638 
L 244.358347 -202.897178 
L 247.637686 -197.786263 
L 250.917025 -193.41617 
L 254.196364 -189.722173 
L 257.475702 -186.621421 
L 260.755041 -184.024797 
L 264.03438 -181.846458 
L 267.313719 -180.010401 
L 270.593058 -178.453922 
L 273.872397 -177.128379 
L 277.151736 -175.997939 
L 280.431074 -175.037144 
L 283.710413 -174.228086 
L 286.989752 -173.557802 
L 290.269091 -173.016278 
L 293.54843 -172.595196 
L 296.827769 -172.287393 
L 300.107107 -172.086803 
L 303.386446 -171.988644 
L 306.665785 -171.989567 
L 309.945124 -172.087549 
L 313.224463 -172.281389 
L 316.503802 -172.569776 
L 319.78314 -172.94998 
L 323.062479 -173.416345 
L 326.341818 -173.958821 
L 329.621157 -174.561813 
L 332.900496 -175.203631 
L 336.179835 -175.856758 
L 339.459174 -176.489054 
L 342.738512 -177.06586 
L 346.017851 -177.552811 
L 349.29719 -177.919024 
L 352.576529 -178.140212 
L 355.855868 -178.201276 
L 359.135207 -178.097964 
L 362.414545 -177.837336 
L 365.693884 -177.43695 
L 368.973223 -176.922896 
L 372.252562 -176.326984 
L 375.531901 -175.683495 
L 378.81124 -175.025972 
L 382.090579 -174.384431 
L 385.369917 -173.783324 
L 388.649256 -173.24039 
L 391.928595 -172.766396 
L 395.207934 -172.365641 
L 398.487273 -172.037014 
L 398.487273 -170.106986 
L 398.487273 -170.106986 
L 395.207934 -169.778359 
L 391.928595 -169.377604 
L 388.649256 -168.90361 
L 385.369917 -168.360676 
L 382.090579 -167.759569 
L 378.81124 -167.118028 
L 375.531901 -166.460505 
L 372.252562 -165.817016 
L 368.973223 -165.221104 
L 365.693884 -164.70705 
L 362.414545 -164.306664 
L 359.135207 -164.046036 
L 355.855868 -163.942724 
L 352.576529 -164.003788 
L 349.29719 -164.224976 
L 346.017851 -164.591189 
L 342.738512 -165.07814 
L 339.459174 -165.654946 
L 336.179835 -166.287242 
L 332.900496 -166.940369 
L 329.621157 -167.582187 
L 326.341818 -168.185179 
L 323.062479 -168.727655 
L 319.78314 -169.19402 
L 316.503802 -169.574224 
L 313.224463 -169.862611 
L 309.945124 -170.056451 
L 306.665785 -170.154433 
L 303.386446 -170.155356 
L 300.107107 -170.057197 
L 296.827769 -169.856607 
L 293.54843 -169.548804 
L 290.269091 -169.127722 
L 286.989752 -168.586198 
L 283.710413 -167.915914 
L 280.431074 -167.106856 
L 277.151736 -166.146061 
L 273.872397 -165.015621 
L 270.593058 -163.690078 
L 267.313719 -162.133599 
L 264.03438 -160.297542 
L 260.755041 -158.119203 
L 257.475702 -155.522579 
L 254.196364 -152.421827 
L 250.917025 -148.72783 
L 247.637686 -144.357737 
L 244.358347 -139.246822 
L 241.079008 -133.361362 
L 237.799669 -126.710832 
L 234.520331 -119.35745 
L 231.240992 -111.421257 
L 227.961653 -103.079341 
L 224.682314 -94.558572 
L 221.402975 -86.122161 
L 218.123636 -78.051303 
L 214.844298 -70.624004 
L 211.564959 -64.093671 
L 208.28562 -58.670168 
L 205.006281 -54.505696 
L 201.726942 -51.687129 
L 198.447603 -50.235471 
L 195.168264 -50.112 
L 191.888926 -51.229719 
L 188.609587 -53.468 
L 185.330248 -56.687992 
L 182.050909 -60.746458 
L 178.77157 -65.506205 
L 175.492231 -70.842054 
L 172.212893 -76.642235 
L 168.933554 -82.805942 
L 165.654215 -89.238478 
L 162.374876 -95.845755 
L 159.095537 -102.52986 
L 155.816198 -109.187056 
L 152.53686 -115.708885 
L 149.257521 -121.986374 
L 145.978182 -127.916563 
L 142.698843 -133.410142 
L 139.419504 -138.398711 
L 136.140165 -142.84028 
L 132.860826 -146.721985 
L 129.581488 -150.05952 
L 126.302149 -152.893403 
L 123.02281 -155.282716 
L 119.743471 -157.297359 
L 116.464132 -159.01001 
L 113.184793 -160.488915 
L 109.905455 -161.792394 
L 106.626116 -162.965562 
L 103.346777 -164.039341 
L 100.067438 -165.031498 
L 96.788099 -165.949149 
L 93.50876 -166.792072 
L 90.229421 -167.556145 
L 86.950083 -168.236398 
L 83.670744 -168.829295 
L 80.391405 -169.334113 
L 77.112066 -169.753452 
L 73.832727 -170.093029 
z
" id="mf6bc39b42f" style="stroke:#4c4c4c;stroke-opacity:0.5;stroke-width:1.5;"/>
    </defs>
    <g clip-path="url(#p23fc0d7d05)">
     <use style="fill:#df9c20;fill-opacity:0.5;stroke:#4c4c4c;stroke-opacity:0.5;stroke-width:1.5;" x="0" xlink:href="#mf6bc39b42f" y="345.6"/>
    </g>
   </g>
   <g id="PolyCollection_2">
    <defs>
     <path d="M 106.704556 -166.20748 
L 106.704556 -175.93652 
L 108.422337 -177.240658 
L 110.140118 -178.805332 
L 111.857898 -180.657497 
L 113.575679 -182.820632 
L 115.29346 -185.313112 
L 117.011241 -188.146615 
L 118.729022 -191.324701 
L 120.446803 -194.841684 
L 122.164584 -198.681937 
L 123.882365 -202.819716 
L 125.600146 -207.219583 
L 127.317927 -211.837437 
L 129.035707 -216.622113 
L 130.753488 -221.517466 
L 132.471269 -226.464771 
L 134.18905 -231.405292 
L 135.906831 -236.282778 
L 137.624612 -241.045736 
L 139.342393 -245.649269 
L 141.060174 -250.056389 
L 142.777955 -254.238715 
L 144.495736 -258.176571 
L 146.213516 -261.858537 
L 147.931297 -265.280561 
L 149.649078 -268.444779 
L 151.366859 -271.358183 
L 153.08464 -274.031268 
L 154.802421 -276.476778 
L 156.520202 -278.708589 
L 158.237983 -280.740762 
L 159.955764 -282.586743 
L 161.673544 -284.258656 
L 163.391325 -285.766646 
L 165.109106 -287.118244 
L 166.826887 -288.317725 
L 168.544668 -289.365516 
L 170.262449 -290.257692 
L 171.98023 -290.985686 
L 173.698011 -291.536281 
L 175.415792 -291.892011 
L 177.133573 -292.032 
L 178.851353 -291.933255 
L 180.569134 -291.572354 
L 182.286915 -290.927393 
L 184.004696 -289.980035 
L 185.722477 -288.717425 
L 187.440258 -287.133787 
L 189.158039 -285.231498 
L 190.87582 -283.021511 
L 192.593601 -280.523084 
L 194.311382 -277.762814 
L 196.029162 -274.773126 
L 197.746943 -271.59035 
L 199.464724 -268.252644 
L 201.182505 -264.797959 
L 202.900286 -261.262287 
L 204.618067 -257.678332 
L 206.335848 -254.074707 
L 208.053629 -250.475682 
L 209.77141 -246.901415 
L 211.48919 -243.368549 
L 213.206971 -239.891038 
L 214.924752 -236.480995 
L 216.642533 -233.149447 
L 218.360314 -229.906838 
L 220.078095 -226.763228 
L 221.795876 -223.728174 
L 223.513657 -220.810322 
L 225.231438 -218.016821 
L 226.949219 -215.352646 
L 228.666999 -212.819984 
L 230.38478 -210.417784 
L 232.102561 -208.141565 
L 233.820342 -205.983537 
L 235.538123 -203.933042 
L 237.255904 -201.977283 
L 238.973685 -200.102267 
L 240.691466 -198.293875 
L 242.409247 -196.538937 
L 244.127028 -194.826221 
L 245.844808 -193.147233 
L 247.562589 -191.49676 
L 249.28037 -189.873117 
L 250.998151 -188.278088 
L 252.715932 -186.716588 
L 254.433713 -185.196082 
L 256.151494 -183.725845 
L 257.869275 -182.316116 
L 259.587056 -180.977248 
L 261.304836 -179.718905 
L 263.022617 -178.54938 
L 264.740398 -177.475068 
L 266.458179 -176.500126 
L 268.17596 -175.626313 
L 269.893741 -174.853012 
L 271.611522 -174.177404 
L 273.329303 -173.59476 
L 275.047084 -173.09881 
L 276.764865 -172.68216 
L 276.764865 -169.46184 
L 276.764865 -169.46184 
L 275.047084 -169.04519 
L 273.329303 -168.54924 
L 271.611522 -167.966596 
L 269.893741 -167.290988 
L 268.17596 -166.517687 
L 266.458179 -165.643874 
L 264.740398 -164.668932 
L 263.022617 -163.59462 
L 261.304836 -162.425095 
L 259.587056 -161.166752 
L 257.869275 -159.827884 
L 256.151494 -158.418155 
L 254.433713 -156.947918 
L 252.715932 -155.427412 
L 250.998151 -153.865912 
L 249.28037 -152.270883 
L 247.562589 -150.64724 
L 245.844808 -148.996767 
L 244.127028 -147.317779 
L 242.409247 -145.605063 
L 240.691466 -143.850125 
L 238.973685 -142.041733 
L 237.255904 -140.166717 
L 235.538123 -138.210958 
L 233.820342 -136.160463 
L 232.102561 -134.002435 
L 230.38478 -131.726216 
L 228.666999 -129.324016 
L 226.949219 -126.791354 
L 225.231438 -124.127179 
L 223.513657 -121.333678 
L 221.795876 -118.415826 
L 220.078095 -115.380772 
L 218.360314 -112.237162 
L 216.642533 -108.994553 
L 214.924752 -105.663005 
L 213.206971 -102.252962 
L 211.48919 -98.775451 
L 209.77141 -95.242585 
L 208.053629 -91.668318 
L 206.335848 -88.069293 
L 204.618067 -84.465668 
L 202.900286 -80.881713 
L 201.182505 -77.346041 
L 199.464724 -73.891356 
L 197.746943 -70.55365 
L 196.029162 -67.370874 
L 194.311382 -64.381186 
L 192.593601 -61.620916 
L 190.87582 -59.122489 
L 189.158039 -56.912502 
L 187.440258 -55.010213 
L 185.722477 -53.426575 
L 184.004696 -52.163965 
L 182.286915 -51.216607 
L 180.569134 -50.571646 
L 178.851353 -50.210745 
L 177.133573 -50.112 
L 175.415792 -50.251989 
L 173.698011 -50.607719 
L 171.98023 -51.158314 
L 170.262449 -51.886308 
L 168.544668 -52.778484 
L 166.826887 -53.826275 
L 165.109106 -55.025756 
L 163.391325 -56.377354 
L 161.673544 -57.885344 
L 159.955764 -59.557257 
L 158.237983 -61.403238 
L 156.520202 -63.435411 
L 154.802421 -65.667222 
L 153.08464 -68.112732 
L 151.366859 -70.785817 
L 149.649078 -73.699221 
L 147.931297 -76.863439 
L 146.213516 -80.285463 
L 144.495736 -83.967429 
L 142.777955 -87.905285 
L 141.060174 -92.087611 
L 139.342393 -96.494731 
L 137.624612 -101.098264 
L 135.906831 -105.861222 
L 134.18905 -110.738708 
L 132.471269 -115.679229 
L 130.753488 -120.626534 
L 129.035707 -125.521887 
L 127.317927 -130.306563 
L 125.600146 -134.924417 
L 123.882365 -139.324284 
L 122.164584 -143.462063 
L 120.446803 -147.302316 
L 118.729022 -150.819299 
L 117.011241 -153.997385 
L 115.29346 -156.830888 
L 113.575679 -159.323368 
L 111.857898 -161.486503 
L 110.140118 -163.338668 
L 108.422337 -164.903342 
L 106.704556 -166.20748 
z
" id="m4b6ea63ea2" style="stroke:#262626;stroke-opacity:0.5;stroke-width:1.5;"/>
    </defs>
    <g clip-path="url(#p23fc0d7d05)">
     <use style="fill:#107010;fill-opacity:0.5;stroke:#262626;stroke-opacity:0.5;stroke-width:1.5;" x="0" xlink:href="#m4b6ea63ea2" y="345.6"/>
    </g>
   </g>
   <g id="matplotlib.axis_1">
    <g id="xtick_1">
     <g id="line2d_1">
      <defs>
       <path d="M 0 0 
L 0 3.5 
" id="m8b6e4d0754" style="stroke:#000000;stroke-width:0.8;"/>
      </defs>
      <g>
       <use style="stroke:#000000;stroke-width:0.8;" x="91.521226" xlink:href="#m8b6e4d0754" y="307.584"/>
      </g>
     </g>
     <g id="text_1">
      <!-- 0 -->
      <defs>
       <path d="M 31.78125 66.40625 
Q 24.171875 66.40625 20.328125 58.90625 
Q 16.5 51.421875 16.5 36.375 
Q 16.5 21.390625 20.328125 13.890625 
Q 24.171875 6.390625 31.78125 6.390625 
Q 39.453125 6.390625 43.28125 13.890625 
Q 47.125 21.390625 47.125 36.375 
Q 47.125 51.421875 43.28125 58.90625 
Q 39.453125 66.40625 31.78125 66.40625 
z
M 31.78125 74.21875 
Q 44.046875 74.21875 50.515625 64.515625 
Q 56.984375 54.828125 56.984375 36.375 
Q 56.984375 17.96875 50.515625 8.265625 
Q 44.046875 -1.421875 31.78125 -1.421875 
Q 19.53125 -1.421875 13.0625 8.265625 
Q 6.59375 17.96875 6.59375 36.375 
Q 6.59375 54.828125 13.0625 64.515625 
Q 19.53125 74.21875 31.78125 74.21875 
z
" id="DejaVuSans-48"/>
      </defs>
      <g transform="translate(88.339976 322.182437)scale(0.1 -0.1)">
       <use xlink:href="#DejaVuSans-48"/>
      </g>
     </g>
    </g>
    <g id="xtick_2">
     <g id="line2d_2">
      <g>
       <use style="stroke:#000000;stroke-width:0.8;" x="164.830285" xlink:href="#m8b6e4d0754" y="307.584"/>
      </g>
     </g>
     <g id="text_2">
      <!-- 500 -->
      <defs>
       <path d="M 10.796875 72.90625 
L 49.515625 72.90625 
L 49.515625 64.59375 
L 19.828125 64.59375 
L 19.828125 46.734375 
Q 21.96875 47.46875 24.109375 47.828125 
Q 26.265625 48.1875 28.421875 48.1875 
Q 40.625 48.1875 47.75 41.5 
Q 54.890625 34.8125 54.890625 23.390625 
Q 54.890625 11.625 47.5625 5.09375 
Q 40.234375 -1.421875 26.90625 -1.421875 
Q 22.3125 -1.421875 17.546875 -0.640625 
Q 12.796875 0.140625 7.71875 1.703125 
L 7.71875 11.625 
Q 12.109375 9.234375 16.796875 8.0625 
Q 21.484375 6.890625 26.703125 6.890625 
Q 35.15625 6.890625 40.078125 11.328125 
Q 45.015625 15.765625 45.015625 23.390625 
Q 45.015625 31 40.078125 35.4375 
Q 35.15625 39.890625 26.703125 39.890625 
Q 22.75 39.890625 18.8125 39.015625 
Q 14.890625 38.140625 10.796875 36.28125 
z
" id="DejaVuSans-53"/>
      </defs>
      <g transform="translate(155.286535 322.182437)scale(0.1 -0.1)">
       <use xlink:href="#DejaVuSans-53"/>
       <use x="63.623047" xlink:href="#DejaVuSans-48"/>
       <use x="127.246094" xlink:href="#DejaVuSans-48"/>
      </g>
     </g>
    </g>
    <g id="xtick_3">
     <g id="line2d_3">
      <g>
       <use style="stroke:#000000;stroke-width:0.8;" x="238.139345" xlink:href="#m8b6e4d0754" y="307.584"/>
      </g>
     </g>
     <g id="text_3">
      <!-- 1000 -->
      <defs>
       <path d="M 12.40625 8.296875 
L 28.515625 8.296875 
L 28.515625 63.921875 
L 10.984375 60.40625 
L 10.984375 69.390625 
L 28.421875 72.90625 
L 38.28125 72.90625 
L 38.28125 8.296875 
L 54.390625 8.296875 
L 54.390625 0 
L 12.40625 0 
z
" id="DejaVuSans-49"/>
      </defs>
      <g transform="translate(225.414345 322.182437)scale(0.1 -0.1)">
       <use xlink:href="#DejaVuSans-49"/>
       <use x="63.623047" xlink:href="#DejaVuSans-48"/>
       <use x="127.246094" xlink:href="#DejaVuSans-48"/>
       <use x="190.869141" xlink:href="#DejaVuSans-48"/>
      </g>
     </g>
    </g>
    <g id="xtick_4">
     <g id="line2d_4">
      <g>
       <use style="stroke:#000000;stroke-width:0.8;" x="311.448404" xlink:href="#m8b6e4d0754" y="307.584"/>
      </g>
     </g>
     <g id="text_4">
      <!-- 1500 -->
      <g transform="translate(298.723404 322.182437)scale(0.1 -0.1)">
       <use xlink:href="#DejaVuSans-49"/>
       <use x="63.623047" xlink:href="#DejaVuSans-53"/>
       <use x="127.246094" xlink:href="#DejaVuSans-48"/>
       <use x="190.869141" xlink:href="#DejaVuSans-48"/>
      </g>
     </g>
    </g>
    <g id="xtick_5">
     <g id="line2d_5">
      <g>
       <use style="stroke:#000000;stroke-width:0.8;" x="384.757463" xlink:href="#m8b6e4d0754" y="307.584"/>
      </g>
     </g>
     <g id="text_5">
      <!-- 2000 -->
      <defs>
       <path d="M 19.1875 8.296875 
L 53.609375 8.296875 
L 53.609375 0 
L 7.328125 0 
L 7.328125 8.296875 
Q 12.9375 14.109375 22.625 23.890625 
Q 32.328125 33.6875 34.8125 36.53125 
Q 39.546875 41.84375 41.421875 45.53125 
Q 43.3125 49.21875 43.3125 52.78125 
Q 43.3125 58.59375 39.234375 62.25 
Q 35.15625 65.921875 28.609375 65.921875 
Q 23.96875 65.921875 18.8125 64.3125 
Q 13.671875 62.703125 7.8125 59.421875 
L 7.8125 69.390625 
Q 13.765625 71.78125 18.9375 73 
Q 24.125 74.21875 28.421875 74.21875 
Q 39.75 74.21875 46.484375 68.546875 
Q 53.21875 62.890625 53.21875 53.421875 
Q 53.21875 48.921875 51.53125 44.890625 
Q 49.859375 40.875 45.40625 35.40625 
Q 44.1875 33.984375 37.640625 27.21875 
Q 31.109375 20.453125 19.1875 8.296875 
z
" id="DejaVuSans-50"/>
      </defs>
      <g transform="translate(372.032463 322.182437)scale(0.1 -0.1)">
       <use xlink:href="#DejaVuSans-50"/>
       <use x="63.623047" xlink:href="#DejaVuSans-48"/>
       <use x="127.246094" xlink:href="#DejaVuSans-48"/>
       <use x="190.869141" xlink:href="#DejaVuSans-48"/>
      </g>
     </g>
    </g>
    <g id="text_6">
     <!-- fibrinopeakac -->
     <defs>
      <path d="M 37.109375 75.984375 
L 37.109375 68.5 
L 28.515625 68.5 
Q 23.6875 68.5 21.796875 66.546875 
Q 19.921875 64.59375 19.921875 59.515625 
L 19.921875 54.6875 
L 34.71875 54.6875 
L 34.71875 47.703125 
L 19.921875 47.703125 
L 19.921875 0 
L 10.890625 0 
L 10.890625 47.703125 
L 2.296875 47.703125 
L 2.296875 54.6875 
L 10.890625 54.6875 
L 10.890625 58.5 
Q 10.890625 67.625 15.140625 71.796875 
Q 19.390625 75.984375 28.609375 75.984375 
z
" id="DejaVuSans-102"/>
      <path d="M 9.421875 54.6875 
L 18.40625 54.6875 
L 18.40625 0 
L 9.421875 0 
z
M 9.421875 75.984375 
L 18.40625 75.984375 
L 18.40625 64.59375 
L 9.421875 64.59375 
z
" id="DejaVuSans-105"/>
      <path d="M 48.6875 27.296875 
Q 48.6875 37.203125 44.609375 42.84375 
Q 40.53125 48.484375 33.40625 48.484375 
Q 26.265625 48.484375 22.1875 42.84375 
Q 18.109375 37.203125 18.109375 27.296875 
Q 18.109375 17.390625 22.1875 11.75 
Q 26.265625 6.109375 33.40625 6.109375 
Q 40.53125 6.109375 44.609375 11.75 
Q 48.6875 17.390625 48.6875 27.296875 
z
M 18.109375 46.390625 
Q 20.953125 51.265625 25.265625 53.625 
Q 29.59375 56 35.59375 56 
Q 45.5625 56 51.78125 48.09375 
Q 58.015625 40.1875 58.015625 27.296875 
Q 58.015625 14.40625 51.78125 6.484375 
Q 45.5625 -1.421875 35.59375 -1.421875 
Q 29.59375 -1.421875 25.265625 0.953125 
Q 20.953125 3.328125 18.109375 8.203125 
L 18.109375 0 
L 9.078125 0 
L 9.078125 75.984375 
L 18.109375 75.984375 
z
" id="DejaVuSans-98"/>
      <path d="M 41.109375 46.296875 
Q 39.59375 47.171875 37.8125 47.578125 
Q 36.03125 48 33.890625 48 
Q 26.265625 48 22.1875 43.046875 
Q 18.109375 38.09375 18.109375 28.8125 
L 18.109375 0 
L 9.078125 0 
L 9.078125 54.6875 
L 18.109375 54.6875 
L 18.109375 46.1875 
Q 20.953125 51.171875 25.484375 53.578125 
Q 30.03125 56 36.53125 56 
Q 37.453125 56 38.578125 55.875 
Q 39.703125 55.765625 41.0625 55.515625 
z
" id="DejaVuSans-114"/>
      <path d="M 54.890625 33.015625 
L 54.890625 0 
L 45.90625 0 
L 45.90625 32.71875 
Q 45.90625 40.484375 42.875 44.328125 
Q 39.84375 48.1875 33.796875 48.1875 
Q 26.515625 48.1875 22.3125 43.546875 
Q 18.109375 38.921875 18.109375 30.90625 
L 18.109375 0 
L 9.078125 0 
L 9.078125 54.6875 
L 18.109375 54.6875 
L 18.109375 46.1875 
Q 21.34375 51.125 25.703125 53.5625 
Q 30.078125 56 35.796875 56 
Q 45.21875 56 50.046875 50.171875 
Q 54.890625 44.34375 54.890625 33.015625 
z
" id="DejaVuSans-110"/>
      <path d="M 30.609375 48.390625 
Q 23.390625 48.390625 19.1875 42.75 
Q 14.984375 37.109375 14.984375 27.296875 
Q 14.984375 17.484375 19.15625 11.84375 
Q 23.34375 6.203125 30.609375 6.203125 
Q 37.796875 6.203125 41.984375 11.859375 
Q 46.1875 17.53125 46.1875 27.296875 
Q 46.1875 37.015625 41.984375 42.703125 
Q 37.796875 48.390625 30.609375 48.390625 
z
M 30.609375 56 
Q 42.328125 56 49.015625 48.375 
Q 55.71875 40.765625 55.71875 27.296875 
Q 55.71875 13.875 49.015625 6.21875 
Q 42.328125 -1.421875 30.609375 -1.421875 
Q 18.84375 -1.421875 12.171875 6.21875 
Q 5.515625 13.875 5.515625 27.296875 
Q 5.515625 40.765625 12.171875 48.375 
Q 18.84375 56 30.609375 56 
z
" id="DejaVuSans-111"/>
      <path d="M 18.109375 8.203125 
L 18.109375 -20.796875 
L 9.078125 -20.796875 
L 9.078125 54.6875 
L 18.109375 54.6875 
L 18.109375 46.390625 
Q 20.953125 51.265625 25.265625 53.625 
Q 29.59375 56 35.59375 56 
Q 45.5625 56 51.78125 48.09375 
Q 58.015625 40.1875 58.015625 27.296875 
Q 58.015625 14.40625 51.78125 6.484375 
Q 45.5625 -1.421875 35.59375 -1.421875 
Q 29.59375 -1.421875 25.265625 0.953125 
Q 20.953125 3.328125 18.109375 8.203125 
z
M 48.6875 27.296875 
Q 48.6875 37.203125 44.609375 42.84375 
Q 40.53125 48.484375 33.40625 48.484375 
Q 26.265625 48.484375 22.1875 42.84375 
Q 18.109375 37.203125 18.109375 27.296875 
Q 18.109375 17.390625 22.1875 11.75 
Q 26.265625 6.109375 33.40625 6.109375 
Q 40.53125 6.109375 44.609375 11.75 
Q 48.6875 17.390625 48.6875 27.296875 
z
" id="DejaVuSans-112"/>
      <path d="M 56.203125 29.59375 
L 56.203125 25.203125 
L 14.890625 25.203125 
Q 15.484375 15.921875 20.484375 11.0625 
Q 25.484375 6.203125 34.421875 6.203125 
Q 39.59375 6.203125 44.453125 7.46875 
Q 49.3125 8.734375 54.109375 11.28125 
L 54.109375 2.78125 
Q 49.265625 0.734375 44.1875 -0.34375 
Q 39.109375 -1.421875 33.890625 -1.421875 
Q 20.796875 -1.421875 13.15625 6.1875 
Q 5.515625 13.8125 5.515625 26.8125 
Q 5.515625 40.234375 12.765625 48.109375 
Q 20.015625 56 32.328125 56 
Q 43.359375 56 49.78125 48.890625 
Q 56.203125 41.796875 56.203125 29.59375 
z
M 47.21875 32.234375 
Q 47.125 39.59375 43.09375 43.984375 
Q 39.0625 48.390625 32.421875 48.390625 
Q 24.90625 48.390625 20.390625 44.140625 
Q 15.875 39.890625 15.1875 32.171875 
z
" id="DejaVuSans-101"/>
      <path d="M 34.28125 27.484375 
Q 23.390625 27.484375 19.1875 25 
Q 14.984375 22.515625 14.984375 16.5 
Q 14.984375 11.71875 18.140625 8.90625 
Q 21.296875 6.109375 26.703125 6.109375 
Q 34.1875 6.109375 38.703125 11.40625 
Q 43.21875 16.703125 43.21875 25.484375 
L 43.21875 27.484375 
z
M 52.203125 31.203125 
L 52.203125 0 
L 43.21875 0 
L 43.21875 8.296875 
Q 40.140625 3.328125 35.546875 0.953125 
Q 30.953125 -1.421875 24.3125 -1.421875 
Q 15.921875 -1.421875 10.953125 3.296875 
Q 6 8.015625 6 15.921875 
Q 6 25.140625 12.171875 29.828125 
Q 18.359375 34.515625 30.609375 34.515625 
L 43.21875 34.515625 
L 43.21875 35.40625 
Q 43.21875 41.609375 39.140625 45 
Q 35.0625 48.390625 27.6875 48.390625 
Q 23 48.390625 18.546875 47.265625 
Q 14.109375 46.140625 10.015625 43.890625 
L 10.015625 52.203125 
Q 14.9375 54.109375 19.578125 55.046875 
Q 24.21875 56 28.609375 56 
Q 40.484375 56 46.34375 49.84375 
Q 52.203125 43.703125 52.203125 31.203125 
z
" id="DejaVuSans-97"/>
      <path d="M 9.078125 75.984375 
L 18.109375 75.984375 
L 18.109375 31.109375 
L 44.921875 54.6875 
L 56.390625 54.6875 
L 27.390625 29.109375 
L 57.625 0 
L 45.90625 0 
L 18.109375 26.703125 
L 18.109375 0 
L 9.078125 0 
z
" id="DejaVuSans-107"/>
      <path d="M 48.78125 52.59375 
L 48.78125 44.1875 
Q 44.96875 46.296875 41.140625 47.34375 
Q 37.3125 48.390625 33.40625 48.390625 
Q 24.65625 48.390625 19.8125 42.84375 
Q 14.984375 37.3125 14.984375 27.296875 
Q 14.984375 17.28125 19.8125 11.734375 
Q 24.65625 6.203125 33.40625 6.203125 
Q 37.3125 6.203125 41.140625 7.25 
Q 44.96875 8.296875 48.78125 10.40625 
L 48.78125 2.09375 
Q 45.015625 0.34375 40.984375 -0.53125 
Q 36.96875 -1.421875 32.421875 -1.421875 
Q 20.0625 -1.421875 12.78125 6.34375 
Q 5.515625 14.109375 5.515625 27.296875 
Q 5.515625 40.671875 12.859375 48.328125 
Q 20.21875 56 33.015625 56 
Q 37.15625 56 41.109375 55.140625 
Q 45.0625 54.296875 48.78125 52.59375 
z
" id="DejaVuSans-99"/>
     </defs>
     <g transform="translate(202.227969 335.860562)scale(0.1 -0.1)">
      <use xlink:href="#DejaVuSans-102"/>
      <use x="35.205078" xlink:href="#DejaVuSans-105"/>
      <use x="62.988281" xlink:href="#DejaVuSans-98"/>
      <use x="126.464844" xlink:href="#DejaVuSans-114"/>
      <use x="167.578125" xlink:href="#DejaVuSans-105"/>
      <use x="195.361328" xlink:href="#DejaVuSans-110"/>
      <use x="258.740234" xlink:href="#DejaVuSans-111"/>
      <use x="319.921875" xlink:href="#DejaVuSans-112"/>
      <use x="383.398438" xlink:href="#DejaVuSans-101"/>
      <use x="444.921875" xlink:href="#DejaVuSans-97"/>
      <use x="506.201172" xlink:href="#DejaVuSans-107"/>
      <use x="562.361328" xlink:href="#DejaVuSans-97"/>
      <use x="623.640625" xlink:href="#DejaVuSans-99"/>
     </g>
    </g>
   </g>
   <g id="matplotlib.axis_2">
    <g id="ytick_1">
     <g id="line2d_6">
      <defs>
       <path d="M 0 0 
L -3.5 0 
" id="m63d7935f29" style="stroke:#000000;stroke-width:0.8;"/>
      </defs>
      <g>
       <use style="stroke:#000000;stroke-width:0.8;" x="57.6" xlink:href="#m63d7935f29" y="174.528"/>
      </g>
     </g>
    </g>
   </g>
   <g id="line2d_7">
    <path clip-path="url(#p23fc0d7d05)" d="M 116.886161 174.528 
L 254.120719 174.528 
" style="fill:none;stroke:#ffa500;stroke-linecap:square;stroke-width:1.5;"/>
   </g>
   <g id="line2d_8">
    <path clip-path="url(#p23fc0d7d05)" d="M 172.014573 174.528 
L 211.014993 174.528 
" style="fill:none;stroke:#4c4c4c;stroke-linecap:square;stroke-width:4.5;"/>
   </g>
   <g id="line2d_9">
    <path clip-path="url(#p23fc0d7d05)" d="M 137.412697 174.528 
L 246.056723 174.528 
" style="fill:none;stroke:#008000;stroke-linecap:square;stroke-width:1.5;"/>
   </g>
   <g id="line2d_10">
    <path clip-path="url(#p23fc0d7d05)" d="M 158.269125 174.528 
L 194.557109 174.528 
" style="fill:none;stroke:#262626;stroke-linecap:square;stroke-width:4.5;"/>
   </g>
   <g id="patch_3">
    <path d="M 57.6 307.584 
L 57.6 41.472 
" style="fill:none;stroke:#000000;stroke-linecap:square;stroke-linejoin:miter;stroke-width:0.8;"/>
   </g>
   <g id="patch_4">
    <path d="M 414.72 307.584 
L 414.72 41.472 
" style="fill:none;stroke:#000000;stroke-linecap:square;stroke-linejoin:miter;stroke-width:0.8;"/>
   </g>
   <g id="patch_5">
    <path d="M 57.6 307.584 
L 414.72 307.584 
" style="fill:none;stroke:#000000;stroke-linecap:square;stroke-linejoin:miter;stroke-width:0.8;"/>
   </g>
   <g id="patch_6">
    <path d="M 57.6 41.472 
L 414.72 41.472 
" style="fill:none;stroke:#000000;stroke-linecap:square;stroke-linejoin:miter;stroke-width:0.8;"/>
   </g>
   <g id="PathCollection_1">
    <defs>
     <path d="M 0 1.5 
C 0.397805 1.5 0.77937 1.341951 1.06066 1.06066 
C 1.341951 0.77937 1.5 0.397805 1.5 0 
C 1.5 -0.397805 1.341951 -0.77937 1.06066 -1.06066 
C 0.77937 -1.341951 0.397805 -1.5 0 -1.5 
C -0.397805 -1.5 -0.77937 -1.341951 -1.06066 -1.06066 
C -1.341951 -0.77937 -1.5 -0.397805 -1.5 0 
C -1.5 0.397805 -1.341951 0.77937 -1.06066 1.06066 
C -0.77937 1.341951 -0.397805 1.5 0 1.5 
z
" id="ma08a47b057" style="stroke:#4c4c4c;stroke-opacity:0.5;"/>
    </defs>
    <g clip-path="url(#p23fc0d7d05)">
     <use style="fill:#ffffff;fill-opacity:0.5;stroke:#4c4c4c;stroke-opacity:0.5;" x="196.646417" xlink:href="#ma08a47b057" y="174.528"/>
    </g>
   </g>
   <g id="PathCollection_2">
    <defs>
     <path d="M 0 1.5 
C 0.397805 1.5 0.77937 1.341951 1.06066 1.06066 
C 1.341951 0.77937 1.5 0.397805 1.5 0 
C 1.5 -0.397805 1.341951 -0.77937 1.06066 -1.06066 
C 0.77937 -1.341951 0.397805 -1.5 0 -1.5 
C -0.397805 -1.5 -0.77937 -1.341951 -1.06066 -1.06066 
C -1.341951 -0.77937 -1.5 -0.397805 -1.5 0 
C -1.5 0.397805 -1.341951 0.77937 -1.06066 1.06066 
C -0.77937 1.341951 -0.397805 1.5 0 1.5 
z
" id="mc26463c81a" style="stroke:#262626;stroke-opacity:0.5;"/>
    </defs>
    <g clip-path="url(#p23fc0d7d05)">
     <use style="fill:#ffffff;fill-opacity:0.5;stroke:#262626;stroke-opacity:0.5;" x="182.571078" xlink:href="#mc26463c81a" y="174.528"/>
    </g>
   </g>
   <g id="text_7">
    <!-- Association of fibrinopeakac vs. intubation -->
    <defs>
     <path d="M 34.1875 63.1875 
L 20.796875 26.90625 
L 47.609375 26.90625 
z
M 28.609375 72.90625 
L 39.796875 72.90625 
L 67.578125 0 
L 57.328125 0 
L 50.6875 18.703125 
L 17.828125 18.703125 
L 11.1875 0 
L 0.78125 0 
z
" id="DejaVuSans-65"/>
     <path d="M 44.28125 53.078125 
L 44.28125 44.578125 
Q 40.484375 46.53125 36.375 47.5 
Q 32.28125 48.484375 27.875 48.484375 
Q 21.1875 48.484375 17.84375 46.4375 
Q 14.5 44.390625 14.5 40.28125 
Q 14.5 37.15625 16.890625 35.375 
Q 19.28125 33.59375 26.515625 31.984375 
L 29.59375 31.296875 
Q 39.15625 29.25 43.1875 25.515625 
Q 47.21875 21.78125 47.21875 15.09375 
Q 47.21875 7.46875 41.1875 3.015625 
Q 35.15625 -1.421875 24.609375 -1.421875 
Q 20.21875 -1.421875 15.453125 -0.5625 
Q 10.6875 0.296875 5.421875 2 
L 5.421875 11.28125 
Q 10.40625 8.6875 15.234375 7.390625 
Q 20.0625 6.109375 24.8125 6.109375 
Q 31.15625 6.109375 34.5625 8.28125 
Q 37.984375 10.453125 37.984375 14.40625 
Q 37.984375 18.0625 35.515625 20.015625 
Q 33.0625 21.96875 24.703125 23.78125 
L 21.578125 24.515625 
Q 13.234375 26.265625 9.515625 29.90625 
Q 5.8125 33.546875 5.8125 39.890625 
Q 5.8125 47.609375 11.28125 51.796875 
Q 16.75 56 26.8125 56 
Q 31.78125 56 36.171875 55.265625 
Q 40.578125 54.546875 44.28125 53.078125 
z
" id="DejaVuSans-115"/>
     <path d="M 18.3125 70.21875 
L 18.3125 54.6875 
L 36.8125 54.6875 
L 36.8125 47.703125 
L 18.3125 47.703125 
L 18.3125 18.015625 
Q 18.3125 11.328125 20.140625 9.421875 
Q 21.96875 7.515625 27.59375 7.515625 
L 36.8125 7.515625 
L 36.8125 0 
L 27.59375 0 
Q 17.1875 0 13.234375 3.875 
Q 9.28125 7.765625 9.28125 18.015625 
L 9.28125 47.703125 
L 2.6875 47.703125 
L 2.6875 54.6875 
L 9.28125 54.6875 
L 9.28125 70.21875 
z
" id="DejaVuSans-116"/>
     <path id="DejaVuSans-32"/>
     <path d="M 2.984375 54.6875 
L 12.5 54.6875 
L 29.59375 8.796875 
L 46.6875 54.6875 
L 56.203125 54.6875 
L 35.6875 0 
L 23.484375 0 
z
" id="DejaVuSans-118"/>
     <path d="M 10.6875 12.40625 
L 21 12.40625 
L 21 0 
L 10.6875 0 
z
" id="DejaVuSans-46"/>
     <path d="M 8.5 21.578125 
L 8.5 54.6875 
L 17.484375 54.6875 
L 17.484375 21.921875 
Q 17.484375 14.15625 20.5 10.265625 
Q 23.53125 6.390625 29.59375 6.390625 
Q 36.859375 6.390625 41.078125 11.03125 
Q 45.3125 15.671875 45.3125 23.6875 
L 45.3125 54.6875 
L 54.296875 54.6875 
L 54.296875 0 
L 45.3125 0 
L 45.3125 8.40625 
Q 42.046875 3.421875 37.71875 1 
Q 33.40625 -1.421875 27.6875 -1.421875 
Q 18.265625 -1.421875 13.375 4.4375 
Q 8.5 10.296875 8.5 21.578125 
z
M 31.109375 56 
z
" id="DejaVuSans-117"/>
    </defs>
    <g transform="translate(108.681562 35.472)scale(0.12 -0.12)">
     <use xlink:href="#DejaVuSans-65"/>
     <use x="68.408203" xlink:href="#DejaVuSans-115"/>
     <use x="120.507812" xlink:href="#DejaVuSans-115"/>
     <use x="172.607422" xlink:href="#DejaVuSans-111"/>
     <use x="233.789062" xlink:href="#DejaVuSans-99"/>
     <use x="288.769531" xlink:href="#DejaVuSans-105"/>
     <use x="316.552734" xlink:href="#DejaVuSans-97"/>
     <use x="377.832031" xlink:href="#DejaVuSans-116"/>
     <use x="417.041016" xlink:href="#DejaVuSans-105"/>
     <use x="444.824219" xlink:href="#DejaVuSans-111"/>
     <use x="506.005859" xlink:href="#DejaVuSans-110"/>
     <use x="569.384766" xlink:href="#DejaVuSans-32"/>
     <use x="601.171875" xlink:href="#DejaVuSans-111"/>
     <use x="662.353516" xlink:href="#DejaVuSans-102"/>
     <use x="697.558594" xlink:href="#DejaVuSans-32"/>
     <use x="729.345703" xlink:href="#DejaVuSans-102"/>
     <use x="764.550781" xlink:href="#DejaVuSans-105"/>
     <use x="792.333984" xlink:href="#DejaVuSans-98"/>
     <use x="855.810547" xlink:href="#DejaVuSans-114"/>
     <use x="896.923828" xlink:href="#DejaVuSans-105"/>
     <use x="924.707031" xlink:href="#DejaVuSans-110"/>
     <use x="988.085938" xlink:href="#DejaVuSans-111"/>
     <use x="1049.267578" xlink:href="#DejaVuSans-112"/>
     <use x="1112.744141" xlink:href="#DejaVuSans-101"/>
     <use x="1174.267578" xlink:href="#DejaVuSans-97"/>
     <use x="1235.546875" xlink:href="#DejaVuSans-107"/>
     <use x="1291.707031" xlink:href="#DejaVuSans-97"/>
     <use x="1352.986328" xlink:href="#DejaVuSans-99"/>
     <use x="1407.966797" xlink:href="#DejaVuSans-32"/>
     <use x="1439.753906" xlink:href="#DejaVuSans-118"/>
     <use x="1498.933594" xlink:href="#DejaVuSans-115"/>
     <use x="1551.033203" xlink:href="#DejaVuSans-46"/>
     <use x="1582.820312" xlink:href="#DejaVuSans-32"/>
     <use x="1614.607422" xlink:href="#DejaVuSans-105"/>
     <use x="1642.390625" xlink:href="#DejaVuSans-110"/>
     <use x="1705.769531" xlink:href="#DejaVuSans-116"/>
     <use x="1744.978516" xlink:href="#DejaVuSans-117"/>
     <use x="1808.357422" xlink:href="#DejaVuSans-98"/>
     <use x="1871.833984" xlink:href="#DejaVuSans-97"/>
     <use x="1933.113281" xlink:href="#DejaVuSans-116"/>
     <use x="1972.322266" xlink:href="#DejaVuSans-105"/>
     <use x="2000.105469" xlink:href="#DejaVuSans-111"/>
     <use x="2061.287109" xlink:href="#DejaVuSans-110"/>
    </g>
   </g>
   <g id="legend_1">
    <g id="patch_7">
     <path d="M 280.310625 78.82825 
L 407.72 78.82825 
Q 409.72 78.82825 409.72 76.82825 
L 409.72 48.472 
Q 409.72 46.472 407.72 46.472 
L 280.310625 46.472 
Q 278.310625 46.472 278.310625 48.472 
L 278.310625 76.82825 
Q 278.310625 78.82825 280.310625 78.82825 
z
" style="fill:#ffffff;opacity:0.8;stroke:#cccccc;stroke-linejoin:miter;"/>
    </g>
    <g id="line2d_11">
     <path d="M 282.310625 54.570437 
L 302.310625 54.570437 
" style="fill:none;stroke:#ffa500;stroke-linecap:square;stroke-width:1.5;"/>
    </g>
    <g id="line2d_12"/>
    <g id="text_8">
     <!-- intubation (27) -->
     <defs>
      <path d="M 31 75.875 
Q 24.46875 64.65625 21.28125 53.65625 
Q 18.109375 42.671875 18.109375 31.390625 
Q 18.109375 20.125 21.3125 9.0625 
Q 24.515625 -2 31 -13.1875 
L 23.1875 -13.1875 
Q 15.875 -1.703125 12.234375 9.375 
Q 8.59375 20.453125 8.59375 31.390625 
Q 8.59375 42.28125 12.203125 53.3125 
Q 15.828125 64.359375 23.1875 75.875 
z
" id="DejaVuSans-40"/>
      <path d="M 8.203125 72.90625 
L 55.078125 72.90625 
L 55.078125 68.703125 
L 28.609375 0 
L 18.3125 0 
L 43.21875 64.59375 
L 8.203125 64.59375 
z
" id="DejaVuSans-55"/>
      <path d="M 8.015625 75.875 
L 15.828125 75.875 
Q 23.140625 64.359375 26.78125 53.3125 
Q 30.421875 42.28125 30.421875 31.390625 
Q 30.421875 20.453125 26.78125 9.375 
Q 23.140625 -1.703125 15.828125 -13.1875 
L 8.015625 -13.1875 
Q 14.5 -2 17.703125 9.0625 
Q 20.90625 20.125 20.90625 31.390625 
Q 20.90625 42.671875 17.703125 53.65625 
Q 14.5 64.65625 8.015625 75.875 
z
" id="DejaVuSans-41"/>
     </defs>
     <g transform="translate(310.310625 58.070437)scale(0.1 -0.1)">
      <use xlink:href="#DejaVuSans-105"/>
      <use x="27.783203" xlink:href="#DejaVuSans-110"/>
      <use x="91.162109" xlink:href="#DejaVuSans-116"/>
      <use x="130.371094" xlink:href="#DejaVuSans-117"/>
      <use x="193.75" xlink:href="#DejaVuSans-98"/>
      <use x="257.226562" xlink:href="#DejaVuSans-97"/>
      <use x="318.505859" xlink:href="#DejaVuSans-116"/>
      <use x="357.714844" xlink:href="#DejaVuSans-105"/>
      <use x="385.498047" xlink:href="#DejaVuSans-111"/>
      <use x="446.679688" xlink:href="#DejaVuSans-110"/>
      <use x="510.058594" xlink:href="#DejaVuSans-32"/>
      <use x="541.845703" xlink:href="#DejaVuSans-40"/>
      <use x="580.859375" xlink:href="#DejaVuSans-50"/>
      <use x="644.482422" xlink:href="#DejaVuSans-55"/>
      <use x="708.105469" xlink:href="#DejaVuSans-41"/>
     </g>
    </g>
    <g id="line2d_13">
     <path d="M 282.310625 69.248562 
L 302.310625 69.248562 
" style="fill:none;stroke:#008000;stroke-linecap:square;stroke-width:1.5;"/>
    </g>
    <g id="line2d_14"/>
    <g id="text_9">
     <!-- Not intubation (26) -->
     <defs>
      <path d="M 9.8125 72.90625 
L 23.09375 72.90625 
L 55.421875 11.921875 
L 55.421875 72.90625 
L 64.984375 72.90625 
L 64.984375 0 
L 51.703125 0 
L 19.390625 60.984375 
L 19.390625 0 
L 9.8125 0 
z
" id="DejaVuSans-78"/>
      <path d="M 33.015625 40.375 
Q 26.375 40.375 22.484375 35.828125 
Q 18.609375 31.296875 18.609375 23.390625 
Q 18.609375 15.53125 22.484375 10.953125 
Q 26.375 6.390625 33.015625 6.390625 
Q 39.65625 6.390625 43.53125 10.953125 
Q 47.40625 15.53125 47.40625 23.390625 
Q 47.40625 31.296875 43.53125 35.828125 
Q 39.65625 40.375 33.015625 40.375 
z
M 52.59375 71.296875 
L 52.59375 62.3125 
Q 48.875 64.0625 45.09375 64.984375 
Q 41.3125 65.921875 37.59375 65.921875 
Q 27.828125 65.921875 22.671875 59.328125 
Q 17.53125 52.734375 16.796875 39.40625 
Q 19.671875 43.65625 24.015625 45.921875 
Q 28.375 48.1875 33.59375 48.1875 
Q 44.578125 48.1875 50.953125 41.515625 
Q 57.328125 34.859375 57.328125 23.390625 
Q 57.328125 12.15625 50.6875 5.359375 
Q 44.046875 -1.421875 33.015625 -1.421875 
Q 20.359375 -1.421875 13.671875 8.265625 
Q 6.984375 17.96875 6.984375 36.375 
Q 6.984375 53.65625 15.1875 63.9375 
Q 23.390625 74.21875 37.203125 74.21875 
Q 40.921875 74.21875 44.703125 73.484375 
Q 48.484375 72.75 52.59375 71.296875 
z
" id="DejaVuSans-54"/>
     </defs>
     <g transform="translate(310.310625 72.748562)scale(0.1 -0.1)">
      <use xlink:href="#DejaVuSans-78"/>
      <use x="74.804688" xlink:href="#DejaVuSans-111"/>
      <use x="135.986328" xlink:href="#DejaVuSans-116"/>
      <use x="175.195312" xlink:href="#DejaVuSans-32"/>
      <use x="206.982422" xlink:href="#DejaVuSans-105"/>
      <use x="234.765625" xlink:href="#DejaVuSans-110"/>
      <use x="298.144531" xlink:href="#DejaVuSans-116"/>
      <use x="337.353516" xlink:href="#DejaVuSans-117"/>
      <use x="400.732422" xlink:href="#DejaVuSans-98"/>
      <use x="464.208984" xlink:href="#DejaVuSans-97"/>
      <use x="525.488281" xlink:href="#DejaVuSans-116"/>
      <use x="564.697266" xlink:href="#DejaVuSans-105"/>
      <use x="592.480469" xlink:href="#DejaVuSans-111"/>
      <use x="653.662109" xlink:href="#DejaVuSans-110"/>
      <use x="717.041016" xlink:href="#DejaVuSans-32"/>
      <use x="748.828125" xlink:href="#DejaVuSans-40"/>
      <use x="787.841797" xlink:href="#DejaVuSans-50"/>
      <use x="851.464844" xlink:href="#DejaVuSans-54"/>
      <use x="915.087891" xlink:href="#DejaVuSans-41"/>
     </g>
    </g>
   </g>
  </g>
 </g>
 <defs>
  <clipPath id="p23fc0d7d05">
   <rect height="266.112" width="357.12" x="57.6" y="41.472"/>
  </clipPath>
 </defs>
</svg>
