<?xml version="1.0" encoding="utf-8" standalone="no"?>
<!DOCTYPE svg PUBLIC "-//W3C//DTD SVG 1.1//EN"
  "http://www.w3.org/Graphics/SVG/1.1/DTD/svg11.dtd">
<!-- Created with matplotlib (https://matplotlib.org/) -->
<svg height="345.6pt" version="1.1" viewBox="0 0 460.8 345.6" width="460.8pt" xmlns="http://www.w3.org/2000/svg" xmlns:xlink="http://www.w3.org/1999/xlink">
 <defs>
  <style type="text/css">
*{stroke-linecap:butt;stroke-linejoin:round;}
  </style>
 </defs>
 <g id="figure_1">
  <g id="patch_1">
   <path d="M 0 345.6 
L 460.8 345.6 
L 460.8 0 
L 0 0 
z
" style="fill:#ffffff;"/>
  </g>
  <g id="axes_1">
   <g id="patch_2">
    <path d="M 57.6 307.584 
L 414.72 307.584 
L 414.72 41.472 
L 57.6 41.472 
z
" style="fill:#ffffff;"/>
   </g>
   <g id="PolyCollection_1">
    <defs>
     <path d="M 73.832727 -169.718488 
L 73.832727 -172.425512 
L 77.112066 -173.080557 
L 80.391405 -173.953068 
L 83.670744 -175.069323 
L 86.950083 -176.441432 
L 90.229421 -178.06327 
L 93.50876 -179.909819 
L 96.788099 -181.941265 
L 100.067438 -184.112224 
L 103.346777 -186.385015 
L 106.626116 -188.74442 
L 109.905455 -191.210317 
L 113.184793 -193.844397 
L 116.464132 -196.748038 
L 119.743471 -200.050233 
L 123.02281 -203.886712 
L 126.302149 -208.373669 
L 129.581488 -213.58102 
L 132.860826 -219.510714 
L 136.140165 -226.085036 
L 139.419504 -233.148134 
L 142.698843 -240.481561 
L 145.978182 -247.831659 
L 149.257521 -254.943822 
L 152.53686 -261.596729 
L 155.816198 -267.629058 
L 159.095537 -272.952605 
L 162.374876 -277.548876 
L 165.654215 -281.450543 
L 168.933554 -284.713305 
L 172.212893 -287.386342 
L 175.492231 -289.489692 
L 178.77157 -291.004322 
L 182.050909 -291.876309 
L 185.330248 -292.032 
L 188.609587 -291.397924 
L 191.888926 -289.918662 
L 195.168264 -287.567859 
L 198.447603 -284.350972 
L 201.726942 -280.301671 
L 205.006281 -275.475691 
L 208.28562 -269.945769 
L 211.564959 -263.799602 
L 214.844298 -257.140442 
L 218.123636 -250.088298 
L 221.402975 -242.779328 
L 224.682314 -235.361833 
L 227.961653 -227.988792 
L 231.240992 -220.808302 
L 234.520331 -213.953954 
L 237.799669 -207.537082 
L 241.079008 -201.642044 
L 244.358347 -196.32476 
L 247.637686 -191.613984 
L 250.917025 -187.514375 
L 254.196364 -184.010458 
L 257.475702 -181.070768 
L 260.755041 -178.651807 
L 264.03438 -176.701656 
L 267.313719 -175.163267 
L 270.593058 -173.977465 
L 273.872397 -173.085665 
L 277.151736 -172.432252 
L 280.431074 -171.966513 
L 283.710413 -171.644019 
L 286.989752 -171.427394 
L 290.269091 -171.286477 
L 293.54843 -171.197964 
L 296.827769 -171.144691 
L 300.107107 -171.114724 
L 303.386446 -171.100457 
L 306.665785 -171.097833 
L 309.945124 -171.105795 
L 313.224463 -171.125975 
L 316.503802 -171.162557 
L 319.78314 -171.222199 
L 323.062479 -171.313813 
L 326.341818 -171.447986 
L 329.621157 -171.635836 
L 332.900496 -171.887204 
L 336.179835 -172.208241 
L 339.459174 -172.5987 
L 342.738512 -173.049485 
L 346.017851 -173.541153 
L 349.29719 -174.044063 
L 352.576529 -174.520602 
L 355.855868 -174.929476 
L 359.135207 -175.231475 
L 362.414545 -175.395633 
L 365.693884 -175.404456 
L 368.973223 -175.256993 
L 372.252562 -174.968999 
L 375.531901 -174.57017 
L 378.81124 -174.099099 
L 382.090579 -173.597152 
L 385.369917 -173.102595 
L 388.649256 -172.646107 
L 391.928595 -172.248306 
L 395.207934 -171.919386 
L 398.487273 -171.660461 
L 398.487273 -170.483539 
L 398.487273 -170.483539 
L 395.207934 -170.224614 
L 391.928595 -169.895694 
L 388.649256 -169.497893 
L 385.369917 -169.041405 
L 382.090579 -168.546848 
L 378.81124 -168.044901 
L 375.531901 -167.57383 
L 372.252562 -167.175001 
L 368.973223 -166.887007 
L 365.693884 -166.739544 
L 362.414545 -166.748367 
L 359.135207 -166.912525 
L 355.855868 -167.214524 
L 352.576529 -167.623398 
L 349.29719 -168.099937 
L 346.017851 -168.602847 
L 342.738512 -169.094515 
L 339.459174 -169.5453 
L 336.179835 -169.935759 
L 332.900496 -170.256796 
L 329.621157 -170.508164 
L 326.341818 -170.696014 
L 323.062479 -170.830187 
L 319.78314 -170.921801 
L 316.503802 -170.981443 
L 313.224463 -171.018025 
L 309.945124 -171.038205 
L 306.665785 -171.046167 
L 303.386446 -171.043543 
L 300.107107 -171.029276 
L 296.827769 -170.999309 
L 293.54843 -170.946036 
L 290.269091 -170.857523 
L 286.989752 -170.716606 
L 283.710413 -170.499981 
L 280.431074 -170.177487 
L 277.151736 -169.711748 
L 273.872397 -169.058335 
L 270.593058 -168.166535 
L 267.313719 -166.980733 
L 264.03438 -165.442344 
L 260.755041 -163.492193 
L 257.475702 -161.073232 
L 254.196364 -158.133542 
L 250.917025 -154.629625 
L 247.637686 -150.530016 
L 244.358347 -145.81924 
L 241.079008 -140.501956 
L 237.799669 -134.606918 
L 234.520331 -128.190046 
L 231.240992 -121.335698 
L 227.961653 -114.155208 
L 224.682314 -106.782167 
L 221.402975 -99.364672 
L 218.123636 -92.055702 
L 214.844298 -85.003558 
L 211.564959 -78.344398 
L 208.28562 -72.198231 
L 205.006281 -66.668309 
L 201.726942 -61.842329 
L 198.447603 -57.793028 
L 195.168264 -54.576141 
L 191.888926 -52.225338 
L 188.609587 -50.746076 
L 185.330248 -50.112 
L 182.050909 -50.267691 
L 178.77157 -51.139678 
L 175.492231 -52.654308 
L 172.212893 -54.757658 
L 168.933554 -57.430695 
L 165.654215 -60.693457 
L 162.374876 -64.595124 
L 159.095537 -69.191395 
L 155.816198 -74.514942 
L 152.53686 -80.547271 
L 149.257521 -87.200178 
L 145.978182 -94.312341 
L 142.698843 -101.662439 
L 139.419504 -108.995866 
L 136.140165 -116.058964 
L 132.860826 -122.633286 
L 129.581488 -128.56298 
L 126.302149 -133.770331 
L 123.02281 -138.257288 
L 119.743471 -142.093767 
L 116.464132 -145.395962 
L 113.184793 -148.299603 
L 109.905455 -150.933683 
L 106.626116 -153.39958 
L 103.346777 -155.758985 
L 100.067438 -158.031776 
L 96.788099 -160.202735 
L 93.50876 -162.234181 
L 90.229421 -164.08073 
L 86.950083 -165.702568 
L 83.670744 -167.074677 
L 80.391405 -168.190932 
L 77.112066 -169.063443 
L 73.832727 -169.718488 
z
" id="m5b155ef1d3" style="stroke:#4c4c4c;stroke-opacity:0.5;stroke-width:1.5;"/>
    </defs>
    <g clip-path="url(#p76bac2880a)">
     <use style="fill:#df9c20;fill-opacity:0.5;stroke:#4c4c4c;stroke-opacity:0.5;stroke-width:1.5;" x="0" xlink:href="#m5b155ef1d3" y="345.6"/>
    </g>
   </g>
   <g id="PolyCollection_2">
    <defs>
     <path d="M 86.264859 -165.938392 
L 86.264859 -176.205608 
L 87.995365 -177.365279 
L 89.725872 -178.725397 
L 91.456378 -180.305556 
L 93.186885 -182.123921 
L 94.917391 -184.196401 
L 96.647898 -186.535783 
L 98.378404 -189.150868 
L 100.108911 -192.045656 
L 101.839417 -195.218637 
L 103.569924 -198.662245 
L 105.30043 -202.362514 
L 107.030937 -206.299001 
L 108.761443 -210.444997 
L 110.49195 -214.768041 
L 112.222456 -219.230754 
L 113.952963 -223.791944 
L 115.683469 -228.407952 
L 117.413976 -233.034174 
L 119.144482 -237.626655 
L 120.874989 -242.143681 
L 122.605495 -246.547234 
L 124.336002 -250.804238 
L 126.066508 -254.887482 
L 127.797015 -258.776156 
L 129.527521 -262.455955 
L 131.258028 -265.918738 
L 132.988534 -269.161758 
L 134.719041 -272.186545 
L 136.449547 -274.9975 
L 138.180054 -277.600348 
L 139.91056 -280.000568 
L 141.641067 -282.201944 
L 143.371573 -284.205367 
L 145.10208 -286.008008 
L 146.832586 -287.602938 
L 148.563093 -288.979238 
L 150.293599 -290.122616 
L 152.024105 -291.016471 
L 153.754612 -291.643325 
L 155.485118 -291.986518 
L 157.215625 -292.032 
L 158.946131 -291.770092 
L 160.676638 -291.197042 
L 162.407144 -290.316252 
L 164.137651 -289.139057 
L 165.868157 -287.684994 
L 167.598664 -285.981507 
L 169.32917 -284.063119 
L 171.059677 -281.970118 
L 172.790183 -279.746835 
L 174.52069 -277.43965 
L 176.251196 -275.094852 
L 177.981703 -272.756489 
L 179.712209 -270.464357 
L 181.442716 -268.252246 
L 183.173222 -266.146536 
L 184.903729 -264.165222 
L 186.634235 -262.317402 
L 188.364742 -260.603234 
L 190.095248 -259.014341 
L 191.825755 -257.534613 
L 193.556261 -256.141345 
L 195.286768 -254.806621 
L 197.017274 -253.498858 
L 198.747781 -252.184438 
L 200.478287 -250.829322 
L 202.208794 -249.400592 
L 203.9393 -247.867857 
L 205.669807 -246.204466 
L 207.400313 -244.388508 
L 209.13082 -242.403563 
L 210.861326 -240.239215 
L 212.591833 -237.891303 
L 214.322339 -235.361946 
L 216.052846 -232.659329 
L 217.783352 -229.797308 
L 219.513859 -226.794818 
L 221.244365 -223.675152 
L 222.974872 -220.465116 
L 224.705378 -217.194109 
L 226.435885 -213.893153 
L 228.166391 -210.593917 
L 229.896898 -207.327765 
L 231.627404 -204.12486 
L 233.357911 -201.013355 
L 235.088417 -198.018696 
L 236.818923 -195.163063 
L 238.54943 -192.464946 
L 240.279936 -189.938888 
L 242.010443 -187.595371 
L 243.740949 -185.440852 
L 245.471456 -183.477931 
L 247.201962 -181.705636 
L 248.932469 -180.119799 
L 250.662975 -178.713499 
L 252.393482 -177.477552 
L 254.123988 -176.401013 
L 255.854495 -175.471679 
L 257.585001 -174.676565 
L 257.585001 -167.467435 
L 257.585001 -167.467435 
L 255.854495 -166.672321 
L 254.123988 -165.742987 
L 252.393482 -164.666448 
L 250.662975 -163.430501 
L 248.932469 -162.024201 
L 247.201962 -160.438364 
L 245.471456 -158.666069 
L 243.740949 -156.703148 
L 242.010443 -154.548629 
L 240.279936 -152.205112 
L 238.54943 -149.679054 
L 236.818923 -146.980937 
L 235.088417 -144.125304 
L 233.357911 -141.130645 
L 231.627404 -138.01914 
L 229.896898 -134.816235 
L 228.166391 -131.550083 
L 226.435885 -128.250847 
L 224.705378 -124.949891 
L 222.974872 -121.678884 
L 221.244365 -118.468848 
L 219.513859 -115.349182 
L 217.783352 -112.346692 
L 216.052846 -109.484671 
L 214.322339 -106.782054 
L 212.591833 -104.252697 
L 210.861326 -101.904785 
L 209.13082 -99.740437 
L 207.400313 -97.755492 
L 205.669807 -95.939534 
L 203.9393 -94.276143 
L 202.208794 -92.743408 
L 200.478287 -91.314678 
L 198.747781 -89.959562 
L 197.017274 -88.645142 
L 195.286768 -87.337379 
L 193.556261 -86.002655 
L 191.825755 -84.609387 
L 190.095248 -83.129659 
L 188.364742 -81.540766 
L 186.634235 -79.826598 
L 184.903729 -77.978778 
L 183.173222 -75.997464 
L 181.442716 -73.891754 
L 179.712209 -71.679643 
L 177.981703 -69.387511 
L 176.251196 -67.049148 
L 174.52069 -64.70435 
L 172.790183 -62.397165 
L 171.059677 -60.173882 
L 169.32917 -58.080881 
L 167.598664 -56.162493 
L 165.868157 -54.459006 
L 164.137651 -53.004943 
L 162.407144 -51.827748 
L 160.676638 -50.946958 
L 158.946131 -50.373908 
L 157.215625 -50.112 
L 155.485118 -50.157482 
L 153.754612 -50.500675 
L 152.024105 -51.127529 
L 150.293599 -52.021384 
L 148.563093 -53.164762 
L 146.832586 -54.541062 
L 145.10208 -56.135992 
L 143.371573 -57.938633 
L 141.641067 -59.942056 
L 139.91056 -62.143432 
L 138.180054 -64.543652 
L 136.449547 -67.1465 
L 134.719041 -69.957455 
L 132.988534 -72.982242 
L 131.258028 -76.225262 
L 129.527521 -79.688045 
L 127.797015 -83.367844 
L 126.066508 -87.256518 
L 124.336002 -91.339762 
L 122.605495 -95.596766 
L 120.874989 -100.000319 
L 119.144482 -104.517345 
L 117.413976 -109.109826 
L 115.683469 -113.736048 
L 113.952963 -118.352056 
L 112.222456 -122.913246 
L 110.49195 -127.375959 
L 108.761443 -131.699003 
L 107.030937 -135.844999 
L 105.30043 -139.781486 
L 103.569924 -143.481755 
L 101.839417 -146.925363 
L 100.108911 -150.098344 
L 98.378404 -152.993132 
L 96.647898 -155.608217 
L 94.917391 -157.947599 
L 93.186885 -160.020079 
L 91.456378 -161.838444 
L 89.725872 -163.418603 
L 87.995365 -164.778721 
L 86.264859 -165.938392 
z
" id="m0fcbf2c5bc" style="stroke:#262626;stroke-opacity:0.5;stroke-width:1.5;"/>
    </defs>
    <g clip-path="url(#p76bac2880a)">
     <use style="fill:#107010;fill-opacity:0.5;stroke:#262626;stroke-opacity:0.5;stroke-width:1.5;" x="0" xlink:href="#m0fcbf2c5bc" y="345.6"/>
    </g>
   </g>
   <g id="matplotlib.axis_1">
    <g id="xtick_1">
     <g id="line2d_1">
      <defs>
       <path d="M 0 0 
L 0 3.5 
" id="m2a47193620" style="stroke:#000000;stroke-width:0.8;"/>
      </defs>
      <g>
       <use style="stroke:#000000;stroke-width:0.8;" x="80.846528" xlink:href="#m2a47193620" y="307.584"/>
      </g>
     </g>
     <g id="text_1">
      <!-- 0 -->
      <defs>
       <path d="M 31.78125 66.40625 
Q 24.171875 66.40625 20.328125 58.90625 
Q 16.5 51.421875 16.5 36.375 
Q 16.5 21.390625 20.328125 13.890625 
Q 24.171875 6.390625 31.78125 6.390625 
Q 39.453125 6.390625 43.28125 13.890625 
Q 47.125 21.390625 47.125 36.375 
Q 47.125 51.421875 43.28125 58.90625 
Q 39.453125 66.40625 31.78125 66.40625 
z
M 31.78125 74.21875 
Q 44.046875 74.21875 50.515625 64.515625 
Q 56.984375 54.828125 56.984375 36.375 
Q 56.984375 17.96875 50.515625 8.265625 
Q 44.046875 -1.421875 31.78125 -1.421875 
Q 19.53125 -1.421875 13.0625 8.265625 
Q 6.59375 17.96875 6.59375 36.375 
Q 6.59375 54.828125 13.0625 64.515625 
Q 19.53125 74.21875 31.78125 74.21875 
z
" id="DejaVuSans-48"/>
      </defs>
      <g transform="translate(77.665278 322.182437)scale(0.1 -0.1)">
       <use xlink:href="#DejaVuSans-48"/>
      </g>
     </g>
    </g>
    <g id="xtick_2">
     <g id="line2d_2">
      <g>
       <use style="stroke:#000000;stroke-width:0.8;" x="159.565977" xlink:href="#m2a47193620" y="307.584"/>
      </g>
     </g>
     <g id="text_2">
      <!-- 500 -->
      <defs>
       <path d="M 10.796875 72.90625 
L 49.515625 72.90625 
L 49.515625 64.59375 
L 19.828125 64.59375 
L 19.828125 46.734375 
Q 21.96875 47.46875 24.109375 47.828125 
Q 26.265625 48.1875 28.421875 48.1875 
Q 40.625 48.1875 47.75 41.5 
Q 54.890625 34.8125 54.890625 23.390625 
Q 54.890625 11.625 47.5625 5.09375 
Q 40.234375 -1.421875 26.90625 -1.421875 
Q 22.3125 -1.421875 17.546875 -0.640625 
Q 12.796875 0.140625 7.71875 1.703125 
L 7.71875 11.625 
Q 12.109375 9.234375 16.796875 8.0625 
Q 21.484375 6.890625 26.703125 6.890625 
Q 35.15625 6.890625 40.078125 11.328125 
Q 45.015625 15.765625 45.015625 23.390625 
Q 45.015625 31 40.078125 35.4375 
Q 35.15625 39.890625 26.703125 39.890625 
Q 22.75 39.890625 18.8125 39.015625 
Q 14.890625 38.140625 10.796875 36.28125 
z
" id="DejaVuSans-53"/>
      </defs>
      <g transform="translate(150.022227 322.182437)scale(0.1 -0.1)">
       <use xlink:href="#DejaVuSans-53"/>
       <use x="63.623047" xlink:href="#DejaVuSans-48"/>
       <use x="127.246094" xlink:href="#DejaVuSans-48"/>
      </g>
     </g>
    </g>
    <g id="xtick_3">
     <g id="line2d_3">
      <g>
       <use style="stroke:#000000;stroke-width:0.8;" x="238.285425" xlink:href="#m2a47193620" y="307.584"/>
      </g>
     </g>
     <g id="text_3">
      <!-- 1000 -->
      <defs>
       <path d="M 12.40625 8.296875 
L 28.515625 8.296875 
L 28.515625 63.921875 
L 10.984375 60.40625 
L 10.984375 69.390625 
L 28.421875 72.90625 
L 38.28125 72.90625 
L 38.28125 8.296875 
L 54.390625 8.296875 
L 54.390625 0 
L 12.40625 0 
z
" id="DejaVuSans-49"/>
      </defs>
      <g transform="translate(225.560425 322.182437)scale(0.1 -0.1)">
       <use xlink:href="#DejaVuSans-49"/>
       <use x="63.623047" xlink:href="#DejaVuSans-48"/>
       <use x="127.246094" xlink:href="#DejaVuSans-48"/>
       <use x="190.869141" xlink:href="#DejaVuSans-48"/>
      </g>
     </g>
    </g>
    <g id="xtick_4">
     <g id="line2d_4">
      <g>
       <use style="stroke:#000000;stroke-width:0.8;" x="317.004873" xlink:href="#m2a47193620" y="307.584"/>
      </g>
     </g>
     <g id="text_4">
      <!-- 1500 -->
      <g transform="translate(304.279873 322.182437)scale(0.1 -0.1)">
       <use xlink:href="#DejaVuSans-49"/>
       <use x="63.623047" xlink:href="#DejaVuSans-53"/>
       <use x="127.246094" xlink:href="#DejaVuSans-48"/>
       <use x="190.869141" xlink:href="#DejaVuSans-48"/>
      </g>
     </g>
    </g>
    <g id="xtick_5">
     <g id="line2d_5">
      <g>
       <use style="stroke:#000000;stroke-width:0.8;" x="395.724322" xlink:href="#m2a47193620" y="307.584"/>
      </g>
     </g>
     <g id="text_5">
      <!-- 2000 -->
      <defs>
       <path d="M 19.1875 8.296875 
L 53.609375 8.296875 
L 53.609375 0 
L 7.328125 0 
L 7.328125 8.296875 
Q 12.9375 14.109375 22.625 23.890625 
Q 32.328125 33.6875 34.8125 36.53125 
Q 39.546875 41.84375 41.421875 45.53125 
Q 43.3125 49.21875 43.3125 52.78125 
Q 43.3125 58.59375 39.234375 62.25 
Q 35.15625 65.921875 28.609375 65.921875 
Q 23.96875 65.921875 18.8125 64.3125 
Q 13.671875 62.703125 7.8125 59.421875 
L 7.8125 69.390625 
Q 13.765625 71.78125 18.9375 73 
Q 24.125 74.21875 28.421875 74.21875 
Q 39.75 74.21875 46.484375 68.546875 
Q 53.21875 62.890625 53.21875 53.421875 
Q 53.21875 48.921875 51.53125 44.890625 
Q 49.859375 40.875 45.40625 35.40625 
Q 44.1875 33.984375 37.640625 27.21875 
Q 31.109375 20.453125 19.1875 8.296875 
z
" id="DejaVuSans-50"/>
      </defs>
      <g transform="translate(382.999322 322.182437)scale(0.1 -0.1)">
       <use xlink:href="#DejaVuSans-50"/>
       <use x="63.623047" xlink:href="#DejaVuSans-48"/>
       <use x="127.246094" xlink:href="#DejaVuSans-48"/>
       <use x="190.869141" xlink:href="#DejaVuSans-48"/>
      </g>
     </g>
    </g>
    <g id="text_6">
     <!-- fibrinopeakac -->
     <defs>
      <path d="M 37.109375 75.984375 
L 37.109375 68.5 
L 28.515625 68.5 
Q 23.6875 68.5 21.796875 66.546875 
Q 19.921875 64.59375 19.921875 59.515625 
L 19.921875 54.6875 
L 34.71875 54.6875 
L 34.71875 47.703125 
L 19.921875 47.703125 
L 19.921875 0 
L 10.890625 0 
L 10.890625 47.703125 
L 2.296875 47.703125 
L 2.296875 54.6875 
L 10.890625 54.6875 
L 10.890625 58.5 
Q 10.890625 67.625 15.140625 71.796875 
Q 19.390625 75.984375 28.609375 75.984375 
z
" id="DejaVuSans-102"/>
      <path d="M 9.421875 54.6875 
L 18.40625 54.6875 
L 18.40625 0 
L 9.421875 0 
z
M 9.421875 75.984375 
L 18.40625 75.984375 
L 18.40625 64.59375 
L 9.421875 64.59375 
z
" id="DejaVuSans-105"/>
      <path d="M 48.6875 27.296875 
Q 48.6875 37.203125 44.609375 42.84375 
Q 40.53125 48.484375 33.40625 48.484375 
Q 26.265625 48.484375 22.1875 42.84375 
Q 18.109375 37.203125 18.109375 27.296875 
Q 18.109375 17.390625 22.1875 11.75 
Q 26.265625 6.109375 33.40625 6.109375 
Q 40.53125 6.109375 44.609375 11.75 
Q 48.6875 17.390625 48.6875 27.296875 
z
M 18.109375 46.390625 
Q 20.953125 51.265625 25.265625 53.625 
Q 29.59375 56 35.59375 56 
Q 45.5625 56 51.78125 48.09375 
Q 58.015625 40.1875 58.015625 27.296875 
Q 58.015625 14.40625 51.78125 6.484375 
Q 45.5625 -1.421875 35.59375 -1.421875 
Q 29.59375 -1.421875 25.265625 0.953125 
Q 20.953125 3.328125 18.109375 8.203125 
L 18.109375 0 
L 9.078125 0 
L 9.078125 75.984375 
L 18.109375 75.984375 
z
" id="DejaVuSans-98"/>
      <path d="M 41.109375 46.296875 
Q 39.59375 47.171875 37.8125 47.578125 
Q 36.03125 48 33.890625 48 
Q 26.265625 48 22.1875 43.046875 
Q 18.109375 38.09375 18.109375 28.8125 
L 18.109375 0 
L 9.078125 0 
L 9.078125 54.6875 
L 18.109375 54.6875 
L 18.109375 46.1875 
Q 20.953125 51.171875 25.484375 53.578125 
Q 30.03125 56 36.53125 56 
Q 37.453125 56 38.578125 55.875 
Q 39.703125 55.765625 41.0625 55.515625 
z
" id="DejaVuSans-114"/>
      <path d="M 54.890625 33.015625 
L 54.890625 0 
L 45.90625 0 
L 45.90625 32.71875 
Q 45.90625 40.484375 42.875 44.328125 
Q 39.84375 48.1875 33.796875 48.1875 
Q 26.515625 48.1875 22.3125 43.546875 
Q 18.109375 38.921875 18.109375 30.90625 
L 18.109375 0 
L 9.078125 0 
L 9.078125 54.6875 
L 18.109375 54.6875 
L 18.109375 46.1875 
Q 21.34375 51.125 25.703125 53.5625 
Q 30.078125 56 35.796875 56 
Q 45.21875 56 50.046875 50.171875 
Q 54.890625 44.34375 54.890625 33.015625 
z
" id="DejaVuSans-110"/>
      <path d="M 30.609375 48.390625 
Q 23.390625 48.390625 19.1875 42.75 
Q 14.984375 37.109375 14.984375 27.296875 
Q 14.984375 17.484375 19.15625 11.84375 
Q 23.34375 6.203125 30.609375 6.203125 
Q 37.796875 6.203125 41.984375 11.859375 
Q 46.1875 17.53125 46.1875 27.296875 
Q 46.1875 37.015625 41.984375 42.703125 
Q 37.796875 48.390625 30.609375 48.390625 
z
M 30.609375 56 
Q 42.328125 56 49.015625 48.375 
Q 55.71875 40.765625 55.71875 27.296875 
Q 55.71875 13.875 49.015625 6.21875 
Q 42.328125 -1.421875 30.609375 -1.421875 
Q 18.84375 -1.421875 12.171875 6.21875 
Q 5.515625 13.875 5.515625 27.296875 
Q 5.515625 40.765625 12.171875 48.375 
Q 18.84375 56 30.609375 56 
z
" id="DejaVuSans-111"/>
      <path d="M 18.109375 8.203125 
L 18.109375 -20.796875 
L 9.078125 -20.796875 
L 9.078125 54.6875 
L 18.109375 54.6875 
L 18.109375 46.390625 
Q 20.953125 51.265625 25.265625 53.625 
Q 29.59375 56 35.59375 56 
Q 45.5625 56 51.78125 48.09375 
Q 58.015625 40.1875 58.015625 27.296875 
Q 58.015625 14.40625 51.78125 6.484375 
Q 45.5625 -1.421875 35.59375 -1.421875 
Q 29.59375 -1.421875 25.265625 0.953125 
Q 20.953125 3.328125 18.109375 8.203125 
z
M 48.6875 27.296875 
Q 48.6875 37.203125 44.609375 42.84375 
Q 40.53125 48.484375 33.40625 48.484375 
Q 26.265625 48.484375 22.1875 42.84375 
Q 18.109375 37.203125 18.109375 27.296875 
Q 18.109375 17.390625 22.1875 11.75 
Q 26.265625 6.109375 33.40625 6.109375 
Q 40.53125 6.109375 44.609375 11.75 
Q 48.6875 17.390625 48.6875 27.296875 
z
" id="DejaVuSans-112"/>
      <path d="M 56.203125 29.59375 
L 56.203125 25.203125 
L 14.890625 25.203125 
Q 15.484375 15.921875 20.484375 11.0625 
Q 25.484375 6.203125 34.421875 6.203125 
Q 39.59375 6.203125 44.453125 7.46875 
Q 49.3125 8.734375 54.109375 11.28125 
L 54.109375 2.78125 
Q 49.265625 0.734375 44.1875 -0.34375 
Q 39.109375 -1.421875 33.890625 -1.421875 
Q 20.796875 -1.421875 13.15625 6.1875 
Q 5.515625 13.8125 5.515625 26.8125 
Q 5.515625 40.234375 12.765625 48.109375 
Q 20.015625 56 32.328125 56 
Q 43.359375 56 49.78125 48.890625 
Q 56.203125 41.796875 56.203125 29.59375 
z
M 47.21875 32.234375 
Q 47.125 39.59375 43.09375 43.984375 
Q 39.0625 48.390625 32.421875 48.390625 
Q 24.90625 48.390625 20.390625 44.140625 
Q 15.875 39.890625 15.1875 32.171875 
z
" id="DejaVuSans-101"/>
      <path d="M 34.28125 27.484375 
Q 23.390625 27.484375 19.1875 25 
Q 14.984375 22.515625 14.984375 16.5 
Q 14.984375 11.71875 18.140625 8.90625 
Q 21.296875 6.109375 26.703125 6.109375 
Q 34.1875 6.109375 38.703125 11.40625 
Q 43.21875 16.703125 43.21875 25.484375 
L 43.21875 27.484375 
z
M 52.203125 31.203125 
L 52.203125 0 
L 43.21875 0 
L 43.21875 8.296875 
Q 40.140625 3.328125 35.546875 0.953125 
Q 30.953125 -1.421875 24.3125 -1.421875 
Q 15.921875 -1.421875 10.953125 3.296875 
Q 6 8.015625 6 15.921875 
Q 6 25.140625 12.171875 29.828125 
Q 18.359375 34.515625 30.609375 34.515625 
L 43.21875 34.515625 
L 43.21875 35.40625 
Q 43.21875 41.609375 39.140625 45 
Q 35.0625 48.390625 27.6875 48.390625 
Q 23 48.390625 18.546875 47.265625 
Q 14.109375 46.140625 10.015625 43.890625 
L 10.015625 52.203125 
Q 14.9375 54.109375 19.578125 55.046875 
Q 24.21875 56 28.609375 56 
Q 40.484375 56 46.34375 49.84375 
Q 52.203125 43.703125 52.203125 31.203125 
z
" id="DejaVuSans-97"/>
      <path d="M 9.078125 75.984375 
L 18.109375 75.984375 
L 18.109375 31.109375 
L 44.921875 54.6875 
L 56.390625 54.6875 
L 27.390625 29.109375 
L 57.625 0 
L 45.90625 0 
L 18.109375 26.703125 
L 18.109375 0 
L 9.078125 0 
z
" id="DejaVuSans-107"/>
      <path d="M 48.78125 52.59375 
L 48.78125 44.1875 
Q 44.96875 46.296875 41.140625 47.34375 
Q 37.3125 48.390625 33.40625 48.390625 
Q 24.65625 48.390625 19.8125 42.84375 
Q 14.984375 37.3125 14.984375 27.296875 
Q 14.984375 17.28125 19.8125 11.734375 
Q 24.65625 6.203125 33.40625 6.203125 
Q 37.3125 6.203125 41.140625 7.25 
Q 44.96875 8.296875 48.78125 10.40625 
L 48.78125 2.09375 
Q 45.015625 0.34375 40.984375 -0.53125 
Q 36.96875 -1.421875 32.421875 -1.421875 
Q 20.0625 -1.421875 12.78125 6.34375 
Q 5.515625 14.109375 5.515625 27.296875 
Q 5.515625 40.671875 12.859375 48.328125 
Q 20.21875 56 33.015625 56 
Q 37.15625 56 41.109375 55.140625 
Q 45.0625 54.296875 48.78125 52.59375 
z
" id="DejaVuSans-99"/>
     </defs>
     <g transform="translate(202.227969 335.860562)scale(0.1 -0.1)">
      <use xlink:href="#DejaVuSans-102"/>
      <use x="35.205078" xlink:href="#DejaVuSans-105"/>
      <use x="62.988281" xlink:href="#DejaVuSans-98"/>
      <use x="126.464844" xlink:href="#DejaVuSans-114"/>
      <use x="167.578125" xlink:href="#DejaVuSans-105"/>
      <use x="195.361328" xlink:href="#DejaVuSans-110"/>
      <use x="258.740234" xlink:href="#DejaVuSans-111"/>
      <use x="319.921875" xlink:href="#DejaVuSans-112"/>
      <use x="383.398438" xlink:href="#DejaVuSans-101"/>
      <use x="444.921875" xlink:href="#DejaVuSans-97"/>
      <use x="506.201172" xlink:href="#DejaVuSans-107"/>
      <use x="562.361328" xlink:href="#DejaVuSans-97"/>
      <use x="623.640625" xlink:href="#DejaVuSans-99"/>
     </g>
    </g>
   </g>
   <g id="matplotlib.axis_2">
    <g id="ytick_1">
     <g id="line2d_6">
      <defs>
       <path d="M 0 0 
L -3.5 0 
" id="mad80960e3e" style="stroke:#000000;stroke-width:0.8;"/>
      </defs>
      <g>
       <use style="stroke:#000000;stroke-width:0.8;" x="57.6" xlink:href="#mad80960e3e" y="174.528"/>
      </g>
     </g>
    </g>
   </g>
   <g id="line2d_7">
    <path clip-path="url(#p76bac2880a)" d="M 108.083457 174.528 
L 246.787126 174.528 
" style="fill:none;stroke:#ffa500;stroke-linecap:square;stroke-width:1.5;"/>
   </g>
   <g id="line2d_8">
    <path clip-path="url(#p76bac2880a)" d="M 158.306466 174.528 
L 204.908379 174.528 
" style="fill:none;stroke:#4c4c4c;stroke-linecap:square;stroke-width:4.5;"/>
   </g>
   <g id="line2d_9">
    <path clip-path="url(#p76bac2880a)" d="M 123.512469 174.528 
L 220.337391 174.528 
" style="fill:none;stroke:#008000;stroke-linecap:square;stroke-width:1.5;"/>
   </g>
   <g id="line2d_10">
    <path clip-path="url(#p76bac2880a)" d="M 140.358431 174.528 
L 192.903663 174.528 
" style="fill:none;stroke:#262626;stroke-linecap:square;stroke-width:4.5;"/>
   </g>
   <g id="patch_3">
    <path d="M 57.6 307.584 
L 57.6 41.472 
" style="fill:none;stroke:#000000;stroke-linecap:square;stroke-linejoin:miter;stroke-width:0.8;"/>
   </g>
   <g id="patch_4">
    <path d="M 414.72 307.584 
L 414.72 41.472 
" style="fill:none;stroke:#000000;stroke-linecap:square;stroke-linejoin:miter;stroke-width:0.8;"/>
   </g>
   <g id="patch_5">
    <path d="M 57.6 307.584 
L 414.72 307.584 
" style="fill:none;stroke:#000000;stroke-linecap:square;stroke-linejoin:miter;stroke-width:0.8;"/>
   </g>
   <g id="patch_6">
    <path d="M 57.6 41.472 
L 414.72 41.472 
" style="fill:none;stroke:#000000;stroke-linecap:square;stroke-linejoin:miter;stroke-width:0.8;"/>
   </g>
   <g id="PathCollection_1">
    <defs>
     <path d="M 0 1.5 
C 0.397805 1.5 0.77937 1.341951 1.06066 1.06066 
C 1.341951 0.77937 1.5 0.397805 1.5 0 
C 1.5 -0.397805 1.341951 -0.77937 1.06066 -1.06066 
C 0.77937 -1.341951 0.397805 -1.5 0 -1.5 
C -0.397805 -1.5 -0.77937 -1.341951 -1.06066 -1.06066 
C -1.341951 -0.77937 -1.5 -0.397805 -1.5 0 
C -1.5 0.397805 -1.341951 0.77937 -1.06066 1.06066 
C -0.77937 1.341951 -0.397805 1.5 0 1.5 
z
" id="m5668950b27" style="stroke:#4c4c4c;stroke-opacity:0.5;"/>
    </defs>
    <g clip-path="url(#p76bac2880a)">
     <use style="fill:#ffffff;fill-opacity:0.5;stroke:#4c4c4c;stroke-opacity:0.5;" x="183.811567" xlink:href="#m5668950b27" y="174.528"/>
    </g>
   </g>
   <g id="PathCollection_2">
    <defs>
     <path d="M 0 1.5 
C 0.397805 1.5 0.77937 1.341951 1.06066 1.06066 
C 1.341951 0.77937 1.5 0.397805 1.5 0 
C 1.5 -0.397805 1.341951 -0.77937 1.06066 -1.06066 
C 0.77937 -1.341951 0.397805 -1.5 0 -1.5 
C -0.397805 -1.5 -0.77937 -1.341951 -1.06066 -1.06066 
C -1.341951 -0.77937 -1.5 -0.397805 -1.5 0 
C -1.5 0.397805 -1.341951 0.77937 -1.06066 1.06066 
C -0.77937 1.341951 -0.397805 1.5 0 1.5 
z
" id="m7231ceee28" style="stroke:#262626;stroke-opacity:0.5;"/>
    </defs>
    <g clip-path="url(#p76bac2880a)">
     <use style="fill:#ffffff;fill-opacity:0.5;stroke:#262626;stroke-opacity:0.5;" x="161.612682" xlink:href="#m7231ceee28" y="174.528"/>
    </g>
   </g>
   <g id="text_7">
    <!-- Association of fibrinopeakac vs. nasal_cannula -->
    <defs>
     <path d="M 34.1875 63.1875 
L 20.796875 26.90625 
L 47.609375 26.90625 
z
M 28.609375 72.90625 
L 39.796875 72.90625 
L 67.578125 0 
L 57.328125 0 
L 50.6875 18.703125 
L 17.828125 18.703125 
L 11.1875 0 
L 0.78125 0 
z
" id="DejaVuSans-65"/>
     <path d="M 44.28125 53.078125 
L 44.28125 44.578125 
Q 40.484375 46.53125 36.375 47.5 
Q 32.28125 48.484375 27.875 48.484375 
Q 21.1875 48.484375 17.84375 46.4375 
Q 14.5 44.390625 14.5 40.28125 
Q 14.5 37.15625 16.890625 35.375 
Q 19.28125 33.59375 26.515625 31.984375 
L 29.59375 31.296875 
Q 39.15625 29.25 43.1875 25.515625 
Q 47.21875 21.78125 47.21875 15.09375 
Q 47.21875 7.46875 41.1875 3.015625 
Q 35.15625 -1.421875 24.609375 -1.421875 
Q 20.21875 -1.421875 15.453125 -0.5625 
Q 10.6875 0.296875 5.421875 2 
L 5.421875 11.28125 
Q 10.40625 8.6875 15.234375 7.390625 
Q 20.0625 6.109375 24.8125 6.109375 
Q 31.15625 6.109375 34.5625 8.28125 
Q 37.984375 10.453125 37.984375 14.40625 
Q 37.984375 18.0625 35.515625 20.015625 
Q 33.0625 21.96875 24.703125 23.78125 
L 21.578125 24.515625 
Q 13.234375 26.265625 9.515625 29.90625 
Q 5.8125 33.546875 5.8125 39.890625 
Q 5.8125 47.609375 11.28125 51.796875 
Q 16.75 56 26.8125 56 
Q 31.78125 56 36.171875 55.265625 
Q 40.578125 54.546875 44.28125 53.078125 
z
" id="DejaVuSans-115"/>
     <path d="M 18.3125 70.21875 
L 18.3125 54.6875 
L 36.8125 54.6875 
L 36.8125 47.703125 
L 18.3125 47.703125 
L 18.3125 18.015625 
Q 18.3125 11.328125 20.140625 9.421875 
Q 21.96875 7.515625 27.59375 7.515625 
L 36.8125 7.515625 
L 36.8125 0 
L 27.59375 0 
Q 17.1875 0 13.234375 3.875 
Q 9.28125 7.765625 9.28125 18.015625 
L 9.28125 47.703125 
L 2.6875 47.703125 
L 2.6875 54.6875 
L 9.28125 54.6875 
L 9.28125 70.21875 
z
" id="DejaVuSans-116"/>
     <path id="DejaVuSans-32"/>
     <path d="M 2.984375 54.6875 
L 12.5 54.6875 
L 29.59375 8.796875 
L 46.6875 54.6875 
L 56.203125 54.6875 
L 35.6875 0 
L 23.484375 0 
z
" id="DejaVuSans-118"/>
     <path d="M 10.6875 12.40625 
L 21 12.40625 
L 21 0 
L 10.6875 0 
z
" id="DejaVuSans-46"/>
     <path d="M 9.421875 75.984375 
L 18.40625 75.984375 
L 18.40625 0 
L 9.421875 0 
z
" id="DejaVuSans-108"/>
     <path d="M 50.984375 -16.609375 
L 50.984375 -23.578125 
L -0.984375 -23.578125 
L -0.984375 -16.609375 
z
" id="DejaVuSans-95"/>
     <path d="M 8.5 21.578125 
L 8.5 54.6875 
L 17.484375 54.6875 
L 17.484375 21.921875 
Q 17.484375 14.15625 20.5 10.265625 
Q 23.53125 6.390625 29.59375 6.390625 
Q 36.859375 6.390625 41.078125 11.03125 
Q 45.3125 15.671875 45.3125 23.6875 
L 45.3125 54.6875 
L 54.296875 54.6875 
L 54.296875 0 
L 45.3125 0 
L 45.3125 8.40625 
Q 42.046875 3.421875 37.71875 1 
Q 33.40625 -1.421875 27.6875 -1.421875 
Q 18.265625 -1.421875 13.375 4.4375 
Q 8.5 10.296875 8.5 21.578125 
z
M 31.109375 56 
z
" id="DejaVuSans-117"/>
    </defs>
    <g transform="translate(96.608438 35.472)scale(0.12 -0.12)">
     <use xlink:href="#DejaVuSans-65"/>
     <use x="68.408203" xlink:href="#DejaVuSans-115"/>
     <use x="120.507812" xlink:href="#DejaVuSans-115"/>
     <use x="172.607422" xlink:href="#DejaVuSans-111"/>
     <use x="233.789062" xlink:href="#DejaVuSans-99"/>
     <use x="288.769531" xlink:href="#DejaVuSans-105"/>
     <use x="316.552734" xlink:href="#DejaVuSans-97"/>
     <use x="377.832031" xlink:href="#DejaVuSans-116"/>
     <use x="417.041016" xlink:href="#DejaVuSans-105"/>
     <use x="444.824219" xlink:href="#DejaVuSans-111"/>
     <use x="506.005859" xlink:href="#DejaVuSans-110"/>
     <use x="569.384766" xlink:href="#DejaVuSans-32"/>
     <use x="601.171875" xlink:href="#DejaVuSans-111"/>
     <use x="662.353516" xlink:href="#DejaVuSans-102"/>
     <use x="697.558594" xlink:href="#DejaVuSans-32"/>
     <use x="729.345703" xlink:href="#DejaVuSans-102"/>
     <use x="764.550781" xlink:href="#DejaVuSans-105"/>
     <use x="792.333984" xlink:href="#DejaVuSans-98"/>
     <use x="855.810547" xlink:href="#DejaVuSans-114"/>
     <use x="896.923828" xlink:href="#DejaVuSans-105"/>
     <use x="924.707031" xlink:href="#DejaVuSans-110"/>
     <use x="988.085938" xlink:href="#DejaVuSans-111"/>
     <use x="1049.267578" xlink:href="#DejaVuSans-112"/>
     <use x="1112.744141" xlink:href="#DejaVuSans-101"/>
     <use x="1174.267578" xlink:href="#DejaVuSans-97"/>
     <use x="1235.546875" xlink:href="#DejaVuSans-107"/>
     <use x="1291.707031" xlink:href="#DejaVuSans-97"/>
     <use x="1352.986328" xlink:href="#DejaVuSans-99"/>
     <use x="1407.966797" xlink:href="#DejaVuSans-32"/>
     <use x="1439.753906" xlink:href="#DejaVuSans-118"/>
     <use x="1498.933594" xlink:href="#DejaVuSans-115"/>
     <use x="1551.033203" xlink:href="#DejaVuSans-46"/>
     <use x="1582.820312" xlink:href="#DejaVuSans-32"/>
     <use x="1614.607422" xlink:href="#DejaVuSans-110"/>
     <use x="1677.986328" xlink:href="#DejaVuSans-97"/>
     <use x="1739.265625" xlink:href="#DejaVuSans-115"/>
     <use x="1791.365234" xlink:href="#DejaVuSans-97"/>
     <use x="1852.644531" xlink:href="#DejaVuSans-108"/>
     <use x="1880.427734" xlink:href="#DejaVuSans-95"/>
     <use x="1930.427734" xlink:href="#DejaVuSans-99"/>
     <use x="1985.408203" xlink:href="#DejaVuSans-97"/>
     <use x="2046.6875" xlink:href="#DejaVuSans-110"/>
     <use x="2110.066406" xlink:href="#DejaVuSans-110"/>
     <use x="2173.445312" xlink:href="#DejaVuSans-117"/>
     <use x="2236.824219" xlink:href="#DejaVuSans-108"/>
     <use x="2264.607422" xlink:href="#DejaVuSans-97"/>
    </g>
   </g>
   <g id="legend_1">
    <g id="patch_7">
     <path d="M 260.18875 79.3845 
L 407.72 79.3845 
Q 409.72 79.3845 409.72 77.3845 
L 409.72 48.472 
Q 409.72 46.472 407.72 46.472 
L 260.18875 46.472 
Q 258.18875 46.472 258.18875 48.472 
L 258.18875 77.3845 
Q 258.18875 79.3845 260.18875 79.3845 
z
" style="fill:#ffffff;opacity:0.8;stroke:#cccccc;stroke-linejoin:miter;"/>
    </g>
    <g id="line2d_11">
     <path d="M 262.18875 54.570438 
L 282.18875 54.570438 
" style="fill:none;stroke:#ffa500;stroke-linecap:square;stroke-width:1.5;"/>
    </g>
    <g id="line2d_12"/>
    <g id="text_8">
     <!-- nasal_cannula (61) -->
     <defs>
      <path d="M 31 75.875 
Q 24.46875 64.65625 21.28125 53.65625 
Q 18.109375 42.671875 18.109375 31.390625 
Q 18.109375 20.125 21.3125 9.0625 
Q 24.515625 -2 31 -13.1875 
L 23.1875 -13.1875 
Q 15.875 -1.703125 12.234375 9.375 
Q 8.59375 20.453125 8.59375 31.390625 
Q 8.59375 42.28125 12.203125 53.3125 
Q 15.828125 64.359375 23.1875 75.875 
z
" id="DejaVuSans-40"/>
      <path d="M 33.015625 40.375 
Q 26.375 40.375 22.484375 35.828125 
Q 18.609375 31.296875 18.609375 23.390625 
Q 18.609375 15.53125 22.484375 10.953125 
Q 26.375 6.390625 33.015625 6.390625 
Q 39.65625 6.390625 43.53125 10.953125 
Q 47.40625 15.53125 47.40625 23.390625 
Q 47.40625 31.296875 43.53125 35.828125 
Q 39.65625 40.375 33.015625 40.375 
z
M 52.59375 71.296875 
L 52.59375 62.3125 
Q 48.875 64.0625 45.09375 64.984375 
Q 41.3125 65.921875 37.59375 65.921875 
Q 27.828125 65.921875 22.671875 59.328125 
Q 17.53125 52.734375 16.796875 39.40625 
Q 19.671875 43.65625 24.015625 45.921875 
Q 28.375 48.1875 33.59375 48.1875 
Q 44.578125 48.1875 50.953125 41.515625 
Q 57.328125 34.859375 57.328125 23.390625 
Q 57.328125 12.15625 50.6875 5.359375 
Q 44.046875 -1.421875 33.015625 -1.421875 
Q 20.359375 -1.421875 13.671875 8.265625 
Q 6.984375 17.96875 6.984375 36.375 
Q 6.984375 53.65625 15.1875 63.9375 
Q 23.390625 74.21875 37.203125 74.21875 
Q 40.921875 74.21875 44.703125 73.484375 
Q 48.484375 72.75 52.59375 71.296875 
z
" id="DejaVuSans-54"/>
      <path d="M 8.015625 75.875 
L 15.828125 75.875 
Q 23.140625 64.359375 26.78125 53.3125 
Q 30.421875 42.28125 30.421875 31.390625 
Q 30.421875 20.453125 26.78125 9.375 
Q 23.140625 -1.703125 15.828125 -13.1875 
L 8.015625 -13.1875 
Q 14.5 -2 17.703125 9.0625 
Q 20.90625 20.125 20.90625 31.390625 
Q 20.90625 42.671875 17.703125 53.65625 
Q 14.5 64.65625 8.015625 75.875 
z
" id="DejaVuSans-41"/>
     </defs>
     <g transform="translate(290.18875 58.070438)scale(0.1 -0.1)">
      <use xlink:href="#DejaVuSans-110"/>
      <use x="63.378906" xlink:href="#DejaVuSans-97"/>
      <use x="124.658203" xlink:href="#DejaVuSans-115"/>
      <use x="176.757812" xlink:href="#DejaVuSans-97"/>
      <use x="238.037109" xlink:href="#DejaVuSans-108"/>
      <use x="265.820312" xlink:href="#DejaVuSans-95"/>
      <use x="315.820312" xlink:href="#DejaVuSans-99"/>
      <use x="370.800781" xlink:href="#DejaVuSans-97"/>
      <use x="432.080078" xlink:href="#DejaVuSans-110"/>
      <use x="495.458984" xlink:href="#DejaVuSans-110"/>
      <use x="558.837891" xlink:href="#DejaVuSans-117"/>
      <use x="622.216797" xlink:href="#DejaVuSans-108"/>
      <use x="650" xlink:href="#DejaVuSans-97"/>
      <use x="711.279297" xlink:href="#DejaVuSans-32"/>
      <use x="743.066406" xlink:href="#DejaVuSans-40"/>
      <use x="782.080078" xlink:href="#DejaVuSans-54"/>
      <use x="845.703125" xlink:href="#DejaVuSans-49"/>
      <use x="909.326172" xlink:href="#DejaVuSans-41"/>
     </g>
    </g>
    <g id="line2d_13">
     <path d="M 262.18875 69.526688 
L 282.18875 69.526688 
" style="fill:none;stroke:#008000;stroke-linecap:square;stroke-width:1.5;"/>
    </g>
    <g id="line2d_14"/>
    <g id="text_9">
     <!-- Not nasal_cannula (14) -->
     <defs>
      <path d="M 9.8125 72.90625 
L 23.09375 72.90625 
L 55.421875 11.921875 
L 55.421875 72.90625 
L 64.984375 72.90625 
L 64.984375 0 
L 51.703125 0 
L 19.390625 60.984375 
L 19.390625 0 
L 9.8125 0 
z
" id="DejaVuSans-78"/>
      <path d="M 37.796875 64.3125 
L 12.890625 25.390625 
L 37.796875 25.390625 
z
M 35.203125 72.90625 
L 47.609375 72.90625 
L 47.609375 25.390625 
L 58.015625 25.390625 
L 58.015625 17.1875 
L 47.609375 17.1875 
L 47.609375 0 
L 37.796875 0 
L 37.796875 17.1875 
L 4.890625 17.1875 
L 4.890625 26.703125 
z
" id="DejaVuSans-52"/>
     </defs>
     <g transform="translate(290.18875 73.026688)scale(0.1 -0.1)">
      <use xlink:href="#DejaVuSans-78"/>
      <use x="74.804688" xlink:href="#DejaVuSans-111"/>
      <use x="135.986328" xlink:href="#DejaVuSans-116"/>
      <use x="175.195312" xlink:href="#DejaVuSans-32"/>
      <use x="206.982422" xlink:href="#DejaVuSans-110"/>
      <use x="270.361328" xlink:href="#DejaVuSans-97"/>
      <use x="331.640625" xlink:href="#DejaVuSans-115"/>
      <use x="383.740234" xlink:href="#DejaVuSans-97"/>
      <use x="445.019531" xlink:href="#DejaVuSans-108"/>
      <use x="472.802734" xlink:href="#DejaVuSans-95"/>
      <use x="522.802734" xlink:href="#DejaVuSans-99"/>
      <use x="577.783203" xlink:href="#DejaVuSans-97"/>
      <use x="639.0625" xlink:href="#DejaVuSans-110"/>
      <use x="702.441406" xlink:href="#DejaVuSans-110"/>
      <use x="765.820312" xlink:href="#DejaVuSans-117"/>
      <use x="829.199219" xlink:href="#DejaVuSans-108"/>
      <use x="856.982422" xlink:href="#DejaVuSans-97"/>
      <use x="918.261719" xlink:href="#DejaVuSans-32"/>
      <use x="950.048828" xlink:href="#DejaVuSans-40"/>
      <use x="989.0625" xlink:href="#DejaVuSans-49"/>
      <use x="1052.685547" xlink:href="#DejaVuSans-52"/>
      <use x="1116.308594" xlink:href="#DejaVuSans-41"/>
     </g>
    </g>
   </g>
  </g>
 </g>
 <defs>
  <clipPath id="p76bac2880a">
   <rect height="266.112" width="357.12" x="57.6" y="41.472"/>
  </clipPath>
 </defs>
</svg>
